G04*
G04 #@! TF.GenerationSoftware,Altium Limited,Altium Designer,20.2.6 (244)*
G04*
G04 Layer_Color=8421504*
%FSLAX44Y44*%
%MOMM*%
G71*
G04*
G04 #@! TF.SameCoordinates,5F1E5769-8BC1-42D3-870D-05276483D41C*
G04*
G04*
G04 #@! TF.FilePolarity,Positive*
G04*
G01*
G75*
%ADD16R,1.4500X1.5000*%
%ADD17R,0.5298X1.1556*%
G04:AMPARAMS|DCode=18|XSize=1.1556mm|YSize=0.5298mm|CornerRadius=0.2649mm|HoleSize=0mm|Usage=FLASHONLY|Rotation=90.000|XOffset=0mm|YOffset=0mm|HoleType=Round|Shape=RoundedRectangle|*
%AMROUNDEDRECTD18*
21,1,1.1556,0.0000,0,0,90.0*
21,1,0.6258,0.5298,0,0,90.0*
1,1,0.5298,0.0000,0.3129*
1,1,0.5298,0.0000,-0.3129*
1,1,0.5298,0.0000,-0.3129*
1,1,0.5298,0.0000,0.3129*
%
%ADD18ROUNDEDRECTD18*%
%ADD19R,1.5000X1.4500*%
%ADD20R,1.5000X1.2000*%
G04:AMPARAMS|DCode=21|XSize=0.65mm|YSize=1.2mm|CornerRadius=0.0488mm|HoleSize=0mm|Usage=FLASHONLY|Rotation=90.000|XOffset=0mm|YOffset=0mm|HoleType=Round|Shape=RoundedRectangle|*
%AMROUNDEDRECTD21*
21,1,0.6500,1.1025,0,0,90.0*
21,1,0.5525,1.2000,0,0,90.0*
1,1,0.0975,0.5513,0.2763*
1,1,0.0975,0.5513,-0.2763*
1,1,0.0975,-0.5513,-0.2763*
1,1,0.0975,-0.5513,0.2763*
%
%ADD21ROUNDEDRECTD21*%
%ADD22R,1.1000X1.8000*%
%ADD23R,1.2000X1.5000*%
%ADD24R,1.4500X0.6000*%
%ADD25R,1.4500X0.3000*%
G04:AMPARAMS|DCode=26|XSize=1.5mm|YSize=5mm|CornerRadius=0.375mm|HoleSize=0mm|Usage=FLASHONLY|Rotation=180.000|XOffset=0mm|YOffset=0mm|HoleType=Round|Shape=RoundedRectangle|*
%AMROUNDEDRECTD26*
21,1,1.5000,4.2500,0,0,180.0*
21,1,0.7500,5.0000,0,0,180.0*
1,1,0.7500,-0.3750,2.1250*
1,1,0.7500,0.3750,2.1250*
1,1,0.7500,0.3750,-2.1250*
1,1,0.7500,-0.3750,-2.1250*
%
%ADD26ROUNDEDRECTD26*%
%ADD27R,1.2000X1.4000*%
%ADD28R,1.0000X0.6000*%
%ADD29O,1.4000X0.2500*%
%ADD30R,0.4000X0.6500*%
G04:AMPARAMS|DCode=31|XSize=0.55mm|YSize=1.25mm|CornerRadius=0.0495mm|HoleSize=0mm|Usage=FLASHONLY|Rotation=270.000|XOffset=0mm|YOffset=0mm|HoleType=Round|Shape=RoundedRectangle|*
%AMROUNDEDRECTD31*
21,1,0.5500,1.1510,0,0,270.0*
21,1,0.4510,1.2500,0,0,270.0*
1,1,0.0990,-0.5755,-0.2255*
1,1,0.0990,-0.5755,0.2255*
1,1,0.0990,0.5755,0.2255*
1,1,0.0990,0.5755,-0.2255*
%
%ADD31ROUNDEDRECTD31*%
G04:AMPARAMS|DCode=32|XSize=0.55mm|YSize=0.8mm|CornerRadius=0.0495mm|HoleSize=0mm|Usage=FLASHONLY|Rotation=0.000|XOffset=0mm|YOffset=0mm|HoleType=Round|Shape=RoundedRectangle|*
%AMROUNDEDRECTD32*
21,1,0.5500,0.7010,0,0,0.0*
21,1,0.4510,0.8000,0,0,0.0*
1,1,0.0990,0.2255,-0.3505*
1,1,0.0990,-0.2255,-0.3505*
1,1,0.0990,-0.2255,0.3505*
1,1,0.0990,0.2255,0.3505*
%
%ADD32ROUNDEDRECTD32*%
G04:AMPARAMS|DCode=33|XSize=0.45mm|YSize=1.05mm|CornerRadius=0.0495mm|HoleSize=0mm|Usage=FLASHONLY|Rotation=0.000|XOffset=0mm|YOffset=0mm|HoleType=Round|Shape=RoundedRectangle|*
%AMROUNDEDRECTD33*
21,1,0.4500,0.9510,0,0,0.0*
21,1,0.3510,1.0500,0,0,0.0*
1,1,0.0990,0.1755,-0.4755*
1,1,0.0990,-0.1755,-0.4755*
1,1,0.0990,-0.1755,0.4755*
1,1,0.0990,0.1755,0.4755*
%
%ADD33ROUNDEDRECTD33*%
%ADD34O,1.8000X0.3000*%
%ADD35O,0.3000X1.8000*%
%ADD36R,1.3500X1.8500*%
%ADD37R,1.0000X1.4000*%
D16*
X748250Y110000D02*
D03*
X766750D02*
D03*
X708250D02*
D03*
X726750D02*
D03*
X676750D02*
D03*
X658250D02*
D03*
X743250Y50000D02*
D03*
X761750D02*
D03*
X595750Y352250D02*
D03*
X577250D02*
D03*
X685750D02*
D03*
X667250D02*
D03*
X775750D02*
D03*
X757250D02*
D03*
X884250Y235000D02*
D03*
X865750D02*
D03*
X764250Y270000D02*
D03*
X745750D02*
D03*
X708250D02*
D03*
X726750D02*
D03*
X660750D02*
D03*
X679250D02*
D03*
X608250Y240000D02*
D03*
X626750D02*
D03*
X606750Y137500D02*
D03*
X588250D02*
D03*
X405750Y67500D02*
D03*
X424250D02*
D03*
X246750Y145000D02*
D03*
X228250D02*
D03*
X371750Y187500D02*
D03*
X353250D02*
D03*
X441750Y142500D02*
D03*
X423250D02*
D03*
X228250Y15000D02*
D03*
X246750D02*
D03*
X865750Y180000D02*
D03*
X884250D02*
D03*
D17*
X743000Y66747D02*
D03*
D18*
X752500D02*
D03*
X762000D02*
D03*
Y88253D02*
D03*
X743000D02*
D03*
D19*
X722500Y84250D02*
D03*
Y65750D02*
D03*
X687500D02*
D03*
Y84250D02*
D03*
X782500Y158250D02*
D03*
Y176750D02*
D03*
Y216750D02*
D03*
Y198250D02*
D03*
X592500Y200750D02*
D03*
Y219250D02*
D03*
X587500Y158250D02*
D03*
Y176750D02*
D03*
X305000Y80750D02*
D03*
Y99250D02*
D03*
X282500Y80750D02*
D03*
Y99250D02*
D03*
X350000Y113250D02*
D03*
Y131750D02*
D03*
X372500Y113250D02*
D03*
Y131750D02*
D03*
X545000Y103250D02*
D03*
Y121750D02*
D03*
X517500Y103250D02*
D03*
Y121750D02*
D03*
X490000Y103250D02*
D03*
Y121750D02*
D03*
X826500Y331500D02*
D03*
Y313000D02*
D03*
X736500Y331500D02*
D03*
Y313000D02*
D03*
X646500Y331500D02*
D03*
Y313000D02*
D03*
X556500Y331500D02*
D03*
Y313000D02*
D03*
D20*
X600000Y85500D02*
D03*
Y64500D02*
D03*
X620000D02*
D03*
Y85500D02*
D03*
X535000Y159500D02*
D03*
Y180500D02*
D03*
X495000Y159500D02*
D03*
Y180500D02*
D03*
X627500Y178000D02*
D03*
Y157000D02*
D03*
X607500Y178000D02*
D03*
Y157000D02*
D03*
D21*
X637750Y84500D02*
D03*
Y75000D02*
D03*
Y65500D02*
D03*
X667250D02*
D03*
Y84500D02*
D03*
X252250Y122000D02*
D03*
Y103000D02*
D03*
X222750D02*
D03*
Y112500D02*
D03*
Y122000D02*
D03*
D22*
X690950Y462010D02*
D03*
X738950D02*
D03*
X690950Y382010D02*
D03*
X738950Y382010D02*
D03*
X780950Y462010D02*
D03*
X828950D02*
D03*
X780950Y382010D02*
D03*
X828950Y382010D02*
D03*
X600950Y462010D02*
D03*
X648950D02*
D03*
X600950Y382010D02*
D03*
X648950Y382010D02*
D03*
X510950Y462010D02*
D03*
X558950D02*
D03*
X510950Y382010D02*
D03*
X558950Y382010D02*
D03*
D23*
X531000Y352250D02*
D03*
X552000D02*
D03*
X621000D02*
D03*
X642000D02*
D03*
X711000D02*
D03*
X732000D02*
D03*
X801000D02*
D03*
X822000D02*
D03*
X640500Y270000D02*
D03*
X619500D02*
D03*
X525500Y237500D02*
D03*
X504500D02*
D03*
X422000Y205000D02*
D03*
X443000D02*
D03*
X422000Y185000D02*
D03*
X443000D02*
D03*
X443000Y162500D02*
D03*
X422000D02*
D03*
X371750Y158000D02*
D03*
X350750D02*
D03*
X923000Y310000D02*
D03*
X902000D02*
D03*
X923000Y327500D02*
D03*
X902000D02*
D03*
X923000Y345000D02*
D03*
X902000D02*
D03*
X923000Y362500D02*
D03*
X902000D02*
D03*
D24*
X927250Y175500D02*
D03*
Y167500D02*
D03*
Y224500D02*
D03*
Y232500D02*
D03*
D25*
Y192500D02*
D03*
Y187500D02*
D03*
Y182500D02*
D03*
Y207500D02*
D03*
Y212500D02*
D03*
Y217500D02*
D03*
Y202500D02*
D03*
Y197500D02*
D03*
D26*
X367500Y72500D02*
D03*
X332500D02*
D03*
D27*
X625500Y199000D02*
D03*
Y221000D02*
D03*
X609500Y199000D02*
D03*
Y221000D02*
D03*
D28*
X225500Y35500D02*
D03*
Y54500D02*
D03*
X249500D02*
D03*
Y45000D02*
D03*
Y35500D02*
D03*
D29*
X897000Y197500D02*
D03*
Y202500D02*
D03*
Y207500D02*
D03*
Y212500D02*
D03*
Y217500D02*
D03*
X853000Y197500D02*
D03*
Y202500D02*
D03*
Y207500D02*
D03*
Y212500D02*
D03*
Y217500D02*
D03*
D30*
X404000Y169500D02*
D03*
X397500D02*
D03*
X391000D02*
D03*
Y150500D02*
D03*
X397500D02*
D03*
X404000D02*
D03*
D31*
X388750Y124050D02*
D03*
Y111350D02*
D03*
Y98650D02*
D03*
Y85950D02*
D03*
X441250Y124050D02*
D03*
Y111350D02*
D03*
Y98650D02*
D03*
Y85950D02*
D03*
D32*
X536000Y335000D02*
D03*
X526500D02*
D03*
X517000D02*
D03*
Y309500D02*
D03*
X536000D02*
D03*
X626000Y335000D02*
D03*
X616500D02*
D03*
X607000D02*
D03*
Y309500D02*
D03*
X626000D02*
D03*
X716000Y335000D02*
D03*
X706500D02*
D03*
X697000D02*
D03*
Y309500D02*
D03*
X716000D02*
D03*
X806000Y335000D02*
D03*
X796500D02*
D03*
X787000D02*
D03*
Y309500D02*
D03*
X806000D02*
D03*
D33*
X593000Y334500D02*
D03*
X586500D02*
D03*
X580000D02*
D03*
Y310000D02*
D03*
X593000D02*
D03*
X670000Y310000D02*
D03*
X676500D02*
D03*
X683000D02*
D03*
Y334500D02*
D03*
X670000D02*
D03*
X760000Y310000D02*
D03*
X766500D02*
D03*
X773000D02*
D03*
Y334500D02*
D03*
X760000D02*
D03*
D34*
X649500Y225000D02*
D03*
Y220000D02*
D03*
Y215000D02*
D03*
Y210000D02*
D03*
Y205000D02*
D03*
Y200000D02*
D03*
Y195000D02*
D03*
Y190000D02*
D03*
Y185000D02*
D03*
Y180000D02*
D03*
Y175000D02*
D03*
Y170000D02*
D03*
Y165000D02*
D03*
Y160000D02*
D03*
Y155000D02*
D03*
Y150000D02*
D03*
X760500D02*
D03*
Y155000D02*
D03*
Y160000D02*
D03*
Y165000D02*
D03*
Y170000D02*
D03*
Y175000D02*
D03*
Y180000D02*
D03*
Y185000D02*
D03*
Y190000D02*
D03*
Y195000D02*
D03*
Y200000D02*
D03*
Y205000D02*
D03*
Y210000D02*
D03*
Y215000D02*
D03*
Y220000D02*
D03*
Y225000D02*
D03*
D35*
X667500Y132000D02*
D03*
X672500D02*
D03*
X677500D02*
D03*
X682500D02*
D03*
X687500D02*
D03*
X692500D02*
D03*
X697500D02*
D03*
X702500D02*
D03*
X707500D02*
D03*
X712500D02*
D03*
X717500D02*
D03*
X722500D02*
D03*
X727500D02*
D03*
X732500D02*
D03*
X737500D02*
D03*
X742500D02*
D03*
Y243000D02*
D03*
X737500D02*
D03*
X732500D02*
D03*
X727500D02*
D03*
X722500D02*
D03*
X717500D02*
D03*
X712500D02*
D03*
X707500D02*
D03*
X702500D02*
D03*
X697500D02*
D03*
X692500D02*
D03*
X687500D02*
D03*
X682500D02*
D03*
X677500D02*
D03*
X672500D02*
D03*
X667500D02*
D03*
D36*
X222250Y80000D02*
D03*
X252750D02*
D03*
D37*
X544500Y218500D02*
D03*
X535000Y196500D02*
D03*
X525500Y218500D02*
D03*
X504500D02*
D03*
X495000Y196500D02*
D03*
X485500Y218500D02*
D03*
M02*
