G04*
G04 #@! TF.GenerationSoftware,Altium Limited,Altium Designer,20.2.6 (244)*
G04*
G04 Layer_Physical_Order=3*
G04 Layer_Color=128*
%FSLAX44Y44*%
%MOMM*%
G71*
G04*
G04 #@! TF.SameCoordinates,5F1E5769-8BC1-42D3-870D-05276483D41C*
G04*
G04*
G04 #@! TF.FilePolarity,Negative*
G04*
G01*
G75*
%ADD87C,1.0160*%
%ADD89C,0.9540*%
%ADD90C,1.3540*%
%ADD94C,0.9040*%
%ADD95C,1.5540*%
%ADD96O,22.2540X0.6540*%
%ADD97C,0.5540*%
G04:AMPARAMS|DCode=98|XSize=1.316mm|YSize=1.316mm|CornerRadius=0mm|HoleSize=0mm|Usage=FLASHONLY|Rotation=0.000|XOffset=0mm|YOffset=0mm|HoleType=Round|Shape=Relief|Width=0.254mm|Gap=0.254mm|Entries=4|*
%AMTHD98*
7,0,0,1.3160,0.8080,0.2540,45*
%
%ADD98THD98*%
G04:AMPARAMS|DCode=99|XSize=3.216mm|YSize=3.216mm|CornerRadius=0mm|HoleSize=0mm|Usage=FLASHONLY|Rotation=0.000|XOffset=0mm|YOffset=0mm|HoleType=Round|Shape=Relief|Width=0.254mm|Gap=0.254mm|Entries=4|*
%AMTHD99*
7,0,0,3.2160,2.7080,0.2540,45*
%
%ADD99THD99*%
G04:AMPARAMS|DCode=100|XSize=1.716mm|YSize=1.716mm|CornerRadius=0mm|HoleSize=0mm|Usage=FLASHONLY|Rotation=0.000|XOffset=0mm|YOffset=0mm|HoleType=Round|Shape=Relief|Width=0.254mm|Gap=0.254mm|Entries=4|*
%AMTHD100*
7,0,0,1.7160,1.2080,0.2540,45*
%
%ADD100THD100*%
%AMTHOVALD101*
21,1,0.6000,1.6160,0,0,180.0*
1,1,1.6160,0.3000,0.0000*
1,1,1.6160,-0.3000,0.0000*
21,0,0.6000,1.1080,0,0,180.0*
1,0,1.1080,0.3000,0.0000*
1,0,1.1080,-0.3000,0.0000*
4,0,4,0.2102,0.0898,0.7815,0.6611,0.9611,0.4815,0.3898,-0.0898,0.2102,0.0898,0.0*
4,0,4,-0.3898,0.0898,-0.9611,-0.4815,-0.7815,-0.6611,-0.2102,-0.0898,-0.3898,0.0898,0.0*
4,0,4,0.3898,0.0898,0.9611,-0.4815,0.7815,-0.6611,0.2102,-0.0898,0.3898,0.0898,0.0*
4,0,4,-0.2102,0.0898,-0.7815,0.6611,-0.9611,0.4815,-0.3898,-0.0898,-0.2102,0.0898,0.0*
%
%ADD101THOVALD101*%

%AMTHOVALD102*
21,1,1.1000,1.6160,0,0,180.0*
1,1,1.6160,0.5500,0.0000*
1,1,1.6160,-0.5500,0.0000*
21,0,1.1000,1.1080,0,0,180.0*
1,0,1.1080,0.5500,0.0000*
1,0,1.1080,-0.5500,0.0000*
4,0,4,0.4602,0.0898,1.0315,0.6611,1.2111,0.4815,0.6398,-0.0898,0.4602,0.0898,0.0*
4,0,4,-0.6398,0.0898,-1.2111,-0.4815,-1.0315,-0.6611,-0.4602,-0.0898,-0.6398,0.0898,0.0*
4,0,4,0.6398,0.0898,1.2111,-0.4815,1.0315,-0.6611,0.4602,-0.0898,0.6398,0.0898,0.0*
4,0,4,-0.4602,0.0898,-1.0315,0.6611,-1.2111,0.4815,-0.6398,-0.0898,-0.4602,0.0898,0.0*
%
%ADD102THOVALD102*%

G04:AMPARAMS|DCode=103|XSize=2.316mm|YSize=2.316mm|CornerRadius=0mm|HoleSize=0mm|Usage=FLASHONLY|Rotation=0.000|XOffset=0mm|YOffset=0mm|HoleType=Round|Shape=Relief|Width=0.254mm|Gap=0.254mm|Entries=4|*
%AMTHD103*
7,0,0,2.3160,1.8080,0.2540,45*
%
%ADD103THD103*%
D87*
X1000000Y20000D02*
Y480000D01*
X980000Y500000D02*
X1000000Y480000D01*
X20000Y500000D02*
X980000D01*
X0Y480000D02*
X20000Y500000D01*
X0Y20000D02*
X0Y480000D01*
X0Y20000D02*
X20000Y0D01*
X980000D01*
X1000000Y20000D01*
D89*
X966350Y310909D02*
D03*
Y323609D02*
D03*
X953650D02*
D03*
X966350Y336309D02*
D03*
Y349009D02*
D03*
Y361709D02*
D03*
X953650D02*
D03*
X868426Y159004D02*
D03*
X881126D02*
D03*
X868426Y146304D02*
D03*
X881126D02*
D03*
D90*
X925200Y390000D02*
D03*
X899800D02*
D03*
X822500Y139800D02*
D03*
Y165200D02*
D03*
D94*
X941700Y228900D02*
D03*
Y171100D02*
D03*
D95*
X847600Y55880D02*
D03*
X101600D02*
D03*
D96*
X158450Y219760D02*
D03*
D97*
X705612Y53594D02*
D03*
X234188Y35306D02*
D03*
X225500Y47296D02*
D03*
X401828Y142748D02*
D03*
X368345Y142520D02*
D03*
X837184Y331470D02*
D03*
X792988Y352298D02*
D03*
X854710Y179832D02*
D03*
Y235204D02*
D03*
X764540Y258572D02*
D03*
X657860Y331724D02*
D03*
X612648Y352044D02*
D03*
X656336Y352298D02*
D03*
X702564Y352044D02*
D03*
X757428Y363220D02*
D03*
X747776Y331724D02*
D03*
X117625Y355750D02*
D03*
X791718Y216408D02*
D03*
X791972Y158242D02*
D03*
X748792Y99822D02*
D03*
X711708Y84074D02*
D03*
X698246Y84328D02*
D03*
X687070Y109982D02*
D03*
X628396Y269748D02*
D03*
X593090Y301498D02*
D03*
X566166Y351536D02*
D03*
X567944Y331470D02*
D03*
X531114Y363220D02*
D03*
X401828Y176784D02*
D03*
X383032Y187706D02*
D03*
X607568Y167640D02*
D03*
X951484Y217424D02*
D03*
Y187198D02*
D03*
X419608Y85852D02*
D03*
X328930Y114554D02*
D03*
X407670Y35052D02*
D03*
X662305Y160020D02*
D03*
X599694Y92964D02*
D03*
X599948Y101600D02*
D03*
X405003Y245999D02*
D03*
X405257Y258699D02*
D03*
X649478Y258572D02*
D03*
X391033Y245872D02*
D03*
X390906Y254508D02*
D03*
X148336Y279019D02*
D03*
X179832Y267716D02*
D03*
X191389Y262287D02*
D03*
X667639Y255905D02*
D03*
X649478Y230886D02*
D03*
X636270Y194818D02*
D03*
X576072Y177038D02*
D03*
X698246Y269240D02*
D03*
X197612Y365252D02*
D03*
X177546D02*
D03*
X736250Y296375D02*
D03*
X690372Y326644D02*
D03*
X615950Y319786D02*
D03*
X740410Y223520D02*
D03*
X752348Y240284D02*
D03*
X590550Y320040D02*
D03*
X940344Y202438D02*
D03*
X940562Y192532D02*
D03*
D98*
X606806Y200152D02*
D03*
X241046Y44958D02*
D03*
X725170Y312928D02*
D03*
X786892Y326898D02*
D03*
X772922Y318262D02*
D03*
X837184Y312928D02*
D03*
X786638Y352298D02*
D03*
X517398Y133858D02*
D03*
X531114D02*
D03*
X503682D02*
D03*
X544830D02*
D03*
X489966D02*
D03*
X973074Y217424D02*
D03*
Y187198D02*
D03*
X886206Y207518D02*
D03*
X884682Y168402D02*
D03*
X726694Y258826D02*
D03*
X745490Y258572D02*
D03*
X679196Y259080D02*
D03*
X683006Y301244D02*
D03*
X657860Y313436D02*
D03*
X695960Y352044D02*
D03*
X780796Y395478D02*
D03*
Y450088D02*
D03*
X691134Y395224D02*
D03*
Y449834D02*
D03*
X600964Y395224D02*
D03*
Y449834D02*
D03*
X56896Y278638D02*
D03*
X105918D02*
D03*
X120142D02*
D03*
X134366D02*
D03*
X140970D02*
D03*
X162052D02*
D03*
X168910D02*
D03*
X196850D02*
D03*
X203962D02*
D03*
X211074D02*
D03*
X260096D02*
D03*
X252984D02*
D03*
X225044D02*
D03*
X217932D02*
D03*
X107442Y385572D02*
D03*
X127508D02*
D03*
X237236D02*
D03*
X257556D02*
D03*
X217424Y365252D02*
D03*
X791972Y187452D02*
D03*
X567944Y313690D02*
D03*
X577850Y325120D02*
D03*
X606298Y352044D02*
D03*
X517144Y342646D02*
D03*
X511048Y449834D02*
D03*
Y395224D02*
D03*
X217678Y145034D02*
D03*
X516128Y218440D02*
D03*
X485394Y232664D02*
D03*
X895604Y235204D02*
D03*
X258318Y15240D02*
D03*
X646938Y109728D02*
D03*
X696976Y109982D02*
D03*
X778256D02*
D03*
X772922Y54864D02*
D03*
X710692Y66040D02*
D03*
X699008D02*
D03*
X624840Y75184D02*
D03*
X600202Y74930D02*
D03*
X747522Y219964D02*
D03*
X737616Y143002D02*
D03*
X672592D02*
D03*
X627380Y148082D02*
D03*
X672465Y231394D02*
D03*
X576834Y137254D02*
D03*
X592582Y230886D02*
D03*
X576326Y158242D02*
D03*
X638556Y240030D02*
D03*
X411734Y204978D02*
D03*
X411988Y142494D02*
D03*
X399288Y98806D02*
D03*
X397510Y162052D02*
D03*
X341630Y187452D02*
D03*
X340360Y157734D02*
D03*
X338836Y131572D02*
D03*
X304800Y110744D02*
D03*
X282194D02*
D03*
X211582Y112522D02*
D03*
D99*
X25000Y25000D02*
D03*
X975000D02*
D03*
Y475000D02*
D03*
X25000D02*
D03*
D100*
X953650Y310909D02*
D03*
Y336309D02*
D03*
Y349009D02*
D03*
D101*
X978200Y156800D02*
D03*
Y243200D02*
D03*
D102*
X936400D02*
D03*
Y156800D02*
D03*
D103*
X898400Y55880D02*
D03*
X152400D02*
D03*
M02*
