G04*
G04 #@! TF.GenerationSoftware,Altium Limited,Altium Designer,20.2.6 (244)*
G04*
G04 Layer_Color=16711935*
%FSLAX44Y44*%
%MOMM*%
G71*
G04*
G04 #@! TF.SameCoordinates,5F1E5769-8BC1-42D3-870D-05276483D41C*
G04*
G04*
G04 #@! TF.FilePolarity,Positive*
G04*
G01*
G75*
%ADD107C,0.1000*%
D107*
X886000Y201500D02*
G03*
X886000Y201500I-5000J0D01*
G01*
X431000Y89000D02*
G03*
X431000Y89000I-5000J0D01*
G01*
X669000Y228500D02*
G03*
X669000Y228500I-5000J0D01*
G01*
X747000Y116750D02*
X768000D01*
X747000Y103250D02*
X768000D01*
X747000D02*
Y116750D01*
X768000Y103250D02*
Y116750D01*
X707000D02*
X728000D01*
X707000Y103250D02*
X728000D01*
X707000D02*
Y116750D01*
X728000Y103250D02*
Y116750D01*
X657000Y103250D02*
X678000D01*
X657000Y116750D02*
X678000D01*
Y103250D02*
Y116750D01*
X657000Y103250D02*
Y116750D01*
X742000Y56750D02*
X763000D01*
X742000Y43250D02*
X763000D01*
X742000D02*
Y56750D01*
X763000Y43250D02*
Y56750D01*
X729250Y64500D02*
Y85500D01*
X715750Y64500D02*
Y85500D01*
X729250D01*
X715750Y64500D02*
X729250D01*
X680750D02*
Y85500D01*
X694250Y64500D02*
Y85500D01*
X680750Y64500D02*
X694250D01*
X680750Y85500D02*
X694250D01*
X607000Y64000D02*
Y86000D01*
X593000Y64000D02*
Y86000D01*
X607000D01*
X593000Y64000D02*
X607000D01*
X613000D02*
Y86000D01*
X627000Y64000D02*
Y86000D01*
X613000Y64000D02*
X627000D01*
X613000Y86000D02*
X627000D01*
X643750Y59750D02*
Y90250D01*
X661250Y59750D02*
Y90250D01*
X643750D02*
X661250D01*
X643750Y59750D02*
X661250D01*
X530500Y359250D02*
X552500D01*
X530500Y345250D02*
X552500D01*
X530500D02*
Y359250D01*
X552500Y345250D02*
Y359250D01*
X576000Y345500D02*
X597000D01*
X576000Y359000D02*
X597000D01*
Y345500D02*
Y359000D01*
X576000Y345500D02*
Y359000D01*
X620500Y359250D02*
X642500D01*
X620500Y345250D02*
X642500D01*
X620500D02*
Y359250D01*
X642500Y345250D02*
Y359250D01*
X666000Y345500D02*
X687000D01*
X666000Y359000D02*
X687000D01*
Y345500D02*
Y359000D01*
X666000Y345500D02*
Y359000D01*
X710500Y359250D02*
X732500D01*
X710500Y345250D02*
X732500D01*
X710500D02*
Y359250D01*
X732500Y345250D02*
Y359250D01*
X756000Y345500D02*
X777000D01*
X756000Y359000D02*
X777000D01*
Y345500D02*
Y359000D01*
X756000Y345500D02*
Y359000D01*
X800500Y359250D02*
X822500D01*
X800500Y345250D02*
X822500D01*
X800500D02*
Y359250D01*
X822500Y345250D02*
Y359250D01*
X943000Y368059D02*
X977000D01*
X943000Y304559D02*
Y368059D01*
Y304559D02*
X977000D01*
Y368059D01*
X887100Y402700D02*
X937900D01*
Y377300D02*
Y402700D01*
X887100Y377300D02*
X937900D01*
X887100D02*
Y402700D01*
X864500Y228250D02*
X885500D01*
X864500Y241750D02*
X885500D01*
Y228250D02*
Y241750D01*
X864500Y228250D02*
Y241750D01*
X819130Y28250D02*
X820913Y26748D01*
X822199D01*
X816499Y28248D02*
X819128D01*
X816500Y28247D02*
X816501Y28248D01*
X816500Y21110D02*
Y28247D01*
X923799Y15379D02*
Y96379D01*
X822199Y15379D02*
Y96379D01*
Y15379D02*
X923799D01*
X822199Y96379D02*
X923799D01*
X816500Y21110D02*
X819128D01*
X820913Y22609D02*
X822199D01*
X819130Y21110D02*
X820913Y22609D01*
X835200Y127100D02*
Y177900D01*
X809800Y127100D02*
X835200D01*
X809800D02*
Y177900D01*
X835200D01*
X775750Y157000D02*
Y178000D01*
X789250Y157000D02*
Y178000D01*
X775750Y157000D02*
X789250D01*
X775750Y178000D02*
X789250D01*
Y197000D02*
Y218000D01*
X775750Y197000D02*
Y218000D01*
X789250D01*
X775750Y197000D02*
X789250D01*
X744500Y263250D02*
X765500D01*
X744500Y276750D02*
X765500D01*
Y263250D02*
Y276750D01*
X744500Y263250D02*
Y276750D01*
X707000D02*
X728000D01*
X707000Y263250D02*
X728000D01*
X707000D02*
Y276750D01*
X728000Y263250D02*
Y276750D01*
X659500D02*
X680500D01*
X659500Y263250D02*
X680500D01*
X659500D02*
Y276750D01*
X680500Y263250D02*
Y276750D01*
X619000Y263000D02*
X641000D01*
X619000Y277000D02*
X641000D01*
Y263000D02*
Y277000D01*
X619000Y263000D02*
Y277000D01*
X607000Y246750D02*
X628000D01*
X607000Y233250D02*
X628000D01*
X607000D02*
Y246750D01*
X628000Y233250D02*
Y246750D01*
X585750Y199500D02*
Y220500D01*
X599250Y199500D02*
Y220500D01*
X585750Y199500D02*
X599250D01*
X585750Y220500D02*
X599250D01*
X580750Y157000D02*
Y178000D01*
X594250Y157000D02*
Y178000D01*
X580750Y157000D02*
X594250D01*
X580750Y178000D02*
X594250D01*
X587000Y130750D02*
X608000D01*
X587000Y144250D02*
X608000D01*
Y130750D02*
Y144250D01*
X587000Y130750D02*
Y144250D01*
X528000Y159000D02*
Y181000D01*
X542000Y159000D02*
Y181000D01*
X528000Y159000D02*
X542000D01*
X528000Y181000D02*
X542000D01*
X488000Y159000D02*
Y181000D01*
X502000Y159000D02*
Y181000D01*
X488000Y159000D02*
X502000D01*
X488000Y181000D02*
X502000D01*
X404500Y74250D02*
X425500D01*
X404500Y60750D02*
X425500D01*
X404500D02*
Y74250D01*
X425500Y60750D02*
Y74250D01*
X298250Y79500D02*
Y100500D01*
X311750Y79500D02*
Y100500D01*
X298250Y79500D02*
X311750D01*
X298250Y100500D02*
X311750D01*
X275750Y79500D02*
Y100500D01*
X289250Y79500D02*
Y100500D01*
X275750Y79500D02*
X289250D01*
X275750Y100500D02*
X289250D01*
X73130Y28250D02*
X74913Y26748D01*
X76199D01*
X70499Y28248D02*
X73128D01*
X70500Y28247D02*
X70501Y28248D01*
X70500Y21110D02*
Y28247D01*
X177799Y15379D02*
Y96379D01*
X76199Y15379D02*
Y96379D01*
Y15379D02*
X177799D01*
X76199Y96379D02*
X177799D01*
X70500Y21110D02*
X73128D01*
X74913Y22609D02*
X76199D01*
X73130Y21110D02*
X74913Y22609D01*
X230500Y60000D02*
X244500D01*
X230500Y30000D02*
X244500D01*
X230500D02*
Y60000D01*
X244500Y30000D02*
Y60000D01*
X890000Y192500D02*
Y222500D01*
X860000Y192500D02*
Y222500D01*
Y192500D02*
X890000D01*
X860000Y222500D02*
X890000D01*
X228750Y97250D02*
X246250D01*
X228750Y127750D02*
X246250D01*
Y97250D02*
Y127750D01*
X228750Y97250D02*
Y127750D01*
X386500Y167000D02*
X408500D01*
X386500Y153000D02*
X408500D01*
Y167000D01*
X386500Y153000D02*
Y167000D01*
X395000Y130000D02*
X435000D01*
X395000Y80000D02*
X435000D01*
X395000D02*
Y130000D01*
X435000Y80000D02*
Y130000D01*
X511250Y331000D02*
X541750D01*
X511250Y313500D02*
X541750D01*
Y331000D01*
X511250Y313500D02*
Y331000D01*
X575750Y329250D02*
X597250D01*
X575750Y315250D02*
X597250D01*
Y329250D01*
X575750Y315250D02*
Y329250D01*
X601250Y331000D02*
X631750D01*
X601250Y313500D02*
X631750D01*
Y331000D01*
X601250Y313500D02*
Y331000D01*
X691250D02*
X721750D01*
X691250Y313500D02*
X721750D01*
Y331000D01*
X691250Y313500D02*
Y331000D01*
X665750Y315250D02*
X687250D01*
X665750Y329250D02*
X687250D01*
X665750Y315250D02*
Y329250D01*
X687250Y315250D02*
Y329250D01*
X781250Y331000D02*
X811750D01*
X781250Y313500D02*
X811750D01*
Y331000D01*
X781250Y313500D02*
Y331000D01*
X755750Y315250D02*
X777250D01*
X755750Y329250D02*
X777250D01*
X755750Y315250D02*
Y329250D01*
X777250Y315250D02*
Y329250D01*
X655000Y137500D02*
Y237500D01*
X755000Y137500D02*
Y237500D01*
X655000D02*
X755000D01*
X655000Y137500D02*
X755000D01*
X526000Y230500D02*
Y244500D01*
X504000Y230500D02*
Y244500D01*
Y230500D02*
X526000D01*
X504000Y244500D02*
X526000D01*
X421500Y198000D02*
Y212000D01*
X443500Y198000D02*
Y212000D01*
X421500D02*
X443500D01*
X421500Y198000D02*
X443500D01*
X421500Y178000D02*
Y192000D01*
X443500Y178000D02*
Y192000D01*
X421500D02*
X443500D01*
X421500Y178000D02*
X443500D01*
X443500Y155500D02*
Y169500D01*
X421500Y155500D02*
Y169500D01*
Y155500D02*
X443500D01*
X421500Y169500D02*
X443500D01*
X372250Y151000D02*
Y165000D01*
X350250Y151000D02*
Y165000D01*
Y151000D02*
X372250D01*
X350250Y165000D02*
X372250D01*
X221000Y71250D02*
Y88750D01*
X254000Y71250D02*
Y88750D01*
X221000D02*
X254000D01*
X221000Y71250D02*
X254000D01*
X961500Y210500D02*
Y224500D01*
X983500Y210500D02*
Y224500D01*
X961500Y210500D02*
X983500D01*
X961500Y224500D02*
X983500D01*
X961500Y180500D02*
Y194500D01*
X983500Y180500D02*
Y194500D01*
X961500Y180500D02*
X983500D01*
X961500Y194500D02*
X983500D01*
X210500Y354000D02*
X224500D01*
X210500Y376000D02*
X224500D01*
Y354000D02*
Y376000D01*
X210500Y354000D02*
Y376000D01*
X170500Y354000D02*
X184500D01*
X170500Y376000D02*
X184500D01*
Y354000D02*
Y376000D01*
X170500Y354000D02*
Y376000D01*
X190500Y354000D02*
X204500D01*
X190500Y376000D02*
X204500D01*
Y354000D02*
Y376000D01*
X190500Y354000D02*
Y376000D01*
X620500Y178500D02*
X634500D01*
X620500Y156500D02*
X634500D01*
Y178500D01*
X620500Y156500D02*
Y178500D01*
X600500D02*
X614500D01*
X600500Y156500D02*
X614500D01*
Y178500D01*
X600500Y156500D02*
Y178500D01*
X923500Y303000D02*
Y317000D01*
X901500Y303000D02*
Y317000D01*
Y303000D02*
X923500D01*
X901500Y317000D02*
X923500D01*
Y320500D02*
Y334500D01*
X901500Y320500D02*
Y334500D01*
Y320500D02*
X923500D01*
X901500Y334500D02*
X923500D01*
Y338000D02*
Y352000D01*
X901500Y338000D02*
Y352000D01*
Y338000D02*
X923500D01*
X901500Y352000D02*
X923500D01*
Y355500D02*
Y369500D01*
X901500Y355500D02*
Y369500D01*
Y355500D02*
X923500D01*
X901500Y369500D02*
X923500D01*
X520400Y200500D02*
X549600D01*
X520400Y214500D02*
X549600D01*
X520400Y200500D02*
Y214500D01*
X549600Y200500D02*
Y214500D01*
X480400Y200500D02*
X509600D01*
X480400Y214500D02*
X509600D01*
X480400Y200500D02*
Y214500D01*
X509600Y200500D02*
Y214500D01*
X891776Y139954D02*
Y165354D01*
X857776Y139954D02*
X891776D01*
X857776D02*
Y165354D01*
X891776D01*
X248000Y138250D02*
Y151750D01*
X227000Y138250D02*
Y151750D01*
Y138250D02*
X248000D01*
X227000Y151750D02*
X248000D01*
X373000Y180750D02*
Y194250D01*
X352000Y180750D02*
Y194250D01*
Y180750D02*
X373000D01*
X352000Y194250D02*
X373000D01*
X343250Y112000D02*
X356750D01*
X343250Y133000D02*
X356750D01*
X343250Y112000D02*
Y133000D01*
X356750Y112000D02*
Y133000D01*
X365750Y112000D02*
X379250D01*
X365750Y133000D02*
X379250D01*
X365750Y112000D02*
Y133000D01*
X379250Y112000D02*
Y133000D01*
X443000Y135750D02*
Y149250D01*
X422000Y135750D02*
Y149250D01*
Y135750D02*
X443000D01*
X422000Y149250D02*
X443000D01*
X538250Y102000D02*
X551750D01*
X538250Y123000D02*
X551750D01*
X538250Y102000D02*
Y123000D01*
X551750Y102000D02*
Y123000D01*
X510750Y102000D02*
X524250D01*
X510750Y123000D02*
X524250D01*
X510750Y102000D02*
Y123000D01*
X524250Y102000D02*
Y123000D01*
X483250Y102000D02*
X496750D01*
X483250Y123000D02*
X496750D01*
X483250Y102000D02*
Y123000D01*
X496750Y102000D02*
Y123000D01*
X227000Y8250D02*
Y21750D01*
X248000Y8250D02*
Y21750D01*
X227000D02*
X248000D01*
X227000Y8250D02*
X248000D01*
X230750Y375500D02*
X244250D01*
X230750Y354500D02*
X244250D01*
X230750D02*
Y375500D01*
X244250Y354500D02*
Y375500D01*
X250750D02*
X264250D01*
X250750Y354500D02*
X264250D01*
X250750D02*
Y375500D01*
X264250Y354500D02*
Y375500D01*
X864500Y173250D02*
Y186750D01*
X885500Y173250D02*
Y186750D01*
X864500D02*
X885500D01*
X864500Y173250D02*
X885500D01*
X80750Y354500D02*
X94250D01*
X80750Y375500D02*
X94250D01*
Y354500D02*
Y375500D01*
X80750Y354500D02*
Y375500D01*
X60750D02*
X74250D01*
X60750Y354500D02*
X74250D01*
X60750D02*
Y375500D01*
X74250Y354500D02*
Y375500D01*
X120750D02*
X134250D01*
X120750Y354500D02*
X134250D01*
X120750D02*
Y375500D01*
X134250Y354500D02*
Y375500D01*
X100750Y354500D02*
X114250D01*
X100750Y375500D02*
X114250D01*
Y354500D02*
Y375500D01*
X100750Y354500D02*
Y375500D01*
X819750Y332750D02*
X833250D01*
X819750Y311750D02*
X833250D01*
Y332750D01*
X819750Y311750D02*
Y332750D01*
X729750D02*
X743250D01*
X729750Y311750D02*
X743250D01*
Y332750D01*
X729750Y311750D02*
Y332750D01*
X639750D02*
X653250D01*
X639750Y311750D02*
X653250D01*
Y332750D01*
X639750Y311750D02*
Y332750D01*
X549750D02*
X563250D01*
X549750Y311750D02*
X563250D01*
Y332750D01*
X549750Y311750D02*
Y332750D01*
M02*
