G04*
G04 #@! TF.GenerationSoftware,Altium Limited,Altium Designer,21.0.8 (223)*
G04*
G04 Layer_Physical_Order=1*
G04 Layer_Color=255*
%FSLAX44Y44*%
%MOMM*%
G71*
G04*
G04 #@! TF.SameCoordinates,9BFC2460-0098-4CE8-B359-2686C5D326B4*
G04*
G04*
G04 #@! TF.FilePolarity,Positive*
G04*
G01*
G75*
%ADD15C,0.7620*%
%ADD16R,1.5000X1.2000*%
%ADD17R,1.2000X1.5000*%
%ADD18R,0.6300X0.8300*%
%ADD19R,0.8000X0.9000*%
%ADD20R,1.4500X1.5000*%
%ADD21R,0.5298X1.1556*%
G04:AMPARAMS|DCode=22|XSize=1.1556mm|YSize=0.5298mm|CornerRadius=0.2649mm|HoleSize=0mm|Usage=FLASHONLY|Rotation=90.000|XOffset=0mm|YOffset=0mm|HoleType=Round|Shape=RoundedRectangle|*
%AMROUNDEDRECTD22*
21,1,1.1556,0.0000,0,0,90.0*
21,1,0.6258,0.5298,0,0,90.0*
1,1,0.5298,0.0000,0.3129*
1,1,0.5298,0.0000,-0.3129*
1,1,0.5298,0.0000,-0.3129*
1,1,0.5298,0.0000,0.3129*
%
%ADD22ROUNDEDRECTD22*%
%ADD23R,1.5000X1.4500*%
G04:AMPARAMS|DCode=24|XSize=0.65mm|YSize=1.2mm|CornerRadius=0.0488mm|HoleSize=0mm|Usage=FLASHONLY|Rotation=90.000|XOffset=0mm|YOffset=0mm|HoleType=Round|Shape=RoundedRectangle|*
%AMROUNDEDRECTD24*
21,1,0.6500,1.1025,0,0,90.0*
21,1,0.5525,1.2000,0,0,90.0*
1,1,0.0975,0.5513,0.2763*
1,1,0.0975,0.5513,-0.2763*
1,1,0.0975,-0.5513,-0.2763*
1,1,0.0975,-0.5513,0.2763*
%
%ADD24ROUNDEDRECTD24*%
%ADD25R,1.1000X1.8000*%
%ADD26R,1.4500X0.6000*%
%ADD27R,1.4500X0.3000*%
G04:AMPARAMS|DCode=28|XSize=1.5mm|YSize=5mm|CornerRadius=0.375mm|HoleSize=0mm|Usage=FLASHONLY|Rotation=180.000|XOffset=0mm|YOffset=0mm|HoleType=Round|Shape=RoundedRectangle|*
%AMROUNDEDRECTD28*
21,1,1.5000,4.2500,0,0,180.0*
21,1,0.7500,5.0000,0,0,180.0*
1,1,0.7500,-0.3750,2.1250*
1,1,0.7500,0.3750,2.1250*
1,1,0.7500,0.3750,-2.1250*
1,1,0.7500,-0.3750,-2.1250*
%
%ADD28ROUNDEDRECTD28*%
%ADD29R,1.2000X1.4000*%
%ADD30R,1.0000X0.6000*%
%ADD31O,1.4000X0.2500*%
%ADD32R,0.4000X0.6500*%
G04:AMPARAMS|DCode=33|XSize=0.55mm|YSize=1.25mm|CornerRadius=0.0495mm|HoleSize=0mm|Usage=FLASHONLY|Rotation=270.000|XOffset=0mm|YOffset=0mm|HoleType=Round|Shape=RoundedRectangle|*
%AMROUNDEDRECTD33*
21,1,0.5500,1.1510,0,0,270.0*
21,1,0.4510,1.2500,0,0,270.0*
1,1,0.0990,-0.5755,-0.2255*
1,1,0.0990,-0.5755,0.2255*
1,1,0.0990,0.5755,0.2255*
1,1,0.0990,0.5755,-0.2255*
%
%ADD33ROUNDEDRECTD33*%
G04:AMPARAMS|DCode=34|XSize=0.55mm|YSize=0.8mm|CornerRadius=0.0495mm|HoleSize=0mm|Usage=FLASHONLY|Rotation=0.000|XOffset=0mm|YOffset=0mm|HoleType=Round|Shape=RoundedRectangle|*
%AMROUNDEDRECTD34*
21,1,0.5500,0.7010,0,0,0.0*
21,1,0.4510,0.8000,0,0,0.0*
1,1,0.0990,0.2255,-0.3505*
1,1,0.0990,-0.2255,-0.3505*
1,1,0.0990,-0.2255,0.3505*
1,1,0.0990,0.2255,0.3505*
%
%ADD34ROUNDEDRECTD34*%
G04:AMPARAMS|DCode=35|XSize=0.45mm|YSize=1.05mm|CornerRadius=0.0495mm|HoleSize=0mm|Usage=FLASHONLY|Rotation=0.000|XOffset=0mm|YOffset=0mm|HoleType=Round|Shape=RoundedRectangle|*
%AMROUNDEDRECTD35*
21,1,0.4500,0.9510,0,0,0.0*
21,1,0.3510,1.0500,0,0,0.0*
1,1,0.0990,0.1755,-0.4755*
1,1,0.0990,-0.1755,-0.4755*
1,1,0.0990,-0.1755,0.4755*
1,1,0.0990,0.1755,0.4755*
%
%ADD35ROUNDEDRECTD35*%
%ADD36O,1.8000X0.3000*%
%ADD37O,0.3000X1.8000*%
%ADD38R,1.3500X1.8500*%
%ADD39R,1.0000X1.4000*%
%ADD74C,0.5080*%
%ADD75C,0.1270*%
%ADD76C,0.3810*%
%ADD77C,0.1780*%
%ADD78C,0.1524*%
%ADD79C,3.0000*%
%ADD80C,1.0500*%
%ADD81C,1.6000*%
%ADD82R,1.6000X1.6000*%
%ADD83O,1.6000X1.0000*%
%ADD84O,2.1000X1.0000*%
%ADD85C,0.8500*%
%ADD86R,1.8000X1.8000*%
%ADD87C,1.8000*%
%ADD88R,1.6000X1.6000*%
%ADD89O,22.0000X0.5000*%
%ADD90C,1.2700*%
%ADD91C,0.4500*%
G36*
X1000000Y480000D02*
Y20000D01*
X980000Y0D01*
X20000D01*
X0Y20000D01*
Y480000D01*
X0D01*
X20000Y500000D01*
X980000D01*
X1000000Y480000D01*
D02*
G37*
%LPC*%
G36*
X978810Y492174D02*
Y478810D01*
X992173D01*
X991283Y481745D01*
X989654Y484792D01*
X987463Y487463D01*
X984792Y489655D01*
X981745Y491283D01*
X978810Y492174D01*
D02*
G37*
G36*
X971190D02*
X968255Y491283D01*
X965208Y489655D01*
X962537Y487463D01*
X960346Y484792D01*
X958717Y481745D01*
X957827Y478810D01*
X971190D01*
Y492174D01*
D02*
G37*
G36*
X28810D02*
Y478810D01*
X42174D01*
X41283Y481745D01*
X39655Y484792D01*
X37463Y487463D01*
X34792Y489655D01*
X31745Y491283D01*
X28810Y492174D01*
D02*
G37*
G36*
X21190D02*
X18255Y491283D01*
X15208Y489655D01*
X12537Y487463D01*
X10345Y484792D01*
X8717Y481745D01*
X7826Y478810D01*
X21190D01*
Y492174D01*
D02*
G37*
G36*
X518990Y473550D02*
X514760D01*
Y465820D01*
X518990D01*
Y473550D01*
D02*
G37*
G36*
X507140D02*
X502910D01*
Y465820D01*
X507140D01*
Y473550D01*
D02*
G37*
G36*
X788990D02*
X784760D01*
Y465820D01*
X788990D01*
Y473550D01*
D02*
G37*
G36*
X608990D02*
X604760D01*
Y465820D01*
X608990D01*
Y473550D01*
D02*
G37*
G36*
X777140D02*
X772910D01*
Y465820D01*
X777140D01*
Y473550D01*
D02*
G37*
G36*
X597140D02*
X592910D01*
Y465820D01*
X597140D01*
Y473550D01*
D02*
G37*
G36*
X698990D02*
X694760D01*
Y465820D01*
X698990D01*
Y473550D01*
D02*
G37*
G36*
X687140D02*
X682910D01*
Y465820D01*
X687140D01*
Y473550D01*
D02*
G37*
G36*
X992173Y471190D02*
X978810D01*
Y457826D01*
X981745Y458717D01*
X984792Y460345D01*
X987463Y462537D01*
X989654Y465208D01*
X991283Y468255D01*
X992173Y471190D01*
D02*
G37*
G36*
X971190D02*
X957827D01*
X958717Y468255D01*
X960346Y465208D01*
X962537Y462537D01*
X965208Y460345D01*
X968255Y458717D01*
X971190Y457826D01*
Y471190D01*
D02*
G37*
G36*
X42174D02*
X28810D01*
Y457826D01*
X31745Y458717D01*
X34792Y460345D01*
X37463Y462537D01*
X39655Y465208D01*
X41283Y468255D01*
X42174Y471190D01*
D02*
G37*
G36*
X21190D02*
X7826D01*
X8717Y468255D01*
X10345Y465208D01*
X12537Y462537D01*
X15208Y460345D01*
X18255Y458717D01*
X21190Y457826D01*
Y471190D01*
D02*
G37*
G36*
X788990Y458200D02*
X780950D01*
X772910D01*
Y450470D01*
X775599D01*
X775912Y450088D01*
X776284Y448219D01*
X776986Y447168D01*
Y450088D01*
X784606D01*
Y447168D01*
X785308Y448219D01*
X785680Y450088D01*
X785993Y450470D01*
X788990D01*
Y458200D01*
D02*
G37*
G36*
X698990Y458200D02*
X690950D01*
X682910D01*
Y450470D01*
X685728D01*
X686250Y449834D01*
X686622Y447965D01*
X687324Y446914D01*
Y449834D01*
X694944D01*
Y446914D01*
X695646Y447965D01*
X696018Y449834D01*
X696540Y450470D01*
X698990D01*
Y458200D01*
D02*
G37*
G36*
X608990Y458200D02*
X600950D01*
X592910D01*
Y450470D01*
X595558D01*
X596080Y449834D01*
X596452Y447965D01*
X597154Y446914D01*
Y449834D01*
X604774D01*
Y446914D01*
X605476Y447965D01*
X605848Y449834D01*
X606370Y450470D01*
X608990D01*
Y458200D01*
D02*
G37*
G36*
X518990Y458200D02*
X510950D01*
X502910D01*
Y450470D01*
X505642D01*
X506164Y449834D01*
X506536Y447965D01*
X507238Y446914D01*
Y449834D01*
X514858D01*
Y446914D01*
X515560Y447965D01*
X515932Y449834D01*
X516454Y450470D01*
X518990D01*
Y458200D01*
D02*
G37*
G36*
X784606Y398398D02*
Y395478D01*
X776986D01*
Y398398D01*
X776284Y397347D01*
X775912Y395478D01*
X776043Y394820D01*
X775001Y393550D01*
X772910D01*
Y385820D01*
X780950D01*
X788990D01*
Y393550D01*
X786591D01*
X785549Y394820D01*
X785680Y395478D01*
X785308Y397347D01*
X784606Y398398D01*
D02*
G37*
G36*
X694944Y398144D02*
Y395224D01*
X687324D01*
Y398144D01*
X686622Y397093D01*
X686250Y395224D01*
X686388Y394532D01*
X685582Y393550D01*
X682910D01*
Y385820D01*
X690950D01*
X698990D01*
Y393550D01*
X696686D01*
X695880Y394532D01*
X696018Y395224D01*
X695646Y397093D01*
X694944Y398144D01*
D02*
G37*
G36*
X604774D02*
Y395224D01*
X597154D01*
Y398144D01*
X596452Y397093D01*
X596080Y395224D01*
X596218Y394532D01*
X595412Y393550D01*
X592910D01*
Y385820D01*
X600950D01*
X608990D01*
Y393550D01*
X606516D01*
X605710Y394532D01*
X605848Y395224D01*
X605476Y397093D01*
X604774Y398144D01*
D02*
G37*
G36*
X514858D02*
Y395224D01*
X507238D01*
Y398144D01*
X506536Y397093D01*
X506164Y395224D01*
X506302Y394532D01*
X505496Y393550D01*
X502910D01*
Y385820D01*
X510950D01*
X518990D01*
Y393550D01*
X516600D01*
X515794Y394532D01*
X515932Y395224D01*
X515560Y397093D01*
X514858Y398144D01*
D02*
G37*
G36*
X909070Y399270D02*
X890530D01*
Y380730D01*
X909070D01*
Y399270D01*
D02*
G37*
G36*
X925200Y399350D02*
X922780Y399031D01*
X920525Y398097D01*
X918589Y396611D01*
X917103Y394675D01*
X916169Y392420D01*
X915850Y390000D01*
X916169Y387580D01*
X917103Y385325D01*
X918589Y383389D01*
X920525Y381903D01*
X922780Y380969D01*
X925200Y380650D01*
X927620Y380969D01*
X929875Y381903D01*
X931811Y383389D01*
X933297Y385325D01*
X934231Y387580D01*
X934550Y390000D01*
X934231Y392420D01*
X933297Y394675D01*
X931811Y396611D01*
X929875Y398097D01*
X927620Y399031D01*
X925200Y399350D01*
D02*
G37*
G36*
X788990Y378200D02*
X784760D01*
Y370470D01*
X788990D01*
Y378200D01*
D02*
G37*
G36*
X777140D02*
X772910D01*
Y370470D01*
X777140D01*
Y378200D01*
D02*
G37*
G36*
X698990Y378200D02*
X694760D01*
Y370470D01*
X698990D01*
Y378200D01*
D02*
G37*
G36*
X687140D02*
X682910D01*
Y370470D01*
X687140D01*
Y378200D01*
D02*
G37*
G36*
X608990Y378200D02*
X604760D01*
Y370470D01*
X608990D01*
Y378200D01*
D02*
G37*
G36*
X597140D02*
X592910D01*
Y370470D01*
X597140D01*
Y378200D01*
D02*
G37*
G36*
X518990Y378200D02*
X514760D01*
Y370470D01*
X518990D01*
Y378200D01*
D02*
G37*
G36*
X507140D02*
X502910D01*
Y370470D01*
X507140D01*
Y378200D01*
D02*
G37*
G36*
X197612Y368841D02*
X196239Y368568D01*
X195074Y367790D01*
X194296Y366625D01*
X194023Y365252D01*
X194296Y363879D01*
X195074Y362714D01*
X196239Y361936D01*
X197612Y361663D01*
X198985Y361936D01*
X200150Y362714D01*
X200928Y363879D01*
X201201Y365252D01*
X200928Y366625D01*
X200150Y367790D01*
X198985Y368568D01*
X197612Y368841D01*
D02*
G37*
G36*
X177546D02*
X176173Y368568D01*
X175008Y367790D01*
X174230Y366625D01*
X173957Y365252D01*
X174230Y363879D01*
X175008Y362714D01*
X176173Y361936D01*
X177546Y361663D01*
X178919Y361936D01*
X180084Y362714D01*
X180862Y363879D01*
X181135Y365252D01*
X180862Y366625D01*
X180084Y367790D01*
X178919Y368568D01*
X177546Y368841D01*
D02*
G37*
G36*
X117625Y359339D02*
X116252Y359066D01*
X115087Y358288D01*
X114309Y357123D01*
X114036Y355750D01*
X114309Y354377D01*
X115087Y353212D01*
X116252Y352434D01*
X117625Y352161D01*
X118998Y352434D01*
X120163Y353212D01*
X120941Y354377D01*
X121214Y355750D01*
X120941Y357123D01*
X120163Y358288D01*
X118998Y359066D01*
X117625Y359339D01*
D02*
G37*
G36*
X835720Y472280D02*
X822180D01*
Y451740D01*
X827008D01*
Y392280D01*
X822180D01*
Y371740D01*
X823909D01*
X824395Y370567D01*
X820627Y366799D01*
X820206Y366169D01*
X820058Y365425D01*
Y361020D01*
X814730D01*
Y355179D01*
X814095Y354192D01*
X813352Y354044D01*
X812722Y353623D01*
X812722Y353623D01*
X809569Y350470D01*
X809540Y350428D01*
X808270Y350813D01*
Y361020D01*
X793730D01*
Y356183D01*
X792988D01*
X791501Y355887D01*
X790464Y355194D01*
X790091Y355751D01*
X788507Y356810D01*
X786638Y357182D01*
X786522Y357159D01*
X785540Y357964D01*
Y362290D01*
X779560D01*
Y352250D01*
X771940D01*
Y362290D01*
X765960D01*
Y362211D01*
X765770Y361020D01*
X764690Y361020D01*
X761313D01*
Y363220D01*
X761017Y364707D01*
X760175Y365967D01*
X758915Y366809D01*
X757428Y367105D01*
X755941Y366809D01*
X754681Y365967D01*
X753839Y364707D01*
X753543Y363220D01*
Y361020D01*
X748730D01*
Y343480D01*
X755825D01*
Y334790D01*
X756121Y333303D01*
X756445Y332818D01*
Y329745D01*
X756582Y329056D01*
X756973Y328473D01*
X757556Y328082D01*
X758245Y327945D01*
X761755D01*
X762444Y328082D01*
X763027Y328473D01*
X763418Y329056D01*
X763555Y329745D01*
Y332962D01*
X763589Y333013D01*
X763885Y334500D01*
X763595Y335958D01*
Y342582D01*
X764493Y343480D01*
X765770Y343480D01*
X765960Y342289D01*
Y342210D01*
X770544D01*
X770669Y340940D01*
X770556Y340918D01*
X769973Y340527D01*
X769583Y339944D01*
X769445Y339255D01*
Y330727D01*
X763006Y324287D01*
X745270D01*
Y327839D01*
X747776D01*
X749263Y328135D01*
X750523Y328977D01*
X751365Y330237D01*
X751661Y331724D01*
X751365Y333211D01*
X750523Y334471D01*
X749263Y335313D01*
X747776Y335609D01*
X745270D01*
Y340020D01*
X727730D01*
Y335385D01*
X720055D01*
Y338505D01*
X719918Y339194D01*
X719528Y339777D01*
X719355Y339893D01*
X719080Y341148D01*
X719119Y341428D01*
X722316Y344624D01*
X722737Y345255D01*
X722884Y345998D01*
X722884Y345998D01*
Y347978D01*
X723460Y348428D01*
X724730Y347815D01*
Y343480D01*
X739270D01*
Y361020D01*
X733942D01*
Y364621D01*
X740323Y371002D01*
X740744Y371632D01*
X740766Y371740D01*
X745720D01*
Y392280D01*
X740892D01*
Y451740D01*
X745720D01*
Y472280D01*
X732180D01*
Y451740D01*
X737008D01*
Y392280D01*
X732180D01*
Y371740D01*
X733909D01*
X734395Y370567D01*
X730627Y366799D01*
X730206Y366169D01*
X730058Y365425D01*
Y361020D01*
X724730D01*
Y355179D01*
X724095Y354192D01*
X723352Y354044D01*
X722722Y353623D01*
X722722Y353623D01*
X719569Y350470D01*
X719540Y350428D01*
X718270Y350813D01*
Y361020D01*
X703730D01*
Y355929D01*
X702564D01*
X701077Y355633D01*
X699864Y354822D01*
X699413Y355497D01*
X697829Y356556D01*
X695960Y356928D01*
X695540Y357272D01*
Y362290D01*
X689560D01*
Y352250D01*
X681940D01*
Y362290D01*
X675960D01*
Y362211D01*
X675770Y361020D01*
X674690Y361020D01*
X658730D01*
Y356183D01*
X656336D01*
X654849Y355887D01*
X653589Y355045D01*
X652747Y353785D01*
X652451Y352298D01*
X652747Y350811D01*
X653589Y349551D01*
X654849Y348709D01*
X656336Y348413D01*
X658730D01*
Y343480D01*
X665825D01*
Y334790D01*
X666121Y333303D01*
X666445Y332818D01*
Y329745D01*
X666582Y329056D01*
X666973Y328473D01*
X667556Y328082D01*
X668245Y327945D01*
X671755D01*
X672444Y328082D01*
X673027Y328473D01*
X673418Y329056D01*
X673555Y329745D01*
Y332962D01*
X673589Y333013D01*
X673885Y334500D01*
X673595Y335958D01*
Y342582D01*
X674493Y343480D01*
X675770Y343480D01*
X675960Y342289D01*
Y342210D01*
X680544D01*
X680669Y340940D01*
X680556Y340918D01*
X679973Y340527D01*
X679582Y339944D01*
X679445Y339255D01*
Y329745D01*
X679582Y329056D01*
X679973Y328473D01*
X680556Y328082D01*
X681245Y327945D01*
X684528D01*
X686584Y325889D01*
X686987Y325620D01*
X686999Y325557D01*
X686302Y324287D01*
X675506D01*
X674763Y324139D01*
X674133Y323718D01*
X668627Y318213D01*
X668205Y317582D01*
X668058Y316839D01*
Y316517D01*
X667556Y316418D01*
X666973Y316028D01*
X666319Y315963D01*
X658753Y323528D01*
X658123Y323949D01*
X657380Y324097D01*
X655270D01*
Y327839D01*
X657860D01*
X659347Y328135D01*
X660607Y328977D01*
X661449Y330237D01*
X661745Y331724D01*
X661449Y333211D01*
X660607Y334471D01*
X659347Y335313D01*
X657860Y335609D01*
X655270D01*
Y340020D01*
X637730D01*
Y335385D01*
X630055D01*
Y338505D01*
X629918Y339194D01*
X629528Y339777D01*
X629355Y339893D01*
X629080Y341148D01*
X629119Y341428D01*
X632315Y344624D01*
X632737Y345255D01*
X632884Y345998D01*
X632884Y345998D01*
Y347978D01*
X633460Y348428D01*
X634730Y347815D01*
Y343480D01*
X649270D01*
Y361020D01*
X647041D01*
X646555Y362193D01*
X650323Y365961D01*
X650744Y366592D01*
X650892Y367335D01*
X650892Y367335D01*
Y371740D01*
X655720D01*
Y392280D01*
X650892D01*
Y451740D01*
X655720D01*
Y472280D01*
X642180D01*
Y451740D01*
X647008D01*
Y392280D01*
X642180D01*
Y371740D01*
X647008D01*
Y368139D01*
X640627Y361758D01*
X640206Y361128D01*
X640184Y361020D01*
X634730D01*
Y355179D01*
X634095Y354192D01*
X633352Y354044D01*
X632722Y353623D01*
X632722Y353623D01*
X629569Y350470D01*
X629540Y350428D01*
X628270Y350813D01*
Y361020D01*
X613730D01*
Y355929D01*
X612648D01*
X611161Y355633D01*
X610124Y354940D01*
X609751Y355497D01*
X608167Y356556D01*
X606298Y356928D01*
X605540Y357550D01*
Y362290D01*
X599560D01*
Y352250D01*
X591940D01*
Y362290D01*
X585960D01*
Y362211D01*
X585770Y361020D01*
X584690Y361020D01*
X568730D01*
Y355279D01*
X567587Y354869D01*
X567460Y354868D01*
X566166Y355125D01*
X564793Y354852D01*
X563628Y354074D01*
X562850Y352909D01*
X562577Y351536D01*
X562850Y350163D01*
X563628Y348998D01*
X564793Y348220D01*
X566166Y347947D01*
X567460Y348204D01*
X567587Y348203D01*
X568730Y347793D01*
Y343480D01*
X577419D01*
X577544Y342210D01*
X577061Y342114D01*
X576057Y341443D01*
X575386Y340439D01*
X575151Y339255D01*
Y338310D01*
X580000D01*
Y330690D01*
X575151D01*
Y329745D01*
X575268Y329156D01*
X574930Y328930D01*
X577850D01*
Y321518D01*
X577642Y321310D01*
X574930D01*
X575480Y320943D01*
X575784Y319451D01*
X573146Y316813D01*
X572206Y316737D01*
X571581Y316869D01*
X571397Y317143D01*
X569813Y318202D01*
X567944Y318574D01*
X567522Y318490D01*
X566540Y319296D01*
Y322790D01*
X566461D01*
X565270Y322980D01*
X565270Y324060D01*
Y327891D01*
X566540Y328175D01*
X566571Y328154D01*
X567944Y327881D01*
X569317Y328154D01*
X570482Y328932D01*
X571260Y330097D01*
X571533Y331470D01*
X571260Y332843D01*
X570482Y334008D01*
X569317Y334786D01*
X567944Y335059D01*
X566571Y334786D01*
X566540Y334765D01*
X565270Y335049D01*
Y340020D01*
X547730D01*
Y334737D01*
X540841D01*
X540384Y335194D01*
X540055Y335414D01*
Y338505D01*
X539918Y339194D01*
X539528Y339777D01*
X539355Y339893D01*
X539080Y341148D01*
X539119Y341428D01*
X542315Y344624D01*
X542737Y345255D01*
X542884Y345998D01*
X542884Y345998D01*
Y347978D01*
X543460Y348428D01*
X544730Y347815D01*
Y343480D01*
X559270D01*
Y361020D01*
X557041D01*
X556555Y362193D01*
X560323Y365961D01*
X560744Y366592D01*
X560892Y367335D01*
Y371740D01*
X565720D01*
Y392280D01*
X560892D01*
Y451740D01*
X565720D01*
Y472280D01*
X552180D01*
Y451740D01*
X557008D01*
Y392280D01*
X552180D01*
Y371740D01*
X557008D01*
Y368139D01*
X550627Y361758D01*
X550206Y361128D01*
X550184Y361020D01*
X544730D01*
Y355179D01*
X544095Y354192D01*
X543352Y354044D01*
X542722Y353623D01*
X542721Y353623D01*
X539569Y350470D01*
X539540Y350428D01*
X538270Y350813D01*
Y361020D01*
X535402D01*
X535168Y361219D01*
X534518Y362290D01*
X534703Y363220D01*
X534430Y364593D01*
X533652Y365758D01*
X532487Y366536D01*
X531114Y366809D01*
X529741Y366536D01*
X528576Y365758D01*
X527798Y364593D01*
X527525Y363220D01*
X527710Y362290D01*
X527060Y361219D01*
X526826Y361020D01*
X523730D01*
Y343480D01*
X529324D01*
X529810Y342307D01*
X527808Y340305D01*
X524245D01*
X523556Y340168D01*
X523314Y340005D01*
X522756Y339858D01*
X522607Y339914D01*
X521656Y340777D01*
X522028Y342646D01*
X521656Y344515D01*
X520954Y345566D01*
Y342646D01*
X517144D01*
Y338836D01*
X511716D01*
X511711Y338810D01*
X517000D01*
Y335000D01*
X520810D01*
Y328884D01*
X521443Y329307D01*
X521750Y329766D01*
X522756Y330142D01*
X523314Y329995D01*
X523556Y329832D01*
X524245Y329695D01*
X528755D01*
X529444Y329832D01*
X530028Y330223D01*
X530418Y330806D01*
X530555Y331495D01*
Y336354D01*
X530676Y336435D01*
X531945Y335756D01*
Y331495D01*
X532082Y330806D01*
X532473Y330223D01*
X533056Y329832D01*
X533745Y329695D01*
X536706D01*
X536732Y329690D01*
X537211Y329211D01*
X538261Y328509D01*
X539500Y328263D01*
X547730D01*
X547730Y322980D01*
X546539Y322790D01*
X546460D01*
Y316810D01*
X556500D01*
Y309190D01*
X546460D01*
Y305537D01*
X540430D01*
X540055Y305995D01*
Y313005D01*
X539918Y313694D01*
X539528Y314277D01*
X538944Y314668D01*
X538255Y314805D01*
X533745D01*
X533056Y314668D01*
X532473Y314277D01*
X532082Y313694D01*
X531945Y313005D01*
Y305995D01*
X531570Y305537D01*
X522518D01*
X521055Y307000D01*
Y313005D01*
X520918Y313694D01*
X520527Y314277D01*
X519944Y314668D01*
X519255Y314805D01*
X514745D01*
X514056Y314668D01*
X513473Y314277D01*
X513083Y313694D01*
X512946Y313005D01*
Y305995D01*
X513083Y305306D01*
X513473Y304722D01*
X514056Y304332D01*
X514745Y304195D01*
X518366D01*
X520340Y302222D01*
X520340Y302222D01*
X520970Y301800D01*
X521713Y301653D01*
X572067D01*
X572811Y301800D01*
X573441Y302222D01*
X575413Y304194D01*
X575526Y304229D01*
X576441Y304199D01*
X576925Y304044D01*
X576973Y303972D01*
X577556Y303582D01*
X578245Y303445D01*
X581755D01*
X582444Y303582D01*
X583027Y303972D01*
X583418Y304556D01*
X583555Y305245D01*
Y314755D01*
X583418Y315444D01*
X583092Y315931D01*
X584353Y317193D01*
X588476D01*
X589040Y316815D01*
X589254Y316479D01*
X589582Y315444D01*
X589564Y315352D01*
X589445Y314755D01*
Y305245D01*
X589582Y304556D01*
X589808Y304219D01*
Y302922D01*
X589774Y302871D01*
X589501Y301498D01*
X589774Y300125D01*
X590552Y298960D01*
X591717Y298182D01*
X593090Y297909D01*
X594463Y298182D01*
X595628Y298960D01*
X596406Y300125D01*
X596679Y301498D01*
X596406Y302871D01*
X596282Y303056D01*
Y304354D01*
X596418Y304556D01*
X596555Y305245D01*
Y314755D01*
X596418Y315444D01*
X596027Y316028D01*
X595444Y316418D01*
X594755Y316555D01*
X593866D01*
X593710Y316744D01*
X593303Y317824D01*
X593866Y318667D01*
X594031Y319496D01*
X595348Y319974D01*
X600292Y315031D01*
Y304292D01*
X600439Y303549D01*
X600861Y302919D01*
X603147Y300633D01*
X603777Y300212D01*
X604520Y300064D01*
X608905D01*
X630689Y278281D01*
X631319Y277859D01*
X632062Y277712D01*
X633230D01*
Y270774D01*
X633102Y270639D01*
X631729Y271037D01*
X631712Y271121D01*
X630934Y272286D01*
X629769Y273064D01*
X628396Y273337D01*
X628040Y273266D01*
X626770Y274306D01*
Y278770D01*
X612230D01*
Y261784D01*
X612230Y261230D01*
X611256Y260514D01*
X408278D01*
X407795Y261237D01*
X406630Y262015D01*
X405257Y262288D01*
X403884Y262015D01*
X402719Y261237D01*
X401941Y260072D01*
X401668Y258699D01*
X401863Y257720D01*
X401115Y256450D01*
X393842D01*
X393444Y257046D01*
X392279Y257824D01*
X390906Y258097D01*
X389533Y257824D01*
X388368Y257046D01*
X387590Y255881D01*
X387317Y254508D01*
X387537Y253402D01*
X386849Y252132D01*
X215688D01*
X194992Y272829D01*
X195618Y273999D01*
X196850Y273754D01*
X198719Y274126D01*
X199389Y274574D01*
X200152Y274990D01*
Y278638D01*
X193040D01*
Y281558D01*
X192338Y280507D01*
X191966Y278638D01*
X192302Y276947D01*
X192220Y276784D01*
X191896Y276390D01*
X191366Y275937D01*
X191008Y276008D01*
X174325D01*
X173523Y277278D01*
X173794Y278638D01*
X173422Y280507D01*
X172720Y281558D01*
Y278638D01*
X158242D01*
Y281558D01*
X157540Y280507D01*
X157168Y278638D01*
X157439Y277278D01*
X156637Y276008D01*
X152085D01*
X151406Y277278D01*
X151652Y277646D01*
X151925Y279019D01*
X151652Y280392D01*
X150874Y281557D01*
X149709Y282335D01*
X148336Y282608D01*
X146963Y282335D01*
X145798Y281557D01*
X144781D01*
X144423Y282091D01*
X142839Y283150D01*
X140970Y283522D01*
X139101Y283150D01*
X138176Y282532D01*
Y278638D01*
X144780D01*
Y275718D01*
X144795Y275741D01*
X145205Y276043D01*
X146394Y275404D01*
Y274828D01*
X146542Y274085D01*
X146963Y273455D01*
X147725Y272693D01*
X147725Y272693D01*
X148355Y272271D01*
X149098Y272124D01*
X177934D01*
X178192Y270854D01*
X177294Y270254D01*
X176516Y269089D01*
X176243Y267716D01*
X176516Y266343D01*
X177294Y265178D01*
X178459Y264400D01*
X179832Y264127D01*
X181205Y264400D01*
X182370Y265178D01*
X182768Y265774D01*
X188074D01*
X188232Y265581D01*
X188637Y264504D01*
X188073Y263660D01*
X187800Y262287D01*
X188073Y260913D01*
X188851Y259749D01*
X190016Y258971D01*
X191389Y258698D01*
X192277Y258874D01*
X222909Y228243D01*
X223539Y227822D01*
X224282Y227674D01*
X270467D01*
X330097Y168045D01*
X330727Y167624D01*
X331470Y167476D01*
X342210D01*
Y163251D01*
X341228Y162445D01*
X340360Y162618D01*
X338491Y162246D01*
X337440Y161544D01*
X340360D01*
Y153924D01*
X337440D01*
X338491Y153222D01*
X340360Y152850D01*
X341228Y153023D01*
X342210Y152217D01*
Y147960D01*
X346940D01*
Y158000D01*
X350750D01*
Y161810D01*
X359290D01*
Y167476D01*
X363502D01*
X364480Y166770D01*
Y149230D01*
X370558D01*
Y146686D01*
X369288Y145921D01*
X368345Y146109D01*
X366972Y145836D01*
X365807Y145058D01*
X365409Y144462D01*
X363982D01*
X363982Y144462D01*
X363239Y144314D01*
X362609Y143893D01*
X362608Y143893D01*
X360971Y142256D01*
X360040Y141540D01*
Y141540D01*
X360040Y141540D01*
X353810D01*
Y131750D01*
X346190D01*
Y141540D01*
X339960D01*
Y137233D01*
X338978Y136427D01*
X338836Y136456D01*
X336967Y136084D01*
X335916Y135382D01*
X338836D01*
Y127762D01*
X335916D01*
X336967Y127060D01*
X338836Y126688D01*
X338978Y126716D01*
X339960Y125911D01*
Y124370D01*
X339344D01*
X338601Y124222D01*
X337971Y123801D01*
X335939Y121769D01*
X335518Y121139D01*
X335370Y120396D01*
Y114851D01*
X333870Y113351D01*
X332700Y113977D01*
X332815Y114554D01*
X332519Y116041D01*
X331677Y117301D01*
X301231Y147747D01*
X299971Y148589D01*
X298484Y148885D01*
X255270D01*
Y153770D01*
X238230Y153770D01*
X238040Y154961D01*
Y155040D01*
X232060D01*
Y145000D01*
Y134960D01*
X238040D01*
Y135039D01*
X238230Y136230D01*
X239310Y136230D01*
X242865D01*
Y127500D01*
X243161Y126013D01*
X244003Y124753D01*
X244905Y123851D01*
Y122710D01*
X244946Y122508D01*
Y119237D01*
X245082Y118552D01*
X245470Y117970D01*
X246052Y117582D01*
X246737Y117446D01*
X257763D01*
X258448Y117582D01*
X259030Y117970D01*
X259418Y118552D01*
X259554Y119237D01*
Y124762D01*
X259418Y125448D01*
X259030Y126030D01*
X258448Y126418D01*
X257763Y126554D01*
X252457D01*
X252379Y126947D01*
X251537Y128207D01*
X250635Y129109D01*
Y136230D01*
X255270D01*
Y141115D01*
X296875D01*
X326183Y111807D01*
X326768Y111416D01*
X326383Y110146D01*
X321310D01*
X321310Y110146D01*
X320567Y109999D01*
X319937Y109577D01*
X319937Y109577D01*
X316310Y105951D01*
X315040Y106477D01*
Y109040D01*
X310346D01*
X309540Y110022D01*
X309684Y110744D01*
X309312Y112613D01*
X308610Y113664D01*
Y110744D01*
X300990D01*
Y113664D01*
X300288Y112613D01*
X299916Y110744D01*
X300060Y110022D01*
X299254Y109040D01*
X294960D01*
Y103060D01*
X305000D01*
Y95440D01*
X294960D01*
Y91858D01*
X292540D01*
Y95440D01*
X282500D01*
Y103060D01*
X292540D01*
Y109040D01*
X287740D01*
X286934Y110022D01*
X287078Y110744D01*
X286706Y112613D01*
X286004Y113664D01*
Y110744D01*
X278384D01*
Y113664D01*
X277682Y112613D01*
X277310Y110744D01*
X277454Y110022D01*
X276648Y109040D01*
X272460D01*
Y101096D01*
X271928Y100771D01*
X271190Y100619D01*
X267435Y104374D01*
X266805Y104795D01*
X266062Y104942D01*
X259554D01*
Y105763D01*
X259418Y106448D01*
X259030Y107030D01*
X258448Y107418D01*
X257763Y107555D01*
X247998D01*
X232179Y123373D01*
X231549Y123794D01*
X230806Y123942D01*
X230054D01*
Y124762D01*
X229918Y125448D01*
X229530Y126030D01*
X228948Y126418D01*
X228263Y126554D01*
X217237D01*
X216552Y126418D01*
X215970Y126030D01*
X215582Y125448D01*
X215446Y124762D01*
Y119237D01*
X215582Y118552D01*
X215392Y118257D01*
Y112522D01*
Y106746D01*
X215582Y106448D01*
X215446Y105763D01*
Y100238D01*
X215582Y99552D01*
X215970Y98970D01*
X216552Y98582D01*
X217237Y98446D01*
X218615D01*
Y96375D01*
X92962Y96375D01*
X91685Y96375D01*
X91555Y96321D01*
X91417Y96348D01*
X88913Y95850D01*
X88796Y95772D01*
X88655D01*
X86296Y94795D01*
X86196Y94695D01*
X86058Y94668D01*
X83935Y93249D01*
X83857Y93132D01*
X83727Y93078D01*
X81922Y91273D01*
X81868Y91143D01*
X81751Y91065D01*
X80332Y88941D01*
X80305Y88803D01*
X80205Y88704D01*
X79228Y86345D01*
Y86204D01*
X79150Y86087D01*
X78652Y83583D01*
X78679Y83445D01*
X78625Y83315D01*
X78625Y82038D01*
Y40000D01*
X78625Y39005D01*
X78730Y38753D01*
Y38479D01*
X79491Y36642D01*
X79684Y36448D01*
X79789Y36196D01*
X81196Y34789D01*
X81448Y34685D01*
X81642Y34491D01*
X83479Y33730D01*
X83753D01*
X84005Y33625D01*
X85000Y33625D01*
X110123D01*
X110156Y33639D01*
X110190Y33627D01*
X110435Y33639D01*
X110468Y33654D01*
X110503Y33644D01*
X110747Y33668D01*
X110779Y33685D01*
X110814Y33676D01*
X110913Y33691D01*
X111072Y33625D01*
X111072D01*
X111072Y33625D01*
X111072Y33625D01*
X118495D01*
X118747Y33730D01*
X119021D01*
X120858Y34491D01*
X121052Y34685D01*
X121304Y34789D01*
X122711Y36196D01*
X122816Y36448D01*
X123009Y36642D01*
X123770Y38479D01*
Y38753D01*
X123875Y39005D01*
Y59933D01*
X123944Y60638D01*
X124508Y61999D01*
X125501Y62992D01*
X126862Y63556D01*
X127568Y63625D01*
X142361Y63625D01*
X142923Y62486D01*
X142320Y61700D01*
X141487Y59690D01*
X152400D01*
X163313D01*
X162480Y61700D01*
X161877Y62486D01*
X162439Y63625D01*
X219990Y63625D01*
Y58770D01*
X219230D01*
Y50230D01*
X221615D01*
Y47296D01*
X221911Y45809D01*
X222753Y44549D01*
X224013Y43707D01*
X225500Y43411D01*
X226987Y43707D01*
X228247Y44549D01*
X229089Y45809D01*
X229385Y47296D01*
Y50230D01*
X231770D01*
Y58770D01*
X227760D01*
Y63625D01*
X230994D01*
X231247Y63730D01*
X231521D01*
X233358Y64491D01*
X233552Y64685D01*
X233804Y64789D01*
X235211Y66196D01*
X235315Y66448D01*
X235509Y66642D01*
X236270Y68479D01*
Y68753D01*
X236374Y69005D01*
Y70000D01*
X236374Y70000D01*
X236374Y70000D01*
X236374Y90000D01*
X236375Y90994D01*
X236270Y91247D01*
Y91521D01*
X235509Y93358D01*
X235315Y93552D01*
X235211Y93804D01*
X233804Y95211D01*
X233552Y95315D01*
X233358Y95509D01*
X231697Y96197D01*
X231465D01*
X231257Y96299D01*
X230086Y96372D01*
X230043Y96357D01*
X230000Y96374D01*
X230000D01*
X230000Y96375D01*
X226385D01*
Y98446D01*
X228263D01*
X228948Y98582D01*
X229530Y98970D01*
X229918Y99552D01*
X230054Y100238D01*
Y105763D01*
X229918Y106448D01*
X229570Y106970D01*
X230445Y107555D01*
X231114Y108556D01*
X231141Y108690D01*
X222750D01*
Y116310D01*
X231141D01*
X231114Y116444D01*
X230509Y117350D01*
X230459Y117491D01*
X230531Y117732D01*
X231965Y118094D01*
X244946Y105114D01*
Y100238D01*
X245082Y99552D01*
X245470Y98970D01*
X246052Y98582D01*
X246737Y98446D01*
X257763D01*
X258448Y98582D01*
X259030Y98970D01*
X259418Y99552D01*
X259554Y100238D01*
Y101058D01*
X265257D01*
X268060Y98256D01*
Y96775D01*
X267004Y96070D01*
X266521Y96270D01*
X266247D01*
X265994Y96375D01*
X245000D01*
X245000Y96375D01*
X244005Y96375D01*
X243753Y96270D01*
X243479D01*
X241642Y95509D01*
X241448Y95315D01*
X241196Y95211D01*
X239789Y93804D01*
X239685Y93552D01*
X239491Y93358D01*
X238730Y91521D01*
Y91247D01*
X238625Y90995D01*
X238625Y90000D01*
X238625Y55000D01*
X238625Y54005D01*
X238730Y53753D01*
Y53479D01*
X239491Y51642D01*
X239685Y51448D01*
X239789Y51196D01*
X239789Y51196D01*
X239815Y51170D01*
X240067Y51066D01*
X240170Y50963D01*
X240154Y49992D01*
X240125Y49658D01*
X239177Y49470D01*
X238126Y48768D01*
X241046D01*
Y41148D01*
X238126D01*
X239177Y40446D01*
X240952Y40093D01*
X241960Y39460D01*
X241960Y39460D01*
X241960Y39460D01*
X243230D01*
Y31230D01*
X255770D01*
Y33110D01*
X404734D01*
X405132Y32514D01*
X406297Y31736D01*
X407670Y31463D01*
X409043Y31736D01*
X410208Y32514D01*
X410986Y33679D01*
X411259Y35052D01*
X410986Y36425D01*
X410208Y37590D01*
X409044Y38368D01*
X408823Y38966D01*
X408804Y39789D01*
X410211Y41196D01*
X410316Y41448D01*
X410509Y41642D01*
X411270Y43479D01*
X411270Y43753D01*
X411375Y44006D01*
X411375Y45000D01*
X411375Y57460D01*
X411711Y57964D01*
X412497Y58104D01*
X413625Y57159D01*
Y30000D01*
X413625Y28030D01*
X413679Y27900D01*
X413652Y27762D01*
X414420Y23898D01*
X414499Y23781D01*
Y23640D01*
X416006Y20000D01*
X416106Y19901D01*
X416133Y19763D01*
X418322Y16487D01*
X418439Y16409D01*
X418493Y16279D01*
X421279Y13493D01*
X421409Y13439D01*
X421487Y13322D01*
X424763Y11133D01*
X424901Y11106D01*
X425000Y11006D01*
X428640Y9499D01*
X428781D01*
X428898Y9420D01*
X432762Y8652D01*
X432900Y8679D01*
X433030Y8625D01*
X435000Y8625D01*
X867500D01*
X868485Y8625D01*
X868615Y8679D01*
X868753Y8652D01*
X870685Y9036D01*
X870802Y9114D01*
X870943D01*
X872763Y9868D01*
X872862Y9968D01*
X873000Y9995D01*
X874638Y11090D01*
X874716Y11207D01*
X874847Y11260D01*
X876239Y12653D01*
X876293Y12783D01*
X876411Y12862D01*
X877505Y14499D01*
X877532Y14638D01*
X877632Y14737D01*
X878386Y16557D01*
Y16698D01*
X878464Y16815D01*
X878848Y18747D01*
X878821Y18885D01*
X878875Y19015D01*
X878875Y20000D01*
X878875Y72500D01*
X878875Y72500D01*
Y73239D01*
X878821Y73369D01*
X878848Y73507D01*
X878560Y74956D01*
X878482Y75073D01*
Y75214D01*
X877916Y76579D01*
X877817Y76678D01*
X877789Y76816D01*
X876969Y78045D01*
X876852Y78123D01*
X876798Y78253D01*
X875753Y79298D01*
X875623Y79352D01*
X875545Y79469D01*
X874316Y80289D01*
X874178Y80317D01*
X874079Y80416D01*
X872714Y80982D01*
X872573D01*
X872456Y81060D01*
X871007Y81348D01*
X870869Y81321D01*
X870739Y81375D01*
X870000Y81375D01*
X855000Y81375D01*
X836515Y81375D01*
X836385Y81321D01*
X836247Y81348D01*
X834315Y80964D01*
X834198Y80886D01*
X834057D01*
X832237Y80132D01*
X832138Y80032D01*
X832000Y80005D01*
X830362Y78910D01*
X830283Y78793D01*
X830153Y78740D01*
X828760Y77347D01*
X828707Y77217D01*
X828589Y77138D01*
X827495Y75500D01*
X827468Y75362D01*
X827368Y75263D01*
X826614Y73443D01*
Y73302D01*
X826536Y73185D01*
X826152Y71253D01*
X826179Y71115D01*
X826125Y70985D01*
Y55068D01*
X826056Y54362D01*
X825492Y53001D01*
X824499Y52008D01*
X823138Y51444D01*
X822433Y51375D01*
X808885D01*
Y72500D01*
X808589Y73987D01*
X807747Y75247D01*
X801631Y81363D01*
Y83137D01*
X807747Y89253D01*
X808241Y89992D01*
X809510Y89607D01*
Y88270D01*
X809230D01*
Y76730D01*
X819770D01*
Y82190D01*
X819870Y82690D01*
Y93442D01*
X820180Y95000D01*
X819785Y96982D01*
X818662Y98663D01*
X816982Y99785D01*
X815000Y100180D01*
X813018Y99785D01*
X811540Y98798D01*
X810828Y99010D01*
X810270Y99391D01*
Y102276D01*
X814109Y106115D01*
X901350D01*
X902837Y106411D01*
X904097Y107253D01*
X921424Y124580D01*
X921585D01*
X921960Y124505D01*
X923501D01*
X932230Y115776D01*
Y103730D01*
X946770D01*
Y121270D01*
X937724D01*
X927857Y131137D01*
X926597Y131979D01*
X925770Y132143D01*
Y135420D01*
X916930D01*
Y131074D01*
X899741Y113885D01*
X812500D01*
X811013Y113589D01*
X809753Y112747D01*
X805276Y108270D01*
X799730D01*
Y96730D01*
X801115D01*
Y93609D01*
X795776Y88270D01*
X790230D01*
Y76730D01*
X795276D01*
X801115Y70891D01*
Y49585D01*
X800415Y48885D01*
X796270D01*
Y51770D01*
X778730D01*
Y44925D01*
X772928D01*
X772522Y44844D01*
X771540Y45649D01*
Y49254D01*
X772522Y50060D01*
X772922Y49980D01*
X774791Y50352D01*
X775842Y51054D01*
X772922D01*
Y54864D01*
X769112D01*
Y60040D01*
X765811D01*
X765171Y61310D01*
X765692Y62089D01*
X765996Y63618D01*
Y64805D01*
X778730D01*
Y58230D01*
X796270D01*
Y72770D01*
X778730D01*
Y68689D01*
X765996D01*
Y69876D01*
X765692Y71406D01*
X764826Y72702D01*
X763529Y73568D01*
X762000Y73872D01*
X760471Y73568D01*
X760214Y73396D01*
X759647Y73963D01*
X759647Y73963D01*
X757306Y76303D01*
X756676Y76725D01*
X755933Y76872D01*
X731270D01*
Y80365D01*
X735506D01*
X736993Y80661D01*
X738253Y81503D01*
X739149Y82399D01*
X740174Y82298D01*
X741471Y81432D01*
X743000Y81128D01*
X744529Y81432D01*
X745826Y82298D01*
X746692Y83595D01*
X746996Y85124D01*
Y91382D01*
X746692Y92911D01*
X745826Y94207D01*
X744529Y95074D01*
X743000Y95378D01*
X741471Y95074D01*
X740174Y94207D01*
X739308Y92911D01*
X739004Y91382D01*
Y91261D01*
X738632D01*
X737145Y90965D01*
X735885Y90123D01*
X733897Y88135D01*
X731270D01*
Y92770D01*
X713730D01*
Y88457D01*
X713638Y88306D01*
X712460Y87513D01*
X711708Y87663D01*
X710335Y87390D01*
X709170Y86612D01*
X709078Y86474D01*
X707808Y86860D01*
Y90885D01*
X707661Y91628D01*
X707239Y92258D01*
X700885Y98613D01*
X700769Y98690D01*
X701155Y99960D01*
X704440D01*
Y110000D01*
Y120040D01*
X698460D01*
Y115572D01*
X697478Y114766D01*
X696976Y114866D01*
X695107Y114494D01*
X694056Y113792D01*
X696976D01*
Y106172D01*
X694056D01*
X695107Y105470D01*
X696976Y105098D01*
X697478Y105198D01*
X698460Y104392D01*
Y100451D01*
X698460Y99960D01*
X697513Y99181D01*
X668988D01*
X668040Y99960D01*
Y100039D01*
X668230Y101230D01*
X669310Y101230D01*
X685270D01*
Y105540D01*
X686540Y106498D01*
X687070Y106393D01*
X688443Y106666D01*
X689608Y107444D01*
X690386Y108609D01*
X690659Y109982D01*
X690386Y111355D01*
X689608Y112520D01*
X688443Y113298D01*
X687070Y113571D01*
X686540Y113465D01*
X685270Y114424D01*
Y118770D01*
X680737D01*
Y120935D01*
X682007Y121774D01*
X682500Y121676D01*
X683581Y121891D01*
X684497Y122503D01*
X685503D01*
X686419Y121891D01*
X687500Y121676D01*
X688581Y121891D01*
X689497Y122503D01*
X690503D01*
X691419Y121891D01*
X692500Y121676D01*
X693581Y121891D01*
X694497Y122503D01*
X695503D01*
X696419Y121891D01*
X697500Y121676D01*
X698581Y121891D01*
X699497Y122503D01*
X700503D01*
X701419Y121891D01*
X702500Y121676D01*
X703581Y121891D01*
X704497Y122503D01*
X705503D01*
X706419Y121891D01*
X707500Y121676D01*
X708581Y121891D01*
X709497Y122503D01*
X710503D01*
X711419Y121891D01*
X712500Y121676D01*
X713581Y121891D01*
X714497Y122503D01*
X715503D01*
X716419Y121891D01*
X717500Y121676D01*
X718581Y121891D01*
X719497Y122503D01*
X720503D01*
X721419Y121891D01*
X722500Y121676D01*
X723581Y121891D01*
X724497Y122503D01*
X725503D01*
X725854Y122268D01*
X726677Y121215D01*
X726530Y120472D01*
Y118770D01*
X718230Y118770D01*
X718040Y119961D01*
Y120040D01*
X712060D01*
Y110000D01*
Y99960D01*
X718040D01*
Y100039D01*
X718230Y101230D01*
X719310Y101230D01*
X735270D01*
Y118770D01*
X731313D01*
X730787Y120040D01*
X732436Y121689D01*
X732500Y121676D01*
X733581Y121891D01*
X734137Y122262D01*
X734137Y122262D01*
X734498Y122503D01*
X735110Y123419D01*
X735325Y124500D01*
Y132000D01*
X739262D01*
Y125310D01*
X739509Y124071D01*
X739867Y123534D01*
X739890Y123419D01*
X740503Y122503D01*
X741184Y122048D01*
X741310Y121921D01*
Y121475D01*
X741822Y121410D01*
X743289Y119943D01*
X742803Y118770D01*
X739730D01*
Y101230D01*
X744188D01*
X745230Y99960D01*
X745203Y99822D01*
X745476Y98449D01*
X746254Y97284D01*
X747419Y96506D01*
X748792Y96233D01*
X750165Y96506D01*
X751330Y97284D01*
X752108Y98449D01*
X752381Y99822D01*
X752354Y99960D01*
X753396Y101230D01*
X756770Y101230D01*
X756960Y100039D01*
Y99960D01*
X762940D01*
Y110000D01*
Y120040D01*
X756960D01*
Y119961D01*
X756770Y118770D01*
X755690Y118770D01*
X751487D01*
Y119560D01*
X751241Y120799D01*
X750539Y121849D01*
X745737Y126651D01*
Y132000D01*
X745491Y133239D01*
X745324Y133488D01*
Y139500D01*
X745109Y140581D01*
X744497Y141497D01*
X743581Y142109D01*
X742500Y142324D01*
X742458Y142794D01*
X742500Y143002D01*
X742280Y144108D01*
X742374Y144298D01*
X743425Y144860D01*
X749859Y138427D01*
X750489Y138006D01*
X751232Y137858D01*
X813406D01*
X813469Y137380D01*
X814403Y135125D01*
X815889Y133189D01*
X817825Y131703D01*
X820080Y130769D01*
X822500Y130450D01*
X824920Y130769D01*
X827175Y131703D01*
X829111Y133189D01*
X830597Y135125D01*
X831531Y137380D01*
X831594Y137858D01*
X859424D01*
X860168Y138006D01*
X860798Y138427D01*
X863917Y141546D01*
X865138Y140609D01*
X866724Y139952D01*
X868426Y139728D01*
X870128Y139952D01*
X871714Y140609D01*
X873076Y141654D01*
X874079Y142961D01*
X874765Y143064D01*
X874787D01*
X875473Y142961D01*
X876476Y141654D01*
X877838Y140609D01*
X879424Y139952D01*
X881126Y139728D01*
X882828Y139952D01*
X884414Y140609D01*
X885776Y141654D01*
X886821Y143016D01*
X887379Y144362D01*
X888920D01*
X889663Y144509D01*
X890293Y144931D01*
X903873Y158511D01*
X904295Y159141D01*
X904442Y159884D01*
Y182786D01*
X904442Y182786D01*
X904295Y183529D01*
X903873Y184160D01*
X894715Y193318D01*
X894897Y194719D01*
X895050Y194931D01*
X902750D01*
X903733Y195126D01*
X904465Y195615D01*
X906118D01*
X906118Y195615D01*
X906911Y195773D01*
X907583Y196222D01*
X907638Y196277D01*
X918730D01*
Y184730D01*
Y173040D01*
X917460D01*
Y171310D01*
X918729D01*
Y171229D01*
X927250D01*
Y163690D01*
X917460D01*
Y161960D01*
X923920D01*
X924481Y160821D01*
X924320Y160610D01*
X936400D01*
Y156800D01*
X940210D01*
Y149195D01*
X941900D01*
X943582Y149416D01*
X944127Y148641D01*
X944242Y148281D01*
X940903Y144942D01*
X940061Y143681D01*
X939765Y142195D01*
Y135420D01*
X939230D01*
Y124580D01*
X948070D01*
Y135420D01*
X947535D01*
Y140586D01*
X953457Y146508D01*
X954299Y147768D01*
X954595Y149255D01*
Y169824D01*
X954975Y169900D01*
X956236Y170742D01*
X965247Y179753D01*
X966089Y181013D01*
X966385Y182500D01*
Y242500D01*
X966089Y243987D01*
X965247Y245247D01*
X955247Y255247D01*
X953987Y256089D01*
X952500Y256385D01*
X927741D01*
X926254Y256089D01*
X924994Y255247D01*
X913443Y243696D01*
X912601Y242436D01*
X912305Y240949D01*
Y227922D01*
X912601Y226435D01*
X913443Y225175D01*
X916405Y222213D01*
X917665Y221371D01*
X918730Y221159D01*
Y214730D01*
Y204572D01*
X906879D01*
X906200Y205842D01*
X906320Y206021D01*
X906614Y207500D01*
X906320Y208979D01*
X905482Y210232D01*
X905363Y210312D01*
X905124Y211517D01*
X905319Y212500D01*
X905124Y213483D01*
X904567Y214317D01*
Y215683D01*
X905124Y216517D01*
X905319Y217500D01*
X905124Y218483D01*
X904567Y219317D01*
X903733Y219874D01*
X902750Y220069D01*
X891250D01*
X890267Y219874D01*
X889433Y219317D01*
X888876Y218483D01*
X888681Y217500D01*
X888876Y216517D01*
X889433Y215683D01*
Y214317D01*
X888876Y213483D01*
X888795Y213076D01*
X888679Y212908D01*
X887679Y212217D01*
X887455Y212153D01*
X886206Y212402D01*
X884337Y212030D01*
X883286Y211328D01*
X886206D01*
Y203708D01*
X883286D01*
X884337Y203006D01*
X886206Y202634D01*
X887462Y202884D01*
X887701Y202809D01*
X888674Y202125D01*
X888789Y201956D01*
X888876Y201517D01*
X889433Y200683D01*
Y199317D01*
X888876Y198483D01*
X888681Y197500D01*
X888876Y196517D01*
X889433Y195683D01*
X890220Y195157D01*
X890240Y195062D01*
X889970Y193887D01*
X884001D01*
X869650Y208238D01*
X869019Y208659D01*
X868276Y208807D01*
X865846D01*
X865461Y210077D01*
X865807Y210309D01*
X868039Y212541D01*
X868741Y213591D01*
X868987Y214830D01*
Y226230D01*
X874270Y226230D01*
X874460Y225039D01*
Y224960D01*
X880440D01*
Y235000D01*
Y245040D01*
X874460D01*
Y244961D01*
X874270Y243770D01*
X873190Y243770D01*
X857230D01*
Y239013D01*
X856267Y238599D01*
X855960Y238544D01*
X854710Y238793D01*
X853337Y238520D01*
X852172Y237742D01*
X851394Y236577D01*
X851121Y235204D01*
X851394Y233831D01*
X852172Y232666D01*
X853337Y231888D01*
X854710Y231615D01*
X855960Y231864D01*
X856267Y231809D01*
X857230Y231395D01*
Y226230D01*
X862513D01*
Y218010D01*
X861243Y217885D01*
X861124Y218483D01*
X860567Y219317D01*
X859733Y219874D01*
X858750Y220069D01*
X847250D01*
X846267Y219874D01*
X845433Y219317D01*
X844876Y218483D01*
X844681Y217500D01*
X844759Y217105D01*
X844068Y215968D01*
X843826Y215803D01*
X842749Y215589D01*
X841699Y214887D01*
X839467Y212655D01*
X838765Y211605D01*
X838519Y210366D01*
Y199732D01*
X838765Y198493D01*
X839467Y197443D01*
X841699Y195211D01*
X842749Y194509D01*
X843988Y194263D01*
X856099D01*
X857168Y193194D01*
Y185345D01*
X857230Y185032D01*
Y183641D01*
X856267Y183227D01*
X855960Y183172D01*
X854710Y183421D01*
X853337Y183148D01*
X852172Y182370D01*
X851394Y181205D01*
X851121Y179832D01*
X851394Y178459D01*
X852172Y177294D01*
X853337Y176516D01*
X854710Y176243D01*
X855960Y176492D01*
X856267Y176437D01*
X857230Y176023D01*
Y171230D01*
X874270D01*
X874460Y170039D01*
Y169960D01*
X879107D01*
X879913Y168978D01*
X879798Y168402D01*
X880131Y166730D01*
X879987Y166129D01*
X879650Y165386D01*
X879424Y165356D01*
X877838Y164699D01*
X876476Y163654D01*
X875473Y162347D01*
X874787Y162244D01*
X874765D01*
X874079Y162347D01*
X873076Y163654D01*
X871714Y164699D01*
X870128Y165356D01*
X868426Y165580D01*
X866724Y165356D01*
X865378Y164799D01*
X863603Y166573D01*
X862973Y166994D01*
X862230Y167142D01*
X831770D01*
Y174470D01*
X813230D01*
Y158677D01*
X798836Y144282D01*
X753560D01*
X751704Y146139D01*
X752330Y147309D01*
X753000Y147176D01*
X768000D01*
X769081Y147391D01*
X769997Y148003D01*
X770609Y148919D01*
X770824Y150000D01*
X770609Y151081D01*
X770238Y151636D01*
X770086Y152500D01*
X770238Y153364D01*
X770609Y153919D01*
X770824Y155000D01*
X770609Y156081D01*
X770238Y156636D01*
X770086Y157500D01*
X770238Y158364D01*
X770609Y158919D01*
X770824Y160000D01*
X770609Y161081D01*
X770238Y161637D01*
X770086Y162500D01*
X770238Y163363D01*
X770609Y163919D01*
X770824Y165000D01*
X770609Y166081D01*
X770238Y166637D01*
X770086Y167500D01*
X770238Y168363D01*
X770609Y168919D01*
X770824Y170000D01*
X770609Y171081D01*
X770238Y171637D01*
X770086Y172500D01*
X770238Y173363D01*
X770609Y173919D01*
X770824Y175000D01*
X770609Y176081D01*
X770238Y176637D01*
X770086Y177500D01*
X770238Y178363D01*
X770609Y178919D01*
X770824Y180000D01*
X770609Y181081D01*
X770238Y181637D01*
X770086Y182500D01*
X770238Y183363D01*
X770609Y183919D01*
X770824Y185000D01*
X770609Y186081D01*
X770238Y186637D01*
X770086Y187500D01*
X770238Y188363D01*
X770609Y188919D01*
X770824Y190000D01*
X770609Y191081D01*
X770238Y191637D01*
X770086Y192500D01*
X770238Y193363D01*
X770609Y193919D01*
X770824Y195000D01*
X770609Y196081D01*
X770238Y196637D01*
X770086Y197500D01*
X770238Y198363D01*
X770609Y198919D01*
X770824Y200000D01*
X770609Y201081D01*
X770238Y201637D01*
X770086Y202500D01*
X770238Y203364D01*
X770609Y203919D01*
X770824Y205000D01*
X770609Y206081D01*
X770238Y206637D01*
X770086Y207500D01*
X770238Y208363D01*
X770609Y208919D01*
X770824Y210000D01*
X770609Y211081D01*
X770238Y211637D01*
X770086Y212500D01*
X770238Y213363D01*
X770609Y213919D01*
X770824Y215000D01*
X770609Y216081D01*
X770238Y216637D01*
X770913Y217087D01*
X771806Y218424D01*
X772119Y220000D01*
X772803Y220556D01*
X773730Y219758D01*
X773730Y208230D01*
X772539Y208040D01*
X772460D01*
Y202060D01*
X782500D01*
X792540D01*
Y208040D01*
X792461D01*
X791270Y208230D01*
X791270Y209310D01*
Y212451D01*
X791718Y212819D01*
X793091Y213092D01*
X794256Y213870D01*
X795034Y215035D01*
X795307Y216408D01*
X795034Y217781D01*
X794256Y218946D01*
X793091Y219724D01*
X791718Y219997D01*
X791270Y220365D01*
Y225270D01*
X778558D01*
X777678Y226150D01*
X778204Y227420D01*
X787980D01*
X788724Y227568D01*
X789354Y227989D01*
X862558Y301193D01*
X896635D01*
X896823Y301230D01*
X909270D01*
Y318730D01*
Y336230D01*
Y353730D01*
Y371270D01*
X894730D01*
Y357577D01*
X894115D01*
X893372Y357430D01*
X892742Y357008D01*
X892741Y357008D01*
X887627Y351893D01*
X887206Y351263D01*
X887058Y350520D01*
Y341963D01*
X787321Y242226D01*
X755284D01*
X754886Y242822D01*
X753721Y243600D01*
X752348Y243873D01*
X750975Y243600D01*
X749810Y242822D01*
X749032Y241657D01*
X748925Y241118D01*
X747547Y240700D01*
X746535Y241712D01*
X745904Y242134D01*
X745324Y242249D01*
Y250500D01*
X745109Y251581D01*
X744497Y252497D01*
X744297Y252631D01*
X744793Y253827D01*
X745490Y253688D01*
X747359Y254060D01*
X748943Y255119D01*
X750002Y256703D01*
X750374Y258572D01*
X750293Y258978D01*
X751099Y259960D01*
X755540D01*
Y260039D01*
X755730Y261230D01*
X756810Y261230D01*
X760655D01*
Y258572D01*
X760951Y257085D01*
X761793Y255825D01*
X763053Y254983D01*
X764540Y254687D01*
X766027Y254983D01*
X767287Y255825D01*
X768129Y257085D01*
X768425Y258572D01*
Y261230D01*
X772770D01*
Y278770D01*
X755730Y278770D01*
X755540Y279961D01*
Y280040D01*
X749560D01*
Y270000D01*
X741940D01*
Y280040D01*
X738192D01*
Y293439D01*
X738788Y293837D01*
X739566Y295002D01*
X739839Y296375D01*
X739566Y297748D01*
X739539Y297788D01*
X740218Y299058D01*
X745536D01*
X746280Y299205D01*
X746910Y299627D01*
X751221Y303938D01*
X757025D01*
X757556Y303582D01*
X758245Y303445D01*
X760404D01*
X762377Y301472D01*
X763008Y301050D01*
X763751Y300903D01*
X781537D01*
X782280Y301050D01*
X782911Y301472D01*
X785634Y304195D01*
X789255D01*
X789944Y304332D01*
X790527Y304722D01*
X790918Y305306D01*
X791055Y305995D01*
Y313005D01*
X790918Y313694D01*
X790527Y314277D01*
X789944Y314668D01*
X789255Y314805D01*
X784745D01*
X784056Y314668D01*
X783473Y314277D01*
X783083Y313694D01*
X782945Y313005D01*
Y307000D01*
X780733Y304787D01*
X778225D01*
X777850Y305245D01*
Y306190D01*
X773000D01*
Y313810D01*
X777850D01*
Y314452D01*
X772922D01*
Y318262D01*
X769112D01*
Y321182D01*
X768410Y320131D01*
X768214Y319149D01*
X766836Y318731D01*
X766693Y318873D01*
X766063Y319294D01*
X765320Y319442D01*
X765007D01*
X764990Y319484D01*
X764796Y320712D01*
X765183Y320971D01*
X772157Y327945D01*
X774755D01*
X775444Y328082D01*
X776028Y328473D01*
X776418Y329056D01*
X776555Y329745D01*
Y339255D01*
X776418Y339944D01*
X776028Y340527D01*
X775444Y340918D01*
X775331Y340940D01*
X775456Y342210D01*
X782541D01*
X782926Y340940D01*
X782557Y340693D01*
X781886Y339689D01*
X781711Y338810D01*
X787000D01*
Y331190D01*
X781711D01*
X781807Y330708D01*
X786892D01*
Y326898D01*
X790702D01*
Y323978D01*
X791404Y325029D01*
X791776Y326898D01*
X791404Y328767D01*
X791965Y329847D01*
X792756Y330142D01*
X793314Y329995D01*
X793556Y329832D01*
X794245Y329695D01*
X798755D01*
X799444Y329832D01*
X800027Y330223D01*
X800418Y330806D01*
X800555Y331495D01*
Y336354D01*
X800676Y336435D01*
X801945Y335756D01*
Y331495D01*
X802083Y330806D01*
X802473Y330223D01*
X803056Y329832D01*
X803745Y329695D01*
X806008D01*
X806210Y329655D01*
X817730D01*
X817730Y322980D01*
X816539Y322790D01*
X816460D01*
Y316810D01*
X826500D01*
Y313000D01*
X830310D01*
Y303210D01*
X836540D01*
Y307516D01*
X837184Y308044D01*
X839053Y308416D01*
X840104Y309118D01*
X837184D01*
Y316738D01*
X840104D01*
X839053Y317440D01*
X837184Y317812D01*
X836540Y318340D01*
Y322790D01*
X836461D01*
X835270Y322980D01*
X835270Y324060D01*
Y327585D01*
X837184D01*
X838671Y327881D01*
X839931Y328723D01*
X840773Y329983D01*
X841069Y331470D01*
X840773Y332957D01*
X839931Y334217D01*
X838671Y335059D01*
X837184Y335355D01*
X835270D01*
Y340020D01*
X817730D01*
Y337425D01*
X810055D01*
Y338505D01*
X809918Y339194D01*
X809528Y339777D01*
X809355Y339893D01*
X809080Y341148D01*
X809119Y341428D01*
X812316Y344624D01*
X812737Y345255D01*
X812884Y345998D01*
X812884Y345998D01*
Y347978D01*
X813460Y348428D01*
X814730Y347815D01*
Y343480D01*
X829270D01*
Y361020D01*
X823942D01*
Y364621D01*
X830323Y371002D01*
X830744Y371632D01*
X830766Y371740D01*
X835720D01*
Y392280D01*
X830892D01*
Y451740D01*
X835720D01*
Y472280D01*
D02*
G37*
G36*
X513190Y331190D02*
X511711D01*
X511886Y330311D01*
X512557Y329307D01*
X513190Y328884D01*
Y331190D01*
D02*
G37*
G36*
X808255Y314805D02*
X803745D01*
X803056Y314668D01*
X802473Y314277D01*
X802083Y313694D01*
X801945Y313005D01*
Y305995D01*
X802083Y305306D01*
X802473Y304722D01*
X803056Y304332D01*
X803745Y304195D01*
X808255D01*
X808944Y304332D01*
X809528Y304722D01*
X809918Y305306D01*
X810055Y305995D01*
Y313005D01*
X809918Y313694D01*
X809528Y314277D01*
X808944Y314668D01*
X808255Y314805D01*
D02*
G37*
G36*
X822690Y309190D02*
X816460D01*
Y303210D01*
X822690D01*
Y309190D01*
D02*
G37*
G36*
X966273Y373847D02*
X916211D01*
X915468Y373699D01*
X914837Y373279D01*
X913722Y372163D01*
X913300Y371532D01*
X913153Y370789D01*
Y354211D01*
X913300Y353468D01*
X913722Y352837D01*
X914837Y351722D01*
X915423Y351331D01*
X915730Y351023D01*
Y336230D01*
Y321477D01*
X915422Y321169D01*
X914837Y320779D01*
X913722Y319662D01*
X913300Y319032D01*
X913153Y318289D01*
Y301711D01*
X913300Y300968D01*
X913722Y300338D01*
X914837Y299222D01*
X915468Y298801D01*
X916211Y298653D01*
X966155D01*
X966898Y298801D01*
X967528Y299222D01*
X974878Y306572D01*
X975300Y307202D01*
X975447Y307945D01*
X975447Y307945D01*
Y329154D01*
X975300Y329897D01*
X974878Y330527D01*
X972145Y333261D01*
X972702Y334607D01*
X972926Y336309D01*
X972702Y338011D01*
X972045Y339597D01*
X971000Y340959D01*
X969693Y341962D01*
X969590Y342648D01*
Y342671D01*
X969693Y343356D01*
X971000Y344359D01*
X972045Y345721D01*
X972702Y347307D01*
X972926Y349009D01*
X972702Y350711D01*
X972145Y352057D01*
X974878Y354791D01*
X975300Y355421D01*
X975447Y356164D01*
Y364673D01*
X975300Y365416D01*
X974878Y366046D01*
X967646Y373279D01*
X967016Y373699D01*
X966273Y373847D01*
D02*
G37*
G36*
X982010Y250698D02*
Y247010D01*
X987780D01*
X986578Y248578D01*
X985003Y249786D01*
X983168Y250546D01*
X982010Y250698D01*
D02*
G37*
G36*
X974390D02*
X973232Y250546D01*
X971397Y249786D01*
X969822Y248578D01*
X968620Y247010D01*
X974390D01*
Y250698D01*
D02*
G37*
G36*
X987780Y239390D02*
X982010D01*
Y235702D01*
X983168Y235854D01*
X985003Y236614D01*
X986578Y237822D01*
X987780Y239390D01*
D02*
G37*
G36*
X974390D02*
X968620D01*
X969822Y237822D01*
X971397Y236614D01*
X973232Y235854D01*
X974390Y235702D01*
Y239390D01*
D02*
G37*
G36*
X894040Y245040D02*
X888060D01*
Y235000D01*
Y224960D01*
X894040D01*
Y229630D01*
X895022Y230436D01*
X895604Y230320D01*
X897473Y230692D01*
X898524Y231394D01*
X895604D01*
Y239014D01*
X898524D01*
X897473Y239716D01*
X895604Y240088D01*
X895022Y239972D01*
X894040Y240778D01*
Y245040D01*
D02*
G37*
G36*
X265950Y223604D02*
X50950D01*
X49479Y223311D01*
X48232Y222478D01*
X47399Y221231D01*
X47106Y219760D01*
X47399Y218289D01*
X48232Y217042D01*
X49479Y216209D01*
X50950Y215916D01*
X265950D01*
X267421Y216209D01*
X268668Y217042D01*
X269501Y218289D01*
X269794Y219760D01*
X269501Y221231D01*
X268668Y222478D01*
X267421Y223311D01*
X265950Y223604D01*
D02*
G37*
G36*
X792540Y194440D02*
X782500D01*
X772460D01*
Y188460D01*
X778615D01*
Y186540D01*
X772460D01*
Y180560D01*
X792540D01*
Y182681D01*
X793841Y182940D01*
X794892Y183642D01*
X791972D01*
Y191262D01*
X794892D01*
X793841Y191964D01*
X792540Y192223D01*
Y194440D01*
D02*
G37*
G36*
X982010Y164298D02*
Y160610D01*
X987780D01*
X986578Y162178D01*
X985003Y163386D01*
X983168Y164146D01*
X982010Y164298D01*
D02*
G37*
G36*
X974390D02*
X973232Y164146D01*
X971397Y163386D01*
X969822Y162178D01*
X968620Y160610D01*
X974390D01*
Y164298D01*
D02*
G37*
G36*
X792540Y172940D02*
X772460D01*
Y166960D01*
X772539D01*
X773730Y166770D01*
X773730Y165690D01*
Y149730D01*
X791270D01*
Y154077D01*
X791972Y154653D01*
X793345Y154926D01*
X794510Y155704D01*
X795288Y156869D01*
X795561Y158242D01*
X795288Y159615D01*
X794510Y160780D01*
X793345Y161558D01*
X791972Y161831D01*
X791270Y162407D01*
X791270Y166770D01*
X792461Y166960D01*
X792540D01*
Y172940D01*
D02*
G37*
G36*
X987780Y152990D02*
X982010D01*
Y149302D01*
X983168Y149454D01*
X985003Y150214D01*
X986578Y151422D01*
X987780Y152990D01*
D02*
G37*
G36*
X974390D02*
X968620D01*
X969822Y151422D01*
X971397Y150214D01*
X973232Y149454D01*
X974390Y149302D01*
Y152990D01*
D02*
G37*
G36*
X932590Y152990D02*
X924320D01*
X925522Y151422D01*
X927097Y150214D01*
X928932Y149454D01*
X930900Y149195D01*
X932590D01*
Y152990D01*
D02*
G37*
G36*
X359290Y154190D02*
X354560D01*
Y147960D01*
X359290D01*
Y154190D01*
D02*
G37*
G36*
X224440Y155040D02*
X218460D01*
Y150560D01*
X217678Y149918D01*
X215809Y149546D01*
X214758Y148844D01*
X217678D01*
Y141224D01*
X214758D01*
X215809Y140522D01*
X217678Y140150D01*
X218460Y139508D01*
Y134960D01*
X224440D01*
Y145000D01*
Y155040D01*
D02*
G37*
G36*
X969040Y122540D02*
X964310D01*
Y116310D01*
X969040D01*
Y122540D01*
D02*
G37*
G36*
X956690D02*
X951960D01*
Y116310D01*
X956690D01*
Y122540D01*
D02*
G37*
G36*
X776540Y120040D02*
X770560D01*
Y110000D01*
Y99960D01*
X776540D01*
Y104438D01*
X777522Y105244D01*
X778256Y105098D01*
X780125Y105470D01*
X781176Y106172D01*
X778256D01*
Y113792D01*
X781176D01*
X780125Y114494D01*
X778256Y114866D01*
X777522Y114720D01*
X776540Y115526D01*
Y120040D01*
D02*
G37*
G36*
X969040Y108690D02*
X964310D01*
Y102460D01*
X969040D01*
Y108690D01*
D02*
G37*
G36*
X956690D02*
X951960D01*
Y102460D01*
X956690D01*
Y108690D01*
D02*
G37*
G36*
X762000Y95378D02*
X760471Y95074D01*
X759174Y94207D01*
X758308Y92911D01*
X758004Y91382D01*
Y85124D01*
X758308Y83595D01*
X759174Y82298D01*
X760471Y81432D01*
X762000Y81128D01*
X763529Y81432D01*
X764826Y82298D01*
X765692Y83595D01*
X765996Y85124D01*
Y91382D01*
X765692Y92911D01*
X764826Y94207D01*
X763529Y95074D01*
X762000Y95378D01*
D02*
G37*
G36*
X902210Y66793D02*
Y59690D01*
X909313D01*
X908480Y61700D01*
X906630Y64110D01*
X904220Y65960D01*
X902210Y66793D01*
D02*
G37*
G36*
X894590D02*
X892580Y65960D01*
X890170Y64110D01*
X888320Y61700D01*
X887487Y59690D01*
X894590D01*
Y66793D01*
D02*
G37*
G36*
X163313Y52070D02*
X156210D01*
Y44967D01*
X158220Y45800D01*
X160630Y47650D01*
X162480Y50060D01*
X163313Y52070D01*
D02*
G37*
G36*
X909313D02*
X902210D01*
Y44967D01*
X904220Y45800D01*
X906630Y47650D01*
X908480Y50060D01*
X909313Y52070D01*
D02*
G37*
G36*
X894590D02*
X887487D01*
X888320Y50060D01*
X890170Y47650D01*
X892580Y45800D01*
X894590Y44967D01*
Y52070D01*
D02*
G37*
G36*
X148590D02*
X141487D01*
X142320Y50060D01*
X144170Y47650D01*
X146580Y45800D01*
X148590Y44967D01*
Y52070D01*
D02*
G37*
G36*
X231770Y39770D02*
X219230D01*
Y31230D01*
X225013D01*
Y23770D01*
X219730D01*
Y6230D01*
X236770Y6230D01*
X236960Y5039D01*
Y4960D01*
X242940D01*
Y15000D01*
Y25040D01*
X236960D01*
Y24961D01*
X236770Y23770D01*
X235690Y23770D01*
X231487D01*
Y30077D01*
X231770Y31230D01*
X232797Y31817D01*
X233040Y31945D01*
X234188Y31717D01*
X235561Y31990D01*
X236726Y32768D01*
X237504Y33933D01*
X237777Y35306D01*
X237504Y36679D01*
X236726Y37844D01*
X235561Y38622D01*
X234188Y38895D01*
X233040Y38667D01*
X231770Y38936D01*
Y39770D01*
D02*
G37*
G36*
X978810Y42174D02*
Y28810D01*
X992173D01*
X991283Y31745D01*
X989654Y34792D01*
X987463Y37463D01*
X984792Y39655D01*
X981745Y41283D01*
X978810Y42174D01*
D02*
G37*
G36*
X971190D02*
X968255Y41283D01*
X965208Y39655D01*
X962537Y37463D01*
X960346Y34792D01*
X958717Y31745D01*
X957827Y28810D01*
X971190D01*
Y42174D01*
D02*
G37*
G36*
X28810D02*
Y28810D01*
X42174D01*
X41283Y31745D01*
X39655Y34792D01*
X37463Y37463D01*
X34792Y39655D01*
X31745Y41283D01*
X28810Y42174D01*
D02*
G37*
G36*
X21190D02*
X18255Y41283D01*
X15208Y39655D01*
X12537Y37463D01*
X10345Y34792D01*
X8717Y31745D01*
X7826Y28810D01*
X21190D01*
Y42174D01*
D02*
G37*
G36*
X256540Y25040D02*
X250560D01*
Y15000D01*
Y4960D01*
X256540D01*
Y9709D01*
X257522Y10515D01*
X258318Y10356D01*
X260187Y10728D01*
X261238Y11430D01*
X258318D01*
Y19050D01*
X261238D01*
X260187Y19752D01*
X258318Y20124D01*
X257522Y19965D01*
X256540Y20771D01*
Y25040D01*
D02*
G37*
G36*
X992173Y21190D02*
X978810D01*
Y7826D01*
X981745Y8717D01*
X984792Y10345D01*
X987463Y12537D01*
X989654Y15208D01*
X991283Y18255D01*
X992173Y21190D01*
D02*
G37*
G36*
X971190D02*
X957827D01*
X958717Y18255D01*
X960346Y15208D01*
X962537Y12537D01*
X965208Y10345D01*
X968255Y8717D01*
X971190Y7826D01*
Y21190D01*
D02*
G37*
G36*
X42174D02*
X28810D01*
Y7826D01*
X31745Y8717D01*
X34792Y10345D01*
X37463Y12537D01*
X39655Y15208D01*
X41283Y18255D01*
X42174Y21190D01*
D02*
G37*
G36*
X21190D02*
X7826D01*
X8717Y18255D01*
X10345Y15208D01*
X12537Y12537D01*
X15208Y10345D01*
X18255Y8717D01*
X21190Y7826D01*
Y21190D01*
D02*
G37*
%LPD*%
G36*
X602159Y340097D02*
X601886Y339689D01*
X601711Y338810D01*
X607000D01*
Y335000D01*
X610810D01*
Y328884D01*
X611443Y329307D01*
X611750Y329766D01*
X612756Y330142D01*
X613314Y329995D01*
X613556Y329832D01*
X614245Y329695D01*
X618755D01*
X619444Y329832D01*
X620028Y330223D01*
X620418Y330806D01*
X620555Y331495D01*
Y336354D01*
X620676Y336435D01*
X621945Y335756D01*
Y331495D01*
X622082Y330806D01*
X622473Y330223D01*
X623056Y329832D01*
X623745Y329695D01*
X624561D01*
X625503Y328753D01*
X626763Y327911D01*
X628250Y327615D01*
X637730D01*
Y324097D01*
X631987D01*
X631244Y323949D01*
X630614Y323528D01*
X630614Y323528D01*
X628814Y321728D01*
X618886D01*
X618488Y322324D01*
X617323Y323102D01*
X615950Y323375D01*
X614577Y323102D01*
X613412Y322324D01*
X612634Y321159D01*
X612361Y319786D01*
X612634Y318413D01*
X613412Y317248D01*
X614577Y316470D01*
X615950Y316197D01*
X617323Y316470D01*
X618488Y317248D01*
X618886Y317844D01*
X629618D01*
X630361Y317992D01*
X630992Y318413D01*
X632791Y320213D01*
X636460D01*
Y316810D01*
X646500D01*
Y313000D01*
X650310D01*
Y303210D01*
X656540D01*
Y307814D01*
X657522Y308619D01*
X657860Y308552D01*
X659729Y308924D01*
X661313Y309983D01*
X662159Y311248D01*
X663327Y311665D01*
X663694Y311702D01*
X663903Y311550D01*
Y304251D01*
X664051Y303508D01*
X664472Y302877D01*
X665878Y301472D01*
X666508Y301050D01*
X667251Y300903D01*
X667251Y300903D01*
X672951D01*
X673695Y301050D01*
X674325Y301472D01*
X676131Y303278D01*
X677464Y303249D01*
X678312Y302199D01*
X678122Y301244D01*
X678494Y299375D01*
X679196Y298324D01*
Y301244D01*
X683006D01*
Y305054D01*
X687812D01*
X687849Y305245D01*
Y306190D01*
X683000D01*
Y310000D01*
X680055D01*
Y314755D01*
X679918Y315444D01*
X679528Y316028D01*
X679190Y316254D01*
Y317032D01*
X679057Y316943D01*
X678734Y316459D01*
X678255Y316555D01*
X674745D01*
X674138Y316434D01*
X674060Y316489D01*
X673630Y317722D01*
X676311Y320403D01*
X726460D01*
Y318556D01*
X725478Y317750D01*
X725170Y317812D01*
X723301Y317440D01*
X721717Y316381D01*
X720658Y314797D01*
X720363Y314662D01*
X719291Y314435D01*
X718944Y314668D01*
X718255Y314805D01*
X713745D01*
X713056Y314668D01*
X712473Y314277D01*
X712083Y313694D01*
X711945Y313005D01*
Y306842D01*
X710676Y306316D01*
X706118Y310873D01*
X705488Y311294D01*
X704745Y311442D01*
X701055D01*
Y313005D01*
X700918Y313694D01*
X700527Y314277D01*
X699944Y314668D01*
X699255Y314805D01*
X694745D01*
X694056Y314668D01*
X693473Y314277D01*
X693083Y313694D01*
X692945Y313005D01*
Y307168D01*
X692542Y306764D01*
X692121Y306134D01*
X691973Y305391D01*
Y283559D01*
X690799Y283072D01*
X690304Y283567D01*
X689674Y283988D01*
X688931Y284136D01*
X633919D01*
X611055Y307000D01*
Y313005D01*
X610918Y313694D01*
X610527Y314277D01*
X609944Y314668D01*
X609255Y314805D01*
X608942D01*
Y317560D01*
X608795Y318303D01*
X608373Y318933D01*
X596555Y330752D01*
Y339255D01*
X596418Y339944D01*
X596027Y340527D01*
X595444Y340918D01*
X595331Y340940D01*
X595456Y342210D01*
X600046D01*
X602159Y340097D01*
D02*
G37*
G36*
X894730Y305077D02*
X864510D01*
X864024Y306251D01*
X876466Y318693D01*
X894730D01*
Y305077D01*
D02*
G37*
G36*
X709277Y302222D02*
X709907Y301800D01*
X710650Y301653D01*
X710650Y301653D01*
X719371D01*
X719857Y300479D01*
X716127Y296748D01*
X715705Y296118D01*
X715558Y295375D01*
Y278770D01*
X699730D01*
Y273829D01*
X698460Y272786D01*
X698246Y272829D01*
X697127Y272606D01*
X695857Y273288D01*
Y304195D01*
X699255D01*
X699944Y304332D01*
X700527Y304722D01*
X700918Y305306D01*
X701055Y305995D01*
Y307558D01*
X703941D01*
X709277Y302222D01*
D02*
G37*
G36*
X732961Y297788D02*
X732934Y297748D01*
X732661Y296375D01*
X732934Y295002D01*
X733712Y293837D01*
X734308Y293439D01*
Y280040D01*
X730560D01*
Y270000D01*
X722940D01*
Y280040D01*
X719442D01*
Y294571D01*
X723930Y299058D01*
X732282D01*
X732961Y297788D01*
D02*
G37*
G36*
X668611Y261230D02*
X668905Y260440D01*
X667977Y259427D01*
X667639Y259494D01*
X666266Y259221D01*
X665101Y258443D01*
X664323Y257278D01*
X664050Y255905D01*
X664323Y254532D01*
X664402Y254414D01*
Y243699D01*
X664263Y243000D01*
Y242467D01*
X664509Y241228D01*
X664676Y240979D01*
Y236741D01*
X663406Y236215D01*
X639675Y259945D01*
X639654Y259960D01*
X640039Y261230D01*
X643368D01*
X645912Y258686D01*
X645889Y258572D01*
X646162Y257199D01*
X646940Y256034D01*
X648105Y255256D01*
X649478Y254983D01*
X650851Y255256D01*
X652016Y256034D01*
X652794Y257199D01*
X653067Y258572D01*
X652794Y259945D01*
X652784Y259960D01*
X652989Y260574D01*
X653684Y261230D01*
X668611D01*
D02*
G37*
G36*
X650891Y235489D02*
X650266Y234318D01*
X649478Y234475D01*
X648105Y234202D01*
X646940Y233424D01*
X646162Y232259D01*
X645889Y230886D01*
X646162Y229513D01*
X646241Y229395D01*
Y227824D01*
X642000D01*
X640919Y227609D01*
X640003Y226997D01*
X639391Y226081D01*
X639176Y225000D01*
X639391Y223919D01*
X639762Y223363D01*
X639914Y222500D01*
X639762Y221637D01*
X639391Y221081D01*
X639176Y220000D01*
X639391Y218919D01*
X639762Y218363D01*
X639914Y217500D01*
X639762Y216637D01*
X639391Y216081D01*
X639176Y215000D01*
X639391Y213919D01*
X639762Y213363D01*
X639914Y212500D01*
X639762Y211637D01*
X639391Y211081D01*
X639176Y210000D01*
X639391Y208919D01*
X639762Y208363D01*
X639816Y208057D01*
X639627Y207431D01*
X639304Y206942D01*
X635999D01*
X632751Y210190D01*
X633277Y211460D01*
X634040D01*
Y217190D01*
X625500D01*
Y224810D01*
X634040D01*
Y229960D01*
X636540D01*
Y234252D01*
X637810Y235295D01*
X638556Y235146D01*
X640425Y235518D01*
X642009Y236577D01*
X643068Y238161D01*
X643440Y240030D01*
X643163Y241421D01*
X644334Y242047D01*
X650891Y235489D01*
D02*
G37*
G36*
X710864Y233262D02*
X711419Y232891D01*
X712500Y232676D01*
X712565Y232689D01*
X714725Y230529D01*
X715355Y230107D01*
X716098Y229960D01*
X728981D01*
X729467Y228786D01*
X697624Y196942D01*
X659696D01*
X659373Y197432D01*
X659184Y198057D01*
X659238Y198363D01*
X659609Y198919D01*
X659824Y200000D01*
X659609Y201081D01*
X659238Y201637D01*
X659086Y202500D01*
X659238Y203364D01*
X659609Y203919D01*
X659824Y205000D01*
X659609Y206081D01*
X659238Y206637D01*
X659086Y207500D01*
X659238Y208363D01*
X659609Y208919D01*
X659824Y210000D01*
X659609Y211081D01*
X659238Y211637D01*
X659086Y212500D01*
X659238Y213363D01*
X659609Y213919D01*
X659824Y215000D01*
X659609Y216081D01*
X659238Y216637D01*
X659086Y217500D01*
X659238Y218363D01*
X659609Y218919D01*
X659824Y220000D01*
X659609Y221081D01*
X659238Y221637D01*
X659086Y222500D01*
X659238Y223363D01*
X659609Y223919D01*
X659784Y224800D01*
X660415Y225156D01*
X661054Y225326D01*
X665885Y220496D01*
X666515Y220075D01*
X667258Y219927D01*
X692531D01*
X693274Y220075D01*
X693904Y220496D01*
X703873Y230465D01*
X704295Y231095D01*
X704442Y231838D01*
Y232804D01*
X704931Y233127D01*
X705557Y233316D01*
X705863Y233262D01*
X706419Y232891D01*
X707500Y232676D01*
X708581Y232891D01*
X709137Y233262D01*
X710000Y233414D01*
X710864Y233262D01*
D02*
G37*
G36*
X599730Y231230D02*
X606308D01*
Y229270D01*
X602230D01*
Y229040D01*
X598100D01*
X597294Y230022D01*
X597466Y230886D01*
X597094Y232755D01*
X596392Y233806D01*
Y230886D01*
X588772D01*
Y233806D01*
X588070Y232755D01*
X587698Y230886D01*
X587870Y230022D01*
X587064Y229040D01*
X582460D01*
Y223060D01*
X592500D01*
Y215440D01*
X582460D01*
Y209460D01*
X582539D01*
X583730Y209270D01*
Y192230D01*
X600960D01*
Y189902D01*
X580686D01*
X577252Y193337D01*
Y208026D01*
X577252Y208026D01*
X577104Y208769D01*
X576683Y209399D01*
X576683Y209400D01*
X547209Y238873D01*
X546579Y239294D01*
X545836Y239442D01*
X532770D01*
Y246270D01*
X518230D01*
Y229526D01*
X517398D01*
X516655Y229379D01*
X516025Y228957D01*
X513875Y226807D01*
X508865D01*
X508677Y226770D01*
X506442D01*
Y228730D01*
X511770D01*
Y246270D01*
X497230D01*
Y228730D01*
X502558D01*
Y226770D01*
X498230D01*
Y210230D01*
X498230D01*
X497942Y209079D01*
X493040D01*
Y214690D01*
X477960D01*
Y208960D01*
X485702D01*
X486228Y207690D01*
X472346Y193807D01*
X448365D01*
X448177Y193770D01*
X444942D01*
Y196230D01*
X450270D01*
Y213770D01*
X435730D01*
Y196230D01*
X441058D01*
Y193770D01*
X435730D01*
Y176230D01*
X450270D01*
Y189923D01*
X473150D01*
X473893Y190071D01*
X474523Y190492D01*
X487557Y203525D01*
X488730Y203039D01*
Y188230D01*
X487650Y187770D01*
X486230D01*
Y175977D01*
X469797Y159543D01*
X469375Y158913D01*
X469228Y158170D01*
Y138575D01*
X446058Y115405D01*
X435495D01*
X434806Y115268D01*
X433748Y116004D01*
X433542Y116142D01*
X433287Y116193D01*
X433267Y116207D01*
X433242Y116202D01*
X433148Y116221D01*
X432777Y116375D01*
X428523D01*
X428392Y116321D01*
X428254Y116348D01*
X425356Y115772D01*
X425239Y115694D01*
X425099D01*
X422369Y114563D01*
X422269Y114463D01*
X422131Y114436D01*
X419674Y112794D01*
X419596Y112677D01*
X419466Y112623D01*
X417377Y110534D01*
X417323Y110404D01*
X417206Y110326D01*
X415564Y107869D01*
X415537Y107731D01*
X415437Y107631D01*
X414306Y104901D01*
Y104761D01*
X414228Y104643D01*
X413652Y101746D01*
X413679Y101608D01*
X413625Y101477D01*
Y89863D01*
X413715Y89646D01*
X413702Y89411D01*
X413909Y89179D01*
X414028Y88891D01*
X414245Y88801D01*
X414402Y88626D01*
X414423Y88615D01*
Y85852D01*
X414826Y84880D01*
X415798Y84477D01*
X416293D01*
X417070Y83314D01*
X418235Y82536D01*
X419608Y82263D01*
X420981Y82536D01*
X421111Y82623D01*
X421233Y82665D01*
X421430Y82720D01*
X422731Y82178D01*
X422741Y82161D01*
X422891Y82037D01*
X422954Y80768D01*
X422877Y80691D01*
X422455Y80061D01*
X422308Y79318D01*
Y76270D01*
X415730D01*
Y61070D01*
X415724Y61056D01*
X415540Y60941D01*
X414270Y61648D01*
Y76270D01*
X403486D01*
Y80548D01*
X403338Y81292D01*
X402917Y81922D01*
X397534Y87304D01*
X396904Y87725D01*
X396305Y87845D01*
Y88205D01*
X396168Y88894D01*
X395778Y89478D01*
X395194Y89868D01*
X394505Y90005D01*
X390023D01*
X389722Y90732D01*
X388750Y91135D01*
X382767D01*
X381923Y92360D01*
X381935Y92433D01*
X382995Y93301D01*
X384940D01*
Y98650D01*
Y104000D01*
X382995D01*
X382169Y103835D01*
X381312Y104768D01*
X381270Y104853D01*
Y106597D01*
X381691Y106937D01*
X382540Y107386D01*
X382995Y107296D01*
X394505D01*
X395194Y107432D01*
X395778Y107823D01*
X396168Y108406D01*
X396305Y109095D01*
Y113605D01*
X396168Y114294D01*
X395778Y114878D01*
X395194Y115268D01*
X394505Y115405D01*
X382995D01*
X382540Y115314D01*
X381691Y115764D01*
X381270Y116103D01*
Y119298D01*
X381691Y119636D01*
X382540Y120086D01*
X382995Y119995D01*
X394505D01*
X395194Y120132D01*
X395778Y120522D01*
X396168Y121106D01*
X396305Y121795D01*
Y126305D01*
X396168Y126994D01*
X395778Y127577D01*
X395194Y127968D01*
X394505Y128105D01*
X392235D01*
X391709Y129375D01*
X398883Y136549D01*
X398883Y136549D01*
X399305Y137179D01*
X399452Y137922D01*
Y138691D01*
X400722Y139379D01*
X401828Y139159D01*
X403201Y139432D01*
X404366Y140210D01*
X404933Y141060D01*
X406418D01*
X407476Y140625D01*
X408535Y139041D01*
X410119Y137982D01*
X411988Y137610D01*
X412478Y137708D01*
X413460Y136902D01*
Y132460D01*
X419440D01*
Y142500D01*
X427060D01*
Y132460D01*
X433040D01*
Y132539D01*
X433230Y133730D01*
X434310Y133730D01*
X439308D01*
Y128105D01*
X435495D01*
X434806Y127968D01*
X434222Y127577D01*
X433832Y126994D01*
X433695Y126305D01*
Y121795D01*
X433832Y121106D01*
X434222Y120522D01*
X434806Y120132D01*
X435495Y119995D01*
X447005D01*
X447694Y120132D01*
X448278Y120522D01*
X448668Y121106D01*
X448805Y121795D01*
Y126305D01*
X448668Y126994D01*
X448278Y127577D01*
X447694Y127968D01*
X447005Y128105D01*
X443192D01*
Y133730D01*
X450270D01*
Y151270D01*
X433230Y151270D01*
X433218Y151344D01*
X433040Y152540D01*
X433323Y153693D01*
X437635D01*
X437823Y153730D01*
X450270D01*
Y171270D01*
X438458D01*
X434872Y174855D01*
X434242Y175277D01*
X433499Y175424D01*
X432860D01*
X429270Y179015D01*
Y193770D01*
X429270D01*
X429463Y194960D01*
X430540D01*
Y201190D01*
X422000D01*
Y205000D01*
X418190D01*
Y215040D01*
X413460D01*
Y210520D01*
X412478Y209714D01*
X411734Y209862D01*
X409865Y209490D01*
X408281Y208431D01*
X408215Y208334D01*
X406945Y208719D01*
Y243063D01*
X407541Y243461D01*
X408319Y244626D01*
X408592Y245999D01*
X408397Y246978D01*
X409145Y248248D01*
X599730D01*
Y231230D01*
D02*
G37*
G36*
X958615Y240891D02*
Y184109D01*
X952099Y177593D01*
X947785Y181907D01*
X946525Y182749D01*
X945039Y183045D01*
X938361D01*
X937040Y182782D01*
X936430Y182987D01*
X935770Y183340D01*
Y185407D01*
X948447D01*
X948946Y184660D01*
X950111Y183882D01*
X951484Y183609D01*
X952857Y183882D01*
X954022Y184660D01*
X954800Y185825D01*
X955073Y187198D01*
X954800Y188571D01*
X954022Y189736D01*
X952857Y190514D01*
X951484Y190787D01*
X950111Y190514D01*
X948946Y189736D01*
X948649Y189291D01*
X944157D01*
X943479Y190561D01*
X943878Y191159D01*
X944151Y192532D01*
X943878Y193905D01*
X943306Y194761D01*
X943141Y195314D01*
X943333Y196441D01*
X946091Y199199D01*
X946091Y199199D01*
X946540Y199872D01*
X946698Y200664D01*
X946698Y200665D01*
Y204212D01*
X946540Y205005D01*
X946091Y205677D01*
X946091Y205677D01*
X942803Y208965D01*
X942131Y209414D01*
X941338Y209572D01*
X941338Y209572D01*
X935770D01*
Y215520D01*
X948523D01*
X948946Y214886D01*
X950111Y214108D01*
X951484Y213835D01*
X952857Y214108D01*
X954022Y214886D01*
X954800Y216051D01*
X955073Y217424D01*
X954800Y218797D01*
X954022Y219962D01*
X952857Y220740D01*
X951484Y221013D01*
X950111Y220740D01*
X948946Y219962D01*
X948574Y219404D01*
X935770D01*
Y225553D01*
X937040Y225938D01*
X937720Y224920D01*
X939546Y223700D01*
X941700Y223272D01*
X943854Y223700D01*
X945680Y224920D01*
X946900Y226746D01*
X947328Y228900D01*
X946900Y231054D01*
X945680Y232880D01*
X943854Y234100D01*
X942428Y234383D01*
X942470Y235670D01*
X943868Y235854D01*
X945703Y236614D01*
X947278Y237822D01*
X948480Y239390D01*
X936400D01*
Y247010D01*
X948480D01*
X948223Y247345D01*
X948849Y248615D01*
X950891D01*
X958615Y240891D01*
D02*
G37*
G36*
X401609Y246978D02*
X401414Y245999D01*
X401687Y244626D01*
X402465Y243461D01*
X403061Y243063D01*
Y181423D01*
X401830Y180373D01*
X401828Y180373D01*
X400455Y180100D01*
X399290Y179322D01*
X398512Y178157D01*
X398239Y176784D01*
X398284Y176560D01*
X397241Y175290D01*
X392975D01*
Y242936D01*
X393571Y243334D01*
X394349Y244499D01*
X394622Y245872D01*
X394402Y246978D01*
X395090Y248248D01*
X400861D01*
X401609Y246978D01*
D02*
G37*
G36*
X573368Y207222D02*
Y192532D01*
X573516Y191789D01*
X573937Y191159D01*
X578508Y186587D01*
X578509Y186587D01*
X578636Y186501D01*
X578730Y185270D01*
X578730Y185028D01*
Y181023D01*
X577460Y180344D01*
X577445Y180354D01*
X576072Y180627D01*
X574699Y180354D01*
X573534Y179576D01*
X572756Y178411D01*
X572483Y177038D01*
X572756Y175665D01*
X573534Y174500D01*
X574699Y173722D01*
X576072Y173449D01*
X577445Y173722D01*
X577460Y173732D01*
X578730Y173053D01*
X578730Y168230D01*
X577539Y168040D01*
X577460D01*
Y163901D01*
X576478Y163096D01*
X576326Y163126D01*
X574457Y162754D01*
X573406Y162052D01*
X576326D01*
Y154432D01*
X573406D01*
X574457Y153730D01*
X576326Y153358D01*
X576478Y153388D01*
X577460Y152583D01*
Y148460D01*
X577615D01*
X578460Y147540D01*
X578460Y147190D01*
Y142815D01*
X577478Y142010D01*
X576834Y142138D01*
X574965Y141766D01*
X573381Y140707D01*
X572322Y139123D01*
X571950Y137254D01*
X571966Y137172D01*
X570796Y136547D01*
X569378Y137964D01*
Y180086D01*
X569230Y180829D01*
X568809Y181459D01*
X568809Y181460D01*
X541758Y208510D01*
X541128Y208932D01*
X540985Y208960D01*
X541110Y210230D01*
X550770D01*
Y226770D01*
X541025D01*
X538838Y228957D01*
X538208Y229379D01*
X537464Y229526D01*
X532770D01*
Y235558D01*
X545032D01*
X573368Y207222D01*
D02*
G37*
G36*
X387664Y246978D02*
X387444Y245872D01*
X387717Y244499D01*
X388495Y243334D01*
X389091Y242936D01*
Y174020D01*
X387730D01*
Y171442D01*
X381505D01*
X380123Y172823D01*
X380015Y172896D01*
X379579Y173331D01*
X378949Y173752D01*
X378206Y173900D01*
X333327D01*
X325224Y182003D01*
X325223Y182003D01*
X325223Y182004D01*
X273697Y233529D01*
X273067Y233951D01*
X272324Y234098D01*
X229441D01*
X216465Y247074D01*
X216951Y248248D01*
X386976D01*
X387664Y246978D01*
D02*
G37*
G36*
X528730Y204770D02*
Y188230D01*
X527650Y187770D01*
X526230D01*
Y173230D01*
X539923D01*
Y168829D01*
X540070Y168086D01*
X540101Y168040D01*
X539422Y166770D01*
X526230D01*
Y163385D01*
X503770D01*
Y166770D01*
X486230D01*
Y157724D01*
X474286Y145779D01*
X473112Y146265D01*
Y157365D01*
X488977Y173230D01*
X503770D01*
Y187770D01*
X502350D01*
X501270Y188230D01*
Y204770D01*
X502364Y205195D01*
X527636D01*
X528730Y204770D01*
D02*
G37*
G36*
X408281Y201525D02*
X409865Y200466D01*
X411734Y200094D01*
X412478Y200242D01*
X413460Y199436D01*
Y194960D01*
X414537D01*
X414730Y193770D01*
X414730D01*
Y176230D01*
X426561D01*
X430682Y172109D01*
X430682Y172109D01*
X431313Y171688D01*
X432056Y171540D01*
X432695D01*
X435730Y168504D01*
Y157577D01*
X431329D01*
X430586Y157430D01*
X430540Y157399D01*
X429270Y158078D01*
Y171270D01*
X414730D01*
Y157577D01*
X408246D01*
X407738Y158489D01*
X407686Y158813D01*
X411202Y162330D01*
X411202Y162330D01*
X411623Y162960D01*
X411771Y163703D01*
X411771Y163703D01*
Y175641D01*
X411771Y175641D01*
X411623Y176384D01*
X411202Y177014D01*
X411202Y177015D01*
X406945Y181271D01*
Y201237D01*
X408215Y201622D01*
X408281Y201525D01*
D02*
G37*
G36*
X738010Y226150D02*
X737872Y226058D01*
X737094Y224893D01*
X736821Y223520D01*
X737094Y222147D01*
X737872Y220982D01*
X738468Y220584D01*
Y218440D01*
X738615Y217697D01*
X739037Y217067D01*
X742477Y213627D01*
X743107Y213206D01*
X743850Y213058D01*
X750304D01*
X750627Y212569D01*
X750816Y211943D01*
X750762Y211637D01*
X750391Y211081D01*
X750176Y210000D01*
X750391Y208919D01*
X750762Y208363D01*
X750914Y207500D01*
X750762Y206637D01*
X750391Y206081D01*
X750176Y205000D01*
X750391Y203919D01*
X750762Y203364D01*
X750914Y202500D01*
X750762Y201637D01*
X750391Y201081D01*
X750176Y200000D01*
X750391Y198919D01*
X750762Y198363D01*
X750914Y197500D01*
X750762Y196637D01*
X750391Y196081D01*
X750176Y195000D01*
X750391Y193919D01*
X750762Y193363D01*
X750914Y192500D01*
X750762Y191637D01*
X750391Y191081D01*
X750176Y190000D01*
X750391Y188919D01*
X750762Y188363D01*
X750914Y187500D01*
X750762Y186637D01*
X750391Y186081D01*
X750176Y185000D01*
X750391Y183919D01*
X750762Y183363D01*
X750914Y182500D01*
X750762Y181637D01*
X750391Y181081D01*
X750176Y180000D01*
X750391Y178919D01*
X750762Y178363D01*
X750914Y177500D01*
X750762Y176637D01*
X750391Y176081D01*
X750176Y175000D01*
X750391Y173919D01*
X750762Y173363D01*
X750914Y172500D01*
X750762Y171637D01*
X750391Y171081D01*
X750176Y170000D01*
X750391Y168919D01*
X750762Y168363D01*
X750914Y167500D01*
X750762Y166637D01*
X750391Y166081D01*
X750176Y165000D01*
X750391Y163919D01*
X750762Y163363D01*
X750914Y162500D01*
X750762Y161637D01*
X750391Y161081D01*
X750176Y160000D01*
X750391Y158919D01*
X750762Y158364D01*
X750914Y157500D01*
X750762Y156636D01*
X750391Y156081D01*
X750176Y155000D01*
X750391Y153919D01*
X750762Y153364D01*
X750914Y152500D01*
X750762Y151636D01*
X750391Y151081D01*
X750176Y150000D01*
X750309Y149330D01*
X749139Y148704D01*
X746609Y151233D01*
X745979Y151655D01*
X745236Y151802D01*
X659941D01*
X659163Y152938D01*
X659238Y153364D01*
X659609Y153919D01*
X659824Y155000D01*
X659614Y156057D01*
X659670Y156137D01*
X660550Y156959D01*
X660932Y156704D01*
X662305Y156431D01*
X663678Y156704D01*
X664843Y157482D01*
X665621Y158647D01*
X665894Y160020D01*
X665621Y161393D01*
X664843Y162558D01*
X663678Y163336D01*
X662305Y163609D01*
X660932Y163336D01*
X660598Y163113D01*
X659781Y163779D01*
X659623Y163989D01*
X659824Y165000D01*
X659609Y166081D01*
X659238Y166637D01*
X659086Y167500D01*
X659238Y168363D01*
X659609Y168919D01*
X659824Y170000D01*
X659609Y171081D01*
X659238Y171637D01*
X659086Y172500D01*
X659238Y173363D01*
X659609Y173919D01*
X659824Y175000D01*
X659609Y176081D01*
X659238Y176637D01*
X659086Y177500D01*
X659238Y178363D01*
X659609Y178919D01*
X659824Y180000D01*
X659609Y181081D01*
X659238Y181637D01*
X659086Y182500D01*
X659238Y183363D01*
X659609Y183919D01*
X659824Y185000D01*
X659609Y186081D01*
X659238Y186637D01*
X659086Y187500D01*
X659238Y188363D01*
X659609Y188919D01*
X659824Y190000D01*
X659609Y191081D01*
X659238Y191637D01*
X659184Y191943D01*
X659374Y192569D01*
X659696Y193058D01*
X698428D01*
X699171Y193206D01*
X699801Y193627D01*
X733595Y227420D01*
X737625D01*
X738010Y226150D01*
D02*
G37*
G36*
X561430Y146517D02*
Y131826D01*
X561577Y131083D01*
X561999Y130453D01*
X579576Y112875D01*
X579050Y111606D01*
X577135D01*
X575808Y111869D01*
X556273D01*
X555040Y111960D01*
Y117940D01*
X545000D01*
Y125560D01*
X555040D01*
Y131540D01*
X550009D01*
Y133858D01*
X549615Y135840D01*
X548493Y137521D01*
X546812Y138643D01*
X544830Y139038D01*
X489966D01*
X487984Y138643D01*
X486303Y137521D01*
X485181Y135840D01*
X484786Y133858D01*
Y131540D01*
X479960D01*
X479500Y132619D01*
Y140006D01*
X491724Y152230D01*
X503770D01*
Y155615D01*
X526230D01*
Y152230D01*
X543770D01*
Y162518D01*
X544943Y163004D01*
X561430Y146517D01*
D02*
G37*
G36*
X565494Y179282D02*
Y149743D01*
X564224Y149217D01*
X543807Y169634D01*
Y175135D01*
X543807Y175135D01*
X543770Y175323D01*
Y187770D01*
X542350D01*
X541270Y188230D01*
Y201846D01*
X542443Y202332D01*
X565494Y179282D01*
D02*
G37*
G36*
X862631Y162052D02*
X862074Y160706D01*
X861850Y159004D01*
X862074Y157302D01*
X862731Y155716D01*
X863776Y154354D01*
X865083Y153351D01*
X865186Y152665D01*
Y152643D01*
X865083Y151957D01*
X863776Y150954D01*
X862731Y149592D01*
X862074Y148006D01*
X861850Y146304D01*
X862005Y145127D01*
X858620Y141742D01*
X831594D01*
X831531Y142220D01*
X830597Y144475D01*
X829111Y146411D01*
X827175Y147897D01*
X824920Y148831D01*
X822500Y149150D01*
X820080Y148831D01*
X817825Y147897D01*
X815889Y146411D01*
X814403Y144475D01*
X813469Y142220D01*
X813406Y141742D01*
X803448D01*
X802962Y142916D01*
X815977Y155930D01*
X831770D01*
Y163258D01*
X861425D01*
X862631Y162052D01*
D02*
G37*
G36*
X732952Y144108D02*
X732841Y143551D01*
X732500Y142324D01*
X731419Y142109D01*
X730503Y141497D01*
X729497D01*
X728581Y142109D01*
X727500Y142324D01*
X726419Y142109D01*
X725503Y141497D01*
X724497D01*
X723581Y142109D01*
X722500Y142324D01*
X721419Y142109D01*
X720503Y141497D01*
X719497D01*
X718581Y142109D01*
X717500Y142324D01*
X716419Y142109D01*
X715503Y141497D01*
X714497D01*
X713581Y142109D01*
X712500Y142324D01*
X711419Y142109D01*
X710503Y141497D01*
X709497D01*
X708581Y142109D01*
X707500Y142324D01*
X706419Y142109D01*
X705503Y141497D01*
X704497D01*
X703581Y142109D01*
X702500Y142324D01*
X701419Y142109D01*
X700503Y141497D01*
X699497D01*
X698581Y142109D01*
X697500Y142324D01*
X696419Y142109D01*
X695503Y141497D01*
X694497D01*
X693581Y142109D01*
X692500Y142324D01*
X691419Y142109D01*
X690503Y141497D01*
X689497D01*
X688581Y142109D01*
X687500Y142324D01*
X686419Y142109D01*
X685503Y141497D01*
X684497D01*
X683581Y142109D01*
X682500Y142324D01*
X681419Y142109D01*
X680503Y141497D01*
X679497D01*
X678581Y142109D01*
X677500Y142324D01*
X677444Y142842D01*
X677476Y143002D01*
X677256Y144108D01*
X678177Y145378D01*
X732031D01*
X732952Y144108D01*
D02*
G37*
G36*
X380389Y154837D02*
X386099Y149127D01*
X386099Y149127D01*
X386729Y148706D01*
X387472Y148558D01*
X387730D01*
Y145980D01*
X395568D01*
Y138727D01*
X387377Y130535D01*
X386956Y129905D01*
X386808Y129162D01*
Y128105D01*
X382995D01*
X382540Y128014D01*
X381691Y128464D01*
X381270Y128802D01*
Y140270D01*
X374442D01*
Y149230D01*
X379020D01*
Y154599D01*
X380290Y154984D01*
X380389Y154837D01*
D02*
G37*
G36*
X640693Y147039D02*
Y145091D01*
X600650Y105049D01*
X599948Y105189D01*
X598575Y104916D01*
X597410Y104138D01*
X596686Y103055D01*
X596579Y102961D01*
X595277Y102668D01*
X565314Y132631D01*
Y134739D01*
X566584Y135265D01*
X579525Y122325D01*
X580155Y121903D01*
X580898Y121756D01*
X611632D01*
X612375Y121903D01*
X613005Y122325D01*
X638559Y147878D01*
X639599Y147968D01*
X640693Y147039D01*
D02*
G37*
G36*
X667492Y146744D02*
X666127Y145379D01*
X665706Y144749D01*
X665558Y144006D01*
Y141534D01*
X665503Y141497D01*
X664891Y140581D01*
X664676Y139500D01*
Y124500D01*
X664891Y123419D01*
X665503Y122503D01*
X666419Y121891D01*
X667500Y121676D01*
X668581Y121891D01*
X669137Y122262D01*
X669587Y121587D01*
X670924Y120694D01*
X672314Y120418D01*
X672673Y120113D01*
X673239Y119233D01*
X673073Y118770D01*
X668230Y118770D01*
X668040Y119961D01*
Y120040D01*
X662060D01*
Y110000D01*
X654440D01*
Y120040D01*
X648460D01*
Y115310D01*
X647478Y114504D01*
X646938Y114612D01*
X645069Y114240D01*
X644018Y113538D01*
X646938D01*
Y105918D01*
X644018D01*
X645069Y105216D01*
X646938Y104844D01*
X647478Y104952D01*
X648460Y104146D01*
X648460Y99960D01*
X647513Y99181D01*
X603977D01*
X603308Y100451D01*
X603537Y101600D01*
X603397Y102302D01*
X644008Y142914D01*
X644008Y142914D01*
X644429Y143544D01*
X644577Y144287D01*
X644577Y144287D01*
Y147176D01*
X657000D01*
X658081Y147391D01*
X658869Y147918D01*
X667005D01*
X667492Y146744D01*
D02*
G37*
G36*
X471730Y133924D02*
Y116375D01*
X454181D01*
X453695Y117548D01*
X470557Y134410D01*
X471730Y133924D01*
D02*
G37*
G36*
X340994Y105000D02*
X341230Y104902D01*
Y104730D01*
X341646D01*
X342832Y104239D01*
X344239Y102832D01*
X345000Y100995D01*
X345000Y100000D01*
X345000D01*
X345000Y50000D01*
Y49015D01*
X344616Y47083D01*
X343862Y45263D01*
X342767Y43625D01*
X341375Y42232D01*
X339737Y41138D01*
X337917Y40384D01*
X335985Y40000D01*
X295000D01*
X294015Y40000D01*
X292083Y40384D01*
X290263Y41138D01*
X288625Y42232D01*
X287232Y43625D01*
X286138Y45263D01*
X285384Y47083D01*
X285000Y49015D01*
X285000Y50000D01*
X283730Y50000D01*
X257040Y50000D01*
Y50690D01*
X249500D01*
Y54500D01*
X245690D01*
Y60040D01*
X241960D01*
Y52628D01*
X240787Y52142D01*
X240761Y52168D01*
X240000Y54005D01*
X240000Y55000D01*
X240000Y90000D01*
X240000Y90995D01*
X240761Y92832D01*
X242168Y94239D01*
X244005Y95000D01*
X245000Y95000D01*
X245000Y95000D01*
X265994D01*
X267832Y94239D01*
X268060Y94011D01*
Y92704D01*
X268207Y91960D01*
X268629Y91330D01*
X271416Y88543D01*
X272046Y88122D01*
X272460Y88039D01*
Y84560D01*
X292540D01*
Y87974D01*
X294960D01*
Y84560D01*
X315040D01*
Y89027D01*
X316203Y90190D01*
X317778Y90843D01*
X319157Y92222D01*
X319904Y94024D01*
X320000Y95000D01*
X320000Y95000D01*
X320000Y100000D01*
X320000Y100995D01*
X320761Y102832D01*
X322168Y104239D01*
X324005Y105000D01*
X325000Y105000D01*
X325000Y105000D01*
X340994Y105000D01*
D02*
G37*
G36*
X432777Y115000D02*
X432983Y114862D01*
X433720Y113730D01*
X433695Y113605D01*
Y109095D01*
X433832Y108406D01*
X434222Y107823D01*
X434806Y107432D01*
X435495Y107296D01*
X447005D01*
X447694Y107432D01*
X448278Y107823D01*
X448668Y108406D01*
X448805Y109095D01*
Y112658D01*
X451147Y115000D01*
X471730D01*
Y106608D01*
X472026Y105121D01*
X472868Y103861D01*
X475844Y100885D01*
X477104Y100043D01*
X478591Y99747D01*
X479960D01*
Y93460D01*
X486190D01*
Y103250D01*
X490000D01*
Y107060D01*
X500040D01*
Y113040D01*
X499961D01*
X498770Y113230D01*
Y115000D01*
X507832D01*
X508373Y114459D01*
X508036Y113119D01*
X507539Y113040D01*
X507460D01*
Y107060D01*
X517500D01*
X527540D01*
Y113040D01*
X527461D01*
X526964Y113119D01*
X526627Y114459D01*
X527168Y115000D01*
X536230D01*
Y113230D01*
X535039Y113040D01*
X534960D01*
Y107060D01*
X545000D01*
Y103250D01*
X548810D01*
Y93460D01*
X555040D01*
Y101510D01*
X574745D01*
X576072Y101247D01*
X578498D01*
X579311Y100434D01*
X580000Y96970D01*
X580000Y95000D01*
X580000D01*
X580000Y95000D01*
X580000Y60000D01*
X580048Y59020D01*
X580431Y57097D01*
X581181Y55286D01*
X582270Y53656D01*
X583656Y52270D01*
X585256Y51201D01*
X587033Y49423D01*
X588714Y48301D01*
X590696Y47906D01*
X631096D01*
X633078Y48301D01*
X634759Y49423D01*
X635335Y50000D01*
X734730Y50000D01*
Y41230D01*
X744237D01*
X744371Y40553D01*
X745213Y39293D01*
X748563Y35943D01*
X749823Y35101D01*
X751310Y34805D01*
X770578D01*
X772065Y35101D01*
X773325Y35943D01*
X774537Y37155D01*
X784040D01*
X784415Y37230D01*
X796270D01*
Y41115D01*
X802024D01*
X803511Y41411D01*
X804771Y42253D01*
X807747Y45229D01*
X808589Y46489D01*
X808885Y47976D01*
Y50000D01*
X815000D01*
X822500D01*
X823475Y50096D01*
X825278Y50843D01*
X826657Y52222D01*
X827404Y54025D01*
X827500Y55000D01*
Y70985D01*
X827884Y72917D01*
X828638Y74737D01*
X829733Y76375D01*
X831125Y77768D01*
X832763Y78862D01*
X834583Y79616D01*
X836515Y80000D01*
X855000Y80000D01*
X870000Y80000D01*
X870739Y80000D01*
X872188Y79712D01*
X873553Y79146D01*
X874781Y78326D01*
X875826Y77281D01*
X876646Y76053D01*
X877212Y74688D01*
X877500Y73239D01*
Y72500D01*
X877500D01*
X877500Y20000D01*
X877500Y19015D01*
X877116Y17083D01*
X876362Y15263D01*
X875267Y13625D01*
X873875Y12233D01*
X872237Y11138D01*
X870417Y10384D01*
X868485Y10000D01*
X867500Y10000D01*
X435000D01*
X433030Y10000D01*
X429166Y10769D01*
X425526Y12276D01*
X422251Y14465D01*
X419465Y17251D01*
X417276Y20526D01*
X415769Y24166D01*
X415000Y28030D01*
X415000Y30000D01*
Y57762D01*
X416270Y58730D01*
X432770D01*
Y76270D01*
X426192D01*
Y78513D01*
X431687Y84008D01*
X433695D01*
Y83695D01*
X433832Y83006D01*
X434222Y82423D01*
X434806Y82032D01*
X435495Y81896D01*
X447005D01*
X447694Y82032D01*
X448278Y82423D01*
X448668Y83006D01*
X448805Y83695D01*
Y88205D01*
X448668Y88894D01*
X448278Y89478D01*
X447694Y89868D01*
X447005Y90005D01*
X435495D01*
X434806Y89868D01*
X434222Y89478D01*
X433832Y88894D01*
X433695Y88205D01*
Y87892D01*
X430882D01*
X430139Y87745D01*
X429509Y87323D01*
X429509Y87323D01*
X424599Y82414D01*
X423613Y83223D01*
X424120Y83983D01*
X424492Y85852D01*
X424120Y87721D01*
X423418Y88772D01*
Y85852D01*
X415798D01*
Y89496D01*
X415720Y89515D01*
X415000Y89863D01*
Y101477D01*
X415576Y104375D01*
X416707Y107105D01*
X418349Y109562D01*
X420438Y111651D01*
X422895Y113293D01*
X425625Y114424D01*
X428523Y115000D01*
X430000D01*
X432777D01*
D02*
G37*
G36*
X92962Y95000D02*
X230000Y95000D01*
X230000Y95000D01*
X230000Y95000D01*
X230000D01*
X231171Y94927D01*
X232832Y94239D01*
X234239Y92832D01*
X235000Y90995D01*
X235000Y90000D01*
X235000Y70000D01*
X235000Y70000D01*
Y69005D01*
X234239Y67168D01*
X232832Y65761D01*
X230994Y65000D01*
X230000D01*
X157220Y65000D01*
X155081Y65886D01*
X152400Y66239D01*
X149719Y65886D01*
X147580Y65000D01*
X127500Y65000D01*
X127500Y65000D01*
X126524Y64904D01*
X124722Y64157D01*
X123343Y62778D01*
X122596Y60975D01*
X122500Y60000D01*
Y39005D01*
X121739Y37168D01*
X120332Y35761D01*
X118495Y35000D01*
X111072D01*
X110975Y35096D01*
X110855Y35072D01*
X110612Y35036D01*
X110368Y35012D01*
X110123Y35000D01*
X85000D01*
X84005Y35000D01*
X82168Y35761D01*
X80761Y37168D01*
X80000Y39005D01*
X80000Y40000D01*
Y82038D01*
X80000Y83315D01*
X80498Y85819D01*
X81475Y88178D01*
X82894Y90301D01*
X84699Y92106D01*
X86822Y93525D01*
X89181Y94502D01*
X91685Y95000D01*
X92962Y95000D01*
D02*
G37*
G36*
X703924Y90080D02*
Y82550D01*
X704072Y81807D01*
X704493Y81177D01*
X712113Y73557D01*
X712460Y73324D01*
Y71573D01*
X711478Y70767D01*
X710692Y70924D01*
X708823Y70552D01*
X707772Y69850D01*
X710692D01*
Y62230D01*
X707772D01*
X708823Y61528D01*
X710692Y61156D01*
X711478Y61313D01*
X712460Y60507D01*
Y55960D01*
X718690D01*
Y65750D01*
X722500D01*
Y69560D01*
X732540D01*
Y72988D01*
X739081D01*
Y59699D01*
X738258Y58770D01*
X734730D01*
Y51375D01*
X638369Y51375D01*
X637883Y52548D01*
X639222Y53887D01*
X640345Y55568D01*
X640740Y57550D01*
Y60946D01*
X643262D01*
X643948Y61082D01*
X644530Y61470D01*
X644918Y62052D01*
X645054Y62737D01*
Y68263D01*
X644918Y68948D01*
X644570Y69470D01*
X645445Y70055D01*
X646114Y71056D01*
X646141Y71190D01*
X637750D01*
Y78810D01*
X646141D01*
X646114Y78944D01*
X645445Y79945D01*
X644570Y80530D01*
X644918Y81052D01*
X645054Y81737D01*
Y82558D01*
X646469D01*
X650330Y78698D01*
Y69342D01*
X650478Y68599D01*
X650899Y67969D01*
X654741Y64127D01*
X655371Y63706D01*
X656114Y63558D01*
X659946D01*
Y62737D01*
X660082Y62052D01*
X660470Y61470D01*
X661052Y61082D01*
X661738Y60946D01*
X672763D01*
X673448Y61082D01*
X674030Y61470D01*
X674418Y62052D01*
X674554Y62737D01*
Y68263D01*
X674418Y68948D01*
X674030Y69530D01*
X673448Y69918D01*
X672763Y70054D01*
X661738D01*
X661052Y69918D01*
X660470Y69530D01*
X660082Y68948D01*
X659946Y68263D01*
Y67442D01*
X656919D01*
X654214Y70147D01*
Y79502D01*
X654066Y80245D01*
X653645Y80876D01*
X648648Y85873D01*
X648017Y86294D01*
X647274Y86442D01*
X645054D01*
Y87262D01*
X644918Y87948D01*
X644530Y88530D01*
X643948Y88918D01*
X643262Y89054D01*
X632238D01*
X631552Y88918D01*
X630970Y88530D01*
X630582Y87948D01*
X630446Y87262D01*
Y86442D01*
X628770D01*
Y92770D01*
X611230D01*
Y80176D01*
X610057Y79690D01*
X608770Y80977D01*
Y92770D01*
X603442D01*
X603283Y92964D01*
X603072Y94027D01*
X603780Y95297D01*
X698707D01*
X703924Y90080D01*
D02*
G37*
G36*
X363730Y104730D02*
Y104730D01*
X376653D01*
X377834Y104242D01*
X379242Y102834D01*
X379929Y101171D01*
X380000Y100000D01*
Y100000D01*
X380000D01*
X380000Y100000D01*
Y92500D01*
X380048Y92012D01*
X380421Y91111D01*
X380837Y90696D01*
X380807Y90393D01*
X380384Y89760D01*
X388750D01*
Y85950D01*
X392560D01*
Y80601D01*
X394505D01*
X395689Y80836D01*
X396693Y81507D01*
X397736Y81610D01*
X399602Y79744D01*
Y77540D01*
X395960D01*
Y71310D01*
X405750D01*
Y67500D01*
X409560D01*
Y57460D01*
X410000D01*
X410000Y45000D01*
X410000Y44005D01*
X409239Y42168D01*
X407832Y40761D01*
X406230Y40097D01*
X405000Y40000D01*
X360000Y40000D01*
X359005Y39998D01*
X357166Y40759D01*
X355758Y42166D01*
X354998Y44005D01*
X355000Y45000D01*
Y100000D01*
X355000Y100994D01*
X355761Y102832D01*
X357168Y104239D01*
X358354Y104730D01*
X358770D01*
Y104902D01*
X359005Y105000D01*
X360000Y105000D01*
X360000Y105000D01*
X363460Y105000D01*
X363730Y104730D01*
D02*
G37*
G36*
X354560Y103785D02*
X354593Y103460D01*
X354491Y103358D01*
X353730Y101521D01*
Y101247D01*
X353625Y100994D01*
X353625Y100000D01*
Y45002D01*
X353624Y44007D01*
X353728Y43754D01*
X353728Y43480D01*
X354488Y41641D01*
X354682Y41447D01*
X354786Y41194D01*
X356194Y39787D01*
X356447Y39682D01*
X356641Y39488D01*
X358480Y38728D01*
X358754Y38728D01*
X359007Y38624D01*
X360002Y38625D01*
X403419Y38625D01*
X404039Y37355D01*
X403758Y36994D01*
X255770D01*
Y39460D01*
X257040D01*
Y48625D01*
X283676Y48625D01*
X284036Y46815D01*
X284114Y46698D01*
Y46557D01*
X284868Y44737D01*
X284968Y44638D01*
X284995Y44500D01*
X286089Y42862D01*
X286206Y42783D01*
X286260Y42653D01*
X287653Y41260D01*
X287783Y41206D01*
X287862Y41090D01*
X289499Y39995D01*
X289638Y39968D01*
X289737Y39868D01*
X291557Y39114D01*
X291698D01*
X291815Y39036D01*
X293747Y38652D01*
X293885Y38679D01*
X294015Y38625D01*
X295000Y38625D01*
X335985D01*
X336115Y38679D01*
X336253Y38652D01*
X338185Y39036D01*
X338302Y39114D01*
X338443D01*
X340263Y39868D01*
X340362Y39968D01*
X340500Y39995D01*
X342138Y41090D01*
X342216Y41207D01*
X342347Y41260D01*
X343740Y42653D01*
X343793Y42783D01*
X343910Y42862D01*
X345005Y44500D01*
X345032Y44638D01*
X345132Y44737D01*
X345886Y46557D01*
Y46698D01*
X345964Y46815D01*
X346348Y48747D01*
X346321Y48885D01*
X346375Y49015D01*
Y50000D01*
X346375Y100000D01*
X346375Y100000D01*
X346375Y100995D01*
X346270Y101247D01*
Y101521D01*
X345509Y103358D01*
X345407Y103460D01*
X345440Y103785D01*
X345944Y104730D01*
X354056D01*
X354560Y103785D01*
D02*
G37*
%LPC*%
G36*
X603190Y331190D02*
X601711D01*
X601886Y330311D01*
X602557Y329307D01*
X603190Y328884D01*
Y331190D01*
D02*
G37*
G36*
X686810Y317032D02*
Y313810D01*
X687849D01*
Y314755D01*
X687614Y315939D01*
X686943Y316943D01*
X686810Y317032D01*
D02*
G37*
G36*
X628255Y314805D02*
X623745D01*
X623056Y314668D01*
X622473Y314277D01*
X622082Y313694D01*
X621945Y313005D01*
Y305995D01*
X622082Y305306D01*
X622473Y304722D01*
X623056Y304332D01*
X623745Y304195D01*
X628255D01*
X628944Y304332D01*
X629528Y304722D01*
X629918Y305306D01*
X630055Y305995D01*
Y313005D01*
X629918Y313694D01*
X629528Y314277D01*
X628944Y314668D01*
X628255Y314805D01*
D02*
G37*
G36*
X642690Y309190D02*
X636460D01*
Y303210D01*
X642690D01*
Y309190D01*
D02*
G37*
G36*
X489385Y228854D02*
X481615D01*
Y228040D01*
X477960D01*
Y222310D01*
X493040D01*
Y228040D01*
X489385D01*
Y228854D01*
D02*
G37*
G36*
X430540Y215040D02*
X425810D01*
Y208810D01*
X430540D01*
Y215040D01*
D02*
G37*
G36*
X394505Y104000D02*
X392560D01*
Y98650D01*
Y93301D01*
X394505D01*
X395478Y93494D01*
Y98806D01*
Y103806D01*
X394505Y104000D01*
D02*
G37*
G36*
X349440Y197540D02*
X343460D01*
Y192973D01*
X342478Y192167D01*
X341630Y192336D01*
X339761Y191964D01*
X338710Y191262D01*
X341630D01*
Y183642D01*
X338710D01*
X339761Y182940D01*
X341630Y182568D01*
X342478Y182737D01*
X343460Y181931D01*
Y177460D01*
X349440D01*
Y187500D01*
Y197540D01*
D02*
G37*
G36*
X363040D02*
X357060D01*
Y187500D01*
Y177460D01*
X363040D01*
Y177539D01*
X363230Y178730D01*
X364310Y178730D01*
X380270D01*
Y184469D01*
X381541D01*
X381659Y184390D01*
X383032Y184117D01*
X384405Y184390D01*
X385570Y185168D01*
X386348Y186333D01*
X386621Y187706D01*
X386348Y189079D01*
X385570Y190244D01*
X384405Y191022D01*
X383032Y191295D01*
X381659Y191022D01*
X381541Y190943D01*
X380270D01*
Y196270D01*
X363230Y196270D01*
X363040Y197461D01*
Y197540D01*
D02*
G37*
G36*
X262040Y91790D02*
X256560D01*
Y83810D01*
X262040D01*
Y91790D01*
D02*
G37*
G36*
X248940D02*
X243460D01*
Y83810D01*
X248940D01*
Y91790D01*
D02*
G37*
G36*
X336310Y100151D02*
Y76310D01*
X342663D01*
Y93750D01*
X342175Y96204D01*
X340785Y98285D01*
X338704Y99675D01*
X336310Y100151D01*
D02*
G37*
G36*
X328690D02*
X326296Y99675D01*
X324215Y98285D01*
X322825Y96204D01*
X322337Y93750D01*
Y76310D01*
X328690D01*
Y100151D01*
D02*
G37*
G36*
X315040Y76940D02*
X308810D01*
Y70960D01*
X315040D01*
Y76940D01*
D02*
G37*
G36*
X301190D02*
X294960D01*
Y70960D01*
X301190D01*
Y76940D01*
D02*
G37*
G36*
X292540D02*
X286310D01*
Y70960D01*
X292540D01*
Y76940D01*
D02*
G37*
G36*
X278690D02*
X272460D01*
Y70960D01*
X278690D01*
Y76940D01*
D02*
G37*
G36*
X262040Y76190D02*
X256560D01*
Y68210D01*
X262040D01*
Y76190D01*
D02*
G37*
G36*
X248940D02*
X243460D01*
Y68210D01*
X248940D01*
Y76190D01*
D02*
G37*
G36*
X257040Y60040D02*
X253310D01*
Y58310D01*
X257040D01*
Y60040D01*
D02*
G37*
G36*
X342663Y68690D02*
X336310D01*
Y44849D01*
X338704Y45325D01*
X340785Y46715D01*
X342175Y48796D01*
X342663Y51250D01*
Y68690D01*
D02*
G37*
G36*
X328690D02*
X322337D01*
Y51250D01*
X322825Y48796D01*
X324215Y46715D01*
X326296Y45325D01*
X328690Y44849D01*
Y68690D01*
D02*
G37*
G36*
X447005Y104000D02*
X445060D01*
Y102460D01*
X449616D01*
X449193Y103093D01*
X448189Y103764D01*
X447005Y104000D01*
D02*
G37*
G36*
X437440D02*
X435495D01*
X434311Y103764D01*
X433307Y103093D01*
X432884Y102460D01*
X437440D01*
Y104000D01*
D02*
G37*
G36*
X541190Y99440D02*
X534960D01*
Y93460D01*
X541190D01*
Y99440D01*
D02*
G37*
G36*
X527540D02*
X521310D01*
Y93460D01*
X527540D01*
Y99440D01*
D02*
G37*
G36*
X513690D02*
X507460D01*
Y93460D01*
X513690D01*
Y99440D01*
D02*
G37*
G36*
X500040D02*
X493810D01*
Y93460D01*
X500040D01*
Y99440D01*
D02*
G37*
G36*
X449616Y94840D02*
X445060D01*
Y93301D01*
X447005D01*
X448189Y93536D01*
X449193Y94207D01*
X449616Y94840D01*
D02*
G37*
G36*
X437440D02*
X432884D01*
X433307Y94207D01*
X434311Y93536D01*
X435495Y93301D01*
X437440D01*
Y94840D01*
D02*
G37*
G36*
X859140Y67420D02*
X851410D01*
Y59690D01*
X859140D01*
Y67420D01*
D02*
G37*
G36*
X843790D02*
X836060D01*
Y59690D01*
X843790D01*
Y67420D01*
D02*
G37*
G36*
X859140Y52070D02*
X851410D01*
Y44340D01*
X859140D01*
Y52070D01*
D02*
G37*
G36*
X843790D02*
X836060D01*
Y44340D01*
X843790D01*
Y52070D01*
D02*
G37*
G36*
X863810Y38044D02*
Y33810D01*
X868044D01*
X867765Y34483D01*
X866340Y36340D01*
X864483Y37765D01*
X863810Y38044D01*
D02*
G37*
G36*
X856190D02*
X855517Y37765D01*
X853660Y36340D01*
X852235Y34483D01*
X851956Y33810D01*
X856190D01*
Y38044D01*
D02*
G37*
G36*
X833810D02*
Y33810D01*
X838044D01*
X837765Y34483D01*
X836340Y36340D01*
X834483Y37765D01*
X833810Y38044D01*
D02*
G37*
G36*
X826190D02*
X825517Y37765D01*
X823660Y36340D01*
X822235Y34483D01*
X821956Y33810D01*
X826190D01*
Y38044D01*
D02*
G37*
G36*
X793810Y30544D02*
Y26310D01*
X798044D01*
X797765Y26983D01*
X796340Y28840D01*
X794483Y30265D01*
X793810Y30544D01*
D02*
G37*
G36*
X786190D02*
X785517Y30265D01*
X783660Y28840D01*
X782235Y26983D01*
X781956Y26310D01*
X786190D01*
Y30544D01*
D02*
G37*
G36*
X763810D02*
Y26310D01*
X768044D01*
X767765Y26983D01*
X766340Y28840D01*
X764483Y30265D01*
X763810Y30544D01*
D02*
G37*
G36*
X756190D02*
X755517Y30265D01*
X753660Y28840D01*
X752235Y26983D01*
X751956Y26310D01*
X756190D01*
Y30544D01*
D02*
G37*
G36*
X733810D02*
Y26310D01*
X738044D01*
X737765Y26983D01*
X736340Y28840D01*
X734483Y30265D01*
X733810Y30544D01*
D02*
G37*
G36*
X726190D02*
X725517Y30265D01*
X723660Y28840D01*
X722235Y26983D01*
X721956Y26310D01*
X726190D01*
Y30544D01*
D02*
G37*
G36*
X703810D02*
Y26310D01*
X708044D01*
X707765Y26983D01*
X706340Y28840D01*
X704483Y30265D01*
X703810Y30544D01*
D02*
G37*
G36*
X696190D02*
X695517Y30265D01*
X693660Y28840D01*
X692235Y26983D01*
X691956Y26310D01*
X696190D01*
Y30544D01*
D02*
G37*
G36*
X673810D02*
Y26310D01*
X678044D01*
X677765Y26983D01*
X676340Y28840D01*
X674483Y30265D01*
X673810Y30544D01*
D02*
G37*
G36*
X666190D02*
X665517Y30265D01*
X663660Y28840D01*
X662235Y26983D01*
X661956Y26310D01*
X666190D01*
Y30544D01*
D02*
G37*
G36*
X643810D02*
Y26310D01*
X648044D01*
X647765Y26983D01*
X646340Y28840D01*
X644483Y30265D01*
X643810Y30544D01*
D02*
G37*
G36*
X636190D02*
X635517Y30265D01*
X633660Y28840D01*
X632235Y26983D01*
X631956Y26310D01*
X636190D01*
Y30544D01*
D02*
G37*
G36*
X613810D02*
Y26310D01*
X618044D01*
X617765Y26983D01*
X616340Y28840D01*
X614483Y30265D01*
X613810Y30544D01*
D02*
G37*
G36*
X606190D02*
X605517Y30265D01*
X603660Y28840D01*
X602235Y26983D01*
X601956Y26310D01*
X606190D01*
Y30544D01*
D02*
G37*
G36*
X583810D02*
Y26310D01*
X588044D01*
X587765Y26983D01*
X586340Y28840D01*
X584483Y30265D01*
X583810Y30544D01*
D02*
G37*
G36*
X576190D02*
X575517Y30265D01*
X573660Y28840D01*
X572235Y26983D01*
X571956Y26310D01*
X576190D01*
Y30544D01*
D02*
G37*
G36*
X553810D02*
Y26310D01*
X558044D01*
X557765Y26983D01*
X556340Y28840D01*
X554483Y30265D01*
X553810Y30544D01*
D02*
G37*
G36*
X546190D02*
X545517Y30265D01*
X543660Y28840D01*
X542235Y26983D01*
X541956Y26310D01*
X546190D01*
Y30544D01*
D02*
G37*
G36*
X523810D02*
Y26310D01*
X528044D01*
X527765Y26983D01*
X526340Y28840D01*
X524483Y30265D01*
X523810Y30544D01*
D02*
G37*
G36*
X516190D02*
X515517Y30265D01*
X513660Y28840D01*
X512235Y26983D01*
X511956Y26310D01*
X516190D01*
Y30544D01*
D02*
G37*
G36*
X493810D02*
Y26310D01*
X498044D01*
X497765Y26983D01*
X496340Y28840D01*
X494483Y30265D01*
X493810Y30544D01*
D02*
G37*
G36*
X486190D02*
X485517Y30265D01*
X483660Y28840D01*
X482235Y26983D01*
X481956Y26310D01*
X486190D01*
Y30544D01*
D02*
G37*
G36*
X463810D02*
Y26310D01*
X468044D01*
X467765Y26983D01*
X466340Y28840D01*
X464483Y30265D01*
X463810Y30544D01*
D02*
G37*
G36*
X456190D02*
X455517Y30265D01*
X453660Y28840D01*
X452235Y26983D01*
X451956Y26310D01*
X456190D01*
Y30544D01*
D02*
G37*
G36*
X868044Y26190D02*
X863810D01*
Y21956D01*
X864483Y22235D01*
X866340Y23660D01*
X867765Y25517D01*
X868044Y26190D01*
D02*
G37*
G36*
X856190D02*
X851956D01*
X852235Y25517D01*
X853660Y23660D01*
X855517Y22235D01*
X856190Y21956D01*
Y26190D01*
D02*
G37*
G36*
X838044D02*
X833810D01*
Y21956D01*
X834483Y22235D01*
X836340Y23660D01*
X837765Y25517D01*
X838044Y26190D01*
D02*
G37*
G36*
X826190D02*
X821956D01*
X822235Y25517D01*
X823660Y23660D01*
X825517Y22235D01*
X826190Y21956D01*
Y26190D01*
D02*
G37*
G36*
X798044Y18690D02*
X793810D01*
Y14456D01*
X794483Y14735D01*
X796340Y16160D01*
X797765Y18017D01*
X798044Y18690D01*
D02*
G37*
G36*
X786190D02*
X781956D01*
X782235Y18017D01*
X783660Y16160D01*
X785517Y14735D01*
X786190Y14456D01*
Y18690D01*
D02*
G37*
G36*
X768044D02*
X763810D01*
Y14456D01*
X764483Y14735D01*
X766340Y16160D01*
X767765Y18017D01*
X768044Y18690D01*
D02*
G37*
G36*
X756190D02*
X751956D01*
X752235Y18017D01*
X753660Y16160D01*
X755517Y14735D01*
X756190Y14456D01*
Y18690D01*
D02*
G37*
G36*
X738044D02*
X733810D01*
Y14456D01*
X734483Y14735D01*
X736340Y16160D01*
X737765Y18017D01*
X738044Y18690D01*
D02*
G37*
G36*
X726190D02*
X721956D01*
X722235Y18017D01*
X723660Y16160D01*
X725517Y14735D01*
X726190Y14456D01*
Y18690D01*
D02*
G37*
G36*
X708044D02*
X703810D01*
Y14456D01*
X704483Y14735D01*
X706340Y16160D01*
X707765Y18017D01*
X708044Y18690D01*
D02*
G37*
G36*
X696190D02*
X691956D01*
X692235Y18017D01*
X693660Y16160D01*
X695517Y14735D01*
X696190Y14456D01*
Y18690D01*
D02*
G37*
G36*
X678044D02*
X673810D01*
Y14456D01*
X674483Y14735D01*
X676340Y16160D01*
X677765Y18017D01*
X678044Y18690D01*
D02*
G37*
G36*
X666190D02*
X661956D01*
X662235Y18017D01*
X663660Y16160D01*
X665517Y14735D01*
X666190Y14456D01*
Y18690D01*
D02*
G37*
G36*
X648044D02*
X643810D01*
Y14456D01*
X644483Y14735D01*
X646340Y16160D01*
X647765Y18017D01*
X648044Y18690D01*
D02*
G37*
G36*
X636190D02*
X631956D01*
X632235Y18017D01*
X633660Y16160D01*
X635517Y14735D01*
X636190Y14456D01*
Y18690D01*
D02*
G37*
G36*
X618044D02*
X613810D01*
Y14456D01*
X614483Y14735D01*
X616340Y16160D01*
X617765Y18017D01*
X618044Y18690D01*
D02*
G37*
G36*
X606190D02*
X601956D01*
X602235Y18017D01*
X603660Y16160D01*
X605517Y14735D01*
X606190Y14456D01*
Y18690D01*
D02*
G37*
G36*
X588044D02*
X583810D01*
Y14456D01*
X584483Y14735D01*
X586340Y16160D01*
X587765Y18017D01*
X588044Y18690D01*
D02*
G37*
G36*
X576190D02*
X571956D01*
X572235Y18017D01*
X573660Y16160D01*
X575517Y14735D01*
X576190Y14456D01*
Y18690D01*
D02*
G37*
G36*
X558044D02*
X553810D01*
Y14456D01*
X554483Y14735D01*
X556340Y16160D01*
X557765Y18017D01*
X558044Y18690D01*
D02*
G37*
G36*
X546190D02*
X541956D01*
X542235Y18017D01*
X543660Y16160D01*
X545517Y14735D01*
X546190Y14456D01*
Y18690D01*
D02*
G37*
G36*
X528044D02*
X523810D01*
Y14456D01*
X524483Y14735D01*
X526340Y16160D01*
X527765Y18017D01*
X528044Y18690D01*
D02*
G37*
G36*
X516190D02*
X511956D01*
X512235Y18017D01*
X513660Y16160D01*
X515517Y14735D01*
X516190Y14456D01*
Y18690D01*
D02*
G37*
G36*
X498044D02*
X493810D01*
Y14456D01*
X494483Y14735D01*
X496340Y16160D01*
X497765Y18017D01*
X498044Y18690D01*
D02*
G37*
G36*
X486190D02*
X481956D01*
X482235Y18017D01*
X483660Y16160D01*
X485517Y14735D01*
X486190Y14456D01*
Y18690D01*
D02*
G37*
G36*
X468044D02*
X463810D01*
Y14456D01*
X464483Y14735D01*
X466340Y16160D01*
X467765Y18017D01*
X468044Y18690D01*
D02*
G37*
G36*
X456190D02*
X451956D01*
X452235Y18017D01*
X453660Y16160D01*
X455517Y14735D01*
X456190Y14456D01*
Y18690D01*
D02*
G37*
G36*
X231540Y91790D02*
X226060D01*
Y83810D01*
X231540D01*
Y91790D01*
D02*
G37*
G36*
X218440D02*
X212960D01*
Y83810D01*
X218440D01*
Y91790D01*
D02*
G37*
G36*
X231540Y76190D02*
X226060D01*
Y68210D01*
X231540D01*
Y76190D01*
D02*
G37*
G36*
X218440D02*
X212960D01*
Y68210D01*
X218440D01*
Y76190D01*
D02*
G37*
G36*
X113140Y67420D02*
X105410D01*
Y59690D01*
X113140D01*
Y67420D01*
D02*
G37*
G36*
X97790D02*
X90060D01*
Y59690D01*
X97790D01*
Y67420D01*
D02*
G37*
G36*
X113140Y52070D02*
X105410D01*
Y44340D01*
X113140D01*
Y52070D01*
D02*
G37*
G36*
X97790D02*
X90060D01*
Y44340D01*
X97790D01*
Y52070D01*
D02*
G37*
G36*
X696270Y92770D02*
X678730D01*
Y88260D01*
X674210D01*
X674030Y88530D01*
X673448Y88918D01*
X672763Y89054D01*
X661738D01*
X661052Y88918D01*
X660470Y88530D01*
X660082Y87948D01*
X659946Y87262D01*
Y81737D01*
X660082Y81052D01*
X660470Y80470D01*
X661052Y80082D01*
X661738Y79946D01*
X672763D01*
X673448Y80082D01*
X674030Y80470D01*
X674043Y80490D01*
X678730D01*
X678730Y75730D01*
X677539Y75540D01*
X677460D01*
Y69560D01*
X687500D01*
Y65750D01*
X691310D01*
Y55960D01*
X697540D01*
Y60447D01*
X698522Y61253D01*
X699008Y61156D01*
X700877Y61528D01*
X701928Y62230D01*
X699008D01*
Y69850D01*
X701928D01*
X700877Y70552D01*
X699008Y70924D01*
X698522Y70827D01*
X697540Y71633D01*
Y75540D01*
X697461D01*
X696270Y75730D01*
X696270Y76810D01*
Y80443D01*
X698246D01*
X699733Y80739D01*
X700993Y81581D01*
X701835Y82841D01*
X702131Y84328D01*
X701835Y85815D01*
X700993Y87075D01*
X699733Y87917D01*
X698246Y88213D01*
X696270D01*
Y92770D01*
D02*
G37*
G36*
X732540Y61940D02*
X726310D01*
Y55960D01*
X732540D01*
Y61940D01*
D02*
G37*
G36*
X683690D02*
X677460D01*
Y55960D01*
X683690D01*
Y61940D01*
D02*
G37*
G36*
X384940Y82140D02*
X380384D01*
X380807Y81507D01*
X381811Y80836D01*
X382995Y80601D01*
X384940D01*
Y82140D01*
D02*
G37*
G36*
X371310Y100151D02*
Y76310D01*
X377663D01*
Y93750D01*
X377175Y96204D01*
X375785Y98285D01*
X373704Y99675D01*
X371310Y100151D01*
D02*
G37*
G36*
X363690D02*
X361296Y99675D01*
X359215Y98285D01*
X357825Y96204D01*
X357337Y93750D01*
Y76310D01*
X363690D01*
Y100151D01*
D02*
G37*
G36*
X401940Y63690D02*
X395960D01*
Y57460D01*
X401940D01*
Y63690D01*
D02*
G37*
G36*
X377663Y68690D02*
X371310D01*
Y44849D01*
X373704Y45325D01*
X375785Y46715D01*
X377175Y48796D01*
X377663Y51250D01*
Y68690D01*
D02*
G37*
G36*
X363690D02*
X357337D01*
Y51250D01*
X357825Y48796D01*
X359215Y46715D01*
X361296Y45325D01*
X363690Y44849D01*
Y68690D01*
D02*
G37*
%LPD*%
G36*
X948457Y365652D02*
X947955Y364997D01*
X947298Y363411D01*
X947074Y361709D01*
X947298Y360007D01*
X947955Y358421D01*
X949000Y357059D01*
X949216Y356893D01*
X949129Y355359D01*
X948094Y354565D01*
X946845Y352938D01*
X946796Y352819D01*
X953650D01*
Y345199D01*
X946796D01*
X946845Y345080D01*
X948088Y343461D01*
X948301Y343172D01*
Y342146D01*
X948088Y341857D01*
X946845Y340238D01*
X946796Y340119D01*
X953650D01*
Y332499D01*
X946796D01*
X946845Y332380D01*
X948094Y330753D01*
X949129Y329959D01*
X949216Y328425D01*
X949000Y328259D01*
X947955Y326897D01*
X947298Y325311D01*
X947074Y323609D01*
X947298Y321907D01*
X947955Y320321D01*
X949000Y318959D01*
X949216Y318793D01*
X949129Y317259D01*
X948094Y316465D01*
X946845Y314838D01*
X946796Y314719D01*
X953650D01*
Y307099D01*
X946796D01*
X946845Y306980D01*
X945813Y306300D01*
X940740Y311373D01*
X940110Y311794D01*
X939366Y311942D01*
X930270D01*
Y318730D01*
Y336230D01*
Y353730D01*
Y360558D01*
X939307D01*
X940051Y360706D01*
X940681Y361127D01*
X946476Y366922D01*
X947831D01*
X948457Y365652D01*
D02*
G37*
D15*
X814690Y82690D02*
Y94690D01*
X814500Y82500D02*
X814690Y82690D01*
Y94690D02*
X815000Y95000D01*
X606806Y200152D02*
X608348D01*
X609500Y199000D01*
X576072Y106426D02*
X580644D01*
X548440Y106690D02*
X575808D01*
X576072Y106426D01*
X586232Y100838D02*
Y100838D01*
Y57550D02*
Y100838D01*
X580644Y106426D02*
X586232Y100838D01*
X545000Y103250D02*
X548440Y106690D01*
X586232Y57550D02*
X590696Y53086D01*
X635560Y57550D02*
Y64940D01*
X631096Y53086D02*
X635560Y57550D01*
X590696Y53086D02*
X631096D01*
X636120Y65500D02*
X637750D01*
X635560Y64940D02*
X636120Y65500D01*
X517398Y133858D02*
X531114D01*
X544830D01*
X503682D02*
X517398D01*
X489966D02*
X503682D01*
X544830Y121920D02*
X545000Y121750D01*
X544830Y121920D02*
Y133858D01*
X517398Y121852D02*
X517500Y121750D01*
X517398Y121852D02*
Y133858D01*
X489966Y121784D02*
X490000Y121750D01*
X489966Y121784D02*
Y133858D01*
D16*
X787500Y65500D02*
D03*
Y44500D02*
D03*
X600000Y85500D02*
D03*
Y64500D02*
D03*
X620000D02*
D03*
Y85500D02*
D03*
X535000Y159500D02*
D03*
Y180500D02*
D03*
X495000Y159500D02*
D03*
Y180500D02*
D03*
X627500Y178000D02*
D03*
Y157000D02*
D03*
X607500Y178000D02*
D03*
Y157000D02*
D03*
D17*
X960500Y112500D02*
D03*
X939500D02*
D03*
X531000Y352250D02*
D03*
X552000D02*
D03*
X621000D02*
D03*
X642000D02*
D03*
X711000D02*
D03*
X732000D02*
D03*
X801000D02*
D03*
X822000D02*
D03*
X640500Y270000D02*
D03*
X619500D02*
D03*
X525500Y237500D02*
D03*
X504500D02*
D03*
X422000Y205000D02*
D03*
X443000D02*
D03*
X422000Y185000D02*
D03*
X443000D02*
D03*
X443000Y162500D02*
D03*
X422000D02*
D03*
X371750Y158000D02*
D03*
X350750D02*
D03*
X923000Y310000D02*
D03*
X902000D02*
D03*
X923000Y327500D02*
D03*
X902000D02*
D03*
X923000Y345000D02*
D03*
X902000D02*
D03*
X923000Y362500D02*
D03*
X902000D02*
D03*
D18*
X943650Y130000D02*
D03*
X921350D02*
D03*
D19*
X805000Y102500D02*
D03*
X814500Y82500D02*
D03*
X795500D02*
D03*
D20*
X748250Y110000D02*
D03*
X766750D02*
D03*
X708250D02*
D03*
X726750D02*
D03*
X676750D02*
D03*
X658250D02*
D03*
X743250Y50000D02*
D03*
X761750D02*
D03*
X595750Y352250D02*
D03*
X577250D02*
D03*
X685750D02*
D03*
X667250D02*
D03*
X775750D02*
D03*
X757250D02*
D03*
X884250Y235000D02*
D03*
X865750D02*
D03*
X764250Y270000D02*
D03*
X745750D02*
D03*
X708250D02*
D03*
X726750D02*
D03*
X660750D02*
D03*
X679250D02*
D03*
X608250Y240000D02*
D03*
X626750D02*
D03*
X606750Y137500D02*
D03*
X588250D02*
D03*
X405750Y67500D02*
D03*
X424250D02*
D03*
X246750Y145000D02*
D03*
X228250D02*
D03*
X371750Y187500D02*
D03*
X353250D02*
D03*
X441750Y142500D02*
D03*
X423250D02*
D03*
X228250Y15000D02*
D03*
X246750D02*
D03*
X865750Y180000D02*
D03*
X884250D02*
D03*
D21*
X743000Y66747D02*
D03*
D22*
X752500D02*
D03*
X762000D02*
D03*
Y88253D02*
D03*
X743000D02*
D03*
D23*
X722500Y84250D02*
D03*
Y65750D02*
D03*
X687500D02*
D03*
Y84250D02*
D03*
X782500Y158250D02*
D03*
Y176750D02*
D03*
Y216750D02*
D03*
Y198250D02*
D03*
X592500Y200750D02*
D03*
Y219250D02*
D03*
X587500Y158250D02*
D03*
Y176750D02*
D03*
X305000Y80750D02*
D03*
Y99250D02*
D03*
X282500Y80750D02*
D03*
Y99250D02*
D03*
X350000Y113250D02*
D03*
Y131750D02*
D03*
X372500Y113250D02*
D03*
Y131750D02*
D03*
X545000Y103250D02*
D03*
Y121750D02*
D03*
X517500Y103250D02*
D03*
Y121750D02*
D03*
X490000Y103250D02*
D03*
Y121750D02*
D03*
X826500Y331500D02*
D03*
Y313000D02*
D03*
X736500Y331500D02*
D03*
Y313000D02*
D03*
X646500Y331500D02*
D03*
Y313000D02*
D03*
X556500Y331500D02*
D03*
Y313000D02*
D03*
D24*
X637750Y84500D02*
D03*
Y75000D02*
D03*
Y65500D02*
D03*
X667250D02*
D03*
Y84500D02*
D03*
X252250Y122000D02*
D03*
Y103000D02*
D03*
X222750D02*
D03*
Y112500D02*
D03*
Y122000D02*
D03*
D25*
X690950Y462010D02*
D03*
X738950D02*
D03*
X690950Y382010D02*
D03*
X738950Y382010D02*
D03*
X780950Y462010D02*
D03*
X828950D02*
D03*
X780950Y382010D02*
D03*
X828950Y382010D02*
D03*
X600950Y462010D02*
D03*
X648950D02*
D03*
X600950Y382010D02*
D03*
X648950Y382010D02*
D03*
X510950Y462010D02*
D03*
X558950D02*
D03*
X510950Y382010D02*
D03*
X558950Y382010D02*
D03*
D26*
X927250Y175500D02*
D03*
Y167500D02*
D03*
Y224500D02*
D03*
Y232500D02*
D03*
D27*
Y192500D02*
D03*
Y187500D02*
D03*
Y182500D02*
D03*
Y207500D02*
D03*
Y212500D02*
D03*
Y217500D02*
D03*
Y202500D02*
D03*
Y197500D02*
D03*
D28*
X367500Y72500D02*
D03*
X332500D02*
D03*
D29*
X625500Y199000D02*
D03*
Y221000D02*
D03*
X609500Y199000D02*
D03*
Y221000D02*
D03*
D30*
X225500Y35500D02*
D03*
Y54500D02*
D03*
X249500D02*
D03*
Y45000D02*
D03*
Y35500D02*
D03*
D31*
X897000Y197500D02*
D03*
Y202500D02*
D03*
Y207500D02*
D03*
Y212500D02*
D03*
Y217500D02*
D03*
X853000Y197500D02*
D03*
Y202500D02*
D03*
Y207500D02*
D03*
Y212500D02*
D03*
Y217500D02*
D03*
D32*
X404000Y169500D02*
D03*
X397500D02*
D03*
X391000D02*
D03*
Y150500D02*
D03*
X397500D02*
D03*
X404000D02*
D03*
D33*
X388750Y124050D02*
D03*
Y111350D02*
D03*
Y98650D02*
D03*
Y85950D02*
D03*
X441250Y124050D02*
D03*
Y111350D02*
D03*
Y98650D02*
D03*
Y85950D02*
D03*
D34*
X536000Y335000D02*
D03*
X526500D02*
D03*
X517000D02*
D03*
Y309500D02*
D03*
X536000D02*
D03*
X626000Y335000D02*
D03*
X616500D02*
D03*
X607000D02*
D03*
Y309500D02*
D03*
X626000D02*
D03*
X716000Y335000D02*
D03*
X706500D02*
D03*
X697000D02*
D03*
Y309500D02*
D03*
X716000D02*
D03*
X806000Y335000D02*
D03*
X796500D02*
D03*
X787000D02*
D03*
Y309500D02*
D03*
X806000D02*
D03*
D35*
X593000Y334500D02*
D03*
X586500D02*
D03*
X580000D02*
D03*
Y310000D02*
D03*
X593000D02*
D03*
X670000Y310000D02*
D03*
X676500D02*
D03*
X683000D02*
D03*
Y334500D02*
D03*
X670000D02*
D03*
X760000Y310000D02*
D03*
X766500D02*
D03*
X773000D02*
D03*
Y334500D02*
D03*
X760000D02*
D03*
D36*
X649500Y225000D02*
D03*
Y220000D02*
D03*
Y215000D02*
D03*
Y210000D02*
D03*
Y205000D02*
D03*
Y200000D02*
D03*
Y195000D02*
D03*
Y190000D02*
D03*
Y185000D02*
D03*
Y180000D02*
D03*
Y175000D02*
D03*
Y170000D02*
D03*
Y165000D02*
D03*
Y160000D02*
D03*
Y155000D02*
D03*
Y150000D02*
D03*
X760500D02*
D03*
Y155000D02*
D03*
Y160000D02*
D03*
Y165000D02*
D03*
Y170000D02*
D03*
Y175000D02*
D03*
Y180000D02*
D03*
Y185000D02*
D03*
Y190000D02*
D03*
Y195000D02*
D03*
Y200000D02*
D03*
Y205000D02*
D03*
Y210000D02*
D03*
Y215000D02*
D03*
Y220000D02*
D03*
Y225000D02*
D03*
D37*
X667500Y132000D02*
D03*
X672500D02*
D03*
X677500D02*
D03*
X682500D02*
D03*
X687500D02*
D03*
X692500D02*
D03*
X697500D02*
D03*
X702500D02*
D03*
X707500D02*
D03*
X712500D02*
D03*
X717500D02*
D03*
X722500D02*
D03*
X727500D02*
D03*
X732500D02*
D03*
X737500D02*
D03*
X742500D02*
D03*
Y243000D02*
D03*
X737500D02*
D03*
X732500D02*
D03*
X727500D02*
D03*
X722500D02*
D03*
X717500D02*
D03*
X712500D02*
D03*
X707500D02*
D03*
X702500D02*
D03*
X697500D02*
D03*
X692500D02*
D03*
X687500D02*
D03*
X682500D02*
D03*
X677500D02*
D03*
X672500D02*
D03*
X667500D02*
D03*
D38*
X222250Y80000D02*
D03*
X252750D02*
D03*
D39*
X544500Y218500D02*
D03*
X535000Y196500D02*
D03*
X525500Y218500D02*
D03*
X504500D02*
D03*
X495000Y196500D02*
D03*
X485500Y218500D02*
D03*
D74*
X812500Y110000D02*
X901350D01*
X806460Y104460D02*
X806960D01*
X805000Y92000D02*
Y103000D01*
X901350Y110000D02*
X919740Y128390D01*
X805000Y103000D02*
X806460Y104460D01*
X806960D02*
X812500Y110000D01*
X751310Y38690D02*
X770578D01*
X747960Y42040D02*
X751310Y38690D01*
X743109Y50141D02*
X747960Y45290D01*
Y42040D02*
Y45290D01*
X770578Y38690D02*
X772928Y41040D01*
X784040D02*
X788000Y45000D01*
X925110Y128390D02*
X939500Y114000D01*
Y112500D02*
Y114000D01*
X921350Y129000D02*
Y130000D01*
X743109Y50141D02*
Y66638D01*
X743000Y66747D02*
X743109Y66638D01*
X772928Y41040D02*
X784040D01*
X805000Y47976D02*
Y72500D01*
X802024Y45000D02*
X805000Y47976D01*
X788000Y45000D02*
X802024D01*
X795500Y82000D02*
X805000Y72500D01*
X795500Y82000D02*
Y82500D01*
X796960Y84460D02*
X797460D01*
X795500Y83000D02*
X796960Y84460D01*
X795500Y82500D02*
Y83000D01*
X797460Y84460D02*
X805000Y92000D01*
X920740Y128390D02*
X921350Y129000D01*
X919740Y128390D02*
X920740D01*
X921960D02*
X925110D01*
X921350Y129000D02*
X921960Y128390D01*
X950710Y173489D02*
X953489D01*
X962500Y182500D01*
Y242500D01*
X952500Y252500D02*
X962500Y242500D01*
X927741Y252500D02*
X952500D01*
X916190Y240949D02*
X927741Y252500D01*
X916190Y227922D02*
Y240949D01*
Y227922D02*
X919152Y224960D01*
X926790D01*
X927250Y224500D01*
X945039Y179160D02*
X950710Y173489D01*
X938361Y179160D02*
X945039D01*
X950710Y149255D02*
Y173489D01*
X943650Y142195D02*
X950710Y149255D01*
X943650Y130000D02*
Y142195D01*
X935161Y175960D02*
X938361Y179160D01*
X927250Y175500D02*
X927710Y175960D01*
X935161D01*
X241046Y44958D02*
X248950D01*
X249204Y44704D01*
X225500Y47296D02*
Y54500D01*
X736428Y312928D02*
X736500Y313000D01*
X725170Y312928D02*
X736428D01*
X786892Y334892D02*
X787000Y335000D01*
X786892Y326898D02*
Y334892D01*
X772922Y310078D02*
X773000Y310000D01*
X772922Y310078D02*
Y318262D01*
X826500Y313000D02*
X826572Y312928D01*
X837184D01*
X826500Y331500D02*
X826530Y331470D01*
X837184D01*
X800952Y352298D02*
X801000Y352250D01*
X792988Y352298D02*
X800952D01*
X775750Y352250D02*
X775798Y352298D01*
X786638D01*
X806000Y333750D02*
Y335000D01*
Y333750D02*
X806210Y333540D01*
X824460D01*
X826500Y331500D01*
X495000Y159500D02*
X535000D01*
X475615Y106608D02*
Y141615D01*
X489618Y103632D02*
X490000Y103250D01*
X478591Y103632D02*
X489618D01*
X475615Y106608D02*
X478591Y103632D01*
X493500Y159500D02*
X495000D01*
X475615Y141615D02*
X493500Y159500D01*
X927250Y232500D02*
X931365D01*
X931825Y232960D01*
Y240927D01*
X934098Y243200D01*
X936400D01*
X927250Y167500D02*
X931365D01*
X931825Y167040D01*
Y159073D02*
Y167040D01*
Y159073D02*
X934098Y156800D01*
X936400D01*
X884250Y180000D02*
X884682Y179568D01*
Y168402D02*
Y179568D01*
X726694Y269944D02*
X726750Y270000D01*
X726694Y258826D02*
Y269944D01*
X764250Y270000D02*
X764540Y269710D01*
Y258572D02*
Y269710D01*
X745490Y269740D02*
X745750Y270000D01*
X745490Y258572D02*
Y269740D01*
X679196Y269946D02*
X679250Y270000D01*
X679196Y259080D02*
Y269946D01*
X683000Y310000D02*
X683006Y309994D01*
Y301244D02*
Y309994D01*
X646500Y313000D02*
X646936Y313436D01*
X657860D01*
X646500Y331500D02*
X646724Y331724D01*
X657860D01*
X606790Y335210D02*
X607000Y335000D01*
X606790Y335210D02*
Y340960D01*
X595956Y351794D02*
X606790Y340960D01*
X595956Y351794D02*
Y352044D01*
X620794D02*
X621000Y352250D01*
X612648Y352044D02*
X620794D01*
X667202Y352298D02*
X667250Y352250D01*
X656336Y352298D02*
X667202D01*
X685750Y352000D02*
Y352250D01*
Y352000D02*
X696790Y340960D01*
Y335210D02*
Y340960D01*
Y335210D02*
X697000Y335000D01*
X685956Y352044D02*
X695960D01*
X685750Y352250D02*
X685956Y352044D01*
X669710Y334790D02*
X670000Y334500D01*
X669710Y334790D02*
Y349790D01*
X667250Y352250D02*
X669710Y349790D01*
X628250Y331500D02*
X646500D01*
X626000Y333750D02*
X628250Y331500D01*
X626000Y333750D02*
Y335000D01*
X710794Y352044D02*
X711000Y352250D01*
X702564Y352044D02*
X710794D01*
X757250Y352250D02*
X757428Y352428D01*
Y363220D01*
X736500Y331500D02*
X736724Y331724D01*
X747776D01*
X718250Y331500D02*
X736500D01*
X716000Y333750D02*
X718250Y331500D01*
X716000Y333750D02*
Y335000D01*
X759710Y334790D02*
X760000Y334500D01*
X759710Y334790D02*
Y349790D01*
X757250Y352250D02*
X759710Y349790D01*
X780796Y382362D02*
Y395478D01*
Y450088D02*
Y462166D01*
X691134Y382108D02*
Y395224D01*
Y449834D02*
Y461912D01*
X600964Y382108D02*
Y395224D01*
Y449834D02*
Y461912D01*
X782500Y187500D02*
Y198250D01*
Y176750D02*
Y187500D01*
X791924D02*
X791972Y187452D01*
X782500Y187500D02*
X791924D01*
X687422Y84328D02*
X698246D01*
X687375Y84375D02*
X687422Y84328D01*
X556500Y313000D02*
X557190Y313690D01*
X567944D01*
X579710Y334210D02*
X580000Y334500D01*
X579710Y326980D02*
Y334210D01*
X577850Y325120D02*
X579710Y326980D01*
X595956Y352044D02*
X606298D01*
X517000Y335000D02*
X517144Y335144D01*
Y342646D01*
X510950Y462010D02*
X511048Y461912D01*
Y449834D02*
Y461912D01*
X510950Y382010D02*
X511048Y382108D01*
Y395224D01*
X228216Y145034D02*
X228250Y145000D01*
X217678Y145034D02*
X228216D01*
X249204Y44704D02*
X249500Y45000D01*
X525440Y218440D02*
X525500Y218500D01*
X516128Y218440D02*
X525440D01*
X485500Y218500D02*
Y232558D01*
X485394Y232664D02*
X485500Y232558D01*
X884250Y235000D02*
X884454Y235204D01*
X895604D01*
X246750Y15000D02*
X246990Y15240D01*
X258318D01*
X222250Y80000D02*
X223875Y78375D01*
Y54960D02*
Y78375D01*
Y54960D02*
X224335Y54500D01*
X225500D01*
X222500Y102750D02*
X222750Y103000D01*
X222500Y80250D02*
Y102750D01*
X222250Y80000D02*
X222500Y80250D01*
X246750Y145000D02*
X298484D01*
X328930Y114554D01*
X249500Y122000D02*
X252250D01*
X248790Y122710D02*
X249500Y122000D01*
X248790Y122710D02*
Y125460D01*
X246750Y127500D02*
X248790Y125460D01*
X246750Y127500D02*
Y145000D01*
X657978Y109728D02*
X658250Y110000D01*
X646938Y109728D02*
X657978D01*
X708232Y109982D02*
X708250Y110000D01*
X696976Y109982D02*
X708232D01*
X766750Y110000D02*
X766768Y109982D01*
X778256D01*
X752500Y63677D02*
X752601Y63576D01*
X752907D02*
X757040Y59444D01*
X752601Y63576D02*
X752907D01*
X752500Y63677D02*
Y66747D01*
X757040Y54710D02*
X761750Y50000D01*
X757040Y54710D02*
Y59444D01*
X761750Y50000D02*
Y50154D01*
X766460Y54864D01*
X772922D01*
X722210Y66040D02*
X722500Y65750D01*
X710692Y66040D02*
X722210D01*
X687500Y65750D02*
X687790Y66040D01*
X699008D01*
X625024Y75000D02*
X637750D01*
X624840Y75184D02*
X625024Y75000D01*
X600000Y64500D02*
X600202Y64702D01*
Y74930D01*
X639244Y170000D02*
X640212D01*
X634704Y174540D02*
X639244Y170000D01*
X627500Y178000D02*
X630960Y174540D01*
X634704D01*
X627380Y156880D02*
X627500Y157000D01*
X627380Y148082D02*
Y156880D01*
X743000Y87477D02*
Y88253D01*
X742899Y87376D02*
X743000Y87477D01*
X738632Y87376D02*
X742899D01*
X722500Y84250D02*
X735506D01*
X738632Y87376D01*
X667250Y84500D02*
X667375Y84375D01*
X687375D01*
X588004Y137254D02*
X588250Y137500D01*
X576834Y137254D02*
X588004D01*
X592500Y219250D02*
X592582Y219332D01*
Y230886D01*
X587492Y158242D02*
X587500Y158250D01*
X576326Y158242D02*
X587492D01*
X609346Y198846D02*
X609500Y199000D01*
X626750Y240000D02*
X626780Y240030D01*
X638556D01*
X625500Y221000D02*
X626125Y221625D01*
Y239375D01*
X626750Y240000D01*
X421978Y204978D02*
X422000Y205000D01*
X411734Y204978D02*
X421978D01*
X423244Y142494D02*
X423250Y142500D01*
X411988Y142494D02*
X423244D01*
X388906Y98806D02*
X399288D01*
X388750Y98650D02*
X388906Y98806D01*
X397500Y169500D02*
X397510Y169490D01*
Y162052D02*
Y169490D01*
X353202Y187452D02*
X353250Y187500D01*
X341630Y187452D02*
X353202D01*
X350484Y157734D02*
X350750Y158000D01*
X340360Y157734D02*
X350484D01*
X349822Y131572D02*
X350000Y131750D01*
X338836Y131572D02*
X349822D01*
X304800Y99450D02*
X305000Y99250D01*
X304800Y99450D02*
Y110744D01*
X277940Y103560D02*
X282250Y99250D01*
X277940Y103560D02*
X281794D01*
X282194Y103960D01*
Y110744D01*
X282250Y99250D02*
X282500D01*
X211604Y112500D02*
X222750D01*
X211582Y112522D02*
X211604Y112500D01*
D75*
X762000Y66747D02*
X786253D01*
X787500Y65500D01*
X363982Y142520D02*
X368345D01*
X360934Y123952D02*
Y139472D01*
X363982Y142520D01*
X359410Y122428D02*
X360934Y123952D01*
X339344Y122428D02*
X359410D01*
X337312Y120396D02*
X339344Y122428D01*
X337312Y114046D02*
Y120396D01*
X266062Y103000D02*
X270002Y99060D01*
Y92704D02*
X272789Y89916D01*
X270002Y92704D02*
Y99060D01*
X272789Y89916D02*
X313182D01*
X316484Y93218D02*
Y103378D01*
X313182Y89916D02*
X316484Y93218D01*
Y103378D02*
X321310Y108204D01*
X443000Y161000D02*
Y162500D01*
X437635Y155635D02*
X443000Y161000D01*
X431329Y155635D02*
X437635D01*
X428094Y152400D02*
X431329Y155635D01*
X411988Y152400D02*
X428094D01*
X408173Y148585D02*
X411988Y152400D01*
X408173Y144775D02*
Y148585D01*
X407162Y143764D02*
X408173Y144775D01*
X406418Y143002D02*
X407162Y143746D01*
Y143764D01*
X402082Y143002D02*
X406418D01*
X401828Y142748D02*
X402082Y143002D01*
X331470Y108204D02*
X337312Y114046D01*
X321310Y108204D02*
X331470D01*
X252250Y103000D02*
X266062D01*
X927250Y217500D02*
X927288Y217462D01*
X951446D01*
X951484Y217424D01*
X927250Y187500D02*
X927401Y187349D01*
X951333D01*
X951484Y187198D01*
X743712Y147320D02*
X751232Y139800D01*
X670814Y147320D02*
X743712D01*
X751232Y139800D02*
X822500D01*
X649640Y149860D02*
X745236D01*
X752756Y142340D02*
X799640D01*
X745236Y149860D02*
X752756Y142340D01*
X667500Y132000D02*
Y144006D01*
X670814Y147320D01*
X649500Y150000D02*
X649640Y149860D01*
X726750Y110000D02*
X728472Y111722D01*
Y120472D01*
X732500Y124500D02*
Y132000D01*
X728472Y120472D02*
X732500Y124500D01*
X563372Y131826D02*
Y147322D01*
X597959Y97239D02*
X699512D01*
X563372Y131826D02*
X597959Y97239D01*
X249500Y35500D02*
X249948Y35052D01*
X407670D01*
X580898Y123698D02*
X611632D01*
X637667Y149733D01*
X567436Y137160D02*
X580898Y123698D01*
X608250Y157000D02*
X609000D01*
X606750Y155500D02*
X608250Y157000D01*
X606750Y137500D02*
Y155500D01*
X609000Y157000D02*
X619767Y167767D01*
X635000D01*
X637767Y165000D02*
X649500D01*
X635000Y167767D02*
X637767Y165000D01*
X649500Y160000D02*
X649510Y160010D01*
X662295D01*
X662305Y160020D01*
X599694Y85806D02*
X600000Y85500D01*
X599694Y85806D02*
Y92964D01*
X643434Y150000D02*
X649500D01*
X642635Y149201D02*
X643434Y150000D01*
X642635Y144287D02*
Y149201D01*
X599948Y101600D02*
X642635Y144287D01*
X567436Y137160D02*
Y180086D01*
X540385Y207137D02*
X567436Y180086D01*
X443000Y186500D02*
Y205000D01*
X637667Y149733D02*
Y154256D01*
X638411Y155000D02*
X649500D01*
X637667Y154256D02*
X638411Y155000D01*
X443000Y185000D02*
Y186500D01*
X448365Y191865D01*
X473150D01*
X488422Y207137D01*
X540385D01*
X669925Y226949D02*
X687565D01*
X692500Y231884D01*
Y243000D01*
X668401Y224409D02*
X689991D01*
X638302Y254508D02*
X668401Y224409D01*
X689991D02*
X697500Y231918D01*
X692531Y221869D02*
X702500Y231838D01*
X667258Y221869D02*
X692531D01*
X638937Y250190D02*
X667258Y221869D01*
X405257Y258699D02*
X405384Y258572D01*
X638302D01*
X669925Y226949D01*
X393317Y157099D02*
X403225D01*
X391000Y150500D02*
X391129Y150630D01*
Y154911D01*
X393317Y157099D01*
X409829Y163703D02*
Y175641D01*
X403225Y157099D02*
X409829Y163703D01*
X405003Y180467D02*
Y245999D01*
Y180467D02*
X409829Y175641D01*
X390906Y254508D02*
X638302D01*
X391000Y169500D02*
X391033Y169533D01*
Y245872D01*
X148336Y274828D02*
Y279019D01*
Y274828D02*
X149098Y274066D01*
X191008D01*
X214884Y250190D01*
X179832Y267716D02*
X193076D01*
X228636Y232156D01*
X191389Y262287D02*
X191611D01*
X224282Y229616D01*
X214884Y250190D02*
X638937D01*
X702500Y231838D02*
Y243000D01*
X697500Y231918D02*
Y243000D01*
X649409Y194909D02*
X649500Y195000D01*
X636361Y194909D02*
X649409D01*
X636270Y194818D02*
X636361Y194909D01*
X587212Y177038D02*
X587500Y176750D01*
X576072Y177038D02*
X587212D01*
X575310Y192532D02*
X579882Y187960D01*
X633734D02*
X636694Y185000D01*
X579882Y187960D02*
X633734D01*
X636694Y185000D02*
X649500D01*
X575310Y192532D02*
Y208026D01*
X525500Y237500D02*
X545836D01*
X575310Y208026D01*
X705866Y82550D02*
Y90885D01*
X713486Y74930D02*
X755933D01*
X705866Y82550D02*
X713486Y74930D01*
X758273Y72590D02*
X758273D01*
X755933Y74930D02*
X758273Y72590D01*
X758273D02*
X762000Y68863D01*
Y66747D02*
Y68863D01*
X699512Y97239D02*
X705866Y90885D01*
X535000Y180500D02*
X536500D01*
X541865Y175135D01*
Y168829D02*
Y175135D01*
Y168829D02*
X563372Y147322D01*
X471170Y137770D02*
Y158170D01*
X493500Y180500D01*
X495000D01*
X441250Y111350D02*
X444750D01*
X471170Y137770D01*
X224282Y229616D02*
X271272D01*
X228636Y232156D02*
X272324D01*
X323850Y180630D02*
Y180630D01*
X272324Y232156D02*
X323850Y180630D01*
Y180630D02*
X332522Y171958D01*
X378750Y171450D02*
X380700Y169500D01*
X378714Y171450D02*
X378750D01*
X380700Y169500D02*
X391000D01*
X378206Y171958D02*
X378714Y171450D01*
X332522Y171958D02*
X378206D01*
X331470Y169418D02*
X377190D01*
X381762Y156210D02*
Y164846D01*
X377190Y169418D02*
X381762Y164846D01*
Y156210D02*
X387472Y150500D01*
X391000D01*
X271272Y229616D02*
X331470Y169418D01*
X372500Y131750D02*
Y157250D01*
X371750Y158000D02*
X372500Y157250D01*
X535000Y180500D02*
Y196500D01*
X495000Y180500D02*
Y196500D01*
X537464Y227584D02*
X540135Y224913D01*
X517398Y227584D02*
X537464D01*
X540135Y222865D02*
X544500Y218500D01*
X540135Y222865D02*
Y224913D01*
X504500Y220500D02*
Y237500D01*
Y218500D02*
Y220500D01*
X508865Y224865D01*
X514679D01*
X517398Y227584D01*
X504500Y237500D02*
X504500Y237500D01*
X893341Y191945D02*
X902500Y182786D01*
Y159884D02*
Y182786D01*
X888920Y146304D02*
X902500Y159884D01*
X881126Y159004D02*
X882122Y160000D01*
X897636Y160744D02*
Y184058D01*
X882122Y160000D02*
X896892D01*
X897636Y160744D01*
X853635Y201865D02*
X868135D01*
X880595Y189405D02*
X892289D01*
X868135Y201865D02*
X880595Y189405D01*
X799640Y142340D02*
X822500Y165200D01*
X727500Y253250D02*
X736250Y262000D01*
X727500Y243000D02*
Y253250D01*
X736250Y262000D02*
Y296375D01*
X717500Y255875D02*
Y295375D01*
Y255875D02*
X721625Y251750D01*
X717500Y295375D02*
X723125Y301000D01*
X745536D01*
X760000Y307495D02*
Y310000D01*
X758385Y305880D02*
X760000Y307495D01*
X750416Y305880D02*
X758385D01*
X745536Y301000D02*
X750416Y305880D01*
X697000Y308250D02*
Y309500D01*
X694885Y306135D02*
X697000Y308250D01*
X694659Y306135D02*
X694885D01*
X693915Y305391D02*
X694659Y306135D01*
X693915Y262431D02*
Y305391D01*
X697012Y259334D02*
X708916D01*
X717500Y243000D02*
Y250750D01*
X708916Y259334D02*
X717500Y250750D01*
X693915Y262431D02*
X697012Y259334D01*
X691375Y261379D02*
Y279750D01*
Y261379D02*
X695960Y256794D01*
X688931Y282194D02*
X691375Y279750D01*
X633114Y282194D02*
X688931D01*
X607000Y309500D02*
Y317560D01*
Y308250D02*
Y309500D01*
X695960Y256794D02*
X706120D01*
X712500Y250414D01*
X609173Y306135D02*
X633114Y282194D01*
X687832Y279654D02*
X688594Y278892D01*
Y260096D02*
X694436Y254254D01*
X688594Y260096D02*
Y278892D01*
X602234Y304292D02*
X604520Y302006D01*
X609710D02*
X632062Y279654D01*
X604520Y302006D02*
X609710D01*
X704214Y254254D02*
X707572Y250896D01*
X694436Y254254D02*
X704214D01*
X632062Y279654D02*
X687832D01*
X590649Y327420D02*
X602234Y315835D01*
Y304292D02*
Y315835D01*
X586500Y327420D02*
X590649D01*
X607000Y308250D02*
X609115Y306135D01*
X609173D01*
X687958Y327262D02*
X689754D01*
X683000Y331500D02*
X684615Y329885D01*
X685335D02*
X687958Y327262D01*
X684615Y329885D02*
X685335D01*
X683000Y331500D02*
Y334500D01*
X689754Y327262D02*
X690372Y326644D01*
X593000Y331500D02*
Y334500D01*
Y331500D02*
X594615Y329885D01*
X594675D01*
X607000Y317560D01*
X649500Y195000D02*
X698428D01*
X732790Y229362D02*
X787980D01*
X698428Y195000D02*
X732790Y229362D01*
X629618Y319786D02*
X631987Y322155D01*
X615950Y319786D02*
X629618D01*
X586500Y334500D02*
X588115Y336115D01*
X712500Y243000D02*
Y250414D01*
X740410Y218440D02*
Y223520D01*
X743850Y215000D02*
X760500D01*
X740410Y218440D02*
X743850Y215000D01*
X752348Y240284D02*
X788126D01*
X889000Y341158D01*
Y350520D01*
X902000Y361000D02*
Y362500D01*
X896635Y355635D02*
X902000Y361000D01*
X894115Y355635D02*
X896635D01*
X889000Y350520D02*
X894115Y355635D01*
X742500Y241138D02*
Y243000D01*
Y241138D02*
X743299Y240339D01*
X745161D01*
X751058Y234442D01*
X785876D01*
X894839Y343405D01*
X716098Y231902D02*
X786928D01*
X875661Y320635D01*
X712500Y235500D02*
X716098Y231902D01*
X896635Y320635D02*
X902000Y326000D01*
X875661Y320635D02*
X896635D01*
X894839Y343405D02*
X900405D01*
X787980Y229362D02*
X861753Y303135D01*
X900405Y343405D02*
X902000Y345000D01*
Y308500D02*
Y310000D01*
X896635Y303135D02*
X902000Y308500D01*
X861753Y303135D02*
X896635D01*
X712500Y235500D02*
Y243000D01*
X902000Y326000D02*
Y327500D01*
X583549Y319135D02*
X589645D01*
X580000Y310000D02*
X580825Y310825D01*
Y316411D01*
X583549Y319135D01*
X574294Y315214D02*
X586500Y327420D01*
X589645Y319135D02*
X590550Y320040D01*
X574294Y305821D02*
Y315214D01*
X586500Y327420D02*
Y334500D01*
X675506Y322345D02*
X763810D01*
X670000Y316839D02*
X675506Y322345D01*
X670000Y310000D02*
Y316839D01*
X652272Y69342D02*
Y79502D01*
X656114Y65500D02*
X667250D01*
X652272Y69342D02*
X656114Y65500D01*
X647274Y84500D02*
X652272Y79502D01*
X621000Y84500D02*
X637750D01*
X640500D01*
X647274D01*
X620000Y85500D02*
X621000Y84500D01*
X610625Y72414D02*
X618538Y64500D01*
X610625Y72414D02*
Y76375D01*
X601500Y85500D02*
X610625Y76375D01*
X618538Y64500D02*
X620000D01*
X600000Y85500D02*
X601500D01*
X608250Y221250D02*
Y240000D01*
X626000Y199500D02*
X626500Y200000D01*
X592500Y200750D02*
X599115Y207365D01*
X602171D01*
X602711Y207905D01*
X617595D01*
X626000Y199500D01*
X626000D01*
X635194Y205000D02*
X649500D01*
X630377Y209818D02*
X635194Y205000D01*
X619683Y209818D02*
X630377D01*
X608250Y221250D02*
X619683Y209818D01*
X626500Y200000D02*
X649500D01*
X350000Y113250D02*
X372500D01*
X374400Y111350D02*
X388750D01*
X372500Y113250D02*
X374400Y111350D01*
X388750Y85950D02*
X388769Y85931D01*
X396161D02*
X401544Y80548D01*
Y71706D02*
Y80548D01*
X388769Y85931D02*
X396161D01*
X401544Y71706D02*
X405750Y67500D01*
X424250D02*
Y79318D01*
X430882Y85950D02*
X441250D01*
X424250Y79318D02*
X430882Y85950D01*
X441250Y124050D02*
Y142000D01*
X441750Y142500D01*
X443000Y185000D02*
X443000Y185000D01*
X427403Y178135D02*
X432056Y173482D01*
X433499D01*
X443000Y162500D02*
Y164000D01*
X437635Y169365D02*
X443000Y164000D01*
X437616Y169365D02*
X437635D01*
X433499Y173482D02*
X437616Y169365D01*
X427365Y178135D02*
X427403D01*
X422000Y183500D02*
X427365Y178135D01*
X422000Y183500D02*
Y185000D01*
X422000Y161000D02*
Y162500D01*
X416635Y155635D02*
X422000Y161000D01*
X407885Y155635D02*
X416635D01*
X404000Y151750D02*
X407885Y155635D01*
X404000Y150500D02*
Y151750D01*
X397500Y150500D02*
X404000D01*
X397500D02*
X397510Y150490D01*
Y137922D02*
Y150490D01*
X388750Y124050D02*
Y129162D01*
X397510Y137922D01*
X222750Y122000D02*
X230806D01*
X246885Y105921D01*
Y105615D02*
Y105921D01*
Y105615D02*
X249500Y103000D01*
X252250D01*
X966155Y300595D02*
X973505Y307945D01*
Y329154D01*
X916211Y300595D02*
X966155D01*
X966350Y336309D02*
X973505Y329154D01*
X915095Y301711D02*
X916211Y300595D01*
X915095Y301711D02*
Y318289D01*
X923000Y326000D02*
Y327500D01*
X916405Y319405D02*
X923000Y326000D01*
X916211Y319405D02*
X916405D01*
X915095Y318289D02*
X916211Y319405D01*
X923000Y310000D02*
X939366D01*
X945612Y303754D01*
X959195D01*
X966350Y310909D01*
X973505Y356164D02*
Y364673D01*
X916211Y371905D02*
X966273D01*
X966350Y349009D02*
X973505Y356164D01*
X966273Y371905D02*
X973505Y364673D01*
X915095Y354211D02*
Y370789D01*
X916211Y371905D01*
X959195Y368864D02*
X966350Y361709D01*
X915095Y354211D02*
X916211Y353095D01*
X945671Y368864D02*
X959195D01*
X916405Y353095D02*
X923000Y346500D01*
X916211Y353095D02*
X916405D01*
X939307Y362500D02*
X945671Y368864D01*
X923000Y345000D02*
Y346500D01*
Y362500D02*
X939307D01*
X763751Y302845D02*
X781537D01*
X787000Y308250D02*
Y309500D01*
X784885Y306135D02*
X787000Y308250D01*
X784827Y306135D02*
X784885D01*
X781537Y302845D02*
X784827Y306135D01*
X760000Y310000D02*
X761615Y308385D01*
Y304981D02*
Y308385D01*
Y304981D02*
X763751Y302845D01*
X766064Y310436D02*
X766500Y310000D01*
X757596Y317500D02*
X765320D01*
X766064Y310436D02*
Y316756D01*
X765320Y317500D02*
X766064Y316756D01*
X751020Y310924D02*
X757596Y317500D01*
X751020Y310076D02*
Y310924D01*
X697000Y309500D02*
X704745D01*
X710650Y303595D01*
X744539D01*
X751020Y310076D01*
X771350Y329885D02*
X771385D01*
X773000Y331500D01*
X763810Y322345D02*
X771350Y329885D01*
X674885Y304779D02*
Y308385D01*
X672951Y302845D02*
X674885Y304779D01*
X667251Y302845D02*
X672951D01*
X674885Y308385D02*
X676500Y310000D01*
X665845Y304251D02*
X667251Y302845D01*
X665845Y304251D02*
Y313690D01*
X657380Y322155D02*
X665845Y313690D01*
X631987Y322155D02*
X657380D01*
X773000Y331500D02*
Y334500D01*
X517000Y308250D02*
X519115Y306135D01*
X521713Y303595D02*
X572067D01*
X517000Y308250D02*
Y309500D01*
X519115Y306135D02*
X519173D01*
X521713Y303595D01*
X572067D02*
X574294Y305821D01*
X814095Y352250D02*
X822000D01*
X810942Y349097D02*
X814095Y352250D01*
X810942Y345998D02*
Y349097D01*
X807126Y342181D02*
X810942Y345998D01*
X802431Y342181D02*
X807126D01*
X796500Y336250D02*
X802431Y342181D01*
X796500Y335000D02*
Y336250D01*
X724095Y352250D02*
X732000D01*
X720942Y349097D02*
X724095Y352250D01*
X720942Y345998D02*
Y349097D01*
X717126Y342181D02*
X720942Y345998D01*
X712431Y342181D02*
X717126D01*
X706500Y336250D02*
X712431Y342181D01*
X706500Y335000D02*
Y336250D01*
X634095Y352250D02*
X642000D01*
X630942Y349097D02*
X634095Y352250D01*
X630942Y345998D02*
Y349097D01*
X627126Y342181D02*
X630942Y345998D01*
X622431Y342181D02*
X627126D01*
X616500Y336250D02*
X622431Y342181D01*
X616500Y335000D02*
Y336250D01*
X544095Y352250D02*
X552000D01*
X540942Y349097D02*
X544095Y352250D01*
X540942Y345998D02*
Y349097D01*
X537126Y342181D02*
X540942Y345998D01*
X532431Y342181D02*
X537126D01*
X526500Y336250D02*
X532431Y342181D01*
X526500Y335000D02*
Y336250D01*
X828950Y382010D02*
Y462010D01*
X738950Y382010D02*
Y462010D01*
X648950Y382010D02*
Y462010D01*
X558950Y382010D02*
Y462010D01*
X822000Y352250D02*
Y365425D01*
X828950Y372375D01*
Y382010D01*
X732000Y352250D02*
Y365425D01*
X738950Y372375D01*
Y382010D01*
X642000Y352250D02*
Y360385D01*
X648950Y367335D01*
Y382010D01*
X552000Y352250D02*
Y360385D01*
X558950Y367335D01*
Y382010D01*
X865928Y146304D02*
X868426D01*
X859424Y139800D02*
X865928Y146304D01*
X822500Y139800D02*
X859424D01*
X862230Y165200D02*
X868426Y159004D01*
X822500Y165200D02*
X862230D01*
X881126Y146304D02*
X888920D01*
X883196Y191945D02*
X893341D01*
X868276Y206865D02*
X883196Y191945D01*
X892289Y189405D02*
X897636Y184058D01*
X853635Y206865D02*
X868276D01*
X853000Y207500D02*
X853635Y206865D01*
X853000Y202500D02*
X853635Y201865D01*
X897000Y197500D02*
X897000Y197500D01*
D76*
X234091Y35403D02*
X234188Y35306D01*
X227252Y35403D02*
X234091D01*
X886215Y207509D02*
X896991D01*
X865582Y179832D02*
X865750Y180000D01*
X854710Y179832D02*
X865582D01*
X865546Y235204D02*
X865750Y235000D01*
X854710Y235204D02*
X865546D01*
X782500Y216750D02*
X782842Y216408D01*
X791718D01*
X782500Y158250D02*
X782508Y158242D01*
X791972D01*
X748250Y110000D02*
X748792Y109458D01*
Y99822D02*
Y109458D01*
X711708Y84074D02*
X722630D01*
X722500Y84204D02*
X722630Y84074D01*
X722884Y83820D01*
X722500Y84204D02*
Y84250D01*
X677500Y110750D02*
X678268Y109982D01*
X687070D01*
X619500Y270000D02*
X619752Y269748D01*
X628396D01*
X593000Y310000D02*
X593045Y309955D01*
Y301543D02*
Y309955D01*
Y301543D02*
X593090Y301498D01*
X566166Y351536D02*
X576536D01*
X577250Y352250D01*
X556500Y331500D02*
X556530Y331470D01*
X567944D01*
X536000Y333750D02*
Y335000D01*
Y333750D02*
X536845Y332905D01*
X538095D01*
X539500Y331500D01*
X556500D01*
X531000Y352250D02*
X531114Y352364D01*
Y363220D01*
X225597Y35403D02*
X227252D01*
X228250Y34405D01*
X225500Y35500D02*
X225597Y35403D01*
X403905Y169595D02*
X404000Y169500D01*
X403905Y169595D02*
Y174520D01*
X401828Y176597D02*
X403905Y174520D01*
X401828Y176597D02*
Y176784D01*
X371750Y187500D02*
X371956Y187706D01*
X383032D01*
X607500Y178000D02*
X607568Y177932D01*
Y167640D02*
Y177932D01*
X841756Y199732D02*
Y210366D01*
X843988Y212598D02*
X852902D01*
X841756Y210366D02*
X843988Y212598D01*
X865750Y214830D02*
Y235000D01*
X853098Y212598D02*
X863518D01*
X865750Y214830D01*
X843988Y197500D02*
X853000D01*
X841756Y199732D02*
X843988Y197500D01*
X860405Y185345D02*
X865750Y180000D01*
X860405Y185345D02*
Y194535D01*
X857440Y197500D02*
X860405Y194535D01*
X853000Y197500D02*
X857440D01*
X228250Y15000D02*
Y34405D01*
X649478Y258572D02*
Y259698D01*
X640588Y268588D02*
X649478Y259698D01*
X667500Y242467D02*
X667639Y242606D01*
Y255905D01*
X640588Y268588D02*
X642000Y270000D01*
X640500Y268500D02*
X640588Y268588D01*
Y269912D01*
X649478Y225022D02*
X649500Y225000D01*
X649478Y225022D02*
Y230886D01*
X640500Y270000D02*
X640588Y269912D01*
X667500Y242467D02*
Y243000D01*
X707490Y269240D02*
X708250Y270000D01*
X698246Y269240D02*
X707490D01*
X667500Y243000D02*
X667506Y243006D01*
X642000Y270000D02*
X660750D01*
X760500Y225000D02*
X774250D01*
X776905Y222345D01*
Y222095D02*
Y222345D01*
Y222095D02*
X782250Y216750D01*
X782500D01*
X742500Y125310D02*
Y132000D01*
Y125310D02*
X748250Y119560D01*
Y110000D02*
Y119560D01*
X677500Y110750D02*
Y132000D01*
D77*
X896991Y207509D02*
X897000Y207500D01*
X886206Y207518D02*
X886215Y207509D01*
X760482Y219982D02*
X760500Y220000D01*
X747540Y219982D02*
X760482D01*
X747522Y219964D02*
X747540Y219982D01*
X737500Y132000D02*
X737558Y132058D01*
Y142944D01*
X737616Y143002D01*
X672500Y132000D02*
X672546Y132046D01*
Y142956D01*
X672592Y143002D01*
X672483Y242983D02*
X672500Y243000D01*
X672483Y231411D02*
Y242983D01*
X672465Y231394D02*
X672483Y231411D01*
D78*
X897000Y202500D02*
X927250D01*
X919869Y198349D02*
X919980Y198238D01*
X926512D01*
X897000Y202500D02*
X897000Y202500D01*
X919575Y198349D02*
X919869D01*
X927250Y192500D02*
X927266Y192516D01*
X940546D01*
X940562Y192532D01*
X927250Y197500D02*
X941462D01*
X941338Y207500D02*
X944626Y204212D01*
Y200664D02*
Y204212D01*
X927250Y207500D02*
X941338D01*
X941462Y197500D02*
X944626Y200664D01*
X927281Y202469D02*
X940313D01*
X940344Y202438D01*
X927250Y202500D02*
X927281Y202469D01*
X906780Y198349D02*
X919575D01*
X926512Y198238D02*
X927250Y197500D01*
X906118Y197687D02*
X906780Y198349D01*
X897187Y197687D02*
X906118D01*
X897000Y197500D02*
X897187Y197687D01*
D79*
X25000Y25000D02*
D03*
X975000D02*
D03*
Y475000D02*
D03*
X25000D02*
D03*
D80*
X966350Y310909D02*
D03*
Y323609D02*
D03*
X953650Y310909D02*
D03*
Y323609D02*
D03*
X966350Y336309D02*
D03*
Y349009D02*
D03*
X953650Y336309D02*
D03*
Y349009D02*
D03*
X966350Y361709D02*
D03*
X953650D02*
D03*
X868426Y159004D02*
D03*
X881126D02*
D03*
X868426Y146304D02*
D03*
X881126D02*
D03*
D81*
X925200Y390000D02*
D03*
X822500Y139800D02*
D03*
D82*
X899800Y390000D02*
D03*
D83*
X978200Y156800D02*
D03*
Y243200D02*
D03*
D84*
X936400D02*
D03*
Y156800D02*
D03*
D85*
X941700Y228900D02*
D03*
Y171100D02*
D03*
D86*
X847600Y55880D02*
D03*
X101600D02*
D03*
D87*
X898400D02*
D03*
X152400D02*
D03*
D88*
X822500Y165200D02*
D03*
D89*
X158450Y219760D02*
D03*
D90*
X460000Y22500D02*
D03*
X490000D02*
D03*
X520000D02*
D03*
X550000D02*
D03*
X580000D02*
D03*
X610000D02*
D03*
X640000D02*
D03*
X670000D02*
D03*
X700000D02*
D03*
X730000D02*
D03*
X760000D02*
D03*
X790000D02*
D03*
X830000Y30000D02*
D03*
X860000D02*
D03*
D91*
X815000Y95000D02*
D03*
X606806Y200152D02*
D03*
X234188Y35306D02*
D03*
X241046Y44958D02*
D03*
X225500Y47296D02*
D03*
X401828Y142748D02*
D03*
X368345Y142520D02*
D03*
X725170Y312928D02*
D03*
X786892Y326898D02*
D03*
X772922Y318262D02*
D03*
X837184Y312928D02*
D03*
Y331470D02*
D03*
X792988Y352298D02*
D03*
X786638D02*
D03*
X517398Y133858D02*
D03*
X531114D02*
D03*
X503682D02*
D03*
X544830D02*
D03*
X489966D02*
D03*
X973074Y217424D02*
D03*
Y187198D02*
D03*
X886206Y207518D02*
D03*
X884682Y168402D02*
D03*
X854710Y179832D02*
D03*
Y235204D02*
D03*
X726694Y258826D02*
D03*
X764540Y258572D02*
D03*
X745490D02*
D03*
X679196Y259080D02*
D03*
X683006Y301244D02*
D03*
X657860Y313436D02*
D03*
Y331724D02*
D03*
X612648Y352044D02*
D03*
X656336Y352298D02*
D03*
X702564Y352044D02*
D03*
X695960D02*
D03*
X757428Y363220D02*
D03*
X747776Y331724D02*
D03*
X780796Y395478D02*
D03*
Y450088D02*
D03*
X691134Y395224D02*
D03*
Y449834D02*
D03*
X600964Y395224D02*
D03*
Y449834D02*
D03*
X117625Y355750D02*
D03*
X56896Y278638D02*
D03*
X105918D02*
D03*
X120142D02*
D03*
X134366D02*
D03*
X140970D02*
D03*
X162052D02*
D03*
X168910D02*
D03*
X196850D02*
D03*
X203962D02*
D03*
X211074D02*
D03*
X260096D02*
D03*
X252984D02*
D03*
X225044D02*
D03*
X217932D02*
D03*
X107442Y385572D02*
D03*
X127508D02*
D03*
X237236D02*
D03*
X257556D02*
D03*
X217424Y365252D02*
D03*
X791718Y216408D02*
D03*
X791972Y158242D02*
D03*
Y187452D02*
D03*
X748792Y99822D02*
D03*
X711708Y84074D02*
D03*
X698246Y84328D02*
D03*
X687070Y109982D02*
D03*
X628396Y269748D02*
D03*
X593090Y301498D02*
D03*
X567944Y313690D02*
D03*
X577850Y325120D02*
D03*
X606298Y352044D02*
D03*
X566166Y351536D02*
D03*
X567944Y331470D02*
D03*
X531114Y363220D02*
D03*
X517144Y342646D02*
D03*
X511048Y449834D02*
D03*
Y395224D02*
D03*
X217678Y145034D02*
D03*
X401828Y176784D02*
D03*
X383032Y187706D02*
D03*
X516128Y218440D02*
D03*
X607568Y167640D02*
D03*
X485394Y232664D02*
D03*
X895604Y235204D02*
D03*
X951484Y217424D02*
D03*
Y187198D02*
D03*
X258318Y15240D02*
D03*
X419608Y85852D02*
D03*
X328930Y114554D02*
D03*
X646938Y109728D02*
D03*
X696976Y109982D02*
D03*
X778256D02*
D03*
X772922Y54864D02*
D03*
X710692Y66040D02*
D03*
X699008D02*
D03*
X624840Y75184D02*
D03*
X600202Y74930D02*
D03*
X747522Y219964D02*
D03*
X737616Y143002D02*
D03*
X672592D02*
D03*
X407670Y35052D02*
D03*
X662305Y160020D02*
D03*
X599694Y92964D02*
D03*
X599948Y101600D02*
D03*
X627380Y148082D02*
D03*
X672465Y231394D02*
D03*
X405003Y245999D02*
D03*
X405257Y258699D02*
D03*
X649478Y258572D02*
D03*
X391033Y245872D02*
D03*
X390906Y254508D02*
D03*
X148336Y279019D02*
D03*
X179832Y267716D02*
D03*
X191389Y262287D02*
D03*
X667639Y255905D02*
D03*
X649478Y230886D02*
D03*
X636270Y194818D02*
D03*
X576072Y177038D02*
D03*
X698246Y269240D02*
D03*
X197612Y365252D02*
D03*
X177546D02*
D03*
X576834Y137254D02*
D03*
X592582Y230886D02*
D03*
X576326Y158242D02*
D03*
X638556Y240030D02*
D03*
X411734Y204978D02*
D03*
X411988Y142494D02*
D03*
X399288Y98806D02*
D03*
X397510Y162052D02*
D03*
X341630Y187452D02*
D03*
X340360Y157734D02*
D03*
X338836Y131572D02*
D03*
X304800Y110744D02*
D03*
X282194D02*
D03*
X211582Y112522D02*
D03*
X736250Y296375D02*
D03*
X690372Y326644D02*
D03*
X615950Y319786D02*
D03*
X740410Y223520D02*
D03*
X752348Y240284D02*
D03*
X590550Y320040D02*
D03*
X940344Y202438D02*
D03*
X940562Y192532D02*
D03*
M02*
