G04*
G04 #@! TF.GenerationSoftware,Altium Limited,Altium Designer,20.2.6 (244)*
G04*
G04 Layer_Color=8388736*
%FSLAX44Y44*%
%MOMM*%
G71*
G04*
G04 #@! TF.SameCoordinates,5F1E5769-8BC1-42D3-870D-05276483D41C*
G04*
G04*
G04 #@! TF.FilePolarity,Negative*
G04*
G01*
G75*
%ADD17R,0.5298X1.1556*%
G04:AMPARAMS|DCode=18|XSize=1.1556mm|YSize=0.5298mm|CornerRadius=0.2649mm|HoleSize=0mm|Usage=FLASHONLY|Rotation=90.000|XOffset=0mm|YOffset=0mm|HoleType=Round|Shape=RoundedRectangle|*
%AMROUNDEDRECTD18*
21,1,1.1556,0.0000,0,0,90.0*
21,1,0.6258,0.5298,0,0,90.0*
1,1,0.5298,0.0000,0.3129*
1,1,0.5298,0.0000,-0.3129*
1,1,0.5298,0.0000,-0.3129*
1,1,0.5298,0.0000,0.3129*
%
%ADD18ROUNDEDRECTD18*%
%ADD38R,1.6532X1.7032*%
%ADD39R,1.7032X1.6532*%
%ADD40R,1.7032X1.4032*%
G04:AMPARAMS|DCode=41|XSize=0.8532mm|YSize=1.4032mm|CornerRadius=0.1504mm|HoleSize=0mm|Usage=FLASHONLY|Rotation=90.000|XOffset=0mm|YOffset=0mm|HoleType=Round|Shape=RoundedRectangle|*
%AMROUNDEDRECTD41*
21,1,0.8532,1.1025,0,0,90.0*
21,1,0.5525,1.4032,0,0,90.0*
1,1,0.3007,0.5513,0.2763*
1,1,0.3007,0.5513,-0.2763*
1,1,0.3007,-0.5513,-0.2763*
1,1,0.3007,-0.5513,0.2763*
%
%ADD41ROUNDEDRECTD41*%
%ADD42R,1.3032X2.0032*%
%ADD43R,1.4032X1.7032*%
%ADD44R,1.6532X0.8032*%
%ADD45R,1.6532X0.5032*%
G04:AMPARAMS|DCode=46|XSize=1.7032mm|YSize=5.2032mm|CornerRadius=0.4766mm|HoleSize=0mm|Usage=FLASHONLY|Rotation=180.000|XOffset=0mm|YOffset=0mm|HoleType=Round|Shape=RoundedRectangle|*
%AMROUNDEDRECTD46*
21,1,1.7032,4.2500,0,0,180.0*
21,1,0.7500,5.2032,0,0,180.0*
1,1,0.9532,-0.3750,2.1250*
1,1,0.9532,0.3750,2.1250*
1,1,0.9532,0.3750,-2.1250*
1,1,0.9532,-0.3750,-2.1250*
%
%ADD46ROUNDEDRECTD46*%
%ADD47R,1.4032X1.6032*%
%ADD48R,1.2032X0.8032*%
%ADD49O,1.6032X0.4532*%
%ADD50R,0.6032X0.8532*%
G04:AMPARAMS|DCode=51|XSize=0.7532mm|YSize=1.4532mm|CornerRadius=0.1511mm|HoleSize=0mm|Usage=FLASHONLY|Rotation=270.000|XOffset=0mm|YOffset=0mm|HoleType=Round|Shape=RoundedRectangle|*
%AMROUNDEDRECTD51*
21,1,0.7532,1.1510,0,0,270.0*
21,1,0.4510,1.4532,0,0,270.0*
1,1,0.3022,-0.5755,-0.2255*
1,1,0.3022,-0.5755,0.2255*
1,1,0.3022,0.5755,0.2255*
1,1,0.3022,0.5755,-0.2255*
%
%ADD51ROUNDEDRECTD51*%
G04:AMPARAMS|DCode=52|XSize=0.7532mm|YSize=1.0032mm|CornerRadius=0.1511mm|HoleSize=0mm|Usage=FLASHONLY|Rotation=0.000|XOffset=0mm|YOffset=0mm|HoleType=Round|Shape=RoundedRectangle|*
%AMROUNDEDRECTD52*
21,1,0.7532,0.7010,0,0,0.0*
21,1,0.4510,1.0032,0,0,0.0*
1,1,0.3022,0.2255,-0.3505*
1,1,0.3022,-0.2255,-0.3505*
1,1,0.3022,-0.2255,0.3505*
1,1,0.3022,0.2255,0.3505*
%
%ADD52ROUNDEDRECTD52*%
G04:AMPARAMS|DCode=53|XSize=0.6532mm|YSize=1.2532mm|CornerRadius=0.1511mm|HoleSize=0mm|Usage=FLASHONLY|Rotation=0.000|XOffset=0mm|YOffset=0mm|HoleType=Round|Shape=RoundedRectangle|*
%AMROUNDEDRECTD53*
21,1,0.6532,0.9510,0,0,0.0*
21,1,0.3510,1.2532,0,0,0.0*
1,1,0.3022,0.1755,-0.4755*
1,1,0.3022,-0.1755,-0.4755*
1,1,0.3022,-0.1755,0.4755*
1,1,0.3022,0.1755,0.4755*
%
%ADD53ROUNDEDRECTD53*%
%ADD54O,2.0032X0.5032*%
%ADD55O,0.5032X2.0032*%
%ADD56R,1.5532X2.0532*%
%ADD57R,1.2032X1.6032*%
%ADD58C,3.2032*%
%ADD59C,1.2532*%
%ADD60C,1.8032*%
%ADD61R,1.8032X1.8032*%
%ADD62O,1.8032X1.2032*%
%ADD63O,2.3032X1.2032*%
%ADD64C,1.0532*%
%ADD65R,2.0032X2.0032*%
%ADD66C,2.0032*%
%ADD67R,1.8032X1.8032*%
%ADD68O,22.2032X0.7032*%
%ADD69C,0.6532*%
D17*
X743000Y66747D02*
D03*
D18*
X752500D02*
D03*
X762000D02*
D03*
Y88253D02*
D03*
X743000D02*
D03*
D38*
X748250Y110000D02*
D03*
X766750D02*
D03*
X708250D02*
D03*
X726750D02*
D03*
X676750D02*
D03*
X658250D02*
D03*
X743250Y50000D02*
D03*
X761750D02*
D03*
X595750Y352250D02*
D03*
X577250D02*
D03*
X685750D02*
D03*
X667250D02*
D03*
X775750D02*
D03*
X757250D02*
D03*
X884250Y235000D02*
D03*
X865750D02*
D03*
X764250Y270000D02*
D03*
X745750D02*
D03*
X708250D02*
D03*
X726750D02*
D03*
X660750D02*
D03*
X679250D02*
D03*
X608250Y240000D02*
D03*
X626750D02*
D03*
X606750Y137500D02*
D03*
X588250D02*
D03*
X405750Y67500D02*
D03*
X424250D02*
D03*
X246750Y145000D02*
D03*
X228250D02*
D03*
X371750Y187500D02*
D03*
X353250D02*
D03*
X441750Y142500D02*
D03*
X423250D02*
D03*
X228250Y15000D02*
D03*
X246750D02*
D03*
X865750Y180000D02*
D03*
X884250D02*
D03*
D39*
X722500Y84250D02*
D03*
Y65750D02*
D03*
X687500D02*
D03*
Y84250D02*
D03*
X782500Y158250D02*
D03*
Y176750D02*
D03*
Y216750D02*
D03*
Y198250D02*
D03*
X592500Y200750D02*
D03*
Y219250D02*
D03*
X587500Y158250D02*
D03*
Y176750D02*
D03*
X305000Y80750D02*
D03*
Y99250D02*
D03*
X282500Y80750D02*
D03*
Y99250D02*
D03*
X350000Y113250D02*
D03*
Y131750D02*
D03*
X372500Y113250D02*
D03*
Y131750D02*
D03*
X545000Y103250D02*
D03*
Y121750D02*
D03*
X517500Y103250D02*
D03*
Y121750D02*
D03*
X490000Y103250D02*
D03*
Y121750D02*
D03*
X826500Y331500D02*
D03*
Y313000D02*
D03*
X736500Y331500D02*
D03*
Y313000D02*
D03*
X646500Y331500D02*
D03*
Y313000D02*
D03*
X556500Y331500D02*
D03*
Y313000D02*
D03*
D40*
X600000Y85500D02*
D03*
Y64500D02*
D03*
X620000D02*
D03*
Y85500D02*
D03*
X535000Y159500D02*
D03*
Y180500D02*
D03*
X495000Y159500D02*
D03*
Y180500D02*
D03*
X627500Y178000D02*
D03*
Y157000D02*
D03*
X607500Y178000D02*
D03*
Y157000D02*
D03*
D41*
X637750Y84500D02*
D03*
Y75000D02*
D03*
Y65500D02*
D03*
X667250D02*
D03*
Y84500D02*
D03*
X252250Y122000D02*
D03*
Y103000D02*
D03*
X222750D02*
D03*
Y112500D02*
D03*
Y122000D02*
D03*
D42*
X690950Y462010D02*
D03*
X738950D02*
D03*
X690950Y382010D02*
D03*
X738950Y382010D02*
D03*
X780950Y462010D02*
D03*
X828950D02*
D03*
X780950Y382010D02*
D03*
X828950Y382010D02*
D03*
X600950Y462010D02*
D03*
X648950D02*
D03*
X600950Y382010D02*
D03*
X648950Y382010D02*
D03*
X510950Y462010D02*
D03*
X558950D02*
D03*
X510950Y382010D02*
D03*
X558950Y382010D02*
D03*
D43*
X531000Y352250D02*
D03*
X552000D02*
D03*
X621000D02*
D03*
X642000D02*
D03*
X711000D02*
D03*
X732000D02*
D03*
X801000D02*
D03*
X822000D02*
D03*
X640500Y270000D02*
D03*
X619500D02*
D03*
X525500Y237500D02*
D03*
X504500D02*
D03*
X422000Y205000D02*
D03*
X443000D02*
D03*
X422000Y185000D02*
D03*
X443000D02*
D03*
X443000Y162500D02*
D03*
X422000D02*
D03*
X371750Y158000D02*
D03*
X350750D02*
D03*
X923000Y310000D02*
D03*
X902000D02*
D03*
X923000Y327500D02*
D03*
X902000D02*
D03*
X923000Y345000D02*
D03*
X902000D02*
D03*
X923000Y362500D02*
D03*
X902000D02*
D03*
D44*
X927250Y175500D02*
D03*
Y167500D02*
D03*
Y224500D02*
D03*
Y232500D02*
D03*
D45*
Y192500D02*
D03*
Y187500D02*
D03*
Y182500D02*
D03*
Y207500D02*
D03*
Y212500D02*
D03*
Y217500D02*
D03*
Y202500D02*
D03*
Y197500D02*
D03*
D46*
X367500Y72500D02*
D03*
X332500D02*
D03*
D47*
X625500Y199000D02*
D03*
Y221000D02*
D03*
X609500Y199000D02*
D03*
Y221000D02*
D03*
D48*
X225500Y35500D02*
D03*
Y54500D02*
D03*
X249500D02*
D03*
Y45000D02*
D03*
Y35500D02*
D03*
D49*
X897000Y197500D02*
D03*
Y202500D02*
D03*
Y207500D02*
D03*
Y212500D02*
D03*
Y217500D02*
D03*
X853000Y197500D02*
D03*
Y202500D02*
D03*
Y207500D02*
D03*
Y212500D02*
D03*
Y217500D02*
D03*
D50*
X404000Y169500D02*
D03*
X397500D02*
D03*
X391000D02*
D03*
Y150500D02*
D03*
X397500D02*
D03*
X404000D02*
D03*
D51*
X388750Y124050D02*
D03*
Y111350D02*
D03*
Y98650D02*
D03*
Y85950D02*
D03*
X441250Y124050D02*
D03*
Y111350D02*
D03*
Y98650D02*
D03*
Y85950D02*
D03*
D52*
X536000Y335000D02*
D03*
X526500D02*
D03*
X517000D02*
D03*
Y309500D02*
D03*
X536000D02*
D03*
X626000Y335000D02*
D03*
X616500D02*
D03*
X607000D02*
D03*
Y309500D02*
D03*
X626000D02*
D03*
X716000Y335000D02*
D03*
X706500D02*
D03*
X697000D02*
D03*
Y309500D02*
D03*
X716000D02*
D03*
X806000Y335000D02*
D03*
X796500D02*
D03*
X787000D02*
D03*
Y309500D02*
D03*
X806000D02*
D03*
D53*
X593000Y334500D02*
D03*
X586500D02*
D03*
X580000D02*
D03*
Y310000D02*
D03*
X593000D02*
D03*
X670000Y310000D02*
D03*
X676500D02*
D03*
X683000D02*
D03*
Y334500D02*
D03*
X670000D02*
D03*
X760000Y310000D02*
D03*
X766500D02*
D03*
X773000D02*
D03*
Y334500D02*
D03*
X760000D02*
D03*
D54*
X649500Y225000D02*
D03*
Y220000D02*
D03*
Y215000D02*
D03*
Y210000D02*
D03*
Y205000D02*
D03*
Y200000D02*
D03*
Y195000D02*
D03*
Y190000D02*
D03*
Y185000D02*
D03*
Y180000D02*
D03*
Y175000D02*
D03*
Y170000D02*
D03*
Y165000D02*
D03*
Y160000D02*
D03*
Y155000D02*
D03*
Y150000D02*
D03*
X760500D02*
D03*
Y155000D02*
D03*
Y160000D02*
D03*
Y165000D02*
D03*
Y170000D02*
D03*
Y175000D02*
D03*
Y180000D02*
D03*
Y185000D02*
D03*
Y190000D02*
D03*
Y195000D02*
D03*
Y200000D02*
D03*
Y205000D02*
D03*
Y210000D02*
D03*
Y215000D02*
D03*
Y220000D02*
D03*
Y225000D02*
D03*
D55*
X667500Y132000D02*
D03*
X672500D02*
D03*
X677500D02*
D03*
X682500D02*
D03*
X687500D02*
D03*
X692500D02*
D03*
X697500D02*
D03*
X702500D02*
D03*
X707500D02*
D03*
X712500D02*
D03*
X717500D02*
D03*
X722500D02*
D03*
X727500D02*
D03*
X732500D02*
D03*
X737500D02*
D03*
X742500D02*
D03*
Y243000D02*
D03*
X737500D02*
D03*
X732500D02*
D03*
X727500D02*
D03*
X722500D02*
D03*
X717500D02*
D03*
X712500D02*
D03*
X707500D02*
D03*
X702500D02*
D03*
X697500D02*
D03*
X692500D02*
D03*
X687500D02*
D03*
X682500D02*
D03*
X677500D02*
D03*
X672500D02*
D03*
X667500D02*
D03*
D56*
X222250Y80000D02*
D03*
X252750D02*
D03*
D57*
X544500Y218500D02*
D03*
X535000Y196500D02*
D03*
X525500Y218500D02*
D03*
X504500D02*
D03*
X495000Y196500D02*
D03*
X485500Y218500D02*
D03*
D58*
X25000Y25000D02*
D03*
X975000D02*
D03*
Y475000D02*
D03*
X25000D02*
D03*
D59*
X966350Y310909D02*
D03*
Y323609D02*
D03*
X953650Y310909D02*
D03*
Y323609D02*
D03*
X966350Y336309D02*
D03*
Y349009D02*
D03*
X953650Y336309D02*
D03*
Y349009D02*
D03*
X966350Y361709D02*
D03*
X953650D02*
D03*
X868426Y159004D02*
D03*
X881126D02*
D03*
X868426Y146304D02*
D03*
X881126D02*
D03*
D60*
X925200Y390000D02*
D03*
X822500Y139800D02*
D03*
D61*
X899800Y390000D02*
D03*
D62*
X978200Y156800D02*
D03*
Y243200D02*
D03*
D63*
X936400D02*
D03*
Y156800D02*
D03*
D64*
X941700Y228900D02*
D03*
Y171100D02*
D03*
D65*
X847600Y55880D02*
D03*
X101600D02*
D03*
D66*
X898400D02*
D03*
X152400D02*
D03*
D67*
X822500Y165200D02*
D03*
D68*
X158450Y219760D02*
D03*
D69*
X606806Y200152D02*
D03*
X705612Y53594D02*
D03*
X234188Y35306D02*
D03*
X241046Y44958D02*
D03*
X225500Y47296D02*
D03*
X401828Y142748D02*
D03*
X368345Y142520D02*
D03*
X725170Y312928D02*
D03*
X786892Y326898D02*
D03*
X772922Y318262D02*
D03*
X837184Y312928D02*
D03*
Y331470D02*
D03*
X792988Y352298D02*
D03*
X786638D02*
D03*
X517398Y133858D02*
D03*
X531114D02*
D03*
X503682D02*
D03*
X544830D02*
D03*
X489966D02*
D03*
X973074Y217424D02*
D03*
Y187198D02*
D03*
X886206Y207518D02*
D03*
X884682Y168402D02*
D03*
X854710Y179832D02*
D03*
Y235204D02*
D03*
X726694Y258826D02*
D03*
X764540Y258572D02*
D03*
X745490D02*
D03*
X679196Y259080D02*
D03*
X683006Y301244D02*
D03*
X657860Y313436D02*
D03*
Y331724D02*
D03*
X612648Y352044D02*
D03*
X656336Y352298D02*
D03*
X702564Y352044D02*
D03*
X695960D02*
D03*
X757428Y363220D02*
D03*
X747776Y331724D02*
D03*
X780796Y395478D02*
D03*
Y450088D02*
D03*
X691134Y395224D02*
D03*
Y449834D02*
D03*
X600964Y395224D02*
D03*
Y449834D02*
D03*
X117625Y355750D02*
D03*
X56896Y278638D02*
D03*
X105918D02*
D03*
X120142D02*
D03*
X134366D02*
D03*
X140970D02*
D03*
X162052D02*
D03*
X168910D02*
D03*
X196850D02*
D03*
X203962D02*
D03*
X211074D02*
D03*
X260096D02*
D03*
X252984D02*
D03*
X225044D02*
D03*
X217932D02*
D03*
X107442Y385572D02*
D03*
X127508D02*
D03*
X237236D02*
D03*
X257556D02*
D03*
X217424Y365252D02*
D03*
X791718Y216408D02*
D03*
X791972Y158242D02*
D03*
Y187452D02*
D03*
X748792Y99822D02*
D03*
X711708Y84074D02*
D03*
X698246Y84328D02*
D03*
X687070Y109982D02*
D03*
X628396Y269748D02*
D03*
X593090Y301498D02*
D03*
X567944Y313690D02*
D03*
X577850Y325120D02*
D03*
X606298Y352044D02*
D03*
X566166Y351536D02*
D03*
X567944Y331470D02*
D03*
X531114Y363220D02*
D03*
X517144Y342646D02*
D03*
X511048Y449834D02*
D03*
Y395224D02*
D03*
X217678Y145034D02*
D03*
X401828Y176784D02*
D03*
X383032Y187706D02*
D03*
X516128Y218440D02*
D03*
X607568Y167640D02*
D03*
X485394Y232664D02*
D03*
X895604Y235204D02*
D03*
X951484Y217424D02*
D03*
Y187198D02*
D03*
X258318Y15240D02*
D03*
X419608Y85852D02*
D03*
X328930Y114554D02*
D03*
X646938Y109728D02*
D03*
X696976Y109982D02*
D03*
X778256D02*
D03*
X772922Y54864D02*
D03*
X710692Y66040D02*
D03*
X699008D02*
D03*
X624840Y75184D02*
D03*
X600202Y74930D02*
D03*
X747522Y219964D02*
D03*
X737616Y143002D02*
D03*
X672592D02*
D03*
X407670Y35052D02*
D03*
X662305Y160020D02*
D03*
X599694Y92964D02*
D03*
X599948Y101600D02*
D03*
X627380Y148082D02*
D03*
X672465Y231394D02*
D03*
X405003Y245999D02*
D03*
X405257Y258699D02*
D03*
X649478Y258572D02*
D03*
X391033Y245872D02*
D03*
X390906Y254508D02*
D03*
X148336Y279019D02*
D03*
X179832Y267716D02*
D03*
X191389Y262287D02*
D03*
X667639Y255905D02*
D03*
X649478Y230886D02*
D03*
X636270Y194818D02*
D03*
X576072Y177038D02*
D03*
X698246Y269240D02*
D03*
X197612Y365252D02*
D03*
X177546D02*
D03*
X576834Y137254D02*
D03*
X592582Y230886D02*
D03*
X576326Y158242D02*
D03*
X638556Y240030D02*
D03*
X411734Y204978D02*
D03*
X411988Y142494D02*
D03*
X399288Y98806D02*
D03*
X397510Y162052D02*
D03*
X341630Y187452D02*
D03*
X340360Y157734D02*
D03*
X338836Y131572D02*
D03*
X304800Y110744D02*
D03*
X282194D02*
D03*
X211582Y112522D02*
D03*
X736250Y296375D02*
D03*
X690372Y326644D02*
D03*
X615950Y319786D02*
D03*
X740410Y223520D02*
D03*
X752348Y240284D02*
D03*
X590550Y320040D02*
D03*
X940344Y202438D02*
D03*
X940562Y192532D02*
D03*
M02*
