G04*
G04 #@! TF.GenerationSoftware,Altium Limited,Altium Designer,20.2.6 (244)*
G04*
G04 Layer_Color=16711935*
%FSLAX44Y44*%
%MOMM*%
G71*
G04*
G04 #@! TF.SameCoordinates,5F1E5769-8BC1-42D3-870D-05276483D41C*
G04*
G04*
G04 #@! TF.FilePolarity,Positive*
G04*
G01*
G75*
%ADD14C,0.2000*%
G36*
X749523Y92764D02*
X749634D01*
X749754Y92755D01*
X749884Y92746D01*
X750179Y92718D01*
X750485Y92672D01*
X750780Y92616D01*
X750919Y92579D01*
X751058Y92533D01*
X751067D01*
X751086Y92524D01*
X751123Y92506D01*
X751169Y92487D01*
X751233Y92469D01*
X751298Y92431D01*
X751455Y92358D01*
X751622Y92265D01*
X751807Y92145D01*
X751973Y92006D01*
X752130Y91840D01*
Y91831D01*
X752149Y91821D01*
X752167Y91793D01*
X752186Y91757D01*
X752214Y91710D01*
X752251Y91664D01*
X752315Y91525D01*
X752380Y91359D01*
X752445Y91165D01*
X752482Y90934D01*
X752500Y90684D01*
Y90592D01*
X752491Y90527D01*
X752482Y90453D01*
X752463Y90360D01*
X752445Y90259D01*
X752417Y90148D01*
X752380Y90037D01*
X752343Y89917D01*
X752287Y89796D01*
X752223Y89676D01*
X752149Y89556D01*
X752056Y89436D01*
X751955Y89325D01*
X751844Y89223D01*
X751834Y89214D01*
X751807Y89195D01*
X751760Y89168D01*
X751686Y89122D01*
X751603Y89075D01*
X751492Y89029D01*
X751363Y88964D01*
X751215Y88909D01*
X751049Y88853D01*
X750854Y88798D01*
X750642Y88743D01*
X750401Y88696D01*
X750143Y88650D01*
X749865Y88622D01*
X749560Y88604D01*
X749236Y88595D01*
X749227D01*
X749190D01*
X749126D01*
X749052D01*
X748950Y88604D01*
X748839D01*
X748719Y88613D01*
X748580Y88622D01*
X748293Y88650D01*
X747988Y88696D01*
X747683Y88752D01*
X747544Y88789D01*
X747406Y88826D01*
X747396D01*
X747378Y88835D01*
X747341Y88853D01*
X747295Y88872D01*
X747230Y88890D01*
X747165Y88927D01*
X747008Y89001D01*
X746842Y89094D01*
X746666Y89214D01*
X746490Y89353D01*
X746342Y89519D01*
Y89528D01*
X746324Y89538D01*
X746305Y89565D01*
X746287Y89602D01*
X746250Y89649D01*
X746222Y89704D01*
X746148Y89843D01*
X746084Y90009D01*
X746019Y90203D01*
X745982Y90434D01*
X745964Y90684D01*
Y90767D01*
X745973Y90869D01*
X745991Y90989D01*
X746019Y91128D01*
X746056Y91276D01*
X746102Y91433D01*
X746176Y91581D01*
Y91590D01*
X746185Y91599D01*
X746213Y91646D01*
X746259Y91720D01*
X746324Y91812D01*
X746416Y91914D01*
X746518Y92025D01*
X746638Y92126D01*
X746777Y92228D01*
X746796Y92237D01*
X746842Y92274D01*
X746925Y92311D01*
X747045Y92376D01*
X747184Y92431D01*
X747341Y92506D01*
X747526Y92570D01*
X747729Y92626D01*
X747739D01*
X747757Y92635D01*
X747785Y92644D01*
X747831Y92653D01*
X747887Y92663D01*
X747951Y92672D01*
X748035Y92690D01*
X748127Y92700D01*
X748229Y92718D01*
X748340Y92727D01*
X748469Y92737D01*
X748598Y92755D01*
X748746Y92764D01*
X748894D01*
X749061Y92774D01*
X749236D01*
X749246D01*
X749283D01*
X749347D01*
X749421D01*
X749523Y92764D01*
D02*
G37*
G36*
X752389Y85793D02*
X747387D01*
X747396Y85784D01*
X747433Y85738D01*
X747489Y85682D01*
X747554Y85590D01*
X747637Y85488D01*
X747729Y85359D01*
X747831Y85211D01*
X747933Y85044D01*
Y85035D01*
X747942Y85026D01*
X747979Y84970D01*
X748025Y84878D01*
X748081Y84767D01*
X748145Y84637D01*
X748210Y84499D01*
X748275Y84360D01*
X748330Y84221D01*
X747572D01*
Y84231D01*
X747554Y84249D01*
X747544Y84286D01*
X747517Y84332D01*
X747489Y84388D01*
X747452Y84452D01*
X747359Y84610D01*
X747258Y84795D01*
X747128Y84979D01*
X746981Y85174D01*
X746823Y85368D01*
X746814Y85377D01*
X746805Y85386D01*
X746777Y85414D01*
X746749Y85451D01*
X746657Y85534D01*
X746546Y85645D01*
X746416Y85756D01*
X746269Y85876D01*
X746121Y85978D01*
X745964Y86070D01*
Y86579D01*
X752389D01*
Y85793D01*
D02*
G37*
G36*
X749930Y82520D02*
X750022D01*
X750133Y82511D01*
X750244Y82502D01*
X750494Y82474D01*
X750753Y82437D01*
X751002Y82381D01*
X751123Y82345D01*
X751233Y82308D01*
X751243D01*
X751261Y82298D01*
X751289Y82280D01*
X751326Y82261D01*
X751428Y82206D01*
X751557Y82123D01*
X751705Y82012D01*
X751853Y81882D01*
X752010Y81716D01*
X752149Y81512D01*
Y81503D01*
X752167Y81485D01*
X752177Y81457D01*
X752204Y81411D01*
X752232Y81355D01*
X752260Y81281D01*
X752287Y81207D01*
X752324Y81115D01*
X752361Y81013D01*
X752389Y80902D01*
X752417Y80782D01*
X752445Y80643D01*
X752463Y80505D01*
X752482Y80357D01*
X752500Y80024D01*
Y79941D01*
X752491Y79876D01*
Y79802D01*
X752482Y79710D01*
X752472Y79608D01*
X752463Y79506D01*
X752426Y79275D01*
X752371Y79025D01*
X752297Y78785D01*
X752195Y78554D01*
Y78545D01*
X752177Y78526D01*
X752158Y78498D01*
X752140Y78461D01*
X752066Y78360D01*
X751964Y78239D01*
X751834Y78101D01*
X751686Y77971D01*
X751502Y77842D01*
X751298Y77740D01*
X751289D01*
X751270Y77731D01*
X751233Y77722D01*
X751187Y77703D01*
X751132Y77685D01*
X751058Y77666D01*
X750975Y77639D01*
X750873Y77620D01*
X750762Y77601D01*
X750642Y77574D01*
X750512Y77555D01*
X750374Y77537D01*
X750216Y77518D01*
X750050Y77509D01*
X749874Y77500D01*
X749689D01*
X745991D01*
Y78350D01*
X749689D01*
X749699D01*
X749726D01*
X749773D01*
X749828D01*
X749893Y78360D01*
X749976D01*
X750152Y78369D01*
X750355Y78387D01*
X750558Y78415D01*
X750753Y78452D01*
X750836Y78471D01*
X750919Y78498D01*
X750938Y78508D01*
X750984Y78526D01*
X751049Y78572D01*
X751141Y78628D01*
X751233Y78692D01*
X751335Y78785D01*
X751437Y78896D01*
X751520Y79025D01*
X751529Y79044D01*
X751557Y79090D01*
X751585Y79173D01*
X751622Y79284D01*
X751668Y79414D01*
X751696Y79580D01*
X751723Y79756D01*
X751733Y79950D01*
Y80042D01*
X751723Y80098D01*
Y80181D01*
X751714Y80264D01*
X751677Y80468D01*
X751631Y80690D01*
X751557Y80902D01*
X751455Y81106D01*
X751391Y81198D01*
X751317Y81281D01*
X751307Y81291D01*
X751298Y81300D01*
X751270Y81318D01*
X751233Y81346D01*
X751178Y81374D01*
X751123Y81411D01*
X751039Y81448D01*
X750956Y81485D01*
X750854Y81522D01*
X750734Y81549D01*
X750595Y81586D01*
X750448Y81614D01*
X750281Y81642D01*
X750106Y81660D01*
X749902Y81679D01*
X749689D01*
X745991D01*
Y82529D01*
X749689D01*
X749699D01*
X749736D01*
X749782D01*
X749847D01*
X749930Y82520D01*
D02*
G37*
%LPC*%
G36*
X749523Y91969D02*
X749236D01*
X749227D01*
X749218D01*
X749172D01*
X749089D01*
X748978Y91960D01*
X748857D01*
X748709Y91951D01*
X748552Y91941D01*
X748377Y91923D01*
X748025Y91877D01*
X747850Y91849D01*
X747683Y91812D01*
X747526Y91775D01*
X747378Y91720D01*
X747249Y91664D01*
X747138Y91599D01*
X747128D01*
X747119Y91581D01*
X747091Y91562D01*
X747054Y91535D01*
X746971Y91452D01*
X746870Y91350D01*
X746777Y91211D01*
X746694Y91054D01*
X746657Y90971D01*
X746629Y90878D01*
X746620Y90777D01*
X746611Y90675D01*
Y90619D01*
X746620Y90582D01*
X746638Y90481D01*
X746666Y90360D01*
X746722Y90222D01*
X746805Y90074D01*
X746860Y90000D01*
X746916Y89926D01*
X746990Y89861D01*
X747073Y89796D01*
X747082D01*
X747101Y89778D01*
X747138Y89760D01*
X747184Y89732D01*
X747258Y89704D01*
X747341Y89667D01*
X747443Y89639D01*
X747563Y89602D01*
X747702Y89565D01*
X747859Y89528D01*
X748035Y89491D01*
X748229Y89464D01*
X748450Y89436D01*
X748691Y89417D01*
X748950Y89408D01*
X749236Y89399D01*
X749255D01*
X749301D01*
X749384D01*
X749495Y89408D01*
X749615D01*
X749763Y89417D01*
X749921Y89427D01*
X750087Y89445D01*
X750448Y89491D01*
X750623Y89519D01*
X750790Y89556D01*
X750947Y89593D01*
X751095Y89649D01*
X751224Y89704D01*
X751335Y89769D01*
X751344D01*
X751354Y89787D01*
X751418Y89833D01*
X751502Y89917D01*
X751594Y90018D01*
X751686Y90157D01*
X751770Y90314D01*
X751834Y90490D01*
X751844Y90582D01*
X751853Y90684D01*
Y90739D01*
X751844Y90777D01*
X751825Y90869D01*
X751788Y90998D01*
X751723Y91137D01*
X751631Y91294D01*
X751575Y91368D01*
X751502Y91442D01*
X751428Y91516D01*
X751335Y91590D01*
X751326D01*
X751307Y91609D01*
X751280Y91627D01*
X751233Y91646D01*
X751169Y91683D01*
X751086Y91710D01*
X750993Y91747D01*
X750882Y91784D01*
X750743Y91812D01*
X750595Y91849D01*
X750420Y91886D01*
X750235Y91914D01*
X750013Y91932D01*
X749782Y91951D01*
X749523Y91969D01*
D02*
G37*
%LPD*%
D14*
X737000Y59969D02*
Y95031D01*
X768000D01*
Y59969D02*
Y95031D01*
X737000Y59969D02*
X768000D01*
M02*
