G04*
G04 #@! TF.GenerationSoftware,Altium Limited,Altium Designer,20.2.6 (244)*
G04*
G04 Layer_Color=255*
%FSLAX44Y44*%
%MOMM*%
G71*
G04*
G04 #@! TF.SameCoordinates,5F1E5769-8BC1-42D3-870D-05276483D41C*
G04*
G04*
G04 #@! TF.FilePolarity,Positive*
G04*
G01*
G75*
%ADD19R,1.5000X1.4500*%
%ADD20R,1.5000X1.2000*%
%ADD23R,1.2000X1.5000*%
%ADD75C,3.0000*%
%ADD76C,1.0500*%
%ADD77C,1.6000*%
%ADD78R,1.6000X1.6000*%
%ADD79O,1.6000X1.0000*%
%ADD80O,2.1000X1.0000*%
%ADD81C,0.8500*%
%ADD82R,1.8000X1.8000*%
%ADD83C,1.8000*%
%ADD84R,1.6000X1.6000*%
%ADD85O,22.0000X0.5000*%
%ADD104R,0.4000X2.5000*%
D19*
X237500Y374250D02*
D03*
Y355750D02*
D03*
X257500Y374250D02*
D03*
Y355750D02*
D03*
X87500D02*
D03*
Y374250D02*
D03*
X67500D02*
D03*
Y355750D02*
D03*
X127500Y374250D02*
D03*
Y355750D02*
D03*
X107500D02*
D03*
Y374250D02*
D03*
D20*
X217500Y354500D02*
D03*
Y375500D02*
D03*
X177500Y354500D02*
D03*
Y375500D02*
D03*
X197500Y354500D02*
D03*
Y375500D02*
D03*
D23*
X962000Y217500D02*
D03*
X983000D02*
D03*
X962000Y187500D02*
D03*
X983000D02*
D03*
D75*
X25000Y25000D02*
D03*
X975000D02*
D03*
Y475000D02*
D03*
X25000D02*
D03*
D76*
X966350Y310909D02*
D03*
Y323609D02*
D03*
X953650Y310909D02*
D03*
Y323609D02*
D03*
X966350Y336309D02*
D03*
Y349009D02*
D03*
X953650Y336309D02*
D03*
Y349009D02*
D03*
X966350Y361709D02*
D03*
X953650D02*
D03*
X868426Y159004D02*
D03*
X881126D02*
D03*
X868426Y146304D02*
D03*
X881126D02*
D03*
D77*
X925200Y390000D02*
D03*
X822500Y139800D02*
D03*
D78*
X899800Y390000D02*
D03*
D79*
X978200Y156800D02*
D03*
Y243200D02*
D03*
D80*
X936400D02*
D03*
Y156800D02*
D03*
D81*
X941700Y228900D02*
D03*
Y171100D02*
D03*
D82*
X847600Y55880D02*
D03*
X101600D02*
D03*
D83*
X898400D02*
D03*
X152400D02*
D03*
D84*
X822500Y165200D02*
D03*
D85*
X158450Y219760D02*
D03*
D104*
X259950Y294760D02*
D03*
X238950D02*
D03*
X196950D02*
D03*
X175950D02*
D03*
X217950D02*
D03*
X119950D02*
D03*
X140950D02*
D03*
X98950D02*
D03*
X252950D02*
D03*
X245950D02*
D03*
X231950D02*
D03*
X224950D02*
D03*
X203950D02*
D03*
X210950D02*
D03*
X189950D02*
D03*
X182950D02*
D03*
X161950D02*
D03*
X168950D02*
D03*
X154950D02*
D03*
X147950D02*
D03*
X126950D02*
D03*
X133950D02*
D03*
X112950D02*
D03*
X105950D02*
D03*
X91950D02*
D03*
X56950D02*
D03*
X84950D02*
D03*
X63950D02*
D03*
X70950D02*
D03*
X77950D02*
D03*
M02*
