G04*
G04 #@! TF.GenerationSoftware,Altium Limited,Altium Designer,20.2.6 (244)*
G04*
G04 Layer_Physical_Order=4*
G04 Layer_Color=16711680*
%FSLAX44Y44*%
%MOMM*%
G71*
G04*
G04 #@! TF.SameCoordinates,5F1E5769-8BC1-42D3-870D-05276483D41C*
G04*
G04*
G04 #@! TF.FilePolarity,Positive*
G04*
G01*
G75*
%ADD15C,0.7620*%
%ADD19R,1.5000X1.4500*%
%ADD20R,1.5000X1.2000*%
%ADD23R,1.2000X1.5000*%
%ADD70C,0.3810*%
%ADD71C,0.5080*%
%ADD72C,0.1270*%
%ADD74C,0.1524*%
%ADD75C,3.0000*%
%ADD76C,1.0500*%
%ADD77C,1.6000*%
%ADD78R,1.6000X1.6000*%
%ADD79O,1.6000X1.0000*%
%ADD80O,2.1000X1.0000*%
%ADD81C,0.8500*%
%ADD82R,1.8000X1.8000*%
%ADD83C,1.8000*%
%ADD84R,1.6000X1.6000*%
%ADD85O,22.0000X0.5000*%
%ADD86C,0.4500*%
%ADD104R,0.4000X2.5000*%
G36*
X1000000Y480000D02*
Y20000D01*
X980000Y0D01*
X20000D01*
X0Y20000D01*
Y480000D01*
X20000Y500000D01*
X980000D01*
X1000000Y480000D01*
D02*
G37*
%LPC*%
G36*
X978810Y492174D02*
Y478810D01*
X992173D01*
X991283Y481745D01*
X989654Y484792D01*
X987463Y487463D01*
X984792Y489655D01*
X981745Y491283D01*
X978810Y492174D01*
D02*
G37*
G36*
X971190D02*
X968255Y491283D01*
X965208Y489655D01*
X962537Y487463D01*
X960346Y484792D01*
X958717Y481745D01*
X957827Y478810D01*
X971190D01*
Y492174D01*
D02*
G37*
G36*
X28810D02*
Y478810D01*
X42174D01*
X41283Y481745D01*
X39655Y484792D01*
X37463Y487463D01*
X34792Y489655D01*
X31745Y491283D01*
X28810Y492174D01*
D02*
G37*
G36*
X21190D02*
X18255Y491283D01*
X15208Y489655D01*
X12537Y487463D01*
X10345Y484792D01*
X8717Y481745D01*
X7826Y478810D01*
X21190D01*
Y492174D01*
D02*
G37*
G36*
X992173Y471190D02*
X978810D01*
Y457826D01*
X981745Y458717D01*
X984792Y460345D01*
X987463Y462537D01*
X989654Y465208D01*
X991283Y468255D01*
X992173Y471190D01*
D02*
G37*
G36*
X971190D02*
X957827D01*
X958717Y468255D01*
X960346Y465208D01*
X962537Y462537D01*
X965208Y460345D01*
X968255Y458717D01*
X971190Y457826D01*
Y471190D01*
D02*
G37*
G36*
X42174D02*
X28810D01*
Y457826D01*
X31745Y458717D01*
X34792Y460345D01*
X37463Y462537D01*
X39655Y465208D01*
X41283Y468255D01*
X42174Y471190D01*
D02*
G37*
G36*
X21190D02*
X7826D01*
X8717Y468255D01*
X10345Y465208D01*
X12537Y462537D01*
X15208Y460345D01*
X18255Y458717D01*
X21190Y457826D01*
Y471190D01*
D02*
G37*
G36*
X131318Y388492D02*
Y385572D01*
X123698D01*
Y388492D01*
X122996Y387441D01*
X122624Y385572D01*
X122734Y385022D01*
X121928Y384040D01*
X113022D01*
X112216Y385022D01*
X112326Y385572D01*
X111954Y387441D01*
X111252Y388492D01*
Y385572D01*
X103632D01*
Y388492D01*
X102930Y387441D01*
X102558Y385572D01*
X102668Y385022D01*
X101862Y384040D01*
X97460D01*
Y382963D01*
X96270Y382770D01*
Y382770D01*
X78730D01*
Y365730D01*
X92417D01*
X92544Y365540D01*
X91865Y364270D01*
X78730D01*
Y347230D01*
X85558D01*
Y344590D01*
X76577Y335609D01*
X76156Y334979D01*
X76008Y334236D01*
Y309428D01*
X75110Y308530D01*
X73790D01*
X72892Y309428D01*
Y335196D01*
X72892Y335196D01*
X72744Y335939D01*
X72323Y336569D01*
X72323Y336570D01*
X69506Y339386D01*
Y347230D01*
X76270D01*
Y364270D01*
X63135D01*
X62456Y365540D01*
X62583Y365730D01*
X76270D01*
Y382770D01*
X58730D01*
Y368477D01*
X56722Y366468D01*
X56301Y365838D01*
X56153Y365095D01*
Y340685D01*
X56301Y339942D01*
X56722Y339312D01*
X62008Y334025D01*
Y310856D01*
X61490Y309800D01*
X60760D01*
Y308531D01*
X60679D01*
Y294760D01*
X56950D01*
Y290950D01*
X52410D01*
Y282448D01*
X56896D01*
Y278638D01*
X60706D01*
Y275718D01*
X61408Y276769D01*
X61780Y278638D01*
X61565Y279720D01*
X62303Y280990D01*
X67220D01*
Y280990D01*
X67680D01*
Y280990D01*
X73410D01*
X74220Y280990D01*
X75490Y280990D01*
X81220D01*
Y280990D01*
X81680D01*
Y280990D01*
X88220D01*
X88220Y280990D01*
X88680D01*
Y280990D01*
X89490Y280990D01*
X95220D01*
Y280990D01*
X95680D01*
Y280990D01*
X100306D01*
X100323Y280982D01*
X101249Y279720D01*
X101034Y278638D01*
X101406Y276769D01*
X102108Y275718D01*
Y278638D01*
X109728D01*
Y275718D01*
X110430Y276769D01*
X110802Y278638D01*
X110587Y279720D01*
X111377Y280990D01*
X115410D01*
Y279720D01*
X115410D01*
X115258Y278638D01*
X115283Y278511D01*
X115630Y276769D01*
X116332Y275718D01*
Y278638D01*
X123952D01*
Y275718D01*
X124654Y276769D01*
X125026Y278638D01*
X124811Y279720D01*
X125737Y280982D01*
X125754Y280990D01*
X129410D01*
Y279720D01*
X129410Y279720D01*
X129482Y278638D01*
X129511Y278492D01*
X129854Y276769D01*
X130556Y275718D01*
Y278638D01*
X144780D01*
Y275718D01*
X144795Y275741D01*
X145798Y276481D01*
X146963Y275703D01*
X148336Y275430D01*
X149709Y275703D01*
X150874Y276481D01*
X151652Y277646D01*
X151925Y279019D01*
X151785Y279720D01*
X152623Y280931D01*
X152729Y280990D01*
X157108D01*
X157383Y279720D01*
X157168Y278638D01*
X157540Y276769D01*
X158242Y275718D01*
Y278638D01*
X172720D01*
Y275718D01*
X172738Y275745D01*
X174008Y275359D01*
Y271598D01*
X174156Y270855D01*
X174577Y270225D01*
X176383Y268418D01*
X176243Y267716D01*
X176516Y266343D01*
X177294Y265178D01*
X178459Y264400D01*
X179832Y264127D01*
X181205Y264400D01*
X182370Y265178D01*
X183094Y266262D01*
X183201Y266355D01*
X184503Y266648D01*
X187977Y263174D01*
X187800Y262287D01*
X188073Y260913D01*
X188851Y259749D01*
X190016Y258971D01*
X191389Y258698D01*
X192762Y258971D01*
X193927Y259749D01*
X194705Y260913D01*
X194978Y262287D01*
X194705Y263660D01*
X193927Y264825D01*
X192762Y265602D01*
X191389Y265876D01*
X190872Y265773D01*
X184892Y271752D01*
Y280990D01*
X186220D01*
Y280990D01*
X186680D01*
Y280990D01*
X191238D01*
X191255Y280982D01*
X192181Y279720D01*
X191966Y278638D01*
X192338Y276769D01*
X193040Y275718D01*
Y278638D01*
X228854D01*
Y275718D01*
X229556Y276769D01*
X229928Y278638D01*
X229713Y279720D01*
X230639Y280982D01*
X230656Y280990D01*
X235220Y280990D01*
X236490Y280990D01*
X241410D01*
X242220Y280990D01*
X243490Y280990D01*
X247530D01*
X248315Y279720D01*
X248100Y278638D01*
X248472Y276769D01*
X249174Y275718D01*
Y278638D01*
X260096D01*
Y282448D01*
X264490D01*
Y290950D01*
X259950D01*
Y294760D01*
X249221D01*
Y308531D01*
X249140D01*
Y309800D01*
X248410D01*
X247892Y310856D01*
Y333030D01*
X258929Y344067D01*
X259350Y344697D01*
X259498Y345440D01*
Y347230D01*
X266270D01*
X266270Y364270D01*
X267461Y364460D01*
X267540D01*
Y370440D01*
X257500D01*
Y378060D01*
X267540D01*
Y384040D01*
X263136D01*
X262330Y385022D01*
X262440Y385572D01*
X262068Y387441D01*
X261366Y388492D01*
Y385572D01*
X253746D01*
Y388492D01*
X253044Y387441D01*
X252672Y385572D01*
X252782Y385022D01*
X251976Y384040D01*
X242816D01*
X242010Y385022D01*
X242120Y385572D01*
X241748Y387441D01*
X241046Y388492D01*
Y385572D01*
X233426D01*
Y388492D01*
X232724Y387441D01*
X232352Y385572D01*
X232462Y385022D01*
X231656Y384040D01*
X221310D01*
Y375500D01*
X213690D01*
Y384040D01*
X207460D01*
Y382963D01*
X206270Y382770D01*
Y382770D01*
X188730D01*
Y368230D01*
X193727D01*
Y365252D01*
X194023Y363765D01*
X194508Y363040D01*
X193853Y361770D01*
X188730D01*
Y347230D01*
X195558D01*
Y345625D01*
X188577Y338643D01*
X181577Y331643D01*
X181155Y331013D01*
X181008Y330270D01*
Y308530D01*
X179680D01*
Y308530D01*
X179233D01*
X177964Y308565D01*
Y342095D01*
X178873Y343005D01*
X179294Y343635D01*
X179442Y344378D01*
X179442Y344378D01*
Y347230D01*
X186270D01*
Y361770D01*
X181305D01*
X180650Y363040D01*
X181135Y363765D01*
X181431Y365252D01*
Y368230D01*
X186270D01*
Y382770D01*
X168730D01*
Y368230D01*
X173661D01*
Y365252D01*
X173957Y363765D01*
X174442Y363040D01*
X173787Y361770D01*
X168730D01*
Y347230D01*
X175558D01*
Y345182D01*
X174649Y344273D01*
X174228Y343643D01*
X174080Y342900D01*
Y310826D01*
X173490Y309800D01*
X172760D01*
Y308531D01*
X172680D01*
Y294760D01*
X165140D01*
Y309800D01*
X158187D01*
Y313680D01*
X157941Y314919D01*
X157239Y315969D01*
X131110Y342099D01*
Y347230D01*
X136270D01*
Y364270D01*
X137461Y364460D01*
X137540D01*
Y370440D01*
X127500D01*
Y378060D01*
X137540D01*
Y384040D01*
X133088D01*
X132282Y385022D01*
X132392Y385572D01*
X132020Y387441D01*
X131318Y388492D01*
D02*
G37*
G36*
X909070Y399270D02*
X890530D01*
Y380730D01*
X909070D01*
Y399270D01*
D02*
G37*
G36*
X757428Y366809D02*
X756055Y366536D01*
X754890Y365758D01*
X754112Y364593D01*
X753839Y363220D01*
X754112Y361847D01*
X754890Y360682D01*
X756055Y359904D01*
X757428Y359631D01*
X758801Y359904D01*
X759966Y360682D01*
X760744Y361847D01*
X761017Y363220D01*
X760744Y364593D01*
X759966Y365758D01*
X758801Y366536D01*
X757428Y366809D01*
D02*
G37*
G36*
X531114D02*
X529741Y366536D01*
X528576Y365758D01*
X527798Y364593D01*
X527525Y363220D01*
X527798Y361847D01*
X528576Y360682D01*
X529741Y359904D01*
X531114Y359631D01*
X532487Y359904D01*
X533652Y360682D01*
X534430Y361847D01*
X534703Y363220D01*
X534430Y364593D01*
X533652Y365758D01*
X532487Y366536D01*
X531114Y366809D01*
D02*
G37*
G36*
X792988Y355887D02*
X791615Y355614D01*
X790625Y354953D01*
X790448Y355218D01*
Y354833D01*
X789672Y353672D01*
X789398Y352298D01*
X789672Y350924D01*
X790448Y349763D01*
Y349378D01*
X790625Y349643D01*
X791615Y348982D01*
X792988Y348709D01*
X794361Y348982D01*
X795526Y349760D01*
X796304Y350925D01*
X796577Y352298D01*
X796304Y353671D01*
X795526Y354836D01*
X794361Y355614D01*
X792988Y355887D01*
D02*
G37*
G36*
X612648Y355633D02*
X611275Y355360D01*
X610285Y354699D01*
X610108Y354964D01*
Y354579D01*
X609332Y353418D01*
X609058Y352044D01*
X609332Y350670D01*
X610108Y349509D01*
Y349124D01*
X610285Y349389D01*
X611275Y348728D01*
X612648Y348455D01*
X614021Y348728D01*
X615186Y349506D01*
X615964Y350671D01*
X616237Y352044D01*
X615964Y353417D01*
X615186Y354582D01*
X614021Y355360D01*
X612648Y355633D01*
D02*
G37*
G36*
X702564D02*
X701191Y355360D01*
X701060Y355272D01*
X700008Y354608D01*
X700007Y354608D01*
X699770Y354964D01*
Y354199D01*
X699248Y353418D01*
X698975Y352044D01*
X699248Y350670D01*
X699770Y349889D01*
Y349124D01*
X700007Y349480D01*
X700008Y349480D01*
X701060Y348815D01*
X701191Y348728D01*
X702564Y348455D01*
X703937Y348728D01*
X705102Y349506D01*
X705880Y350671D01*
X706153Y352044D01*
X705880Y353417D01*
X705102Y354582D01*
X703937Y355360D01*
X702564Y355633D01*
D02*
G37*
G36*
X656336Y355887D02*
X654963Y355614D01*
X653798Y354836D01*
X653020Y353671D01*
X652747Y352298D01*
X653020Y350925D01*
X653798Y349760D01*
X654963Y348982D01*
X656336Y348709D01*
X657709Y348982D01*
X658874Y349760D01*
X659652Y350925D01*
X659925Y352298D01*
X659652Y353671D01*
X658874Y354836D01*
X657709Y355614D01*
X656336Y355887D01*
D02*
G37*
G36*
X566166Y355125D02*
X564793Y354852D01*
X563628Y354074D01*
X562850Y352909D01*
X562577Y351536D01*
X562850Y350163D01*
X563628Y348998D01*
X564793Y348220D01*
X566166Y347947D01*
X567539Y348220D01*
X568704Y348998D01*
X569482Y350163D01*
X569755Y351536D01*
X569482Y352909D01*
X568704Y354074D01*
X567539Y354852D01*
X566166Y355125D01*
D02*
G37*
G36*
X747776Y335313D02*
X746403Y335040D01*
X745238Y334262D01*
X744460Y333097D01*
X744187Y331724D01*
X744460Y330351D01*
X745238Y329186D01*
X746403Y328408D01*
X747776Y328135D01*
X749149Y328408D01*
X750314Y329186D01*
X751092Y330351D01*
X751365Y331724D01*
X751092Y333097D01*
X750314Y334262D01*
X749149Y335040D01*
X747776Y335313D01*
D02*
G37*
G36*
X657860D02*
X656487Y335040D01*
X655322Y334262D01*
X654544Y333097D01*
X654271Y331724D01*
X654544Y330351D01*
X655322Y329186D01*
X656487Y328408D01*
X657860Y328135D01*
X659233Y328408D01*
X660398Y329186D01*
X661176Y330351D01*
X661449Y331724D01*
X661176Y333097D01*
X660398Y334262D01*
X659233Y335040D01*
X657860Y335313D01*
D02*
G37*
G36*
X837184Y335059D02*
X835811Y334786D01*
X834646Y334008D01*
X833868Y332843D01*
X833595Y331470D01*
X833868Y330097D01*
X834646Y328932D01*
X835811Y328154D01*
X837184Y327881D01*
X838557Y328154D01*
X839722Y328932D01*
X840500Y330097D01*
X840773Y331470D01*
X840500Y332843D01*
X839722Y334008D01*
X838557Y334786D01*
X837184Y335059D01*
D02*
G37*
G36*
X567944D02*
X566571Y334786D01*
X565406Y334008D01*
X564628Y332843D01*
X564355Y331470D01*
X564628Y330097D01*
X565406Y328932D01*
X566571Y328154D01*
X567944Y327881D01*
X569317Y328154D01*
X570482Y328932D01*
X571260Y330097D01*
X571533Y331470D01*
X571260Y332843D01*
X570482Y334008D01*
X569317Y334786D01*
X567944Y335059D01*
D02*
G37*
G36*
X590550Y323629D02*
X589177Y323356D01*
X588012Y322578D01*
X587234Y321413D01*
X586961Y320040D01*
X587234Y318667D01*
X588012Y317502D01*
X589177Y316724D01*
X590550Y316451D01*
X591923Y316724D01*
X593088Y317502D01*
X593316Y317844D01*
X613014D01*
X613412Y317248D01*
X614577Y316470D01*
X615950Y316197D01*
X617323Y316470D01*
X618488Y317248D01*
X619266Y318413D01*
X619539Y319786D01*
X619266Y321159D01*
X618488Y322324D01*
X617323Y323102D01*
X615950Y323375D01*
X614577Y323102D01*
X613412Y322324D01*
X613014Y321728D01*
X593655D01*
X593088Y322578D01*
X591923Y323356D01*
X590550Y323629D01*
D02*
G37*
G36*
X925200Y399350D02*
X922780Y399031D01*
X920525Y398097D01*
X918589Y396611D01*
X917103Y394675D01*
X916169Y392420D01*
X915850Y390000D01*
X916169Y387580D01*
X917103Y385325D01*
X918589Y383389D01*
X920525Y381903D01*
X922780Y380969D01*
X925200Y380650D01*
X927620Y380969D01*
X929875Y381903D01*
X930302Y382230D01*
X947832Y364701D01*
X947298Y363411D01*
X947074Y361709D01*
X947298Y360007D01*
X947955Y358421D01*
X949000Y357059D01*
X949216Y356893D01*
X949129Y355359D01*
X948094Y354565D01*
X946845Y352938D01*
X946796Y352819D01*
X953650D01*
Y345199D01*
X946796D01*
X946845Y345080D01*
X948088Y343461D01*
X948301Y343172D01*
Y342146D01*
X948088Y341857D01*
X946845Y340238D01*
X946796Y340119D01*
X953650D01*
Y332499D01*
X946796D01*
X946845Y332380D01*
X948094Y330753D01*
X949129Y329959D01*
X949216Y328425D01*
X949000Y328259D01*
X947955Y326897D01*
X947298Y325311D01*
X947074Y323609D01*
X947298Y321907D01*
X947955Y320321D01*
X949000Y318959D01*
X949216Y318793D01*
X949129Y317259D01*
X948094Y316465D01*
X946845Y314838D01*
X946796Y314719D01*
X953650D01*
Y310909D01*
X957460D01*
Y304055D01*
X957579Y304104D01*
X959206Y305353D01*
X960000Y306388D01*
X961534Y306475D01*
X961700Y306259D01*
X963062Y305214D01*
X964648Y304557D01*
X966350Y304333D01*
X968052Y304557D01*
X969638Y305214D01*
X971000Y306259D01*
X972045Y307621D01*
X972702Y309207D01*
X972926Y310909D01*
X972702Y312611D01*
X972045Y314197D01*
X971000Y315559D01*
X969693Y316562D01*
X969590Y317248D01*
Y317271D01*
X969693Y317956D01*
X971000Y318959D01*
X972045Y320321D01*
X972702Y321907D01*
X972926Y323609D01*
X972702Y325311D01*
X972045Y326897D01*
X971000Y328259D01*
X969693Y329262D01*
X969590Y329948D01*
Y329971D01*
X969693Y330656D01*
X971000Y331659D01*
X972045Y333021D01*
X972702Y334607D01*
X972926Y336309D01*
X972702Y338011D01*
X972045Y339597D01*
X971000Y340959D01*
X969693Y341962D01*
X969590Y342648D01*
Y342671D01*
X969693Y343356D01*
X971000Y344359D01*
X972045Y345721D01*
X972702Y347307D01*
X972926Y349009D01*
X972702Y350711D01*
X972045Y352297D01*
X971000Y353659D01*
X969693Y354662D01*
X969590Y355348D01*
Y355370D01*
X969693Y356056D01*
X971000Y357059D01*
X972045Y358421D01*
X972702Y360007D01*
X972926Y361709D01*
X972702Y363411D01*
X972045Y364997D01*
X971000Y366359D01*
X969638Y367404D01*
X968052Y368061D01*
X966350Y368285D01*
X964648Y368061D01*
X963062Y367404D01*
X961700Y366359D01*
X960697Y365052D01*
X960011Y364949D01*
X959989D01*
X959303Y365052D01*
X958300Y366359D01*
X956938Y367404D01*
X955352Y368061D01*
X953650Y368285D01*
X951948Y368061D01*
X950546Y367481D01*
X933039Y384988D01*
X933297Y385325D01*
X934231Y387580D01*
X934550Y390000D01*
X934231Y392420D01*
X933297Y394675D01*
X931811Y396611D01*
X929875Y398097D01*
X927620Y399031D01*
X925200Y399350D01*
D02*
G37*
G36*
X949840Y307099D02*
X946796D01*
X946845Y306980D01*
X948094Y305353D01*
X949721Y304104D01*
X949840Y304055D01*
Y307099D01*
D02*
G37*
G36*
X263760Y309800D02*
Y298570D01*
X264490D01*
Y309800D01*
X263760D01*
D02*
G37*
G36*
X53140D02*
X52410D01*
Y298570D01*
X53140D01*
Y309800D01*
D02*
G37*
G36*
X593090Y305087D02*
X591717Y304814D01*
X590552Y304036D01*
X589774Y302871D01*
X589501Y301498D01*
X589774Y300125D01*
X590552Y298960D01*
X591717Y298182D01*
X593090Y297909D01*
X594463Y298182D01*
X595628Y298960D01*
X596406Y300125D01*
X596679Y301498D01*
X596406Y302871D01*
X595628Y304036D01*
X594463Y304814D01*
X593090Y305087D01*
D02*
G37*
G36*
X690372Y330233D02*
X688999Y329960D01*
X687834Y329182D01*
X687056Y328017D01*
X686783Y326644D01*
X687056Y325271D01*
X687834Y324106D01*
X688999Y323328D01*
X690372Y323055D01*
X691074Y323195D01*
X719268Y295002D01*
X719268Y295002D01*
X719898Y294580D01*
X720641Y294433D01*
X733314D01*
X733712Y293837D01*
X734877Y293059D01*
X736250Y292786D01*
X737623Y293059D01*
X738788Y293837D01*
X739566Y295002D01*
X739839Y296375D01*
X739566Y297748D01*
X738788Y298913D01*
X737623Y299691D01*
X736250Y299964D01*
X734877Y299691D01*
X733712Y298913D01*
X733314Y298317D01*
X721445D01*
X693821Y325942D01*
X693961Y326644D01*
X693688Y328017D01*
X692910Y329182D01*
X691745Y329960D01*
X690372Y330233D01*
D02*
G37*
G36*
X628396Y273337D02*
X627023Y273064D01*
X625858Y272286D01*
X625080Y271121D01*
X624807Y269748D01*
X625080Y268375D01*
X625858Y267210D01*
X627023Y266432D01*
X628396Y266159D01*
X629769Y266432D01*
X630934Y267210D01*
X631712Y268375D01*
X631985Y269748D01*
X631712Y271121D01*
X630934Y272286D01*
X629769Y273064D01*
X628396Y273337D01*
D02*
G37*
G36*
X698246Y272829D02*
X696873Y272556D01*
X696755Y272477D01*
X680974D01*
X679735Y272231D01*
X678685Y271529D01*
X666404Y259248D01*
X666266Y259221D01*
X665101Y258443D01*
X664323Y257278D01*
X664050Y255905D01*
X664323Y254532D01*
X665101Y253367D01*
X666266Y252589D01*
X667639Y252316D01*
X669012Y252589D01*
X670177Y253367D01*
X670955Y254532D01*
X670982Y254670D01*
X673493Y257181D01*
X674938Y256830D01*
X675386Y256160D01*
Y259073D01*
X675393Y259080D01*
X679196D01*
Y262883D01*
X679203Y262890D01*
X682116D01*
X681446Y263338D01*
X681095Y264783D01*
X682315Y266003D01*
X696755D01*
X696873Y265924D01*
X698246Y265651D01*
X699619Y265924D01*
X700784Y266702D01*
X701562Y267867D01*
X701835Y269240D01*
X701562Y270613D01*
X700784Y271778D01*
X699619Y272556D01*
X698246Y272829D01*
D02*
G37*
G36*
X764540Y262161D02*
X763167Y261888D01*
X762002Y261110D01*
X761224Y259945D01*
X760951Y258572D01*
X761224Y257199D01*
X762002Y256034D01*
X763167Y255256D01*
X764540Y254983D01*
X765913Y255256D01*
X767078Y256034D01*
X767856Y257199D01*
X768129Y258572D01*
X767856Y259945D01*
X767078Y261110D01*
X765913Y261888D01*
X764540Y262161D01*
D02*
G37*
G36*
X941900Y250805D02*
X940210D01*
Y247010D01*
X948480D01*
X947278Y248578D01*
X945703Y249786D01*
X943868Y250546D01*
X941900Y250805D01*
D02*
G37*
G36*
X932590D02*
X930900D01*
X928932Y250546D01*
X927097Y249786D01*
X925522Y248578D01*
X924320Y247010D01*
X932590D01*
Y250805D01*
D02*
G37*
G36*
X982010Y250698D02*
Y247010D01*
X987780D01*
X986578Y248578D01*
X985003Y249786D01*
X983168Y250546D01*
X982010Y250698D01*
D02*
G37*
G36*
X974390D02*
X973232Y250546D01*
X971397Y249786D01*
X969822Y248578D01*
X968620Y247010D01*
X974390D01*
Y250698D01*
D02*
G37*
G36*
X405257Y262288D02*
X403884Y262015D01*
X402719Y261237D01*
X401941Y260072D01*
X401668Y258699D01*
X401941Y257326D01*
X402719Y256161D01*
X403188Y255848D01*
Y249020D01*
X402465Y248537D01*
X401687Y247372D01*
X401414Y245999D01*
X401687Y244626D01*
X402465Y243461D01*
X403630Y242683D01*
X405003Y242410D01*
X406376Y242683D01*
X407541Y243461D01*
X408319Y244626D01*
X408592Y245999D01*
X408319Y247372D01*
X407541Y248537D01*
X407072Y248850D01*
Y255679D01*
X407795Y256161D01*
X408573Y257326D01*
X408846Y258699D01*
X408573Y260072D01*
X407795Y261237D01*
X406630Y262015D01*
X405257Y262288D01*
D02*
G37*
G36*
X390906Y258097D02*
X389533Y257824D01*
X388368Y257046D01*
X387590Y255881D01*
X387317Y254508D01*
X387590Y253135D01*
X388368Y251970D01*
X389027Y251530D01*
Y248765D01*
X388495Y248410D01*
X387717Y247245D01*
X387444Y245872D01*
X387717Y244499D01*
X388495Y243334D01*
X389660Y242556D01*
X391033Y242283D01*
X392406Y242556D01*
X393571Y243334D01*
X394349Y244499D01*
X394622Y245872D01*
X394349Y247245D01*
X393571Y248410D01*
X392912Y248850D01*
Y251615D01*
X393444Y251970D01*
X394222Y253135D01*
X394495Y254508D01*
X394222Y255881D01*
X393444Y257046D01*
X392279Y257824D01*
X390906Y258097D01*
D02*
G37*
G36*
X752348Y243873D02*
X750975Y243600D01*
X749810Y242822D01*
X749032Y241657D01*
X748759Y240284D01*
X748899Y239582D01*
X739037Y229719D01*
X738615Y229089D01*
X738468Y228346D01*
Y226456D01*
X737872Y226058D01*
X737094Y224893D01*
X736821Y223520D01*
X737094Y222147D01*
X737872Y220982D01*
X739037Y220204D01*
X740410Y219931D01*
X741409Y220130D01*
X741531Y220113D01*
X742487Y219578D01*
X742764Y219332D01*
X743010Y218095D01*
X743712Y217044D01*
Y219964D01*
X747522D01*
Y223774D01*
X750442D01*
X749391Y224476D01*
X747522Y224848D01*
X745653Y224476D01*
X745168Y224152D01*
X743757Y224737D01*
X743726Y224893D01*
X742948Y226058D01*
X742523Y226342D01*
X742445Y227634D01*
X751646Y236835D01*
X752348Y236695D01*
X753721Y236968D01*
X754886Y237746D01*
X755664Y238911D01*
X755937Y240284D01*
X755664Y241657D01*
X754886Y242822D01*
X753721Y243600D01*
X752348Y243873D01*
D02*
G37*
G36*
X987780Y239390D02*
X982010D01*
Y235702D01*
X983168Y235854D01*
X985003Y236614D01*
X986578Y237822D01*
X987780Y239390D01*
D02*
G37*
G36*
X974390D02*
X968620D01*
X969822Y237822D01*
X971397Y236614D01*
X973232Y235854D01*
X974390Y235702D01*
Y239390D01*
D02*
G37*
G36*
X932590Y239390D02*
X924320D01*
X925522Y237822D01*
X927097Y236614D01*
X928932Y235854D01*
X930900Y235595D01*
X932590D01*
Y239390D01*
D02*
G37*
G36*
X854710Y238793D02*
X853337Y238520D01*
X852172Y237742D01*
X851394Y236577D01*
X851121Y235204D01*
X851394Y233831D01*
X852172Y232666D01*
X853337Y231888D01*
X854710Y231615D01*
X856083Y231888D01*
X857248Y232666D01*
X858026Y233831D01*
X858299Y235204D01*
X858026Y236577D01*
X857248Y237742D01*
X856083Y238520D01*
X854710Y238793D01*
D02*
G37*
G36*
X649478Y262161D02*
X648105Y261888D01*
X646940Y261110D01*
X646162Y259945D01*
X645889Y258572D01*
X646162Y257199D01*
X646241Y257081D01*
Y232377D01*
X646162Y232259D01*
X645889Y230886D01*
X646162Y229513D01*
X646940Y228348D01*
X648105Y227570D01*
X649478Y227297D01*
X650851Y227570D01*
X652016Y228348D01*
X652794Y229513D01*
X653067Y230886D01*
X652794Y232259D01*
X652715Y232377D01*
Y257081D01*
X652794Y257199D01*
X653067Y258572D01*
X652794Y259945D01*
X652016Y261110D01*
X650851Y261888D01*
X649478Y262161D01*
D02*
G37*
G36*
X948480Y239390D02*
X940210D01*
Y235595D01*
X940553D01*
X940678Y234325D01*
X939546Y234100D01*
X937720Y232880D01*
X936500Y231054D01*
X936072Y228900D01*
X936500Y226746D01*
X937720Y224920D01*
X939546Y223700D01*
X941700Y223272D01*
X943854Y223700D01*
X945680Y224920D01*
X946900Y226746D01*
X947328Y228900D01*
X946900Y231054D01*
X945680Y232880D01*
X943854Y234100D01*
X942428Y234383D01*
X942470Y235670D01*
X943868Y235854D01*
X945703Y236614D01*
X947278Y237822D01*
X948480Y239390D01*
D02*
G37*
G36*
X979190Y227540D02*
X974460D01*
Y223033D01*
X973478Y222227D01*
X973074Y222308D01*
X971205Y221936D01*
X970540Y221492D01*
X969270Y222171D01*
Y226270D01*
X954730D01*
Y221014D01*
X953460Y220337D01*
X952857Y220740D01*
X951484Y221013D01*
X950111Y220740D01*
X948946Y219962D01*
X948168Y218797D01*
X947895Y217424D01*
X948168Y216051D01*
X948946Y214886D01*
X950111Y214108D01*
X951484Y213835D01*
X952857Y214108D01*
X953460Y214511D01*
X954730Y213834D01*
Y208730D01*
X969270D01*
Y212677D01*
X970540Y213356D01*
X971205Y212912D01*
X973074Y212540D01*
X973478Y212621D01*
X974460Y211815D01*
Y207460D01*
X979190D01*
Y217500D01*
Y227540D01*
D02*
G37*
G36*
X991540D02*
X986810D01*
Y221310D01*
X991540D01*
Y227540D01*
D02*
G37*
G36*
X265950Y223604D02*
X50950D01*
X49479Y223311D01*
X48232Y222478D01*
X47399Y221231D01*
X47106Y219760D01*
X47399Y218289D01*
X48232Y217042D01*
X49479Y216209D01*
X50950Y215916D01*
X265950D01*
X267421Y216209D01*
X268668Y217042D01*
X269501Y218289D01*
X269794Y219760D01*
X269501Y221231D01*
X268668Y222478D01*
X267421Y223311D01*
X265950Y223604D01*
D02*
G37*
G36*
X791718Y219997D02*
X790345Y219724D01*
X789180Y218946D01*
X788402Y217781D01*
X788129Y216408D01*
X788402Y215035D01*
X789180Y213870D01*
X790345Y213092D01*
X791718Y212819D01*
X793091Y213092D01*
X794256Y213870D01*
X795034Y215035D01*
X795307Y216408D01*
X795034Y217781D01*
X794256Y218946D01*
X793091Y219724D01*
X791718Y219997D01*
D02*
G37*
G36*
X991540Y213690D02*
X986810D01*
Y207460D01*
X991540D01*
Y213690D01*
D02*
G37*
G36*
X610616Y203072D02*
Y200152D01*
X602996D01*
Y203072D01*
X602294Y202021D01*
X601922Y200152D01*
X602294Y198283D01*
X602563Y197880D01*
X601964Y196760D01*
X593852D01*
X593109Y196612D01*
X592479Y196191D01*
X592478Y196191D01*
X576774Y180487D01*
X576072Y180627D01*
X574699Y180354D01*
X573534Y179576D01*
X572756Y178411D01*
X572483Y177038D01*
X572756Y175665D01*
X573534Y174500D01*
X574699Y173722D01*
X576072Y173449D01*
X577445Y173722D01*
X578610Y174500D01*
X579388Y175665D01*
X579661Y177038D01*
X579521Y177740D01*
X594656Y192876D01*
X633334D01*
X633732Y192280D01*
X634897Y191502D01*
X636270Y191229D01*
X637643Y191502D01*
X638808Y192280D01*
X639586Y193445D01*
X639859Y194818D01*
X639586Y196191D01*
X638808Y197356D01*
X637643Y198134D01*
X636270Y198407D01*
X634897Y198134D01*
X633732Y197356D01*
X633334Y196760D01*
X611648D01*
X611049Y197880D01*
X611318Y198283D01*
X611690Y200152D01*
X611318Y202021D01*
X610616Y203072D01*
D02*
G37*
G36*
X979190Y197540D02*
X974460D01*
Y192807D01*
X973478Y192001D01*
X973074Y192082D01*
X971205Y191710D01*
X970540Y191266D01*
X969270Y191945D01*
Y196270D01*
X954730D01*
Y190788D01*
X953460Y190111D01*
X952857Y190514D01*
X951484Y190787D01*
X950111Y190514D01*
X948946Y189736D01*
X948168Y188571D01*
X947895Y187198D01*
X948168Y185825D01*
X948946Y184660D01*
X950111Y183882D01*
X951484Y183609D01*
X952857Y183882D01*
X953460Y184285D01*
X954730Y183608D01*
Y178730D01*
X969270D01*
Y182451D01*
X970540Y183130D01*
X971205Y182686D01*
X973074Y182314D01*
X973478Y182395D01*
X974460Y181589D01*
Y177460D01*
X979190D01*
Y187500D01*
Y197540D01*
D02*
G37*
G36*
X991540D02*
X986810D01*
Y191310D01*
X991540D01*
Y197540D01*
D02*
G37*
G36*
X940344Y206027D02*
X938971Y205754D01*
X937806Y204976D01*
X937028Y203811D01*
X936755Y202438D01*
X937028Y201065D01*
X937806Y199900D01*
X938490Y199443D01*
Y195381D01*
X938024Y195070D01*
X937246Y193905D01*
X936973Y192532D01*
X937246Y191159D01*
X938024Y189994D01*
X939189Y189216D01*
X940562Y188943D01*
X941935Y189216D01*
X943100Y189994D01*
X943878Y191159D01*
X944151Y192532D01*
X943878Y193905D01*
X943100Y195070D01*
X942634Y195381D01*
Y199735D01*
X942882Y199900D01*
X943660Y201065D01*
X943933Y202438D01*
X943660Y203811D01*
X942882Y204976D01*
X941717Y205754D01*
X940344Y206027D01*
D02*
G37*
G36*
X383032Y191295D02*
X381659Y191022D01*
X380494Y190244D01*
X379716Y189079D01*
X379443Y187706D01*
X379716Y186333D01*
X380494Y185168D01*
X381659Y184390D01*
X383032Y184117D01*
X384405Y184390D01*
X385570Y185168D01*
X386348Y186333D01*
X386621Y187706D01*
X386348Y189079D01*
X385570Y190244D01*
X384405Y191022D01*
X383032Y191295D01*
D02*
G37*
G36*
X991540Y183690D02*
X986810D01*
Y177460D01*
X991540D01*
Y183690D01*
D02*
G37*
G36*
X854710Y183421D02*
X853337Y183148D01*
X852172Y182370D01*
X851394Y181205D01*
X851121Y179832D01*
X851394Y178459D01*
X852172Y177294D01*
X853337Y176516D01*
X854710Y176243D01*
X856083Y176516D01*
X857248Y177294D01*
X858026Y178459D01*
X858299Y179832D01*
X858026Y181205D01*
X857248Y182370D01*
X856083Y183148D01*
X854710Y183421D01*
D02*
G37*
G36*
X401828Y180373D02*
X400455Y180100D01*
X399290Y179322D01*
X398512Y178157D01*
X398239Y176784D01*
X398512Y175411D01*
X399290Y174246D01*
X400455Y173468D01*
X401828Y173195D01*
X403201Y173468D01*
X404366Y174246D01*
X405144Y175411D01*
X405417Y176784D01*
X405144Y178157D01*
X404366Y179322D01*
X403201Y180100D01*
X401828Y180373D01*
D02*
G37*
G36*
X607568Y171229D02*
X606195Y170956D01*
X605030Y170178D01*
X604252Y169013D01*
X603979Y167640D01*
X604252Y166267D01*
X605030Y165102D01*
X606195Y164324D01*
X607568Y164051D01*
X608941Y164324D01*
X610106Y165102D01*
X610884Y166267D01*
X611157Y167640D01*
X610884Y169013D01*
X610106Y170178D01*
X608941Y170956D01*
X607568Y171229D01*
D02*
G37*
G36*
X880872Y171322D02*
X880170Y170271D01*
X879798Y168402D01*
X880131Y166730D01*
X879987Y166129D01*
X879650Y165386D01*
X879424Y165356D01*
X877838Y164699D01*
X876476Y163654D01*
X875473Y162347D01*
X874787Y162244D01*
X874765D01*
X874079Y162347D01*
X873076Y163654D01*
X871714Y164699D01*
X870128Y165356D01*
X868426Y165580D01*
X866724Y165356D01*
X865138Y164699D01*
X863776Y163654D01*
X862731Y162292D01*
X862074Y160706D01*
X861850Y159004D01*
X862074Y157302D01*
X862731Y155716D01*
X863776Y154354D01*
X865083Y153351D01*
X865186Y152665D01*
Y152643D01*
X865083Y151957D01*
X863776Y150954D01*
X862731Y149592D01*
X862074Y148006D01*
X861850Y146304D01*
X862074Y144602D01*
X862731Y143016D01*
X863776Y141654D01*
X865138Y140609D01*
X866724Y139952D01*
X868426Y139728D01*
X870128Y139952D01*
X871714Y140609D01*
X873076Y141654D01*
X874079Y142961D01*
X874765Y143064D01*
X874787D01*
X875473Y142961D01*
X876476Y141654D01*
X877838Y140609D01*
X879424Y139952D01*
X881126Y139728D01*
X882828Y139952D01*
X884414Y140609D01*
X885776Y141654D01*
X886821Y143016D01*
X887478Y144602D01*
X887702Y146304D01*
X887478Y148006D01*
X886821Y149592D01*
X885776Y150954D01*
X884469Y151957D01*
X884366Y152643D01*
Y152665D01*
X884469Y153351D01*
X885776Y154354D01*
X886821Y155716D01*
X887478Y157302D01*
X887702Y159004D01*
X887478Y160706D01*
X886821Y162292D01*
X886584Y162602D01*
X886577Y162877D01*
X886977Y164175D01*
X887602Y164592D01*
X884682D01*
Y168402D01*
X880872D01*
Y171322D01*
D02*
G37*
G36*
X941700Y176728D02*
X939546Y176300D01*
X937720Y175080D01*
X936500Y173254D01*
X936072Y171100D01*
X936500Y168946D01*
X937720Y167120D01*
X939546Y165900D01*
X940678Y165675D01*
X940553Y164405D01*
X940210D01*
Y160610D01*
X948480D01*
X947278Y162178D01*
X945703Y163386D01*
X943868Y164146D01*
X942470Y164330D01*
X942428Y165617D01*
X943854Y165900D01*
X945680Y167120D01*
X946900Y168946D01*
X947328Y171100D01*
X946900Y173254D01*
X945680Y175080D01*
X943854Y176300D01*
X941700Y176728D01*
D02*
G37*
G36*
X932590Y164405D02*
X930900D01*
X928932Y164146D01*
X927097Y163386D01*
X925522Y162178D01*
X924320Y160610D01*
X932590D01*
Y164405D01*
D02*
G37*
G36*
X982010Y164298D02*
Y160610D01*
X987780D01*
X986578Y162178D01*
X985003Y163386D01*
X983168Y164146D01*
X982010Y164298D01*
D02*
G37*
G36*
X974390D02*
X973232Y164146D01*
X971397Y163386D01*
X969822Y162178D01*
X968620Y160610D01*
X974390D01*
Y164298D01*
D02*
G37*
G36*
X662305Y163609D02*
X660932Y163336D01*
X659767Y162558D01*
X658989Y161393D01*
X658716Y160020D01*
X658856Y159318D01*
X613942Y114403D01*
X613521Y113773D01*
X613373Y113030D01*
Y99865D01*
X603406Y89898D01*
X602420Y90708D01*
X603010Y91591D01*
X603283Y92964D01*
X603010Y94337D01*
X602232Y95502D01*
X601763Y95815D01*
Y98580D01*
X602486Y99062D01*
X603264Y100227D01*
X603537Y101600D01*
X603264Y102973D01*
X602486Y104138D01*
X601321Y104916D01*
X599948Y105189D01*
X598575Y104916D01*
X597410Y104138D01*
X596632Y102973D01*
X596359Y101600D01*
X596632Y100227D01*
X597410Y99062D01*
X597879Y98749D01*
Y95984D01*
X597156Y95502D01*
X596378Y94337D01*
X596105Y92964D01*
X596378Y91591D01*
X597156Y90426D01*
X598321Y89648D01*
X599694Y89375D01*
X601067Y89648D01*
X601950Y90238D01*
X602760Y89252D01*
X598000Y84492D01*
X491744D01*
X491001Y84345D01*
X490371Y83923D01*
X490370Y83923D01*
X443442Y36994D01*
X410606D01*
X410208Y37590D01*
X409043Y38368D01*
X407670Y38641D01*
X406297Y38368D01*
X405132Y37590D01*
X404354Y36425D01*
X404081Y35052D01*
X404354Y33679D01*
X405067Y32611D01*
X404955Y32122D01*
X404601Y31342D01*
X236877D01*
X236491Y32611D01*
X236726Y32768D01*
X237504Y33933D01*
X237777Y35306D01*
X237504Y36679D01*
X236726Y37844D01*
X235561Y38622D01*
X234188Y38895D01*
X232815Y38622D01*
X231650Y37844D01*
X231230Y37215D01*
X229821Y36818D01*
X229610Y36845D01*
X229437Y36973D01*
Y47244D01*
X229141Y48731D01*
X228299Y49991D01*
X228247Y50043D01*
X226987Y50885D01*
X225500Y51181D01*
X224013Y50885D01*
X222753Y50043D01*
X221911Y48783D01*
X221615Y47296D01*
X221667Y47035D01*
Y34290D01*
X221963Y32803D01*
X222805Y31543D01*
X228578Y25770D01*
X228895Y24180D01*
X230018Y22499D01*
X231698Y21377D01*
X233680Y20982D01*
X255959D01*
X256407Y19807D01*
X256390Y19713D01*
X255398Y19050D01*
X261238D01*
X260246Y19713D01*
X260229Y19807D01*
X260677Y20982D01*
X678180D01*
X680162Y21377D01*
X681842Y22499D01*
X709275Y49932D01*
X710397Y51612D01*
X710791Y53594D01*
X710397Y55576D01*
X709275Y57256D01*
X707594Y58379D01*
X705612Y58773D01*
X703630Y58379D01*
X701949Y57256D01*
X676035Y31342D01*
X411627D01*
X410892Y32370D01*
X410867Y32611D01*
X411358Y33110D01*
X444246D01*
X444989Y33258D01*
X445619Y33679D01*
X492548Y80608D01*
X597187D01*
X597404Y80349D01*
X597173Y78740D01*
X603122D01*
X602071Y79442D01*
X600374Y79780D01*
X600119Y80305D01*
X599992Y81052D01*
X600178Y81177D01*
X616688Y97687D01*
X617109Y98317D01*
X617257Y99060D01*
Y112226D01*
X661603Y156571D01*
X662305Y156431D01*
X663678Y156704D01*
X664843Y157482D01*
X665621Y158647D01*
X665894Y160020D01*
X665621Y161393D01*
X664843Y162558D01*
X663678Y163336D01*
X662305Y163609D01*
D02*
G37*
G36*
X831770Y174470D02*
X813230D01*
Y155930D01*
X831770D01*
Y174470D01*
D02*
G37*
G36*
X791972Y161831D02*
X790599Y161558D01*
X789434Y160780D01*
X788656Y159615D01*
X788383Y158242D01*
X788656Y156869D01*
X789434Y155704D01*
X790599Y154926D01*
X791972Y154653D01*
X793345Y154926D01*
X794510Y155704D01*
X795288Y156869D01*
X795561Y158242D01*
X795288Y159615D01*
X794510Y160780D01*
X793345Y161558D01*
X791972Y161831D01*
D02*
G37*
G36*
X987780Y152990D02*
X982010D01*
Y149302D01*
X983168Y149454D01*
X985003Y150214D01*
X986578Y151422D01*
X987780Y152990D01*
D02*
G37*
G36*
X974390D02*
X968620D01*
X969822Y151422D01*
X971397Y150214D01*
X973232Y149454D01*
X974390Y149302D01*
Y152990D01*
D02*
G37*
G36*
X948480Y152990D02*
X940210D01*
Y149195D01*
X941900D01*
X943868Y149454D01*
X945703Y150214D01*
X947278Y151422D01*
X948480Y152990D01*
D02*
G37*
G36*
X932590D02*
X924320D01*
X925522Y151422D01*
X927097Y150214D01*
X928932Y149454D01*
X930900Y149195D01*
X932590D01*
Y152990D01*
D02*
G37*
G36*
X401828Y146337D02*
X400455Y146064D01*
X399290Y145286D01*
X398816Y144576D01*
X371204D01*
X370883Y145058D01*
X369718Y145836D01*
X368345Y146109D01*
X366972Y145836D01*
X365807Y145058D01*
X365029Y143893D01*
X364756Y142520D01*
X365029Y141147D01*
X365807Y139982D01*
X366972Y139204D01*
X368345Y138931D01*
X369718Y139204D01*
X370883Y139982D01*
X371357Y140692D01*
X398969D01*
X399290Y140210D01*
X400455Y139432D01*
X401828Y139159D01*
X403201Y139432D01*
X404366Y140210D01*
X405144Y141375D01*
X405417Y142748D01*
X405144Y144121D01*
X404366Y145286D01*
X403201Y146064D01*
X401828Y146337D01*
D02*
G37*
G36*
X822500Y149150D02*
X820080Y148831D01*
X817825Y147897D01*
X815889Y146411D01*
X814403Y144475D01*
X813469Y142220D01*
X813150Y139800D01*
X813469Y137380D01*
X814403Y135125D01*
X815889Y133189D01*
X817825Y131703D01*
X820080Y130769D01*
X822500Y130450D01*
X824920Y130769D01*
X827175Y131703D01*
X829111Y133189D01*
X830597Y135125D01*
X831531Y137380D01*
X831850Y139800D01*
X831531Y142220D01*
X830597Y144475D01*
X829111Y146411D01*
X827175Y147897D01*
X824920Y148831D01*
X822500Y149150D01*
D02*
G37*
G36*
X687070Y113571D02*
X685697Y113298D01*
X684532Y112520D01*
X683754Y111355D01*
X683481Y109982D01*
X683754Y108609D01*
X684532Y107444D01*
X685697Y106666D01*
X687070Y106393D01*
X688443Y106666D01*
X689608Y107444D01*
X690386Y108609D01*
X690659Y109982D01*
X690386Y111355D01*
X689608Y112520D01*
X688443Y113298D01*
X687070Y113571D01*
D02*
G37*
G36*
X748792Y103411D02*
X747419Y103138D01*
X746254Y102360D01*
X745476Y101195D01*
X745203Y99822D01*
X745476Y98449D01*
X746254Y97284D01*
X747419Y96506D01*
X748792Y96233D01*
X750165Y96506D01*
X751330Y97284D01*
X752108Y98449D01*
X752381Y99822D01*
X752108Y101195D01*
X751330Y102360D01*
X750165Y103138D01*
X748792Y103411D01*
D02*
G37*
G36*
X328930Y118439D02*
X327443Y118143D01*
X326183Y117301D01*
X325341Y116041D01*
X325045Y114554D01*
X325341Y113067D01*
X326183Y111807D01*
X354885Y83105D01*
X356145Y82263D01*
X357632Y81967D01*
X419608D01*
X421095Y82263D01*
X422355Y83105D01*
X423197Y84365D01*
X423493Y85852D01*
X423197Y87339D01*
X422355Y88599D01*
X421095Y89441D01*
X419608Y89737D01*
X359241D01*
X331677Y117301D01*
X330417Y118143D01*
X328930Y118439D01*
D02*
G37*
G36*
X698246Y87917D02*
X696873Y87644D01*
X695708Y86866D01*
X694930Y85701D01*
X694657Y84328D01*
X694930Y82955D01*
X695708Y81790D01*
X696873Y81012D01*
X698246Y80739D01*
X699619Y81012D01*
X700784Y81790D01*
X701562Y82955D01*
X701835Y84328D01*
X701562Y85701D01*
X700784Y86866D01*
X699619Y87644D01*
X698246Y87917D01*
D02*
G37*
G36*
X711708Y87663D02*
X710335Y87390D01*
X709170Y86612D01*
X708392Y85447D01*
X708119Y84074D01*
X708392Y82701D01*
X709170Y81536D01*
X710335Y80758D01*
X711708Y80485D01*
X713081Y80758D01*
X714246Y81536D01*
X715024Y82701D01*
X715297Y84074D01*
X715024Y85447D01*
X714246Y86612D01*
X713081Y87390D01*
X711708Y87663D01*
D02*
G37*
G36*
X156210Y66793D02*
Y59690D01*
X163313D01*
X162480Y61700D01*
X160630Y64110D01*
X158220Y65960D01*
X156210Y66793D01*
D02*
G37*
G36*
X902210D02*
Y59690D01*
X909313D01*
X908480Y61700D01*
X906630Y64110D01*
X904220Y65960D01*
X902210Y66793D01*
D02*
G37*
G36*
X148590D02*
X146580Y65960D01*
X144170Y64110D01*
X142320Y61700D01*
X141487Y59690D01*
X148590D01*
Y66793D01*
D02*
G37*
G36*
X894590D02*
X892580Y65960D01*
X890170Y64110D01*
X888320Y61700D01*
X887487Y59690D01*
X894590D01*
Y66793D01*
D02*
G37*
G36*
X857870Y66150D02*
X837330D01*
Y45610D01*
X857870D01*
Y66150D01*
D02*
G37*
G36*
X111870D02*
X91330D01*
Y45610D01*
X111870D01*
Y66150D01*
D02*
G37*
G36*
X163313Y52070D02*
X156210D01*
Y44967D01*
X158220Y45800D01*
X160630Y47650D01*
X162480Y50060D01*
X163313Y52070D01*
D02*
G37*
G36*
X909313D02*
X902210D01*
Y44967D01*
X904220Y45800D01*
X906630Y47650D01*
X908480Y50060D01*
X909313Y52070D01*
D02*
G37*
G36*
X894590D02*
X887487D01*
X888320Y50060D01*
X890170Y47650D01*
X892580Y45800D01*
X894590Y44967D01*
Y52070D01*
D02*
G37*
G36*
X148590D02*
X141487D01*
X142320Y50060D01*
X144170Y47650D01*
X146580Y45800D01*
X148590Y44967D01*
Y52070D01*
D02*
G37*
G36*
X978810Y42174D02*
Y28810D01*
X992173D01*
X991283Y31745D01*
X989654Y34792D01*
X987463Y37463D01*
X984792Y39655D01*
X981745Y41283D01*
X978810Y42174D01*
D02*
G37*
G36*
X971190D02*
X968255Y41283D01*
X965208Y39655D01*
X962537Y37463D01*
X960346Y34792D01*
X958717Y31745D01*
X957827Y28810D01*
X971190D01*
Y42174D01*
D02*
G37*
G36*
X28810D02*
Y28810D01*
X42174D01*
X41283Y31745D01*
X39655Y34792D01*
X37463Y37463D01*
X34792Y39655D01*
X31745Y41283D01*
X28810Y42174D01*
D02*
G37*
G36*
X21190D02*
X18255Y41283D01*
X15208Y39655D01*
X12537Y37463D01*
X10345Y34792D01*
X8717Y31745D01*
X7826Y28810D01*
X21190D01*
Y42174D01*
D02*
G37*
G36*
X992173Y21190D02*
X978810D01*
Y7826D01*
X981745Y8717D01*
X984792Y10345D01*
X987463Y12537D01*
X989654Y15208D01*
X991283Y18255D01*
X992173Y21190D01*
D02*
G37*
G36*
X971190D02*
X957827D01*
X958717Y18255D01*
X960346Y15208D01*
X962537Y12537D01*
X965208Y10345D01*
X968255Y8717D01*
X971190Y7826D01*
Y21190D01*
D02*
G37*
G36*
X42174D02*
X28810D01*
Y7826D01*
X31745Y8717D01*
X34792Y10345D01*
X37463Y12537D01*
X39655Y15208D01*
X41283Y18255D01*
X42174Y21190D01*
D02*
G37*
G36*
X21190D02*
X7826D01*
X8717Y18255D01*
X10345Y15208D01*
X12537Y12537D01*
X15208Y10345D01*
X18255Y8717D01*
X21190Y7826D01*
Y21190D01*
D02*
G37*
%LPD*%
G36*
X206270Y368230D02*
X207460Y368037D01*
Y366960D01*
X211879D01*
X212685Y365978D01*
X212540Y365252D01*
X212912Y363383D01*
X213141Y363040D01*
X212462Y361770D01*
X208730D01*
Y347230D01*
X215558D01*
Y342570D01*
X215706Y341827D01*
X216127Y341197D01*
X230008Y327315D01*
Y310856D01*
X229490Y309800D01*
X228760D01*
Y308531D01*
X228680D01*
Y294760D01*
X193221D01*
Y308531D01*
X193140D01*
Y309800D01*
X192410D01*
X191892Y310856D01*
Y336465D01*
X198873Y343447D01*
X199294Y344077D01*
X199442Y344820D01*
Y347230D01*
X206270D01*
Y361770D01*
X201371D01*
X200716Y363040D01*
X201201Y363765D01*
X201497Y365252D01*
Y368230D01*
X206270D01*
Y368230D01*
D02*
G37*
G36*
X118730Y350975D02*
Y347230D01*
X123340D01*
Y341405D01*
Y309800D01*
X116835D01*
Y350300D01*
X116807Y350437D01*
X117683Y351349D01*
X118730Y350975D01*
D02*
G37*
G36*
X109065Y309800D02*
X102835D01*
Y336863D01*
X106633Y340661D01*
X107475Y341921D01*
X107771Y343408D01*
Y347230D01*
X109065D01*
Y309800D01*
D02*
G37*
G36*
X248730Y364270D02*
X248730Y363190D01*
Y347230D01*
X254927D01*
X255329Y345960D01*
X244577Y335207D01*
X244156Y334577D01*
X244008Y333834D01*
Y309428D01*
X243110Y308530D01*
X241790D01*
X240892Y309428D01*
Y341694D01*
X240744Y342437D01*
X240323Y343067D01*
X239432Y343959D01*
Y347230D01*
X246270D01*
X246270Y364270D01*
X247461Y364460D01*
X247539D01*
X248730Y364270D01*
D02*
G37*
G36*
X227460Y364460D02*
X227539D01*
X228730Y364270D01*
X228730Y363190D01*
Y347230D01*
X235548D01*
Y343154D01*
X235695Y342411D01*
X236117Y341781D01*
X237008Y340890D01*
Y309428D01*
X236110Y308530D01*
X234790D01*
X233892Y309428D01*
Y328120D01*
X233744Y328863D01*
X233323Y329493D01*
X219442Y343374D01*
Y347230D01*
X226270D01*
Y361770D01*
X222386D01*
X221707Y363040D01*
X221936Y363383D01*
X222308Y365252D01*
X222163Y365978D01*
X222969Y366960D01*
X227460D01*
Y364460D01*
D02*
G37*
G36*
X151713Y312339D02*
Y309596D01*
X151220Y308530D01*
X145490D01*
Y309800D01*
X144760D01*
Y308531D01*
X144679D01*
Y294760D01*
X137140D01*
Y309800D01*
X131110D01*
Y331283D01*
X132283Y331769D01*
X151713Y312339D01*
D02*
G37*
D15*
X678180Y26162D02*
X705612Y53594D01*
X233680Y26162D02*
X678180D01*
X127225Y355475D02*
X127500Y355750D01*
D19*
X237500Y374250D02*
D03*
Y355750D02*
D03*
X257500Y374250D02*
D03*
Y355750D02*
D03*
X87500D02*
D03*
Y374250D02*
D03*
X67500D02*
D03*
Y355750D02*
D03*
X127500Y374250D02*
D03*
Y355750D02*
D03*
X107500D02*
D03*
Y374250D02*
D03*
D20*
X217500Y354500D02*
D03*
Y375500D02*
D03*
X177500Y354500D02*
D03*
Y375500D02*
D03*
X197500Y354500D02*
D03*
Y375500D02*
D03*
D23*
X962000Y217500D02*
D03*
X983000D02*
D03*
X962000Y187500D02*
D03*
X983000D02*
D03*
D70*
X154950Y294760D02*
Y313680D01*
X127225Y341405D02*
X154950Y313680D01*
X649478Y230886D02*
Y258572D01*
X667639Y255905D02*
X680974Y269240D01*
X698246D01*
D71*
X225552Y34290D02*
X233680Y26162D01*
X225552Y34290D02*
Y47244D01*
X225500Y47296D02*
X225552Y47244D01*
X982924Y217424D02*
X983000Y217500D01*
X973074Y217424D02*
X982924D01*
X982698Y187198D02*
X983000Y187500D01*
X973074Y187198D02*
X982698D01*
X103886Y351886D02*
X107750Y355750D01*
X117625D01*
X127500D01*
X56896Y294706D02*
X56950Y294760D01*
X56896Y278638D02*
Y294706D01*
X105918Y294728D02*
X105950Y294760D01*
X105918Y278638D02*
Y294728D01*
X119950Y294760D02*
X120142Y294568D01*
Y278638D02*
Y294568D01*
X127225Y341405D02*
Y355475D01*
Y295035D02*
Y341405D01*
X133950Y294760D02*
X134366Y294344D01*
Y278638D02*
Y294344D01*
X140950Y294760D02*
X140970Y294740D01*
Y278638D02*
Y294740D01*
X162052Y278638D02*
Y294658D01*
X161950Y294760D02*
X162052Y294658D01*
X168910Y294720D02*
X168950Y294760D01*
X168910Y278638D02*
Y294720D01*
X196850Y294660D02*
X196950Y294760D01*
X196850Y278638D02*
Y294660D01*
X203950Y294760D02*
X203962Y294748D01*
Y278638D02*
Y294748D01*
X210950Y294760D02*
X211074Y294636D01*
Y278638D02*
Y294636D01*
X259950Y294760D02*
X260096Y294614D01*
Y278638D02*
Y294614D01*
X252950Y294760D02*
X252984Y294726D01*
Y278638D02*
Y294726D01*
X224950Y294760D02*
X225044Y294666D01*
Y278638D02*
Y294666D01*
X217932Y294742D02*
X217950Y294760D01*
X217932Y278638D02*
Y294742D01*
X107442Y374308D02*
X107500Y374250D01*
X107442Y374308D02*
Y385572D01*
X127500Y374250D02*
X127508Y374258D01*
Y385572D01*
X237236Y374514D02*
X237500Y374250D01*
X237236Y374514D02*
Y385572D01*
X257500Y374250D02*
X257556Y374306D01*
Y385572D01*
X217424Y375424D02*
X217500Y375500D01*
X217424Y365252D02*
Y375424D01*
X577850Y325120D02*
X578104Y324866D01*
X578612D01*
X328930Y114554D02*
X357632Y85852D01*
X419608D01*
X126950Y294760D02*
X127225Y295035D01*
X107750Y355750D02*
X112460Y351040D01*
Y350790D02*
Y351040D01*
Y350790D02*
X112950Y350300D01*
Y294760D02*
Y350300D01*
X91950Y331472D02*
X98950Y338472D01*
Y294760D02*
Y338472D01*
X103886Y343408D01*
X91950Y294760D02*
Y331472D01*
X197500Y375500D02*
X197612Y375388D01*
Y365252D02*
Y375388D01*
X177500Y375500D02*
X177546Y375454D01*
Y365252D02*
Y375454D01*
X103886Y343408D02*
Y351886D01*
D72*
X368345Y142520D02*
X368459Y142634D01*
X401714D01*
X401828Y142748D01*
X961924Y217424D02*
X962000Y217500D01*
X951484Y217424D02*
X961924D01*
X961698Y187198D02*
X962000Y187500D01*
X951484Y187198D02*
X961698D01*
X407670Y35052D02*
X444246D01*
X491744Y82550D01*
X598805D01*
X615315Y99060D01*
Y113030D02*
X662305Y160020D01*
X615315Y99060D02*
Y113030D01*
X599821Y101473D02*
X599948Y101600D01*
X599821Y93091D02*
Y101473D01*
X599694Y92964D02*
X599821Y93091D01*
X405130Y258572D02*
X405257Y258699D01*
X405130Y246126D02*
Y258572D01*
X405003Y245999D02*
X405130Y246126D01*
X390906Y254508D02*
X390970Y254445D01*
Y245935D02*
Y254445D01*
Y245935D02*
X391033Y245872D01*
X148336Y290564D02*
X149098Y291326D01*
X148336Y279019D02*
Y290564D01*
X175950Y271598D02*
Y294760D01*
Y271598D02*
X179832Y267716D01*
X191389Y262287D02*
Y262509D01*
X182950Y270948D02*
X191389Y262509D01*
X576072Y177038D02*
X593852Y194818D01*
X636270D01*
X182950Y270948D02*
Y294760D01*
X257302Y355552D02*
X257556Y355298D01*
Y345440D02*
Y355298D01*
X245950Y333834D02*
X257556Y345440D01*
X245950Y294760D02*
Y333834D01*
X237490Y343154D02*
Y355740D01*
X238950Y294760D02*
Y341694D01*
X237490Y343154D02*
X238950Y341694D01*
X231950Y294760D02*
Y328120D01*
X217500Y342570D02*
X231950Y328120D01*
X217500Y342570D02*
Y354500D01*
X182950Y294760D02*
Y330270D01*
X189950Y337270D01*
Y294760D02*
Y337270D01*
X197500Y344820D02*
Y354500D01*
X189950Y337270D02*
X197500Y344820D01*
X175950Y294760D02*
X176022Y294832D01*
Y342900D01*
X177500Y344378D02*
Y354500D01*
X176022Y342900D02*
X177500Y344378D01*
X84950Y294760D02*
Y333362D01*
X77950Y294760D02*
Y334236D01*
X87500Y343786D01*
X70950Y294760D02*
Y335196D01*
X67564Y338582D02*
X70950Y335196D01*
X63950Y294760D02*
Y334830D01*
X58095Y340685D02*
X63950Y334830D01*
X720641Y296375D02*
X736250D01*
X690372Y326644D02*
X720641Y296375D01*
X590804Y319786D02*
X615950D01*
X590550Y320040D02*
X590804Y319786D01*
X740410Y228346D02*
X752348Y240284D01*
X740410Y223520D02*
Y228346D01*
X257302Y355552D02*
X257500Y355750D01*
X237490Y355740D02*
X237500Y355750D01*
X217500Y354500D02*
X217678Y354322D01*
X197500Y354500D02*
X197612Y354388D01*
X87500Y374250D02*
X87750D01*
X96905Y365095D01*
Y345317D02*
Y365095D01*
X84950Y333362D02*
X96905Y345317D01*
X87500Y343786D02*
Y355750D01*
X67250Y374250D02*
X67500D01*
X58095Y365095D02*
X67250Y374250D01*
X58095Y340685D02*
Y365095D01*
X67564Y338582D02*
Y355686D01*
X67500Y355750D02*
X67564Y355686D01*
X953570Y361709D02*
X953650D01*
X925280Y390000D02*
X953570Y361709D01*
X925200Y390000D02*
X925280D01*
D74*
X940562Y192532D02*
Y202220D01*
X940344Y202438D02*
X940562Y202220D01*
D75*
X25000Y25000D02*
D03*
X975000D02*
D03*
Y475000D02*
D03*
X25000D02*
D03*
D76*
X966350Y310909D02*
D03*
Y323609D02*
D03*
X953650Y310909D02*
D03*
Y323609D02*
D03*
X966350Y336309D02*
D03*
Y349009D02*
D03*
X953650Y336309D02*
D03*
Y349009D02*
D03*
X966350Y361709D02*
D03*
X953650D02*
D03*
X868426Y159004D02*
D03*
X881126D02*
D03*
X868426Y146304D02*
D03*
X881126D02*
D03*
D77*
X925200Y390000D02*
D03*
X822500Y139800D02*
D03*
D78*
X899800Y390000D02*
D03*
D79*
X978200Y156800D02*
D03*
Y243200D02*
D03*
D80*
X936400D02*
D03*
Y156800D02*
D03*
D81*
X941700Y228900D02*
D03*
Y171100D02*
D03*
D82*
X847600Y55880D02*
D03*
X101600D02*
D03*
D83*
X898400D02*
D03*
X152400D02*
D03*
D84*
X822500Y165200D02*
D03*
D85*
X158450Y219760D02*
D03*
D86*
X606806Y200152D02*
D03*
X705612Y53594D02*
D03*
X234188Y35306D02*
D03*
X241046Y44958D02*
D03*
X225500Y47296D02*
D03*
X401828Y142748D02*
D03*
X368345Y142520D02*
D03*
X725170Y312928D02*
D03*
X786892Y326898D02*
D03*
X772922Y318262D02*
D03*
X837184Y312928D02*
D03*
Y331470D02*
D03*
X792988Y352298D02*
D03*
X786638D02*
D03*
X517398Y133858D02*
D03*
X531114D02*
D03*
X503682D02*
D03*
X544830D02*
D03*
X489966D02*
D03*
X973074Y217424D02*
D03*
Y187198D02*
D03*
X886206Y207518D02*
D03*
X884682Y168402D02*
D03*
X854710Y179832D02*
D03*
Y235204D02*
D03*
X726694Y258826D02*
D03*
X764540Y258572D02*
D03*
X745490D02*
D03*
X679196Y259080D02*
D03*
X683006Y301244D02*
D03*
X657860Y313436D02*
D03*
Y331724D02*
D03*
X612648Y352044D02*
D03*
X656336Y352298D02*
D03*
X702564Y352044D02*
D03*
X695960D02*
D03*
X757428Y363220D02*
D03*
X747776Y331724D02*
D03*
X780796Y395478D02*
D03*
Y450088D02*
D03*
X691134Y395224D02*
D03*
Y449834D02*
D03*
X600964Y395224D02*
D03*
Y449834D02*
D03*
X117625Y355750D02*
D03*
X56896Y278638D02*
D03*
X105918D02*
D03*
X120142D02*
D03*
X134366D02*
D03*
X140970D02*
D03*
X162052D02*
D03*
X168910D02*
D03*
X196850D02*
D03*
X203962D02*
D03*
X211074D02*
D03*
X260096D02*
D03*
X252984D02*
D03*
X225044D02*
D03*
X217932D02*
D03*
X107442Y385572D02*
D03*
X127508D02*
D03*
X237236D02*
D03*
X257556D02*
D03*
X217424Y365252D02*
D03*
X791718Y216408D02*
D03*
X791972Y158242D02*
D03*
Y187452D02*
D03*
X748792Y99822D02*
D03*
X711708Y84074D02*
D03*
X698246Y84328D02*
D03*
X687070Y109982D02*
D03*
X628396Y269748D02*
D03*
X593090Y301498D02*
D03*
X567944Y313690D02*
D03*
X577850Y325120D02*
D03*
X606298Y352044D02*
D03*
X566166Y351536D02*
D03*
X567944Y331470D02*
D03*
X531114Y363220D02*
D03*
X517144Y342646D02*
D03*
X511048Y449834D02*
D03*
Y395224D02*
D03*
X217678Y145034D02*
D03*
X401828Y176784D02*
D03*
X383032Y187706D02*
D03*
X516128Y218440D02*
D03*
X607568Y167640D02*
D03*
X485394Y232664D02*
D03*
X895604Y235204D02*
D03*
X951484Y217424D02*
D03*
Y187198D02*
D03*
X258318Y15240D02*
D03*
X419608Y85852D02*
D03*
X328930Y114554D02*
D03*
X646938Y109728D02*
D03*
X696976Y109982D02*
D03*
X778256D02*
D03*
X772922Y54864D02*
D03*
X710692Y66040D02*
D03*
X699008D02*
D03*
X624840Y75184D02*
D03*
X600202Y74930D02*
D03*
X747522Y219964D02*
D03*
X737616Y143002D02*
D03*
X672592D02*
D03*
X407670Y35052D02*
D03*
X662305Y160020D02*
D03*
X599694Y92964D02*
D03*
X599948Y101600D02*
D03*
X627380Y148082D02*
D03*
X672465Y231394D02*
D03*
X405003Y245999D02*
D03*
X405257Y258699D02*
D03*
X649478Y258572D02*
D03*
X391033Y245872D02*
D03*
X390906Y254508D02*
D03*
X148336Y279019D02*
D03*
X179832Y267716D02*
D03*
X191389Y262287D02*
D03*
X667639Y255905D02*
D03*
X649478Y230886D02*
D03*
X636270Y194818D02*
D03*
X576072Y177038D02*
D03*
X698246Y269240D02*
D03*
X197612Y365252D02*
D03*
X177546D02*
D03*
X576834Y137254D02*
D03*
X592582Y230886D02*
D03*
X576326Y158242D02*
D03*
X638556Y240030D02*
D03*
X411734Y204978D02*
D03*
X411988Y142494D02*
D03*
X399288Y98806D02*
D03*
X397510Y162052D02*
D03*
X341630Y187452D02*
D03*
X340360Y157734D02*
D03*
X338836Y131572D02*
D03*
X304800Y110744D02*
D03*
X282194D02*
D03*
X211582Y112522D02*
D03*
X736250Y296375D02*
D03*
X690372Y326644D02*
D03*
X615950Y319786D02*
D03*
X740410Y223520D02*
D03*
X752348Y240284D02*
D03*
X590550Y320040D02*
D03*
X940344Y202438D02*
D03*
X940562Y192532D02*
D03*
D104*
X259950Y294760D02*
D03*
X238950D02*
D03*
X196950D02*
D03*
X175950D02*
D03*
X217950D02*
D03*
X119950D02*
D03*
X140950D02*
D03*
X98950D02*
D03*
X252950D02*
D03*
X245950D02*
D03*
X231950D02*
D03*
X224950D02*
D03*
X203950D02*
D03*
X210950D02*
D03*
X189950D02*
D03*
X182950D02*
D03*
X161950D02*
D03*
X168950D02*
D03*
X154950D02*
D03*
X147950D02*
D03*
X126950D02*
D03*
X133950D02*
D03*
X112950D02*
D03*
X105950D02*
D03*
X91950D02*
D03*
X56950D02*
D03*
X84950D02*
D03*
X63950D02*
D03*
X70950D02*
D03*
X77950D02*
D03*
M02*
