G04*
G04 #@! TF.GenerationSoftware,Altium Limited,Altium Designer,20.2.6 (244)*
G04*
G04 Layer_Color=32768*
%FSLAX44Y44*%
%MOMM*%
G71*
G04*
G04 #@! TF.SameCoordinates,5F1E5769-8BC1-42D3-870D-05276483D41C*
G04*
G04*
G04 #@! TF.FilePolarity,Positive*
G04*
G01*
G75*
%ADD107C,0.1000*%
%ADD108C,0.0500*%
D107*
X757500Y105000D02*
Y115000D01*
X752500Y110000D02*
X762500D01*
X717500Y105000D02*
Y115000D01*
X712500Y110000D02*
X722500D01*
X667500Y105000D02*
Y115000D01*
X662500Y110000D02*
X672500D01*
X752500Y45000D02*
Y55000D01*
X747500Y50000D02*
X757500D01*
X717500Y75000D02*
X727500D01*
X722500Y70000D02*
Y80000D01*
X682500Y75000D02*
X692500D01*
X687500Y70000D02*
Y80000D01*
X595000Y75000D02*
X605000D01*
X600000Y70000D02*
Y80000D01*
X615000Y75000D02*
X625000D01*
X620000Y70000D02*
Y80000D01*
X647500Y75000D02*
X657500D01*
X652500Y70000D02*
Y80000D01*
X541500Y347250D02*
Y357250D01*
X536500Y352250D02*
X546500D01*
X586500Y347250D02*
Y357250D01*
X581500Y352250D02*
X591500D01*
X631500Y347250D02*
Y357250D01*
X626500Y352250D02*
X636500D01*
X676500Y347250D02*
Y357250D01*
X671500Y352250D02*
X681500D01*
X721500Y347250D02*
Y357250D01*
X716500Y352250D02*
X726500D01*
X766500Y347250D02*
Y357250D01*
X761500Y352250D02*
X771500D01*
X811500Y347250D02*
Y357250D01*
X806500Y352250D02*
X816500D01*
X875000Y230000D02*
Y240000D01*
X870000Y235000D02*
X880000D01*
X873000Y50880D02*
Y60880D01*
X868000Y55880D02*
X878000D01*
X777500Y167500D02*
X787500D01*
X782500Y162500D02*
Y172500D01*
X777500Y207500D02*
X787500D01*
X782500Y202500D02*
Y212500D01*
X755000Y265000D02*
Y275000D01*
X750000Y270000D02*
X760000D01*
X717500Y265000D02*
Y275000D01*
X712500Y270000D02*
X722500D01*
X670000Y265000D02*
Y275000D01*
X665000Y270000D02*
X675000D01*
X630000Y265000D02*
Y275000D01*
X625000Y270000D02*
X635000D01*
X617500Y235000D02*
Y245000D01*
X612500Y240000D02*
X622500D01*
X587500Y210000D02*
X597500D01*
X592500Y205000D02*
Y215000D01*
X582500Y167500D02*
X592500D01*
X587500Y162500D02*
Y172500D01*
X597500Y132500D02*
Y142500D01*
X592500Y137500D02*
X602500D01*
X530000Y170000D02*
X540000D01*
X535000Y165000D02*
Y175000D01*
X490000Y170000D02*
X500000D01*
X495000Y165000D02*
Y175000D01*
X415000Y62500D02*
Y72500D01*
X410000Y67500D02*
X420000D01*
X300000Y90000D02*
X310000D01*
X305000Y85000D02*
Y95000D01*
X277500Y90000D02*
X287500D01*
X282500Y85000D02*
Y95000D01*
X127000Y50880D02*
Y60880D01*
X122000Y55880D02*
X132000D01*
X237500Y40000D02*
Y50000D01*
X232500Y45000D02*
X242500D01*
X870000Y207500D02*
X880000D01*
X875000Y202500D02*
Y212500D01*
X237500Y107500D02*
Y117500D01*
X232500Y112500D02*
X242500D01*
X397500Y155000D02*
Y165000D01*
X392500Y160000D02*
X402500D01*
X415000Y100000D02*
Y110000D01*
X410000Y105000D02*
X420000D01*
X526500Y317250D02*
Y327250D01*
X521500Y322250D02*
X531500D01*
X586500Y317250D02*
Y327250D01*
X581500Y322250D02*
X591500D01*
X616500Y317250D02*
Y327250D01*
X611500Y322250D02*
X621500D01*
X706500Y317250D02*
Y327250D01*
X701500Y322250D02*
X711500D01*
X676500Y317250D02*
Y327250D01*
X671500Y322250D02*
X681500D01*
X796500Y317250D02*
Y327250D01*
X791500Y322250D02*
X801500D01*
X766500Y317250D02*
Y327250D01*
X761500Y322250D02*
X771500D01*
X700000Y187500D02*
X710000D01*
X705000Y182500D02*
Y192500D01*
X510000Y237500D02*
X520000D01*
X515000Y232500D02*
Y242500D01*
X427500Y205000D02*
X437500D01*
X432500Y200000D02*
Y210000D01*
X427500Y185000D02*
X437500D01*
X432500Y180000D02*
Y190000D01*
X427500Y162500D02*
X437500D01*
X432500Y157500D02*
Y167500D01*
X356250Y158000D02*
X366250D01*
X361250Y153000D02*
Y163000D01*
X232500Y80000D02*
X242500D01*
X237500Y75000D02*
Y85000D01*
X967500Y217500D02*
X977500D01*
X972500Y212500D02*
Y222500D01*
X967500Y187500D02*
X977500D01*
X972500Y182500D02*
Y192500D01*
X217500Y360000D02*
Y370000D01*
X212500Y365000D02*
X222500D01*
X177500Y360000D02*
Y370000D01*
X172500Y365000D02*
X182500D01*
X197500Y360000D02*
Y370000D01*
X192500Y365000D02*
X202500D01*
X627500Y162500D02*
Y172500D01*
X622500Y167500D02*
X632500D01*
X607500Y162500D02*
Y172500D01*
X602500Y167500D02*
X612500D01*
X907500Y310000D02*
X917500D01*
X912500Y305000D02*
Y315000D01*
X907500Y327500D02*
X917500D01*
X912500Y322500D02*
Y332500D01*
X907500Y345000D02*
X917500D01*
X912500Y340000D02*
Y350000D01*
X907500Y362500D02*
X917500D01*
X912500Y357500D02*
Y367500D01*
X530000Y207500D02*
X540000D01*
X535000Y202500D02*
Y212500D01*
X490000Y207500D02*
X500000D01*
X495000Y202500D02*
Y212500D01*
X232500Y145000D02*
X242500D01*
X237500Y140000D02*
Y150000D01*
X357500Y187500D02*
X367500D01*
X362500Y182500D02*
Y192500D01*
X350000Y117500D02*
Y127500D01*
X345000Y122500D02*
X355000D01*
X372500Y117500D02*
Y127500D01*
X367500Y122500D02*
X377500D01*
X427500Y142500D02*
X437500D01*
X432500Y137500D02*
Y147500D01*
X545000Y107500D02*
Y117500D01*
X540000Y112500D02*
X550000D01*
X517500Y107500D02*
Y117500D01*
X512500Y112500D02*
X522500D01*
X490000Y107500D02*
Y117500D01*
X485000Y112500D02*
X495000D01*
X232500Y15000D02*
X242500D01*
X237500Y10000D02*
Y20000D01*
Y360000D02*
Y370000D01*
X232500Y365000D02*
X242500D01*
X257500Y360000D02*
Y370000D01*
X252500Y365000D02*
X262500D01*
X870000Y180000D02*
X880000D01*
X875000Y175000D02*
Y185000D01*
X87500Y360000D02*
Y370000D01*
X82500Y365000D02*
X92500D01*
X67500Y360000D02*
Y370000D01*
X62500Y365000D02*
X72500D01*
X127500Y360000D02*
Y370000D01*
X122500Y365000D02*
X132500D01*
X107500Y360000D02*
Y370000D01*
X102500Y365000D02*
X112500D01*
X826500Y317250D02*
Y327250D01*
X821500Y322250D02*
X831500D01*
X736500Y317250D02*
Y327250D01*
X731500Y322250D02*
X741500D01*
X646500Y317250D02*
Y327250D01*
X641500Y322250D02*
X651500D01*
X556500Y317250D02*
Y327250D01*
X551500Y322250D02*
X561500D01*
D108*
X736000Y122500D02*
X779000D01*
X736000Y97500D02*
X779000D01*
X736000D02*
Y122500D01*
X779000Y97500D02*
Y122500D01*
X696000D02*
X739000D01*
X696000Y97500D02*
X739000D01*
X696000D02*
Y122500D01*
X739000Y97500D02*
Y122500D01*
X646000Y97500D02*
X689000D01*
X646000Y122500D02*
X689000D01*
Y97500D02*
Y122500D01*
X646000Y97500D02*
Y122500D01*
X731000Y62500D02*
X774000D01*
X731000Y37500D02*
X774000D01*
X731000D02*
Y62500D01*
X774000Y37500D02*
Y62500D01*
X735000Y53500D02*
Y96500D01*
X710000Y53500D02*
Y96500D01*
X735000D01*
X710000Y53500D02*
X735000D01*
X675000Y53500D02*
Y96500D01*
X700000Y53500D02*
Y96500D01*
X675000Y53500D02*
X700000D01*
X675000Y96500D02*
X700000D01*
X612500Y53500D02*
Y96500D01*
X587500Y53500D02*
Y96500D01*
X612500D01*
X587500Y53500D02*
X612500D01*
X607500D02*
Y96500D01*
X632500Y53500D02*
Y96500D01*
X607500Y53500D02*
X632500D01*
X607500Y96500D02*
X632500D01*
X627000Y54500D02*
Y95500D01*
X678000Y54500D02*
Y95500D01*
X627000D02*
X678000D01*
X627000Y54500D02*
X678000D01*
X520000Y364750D02*
X563000D01*
X520000Y339750D02*
X563000D01*
X520000D02*
Y364750D01*
X563000Y339750D02*
Y364750D01*
X565000Y339750D02*
X608000D01*
X565000Y364750D02*
X608000D01*
Y339750D02*
Y364750D01*
X565000Y339750D02*
Y364750D01*
X610000D02*
X653000D01*
X610000Y339750D02*
X653000D01*
X610000D02*
Y364750D01*
X653000Y339750D02*
Y364750D01*
X655000Y339750D02*
X698000D01*
X655000Y364750D02*
X698000D01*
Y339750D02*
Y364750D01*
X655000Y339750D02*
Y364750D01*
X700000D02*
X743000D01*
X700000Y339750D02*
X743000D01*
X700000D02*
Y364750D01*
X743000Y339750D02*
Y364750D01*
X745000Y339750D02*
X788000D01*
X745000Y364750D02*
X788000D01*
Y339750D02*
Y364750D01*
X745000Y339750D02*
Y364750D01*
X790000D02*
X833000D01*
X790000Y339750D02*
X833000D01*
X790000D02*
Y364750D01*
X833000Y339750D02*
Y364750D01*
X940250Y371559D02*
X979750D01*
X940250Y301059D02*
Y371559D01*
Y301059D02*
X979750D01*
Y371559D01*
X960000Y331309D02*
Y341309D01*
X955000Y336309D02*
X965000D01*
X883600Y405450D02*
X941400D01*
Y374550D02*
Y405450D01*
X883600Y374550D02*
X941400D01*
X883600D02*
Y405450D01*
X912500Y385000D02*
Y395000D01*
X907500Y390000D02*
X917500D01*
X853500Y222500D02*
X896500D01*
X853500Y247500D02*
X896500D01*
Y222500D02*
Y247500D01*
X853500Y222500D02*
Y247500D01*
X815501Y14379D02*
Y97379D01*
Y14379D02*
X924799D01*
X815501Y97379D02*
X924799D01*
Y14379D02*
Y97380D01*
X837950Y123600D02*
Y181400D01*
X807050Y123600D02*
X837950D01*
X807050D02*
Y181400D01*
X837950D01*
X817500Y152500D02*
X827500D01*
X822500Y147500D02*
Y157500D01*
X770000Y146000D02*
Y189000D01*
X795000Y146000D02*
Y189000D01*
X770000Y146000D02*
X795000D01*
X770000Y189000D02*
X795000D01*
Y186000D02*
Y229000D01*
X770000Y186000D02*
Y229000D01*
X795000D01*
X770000Y186000D02*
X795000D01*
X733500Y257500D02*
X776500D01*
X733500Y282500D02*
X776500D01*
Y257500D02*
Y282500D01*
X733500Y257500D02*
Y282500D01*
X696000D02*
X739000D01*
X696000Y257500D02*
X739000D01*
X696000D02*
Y282500D01*
X739000Y257500D02*
Y282500D01*
X648500D02*
X691500D01*
X648500Y257500D02*
X691500D01*
X648500D02*
Y282500D01*
X691500Y257500D02*
Y282500D01*
X608500Y257500D02*
X651500D01*
X608500Y282500D02*
X651500D01*
Y257500D02*
Y282500D01*
X608500Y257500D02*
Y282500D01*
X596000Y252500D02*
X639000D01*
X596000Y227500D02*
X639000D01*
X596000D02*
Y252500D01*
X639000Y227500D02*
Y252500D01*
X580000Y188500D02*
Y231500D01*
X605000Y188500D02*
Y231500D01*
X580000Y188500D02*
X605000D01*
X580000Y231500D02*
X605000D01*
X575000Y146000D02*
Y189000D01*
X600000Y146000D02*
Y189000D01*
X575000Y146000D02*
X600000D01*
X575000Y189000D02*
X600000D01*
X576000Y125000D02*
X619000D01*
X576000Y150000D02*
X619000D01*
Y125000D02*
Y150000D01*
X576000Y125000D02*
Y150000D01*
X522500Y148500D02*
Y191500D01*
X547500Y148500D02*
Y191500D01*
X522500Y148500D02*
X547500D01*
X522500Y191500D02*
X547500D01*
X482500Y148500D02*
Y191500D01*
X507500Y148500D02*
Y191500D01*
X482500Y148500D02*
X507500D01*
X482500Y191500D02*
X507500D01*
X393500Y80000D02*
X436500D01*
X393500Y55000D02*
X436500D01*
X393500D02*
Y80000D01*
X436500Y55000D02*
Y80000D01*
X292500Y68500D02*
Y111500D01*
X317500Y68500D02*
Y111500D01*
X292500Y68500D02*
X317500D01*
X292500Y111500D02*
X317500D01*
X270000Y68500D02*
Y111500D01*
X295000Y68500D02*
Y111500D01*
X270000Y68500D02*
X295000D01*
X270000Y111500D02*
X295000D01*
X69501Y14379D02*
Y97379D01*
Y14379D02*
X178799D01*
X69501Y97379D02*
X178799D01*
Y14379D02*
Y97380D01*
X218250Y62500D02*
X256750D01*
X218250Y27500D02*
X256750D01*
X218250D02*
Y62500D01*
X256750Y27500D02*
Y62500D01*
X906250Y190000D02*
Y225000D01*
X843750Y190000D02*
Y225000D01*
Y190000D02*
X906250D01*
X843750Y225000D02*
X906250D01*
X212000Y92000D02*
X263000D01*
X212000Y133000D02*
X263000D01*
Y92000D02*
Y133000D01*
X212000Y92000D02*
Y133000D01*
X385500Y173750D02*
X409500D01*
X385500Y146250D02*
X409500D01*
Y173750D01*
X385500Y146250D02*
Y173750D01*
X381500Y131000D02*
X448500D01*
X381500Y79000D02*
X448500D01*
X381500D02*
Y131000D01*
X448500Y79000D02*
Y131000D01*
X510000Y339750D02*
X543000D01*
X510000Y304750D02*
X543000D01*
Y339750D01*
X510000Y304750D02*
Y339750D01*
X570500Y344750D02*
X602500D01*
X570500Y299750D02*
X602500D01*
Y344750D01*
X570500Y299750D02*
Y344750D01*
X600000Y339750D02*
X633000D01*
X600000Y304750D02*
X633000D01*
Y339750D01*
X600000Y304750D02*
Y339750D01*
X690000D02*
X723000D01*
X690000Y304750D02*
X723000D01*
Y339750D01*
X690000Y304750D02*
Y339750D01*
X660500Y299750D02*
X692500D01*
X660500Y344750D02*
X692500D01*
X660500Y299750D02*
Y344750D01*
X692500Y299750D02*
Y344750D01*
X780000Y339750D02*
X813000D01*
X780000Y304750D02*
X813000D01*
Y339750D01*
X780000Y304750D02*
Y339750D01*
X750500Y299750D02*
X782500D01*
X750500Y344750D02*
X782500D01*
X750500Y299750D02*
Y344750D01*
X782500Y299750D02*
Y344750D01*
X638000Y120500D02*
Y254500D01*
X772000Y120500D02*
Y254500D01*
X638000D02*
X772000D01*
X638000Y120500D02*
X772000D01*
X536500Y225000D02*
Y250000D01*
X493500Y225000D02*
Y250000D01*
Y225000D02*
X536500D01*
X493500Y250000D02*
X536500D01*
X411000Y192500D02*
Y217500D01*
X454000Y192500D02*
Y217500D01*
X411000D02*
X454000D01*
X411000Y192500D02*
X454000D01*
X411000Y172500D02*
Y197500D01*
X454000Y172500D02*
Y197500D01*
X411000D02*
X454000D01*
X411000Y172500D02*
X454000D01*
X454000Y150000D02*
Y175000D01*
X411000Y150000D02*
Y175000D01*
Y150000D02*
X454000D01*
X411000Y175000D02*
X454000D01*
X382750Y145500D02*
Y170500D01*
X339750Y145500D02*
Y170500D01*
Y145500D02*
X382750D01*
X339750Y170500D02*
X382750D01*
X210500Y65500D02*
Y94500D01*
X264500Y65500D02*
Y94500D01*
X210500D02*
X264500D01*
X210500Y65500D02*
X264500D01*
X951000Y205000D02*
Y230000D01*
X994000Y205000D02*
Y230000D01*
X951000Y205000D02*
X994000D01*
X951000Y230000D02*
X994000D01*
X951000Y175000D02*
Y200000D01*
X994000Y175000D02*
Y200000D01*
X951000Y175000D02*
X994000D01*
X951000Y200000D02*
X994000D01*
X205000Y343500D02*
X230000D01*
X205000Y386500D02*
X230000D01*
Y343500D02*
Y386500D01*
X205000Y343500D02*
Y386500D01*
X165000Y343500D02*
X190000D01*
X165000Y386500D02*
X190000D01*
Y343500D02*
Y386500D01*
X165000Y343500D02*
Y386500D01*
X185000Y343500D02*
X210000D01*
X185000Y386500D02*
X210000D01*
Y343500D02*
Y386500D01*
X185000Y343500D02*
Y386500D01*
X615000Y189000D02*
X640000D01*
X615000Y146000D02*
X640000D01*
Y189000D01*
X615000Y146000D02*
Y189000D01*
X595000D02*
X620000D01*
X595000Y146000D02*
X620000D01*
Y189000D01*
X595000Y146000D02*
Y189000D01*
X934000Y297500D02*
Y322500D01*
X891000Y297500D02*
Y322500D01*
Y297500D02*
X934000D01*
X891000Y322500D02*
X934000D01*
Y315000D02*
Y340000D01*
X891000Y315000D02*
Y340000D01*
Y315000D02*
X934000D01*
X891000Y340000D02*
X934000D01*
Y332500D02*
Y357500D01*
X891000Y332500D02*
Y357500D01*
Y332500D02*
X934000D01*
X891000Y357500D02*
X934000D01*
Y350000D02*
Y375000D01*
X891000Y350000D02*
Y375000D01*
Y350000D02*
X934000D01*
X891000Y375000D02*
X934000D01*
X519400Y226500D02*
X550600D01*
X519400Y188500D02*
X550600D01*
X519400D02*
Y226500D01*
X550600Y188500D02*
Y226500D01*
X479400D02*
X510600D01*
X479400Y188500D02*
X510600D01*
X479400D02*
Y226500D01*
X510600Y188500D02*
Y226500D01*
X869776Y152654D02*
X879776D01*
X874776Y147654D02*
Y157654D01*
X894526Y136454D02*
Y168854D01*
X855026Y136454D02*
X894526D01*
X855026D02*
Y168854D01*
X894526D01*
X259000Y132500D02*
Y157500D01*
X216000Y132500D02*
Y157500D01*
Y132500D02*
X259000D01*
X216000Y157500D02*
X259000D01*
X384000Y175000D02*
Y200000D01*
X341000Y175000D02*
Y200000D01*
Y175000D02*
X384000D01*
X341000Y200000D02*
X384000D01*
X337500Y101000D02*
X362500D01*
X337500Y144000D02*
X362500D01*
X337500Y101000D02*
Y144000D01*
X362500Y101000D02*
Y144000D01*
X360000Y101000D02*
X385000D01*
X360000Y144000D02*
X385000D01*
X360000Y101000D02*
Y144000D01*
X385000Y101000D02*
Y144000D01*
X454000Y130000D02*
Y155000D01*
X411000Y130000D02*
Y155000D01*
Y130000D02*
X454000D01*
X411000Y155000D02*
X454000D01*
X532500Y91000D02*
X557500D01*
X532500Y134000D02*
X557500D01*
X532500Y91000D02*
Y134000D01*
X557500Y91000D02*
Y134000D01*
X505000Y91000D02*
X530000D01*
X505000Y134000D02*
X530000D01*
X505000Y91000D02*
Y134000D01*
X530000Y91000D02*
Y134000D01*
X477500Y91000D02*
X502500D01*
X477500Y134000D02*
X502500D01*
X477500Y91000D02*
Y134000D01*
X502500Y91000D02*
Y134000D01*
X216000Y2500D02*
Y27500D01*
X259000Y2500D02*
Y27500D01*
X216000D02*
X259000D01*
X216000Y2500D02*
X259000D01*
X225000Y386500D02*
X250000D01*
X225000Y343500D02*
X250000D01*
X225000D02*
Y386500D01*
X250000Y343500D02*
Y386500D01*
X245000D02*
X270000D01*
X245000Y343500D02*
X270000D01*
X245000D02*
Y386500D01*
X270000Y343500D02*
Y386500D01*
X853500Y167500D02*
Y192500D01*
X896500Y167500D02*
Y192500D01*
X853500D02*
X896500D01*
X853500Y167500D02*
X896500D01*
X75000Y343500D02*
X100000D01*
X75000Y386500D02*
X100000D01*
Y343500D02*
Y386500D01*
X75000Y343500D02*
Y386500D01*
X55000Y386500D02*
X80000D01*
X55000Y343500D02*
X80000D01*
X55000D02*
Y386500D01*
X80000Y343500D02*
Y386500D01*
X115000D02*
X140000D01*
X115000Y343500D02*
X140000D01*
X115000D02*
Y386500D01*
X140000Y343500D02*
Y386500D01*
X95000Y343500D02*
X120000D01*
X95000Y386500D02*
X120000D01*
Y343500D02*
Y386500D01*
X95000Y343500D02*
Y386500D01*
X814000Y343750D02*
X839000D01*
X814000Y300750D02*
X839000D01*
Y343750D01*
X814000Y300750D02*
Y343750D01*
X724000D02*
X749000D01*
X724000Y300750D02*
X749000D01*
Y343750D01*
X724000Y300750D02*
Y343750D01*
X634000D02*
X659000D01*
X634000Y300750D02*
X659000D01*
Y343750D01*
X634000Y300750D02*
Y343750D01*
X544000D02*
X569000D01*
X544000Y300750D02*
X569000D01*
Y343750D01*
X544000Y300750D02*
Y343750D01*
M02*
