G04*
G04 #@! TF.GenerationSoftware,Altium Limited,Altium Designer,20.2.6 (244)*
G04*
G04 Layer_Color=16711935*
%FSLAX44Y44*%
%MOMM*%
G71*
G04*
G04 #@! TF.SameCoordinates,5F1E5769-8BC1-42D3-870D-05276483D41C*
G04*
G04*
G04 #@! TF.FilePolarity,Negative*
G04*
G01*
G75*
%ADD39R,1.7032X1.6532*%
%ADD40R,1.7032X1.4032*%
%ADD43R,1.4032X1.7032*%
%ADD58C,3.2032*%
%ADD59C,1.2532*%
%ADD60C,1.8032*%
%ADD61R,1.8032X1.8032*%
%ADD62O,1.8032X1.2032*%
%ADD63O,2.3032X1.2032*%
%ADD64C,1.0532*%
%ADD65R,2.0032X2.0032*%
%ADD66C,2.0032*%
%ADD67R,1.8032X1.8032*%
%ADD68O,22.2032X0.7032*%
%ADD69C,0.6532*%
%ADD105R,0.6032X2.7032*%
D39*
X237500Y374250D02*
D03*
Y355750D02*
D03*
X257500Y374250D02*
D03*
Y355750D02*
D03*
X87500D02*
D03*
Y374250D02*
D03*
X67500D02*
D03*
Y355750D02*
D03*
X127500Y374250D02*
D03*
Y355750D02*
D03*
X107500D02*
D03*
Y374250D02*
D03*
D40*
X217500Y354500D02*
D03*
Y375500D02*
D03*
X177500Y354500D02*
D03*
Y375500D02*
D03*
X197500Y354500D02*
D03*
Y375500D02*
D03*
D43*
X962000Y217500D02*
D03*
X983000D02*
D03*
X962000Y187500D02*
D03*
X983000D02*
D03*
D58*
X25000Y25000D02*
D03*
X975000D02*
D03*
Y475000D02*
D03*
X25000D02*
D03*
D59*
X966350Y310909D02*
D03*
Y323609D02*
D03*
X953650Y310909D02*
D03*
Y323609D02*
D03*
X966350Y336309D02*
D03*
Y349009D02*
D03*
X953650Y336309D02*
D03*
Y349009D02*
D03*
X966350Y361709D02*
D03*
X953650D02*
D03*
X868426Y159004D02*
D03*
X881126D02*
D03*
X868426Y146304D02*
D03*
X881126D02*
D03*
D60*
X925200Y390000D02*
D03*
X822500Y139800D02*
D03*
D61*
X899800Y390000D02*
D03*
D62*
X978200Y156800D02*
D03*
Y243200D02*
D03*
D63*
X936400D02*
D03*
Y156800D02*
D03*
D64*
X941700Y228900D02*
D03*
Y171100D02*
D03*
D65*
X847600Y55880D02*
D03*
X101600D02*
D03*
D66*
X898400D02*
D03*
X152400D02*
D03*
D67*
X822500Y165200D02*
D03*
D68*
X158450Y219760D02*
D03*
D69*
X606806Y200152D02*
D03*
X705612Y53594D02*
D03*
X234188Y35306D02*
D03*
X241046Y44958D02*
D03*
X225500Y47296D02*
D03*
X401828Y142748D02*
D03*
X368345Y142520D02*
D03*
X725170Y312928D02*
D03*
X786892Y326898D02*
D03*
X772922Y318262D02*
D03*
X837184Y312928D02*
D03*
Y331470D02*
D03*
X792988Y352298D02*
D03*
X786638D02*
D03*
X517398Y133858D02*
D03*
X531114D02*
D03*
X503682D02*
D03*
X544830D02*
D03*
X489966D02*
D03*
X973074Y217424D02*
D03*
Y187198D02*
D03*
X886206Y207518D02*
D03*
X884682Y168402D02*
D03*
X854710Y179832D02*
D03*
Y235204D02*
D03*
X726694Y258826D02*
D03*
X764540Y258572D02*
D03*
X745490D02*
D03*
X679196Y259080D02*
D03*
X683006Y301244D02*
D03*
X657860Y313436D02*
D03*
Y331724D02*
D03*
X612648Y352044D02*
D03*
X656336Y352298D02*
D03*
X702564Y352044D02*
D03*
X695960D02*
D03*
X757428Y363220D02*
D03*
X747776Y331724D02*
D03*
X780796Y395478D02*
D03*
Y450088D02*
D03*
X691134Y395224D02*
D03*
Y449834D02*
D03*
X600964Y395224D02*
D03*
Y449834D02*
D03*
X117625Y355750D02*
D03*
X56896Y278638D02*
D03*
X105918D02*
D03*
X120142D02*
D03*
X134366D02*
D03*
X140970D02*
D03*
X162052D02*
D03*
X168910D02*
D03*
X196850D02*
D03*
X203962D02*
D03*
X211074D02*
D03*
X260096D02*
D03*
X252984D02*
D03*
X225044D02*
D03*
X217932D02*
D03*
X107442Y385572D02*
D03*
X127508D02*
D03*
X237236D02*
D03*
X257556D02*
D03*
X217424Y365252D02*
D03*
X791718Y216408D02*
D03*
X791972Y158242D02*
D03*
Y187452D02*
D03*
X748792Y99822D02*
D03*
X711708Y84074D02*
D03*
X698246Y84328D02*
D03*
X687070Y109982D02*
D03*
X628396Y269748D02*
D03*
X593090Y301498D02*
D03*
X567944Y313690D02*
D03*
X577850Y325120D02*
D03*
X606298Y352044D02*
D03*
X566166Y351536D02*
D03*
X567944Y331470D02*
D03*
X531114Y363220D02*
D03*
X517144Y342646D02*
D03*
X511048Y449834D02*
D03*
Y395224D02*
D03*
X217678Y145034D02*
D03*
X401828Y176784D02*
D03*
X383032Y187706D02*
D03*
X516128Y218440D02*
D03*
X607568Y167640D02*
D03*
X485394Y232664D02*
D03*
X895604Y235204D02*
D03*
X951484Y217424D02*
D03*
Y187198D02*
D03*
X258318Y15240D02*
D03*
X419608Y85852D02*
D03*
X328930Y114554D02*
D03*
X646938Y109728D02*
D03*
X696976Y109982D02*
D03*
X778256D02*
D03*
X772922Y54864D02*
D03*
X710692Y66040D02*
D03*
X699008D02*
D03*
X624840Y75184D02*
D03*
X600202Y74930D02*
D03*
X747522Y219964D02*
D03*
X737616Y143002D02*
D03*
X672592D02*
D03*
X407670Y35052D02*
D03*
X662305Y160020D02*
D03*
X599694Y92964D02*
D03*
X599948Y101600D02*
D03*
X627380Y148082D02*
D03*
X672465Y231394D02*
D03*
X405003Y245999D02*
D03*
X405257Y258699D02*
D03*
X649478Y258572D02*
D03*
X391033Y245872D02*
D03*
X390906Y254508D02*
D03*
X148336Y279019D02*
D03*
X179832Y267716D02*
D03*
X191389Y262287D02*
D03*
X667639Y255905D02*
D03*
X649478Y230886D02*
D03*
X636270Y194818D02*
D03*
X576072Y177038D02*
D03*
X698246Y269240D02*
D03*
X197612Y365252D02*
D03*
X177546D02*
D03*
X576834Y137254D02*
D03*
X592582Y230886D02*
D03*
X576326Y158242D02*
D03*
X638556Y240030D02*
D03*
X411734Y204978D02*
D03*
X411988Y142494D02*
D03*
X399288Y98806D02*
D03*
X397510Y162052D02*
D03*
X341630Y187452D02*
D03*
X340360Y157734D02*
D03*
X338836Y131572D02*
D03*
X304800Y110744D02*
D03*
X282194D02*
D03*
X211582Y112522D02*
D03*
X736250Y296375D02*
D03*
X690372Y326644D02*
D03*
X615950Y319786D02*
D03*
X740410Y223520D02*
D03*
X752348Y240284D02*
D03*
X590550Y320040D02*
D03*
X940344Y202438D02*
D03*
X940562Y192532D02*
D03*
D105*
X259950Y294760D02*
D03*
X238950D02*
D03*
X196950D02*
D03*
X175950D02*
D03*
X217950D02*
D03*
X119950D02*
D03*
X140950D02*
D03*
X98950D02*
D03*
X252950D02*
D03*
X245950D02*
D03*
X231950D02*
D03*
X224950D02*
D03*
X203950D02*
D03*
X210950D02*
D03*
X189950D02*
D03*
X182950D02*
D03*
X161950D02*
D03*
X168950D02*
D03*
X154950D02*
D03*
X147950D02*
D03*
X126950D02*
D03*
X133950D02*
D03*
X112950D02*
D03*
X105950D02*
D03*
X91950D02*
D03*
X56950D02*
D03*
X84950D02*
D03*
X63950D02*
D03*
X70950D02*
D03*
X77950D02*
D03*
M02*
