G04*
G04 #@! TF.GenerationSoftware,Altium Limited,Altium Designer,21.0.8 (223)*
G04*
G04 Layer_Color=32896*
%FSLAX44Y44*%
%MOMM*%
G71*
G04*
G04 #@! TF.SameCoordinates,9BFC2460-0098-4CE8-B359-2686C5D326B4*
G04*
G04*
G04 #@! TF.FilePolarity,Positive*
G04*
G01*
G75*
%ADD14C,0.2000*%
G36*
X981668Y208111D02*
X981770Y207963D01*
X981890Y207815D01*
X982001Y207686D01*
X982112Y207575D01*
X982195Y207482D01*
X982232Y207455D01*
X982260Y207427D01*
X982269Y207418D01*
X982278Y207409D01*
X982472Y207251D01*
X982666Y207103D01*
X982851Y206974D01*
X983036Y206872D01*
X983193Y206780D01*
X983258Y206743D01*
X983314Y206715D01*
X983360Y206687D01*
X983397Y206678D01*
X983415Y206660D01*
X983425D01*
Y205901D01*
X983286Y205957D01*
X983147Y206022D01*
X983008Y206086D01*
X982879Y206151D01*
X982768Y206206D01*
X982676Y206253D01*
X982620Y206290D01*
X982611Y206299D01*
X982602D01*
X982435Y206401D01*
X982287Y206502D01*
X982158Y206595D01*
X982056Y206678D01*
X981964Y206743D01*
X981908Y206798D01*
X981862Y206835D01*
X981853Y206845D01*
Y201843D01*
X981067D01*
Y208268D01*
X981575D01*
X981668Y208111D01*
D02*
G37*
G36*
X976971Y208259D02*
X977147Y208241D01*
X977313Y208204D01*
X977470Y208157D01*
X977609Y208093D01*
X977748Y208037D01*
X977868Y207963D01*
X977979Y207899D01*
X978071Y207834D01*
X978164Y207760D01*
X978238Y207704D01*
X978293Y207649D01*
X978339Y207593D01*
X978376Y207556D01*
X978395Y207538D01*
X978404Y207529D01*
X978524Y207362D01*
X978626Y207168D01*
X978718Y206965D01*
X978802Y206752D01*
X978867Y206530D01*
X978922Y206308D01*
X978968Y206077D01*
X979005Y205865D01*
X979033Y205652D01*
X979051Y205458D01*
X979070Y205282D01*
X979079Y205134D01*
Y205005D01*
X979088Y204912D01*
Y204875D01*
Y204847D01*
Y204838D01*
Y204829D01*
X979079Y204533D01*
X979061Y204256D01*
X979033Y203997D01*
X978987Y203757D01*
X978940Y203544D01*
X978894Y203350D01*
X978839Y203174D01*
X978774Y203017D01*
X978718Y202887D01*
X978663Y202767D01*
X978617Y202675D01*
X978561Y202591D01*
X978524Y202527D01*
X978497Y202490D01*
X978478Y202462D01*
X978469Y202453D01*
X978349Y202323D01*
X978219Y202212D01*
X978090Y202120D01*
X977960Y202037D01*
X977822Y201963D01*
X977692Y201907D01*
X977563Y201861D01*
X977433Y201824D01*
X977322Y201796D01*
X977212Y201769D01*
X977119Y201750D01*
X977036Y201741D01*
X976962D01*
X976916Y201732D01*
X976869D01*
X976657Y201741D01*
X976463Y201778D01*
X976287Y201815D01*
X976130Y201870D01*
X976010Y201917D01*
X975917Y201963D01*
X975880Y201972D01*
X975852Y201991D01*
X975843Y202000D01*
X975834D01*
X975677Y202111D01*
X975529Y202240D01*
X975409Y202370D01*
X975307Y202499D01*
X975224Y202619D01*
X975168Y202712D01*
X975150Y202749D01*
X975131Y202776D01*
X975122Y202786D01*
Y202795D01*
X975030Y202989D01*
X974965Y203193D01*
X974919Y203377D01*
X974891Y203553D01*
X974863Y203701D01*
Y203757D01*
X974854Y203812D01*
Y203858D01*
Y203886D01*
Y203904D01*
Y203914D01*
X974863Y204080D01*
X974882Y204237D01*
X974909Y204394D01*
X974937Y204533D01*
X974983Y204662D01*
X975030Y204792D01*
X975076Y204903D01*
X975131Y205005D01*
X975187Y205097D01*
X975233Y205180D01*
X975279Y205245D01*
X975325Y205310D01*
X975353Y205356D01*
X975381Y205384D01*
X975399Y205402D01*
X975409Y205411D01*
X975510Y205513D01*
X975621Y205606D01*
X975742Y205679D01*
X975852Y205744D01*
X975963Y205809D01*
X976074Y205855D01*
X976287Y205920D01*
X976379Y205948D01*
X976472Y205966D01*
X976546Y205975D01*
X976620Y205985D01*
X976675Y205994D01*
X976749D01*
X976916Y205985D01*
X977073Y205957D01*
X977221Y205929D01*
X977350Y205892D01*
X977461Y205846D01*
X977544Y205818D01*
X977600Y205791D01*
X977609Y205781D01*
X977618D01*
X977766Y205689D01*
X977896Y205587D01*
X978016Y205485D01*
X978108Y205374D01*
X978192Y205282D01*
X978256Y205208D01*
X978293Y205152D01*
X978303Y205143D01*
Y205310D01*
X978293Y205476D01*
X978284Y205624D01*
X978266Y205772D01*
X978256Y205901D01*
X978238Y206022D01*
X978219Y206133D01*
X978192Y206234D01*
X978173Y206327D01*
X978155Y206401D01*
X978136Y206465D01*
X978127Y206521D01*
X978108Y206558D01*
X978099Y206586D01*
X978090Y206604D01*
Y206613D01*
X977997Y206798D01*
X977905Y206965D01*
X977803Y207094D01*
X977711Y207205D01*
X977628Y207297D01*
X977563Y207362D01*
X977517Y207399D01*
X977498Y207409D01*
X977387Y207482D01*
X977276Y207529D01*
X977165Y207566D01*
X977054Y207593D01*
X976971Y207612D01*
X976897Y207621D01*
X976832D01*
X976666Y207603D01*
X976509Y207566D01*
X976379Y207510D01*
X976259Y207455D01*
X976167Y207390D01*
X976102Y207334D01*
X976065Y207297D01*
X976047Y207279D01*
X975982Y207196D01*
X975917Y207094D01*
X975862Y206983D01*
X975825Y206872D01*
X975788Y206770D01*
X975760Y206687D01*
X975751Y206632D01*
X975742Y206623D01*
Y206613D01*
X974956Y206678D01*
X975011Y206937D01*
X975094Y207168D01*
X975187Y207372D01*
X975288Y207538D01*
X975390Y207667D01*
X975427Y207723D01*
X975473Y207769D01*
X975501Y207797D01*
X975529Y207824D01*
X975538Y207834D01*
X975547Y207843D01*
X975640Y207917D01*
X975742Y207982D01*
X975945Y208093D01*
X976148Y208167D01*
X976342Y208213D01*
X976518Y208250D01*
X976592Y208259D01*
X976657D01*
X976712Y208268D01*
X976786D01*
X976971Y208259D01*
D02*
G37*
G36*
X990146Y201843D02*
X989296D01*
Y204681D01*
X988204D01*
X988103Y204672D01*
X988029D01*
X987964Y204662D01*
X987918Y204653D01*
X987881D01*
X987862Y204644D01*
X987853D01*
X987705Y204598D01*
X987641Y204570D01*
X987585Y204542D01*
X987530Y204515D01*
X987493Y204496D01*
X987474Y204487D01*
X987465Y204478D01*
X987391Y204422D01*
X987317Y204357D01*
X987178Y204219D01*
X987113Y204154D01*
X987067Y204099D01*
X987040Y204062D01*
X987030Y204052D01*
X986938Y203923D01*
X986836Y203784D01*
X986734Y203636D01*
X986633Y203498D01*
X986550Y203368D01*
X986485Y203266D01*
X986457Y203230D01*
X986439Y203202D01*
X986420Y203183D01*
Y203174D01*
X985579Y201843D01*
X984525D01*
X985625Y203581D01*
X985754Y203766D01*
X985875Y203932D01*
X985995Y204071D01*
X986096Y204200D01*
X986189Y204293D01*
X986263Y204367D01*
X986309Y204413D01*
X986328Y204431D01*
X986402Y204487D01*
X986485Y204552D01*
X986651Y204653D01*
X986725Y204690D01*
X986781Y204727D01*
X986818Y204746D01*
X986836Y204755D01*
X986670Y204783D01*
X986513Y204811D01*
X986374Y204857D01*
X986235Y204894D01*
X986115Y204940D01*
X986004Y204995D01*
X985902Y205042D01*
X985810Y205088D01*
X985736Y205143D01*
X985662Y205189D01*
X985607Y205226D01*
X985560Y205264D01*
X985523Y205291D01*
X985496Y205319D01*
X985486Y205328D01*
X985477Y205338D01*
X985403Y205430D01*
X985329Y205522D01*
X985218Y205716D01*
X985144Y205911D01*
X985089Y206096D01*
X985052Y206253D01*
X985042Y206318D01*
Y206382D01*
X985033Y206428D01*
Y206465D01*
Y206484D01*
Y206493D01*
X985042Y206687D01*
X985070Y206863D01*
X985117Y207029D01*
X985163Y207168D01*
X985218Y207288D01*
X985255Y207381D01*
X985292Y207436D01*
X985301Y207446D01*
Y207455D01*
X985412Y207603D01*
X985523Y207732D01*
X985643Y207843D01*
X985754Y207926D01*
X985856Y207991D01*
X985939Y208028D01*
X985995Y208056D01*
X986004Y208065D01*
X986013D01*
X986096Y208093D01*
X986198Y208120D01*
X986402Y208167D01*
X986624Y208194D01*
X986827Y208222D01*
X987021Y208231D01*
X987104D01*
X987178Y208241D01*
X990146D01*
Y201843D01*
D02*
G37*
G36*
X981691Y178111D02*
X981793Y177963D01*
X981913Y177815D01*
X982024Y177686D01*
X982135Y177575D01*
X982218Y177482D01*
X982255Y177455D01*
X982283Y177427D01*
X982292Y177418D01*
X982301Y177409D01*
X982495Y177251D01*
X982690Y177103D01*
X982874Y176974D01*
X983059Y176872D01*
X983216Y176780D01*
X983281Y176743D01*
X983337Y176715D01*
X983383Y176687D01*
X983420Y176678D01*
X983438Y176660D01*
X983448D01*
Y175902D01*
X983309Y175957D01*
X983170Y176022D01*
X983032Y176086D01*
X982902Y176151D01*
X982791Y176207D01*
X982699Y176253D01*
X982643Y176290D01*
X982634Y176299D01*
X982625D01*
X982458Y176401D01*
X982310Y176502D01*
X982181Y176595D01*
X982079Y176678D01*
X981987Y176743D01*
X981931Y176798D01*
X981885Y176835D01*
X981876Y176845D01*
Y171843D01*
X981090D01*
Y178268D01*
X981599D01*
X981691Y178111D01*
D02*
G37*
G36*
X978936Y174866D02*
X978196Y174764D01*
X978131Y174866D01*
X978048Y174949D01*
X977974Y175032D01*
X977900Y175097D01*
X977826Y175143D01*
X977771Y175189D01*
X977734Y175208D01*
X977725Y175217D01*
X977604Y175273D01*
X977484Y175319D01*
X977373Y175347D01*
X977262Y175375D01*
X977170Y175384D01*
X977096Y175393D01*
X976920D01*
X976809Y175375D01*
X976615Y175328D01*
X976449Y175264D01*
X976301Y175199D01*
X976190Y175125D01*
X976107Y175060D01*
X976060Y175014D01*
X976042Y175005D01*
Y174995D01*
X975912Y174838D01*
X975820Y174672D01*
X975755Y174496D01*
X975709Y174321D01*
X975681Y174172D01*
X975672Y174108D01*
Y174052D01*
X975663Y174006D01*
Y173969D01*
Y173951D01*
Y173941D01*
Y173812D01*
X975681Y173692D01*
X975728Y173461D01*
X975792Y173267D01*
X975857Y173109D01*
X975931Y172980D01*
X975996Y172878D01*
X976023Y172850D01*
X976042Y172823D01*
X976051Y172813D01*
X976060Y172804D01*
X976134Y172730D01*
X976208Y172666D01*
X976375Y172554D01*
X976532Y172481D01*
X976689Y172434D01*
X976819Y172397D01*
X976929Y172388D01*
X976966Y172379D01*
X977022D01*
X977198Y172388D01*
X977355Y172425D01*
X977494Y172471D01*
X977604Y172527D01*
X977706Y172582D01*
X977780Y172628D01*
X977817Y172666D01*
X977836Y172675D01*
X977946Y172804D01*
X978039Y172943D01*
X978113Y173100D01*
X978168Y173239D01*
X978205Y173377D01*
X978233Y173479D01*
X978242Y173525D01*
X978252Y173553D01*
Y173572D01*
Y173581D01*
X979074Y173516D01*
X979056Y173368D01*
X979028Y173230D01*
X978945Y172971D01*
X978843Y172749D01*
X978788Y172647D01*
X978732Y172564D01*
X978686Y172481D01*
X978631Y172407D01*
X978585Y172351D01*
X978538Y172305D01*
X978501Y172268D01*
X978483Y172231D01*
X978464Y172222D01*
X978455Y172213D01*
X978344Y172129D01*
X978233Y172055D01*
X978113Y171991D01*
X977993Y171935D01*
X977762Y171852D01*
X977531Y171796D01*
X977429Y171769D01*
X977327Y171759D01*
X977244Y171750D01*
X977170Y171741D01*
X977105Y171732D01*
X977022D01*
X976828Y171741D01*
X976643Y171769D01*
X976467Y171806D01*
X976310Y171852D01*
X976162Y171917D01*
X976023Y171981D01*
X975894Y172046D01*
X975783Y172120D01*
X975681Y172194D01*
X975589Y172259D01*
X975515Y172333D01*
X975450Y172388D01*
X975404Y172434D01*
X975367Y172471D01*
X975349Y172499D01*
X975339Y172508D01*
X975247Y172628D01*
X975173Y172758D01*
X975099Y172878D01*
X975043Y173008D01*
X974951Y173257D01*
X974895Y173498D01*
X974877Y173599D01*
X974858Y173701D01*
X974849Y173784D01*
X974840Y173858D01*
X974831Y173923D01*
Y173969D01*
Y173997D01*
Y174006D01*
X974840Y174172D01*
X974858Y174330D01*
X974886Y174487D01*
X974923Y174626D01*
X974969Y174755D01*
X975016Y174884D01*
X975071Y174995D01*
X975117Y175097D01*
X975173Y175189D01*
X975228Y175273D01*
X975275Y175338D01*
X975321Y175402D01*
X975358Y175448D01*
X975386Y175476D01*
X975404Y175495D01*
X975413Y175504D01*
X975524Y175606D01*
X975635Y175698D01*
X975755Y175772D01*
X975875Y175837D01*
X975996Y175902D01*
X976116Y175948D01*
X976338Y176012D01*
X976440Y176040D01*
X976532Y176059D01*
X976615Y176068D01*
X976689Y176077D01*
X976745Y176086D01*
X976948D01*
X977059Y176068D01*
X977281Y176022D01*
X977484Y175957D01*
X977669Y175883D01*
X977817Y175809D01*
X977882Y175772D01*
X977937Y175744D01*
X977983Y175716D01*
X978011Y175698D01*
X978030Y175689D01*
X978039Y175680D01*
X977697Y177409D01*
X975136D01*
Y178157D01*
X978316D01*
X978936Y174866D01*
D02*
G37*
G36*
X990169Y171843D02*
X989319D01*
Y174681D01*
X988228D01*
X988126Y174672D01*
X988052D01*
X987987Y174662D01*
X987941Y174653D01*
X987904D01*
X987886Y174644D01*
X987876D01*
X987728Y174598D01*
X987664Y174570D01*
X987608Y174542D01*
X987553Y174515D01*
X987516Y174496D01*
X987497Y174487D01*
X987488Y174478D01*
X987414Y174422D01*
X987340Y174357D01*
X987201Y174219D01*
X987137Y174154D01*
X987090Y174099D01*
X987063Y174062D01*
X987053Y174052D01*
X986961Y173923D01*
X986859Y173784D01*
X986758Y173636D01*
X986656Y173498D01*
X986573Y173368D01*
X986508Y173267D01*
X986480Y173230D01*
X986462Y173202D01*
X986443Y173183D01*
Y173174D01*
X985602Y171843D01*
X984548D01*
X985648Y173581D01*
X985778Y173766D01*
X985898Y173932D01*
X986018Y174071D01*
X986120Y174200D01*
X986212Y174293D01*
X986286Y174367D01*
X986332Y174413D01*
X986351Y174431D01*
X986425Y174487D01*
X986508Y174552D01*
X986674Y174653D01*
X986748Y174690D01*
X986804Y174727D01*
X986841Y174746D01*
X986859Y174755D01*
X986693Y174783D01*
X986536Y174811D01*
X986397Y174857D01*
X986258Y174894D01*
X986138Y174940D01*
X986027Y174995D01*
X985926Y175042D01*
X985833Y175088D01*
X985759Y175143D01*
X985685Y175189D01*
X985630Y175226D01*
X985583Y175264D01*
X985546Y175291D01*
X985519Y175319D01*
X985509Y175328D01*
X985500Y175338D01*
X985426Y175430D01*
X985352Y175522D01*
X985241Y175716D01*
X985167Y175911D01*
X985112Y176096D01*
X985075Y176253D01*
X985066Y176318D01*
Y176382D01*
X985056Y176429D01*
Y176465D01*
Y176484D01*
Y176493D01*
X985066Y176687D01*
X985093Y176863D01*
X985140Y177029D01*
X985186Y177168D01*
X985241Y177288D01*
X985278Y177381D01*
X985315Y177436D01*
X985324Y177446D01*
Y177455D01*
X985435Y177603D01*
X985546Y177732D01*
X985667Y177843D01*
X985778Y177926D01*
X985879Y177991D01*
X985963Y178028D01*
X986018Y178056D01*
X986027Y178065D01*
X986036D01*
X986120Y178093D01*
X986221Y178120D01*
X986425Y178167D01*
X986647Y178194D01*
X986850Y178222D01*
X987044Y178231D01*
X987127D01*
X987201Y178241D01*
X990169D01*
Y171843D01*
D02*
G37*
G36*
X211446Y398190D02*
X211548Y398043D01*
X211668Y397895D01*
X211779Y397765D01*
X211890Y397654D01*
X211973Y397562D01*
X212010Y397534D01*
X212038Y397506D01*
X212047Y397497D01*
X212056Y397488D01*
X212250Y397331D01*
X212444Y397183D01*
X212629Y397053D01*
X212814Y396952D01*
X212971Y396859D01*
X213036Y396822D01*
X213092Y396794D01*
X213138Y396767D01*
X213175Y396757D01*
X213193Y396739D01*
X213202D01*
Y395981D01*
X213064Y396036D01*
X212925Y396101D01*
X212786Y396166D01*
X212657Y396230D01*
X212546Y396286D01*
X212454Y396332D01*
X212398Y396369D01*
X212389Y396378D01*
X212380D01*
X212213Y396480D01*
X212065Y396582D01*
X211936Y396674D01*
X211834Y396757D01*
X211742Y396822D01*
X211686Y396878D01*
X211640Y396915D01*
X211631Y396924D01*
Y391922D01*
X210845D01*
Y398348D01*
X211353D01*
X211446Y398190D01*
D02*
G37*
G36*
X219924Y391922D02*
X219073D01*
Y394760D01*
X217982D01*
X217881Y394751D01*
X217807D01*
X217742Y394742D01*
X217696Y394733D01*
X217659D01*
X217640Y394723D01*
X217631D01*
X217483Y394677D01*
X217418Y394650D01*
X217363Y394622D01*
X217307Y394594D01*
X217271Y394576D01*
X217252Y394566D01*
X217243Y394557D01*
X217169Y394501D01*
X217095Y394437D01*
X216956Y394298D01*
X216891Y394233D01*
X216845Y394178D01*
X216817Y394141D01*
X216808Y394132D01*
X216716Y394002D01*
X216614Y393864D01*
X216512Y393716D01*
X216411Y393577D01*
X216327Y393447D01*
X216263Y393346D01*
X216235Y393309D01*
X216217Y393281D01*
X216198Y393263D01*
Y393253D01*
X215357Y391922D01*
X214303D01*
X215403Y393660D01*
X215532Y393845D01*
X215653Y394011D01*
X215773Y394150D01*
X215874Y394280D01*
X215967Y394372D01*
X216041Y394446D01*
X216087Y394492D01*
X216106Y394511D01*
X216180Y394566D01*
X216263Y394631D01*
X216429Y394733D01*
X216503Y394770D01*
X216559Y394807D01*
X216596Y394825D01*
X216614Y394834D01*
X216448Y394862D01*
X216290Y394890D01*
X216152Y394936D01*
X216013Y394973D01*
X215893Y395019D01*
X215782Y395075D01*
X215680Y395121D01*
X215588Y395167D01*
X215514Y395223D01*
X215440Y395269D01*
X215384Y395306D01*
X215338Y395343D01*
X215301Y395371D01*
X215273Y395398D01*
X215264Y395408D01*
X215255Y395417D01*
X215181Y395509D01*
X215107Y395602D01*
X214996Y395796D01*
X214922Y395990D01*
X214867Y396175D01*
X214830Y396332D01*
X214820Y396397D01*
Y396462D01*
X214811Y396508D01*
Y396545D01*
Y396563D01*
Y396572D01*
X214820Y396767D01*
X214848Y396942D01*
X214894Y397109D01*
X214941Y397248D01*
X214996Y397368D01*
X215033Y397460D01*
X215070Y397516D01*
X215079Y397525D01*
Y397534D01*
X215190Y397682D01*
X215301Y397811D01*
X215421Y397922D01*
X215532Y398006D01*
X215634Y398070D01*
X215717Y398107D01*
X215773Y398135D01*
X215782Y398144D01*
X215791D01*
X215874Y398172D01*
X215976Y398200D01*
X216180Y398246D01*
X216401Y398274D01*
X216605Y398302D01*
X216799Y398311D01*
X216882D01*
X216956Y398320D01*
X219924D01*
Y391922D01*
D02*
G37*
G36*
X209097Y394178D02*
Y393457D01*
X206315D01*
Y391922D01*
X205529D01*
Y393457D01*
X204660D01*
Y394178D01*
X205529D01*
Y398320D01*
X206166D01*
X209097Y394178D01*
D02*
G37*
G36*
X167133Y398397D02*
X167383Y398351D01*
X167595Y398277D01*
X167780Y398203D01*
X167864Y398157D01*
X167928Y398120D01*
X167993Y398083D01*
X168039Y398046D01*
X168076Y398018D01*
X168104Y398000D01*
X168122Y397990D01*
X168132Y397981D01*
X168307Y397805D01*
X168446Y397611D01*
X168557Y397408D01*
X168649Y397205D01*
X168705Y397029D01*
X168733Y396955D01*
X168751Y396890D01*
X168760Y396835D01*
X168770Y396798D01*
X168779Y396770D01*
Y396761D01*
X167993Y396622D01*
X167956Y396825D01*
X167901Y397001D01*
X167836Y397149D01*
X167771Y397269D01*
X167706Y397362D01*
X167651Y397426D01*
X167614Y397473D01*
X167605Y397482D01*
X167484Y397574D01*
X167355Y397648D01*
X167235Y397695D01*
X167115Y397732D01*
X167004Y397750D01*
X166921Y397769D01*
X166847D01*
X166680Y397759D01*
X166532Y397722D01*
X166403Y397676D01*
X166292Y397630D01*
X166209Y397574D01*
X166144Y397528D01*
X166098Y397491D01*
X166088Y397482D01*
X165987Y397371D01*
X165913Y397251D01*
X165867Y397131D01*
X165830Y397020D01*
X165811Y396918D01*
X165793Y396844D01*
Y396788D01*
Y396779D01*
Y396770D01*
Y396668D01*
X165811Y396576D01*
X165857Y396419D01*
X165922Y396280D01*
X165996Y396160D01*
X166070Y396077D01*
X166135Y396012D01*
X166181Y395975D01*
X166190Y395966D01*
X166199D01*
X166357Y395882D01*
X166504Y395818D01*
X166662Y395771D01*
X166800Y395744D01*
X166921Y395725D01*
X167022Y395707D01*
X167142D01*
X167179Y395716D01*
X167226D01*
X167318Y395023D01*
X167198Y395050D01*
X167087Y395069D01*
X166994Y395087D01*
X166911Y395097D01*
X166847Y395106D01*
X166763D01*
X166569Y395087D01*
X166394Y395050D01*
X166236Y394995D01*
X166107Y394930D01*
X166005Y394865D01*
X165931Y394810D01*
X165885Y394773D01*
X165867Y394754D01*
X165746Y394616D01*
X165654Y394468D01*
X165589Y394320D01*
X165552Y394172D01*
X165524Y394052D01*
X165515Y393950D01*
X165506Y393913D01*
Y393885D01*
Y393867D01*
Y393858D01*
X165524Y393654D01*
X165571Y393469D01*
X165626Y393312D01*
X165700Y393173D01*
X165774Y393063D01*
X165830Y392979D01*
X165876Y392924D01*
X165894Y392905D01*
X166042Y392776D01*
X166199Y392683D01*
X166357Y392619D01*
X166504Y392573D01*
X166634Y392545D01*
X166736Y392536D01*
X166772Y392526D01*
X166828D01*
X166994Y392536D01*
X167152Y392573D01*
X167290Y392619D01*
X167401Y392674D01*
X167494Y392720D01*
X167568Y392767D01*
X167605Y392804D01*
X167623Y392813D01*
X167734Y392942D01*
X167826Y393090D01*
X167910Y393247D01*
X167974Y393414D01*
X168021Y393553D01*
X168039Y393617D01*
X168048Y393673D01*
X168058Y393719D01*
X168067Y393756D01*
X168076Y393774D01*
Y393784D01*
X168862Y393682D01*
X168844Y393534D01*
X168816Y393395D01*
X168733Y393136D01*
X168631Y392915D01*
X168575Y392822D01*
X168520Y392730D01*
X168465Y392646D01*
X168409Y392582D01*
X168363Y392517D01*
X168317Y392471D01*
X168289Y392434D01*
X168261Y392406D01*
X168243Y392388D01*
X168233Y392378D01*
X168122Y392295D01*
X168011Y392212D01*
X167901Y392147D01*
X167780Y392092D01*
X167549Y391999D01*
X167327Y391944D01*
X167226Y391925D01*
X167133Y391907D01*
X167050Y391898D01*
X166976Y391888D01*
X166921Y391879D01*
X166837D01*
X166662Y391888D01*
X166504Y391907D01*
X166347Y391935D01*
X166199Y391972D01*
X166061Y392018D01*
X165940Y392064D01*
X165820Y392119D01*
X165718Y392175D01*
X165617Y392221D01*
X165534Y392277D01*
X165460Y392323D01*
X165404Y392369D01*
X165358Y392406D01*
X165321Y392434D01*
X165303Y392452D01*
X165293Y392462D01*
X165182Y392573D01*
X165090Y392693D01*
X165007Y392813D01*
X164933Y392933D01*
X164877Y393044D01*
X164822Y393164D01*
X164748Y393386D01*
X164729Y393488D01*
X164711Y393580D01*
X164692Y393663D01*
X164683Y393737D01*
X164674Y393793D01*
Y393839D01*
Y393867D01*
Y393876D01*
X164683Y394098D01*
X164720Y394301D01*
X164776Y394477D01*
X164831Y394625D01*
X164886Y394745D01*
X164942Y394838D01*
X164979Y394893D01*
X164988Y394912D01*
X165118Y395050D01*
X165256Y395171D01*
X165404Y395263D01*
X165552Y395337D01*
X165682Y395392D01*
X165783Y395429D01*
X165820Y395439D01*
X165848Y395448D01*
X165867Y395457D01*
X165876D01*
X165718Y395540D01*
X165589Y395624D01*
X165478Y395716D01*
X165386Y395799D01*
X165312Y395873D01*
X165256Y395938D01*
X165229Y395975D01*
X165219Y395993D01*
X165145Y396123D01*
X165090Y396252D01*
X165044Y396382D01*
X165016Y396502D01*
X164997Y396604D01*
X164988Y396678D01*
Y396733D01*
Y396752D01*
X164997Y396909D01*
X165025Y397066D01*
X165062Y397205D01*
X165108Y397325D01*
X165155Y397426D01*
X165191Y397510D01*
X165219Y397556D01*
X165229Y397574D01*
X165321Y397713D01*
X165432Y397833D01*
X165543Y397935D01*
X165654Y398027D01*
X165746Y398092D01*
X165830Y398148D01*
X165885Y398175D01*
X165894Y398185D01*
X165903D01*
X166070Y398259D01*
X166236Y398314D01*
X166403Y398360D01*
X166551Y398388D01*
X166671Y398406D01*
X166772Y398416D01*
X167004D01*
X167133Y398397D01*
D02*
G37*
G36*
X171488Y398259D02*
X171590Y398111D01*
X171710Y397963D01*
X171821Y397833D01*
X171932Y397722D01*
X172015Y397630D01*
X172052Y397602D01*
X172080Y397574D01*
X172089Y397565D01*
X172098Y397556D01*
X172292Y397399D01*
X172486Y397251D01*
X172671Y397121D01*
X172856Y397020D01*
X173013Y396927D01*
X173078Y396890D01*
X173134Y396862D01*
X173180Y396835D01*
X173217Y396825D01*
X173235Y396807D01*
X173244D01*
Y396049D01*
X173106Y396104D01*
X172967Y396169D01*
X172828Y396234D01*
X172699Y396298D01*
X172588Y396354D01*
X172496Y396400D01*
X172440Y396437D01*
X172431Y396446D01*
X172422D01*
X172255Y396548D01*
X172107Y396650D01*
X171978Y396742D01*
X171876Y396825D01*
X171784Y396890D01*
X171728Y396946D01*
X171682Y396983D01*
X171673Y396992D01*
Y391990D01*
X170887D01*
Y398416D01*
X171395D01*
X171488Y398259D01*
D02*
G37*
G36*
X179966Y391990D02*
X179115D01*
Y394828D01*
X178024D01*
X177923Y394819D01*
X177849D01*
X177784Y394810D01*
X177738Y394801D01*
X177701D01*
X177682Y394791D01*
X177673D01*
X177525Y394745D01*
X177460Y394717D01*
X177405Y394690D01*
X177349Y394662D01*
X177313Y394644D01*
X177294Y394634D01*
X177285Y394625D01*
X177211Y394570D01*
X177137Y394505D01*
X176998Y394366D01*
X176933Y394301D01*
X176887Y394246D01*
X176859Y394209D01*
X176850Y394200D01*
X176758Y394070D01*
X176656Y393932D01*
X176554Y393784D01*
X176453Y393645D01*
X176369Y393516D01*
X176305Y393414D01*
X176277Y393377D01*
X176259Y393349D01*
X176240Y393331D01*
Y393321D01*
X175399Y391990D01*
X174345D01*
X175445Y393728D01*
X175574Y393913D01*
X175695Y394080D01*
X175815Y394218D01*
X175916Y394348D01*
X176009Y394440D01*
X176083Y394514D01*
X176129Y394560D01*
X176148Y394579D01*
X176222Y394634D01*
X176305Y394699D01*
X176471Y394801D01*
X176545Y394838D01*
X176601Y394875D01*
X176638Y394893D01*
X176656Y394902D01*
X176490Y394930D01*
X176332Y394958D01*
X176194Y395004D01*
X176055Y395041D01*
X175935Y395087D01*
X175824Y395143D01*
X175722Y395189D01*
X175630Y395235D01*
X175556Y395291D01*
X175482Y395337D01*
X175426Y395374D01*
X175380Y395411D01*
X175343Y395439D01*
X175315Y395466D01*
X175306Y395476D01*
X175297Y395485D01*
X175223Y395577D01*
X175149Y395670D01*
X175038Y395864D01*
X174964Y396058D01*
X174909Y396243D01*
X174872Y396400D01*
X174862Y396465D01*
Y396530D01*
X174853Y396576D01*
Y396613D01*
Y396631D01*
Y396641D01*
X174862Y396835D01*
X174890Y397010D01*
X174936Y397177D01*
X174983Y397315D01*
X175038Y397436D01*
X175075Y397528D01*
X175112Y397584D01*
X175121Y397593D01*
Y397602D01*
X175232Y397750D01*
X175343Y397879D01*
X175463Y397990D01*
X175574Y398074D01*
X175676Y398138D01*
X175759Y398175D01*
X175815Y398203D01*
X175824Y398212D01*
X175833D01*
X175916Y398240D01*
X176018Y398268D01*
X176222Y398314D01*
X176443Y398342D01*
X176647Y398369D01*
X176841Y398379D01*
X176924D01*
X176998Y398388D01*
X179966D01*
Y391990D01*
D02*
G37*
G36*
X186852Y398164D02*
X187010Y398155D01*
X187158Y398128D01*
X187296Y398100D01*
X187426Y398063D01*
X187546Y398026D01*
X187657Y397980D01*
X187759Y397933D01*
X187851Y397887D01*
X187925Y397841D01*
X187990Y397804D01*
X188045Y397767D01*
X188091Y397739D01*
X188119Y397711D01*
X188138Y397702D01*
X188147Y397693D01*
X188239Y397601D01*
X188323Y397499D01*
X188406Y397388D01*
X188470Y397277D01*
X188581Y397055D01*
X188655Y396833D01*
X188683Y396731D01*
X188711Y396630D01*
X188729Y396547D01*
X188748Y396473D01*
X188757Y396408D01*
Y396362D01*
X188766Y396334D01*
Y396325D01*
X187962Y396241D01*
X187943Y396454D01*
X187906Y396639D01*
X187851Y396805D01*
X187786Y396935D01*
X187731Y397046D01*
X187675Y397120D01*
X187638Y397166D01*
X187620Y397184D01*
X187481Y397295D01*
X187333Y397379D01*
X187176Y397443D01*
X187037Y397480D01*
X186908Y397508D01*
X186797Y397517D01*
X186760Y397527D01*
X186705D01*
X186510Y397517D01*
X186335Y397480D01*
X186187Y397425D01*
X186057Y397369D01*
X185956Y397305D01*
X185891Y397258D01*
X185845Y397221D01*
X185826Y397203D01*
X185715Y397074D01*
X185632Y396944D01*
X185567Y396815D01*
X185530Y396685D01*
X185503Y396584D01*
X185493Y396491D01*
X185484Y396436D01*
Y396426D01*
Y396417D01*
X185503Y396251D01*
X185540Y396075D01*
X185604Y395918D01*
X185669Y395770D01*
X185743Y395650D01*
X185808Y395548D01*
X185826Y395511D01*
X185845Y395483D01*
X185863Y395474D01*
Y395465D01*
X185937Y395363D01*
X186030Y395261D01*
X186131Y395150D01*
X186242Y395039D01*
X186473Y394818D01*
X186705Y394596D01*
X186825Y394494D01*
X186926Y394402D01*
X187028Y394318D01*
X187111Y394244D01*
X187176Y394189D01*
X187232Y394143D01*
X187269Y394115D01*
X187278Y394106D01*
X187509Y393912D01*
X187722Y393727D01*
X187897Y393560D01*
X188036Y393422D01*
X188156Y393301D01*
X188239Y393218D01*
X188286Y393163D01*
X188304Y393153D01*
Y393144D01*
X188433Y392987D01*
X188535Y392839D01*
X188628Y392691D01*
X188702Y392562D01*
X188757Y392451D01*
X188794Y392368D01*
X188813Y392312D01*
X188822Y392303D01*
Y392294D01*
X188859Y392192D01*
X188877Y392099D01*
X188896Y392007D01*
X188905Y391924D01*
X188914Y391850D01*
Y391794D01*
Y391757D01*
Y391748D01*
X184671D01*
Y392506D01*
X187823D01*
X187712Y392663D01*
X187657Y392728D01*
X187611Y392793D01*
X187564Y392848D01*
X187527Y392885D01*
X187500Y392913D01*
X187490Y392922D01*
X187444Y392968D01*
X187389Y393015D01*
X187259Y393135D01*
X187111Y393274D01*
X186954Y393412D01*
X186806Y393532D01*
X186742Y393588D01*
X186686Y393643D01*
X186640Y393680D01*
X186603Y393708D01*
X186584Y393727D01*
X186575Y393736D01*
X186427Y393865D01*
X186279Y393985D01*
X186150Y394106D01*
X186030Y394207D01*
X185919Y394309D01*
X185826Y394402D01*
X185734Y394485D01*
X185660Y394559D01*
X185586Y394633D01*
X185530Y394688D01*
X185484Y394734D01*
X185438Y394781D01*
X185392Y394836D01*
X185373Y394855D01*
X185244Y395012D01*
X185133Y395150D01*
X185040Y395289D01*
X184966Y395400D01*
X184911Y395502D01*
X184874Y395576D01*
X184855Y395622D01*
X184846Y395640D01*
X184791Y395779D01*
X184754Y395918D01*
X184717Y396047D01*
X184698Y396158D01*
X184689Y396260D01*
X184680Y396334D01*
Y396380D01*
Y396399D01*
X184689Y396537D01*
X184708Y396667D01*
X184726Y396796D01*
X184763Y396907D01*
X184855Y397129D01*
X184948Y397305D01*
X185003Y397388D01*
X185050Y397453D01*
X185096Y397517D01*
X185142Y397564D01*
X185179Y397601D01*
X185198Y397637D01*
X185216Y397647D01*
X185225Y397656D01*
X185327Y397748D01*
X185438Y397832D01*
X185558Y397896D01*
X185678Y397952D01*
X185919Y398044D01*
X186159Y398109D01*
X186261Y398128D01*
X186362Y398146D01*
X186455Y398155D01*
X186529Y398164D01*
X186594Y398174D01*
X186686D01*
X186852Y398164D01*
D02*
G37*
G36*
X191420Y398017D02*
X191521Y397869D01*
X191642Y397721D01*
X191753Y397591D01*
X191864Y397480D01*
X191947Y397388D01*
X191984Y397360D01*
X192012Y397332D01*
X192021Y397323D01*
X192030Y397314D01*
X192224Y397157D01*
X192418Y397009D01*
X192603Y396879D01*
X192788Y396778D01*
X192945Y396685D01*
X193010Y396648D01*
X193065Y396620D01*
X193112Y396593D01*
X193149Y396584D01*
X193167Y396565D01*
X193176D01*
Y395807D01*
X193038Y395862D01*
X192899Y395927D01*
X192760Y395992D01*
X192631Y396057D01*
X192520Y396112D01*
X192428Y396158D01*
X192372Y396195D01*
X192363Y396204D01*
X192354D01*
X192187Y396306D01*
X192039Y396408D01*
X191910Y396500D01*
X191808Y396584D01*
X191716Y396648D01*
X191660Y396704D01*
X191614Y396741D01*
X191605Y396750D01*
Y391748D01*
X190819D01*
Y398174D01*
X191327D01*
X191420Y398017D01*
D02*
G37*
G36*
X199898Y391748D02*
X199047D01*
Y394586D01*
X197956D01*
X197855Y394577D01*
X197781D01*
X197716Y394568D01*
X197670Y394559D01*
X197633D01*
X197614Y394549D01*
X197605D01*
X197457Y394503D01*
X197392Y394476D01*
X197337Y394448D01*
X197281Y394420D01*
X197244Y394402D01*
X197226Y394392D01*
X197217Y394383D01*
X197143Y394328D01*
X197069Y394263D01*
X196930Y394124D01*
X196865Y394059D01*
X196819Y394004D01*
X196791Y393967D01*
X196782Y393958D01*
X196690Y393828D01*
X196588Y393690D01*
X196486Y393542D01*
X196385Y393403D01*
X196301Y393274D01*
X196237Y393172D01*
X196209Y393135D01*
X196190Y393107D01*
X196172Y393089D01*
Y393079D01*
X195331Y391748D01*
X194277D01*
X195377Y393486D01*
X195506Y393671D01*
X195627Y393838D01*
X195747Y393976D01*
X195848Y394106D01*
X195941Y394198D01*
X196015Y394272D01*
X196061Y394318D01*
X196080Y394337D01*
X196154Y394392D01*
X196237Y394457D01*
X196403Y394559D01*
X196477Y394596D01*
X196533Y394633D01*
X196570Y394651D01*
X196588Y394660D01*
X196422Y394688D01*
X196264Y394716D01*
X196126Y394762D01*
X195987Y394799D01*
X195867Y394845D01*
X195756Y394901D01*
X195654Y394947D01*
X195562Y394993D01*
X195488Y395049D01*
X195414Y395095D01*
X195358Y395132D01*
X195312Y395169D01*
X195275Y395197D01*
X195247Y395224D01*
X195238Y395234D01*
X195229Y395243D01*
X195155Y395335D01*
X195081Y395428D01*
X194970Y395622D01*
X194896Y395816D01*
X194841Y396001D01*
X194804Y396158D01*
X194794Y396223D01*
Y396288D01*
X194785Y396334D01*
Y396371D01*
Y396389D01*
Y396399D01*
X194794Y396593D01*
X194822Y396768D01*
X194868Y396935D01*
X194915Y397074D01*
X194970Y397194D01*
X195007Y397286D01*
X195044Y397342D01*
X195053Y397351D01*
Y397360D01*
X195164Y397508D01*
X195275Y397637D01*
X195395Y397748D01*
X195506Y397832D01*
X195608Y397896D01*
X195691Y397933D01*
X195747Y397961D01*
X195756Y397970D01*
X195765D01*
X195848Y397998D01*
X195950Y398026D01*
X196154Y398072D01*
X196375Y398100D01*
X196579Y398128D01*
X196773Y398137D01*
X196856D01*
X196930Y398146D01*
X199898D01*
Y391748D01*
D02*
G37*
G36*
X231886Y398459D02*
X232043Y398449D01*
X232191Y398422D01*
X232330Y398394D01*
X232459Y398357D01*
X232579Y398320D01*
X232690Y398274D01*
X232792Y398227D01*
X232884Y398181D01*
X232958Y398135D01*
X233023Y398098D01*
X233078Y398061D01*
X233125Y398033D01*
X233152Y398005D01*
X233171Y397996D01*
X233180Y397987D01*
X233273Y397895D01*
X233356Y397793D01*
X233439Y397682D01*
X233504Y397571D01*
X233615Y397349D01*
X233689Y397127D01*
X233716Y397025D01*
X233744Y396924D01*
X233763Y396841D01*
X233781Y396767D01*
X233790Y396702D01*
Y396656D01*
X233800Y396628D01*
Y396619D01*
X232995Y396535D01*
X232977Y396748D01*
X232940Y396933D01*
X232884Y397099D01*
X232819Y397229D01*
X232764Y397340D01*
X232709Y397414D01*
X232672Y397460D01*
X232653Y397478D01*
X232514Y397589D01*
X232367Y397673D01*
X232209Y397737D01*
X232071Y397774D01*
X231941Y397802D01*
X231830Y397811D01*
X231793Y397821D01*
X231738D01*
X231544Y397811D01*
X231368Y397774D01*
X231220Y397719D01*
X231091Y397663D01*
X230989Y397599D01*
X230924Y397552D01*
X230878Y397515D01*
X230860Y397497D01*
X230749Y397368D01*
X230665Y397238D01*
X230601Y397109D01*
X230564Y396979D01*
X230536Y396878D01*
X230527Y396785D01*
X230517Y396730D01*
Y396720D01*
Y396711D01*
X230536Y396545D01*
X230573Y396369D01*
X230638Y396212D01*
X230702Y396064D01*
X230776Y395944D01*
X230841Y395842D01*
X230860Y395805D01*
X230878Y395777D01*
X230896Y395768D01*
Y395759D01*
X230970Y395657D01*
X231063Y395555D01*
X231165Y395444D01*
X231276Y395333D01*
X231507Y395112D01*
X231738Y394890D01*
X231858Y394788D01*
X231960Y394696D01*
X232061Y394612D01*
X232145Y394538D01*
X232209Y394483D01*
X232265Y394437D01*
X232302Y394409D01*
X232311Y394400D01*
X232542Y394206D01*
X232755Y394021D01*
X232931Y393854D01*
X233069Y393716D01*
X233189Y393595D01*
X233273Y393512D01*
X233319Y393457D01*
X233337Y393447D01*
Y393438D01*
X233467Y393281D01*
X233568Y393133D01*
X233661Y392985D01*
X233735Y392856D01*
X233790Y392745D01*
X233827Y392662D01*
X233846Y392606D01*
X233855Y392597D01*
Y392588D01*
X233892Y392486D01*
X233911Y392393D01*
X233929Y392301D01*
X233938Y392218D01*
X233948Y392144D01*
Y392088D01*
Y392051D01*
Y392042D01*
X229704D01*
Y392800D01*
X232857D01*
X232746Y392957D01*
X232690Y393022D01*
X232644Y393087D01*
X232598Y393142D01*
X232561Y393179D01*
X232533Y393207D01*
X232524Y393216D01*
X232477Y393262D01*
X232422Y393309D01*
X232292Y393429D01*
X232145Y393568D01*
X231987Y393706D01*
X231840Y393826D01*
X231775Y393882D01*
X231719Y393937D01*
X231673Y393974D01*
X231636Y394002D01*
X231618Y394021D01*
X231608Y394030D01*
X231460Y394159D01*
X231313Y394280D01*
X231183Y394400D01*
X231063Y394501D01*
X230952Y394603D01*
X230860Y394696D01*
X230767Y394779D01*
X230693Y394853D01*
X230619Y394927D01*
X230564Y394982D01*
X230517Y395028D01*
X230471Y395075D01*
X230425Y395130D01*
X230406Y395149D01*
X230277Y395306D01*
X230166Y395444D01*
X230074Y395583D01*
X230000Y395694D01*
X229944Y395796D01*
X229907Y395870D01*
X229889Y395916D01*
X229879Y395934D01*
X229824Y396073D01*
X229787Y396212D01*
X229750Y396341D01*
X229732Y396452D01*
X229722Y396554D01*
X229713Y396628D01*
Y396674D01*
Y396693D01*
X229722Y396831D01*
X229741Y396961D01*
X229759Y397090D01*
X229796Y397201D01*
X229889Y397423D01*
X229981Y397599D01*
X230037Y397682D01*
X230083Y397747D01*
X230129Y397811D01*
X230175Y397858D01*
X230212Y397895D01*
X230231Y397932D01*
X230249Y397941D01*
X230259Y397950D01*
X230360Y398042D01*
X230471Y398126D01*
X230591Y398190D01*
X230711Y398246D01*
X230952Y398338D01*
X231192Y398403D01*
X231294Y398422D01*
X231396Y398440D01*
X231488Y398449D01*
X231562Y398459D01*
X231627Y398468D01*
X231719D01*
X231886Y398459D01*
D02*
G37*
G36*
X237507Y398532D02*
X237803Y398486D01*
X238062Y398431D01*
X238182Y398394D01*
X238293Y398357D01*
X238395Y398320D01*
X238487Y398283D01*
X238561Y398255D01*
X238635Y398227D01*
X238681Y398200D01*
X238718Y398181D01*
X238746Y398172D01*
X238755Y398163D01*
X239005Y398005D01*
X239217Y397821D01*
X239402Y397636D01*
X239560Y397451D01*
X239680Y397284D01*
X239726Y397210D01*
X239763Y397146D01*
X239800Y397099D01*
X239818Y397062D01*
X239828Y397035D01*
X239837Y397025D01*
X239966Y396739D01*
X240059Y396443D01*
X240124Y396147D01*
X240170Y395879D01*
X240188Y395759D01*
X240198Y395639D01*
X240207Y395546D01*
Y395454D01*
X240216Y395389D01*
Y395333D01*
Y395297D01*
Y395287D01*
X240198Y394954D01*
X240161Y394631D01*
X240114Y394344D01*
X240077Y394206D01*
X240050Y394085D01*
X240022Y393974D01*
X239985Y393873D01*
X239957Y393780D01*
X239939Y393706D01*
X239911Y393651D01*
X239902Y393605D01*
X239883Y393577D01*
Y393568D01*
X239744Y393290D01*
X239587Y393041D01*
X239421Y392828D01*
X239338Y392745D01*
X239264Y392662D01*
X239190Y392588D01*
X239116Y392523D01*
X239051Y392467D01*
X238996Y392430D01*
X238959Y392393D01*
X238922Y392366D01*
X238903Y392356D01*
X238894Y392347D01*
X238764Y392273D01*
X238635Y392208D01*
X238358Y392107D01*
X238080Y392033D01*
X237812Y391987D01*
X237683Y391968D01*
X237572Y391950D01*
X237470Y391940D01*
X237387D01*
X237313Y391931D01*
X237211D01*
X237026Y391940D01*
X236851Y391959D01*
X236684Y391977D01*
X236527Y392014D01*
X236379Y392061D01*
X236240Y392107D01*
X236111Y392153D01*
X235991Y392208D01*
X235889Y392255D01*
X235787Y392301D01*
X235713Y392347D01*
X235639Y392393D01*
X235593Y392430D01*
X235547Y392449D01*
X235529Y392467D01*
X235519Y392477D01*
X235390Y392588D01*
X235279Y392699D01*
X235177Y392828D01*
X235075Y392957D01*
X234909Y393216D01*
X234780Y393475D01*
X234724Y393595D01*
X234678Y393706D01*
X234641Y393808D01*
X234613Y393891D01*
X234585Y393965D01*
X234567Y394021D01*
X234558Y394058D01*
Y394067D01*
X235408Y394280D01*
X235445Y394132D01*
X235492Y393993D01*
X235538Y393863D01*
X235584Y393743D01*
X235639Y393632D01*
X235695Y393540D01*
X235760Y393447D01*
X235815Y393364D01*
X235861Y393290D01*
X235917Y393235D01*
X235963Y393179D01*
X236000Y393133D01*
X236037Y393105D01*
X236065Y393078D01*
X236074Y393068D01*
X236083Y393059D01*
X236176Y392985D01*
X236277Y392930D01*
X236481Y392828D01*
X236675Y392754D01*
X236869Y392708D01*
X237036Y392671D01*
X237100Y392662D01*
X237165D01*
X237220Y392652D01*
X237285D01*
X237498Y392662D01*
X237701Y392699D01*
X237886Y392745D01*
X238053Y392800D01*
X238182Y392856D01*
X238237Y392883D01*
X238284Y392902D01*
X238321Y392920D01*
X238348Y392939D01*
X238367Y392948D01*
X238376D01*
X238552Y393078D01*
X238700Y393216D01*
X238829Y393373D01*
X238931Y393521D01*
X239014Y393651D01*
X239069Y393762D01*
X239088Y393808D01*
X239107Y393836D01*
X239116Y393854D01*
Y393863D01*
X239190Y394104D01*
X239245Y394344D01*
X239291Y394585D01*
X239319Y394806D01*
X239328Y394908D01*
X239338Y395001D01*
Y395084D01*
X239347Y395149D01*
Y395204D01*
Y395250D01*
Y395278D01*
Y395287D01*
X239338Y395528D01*
X239319Y395750D01*
X239282Y395953D01*
X239245Y396138D01*
X239217Y396295D01*
X239199Y396360D01*
X239181Y396415D01*
X239171Y396461D01*
X239162Y396489D01*
X239153Y396508D01*
Y396517D01*
X239060Y396730D01*
X238959Y396924D01*
X238848Y397081D01*
X238727Y397220D01*
X238626Y397331D01*
X238543Y397405D01*
X238478Y397451D01*
X238469Y397469D01*
X238459D01*
X238265Y397589D01*
X238053Y397682D01*
X237849Y397747D01*
X237655Y397784D01*
X237479Y397811D01*
X237405Y397821D01*
X237341D01*
X237294Y397830D01*
X237220D01*
X236989Y397821D01*
X236777Y397784D01*
X236601Y397728D01*
X236444Y397673D01*
X236324Y397608D01*
X236231Y397562D01*
X236176Y397525D01*
X236157Y397506D01*
X236009Y397368D01*
X235871Y397210D01*
X235760Y397044D01*
X235667Y396878D01*
X235593Y396730D01*
X235565Y396656D01*
X235547Y396600D01*
X235529Y396554D01*
X235510Y396517D01*
X235501Y396498D01*
Y396489D01*
X234669Y396683D01*
X234724Y396850D01*
X234780Y396998D01*
X234854Y397136D01*
X234918Y397275D01*
X234992Y397395D01*
X235075Y397506D01*
X235149Y397617D01*
X235223Y397710D01*
X235297Y397784D01*
X235362Y397858D01*
X235427Y397922D01*
X235473Y397968D01*
X235519Y398015D01*
X235556Y398042D01*
X235575Y398052D01*
X235584Y398061D01*
X235713Y398144D01*
X235843Y398227D01*
X235972Y398292D01*
X236111Y398348D01*
X236388Y398431D01*
X236638Y398486D01*
X236758Y398514D01*
X236860Y398523D01*
X236962Y398532D01*
X237045Y398542D01*
X237110Y398551D01*
X237202D01*
X237507Y398532D01*
D02*
G37*
G36*
X228807Y397599D02*
X225673D01*
X225895Y397331D01*
X226107Y397044D01*
X226292Y396767D01*
X226468Y396498D01*
X226542Y396378D01*
X226607Y396267D01*
X226671Y396166D01*
X226717Y396082D01*
X226754Y396008D01*
X226782Y395962D01*
X226801Y395925D01*
X226810Y395916D01*
X226995Y395546D01*
X227161Y395176D01*
X227300Y394825D01*
X227355Y394668D01*
X227411Y394511D01*
X227466Y394372D01*
X227503Y394243D01*
X227540Y394132D01*
X227568Y394039D01*
X227596Y393956D01*
X227614Y393900D01*
X227624Y393863D01*
Y393854D01*
X227716Y393475D01*
X227753Y393290D01*
X227781Y393124D01*
X227808Y392967D01*
X227836Y392809D01*
X227855Y392680D01*
X227873Y392551D01*
X227882Y392440D01*
X227892Y392338D01*
X227901Y392245D01*
Y392172D01*
X227910Y392116D01*
Y392079D01*
Y392051D01*
Y392042D01*
X227106D01*
X227078Y392393D01*
X227032Y392717D01*
X226986Y393013D01*
X226958Y393152D01*
X226930Y393281D01*
X226912Y393392D01*
X226884Y393494D01*
X226865Y393586D01*
X226847Y393660D01*
X226828Y393716D01*
X226819Y393762D01*
X226810Y393789D01*
Y393799D01*
X226671Y394224D01*
X226523Y394622D01*
X226449Y394816D01*
X226375Y395001D01*
X226292Y395167D01*
X226218Y395333D01*
X226153Y395481D01*
X226089Y395611D01*
X226033Y395722D01*
X225987Y395824D01*
X225941Y395907D01*
X225913Y395962D01*
X225895Y395999D01*
X225885Y396008D01*
X225774Y396203D01*
X225663Y396397D01*
X225553Y396572D01*
X225441Y396739D01*
X225340Y396887D01*
X225238Y397035D01*
X225136Y397164D01*
X225053Y397275D01*
X224970Y397386D01*
X224896Y397478D01*
X224822Y397552D01*
X224767Y397617D01*
X224730Y397673D01*
X224693Y397710D01*
X224674Y397728D01*
X224665Y397737D01*
Y398357D01*
X228807D01*
Y397599D01*
D02*
G37*
G36*
X252046Y398419D02*
X252203Y398409D01*
X252351Y398382D01*
X252489Y398354D01*
X252619Y398317D01*
X252739Y398280D01*
X252850Y398233D01*
X252952Y398187D01*
X253044Y398141D01*
X253118Y398095D01*
X253183Y398058D01*
X253238Y398021D01*
X253285Y397993D01*
X253312Y397965D01*
X253331Y397956D01*
X253340Y397947D01*
X253433Y397854D01*
X253516Y397753D01*
X253599Y397642D01*
X253664Y397531D01*
X253775Y397309D01*
X253849Y397087D01*
X253876Y396985D01*
X253904Y396884D01*
X253923Y396800D01*
X253941Y396726D01*
X253950Y396662D01*
Y396616D01*
X253960Y396588D01*
Y396579D01*
X253155Y396495D01*
X253137Y396708D01*
X253100Y396893D01*
X253044Y397059D01*
X252980Y397189D01*
X252924Y397300D01*
X252869Y397374D01*
X252832Y397420D01*
X252813Y397438D01*
X252674Y397549D01*
X252526Y397633D01*
X252369Y397697D01*
X252231Y397734D01*
X252101Y397762D01*
X251990Y397771D01*
X251953Y397780D01*
X251898D01*
X251704Y397771D01*
X251528Y397734D01*
X251380Y397679D01*
X251251Y397623D01*
X251149Y397559D01*
X251084Y397512D01*
X251038Y397475D01*
X251019Y397457D01*
X250909Y397327D01*
X250825Y397198D01*
X250761Y397069D01*
X250724Y396939D01*
X250696Y396838D01*
X250687Y396745D01*
X250677Y396689D01*
Y396680D01*
Y396671D01*
X250696Y396505D01*
X250733Y396329D01*
X250798Y396172D01*
X250862Y396024D01*
X250936Y395904D01*
X251001Y395802D01*
X251019Y395765D01*
X251038Y395737D01*
X251056Y395728D01*
Y395719D01*
X251130Y395617D01*
X251223Y395515D01*
X251325Y395404D01*
X251436Y395293D01*
X251667Y395071D01*
X251898Y394850D01*
X252018Y394748D01*
X252120Y394655D01*
X252221Y394572D01*
X252305Y394498D01*
X252369Y394443D01*
X252425Y394397D01*
X252462Y394369D01*
X252471Y394360D01*
X252702Y394165D01*
X252915Y393981D01*
X253090Y393814D01*
X253229Y393675D01*
X253349Y393555D01*
X253433Y393472D01*
X253479Y393417D01*
X253497Y393407D01*
Y393398D01*
X253627Y393241D01*
X253728Y393093D01*
X253821Y392945D01*
X253895Y392816D01*
X253950Y392705D01*
X253987Y392621D01*
X254006Y392566D01*
X254015Y392557D01*
Y392547D01*
X254052Y392446D01*
X254070Y392353D01*
X254089Y392261D01*
X254098Y392178D01*
X254107Y392104D01*
Y392048D01*
Y392011D01*
Y392002D01*
X249864D01*
Y392760D01*
X253016D01*
X252906Y392917D01*
X252850Y392982D01*
X252804Y393047D01*
X252758Y393102D01*
X252721Y393139D01*
X252693Y393167D01*
X252684Y393176D01*
X252637Y393222D01*
X252582Y393269D01*
X252453Y393389D01*
X252305Y393527D01*
X252147Y393666D01*
X251999Y393786D01*
X251935Y393842D01*
X251879Y393897D01*
X251833Y393934D01*
X251796Y393962D01*
X251778Y393981D01*
X251768Y393990D01*
X251620Y394119D01*
X251472Y394239D01*
X251343Y394360D01*
X251223Y394461D01*
X251112Y394563D01*
X251019Y394655D01*
X250927Y394739D01*
X250853Y394813D01*
X250779Y394887D01*
X250724Y394942D01*
X250677Y394988D01*
X250631Y395035D01*
X250585Y395090D01*
X250566Y395108D01*
X250437Y395266D01*
X250326Y395404D01*
X250234Y395543D01*
X250160Y395654D01*
X250104Y395756D01*
X250067Y395830D01*
X250049Y395876D01*
X250039Y395894D01*
X249984Y396033D01*
X249947Y396172D01*
X249910Y396301D01*
X249891Y396412D01*
X249882Y396514D01*
X249873Y396588D01*
Y396634D01*
Y396652D01*
X249882Y396791D01*
X249901Y396921D01*
X249919Y397050D01*
X249956Y397161D01*
X250049Y397383D01*
X250141Y397559D01*
X250197Y397642D01*
X250243Y397706D01*
X250289Y397771D01*
X250335Y397817D01*
X250372Y397854D01*
X250391Y397892D01*
X250409Y397901D01*
X250418Y397910D01*
X250520Y398002D01*
X250631Y398086D01*
X250751Y398150D01*
X250872Y398206D01*
X251112Y398298D01*
X251352Y398363D01*
X251454Y398382D01*
X251556Y398400D01*
X251648Y398409D01*
X251722Y398419D01*
X251787Y398428D01*
X251879D01*
X252046Y398419D01*
D02*
G37*
G36*
X246942D02*
X247118Y398400D01*
X247284Y398363D01*
X247441Y398317D01*
X247580Y398252D01*
X247719Y398197D01*
X247839Y398123D01*
X247950Y398058D01*
X248042Y397993D01*
X248135Y397919D01*
X248209Y397864D01*
X248264Y397808D01*
X248311Y397753D01*
X248347Y397716D01*
X248366Y397697D01*
X248375Y397688D01*
X248495Y397522D01*
X248597Y397327D01*
X248689Y397124D01*
X248773Y396911D01*
X248838Y396689D01*
X248893Y396468D01*
X248939Y396236D01*
X248976Y396024D01*
X249004Y395811D01*
X249022Y395617D01*
X249041Y395441D01*
X249050Y395293D01*
Y395164D01*
X249059Y395071D01*
Y395035D01*
Y395007D01*
Y394998D01*
Y394988D01*
X249050Y394692D01*
X249032Y394415D01*
X249004Y394156D01*
X248958Y393916D01*
X248911Y393703D01*
X248865Y393509D01*
X248810Y393333D01*
X248745Y393176D01*
X248689Y393047D01*
X248634Y392927D01*
X248588Y392834D01*
X248532Y392751D01*
X248495Y392686D01*
X248468Y392649D01*
X248449Y392621D01*
X248440Y392612D01*
X248320Y392483D01*
X248190Y392372D01*
X248061Y392279D01*
X247931Y392196D01*
X247793Y392122D01*
X247663Y392067D01*
X247534Y392020D01*
X247404Y391983D01*
X247293Y391956D01*
X247183Y391928D01*
X247090Y391910D01*
X247007Y391900D01*
X246933D01*
X246887Y391891D01*
X246840D01*
X246628Y391900D01*
X246434Y391937D01*
X246258Y391974D01*
X246101Y392030D01*
X245981Y392076D01*
X245888Y392122D01*
X245851Y392131D01*
X245823Y392150D01*
X245814Y392159D01*
X245805D01*
X245648Y392270D01*
X245500Y392400D01*
X245380Y392529D01*
X245278Y392658D01*
X245195Y392779D01*
X245139Y392871D01*
X245121Y392908D01*
X245102Y392936D01*
X245093Y392945D01*
Y392954D01*
X245001Y393148D01*
X244936Y393352D01*
X244890Y393537D01*
X244862Y393712D01*
X244834Y393860D01*
Y393916D01*
X244825Y393971D01*
Y394018D01*
Y394045D01*
Y394064D01*
Y394073D01*
X244834Y394239D01*
X244853Y394397D01*
X244880Y394554D01*
X244908Y394692D01*
X244954Y394822D01*
X245001Y394951D01*
X245047Y395062D01*
X245102Y395164D01*
X245158Y395257D01*
X245204Y395340D01*
X245250Y395404D01*
X245296Y395469D01*
X245324Y395515D01*
X245352Y395543D01*
X245370Y395562D01*
X245380Y395571D01*
X245481Y395672D01*
X245592Y395765D01*
X245713Y395839D01*
X245823Y395904D01*
X245934Y395968D01*
X246045Y396015D01*
X246258Y396079D01*
X246350Y396107D01*
X246443Y396125D01*
X246517Y396135D01*
X246591Y396144D01*
X246646Y396153D01*
X246720D01*
X246887Y396144D01*
X247044Y396116D01*
X247192Y396089D01*
X247321Y396052D01*
X247432Y396005D01*
X247515Y395978D01*
X247571Y395950D01*
X247580Y395941D01*
X247589D01*
X247737Y395848D01*
X247867Y395746D01*
X247987Y395645D01*
X248079Y395534D01*
X248162Y395441D01*
X248227Y395367D01*
X248264Y395312D01*
X248274Y395303D01*
Y395469D01*
X248264Y395635D01*
X248255Y395784D01*
X248237Y395931D01*
X248227Y396061D01*
X248209Y396181D01*
X248190Y396292D01*
X248162Y396394D01*
X248144Y396486D01*
X248126Y396560D01*
X248107Y396625D01*
X248098Y396680D01*
X248079Y396717D01*
X248070Y396745D01*
X248061Y396763D01*
Y396773D01*
X247968Y396958D01*
X247876Y397124D01*
X247774Y397253D01*
X247682Y397365D01*
X247599Y397457D01*
X247534Y397522D01*
X247488Y397559D01*
X247469Y397568D01*
X247358Y397642D01*
X247247Y397688D01*
X247136Y397725D01*
X247025Y397753D01*
X246942Y397771D01*
X246868Y397780D01*
X246803D01*
X246637Y397762D01*
X246480Y397725D01*
X246350Y397670D01*
X246230Y397614D01*
X246138Y397549D01*
X246073Y397494D01*
X246036Y397457D01*
X246018Y397438D01*
X245953Y397355D01*
X245888Y397253D01*
X245833Y397143D01*
X245796Y397032D01*
X245759Y396930D01*
X245731Y396847D01*
X245722Y396791D01*
X245713Y396782D01*
Y396773D01*
X244927Y396838D01*
X244982Y397096D01*
X245065Y397327D01*
X245158Y397531D01*
X245259Y397697D01*
X245361Y397827D01*
X245398Y397882D01*
X245444Y397928D01*
X245472Y397956D01*
X245500Y397984D01*
X245509Y397993D01*
X245518Y398002D01*
X245611Y398076D01*
X245713Y398141D01*
X245916Y398252D01*
X246119Y398326D01*
X246313Y398372D01*
X246489Y398409D01*
X246563Y398419D01*
X246628D01*
X246683Y398428D01*
X246757D01*
X246942Y398419D01*
D02*
G37*
G36*
X257667Y398492D02*
X257963Y398446D01*
X258222Y398391D01*
X258342Y398354D01*
X258453Y398317D01*
X258555Y398280D01*
X258647Y398243D01*
X258721Y398215D01*
X258795Y398187D01*
X258841Y398160D01*
X258878Y398141D01*
X258906Y398132D01*
X258915Y398123D01*
X259165Y397965D01*
X259377Y397780D01*
X259562Y397596D01*
X259720Y397411D01*
X259840Y397244D01*
X259886Y397170D01*
X259923Y397106D01*
X259960Y397059D01*
X259978Y397022D01*
X259988Y396995D01*
X259997Y396985D01*
X260126Y396699D01*
X260219Y396403D01*
X260284Y396107D01*
X260330Y395839D01*
X260348Y395719D01*
X260357Y395598D01*
X260367Y395506D01*
Y395414D01*
X260376Y395349D01*
Y395293D01*
Y395257D01*
Y395247D01*
X260357Y394914D01*
X260320Y394591D01*
X260274Y394304D01*
X260237Y394165D01*
X260210Y394045D01*
X260182Y393934D01*
X260145Y393833D01*
X260117Y393740D01*
X260099Y393666D01*
X260071Y393611D01*
X260062Y393564D01*
X260043Y393537D01*
Y393527D01*
X259904Y393250D01*
X259747Y393000D01*
X259581Y392788D01*
X259498Y392705D01*
X259424Y392621D01*
X259350Y392547D01*
X259276Y392483D01*
X259211Y392427D01*
X259156Y392390D01*
X259119Y392353D01*
X259082Y392326D01*
X259063Y392316D01*
X259054Y392307D01*
X258924Y392233D01*
X258795Y392168D01*
X258518Y392067D01*
X258240Y391993D01*
X257972Y391946D01*
X257843Y391928D01*
X257732Y391910D01*
X257630Y391900D01*
X257547D01*
X257473Y391891D01*
X257371D01*
X257186Y391900D01*
X257011Y391919D01*
X256844Y391937D01*
X256687Y391974D01*
X256539Y392020D01*
X256400Y392067D01*
X256271Y392113D01*
X256151Y392168D01*
X256049Y392215D01*
X255947Y392261D01*
X255873Y392307D01*
X255799Y392353D01*
X255753Y392390D01*
X255707Y392409D01*
X255688Y392427D01*
X255679Y392437D01*
X255550Y392547D01*
X255439Y392658D01*
X255337Y392788D01*
X255235Y392917D01*
X255069Y393176D01*
X254940Y393435D01*
X254884Y393555D01*
X254838Y393666D01*
X254801Y393768D01*
X254773Y393851D01*
X254745Y393925D01*
X254727Y393981D01*
X254718Y394018D01*
Y394027D01*
X255568Y394239D01*
X255605Y394091D01*
X255651Y393953D01*
X255698Y393823D01*
X255744Y393703D01*
X255799Y393592D01*
X255855Y393500D01*
X255920Y393407D01*
X255975Y393324D01*
X256021Y393250D01*
X256077Y393195D01*
X256123Y393139D01*
X256160Y393093D01*
X256197Y393065D01*
X256225Y393037D01*
X256234Y393028D01*
X256243Y393019D01*
X256336Y392945D01*
X256437Y392890D01*
X256641Y392788D01*
X256835Y392714D01*
X257029Y392668D01*
X257195Y392631D01*
X257260Y392621D01*
X257325D01*
X257380Y392612D01*
X257445D01*
X257658Y392621D01*
X257861Y392658D01*
X258046Y392705D01*
X258213Y392760D01*
X258342Y392816D01*
X258397Y392843D01*
X258444Y392862D01*
X258481Y392880D01*
X258508Y392899D01*
X258527Y392908D01*
X258536D01*
X258712Y393037D01*
X258860Y393176D01*
X258989Y393333D01*
X259091Y393481D01*
X259174Y393611D01*
X259230Y393722D01*
X259248Y393768D01*
X259266Y393796D01*
X259276Y393814D01*
Y393823D01*
X259350Y394064D01*
X259405Y394304D01*
X259451Y394544D01*
X259479Y394766D01*
X259488Y394868D01*
X259498Y394961D01*
Y395044D01*
X259507Y395108D01*
Y395164D01*
Y395210D01*
Y395238D01*
Y395247D01*
X259498Y395488D01*
X259479Y395709D01*
X259442Y395913D01*
X259405Y396098D01*
X259377Y396255D01*
X259359Y396320D01*
X259340Y396375D01*
X259331Y396421D01*
X259322Y396449D01*
X259313Y396468D01*
Y396477D01*
X259220Y396689D01*
X259119Y396884D01*
X259008Y397041D01*
X258887Y397179D01*
X258786Y397290D01*
X258703Y397365D01*
X258638Y397411D01*
X258629Y397429D01*
X258619D01*
X258425Y397549D01*
X258213Y397642D01*
X258009Y397706D01*
X257815Y397743D01*
X257639Y397771D01*
X257565Y397780D01*
X257501D01*
X257454Y397790D01*
X257380D01*
X257149Y397780D01*
X256937Y397743D01*
X256761Y397688D01*
X256604Y397633D01*
X256484Y397568D01*
X256391Y397522D01*
X256336Y397485D01*
X256317Y397466D01*
X256169Y397327D01*
X256031Y397170D01*
X255920Y397004D01*
X255827Y396838D01*
X255753Y396689D01*
X255725Y396616D01*
X255707Y396560D01*
X255688Y396514D01*
X255670Y396477D01*
X255661Y396458D01*
Y396449D01*
X254829Y396643D01*
X254884Y396810D01*
X254940Y396958D01*
X255014Y397096D01*
X255078Y397235D01*
X255152Y397355D01*
X255235Y397466D01*
X255309Y397577D01*
X255383Y397670D01*
X255457Y397743D01*
X255522Y397817D01*
X255587Y397882D01*
X255633Y397928D01*
X255679Y397975D01*
X255716Y398002D01*
X255735Y398012D01*
X255744Y398021D01*
X255873Y398104D01*
X256003Y398187D01*
X256132Y398252D01*
X256271Y398307D01*
X256548Y398391D01*
X256798Y398446D01*
X256918Y398474D01*
X257020Y398483D01*
X257122Y398492D01*
X257205Y398502D01*
X257269Y398511D01*
X257362D01*
X257667Y398492D01*
D02*
G37*
G36*
X77212Y398395D02*
X77462Y398349D01*
X77674Y398275D01*
X77859Y398201D01*
X77943Y398155D01*
X78007Y398118D01*
X78072Y398081D01*
X78118Y398044D01*
X78155Y398016D01*
X78183Y397998D01*
X78201Y397988D01*
X78211Y397979D01*
X78386Y397803D01*
X78525Y397609D01*
X78636Y397406D01*
X78728Y397202D01*
X78784Y397027D01*
X78812Y396953D01*
X78830Y396888D01*
X78839Y396833D01*
X78849Y396796D01*
X78858Y396768D01*
Y396759D01*
X78072Y396620D01*
X78035Y396824D01*
X77980Y396999D01*
X77915Y397147D01*
X77850Y397267D01*
X77785Y397360D01*
X77730Y397424D01*
X77693Y397471D01*
X77684Y397480D01*
X77564Y397572D01*
X77434Y397646D01*
X77314Y397692D01*
X77194Y397729D01*
X77083Y397748D01*
X77000Y397766D01*
X76926D01*
X76759Y397757D01*
X76611Y397720D01*
X76482Y397674D01*
X76371Y397628D01*
X76288Y397572D01*
X76223Y397526D01*
X76177Y397489D01*
X76167Y397480D01*
X76066Y397369D01*
X75992Y397249D01*
X75946Y397129D01*
X75909Y397018D01*
X75890Y396916D01*
X75872Y396842D01*
Y396786D01*
Y396777D01*
Y396768D01*
Y396666D01*
X75890Y396574D01*
X75936Y396417D01*
X76001Y396278D01*
X76075Y396158D01*
X76149Y396075D01*
X76214Y396010D01*
X76260Y395973D01*
X76269Y395964D01*
X76278D01*
X76436Y395880D01*
X76583Y395816D01*
X76741Y395770D01*
X76879Y395742D01*
X77000Y395723D01*
X77101Y395705D01*
X77221D01*
X77258Y395714D01*
X77305D01*
X77397Y395021D01*
X77277Y395048D01*
X77166Y395067D01*
X77073Y395085D01*
X76990Y395094D01*
X76926Y395104D01*
X76842D01*
X76648Y395085D01*
X76473Y395048D01*
X76315Y394993D01*
X76186Y394928D01*
X76084Y394863D01*
X76010Y394808D01*
X75964Y394771D01*
X75946Y394752D01*
X75825Y394614D01*
X75733Y394466D01*
X75668Y394318D01*
X75631Y394170D01*
X75603Y394050D01*
X75594Y393948D01*
X75585Y393911D01*
Y393883D01*
Y393865D01*
Y393856D01*
X75603Y393652D01*
X75650Y393467D01*
X75705Y393310D01*
X75779Y393172D01*
X75853Y393060D01*
X75909Y392977D01*
X75955Y392922D01*
X75973Y392903D01*
X76121Y392774D01*
X76278Y392681D01*
X76436Y392617D01*
X76583Y392570D01*
X76713Y392543D01*
X76815Y392533D01*
X76852Y392524D01*
X76907D01*
X77073Y392533D01*
X77231Y392570D01*
X77369Y392617D01*
X77480Y392672D01*
X77573Y392718D01*
X77647Y392765D01*
X77684Y392802D01*
X77702Y392811D01*
X77813Y392940D01*
X77906Y393088D01*
X77989Y393245D01*
X78054Y393412D01*
X78100Y393550D01*
X78118Y393615D01*
X78127Y393671D01*
X78137Y393717D01*
X78146Y393754D01*
X78155Y393772D01*
Y393782D01*
X78941Y393680D01*
X78923Y393532D01*
X78895Y393393D01*
X78812Y393134D01*
X78710Y392913D01*
X78654Y392820D01*
X78599Y392728D01*
X78544Y392645D01*
X78488Y392580D01*
X78442Y392515D01*
X78396Y392469D01*
X78368Y392432D01*
X78340Y392404D01*
X78322Y392386D01*
X78312Y392376D01*
X78201Y392293D01*
X78091Y392210D01*
X77980Y392145D01*
X77859Y392090D01*
X77628Y391997D01*
X77406Y391942D01*
X77305Y391923D01*
X77212Y391905D01*
X77129Y391896D01*
X77055Y391886D01*
X77000Y391877D01*
X76916D01*
X76741Y391886D01*
X76583Y391905D01*
X76426Y391932D01*
X76278Y391969D01*
X76140Y392016D01*
X76020Y392062D01*
X75899Y392118D01*
X75798Y392173D01*
X75696Y392219D01*
X75613Y392275D01*
X75539Y392321D01*
X75483Y392367D01*
X75437Y392404D01*
X75400Y392432D01*
X75382Y392450D01*
X75372Y392459D01*
X75261Y392570D01*
X75169Y392691D01*
X75086Y392811D01*
X75012Y392931D01*
X74956Y393042D01*
X74901Y393162D01*
X74827Y393384D01*
X74808Y393486D01*
X74790Y393578D01*
X74771Y393661D01*
X74762Y393735D01*
X74753Y393791D01*
Y393837D01*
Y393865D01*
Y393874D01*
X74762Y394096D01*
X74799Y394299D01*
X74855Y394475D01*
X74910Y394623D01*
X74966Y394743D01*
X75021Y394836D01*
X75058Y394891D01*
X75067Y394910D01*
X75197Y395048D01*
X75335Y395168D01*
X75483Y395261D01*
X75631Y395335D01*
X75761Y395390D01*
X75862Y395427D01*
X75899Y395437D01*
X75927Y395446D01*
X75946Y395455D01*
X75955D01*
X75798Y395538D01*
X75668Y395621D01*
X75557Y395714D01*
X75465Y395797D01*
X75391Y395871D01*
X75335Y395936D01*
X75308Y395973D01*
X75298Y395991D01*
X75224Y396121D01*
X75169Y396250D01*
X75123Y396380D01*
X75095Y396500D01*
X75076Y396602D01*
X75067Y396675D01*
Y396731D01*
Y396749D01*
X75076Y396907D01*
X75104Y397064D01*
X75141Y397202D01*
X75187Y397323D01*
X75234Y397424D01*
X75271Y397508D01*
X75298Y397554D01*
X75308Y397572D01*
X75400Y397711D01*
X75511Y397831D01*
X75622Y397933D01*
X75733Y398025D01*
X75825Y398090D01*
X75909Y398146D01*
X75964Y398173D01*
X75973Y398183D01*
X75983D01*
X76149Y398256D01*
X76315Y398312D01*
X76482Y398358D01*
X76630Y398386D01*
X76750Y398405D01*
X76852Y398414D01*
X77083D01*
X77212Y398395D01*
D02*
G37*
G36*
X81974Y398405D02*
X82131Y398395D01*
X82279Y398368D01*
X82417Y398340D01*
X82547Y398303D01*
X82667Y398266D01*
X82778Y398219D01*
X82880Y398173D01*
X82972Y398127D01*
X83046Y398081D01*
X83111Y398044D01*
X83166Y398007D01*
X83213Y397979D01*
X83240Y397951D01*
X83259Y397942D01*
X83268Y397933D01*
X83361Y397840D01*
X83444Y397739D01*
X83527Y397628D01*
X83592Y397517D01*
X83703Y397295D01*
X83777Y397073D01*
X83804Y396971D01*
X83832Y396870D01*
X83851Y396786D01*
X83869Y396712D01*
X83878Y396648D01*
Y396602D01*
X83888Y396574D01*
Y396565D01*
X83083Y396481D01*
X83065Y396694D01*
X83028Y396879D01*
X82972Y397045D01*
X82907Y397175D01*
X82852Y397286D01*
X82797Y397360D01*
X82760Y397406D01*
X82741Y397424D01*
X82602Y397535D01*
X82455Y397619D01*
X82297Y397683D01*
X82159Y397720D01*
X82029Y397748D01*
X81918Y397757D01*
X81881Y397766D01*
X81826D01*
X81632Y397757D01*
X81456Y397720D01*
X81308Y397665D01*
X81179Y397609D01*
X81077Y397545D01*
X81012Y397498D01*
X80966Y397461D01*
X80947Y397443D01*
X80836Y397313D01*
X80753Y397184D01*
X80689Y397055D01*
X80652Y396925D01*
X80624Y396824D01*
X80615Y396731D01*
X80605Y396675D01*
Y396666D01*
Y396657D01*
X80624Y396491D01*
X80661Y396315D01*
X80725Y396158D01*
X80790Y396010D01*
X80864Y395890D01*
X80929Y395788D01*
X80947Y395751D01*
X80966Y395723D01*
X80984Y395714D01*
Y395705D01*
X81058Y395603D01*
X81151Y395501D01*
X81252Y395390D01*
X81363Y395279D01*
X81595Y395058D01*
X81826Y394836D01*
X81946Y394734D01*
X82048Y394641D01*
X82149Y394558D01*
X82233Y394484D01*
X82297Y394429D01*
X82353Y394383D01*
X82390Y394355D01*
X82399Y394346D01*
X82630Y394151D01*
X82843Y393967D01*
X83019Y393800D01*
X83157Y393661D01*
X83277Y393541D01*
X83361Y393458D01*
X83407Y393403D01*
X83425Y393393D01*
Y393384D01*
X83555Y393227D01*
X83656Y393079D01*
X83749Y392931D01*
X83823Y392802D01*
X83878Y392691D01*
X83915Y392607D01*
X83934Y392552D01*
X83943Y392543D01*
Y392533D01*
X83980Y392432D01*
X83998Y392339D01*
X84017Y392247D01*
X84026Y392164D01*
X84036Y392090D01*
Y392034D01*
Y391997D01*
Y391988D01*
X79792D01*
Y392746D01*
X82944D01*
X82833Y392903D01*
X82778Y392968D01*
X82732Y393033D01*
X82686Y393088D01*
X82649Y393125D01*
X82621Y393153D01*
X82612Y393162D01*
X82565Y393208D01*
X82510Y393255D01*
X82381Y393375D01*
X82233Y393513D01*
X82075Y393652D01*
X81927Y393772D01*
X81863Y393828D01*
X81807Y393883D01*
X81761Y393920D01*
X81724Y393948D01*
X81706Y393967D01*
X81696Y393976D01*
X81548Y394105D01*
X81400Y394225D01*
X81271Y394346D01*
X81151Y394447D01*
X81040Y394549D01*
X80947Y394641D01*
X80855Y394725D01*
X80781Y394799D01*
X80707Y394873D01*
X80652Y394928D01*
X80605Y394974D01*
X80559Y395021D01*
X80513Y395076D01*
X80494Y395094D01*
X80365Y395252D01*
X80254Y395390D01*
X80162Y395529D01*
X80088Y395640D01*
X80032Y395742D01*
X79995Y395816D01*
X79977Y395862D01*
X79967Y395880D01*
X79912Y396019D01*
X79875Y396158D01*
X79838Y396287D01*
X79819Y396398D01*
X79810Y396500D01*
X79801Y396574D01*
Y396620D01*
Y396639D01*
X79810Y396777D01*
X79829Y396907D01*
X79847Y397036D01*
X79884Y397147D01*
X79977Y397369D01*
X80069Y397545D01*
X80125Y397628D01*
X80171Y397692D01*
X80217Y397757D01*
X80263Y397803D01*
X80300Y397840D01*
X80319Y397878D01*
X80337Y397887D01*
X80346Y397896D01*
X80448Y397988D01*
X80559Y398072D01*
X80679Y398136D01*
X80800Y398192D01*
X81040Y398284D01*
X81280Y398349D01*
X81382Y398368D01*
X81484Y398386D01*
X81576Y398395D01*
X81650Y398405D01*
X81715Y398414D01*
X81807D01*
X81974Y398405D01*
D02*
G37*
G36*
X87595Y398478D02*
X87891Y398432D01*
X88150Y398377D01*
X88270Y398340D01*
X88381Y398303D01*
X88483Y398266D01*
X88575Y398229D01*
X88649Y398201D01*
X88723Y398173D01*
X88769Y398146D01*
X88806Y398127D01*
X88834Y398118D01*
X88843Y398109D01*
X89093Y397951D01*
X89305Y397766D01*
X89490Y397582D01*
X89648Y397397D01*
X89768Y397230D01*
X89814Y397156D01*
X89851Y397092D01*
X89888Y397045D01*
X89906Y397008D01*
X89916Y396981D01*
X89925Y396971D01*
X90054Y396685D01*
X90147Y396389D01*
X90211Y396093D01*
X90258Y395825D01*
X90276Y395705D01*
X90286Y395585D01*
X90295Y395492D01*
Y395400D01*
X90304Y395335D01*
Y395279D01*
Y395243D01*
Y395233D01*
X90286Y394900D01*
X90248Y394577D01*
X90202Y394290D01*
X90165Y394151D01*
X90138Y394031D01*
X90110Y393920D01*
X90073Y393819D01*
X90045Y393726D01*
X90027Y393652D01*
X89999Y393597D01*
X89990Y393550D01*
X89971Y393523D01*
Y393513D01*
X89832Y393236D01*
X89675Y392986D01*
X89509Y392774D01*
X89426Y392691D01*
X89352Y392607D01*
X89278Y392533D01*
X89204Y392469D01*
X89139Y392413D01*
X89084Y392376D01*
X89047Y392339D01*
X89010Y392312D01*
X88991Y392302D01*
X88982Y392293D01*
X88852Y392219D01*
X88723Y392154D01*
X88446Y392053D01*
X88168Y391979D01*
X87900Y391932D01*
X87771Y391914D01*
X87660Y391896D01*
X87558Y391886D01*
X87475D01*
X87401Y391877D01*
X87299D01*
X87114Y391886D01*
X86939Y391905D01*
X86772Y391923D01*
X86615Y391960D01*
X86467Y392006D01*
X86328Y392053D01*
X86199Y392099D01*
X86079Y392154D01*
X85977Y392201D01*
X85875Y392247D01*
X85801Y392293D01*
X85727Y392339D01*
X85681Y392376D01*
X85635Y392395D01*
X85617Y392413D01*
X85607Y392423D01*
X85478Y392533D01*
X85367Y392645D01*
X85265Y392774D01*
X85163Y392903D01*
X84997Y393162D01*
X84868Y393421D01*
X84812Y393541D01*
X84766Y393652D01*
X84729Y393754D01*
X84701Y393837D01*
X84673Y393911D01*
X84655Y393967D01*
X84646Y394004D01*
Y394013D01*
X85496Y394225D01*
X85533Y394077D01*
X85580Y393939D01*
X85626Y393809D01*
X85672Y393689D01*
X85727Y393578D01*
X85783Y393486D01*
X85848Y393393D01*
X85903Y393310D01*
X85949Y393236D01*
X86005Y393181D01*
X86051Y393125D01*
X86088Y393079D01*
X86125Y393051D01*
X86153Y393023D01*
X86162Y393014D01*
X86171Y393005D01*
X86264Y392931D01*
X86365Y392876D01*
X86569Y392774D01*
X86763Y392700D01*
X86957Y392654D01*
X87123Y392617D01*
X87188Y392607D01*
X87253D01*
X87308Y392598D01*
X87373D01*
X87586Y392607D01*
X87789Y392645D01*
X87974Y392691D01*
X88140Y392746D01*
X88270Y392802D01*
X88325Y392829D01*
X88372Y392848D01*
X88409Y392866D01*
X88436Y392885D01*
X88455Y392894D01*
X88464D01*
X88640Y393023D01*
X88788Y393162D01*
X88917Y393319D01*
X89019Y393467D01*
X89102Y393597D01*
X89157Y393708D01*
X89176Y393754D01*
X89194Y393782D01*
X89204Y393800D01*
Y393809D01*
X89278Y394050D01*
X89333Y394290D01*
X89379Y394531D01*
X89407Y394752D01*
X89416Y394854D01*
X89426Y394947D01*
Y395030D01*
X89435Y395094D01*
Y395150D01*
Y395196D01*
Y395224D01*
Y395233D01*
X89426Y395474D01*
X89407Y395695D01*
X89370Y395899D01*
X89333Y396084D01*
X89305Y396241D01*
X89287Y396306D01*
X89269Y396361D01*
X89259Y396407D01*
X89250Y396435D01*
X89241Y396454D01*
Y396463D01*
X89148Y396675D01*
X89047Y396870D01*
X88936Y397027D01*
X88815Y397166D01*
X88714Y397276D01*
X88631Y397351D01*
X88566Y397397D01*
X88557Y397415D01*
X88547D01*
X88353Y397535D01*
X88140Y397628D01*
X87937Y397692D01*
X87743Y397729D01*
X87567Y397757D01*
X87493Y397766D01*
X87429D01*
X87382Y397776D01*
X87308D01*
X87077Y397766D01*
X86865Y397729D01*
X86689Y397674D01*
X86532Y397619D01*
X86412Y397554D01*
X86319Y397508D01*
X86264Y397471D01*
X86245Y397452D01*
X86097Y397313D01*
X85959Y397156D01*
X85848Y396990D01*
X85755Y396824D01*
X85681Y396675D01*
X85653Y396602D01*
X85635Y396546D01*
X85617Y396500D01*
X85598Y396463D01*
X85589Y396444D01*
Y396435D01*
X84757Y396629D01*
X84812Y396796D01*
X84868Y396944D01*
X84942Y397082D01*
X85006Y397221D01*
X85080Y397341D01*
X85163Y397452D01*
X85237Y397563D01*
X85311Y397656D01*
X85385Y397729D01*
X85450Y397803D01*
X85515Y397868D01*
X85561Y397914D01*
X85607Y397961D01*
X85644Y397988D01*
X85663Y397998D01*
X85672Y398007D01*
X85801Y398090D01*
X85931Y398173D01*
X86060Y398238D01*
X86199Y398293D01*
X86476Y398377D01*
X86726Y398432D01*
X86846Y398460D01*
X86948Y398469D01*
X87050Y398478D01*
X87133Y398488D01*
X87198Y398497D01*
X87290D01*
X87595Y398478D01*
D02*
G37*
G36*
X61948Y398419D02*
X62105Y398409D01*
X62253Y398382D01*
X62392Y398354D01*
X62521Y398317D01*
X62641Y398280D01*
X62752Y398233D01*
X62854Y398187D01*
X62946Y398141D01*
X63020Y398095D01*
X63085Y398058D01*
X63140Y398021D01*
X63187Y397993D01*
X63214Y397965D01*
X63233Y397956D01*
X63242Y397947D01*
X63334Y397854D01*
X63418Y397753D01*
X63501Y397642D01*
X63566Y397531D01*
X63677Y397309D01*
X63751Y397087D01*
X63778Y396985D01*
X63806Y396884D01*
X63825Y396800D01*
X63843Y396726D01*
X63852Y396662D01*
Y396616D01*
X63861Y396588D01*
Y396579D01*
X63057Y396495D01*
X63039Y396708D01*
X63002Y396893D01*
X62946Y397059D01*
X62881Y397189D01*
X62826Y397300D01*
X62771Y397374D01*
X62734Y397420D01*
X62715Y397438D01*
X62576Y397549D01*
X62428Y397633D01*
X62271Y397697D01*
X62133Y397734D01*
X62003Y397762D01*
X61892Y397771D01*
X61855Y397780D01*
X61800D01*
X61606Y397771D01*
X61430Y397734D01*
X61282Y397679D01*
X61153Y397623D01*
X61051Y397559D01*
X60986Y397512D01*
X60940Y397475D01*
X60921Y397457D01*
X60810Y397327D01*
X60727Y397198D01*
X60663Y397069D01*
X60626Y396939D01*
X60598Y396838D01*
X60589Y396745D01*
X60579Y396689D01*
Y396680D01*
Y396671D01*
X60598Y396505D01*
X60635Y396329D01*
X60700Y396172D01*
X60764Y396024D01*
X60838Y395904D01*
X60903Y395802D01*
X60921Y395765D01*
X60940Y395737D01*
X60958Y395728D01*
Y395719D01*
X61032Y395617D01*
X61125Y395515D01*
X61227Y395404D01*
X61337Y395293D01*
X61569Y395071D01*
X61800Y394850D01*
X61920Y394748D01*
X62022Y394655D01*
X62123Y394572D01*
X62207Y394498D01*
X62271Y394443D01*
X62327Y394397D01*
X62364Y394369D01*
X62373Y394360D01*
X62604Y394165D01*
X62817Y393981D01*
X62993Y393814D01*
X63131Y393675D01*
X63251Y393555D01*
X63334Y393472D01*
X63381Y393417D01*
X63399Y393407D01*
Y393398D01*
X63529Y393241D01*
X63630Y393093D01*
X63723Y392945D01*
X63797Y392816D01*
X63852Y392705D01*
X63889Y392621D01*
X63908Y392566D01*
X63917Y392557D01*
Y392547D01*
X63954Y392446D01*
X63973Y392353D01*
X63991Y392261D01*
X64000Y392178D01*
X64009Y392104D01*
Y392048D01*
Y392011D01*
Y392002D01*
X59766D01*
Y392760D01*
X62919D01*
X62807Y392917D01*
X62752Y392982D01*
X62706Y393047D01*
X62660Y393102D01*
X62623Y393139D01*
X62595Y393167D01*
X62586Y393176D01*
X62539Y393222D01*
X62484Y393269D01*
X62354Y393389D01*
X62207Y393527D01*
X62049Y393666D01*
X61901Y393786D01*
X61837Y393842D01*
X61781Y393897D01*
X61735Y393934D01*
X61698Y393962D01*
X61680Y393981D01*
X61670Y393990D01*
X61522Y394119D01*
X61375Y394239D01*
X61245Y394360D01*
X61125Y394461D01*
X61014Y394563D01*
X60921Y394655D01*
X60829Y394739D01*
X60755Y394813D01*
X60681Y394887D01*
X60626Y394942D01*
X60579Y394988D01*
X60533Y395035D01*
X60487Y395090D01*
X60468Y395108D01*
X60339Y395266D01*
X60228Y395404D01*
X60136Y395543D01*
X60062Y395654D01*
X60006Y395756D01*
X59969Y395830D01*
X59951Y395876D01*
X59941Y395894D01*
X59886Y396033D01*
X59849Y396172D01*
X59812Y396301D01*
X59794Y396412D01*
X59784Y396514D01*
X59775Y396588D01*
Y396634D01*
Y396652D01*
X59784Y396791D01*
X59803Y396921D01*
X59821Y397050D01*
X59858Y397161D01*
X59951Y397383D01*
X60043Y397559D01*
X60099Y397642D01*
X60145Y397706D01*
X60191Y397771D01*
X60237Y397817D01*
X60274Y397854D01*
X60293Y397892D01*
X60311Y397901D01*
X60321Y397910D01*
X60422Y398002D01*
X60533Y398086D01*
X60653Y398150D01*
X60774Y398206D01*
X61014Y398298D01*
X61254Y398363D01*
X61356Y398382D01*
X61458Y398400D01*
X61550Y398409D01*
X61624Y398419D01*
X61689Y398428D01*
X61781D01*
X61948Y398419D01*
D02*
G37*
G36*
X56974D02*
X57131Y398409D01*
X57279Y398382D01*
X57417Y398354D01*
X57547Y398317D01*
X57667Y398280D01*
X57778Y398233D01*
X57880Y398187D01*
X57972Y398141D01*
X58046Y398095D01*
X58111Y398058D01*
X58166Y398021D01*
X58212Y397993D01*
X58240Y397965D01*
X58259Y397956D01*
X58268Y397947D01*
X58360Y397854D01*
X58444Y397753D01*
X58527Y397642D01*
X58592Y397531D01*
X58703Y397309D01*
X58776Y397087D01*
X58804Y396985D01*
X58832Y396884D01*
X58850Y396800D01*
X58869Y396726D01*
X58878Y396662D01*
Y396616D01*
X58887Y396588D01*
Y396579D01*
X58083Y396495D01*
X58065Y396708D01*
X58028Y396893D01*
X57972Y397059D01*
X57907Y397189D01*
X57852Y397300D01*
X57796Y397374D01*
X57759Y397420D01*
X57741Y397438D01*
X57602Y397549D01*
X57454Y397633D01*
X57297Y397697D01*
X57158Y397734D01*
X57029Y397762D01*
X56918Y397771D01*
X56881Y397780D01*
X56826D01*
X56631Y397771D01*
X56456Y397734D01*
X56308Y397679D01*
X56178Y397623D01*
X56077Y397559D01*
X56012Y397512D01*
X55966Y397475D01*
X55947Y397457D01*
X55836Y397327D01*
X55753Y397198D01*
X55688Y397069D01*
X55651Y396939D01*
X55624Y396838D01*
X55615Y396745D01*
X55605Y396689D01*
Y396680D01*
Y396671D01*
X55624Y396505D01*
X55661Y396329D01*
X55725Y396172D01*
X55790Y396024D01*
X55864Y395904D01*
X55929Y395802D01*
X55947Y395765D01*
X55966Y395737D01*
X55984Y395728D01*
Y395719D01*
X56058Y395617D01*
X56151Y395515D01*
X56252Y395404D01*
X56363Y395293D01*
X56595Y395071D01*
X56826Y394850D01*
X56946Y394748D01*
X57048Y394655D01*
X57149Y394572D01*
X57232Y394498D01*
X57297Y394443D01*
X57353Y394397D01*
X57390Y394369D01*
X57399Y394360D01*
X57630Y394165D01*
X57843Y393981D01*
X58018Y393814D01*
X58157Y393675D01*
X58277Y393555D01*
X58360Y393472D01*
X58407Y393417D01*
X58425Y393407D01*
Y393398D01*
X58555Y393241D01*
X58656Y393093D01*
X58749Y392945D01*
X58823Y392816D01*
X58878Y392705D01*
X58915Y392621D01*
X58934Y392566D01*
X58943Y392557D01*
Y392547D01*
X58980Y392446D01*
X58998Y392353D01*
X59017Y392261D01*
X59026Y392178D01*
X59035Y392104D01*
Y392048D01*
Y392011D01*
Y392002D01*
X54792D01*
Y392760D01*
X57944D01*
X57833Y392917D01*
X57778Y392982D01*
X57732Y393047D01*
X57685Y393102D01*
X57649Y393139D01*
X57621Y393167D01*
X57611Y393176D01*
X57565Y393222D01*
X57510Y393269D01*
X57380Y393389D01*
X57232Y393527D01*
X57075Y393666D01*
X56927Y393786D01*
X56863Y393842D01*
X56807Y393897D01*
X56761Y393934D01*
X56724Y393962D01*
X56705Y393981D01*
X56696Y393990D01*
X56548Y394119D01*
X56400Y394239D01*
X56271Y394360D01*
X56151Y394461D01*
X56040Y394563D01*
X55947Y394655D01*
X55855Y394739D01*
X55781Y394813D01*
X55707Y394887D01*
X55651Y394942D01*
X55605Y394988D01*
X55559Y395035D01*
X55513Y395090D01*
X55494Y395108D01*
X55365Y395266D01*
X55254Y395404D01*
X55161Y395543D01*
X55087Y395654D01*
X55032Y395756D01*
X54995Y395830D01*
X54977Y395876D01*
X54967Y395894D01*
X54912Y396033D01*
X54875Y396172D01*
X54838Y396301D01*
X54819Y396412D01*
X54810Y396514D01*
X54801Y396588D01*
Y396634D01*
Y396652D01*
X54810Y396791D01*
X54829Y396921D01*
X54847Y397050D01*
X54884Y397161D01*
X54977Y397383D01*
X55069Y397559D01*
X55125Y397642D01*
X55171Y397706D01*
X55217Y397771D01*
X55263Y397817D01*
X55300Y397854D01*
X55319Y397892D01*
X55337Y397901D01*
X55346Y397910D01*
X55448Y398002D01*
X55559Y398086D01*
X55679Y398150D01*
X55799Y398206D01*
X56040Y398298D01*
X56280Y398363D01*
X56382Y398382D01*
X56484Y398400D01*
X56576Y398409D01*
X56650Y398419D01*
X56715Y398428D01*
X56807D01*
X56974Y398419D01*
D02*
G37*
G36*
X67569Y398492D02*
X67865Y398446D01*
X68124Y398391D01*
X68244Y398354D01*
X68355Y398317D01*
X68457Y398280D01*
X68549Y398243D01*
X68623Y398215D01*
X68697Y398187D01*
X68743Y398160D01*
X68780Y398141D01*
X68808Y398132D01*
X68817Y398123D01*
X69067Y397965D01*
X69279Y397780D01*
X69464Y397596D01*
X69622Y397411D01*
X69742Y397244D01*
X69788Y397170D01*
X69825Y397106D01*
X69862Y397059D01*
X69880Y397022D01*
X69890Y396995D01*
X69899Y396985D01*
X70028Y396699D01*
X70121Y396403D01*
X70185Y396107D01*
X70232Y395839D01*
X70250Y395719D01*
X70259Y395598D01*
X70269Y395506D01*
Y395414D01*
X70278Y395349D01*
Y395293D01*
Y395257D01*
Y395247D01*
X70259Y394914D01*
X70223Y394591D01*
X70176Y394304D01*
X70139Y394165D01*
X70112Y394045D01*
X70084Y393934D01*
X70047Y393833D01*
X70019Y393740D01*
X70001Y393666D01*
X69973Y393611D01*
X69964Y393564D01*
X69945Y393537D01*
Y393527D01*
X69806Y393250D01*
X69649Y393000D01*
X69483Y392788D01*
X69400Y392705D01*
X69326Y392621D01*
X69252Y392547D01*
X69178Y392483D01*
X69113Y392427D01*
X69058Y392390D01*
X69021Y392353D01*
X68984Y392326D01*
X68965Y392316D01*
X68956Y392307D01*
X68826Y392233D01*
X68697Y392168D01*
X68420Y392067D01*
X68142Y391993D01*
X67874Y391946D01*
X67745Y391928D01*
X67634Y391910D01*
X67532Y391900D01*
X67449D01*
X67375Y391891D01*
X67273D01*
X67088Y391900D01*
X66913Y391919D01*
X66746Y391937D01*
X66589Y391974D01*
X66441Y392020D01*
X66302Y392067D01*
X66173Y392113D01*
X66053Y392168D01*
X65951Y392215D01*
X65849Y392261D01*
X65775Y392307D01*
X65701Y392353D01*
X65655Y392390D01*
X65609Y392409D01*
X65591Y392427D01*
X65581Y392437D01*
X65452Y392547D01*
X65341Y392658D01*
X65239Y392788D01*
X65137Y392917D01*
X64971Y393176D01*
X64842Y393435D01*
X64786Y393555D01*
X64740Y393666D01*
X64703Y393768D01*
X64675Y393851D01*
X64647Y393925D01*
X64629Y393981D01*
X64620Y394018D01*
Y394027D01*
X65470Y394239D01*
X65507Y394091D01*
X65553Y393953D01*
X65600Y393823D01*
X65646Y393703D01*
X65701Y393592D01*
X65757Y393500D01*
X65822Y393407D01*
X65877Y393324D01*
X65923Y393250D01*
X65979Y393195D01*
X66025Y393139D01*
X66062Y393093D01*
X66099Y393065D01*
X66127Y393037D01*
X66136Y393028D01*
X66145Y393019D01*
X66238Y392945D01*
X66339Y392890D01*
X66543Y392788D01*
X66737Y392714D01*
X66931Y392668D01*
X67098Y392631D01*
X67162Y392621D01*
X67227D01*
X67282Y392612D01*
X67347D01*
X67560Y392621D01*
X67763Y392658D01*
X67948Y392705D01*
X68115Y392760D01*
X68244Y392816D01*
X68299Y392843D01*
X68346Y392862D01*
X68383Y392880D01*
X68410Y392899D01*
X68429Y392908D01*
X68438D01*
X68614Y393037D01*
X68762Y393176D01*
X68891Y393333D01*
X68993Y393481D01*
X69076Y393611D01*
X69131Y393722D01*
X69150Y393768D01*
X69169Y393796D01*
X69178Y393814D01*
Y393823D01*
X69252Y394064D01*
X69307Y394304D01*
X69353Y394544D01*
X69381Y394766D01*
X69390Y394868D01*
X69400Y394961D01*
Y395044D01*
X69409Y395108D01*
Y395164D01*
Y395210D01*
Y395238D01*
Y395247D01*
X69400Y395488D01*
X69381Y395709D01*
X69344Y395913D01*
X69307Y396098D01*
X69279Y396255D01*
X69261Y396320D01*
X69243Y396375D01*
X69233Y396421D01*
X69224Y396449D01*
X69215Y396468D01*
Y396477D01*
X69122Y396689D01*
X69021Y396884D01*
X68910Y397041D01*
X68789Y397179D01*
X68688Y397290D01*
X68604Y397365D01*
X68540Y397411D01*
X68531Y397429D01*
X68521D01*
X68327Y397549D01*
X68115Y397642D01*
X67911Y397706D01*
X67717Y397743D01*
X67541Y397771D01*
X67467Y397780D01*
X67403D01*
X67356Y397790D01*
X67282D01*
X67051Y397780D01*
X66839Y397743D01*
X66663Y397688D01*
X66506Y397633D01*
X66386Y397568D01*
X66293Y397522D01*
X66238Y397485D01*
X66219Y397466D01*
X66071Y397327D01*
X65933Y397170D01*
X65822Y397004D01*
X65729Y396838D01*
X65655Y396689D01*
X65627Y396616D01*
X65609Y396560D01*
X65591Y396514D01*
X65572Y396477D01*
X65563Y396458D01*
Y396449D01*
X64731Y396643D01*
X64786Y396810D01*
X64842Y396958D01*
X64915Y397096D01*
X64980Y397235D01*
X65054Y397355D01*
X65137Y397466D01*
X65211Y397577D01*
X65285Y397670D01*
X65359Y397743D01*
X65424Y397817D01*
X65489Y397882D01*
X65535Y397928D01*
X65581Y397975D01*
X65618Y398002D01*
X65637Y398012D01*
X65646Y398021D01*
X65775Y398104D01*
X65905Y398187D01*
X66034Y398252D01*
X66173Y398307D01*
X66450Y398391D01*
X66700Y398446D01*
X66820Y398474D01*
X66922Y398483D01*
X67024Y398492D01*
X67107Y398502D01*
X67172Y398511D01*
X67264D01*
X67569Y398492D01*
D02*
G37*
G36*
X120782Y398473D02*
X120939Y398463D01*
X121087Y398436D01*
X121226Y398408D01*
X121355Y398371D01*
X121475Y398334D01*
X121586Y398288D01*
X121688Y398241D01*
X121780Y398195D01*
X121854Y398149D01*
X121919Y398112D01*
X121974Y398075D01*
X122021Y398047D01*
X122048Y398019D01*
X122067Y398010D01*
X122076Y398001D01*
X122169Y397909D01*
X122252Y397807D01*
X122335Y397696D01*
X122400Y397585D01*
X122511Y397363D01*
X122585Y397141D01*
X122612Y397039D01*
X122640Y396938D01*
X122659Y396855D01*
X122677Y396781D01*
X122686Y396716D01*
Y396670D01*
X122696Y396642D01*
Y396633D01*
X121891Y396549D01*
X121873Y396762D01*
X121836Y396947D01*
X121780Y397113D01*
X121715Y397243D01*
X121660Y397354D01*
X121605Y397428D01*
X121568Y397474D01*
X121549Y397492D01*
X121410Y397603D01*
X121263Y397687D01*
X121105Y397751D01*
X120967Y397788D01*
X120837Y397816D01*
X120726Y397825D01*
X120689Y397835D01*
X120634D01*
X120440Y397825D01*
X120264Y397788D01*
X120116Y397733D01*
X119987Y397677D01*
X119885Y397613D01*
X119820Y397566D01*
X119774Y397529D01*
X119755Y397511D01*
X119644Y397382D01*
X119561Y397252D01*
X119497Y397123D01*
X119460Y396993D01*
X119432Y396892D01*
X119423Y396799D01*
X119413Y396744D01*
Y396734D01*
Y396725D01*
X119432Y396559D01*
X119469Y396383D01*
X119534Y396226D01*
X119598Y396078D01*
X119672Y395958D01*
X119737Y395856D01*
X119755Y395819D01*
X119774Y395791D01*
X119792Y395782D01*
Y395773D01*
X119866Y395671D01*
X119959Y395569D01*
X120061Y395458D01*
X120171Y395347D01*
X120403Y395126D01*
X120634Y394904D01*
X120754Y394802D01*
X120856Y394710D01*
X120957Y394626D01*
X121041Y394552D01*
X121105Y394497D01*
X121161Y394451D01*
X121198Y394423D01*
X121207Y394414D01*
X121438Y394220D01*
X121651Y394035D01*
X121826Y393868D01*
X121965Y393730D01*
X122085Y393609D01*
X122169Y393526D01*
X122215Y393471D01*
X122233Y393461D01*
Y393452D01*
X122363Y393295D01*
X122464Y393147D01*
X122557Y392999D01*
X122631Y392870D01*
X122686Y392759D01*
X122723Y392676D01*
X122742Y392620D01*
X122751Y392611D01*
Y392602D01*
X122788Y392500D01*
X122807Y392407D01*
X122825Y392315D01*
X122834Y392232D01*
X122844Y392158D01*
Y392102D01*
Y392065D01*
Y392056D01*
X118600D01*
Y392814D01*
X121753D01*
X121642Y392971D01*
X121586Y393036D01*
X121540Y393101D01*
X121494Y393156D01*
X121457Y393193D01*
X121429Y393221D01*
X121420Y393230D01*
X121373Y393276D01*
X121318Y393323D01*
X121188Y393443D01*
X121041Y393582D01*
X120883Y393720D01*
X120736Y393840D01*
X120671Y393896D01*
X120615Y393951D01*
X120569Y393988D01*
X120532Y394016D01*
X120514Y394035D01*
X120504Y394044D01*
X120356Y394173D01*
X120209Y394293D01*
X120079Y394414D01*
X119959Y394515D01*
X119848Y394617D01*
X119755Y394710D01*
X119663Y394793D01*
X119589Y394867D01*
X119515Y394941D01*
X119460Y394996D01*
X119413Y395042D01*
X119367Y395089D01*
X119321Y395144D01*
X119302Y395163D01*
X119173Y395320D01*
X119062Y395458D01*
X118970Y395597D01*
X118896Y395708D01*
X118840Y395810D01*
X118803Y395884D01*
X118785Y395930D01*
X118775Y395948D01*
X118720Y396087D01*
X118683Y396226D01*
X118646Y396355D01*
X118628Y396466D01*
X118618Y396568D01*
X118609Y396642D01*
Y396688D01*
Y396707D01*
X118618Y396845D01*
X118637Y396975D01*
X118655Y397104D01*
X118692Y397215D01*
X118785Y397437D01*
X118877Y397613D01*
X118933Y397696D01*
X118979Y397761D01*
X119025Y397825D01*
X119071Y397872D01*
X119108Y397909D01*
X119127Y397946D01*
X119145Y397955D01*
X119155Y397964D01*
X119256Y398056D01*
X119367Y398140D01*
X119487Y398204D01*
X119607Y398260D01*
X119848Y398352D01*
X120088Y398417D01*
X120190Y398436D01*
X120292Y398454D01*
X120384Y398463D01*
X120458Y398473D01*
X120523Y398482D01*
X120615D01*
X120782Y398473D01*
D02*
G37*
G36*
X115401Y398325D02*
X115503Y398177D01*
X115623Y398029D01*
X115734Y397899D01*
X115844Y397788D01*
X115928Y397696D01*
X115965Y397668D01*
X115992Y397640D01*
X116002Y397631D01*
X116011Y397622D01*
X116205Y397465D01*
X116399Y397317D01*
X116584Y397187D01*
X116769Y397086D01*
X116926Y396993D01*
X116991Y396956D01*
X117046Y396928D01*
X117093Y396901D01*
X117130Y396892D01*
X117148Y396873D01*
X117157D01*
Y396115D01*
X117019Y396170D01*
X116880Y396235D01*
X116741Y396300D01*
X116612Y396365D01*
X116501Y396420D01*
X116409Y396466D01*
X116353Y396503D01*
X116344Y396512D01*
X116335D01*
X116168Y396614D01*
X116020Y396716D01*
X115891Y396808D01*
X115789Y396892D01*
X115697Y396956D01*
X115641Y397012D01*
X115595Y397049D01*
X115586Y397058D01*
Y392056D01*
X114800D01*
Y398482D01*
X115308D01*
X115401Y398325D01*
D02*
G37*
G36*
X126403Y398546D02*
X126699Y398500D01*
X126958Y398445D01*
X127078Y398408D01*
X127189Y398371D01*
X127291Y398334D01*
X127383Y398297D01*
X127457Y398269D01*
X127531Y398241D01*
X127577Y398214D01*
X127614Y398195D01*
X127642Y398186D01*
X127651Y398177D01*
X127901Y398019D01*
X128113Y397835D01*
X128298Y397650D01*
X128455Y397465D01*
X128576Y397298D01*
X128622Y397224D01*
X128659Y397160D01*
X128696Y397113D01*
X128714Y397076D01*
X128724Y397049D01*
X128733Y397039D01*
X128862Y396753D01*
X128955Y396457D01*
X129019Y396161D01*
X129066Y395893D01*
X129084Y395773D01*
X129094Y395653D01*
X129103Y395560D01*
Y395468D01*
X129112Y395403D01*
Y395347D01*
Y395311D01*
Y395301D01*
X129094Y394968D01*
X129057Y394645D01*
X129010Y394358D01*
X128973Y394220D01*
X128946Y394099D01*
X128918Y393988D01*
X128881Y393887D01*
X128853Y393794D01*
X128835Y393720D01*
X128807Y393665D01*
X128798Y393619D01*
X128779Y393591D01*
Y393582D01*
X128640Y393304D01*
X128483Y393055D01*
X128317Y392842D01*
X128234Y392759D01*
X128160Y392676D01*
X128086Y392602D01*
X128012Y392537D01*
X127947Y392481D01*
X127892Y392444D01*
X127855Y392407D01*
X127818Y392380D01*
X127799Y392370D01*
X127790Y392361D01*
X127660Y392287D01*
X127531Y392222D01*
X127254Y392121D01*
X126976Y392047D01*
X126708Y392001D01*
X126579Y391982D01*
X126468Y391964D01*
X126366Y391954D01*
X126283D01*
X126209Y391945D01*
X126107D01*
X125922Y391954D01*
X125747Y391973D01*
X125580Y391991D01*
X125423Y392028D01*
X125275Y392075D01*
X125136Y392121D01*
X125007Y392167D01*
X124887Y392222D01*
X124785Y392269D01*
X124683Y392315D01*
X124609Y392361D01*
X124535Y392407D01*
X124489Y392444D01*
X124443Y392463D01*
X124424Y392481D01*
X124415Y392491D01*
X124286Y392602D01*
X124175Y392712D01*
X124073Y392842D01*
X123971Y392971D01*
X123805Y393230D01*
X123676Y393489D01*
X123620Y393609D01*
X123574Y393720D01*
X123537Y393822D01*
X123509Y393905D01*
X123481Y393979D01*
X123463Y394035D01*
X123454Y394072D01*
Y394081D01*
X124304Y394293D01*
X124341Y394146D01*
X124388Y394007D01*
X124434Y393877D01*
X124480Y393757D01*
X124535Y393646D01*
X124591Y393554D01*
X124656Y393461D01*
X124711Y393378D01*
X124757Y393304D01*
X124813Y393249D01*
X124859Y393193D01*
X124896Y393147D01*
X124933Y393119D01*
X124961Y393092D01*
X124970Y393082D01*
X124979Y393073D01*
X125072Y392999D01*
X125173Y392944D01*
X125377Y392842D01*
X125571Y392768D01*
X125765Y392722D01*
X125932Y392685D01*
X125996Y392676D01*
X126061D01*
X126116Y392666D01*
X126181D01*
X126394Y392676D01*
X126597Y392712D01*
X126782Y392759D01*
X126948Y392814D01*
X127078Y392870D01*
X127133Y392897D01*
X127180Y392916D01*
X127217Y392934D01*
X127244Y392953D01*
X127263Y392962D01*
X127272D01*
X127448Y393092D01*
X127596Y393230D01*
X127725Y393387D01*
X127827Y393535D01*
X127910Y393665D01*
X127965Y393776D01*
X127984Y393822D01*
X128003Y393850D01*
X128012Y393868D01*
Y393877D01*
X128086Y394118D01*
X128141Y394358D01*
X128187Y394599D01*
X128215Y394820D01*
X128224Y394922D01*
X128234Y395015D01*
Y395098D01*
X128243Y395163D01*
Y395218D01*
Y395264D01*
Y395292D01*
Y395301D01*
X128234Y395542D01*
X128215Y395764D01*
X128178Y395967D01*
X128141Y396152D01*
X128113Y396309D01*
X128095Y396374D01*
X128076Y396429D01*
X128067Y396475D01*
X128058Y396503D01*
X128049Y396522D01*
Y396531D01*
X127956Y396744D01*
X127855Y396938D01*
X127744Y397095D01*
X127623Y397234D01*
X127522Y397345D01*
X127438Y397419D01*
X127374Y397465D01*
X127365Y397483D01*
X127355D01*
X127161Y397603D01*
X126948Y397696D01*
X126745Y397761D01*
X126551Y397798D01*
X126375Y397825D01*
X126301Y397835D01*
X126237D01*
X126190Y397844D01*
X126116D01*
X125885Y397835D01*
X125673Y397798D01*
X125497Y397742D01*
X125340Y397687D01*
X125220Y397622D01*
X125127Y397576D01*
X125072Y397539D01*
X125053Y397520D01*
X124905Y397382D01*
X124767Y397224D01*
X124656Y397058D01*
X124563Y396892D01*
X124489Y396744D01*
X124461Y396670D01*
X124443Y396614D01*
X124424Y396568D01*
X124406Y396531D01*
X124397Y396512D01*
Y396503D01*
X123565Y396697D01*
X123620Y396864D01*
X123676Y397012D01*
X123750Y397150D01*
X123814Y397289D01*
X123888Y397409D01*
X123971Y397520D01*
X124045Y397631D01*
X124119Y397724D01*
X124193Y397798D01*
X124258Y397872D01*
X124323Y397936D01*
X124369Y397982D01*
X124415Y398029D01*
X124452Y398056D01*
X124471Y398066D01*
X124480Y398075D01*
X124609Y398158D01*
X124739Y398241D01*
X124868Y398306D01*
X125007Y398362D01*
X125284Y398445D01*
X125534Y398500D01*
X125654Y398528D01*
X125756Y398537D01*
X125857Y398546D01*
X125941Y398556D01*
X126005Y398565D01*
X126098D01*
X126403Y398546D01*
D02*
G37*
G36*
X102064Y398352D02*
X102221Y398343D01*
X102369Y398316D01*
X102507Y398288D01*
X102637Y398251D01*
X102757Y398214D01*
X102868Y398167D01*
X102970Y398121D01*
X103062Y398075D01*
X103136Y398029D01*
X103201Y397992D01*
X103256Y397955D01*
X103303Y397927D01*
X103330Y397899D01*
X103349Y397890D01*
X103358Y397881D01*
X103450Y397789D01*
X103534Y397687D01*
X103617Y397576D01*
X103682Y397465D01*
X103793Y397243D01*
X103867Y397021D01*
X103894Y396919D01*
X103922Y396818D01*
X103941Y396735D01*
X103959Y396660D01*
X103968Y396596D01*
Y396549D01*
X103977Y396522D01*
Y396513D01*
X103173Y396429D01*
X103155Y396642D01*
X103118Y396827D01*
X103062Y396993D01*
X102998Y397123D01*
X102942Y397234D01*
X102887Y397308D01*
X102850Y397354D01*
X102831Y397372D01*
X102692Y397483D01*
X102544Y397567D01*
X102387Y397631D01*
X102249Y397668D01*
X102119Y397696D01*
X102008Y397705D01*
X101971Y397715D01*
X101916D01*
X101722Y397705D01*
X101546Y397668D01*
X101398Y397613D01*
X101269Y397557D01*
X101167Y397493D01*
X101102Y397446D01*
X101056Y397409D01*
X101037Y397391D01*
X100927Y397262D01*
X100843Y397132D01*
X100779Y397003D01*
X100742Y396873D01*
X100714Y396771D01*
X100705Y396679D01*
X100695Y396623D01*
Y396614D01*
Y396605D01*
X100714Y396439D01*
X100751Y396263D01*
X100815Y396106D01*
X100880Y395958D01*
X100954Y395838D01*
X101019Y395736D01*
X101037Y395699D01*
X101056Y395671D01*
X101074Y395662D01*
Y395653D01*
X101148Y395551D01*
X101241Y395449D01*
X101342Y395338D01*
X101454Y395227D01*
X101685Y395005D01*
X101916Y394784D01*
X102036Y394682D01*
X102138Y394590D01*
X102239Y394506D01*
X102323Y394432D01*
X102387Y394377D01*
X102443Y394331D01*
X102480Y394303D01*
X102489Y394294D01*
X102720Y394100D01*
X102933Y393915D01*
X103109Y393748D01*
X103247Y393609D01*
X103367Y393489D01*
X103450Y393406D01*
X103497Y393351D01*
X103515Y393341D01*
Y393332D01*
X103645Y393175D01*
X103746Y393027D01*
X103839Y392879D01*
X103913Y392750D01*
X103968Y392639D01*
X104005Y392556D01*
X104024Y392500D01*
X104033Y392491D01*
Y392481D01*
X104070Y392380D01*
X104088Y392287D01*
X104107Y392195D01*
X104116Y392112D01*
X104125Y392038D01*
Y391982D01*
Y391945D01*
Y391936D01*
X99882D01*
Y392694D01*
X103034D01*
X102923Y392851D01*
X102868Y392916D01*
X102822Y392981D01*
X102776Y393036D01*
X102739Y393073D01*
X102711Y393101D01*
X102702Y393110D01*
X102655Y393156D01*
X102600Y393203D01*
X102471Y393323D01*
X102323Y393461D01*
X102165Y393600D01*
X102017Y393720D01*
X101953Y393776D01*
X101897Y393831D01*
X101851Y393868D01*
X101814Y393896D01*
X101796Y393915D01*
X101786Y393924D01*
X101638Y394053D01*
X101490Y394173D01*
X101361Y394294D01*
X101241Y394395D01*
X101130Y394497D01*
X101037Y394590D01*
X100945Y394673D01*
X100871Y394747D01*
X100797Y394821D01*
X100742Y394876D01*
X100695Y394922D01*
X100649Y394969D01*
X100603Y395024D01*
X100584Y395042D01*
X100455Y395200D01*
X100344Y395338D01*
X100252Y395477D01*
X100178Y395588D01*
X100122Y395690D01*
X100085Y395764D01*
X100067Y395810D01*
X100057Y395828D01*
X100002Y395967D01*
X99965Y396106D01*
X99928Y396235D01*
X99909Y396346D01*
X99900Y396448D01*
X99891Y396522D01*
Y396568D01*
Y396586D01*
X99900Y396725D01*
X99919Y396855D01*
X99937Y396984D01*
X99974Y397095D01*
X100067Y397317D01*
X100159Y397493D01*
X100215Y397576D01*
X100261Y397640D01*
X100307Y397705D01*
X100353Y397752D01*
X100390Y397789D01*
X100409Y397825D01*
X100427Y397835D01*
X100436Y397844D01*
X100538Y397936D01*
X100649Y398020D01*
X100769Y398084D01*
X100890Y398140D01*
X101130Y398232D01*
X101370Y398297D01*
X101472Y398316D01*
X101574Y398334D01*
X101666Y398343D01*
X101740Y398352D01*
X101805Y398362D01*
X101897D01*
X102064Y398352D01*
D02*
G37*
G36*
X107685Y398426D02*
X107981Y398380D01*
X108240Y398325D01*
X108360Y398288D01*
X108471Y398251D01*
X108573Y398214D01*
X108665Y398177D01*
X108739Y398149D01*
X108813Y398121D01*
X108859Y398094D01*
X108896Y398075D01*
X108924Y398066D01*
X108933Y398057D01*
X109183Y397899D01*
X109396Y397715D01*
X109580Y397530D01*
X109738Y397345D01*
X109858Y397178D01*
X109904Y397104D01*
X109941Y397040D01*
X109978Y396993D01*
X109996Y396956D01*
X110006Y396929D01*
X110015Y396919D01*
X110144Y396633D01*
X110237Y396337D01*
X110302Y396041D01*
X110348Y395773D01*
X110366Y395653D01*
X110375Y395532D01*
X110385Y395440D01*
Y395348D01*
X110394Y395283D01*
Y395227D01*
Y395190D01*
Y395181D01*
X110375Y394848D01*
X110338Y394525D01*
X110292Y394238D01*
X110255Y394100D01*
X110228Y393979D01*
X110200Y393868D01*
X110163Y393767D01*
X110135Y393674D01*
X110117Y393600D01*
X110089Y393545D01*
X110080Y393498D01*
X110061Y393471D01*
Y393461D01*
X109923Y393184D01*
X109765Y392934D01*
X109599Y392722D01*
X109516Y392639D01*
X109442Y392556D01*
X109368Y392481D01*
X109294Y392417D01*
X109229Y392361D01*
X109174Y392324D01*
X109137Y392287D01*
X109100Y392260D01*
X109081Y392250D01*
X109072Y392241D01*
X108942Y392167D01*
X108813Y392102D01*
X108536Y392001D01*
X108258Y391927D01*
X107990Y391880D01*
X107861Y391862D01*
X107750Y391843D01*
X107648Y391834D01*
X107565D01*
X107491Y391825D01*
X107389D01*
X107204Y391834D01*
X107029Y391853D01*
X106862Y391871D01*
X106705Y391908D01*
X106557Y391954D01*
X106418Y392001D01*
X106289Y392047D01*
X106169Y392102D01*
X106067Y392149D01*
X105965Y392195D01*
X105891Y392241D01*
X105817Y392287D01*
X105771Y392324D01*
X105725Y392343D01*
X105707Y392361D01*
X105697Y392370D01*
X105568Y392481D01*
X105457Y392592D01*
X105355Y392722D01*
X105253Y392851D01*
X105087Y393110D01*
X104958Y393369D01*
X104902Y393489D01*
X104856Y393600D01*
X104819Y393702D01*
X104791Y393785D01*
X104763Y393859D01*
X104745Y393915D01*
X104736Y393951D01*
Y393961D01*
X105586Y394173D01*
X105623Y394025D01*
X105669Y393887D01*
X105716Y393757D01*
X105762Y393637D01*
X105817Y393526D01*
X105873Y393434D01*
X105938Y393341D01*
X105993Y393258D01*
X106039Y393184D01*
X106095Y393129D01*
X106141Y393073D01*
X106178Y393027D01*
X106215Y392999D01*
X106243Y392971D01*
X106252Y392962D01*
X106261Y392953D01*
X106354Y392879D01*
X106455Y392824D01*
X106659Y392722D01*
X106853Y392648D01*
X107047Y392602D01*
X107213Y392565D01*
X107278Y392556D01*
X107343D01*
X107398Y392546D01*
X107463D01*
X107676Y392556D01*
X107879Y392592D01*
X108064Y392639D01*
X108230Y392694D01*
X108360Y392750D01*
X108415Y392777D01*
X108462Y392796D01*
X108499Y392814D01*
X108526Y392833D01*
X108545Y392842D01*
X108554D01*
X108730Y392971D01*
X108878Y393110D01*
X109007Y393267D01*
X109109Y393415D01*
X109192Y393545D01*
X109248Y393656D01*
X109266Y393702D01*
X109284Y393730D01*
X109294Y393748D01*
Y393757D01*
X109368Y393998D01*
X109423Y394238D01*
X109469Y394478D01*
X109497Y394700D01*
X109506Y394802D01*
X109516Y394895D01*
Y394978D01*
X109525Y395042D01*
Y395098D01*
Y395144D01*
Y395172D01*
Y395181D01*
X109516Y395422D01*
X109497Y395644D01*
X109460Y395847D01*
X109423Y396032D01*
X109396Y396189D01*
X109377Y396254D01*
X109359Y396309D01*
X109349Y396355D01*
X109340Y396383D01*
X109331Y396402D01*
Y396411D01*
X109238Y396623D01*
X109137Y396818D01*
X109026Y396975D01*
X108905Y397113D01*
X108804Y397225D01*
X108721Y397298D01*
X108656Y397345D01*
X108647Y397363D01*
X108637D01*
X108443Y397483D01*
X108230Y397576D01*
X108027Y397640D01*
X107833Y397677D01*
X107657Y397705D01*
X107583Y397715D01*
X107519D01*
X107472Y397724D01*
X107398D01*
X107167Y397715D01*
X106955Y397677D01*
X106779Y397622D01*
X106622Y397567D01*
X106502Y397502D01*
X106409Y397456D01*
X106354Y397419D01*
X106335Y397400D01*
X106187Y397262D01*
X106049Y397104D01*
X105938Y396938D01*
X105845Y396771D01*
X105771Y396623D01*
X105744Y396549D01*
X105725Y396494D01*
X105707Y396448D01*
X105688Y396411D01*
X105679Y396392D01*
Y396383D01*
X104847Y396577D01*
X104902Y396744D01*
X104958Y396892D01*
X105031Y397030D01*
X105096Y397169D01*
X105170Y397289D01*
X105253Y397400D01*
X105327Y397511D01*
X105401Y397603D01*
X105475Y397677D01*
X105540Y397752D01*
X105605Y397816D01*
X105651Y397862D01*
X105697Y397909D01*
X105734Y397936D01*
X105753Y397946D01*
X105762Y397955D01*
X105891Y398038D01*
X106021Y398121D01*
X106150Y398186D01*
X106289Y398242D01*
X106566Y398325D01*
X106816Y398380D01*
X106936Y398408D01*
X107038Y398417D01*
X107140Y398426D01*
X107223Y398436D01*
X107288Y398445D01*
X107380D01*
X107685Y398426D01*
D02*
G37*
G36*
X97200Y398343D02*
X97432Y398306D01*
X97626Y398242D01*
X97792Y398177D01*
X97931Y398103D01*
X97986Y398075D01*
X98033Y398038D01*
X98070Y398020D01*
X98097Y398001D01*
X98107Y397983D01*
X98116D01*
X98282Y397835D01*
X98421Y397659D01*
X98541Y397483D01*
X98634Y397317D01*
X98708Y397160D01*
X98744Y397095D01*
X98763Y397030D01*
X98781Y396984D01*
X98800Y396947D01*
X98809Y396929D01*
Y396919D01*
X98846Y396781D01*
X98883Y396642D01*
X98939Y396337D01*
X98985Y396032D01*
X99013Y395745D01*
X99022Y395606D01*
X99031Y395486D01*
Y395375D01*
X99040Y395274D01*
Y395200D01*
Y395135D01*
Y395098D01*
Y395089D01*
X99031Y394765D01*
X99013Y394460D01*
X98985Y394183D01*
X98939Y393924D01*
X98892Y393683D01*
X98837Y393471D01*
X98781Y393277D01*
X98726Y393110D01*
X98671Y392962D01*
X98606Y392833D01*
X98560Y392722D01*
X98513Y392639D01*
X98467Y392565D01*
X98439Y392519D01*
X98421Y392491D01*
X98412Y392481D01*
X98310Y392370D01*
X98199Y392269D01*
X98079Y392176D01*
X97959Y392102D01*
X97838Y392038D01*
X97718Y391982D01*
X97598Y391945D01*
X97487Y391908D01*
X97376Y391880D01*
X97275Y391862D01*
X97182Y391843D01*
X97108Y391834D01*
X97043Y391825D01*
X96951D01*
X96701Y391843D01*
X96470Y391880D01*
X96276Y391945D01*
X96110Y392010D01*
X95971Y392075D01*
X95925Y392112D01*
X95878Y392139D01*
X95841Y392158D01*
X95814Y392176D01*
X95804Y392195D01*
X95795D01*
X95629Y392352D01*
X95490Y392519D01*
X95370Y392703D01*
X95277Y392870D01*
X95204Y393027D01*
X95167Y393092D01*
X95148Y393156D01*
X95129Y393203D01*
X95111Y393240D01*
X95102Y393258D01*
Y393267D01*
X95056Y393406D01*
X95019Y393545D01*
X94963Y393841D01*
X94917Y394146D01*
X94889Y394442D01*
X94880Y394571D01*
X94871Y394691D01*
Y394802D01*
X94861Y394904D01*
Y394978D01*
Y395042D01*
Y395079D01*
Y395089D01*
Y395264D01*
X94871Y395431D01*
Y395579D01*
X94880Y395727D01*
X94898Y395856D01*
X94908Y395986D01*
X94917Y396096D01*
X94935Y396198D01*
X94945Y396291D01*
X94963Y396374D01*
X94972Y396439D01*
X94982Y396494D01*
X94991Y396540D01*
X95000Y396568D01*
X95009Y396586D01*
Y396596D01*
X95065Y396799D01*
X95129Y396984D01*
X95204Y397141D01*
X95259Y397280D01*
X95324Y397400D01*
X95361Y397483D01*
X95398Y397530D01*
X95407Y397548D01*
X95509Y397687D01*
X95610Y397807D01*
X95721Y397909D01*
X95823Y398001D01*
X95915Y398066D01*
X95989Y398112D01*
X96036Y398140D01*
X96045Y398149D01*
X96054D01*
X96202Y398223D01*
X96359Y398269D01*
X96507Y398306D01*
X96646Y398334D01*
X96766Y398352D01*
X96868Y398362D01*
X96951D01*
X97200Y398343D01*
D02*
G37*
%LPC*%
G36*
X976962Y205301D02*
X976906D01*
X976712Y205282D01*
X976537Y205236D01*
X976389Y205180D01*
X976259Y205106D01*
X976158Y205032D01*
X976084Y204977D01*
X976037Y204931D01*
X976019Y204912D01*
X975899Y204755D01*
X975806Y204589D01*
X975742Y204413D01*
X975704Y204247D01*
X975677Y204099D01*
X975667Y204034D01*
Y203978D01*
X975658Y203932D01*
Y203895D01*
Y203877D01*
Y203867D01*
X975677Y203618D01*
X975714Y203405D01*
X975769Y203220D01*
X975834Y203063D01*
X975908Y202943D01*
X975963Y202850D01*
X976000Y202795D01*
X976019Y202786D01*
Y202776D01*
X976084Y202703D01*
X976158Y202647D01*
X976305Y202545D01*
X976453Y202481D01*
X976583Y202425D01*
X976703Y202397D01*
X976796Y202388D01*
X976832Y202379D01*
X976879D01*
X977008Y202388D01*
X977128Y202407D01*
X977239Y202444D01*
X977332Y202481D01*
X977415Y202508D01*
X977480Y202545D01*
X977517Y202564D01*
X977535Y202573D01*
X977646Y202656D01*
X977738Y202739D01*
X977822Y202841D01*
X977886Y202924D01*
X977942Y203008D01*
X977979Y203072D01*
X978007Y203118D01*
X978016Y203137D01*
X978071Y203276D01*
X978108Y203414D01*
X978145Y203544D01*
X978164Y203664D01*
X978173Y203766D01*
X978182Y203849D01*
Y203895D01*
Y203914D01*
X978164Y204135D01*
X978127Y204330D01*
X978062Y204505D01*
X977997Y204644D01*
X977933Y204764D01*
X977868Y204847D01*
X977831Y204894D01*
X977812Y204912D01*
X977664Y205042D01*
X977517Y205134D01*
X977359Y205208D01*
X977221Y205254D01*
X977091Y205282D01*
X976999Y205291D01*
X976962Y205301D01*
D02*
G37*
G36*
X989296Y207529D02*
X987280D01*
X987030Y207519D01*
X986818Y207482D01*
X986633Y207436D01*
X986494Y207381D01*
X986374Y207325D01*
X986300Y207279D01*
X986254Y207242D01*
X986235Y207233D01*
X986124Y207113D01*
X986041Y206992D01*
X985986Y206863D01*
X985939Y206752D01*
X985921Y206641D01*
X985912Y206558D01*
X985902Y206502D01*
Y206493D01*
Y206484D01*
X985912Y206373D01*
X985930Y206262D01*
X985958Y206170D01*
X985986Y206086D01*
X986023Y206012D01*
X986050Y205957D01*
X986069Y205920D01*
X986078Y205911D01*
X986143Y205818D01*
X986226Y205735D01*
X986309Y205670D01*
X986392Y205615D01*
X986466Y205578D01*
X986522Y205550D01*
X986559Y205532D01*
X986577Y205522D01*
X986707Y205485D01*
X986855Y205458D01*
X987003Y205439D01*
X987150Y205430D01*
X987280Y205421D01*
X987391Y205411D01*
X989296D01*
Y207529D01*
D02*
G37*
G36*
X989319Y177529D02*
X987303D01*
X987053Y177519D01*
X986841Y177482D01*
X986656Y177436D01*
X986517Y177381D01*
X986397Y177325D01*
X986323Y177279D01*
X986277Y177242D01*
X986258Y177233D01*
X986147Y177113D01*
X986064Y176992D01*
X986009Y176863D01*
X985963Y176752D01*
X985944Y176641D01*
X985935Y176558D01*
X985926Y176502D01*
Y176493D01*
Y176484D01*
X985935Y176373D01*
X985953Y176262D01*
X985981Y176170D01*
X986009Y176086D01*
X986046Y176012D01*
X986073Y175957D01*
X986092Y175920D01*
X986101Y175911D01*
X986166Y175818D01*
X986249Y175735D01*
X986332Y175670D01*
X986415Y175615D01*
X986489Y175578D01*
X986545Y175550D01*
X986582Y175532D01*
X986600Y175522D01*
X986730Y175485D01*
X986878Y175458D01*
X987026Y175439D01*
X987174Y175430D01*
X987303Y175421D01*
X987414Y175411D01*
X989319D01*
Y177529D01*
D02*
G37*
G36*
X219073Y397608D02*
X217058D01*
X216808Y397599D01*
X216596Y397562D01*
X216411Y397516D01*
X216272Y397460D01*
X216152Y397405D01*
X216078Y397358D01*
X216032Y397321D01*
X216013Y397312D01*
X215902Y397192D01*
X215819Y397072D01*
X215763Y396942D01*
X215717Y396831D01*
X215699Y396721D01*
X215690Y396637D01*
X215680Y396582D01*
Y396572D01*
Y396563D01*
X215690Y396452D01*
X215708Y396341D01*
X215736Y396249D01*
X215763Y396166D01*
X215800Y396092D01*
X215828Y396036D01*
X215847Y395999D01*
X215856Y395990D01*
X215921Y395898D01*
X216004Y395814D01*
X216087Y395750D01*
X216170Y395694D01*
X216244Y395657D01*
X216300Y395630D01*
X216337Y395611D01*
X216355Y395602D01*
X216485Y395565D01*
X216633Y395537D01*
X216780Y395518D01*
X216928Y395509D01*
X217058Y395500D01*
X217169Y395491D01*
X219073D01*
Y397608D01*
D02*
G37*
G36*
X206315Y397044D02*
Y394178D01*
X208330D01*
X206315Y397044D01*
D02*
G37*
G36*
X179115Y397676D02*
X177100D01*
X176850Y397667D01*
X176638Y397630D01*
X176453Y397584D01*
X176314Y397528D01*
X176194Y397473D01*
X176120Y397426D01*
X176074Y397389D01*
X176055Y397380D01*
X175944Y397260D01*
X175861Y397140D01*
X175805Y397010D01*
X175759Y396899D01*
X175741Y396788D01*
X175732Y396705D01*
X175722Y396650D01*
Y396641D01*
Y396631D01*
X175732Y396520D01*
X175750Y396409D01*
X175778Y396317D01*
X175805Y396234D01*
X175842Y396160D01*
X175870Y396104D01*
X175889Y396067D01*
X175898Y396058D01*
X175963Y395966D01*
X176046Y395882D01*
X176129Y395818D01*
X176212Y395762D01*
X176286Y395725D01*
X176342Y395698D01*
X176379Y395679D01*
X176397Y395670D01*
X176527Y395633D01*
X176675Y395605D01*
X176822Y395587D01*
X176970Y395577D01*
X177100Y395568D01*
X177211Y395559D01*
X179115D01*
Y397676D01*
D02*
G37*
G36*
X199047Y397434D02*
X197032D01*
X196782Y397425D01*
X196570Y397388D01*
X196385Y397342D01*
X196246Y397286D01*
X196126Y397231D01*
X196052Y397184D01*
X196006Y397147D01*
X195987Y397138D01*
X195876Y397018D01*
X195793Y396898D01*
X195737Y396768D01*
X195691Y396657D01*
X195673Y396547D01*
X195664Y396463D01*
X195654Y396408D01*
Y396399D01*
Y396389D01*
X195664Y396278D01*
X195682Y396167D01*
X195710Y396075D01*
X195737Y395992D01*
X195774Y395918D01*
X195802Y395862D01*
X195821Y395825D01*
X195830Y395816D01*
X195895Y395724D01*
X195978Y395640D01*
X196061Y395576D01*
X196144Y395520D01*
X196218Y395483D01*
X196274Y395456D01*
X196311Y395437D01*
X196329Y395428D01*
X196459Y395391D01*
X196607Y395363D01*
X196754Y395345D01*
X196902Y395335D01*
X197032Y395326D01*
X197143Y395317D01*
X199047D01*
Y397434D01*
D02*
G37*
G36*
X246933Y395460D02*
X246877D01*
X246683Y395441D01*
X246508Y395395D01*
X246360Y395340D01*
X246230Y395266D01*
X246129Y395192D01*
X246054Y395136D01*
X246008Y395090D01*
X245990Y395071D01*
X245870Y394914D01*
X245777Y394748D01*
X245713Y394572D01*
X245676Y394406D01*
X245648Y394258D01*
X245639Y394193D01*
Y394138D01*
X245629Y394091D01*
Y394054D01*
Y394036D01*
Y394027D01*
X245648Y393777D01*
X245685Y393564D01*
X245740Y393380D01*
X245805Y393222D01*
X245879Y393102D01*
X245934Y393010D01*
X245971Y392954D01*
X245990Y392945D01*
Y392936D01*
X246054Y392862D01*
X246129Y392806D01*
X246276Y392705D01*
X246424Y392640D01*
X246554Y392584D01*
X246674Y392557D01*
X246766Y392547D01*
X246803Y392538D01*
X246850D01*
X246979Y392547D01*
X247099Y392566D01*
X247210Y392603D01*
X247303Y392640D01*
X247386Y392668D01*
X247451Y392705D01*
X247488Y392723D01*
X247506Y392732D01*
X247617Y392816D01*
X247710Y392899D01*
X247793Y393000D01*
X247857Y393084D01*
X247913Y393167D01*
X247950Y393232D01*
X247978Y393278D01*
X247987Y393296D01*
X248042Y393435D01*
X248079Y393574D01*
X248116Y393703D01*
X248135Y393823D01*
X248144Y393925D01*
X248153Y394008D01*
Y394054D01*
Y394073D01*
X248135Y394295D01*
X248098Y394489D01*
X248033Y394665D01*
X247968Y394803D01*
X247904Y394924D01*
X247839Y395007D01*
X247802Y395053D01*
X247784Y395071D01*
X247635Y395201D01*
X247488Y395293D01*
X247330Y395367D01*
X247192Y395414D01*
X247062Y395441D01*
X246970Y395451D01*
X246933Y395460D01*
D02*
G37*
G36*
X97016Y397715D02*
X96960D01*
X96858Y397705D01*
X96757Y397696D01*
X96664Y397668D01*
X96581Y397631D01*
X96424Y397548D01*
X96285Y397456D01*
X96184Y397354D01*
X96100Y397271D01*
X96073Y397234D01*
X96054Y397206D01*
X96036Y397197D01*
Y397188D01*
X95971Y397076D01*
X95915Y396947D01*
X95860Y396799D01*
X95823Y396642D01*
X95786Y396476D01*
X95758Y396300D01*
X95712Y395949D01*
X95694Y395773D01*
X95684Y395616D01*
X95675Y395468D01*
Y395348D01*
X95666Y395237D01*
Y395154D01*
Y395107D01*
Y395098D01*
Y395089D01*
Y394802D01*
X95684Y394543D01*
X95703Y394312D01*
X95721Y394090D01*
X95749Y393905D01*
X95786Y393730D01*
X95823Y393582D01*
X95851Y393443D01*
X95888Y393332D01*
X95925Y393240D01*
X95952Y393156D01*
X95989Y393092D01*
X96008Y393046D01*
X96026Y393018D01*
X96045Y392999D01*
Y392990D01*
X96119Y392897D01*
X96193Y392824D01*
X96267Y392750D01*
X96341Y392694D01*
X96498Y392602D01*
X96636Y392537D01*
X96766Y392500D01*
X96858Y392481D01*
X96895Y392472D01*
X96951D01*
X97053Y392481D01*
X97145Y392491D01*
X97321Y392556D01*
X97478Y392639D01*
X97617Y392731D01*
X97718Y392824D01*
X97802Y392907D01*
X97848Y392971D01*
X97866Y392981D01*
Y392990D01*
X97931Y393101D01*
X97986Y393230D01*
X98042Y393378D01*
X98079Y393535D01*
X98116Y393702D01*
X98144Y393878D01*
X98190Y394238D01*
X98208Y394405D01*
X98217Y394562D01*
X98227Y394710D01*
Y394830D01*
X98236Y394941D01*
Y395024D01*
Y395070D01*
Y395089D01*
X98227Y395375D01*
X98217Y395634D01*
X98199Y395875D01*
X98171Y396096D01*
X98144Y396291D01*
X98107Y396466D01*
X98070Y396623D01*
X98033Y396762D01*
X97996Y396882D01*
X97968Y396984D01*
X97931Y397067D01*
X97903Y397141D01*
X97875Y397188D01*
X97857Y397225D01*
X97838Y397243D01*
Y397252D01*
X97774Y397335D01*
X97709Y397409D01*
X97635Y397465D01*
X97561Y397520D01*
X97413Y397603D01*
X97275Y397659D01*
X97154Y397687D01*
X97053Y397705D01*
X97016Y397715D01*
D02*
G37*
%LPD*%
D14*
X972000Y211000D02*
X973000D01*
X972000Y224000D02*
X973000D01*
X972000Y181000D02*
X973000D01*
X972000Y194000D02*
X973000D01*
X224000Y364500D02*
Y365500D01*
X211000Y364500D02*
Y365500D01*
X184000Y364500D02*
Y365500D01*
X171000Y364500D02*
Y365500D01*
X204000Y364500D02*
Y365500D01*
X191000Y364500D02*
Y365500D01*
M02*
