G04*
G04 #@! TF.GenerationSoftware,Altium Limited,Altium Designer,21.0.8 (223)*
G04*
G04 Layer_Color=128*
%FSLAX44Y44*%
%MOMM*%
G71*
G04*
G04 #@! TF.SameCoordinates,9BFC2460-0098-4CE8-B359-2686C5D326B4*
G04*
G04*
G04 #@! TF.FilePolarity,Positive*
G04*
G01*
G75*
%ADD16R,1.5000X1.2000*%
%ADD17R,1.2000X1.5000*%
%ADD23R,1.5000X1.4500*%
%ADD111R,0.4000X2.5000*%
D16*
X217500Y354500D02*
D03*
Y375500D02*
D03*
X177500Y354500D02*
D03*
Y375500D02*
D03*
X197500Y354500D02*
D03*
Y375500D02*
D03*
D17*
X962000Y217500D02*
D03*
X983000D02*
D03*
X962000Y187500D02*
D03*
X983000D02*
D03*
D23*
X237500Y374250D02*
D03*
Y355750D02*
D03*
X257500Y374250D02*
D03*
Y355750D02*
D03*
X87500D02*
D03*
Y374250D02*
D03*
X67500D02*
D03*
Y355750D02*
D03*
X127500Y374250D02*
D03*
Y355750D02*
D03*
X107500D02*
D03*
Y374250D02*
D03*
D111*
X259950Y294760D02*
D03*
X238950D02*
D03*
X196950D02*
D03*
X175950D02*
D03*
X217950D02*
D03*
X119950D02*
D03*
X140950D02*
D03*
X98950D02*
D03*
X252950D02*
D03*
X245950D02*
D03*
X231950D02*
D03*
X224950D02*
D03*
X203950D02*
D03*
X210950D02*
D03*
X189950D02*
D03*
X182950D02*
D03*
X161950D02*
D03*
X168950D02*
D03*
X154950D02*
D03*
X147950D02*
D03*
X126950D02*
D03*
X133950D02*
D03*
X112950D02*
D03*
X105950D02*
D03*
X91950D02*
D03*
X56950D02*
D03*
X84950D02*
D03*
X63950D02*
D03*
X70950D02*
D03*
X77950D02*
D03*
M02*
