%TF.GenerationSoftware,Altium Limited,Altium Designer,21.0.8 (223)*%
G04 Layer_Color=32768*
%FSLAX45Y45*%
%MOMM*%
%TF.SameCoordinates,ED3C5559-8931-45A1-834E-F7BCE4D23214*%
%TF.FilePolarity,Positive*%
%TF.FileFunction,Other,Mechanical_15*%
%TF.Part,Single*%
G01*
G75*
%TA.AperFunction,NonConductor*%
%ADD114C,0.10000*%
%ADD116C,0.05000*%
D114*
X7875000Y500000D02*
Y600000D01*
X7825000Y550000D02*
X7925000D01*
X9450000Y1125000D02*
X9550000D01*
X9500000Y1075000D02*
Y1175000D01*
X9275000Y1300000D02*
X9375000D01*
X9325000Y1250000D02*
Y1350000D01*
X7575000Y1050000D02*
Y1150000D01*
X7525000Y1100000D02*
X7625000D01*
X7175000Y1050000D02*
Y1150000D01*
X7125000Y1100000D02*
X7225000D01*
X6675000Y1050000D02*
Y1150000D01*
X6625000Y1100000D02*
X6725000D01*
X7525000Y450000D02*
Y550000D01*
X7475000Y500000D02*
X7575000D01*
X7175000Y750000D02*
X7275000D01*
X7225000Y700000D02*
Y800000D01*
X6825000Y750000D02*
X6925000D01*
X6875000Y700000D02*
Y800000D01*
X5950000Y750000D02*
X6050000D01*
X6000000Y700000D02*
Y800000D01*
X6150000Y750000D02*
X6250000D01*
X6200000Y700000D02*
Y800000D01*
X6475000Y750000D02*
X6575000D01*
X6525000Y700000D02*
Y800000D01*
X5415000Y3472500D02*
Y3572500D01*
X5365000Y3522500D02*
X5465000D01*
X5865000Y3472500D02*
Y3572500D01*
X5815001Y3522500D02*
X5915001D01*
X6315001Y3472500D02*
Y3572500D01*
X6265001Y3522500D02*
X6365001D01*
X6765000Y3472500D02*
Y3572500D01*
X6715001Y3522500D02*
X6815001D01*
X7215001Y3472500D02*
Y3572500D01*
X7165001Y3522500D02*
X7265001D01*
X7665000Y3472500D02*
Y3572500D01*
X7615001Y3522500D02*
X7715001D01*
X8115001Y3472500D02*
Y3572500D01*
X8065001Y3522500D02*
X8165001D01*
X8750000Y2300000D02*
Y2400000D01*
X8700000Y2350000D02*
X8800000D01*
X8730000Y508800D02*
Y608800D01*
X8680000Y558800D02*
X8780000D01*
X7775000Y1675000D02*
X7875000D01*
X7825000Y1625000D02*
Y1725000D01*
X7775000Y2075000D02*
X7875000D01*
X7825000Y2025000D02*
Y2125000D01*
X7550000Y2650000D02*
Y2750000D01*
X7500000Y2700000D02*
X7600000D01*
X7175000Y2650000D02*
Y2750000D01*
X7125000Y2700000D02*
X7225000D01*
X6700000Y2650000D02*
Y2750000D01*
X6650000Y2700000D02*
X6750000D01*
X6300000Y2650000D02*
Y2750000D01*
X6250000Y2700000D02*
X6350000D01*
X6175000Y2350000D02*
Y2450000D01*
X6125000Y2400000D02*
X6225000D01*
X5875000Y2100000D02*
X5975000D01*
X5925000Y2050000D02*
Y2150000D01*
X5825000Y1675000D02*
X5925000D01*
X5875000Y1625000D02*
Y1725000D01*
X5975000Y1325000D02*
Y1425000D01*
X5925000Y1375000D02*
X6025000D01*
X5300000Y1700000D02*
X5400000D01*
X5350000Y1650000D02*
Y1750000D01*
X4900000Y1700000D02*
X5000000D01*
X4950000Y1650000D02*
Y1750000D01*
X4150000Y625000D02*
Y725000D01*
X4100000Y675000D02*
X4200000D01*
X3000000Y900000D02*
X3100000D01*
X3050000Y850000D02*
Y950000D01*
X2775000Y900000D02*
X2875000D01*
X2825000Y850000D02*
Y950000D01*
X1270000Y508800D02*
Y608800D01*
X1220000Y558800D02*
X1320000D01*
X2375000Y400000D02*
Y500000D01*
X2325000Y450000D02*
X2425000D01*
X8700000Y2075000D02*
X8800000D01*
X8750000Y2025000D02*
Y2125000D01*
X2375000Y1075000D02*
Y1175000D01*
X2325000Y1125000D02*
X2425000D01*
X3975000Y1550000D02*
Y1650000D01*
X3925000Y1600000D02*
X4025000D01*
X4150000Y1000000D02*
Y1100000D01*
X4100000Y1050000D02*
X4200000D01*
X5265000Y3172500D02*
Y3272500D01*
X5215000Y3222500D02*
X5315001D01*
X5865000Y3172500D02*
Y3272500D01*
X5815000Y3222500D02*
X5915000D01*
X6165000Y3172500D02*
Y3272500D01*
X6115000Y3222500D02*
X6215001D01*
X7065000Y3172500D02*
Y3272500D01*
X7015000Y3222500D02*
X7115001D01*
X6765000Y3172500D02*
Y3272500D01*
X6715000Y3222500D02*
X6815000D01*
X7965000Y3172500D02*
Y3272500D01*
X7915000Y3222500D02*
X8015000D01*
X7665000Y3172500D02*
Y3272500D01*
X7615000Y3222500D02*
X7715000D01*
X7000000Y1875000D02*
X7100000D01*
X7050000Y1825000D02*
Y1925000D01*
X5100000Y2375000D02*
X5200000D01*
X5150000Y2325000D02*
Y2425000D01*
X4275000Y2050000D02*
X4375000D01*
X4325000Y2000000D02*
Y2100000D01*
X4275000Y1850000D02*
X4375000D01*
X4325000Y1800000D02*
Y1900000D01*
X4275000Y1625000D02*
X4375000D01*
X4325000Y1575000D02*
Y1675000D01*
X3562500Y1580000D02*
X3662500D01*
X3612500Y1530000D02*
Y1630000D01*
X2325000Y800000D02*
X2425000D01*
X2375000Y750000D02*
Y850000D01*
X9675000Y2175000D02*
X9775000D01*
X9725000Y2125000D02*
Y2225000D01*
X9675000Y1875000D02*
X9775000D01*
X9725000Y1825000D02*
Y1925000D01*
X2175000Y3600000D02*
Y3700000D01*
X2125000Y3650000D02*
X2225000D01*
X1775000Y3600000D02*
Y3700000D01*
X1725000Y3650000D02*
X1825000D01*
X1975000Y3600000D02*
Y3700000D01*
X1925000Y3650000D02*
X2025000D01*
X6275000Y1625000D02*
Y1725000D01*
X6225000Y1675000D02*
X6325000D01*
X6075000Y1625000D02*
Y1725000D01*
X6025000Y1675000D02*
X6125000D01*
X9075000Y3100000D02*
X9175000D01*
X9125000Y3050000D02*
Y3150000D01*
X9075000Y3275000D02*
X9175000D01*
X9125000Y3225000D02*
Y3325000D01*
X9075000Y3450000D02*
X9175000D01*
X9125000Y3400000D02*
Y3500000D01*
X9075000Y3625000D02*
X9175000D01*
X9125000Y3575000D02*
Y3675000D01*
X5300000Y2075000D02*
X5400000D01*
X5350000Y2025000D02*
Y2125000D01*
X4900000Y2075000D02*
X5000000D01*
X4950000Y2025000D02*
Y2125000D01*
X2325000Y1450000D02*
X2425000D01*
X2375000Y1400000D02*
Y1500000D01*
X3575000Y1875000D02*
X3675000D01*
X3625000Y1825000D02*
Y1925000D01*
X3500000Y1175000D02*
Y1275000D01*
X3450000Y1225000D02*
X3550000D01*
X3725000Y1175000D02*
Y1275000D01*
X3675000Y1225000D02*
X3775000D01*
X4275000Y1425000D02*
X4375000D01*
X4325000Y1375000D02*
Y1475000D01*
X5450000Y1075000D02*
Y1175000D01*
X5400000Y1125000D02*
X5500000D01*
X5175000Y1075000D02*
Y1175000D01*
X5125000Y1125000D02*
X5225000D01*
X4900000Y1075000D02*
Y1175000D01*
X4850000Y1125000D02*
X4950000D01*
X2325000Y150000D02*
X2425000D01*
X2375000Y100000D02*
Y200000D01*
Y3600000D02*
Y3700000D01*
X2325000Y3650000D02*
X2425000D01*
X2575000Y3600000D02*
Y3700000D01*
X2525000Y3650000D02*
X2625000D01*
X8700000Y1800000D02*
X8800000D01*
X8750000Y1750000D02*
Y1850000D01*
X875000Y3600000D02*
Y3700000D01*
X825000Y3650000D02*
X925000D01*
X675000Y3600000D02*
Y3700000D01*
X625000Y3650000D02*
X725000D01*
X1275000Y3600000D02*
Y3700000D01*
X1225000Y3650000D02*
X1325000D01*
X1075000Y3600000D02*
Y3700000D01*
X1025000Y3650000D02*
X1125000D01*
X8265000Y3172500D02*
Y3272500D01*
X8215000Y3222500D02*
X8315000D01*
X7365000Y3172500D02*
Y3272500D01*
X7315000Y3222500D02*
X7415000D01*
X6465000Y3172500D02*
Y3272500D01*
X6415000Y3222500D02*
X6515000D01*
X5565000Y3172500D02*
Y3272500D01*
X5515000Y3222500D02*
X5615000D01*
D116*
X7750000Y765000D02*
X8000000D01*
X7750000Y335000D02*
X8000000D01*
Y765000D01*
X7750000Y335000D02*
Y765000D01*
X9715000Y1000000D02*
Y1250000D01*
X9285000Y1000000D02*
Y1250000D01*
Y1000000D02*
X9715000D01*
X9285000Y1250000D02*
X9715000D01*
X9172000Y1377500D02*
X9478000D01*
X9172000Y1222500D02*
Y1377500D01*
Y1222500D02*
X9478000D01*
Y1377500D01*
X7360000Y1225000D02*
X7790000D01*
X7360000Y975000D02*
X7790000D01*
X7360000D02*
Y1225000D01*
X7790000Y975000D02*
Y1225000D01*
X6960000D02*
X7390000D01*
X6960000Y975000D02*
X7390000D01*
X6960000D02*
Y1225000D01*
X7390000Y975000D02*
Y1225000D01*
X6460000Y975000D02*
X6890000D01*
X6460000Y1225000D02*
X6890000D01*
Y975000D02*
Y1225000D01*
X6460000Y975000D02*
Y1225000D01*
X7310000Y625000D02*
X7740000D01*
X7310000Y375000D02*
X7740000D01*
X7310000D02*
Y625000D01*
X7740000Y375000D02*
Y625000D01*
X7350000Y535000D02*
Y965000D01*
X7100000Y535000D02*
Y965000D01*
X7350000D01*
X7100000Y535000D02*
X7350000D01*
X6750000Y535000D02*
Y965000D01*
X7000000Y535000D02*
Y965000D01*
X6750000Y535000D02*
X7000000D01*
X6750000Y965000D02*
X7000000D01*
X6125000Y535000D02*
Y965000D01*
X5875000Y535000D02*
Y965000D01*
X6125000D01*
X5875000Y535000D02*
X6125000D01*
X6075000D02*
Y965000D01*
X6325000Y535000D02*
Y965000D01*
X6075000Y535000D02*
X6325000D01*
X6075000Y965000D02*
X6325000D01*
X6270000Y545000D02*
Y955000D01*
X6780000Y545000D02*
Y955000D01*
X6270000D02*
X6780000D01*
X6270000Y545000D02*
X6780000D01*
X5200000Y3647500D02*
X5630000D01*
X5200000Y3397500D02*
X5630000D01*
X5200000D02*
Y3647500D01*
X5630000Y3397500D02*
Y3647500D01*
X5650001Y3397500D02*
X6080001D01*
X5650001Y3647500D02*
X6080001D01*
Y3397500D02*
Y3647500D01*
X5650001Y3397500D02*
Y3647500D01*
X6100000D02*
X6530001D01*
X6100000Y3397500D02*
X6530001D01*
X6100000D02*
Y3647500D01*
X6530001Y3397500D02*
Y3647500D01*
X6550001Y3397500D02*
X6980001D01*
X6550001Y3647500D02*
X6980001D01*
Y3397500D02*
Y3647500D01*
X6550001Y3397500D02*
Y3647500D01*
X7000000D02*
X7430001D01*
X7000000Y3397500D02*
X7430001D01*
X7000000D02*
Y3647500D01*
X7430001Y3397500D02*
Y3647500D01*
X7450001Y3397500D02*
X7880000D01*
X7450001Y3647500D02*
X7880000D01*
Y3397500D02*
Y3647500D01*
X7450001Y3397500D02*
Y3647500D01*
X7900000D02*
X8330001D01*
X7900000Y3397500D02*
X8330001D01*
X7900000D02*
Y3647500D01*
X8330001Y3397500D02*
Y3647500D01*
X9402500Y3715590D02*
X9797500D01*
X9402500Y3010591D02*
Y3715590D01*
Y3010591D02*
X9797500D01*
Y3715590D01*
X9600000Y3313091D02*
Y3413090D01*
X9550000Y3363091D02*
X9650000D01*
X8836000Y4054500D02*
X9414000D01*
Y3745500D02*
Y4054500D01*
X8836000Y3745500D02*
X9414000D01*
X8836000D02*
Y4054500D01*
X9125000Y3850000D02*
Y3950000D01*
X9075000Y3900000D02*
X9175000D01*
X8535000Y2225000D02*
X8965000D01*
X8535000Y2475000D02*
X8965000D01*
Y2225000D02*
Y2475000D01*
X8535000Y2225000D02*
Y2475000D01*
X8155012Y143794D02*
Y973794D01*
Y143794D02*
X9247992D01*
X8155012Y973794D02*
X9247992D01*
Y143794D02*
Y973798D01*
X8379500Y1236000D02*
Y1814000D01*
X8070500Y1236000D02*
X8379500D01*
X8070500D02*
Y1814000D01*
X8379500D01*
X8175000Y1525000D02*
X8275000D01*
X8225000Y1475000D02*
Y1575000D01*
X7700000Y1460000D02*
Y1890000D01*
X7950000Y1460000D02*
Y1890000D01*
X7700000Y1460000D02*
X7950000D01*
X7700000Y1890000D02*
X7950000D01*
Y1860000D02*
Y2290000D01*
X7700000Y1860000D02*
Y2290000D01*
X7950000D01*
X7700000Y1860000D02*
X7950000D01*
X7335000Y2575000D02*
X7765000D01*
X7335000Y2825000D02*
X7765000D01*
Y2575000D02*
Y2825000D01*
X7335000Y2575000D02*
Y2825000D01*
X6960000D02*
X7390000D01*
X6960000Y2575000D02*
X7390000D01*
X6960000D02*
Y2825000D01*
X7390000Y2575000D02*
Y2825000D01*
X6485000D02*
X6915000D01*
X6485000Y2575000D02*
X6915000D01*
X6485000D02*
Y2825000D01*
X6915000Y2575000D02*
Y2825000D01*
X6085000Y2575000D02*
X6515000D01*
X6085000Y2825000D02*
X6515000D01*
Y2575000D02*
Y2825000D01*
X6085000Y2575000D02*
Y2825000D01*
X5960000Y2525000D02*
X6390000D01*
X5960000Y2275000D02*
X6390000D01*
X5960000D02*
Y2525000D01*
X6390000Y2275000D02*
Y2525000D01*
X5800000Y1885000D02*
Y2315000D01*
X6050000Y1885000D02*
Y2315000D01*
X5800000Y1885000D02*
X6050000D01*
X5800000Y2315000D02*
X6050000D01*
X5750000Y1460000D02*
Y1890000D01*
X6000000Y1460000D02*
Y1890000D01*
X5750000Y1460000D02*
X6000000D01*
X5750000Y1890000D02*
X6000000D01*
X5760000Y1250000D02*
X6190000D01*
X5760000Y1500000D02*
X6190000D01*
Y1250000D02*
Y1500000D01*
X5760000Y1250000D02*
Y1500000D01*
X5225000Y1485000D02*
Y1915000D01*
X5475000Y1485000D02*
Y1915000D01*
X5225000Y1485000D02*
X5475000D01*
X5225000Y1915000D02*
X5475000D01*
X4825000Y1485000D02*
Y1915000D01*
X5075000Y1485000D02*
Y1915000D01*
X4825000Y1485000D02*
X5075000D01*
X4825000Y1915000D02*
X5075000D01*
X3935000Y800000D02*
X4365000D01*
X3935000Y550000D02*
X4365000D01*
X3935000D02*
Y800000D01*
X4365000Y550000D02*
Y800000D01*
X2925000Y685000D02*
Y1115000D01*
X3175000Y685000D02*
Y1115000D01*
X2925000Y685000D02*
X3175000D01*
X2925000Y1115000D02*
X3175000D01*
X2700000Y685000D02*
Y1115000D01*
X2950000Y685000D02*
Y1115000D01*
X2700000Y685000D02*
X2950000D01*
X2700000Y1115000D02*
X2950000D01*
X695012Y143794D02*
Y973794D01*
Y143794D02*
X1787992D01*
X695012Y973794D02*
X1787992D01*
Y143794D02*
Y973798D01*
X2182500Y625000D02*
X2567500D01*
X2182500Y275000D02*
X2567500D01*
X2182500D02*
Y625000D01*
X2567500Y275000D02*
Y625000D01*
X9062500Y1900000D02*
Y2250000D01*
X8437500Y1900000D02*
Y2250000D01*
Y1900000D02*
X9062500D01*
X8437500Y2250000D02*
X9062500D01*
X2120000Y920000D02*
X2630000D01*
X2120000Y1330000D02*
X2630000D01*
Y920000D02*
Y1330000D01*
X2120000Y920000D02*
Y1330000D01*
X3855000Y1737500D02*
X4095000D01*
X3855000Y1462500D02*
X4095000D01*
Y1737500D01*
X3855000Y1462500D02*
Y1737500D01*
X3815000Y1310000D02*
X4485000D01*
X3815000Y790000D02*
X4485000D01*
X3815000D02*
Y1310000D01*
X4485000Y790000D02*
Y1310000D01*
X5100000Y3397500D02*
X5430001D01*
X5100000Y3047500D02*
X5430001D01*
Y3397500D01*
X5100000Y3047500D02*
Y3397500D01*
X5705000Y3447500D02*
X6025000D01*
X5705000Y2997500D02*
X6025000D01*
Y3447500D01*
X5705000Y2997500D02*
Y3447500D01*
X6000000Y3397500D02*
X6330001D01*
X6000000Y3047500D02*
X6330001D01*
Y3397500D01*
X6000000Y3047500D02*
Y3397500D01*
X6900000D02*
X7230001D01*
X6900000Y3047500D02*
X7230001D01*
Y3397500D01*
X6900000Y3047500D02*
Y3397500D01*
X6605000Y2997500D02*
X6925000D01*
X6605000Y3447500D02*
X6925000D01*
X6605000Y2997500D02*
Y3447500D01*
X6925000Y2997500D02*
Y3447500D01*
X7800000Y3397500D02*
X8130001D01*
X7800000Y3047500D02*
X8130001D01*
Y3397500D01*
X7800000Y3047500D02*
Y3397500D01*
X7505000Y2997500D02*
X7825000D01*
X7505000Y3447500D02*
X7825000D01*
X7505000Y2997500D02*
Y3447500D01*
X7825000Y2997500D02*
Y3447500D01*
X6380000Y1205000D02*
Y2545000D01*
X7720000Y1205000D02*
Y2545000D01*
X6380000D02*
X7720000D01*
X6380000Y1205000D02*
X7720000D01*
X5365000Y2250000D02*
Y2500000D01*
X4935000Y2250000D02*
Y2500000D01*
Y2250000D02*
X5365000D01*
X4935000Y2500000D02*
X5365000D01*
X4110000Y1925000D02*
Y2175000D01*
X4540000Y1925000D02*
Y2175000D01*
X4110000D02*
X4540000D01*
X4110000Y1925000D02*
X4540000D01*
X4110000Y1725000D02*
Y1975000D01*
X4540000Y1725000D02*
Y1975000D01*
X4110000D02*
X4540000D01*
X4110000Y1725000D02*
X4540000D01*
X4540000Y1500000D02*
Y1750000D01*
X4110000Y1500000D02*
Y1750000D01*
Y1500000D02*
X4540000D01*
X4110000Y1750000D02*
X4540000D01*
X3827500Y1455000D02*
Y1705000D01*
X3397500Y1455000D02*
Y1705000D01*
Y1455000D02*
X3827500D01*
X3397500Y1705000D02*
X3827500D01*
X2105000Y655000D02*
Y945000D01*
X2645000Y655000D02*
Y945000D01*
X2105000D02*
X2645000D01*
X2105000Y655000D02*
X2645000D01*
X9510000Y2050000D02*
Y2300000D01*
X9940000Y2050000D02*
Y2300000D01*
X9510000Y2050000D02*
X9940000D01*
X9510000Y2300000D02*
X9940000D01*
X9510000Y1750000D02*
Y2000000D01*
X9940000Y1750000D02*
Y2000000D01*
X9510000Y1750000D02*
X9940000D01*
X9510000Y2000000D02*
X9940000D01*
X2050000Y3435000D02*
X2300000D01*
X2050000Y3865000D02*
X2300000D01*
Y3435000D02*
Y3865000D01*
X2050000Y3435000D02*
Y3865000D01*
X1650000Y3435000D02*
X1900000D01*
X1650000Y3865000D02*
X1900000D01*
Y3435000D02*
Y3865000D01*
X1650000Y3435000D02*
Y3865000D01*
X1850000Y3435000D02*
X2100000D01*
X1850000Y3865000D02*
X2100000D01*
Y3435000D02*
Y3865000D01*
X1850000Y3435000D02*
Y3865000D01*
X6150000Y1890000D02*
X6400000D01*
X6150000Y1460000D02*
X6400000D01*
Y1890000D01*
X6150000Y1460000D02*
Y1890000D01*
X5950000D02*
X6200000D01*
X5950000Y1460000D02*
X6200000D01*
Y1890000D01*
X5950000Y1460000D02*
Y1890000D01*
X9340000Y2975000D02*
Y3225000D01*
X8910000Y2975000D02*
Y3225000D01*
Y2975000D02*
X9340000D01*
X8910000Y3225000D02*
X9340000D01*
Y3150000D02*
Y3400000D01*
X8910000Y3150000D02*
Y3400000D01*
Y3150000D02*
X9340000D01*
X8910000Y3400000D02*
X9340000D01*
Y3325000D02*
Y3575000D01*
X8910000Y3325000D02*
Y3575000D01*
Y3325000D02*
X9340000D01*
X8910000Y3575000D02*
X9340000D01*
Y3500000D02*
Y3750000D01*
X8910000Y3500000D02*
Y3750000D01*
Y3500000D02*
X9340000D01*
X8910000Y3750000D02*
X9340000D01*
X5194000Y2265000D02*
X5506000D01*
X5194000Y1885000D02*
X5506000D01*
X5194000D02*
Y2265000D01*
X5506000Y1885000D02*
Y2265000D01*
X4794000D02*
X5106000D01*
X4794000Y1885000D02*
X5106000D01*
X4794000D02*
Y2265000D01*
X5106000Y1885000D02*
Y2265000D01*
X8697760Y1526540D02*
X8797760D01*
X8747760Y1476540D02*
Y1576540D01*
X8945260Y1364540D02*
Y1688540D01*
X8550260Y1364540D02*
X8945260D01*
X8550260D02*
Y1688540D01*
X8945260D01*
X2590000Y1325000D02*
Y1575000D01*
X2160000Y1325000D02*
Y1575000D01*
Y1325000D02*
X2590000D01*
X2160000Y1575000D02*
X2590000D01*
X3840000Y1750000D02*
Y2000000D01*
X3410000Y1750000D02*
Y2000000D01*
Y1750000D02*
X3840000D01*
X3410000Y2000000D02*
X3840000D01*
X3375000Y1010000D02*
X3625000D01*
X3375000Y1440000D02*
X3625000D01*
X3375000Y1010000D02*
Y1440000D01*
X3625000Y1010000D02*
Y1440000D01*
X3600000Y1010000D02*
X3850000D01*
X3600000Y1440000D02*
X3850000D01*
X3600000Y1010000D02*
Y1440000D01*
X3850000Y1010000D02*
Y1440000D01*
X4540000Y1300000D02*
Y1550000D01*
X4110000Y1300000D02*
Y1550000D01*
Y1300000D02*
X4540000D01*
X4110000Y1550000D02*
X4540000D01*
X5325000Y910000D02*
X5575000D01*
X5325000Y1340000D02*
X5575000D01*
X5325000Y910000D02*
Y1340000D01*
X5575000Y910000D02*
Y1340000D01*
X5050000Y910000D02*
X5300000D01*
X5050000Y1340000D02*
X5300000D01*
X5050000Y910000D02*
Y1340000D01*
X5300000Y910000D02*
Y1340000D01*
X4775000Y910000D02*
X5025000D01*
X4775000Y1340000D02*
X5025000D01*
X4775000Y910000D02*
Y1340000D01*
X5025000Y910000D02*
Y1340000D01*
X2160000Y25000D02*
Y275000D01*
X2590000Y25000D02*
Y275000D01*
X2160000D02*
X2590000D01*
X2160000Y25000D02*
X2590000D01*
X2250000Y3865000D02*
X2500000D01*
X2250000Y3435000D02*
X2500000D01*
X2250000D02*
Y3865000D01*
X2500000Y3435000D02*
Y3865000D01*
X2450000D02*
X2700000D01*
X2450000Y3435000D02*
X2700000D01*
X2450000D02*
Y3865000D01*
X2700000Y3435000D02*
Y3865000D01*
X8535000Y1675000D02*
Y1925000D01*
X8965000Y1675000D02*
Y1925000D01*
X8535000D02*
X8965000D01*
X8535000Y1675000D02*
X8965000D01*
X750000Y3435000D02*
X1000000D01*
X750000Y3865000D02*
X1000000D01*
Y3435000D02*
Y3865000D01*
X750000Y3435000D02*
Y3865000D01*
X550000Y3865000D02*
X800000D01*
X550000Y3435000D02*
X800000D01*
X550000D02*
Y3865000D01*
X800000Y3435000D02*
Y3865000D01*
X1150000D02*
X1400000D01*
X1150000Y3435000D02*
X1400000D01*
X1150000D02*
Y3865000D01*
X1400000Y3435000D02*
Y3865000D01*
X950000Y3435000D02*
X1200000D01*
X950000Y3865000D02*
X1200000D01*
Y3435000D02*
Y3865000D01*
X950000Y3435000D02*
Y3865000D01*
X8140000Y3437500D02*
X8390000D01*
X8140000Y3007500D02*
X8390000D01*
Y3437500D01*
X8140000Y3007500D02*
Y3437500D01*
X7240000D02*
X7490000D01*
X7240000Y3007500D02*
X7490000D01*
Y3437500D01*
X7240000Y3007500D02*
Y3437500D01*
X6340000D02*
X6590000D01*
X6340000Y3007500D02*
X6590000D01*
Y3437500D01*
X6340000Y3007500D02*
Y3437500D01*
X5440000D02*
X5690000D01*
X5440000Y3007500D02*
X5690000D01*
Y3437500D01*
X5440000Y3007500D02*
Y3437500D01*
%TF.MD5,75fa7bd3400ffe5b9a405ed11611267a*%
M02*
