%TF.GenerationSoftware,Altium Limited,Altium Designer,21.0.8 (223)*%
G04 Layer_Color=255*
%FSLAX45Y45*%
%MOMM*%
%TF.SameCoordinates,ED3C5559-8931-45A1-834E-F7BCE4D23214*%
%TF.FilePolarity,Positive*%
%TF.FileFunction,Pads,Bot*%
%TF.Part,Single*%
G01*
G75*
%TA.AperFunction,SMDPad,CuDef*%
%ADD10R,1.50000X1.20000*%
%ADD11R,1.20000X1.50000*%
%ADD17R,1.50000X1.45000*%
%TA.AperFunction,ViaPad*%
%ADD40C,3.00000*%
%TA.AperFunction,ComponentPad*%
%ADD41C,1.05000*%
%ADD42C,1.60000*%
%ADD43R,1.60000X1.60000*%
%ADD44O,1.60000X1.00000*%
%ADD45O,2.10000X1.00000*%
%ADD46C,0.85000*%
%ADD47R,1.80000X1.80000*%
%ADD48C,1.80000*%
%ADD49R,1.60000X1.60000*%
%ADD50O,22.00000X0.50000*%
%TA.AperFunction,SMDPad,CuDef*%
%ADD73R,0.40000X2.50000*%
D10*
X2175000Y3545000D02*
D03*
Y3755000D02*
D03*
X1775000Y3545000D02*
D03*
Y3755000D02*
D03*
X1975000Y3545000D02*
D03*
Y3755000D02*
D03*
D11*
X9620000Y2175000D02*
D03*
X9830000D02*
D03*
X9620000Y1875000D02*
D03*
X9830000D02*
D03*
D17*
X2375000Y3742500D02*
D03*
Y3557500D02*
D03*
X2575000Y3742500D02*
D03*
Y3557500D02*
D03*
X875000D02*
D03*
Y3742500D02*
D03*
X675000D02*
D03*
Y3557500D02*
D03*
X1275000Y3742500D02*
D03*
Y3557500D02*
D03*
X1075000D02*
D03*
Y3742500D02*
D03*
D40*
X250000Y250000D02*
D03*
X9750000D02*
D03*
Y4750000D02*
D03*
X250000D02*
D03*
D41*
X9663500Y3109091D02*
D03*
Y3236091D02*
D03*
X9536500Y3109091D02*
D03*
Y3236091D02*
D03*
X9663500Y3363091D02*
D03*
Y3490091D02*
D03*
X9536500Y3363091D02*
D03*
Y3490091D02*
D03*
X9663500Y3617091D02*
D03*
X9536500D02*
D03*
X8684260Y1590040D02*
D03*
X8811260D02*
D03*
X8684260Y1463040D02*
D03*
X8811260D02*
D03*
D42*
X9252000Y3900000D02*
D03*
X8225000Y1398000D02*
D03*
D43*
X8998000Y3900000D02*
D03*
D44*
X9782000Y1568000D02*
D03*
Y2432000D02*
D03*
D45*
X9364000D02*
D03*
Y1568000D02*
D03*
D46*
X9417000Y2289000D02*
D03*
Y1711000D02*
D03*
D47*
X8476000Y558800D02*
D03*
X1016000D02*
D03*
D48*
X8984000D02*
D03*
X1524000D02*
D03*
D49*
X8225000Y1652000D02*
D03*
D50*
X1584500Y2197600D02*
D03*
D73*
X2599500Y2947600D02*
D03*
X2389500D02*
D03*
X1969500D02*
D03*
X1759500D02*
D03*
X2179500D02*
D03*
X1199500D02*
D03*
X1409500D02*
D03*
X989500D02*
D03*
X2529500D02*
D03*
X2459500D02*
D03*
X2319500D02*
D03*
X2249500D02*
D03*
X2039500D02*
D03*
X2109500D02*
D03*
X1899500D02*
D03*
X1829500D02*
D03*
X1619500D02*
D03*
X1689500D02*
D03*
X1549500D02*
D03*
X1479500D02*
D03*
X1269500D02*
D03*
X1339500D02*
D03*
X1129500D02*
D03*
X1059500D02*
D03*
X919500D02*
D03*
X569500D02*
D03*
X849500D02*
D03*
X639500D02*
D03*
X709500D02*
D03*
X779500D02*
D03*
%TF.MD5,f26c6fe97c24887ec39efd51a5a30b64*%
M02*
