%TF.GenerationSoftware,Altium Limited,Altium Designer,21.0.9 (235)*%
G04 Layer_Color=255*
%FSLAX45Y45*%
%MOMM*%
%TF.SameCoordinates,23D9C264-9E25-4532-ABEF-1D24AEF7D3CB*%
%TF.FilePolarity,Positive*%
%TF.FileFunction,Pads,Top*%
%TF.Part,Single*%
G01*
G75*
%TA.AperFunction,SMDPad,CuDef*%
G04:AMPARAMS|DCode=10|XSize=1.3mm|YSize=0.76mm|CornerRadius=0.095mm|HoleSize=0mm|Usage=FLASHONLY|Rotation=270.000|XOffset=0mm|YOffset=0mm|HoleType=Round|Shape=RoundedRectangle|*
%AMROUNDEDRECTD10*
21,1,1.30000,0.57000,0,0,270.0*
21,1,1.11000,0.76000,0,0,270.0*
1,1,0.19000,-0.28500,-0.55500*
1,1,0.19000,-0.28500,0.55500*
1,1,0.19000,0.28500,0.55500*
1,1,0.19000,0.28500,-0.55500*
%
%ADD10ROUNDEDRECTD10*%
%ADD11R,2.79000X0.74000*%
%ADD12R,1.05000X0.60000*%
%ADD13R,1.50000X1.45000*%
%ADD14R,1.20000X1.50000*%
%ADD15R,1.10000X1.80000*%
%ADD16R,1.50000X1.20000*%
%ADD17R,0.63000X0.83000*%
%ADD18R,2.15900X2.74300*%
%ADD19R,1.20000X1.10000*%
G04:AMPARAMS|DCode=20|XSize=1.3mm|YSize=0.76mm|CornerRadius=0.095mm|HoleSize=0mm|Usage=FLASHONLY|Rotation=180.000|XOffset=0mm|YOffset=0mm|HoleType=Round|Shape=RoundedRectangle|*
%AMROUNDEDRECTD20*
21,1,1.30000,0.57000,0,0,180.0*
21,1,1.11000,0.76000,0,0,180.0*
1,1,0.19000,-0.55500,0.28500*
1,1,0.19000,0.55500,0.28500*
1,1,0.19000,0.55500,-0.28500*
1,1,0.19000,-0.55500,-0.28500*
%
%ADD20ROUNDEDRECTD20*%
G04:AMPARAMS|DCode=21|XSize=0.55mm|YSize=0.8mm|CornerRadius=0.0495mm|HoleSize=0mm|Usage=FLASHONLY|Rotation=0.000|XOffset=0mm|YOffset=0mm|HoleType=Round|Shape=RoundedRectangle|*
%AMROUNDEDRECTD21*
21,1,0.55000,0.70100,0,0,0.0*
21,1,0.45100,0.80000,0,0,0.0*
1,1,0.09900,0.22550,-0.35050*
1,1,0.09900,-0.22550,-0.35050*
1,1,0.09900,-0.22550,0.35050*
1,1,0.09900,0.22550,0.35050*
%
%ADD21ROUNDEDRECTD21*%
G04:AMPARAMS|DCode=22|XSize=0.45mm|YSize=1.05mm|CornerRadius=0.0495mm|HoleSize=0mm|Usage=FLASHONLY|Rotation=180.000|XOffset=0mm|YOffset=0mm|HoleType=Round|Shape=RoundedRectangle|*
%AMROUNDEDRECTD22*
21,1,0.45000,0.95100,0,0,180.0*
21,1,0.35100,1.05000,0,0,180.0*
1,1,0.09900,-0.17550,0.47550*
1,1,0.09900,0.17550,0.47550*
1,1,0.09900,0.17550,-0.47550*
1,1,0.09900,-0.17550,-0.47550*
%
%ADD22ROUNDEDRECTD22*%
%ADD23R,1.45000X1.50000*%
%ADD24R,0.80000X0.90000*%
G04:AMPARAMS|DCode=25|XSize=1.15564mm|YSize=0.52981mm|CornerRadius=0.2649mm|HoleSize=0mm|Usage=FLASHONLY|Rotation=90.000|XOffset=0mm|YOffset=0mm|HoleType=Round|Shape=RoundedRectangle|*
%AMROUNDEDRECTD25*
21,1,1.15564,0.00000,0,0,90.0*
21,1,0.62584,0.52981,0,0,90.0*
1,1,0.52980,0.00000,0.31292*
1,1,0.52980,0.00000,-0.31292*
1,1,0.52980,0.00000,-0.31292*
1,1,0.52980,0.00000,0.31292*
%
%ADD25ROUNDEDRECTD25*%
%ADD26R,0.52981X1.15564*%
%ADD27R,1.00000X1.40000*%
%ADD28R,0.40000X0.65000*%
%ADD29R,1.00000X0.60000*%
%ADD30R,1.35000X1.85000*%
%ADD31O,0.30000X1.80000*%
%ADD32O,1.80000X0.30000*%
%TA.AperFunction,ConnectorPad*%
%ADD33R,1.45000X0.60000*%
%ADD34R,1.45000X0.30000*%
%TA.AperFunction,SMDPad,CuDef*%
G04:AMPARAMS|DCode=35|XSize=1.5mm|YSize=5mm|CornerRadius=0.375mm|HoleSize=0mm|Usage=FLASHONLY|Rotation=180.000|XOffset=0mm|YOffset=0mm|HoleType=Round|Shape=RoundedRectangle|*
%AMROUNDEDRECTD35*
21,1,1.50000,4.25000,0,0,180.0*
21,1,0.75000,5.00000,0,0,180.0*
1,1,0.75000,-0.37500,2.12500*
1,1,0.75000,0.37500,2.12500*
1,1,0.75000,0.37500,-2.12500*
1,1,0.75000,-0.37500,-2.12500*
%
%ADD35ROUNDEDRECTD35*%
%ADD36R,1.20000X1.40000*%
%ADD37O,1.40000X0.25000*%
G04:AMPARAMS|DCode=38|XSize=0.55mm|YSize=1.25mm|CornerRadius=0.0495mm|HoleSize=0mm|Usage=FLASHONLY|Rotation=270.000|XOffset=0mm|YOffset=0mm|HoleType=Round|Shape=RoundedRectangle|*
%AMROUNDEDRECTD38*
21,1,0.55000,1.15100,0,0,270.0*
21,1,0.45100,1.25000,0,0,270.0*
1,1,0.09900,-0.57550,-0.22550*
1,1,0.09900,-0.57550,0.22550*
1,1,0.09900,0.57550,0.22550*
1,1,0.09900,0.57550,-0.22550*
%
%ADD38ROUNDEDRECTD38*%
%TA.AperFunction,ComponentPad*%
%ADD46C,1.05000*%
%ADD47R,1.05000X1.05000*%
%ADD48R,1.80000X1.80000*%
%TA.AperFunction,ViaPad*%
%ADD49C,3.00000*%
%TA.AperFunction,ComponentPad*%
%ADD50O,1.60000X1.00000*%
%ADD51O,2.10000X1.00000*%
%ADD52C,0.85000*%
%ADD53C,1.80000*%
%ADD54O,22.00000X0.50000*%
D10*
X8140000Y1300000D02*
D03*
X7961000D02*
D03*
X7843420Y2755100D02*
D03*
X8022420D02*
D03*
D11*
X9346500Y3654000D02*
D03*
X9753500D02*
D03*
X9346500Y3781000D02*
D03*
X9753500D02*
D03*
X9346500Y3400000D02*
D03*
X9753500D02*
D03*
X9346500Y3527000D02*
D03*
X9753500D02*
D03*
X9346500Y3146000D02*
D03*
X9753500D02*
D03*
X9346500Y3273000D02*
D03*
X9753500D02*
D03*
X9346500Y3019000D02*
D03*
X9753500D02*
D03*
D12*
X2512500Y1220000D02*
D03*
Y1030000D02*
D03*
X2237500D02*
D03*
Y1125000D02*
D03*
Y1220000D02*
D03*
X6412500Y845000D02*
D03*
Y655000D02*
D03*
X6137500D02*
D03*
Y750000D02*
D03*
Y845000D02*
D03*
D13*
X6500000Y3057500D02*
D03*
Y3242500D02*
D03*
X7450000Y3057500D02*
D03*
Y3242500D02*
D03*
X8425000Y3082500D02*
D03*
Y3267500D02*
D03*
X3417339Y1131780D02*
D03*
Y1316780D02*
D03*
X5550000Y3267500D02*
D03*
Y3082500D02*
D03*
X7875000Y1792500D02*
D03*
Y1607500D02*
D03*
Y2057500D02*
D03*
Y2242500D02*
D03*
X5800000D02*
D03*
Y2057500D02*
D03*
X5675000Y1792500D02*
D03*
Y1607500D02*
D03*
X6950000Y842500D02*
D03*
Y657500D02*
D03*
X7225000D02*
D03*
Y842500D02*
D03*
X6675000D02*
D03*
Y657500D02*
D03*
X5450000Y1217500D02*
D03*
Y1032500D02*
D03*
X5175000Y1217500D02*
D03*
Y1032500D02*
D03*
X4900000Y1217500D02*
D03*
Y1032500D02*
D03*
X3675000Y1317500D02*
D03*
Y1132500D02*
D03*
X3050000Y992500D02*
D03*
Y807500D02*
D03*
X2825000Y992500D02*
D03*
Y807500D02*
D03*
D14*
X5320000Y3550000D02*
D03*
X5530000D02*
D03*
X9605000Y1125000D02*
D03*
X9395000D02*
D03*
X8230000Y3550000D02*
D03*
X8020000D02*
D03*
X7330000D02*
D03*
X7120000D02*
D03*
X6430000D02*
D03*
X6220000D02*
D03*
X6122280Y2755120D02*
D03*
X6332280D02*
D03*
X8745000Y2950000D02*
D03*
X8955000D02*
D03*
X8745000Y3225000D02*
D03*
X8955000D02*
D03*
X8745000Y3500000D02*
D03*
X8955000D02*
D03*
X8745000Y3775000D02*
D03*
X8955000D02*
D03*
X5245000Y2200000D02*
D03*
X5455000D02*
D03*
X4430000Y2300000D02*
D03*
X4220000D02*
D03*
X4430000Y2025000D02*
D03*
X4220000D02*
D03*
Y1750000D02*
D03*
X4430000D02*
D03*
X3520000Y1575000D02*
D03*
X3730000D02*
D03*
D15*
X5109501Y4620099D02*
D03*
X5589500D02*
D03*
X5109500Y3820100D02*
D03*
X5589500Y3820101D02*
D03*
X6909501Y4620099D02*
D03*
X7389500D02*
D03*
X6909500Y3820100D02*
D03*
X7389500Y3820101D02*
D03*
X7809501Y4620099D02*
D03*
X8289500D02*
D03*
X7809500Y3820100D02*
D03*
X8289500Y3820101D02*
D03*
X6009501Y4620099D02*
D03*
X6489500D02*
D03*
X6009500Y3820100D02*
D03*
X6489500Y3820101D02*
D03*
D16*
X5175000Y1595000D02*
D03*
Y1805000D02*
D03*
X4625000Y1230000D02*
D03*
Y1020000D02*
D03*
X5950000Y1595000D02*
D03*
Y1805000D02*
D03*
X6225000Y1595000D02*
D03*
Y1805000D02*
D03*
X7875000Y445000D02*
D03*
Y655000D02*
D03*
X5875000Y855000D02*
D03*
Y645000D02*
D03*
X5600000D02*
D03*
Y855000D02*
D03*
X4900000Y1805000D02*
D03*
Y1595000D02*
D03*
D17*
X5813500Y1075000D02*
D03*
X6036500D02*
D03*
X9213500Y1350000D02*
D03*
X9436500D02*
D03*
D18*
X1054000Y1425000D02*
D03*
X1496000D02*
D03*
D19*
X4425000Y3355000D02*
D03*
Y3145000D02*
D03*
X4200000Y3355000D02*
D03*
Y3145000D02*
D03*
X3975000Y3355000D02*
D03*
Y3145000D02*
D03*
X3749976Y3354999D02*
D03*
Y3144999D02*
D03*
X3525000Y3355000D02*
D03*
Y3145000D02*
D03*
D20*
X4425000Y2735000D02*
D03*
Y2914000D02*
D03*
X3975000Y2735000D02*
D03*
Y2914000D02*
D03*
X4200000Y2735000D02*
D03*
Y2914000D02*
D03*
X3750000Y2735000D02*
D03*
Y2914000D02*
D03*
X3525000Y2735000D02*
D03*
Y2914000D02*
D03*
D21*
X8170000Y3047500D02*
D03*
X7980000D02*
D03*
Y3302500D02*
D03*
X8075000D02*
D03*
X8170000D02*
D03*
X7220000Y3047500D02*
D03*
X7030000D02*
D03*
Y3302500D02*
D03*
X7125000D02*
D03*
X7220000D02*
D03*
X6270000Y3047500D02*
D03*
X6080000D02*
D03*
Y3302500D02*
D03*
X6175000D02*
D03*
X6270000D02*
D03*
X5130000Y3047500D02*
D03*
X5320000Y3302500D02*
D03*
X5225000D02*
D03*
X5130000D02*
D03*
X5320000Y3047500D02*
D03*
D22*
X7660000Y3297500D02*
D03*
X7790000D02*
D03*
Y3052500D02*
D03*
X7725000D02*
D03*
X7660000D02*
D03*
X6710000Y3297500D02*
D03*
X6840000D02*
D03*
Y3052500D02*
D03*
X6775000D02*
D03*
X6710000D02*
D03*
X5890000Y3052500D02*
D03*
X5760000D02*
D03*
Y3297500D02*
D03*
X5825000D02*
D03*
X5890000D02*
D03*
D23*
X7582500Y3550000D02*
D03*
X7767500D02*
D03*
X6682500D02*
D03*
X6867500D02*
D03*
X5782500D02*
D03*
X5967500D02*
D03*
X7457500Y2750000D02*
D03*
X7642500D02*
D03*
X7267500D02*
D03*
X7082500D02*
D03*
X6792500D02*
D03*
X6607500D02*
D03*
X6217500Y2500000D02*
D03*
X6032500D02*
D03*
X5832500Y1350000D02*
D03*
X6017500D02*
D03*
X8657500Y2400000D02*
D03*
X8842500D02*
D03*
Y1750000D02*
D03*
X8657500D02*
D03*
X7592500Y1100000D02*
D03*
X7407500D02*
D03*
X7142500D02*
D03*
X6957500D02*
D03*
X6507500D02*
D03*
X6692500D02*
D03*
X4232500Y1475000D02*
D03*
X4417500D02*
D03*
X4242500Y650000D02*
D03*
X4057500D02*
D03*
X3532500Y1875000D02*
D03*
X3717500D02*
D03*
X2467500Y150000D02*
D03*
X2282500D02*
D03*
Y1450000D02*
D03*
X2467500D02*
D03*
D24*
X7880000Y850000D02*
D03*
X8070000D02*
D03*
X7975000Y1050000D02*
D03*
D25*
X7430000Y882528D02*
D03*
X7620000D02*
D03*
Y667472D02*
D03*
X7525000D02*
D03*
D26*
X7430000D02*
D03*
D27*
X4855000Y2235000D02*
D03*
X4950000Y2015000D02*
D03*
X5045000Y2235000D02*
D03*
D28*
X4040000Y1505000D02*
D03*
X3975000D02*
D03*
X3910000D02*
D03*
Y1695000D02*
D03*
X3975000D02*
D03*
X4040000D02*
D03*
D29*
X2495000Y355000D02*
D03*
Y450000D02*
D03*
Y545000D02*
D03*
X2255000D02*
D03*
Y355000D02*
D03*
D30*
X2527500Y800000D02*
D03*
X2222500D02*
D03*
D31*
X6825000Y1370000D02*
D03*
X6875000D02*
D03*
X6925000D02*
D03*
X6975000D02*
D03*
X7125000D02*
D03*
X7175000D02*
D03*
X7225000D02*
D03*
X6775000Y2480000D02*
D03*
X7275000Y1370000D02*
D03*
X7025000D02*
D03*
X7075000D02*
D03*
X6675000D02*
D03*
X6725000D02*
D03*
X6775000D02*
D03*
X7325000D02*
D03*
X7375000D02*
D03*
X7425000D02*
D03*
Y2480000D02*
D03*
X7375000D02*
D03*
X7325000D02*
D03*
X7275000D02*
D03*
X7225000D02*
D03*
X7175000D02*
D03*
X7125000D02*
D03*
X7075000D02*
D03*
X7025000D02*
D03*
X6975000D02*
D03*
X6925000D02*
D03*
X6875000D02*
D03*
X6825000D02*
D03*
X6725000D02*
D03*
X6675000D02*
D03*
D32*
X7605000Y1950000D02*
D03*
Y2000000D02*
D03*
Y2050000D02*
D03*
Y2100000D02*
D03*
Y2150000D02*
D03*
Y1550000D02*
D03*
Y1600000D02*
D03*
Y1650000D02*
D03*
Y1700000D02*
D03*
X6495000Y1950000D02*
D03*
Y1850000D02*
D03*
X7605000Y1750000D02*
D03*
Y1800000D02*
D03*
Y1850000D02*
D03*
Y1900000D02*
D03*
X6495000Y2250000D02*
D03*
Y2200000D02*
D03*
Y2150000D02*
D03*
Y2300000D02*
D03*
Y2100000D02*
D03*
Y2050000D02*
D03*
Y2000000D02*
D03*
Y1900000D02*
D03*
Y1800000D02*
D03*
Y1750000D02*
D03*
Y1700000D02*
D03*
Y1650000D02*
D03*
Y1600000D02*
D03*
Y1550000D02*
D03*
X7605000Y2200000D02*
D03*
Y2250000D02*
D03*
Y2300000D02*
D03*
D33*
X9272500Y1755000D02*
D03*
Y1675000D02*
D03*
Y2245000D02*
D03*
Y2325000D02*
D03*
D34*
Y1925000D02*
D03*
Y1875000D02*
D03*
Y1825000D02*
D03*
Y2075000D02*
D03*
Y2125000D02*
D03*
Y2175000D02*
D03*
Y2025000D02*
D03*
Y1975000D02*
D03*
D35*
X3675001Y725000D02*
D03*
X3325000D02*
D03*
D36*
X6205000Y2040000D02*
D03*
Y2260000D02*
D03*
X6045000Y2040000D02*
D03*
Y2260000D02*
D03*
D37*
X8970000Y1975000D02*
D03*
Y2025000D02*
D03*
Y2075000D02*
D03*
Y2125000D02*
D03*
Y2175000D02*
D03*
X8530000Y1975000D02*
D03*
Y2025000D02*
D03*
Y2075000D02*
D03*
Y2125000D02*
D03*
Y2175000D02*
D03*
D38*
X3887500Y1240500D02*
D03*
Y1113500D02*
D03*
Y986500D02*
D03*
Y859500D02*
D03*
X4412500Y1240500D02*
D03*
Y1113500D02*
D03*
Y986500D02*
D03*
Y859500D02*
D03*
D46*
X8686500Y1513500D02*
D03*
X8813500D02*
D03*
X8686500Y1386500D02*
D03*
X8813500D02*
D03*
X9363500Y4125000D02*
D03*
D47*
X9236500D02*
D03*
D48*
X8476000Y558800D02*
D03*
X1016000D02*
D03*
D49*
X250000Y250000D02*
D03*
X9750000D02*
D03*
Y4750000D02*
D03*
X250000D02*
D03*
D50*
X9782000Y1568000D02*
D03*
Y2432000D02*
D03*
D51*
X9364000D02*
D03*
Y1568000D02*
D03*
D52*
X9417000Y2289000D02*
D03*
Y1711000D02*
D03*
D53*
X8984000Y558800D02*
D03*
X1524000D02*
D03*
D54*
X1584500Y2197600D02*
D03*
%TF.MD5,b13207eb6f69307023400192d8acc9fd*%
M02*
