%TF.GenerationSoftware,KiCad,Pcbnew,(5.99.0-2671-gfc0a358ba)*%
%TF.CreationDate,2020-08-28T01:53:28+05:30*%
%TF.ProjectId,Power_Supply,506f7765-725f-4537-9570-706c792e6b69,rev?*%
%TF.SameCoordinates,Original*%
%TF.FileFunction,Legend,Bot*%
%TF.FilePolarity,Positive*%
%FSLAX46Y46*%
G04 Gerber Fmt 4.6, Leading zero omitted, Abs format (unit mm)*
G04 Created by KiCad (PCBNEW (5.99.0-2671-gfc0a358ba)) date 2020-08-28 01:53:28*
%MOMM*%
%LPD*%
G01*
G04 APERTURE LIST*
%ADD10C,0.150000*%
%ADD11C,0.075000*%
%ADD12C,0.100000*%
%ADD13C,0.120000*%
%ADD14C,0.010000*%
%ADD15C,0.050000*%
G04 APERTURE END LIST*
D10*
X105000000Y-56000000D02*
X105095238Y-55952380D01*
X105238095Y-55952380D01*
X105380952Y-56000000D01*
X105476190Y-56095238D01*
X105523809Y-56190476D01*
X105571428Y-56380952D01*
X105571428Y-56523809D01*
X105523809Y-56714285D01*
X105476190Y-56809523D01*
X105380952Y-56904761D01*
X105238095Y-56952380D01*
X105142857Y-56952380D01*
X105000000Y-56904761D01*
X104952380Y-56857142D01*
X104952380Y-56523809D01*
X105142857Y-56523809D01*
X104523809Y-56952380D02*
X104523809Y-55952380D01*
X103952380Y-56952380D01*
X103952380Y-55952380D01*
X103476190Y-56952380D02*
X103476190Y-55952380D01*
X103238095Y-55952380D01*
X103095238Y-56000000D01*
X103000000Y-56095238D01*
X102952380Y-56190476D01*
X102904761Y-56380952D01*
X102904761Y-56523809D01*
X102952380Y-56714285D01*
X103000000Y-56809523D01*
X103095238Y-56904761D01*
X103238095Y-56952380D01*
X103476190Y-56952380D01*
X101476190Y-57285714D02*
X101476190Y-55857142D01*
X100000000Y-56571428D02*
X99238095Y-56571428D01*
X99619047Y-56952380D02*
X99619047Y-56190476D01*
X98238095Y-56952380D02*
X98809523Y-56952380D01*
X98523809Y-56952380D02*
X98523809Y-55952380D01*
X98619047Y-56095238D01*
X98714285Y-56190476D01*
X98809523Y-56238095D01*
X97857142Y-56047619D02*
X97809523Y-56000000D01*
X97714285Y-55952380D01*
X97476190Y-55952380D01*
X97380952Y-56000000D01*
X97333333Y-56047619D01*
X97285714Y-56142857D01*
X97285714Y-56238095D01*
X97333333Y-56380952D01*
X97904761Y-56952380D01*
X97285714Y-56952380D01*
X97000000Y-55952380D02*
X96666666Y-56952380D01*
X96333333Y-55952380D01*
D11*
X70267291Y-26994821D02*
X70130386Y-27042440D01*
X70088720Y-27090059D01*
X70053005Y-27185297D01*
X70070863Y-27328154D01*
X70130386Y-27423392D01*
X70183958Y-27471011D01*
X70285148Y-27518630D01*
X70666101Y-27518630D01*
X70541101Y-26518630D01*
X70207767Y-26518630D01*
X70118482Y-26566250D01*
X70076815Y-26613869D01*
X70041101Y-26709107D01*
X70053005Y-26804345D01*
X70112529Y-26899583D01*
X70166101Y-26947202D01*
X70267291Y-26994821D01*
X70600625Y-26994821D01*
X69279196Y-27471011D02*
X69380386Y-27518630D01*
X69570863Y-27518630D01*
X69660148Y-27471011D01*
X69695863Y-27375773D01*
X69648244Y-26994821D01*
X69588720Y-26899583D01*
X69487529Y-26851964D01*
X69297053Y-26851964D01*
X69207767Y-26899583D01*
X69172053Y-26994821D01*
X69183958Y-27090059D01*
X69672053Y-27185297D01*
X68725625Y-26851964D02*
X68808958Y-27518630D01*
X68737529Y-26947202D02*
X68683958Y-26899583D01*
X68582767Y-26851964D01*
X68439910Y-26851964D01*
X68350625Y-26899583D01*
X68314910Y-26994821D01*
X68380386Y-27518630D01*
X67469672Y-27471011D02*
X67570863Y-27518630D01*
X67761339Y-27518630D01*
X67850625Y-27471011D01*
X67892291Y-27423392D01*
X67928005Y-27328154D01*
X67892291Y-27042440D01*
X67832767Y-26947202D01*
X67779196Y-26899583D01*
X67678005Y-26851964D01*
X67487529Y-26851964D01*
X67398244Y-26899583D01*
X67047053Y-27518630D02*
X66922053Y-26518630D01*
X66618482Y-27518630D02*
X66553005Y-26994821D01*
X66588720Y-26899583D01*
X66678005Y-26851964D01*
X66820863Y-26851964D01*
X66922053Y-26899583D01*
X66975625Y-26947202D01*
X65398244Y-26518630D02*
X64826815Y-26518630D01*
X65237529Y-27518630D02*
X65112529Y-26518630D01*
X64475625Y-27518630D02*
X64564910Y-27471011D01*
X64606577Y-27423392D01*
X64642291Y-27328154D01*
X64606577Y-27042440D01*
X64547053Y-26947202D01*
X64493482Y-26899583D01*
X64392291Y-26851964D01*
X64249434Y-26851964D01*
X64160148Y-26899583D01*
X64118482Y-26947202D01*
X64082767Y-27042440D01*
X64118482Y-27328154D01*
X64178005Y-27423392D01*
X64231577Y-27471011D01*
X64332767Y-27518630D01*
X64475625Y-27518630D01*
X63630386Y-26851964D02*
X63755386Y-27851964D01*
X63636339Y-26899583D02*
X63535148Y-26851964D01*
X63344672Y-26851964D01*
X63255386Y-26899583D01*
X63213720Y-26947202D01*
X63178005Y-27042440D01*
X63213720Y-27328154D01*
X63273244Y-27423392D01*
X63326815Y-27471011D01*
X63428005Y-27518630D01*
X63618482Y-27518630D01*
X63707767Y-27471011D01*
X62047053Y-27518630D02*
X61922053Y-26518630D01*
X61541101Y-26518630D01*
X61451815Y-26566250D01*
X61410148Y-26613869D01*
X61374434Y-26709107D01*
X61392291Y-26851964D01*
X61451815Y-26947202D01*
X61505386Y-26994821D01*
X61606577Y-27042440D01*
X61987529Y-27042440D01*
X61088720Y-27471011D02*
X60951815Y-27518630D01*
X60713720Y-27518630D01*
X60612529Y-27471011D01*
X60558958Y-27423392D01*
X60499434Y-27328154D01*
X60487529Y-27232916D01*
X60523244Y-27137678D01*
X60564910Y-27090059D01*
X60654196Y-27042440D01*
X60838720Y-26994821D01*
X60928005Y-26947202D01*
X60969672Y-26899583D01*
X61005386Y-26804345D01*
X60993482Y-26709107D01*
X60933958Y-26613869D01*
X60880386Y-26566250D01*
X60779196Y-26518630D01*
X60541101Y-26518630D01*
X60404196Y-26566250D01*
X59969672Y-26518630D02*
X60070863Y-27328154D01*
X60035148Y-27423392D01*
X59993482Y-27471011D01*
X59904196Y-27518630D01*
X59713720Y-27518630D01*
X59612529Y-27471011D01*
X59558958Y-27423392D01*
X59499434Y-27328154D01*
X59398244Y-26518630D01*
X58303005Y-26518630D02*
X58094672Y-27518630D01*
X57636339Y-26518630D01*
X56904196Y-27518630D02*
X57475625Y-27518630D01*
X57189910Y-27518630D02*
X57064910Y-26518630D01*
X57178005Y-26661488D01*
X57285148Y-26756726D01*
X57386339Y-26804345D01*
X56463720Y-27423392D02*
X56422053Y-27471011D01*
X56475625Y-27518630D01*
X56517291Y-27471011D01*
X56463720Y-27423392D01*
X56475625Y-27518630D01*
X55683958Y-26518630D02*
X55588720Y-26518630D01*
X55499434Y-26566250D01*
X55457767Y-26613869D01*
X55422053Y-26709107D01*
X55398244Y-26899583D01*
X55428005Y-27137678D01*
X55499434Y-27328154D01*
X55558958Y-27423392D01*
X55612529Y-27471011D01*
X55713720Y-27518630D01*
X55808958Y-27518630D01*
X55898244Y-27471011D01*
X55939910Y-27423392D01*
X55975625Y-27328154D01*
X55999434Y-27137678D01*
X55969672Y-26899583D01*
X55898244Y-26709107D01*
X55838720Y-26613869D01*
X55785148Y-26566250D01*
X55683958Y-26518630D01*
D12*
%TO.C,C32*%
X39321428Y-16428571D02*
X39345238Y-16452380D01*
X39416666Y-16476190D01*
X39464285Y-16476190D01*
X39535714Y-16452380D01*
X39583333Y-16404761D01*
X39607142Y-16357142D01*
X39630952Y-16261904D01*
X39630952Y-16190476D01*
X39607142Y-16095238D01*
X39583333Y-16047619D01*
X39535714Y-16000000D01*
X39464285Y-15976190D01*
X39416666Y-15976190D01*
X39345238Y-16000000D01*
X39321428Y-16023809D01*
X39154761Y-15976190D02*
X38845238Y-15976190D01*
X39011904Y-16166666D01*
X38940476Y-16166666D01*
X38892857Y-16190476D01*
X38869047Y-16214285D01*
X38845238Y-16261904D01*
X38845238Y-16380952D01*
X38869047Y-16428571D01*
X38892857Y-16452380D01*
X38940476Y-16476190D01*
X39083333Y-16476190D01*
X39130952Y-16452380D01*
X39154761Y-16428571D01*
X38654761Y-16023809D02*
X38630952Y-16000000D01*
X38583333Y-15976190D01*
X38464285Y-15976190D01*
X38416666Y-16000000D01*
X38392857Y-16023809D01*
X38369047Y-16071428D01*
X38369047Y-16119047D01*
X38392857Y-16190476D01*
X38678571Y-16476190D01*
X38369047Y-16476190D01*
%TO.C,D6*%
X80119047Y-41476190D02*
X80119047Y-40976190D01*
X80000000Y-40976190D01*
X79928571Y-41000000D01*
X79880952Y-41047619D01*
X79857142Y-41095238D01*
X79833333Y-41190476D01*
X79833333Y-41261904D01*
X79857142Y-41357142D01*
X79880952Y-41404761D01*
X79928571Y-41452380D01*
X80000000Y-41476190D01*
X80119047Y-41476190D01*
X79404761Y-40976190D02*
X79500000Y-40976190D01*
X79547619Y-41000000D01*
X79571428Y-41023809D01*
X79619047Y-41095238D01*
X79642857Y-41190476D01*
X79642857Y-41380952D01*
X79619047Y-41428571D01*
X79595238Y-41452380D01*
X79547619Y-41476190D01*
X79452380Y-41476190D01*
X79404761Y-41452380D01*
X79380952Y-41428571D01*
X79357142Y-41380952D01*
X79357142Y-41261904D01*
X79380952Y-41214285D01*
X79404761Y-41190476D01*
X79452380Y-41166666D01*
X79547619Y-41166666D01*
X79595238Y-41190476D01*
X79619047Y-41214285D01*
X79642857Y-41261904D01*
%TO.C,R14*%
X53071428Y-22226190D02*
X53238095Y-21988095D01*
X53357142Y-22226190D02*
X53357142Y-21726190D01*
X53166666Y-21726190D01*
X53119047Y-21750000D01*
X53095238Y-21773809D01*
X53071428Y-21821428D01*
X53071428Y-21892857D01*
X53095238Y-21940476D01*
X53119047Y-21964285D01*
X53166666Y-21988095D01*
X53357142Y-21988095D01*
X52595238Y-22226190D02*
X52880952Y-22226190D01*
X52738095Y-22226190D02*
X52738095Y-21726190D01*
X52785714Y-21797619D01*
X52833333Y-21845238D01*
X52880952Y-21869047D01*
X52166666Y-21892857D02*
X52166666Y-22226190D01*
X52285714Y-21702380D02*
X52404761Y-22059523D01*
X52095238Y-22059523D01*
%TO.C,C3*%
X95333333Y-45428571D02*
X95357142Y-45452380D01*
X95428571Y-45476190D01*
X95476190Y-45476190D01*
X95547619Y-45452380D01*
X95595238Y-45404761D01*
X95619047Y-45357142D01*
X95642857Y-45261904D01*
X95642857Y-45190476D01*
X95619047Y-45095238D01*
X95595238Y-45047619D01*
X95547619Y-45000000D01*
X95476190Y-44976190D01*
X95428571Y-44976190D01*
X95357142Y-45000000D01*
X95333333Y-45023809D01*
X95166666Y-44976190D02*
X94857142Y-44976190D01*
X95023809Y-45166666D01*
X94952380Y-45166666D01*
X94904761Y-45190476D01*
X94880952Y-45214285D01*
X94857142Y-45261904D01*
X94857142Y-45380952D01*
X94880952Y-45428571D01*
X94904761Y-45452380D01*
X94952380Y-45476190D01*
X95095238Y-45476190D01*
X95142857Y-45452380D01*
X95166666Y-45428571D01*
%TO.C,C8*%
X82953333Y-51828571D02*
X82977142Y-51852380D01*
X83048571Y-51876190D01*
X83096190Y-51876190D01*
X83167619Y-51852380D01*
X83215238Y-51804761D01*
X83239047Y-51757142D01*
X83262857Y-51661904D01*
X83262857Y-51590476D01*
X83239047Y-51495238D01*
X83215238Y-51447619D01*
X83167619Y-51400000D01*
X83096190Y-51376190D01*
X83048571Y-51376190D01*
X82977142Y-51400000D01*
X82953333Y-51423809D01*
X82667619Y-51590476D02*
X82715238Y-51566666D01*
X82739047Y-51542857D01*
X82762857Y-51495238D01*
X82762857Y-51471428D01*
X82739047Y-51423809D01*
X82715238Y-51400000D01*
X82667619Y-51376190D01*
X82572380Y-51376190D01*
X82524761Y-51400000D01*
X82500952Y-51423809D01*
X82477142Y-51471428D01*
X82477142Y-51495238D01*
X82500952Y-51542857D01*
X82524761Y-51566666D01*
X82572380Y-51590476D01*
X82667619Y-51590476D01*
X82715238Y-51614285D01*
X82739047Y-51638095D01*
X82762857Y-51685714D01*
X82762857Y-51780952D01*
X82739047Y-51828571D01*
X82715238Y-51852380D01*
X82667619Y-51876190D01*
X82572380Y-51876190D01*
X82524761Y-51852380D01*
X82500952Y-51828571D01*
X82477142Y-51780952D01*
X82477142Y-51685714D01*
X82500952Y-51638095D01*
X82524761Y-51614285D01*
X82572380Y-51590476D01*
%TO.C,C2*%
X99083333Y-34678571D02*
X99107142Y-34702380D01*
X99178571Y-34726190D01*
X99226190Y-34726190D01*
X99297619Y-34702380D01*
X99345238Y-34654761D01*
X99369047Y-34607142D01*
X99392857Y-34511904D01*
X99392857Y-34440476D01*
X99369047Y-34345238D01*
X99345238Y-34297619D01*
X99297619Y-34250000D01*
X99226190Y-34226190D01*
X99178571Y-34226190D01*
X99107142Y-34250000D01*
X99083333Y-34273809D01*
X98892857Y-34273809D02*
X98869047Y-34250000D01*
X98821428Y-34226190D01*
X98702380Y-34226190D01*
X98654761Y-34250000D01*
X98630952Y-34273809D01*
X98607142Y-34321428D01*
X98607142Y-34369047D01*
X98630952Y-34440476D01*
X98916666Y-34726190D01*
X98607142Y-34726190D01*
%TO.C,R11*%
X103321428Y-33226190D02*
X103488095Y-32988095D01*
X103607142Y-33226190D02*
X103607142Y-32726190D01*
X103416666Y-32726190D01*
X103369047Y-32750000D01*
X103345238Y-32773809D01*
X103321428Y-32821428D01*
X103321428Y-32892857D01*
X103345238Y-32940476D01*
X103369047Y-32964285D01*
X103416666Y-32988095D01*
X103607142Y-32988095D01*
X102845238Y-33226190D02*
X103130952Y-33226190D01*
X102988095Y-33226190D02*
X102988095Y-32726190D01*
X103035714Y-32797619D01*
X103083333Y-32845238D01*
X103130952Y-32869047D01*
X102369047Y-33226190D02*
X102654761Y-33226190D01*
X102511904Y-33226190D02*
X102511904Y-32726190D01*
X102559523Y-32797619D01*
X102607142Y-32845238D01*
X102654761Y-32869047D01*
%TO.C,R4*%
X103083333Y-39226190D02*
X103250000Y-38988095D01*
X103369047Y-39226190D02*
X103369047Y-38726190D01*
X103178571Y-38726190D01*
X103130952Y-38750000D01*
X103107142Y-38773809D01*
X103083333Y-38821428D01*
X103083333Y-38892857D01*
X103107142Y-38940476D01*
X103130952Y-38964285D01*
X103178571Y-38988095D01*
X103369047Y-38988095D01*
X102654761Y-38892857D02*
X102654761Y-39226190D01*
X102773809Y-38702380D02*
X102892857Y-39059523D01*
X102583333Y-39059523D01*
%TO.C,C34*%
X42721428Y-16428571D02*
X42745238Y-16452380D01*
X42816666Y-16476190D01*
X42864285Y-16476190D01*
X42935714Y-16452380D01*
X42983333Y-16404761D01*
X43007142Y-16357142D01*
X43030952Y-16261904D01*
X43030952Y-16190476D01*
X43007142Y-16095238D01*
X42983333Y-16047619D01*
X42935714Y-16000000D01*
X42864285Y-15976190D01*
X42816666Y-15976190D01*
X42745238Y-16000000D01*
X42721428Y-16023809D01*
X42554761Y-15976190D02*
X42245238Y-15976190D01*
X42411904Y-16166666D01*
X42340476Y-16166666D01*
X42292857Y-16190476D01*
X42269047Y-16214285D01*
X42245238Y-16261904D01*
X42245238Y-16380952D01*
X42269047Y-16428571D01*
X42292857Y-16452380D01*
X42340476Y-16476190D01*
X42483333Y-16476190D01*
X42530952Y-16452380D01*
X42554761Y-16428571D01*
X41816666Y-16142857D02*
X41816666Y-16476190D01*
X41935714Y-15952380D02*
X42054761Y-16309523D01*
X41745238Y-16309523D01*
%TO.C,D5*%
X86869047Y-40476190D02*
X86869047Y-39976190D01*
X86750000Y-39976190D01*
X86678571Y-40000000D01*
X86630952Y-40047619D01*
X86607142Y-40095238D01*
X86583333Y-40190476D01*
X86583333Y-40261904D01*
X86607142Y-40357142D01*
X86630952Y-40404761D01*
X86678571Y-40452380D01*
X86750000Y-40476190D01*
X86869047Y-40476190D01*
X86130952Y-39976190D02*
X86369047Y-39976190D01*
X86392857Y-40214285D01*
X86369047Y-40190476D01*
X86321428Y-40166666D01*
X86202380Y-40166666D01*
X86154761Y-40190476D01*
X86130952Y-40214285D01*
X86107142Y-40261904D01*
X86107142Y-40380952D01*
X86130952Y-40428571D01*
X86154761Y-40452380D01*
X86202380Y-40476190D01*
X86321428Y-40476190D01*
X86369047Y-40452380D01*
X86392857Y-40428571D01*
%TO.C,C15*%
X80071428Y-38178571D02*
X80095238Y-38202380D01*
X80166666Y-38226190D01*
X80214285Y-38226190D01*
X80285714Y-38202380D01*
X80333333Y-38154761D01*
X80357142Y-38107142D01*
X80380952Y-38011904D01*
X80380952Y-37940476D01*
X80357142Y-37845238D01*
X80333333Y-37797619D01*
X80285714Y-37750000D01*
X80214285Y-37726190D01*
X80166666Y-37726190D01*
X80095238Y-37750000D01*
X80071428Y-37773809D01*
X79595238Y-38226190D02*
X79880952Y-38226190D01*
X79738095Y-38226190D02*
X79738095Y-37726190D01*
X79785714Y-37797619D01*
X79833333Y-37845238D01*
X79880952Y-37869047D01*
X79142857Y-37726190D02*
X79380952Y-37726190D01*
X79404761Y-37964285D01*
X79380952Y-37940476D01*
X79333333Y-37916666D01*
X79214285Y-37916666D01*
X79166666Y-37940476D01*
X79142857Y-37964285D01*
X79119047Y-38011904D01*
X79119047Y-38130952D01*
X79142857Y-38178571D01*
X79166666Y-38202380D01*
X79214285Y-38226190D01*
X79333333Y-38226190D01*
X79380952Y-38202380D01*
X79404761Y-38178571D01*
%TO.C,C31*%
X25571428Y-16428571D02*
X25595238Y-16452380D01*
X25666666Y-16476190D01*
X25714285Y-16476190D01*
X25785714Y-16452380D01*
X25833333Y-16404761D01*
X25857142Y-16357142D01*
X25880952Y-16261904D01*
X25880952Y-16190476D01*
X25857142Y-16095238D01*
X25833333Y-16047619D01*
X25785714Y-16000000D01*
X25714285Y-15976190D01*
X25666666Y-15976190D01*
X25595238Y-16000000D01*
X25571428Y-16023809D01*
X25404761Y-15976190D02*
X25095238Y-15976190D01*
X25261904Y-16166666D01*
X25190476Y-16166666D01*
X25142857Y-16190476D01*
X25119047Y-16214285D01*
X25095238Y-16261904D01*
X25095238Y-16380952D01*
X25119047Y-16428571D01*
X25142857Y-16452380D01*
X25190476Y-16476190D01*
X25333333Y-16476190D01*
X25380952Y-16452380D01*
X25404761Y-16428571D01*
X24619047Y-16476190D02*
X24904761Y-16476190D01*
X24761904Y-16476190D02*
X24761904Y-15976190D01*
X24809523Y-16047619D01*
X24857142Y-16095238D01*
X24904761Y-16119047D01*
%TO.C,C10*%
X99321428Y-38678571D02*
X99345238Y-38702380D01*
X99416666Y-38726190D01*
X99464285Y-38726190D01*
X99535714Y-38702380D01*
X99583333Y-38654761D01*
X99607142Y-38607142D01*
X99630952Y-38511904D01*
X99630952Y-38440476D01*
X99607142Y-38345238D01*
X99583333Y-38297619D01*
X99535714Y-38250000D01*
X99464285Y-38226190D01*
X99416666Y-38226190D01*
X99345238Y-38250000D01*
X99321428Y-38273809D01*
X98845238Y-38726190D02*
X99130952Y-38726190D01*
X98988095Y-38726190D02*
X98988095Y-38226190D01*
X99035714Y-38297619D01*
X99083333Y-38345238D01*
X99130952Y-38369047D01*
X98535714Y-38226190D02*
X98488095Y-38226190D01*
X98440476Y-38250000D01*
X98416666Y-38273809D01*
X98392857Y-38321428D01*
X98369047Y-38416666D01*
X98369047Y-38535714D01*
X98392857Y-38630952D01*
X98416666Y-38678571D01*
X98440476Y-38702380D01*
X98488095Y-38726190D01*
X98535714Y-38726190D01*
X98583333Y-38702380D01*
X98607142Y-38678571D01*
X98630952Y-38630952D01*
X98654761Y-38535714D01*
X98654761Y-38416666D01*
X98630952Y-38321428D01*
X98607142Y-38273809D01*
X98583333Y-38250000D01*
X98535714Y-38226190D01*
%TO.C,R5*%
X50833333Y-22226190D02*
X51000000Y-21988095D01*
X51119047Y-22226190D02*
X51119047Y-21726190D01*
X50928571Y-21726190D01*
X50880952Y-21750000D01*
X50857142Y-21773809D01*
X50833333Y-21821428D01*
X50833333Y-21892857D01*
X50857142Y-21940476D01*
X50880952Y-21964285D01*
X50928571Y-21988095D01*
X51119047Y-21988095D01*
X50380952Y-21726190D02*
X50619047Y-21726190D01*
X50642857Y-21964285D01*
X50619047Y-21940476D01*
X50571428Y-21916666D01*
X50452380Y-21916666D01*
X50404761Y-21940476D01*
X50380952Y-21964285D01*
X50357142Y-22011904D01*
X50357142Y-22130952D01*
X50380952Y-22178571D01*
X50404761Y-22202380D01*
X50452380Y-22226190D01*
X50571428Y-22226190D01*
X50619047Y-22202380D01*
X50642857Y-22178571D01*
%TO.C,C14*%
X76071428Y-54928571D02*
X76095238Y-54952380D01*
X76166666Y-54976190D01*
X76214285Y-54976190D01*
X76285714Y-54952380D01*
X76333333Y-54904761D01*
X76357142Y-54857142D01*
X76380952Y-54761904D01*
X76380952Y-54690476D01*
X76357142Y-54595238D01*
X76333333Y-54547619D01*
X76285714Y-54500000D01*
X76214285Y-54476190D01*
X76166666Y-54476190D01*
X76095238Y-54500000D01*
X76071428Y-54523809D01*
X75595238Y-54976190D02*
X75880952Y-54976190D01*
X75738095Y-54976190D02*
X75738095Y-54476190D01*
X75785714Y-54547619D01*
X75833333Y-54595238D01*
X75880952Y-54619047D01*
X75166666Y-54642857D02*
X75166666Y-54976190D01*
X75285714Y-54452380D02*
X75404761Y-54809523D01*
X75095238Y-54809523D01*
%TO.C,R2*%
X107583333Y-27226190D02*
X107750000Y-26988095D01*
X107869047Y-27226190D02*
X107869047Y-26726190D01*
X107678571Y-26726190D01*
X107630952Y-26750000D01*
X107607142Y-26773809D01*
X107583333Y-26821428D01*
X107583333Y-26892857D01*
X107607142Y-26940476D01*
X107630952Y-26964285D01*
X107678571Y-26988095D01*
X107869047Y-26988095D01*
X107392857Y-26773809D02*
X107369047Y-26750000D01*
X107321428Y-26726190D01*
X107202380Y-26726190D01*
X107154761Y-26750000D01*
X107130952Y-26773809D01*
X107107142Y-26821428D01*
X107107142Y-26869047D01*
X107130952Y-26940476D01*
X107416666Y-27226190D01*
X107107142Y-27226190D01*
%TO.C,R3*%
X99333333Y-43226190D02*
X99500000Y-42988095D01*
X99619047Y-43226190D02*
X99619047Y-42726190D01*
X99428571Y-42726190D01*
X99380952Y-42750000D01*
X99357142Y-42773809D01*
X99333333Y-42821428D01*
X99333333Y-42892857D01*
X99357142Y-42940476D01*
X99380952Y-42964285D01*
X99428571Y-42988095D01*
X99619047Y-42988095D01*
X99166666Y-42726190D02*
X98857142Y-42726190D01*
X99023809Y-42916666D01*
X98952380Y-42916666D01*
X98904761Y-42940476D01*
X98880952Y-42964285D01*
X98857142Y-43011904D01*
X98857142Y-43130952D01*
X98880952Y-43178571D01*
X98904761Y-43202380D01*
X98952380Y-43226190D01*
X99095238Y-43226190D01*
X99142857Y-43202380D01*
X99166666Y-43178571D01*
%TO.C,R12*%
X86941428Y-48976190D02*
X87108095Y-48738095D01*
X87227142Y-48976190D02*
X87227142Y-48476190D01*
X87036666Y-48476190D01*
X86989047Y-48500000D01*
X86965238Y-48523809D01*
X86941428Y-48571428D01*
X86941428Y-48642857D01*
X86965238Y-48690476D01*
X86989047Y-48714285D01*
X87036666Y-48738095D01*
X87227142Y-48738095D01*
X86465238Y-48976190D02*
X86750952Y-48976190D01*
X86608095Y-48976190D02*
X86608095Y-48476190D01*
X86655714Y-48547619D01*
X86703333Y-48595238D01*
X86750952Y-48619047D01*
X86274761Y-48523809D02*
X86250952Y-48500000D01*
X86203333Y-48476190D01*
X86084285Y-48476190D01*
X86036666Y-48500000D01*
X86012857Y-48523809D01*
X85989047Y-48571428D01*
X85989047Y-48619047D01*
X86012857Y-48690476D01*
X86298571Y-48976190D01*
X85989047Y-48976190D01*
%TO.C,C33*%
X22071428Y-16428571D02*
X22095238Y-16452380D01*
X22166666Y-16476190D01*
X22214285Y-16476190D01*
X22285714Y-16452380D01*
X22333333Y-16404761D01*
X22357142Y-16357142D01*
X22380952Y-16261904D01*
X22380952Y-16190476D01*
X22357142Y-16095238D01*
X22333333Y-16047619D01*
X22285714Y-16000000D01*
X22214285Y-15976190D01*
X22166666Y-15976190D01*
X22095238Y-16000000D01*
X22071428Y-16023809D01*
X21904761Y-15976190D02*
X21595238Y-15976190D01*
X21761904Y-16166666D01*
X21690476Y-16166666D01*
X21642857Y-16190476D01*
X21619047Y-16214285D01*
X21595238Y-16261904D01*
X21595238Y-16380952D01*
X21619047Y-16428571D01*
X21642857Y-16452380D01*
X21690476Y-16476190D01*
X21833333Y-16476190D01*
X21880952Y-16452380D01*
X21904761Y-16428571D01*
X21428571Y-15976190D02*
X21119047Y-15976190D01*
X21285714Y-16166666D01*
X21214285Y-16166666D01*
X21166666Y-16190476D01*
X21142857Y-16214285D01*
X21119047Y-16261904D01*
X21119047Y-16380952D01*
X21142857Y-16428571D01*
X21166666Y-16452380D01*
X21214285Y-16476190D01*
X21357142Y-16476190D01*
X21404761Y-16452380D01*
X21428571Y-16428571D01*
%TO.C,C22*%
X84821428Y-23178571D02*
X84845238Y-23202380D01*
X84916666Y-23226190D01*
X84964285Y-23226190D01*
X85035714Y-23202380D01*
X85083333Y-23154761D01*
X85107142Y-23107142D01*
X85130952Y-23011904D01*
X85130952Y-22940476D01*
X85107142Y-22845238D01*
X85083333Y-22797619D01*
X85035714Y-22750000D01*
X84964285Y-22726190D01*
X84916666Y-22726190D01*
X84845238Y-22750000D01*
X84821428Y-22773809D01*
X84630952Y-22773809D02*
X84607142Y-22750000D01*
X84559523Y-22726190D01*
X84440476Y-22726190D01*
X84392857Y-22750000D01*
X84369047Y-22773809D01*
X84345238Y-22821428D01*
X84345238Y-22869047D01*
X84369047Y-22940476D01*
X84654761Y-23226190D01*
X84345238Y-23226190D01*
X84154761Y-22773809D02*
X84130952Y-22750000D01*
X84083333Y-22726190D01*
X83964285Y-22726190D01*
X83916666Y-22750000D01*
X83892857Y-22773809D01*
X83869047Y-22821428D01*
X83869047Y-22869047D01*
X83892857Y-22940476D01*
X84178571Y-23226190D01*
X83869047Y-23226190D01*
%TO.C,C13*%
X79321428Y-51178571D02*
X79345238Y-51202380D01*
X79416666Y-51226190D01*
X79464285Y-51226190D01*
X79535714Y-51202380D01*
X79583333Y-51154761D01*
X79607142Y-51107142D01*
X79630952Y-51011904D01*
X79630952Y-50940476D01*
X79607142Y-50845238D01*
X79583333Y-50797619D01*
X79535714Y-50750000D01*
X79464285Y-50726190D01*
X79416666Y-50726190D01*
X79345238Y-50750000D01*
X79321428Y-50773809D01*
X78845238Y-51226190D02*
X79130952Y-51226190D01*
X78988095Y-51226190D02*
X78988095Y-50726190D01*
X79035714Y-50797619D01*
X79083333Y-50845238D01*
X79130952Y-50869047D01*
X78678571Y-50726190D02*
X78369047Y-50726190D01*
X78535714Y-50916666D01*
X78464285Y-50916666D01*
X78416666Y-50940476D01*
X78392857Y-50964285D01*
X78369047Y-51011904D01*
X78369047Y-51130952D01*
X78392857Y-51178571D01*
X78416666Y-51202380D01*
X78464285Y-51226190D01*
X78607142Y-51226190D01*
X78654761Y-51202380D01*
X78678571Y-51178571D01*
%TO.C,R1*%
X99583333Y-27226190D02*
X99750000Y-26988095D01*
X99869047Y-27226190D02*
X99869047Y-26726190D01*
X99678571Y-26726190D01*
X99630952Y-26750000D01*
X99607142Y-26773809D01*
X99583333Y-26821428D01*
X99583333Y-26892857D01*
X99607142Y-26940476D01*
X99630952Y-26964285D01*
X99678571Y-26988095D01*
X99869047Y-26988095D01*
X99107142Y-27226190D02*
X99392857Y-27226190D01*
X99250000Y-27226190D02*
X99250000Y-26726190D01*
X99297619Y-26797619D01*
X99345238Y-26845238D01*
X99392857Y-26869047D01*
%TO.C,C21*%
X70821428Y-31678571D02*
X70845238Y-31702380D01*
X70916666Y-31726190D01*
X70964285Y-31726190D01*
X71035714Y-31702380D01*
X71083333Y-31654761D01*
X71107142Y-31607142D01*
X71130952Y-31511904D01*
X71130952Y-31440476D01*
X71107142Y-31345238D01*
X71083333Y-31297619D01*
X71035714Y-31250000D01*
X70964285Y-31226190D01*
X70916666Y-31226190D01*
X70845238Y-31250000D01*
X70821428Y-31273809D01*
X70630952Y-31273809D02*
X70607142Y-31250000D01*
X70559523Y-31226190D01*
X70440476Y-31226190D01*
X70392857Y-31250000D01*
X70369047Y-31273809D01*
X70345238Y-31321428D01*
X70345238Y-31369047D01*
X70369047Y-31440476D01*
X70654761Y-31726190D01*
X70345238Y-31726190D01*
X69869047Y-31726190D02*
X70154761Y-31726190D01*
X70011904Y-31726190D02*
X70011904Y-31226190D01*
X70059523Y-31297619D01*
X70107142Y-31345238D01*
X70154761Y-31369047D01*
%TO.C,C19*%
X67071428Y-38928571D02*
X67095238Y-38952380D01*
X67166666Y-38976190D01*
X67214285Y-38976190D01*
X67285714Y-38952380D01*
X67333333Y-38904761D01*
X67357142Y-38857142D01*
X67380952Y-38761904D01*
X67380952Y-38690476D01*
X67357142Y-38595238D01*
X67333333Y-38547619D01*
X67285714Y-38500000D01*
X67214285Y-38476190D01*
X67166666Y-38476190D01*
X67095238Y-38500000D01*
X67071428Y-38523809D01*
X66595238Y-38976190D02*
X66880952Y-38976190D01*
X66738095Y-38976190D02*
X66738095Y-38476190D01*
X66785714Y-38547619D01*
X66833333Y-38595238D01*
X66880952Y-38619047D01*
X66357142Y-38976190D02*
X66261904Y-38976190D01*
X66214285Y-38952380D01*
X66190476Y-38928571D01*
X66142857Y-38857142D01*
X66119047Y-38761904D01*
X66119047Y-38571428D01*
X66142857Y-38523809D01*
X66166666Y-38500000D01*
X66214285Y-38476190D01*
X66309523Y-38476190D01*
X66357142Y-38500000D01*
X66380952Y-38523809D01*
X66404761Y-38571428D01*
X66404761Y-38690476D01*
X66380952Y-38738095D01*
X66357142Y-38761904D01*
X66309523Y-38785714D01*
X66214285Y-38785714D01*
X66166666Y-38761904D01*
X66142857Y-38738095D01*
X66119047Y-38690476D01*
%TO.C,C24*%
X80821428Y-22428571D02*
X80845238Y-22452380D01*
X80916666Y-22476190D01*
X80964285Y-22476190D01*
X81035714Y-22452380D01*
X81083333Y-22404761D01*
X81107142Y-22357142D01*
X81130952Y-22261904D01*
X81130952Y-22190476D01*
X81107142Y-22095238D01*
X81083333Y-22047619D01*
X81035714Y-22000000D01*
X80964285Y-21976190D01*
X80916666Y-21976190D01*
X80845238Y-22000000D01*
X80821428Y-22023809D01*
X80630952Y-22023809D02*
X80607142Y-22000000D01*
X80559523Y-21976190D01*
X80440476Y-21976190D01*
X80392857Y-22000000D01*
X80369047Y-22023809D01*
X80345238Y-22071428D01*
X80345238Y-22119047D01*
X80369047Y-22190476D01*
X80654761Y-22476190D01*
X80345238Y-22476190D01*
X79916666Y-22142857D02*
X79916666Y-22476190D01*
X80035714Y-21952380D02*
X80154761Y-22309523D01*
X79845238Y-22309523D01*
%TO.C,D7*%
X78369047Y-35476190D02*
X78369047Y-34976190D01*
X78250000Y-34976190D01*
X78178571Y-35000000D01*
X78130952Y-35047619D01*
X78107142Y-35095238D01*
X78083333Y-35190476D01*
X78083333Y-35261904D01*
X78107142Y-35357142D01*
X78130952Y-35404761D01*
X78178571Y-35452380D01*
X78250000Y-35476190D01*
X78369047Y-35476190D01*
X77916666Y-34976190D02*
X77583333Y-34976190D01*
X77797619Y-35476190D01*
%TO.C,R15*%
X35921428Y-16476190D02*
X36088095Y-16238095D01*
X36207142Y-16476190D02*
X36207142Y-15976190D01*
X36016666Y-15976190D01*
X35969047Y-16000000D01*
X35945238Y-16023809D01*
X35921428Y-16071428D01*
X35921428Y-16142857D01*
X35945238Y-16190476D01*
X35969047Y-16214285D01*
X36016666Y-16238095D01*
X36207142Y-16238095D01*
X35445238Y-16476190D02*
X35730952Y-16476190D01*
X35588095Y-16476190D02*
X35588095Y-15976190D01*
X35635714Y-16047619D01*
X35683333Y-16095238D01*
X35730952Y-16119047D01*
X34992857Y-15976190D02*
X35230952Y-15976190D01*
X35254761Y-16214285D01*
X35230952Y-16190476D01*
X35183333Y-16166666D01*
X35064285Y-16166666D01*
X35016666Y-16190476D01*
X34992857Y-16214285D01*
X34969047Y-16261904D01*
X34969047Y-16380952D01*
X34992857Y-16428571D01*
X35016666Y-16452380D01*
X35064285Y-16476190D01*
X35183333Y-16476190D01*
X35230952Y-16452380D01*
X35254761Y-16428571D01*
%TO.C,R7*%
X79083333Y-46976190D02*
X79250000Y-46738095D01*
X79369047Y-46976190D02*
X79369047Y-46476190D01*
X79178571Y-46476190D01*
X79130952Y-46500000D01*
X79107142Y-46523809D01*
X79083333Y-46571428D01*
X79083333Y-46642857D01*
X79107142Y-46690476D01*
X79130952Y-46714285D01*
X79178571Y-46738095D01*
X79369047Y-46738095D01*
X78916666Y-46476190D02*
X78583333Y-46476190D01*
X78797619Y-46976190D01*
%TO.C,C26*%
X80821428Y-30928571D02*
X80845238Y-30952380D01*
X80916666Y-30976190D01*
X80964285Y-30976190D01*
X81035714Y-30952380D01*
X81083333Y-30904761D01*
X81107142Y-30857142D01*
X81130952Y-30761904D01*
X81130952Y-30690476D01*
X81107142Y-30595238D01*
X81083333Y-30547619D01*
X81035714Y-30500000D01*
X80964285Y-30476190D01*
X80916666Y-30476190D01*
X80845238Y-30500000D01*
X80821428Y-30523809D01*
X80630952Y-30523809D02*
X80607142Y-30500000D01*
X80559523Y-30476190D01*
X80440476Y-30476190D01*
X80392857Y-30500000D01*
X80369047Y-30523809D01*
X80345238Y-30571428D01*
X80345238Y-30619047D01*
X80369047Y-30690476D01*
X80654761Y-30976190D01*
X80345238Y-30976190D01*
X79916666Y-30476190D02*
X80011904Y-30476190D01*
X80059523Y-30500000D01*
X80083333Y-30523809D01*
X80130952Y-30595238D01*
X80154761Y-30690476D01*
X80154761Y-30880952D01*
X80130952Y-30928571D01*
X80107142Y-30952380D01*
X80059523Y-30976190D01*
X79964285Y-30976190D01*
X79916666Y-30952380D01*
X79892857Y-30928571D01*
X79869047Y-30880952D01*
X79869047Y-30761904D01*
X79892857Y-30714285D01*
X79916666Y-30690476D01*
X79964285Y-30666666D01*
X80059523Y-30666666D01*
X80107142Y-30690476D01*
X80130952Y-30714285D01*
X80154761Y-30761904D01*
%TO.C,C17*%
X81571428Y-33178571D02*
X81595238Y-33202380D01*
X81666666Y-33226190D01*
X81714285Y-33226190D01*
X81785714Y-33202380D01*
X81833333Y-33154761D01*
X81857142Y-33107142D01*
X81880952Y-33011904D01*
X81880952Y-32940476D01*
X81857142Y-32845238D01*
X81833333Y-32797619D01*
X81785714Y-32750000D01*
X81714285Y-32726190D01*
X81666666Y-32726190D01*
X81595238Y-32750000D01*
X81571428Y-32773809D01*
X81095238Y-33226190D02*
X81380952Y-33226190D01*
X81238095Y-33226190D02*
X81238095Y-32726190D01*
X81285714Y-32797619D01*
X81333333Y-32845238D01*
X81380952Y-32869047D01*
X80928571Y-32726190D02*
X80595238Y-32726190D01*
X80809523Y-33226190D01*
%TO.C,C11*%
X92571428Y-43178571D02*
X92595238Y-43202380D01*
X92666666Y-43226190D01*
X92714285Y-43226190D01*
X92785714Y-43202380D01*
X92833333Y-43154761D01*
X92857142Y-43107142D01*
X92880952Y-43011904D01*
X92880952Y-42940476D01*
X92857142Y-42845238D01*
X92833333Y-42797619D01*
X92785714Y-42750000D01*
X92714285Y-42726190D01*
X92666666Y-42726190D01*
X92595238Y-42750000D01*
X92571428Y-42773809D01*
X92095238Y-43226190D02*
X92380952Y-43226190D01*
X92238095Y-43226190D02*
X92238095Y-42726190D01*
X92285714Y-42797619D01*
X92333333Y-42845238D01*
X92380952Y-42869047D01*
X91619047Y-43226190D02*
X91904761Y-43226190D01*
X91761904Y-43226190D02*
X91761904Y-42726190D01*
X91809523Y-42797619D01*
X91857142Y-42845238D01*
X91904761Y-42869047D01*
%TO.C,C23*%
X86821428Y-23178571D02*
X86845238Y-23202380D01*
X86916666Y-23226190D01*
X86964285Y-23226190D01*
X87035714Y-23202380D01*
X87083333Y-23154761D01*
X87107142Y-23107142D01*
X87130952Y-23011904D01*
X87130952Y-22940476D01*
X87107142Y-22845238D01*
X87083333Y-22797619D01*
X87035714Y-22750000D01*
X86964285Y-22726190D01*
X86916666Y-22726190D01*
X86845238Y-22750000D01*
X86821428Y-22773809D01*
X86630952Y-22773809D02*
X86607142Y-22750000D01*
X86559523Y-22726190D01*
X86440476Y-22726190D01*
X86392857Y-22750000D01*
X86369047Y-22773809D01*
X86345238Y-22821428D01*
X86345238Y-22869047D01*
X86369047Y-22940476D01*
X86654761Y-23226190D01*
X86345238Y-23226190D01*
X86178571Y-22726190D02*
X85869047Y-22726190D01*
X86035714Y-22916666D01*
X85964285Y-22916666D01*
X85916666Y-22940476D01*
X85892857Y-22964285D01*
X85869047Y-23011904D01*
X85869047Y-23130952D01*
X85892857Y-23178571D01*
X85916666Y-23202380D01*
X85964285Y-23226190D01*
X86107142Y-23226190D01*
X86154761Y-23202380D01*
X86178571Y-23178571D01*
%TO.C,C9*%
X84333333Y-32678571D02*
X84357142Y-32702380D01*
X84428571Y-32726190D01*
X84476190Y-32726190D01*
X84547619Y-32702380D01*
X84595238Y-32654761D01*
X84619047Y-32607142D01*
X84642857Y-32511904D01*
X84642857Y-32440476D01*
X84619047Y-32345238D01*
X84595238Y-32297619D01*
X84547619Y-32250000D01*
X84476190Y-32226190D01*
X84428571Y-32226190D01*
X84357142Y-32250000D01*
X84333333Y-32273809D01*
X84095238Y-32726190D02*
X84000000Y-32726190D01*
X83952380Y-32702380D01*
X83928571Y-32678571D01*
X83880952Y-32607142D01*
X83857142Y-32511904D01*
X83857142Y-32321428D01*
X83880952Y-32273809D01*
X83904761Y-32250000D01*
X83952380Y-32226190D01*
X84047619Y-32226190D01*
X84095238Y-32250000D01*
X84119047Y-32273809D01*
X84142857Y-32321428D01*
X84142857Y-32440476D01*
X84119047Y-32488095D01*
X84095238Y-32511904D01*
X84047619Y-32535714D01*
X83952380Y-32535714D01*
X83904761Y-32511904D01*
X83880952Y-32488095D01*
X83857142Y-32440476D01*
D13*
%TO.C,U10*%
X43200000Y-24832690D02*
X43200000Y-30832690D01*
X20800000Y-24832690D02*
X43200000Y-24832690D01*
X20800000Y-30832690D02*
X20800000Y-24832690D01*
G36*
X22000000Y-28700000D02*
G01*
X21700000Y-28700000D01*
X21700000Y-28000000D01*
X22000000Y-28000000D01*
X22000000Y-28700000D01*
G37*
D14*
X22000000Y-28700000D02*
X21700000Y-28700000D01*
X21700000Y-28000000D01*
X22000000Y-28000000D01*
X22000000Y-28700000D01*
D15*
%TO.C,J3*%
X25953085Y-60075246D02*
X25953085Y-49075246D01*
X17953085Y-60075246D02*
X25953085Y-60075246D01*
X17953085Y-49075246D02*
X17953085Y-60075246D01*
X17951835Y-49074529D02*
G75*
G02*
X25953084Y-49075245I4001250J6999283D01*
G01*
%TO.C,J2*%
X37953085Y-49075246D02*
X37953085Y-60075246D01*
X45953085Y-60075246D02*
X45953085Y-49075246D01*
X37953085Y-60075246D02*
X45953085Y-60075246D01*
X37951835Y-49074529D02*
G75*
G02*
X45953084Y-49075245I4001250J6999283D01*
G01*
D13*
%TO.C,TP3*%
X92700000Y-34000000D02*
G75*
G03*
X92700000Y-34000000I-700000J0D01*
G01*
%TO.C,C32*%
X38741422Y-15710000D02*
X39258578Y-15710000D01*
X38741422Y-14290000D02*
X39258578Y-14290000D01*
%TO.C,TP6*%
X92700000Y-32000000D02*
G75*
G03*
X92700000Y-32000000I-700000J0D01*
G01*
%TO.C,D6*%
X78250000Y-41650000D02*
X80800000Y-41650000D01*
X78250000Y-43350000D02*
X78250000Y-41650000D01*
X78250000Y-43350000D02*
X80800000Y-43350000D01*
%TO.C,R14*%
X53510000Y-20258578D02*
X53510000Y-19741422D01*
X52090000Y-20258578D02*
X52090000Y-19741422D01*
%TO.C,TP1*%
X88700000Y-34000000D02*
G75*
G03*
X88700000Y-34000000I-700000J0D01*
G01*
%TO.C,C3*%
X95508578Y-43290000D02*
X94991422Y-43290000D01*
X95508578Y-44710000D02*
X94991422Y-44710000D01*
%TO.C,C8*%
X82611422Y-50710000D02*
X83128578Y-50710000D01*
X82611422Y-49290000D02*
X83128578Y-49290000D01*
%TO.C,C2*%
X98290000Y-32241422D02*
X98290000Y-32758578D01*
X99710000Y-32241422D02*
X99710000Y-32758578D01*
%TO.C,TP2*%
X90700000Y-34000000D02*
G75*
G03*
X90700000Y-34000000I-700000J0D01*
G01*
%TO.C,R11*%
X103710000Y-30741422D02*
X103710000Y-31258578D01*
X102290000Y-30741422D02*
X102290000Y-31258578D01*
%TO.C,R4*%
X102290000Y-37258578D02*
X102290000Y-36741422D01*
X103710000Y-37258578D02*
X103710000Y-36741422D01*
%TO.C,C34*%
X42658578Y-14290000D02*
X42141422Y-14290000D01*
X42658578Y-15710000D02*
X42141422Y-15710000D01*
%TO.C,D5*%
X85000000Y-39850000D02*
X87550000Y-39850000D01*
X85000000Y-38150000D02*
X87550000Y-38150000D01*
X85000000Y-39850000D02*
X85000000Y-38150000D01*
%TO.C,C15*%
X79040000Y-35741422D02*
X79040000Y-36258578D01*
X80460000Y-35741422D02*
X80460000Y-36258578D01*
%TO.C,C31*%
X24991422Y-15710000D02*
X25508578Y-15710000D01*
X24991422Y-14290000D02*
X25508578Y-14290000D01*
%TO.C,C10*%
X99710000Y-36758578D02*
X99710000Y-36241422D01*
X98290000Y-36758578D02*
X98290000Y-36241422D01*
%TO.C,R5*%
X50090000Y-20258578D02*
X50090000Y-19741422D01*
X51510000Y-20258578D02*
X51510000Y-19741422D01*
%TO.C,C14*%
X75160000Y-52541422D02*
X75160000Y-53058578D01*
X76580000Y-52541422D02*
X76580000Y-53058578D01*
%TO.C,R2*%
X108210000Y-24741422D02*
X108210000Y-25258578D01*
X106790000Y-24741422D02*
X106790000Y-25258578D01*
%TO.C,TP5*%
X90700000Y-32000000D02*
G75*
G03*
X90700000Y-32000000I-700000J0D01*
G01*
%TO.C,R3*%
X99960000Y-41258578D02*
X99960000Y-40741422D01*
X98540000Y-41258578D02*
X98540000Y-40741422D01*
%TO.C,R12*%
X86361422Y-49290000D02*
X86878578Y-49290000D01*
X86361422Y-50710000D02*
X86878578Y-50710000D01*
%TO.C,C33*%
X22058578Y-14290000D02*
X21541422Y-14290000D01*
X22058578Y-15710000D02*
X21541422Y-15710000D01*
%TO.C,C22*%
X85790000Y-24741422D02*
X85790000Y-25258578D01*
X87210000Y-24741422D02*
X87210000Y-25258578D01*
%TO.C,C13*%
X78611422Y-50710000D02*
X79128578Y-50710000D01*
X78611422Y-49290000D02*
X79128578Y-49290000D01*
%TO.C,R1*%
X100210000Y-24741422D02*
X100210000Y-25258578D01*
X98790000Y-24741422D02*
X98790000Y-25258578D01*
%TO.C,C21*%
X71210000Y-29758578D02*
X71210000Y-29241422D01*
X69790000Y-29758578D02*
X69790000Y-29241422D01*
%TO.C,C19*%
X67008578Y-36790000D02*
X66491422Y-36790000D01*
X67008578Y-38210000D02*
X66491422Y-38210000D01*
%TO.C,C24*%
X80758578Y-22790000D02*
X80241422Y-22790000D01*
X80758578Y-24210000D02*
X80241422Y-24210000D01*
%TO.C,D7*%
X78850000Y-31750000D02*
X78850000Y-34300000D01*
X77150000Y-31750000D02*
X77150000Y-34300000D01*
X77150000Y-31750000D02*
X78850000Y-31750000D01*
%TO.C,R15*%
X35341422Y-15710000D02*
X35858578Y-15710000D01*
X35341422Y-14290000D02*
X35858578Y-14290000D01*
%TO.C,R7*%
X79128578Y-48460000D02*
X78611422Y-48460000D01*
X79128578Y-47040000D02*
X78611422Y-47040000D01*
%TO.C,TP4*%
X88700000Y-32000000D02*
G75*
G03*
X88700000Y-32000000I-700000J0D01*
G01*
%TO.C,C26*%
X80241422Y-30210000D02*
X80758578Y-30210000D01*
X80241422Y-28790000D02*
X80758578Y-28790000D01*
%TO.C,C17*%
X83241422Y-33710000D02*
X83758578Y-33710000D01*
X83241422Y-32290000D02*
X83758578Y-32290000D01*
%TO.C,C11*%
X92960000Y-41258578D02*
X92960000Y-40741422D01*
X91540000Y-41258578D02*
X91540000Y-40741422D01*
%TO.C,C23*%
X83790000Y-25258578D02*
X83790000Y-24741422D01*
X85210000Y-25258578D02*
X85210000Y-24741422D01*
%TO.C,C9*%
X83540000Y-29741422D02*
X83540000Y-30258578D01*
X84960000Y-29741422D02*
X84960000Y-30258578D01*
%TD*%
M02*
