M48
; DRILL file {KiCad (5.99.0-2671-gfc0a358ba)} date Tuesday, August 25, 2020 at 04:55:37 PM
; FORMAT={-:-/ absolute / inch / decimal}
; #@! TF.CreationDate,2020-08-25T16:55:37+05:30
; #@! TF.GenerationSoftware,Kicad,Pcbnew,(5.99.0-2671-gfc0a358ba)
; #@! TF.FileFunction,Plated,1,2,PTH
FMAT,2
INCH
T1C0.0138
T2C0.0197
T3C0.0236
T4C0.0276
T5C0.0394
T6C0.0591
T7C0.0866
T8C0.1378
%
G90
G05
T1
X2.374Y-2.2598
X2.4764Y-0.5906
X2.6575Y-1.3268
X2.7244Y-1.1969
X2.9528Y-0.5906
X2.9886Y-1.3129
X3.0984Y-1.6114
X3.1811Y-1.4528
X3.2087Y-1.126
X3.2362Y-1.2205
X3.248Y-0.9646
X3.3228Y-1.3465
X3.3661Y-1.2638
X3.4252Y-0.5906
X3.4606Y-0.9843
X3.4646Y-1.0236
X3.5079Y-1.3819
X3.5433Y-1.3386
X3.5591Y-0.6535
X3.5591Y-0.7168
X3.5827Y-0.6535
X3.5827Y-0.7168
X3.5866Y-1.189
X3.5945Y-1.4012
X3.6772Y-1.5748
X3.7047Y-1.2874
X3.705Y-1.2515
X3.7087Y-1.2205
X3.7126Y-1.6929
X3.7209Y-1.3161
X3.7323Y-1.0236
X3.748Y-1.0039
X3.8307Y-1.4016
X3.8583Y-0.5906
X3.9213Y-1.1772
X3.937Y-1.2165
X3.9567Y-0.9472
X3.9606Y-1.6535
X4.0551Y-1.2205
X4.0551Y-1.3858
X4.0984Y-1.5433
X4.1929Y-0.9472
T2
X3.0354Y-2.1142
X3.1299Y-0.9685
X3.2874Y-2.0197
X3.3346Y-2.0197
X3.4173Y-1.8504
X3.4488Y-1.4843
X3.5Y-1.9685
T4
X0.5315Y-0.7087
X0.5315Y-0.7874
X0.5315Y-0.8661
X0.5315Y-0.9449
X0.5315Y-1.0236
X0.5315Y-1.1024
X0.5315Y-1.1811
X0.5315Y-1.2598
X0.5315Y-1.3386
X0.5315Y-1.4173
X0.5315Y-1.5157
X0.5315Y-1.5945
X0.5315Y-1.6732
X0.5315Y-1.752
X0.5315Y-1.8307
X0.5315Y-1.9094
X0.5315Y-1.9882
X0.5315Y-2.0669
X0.5315Y-2.1457
X0.5315Y-2.2244
X0.689Y-2.4016
X0.7087Y-0.5315
X0.7677Y-2.4016
X0.7874Y-0.5315
X0.8465Y-2.4016
X0.8661Y-0.5315
X0.9252Y-2.4016
X0.9449Y-0.5315
X1.0039Y-2.4016
X1.0236Y-0.5315
X1.0827Y-2.4016
X1.1024Y-0.5315
X1.1614Y-2.4016
X1.1811Y-0.5315
X1.2402Y-2.4016
X1.2598Y-0.5315
X1.3189Y-2.4016
X1.3386Y-0.5315
X1.3976Y-2.4016
X1.4173Y-0.5315
X1.4764Y-2.4016
X1.4961Y-0.5315
X1.5551Y-2.4016
X1.5748Y-0.5315
X1.6339Y-2.4016
X1.6535Y-0.5315
X1.7126Y-2.4016
X1.7323Y-0.5315
X1.7913Y-2.4016
X1.811Y-0.5315
X1.8701Y-2.4016
X1.8898Y-0.5315
X1.9488Y-2.4016
X1.9685Y-0.5315
X2.0276Y-2.4016
X2.0472Y-0.5315
X2.1063Y-2.4016
X2.126Y-0.5315
X2.185Y-2.4016
X2.2638Y-2.4016
X2.3425Y-2.4016
X2.4213Y-2.4016
X2.5Y-2.4016
X2.5787Y-2.4016
X2.5906Y-1.4213
X2.6378Y-0.748
X2.6575Y-2.4016
X2.7362Y-2.4016
X2.815Y-0.6299
X2.815Y-2.4016
X2.8937Y-2.4016
X2.9724Y-2.4016
X3.0512Y-2.4016
X3.1102Y-0.748
X3.1299Y-2.4016
X3.2087Y-2.4016
X3.2874Y-0.6299
X3.2874Y-2.4016
X3.3661Y-2.4016
X3.4449Y-2.4016
X3.5039Y-0.6299
X3.5236Y-2.4016
X3.5433Y-0.5315
X3.6024Y-2.4016
X3.622Y-0.5315
X3.6811Y-2.4016
X3.7008Y-0.5315
X3.7598Y-0.6299
X3.7598Y-2.4016
X3.7795Y-0.5315
X3.8386Y-2.4016
X3.8583Y-0.5315
X3.9173Y-2.4016
X3.937Y-0.5315
X3.9961Y-2.4016
X4.0157Y-0.5315
X4.0157Y-0.748
X4.0748Y-2.4016
X4.0945Y-0.5315
X4.1535Y-2.4016
X4.1732Y-0.5315
X4.1929Y-0.6299
X4.2323Y-2.4016
X4.3701Y-0.7283
X4.3701Y-0.8071
X4.3701Y-0.8858
X4.3701Y-0.9646
X4.3701Y-1.0433
X4.3701Y-1.122
X4.3701Y-1.2795
X4.3701Y-1.3583
X4.3701Y-1.437
X4.3701Y-1.6732
X4.3701Y-1.752
X4.3701Y-1.8307
X4.3701Y-1.9094
X4.3701Y-2.2244
T5
X2.2047Y-0.5906
X2.2047Y-0.6906
X2.2047Y-0.7906
X2.2047Y-0.8906
X0.8661Y-0.5906
X0.8661Y-0.6906
X0.8661Y-0.7906
X0.8661Y-0.8906
T6
X3.8976Y-2.126
X4.0945Y-2.126
T7
X4.2913Y-0.5906
X4.2913Y-2.3228
X0.5906Y-2.3228
X0.5906Y-0.5906
T8
X1.6535Y-1.6535
X0.8661Y-1.6535
T3
G00X4.1661Y-1.1685
M15
G01X4.2094Y-1.1685
M16
G05
G00X4.1661Y-1.5087
M15
G01X4.2094Y-1.5087
M16
G05
G00X4.3406Y-1.1685
M15
G01X4.3642Y-1.1685
M16
G05
G00X4.3406Y-1.5087
M15
G01X4.3642Y-1.5087
M16
G05
T0
M30
