%TF.GenerationSoftware,KiCad,Pcbnew,(5.99.0-2671-gfc0a358ba)*%
%TF.CreationDate,2020-08-25T16:55:36+05:30*%
%TF.ProjectId,Power_Supply,506f7765-725f-4537-9570-706c792e6b69,rev?*%
%TF.SameCoordinates,Original*%
%TF.FileFunction,Legend,Top*%
%TF.FilePolarity,Positive*%
%FSLAX46Y46*%
G04 Gerber Fmt 4.6, Leading zero omitted, Abs format (unit mm)*
G04 Created by KiCad (PCBNEW (5.99.0-2671-gfc0a358ba)) date 2020-08-25 16:55:36*
%MOMM*%
%LPD*%
G01*
G04 APERTURE LIST*
%ADD10C,0.075000*%
%ADD11C,0.500000*%
%ADD12C,0.150000*%
%ADD13C,0.100000*%
%ADD14C,0.120000*%
G04 APERTURE END LIST*
D10*
X31655327Y-32785714D02*
X31554136Y-33595238D01*
X31494613Y-33690476D01*
X31441041Y-33738095D01*
X31339851Y-33785714D01*
X31196994Y-33785714D01*
X31107708Y-33738095D01*
X31577946Y-33404761D02*
X31476755Y-33452380D01*
X31286279Y-33452380D01*
X31196994Y-33404761D01*
X31155327Y-33357142D01*
X31119613Y-33261904D01*
X31155327Y-32976190D01*
X31214851Y-32880952D01*
X31268422Y-32833333D01*
X31369613Y-32785714D01*
X31560089Y-32785714D01*
X31649375Y-32833333D01*
X32048184Y-33452380D02*
X32131517Y-32785714D01*
X32173184Y-32452380D02*
X32119613Y-32500000D01*
X32161279Y-32547619D01*
X32214851Y-32500000D01*
X32173184Y-32452380D01*
X32161279Y-32547619D01*
X32464851Y-32785714D02*
X32845803Y-32785714D01*
X32649375Y-32452380D02*
X32542232Y-33309523D01*
X32577946Y-33404761D01*
X32667232Y-33452380D01*
X32762470Y-33452380D01*
X33095803Y-33452380D02*
X33220803Y-32452380D01*
X33524375Y-33452380D02*
X33589851Y-32928571D01*
X33554136Y-32833333D01*
X33464851Y-32785714D01*
X33321994Y-32785714D01*
X33220803Y-32833333D01*
X33167232Y-32880952D01*
X34512470Y-32785714D02*
X34429136Y-33452380D01*
X34083898Y-32785714D02*
X34018422Y-33309523D01*
X34054136Y-33404761D01*
X34143422Y-33452380D01*
X34286279Y-33452380D01*
X34387470Y-33404761D01*
X34441041Y-33357142D01*
X34905327Y-33452380D02*
X35030327Y-32452380D01*
X34982708Y-32833333D02*
X35083898Y-32785714D01*
X35274375Y-32785714D01*
X35363660Y-32833333D01*
X35405327Y-32880952D01*
X35441041Y-32976190D01*
X35405327Y-33261904D01*
X35345803Y-33357142D01*
X35292232Y-33404761D01*
X35191041Y-33452380D01*
X35000565Y-33452380D01*
X34911279Y-33404761D01*
X35821994Y-33357142D02*
X35863660Y-33404761D01*
X35810089Y-33452380D01*
X35768422Y-33404761D01*
X35821994Y-33357142D01*
X35810089Y-33452380D01*
X36720803Y-33404761D02*
X36619613Y-33452380D01*
X36429136Y-33452380D01*
X36339851Y-33404761D01*
X36298184Y-33357142D01*
X36262470Y-33261904D01*
X36298184Y-32976190D01*
X36357708Y-32880952D01*
X36411279Y-32833333D01*
X36512470Y-32785714D01*
X36702946Y-32785714D01*
X36792232Y-32833333D01*
X37286279Y-33452380D02*
X37196994Y-33404761D01*
X37155327Y-33357142D01*
X37119613Y-33261904D01*
X37155327Y-32976190D01*
X37214851Y-32880952D01*
X37268422Y-32833333D01*
X37369613Y-32785714D01*
X37512470Y-32785714D01*
X37601755Y-32833333D01*
X37643422Y-32880952D01*
X37679136Y-32976190D01*
X37643422Y-33261904D01*
X37583898Y-33357142D01*
X37530327Y-33404761D01*
X37429136Y-33452380D01*
X37286279Y-33452380D01*
X38048184Y-33452380D02*
X38131517Y-32785714D01*
X38119613Y-32880952D02*
X38173184Y-32833333D01*
X38274375Y-32785714D01*
X38417232Y-32785714D01*
X38506517Y-32833333D01*
X38542232Y-32928571D01*
X38476755Y-33452380D01*
X38542232Y-32928571D02*
X38601755Y-32833333D01*
X38702946Y-32785714D01*
X38845803Y-32785714D01*
X38935089Y-32833333D01*
X38970803Y-32928571D01*
X38905327Y-33452380D01*
X40226755Y-32404761D02*
X39208898Y-33690476D01*
X40857708Y-33452380D02*
X40923184Y-32928571D01*
X40887470Y-32833333D01*
X40798184Y-32785714D01*
X40607708Y-32785714D01*
X40506517Y-32833333D01*
X40863660Y-33404761D02*
X40762470Y-33452380D01*
X40524375Y-33452380D01*
X40435089Y-33404761D01*
X40399375Y-33309523D01*
X40411279Y-33214285D01*
X40470803Y-33119047D01*
X40571994Y-33071428D01*
X40810089Y-33071428D01*
X40911279Y-33023809D01*
X41762470Y-33452380D02*
X41887470Y-32452380D01*
X41768422Y-33404761D02*
X41667232Y-33452380D01*
X41476755Y-33452380D01*
X41387470Y-33404761D01*
X41345803Y-33357142D01*
X41310089Y-33261904D01*
X41345803Y-32976190D01*
X41405327Y-32880952D01*
X41458898Y-32833333D01*
X41560089Y-32785714D01*
X41750565Y-32785714D01*
X41839851Y-32833333D01*
X42196994Y-33404761D02*
X42286279Y-33452380D01*
X42476755Y-33452380D01*
X42577946Y-33404761D01*
X42637470Y-33309523D01*
X42643422Y-33261904D01*
X42607708Y-33166666D01*
X42518422Y-33119047D01*
X42375565Y-33119047D01*
X42286279Y-33071428D01*
X42250565Y-32976190D01*
X42256517Y-32928571D01*
X42316041Y-32833333D01*
X42417232Y-32785714D01*
X42560089Y-32785714D01*
X42649375Y-32833333D01*
X43435089Y-33404761D02*
X43333898Y-33452380D01*
X43143422Y-33452380D01*
X43054136Y-33404761D01*
X43018422Y-33309523D01*
X43066041Y-32928571D01*
X43125565Y-32833333D01*
X43226755Y-32785714D01*
X43417232Y-32785714D01*
X43506517Y-32833333D01*
X43542232Y-32928571D01*
X43530327Y-33023809D01*
X43042232Y-33119047D01*
X43905327Y-33452380D02*
X44030327Y-32452380D01*
X44333898Y-33452380D02*
X44399375Y-32928571D01*
X44363660Y-32833333D01*
X44274375Y-32785714D01*
X44131517Y-32785714D01*
X44030327Y-32833333D01*
X43976755Y-32880952D01*
X45321994Y-32785714D02*
X45220803Y-33595238D01*
X45161279Y-33690476D01*
X45107708Y-33738095D01*
X45006517Y-33785714D01*
X44863660Y-33785714D01*
X44774375Y-33738095D01*
X45244613Y-33404761D02*
X45143422Y-33452380D01*
X44952946Y-33452380D01*
X44863660Y-33404761D01*
X44821994Y-33357142D01*
X44786279Y-33261904D01*
X44821994Y-32976190D01*
X44881517Y-32880952D01*
X44935089Y-32833333D01*
X45036279Y-32785714D01*
X45226755Y-32785714D01*
X45316041Y-32833333D01*
X46143422Y-33452380D02*
X46208898Y-32928571D01*
X46173184Y-32833333D01*
X46083898Y-32785714D01*
X45893422Y-32785714D01*
X45792232Y-32833333D01*
X46149375Y-33404761D02*
X46048184Y-33452380D01*
X45810089Y-33452380D01*
X45720803Y-33404761D01*
X45685089Y-33309523D01*
X45696994Y-33214285D01*
X45756517Y-33119047D01*
X45857708Y-33071428D01*
X46095803Y-33071428D01*
X46196994Y-33023809D01*
X46762470Y-33452380D02*
X46673184Y-33404761D01*
X46637470Y-33309523D01*
X46744613Y-32452380D01*
D11*
X36476190Y-51904761D02*
X36666666Y-51904761D01*
X36857142Y-52000000D01*
X36952380Y-52095238D01*
X37047619Y-52285714D01*
X37142857Y-52666666D01*
X37142857Y-53142857D01*
X37047619Y-53523809D01*
X36952380Y-53714285D01*
X36857142Y-53809523D01*
X36666666Y-53904761D01*
X36476190Y-53904761D01*
X36285714Y-53809523D01*
X36190476Y-53714285D01*
X36095238Y-53523809D01*
X36000000Y-53142857D01*
X36000000Y-52666666D01*
X36095238Y-52285714D01*
X36190476Y-52095238D01*
X36285714Y-52000000D01*
X36476190Y-51904761D01*
X38000000Y-53714285D02*
X38095238Y-53809523D01*
X38000000Y-53904761D01*
X37904761Y-53809523D01*
X38000000Y-53714285D01*
X38000000Y-53904761D01*
X39238095Y-52761904D02*
X39047619Y-52666666D01*
X38952380Y-52571428D01*
X38857142Y-52380952D01*
X38857142Y-52285714D01*
X38952380Y-52095238D01*
X39047619Y-52000000D01*
X39238095Y-51904761D01*
X39619047Y-51904761D01*
X39809523Y-52000000D01*
X39904761Y-52095238D01*
X40000000Y-52285714D01*
X40000000Y-52380952D01*
X39904761Y-52571428D01*
X39809523Y-52666666D01*
X39619047Y-52761904D01*
X39238095Y-52761904D01*
X39047619Y-52857142D01*
X38952380Y-52952380D01*
X38857142Y-53142857D01*
X38857142Y-53523809D01*
X38952380Y-53714285D01*
X39047619Y-53809523D01*
X39238095Y-53904761D01*
X39619047Y-53904761D01*
X39809523Y-53809523D01*
X39904761Y-53714285D01*
X40000000Y-53523809D01*
X40000000Y-53142857D01*
X39904761Y-52952380D01*
X39809523Y-52857142D01*
X39619047Y-52761904D01*
X40857142Y-53142857D02*
X42380952Y-53142857D01*
X44380952Y-53904761D02*
X43238095Y-53904761D01*
X43809523Y-53904761D02*
X43809523Y-51904761D01*
X43619047Y-52190476D01*
X43428571Y-52380952D01*
X43238095Y-52476190D01*
X45142857Y-52095238D02*
X45238095Y-52000000D01*
X45428571Y-51904761D01*
X45904761Y-51904761D01*
X46095238Y-52000000D01*
X46190476Y-52095238D01*
X46285714Y-52285714D01*
X46285714Y-52476190D01*
X46190476Y-52761904D01*
X45047619Y-53904761D01*
X46285714Y-53904761D01*
X46857142Y-51904761D02*
X47523809Y-53904761D01*
X48190476Y-51904761D01*
X20476190Y-52000000D02*
X20285714Y-51904761D01*
X20000000Y-51904761D01*
X19714285Y-52000000D01*
X19523809Y-52190476D01*
X19428571Y-52380952D01*
X19333333Y-52761904D01*
X19333333Y-53047619D01*
X19428571Y-53428571D01*
X19523809Y-53619047D01*
X19714285Y-53809523D01*
X20000000Y-53904761D01*
X20190476Y-53904761D01*
X20476190Y-53809523D01*
X20571428Y-53714285D01*
X20571428Y-53047619D01*
X20190476Y-53047619D01*
X21428571Y-53904761D02*
X21428571Y-51904761D01*
X22571428Y-53904761D01*
X22571428Y-51904761D01*
X23523809Y-53904761D02*
X23523809Y-51904761D01*
X24000000Y-51904761D01*
X24285714Y-52000000D01*
X24476190Y-52190476D01*
X24571428Y-52380952D01*
X24666666Y-52761904D01*
X24666666Y-53047619D01*
X24571428Y-53428571D01*
X24476190Y-53619047D01*
X24285714Y-53809523D01*
X24000000Y-53904761D01*
X23523809Y-53904761D01*
D12*
X96476190Y-56618928D02*
X97238095Y-56618928D01*
X96857142Y-56999880D02*
X96857142Y-56237976D01*
X98238095Y-56999880D02*
X97666666Y-56999880D01*
X97952380Y-56999880D02*
X97952380Y-55999880D01*
X97857142Y-56142738D01*
X97761904Y-56237976D01*
X97666666Y-56285595D01*
X98619047Y-56095119D02*
X98666666Y-56047500D01*
X98761904Y-55999880D01*
X99000000Y-55999880D01*
X99095238Y-56047500D01*
X99142857Y-56095119D01*
X99190476Y-56190357D01*
X99190476Y-56285595D01*
X99142857Y-56428452D01*
X98571428Y-56999880D01*
X99190476Y-56999880D01*
X99476190Y-55999880D02*
X99809523Y-56999880D01*
X100142857Y-55999880D01*
X101476190Y-57333214D02*
X101476190Y-55904642D01*
X103476190Y-56047500D02*
X103380952Y-55999880D01*
X103238095Y-55999880D01*
X103095238Y-56047500D01*
X103000000Y-56142738D01*
X102952380Y-56237976D01*
X102904761Y-56428452D01*
X102904761Y-56571309D01*
X102952380Y-56761785D01*
X103000000Y-56857023D01*
X103095238Y-56952261D01*
X103238095Y-56999880D01*
X103333333Y-56999880D01*
X103476190Y-56952261D01*
X103523809Y-56904642D01*
X103523809Y-56571309D01*
X103333333Y-56571309D01*
X103952380Y-56999880D02*
X103952380Y-55999880D01*
X104523809Y-56999880D01*
X104523809Y-55999880D01*
X105000000Y-56999880D02*
X105000000Y-55999880D01*
X105238095Y-55999880D01*
X105380952Y-56047500D01*
X105476190Y-56142738D01*
X105523809Y-56237976D01*
X105571428Y-56428452D01*
X105571428Y-56571309D01*
X105523809Y-56761785D01*
X105476190Y-56857023D01*
X105380952Y-56952261D01*
X105238095Y-56999880D01*
X105000000Y-56999880D01*
D13*
%TO.C,U2*%
X91119047Y-38476190D02*
X91119047Y-38880952D01*
X91142857Y-38928571D01*
X91166666Y-38952380D01*
X91214285Y-38976190D01*
X91309523Y-38976190D01*
X91357142Y-38952380D01*
X91380952Y-38928571D01*
X91404761Y-38880952D01*
X91404761Y-38476190D01*
X91619047Y-38523809D02*
X91642857Y-38500000D01*
X91690476Y-38476190D01*
X91809523Y-38476190D01*
X91857142Y-38500000D01*
X91880952Y-38523809D01*
X91904761Y-38571428D01*
X91904761Y-38619047D01*
X91880952Y-38690476D01*
X91595238Y-38976190D01*
X91904761Y-38976190D01*
%TO.C,H3*%
X108619047Y-59226190D02*
X108619047Y-58726190D01*
X108619047Y-58964285D02*
X108904761Y-58964285D01*
X108904761Y-59226190D02*
X108904761Y-58726190D01*
X109095238Y-58726190D02*
X109404761Y-58726190D01*
X109238095Y-58916666D01*
X109309523Y-58916666D01*
X109357142Y-58940476D01*
X109380952Y-58964285D01*
X109404761Y-59011904D01*
X109404761Y-59130952D01*
X109380952Y-59178571D01*
X109357142Y-59202380D01*
X109309523Y-59226190D01*
X109166666Y-59226190D01*
X109119047Y-59202380D01*
X109095238Y-59178571D01*
%TO.C,H2*%
X108619047Y-15226190D02*
X108619047Y-14726190D01*
X108619047Y-14964285D02*
X108904761Y-14964285D01*
X108904761Y-15226190D02*
X108904761Y-14726190D01*
X109119047Y-14773809D02*
X109142857Y-14750000D01*
X109190476Y-14726190D01*
X109309523Y-14726190D01*
X109357142Y-14750000D01*
X109380952Y-14773809D01*
X109404761Y-14821428D01*
X109404761Y-14869047D01*
X109380952Y-14940476D01*
X109095238Y-15226190D01*
X109404761Y-15226190D01*
%TO.C,R20*%
X72678571Y-30976190D02*
X72511904Y-30738095D01*
X72392857Y-30976190D02*
X72392857Y-30476190D01*
X72583333Y-30476190D01*
X72630952Y-30500000D01*
X72654761Y-30523809D01*
X72678571Y-30571428D01*
X72678571Y-30642857D01*
X72654761Y-30690476D01*
X72630952Y-30714285D01*
X72583333Y-30738095D01*
X72392857Y-30738095D01*
X72869047Y-30523809D02*
X72892857Y-30500000D01*
X72940476Y-30476190D01*
X73059523Y-30476190D01*
X73107142Y-30500000D01*
X73130952Y-30523809D01*
X73154761Y-30571428D01*
X73154761Y-30619047D01*
X73130952Y-30690476D01*
X72845238Y-30976190D01*
X73154761Y-30976190D01*
X73464285Y-30476190D02*
X73511904Y-30476190D01*
X73559523Y-30500000D01*
X73583333Y-30523809D01*
X73607142Y-30571428D01*
X73630952Y-30666666D01*
X73630952Y-30785714D01*
X73607142Y-30880952D01*
X73583333Y-30928571D01*
X73559523Y-30952380D01*
X73511904Y-30976190D01*
X73464285Y-30976190D01*
X73416666Y-30952380D01*
X73392857Y-30928571D01*
X73369047Y-30880952D01*
X73345238Y-30785714D01*
X73345238Y-30666666D01*
X73369047Y-30571428D01*
X73392857Y-30523809D01*
X73416666Y-30500000D01*
X73464285Y-30476190D01*
%TO.C,C6*%
X75666666Y-58928571D02*
X75642857Y-58952380D01*
X75571428Y-58976190D01*
X75523809Y-58976190D01*
X75452380Y-58952380D01*
X75404761Y-58904761D01*
X75380952Y-58857142D01*
X75357142Y-58761904D01*
X75357142Y-58690476D01*
X75380952Y-58595238D01*
X75404761Y-58547619D01*
X75452380Y-58500000D01*
X75523809Y-58476190D01*
X75571428Y-58476190D01*
X75642857Y-58500000D01*
X75666666Y-58523809D01*
X76095238Y-58476190D02*
X76000000Y-58476190D01*
X75952380Y-58500000D01*
X75928571Y-58523809D01*
X75880952Y-58595238D01*
X75857142Y-58690476D01*
X75857142Y-58880952D01*
X75880952Y-58928571D01*
X75904761Y-58952380D01*
X75952380Y-58976190D01*
X76047619Y-58976190D01*
X76095238Y-58952380D01*
X76119047Y-58928571D01*
X76142857Y-58880952D01*
X76142857Y-58761904D01*
X76119047Y-58714285D01*
X76095238Y-58690476D01*
X76047619Y-58666666D01*
X75952380Y-58666666D01*
X75904761Y-58690476D01*
X75880952Y-58714285D01*
X75857142Y-58761904D01*
%TO.C,J4*%
X97583333Y-59726190D02*
X97583333Y-60083333D01*
X97559523Y-60154761D01*
X97511904Y-60202380D01*
X97440476Y-60226190D01*
X97392857Y-60226190D01*
X98035714Y-59892857D02*
X98035714Y-60226190D01*
X97916666Y-59702380D02*
X97797619Y-60059523D01*
X98107142Y-60059523D01*
%TO.C,R16*%
X62678571Y-29226190D02*
X62511904Y-28988095D01*
X62392857Y-29226190D02*
X62392857Y-28726190D01*
X62583333Y-28726190D01*
X62630952Y-28750000D01*
X62654761Y-28773809D01*
X62678571Y-28821428D01*
X62678571Y-28892857D01*
X62654761Y-28940476D01*
X62630952Y-28964285D01*
X62583333Y-28988095D01*
X62392857Y-28988095D01*
X63154761Y-29226190D02*
X62869047Y-29226190D01*
X63011904Y-29226190D02*
X63011904Y-28726190D01*
X62964285Y-28797619D01*
X62916666Y-28845238D01*
X62869047Y-28869047D01*
X63583333Y-28726190D02*
X63488095Y-28726190D01*
X63440476Y-28750000D01*
X63416666Y-28773809D01*
X63369047Y-28845238D01*
X63345238Y-28940476D01*
X63345238Y-29130952D01*
X63369047Y-29178571D01*
X63392857Y-29202380D01*
X63440476Y-29226190D01*
X63535714Y-29226190D01*
X63583333Y-29202380D01*
X63607142Y-29178571D01*
X63630952Y-29130952D01*
X63630952Y-29011904D01*
X63607142Y-28964285D01*
X63583333Y-28940476D01*
X63535714Y-28916666D01*
X63440476Y-28916666D01*
X63392857Y-28940476D01*
X63369047Y-28964285D01*
X63345238Y-29011904D01*
%TO.C,C18*%
X58678571Y-56178571D02*
X58654761Y-56202380D01*
X58583333Y-56226190D01*
X58535714Y-56226190D01*
X58464285Y-56202380D01*
X58416666Y-56154761D01*
X58392857Y-56107142D01*
X58369047Y-56011904D01*
X58369047Y-55940476D01*
X58392857Y-55845238D01*
X58416666Y-55797619D01*
X58464285Y-55750000D01*
X58535714Y-55726190D01*
X58583333Y-55726190D01*
X58654761Y-55750000D01*
X58678571Y-55773809D01*
X59154761Y-56226190D02*
X58869047Y-56226190D01*
X59011904Y-56226190D02*
X59011904Y-55726190D01*
X58964285Y-55797619D01*
X58916666Y-55845238D01*
X58869047Y-55869047D01*
X59440476Y-55940476D02*
X59392857Y-55916666D01*
X59369047Y-55892857D01*
X59345238Y-55845238D01*
X59345238Y-55821428D01*
X59369047Y-55773809D01*
X59392857Y-55750000D01*
X59440476Y-55726190D01*
X59535714Y-55726190D01*
X59583333Y-55750000D01*
X59607142Y-55773809D01*
X59630952Y-55821428D01*
X59630952Y-55845238D01*
X59607142Y-55892857D01*
X59583333Y-55916666D01*
X59535714Y-55940476D01*
X59440476Y-55940476D01*
X59392857Y-55964285D01*
X59369047Y-55988095D01*
X59345238Y-56035714D01*
X59345238Y-56130952D01*
X59369047Y-56178571D01*
X59392857Y-56202380D01*
X59440476Y-56226190D01*
X59535714Y-56226190D01*
X59583333Y-56202380D01*
X59607142Y-56178571D01*
X59630952Y-56130952D01*
X59630952Y-56035714D01*
X59607142Y-55988095D01*
X59583333Y-55964285D01*
X59535714Y-55940476D01*
%TO.C,Y1*%
X82761904Y-37988095D02*
X82761904Y-38226190D01*
X82595238Y-37726190D02*
X82761904Y-37988095D01*
X82928571Y-37726190D01*
X83357142Y-38226190D02*
X83071428Y-38226190D01*
X83214285Y-38226190D02*
X83214285Y-37726190D01*
X83166666Y-37797619D01*
X83119047Y-37845238D01*
X83071428Y-37869047D01*
%TO.C,U4*%
X67619047Y-35726190D02*
X67619047Y-36130952D01*
X67642857Y-36178571D01*
X67666666Y-36202380D01*
X67714285Y-36226190D01*
X67809523Y-36226190D01*
X67857142Y-36202380D01*
X67880952Y-36178571D01*
X67904761Y-36130952D01*
X67904761Y-35726190D01*
X68357142Y-35892857D02*
X68357142Y-36226190D01*
X68238095Y-35702380D02*
X68119047Y-36059523D01*
X68428571Y-36059523D01*
%TO.C,Q2*%
X86702380Y-45273809D02*
X86654761Y-45250000D01*
X86607142Y-45202380D01*
X86535714Y-45130952D01*
X86488095Y-45107142D01*
X86440476Y-45107142D01*
X86464285Y-45226190D02*
X86416666Y-45202380D01*
X86369047Y-45154761D01*
X86345238Y-45059523D01*
X86345238Y-44892857D01*
X86369047Y-44797619D01*
X86416666Y-44750000D01*
X86464285Y-44726190D01*
X86559523Y-44726190D01*
X86607142Y-44750000D01*
X86654761Y-44797619D01*
X86678571Y-44892857D01*
X86678571Y-45059523D01*
X86654761Y-45154761D01*
X86607142Y-45202380D01*
X86559523Y-45226190D01*
X86464285Y-45226190D01*
X86869047Y-44773809D02*
X86892857Y-44750000D01*
X86940476Y-44726190D01*
X87059523Y-44726190D01*
X87107142Y-44750000D01*
X87130952Y-44773809D01*
X87154761Y-44821428D01*
X87154761Y-44869047D01*
X87130952Y-44940476D01*
X86845238Y-45226190D01*
X87154761Y-45226190D01*
%TO.C,C4*%
X85916666Y-58928571D02*
X85892857Y-58952380D01*
X85821428Y-58976190D01*
X85773809Y-58976190D01*
X85702380Y-58952380D01*
X85654761Y-58904761D01*
X85630952Y-58857142D01*
X85607142Y-58761904D01*
X85607142Y-58690476D01*
X85630952Y-58595238D01*
X85654761Y-58547619D01*
X85702380Y-58500000D01*
X85773809Y-58476190D01*
X85821428Y-58476190D01*
X85892857Y-58500000D01*
X85916666Y-58523809D01*
X86345238Y-58642857D02*
X86345238Y-58976190D01*
X86226190Y-58452380D02*
X86107142Y-58809523D01*
X86416666Y-58809523D01*
D12*
%TO.C,SW2*%
X90166666Y-15452380D02*
X90166666Y-14452380D01*
X90404761Y-14452380D01*
X90547619Y-14500000D01*
X90642857Y-14595238D01*
X90690476Y-14690476D01*
X90738095Y-14880952D01*
X90738095Y-15023809D01*
X90690476Y-15214285D01*
X90642857Y-15309523D01*
X90547619Y-15404761D01*
X90404761Y-15452380D01*
X90166666Y-15452380D01*
X91071428Y-14452380D02*
X91309523Y-15452380D01*
X91500000Y-14738095D01*
X91690476Y-15452380D01*
X91928571Y-14452380D01*
D13*
%TO.C,D4*%
X109630952Y-41976190D02*
X109630952Y-41476190D01*
X109750000Y-41476190D01*
X109821428Y-41500000D01*
X109869047Y-41547619D01*
X109892857Y-41595238D01*
X109916666Y-41690476D01*
X109916666Y-41761904D01*
X109892857Y-41857142D01*
X109869047Y-41904761D01*
X109821428Y-41952380D01*
X109750000Y-41976190D01*
X109630952Y-41976190D01*
X110345238Y-41642857D02*
X110345238Y-41976190D01*
X110226190Y-41452380D02*
X110107142Y-41809523D01*
X110416666Y-41809523D01*
%TO.C,R13*%
X55678571Y-54226190D02*
X55511904Y-53988095D01*
X55392857Y-54226190D02*
X55392857Y-53726190D01*
X55583333Y-53726190D01*
X55630952Y-53750000D01*
X55654761Y-53773809D01*
X55678571Y-53821428D01*
X55678571Y-53892857D01*
X55654761Y-53940476D01*
X55630952Y-53964285D01*
X55583333Y-53988095D01*
X55392857Y-53988095D01*
X56154761Y-54226190D02*
X55869047Y-54226190D01*
X56011904Y-54226190D02*
X56011904Y-53726190D01*
X55964285Y-53797619D01*
X55916666Y-53845238D01*
X55869047Y-53869047D01*
X56321428Y-53726190D02*
X56630952Y-53726190D01*
X56464285Y-53916666D01*
X56535714Y-53916666D01*
X56583333Y-53940476D01*
X56607142Y-53964285D01*
X56630952Y-54011904D01*
X56630952Y-54130952D01*
X56607142Y-54178571D01*
X56583333Y-54202380D01*
X56535714Y-54226190D01*
X56392857Y-54226190D01*
X56345238Y-54202380D01*
X56321428Y-54178571D01*
%TO.C,R10*%
X60178571Y-15226190D02*
X60011904Y-14988095D01*
X59892857Y-15226190D02*
X59892857Y-14726190D01*
X60083333Y-14726190D01*
X60130952Y-14750000D01*
X60154761Y-14773809D01*
X60178571Y-14821428D01*
X60178571Y-14892857D01*
X60154761Y-14940476D01*
X60130952Y-14964285D01*
X60083333Y-14988095D01*
X59892857Y-14988095D01*
X60654761Y-15226190D02*
X60369047Y-15226190D01*
X60511904Y-15226190D02*
X60511904Y-14726190D01*
X60464285Y-14797619D01*
X60416666Y-14845238D01*
X60369047Y-14869047D01*
X60964285Y-14726190D02*
X61011904Y-14726190D01*
X61059523Y-14750000D01*
X61083333Y-14773809D01*
X61107142Y-14821428D01*
X61130952Y-14916666D01*
X61130952Y-15035714D01*
X61107142Y-15130952D01*
X61083333Y-15178571D01*
X61059523Y-15202380D01*
X61011904Y-15226190D01*
X60964285Y-15226190D01*
X60916666Y-15202380D01*
X60892857Y-15178571D01*
X60869047Y-15130952D01*
X60845238Y-15035714D01*
X60845238Y-14916666D01*
X60869047Y-14821428D01*
X60892857Y-14773809D01*
X60916666Y-14750000D01*
X60964285Y-14726190D01*
%TO.C,C1*%
X85916666Y-54928571D02*
X85892857Y-54952380D01*
X85821428Y-54976190D01*
X85773809Y-54976190D01*
X85702380Y-54952380D01*
X85654761Y-54904761D01*
X85630952Y-54857142D01*
X85607142Y-54761904D01*
X85607142Y-54690476D01*
X85630952Y-54595238D01*
X85654761Y-54547619D01*
X85702380Y-54500000D01*
X85773809Y-54476190D01*
X85821428Y-54476190D01*
X85892857Y-54500000D01*
X85916666Y-54523809D01*
X86392857Y-54976190D02*
X86107142Y-54976190D01*
X86250000Y-54976190D02*
X86250000Y-54476190D01*
X86202380Y-54547619D01*
X86154761Y-54595238D01*
X86107142Y-54619047D01*
%TO.C,C20*%
X55678571Y-60678571D02*
X55654761Y-60702380D01*
X55583333Y-60726190D01*
X55535714Y-60726190D01*
X55464285Y-60702380D01*
X55416666Y-60654761D01*
X55392857Y-60607142D01*
X55369047Y-60511904D01*
X55369047Y-60440476D01*
X55392857Y-60345238D01*
X55416666Y-60297619D01*
X55464285Y-60250000D01*
X55535714Y-60226190D01*
X55583333Y-60226190D01*
X55654761Y-60250000D01*
X55678571Y-60273809D01*
X55869047Y-60273809D02*
X55892857Y-60250000D01*
X55940476Y-60226190D01*
X56059523Y-60226190D01*
X56107142Y-60250000D01*
X56130952Y-60273809D01*
X56154761Y-60321428D01*
X56154761Y-60369047D01*
X56130952Y-60440476D01*
X55845238Y-60726190D01*
X56154761Y-60726190D01*
X56464285Y-60226190D02*
X56511904Y-60226190D01*
X56559523Y-60250000D01*
X56583333Y-60273809D01*
X56607142Y-60321428D01*
X56630952Y-60416666D01*
X56630952Y-60535714D01*
X56607142Y-60630952D01*
X56583333Y-60678571D01*
X56559523Y-60702380D01*
X56511904Y-60726190D01*
X56464285Y-60726190D01*
X56416666Y-60702380D01*
X56392857Y-60678571D01*
X56369047Y-60630952D01*
X56345238Y-60535714D01*
X56345238Y-60416666D01*
X56369047Y-60321428D01*
X56392857Y-60273809D01*
X56416666Y-60250000D01*
X56464285Y-60226190D01*
%TO.C,R6*%
X72666666Y-15226190D02*
X72500000Y-14988095D01*
X72380952Y-15226190D02*
X72380952Y-14726190D01*
X72571428Y-14726190D01*
X72619047Y-14750000D01*
X72642857Y-14773809D01*
X72666666Y-14821428D01*
X72666666Y-14892857D01*
X72642857Y-14940476D01*
X72619047Y-14964285D01*
X72571428Y-14988095D01*
X72380952Y-14988095D01*
X73095238Y-14726190D02*
X73000000Y-14726190D01*
X72952380Y-14750000D01*
X72928571Y-14773809D01*
X72880952Y-14845238D01*
X72857142Y-14940476D01*
X72857142Y-15130952D01*
X72880952Y-15178571D01*
X72904761Y-15202380D01*
X72952380Y-15226190D01*
X73047619Y-15226190D01*
X73095238Y-15202380D01*
X73119047Y-15178571D01*
X73142857Y-15130952D01*
X73142857Y-15011904D01*
X73119047Y-14964285D01*
X73095238Y-14940476D01*
X73047619Y-14916666D01*
X72952380Y-14916666D01*
X72904761Y-14940476D01*
X72880952Y-14964285D01*
X72857142Y-15011904D01*
D12*
%TO.C,SW1*%
X78214285Y-14452380D02*
X78214285Y-15261904D01*
X78261904Y-15357142D01*
X78309523Y-15404761D01*
X78404761Y-15452380D01*
X78595238Y-15452380D01*
X78690476Y-15404761D01*
X78738095Y-15357142D01*
X78785714Y-15261904D01*
X78785714Y-14452380D01*
X79261904Y-15452380D02*
X79261904Y-14452380D01*
X79642857Y-14452380D01*
X79738095Y-14500000D01*
X79785714Y-14547619D01*
X79833333Y-14642857D01*
X79833333Y-14785714D01*
X79785714Y-14880952D01*
X79738095Y-14928571D01*
X79642857Y-14976190D01*
X79261904Y-14976190D01*
D13*
%TO.C,R18*%
X58678571Y-57226190D02*
X58511904Y-56988095D01*
X58392857Y-57226190D02*
X58392857Y-56726190D01*
X58583333Y-56726190D01*
X58630952Y-56750000D01*
X58654761Y-56773809D01*
X58678571Y-56821428D01*
X58678571Y-56892857D01*
X58654761Y-56940476D01*
X58630952Y-56964285D01*
X58583333Y-56988095D01*
X58392857Y-56988095D01*
X59154761Y-57226190D02*
X58869047Y-57226190D01*
X59011904Y-57226190D02*
X59011904Y-56726190D01*
X58964285Y-56797619D01*
X58916666Y-56845238D01*
X58869047Y-56869047D01*
X59440476Y-56940476D02*
X59392857Y-56916666D01*
X59369047Y-56892857D01*
X59345238Y-56845238D01*
X59345238Y-56821428D01*
X59369047Y-56773809D01*
X59392857Y-56750000D01*
X59440476Y-56726190D01*
X59535714Y-56726190D01*
X59583333Y-56750000D01*
X59607142Y-56773809D01*
X59630952Y-56821428D01*
X59630952Y-56845238D01*
X59607142Y-56892857D01*
X59583333Y-56916666D01*
X59535714Y-56940476D01*
X59440476Y-56940476D01*
X59392857Y-56964285D01*
X59369047Y-56988095D01*
X59345238Y-57035714D01*
X59345238Y-57130952D01*
X59369047Y-57178571D01*
X59392857Y-57202380D01*
X59440476Y-57226190D01*
X59535714Y-57226190D01*
X59583333Y-57202380D01*
X59607142Y-57178571D01*
X59630952Y-57130952D01*
X59630952Y-57035714D01*
X59607142Y-56988095D01*
X59583333Y-56964285D01*
X59535714Y-56940476D01*
%TO.C,C7*%
X50916666Y-59678571D02*
X50892857Y-59702380D01*
X50821428Y-59726190D01*
X50773809Y-59726190D01*
X50702380Y-59702380D01*
X50654761Y-59654761D01*
X50630952Y-59607142D01*
X50607142Y-59511904D01*
X50607142Y-59440476D01*
X50630952Y-59345238D01*
X50654761Y-59297619D01*
X50702380Y-59250000D01*
X50773809Y-59226190D01*
X50821428Y-59226190D01*
X50892857Y-59250000D01*
X50916666Y-59273809D01*
X51083333Y-59226190D02*
X51416666Y-59226190D01*
X51202380Y-59726190D01*
%TO.C,H4*%
X14619047Y-59226190D02*
X14619047Y-58726190D01*
X14619047Y-58964285D02*
X14904761Y-58964285D01*
X14904761Y-59226190D02*
X14904761Y-58726190D01*
X15357142Y-58892857D02*
X15357142Y-59226190D01*
X15238095Y-58702380D02*
X15119047Y-59059523D01*
X15428571Y-59059523D01*
%TO.C,R8*%
X84666666Y-15226190D02*
X84500000Y-14988095D01*
X84380952Y-15226190D02*
X84380952Y-14726190D01*
X84571428Y-14726190D01*
X84619047Y-14750000D01*
X84642857Y-14773809D01*
X84666666Y-14821428D01*
X84666666Y-14892857D01*
X84642857Y-14940476D01*
X84619047Y-14964285D01*
X84571428Y-14988095D01*
X84380952Y-14988095D01*
X84952380Y-14940476D02*
X84904761Y-14916666D01*
X84880952Y-14892857D01*
X84857142Y-14845238D01*
X84857142Y-14821428D01*
X84880952Y-14773809D01*
X84904761Y-14750000D01*
X84952380Y-14726190D01*
X85047619Y-14726190D01*
X85095238Y-14750000D01*
X85119047Y-14773809D01*
X85142857Y-14821428D01*
X85142857Y-14845238D01*
X85119047Y-14892857D01*
X85095238Y-14916666D01*
X85047619Y-14940476D01*
X84952380Y-14940476D01*
X84904761Y-14964285D01*
X84880952Y-14988095D01*
X84857142Y-15035714D01*
X84857142Y-15130952D01*
X84880952Y-15178571D01*
X84904761Y-15202380D01*
X84952380Y-15226190D01*
X85047619Y-15226190D01*
X85095238Y-15202380D01*
X85119047Y-15178571D01*
X85142857Y-15130952D01*
X85142857Y-15035714D01*
X85119047Y-14988095D01*
X85095238Y-14964285D01*
X85047619Y-14940476D01*
D12*
%TO.C,SW3*%
X99333333Y-14452380D02*
X99666666Y-15452380D01*
X100000000Y-14452380D01*
X100095238Y-15547619D02*
X100857142Y-15547619D01*
X101095238Y-15452380D02*
X101095238Y-14452380D01*
X101333333Y-15547619D02*
X102095238Y-15547619D01*
X102285714Y-15404761D02*
X102428571Y-15452380D01*
X102666666Y-15452380D01*
X102761904Y-15404761D01*
X102809523Y-15357142D01*
X102857142Y-15261904D01*
X102857142Y-15166666D01*
X102809523Y-15071428D01*
X102761904Y-15023809D01*
X102666666Y-14976190D01*
X102476190Y-14928571D01*
X102380952Y-14880952D01*
X102333333Y-14833333D01*
X102285714Y-14738095D01*
X102285714Y-14642857D01*
X102333333Y-14547619D01*
X102380952Y-14500000D01*
X102476190Y-14452380D01*
X102714285Y-14452380D01*
X102857142Y-14500000D01*
X103285714Y-14928571D02*
X103619047Y-14928571D01*
X103761904Y-15452380D02*
X103285714Y-15452380D01*
X103285714Y-14452380D01*
X103761904Y-14452380D01*
X104666666Y-15452380D02*
X104190476Y-15452380D01*
X104190476Y-14452380D01*
D13*
%TO.C,U7*%
X91119047Y-26976190D02*
X91119047Y-27380952D01*
X91142857Y-27428571D01*
X91166666Y-27452380D01*
X91214285Y-27476190D01*
X91309523Y-27476190D01*
X91357142Y-27452380D01*
X91380952Y-27428571D01*
X91404761Y-27380952D01*
X91404761Y-26976190D01*
X91595238Y-26976190D02*
X91928571Y-26976190D01*
X91714285Y-27476190D01*
%TO.C,J5*%
X109083333Y-33726190D02*
X109083333Y-34083333D01*
X109059523Y-34154761D01*
X109011904Y-34202380D01*
X108940476Y-34226190D01*
X108892857Y-34226190D01*
X109559523Y-33726190D02*
X109321428Y-33726190D01*
X109297619Y-33964285D01*
X109321428Y-33940476D01*
X109369047Y-33916666D01*
X109488095Y-33916666D01*
X109535714Y-33940476D01*
X109559523Y-33964285D01*
X109583333Y-34011904D01*
X109583333Y-34130952D01*
X109559523Y-34178571D01*
X109535714Y-34202380D01*
X109488095Y-34226190D01*
X109369047Y-34226190D01*
X109321428Y-34202380D01*
X109297619Y-34178571D01*
%TO.C,H1*%
X14619047Y-15226190D02*
X14619047Y-14726190D01*
X14619047Y-14964285D02*
X14904761Y-14964285D01*
X14904761Y-15226190D02*
X14904761Y-14726190D01*
X15404761Y-15226190D02*
X15119047Y-15226190D01*
X15261904Y-15226190D02*
X15261904Y-14726190D01*
X15214285Y-14797619D01*
X15166666Y-14845238D01*
X15119047Y-14869047D01*
%TO.C,C12*%
X92678571Y-56178571D02*
X92654761Y-56202380D01*
X92583333Y-56226190D01*
X92535714Y-56226190D01*
X92464285Y-56202380D01*
X92416666Y-56154761D01*
X92392857Y-56107142D01*
X92369047Y-56011904D01*
X92369047Y-55940476D01*
X92392857Y-55845238D01*
X92416666Y-55797619D01*
X92464285Y-55750000D01*
X92535714Y-55726190D01*
X92583333Y-55726190D01*
X92654761Y-55750000D01*
X92678571Y-55773809D01*
X93154761Y-56226190D02*
X92869047Y-56226190D01*
X93011904Y-56226190D02*
X93011904Y-55726190D01*
X92964285Y-55797619D01*
X92916666Y-55845238D01*
X92869047Y-55869047D01*
X93345238Y-55773809D02*
X93369047Y-55750000D01*
X93416666Y-55726190D01*
X93535714Y-55726190D01*
X93583333Y-55750000D01*
X93607142Y-55773809D01*
X93630952Y-55821428D01*
X93630952Y-55869047D01*
X93607142Y-55940476D01*
X93321428Y-56226190D01*
X93630952Y-56226190D01*
%TO.C,R19*%
X72678571Y-38476190D02*
X72511904Y-38238095D01*
X72392857Y-38476190D02*
X72392857Y-37976190D01*
X72583333Y-37976190D01*
X72630952Y-38000000D01*
X72654761Y-38023809D01*
X72678571Y-38071428D01*
X72678571Y-38142857D01*
X72654761Y-38190476D01*
X72630952Y-38214285D01*
X72583333Y-38238095D01*
X72392857Y-38238095D01*
X73154761Y-38476190D02*
X72869047Y-38476190D01*
X73011904Y-38476190D02*
X73011904Y-37976190D01*
X72964285Y-38047619D01*
X72916666Y-38095238D01*
X72869047Y-38119047D01*
X73392857Y-38476190D02*
X73488095Y-38476190D01*
X73535714Y-38452380D01*
X73559523Y-38428571D01*
X73607142Y-38357142D01*
X73630952Y-38261904D01*
X73630952Y-38071428D01*
X73607142Y-38023809D01*
X73583333Y-38000000D01*
X73535714Y-37976190D01*
X73440476Y-37976190D01*
X73392857Y-38000000D01*
X73369047Y-38023809D01*
X73345238Y-38071428D01*
X73345238Y-38190476D01*
X73369047Y-38238095D01*
X73392857Y-38261904D01*
X73440476Y-38285714D01*
X73535714Y-38285714D01*
X73583333Y-38261904D01*
X73607142Y-38238095D01*
X73630952Y-38190476D01*
%TO.C,L1*%
X67416666Y-57976190D02*
X67178571Y-57976190D01*
X67178571Y-57476190D01*
X67845238Y-57976190D02*
X67559523Y-57976190D01*
X67702380Y-57976190D02*
X67702380Y-57476190D01*
X67654761Y-57547619D01*
X67607142Y-57595238D01*
X67559523Y-57619047D01*
%TO.C,J6*%
X21833333Y-15976190D02*
X21833333Y-16333333D01*
X21809523Y-16404761D01*
X21761904Y-16452380D01*
X21690476Y-16476190D01*
X21642857Y-16476190D01*
X22285714Y-15976190D02*
X22190476Y-15976190D01*
X22142857Y-16000000D01*
X22119047Y-16023809D01*
X22071428Y-16095238D01*
X22047619Y-16190476D01*
X22047619Y-16380952D01*
X22071428Y-16428571D01*
X22095238Y-16452380D01*
X22142857Y-16476190D01*
X22238095Y-16476190D01*
X22285714Y-16452380D01*
X22309523Y-16428571D01*
X22333333Y-16380952D01*
X22333333Y-16261904D01*
X22309523Y-16214285D01*
X22285714Y-16190476D01*
X22238095Y-16166666D01*
X22142857Y-16166666D01*
X22095238Y-16190476D01*
X22071428Y-16214285D01*
X22047619Y-16261904D01*
%TO.C,F1*%
X106083333Y-41714285D02*
X105916666Y-41714285D01*
X105916666Y-41976190D02*
X105916666Y-41476190D01*
X106154761Y-41476190D01*
X106607142Y-41976190D02*
X106321428Y-41976190D01*
X106464285Y-41976190D02*
X106464285Y-41476190D01*
X106416666Y-41547619D01*
X106369047Y-41595238D01*
X106321428Y-41619047D01*
%TO.C,C25*%
X96178571Y-27178571D02*
X96154761Y-27202380D01*
X96083333Y-27226190D01*
X96035714Y-27226190D01*
X95964285Y-27202380D01*
X95916666Y-27154761D01*
X95892857Y-27107142D01*
X95869047Y-27011904D01*
X95869047Y-26940476D01*
X95892857Y-26845238D01*
X95916666Y-26797619D01*
X95964285Y-26750000D01*
X96035714Y-26726190D01*
X96083333Y-26726190D01*
X96154761Y-26750000D01*
X96178571Y-26773809D01*
X96369047Y-26773809D02*
X96392857Y-26750000D01*
X96440476Y-26726190D01*
X96559523Y-26726190D01*
X96607142Y-26750000D01*
X96630952Y-26773809D01*
X96654761Y-26821428D01*
X96654761Y-26869047D01*
X96630952Y-26940476D01*
X96345238Y-27226190D01*
X96654761Y-27226190D01*
X97107142Y-26726190D02*
X96869047Y-26726190D01*
X96845238Y-26964285D01*
X96869047Y-26940476D01*
X96916666Y-26916666D01*
X97035714Y-26916666D01*
X97083333Y-26940476D01*
X97107142Y-26964285D01*
X97130952Y-27011904D01*
X97130952Y-27130952D01*
X97107142Y-27178571D01*
X97083333Y-27202380D01*
X97035714Y-27226190D01*
X96916666Y-27226190D01*
X96869047Y-27202380D01*
X96845238Y-27178571D01*
D12*
%TO.C,SW4*%
X65547619Y-14452380D02*
X65738095Y-14452380D01*
X65833333Y-14500000D01*
X65928571Y-14595238D01*
X65976190Y-14785714D01*
X65976190Y-15119047D01*
X65928571Y-15309523D01*
X65833333Y-15404761D01*
X65738095Y-15452380D01*
X65547619Y-15452380D01*
X65452380Y-15404761D01*
X65357142Y-15309523D01*
X65309523Y-15119047D01*
X65309523Y-14785714D01*
X65357142Y-14595238D01*
X65452380Y-14500000D01*
X65547619Y-14452380D01*
X66166666Y-15547619D02*
X66928571Y-15547619D01*
X67166666Y-14928571D02*
X67500000Y-14928571D01*
X67642857Y-15452380D02*
X67166666Y-15452380D01*
X67166666Y-14452380D01*
X67642857Y-14452380D01*
X68071428Y-15452380D02*
X68071428Y-14452380D01*
X68642857Y-15452380D01*
X68642857Y-14452380D01*
%TO.C,D1*%
X101404761Y-23107142D02*
X101357142Y-23154761D01*
X101214285Y-23202380D01*
X101119047Y-23202380D01*
X100976190Y-23154761D01*
X100880952Y-23059523D01*
X100833333Y-22964285D01*
X100785714Y-22773809D01*
X100785714Y-22630952D01*
X100833333Y-22440476D01*
X100880952Y-22345238D01*
X100976190Y-22250000D01*
X101119047Y-22202380D01*
X101214285Y-22202380D01*
X101357142Y-22250000D01*
X101404761Y-22297619D01*
X102309523Y-23202380D02*
X101833333Y-23202380D01*
X101833333Y-22202380D01*
D13*
%TO.C,Q1*%
X102202380Y-43273809D02*
X102154761Y-43250000D01*
X102107142Y-43202380D01*
X102035714Y-43130952D01*
X101988095Y-43107142D01*
X101940476Y-43107142D01*
X101964285Y-43226190D02*
X101916666Y-43202380D01*
X101869047Y-43154761D01*
X101845238Y-43059523D01*
X101845238Y-42892857D01*
X101869047Y-42797619D01*
X101916666Y-42750000D01*
X101964285Y-42726190D01*
X102059523Y-42726190D01*
X102107142Y-42750000D01*
X102154761Y-42797619D01*
X102178571Y-42892857D01*
X102178571Y-43059523D01*
X102154761Y-43154761D01*
X102107142Y-43202380D01*
X102059523Y-43226190D01*
X101964285Y-43226190D01*
X102654761Y-43226190D02*
X102369047Y-43226190D01*
X102511904Y-43226190D02*
X102511904Y-42726190D01*
X102464285Y-42797619D01*
X102416666Y-42845238D01*
X102369047Y-42869047D01*
%TO.C,C5*%
X87916666Y-54928571D02*
X87892857Y-54952380D01*
X87821428Y-54976190D01*
X87773809Y-54976190D01*
X87702380Y-54952380D01*
X87654761Y-54904761D01*
X87630952Y-54857142D01*
X87607142Y-54761904D01*
X87607142Y-54690476D01*
X87630952Y-54595238D01*
X87654761Y-54547619D01*
X87702380Y-54500000D01*
X87773809Y-54476190D01*
X87821428Y-54476190D01*
X87892857Y-54500000D01*
X87916666Y-54523809D01*
X88369047Y-54476190D02*
X88130952Y-54476190D01*
X88107142Y-54714285D01*
X88130952Y-54690476D01*
X88178571Y-54666666D01*
X88297619Y-54666666D01*
X88345238Y-54690476D01*
X88369047Y-54714285D01*
X88392857Y-54761904D01*
X88392857Y-54880952D01*
X88369047Y-54928571D01*
X88345238Y-54952380D01*
X88297619Y-54976190D01*
X88178571Y-54976190D01*
X88130952Y-54952380D01*
X88107142Y-54928571D01*
%TO.C,U6*%
X66619047Y-31226190D02*
X66619047Y-31630952D01*
X66642857Y-31678571D01*
X66666666Y-31702380D01*
X66714285Y-31726190D01*
X66809523Y-31726190D01*
X66857142Y-31702380D01*
X66880952Y-31678571D01*
X66904761Y-31630952D01*
X66904761Y-31226190D01*
X67357142Y-31226190D02*
X67261904Y-31226190D01*
X67214285Y-31250000D01*
X67190476Y-31273809D01*
X67142857Y-31345238D01*
X67119047Y-31440476D01*
X67119047Y-31630952D01*
X67142857Y-31678571D01*
X67166666Y-31702380D01*
X67214285Y-31726190D01*
X67309523Y-31726190D01*
X67357142Y-31702380D01*
X67380952Y-31678571D01*
X67404761Y-31630952D01*
X67404761Y-31511904D01*
X67380952Y-31464285D01*
X67357142Y-31440476D01*
X67309523Y-31416666D01*
X67214285Y-31416666D01*
X67166666Y-31440476D01*
X67142857Y-31464285D01*
X67119047Y-31511904D01*
%TO.C,U3*%
X80489047Y-56726190D02*
X80489047Y-57130952D01*
X80512857Y-57178571D01*
X80536666Y-57202380D01*
X80584285Y-57226190D01*
X80679523Y-57226190D01*
X80727142Y-57202380D01*
X80750952Y-57178571D01*
X80774761Y-57130952D01*
X80774761Y-56726190D01*
X80965238Y-56726190D02*
X81274761Y-56726190D01*
X81108095Y-56916666D01*
X81179523Y-56916666D01*
X81227142Y-56940476D01*
X81250952Y-56964285D01*
X81274761Y-57011904D01*
X81274761Y-57130952D01*
X81250952Y-57178571D01*
X81227142Y-57202380D01*
X81179523Y-57226190D01*
X81036666Y-57226190D01*
X80989047Y-57202380D01*
X80965238Y-57178571D01*
%TO.C,U5*%
X55619047Y-56226190D02*
X55619047Y-56630952D01*
X55642857Y-56678571D01*
X55666666Y-56702380D01*
X55714285Y-56726190D01*
X55809523Y-56726190D01*
X55857142Y-56702380D01*
X55880952Y-56678571D01*
X55904761Y-56630952D01*
X55904761Y-56226190D01*
X56380952Y-56226190D02*
X56142857Y-56226190D01*
X56119047Y-56464285D01*
X56142857Y-56440476D01*
X56190476Y-56416666D01*
X56309523Y-56416666D01*
X56357142Y-56440476D01*
X56380952Y-56464285D01*
X56404761Y-56511904D01*
X56404761Y-56630952D01*
X56380952Y-56678571D01*
X56357142Y-56702380D01*
X56309523Y-56726190D01*
X56190476Y-56726190D01*
X56142857Y-56702380D01*
X56119047Y-56678571D01*
%TO.C,U8*%
X80119047Y-24226190D02*
X80119047Y-24630952D01*
X80142857Y-24678571D01*
X80166666Y-24702380D01*
X80214285Y-24726190D01*
X80309523Y-24726190D01*
X80357142Y-24702380D01*
X80380952Y-24678571D01*
X80404761Y-24630952D01*
X80404761Y-24226190D01*
X80714285Y-24440476D02*
X80666666Y-24416666D01*
X80642857Y-24392857D01*
X80619047Y-24345238D01*
X80619047Y-24321428D01*
X80642857Y-24273809D01*
X80666666Y-24250000D01*
X80714285Y-24226190D01*
X80809523Y-24226190D01*
X80857142Y-24250000D01*
X80880952Y-24273809D01*
X80904761Y-24321428D01*
X80904761Y-24345238D01*
X80880952Y-24392857D01*
X80857142Y-24416666D01*
X80809523Y-24440476D01*
X80714285Y-24440476D01*
X80666666Y-24464285D01*
X80642857Y-24488095D01*
X80619047Y-24535714D01*
X80619047Y-24630952D01*
X80642857Y-24678571D01*
X80666666Y-24702380D01*
X80714285Y-24726190D01*
X80809523Y-24726190D01*
X80857142Y-24702380D01*
X80880952Y-24678571D01*
X80904761Y-24630952D01*
X80904761Y-24535714D01*
X80880952Y-24488095D01*
X80857142Y-24464285D01*
X80809523Y-24440476D01*
D12*
%TO.C,D2*%
X104500000Y-22202380D02*
X104690476Y-22202380D01*
X104785714Y-22250000D01*
X104880952Y-22345238D01*
X104928571Y-22535714D01*
X104928571Y-22869047D01*
X104880952Y-23059523D01*
X104785714Y-23154761D01*
X104690476Y-23202380D01*
X104500000Y-23202380D01*
X104404761Y-23154761D01*
X104309523Y-23059523D01*
X104261904Y-22869047D01*
X104261904Y-22535714D01*
X104309523Y-22345238D01*
X104404761Y-22250000D01*
X104500000Y-22202380D01*
X105357142Y-22202380D02*
X105357142Y-23011904D01*
X105404761Y-23107142D01*
X105452380Y-23154761D01*
X105547619Y-23202380D01*
X105738095Y-23202380D01*
X105833333Y-23154761D01*
X105880952Y-23107142D01*
X105928571Y-23011904D01*
X105928571Y-22202380D01*
X106261904Y-22202380D02*
X106833333Y-22202380D01*
X106547619Y-23202380D02*
X106547619Y-22202380D01*
D13*
%TO.C,U1*%
X94869047Y-38476190D02*
X94869047Y-38880952D01*
X94892857Y-38928571D01*
X94916666Y-38952380D01*
X94964285Y-38976190D01*
X95059523Y-38976190D01*
X95107142Y-38952380D01*
X95130952Y-38928571D01*
X95154761Y-38880952D01*
X95154761Y-38476190D01*
X95654761Y-38976190D02*
X95369047Y-38976190D01*
X95511904Y-38976190D02*
X95511904Y-38476190D01*
X95464285Y-38547619D01*
X95416666Y-38595238D01*
X95369047Y-38619047D01*
%TO.C,R9*%
X95666666Y-15226190D02*
X95500000Y-14988095D01*
X95380952Y-15226190D02*
X95380952Y-14726190D01*
X95571428Y-14726190D01*
X95619047Y-14750000D01*
X95642857Y-14773809D01*
X95666666Y-14821428D01*
X95666666Y-14892857D01*
X95642857Y-14940476D01*
X95619047Y-14964285D01*
X95571428Y-14988095D01*
X95380952Y-14988095D01*
X95904761Y-15226190D02*
X96000000Y-15226190D01*
X96047619Y-15202380D01*
X96071428Y-15178571D01*
X96119047Y-15107142D01*
X96142857Y-15011904D01*
X96142857Y-14821428D01*
X96119047Y-14773809D01*
X96095238Y-14750000D01*
X96047619Y-14726190D01*
X95952380Y-14726190D01*
X95904761Y-14750000D01*
X95880952Y-14773809D01*
X95857142Y-14821428D01*
X95857142Y-14940476D01*
X95880952Y-14988095D01*
X95904761Y-15011904D01*
X95952380Y-15035714D01*
X96047619Y-15035714D01*
X96095238Y-15011904D01*
X96119047Y-14988095D01*
X96142857Y-14940476D01*
%TO.C,C16*%
X58678571Y-46178571D02*
X58654761Y-46202380D01*
X58583333Y-46226190D01*
X58535714Y-46226190D01*
X58464285Y-46202380D01*
X58416666Y-46154761D01*
X58392857Y-46107142D01*
X58369047Y-46011904D01*
X58369047Y-45940476D01*
X58392857Y-45845238D01*
X58416666Y-45797619D01*
X58464285Y-45750000D01*
X58535714Y-45726190D01*
X58583333Y-45726190D01*
X58654761Y-45750000D01*
X58678571Y-45773809D01*
X59154761Y-46226190D02*
X58869047Y-46226190D01*
X59011904Y-46226190D02*
X59011904Y-45726190D01*
X58964285Y-45797619D01*
X58916666Y-45845238D01*
X58869047Y-45869047D01*
X59583333Y-45726190D02*
X59488095Y-45726190D01*
X59440476Y-45750000D01*
X59416666Y-45773809D01*
X59369047Y-45845238D01*
X59345238Y-45940476D01*
X59345238Y-46130952D01*
X59369047Y-46178571D01*
X59392857Y-46202380D01*
X59440476Y-46226190D01*
X59535714Y-46226190D01*
X59583333Y-46202380D01*
X59607142Y-46178571D01*
X59630952Y-46130952D01*
X59630952Y-46011904D01*
X59607142Y-45964285D01*
X59583333Y-45940476D01*
X59535714Y-45916666D01*
X59440476Y-45916666D01*
X59392857Y-45940476D01*
X59369047Y-45964285D01*
X59345238Y-46011904D01*
%TO.C,J7*%
X55833333Y-15976190D02*
X55833333Y-16333333D01*
X55809523Y-16404761D01*
X55761904Y-16452380D01*
X55690476Y-16476190D01*
X55642857Y-16476190D01*
X56023809Y-15976190D02*
X56357142Y-15976190D01*
X56142857Y-16476190D01*
%TO.C,R17*%
X62678571Y-36726190D02*
X62511904Y-36488095D01*
X62392857Y-36726190D02*
X62392857Y-36226190D01*
X62583333Y-36226190D01*
X62630952Y-36250000D01*
X62654761Y-36273809D01*
X62678571Y-36321428D01*
X62678571Y-36392857D01*
X62654761Y-36440476D01*
X62630952Y-36464285D01*
X62583333Y-36488095D01*
X62392857Y-36488095D01*
X63154761Y-36726190D02*
X62869047Y-36726190D01*
X63011904Y-36726190D02*
X63011904Y-36226190D01*
X62964285Y-36297619D01*
X62916666Y-36345238D01*
X62869047Y-36369047D01*
X63321428Y-36226190D02*
X63654761Y-36226190D01*
X63440476Y-36726190D01*
%TO.C,D3*%
X55630952Y-43226190D02*
X55630952Y-42726190D01*
X55750000Y-42726190D01*
X55821428Y-42750000D01*
X55869047Y-42797619D01*
X55892857Y-42845238D01*
X55916666Y-42940476D01*
X55916666Y-43011904D01*
X55892857Y-43107142D01*
X55869047Y-43154761D01*
X55821428Y-43202380D01*
X55750000Y-43226190D01*
X55630952Y-43226190D01*
X56083333Y-42726190D02*
X56392857Y-42726190D01*
X56226190Y-42916666D01*
X56297619Y-42916666D01*
X56345238Y-42940476D01*
X56369047Y-42964285D01*
X56392857Y-43011904D01*
X56392857Y-43130952D01*
X56369047Y-43178571D01*
X56345238Y-43202380D01*
X56297619Y-43226190D01*
X56154761Y-43226190D01*
X56107142Y-43202380D01*
X56083333Y-43178571D01*
D12*
%TO.C,U2*%
X87875000Y-36625000D02*
X87875000Y-36300000D01*
X95125000Y-29375000D02*
X94800000Y-29375000D01*
X95125000Y-36625000D02*
X95125000Y-36300000D01*
X87875000Y-29375000D02*
X88200000Y-29375000D01*
X87875000Y-29375000D02*
X87875000Y-29600000D01*
X95125000Y-36625000D02*
X94800000Y-36625000D01*
X87875000Y-36625000D02*
X88200000Y-36625000D01*
X87875000Y-29600000D02*
X86450000Y-29600000D01*
X95125000Y-29375000D02*
X95125000Y-29700000D01*
D14*
%TO.C,R20*%
X72290000Y-32491422D02*
X72290000Y-33008578D01*
X73710000Y-32491422D02*
X73710000Y-33008578D01*
%TO.C,C6*%
X75160000Y-57058578D02*
X75160000Y-56541422D01*
X76580000Y-57058578D02*
X76580000Y-56541422D01*
%TO.C,J4*%
X96380000Y-47880000D02*
X106620000Y-47880000D01*
X96380000Y-47880000D02*
X96380000Y-60620000D01*
X96380000Y-60620000D02*
X106620000Y-60620000D01*
X96380000Y-47880000D02*
X96380000Y-60620000D01*
X106620000Y-47880000D02*
X106620000Y-60620000D01*
X96000000Y-50500000D02*
X96000000Y-47500000D01*
X96000000Y-47500000D02*
X99000000Y-47500000D01*
X96380000Y-47880000D02*
X106620000Y-47880000D01*
X96380000Y-60620000D02*
X106620000Y-60620000D01*
X106620000Y-47880000D02*
X106620000Y-60620000D01*
%TO.C,R16*%
X63710000Y-31258578D02*
X63710000Y-30741422D01*
X62290000Y-31258578D02*
X62290000Y-30741422D01*
%TO.C,C18*%
X58290000Y-54258578D02*
X58290000Y-53741422D01*
X59710000Y-54258578D02*
X59710000Y-53741422D01*
%TO.C,Y1*%
X81000000Y-37575000D02*
X85000000Y-37575000D01*
X81000000Y-34425000D02*
X81000000Y-37575000D01*
%TO.C,U4*%
X68000000Y-32390000D02*
X69500000Y-32390000D01*
X68000000Y-35610000D02*
X66500000Y-35610000D01*
X68000000Y-32390000D02*
X66500000Y-32390000D01*
X68000000Y-35610000D02*
X70925000Y-35610000D01*
%TO.C,Q2*%
X85860000Y-45420000D02*
X87320000Y-45420000D01*
X85860000Y-48580000D02*
X88020000Y-48580000D01*
X85860000Y-48580000D02*
X85860000Y-47650000D01*
X85860000Y-45420000D02*
X85860000Y-46350000D01*
%TO.C,C4*%
X85160000Y-57058578D02*
X85160000Y-56541422D01*
X86580000Y-57058578D02*
X86580000Y-56541422D01*
%TO.C,SW2*%
X89300000Y-21300000D02*
X89750000Y-21750000D01*
X89750000Y-21750000D02*
X92250000Y-21750000D01*
X88250000Y-18000000D02*
X88250000Y-20000000D01*
X92700000Y-16700000D02*
X92250000Y-16250000D01*
X89300000Y-16700000D02*
X89750000Y-16250000D01*
X92700000Y-21300000D02*
X92250000Y-21750000D01*
X89750000Y-16250000D02*
X92250000Y-16250000D01*
X93750000Y-18000000D02*
X93750000Y-20000000D01*
%TO.C,D4*%
X108500000Y-39650000D02*
X108500000Y-41350000D01*
X108500000Y-39650000D02*
X111050000Y-39650000D01*
X108500000Y-41350000D02*
X111050000Y-41350000D01*
%TO.C,R13*%
X55638748Y-53610000D02*
X56361252Y-53610000D01*
X55638748Y-48390000D02*
X56361252Y-48390000D01*
%TO.C,R10*%
X62741422Y-15710000D02*
X63258578Y-15710000D01*
X62741422Y-14290000D02*
X63258578Y-14290000D01*
%TO.C,C1*%
X86580000Y-52541422D02*
X86580000Y-53058578D01*
X85160000Y-52541422D02*
X85160000Y-53058578D01*
%TO.C,C20*%
X55741422Y-58790000D02*
X56258578Y-58790000D01*
X55741422Y-60210000D02*
X56258578Y-60210000D01*
%TO.C,R6*%
X74741422Y-15710000D02*
X75258578Y-15710000D01*
X74741422Y-14290000D02*
X75258578Y-14290000D01*
%TO.C,SW1*%
X77300000Y-21300000D02*
X77750000Y-21750000D01*
X77750000Y-21750000D02*
X80250000Y-21750000D01*
X76250000Y-18000000D02*
X76250000Y-20000000D01*
X80700000Y-16700000D02*
X80250000Y-16250000D01*
X77300000Y-16700000D02*
X77750000Y-16250000D01*
X80700000Y-21300000D02*
X80250000Y-21750000D01*
X77750000Y-16250000D02*
X80250000Y-16250000D01*
X81750000Y-18000000D02*
X81750000Y-20000000D01*
%TO.C,R18*%
X59710000Y-59258578D02*
X59710000Y-58741422D01*
X58290000Y-59258578D02*
X58290000Y-58741422D01*
%TO.C,C7*%
X52695563Y-58260000D02*
X53760000Y-57195563D01*
X49304437Y-58260000D02*
X48240000Y-57195563D01*
X53760000Y-57195563D02*
X53760000Y-52740000D01*
X52695563Y-58260000D02*
X52060000Y-58260000D01*
X49304437Y-58260000D02*
X49940000Y-58260000D01*
X48240000Y-57195563D02*
X48240000Y-52740000D01*
X48240000Y-52740000D02*
X49940000Y-52740000D01*
X53760000Y-52740000D02*
X52060000Y-52740000D01*
%TO.C,R8*%
X86741422Y-15710000D02*
X87258578Y-15710000D01*
X86741422Y-14290000D02*
X87258578Y-14290000D01*
%TO.C,SW3*%
X100300000Y-21300000D02*
X100750000Y-21750000D01*
X100750000Y-21750000D02*
X103250000Y-21750000D01*
X99250000Y-18000000D02*
X99250000Y-20000000D01*
X103700000Y-16700000D02*
X103250000Y-16250000D01*
X100300000Y-16700000D02*
X100750000Y-16250000D01*
X103700000Y-21300000D02*
X103250000Y-21750000D01*
X100750000Y-16250000D02*
X103250000Y-16250000D01*
X104750000Y-18000000D02*
X104750000Y-20000000D01*
D12*
%TO.C,U7*%
X93175000Y-23325000D02*
X93175000Y-23625000D01*
X93175000Y-26675000D02*
X89825000Y-26675000D01*
X89825000Y-23325000D02*
X89825000Y-23625000D01*
X93175000Y-26450000D02*
X94400000Y-26450000D01*
X93175000Y-26675000D02*
X93175000Y-26450000D01*
X93175000Y-23325000D02*
X89825000Y-23325000D01*
X89825000Y-26675000D02*
X89825000Y-26375000D01*
D14*
%TO.C,J5*%
X107600000Y-38700000D02*
X109600000Y-38700000D01*
X111500000Y-38700000D02*
X113400000Y-38700000D01*
X113400000Y-38700000D02*
X113400000Y-29300000D01*
X107600000Y-29300000D02*
X109600000Y-29300000D01*
X111500000Y-29300000D02*
X113400000Y-29300000D01*
%TO.C,C12*%
X91304437Y-49240000D02*
X90240000Y-50304437D01*
X94695563Y-49240000D02*
X95760000Y-50304437D01*
X90240000Y-50304437D02*
X90240000Y-54760000D01*
X91304437Y-49240000D02*
X91940000Y-49240000D01*
X94695563Y-49240000D02*
X94060000Y-49240000D01*
X95760000Y-50304437D02*
X95760000Y-54760000D01*
X95760000Y-54760000D02*
X94060000Y-54760000D01*
X90240000Y-54760000D02*
X91940000Y-54760000D01*
%TO.C,R19*%
X73710000Y-36508578D02*
X73710000Y-35991422D01*
X72290000Y-36508578D02*
X72290000Y-35991422D01*
%TO.C,L1*%
X73900000Y-56750000D02*
X73900000Y-54000000D01*
X61100000Y-56750000D02*
X61100000Y-54000000D01*
X61750000Y-44600000D02*
X73250000Y-44600000D01*
X73250000Y-57400000D02*
X61750000Y-57400000D01*
X73900000Y-48000000D02*
X73900000Y-45250000D01*
X61100000Y-48000000D02*
X61100000Y-45250000D01*
X73250000Y-44600000D02*
G75*
G02*
X73900000Y-45250000I0J-650000D01*
G01*
X61750000Y-57400000D02*
G75*
G02*
X61100000Y-56750000I0J650000D01*
G01*
X73900000Y-56750000D02*
G75*
G02*
X73250000Y-57400000I-650000J0D01*
G01*
X61100000Y-45250000D02*
G75*
G02*
X61750000Y-44600000I650000J0D01*
G01*
%TO.C,F1*%
X106395031Y-39790000D02*
X106104969Y-39790000D01*
X106395031Y-41210000D02*
X106104969Y-41210000D01*
%TO.C,C25*%
X97210000Y-25258578D02*
X97210000Y-24741422D01*
X95790000Y-25258578D02*
X95790000Y-24741422D01*
%TO.C,SW4*%
X65300000Y-21300000D02*
X65750000Y-21750000D01*
X65750000Y-21750000D02*
X68250000Y-21750000D01*
X64250000Y-18000000D02*
X64250000Y-20000000D01*
X68700000Y-16700000D02*
X68250000Y-16250000D01*
X65300000Y-16700000D02*
X65750000Y-16250000D01*
X68700000Y-21300000D02*
X68250000Y-21750000D01*
X65750000Y-16250000D02*
X68250000Y-16250000D01*
X69750000Y-18000000D02*
X69750000Y-20000000D01*
%TO.C,D1*%
X100540000Y-26685000D02*
X102460000Y-26685000D01*
X102460000Y-26685000D02*
X102460000Y-24000000D01*
X100540000Y-24000000D02*
X100540000Y-26685000D01*
%TO.C,Q1*%
X100670000Y-41760000D02*
X101600000Y-41760000D01*
X100670000Y-41760000D02*
X100670000Y-40300000D01*
X103830000Y-41760000D02*
X103830000Y-39600000D01*
X103830000Y-41760000D02*
X102900000Y-41760000D01*
%TO.C,C5*%
X88580000Y-52541422D02*
X88580000Y-53058578D01*
X87160000Y-52541422D02*
X87160000Y-53058578D01*
%TO.C,U6*%
X66100000Y-31110000D02*
X68550000Y-31110000D01*
X67900000Y-27890000D02*
X66100000Y-27890000D01*
%TO.C,U3*%
X80870000Y-56560000D02*
X84320000Y-56560000D01*
X80870000Y-56560000D02*
X78920000Y-56560000D01*
X80870000Y-51440000D02*
X78920000Y-51440000D01*
X80870000Y-51440000D02*
X82820000Y-51440000D01*
%TO.C,U5*%
X56900000Y-54890000D02*
X55100000Y-54890000D01*
X55100000Y-58110000D02*
X57550000Y-58110000D01*
%TO.C,U8*%
X82110000Y-27400000D02*
X82110000Y-24950000D01*
X78890000Y-25600000D02*
X78890000Y-27400000D01*
%TO.C,D2*%
X104540000Y-26685000D02*
X106460000Y-26685000D01*
X106460000Y-26685000D02*
X106460000Y-24000000D01*
X104540000Y-24000000D02*
X104540000Y-26685000D01*
%TO.C,U1*%
X93640000Y-40100000D02*
X93640000Y-42550000D01*
X96860000Y-41900000D02*
X96860000Y-40100000D01*
%TO.C,R9*%
X97741422Y-15710000D02*
X98258578Y-15710000D01*
X97741422Y-14290000D02*
X98258578Y-14290000D01*
%TO.C,C16*%
X59710000Y-47741422D02*
X59710000Y-48258578D01*
X58290000Y-47741422D02*
X58290000Y-48258578D01*
%TO.C,R17*%
X63710000Y-34758578D02*
X63710000Y-34241422D01*
X62290000Y-34758578D02*
X62290000Y-34241422D01*
%TO.C,D3*%
X57510000Y-46430000D02*
X57510000Y-44000000D01*
X55500000Y-46450000D02*
X54450000Y-46450000D01*
X54450000Y-46450000D02*
X54450000Y-44600000D01*
X57500000Y-46450000D02*
X56500000Y-46450000D01*
%TD*%
M02*
