%TF.GenerationSoftware,KiCad,Pcbnew,(5.99.0-2671-gfc0a358ba)*%
%TF.CreationDate,2020-08-29T23:40:29+05:30*%
%TF.ProjectId,Power_Supply,506f7765-725f-4537-9570-706c792e6b69,rev?*%
%TF.SameCoordinates,Original*%
%TF.FileFunction,Paste,Top*%
%TF.FilePolarity,Positive*%
%FSLAX46Y46*%
G04 Gerber Fmt 4.6, Leading zero omitted, Abs format (unit mm)*
G04 Created by KiCad (PCBNEW (5.99.0-2671-gfc0a358ba)) date 2020-08-29 23:40:29*
%MOMM*%
%LPD*%
G01*
G04 APERTURE LIST*
%ADD10R,1.400000X1.150000*%
%ADD11R,1.600000X0.550000*%
%ADD12R,0.550000X1.600000*%
%ADD13R,0.900000X0.800000*%
%ADD14R,1.700000X1.000000*%
%ADD15R,0.600000X0.450000*%
%ADD16R,0.800000X0.300000*%
%ADD17R,1.400000X0.300000*%
%ADD18R,0.800000X0.900000*%
%ADD19R,1.450000X0.600000*%
%ADD20R,1.450000X0.300000*%
%ADD21R,2.900000X5.400000*%
%ADD22R,1.060000X0.650000*%
%ADD23R,0.650000X1.060000*%
%ADD24R,0.650000X1.220000*%
G04 APERTURE END LIST*
%TO.C,C27*%
G36*
G01*
X55706250Y-19825000D02*
X54793750Y-19825000D01*
G75*
G02*
X54550000Y-19581250I0J243750D01*
G01*
X54550000Y-19093750D01*
G75*
G02*
X54793750Y-18850000I243750J0D01*
G01*
X55706250Y-18850000D01*
G75*
G02*
X55950000Y-19093750I0J-243750D01*
G01*
X55950000Y-19581250D01*
G75*
G02*
X55706250Y-19825000I-243750J0D01*
G01*
G37*
G36*
G01*
X55706250Y-17950000D02*
X54793750Y-17950000D01*
G75*
G02*
X54550000Y-17706250I0J243750D01*
G01*
X54550000Y-17218750D01*
G75*
G02*
X54793750Y-16975000I243750J0D01*
G01*
X55706250Y-16975000D01*
G75*
G02*
X55950000Y-17218750I0J-243750D01*
G01*
X55950000Y-17706250D01*
G75*
G02*
X55706250Y-17950000I-243750J0D01*
G01*
G37*
%TD*%
%TO.C,C29*%
G36*
G01*
X49206250Y-19925000D02*
X48293750Y-19925000D01*
G75*
G02*
X48050000Y-19681250I0J243750D01*
G01*
X48050000Y-19193750D01*
G75*
G02*
X48293750Y-18950000I243750J0D01*
G01*
X49206250Y-18950000D01*
G75*
G02*
X49450000Y-19193750I0J-243750D01*
G01*
X49450000Y-19681250D01*
G75*
G02*
X49206250Y-19925000I-243750J0D01*
G01*
G37*
G36*
G01*
X49206250Y-18050000D02*
X48293750Y-18050000D01*
G75*
G02*
X48050000Y-17806250I0J243750D01*
G01*
X48050000Y-17318750D01*
G75*
G02*
X48293750Y-17075000I243750J0D01*
G01*
X49206250Y-17075000D01*
G75*
G02*
X49450000Y-17318750I0J-243750D01*
G01*
X49450000Y-17806250D01*
G75*
G02*
X49206250Y-18050000I-243750J0D01*
G01*
G37*
%TD*%
%TO.C,R20*%
G36*
G01*
X73456250Y-34175000D02*
X72543750Y-34175000D01*
G75*
G02*
X72300000Y-33931250I0J243750D01*
G01*
X72300000Y-33443750D01*
G75*
G02*
X72543750Y-33200000I243750J0D01*
G01*
X73456250Y-33200000D01*
G75*
G02*
X73700000Y-33443750I0J-243750D01*
G01*
X73700000Y-33931250D01*
G75*
G02*
X73456250Y-34175000I-243750J0D01*
G01*
G37*
G36*
G01*
X73456250Y-32300000D02*
X72543750Y-32300000D01*
G75*
G02*
X72300000Y-32056250I0J243750D01*
G01*
X72300000Y-31568750D01*
G75*
G02*
X72543750Y-31325000I243750J0D01*
G01*
X73456250Y-31325000D01*
G75*
G02*
X73700000Y-31568750I0J-243750D01*
G01*
X73700000Y-32056250D01*
G75*
G02*
X73456250Y-32300000I-243750J0D01*
G01*
G37*
%TD*%
%TO.C,C6*%
G36*
G01*
X76326250Y-58225000D02*
X75413750Y-58225000D01*
G75*
G02*
X75170000Y-57981250I0J243750D01*
G01*
X75170000Y-57493750D01*
G75*
G02*
X75413750Y-57250000I243750J0D01*
G01*
X76326250Y-57250000D01*
G75*
G02*
X76570000Y-57493750I0J-243750D01*
G01*
X76570000Y-57981250D01*
G75*
G02*
X76326250Y-58225000I-243750J0D01*
G01*
G37*
G36*
G01*
X76326250Y-56350000D02*
X75413750Y-56350000D01*
G75*
G02*
X75170000Y-56106250I0J243750D01*
G01*
X75170000Y-55618750D01*
G75*
G02*
X75413750Y-55375000I243750J0D01*
G01*
X76326250Y-55375000D01*
G75*
G02*
X76570000Y-55618750I0J-243750D01*
G01*
X76570000Y-56106250D01*
G75*
G02*
X76326250Y-56350000I-243750J0D01*
G01*
G37*
%TD*%
%TO.C,R23*%
G36*
G01*
X93575000Y-44956250D02*
X93575000Y-44043750D01*
G75*
G02*
X93818750Y-43800000I243750J0D01*
G01*
X94306250Y-43800000D01*
G75*
G02*
X94550000Y-44043750I0J-243750D01*
G01*
X94550000Y-44956250D01*
G75*
G02*
X94306250Y-45200000I-243750J0D01*
G01*
X93818750Y-45200000D01*
G75*
G02*
X93575000Y-44956250I0J243750D01*
G01*
G37*
G36*
G01*
X95450000Y-44956250D02*
X95450000Y-44043750D01*
G75*
G02*
X95693750Y-43800000I243750J0D01*
G01*
X96181250Y-43800000D01*
G75*
G02*
X96425000Y-44043750I0J-243750D01*
G01*
X96425000Y-44956250D01*
G75*
G02*
X96181250Y-45200000I-243750J0D01*
G01*
X95693750Y-45200000D01*
G75*
G02*
X95450000Y-44956250I0J243750D01*
G01*
G37*
%TD*%
%TO.C,R16*%
G36*
G01*
X62543750Y-33075000D02*
X63456250Y-33075000D01*
G75*
G02*
X63700000Y-33318750I0J-243750D01*
G01*
X63700000Y-33806250D01*
G75*
G02*
X63456250Y-34050000I-243750J0D01*
G01*
X62543750Y-34050000D01*
G75*
G02*
X62300000Y-33806250I0J243750D01*
G01*
X62300000Y-33318750D01*
G75*
G02*
X62543750Y-33075000I243750J0D01*
G01*
G37*
G36*
G01*
X62543750Y-34950000D02*
X63456250Y-34950000D01*
G75*
G02*
X63700000Y-35193750I0J-243750D01*
G01*
X63700000Y-35681250D01*
G75*
G02*
X63456250Y-35925000I-243750J0D01*
G01*
X62543750Y-35925000D01*
G75*
G02*
X62300000Y-35681250I0J243750D01*
G01*
X62300000Y-35193750D01*
G75*
G02*
X62543750Y-34950000I243750J0D01*
G01*
G37*
%TD*%
%TO.C,C18*%
G36*
G01*
X59456250Y-55425000D02*
X58543750Y-55425000D01*
G75*
G02*
X58300000Y-55181250I0J243750D01*
G01*
X58300000Y-54693750D01*
G75*
G02*
X58543750Y-54450000I243750J0D01*
G01*
X59456250Y-54450000D01*
G75*
G02*
X59700000Y-54693750I0J-243750D01*
G01*
X59700000Y-55181250D01*
G75*
G02*
X59456250Y-55425000I-243750J0D01*
G01*
G37*
G36*
G01*
X59456250Y-53550000D02*
X58543750Y-53550000D01*
G75*
G02*
X58300000Y-53306250I0J243750D01*
G01*
X58300000Y-52818750D01*
G75*
G02*
X58543750Y-52575000I243750J0D01*
G01*
X59456250Y-52575000D01*
G75*
G02*
X59700000Y-52818750I0J-243750D01*
G01*
X59700000Y-53306250D01*
G75*
G02*
X59456250Y-53550000I-243750J0D01*
G01*
G37*
%TD*%
D10*
%TO.C,Y1*%
X81900000Y-36800000D03*
X84100000Y-36800000D03*
X84100000Y-35200000D03*
X81900000Y-35200000D03*
%TD*%
%TO.C,U4*%
G36*
G01*
X70925000Y-34875000D02*
X70925000Y-35075000D01*
G75*
G02*
X70825000Y-35175000I-100000J0D01*
G01*
X69400000Y-35175000D01*
G75*
G02*
X69300000Y-35075000I0J100000D01*
G01*
X69300000Y-34875000D01*
G75*
G02*
X69400000Y-34775000I100000J0D01*
G01*
X70825000Y-34775000D01*
G75*
G02*
X70925000Y-34875000I0J-100000D01*
G01*
G37*
G36*
G01*
X70925000Y-34225000D02*
X70925000Y-34425000D01*
G75*
G02*
X70825000Y-34525000I-100000J0D01*
G01*
X69400000Y-34525000D01*
G75*
G02*
X69300000Y-34425000I0J100000D01*
G01*
X69300000Y-34225000D01*
G75*
G02*
X69400000Y-34125000I100000J0D01*
G01*
X70825000Y-34125000D01*
G75*
G02*
X70925000Y-34225000I0J-100000D01*
G01*
G37*
G36*
G01*
X70925000Y-33575000D02*
X70925000Y-33775000D01*
G75*
G02*
X70825000Y-33875000I-100000J0D01*
G01*
X69400000Y-33875000D01*
G75*
G02*
X69300000Y-33775000I0J100000D01*
G01*
X69300000Y-33575000D01*
G75*
G02*
X69400000Y-33475000I100000J0D01*
G01*
X70825000Y-33475000D01*
G75*
G02*
X70925000Y-33575000I0J-100000D01*
G01*
G37*
G36*
G01*
X70925000Y-32925000D02*
X70925000Y-33125000D01*
G75*
G02*
X70825000Y-33225000I-100000J0D01*
G01*
X69400000Y-33225000D01*
G75*
G02*
X69300000Y-33125000I0J100000D01*
G01*
X69300000Y-32925000D01*
G75*
G02*
X69400000Y-32825000I100000J0D01*
G01*
X70825000Y-32825000D01*
G75*
G02*
X70925000Y-32925000I0J-100000D01*
G01*
G37*
G36*
G01*
X66700000Y-32925000D02*
X66700000Y-33125000D01*
G75*
G02*
X66600000Y-33225000I-100000J0D01*
G01*
X65175000Y-33225000D01*
G75*
G02*
X65075000Y-33125000I0J100000D01*
G01*
X65075000Y-32925000D01*
G75*
G02*
X65175000Y-32825000I100000J0D01*
G01*
X66600000Y-32825000D01*
G75*
G02*
X66700000Y-32925000I0J-100000D01*
G01*
G37*
G36*
G01*
X66700000Y-33575000D02*
X66700000Y-33775000D01*
G75*
G02*
X66600000Y-33875000I-100000J0D01*
G01*
X65175000Y-33875000D01*
G75*
G02*
X65075000Y-33775000I0J100000D01*
G01*
X65075000Y-33575000D01*
G75*
G02*
X65175000Y-33475000I100000J0D01*
G01*
X66600000Y-33475000D01*
G75*
G02*
X66700000Y-33575000I0J-100000D01*
G01*
G37*
G36*
G01*
X66700000Y-34225000D02*
X66700000Y-34425000D01*
G75*
G02*
X66600000Y-34525000I-100000J0D01*
G01*
X65175000Y-34525000D01*
G75*
G02*
X65075000Y-34425000I0J100000D01*
G01*
X65075000Y-34225000D01*
G75*
G02*
X65175000Y-34125000I100000J0D01*
G01*
X66600000Y-34125000D01*
G75*
G02*
X66700000Y-34225000I0J-100000D01*
G01*
G37*
G36*
G01*
X66700000Y-34875000D02*
X66700000Y-35075000D01*
G75*
G02*
X66600000Y-35175000I-100000J0D01*
G01*
X65175000Y-35175000D01*
G75*
G02*
X65075000Y-35075000I0J100000D01*
G01*
X65075000Y-34875000D01*
G75*
G02*
X65175000Y-34775000I100000J0D01*
G01*
X66600000Y-34775000D01*
G75*
G02*
X66700000Y-34875000I0J-100000D01*
G01*
G37*
%TD*%
D11*
%TO.C,U2*%
X87250000Y-30200000D03*
X87250000Y-31000000D03*
X87250000Y-31800000D03*
X87250000Y-32600000D03*
X87250000Y-33400000D03*
X87250000Y-34200000D03*
X87250000Y-35000000D03*
X87250000Y-35800000D03*
D12*
X88700000Y-37250000D03*
X89500000Y-37250000D03*
X90300000Y-37250000D03*
X91100000Y-37250000D03*
X91900000Y-37250000D03*
X92700000Y-37250000D03*
X93500000Y-37250000D03*
X94300000Y-37250000D03*
D11*
X95750000Y-35800000D03*
X95750000Y-35000000D03*
X95750000Y-34200000D03*
X95750000Y-33400000D03*
X95750000Y-32600000D03*
X95750000Y-31800000D03*
X95750000Y-31000000D03*
X95750000Y-30200000D03*
D12*
X94300000Y-28750000D03*
X93500000Y-28750000D03*
X92700000Y-28750000D03*
X91900000Y-28750000D03*
X91100000Y-28750000D03*
X90300000Y-28750000D03*
X89500000Y-28750000D03*
X88700000Y-28750000D03*
%TD*%
%TO.C,C28*%
G36*
G01*
X48825000Y-21143750D02*
X48825000Y-22056250D01*
G75*
G02*
X48581250Y-22300000I-243750J0D01*
G01*
X48093750Y-22300000D01*
G75*
G02*
X47850000Y-22056250I0J243750D01*
G01*
X47850000Y-21143750D01*
G75*
G02*
X48093750Y-20900000I243750J0D01*
G01*
X48581250Y-20900000D01*
G75*
G02*
X48825000Y-21143750I0J-243750D01*
G01*
G37*
G36*
G01*
X46950000Y-21143750D02*
X46950000Y-22056250D01*
G75*
G02*
X46706250Y-22300000I-243750J0D01*
G01*
X46218750Y-22300000D01*
G75*
G02*
X45975000Y-22056250I0J243750D01*
G01*
X45975000Y-21143750D01*
G75*
G02*
X46218750Y-20900000I243750J0D01*
G01*
X46706250Y-20900000D01*
G75*
G02*
X46950000Y-21143750I0J-243750D01*
G01*
G37*
%TD*%
D13*
%TO.C,Q2*%
X87620000Y-47950000D03*
X87620000Y-46050000D03*
X85620000Y-47000000D03*
%TD*%
%TO.C,C4*%
G36*
G01*
X86326250Y-58225000D02*
X85413750Y-58225000D01*
G75*
G02*
X85170000Y-57981250I0J243750D01*
G01*
X85170000Y-57493750D01*
G75*
G02*
X85413750Y-57250000I243750J0D01*
G01*
X86326250Y-57250000D01*
G75*
G02*
X86570000Y-57493750I0J-243750D01*
G01*
X86570000Y-57981250D01*
G75*
G02*
X86326250Y-58225000I-243750J0D01*
G01*
G37*
G36*
G01*
X86326250Y-56350000D02*
X85413750Y-56350000D01*
G75*
G02*
X85170000Y-56106250I0J243750D01*
G01*
X85170000Y-55618750D01*
G75*
G02*
X85413750Y-55375000I243750J0D01*
G01*
X86326250Y-55375000D01*
G75*
G02*
X86570000Y-55618750I0J-243750D01*
G01*
X86570000Y-56106250D01*
G75*
G02*
X86326250Y-56350000I-243750J0D01*
G01*
G37*
%TD*%
D14*
%TO.C,SW2*%
X87850000Y-17100000D03*
X94150000Y-17100000D03*
X94150000Y-20900000D03*
X87850000Y-20900000D03*
%TD*%
D15*
%TO.C,D4*%
X108950000Y-40500000D03*
X111050000Y-40500000D03*
%TD*%
%TO.C,R21*%
G36*
G01*
X101793750Y-39575000D02*
X102706250Y-39575000D01*
G75*
G02*
X102950000Y-39818750I0J-243750D01*
G01*
X102950000Y-40306250D01*
G75*
G02*
X102706250Y-40550000I-243750J0D01*
G01*
X101793750Y-40550000D01*
G75*
G02*
X101550000Y-40306250I0J243750D01*
G01*
X101550000Y-39818750D01*
G75*
G02*
X101793750Y-39575000I243750J0D01*
G01*
G37*
G36*
G01*
X101793750Y-41450000D02*
X102706250Y-41450000D01*
G75*
G02*
X102950000Y-41693750I0J-243750D01*
G01*
X102950000Y-42181250D01*
G75*
G02*
X102706250Y-42425000I-243750J0D01*
G01*
X101793750Y-42425000D01*
G75*
G02*
X101550000Y-42181250I0J243750D01*
G01*
X101550000Y-41693750D01*
G75*
G02*
X101793750Y-41450000I243750J0D01*
G01*
G37*
%TD*%
%TO.C,R13*%
G36*
G01*
X54300000Y-53350000D02*
X54300000Y-48650000D01*
G75*
G02*
X54550000Y-48400000I250000J0D01*
G01*
X55200000Y-48400000D01*
G75*
G02*
X55450000Y-48650000I0J-250000D01*
G01*
X55450000Y-53350000D01*
G75*
G02*
X55200000Y-53600000I-250000J0D01*
G01*
X54550000Y-53600000D01*
G75*
G02*
X54300000Y-53350000I0J250000D01*
G01*
G37*
G36*
G01*
X56550000Y-53350000D02*
X56550000Y-48650000D01*
G75*
G02*
X56800000Y-48400000I250000J0D01*
G01*
X57450000Y-48400000D01*
G75*
G02*
X57700000Y-48650000I0J-250000D01*
G01*
X57700000Y-53350000D01*
G75*
G02*
X57450000Y-53600000I-250000J0D01*
G01*
X56800000Y-53600000D01*
G75*
G02*
X56550000Y-53350000I0J250000D01*
G01*
G37*
%TD*%
%TO.C,R10*%
G36*
G01*
X61575000Y-15456250D02*
X61575000Y-14543750D01*
G75*
G02*
X61818750Y-14300000I243750J0D01*
G01*
X62306250Y-14300000D01*
G75*
G02*
X62550000Y-14543750I0J-243750D01*
G01*
X62550000Y-15456250D01*
G75*
G02*
X62306250Y-15700000I-243750J0D01*
G01*
X61818750Y-15700000D01*
G75*
G02*
X61575000Y-15456250I0J243750D01*
G01*
G37*
G36*
G01*
X63450000Y-15456250D02*
X63450000Y-14543750D01*
G75*
G02*
X63693750Y-14300000I243750J0D01*
G01*
X64181250Y-14300000D01*
G75*
G02*
X64425000Y-14543750I0J-243750D01*
G01*
X64425000Y-15456250D01*
G75*
G02*
X64181250Y-15700000I-243750J0D01*
G01*
X63693750Y-15700000D01*
G75*
G02*
X63450000Y-15456250I0J243750D01*
G01*
G37*
%TD*%
%TO.C,C1*%
G36*
G01*
X85413750Y-51375000D02*
X86326250Y-51375000D01*
G75*
G02*
X86570000Y-51618750I0J-243750D01*
G01*
X86570000Y-52106250D01*
G75*
G02*
X86326250Y-52350000I-243750J0D01*
G01*
X85413750Y-52350000D01*
G75*
G02*
X85170000Y-52106250I0J243750D01*
G01*
X85170000Y-51618750D01*
G75*
G02*
X85413750Y-51375000I243750J0D01*
G01*
G37*
G36*
G01*
X85413750Y-53250000D02*
X86326250Y-53250000D01*
G75*
G02*
X86570000Y-53493750I0J-243750D01*
G01*
X86570000Y-53981250D01*
G75*
G02*
X86326250Y-54225000I-243750J0D01*
G01*
X85413750Y-54225000D01*
G75*
G02*
X85170000Y-53981250I0J243750D01*
G01*
X85170000Y-53493750D01*
G75*
G02*
X85413750Y-53250000I243750J0D01*
G01*
G37*
%TD*%
%TO.C,C20*%
G36*
G01*
X54575000Y-59956250D02*
X54575000Y-59043750D01*
G75*
G02*
X54818750Y-58800000I243750J0D01*
G01*
X55306250Y-58800000D01*
G75*
G02*
X55550000Y-59043750I0J-243750D01*
G01*
X55550000Y-59956250D01*
G75*
G02*
X55306250Y-60200000I-243750J0D01*
G01*
X54818750Y-60200000D01*
G75*
G02*
X54575000Y-59956250I0J243750D01*
G01*
G37*
G36*
G01*
X56450000Y-59956250D02*
X56450000Y-59043750D01*
G75*
G02*
X56693750Y-58800000I243750J0D01*
G01*
X57181250Y-58800000D01*
G75*
G02*
X57425000Y-59043750I0J-243750D01*
G01*
X57425000Y-59956250D01*
G75*
G02*
X57181250Y-60200000I-243750J0D01*
G01*
X56693750Y-60200000D01*
G75*
G02*
X56450000Y-59956250I0J243750D01*
G01*
G37*
%TD*%
%TO.C,R6*%
G36*
G01*
X73575000Y-15456250D02*
X73575000Y-14543750D01*
G75*
G02*
X73818750Y-14300000I243750J0D01*
G01*
X74306250Y-14300000D01*
G75*
G02*
X74550000Y-14543750I0J-243750D01*
G01*
X74550000Y-15456250D01*
G75*
G02*
X74306250Y-15700000I-243750J0D01*
G01*
X73818750Y-15700000D01*
G75*
G02*
X73575000Y-15456250I0J243750D01*
G01*
G37*
G36*
G01*
X75450000Y-15456250D02*
X75450000Y-14543750D01*
G75*
G02*
X75693750Y-14300000I243750J0D01*
G01*
X76181250Y-14300000D01*
G75*
G02*
X76425000Y-14543750I0J-243750D01*
G01*
X76425000Y-15456250D01*
G75*
G02*
X76181250Y-15700000I-243750J0D01*
G01*
X75693750Y-15700000D01*
G75*
G02*
X75450000Y-15456250I0J243750D01*
G01*
G37*
%TD*%
D14*
%TO.C,SW1*%
X75850000Y-17100000D03*
X82150000Y-17100000D03*
X75850000Y-20900000D03*
X82150000Y-20900000D03*
%TD*%
%TO.C,R18*%
G36*
G01*
X59456250Y-60425000D02*
X58543750Y-60425000D01*
G75*
G02*
X58300000Y-60181250I0J243750D01*
G01*
X58300000Y-59693750D01*
G75*
G02*
X58543750Y-59450000I243750J0D01*
G01*
X59456250Y-59450000D01*
G75*
G02*
X59700000Y-59693750I0J-243750D01*
G01*
X59700000Y-60181250D01*
G75*
G02*
X59456250Y-60425000I-243750J0D01*
G01*
G37*
G36*
G01*
X59456250Y-58550000D02*
X58543750Y-58550000D01*
G75*
G02*
X58300000Y-58306250I0J243750D01*
G01*
X58300000Y-57818750D01*
G75*
G02*
X58543750Y-57575000I243750J0D01*
G01*
X59456250Y-57575000D01*
G75*
G02*
X59700000Y-57818750I0J-243750D01*
G01*
X59700000Y-58306250D01*
G75*
G02*
X59456250Y-58550000I-243750J0D01*
G01*
G37*
%TD*%
D16*
%TO.C,U9*%
X53550000Y-17750000D03*
X53550000Y-17250000D03*
X53550000Y-16750000D03*
X53550000Y-16250000D03*
X50450000Y-16250000D03*
X50450000Y-16750000D03*
X50450000Y-17250000D03*
X50450000Y-17750000D03*
%TD*%
%TO.C,C7*%
G36*
G01*
X51550000Y-58950000D02*
X50450000Y-58950000D01*
G75*
G02*
X50200000Y-58700000I0J250000D01*
G01*
X50200000Y-56425000D01*
G75*
G02*
X50450000Y-56175000I250000J0D01*
G01*
X51550000Y-56175000D01*
G75*
G02*
X51800000Y-56425000I0J-250000D01*
G01*
X51800000Y-58700000D01*
G75*
G02*
X51550000Y-58950000I-250000J0D01*
G01*
G37*
G36*
G01*
X51550000Y-54825000D02*
X50450000Y-54825000D01*
G75*
G02*
X50200000Y-54575000I0J250000D01*
G01*
X50200000Y-52300000D01*
G75*
G02*
X50450000Y-52050000I250000J0D01*
G01*
X51550000Y-52050000D01*
G75*
G02*
X51800000Y-52300000I0J-250000D01*
G01*
X51800000Y-54575000D01*
G75*
G02*
X51550000Y-54825000I-250000J0D01*
G01*
G37*
%TD*%
%TO.C,C35*%
G36*
G01*
X104706250Y-47175000D02*
X103793750Y-47175000D01*
G75*
G02*
X103550000Y-46931250I0J243750D01*
G01*
X103550000Y-46443750D01*
G75*
G02*
X103793750Y-46200000I243750J0D01*
G01*
X104706250Y-46200000D01*
G75*
G02*
X104950000Y-46443750I0J-243750D01*
G01*
X104950000Y-46931250D01*
G75*
G02*
X104706250Y-47175000I-243750J0D01*
G01*
G37*
G36*
G01*
X104706250Y-45300000D02*
X103793750Y-45300000D01*
G75*
G02*
X103550000Y-45056250I0J243750D01*
G01*
X103550000Y-44568750D01*
G75*
G02*
X103793750Y-44325000I243750J0D01*
G01*
X104706250Y-44325000D01*
G75*
G02*
X104950000Y-44568750I0J-243750D01*
G01*
X104950000Y-45056250D01*
G75*
G02*
X104706250Y-45300000I-243750J0D01*
G01*
G37*
%TD*%
%TO.C,R8*%
G36*
G01*
X85575000Y-15456250D02*
X85575000Y-14543750D01*
G75*
G02*
X85818750Y-14300000I243750J0D01*
G01*
X86306250Y-14300000D01*
G75*
G02*
X86550000Y-14543750I0J-243750D01*
G01*
X86550000Y-15456250D01*
G75*
G02*
X86306250Y-15700000I-243750J0D01*
G01*
X85818750Y-15700000D01*
G75*
G02*
X85575000Y-15456250I0J243750D01*
G01*
G37*
G36*
G01*
X87450000Y-15456250D02*
X87450000Y-14543750D01*
G75*
G02*
X87693750Y-14300000I243750J0D01*
G01*
X88181250Y-14300000D01*
G75*
G02*
X88425000Y-14543750I0J-243750D01*
G01*
X88425000Y-15456250D01*
G75*
G02*
X88181250Y-15700000I-243750J0D01*
G01*
X87693750Y-15700000D01*
G75*
G02*
X87450000Y-15456250I0J243750D01*
G01*
G37*
%TD*%
D14*
%TO.C,SW3*%
X105150000Y-17100000D03*
X98850000Y-17100000D03*
X105150000Y-20900000D03*
X98850000Y-20900000D03*
%TD*%
D17*
%TO.C,U7*%
X93700000Y-26000000D03*
X93700000Y-25500000D03*
X93700000Y-25000000D03*
X93700000Y-24500000D03*
X93700000Y-24000000D03*
X89300000Y-24000000D03*
X89300000Y-24500000D03*
X89300000Y-25000000D03*
X89300000Y-25500000D03*
X89300000Y-26000000D03*
%TD*%
D15*
%TO.C,D9*%
X60800000Y-30250000D03*
X58700000Y-30250000D03*
%TD*%
D18*
%TO.C,Q3*%
X60700000Y-32000000D03*
X58800000Y-32000000D03*
X59750000Y-34000000D03*
%TD*%
D19*
%TO.C,J5*%
X105455000Y-37250000D03*
X105455000Y-36450000D03*
D20*
X105455000Y-35250000D03*
X105455000Y-34250000D03*
X105455000Y-33750000D03*
X105455000Y-32750000D03*
D19*
X105455000Y-31550000D03*
X105455000Y-30750000D03*
X105455000Y-30750000D03*
X105455000Y-31550000D03*
D20*
X105455000Y-32250000D03*
X105455000Y-33250000D03*
X105455000Y-34750000D03*
X105455000Y-35750000D03*
D19*
X105455000Y-36450000D03*
X105455000Y-37250000D03*
%TD*%
%TO.C,C12*%
G36*
G01*
X92450000Y-48550000D02*
X93550000Y-48550000D01*
G75*
G02*
X93800000Y-48800000I0J-250000D01*
G01*
X93800000Y-51075000D01*
G75*
G02*
X93550000Y-51325000I-250000J0D01*
G01*
X92450000Y-51325000D01*
G75*
G02*
X92200000Y-51075000I0J250000D01*
G01*
X92200000Y-48800000D01*
G75*
G02*
X92450000Y-48550000I250000J0D01*
G01*
G37*
G36*
G01*
X92450000Y-52675000D02*
X93550000Y-52675000D01*
G75*
G02*
X93800000Y-52925000I0J-250000D01*
G01*
X93800000Y-55200000D01*
G75*
G02*
X93550000Y-55450000I-250000J0D01*
G01*
X92450000Y-55450000D01*
G75*
G02*
X92200000Y-55200000I0J250000D01*
G01*
X92200000Y-52925000D01*
G75*
G02*
X92450000Y-52675000I250000J0D01*
G01*
G37*
%TD*%
%TO.C,R19*%
G36*
G01*
X73456250Y-37675000D02*
X72543750Y-37675000D01*
G75*
G02*
X72300000Y-37431250I0J243750D01*
G01*
X72300000Y-36943750D01*
G75*
G02*
X72543750Y-36700000I243750J0D01*
G01*
X73456250Y-36700000D01*
G75*
G02*
X73700000Y-36943750I0J-243750D01*
G01*
X73700000Y-37431250D01*
G75*
G02*
X73456250Y-37675000I-243750J0D01*
G01*
G37*
G36*
G01*
X73456250Y-35800000D02*
X72543750Y-35800000D01*
G75*
G02*
X72300000Y-35556250I0J243750D01*
G01*
X72300000Y-35068750D01*
G75*
G02*
X72543750Y-34825000I243750J0D01*
G01*
X73456250Y-34825000D01*
G75*
G02*
X73700000Y-35068750I0J-243750D01*
G01*
X73700000Y-35556250D01*
G75*
G02*
X73456250Y-35800000I-243750J0D01*
G01*
G37*
%TD*%
D21*
%TO.C,L1*%
X72350000Y-51000000D03*
X62650000Y-51000000D03*
%TD*%
%TO.C,F1*%
G36*
G01*
X107875000Y-40100000D02*
X107875000Y-40900000D01*
G75*
G02*
X107625000Y-41150000I-250000J0D01*
G01*
X106800000Y-41150000D01*
G75*
G02*
X106550000Y-40900000I0J250000D01*
G01*
X106550000Y-40100000D01*
G75*
G02*
X106800000Y-39850000I250000J0D01*
G01*
X107625000Y-39850000D01*
G75*
G02*
X107875000Y-40100000I0J-250000D01*
G01*
G37*
G36*
G01*
X105950000Y-40100000D02*
X105950000Y-40900000D01*
G75*
G02*
X105700000Y-41150000I-250000J0D01*
G01*
X104875000Y-41150000D01*
G75*
G02*
X104625000Y-40900000I0J250000D01*
G01*
X104625000Y-40100000D01*
G75*
G02*
X104875000Y-39850000I250000J0D01*
G01*
X105700000Y-39850000D01*
G75*
G02*
X105950000Y-40100000I0J-250000D01*
G01*
G37*
%TD*%
%TO.C,C25*%
G36*
G01*
X96956250Y-26425000D02*
X96043750Y-26425000D01*
G75*
G02*
X95800000Y-26181250I0J243750D01*
G01*
X95800000Y-25693750D01*
G75*
G02*
X96043750Y-25450000I243750J0D01*
G01*
X96956250Y-25450000D01*
G75*
G02*
X97200000Y-25693750I0J-243750D01*
G01*
X97200000Y-26181250D01*
G75*
G02*
X96956250Y-26425000I-243750J0D01*
G01*
G37*
G36*
G01*
X96956250Y-24550000D02*
X96043750Y-24550000D01*
G75*
G02*
X95800000Y-24306250I0J243750D01*
G01*
X95800000Y-23818750D01*
G75*
G02*
X96043750Y-23575000I243750J0D01*
G01*
X96956250Y-23575000D01*
G75*
G02*
X97200000Y-23818750I0J-243750D01*
G01*
X97200000Y-24306250D01*
G75*
G02*
X96956250Y-24550000I-243750J0D01*
G01*
G37*
%TD*%
D14*
%TO.C,SW4*%
X63850000Y-17100000D03*
X70150000Y-17100000D03*
X70150000Y-20900000D03*
X63850000Y-20900000D03*
%TD*%
%TO.C,D1*%
G36*
G01*
X101956250Y-26425000D02*
X101043750Y-26425000D01*
G75*
G02*
X100800000Y-26181250I0J243750D01*
G01*
X100800000Y-25693750D01*
G75*
G02*
X101043750Y-25450000I243750J0D01*
G01*
X101956250Y-25450000D01*
G75*
G02*
X102200000Y-25693750I0J-243750D01*
G01*
X102200000Y-26181250D01*
G75*
G02*
X101956250Y-26425000I-243750J0D01*
G01*
G37*
G36*
G01*
X101956250Y-24550000D02*
X101043750Y-24550000D01*
G75*
G02*
X100800000Y-24306250I0J243750D01*
G01*
X100800000Y-23818750D01*
G75*
G02*
X101043750Y-23575000I243750J0D01*
G01*
X101956250Y-23575000D01*
G75*
G02*
X102200000Y-23818750I0J-243750D01*
G01*
X102200000Y-24306250D01*
G75*
G02*
X101956250Y-24550000I-243750J0D01*
G01*
G37*
%TD*%
D18*
%TO.C,Q1*%
X100200000Y-40000000D03*
X98300000Y-40000000D03*
X99250000Y-42000000D03*
%TD*%
%TO.C,U11*%
G36*
G01*
X97075000Y-44875000D02*
X97075000Y-44675000D01*
G75*
G02*
X97175000Y-44575000I100000J0D01*
G01*
X98600000Y-44575000D01*
G75*
G02*
X98700000Y-44675000I0J-100000D01*
G01*
X98700000Y-44875000D01*
G75*
G02*
X98600000Y-44975000I-100000J0D01*
G01*
X97175000Y-44975000D01*
G75*
G02*
X97075000Y-44875000I0J100000D01*
G01*
G37*
G36*
G01*
X97075000Y-45525000D02*
X97075000Y-45325000D01*
G75*
G02*
X97175000Y-45225000I100000J0D01*
G01*
X98600000Y-45225000D01*
G75*
G02*
X98700000Y-45325000I0J-100000D01*
G01*
X98700000Y-45525000D01*
G75*
G02*
X98600000Y-45625000I-100000J0D01*
G01*
X97175000Y-45625000D01*
G75*
G02*
X97075000Y-45525000I0J100000D01*
G01*
G37*
G36*
G01*
X97075000Y-46175000D02*
X97075000Y-45975000D01*
G75*
G02*
X97175000Y-45875000I100000J0D01*
G01*
X98600000Y-45875000D01*
G75*
G02*
X98700000Y-45975000I0J-100000D01*
G01*
X98700000Y-46175000D01*
G75*
G02*
X98600000Y-46275000I-100000J0D01*
G01*
X97175000Y-46275000D01*
G75*
G02*
X97075000Y-46175000I0J100000D01*
G01*
G37*
G36*
G01*
X97075000Y-46825000D02*
X97075000Y-46625000D01*
G75*
G02*
X97175000Y-46525000I100000J0D01*
G01*
X98600000Y-46525000D01*
G75*
G02*
X98700000Y-46625000I0J-100000D01*
G01*
X98700000Y-46825000D01*
G75*
G02*
X98600000Y-46925000I-100000J0D01*
G01*
X97175000Y-46925000D01*
G75*
G02*
X97075000Y-46825000I0J100000D01*
G01*
G37*
G36*
G01*
X101300000Y-46825000D02*
X101300000Y-46625000D01*
G75*
G02*
X101400000Y-46525000I100000J0D01*
G01*
X102825000Y-46525000D01*
G75*
G02*
X102925000Y-46625000I0J-100000D01*
G01*
X102925000Y-46825000D01*
G75*
G02*
X102825000Y-46925000I-100000J0D01*
G01*
X101400000Y-46925000D01*
G75*
G02*
X101300000Y-46825000I0J100000D01*
G01*
G37*
G36*
G01*
X101300000Y-46175000D02*
X101300000Y-45975000D01*
G75*
G02*
X101400000Y-45875000I100000J0D01*
G01*
X102825000Y-45875000D01*
G75*
G02*
X102925000Y-45975000I0J-100000D01*
G01*
X102925000Y-46175000D01*
G75*
G02*
X102825000Y-46275000I-100000J0D01*
G01*
X101400000Y-46275000D01*
G75*
G02*
X101300000Y-46175000I0J100000D01*
G01*
G37*
G36*
G01*
X101300000Y-45525000D02*
X101300000Y-45325000D01*
G75*
G02*
X101400000Y-45225000I100000J0D01*
G01*
X102825000Y-45225000D01*
G75*
G02*
X102925000Y-45325000I0J-100000D01*
G01*
X102925000Y-45525000D01*
G75*
G02*
X102825000Y-45625000I-100000J0D01*
G01*
X101400000Y-45625000D01*
G75*
G02*
X101300000Y-45525000I0J100000D01*
G01*
G37*
G36*
G01*
X101300000Y-44875000D02*
X101300000Y-44675000D01*
G75*
G02*
X101400000Y-44575000I100000J0D01*
G01*
X102825000Y-44575000D01*
G75*
G02*
X102925000Y-44675000I0J-100000D01*
G01*
X102925000Y-44875000D01*
G75*
G02*
X102825000Y-44975000I-100000J0D01*
G01*
X101400000Y-44975000D01*
G75*
G02*
X101300000Y-44875000I0J100000D01*
G01*
G37*
%TD*%
%TO.C,C5*%
G36*
G01*
X87413750Y-51375000D02*
X88326250Y-51375000D01*
G75*
G02*
X88570000Y-51618750I0J-243750D01*
G01*
X88570000Y-52106250D01*
G75*
G02*
X88326250Y-52350000I-243750J0D01*
G01*
X87413750Y-52350000D01*
G75*
G02*
X87170000Y-52106250I0J243750D01*
G01*
X87170000Y-51618750D01*
G75*
G02*
X87413750Y-51375000I243750J0D01*
G01*
G37*
G36*
G01*
X87413750Y-53250000D02*
X88326250Y-53250000D01*
G75*
G02*
X88570000Y-53493750I0J-243750D01*
G01*
X88570000Y-53981250D01*
G75*
G02*
X88326250Y-54225000I-243750J0D01*
G01*
X87413750Y-54225000D01*
G75*
G02*
X87170000Y-53981250I0J243750D01*
G01*
X87170000Y-53493750D01*
G75*
G02*
X87413750Y-53250000I243750J0D01*
G01*
G37*
%TD*%
D22*
%TO.C,U6*%
X68100000Y-30450000D03*
X68100000Y-29500000D03*
X68100000Y-28550000D03*
X65900000Y-28550000D03*
X65900000Y-29500000D03*
X65900000Y-30450000D03*
%TD*%
%TO.C,U3*%
G36*
G01*
X82005000Y-54405000D02*
X82005000Y-55195000D01*
G75*
G02*
X81755000Y-55445000I-250000J0D01*
G01*
X81245000Y-55445000D01*
G75*
G02*
X80995000Y-55195000I0J250000D01*
G01*
X80995000Y-54405000D01*
G75*
G02*
X81245000Y-54155000I250000J0D01*
G01*
X81755000Y-54155000D01*
G75*
G02*
X82005000Y-54405000I0J-250000D01*
G01*
G37*
G36*
G01*
X80745000Y-54405000D02*
X80745000Y-55195000D01*
G75*
G02*
X80495000Y-55445000I-250000J0D01*
G01*
X79985000Y-55445000D01*
G75*
G02*
X79735000Y-55195000I0J250000D01*
G01*
X79735000Y-54405000D01*
G75*
G02*
X79985000Y-54155000I250000J0D01*
G01*
X80495000Y-54155000D01*
G75*
G02*
X80745000Y-54405000I0J-250000D01*
G01*
G37*
G36*
G01*
X82005000Y-52805000D02*
X82005000Y-53595000D01*
G75*
G02*
X81755000Y-53845000I-250000J0D01*
G01*
X81245000Y-53845000D01*
G75*
G02*
X80995000Y-53595000I0J250000D01*
G01*
X80995000Y-52805000D01*
G75*
G02*
X81245000Y-52555000I250000J0D01*
G01*
X81755000Y-52555000D01*
G75*
G02*
X82005000Y-52805000I0J-250000D01*
G01*
G37*
G36*
G01*
X80745000Y-52805000D02*
X80745000Y-53595000D01*
G75*
G02*
X80495000Y-53845000I-250000J0D01*
G01*
X79985000Y-53845000D01*
G75*
G02*
X79735000Y-53595000I0J250000D01*
G01*
X79735000Y-52805000D01*
G75*
G02*
X79985000Y-52555000I250000J0D01*
G01*
X80495000Y-52555000D01*
G75*
G02*
X80745000Y-52805000I0J-250000D01*
G01*
G37*
G36*
G01*
X84320000Y-55755000D02*
X84320000Y-56055000D01*
G75*
G02*
X84170000Y-56205000I-150000J0D01*
G01*
X82845000Y-56205000D01*
G75*
G02*
X82695000Y-56055000I0J150000D01*
G01*
X82695000Y-55755000D01*
G75*
G02*
X82845000Y-55605000I150000J0D01*
G01*
X84170000Y-55605000D01*
G75*
G02*
X84320000Y-55755000I0J-150000D01*
G01*
G37*
G36*
G01*
X84320000Y-54485000D02*
X84320000Y-54785000D01*
G75*
G02*
X84170000Y-54935000I-150000J0D01*
G01*
X82845000Y-54935000D01*
G75*
G02*
X82695000Y-54785000I0J150000D01*
G01*
X82695000Y-54485000D01*
G75*
G02*
X82845000Y-54335000I150000J0D01*
G01*
X84170000Y-54335000D01*
G75*
G02*
X84320000Y-54485000I0J-150000D01*
G01*
G37*
G36*
G01*
X84320000Y-53215000D02*
X84320000Y-53515000D01*
G75*
G02*
X84170000Y-53665000I-150000J0D01*
G01*
X82845000Y-53665000D01*
G75*
G02*
X82695000Y-53515000I0J150000D01*
G01*
X82695000Y-53215000D01*
G75*
G02*
X82845000Y-53065000I150000J0D01*
G01*
X84170000Y-53065000D01*
G75*
G02*
X84320000Y-53215000I0J-150000D01*
G01*
G37*
G36*
G01*
X84320000Y-51945000D02*
X84320000Y-52245000D01*
G75*
G02*
X84170000Y-52395000I-150000J0D01*
G01*
X82845000Y-52395000D01*
G75*
G02*
X82695000Y-52245000I0J150000D01*
G01*
X82695000Y-51945000D01*
G75*
G02*
X82845000Y-51795000I150000J0D01*
G01*
X84170000Y-51795000D01*
G75*
G02*
X84320000Y-51945000I0J-150000D01*
G01*
G37*
G36*
G01*
X79045000Y-51945000D02*
X79045000Y-52245000D01*
G75*
G02*
X78895000Y-52395000I-150000J0D01*
G01*
X77570000Y-52395000D01*
G75*
G02*
X77420000Y-52245000I0J150000D01*
G01*
X77420000Y-51945000D01*
G75*
G02*
X77570000Y-51795000I150000J0D01*
G01*
X78895000Y-51795000D01*
G75*
G02*
X79045000Y-51945000I0J-150000D01*
G01*
G37*
G36*
G01*
X79045000Y-53215000D02*
X79045000Y-53515000D01*
G75*
G02*
X78895000Y-53665000I-150000J0D01*
G01*
X77570000Y-53665000D01*
G75*
G02*
X77420000Y-53515000I0J150000D01*
G01*
X77420000Y-53215000D01*
G75*
G02*
X77570000Y-53065000I150000J0D01*
G01*
X78895000Y-53065000D01*
G75*
G02*
X79045000Y-53215000I0J-150000D01*
G01*
G37*
G36*
G01*
X79045000Y-54485000D02*
X79045000Y-54785000D01*
G75*
G02*
X78895000Y-54935000I-150000J0D01*
G01*
X77570000Y-54935000D01*
G75*
G02*
X77420000Y-54785000I0J150000D01*
G01*
X77420000Y-54485000D01*
G75*
G02*
X77570000Y-54335000I150000J0D01*
G01*
X78895000Y-54335000D01*
G75*
G02*
X79045000Y-54485000I0J-150000D01*
G01*
G37*
G36*
G01*
X79045000Y-55755000D02*
X79045000Y-56055000D01*
G75*
G02*
X78895000Y-56205000I-150000J0D01*
G01*
X77570000Y-56205000D01*
G75*
G02*
X77420000Y-56055000I0J150000D01*
G01*
X77420000Y-55755000D01*
G75*
G02*
X77570000Y-55605000I150000J0D01*
G01*
X78895000Y-55605000D01*
G75*
G02*
X79045000Y-55755000I0J-150000D01*
G01*
G37*
%TD*%
%TO.C,U5*%
X57100000Y-57450000D03*
X57100000Y-56500000D03*
X57100000Y-55550000D03*
X54900000Y-55550000D03*
X54900000Y-57450000D03*
%TD*%
%TO.C,C30*%
G36*
G01*
X48825000Y-23143750D02*
X48825000Y-24056250D01*
G75*
G02*
X48581250Y-24300000I-243750J0D01*
G01*
X48093750Y-24300000D01*
G75*
G02*
X47850000Y-24056250I0J243750D01*
G01*
X47850000Y-23143750D01*
G75*
G02*
X48093750Y-22900000I243750J0D01*
G01*
X48581250Y-22900000D01*
G75*
G02*
X48825000Y-23143750I0J-243750D01*
G01*
G37*
G36*
G01*
X46950000Y-23143750D02*
X46950000Y-24056250D01*
G75*
G02*
X46706250Y-24300000I-243750J0D01*
G01*
X46218750Y-24300000D01*
G75*
G02*
X45975000Y-24056250I0J243750D01*
G01*
X45975000Y-23143750D01*
G75*
G02*
X46218750Y-22900000I243750J0D01*
G01*
X46706250Y-22900000D01*
G75*
G02*
X46950000Y-23143750I0J-243750D01*
G01*
G37*
%TD*%
D23*
%TO.C,U8*%
X81450000Y-25400000D03*
X80500000Y-25400000D03*
X79550000Y-25400000D03*
X79550000Y-27600000D03*
X81450000Y-27600000D03*
%TD*%
%TO.C,D2*%
G36*
G01*
X105956250Y-26425000D02*
X105043750Y-26425000D01*
G75*
G02*
X104800000Y-26181250I0J243750D01*
G01*
X104800000Y-25693750D01*
G75*
G02*
X105043750Y-25450000I243750J0D01*
G01*
X105956250Y-25450000D01*
G75*
G02*
X106200000Y-25693750I0J-243750D01*
G01*
X106200000Y-26181250D01*
G75*
G02*
X105956250Y-26425000I-243750J0D01*
G01*
G37*
G36*
G01*
X105956250Y-24550000D02*
X105043750Y-24550000D01*
G75*
G02*
X104800000Y-24306250I0J243750D01*
G01*
X104800000Y-23818750D01*
G75*
G02*
X105043750Y-23575000I243750J0D01*
G01*
X105956250Y-23575000D01*
G75*
G02*
X106200000Y-23818750I0J-243750D01*
G01*
X106200000Y-24306250D01*
G75*
G02*
X105956250Y-24550000I-243750J0D01*
G01*
G37*
%TD*%
%TO.C,U1*%
X94300000Y-42100000D03*
X95250000Y-42100000D03*
X96200000Y-42100000D03*
X96200000Y-39900000D03*
X94300000Y-39900000D03*
%TD*%
%TO.C,R24*%
G36*
G01*
X93575000Y-46956250D02*
X93575000Y-46043750D01*
G75*
G02*
X93818750Y-45800000I243750J0D01*
G01*
X94306250Y-45800000D01*
G75*
G02*
X94550000Y-46043750I0J-243750D01*
G01*
X94550000Y-46956250D01*
G75*
G02*
X94306250Y-47200000I-243750J0D01*
G01*
X93818750Y-47200000D01*
G75*
G02*
X93575000Y-46956250I0J243750D01*
G01*
G37*
G36*
G01*
X95450000Y-46956250D02*
X95450000Y-46043750D01*
G75*
G02*
X95693750Y-45800000I243750J0D01*
G01*
X96181250Y-45800000D01*
G75*
G02*
X96425000Y-46043750I0J-243750D01*
G01*
X96425000Y-46956250D01*
G75*
G02*
X96181250Y-47200000I-243750J0D01*
G01*
X95693750Y-47200000D01*
G75*
G02*
X95450000Y-46956250I0J243750D01*
G01*
G37*
%TD*%
%TO.C,R9*%
G36*
G01*
X96575000Y-15456250D02*
X96575000Y-14543750D01*
G75*
G02*
X96818750Y-14300000I243750J0D01*
G01*
X97306250Y-14300000D01*
G75*
G02*
X97550000Y-14543750I0J-243750D01*
G01*
X97550000Y-15456250D01*
G75*
G02*
X97306250Y-15700000I-243750J0D01*
G01*
X96818750Y-15700000D01*
G75*
G02*
X96575000Y-15456250I0J243750D01*
G01*
G37*
G36*
G01*
X98450000Y-15456250D02*
X98450000Y-14543750D01*
G75*
G02*
X98693750Y-14300000I243750J0D01*
G01*
X99181250Y-14300000D01*
G75*
G02*
X99425000Y-14543750I0J-243750D01*
G01*
X99425000Y-15456250D01*
G75*
G02*
X99181250Y-15700000I-243750J0D01*
G01*
X98693750Y-15700000D01*
G75*
G02*
X98450000Y-15456250I0J243750D01*
G01*
G37*
%TD*%
%TO.C,C16*%
G36*
G01*
X58543750Y-46575000D02*
X59456250Y-46575000D01*
G75*
G02*
X59700000Y-46818750I0J-243750D01*
G01*
X59700000Y-47306250D01*
G75*
G02*
X59456250Y-47550000I-243750J0D01*
G01*
X58543750Y-47550000D01*
G75*
G02*
X58300000Y-47306250I0J243750D01*
G01*
X58300000Y-46818750D01*
G75*
G02*
X58543750Y-46575000I243750J0D01*
G01*
G37*
G36*
G01*
X58543750Y-48450000D02*
X59456250Y-48450000D01*
G75*
G02*
X59700000Y-48693750I0J-243750D01*
G01*
X59700000Y-49181250D01*
G75*
G02*
X59456250Y-49425000I-243750J0D01*
G01*
X58543750Y-49425000D01*
G75*
G02*
X58300000Y-49181250I0J243750D01*
G01*
X58300000Y-48693750D01*
G75*
G02*
X58543750Y-48450000I243750J0D01*
G01*
G37*
%TD*%
%TO.C,R22*%
G36*
G01*
X90206250Y-48425000D02*
X89293750Y-48425000D01*
G75*
G02*
X89050000Y-48181250I0J243750D01*
G01*
X89050000Y-47693750D01*
G75*
G02*
X89293750Y-47450000I243750J0D01*
G01*
X90206250Y-47450000D01*
G75*
G02*
X90450000Y-47693750I0J-243750D01*
G01*
X90450000Y-48181250D01*
G75*
G02*
X90206250Y-48425000I-243750J0D01*
G01*
G37*
G36*
G01*
X90206250Y-46550000D02*
X89293750Y-46550000D01*
G75*
G02*
X89050000Y-46306250I0J243750D01*
G01*
X89050000Y-45818750D01*
G75*
G02*
X89293750Y-45575000I243750J0D01*
G01*
X90206250Y-45575000D01*
G75*
G02*
X90450000Y-45818750I0J-243750D01*
G01*
X90450000Y-46306250D01*
G75*
G02*
X90206250Y-46550000I-243750J0D01*
G01*
G37*
%TD*%
%TO.C,R17*%
G36*
G01*
X62543750Y-29575000D02*
X63456250Y-29575000D01*
G75*
G02*
X63700000Y-29818750I0J-243750D01*
G01*
X63700000Y-30306250D01*
G75*
G02*
X63456250Y-30550000I-243750J0D01*
G01*
X62543750Y-30550000D01*
G75*
G02*
X62300000Y-30306250I0J243750D01*
G01*
X62300000Y-29818750D01*
G75*
G02*
X62543750Y-29575000I243750J0D01*
G01*
G37*
G36*
G01*
X62543750Y-31450000D02*
X63456250Y-31450000D01*
G75*
G02*
X63700000Y-31693750I0J-243750D01*
G01*
X63700000Y-32181250D01*
G75*
G02*
X63456250Y-32425000I-243750J0D01*
G01*
X62543750Y-32425000D01*
G75*
G02*
X62300000Y-32181250I0J243750D01*
G01*
X62300000Y-31693750D01*
G75*
G02*
X62543750Y-31450000I243750J0D01*
G01*
G37*
%TD*%
D24*
%TO.C,D3*%
X56950000Y-44190000D03*
X55050000Y-44190000D03*
X56000000Y-46810000D03*
%TD*%
M02*
