%TF.GenerationSoftware,KiCad,Pcbnew,(5.99.0-2671-gfc0a358ba)*%
%TF.CreationDate,2020-09-06T03:18:24+05:30*%
%TF.ProjectId,Power_Supply,506f7765-725f-4537-9570-706c792e6b69,rev?*%
%TF.SameCoordinates,Original*%
%TF.FileFunction,Paste,Top*%
%TF.FilePolarity,Positive*%
%FSLAX46Y46*%
G04 Gerber Fmt 4.6, Leading zero omitted, Abs format (unit mm)*
G04 Created by KiCad (PCBNEW (5.99.0-2671-gfc0a358ba)) date 2020-09-06 03:18:24*
%MOMM*%
%LPD*%
G01*
G04 APERTURE LIST*
G04 APERTURE END LIST*
%TO.C,D1*%
G36*
G01*
X94400000Y-107625000D02*
X93600000Y-107625000D01*
G75*
G02*
X93350000Y-107375000I0J250000D01*
G01*
X93350000Y-106550000D01*
G75*
G02*
X93600000Y-106300000I250000J0D01*
G01*
X94400000Y-106300000D01*
G75*
G02*
X94650000Y-106550000I0J-250000D01*
G01*
X94650000Y-107375000D01*
G75*
G02*
X94400000Y-107625000I-250000J0D01*
G01*
G37*
G36*
G01*
X94400000Y-105700000D02*
X93600000Y-105700000D01*
G75*
G02*
X93350000Y-105450000I0J250000D01*
G01*
X93350000Y-104625000D01*
G75*
G02*
X93600000Y-104375000I250000J0D01*
G01*
X94400000Y-104375000D01*
G75*
G02*
X94650000Y-104625000I0J-250000D01*
G01*
X94650000Y-105450000D01*
G75*
G02*
X94400000Y-105700000I-250000J0D01*
G01*
G37*
%TD*%
%TO.C,C1*%
G36*
G01*
X74000000Y-103200000D02*
X72000000Y-103200000D01*
G75*
G02*
X71750000Y-102950000I0J250000D01*
G01*
X71750000Y-99050000D01*
G75*
G02*
X72000000Y-98800000I250000J0D01*
G01*
X74000000Y-98800000D01*
G75*
G02*
X74250000Y-99050000I0J-250000D01*
G01*
X74250000Y-102950000D01*
G75*
G02*
X74000000Y-103200000I-250000J0D01*
G01*
G37*
G36*
G01*
X74000000Y-95800000D02*
X72000000Y-95800000D01*
G75*
G02*
X71750000Y-95550000I0J250000D01*
G01*
X71750000Y-91650000D01*
G75*
G02*
X72000000Y-91400000I250000J0D01*
G01*
X74000000Y-91400000D01*
G75*
G02*
X74250000Y-91650000I0J-250000D01*
G01*
X74250000Y-95550000D01*
G75*
G02*
X74000000Y-95800000I-250000J0D01*
G01*
G37*
%TD*%
%TO.C,C3*%
G36*
G01*
X91456250Y-98725000D02*
X90543750Y-98725000D01*
G75*
G02*
X90300000Y-98481250I0J243750D01*
G01*
X90300000Y-97993750D01*
G75*
G02*
X90543750Y-97750000I243750J0D01*
G01*
X91456250Y-97750000D01*
G75*
G02*
X91700000Y-97993750I0J-243750D01*
G01*
X91700000Y-98481250D01*
G75*
G02*
X91456250Y-98725000I-243750J0D01*
G01*
G37*
G36*
G01*
X91456250Y-96850000D02*
X90543750Y-96850000D01*
G75*
G02*
X90300000Y-96606250I0J243750D01*
G01*
X90300000Y-96118750D01*
G75*
G02*
X90543750Y-95875000I243750J0D01*
G01*
X91456250Y-95875000D01*
G75*
G02*
X91700000Y-96118750I0J-243750D01*
G01*
X91700000Y-96606250D01*
G75*
G02*
X91456250Y-96850000I-243750J0D01*
G01*
G37*
%TD*%
%TO.C,R1*%
G36*
G01*
X16956250Y-63425000D02*
X16043750Y-63425000D01*
G75*
G02*
X15800000Y-63181250I0J243750D01*
G01*
X15800000Y-62693750D01*
G75*
G02*
X16043750Y-62450000I243750J0D01*
G01*
X16956250Y-62450000D01*
G75*
G02*
X17200000Y-62693750I0J-243750D01*
G01*
X17200000Y-63181250D01*
G75*
G02*
X16956250Y-63425000I-243750J0D01*
G01*
G37*
G36*
G01*
X16956250Y-61550000D02*
X16043750Y-61550000D01*
G75*
G02*
X15800000Y-61306250I0J243750D01*
G01*
X15800000Y-60818750D01*
G75*
G02*
X16043750Y-60575000I243750J0D01*
G01*
X16956250Y-60575000D01*
G75*
G02*
X17200000Y-60818750I0J-243750D01*
G01*
X17200000Y-61306250D01*
G75*
G02*
X16956250Y-61550000I-243750J0D01*
G01*
G37*
%TD*%
%TO.C,F1*%
G36*
G01*
X82202500Y-52050000D02*
X85297500Y-52050000D01*
G75*
G02*
X85460000Y-52212500I0J-162500D01*
G01*
X85460000Y-55137500D01*
G75*
G02*
X85297500Y-55300000I-162500J0D01*
G01*
X82202500Y-55300000D01*
G75*
G02*
X82040000Y-55137500I0J162500D01*
G01*
X82040000Y-52212500D01*
G75*
G02*
X82202500Y-52050000I162500J0D01*
G01*
G37*
G36*
G01*
X82202500Y-42700000D02*
X85297500Y-42700000D01*
G75*
G02*
X85460000Y-42862500I0J-162500D01*
G01*
X85460000Y-45787500D01*
G75*
G02*
X85297500Y-45950000I-162500J0D01*
G01*
X82202500Y-45950000D01*
G75*
G02*
X82040000Y-45787500I0J162500D01*
G01*
X82040000Y-42862500D01*
G75*
G02*
X82202500Y-42700000I162500J0D01*
G01*
G37*
%TD*%
%TO.C,R2*%
G36*
G01*
X93543750Y-108575000D02*
X94456250Y-108575000D01*
G75*
G02*
X94700000Y-108818750I0J-243750D01*
G01*
X94700000Y-109306250D01*
G75*
G02*
X94456250Y-109550000I-243750J0D01*
G01*
X93543750Y-109550000D01*
G75*
G02*
X93300000Y-109306250I0J243750D01*
G01*
X93300000Y-108818750D01*
G75*
G02*
X93543750Y-108575000I243750J0D01*
G01*
G37*
G36*
G01*
X93543750Y-110450000D02*
X94456250Y-110450000D01*
G75*
G02*
X94700000Y-110693750I0J-243750D01*
G01*
X94700000Y-111181250D01*
G75*
G02*
X94456250Y-111425000I-243750J0D01*
G01*
X93543750Y-111425000D01*
G75*
G02*
X93300000Y-111181250I0J243750D01*
G01*
X93300000Y-110693750D01*
G75*
G02*
X93543750Y-110450000I243750J0D01*
G01*
G37*
%TD*%
%TO.C,C2*%
G36*
G01*
X84550000Y-100400000D02*
X83450000Y-100400000D01*
G75*
G02*
X83200000Y-100150000I0J250000D01*
G01*
X83200000Y-98050000D01*
G75*
G02*
X83450000Y-97800000I250000J0D01*
G01*
X84550000Y-97800000D01*
G75*
G02*
X84800000Y-98050000I0J-250000D01*
G01*
X84800000Y-100150000D01*
G75*
G02*
X84550000Y-100400000I-250000J0D01*
G01*
G37*
G36*
G01*
X84550000Y-96800000D02*
X83450000Y-96800000D01*
G75*
G02*
X83200000Y-96550000I0J250000D01*
G01*
X83200000Y-94450000D01*
G75*
G02*
X83450000Y-94200000I250000J0D01*
G01*
X84550000Y-94200000D01*
G75*
G02*
X84800000Y-94450000I0J-250000D01*
G01*
X84800000Y-96550000D01*
G75*
G02*
X84550000Y-96800000I-250000J0D01*
G01*
G37*
%TD*%
M02*
