%TF.GenerationSoftware,KiCad,Pcbnew,(5.99.0-3349-gc9824bbd9)*%
%TF.CreationDate,2020-09-17T19:38:13-07:00*%
%TF.ProjectId,Panelized_Power_Supply,50616e65-6c69-47a6-9564-5f506f776572,rev?*%
%TF.SameCoordinates,Original*%
%TF.FileFunction,Paste,Bot*%
%TF.FilePolarity,Positive*%
%FSLAX46Y46*%
G04 Gerber Fmt 4.6, Leading zero omitted, Abs format (unit mm)*
G04 Created by KiCad (PCBNEW (5.99.0-3349-gc9824bbd9)) date 2020-09-17 19:38:13*
%MOMM*%
%LPD*%
G01*
G04 APERTURE LIST*
%ADD10R,0.400000X2.500000*%
%ADD11R,0.450000X0.600000*%
%ADD12R,0.600000X0.450000*%
G04 APERTURE END LIST*
D10*
%TO.C,U10*%
X21850000Y-76500000D03*
X22550000Y-76500000D03*
X23250000Y-76500000D03*
X23950000Y-76500000D03*
X24650000Y-76500000D03*
X25350000Y-76500000D03*
X26050000Y-76500000D03*
X26750000Y-76500000D03*
X27450000Y-76500000D03*
X28150000Y-76500000D03*
X28850000Y-76500000D03*
X29550000Y-76500000D03*
X30250000Y-76500000D03*
X30950000Y-76500000D03*
X31650000Y-76500000D03*
X32350000Y-76500000D03*
X33050000Y-76500000D03*
X33750000Y-76500000D03*
X34450000Y-76500000D03*
X35150000Y-76500000D03*
X35850000Y-76500000D03*
X36550000Y-76500000D03*
X37250000Y-76500000D03*
X37950000Y-76500000D03*
X38650000Y-76500000D03*
X39350000Y-76500000D03*
X40050000Y-76500000D03*
X40750000Y-76500000D03*
X41450000Y-76500000D03*
X42150000Y-76500000D03*
%TD*%
%TO.C,J3*%
G36*
X23742221Y-89009554D02*
G01*
X23978169Y-89067710D01*
X24201732Y-89162961D01*
X24407121Y-89292841D01*
X24589016Y-89453986D01*
X24742706Y-89642222D01*
X24864210Y-89852674D01*
X24950382Y-90079892D01*
X24998990Y-90317990D01*
X25005000Y-90417343D01*
X25005000Y-107561936D01*
X24990446Y-107742221D01*
X24932290Y-107978169D01*
X24837039Y-108201732D01*
X24707159Y-108407121D01*
X24546014Y-108589016D01*
X24357778Y-108742706D01*
X24147326Y-108864210D01*
X23920108Y-108950382D01*
X23682010Y-108998990D01*
X23582657Y-109005000D01*
X20438064Y-109005000D01*
X20257779Y-108990446D01*
X20021831Y-108932290D01*
X19798268Y-108837039D01*
X19592879Y-108707159D01*
X19410984Y-108546014D01*
X19257294Y-108357778D01*
X19135790Y-108147326D01*
X19049618Y-107920108D01*
X19001010Y-107682010D01*
X18995000Y-107582657D01*
X18995000Y-90438064D01*
X19009554Y-90257779D01*
X19067710Y-90021831D01*
X19162961Y-89798268D01*
X19292841Y-89592879D01*
X19453986Y-89410984D01*
X19642222Y-89257294D01*
X19852674Y-89135790D01*
X20079892Y-89049618D01*
X20317990Y-89001010D01*
X20417343Y-88995000D01*
X23561936Y-88995000D01*
X23742221Y-89009554D01*
G37*
%TD*%
%TO.C,C9*%
G36*
G01*
X83793750Y-78575000D02*
X84706250Y-78575000D01*
G75*
G02*
X84950000Y-78818750I0J-243750D01*
G01*
X84950000Y-79306250D01*
G75*
G02*
X84706250Y-79550000I-243750J0D01*
G01*
X83793750Y-79550000D01*
G75*
G02*
X83550000Y-79306250I0J243750D01*
G01*
X83550000Y-78818750D01*
G75*
G02*
X83793750Y-78575000I243750J0D01*
G01*
G37*
G36*
G01*
X83793750Y-80450000D02*
X84706250Y-80450000D01*
G75*
G02*
X84950000Y-80693750I0J-243750D01*
G01*
X84950000Y-81181250D01*
G75*
G02*
X84706250Y-81425000I-243750J0D01*
G01*
X83793750Y-81425000D01*
G75*
G02*
X83550000Y-81181250I0J243750D01*
G01*
X83550000Y-80693750D01*
G75*
G02*
X83793750Y-80450000I243750J0D01*
G01*
G37*
%TD*%
%TO.C,C23*%
G36*
G01*
X84956250Y-76425000D02*
X84043750Y-76425000D01*
G75*
G02*
X83800000Y-76181250I0J243750D01*
G01*
X83800000Y-75693750D01*
G75*
G02*
X84043750Y-75450000I243750J0D01*
G01*
X84956250Y-75450000D01*
G75*
G02*
X85200000Y-75693750I0J-243750D01*
G01*
X85200000Y-76181250D01*
G75*
G02*
X84956250Y-76425000I-243750J0D01*
G01*
G37*
G36*
G01*
X84956250Y-74550000D02*
X84043750Y-74550000D01*
G75*
G02*
X83800000Y-74306250I0J243750D01*
G01*
X83800000Y-73818750D01*
G75*
G02*
X84043750Y-73575000I243750J0D01*
G01*
X84956250Y-73575000D01*
G75*
G02*
X85200000Y-73818750I0J-243750D01*
G01*
X85200000Y-74306250D01*
G75*
G02*
X84956250Y-74550000I-243750J0D01*
G01*
G37*
%TD*%
%TO.C,C11*%
G36*
G01*
X92706250Y-92425000D02*
X91793750Y-92425000D01*
G75*
G02*
X91550000Y-92181250I0J243750D01*
G01*
X91550000Y-91693750D01*
G75*
G02*
X91793750Y-91450000I243750J0D01*
G01*
X92706250Y-91450000D01*
G75*
G02*
X92950000Y-91693750I0J-243750D01*
G01*
X92950000Y-92181250D01*
G75*
G02*
X92706250Y-92425000I-243750J0D01*
G01*
G37*
G36*
G01*
X92706250Y-90550000D02*
X91793750Y-90550000D01*
G75*
G02*
X91550000Y-90306250I0J243750D01*
G01*
X91550000Y-89818750D01*
G75*
G02*
X91793750Y-89575000I243750J0D01*
G01*
X92706250Y-89575000D01*
G75*
G02*
X92950000Y-89818750I0J-243750D01*
G01*
X92950000Y-90306250D01*
G75*
G02*
X92706250Y-90550000I-243750J0D01*
G01*
G37*
%TD*%
%TO.C,C17*%
G36*
G01*
X82075000Y-83456250D02*
X82075000Y-82543750D01*
G75*
G02*
X82318750Y-82300000I243750J0D01*
G01*
X82806250Y-82300000D01*
G75*
G02*
X83050000Y-82543750I0J-243750D01*
G01*
X83050000Y-83456250D01*
G75*
G02*
X82806250Y-83700000I-243750J0D01*
G01*
X82318750Y-83700000D01*
G75*
G02*
X82075000Y-83456250I0J243750D01*
G01*
G37*
G36*
G01*
X83950000Y-83456250D02*
X83950000Y-82543750D01*
G75*
G02*
X84193750Y-82300000I243750J0D01*
G01*
X84681250Y-82300000D01*
G75*
G02*
X84925000Y-82543750I0J-243750D01*
G01*
X84925000Y-83456250D01*
G75*
G02*
X84681250Y-83700000I-243750J0D01*
G01*
X84193750Y-83700000D01*
G75*
G02*
X83950000Y-83456250I0J243750D01*
G01*
G37*
%TD*%
%TO.C,C26*%
G36*
G01*
X79075000Y-79956250D02*
X79075000Y-79043750D01*
G75*
G02*
X79318750Y-78800000I243750J0D01*
G01*
X79806250Y-78800000D01*
G75*
G02*
X80050000Y-79043750I0J-243750D01*
G01*
X80050000Y-79956250D01*
G75*
G02*
X79806250Y-80200000I-243750J0D01*
G01*
X79318750Y-80200000D01*
G75*
G02*
X79075000Y-79956250I0J243750D01*
G01*
G37*
G36*
G01*
X80950000Y-79956250D02*
X80950000Y-79043750D01*
G75*
G02*
X81193750Y-78800000I243750J0D01*
G01*
X81681250Y-78800000D01*
G75*
G02*
X81925000Y-79043750I0J-243750D01*
G01*
X81925000Y-79956250D01*
G75*
G02*
X81681250Y-80200000I-243750J0D01*
G01*
X81193750Y-80200000D01*
G75*
G02*
X80950000Y-79956250I0J243750D01*
G01*
G37*
%TD*%
%TO.C,R7*%
G36*
G01*
X80295000Y-97293750D02*
X80295000Y-98206250D01*
G75*
G02*
X80051250Y-98450000I-243750J0D01*
G01*
X79563750Y-98450000D01*
G75*
G02*
X79320000Y-98206250I0J243750D01*
G01*
X79320000Y-97293750D01*
G75*
G02*
X79563750Y-97050000I243750J0D01*
G01*
X80051250Y-97050000D01*
G75*
G02*
X80295000Y-97293750I0J-243750D01*
G01*
G37*
G36*
G01*
X78420000Y-97293750D02*
X78420000Y-98206250D01*
G75*
G02*
X78176250Y-98450000I-243750J0D01*
G01*
X77688750Y-98450000D01*
G75*
G02*
X77445000Y-98206250I0J243750D01*
G01*
X77445000Y-97293750D01*
G75*
G02*
X77688750Y-97050000I243750J0D01*
G01*
X78176250Y-97050000D01*
G75*
G02*
X78420000Y-97293750I0J-243750D01*
G01*
G37*
%TD*%
%TO.C,R15*%
G36*
G01*
X34175000Y-65456250D02*
X34175000Y-64543750D01*
G75*
G02*
X34418750Y-64300000I243750J0D01*
G01*
X34906250Y-64300000D01*
G75*
G02*
X35150000Y-64543750I0J-243750D01*
G01*
X35150000Y-65456250D01*
G75*
G02*
X34906250Y-65700000I-243750J0D01*
G01*
X34418750Y-65700000D01*
G75*
G02*
X34175000Y-65456250I0J243750D01*
G01*
G37*
G36*
G01*
X36050000Y-65456250D02*
X36050000Y-64543750D01*
G75*
G02*
X36293750Y-64300000I243750J0D01*
G01*
X36781250Y-64300000D01*
G75*
G02*
X37025000Y-64543750I0J-243750D01*
G01*
X37025000Y-65456250D01*
G75*
G02*
X36781250Y-65700000I-243750J0D01*
G01*
X36293750Y-65700000D01*
G75*
G02*
X36050000Y-65456250I0J243750D01*
G01*
G37*
%TD*%
D11*
%TO.C,D7*%
X77750000Y-82200000D03*
X77750000Y-84300000D03*
%TD*%
%TO.C,C24*%
G36*
G01*
X81925000Y-73043750D02*
X81925000Y-73956250D01*
G75*
G02*
X81681250Y-74200000I-243750J0D01*
G01*
X81193750Y-74200000D01*
G75*
G02*
X80950000Y-73956250I0J243750D01*
G01*
X80950000Y-73043750D01*
G75*
G02*
X81193750Y-72800000I243750J0D01*
G01*
X81681250Y-72800000D01*
G75*
G02*
X81925000Y-73043750I0J-243750D01*
G01*
G37*
G36*
G01*
X80050000Y-73043750D02*
X80050000Y-73956250D01*
G75*
G02*
X79806250Y-74200000I-243750J0D01*
G01*
X79318750Y-74200000D01*
G75*
G02*
X79075000Y-73956250I0J243750D01*
G01*
X79075000Y-73043750D01*
G75*
G02*
X79318750Y-72800000I243750J0D01*
G01*
X79806250Y-72800000D01*
G75*
G02*
X80050000Y-73043750I0J-243750D01*
G01*
G37*
%TD*%
%TO.C,C19*%
G36*
G01*
X68175000Y-87043750D02*
X68175000Y-87956250D01*
G75*
G02*
X67931250Y-88200000I-243750J0D01*
G01*
X67443750Y-88200000D01*
G75*
G02*
X67200000Y-87956250I0J243750D01*
G01*
X67200000Y-87043750D01*
G75*
G02*
X67443750Y-86800000I243750J0D01*
G01*
X67931250Y-86800000D01*
G75*
G02*
X68175000Y-87043750I0J-243750D01*
G01*
G37*
G36*
G01*
X66300000Y-87043750D02*
X66300000Y-87956250D01*
G75*
G02*
X66056250Y-88200000I-243750J0D01*
G01*
X65568750Y-88200000D01*
G75*
G02*
X65325000Y-87956250I0J243750D01*
G01*
X65325000Y-87043750D01*
G75*
G02*
X65568750Y-86800000I243750J0D01*
G01*
X66056250Y-86800000D01*
G75*
G02*
X66300000Y-87043750I0J-243750D01*
G01*
G37*
%TD*%
%TO.C,C21*%
G36*
G01*
X70956250Y-80925000D02*
X70043750Y-80925000D01*
G75*
G02*
X69800000Y-80681250I0J243750D01*
G01*
X69800000Y-80193750D01*
G75*
G02*
X70043750Y-79950000I243750J0D01*
G01*
X70956250Y-79950000D01*
G75*
G02*
X71200000Y-80193750I0J-243750D01*
G01*
X71200000Y-80681250D01*
G75*
G02*
X70956250Y-80925000I-243750J0D01*
G01*
G37*
G36*
G01*
X70956250Y-79050000D02*
X70043750Y-79050000D01*
G75*
G02*
X69800000Y-78806250I0J243750D01*
G01*
X69800000Y-78318750D01*
G75*
G02*
X70043750Y-78075000I243750J0D01*
G01*
X70956250Y-78075000D01*
G75*
G02*
X71200000Y-78318750I0J-243750D01*
G01*
X71200000Y-78806250D01*
G75*
G02*
X70956250Y-79050000I-243750J0D01*
G01*
G37*
%TD*%
%TO.C,R1*%
G36*
G01*
X99043750Y-73575000D02*
X99956250Y-73575000D01*
G75*
G02*
X100200000Y-73818750I0J-243750D01*
G01*
X100200000Y-74306250D01*
G75*
G02*
X99956250Y-74550000I-243750J0D01*
G01*
X99043750Y-74550000D01*
G75*
G02*
X98800000Y-74306250I0J243750D01*
G01*
X98800000Y-73818750D01*
G75*
G02*
X99043750Y-73575000I243750J0D01*
G01*
G37*
G36*
G01*
X99043750Y-75450000D02*
X99956250Y-75450000D01*
G75*
G02*
X100200000Y-75693750I0J-243750D01*
G01*
X100200000Y-76181250D01*
G75*
G02*
X99956250Y-76425000I-243750J0D01*
G01*
X99043750Y-76425000D01*
G75*
G02*
X98800000Y-76181250I0J243750D01*
G01*
X98800000Y-75693750D01*
G75*
G02*
X99043750Y-75450000I243750J0D01*
G01*
G37*
%TD*%
%TO.C,C13*%
G36*
G01*
X77445000Y-100456250D02*
X77445000Y-99543750D01*
G75*
G02*
X77688750Y-99300000I243750J0D01*
G01*
X78176250Y-99300000D01*
G75*
G02*
X78420000Y-99543750I0J-243750D01*
G01*
X78420000Y-100456250D01*
G75*
G02*
X78176250Y-100700000I-243750J0D01*
G01*
X77688750Y-100700000D01*
G75*
G02*
X77445000Y-100456250I0J243750D01*
G01*
G37*
G36*
G01*
X79320000Y-100456250D02*
X79320000Y-99543750D01*
G75*
G02*
X79563750Y-99300000I243750J0D01*
G01*
X80051250Y-99300000D01*
G75*
G02*
X80295000Y-99543750I0J-243750D01*
G01*
X80295000Y-100456250D01*
G75*
G02*
X80051250Y-100700000I-243750J0D01*
G01*
X79563750Y-100700000D01*
G75*
G02*
X79320000Y-100456250I0J243750D01*
G01*
G37*
%TD*%
%TO.C,C22*%
G36*
G01*
X86043750Y-73575000D02*
X86956250Y-73575000D01*
G75*
G02*
X87200000Y-73818750I0J-243750D01*
G01*
X87200000Y-74306250D01*
G75*
G02*
X86956250Y-74550000I-243750J0D01*
G01*
X86043750Y-74550000D01*
G75*
G02*
X85800000Y-74306250I0J243750D01*
G01*
X85800000Y-73818750D01*
G75*
G02*
X86043750Y-73575000I243750J0D01*
G01*
G37*
G36*
G01*
X86043750Y-75450000D02*
X86956250Y-75450000D01*
G75*
G02*
X87200000Y-75693750I0J-243750D01*
G01*
X87200000Y-76181250D01*
G75*
G02*
X86956250Y-76425000I-243750J0D01*
G01*
X86043750Y-76425000D01*
G75*
G02*
X85800000Y-76181250I0J243750D01*
G01*
X85800000Y-75693750D01*
G75*
G02*
X86043750Y-75450000I243750J0D01*
G01*
G37*
%TD*%
%TO.C,C33*%
G36*
G01*
X23225000Y-64543750D02*
X23225000Y-65456250D01*
G75*
G02*
X22981250Y-65700000I-243750J0D01*
G01*
X22493750Y-65700000D01*
G75*
G02*
X22250000Y-65456250I0J243750D01*
G01*
X22250000Y-64543750D01*
G75*
G02*
X22493750Y-64300000I243750J0D01*
G01*
X22981250Y-64300000D01*
G75*
G02*
X23225000Y-64543750I0J-243750D01*
G01*
G37*
G36*
G01*
X21350000Y-64543750D02*
X21350000Y-65456250D01*
G75*
G02*
X21106250Y-65700000I-243750J0D01*
G01*
X20618750Y-65700000D01*
G75*
G02*
X20375000Y-65456250I0J243750D01*
G01*
X20375000Y-64543750D01*
G75*
G02*
X20618750Y-64300000I243750J0D01*
G01*
X21106250Y-64300000D01*
G75*
G02*
X21350000Y-64543750I0J-243750D01*
G01*
G37*
%TD*%
%TO.C,R12*%
G36*
G01*
X85195000Y-100456250D02*
X85195000Y-99543750D01*
G75*
G02*
X85438750Y-99300000I243750J0D01*
G01*
X85926250Y-99300000D01*
G75*
G02*
X86170000Y-99543750I0J-243750D01*
G01*
X86170000Y-100456250D01*
G75*
G02*
X85926250Y-100700000I-243750J0D01*
G01*
X85438750Y-100700000D01*
G75*
G02*
X85195000Y-100456250I0J243750D01*
G01*
G37*
G36*
G01*
X87070000Y-100456250D02*
X87070000Y-99543750D01*
G75*
G02*
X87313750Y-99300000I243750J0D01*
G01*
X87801250Y-99300000D01*
G75*
G02*
X88045000Y-99543750I0J-243750D01*
G01*
X88045000Y-100456250D01*
G75*
G02*
X87801250Y-100700000I-243750J0D01*
G01*
X87313750Y-100700000D01*
G75*
G02*
X87070000Y-100456250I0J243750D01*
G01*
G37*
%TD*%
%TO.C,R3*%
G36*
G01*
X99706250Y-92425000D02*
X98793750Y-92425000D01*
G75*
G02*
X98550000Y-92181250I0J243750D01*
G01*
X98550000Y-91693750D01*
G75*
G02*
X98793750Y-91450000I243750J0D01*
G01*
X99706250Y-91450000D01*
G75*
G02*
X99950000Y-91693750I0J-243750D01*
G01*
X99950000Y-92181250D01*
G75*
G02*
X99706250Y-92425000I-243750J0D01*
G01*
G37*
G36*
G01*
X99706250Y-90550000D02*
X98793750Y-90550000D01*
G75*
G02*
X98550000Y-90306250I0J243750D01*
G01*
X98550000Y-89818750D01*
G75*
G02*
X98793750Y-89575000I243750J0D01*
G01*
X99706250Y-89575000D01*
G75*
G02*
X99950000Y-89818750I0J-243750D01*
G01*
X99950000Y-90306250D01*
G75*
G02*
X99706250Y-90550000I-243750J0D01*
G01*
G37*
%TD*%
%TO.C,R2*%
G36*
G01*
X107043750Y-73575000D02*
X107956250Y-73575000D01*
G75*
G02*
X108200000Y-73818750I0J-243750D01*
G01*
X108200000Y-74306250D01*
G75*
G02*
X107956250Y-74550000I-243750J0D01*
G01*
X107043750Y-74550000D01*
G75*
G02*
X106800000Y-74306250I0J243750D01*
G01*
X106800000Y-73818750D01*
G75*
G02*
X107043750Y-73575000I243750J0D01*
G01*
G37*
G36*
G01*
X107043750Y-75450000D02*
X107956250Y-75450000D01*
G75*
G02*
X108200000Y-75693750I0J-243750D01*
G01*
X108200000Y-76181250D01*
G75*
G02*
X107956250Y-76425000I-243750J0D01*
G01*
X107043750Y-76425000D01*
G75*
G02*
X106800000Y-76181250I0J243750D01*
G01*
X106800000Y-75693750D01*
G75*
G02*
X107043750Y-75450000I243750J0D01*
G01*
G37*
%TD*%
%TO.C,C14*%
G36*
G01*
X75413750Y-101375000D02*
X76326250Y-101375000D01*
G75*
G02*
X76570000Y-101618750I0J-243750D01*
G01*
X76570000Y-102106250D01*
G75*
G02*
X76326250Y-102350000I-243750J0D01*
G01*
X75413750Y-102350000D01*
G75*
G02*
X75170000Y-102106250I0J243750D01*
G01*
X75170000Y-101618750D01*
G75*
G02*
X75413750Y-101375000I243750J0D01*
G01*
G37*
G36*
G01*
X75413750Y-103250000D02*
X76326250Y-103250000D01*
G75*
G02*
X76570000Y-103493750I0J-243750D01*
G01*
X76570000Y-103981250D01*
G75*
G02*
X76326250Y-104225000I-243750J0D01*
G01*
X75413750Y-104225000D01*
G75*
G02*
X75170000Y-103981250I0J243750D01*
G01*
X75170000Y-103493750D01*
G75*
G02*
X75413750Y-103250000I243750J0D01*
G01*
G37*
%TD*%
%TO.C,R5*%
G36*
G01*
X51256250Y-71425000D02*
X50343750Y-71425000D01*
G75*
G02*
X50100000Y-71181250I0J243750D01*
G01*
X50100000Y-70693750D01*
G75*
G02*
X50343750Y-70450000I243750J0D01*
G01*
X51256250Y-70450000D01*
G75*
G02*
X51500000Y-70693750I0J-243750D01*
G01*
X51500000Y-71181250D01*
G75*
G02*
X51256250Y-71425000I-243750J0D01*
G01*
G37*
G36*
G01*
X51256250Y-69550000D02*
X50343750Y-69550000D01*
G75*
G02*
X50100000Y-69306250I0J243750D01*
G01*
X50100000Y-68818750D01*
G75*
G02*
X50343750Y-68575000I243750J0D01*
G01*
X51256250Y-68575000D01*
G75*
G02*
X51500000Y-68818750I0J-243750D01*
G01*
X51500000Y-69306250D01*
G75*
G02*
X51256250Y-69550000I-243750J0D01*
G01*
G37*
%TD*%
%TO.C,C10*%
G36*
G01*
X99456250Y-87925000D02*
X98543750Y-87925000D01*
G75*
G02*
X98300000Y-87681250I0J243750D01*
G01*
X98300000Y-87193750D01*
G75*
G02*
X98543750Y-86950000I243750J0D01*
G01*
X99456250Y-86950000D01*
G75*
G02*
X99700000Y-87193750I0J-243750D01*
G01*
X99700000Y-87681250D01*
G75*
G02*
X99456250Y-87925000I-243750J0D01*
G01*
G37*
G36*
G01*
X99456250Y-86050000D02*
X98543750Y-86050000D01*
G75*
G02*
X98300000Y-85806250I0J243750D01*
G01*
X98300000Y-85318750D01*
G75*
G02*
X98543750Y-85075000I243750J0D01*
G01*
X99456250Y-85075000D01*
G75*
G02*
X99700000Y-85318750I0J-243750D01*
G01*
X99700000Y-85806250D01*
G75*
G02*
X99456250Y-86050000I-243750J0D01*
G01*
G37*
%TD*%
%TO.C,C31*%
G36*
G01*
X23825000Y-65456250D02*
X23825000Y-64543750D01*
G75*
G02*
X24068750Y-64300000I243750J0D01*
G01*
X24556250Y-64300000D01*
G75*
G02*
X24800000Y-64543750I0J-243750D01*
G01*
X24800000Y-65456250D01*
G75*
G02*
X24556250Y-65700000I-243750J0D01*
G01*
X24068750Y-65700000D01*
G75*
G02*
X23825000Y-65456250I0J243750D01*
G01*
G37*
G36*
G01*
X25700000Y-65456250D02*
X25700000Y-64543750D01*
G75*
G02*
X25943750Y-64300000I243750J0D01*
G01*
X26431250Y-64300000D01*
G75*
G02*
X26675000Y-64543750I0J-243750D01*
G01*
X26675000Y-65456250D01*
G75*
G02*
X26431250Y-65700000I-243750J0D01*
G01*
X25943750Y-65700000D01*
G75*
G02*
X25700000Y-65456250I0J243750D01*
G01*
G37*
%TD*%
%TO.C,C15*%
G36*
G01*
X79293750Y-84575000D02*
X80206250Y-84575000D01*
G75*
G02*
X80450000Y-84818750I0J-243750D01*
G01*
X80450000Y-85306250D01*
G75*
G02*
X80206250Y-85550000I-243750J0D01*
G01*
X79293750Y-85550000D01*
G75*
G02*
X79050000Y-85306250I0J243750D01*
G01*
X79050000Y-84818750D01*
G75*
G02*
X79293750Y-84575000I243750J0D01*
G01*
G37*
G36*
G01*
X79293750Y-86450000D02*
X80206250Y-86450000D01*
G75*
G02*
X80450000Y-86693750I0J-243750D01*
G01*
X80450000Y-87181250D01*
G75*
G02*
X80206250Y-87425000I-243750J0D01*
G01*
X79293750Y-87425000D01*
G75*
G02*
X79050000Y-87181250I0J243750D01*
G01*
X79050000Y-86693750D01*
G75*
G02*
X79293750Y-86450000I243750J0D01*
G01*
G37*
%TD*%
%TO.C,C3*%
G36*
G01*
X96675000Y-93543750D02*
X96675000Y-94456250D01*
G75*
G02*
X96431250Y-94700000I-243750J0D01*
G01*
X95943750Y-94700000D01*
G75*
G02*
X95700000Y-94456250I0J243750D01*
G01*
X95700000Y-93543750D01*
G75*
G02*
X95943750Y-93300000I243750J0D01*
G01*
X96431250Y-93300000D01*
G75*
G02*
X96675000Y-93543750I0J-243750D01*
G01*
G37*
G36*
G01*
X94800000Y-93543750D02*
X94800000Y-94456250D01*
G75*
G02*
X94556250Y-94700000I-243750J0D01*
G01*
X94068750Y-94700000D01*
G75*
G02*
X93825000Y-94456250I0J243750D01*
G01*
X93825000Y-93543750D01*
G75*
G02*
X94068750Y-93300000I243750J0D01*
G01*
X94556250Y-93300000D01*
G75*
G02*
X94800000Y-93543750I0J-243750D01*
G01*
G37*
%TD*%
%TO.C,C2*%
G36*
G01*
X98543750Y-81075000D02*
X99456250Y-81075000D01*
G75*
G02*
X99700000Y-81318750I0J-243750D01*
G01*
X99700000Y-81806250D01*
G75*
G02*
X99456250Y-82050000I-243750J0D01*
G01*
X98543750Y-82050000D01*
G75*
G02*
X98300000Y-81806250I0J243750D01*
G01*
X98300000Y-81318750D01*
G75*
G02*
X98543750Y-81075000I243750J0D01*
G01*
G37*
G36*
G01*
X98543750Y-82950000D02*
X99456250Y-82950000D01*
G75*
G02*
X99700000Y-83193750I0J-243750D01*
G01*
X99700000Y-83681250D01*
G75*
G02*
X99456250Y-83925000I-243750J0D01*
G01*
X98543750Y-83925000D01*
G75*
G02*
X98300000Y-83681250I0J243750D01*
G01*
X98300000Y-83193750D01*
G75*
G02*
X98543750Y-82950000I243750J0D01*
G01*
G37*
%TD*%
%TO.C,C8*%
G36*
G01*
X81445000Y-100456250D02*
X81445000Y-99543750D01*
G75*
G02*
X81688750Y-99300000I243750J0D01*
G01*
X82176250Y-99300000D01*
G75*
G02*
X82420000Y-99543750I0J-243750D01*
G01*
X82420000Y-100456250D01*
G75*
G02*
X82176250Y-100700000I-243750J0D01*
G01*
X81688750Y-100700000D01*
G75*
G02*
X81445000Y-100456250I0J243750D01*
G01*
G37*
G36*
G01*
X83320000Y-100456250D02*
X83320000Y-99543750D01*
G75*
G02*
X83563750Y-99300000I243750J0D01*
G01*
X84051250Y-99300000D01*
G75*
G02*
X84295000Y-99543750I0J-243750D01*
G01*
X84295000Y-100456250D01*
G75*
G02*
X84051250Y-100700000I-243750J0D01*
G01*
X83563750Y-100700000D01*
G75*
G02*
X83320000Y-100456250I0J243750D01*
G01*
G37*
%TD*%
%TO.C,C32*%
G36*
G01*
X37575000Y-65456250D02*
X37575000Y-64543750D01*
G75*
G02*
X37818750Y-64300000I243750J0D01*
G01*
X38306250Y-64300000D01*
G75*
G02*
X38550000Y-64543750I0J-243750D01*
G01*
X38550000Y-65456250D01*
G75*
G02*
X38306250Y-65700000I-243750J0D01*
G01*
X37818750Y-65700000D01*
G75*
G02*
X37575000Y-65456250I0J243750D01*
G01*
G37*
G36*
G01*
X39450000Y-65456250D02*
X39450000Y-64543750D01*
G75*
G02*
X39693750Y-64300000I243750J0D01*
G01*
X40181250Y-64300000D01*
G75*
G02*
X40425000Y-64543750I0J-243750D01*
G01*
X40425000Y-65456250D01*
G75*
G02*
X40181250Y-65700000I-243750J0D01*
G01*
X39693750Y-65700000D01*
G75*
G02*
X39450000Y-65456250I0J243750D01*
G01*
G37*
%TD*%
D12*
%TO.C,D8*%
X95200000Y-87000000D03*
X97300000Y-87000000D03*
%TD*%
%TO.C,R11*%
G36*
G01*
X102543750Y-79575000D02*
X103456250Y-79575000D01*
G75*
G02*
X103700000Y-79818750I0J-243750D01*
G01*
X103700000Y-80306250D01*
G75*
G02*
X103456250Y-80550000I-243750J0D01*
G01*
X102543750Y-80550000D01*
G75*
G02*
X102300000Y-80306250I0J243750D01*
G01*
X102300000Y-79818750D01*
G75*
G02*
X102543750Y-79575000I243750J0D01*
G01*
G37*
G36*
G01*
X102543750Y-81450000D02*
X103456250Y-81450000D01*
G75*
G02*
X103700000Y-81693750I0J-243750D01*
G01*
X103700000Y-82181250D01*
G75*
G02*
X103456250Y-82425000I-243750J0D01*
G01*
X102543750Y-82425000D01*
G75*
G02*
X102300000Y-82181250I0J243750D01*
G01*
X102300000Y-81693750D01*
G75*
G02*
X102543750Y-81450000I243750J0D01*
G01*
G37*
%TD*%
%TO.C,D5*%
X85450000Y-89000000D03*
X87550000Y-89000000D03*
%TD*%
%TO.C,R25*%
G36*
G01*
X58325000Y-86206250D02*
X58325000Y-85293750D01*
G75*
G02*
X58568750Y-85050000I243750J0D01*
G01*
X59056250Y-85050000D01*
G75*
G02*
X59300000Y-85293750I0J-243750D01*
G01*
X59300000Y-86206250D01*
G75*
G02*
X59056250Y-86450000I-243750J0D01*
G01*
X58568750Y-86450000D01*
G75*
G02*
X58325000Y-86206250I0J243750D01*
G01*
G37*
G36*
G01*
X60200000Y-86206250D02*
X60200000Y-85293750D01*
G75*
G02*
X60443750Y-85050000I243750J0D01*
G01*
X60931250Y-85050000D01*
G75*
G02*
X61175000Y-85293750I0J-243750D01*
G01*
X61175000Y-86206250D01*
G75*
G02*
X60931250Y-86450000I-243750J0D01*
G01*
X60443750Y-86450000D01*
G75*
G02*
X60200000Y-86206250I0J243750D01*
G01*
G37*
%TD*%
%TO.C,R14*%
G36*
G01*
X53256250Y-71425000D02*
X52343750Y-71425000D01*
G75*
G02*
X52100000Y-71181250I0J243750D01*
G01*
X52100000Y-70693750D01*
G75*
G02*
X52343750Y-70450000I243750J0D01*
G01*
X53256250Y-70450000D01*
G75*
G02*
X53500000Y-70693750I0J-243750D01*
G01*
X53500000Y-71181250D01*
G75*
G02*
X53256250Y-71425000I-243750J0D01*
G01*
G37*
G36*
G01*
X53256250Y-69550000D02*
X52343750Y-69550000D01*
G75*
G02*
X52100000Y-69306250I0J243750D01*
G01*
X52100000Y-68818750D01*
G75*
G02*
X52343750Y-68575000I243750J0D01*
G01*
X53256250Y-68575000D01*
G75*
G02*
X53500000Y-68818750I0J-243750D01*
G01*
X53500000Y-69306250D01*
G75*
G02*
X53256250Y-69550000I-243750J0D01*
G01*
G37*
%TD*%
%TO.C,J2*%
G36*
X43742221Y-89009554D02*
G01*
X43978169Y-89067710D01*
X44201732Y-89162961D01*
X44407121Y-89292841D01*
X44589016Y-89453986D01*
X44742706Y-89642222D01*
X44864210Y-89852674D01*
X44950382Y-90079892D01*
X44998990Y-90317990D01*
X45005000Y-90417343D01*
X45005000Y-107561936D01*
X44990446Y-107742221D01*
X44932290Y-107978169D01*
X44837039Y-108201732D01*
X44707159Y-108407121D01*
X44546014Y-108589016D01*
X44357778Y-108742706D01*
X44147326Y-108864210D01*
X43920108Y-108950382D01*
X43682010Y-108998990D01*
X43582657Y-109005000D01*
X40438064Y-109005000D01*
X40257779Y-108990446D01*
X40021831Y-108932290D01*
X39798268Y-108837039D01*
X39592879Y-108707159D01*
X39410984Y-108546014D01*
X39257294Y-108357778D01*
X39135790Y-108147326D01*
X39049618Y-107920108D01*
X39001010Y-107682010D01*
X38995000Y-107582657D01*
X38995000Y-90438064D01*
X39009554Y-90257779D01*
X39067710Y-90021831D01*
X39162961Y-89798268D01*
X39292841Y-89592879D01*
X39453986Y-89410984D01*
X39642222Y-89257294D01*
X39852674Y-89135790D01*
X40079892Y-89049618D01*
X40317990Y-89001010D01*
X40417343Y-88995000D01*
X43561936Y-88995000D01*
X43742221Y-89009554D01*
G37*
%TD*%
%TO.C,C34*%
G36*
G01*
X43825000Y-64543750D02*
X43825000Y-65456250D01*
G75*
G02*
X43581250Y-65700000I-243750J0D01*
G01*
X43093750Y-65700000D01*
G75*
G02*
X42850000Y-65456250I0J243750D01*
G01*
X42850000Y-64543750D01*
G75*
G02*
X43093750Y-64300000I243750J0D01*
G01*
X43581250Y-64300000D01*
G75*
G02*
X43825000Y-64543750I0J-243750D01*
G01*
G37*
G36*
G01*
X41950000Y-64543750D02*
X41950000Y-65456250D01*
G75*
G02*
X41706250Y-65700000I-243750J0D01*
G01*
X41218750Y-65700000D01*
G75*
G02*
X40975000Y-65456250I0J243750D01*
G01*
X40975000Y-64543750D01*
G75*
G02*
X41218750Y-64300000I243750J0D01*
G01*
X41706250Y-64300000D01*
G75*
G02*
X41950000Y-64543750I0J-243750D01*
G01*
G37*
%TD*%
%TO.C,R4*%
G36*
G01*
X103456250Y-88425000D02*
X102543750Y-88425000D01*
G75*
G02*
X102300000Y-88181250I0J243750D01*
G01*
X102300000Y-87693750D01*
G75*
G02*
X102543750Y-87450000I243750J0D01*
G01*
X103456250Y-87450000D01*
G75*
G02*
X103700000Y-87693750I0J-243750D01*
G01*
X103700000Y-88181250D01*
G75*
G02*
X103456250Y-88425000I-243750J0D01*
G01*
G37*
G36*
G01*
X103456250Y-86550000D02*
X102543750Y-86550000D01*
G75*
G02*
X102300000Y-86306250I0J243750D01*
G01*
X102300000Y-85818750D01*
G75*
G02*
X102543750Y-85575000I243750J0D01*
G01*
X103456250Y-85575000D01*
G75*
G02*
X103700000Y-85818750I0J-243750D01*
G01*
X103700000Y-86306250D01*
G75*
G02*
X103456250Y-86550000I-243750J0D01*
G01*
G37*
%TD*%
%TO.C,D6*%
X78700000Y-92500000D03*
X80800000Y-92500000D03*
%TD*%
D10*
%TO.C,U10*%
X21850000Y-26500000D03*
X22550000Y-26500000D03*
X23250000Y-26500000D03*
X23950000Y-26500000D03*
X24650000Y-26500000D03*
X25350000Y-26500000D03*
X26050000Y-26500000D03*
X26750000Y-26500000D03*
X27450000Y-26500000D03*
X28150000Y-26500000D03*
X28850000Y-26500000D03*
X29550000Y-26500000D03*
X30250000Y-26500000D03*
X30950000Y-26500000D03*
X31650000Y-26500000D03*
X32350000Y-26500000D03*
X33050000Y-26500000D03*
X33750000Y-26500000D03*
X34450000Y-26500000D03*
X35150000Y-26500000D03*
X35850000Y-26500000D03*
X36550000Y-26500000D03*
X37250000Y-26500000D03*
X37950000Y-26500000D03*
X38650000Y-26500000D03*
X39350000Y-26500000D03*
X40050000Y-26500000D03*
X40750000Y-26500000D03*
X41450000Y-26500000D03*
X42150000Y-26500000D03*
%TD*%
%TO.C,J3*%
G36*
X23742221Y-39009554D02*
G01*
X23978169Y-39067710D01*
X24201732Y-39162961D01*
X24407121Y-39292841D01*
X24589016Y-39453986D01*
X24742706Y-39642222D01*
X24864210Y-39852674D01*
X24950382Y-40079892D01*
X24998990Y-40317990D01*
X25005000Y-40417343D01*
X25005000Y-57561936D01*
X24990446Y-57742221D01*
X24932290Y-57978169D01*
X24837039Y-58201732D01*
X24707159Y-58407121D01*
X24546014Y-58589016D01*
X24357778Y-58742706D01*
X24147326Y-58864210D01*
X23920108Y-58950382D01*
X23682010Y-58998990D01*
X23582657Y-59005000D01*
X20438064Y-59005000D01*
X20257779Y-58990446D01*
X20021831Y-58932290D01*
X19798268Y-58837039D01*
X19592879Y-58707159D01*
X19410984Y-58546014D01*
X19257294Y-58357778D01*
X19135790Y-58147326D01*
X19049618Y-57920108D01*
X19001010Y-57682010D01*
X18995000Y-57582657D01*
X18995000Y-40438064D01*
X19009554Y-40257779D01*
X19067710Y-40021831D01*
X19162961Y-39798268D01*
X19292841Y-39592879D01*
X19453986Y-39410984D01*
X19642222Y-39257294D01*
X19852674Y-39135790D01*
X20079892Y-39049618D01*
X20317990Y-39001010D01*
X20417343Y-38995000D01*
X23561936Y-38995000D01*
X23742221Y-39009554D01*
G37*
%TD*%
%TO.C,J2*%
G36*
X43742221Y-39009554D02*
G01*
X43978169Y-39067710D01*
X44201732Y-39162961D01*
X44407121Y-39292841D01*
X44589016Y-39453986D01*
X44742706Y-39642222D01*
X44864210Y-39852674D01*
X44950382Y-40079892D01*
X44998990Y-40317990D01*
X45005000Y-40417343D01*
X45005000Y-57561936D01*
X44990446Y-57742221D01*
X44932290Y-57978169D01*
X44837039Y-58201732D01*
X44707159Y-58407121D01*
X44546014Y-58589016D01*
X44357778Y-58742706D01*
X44147326Y-58864210D01*
X43920108Y-58950382D01*
X43682010Y-58998990D01*
X43582657Y-59005000D01*
X40438064Y-59005000D01*
X40257779Y-58990446D01*
X40021831Y-58932290D01*
X39798268Y-58837039D01*
X39592879Y-58707159D01*
X39410984Y-58546014D01*
X39257294Y-58357778D01*
X39135790Y-58147326D01*
X39049618Y-57920108D01*
X39001010Y-57682010D01*
X38995000Y-57582657D01*
X38995000Y-40438064D01*
X39009554Y-40257779D01*
X39067710Y-40021831D01*
X39162961Y-39798268D01*
X39292841Y-39592879D01*
X39453986Y-39410984D01*
X39642222Y-39257294D01*
X39852674Y-39135790D01*
X40079892Y-39049618D01*
X40317990Y-39001010D01*
X40417343Y-38995000D01*
X43561936Y-38995000D01*
X43742221Y-39009554D01*
G37*
%TD*%
%TO.C,C32*%
G36*
G01*
X37575000Y-15456250D02*
X37575000Y-14543750D01*
G75*
G02*
X37818750Y-14300000I243750J0D01*
G01*
X38306250Y-14300000D01*
G75*
G02*
X38550000Y-14543750I0J-243750D01*
G01*
X38550000Y-15456250D01*
G75*
G02*
X38306250Y-15700000I-243750J0D01*
G01*
X37818750Y-15700000D01*
G75*
G02*
X37575000Y-15456250I0J243750D01*
G01*
G37*
G36*
G01*
X39450000Y-15456250D02*
X39450000Y-14543750D01*
G75*
G02*
X39693750Y-14300000I243750J0D01*
G01*
X40181250Y-14300000D01*
G75*
G02*
X40425000Y-14543750I0J-243750D01*
G01*
X40425000Y-15456250D01*
G75*
G02*
X40181250Y-15700000I-243750J0D01*
G01*
X39693750Y-15700000D01*
G75*
G02*
X39450000Y-15456250I0J243750D01*
G01*
G37*
%TD*%
D12*
%TO.C,D6*%
X78700000Y-42500000D03*
X80800000Y-42500000D03*
%TD*%
%TO.C,R14*%
G36*
G01*
X53256250Y-21425000D02*
X52343750Y-21425000D01*
G75*
G02*
X52100000Y-21181250I0J243750D01*
G01*
X52100000Y-20693750D01*
G75*
G02*
X52343750Y-20450000I243750J0D01*
G01*
X53256250Y-20450000D01*
G75*
G02*
X53500000Y-20693750I0J-243750D01*
G01*
X53500000Y-21181250D01*
G75*
G02*
X53256250Y-21425000I-243750J0D01*
G01*
G37*
G36*
G01*
X53256250Y-19550000D02*
X52343750Y-19550000D01*
G75*
G02*
X52100000Y-19306250I0J243750D01*
G01*
X52100000Y-18818750D01*
G75*
G02*
X52343750Y-18575000I243750J0D01*
G01*
X53256250Y-18575000D01*
G75*
G02*
X53500000Y-18818750I0J-243750D01*
G01*
X53500000Y-19306250D01*
G75*
G02*
X53256250Y-19550000I-243750J0D01*
G01*
G37*
%TD*%
%TO.C,C3*%
G36*
G01*
X96675000Y-43543750D02*
X96675000Y-44456250D01*
G75*
G02*
X96431250Y-44700000I-243750J0D01*
G01*
X95943750Y-44700000D01*
G75*
G02*
X95700000Y-44456250I0J243750D01*
G01*
X95700000Y-43543750D01*
G75*
G02*
X95943750Y-43300000I243750J0D01*
G01*
X96431250Y-43300000D01*
G75*
G02*
X96675000Y-43543750I0J-243750D01*
G01*
G37*
G36*
G01*
X94800000Y-43543750D02*
X94800000Y-44456250D01*
G75*
G02*
X94556250Y-44700000I-243750J0D01*
G01*
X94068750Y-44700000D01*
G75*
G02*
X93825000Y-44456250I0J243750D01*
G01*
X93825000Y-43543750D01*
G75*
G02*
X94068750Y-43300000I243750J0D01*
G01*
X94556250Y-43300000D01*
G75*
G02*
X94800000Y-43543750I0J-243750D01*
G01*
G37*
%TD*%
%TO.C,C8*%
G36*
G01*
X81445000Y-50456250D02*
X81445000Y-49543750D01*
G75*
G02*
X81688750Y-49300000I243750J0D01*
G01*
X82176250Y-49300000D01*
G75*
G02*
X82420000Y-49543750I0J-243750D01*
G01*
X82420000Y-50456250D01*
G75*
G02*
X82176250Y-50700000I-243750J0D01*
G01*
X81688750Y-50700000D01*
G75*
G02*
X81445000Y-50456250I0J243750D01*
G01*
G37*
G36*
G01*
X83320000Y-50456250D02*
X83320000Y-49543750D01*
G75*
G02*
X83563750Y-49300000I243750J0D01*
G01*
X84051250Y-49300000D01*
G75*
G02*
X84295000Y-49543750I0J-243750D01*
G01*
X84295000Y-50456250D01*
G75*
G02*
X84051250Y-50700000I-243750J0D01*
G01*
X83563750Y-50700000D01*
G75*
G02*
X83320000Y-50456250I0J243750D01*
G01*
G37*
%TD*%
%TO.C,C2*%
G36*
G01*
X98543750Y-31075000D02*
X99456250Y-31075000D01*
G75*
G02*
X99700000Y-31318750I0J-243750D01*
G01*
X99700000Y-31806250D01*
G75*
G02*
X99456250Y-32050000I-243750J0D01*
G01*
X98543750Y-32050000D01*
G75*
G02*
X98300000Y-31806250I0J243750D01*
G01*
X98300000Y-31318750D01*
G75*
G02*
X98543750Y-31075000I243750J0D01*
G01*
G37*
G36*
G01*
X98543750Y-32950000D02*
X99456250Y-32950000D01*
G75*
G02*
X99700000Y-33193750I0J-243750D01*
G01*
X99700000Y-33681250D01*
G75*
G02*
X99456250Y-33925000I-243750J0D01*
G01*
X98543750Y-33925000D01*
G75*
G02*
X98300000Y-33681250I0J243750D01*
G01*
X98300000Y-33193750D01*
G75*
G02*
X98543750Y-32950000I243750J0D01*
G01*
G37*
%TD*%
%TO.C,R11*%
G36*
G01*
X102543750Y-29575000D02*
X103456250Y-29575000D01*
G75*
G02*
X103700000Y-29818750I0J-243750D01*
G01*
X103700000Y-30306250D01*
G75*
G02*
X103456250Y-30550000I-243750J0D01*
G01*
X102543750Y-30550000D01*
G75*
G02*
X102300000Y-30306250I0J243750D01*
G01*
X102300000Y-29818750D01*
G75*
G02*
X102543750Y-29575000I243750J0D01*
G01*
G37*
G36*
G01*
X102543750Y-31450000D02*
X103456250Y-31450000D01*
G75*
G02*
X103700000Y-31693750I0J-243750D01*
G01*
X103700000Y-32181250D01*
G75*
G02*
X103456250Y-32425000I-243750J0D01*
G01*
X102543750Y-32425000D01*
G75*
G02*
X102300000Y-32181250I0J243750D01*
G01*
X102300000Y-31693750D01*
G75*
G02*
X102543750Y-31450000I243750J0D01*
G01*
G37*
%TD*%
%TO.C,D8*%
X95200000Y-37000000D03*
X97300000Y-37000000D03*
%TD*%
%TO.C,R4*%
G36*
G01*
X103456250Y-38425000D02*
X102543750Y-38425000D01*
G75*
G02*
X102300000Y-38181250I0J243750D01*
G01*
X102300000Y-37693750D01*
G75*
G02*
X102543750Y-37450000I243750J0D01*
G01*
X103456250Y-37450000D01*
G75*
G02*
X103700000Y-37693750I0J-243750D01*
G01*
X103700000Y-38181250D01*
G75*
G02*
X103456250Y-38425000I-243750J0D01*
G01*
G37*
G36*
G01*
X103456250Y-36550000D02*
X102543750Y-36550000D01*
G75*
G02*
X102300000Y-36306250I0J243750D01*
G01*
X102300000Y-35818750D01*
G75*
G02*
X102543750Y-35575000I243750J0D01*
G01*
X103456250Y-35575000D01*
G75*
G02*
X103700000Y-35818750I0J-243750D01*
G01*
X103700000Y-36306250D01*
G75*
G02*
X103456250Y-36550000I-243750J0D01*
G01*
G37*
%TD*%
%TO.C,C34*%
G36*
G01*
X43825000Y-14543750D02*
X43825000Y-15456250D01*
G75*
G02*
X43581250Y-15700000I-243750J0D01*
G01*
X43093750Y-15700000D01*
G75*
G02*
X42850000Y-15456250I0J243750D01*
G01*
X42850000Y-14543750D01*
G75*
G02*
X43093750Y-14300000I243750J0D01*
G01*
X43581250Y-14300000D01*
G75*
G02*
X43825000Y-14543750I0J-243750D01*
G01*
G37*
G36*
G01*
X41950000Y-14543750D02*
X41950000Y-15456250D01*
G75*
G02*
X41706250Y-15700000I-243750J0D01*
G01*
X41218750Y-15700000D01*
G75*
G02*
X40975000Y-15456250I0J243750D01*
G01*
X40975000Y-14543750D01*
G75*
G02*
X41218750Y-14300000I243750J0D01*
G01*
X41706250Y-14300000D01*
G75*
G02*
X41950000Y-14543750I0J-243750D01*
G01*
G37*
%TD*%
%TO.C,R25*%
G36*
G01*
X58325000Y-36206250D02*
X58325000Y-35293750D01*
G75*
G02*
X58568750Y-35050000I243750J0D01*
G01*
X59056250Y-35050000D01*
G75*
G02*
X59300000Y-35293750I0J-243750D01*
G01*
X59300000Y-36206250D01*
G75*
G02*
X59056250Y-36450000I-243750J0D01*
G01*
X58568750Y-36450000D01*
G75*
G02*
X58325000Y-36206250I0J243750D01*
G01*
G37*
G36*
G01*
X60200000Y-36206250D02*
X60200000Y-35293750D01*
G75*
G02*
X60443750Y-35050000I243750J0D01*
G01*
X60931250Y-35050000D01*
G75*
G02*
X61175000Y-35293750I0J-243750D01*
G01*
X61175000Y-36206250D01*
G75*
G02*
X60931250Y-36450000I-243750J0D01*
G01*
X60443750Y-36450000D01*
G75*
G02*
X60200000Y-36206250I0J243750D01*
G01*
G37*
%TD*%
%TO.C,D5*%
X85450000Y-39000000D03*
X87550000Y-39000000D03*
%TD*%
%TO.C,C15*%
G36*
G01*
X79293750Y-34575000D02*
X80206250Y-34575000D01*
G75*
G02*
X80450000Y-34818750I0J-243750D01*
G01*
X80450000Y-35306250D01*
G75*
G02*
X80206250Y-35550000I-243750J0D01*
G01*
X79293750Y-35550000D01*
G75*
G02*
X79050000Y-35306250I0J243750D01*
G01*
X79050000Y-34818750D01*
G75*
G02*
X79293750Y-34575000I243750J0D01*
G01*
G37*
G36*
G01*
X79293750Y-36450000D02*
X80206250Y-36450000D01*
G75*
G02*
X80450000Y-36693750I0J-243750D01*
G01*
X80450000Y-37181250D01*
G75*
G02*
X80206250Y-37425000I-243750J0D01*
G01*
X79293750Y-37425000D01*
G75*
G02*
X79050000Y-37181250I0J243750D01*
G01*
X79050000Y-36693750D01*
G75*
G02*
X79293750Y-36450000I243750J0D01*
G01*
G37*
%TD*%
%TO.C,C31*%
G36*
G01*
X23825000Y-15456250D02*
X23825000Y-14543750D01*
G75*
G02*
X24068750Y-14300000I243750J0D01*
G01*
X24556250Y-14300000D01*
G75*
G02*
X24800000Y-14543750I0J-243750D01*
G01*
X24800000Y-15456250D01*
G75*
G02*
X24556250Y-15700000I-243750J0D01*
G01*
X24068750Y-15700000D01*
G75*
G02*
X23825000Y-15456250I0J243750D01*
G01*
G37*
G36*
G01*
X25700000Y-15456250D02*
X25700000Y-14543750D01*
G75*
G02*
X25943750Y-14300000I243750J0D01*
G01*
X26431250Y-14300000D01*
G75*
G02*
X26675000Y-14543750I0J-243750D01*
G01*
X26675000Y-15456250D01*
G75*
G02*
X26431250Y-15700000I-243750J0D01*
G01*
X25943750Y-15700000D01*
G75*
G02*
X25700000Y-15456250I0J243750D01*
G01*
G37*
%TD*%
%TO.C,C10*%
G36*
G01*
X99456250Y-37925000D02*
X98543750Y-37925000D01*
G75*
G02*
X98300000Y-37681250I0J243750D01*
G01*
X98300000Y-37193750D01*
G75*
G02*
X98543750Y-36950000I243750J0D01*
G01*
X99456250Y-36950000D01*
G75*
G02*
X99700000Y-37193750I0J-243750D01*
G01*
X99700000Y-37681250D01*
G75*
G02*
X99456250Y-37925000I-243750J0D01*
G01*
G37*
G36*
G01*
X99456250Y-36050000D02*
X98543750Y-36050000D01*
G75*
G02*
X98300000Y-35806250I0J243750D01*
G01*
X98300000Y-35318750D01*
G75*
G02*
X98543750Y-35075000I243750J0D01*
G01*
X99456250Y-35075000D01*
G75*
G02*
X99700000Y-35318750I0J-243750D01*
G01*
X99700000Y-35806250D01*
G75*
G02*
X99456250Y-36050000I-243750J0D01*
G01*
G37*
%TD*%
%TO.C,R5*%
G36*
G01*
X51256250Y-21425000D02*
X50343750Y-21425000D01*
G75*
G02*
X50100000Y-21181250I0J243750D01*
G01*
X50100000Y-20693750D01*
G75*
G02*
X50343750Y-20450000I243750J0D01*
G01*
X51256250Y-20450000D01*
G75*
G02*
X51500000Y-20693750I0J-243750D01*
G01*
X51500000Y-21181250D01*
G75*
G02*
X51256250Y-21425000I-243750J0D01*
G01*
G37*
G36*
G01*
X51256250Y-19550000D02*
X50343750Y-19550000D01*
G75*
G02*
X50100000Y-19306250I0J243750D01*
G01*
X50100000Y-18818750D01*
G75*
G02*
X50343750Y-18575000I243750J0D01*
G01*
X51256250Y-18575000D01*
G75*
G02*
X51500000Y-18818750I0J-243750D01*
G01*
X51500000Y-19306250D01*
G75*
G02*
X51256250Y-19550000I-243750J0D01*
G01*
G37*
%TD*%
%TO.C,C14*%
G36*
G01*
X75413750Y-51375000D02*
X76326250Y-51375000D01*
G75*
G02*
X76570000Y-51618750I0J-243750D01*
G01*
X76570000Y-52106250D01*
G75*
G02*
X76326250Y-52350000I-243750J0D01*
G01*
X75413750Y-52350000D01*
G75*
G02*
X75170000Y-52106250I0J243750D01*
G01*
X75170000Y-51618750D01*
G75*
G02*
X75413750Y-51375000I243750J0D01*
G01*
G37*
G36*
G01*
X75413750Y-53250000D02*
X76326250Y-53250000D01*
G75*
G02*
X76570000Y-53493750I0J-243750D01*
G01*
X76570000Y-53981250D01*
G75*
G02*
X76326250Y-54225000I-243750J0D01*
G01*
X75413750Y-54225000D01*
G75*
G02*
X75170000Y-53981250I0J243750D01*
G01*
X75170000Y-53493750D01*
G75*
G02*
X75413750Y-53250000I243750J0D01*
G01*
G37*
%TD*%
%TO.C,R2*%
G36*
G01*
X107043750Y-23575000D02*
X107956250Y-23575000D01*
G75*
G02*
X108200000Y-23818750I0J-243750D01*
G01*
X108200000Y-24306250D01*
G75*
G02*
X107956250Y-24550000I-243750J0D01*
G01*
X107043750Y-24550000D01*
G75*
G02*
X106800000Y-24306250I0J243750D01*
G01*
X106800000Y-23818750D01*
G75*
G02*
X107043750Y-23575000I243750J0D01*
G01*
G37*
G36*
G01*
X107043750Y-25450000D02*
X107956250Y-25450000D01*
G75*
G02*
X108200000Y-25693750I0J-243750D01*
G01*
X108200000Y-26181250D01*
G75*
G02*
X107956250Y-26425000I-243750J0D01*
G01*
X107043750Y-26425000D01*
G75*
G02*
X106800000Y-26181250I0J243750D01*
G01*
X106800000Y-25693750D01*
G75*
G02*
X107043750Y-25450000I243750J0D01*
G01*
G37*
%TD*%
%TO.C,R3*%
G36*
G01*
X99706250Y-42425000D02*
X98793750Y-42425000D01*
G75*
G02*
X98550000Y-42181250I0J243750D01*
G01*
X98550000Y-41693750D01*
G75*
G02*
X98793750Y-41450000I243750J0D01*
G01*
X99706250Y-41450000D01*
G75*
G02*
X99950000Y-41693750I0J-243750D01*
G01*
X99950000Y-42181250D01*
G75*
G02*
X99706250Y-42425000I-243750J0D01*
G01*
G37*
G36*
G01*
X99706250Y-40550000D02*
X98793750Y-40550000D01*
G75*
G02*
X98550000Y-40306250I0J243750D01*
G01*
X98550000Y-39818750D01*
G75*
G02*
X98793750Y-39575000I243750J0D01*
G01*
X99706250Y-39575000D01*
G75*
G02*
X99950000Y-39818750I0J-243750D01*
G01*
X99950000Y-40306250D01*
G75*
G02*
X99706250Y-40550000I-243750J0D01*
G01*
G37*
%TD*%
%TO.C,R12*%
G36*
G01*
X85195000Y-50456250D02*
X85195000Y-49543750D01*
G75*
G02*
X85438750Y-49300000I243750J0D01*
G01*
X85926250Y-49300000D01*
G75*
G02*
X86170000Y-49543750I0J-243750D01*
G01*
X86170000Y-50456250D01*
G75*
G02*
X85926250Y-50700000I-243750J0D01*
G01*
X85438750Y-50700000D01*
G75*
G02*
X85195000Y-50456250I0J243750D01*
G01*
G37*
G36*
G01*
X87070000Y-50456250D02*
X87070000Y-49543750D01*
G75*
G02*
X87313750Y-49300000I243750J0D01*
G01*
X87801250Y-49300000D01*
G75*
G02*
X88045000Y-49543750I0J-243750D01*
G01*
X88045000Y-50456250D01*
G75*
G02*
X87801250Y-50700000I-243750J0D01*
G01*
X87313750Y-50700000D01*
G75*
G02*
X87070000Y-50456250I0J243750D01*
G01*
G37*
%TD*%
%TO.C,C33*%
G36*
G01*
X23225000Y-14543750D02*
X23225000Y-15456250D01*
G75*
G02*
X22981250Y-15700000I-243750J0D01*
G01*
X22493750Y-15700000D01*
G75*
G02*
X22250000Y-15456250I0J243750D01*
G01*
X22250000Y-14543750D01*
G75*
G02*
X22493750Y-14300000I243750J0D01*
G01*
X22981250Y-14300000D01*
G75*
G02*
X23225000Y-14543750I0J-243750D01*
G01*
G37*
G36*
G01*
X21350000Y-14543750D02*
X21350000Y-15456250D01*
G75*
G02*
X21106250Y-15700000I-243750J0D01*
G01*
X20618750Y-15700000D01*
G75*
G02*
X20375000Y-15456250I0J243750D01*
G01*
X20375000Y-14543750D01*
G75*
G02*
X20618750Y-14300000I243750J0D01*
G01*
X21106250Y-14300000D01*
G75*
G02*
X21350000Y-14543750I0J-243750D01*
G01*
G37*
%TD*%
%TO.C,C22*%
G36*
G01*
X86043750Y-23575000D02*
X86956250Y-23575000D01*
G75*
G02*
X87200000Y-23818750I0J-243750D01*
G01*
X87200000Y-24306250D01*
G75*
G02*
X86956250Y-24550000I-243750J0D01*
G01*
X86043750Y-24550000D01*
G75*
G02*
X85800000Y-24306250I0J243750D01*
G01*
X85800000Y-23818750D01*
G75*
G02*
X86043750Y-23575000I243750J0D01*
G01*
G37*
G36*
G01*
X86043750Y-25450000D02*
X86956250Y-25450000D01*
G75*
G02*
X87200000Y-25693750I0J-243750D01*
G01*
X87200000Y-26181250D01*
G75*
G02*
X86956250Y-26425000I-243750J0D01*
G01*
X86043750Y-26425000D01*
G75*
G02*
X85800000Y-26181250I0J243750D01*
G01*
X85800000Y-25693750D01*
G75*
G02*
X86043750Y-25450000I243750J0D01*
G01*
G37*
%TD*%
%TO.C,C13*%
G36*
G01*
X77445000Y-50456250D02*
X77445000Y-49543750D01*
G75*
G02*
X77688750Y-49300000I243750J0D01*
G01*
X78176250Y-49300000D01*
G75*
G02*
X78420000Y-49543750I0J-243750D01*
G01*
X78420000Y-50456250D01*
G75*
G02*
X78176250Y-50700000I-243750J0D01*
G01*
X77688750Y-50700000D01*
G75*
G02*
X77445000Y-50456250I0J243750D01*
G01*
G37*
G36*
G01*
X79320000Y-50456250D02*
X79320000Y-49543750D01*
G75*
G02*
X79563750Y-49300000I243750J0D01*
G01*
X80051250Y-49300000D01*
G75*
G02*
X80295000Y-49543750I0J-243750D01*
G01*
X80295000Y-50456250D01*
G75*
G02*
X80051250Y-50700000I-243750J0D01*
G01*
X79563750Y-50700000D01*
G75*
G02*
X79320000Y-50456250I0J243750D01*
G01*
G37*
%TD*%
%TO.C,R1*%
G36*
G01*
X99043750Y-23575000D02*
X99956250Y-23575000D01*
G75*
G02*
X100200000Y-23818750I0J-243750D01*
G01*
X100200000Y-24306250D01*
G75*
G02*
X99956250Y-24550000I-243750J0D01*
G01*
X99043750Y-24550000D01*
G75*
G02*
X98800000Y-24306250I0J243750D01*
G01*
X98800000Y-23818750D01*
G75*
G02*
X99043750Y-23575000I243750J0D01*
G01*
G37*
G36*
G01*
X99043750Y-25450000D02*
X99956250Y-25450000D01*
G75*
G02*
X100200000Y-25693750I0J-243750D01*
G01*
X100200000Y-26181250D01*
G75*
G02*
X99956250Y-26425000I-243750J0D01*
G01*
X99043750Y-26425000D01*
G75*
G02*
X98800000Y-26181250I0J243750D01*
G01*
X98800000Y-25693750D01*
G75*
G02*
X99043750Y-25450000I243750J0D01*
G01*
G37*
%TD*%
%TO.C,C21*%
G36*
G01*
X70956250Y-30925000D02*
X70043750Y-30925000D01*
G75*
G02*
X69800000Y-30681250I0J243750D01*
G01*
X69800000Y-30193750D01*
G75*
G02*
X70043750Y-29950000I243750J0D01*
G01*
X70956250Y-29950000D01*
G75*
G02*
X71200000Y-30193750I0J-243750D01*
G01*
X71200000Y-30681250D01*
G75*
G02*
X70956250Y-30925000I-243750J0D01*
G01*
G37*
G36*
G01*
X70956250Y-29050000D02*
X70043750Y-29050000D01*
G75*
G02*
X69800000Y-28806250I0J243750D01*
G01*
X69800000Y-28318750D01*
G75*
G02*
X70043750Y-28075000I243750J0D01*
G01*
X70956250Y-28075000D01*
G75*
G02*
X71200000Y-28318750I0J-243750D01*
G01*
X71200000Y-28806250D01*
G75*
G02*
X70956250Y-29050000I-243750J0D01*
G01*
G37*
%TD*%
%TO.C,C19*%
G36*
G01*
X68175000Y-37043750D02*
X68175000Y-37956250D01*
G75*
G02*
X67931250Y-38200000I-243750J0D01*
G01*
X67443750Y-38200000D01*
G75*
G02*
X67200000Y-37956250I0J243750D01*
G01*
X67200000Y-37043750D01*
G75*
G02*
X67443750Y-36800000I243750J0D01*
G01*
X67931250Y-36800000D01*
G75*
G02*
X68175000Y-37043750I0J-243750D01*
G01*
G37*
G36*
G01*
X66300000Y-37043750D02*
X66300000Y-37956250D01*
G75*
G02*
X66056250Y-38200000I-243750J0D01*
G01*
X65568750Y-38200000D01*
G75*
G02*
X65325000Y-37956250I0J243750D01*
G01*
X65325000Y-37043750D01*
G75*
G02*
X65568750Y-36800000I243750J0D01*
G01*
X66056250Y-36800000D01*
G75*
G02*
X66300000Y-37043750I0J-243750D01*
G01*
G37*
%TD*%
%TO.C,C24*%
G36*
G01*
X81925000Y-23043750D02*
X81925000Y-23956250D01*
G75*
G02*
X81681250Y-24200000I-243750J0D01*
G01*
X81193750Y-24200000D01*
G75*
G02*
X80950000Y-23956250I0J243750D01*
G01*
X80950000Y-23043750D01*
G75*
G02*
X81193750Y-22800000I243750J0D01*
G01*
X81681250Y-22800000D01*
G75*
G02*
X81925000Y-23043750I0J-243750D01*
G01*
G37*
G36*
G01*
X80050000Y-23043750D02*
X80050000Y-23956250D01*
G75*
G02*
X79806250Y-24200000I-243750J0D01*
G01*
X79318750Y-24200000D01*
G75*
G02*
X79075000Y-23956250I0J243750D01*
G01*
X79075000Y-23043750D01*
G75*
G02*
X79318750Y-22800000I243750J0D01*
G01*
X79806250Y-22800000D01*
G75*
G02*
X80050000Y-23043750I0J-243750D01*
G01*
G37*
%TD*%
D11*
%TO.C,D7*%
X77750000Y-32200000D03*
X77750000Y-34300000D03*
%TD*%
%TO.C,R15*%
G36*
G01*
X34175000Y-15456250D02*
X34175000Y-14543750D01*
G75*
G02*
X34418750Y-14300000I243750J0D01*
G01*
X34906250Y-14300000D01*
G75*
G02*
X35150000Y-14543750I0J-243750D01*
G01*
X35150000Y-15456250D01*
G75*
G02*
X34906250Y-15700000I-243750J0D01*
G01*
X34418750Y-15700000D01*
G75*
G02*
X34175000Y-15456250I0J243750D01*
G01*
G37*
G36*
G01*
X36050000Y-15456250D02*
X36050000Y-14543750D01*
G75*
G02*
X36293750Y-14300000I243750J0D01*
G01*
X36781250Y-14300000D01*
G75*
G02*
X37025000Y-14543750I0J-243750D01*
G01*
X37025000Y-15456250D01*
G75*
G02*
X36781250Y-15700000I-243750J0D01*
G01*
X36293750Y-15700000D01*
G75*
G02*
X36050000Y-15456250I0J243750D01*
G01*
G37*
%TD*%
%TO.C,R7*%
G36*
G01*
X80295000Y-47293750D02*
X80295000Y-48206250D01*
G75*
G02*
X80051250Y-48450000I-243750J0D01*
G01*
X79563750Y-48450000D01*
G75*
G02*
X79320000Y-48206250I0J243750D01*
G01*
X79320000Y-47293750D01*
G75*
G02*
X79563750Y-47050000I243750J0D01*
G01*
X80051250Y-47050000D01*
G75*
G02*
X80295000Y-47293750I0J-243750D01*
G01*
G37*
G36*
G01*
X78420000Y-47293750D02*
X78420000Y-48206250D01*
G75*
G02*
X78176250Y-48450000I-243750J0D01*
G01*
X77688750Y-48450000D01*
G75*
G02*
X77445000Y-48206250I0J243750D01*
G01*
X77445000Y-47293750D01*
G75*
G02*
X77688750Y-47050000I243750J0D01*
G01*
X78176250Y-47050000D01*
G75*
G02*
X78420000Y-47293750I0J-243750D01*
G01*
G37*
%TD*%
%TO.C,C26*%
G36*
G01*
X79075000Y-29956250D02*
X79075000Y-29043750D01*
G75*
G02*
X79318750Y-28800000I243750J0D01*
G01*
X79806250Y-28800000D01*
G75*
G02*
X80050000Y-29043750I0J-243750D01*
G01*
X80050000Y-29956250D01*
G75*
G02*
X79806250Y-30200000I-243750J0D01*
G01*
X79318750Y-30200000D01*
G75*
G02*
X79075000Y-29956250I0J243750D01*
G01*
G37*
G36*
G01*
X80950000Y-29956250D02*
X80950000Y-29043750D01*
G75*
G02*
X81193750Y-28800000I243750J0D01*
G01*
X81681250Y-28800000D01*
G75*
G02*
X81925000Y-29043750I0J-243750D01*
G01*
X81925000Y-29956250D01*
G75*
G02*
X81681250Y-30200000I-243750J0D01*
G01*
X81193750Y-30200000D01*
G75*
G02*
X80950000Y-29956250I0J243750D01*
G01*
G37*
%TD*%
%TO.C,C17*%
G36*
G01*
X82075000Y-33456250D02*
X82075000Y-32543750D01*
G75*
G02*
X82318750Y-32300000I243750J0D01*
G01*
X82806250Y-32300000D01*
G75*
G02*
X83050000Y-32543750I0J-243750D01*
G01*
X83050000Y-33456250D01*
G75*
G02*
X82806250Y-33700000I-243750J0D01*
G01*
X82318750Y-33700000D01*
G75*
G02*
X82075000Y-33456250I0J243750D01*
G01*
G37*
G36*
G01*
X83950000Y-33456250D02*
X83950000Y-32543750D01*
G75*
G02*
X84193750Y-32300000I243750J0D01*
G01*
X84681250Y-32300000D01*
G75*
G02*
X84925000Y-32543750I0J-243750D01*
G01*
X84925000Y-33456250D01*
G75*
G02*
X84681250Y-33700000I-243750J0D01*
G01*
X84193750Y-33700000D01*
G75*
G02*
X83950000Y-33456250I0J243750D01*
G01*
G37*
%TD*%
%TO.C,C11*%
G36*
G01*
X92706250Y-42425000D02*
X91793750Y-42425000D01*
G75*
G02*
X91550000Y-42181250I0J243750D01*
G01*
X91550000Y-41693750D01*
G75*
G02*
X91793750Y-41450000I243750J0D01*
G01*
X92706250Y-41450000D01*
G75*
G02*
X92950000Y-41693750I0J-243750D01*
G01*
X92950000Y-42181250D01*
G75*
G02*
X92706250Y-42425000I-243750J0D01*
G01*
G37*
G36*
G01*
X92706250Y-40550000D02*
X91793750Y-40550000D01*
G75*
G02*
X91550000Y-40306250I0J243750D01*
G01*
X91550000Y-39818750D01*
G75*
G02*
X91793750Y-39575000I243750J0D01*
G01*
X92706250Y-39575000D01*
G75*
G02*
X92950000Y-39818750I0J-243750D01*
G01*
X92950000Y-40306250D01*
G75*
G02*
X92706250Y-40550000I-243750J0D01*
G01*
G37*
%TD*%
%TO.C,C23*%
G36*
G01*
X84956250Y-26425000D02*
X84043750Y-26425000D01*
G75*
G02*
X83800000Y-26181250I0J243750D01*
G01*
X83800000Y-25693750D01*
G75*
G02*
X84043750Y-25450000I243750J0D01*
G01*
X84956250Y-25450000D01*
G75*
G02*
X85200000Y-25693750I0J-243750D01*
G01*
X85200000Y-26181250D01*
G75*
G02*
X84956250Y-26425000I-243750J0D01*
G01*
G37*
G36*
G01*
X84956250Y-24550000D02*
X84043750Y-24550000D01*
G75*
G02*
X83800000Y-24306250I0J243750D01*
G01*
X83800000Y-23818750D01*
G75*
G02*
X84043750Y-23575000I243750J0D01*
G01*
X84956250Y-23575000D01*
G75*
G02*
X85200000Y-23818750I0J-243750D01*
G01*
X85200000Y-24306250D01*
G75*
G02*
X84956250Y-24550000I-243750J0D01*
G01*
G37*
%TD*%
%TO.C,C9*%
G36*
G01*
X83793750Y-28575000D02*
X84706250Y-28575000D01*
G75*
G02*
X84950000Y-28818750I0J-243750D01*
G01*
X84950000Y-29306250D01*
G75*
G02*
X84706250Y-29550000I-243750J0D01*
G01*
X83793750Y-29550000D01*
G75*
G02*
X83550000Y-29306250I0J243750D01*
G01*
X83550000Y-28818750D01*
G75*
G02*
X83793750Y-28575000I243750J0D01*
G01*
G37*
G36*
G01*
X83793750Y-30450000D02*
X84706250Y-30450000D01*
G75*
G02*
X84950000Y-30693750I0J-243750D01*
G01*
X84950000Y-31181250D01*
G75*
G02*
X84706250Y-31425000I-243750J0D01*
G01*
X83793750Y-31425000D01*
G75*
G02*
X83550000Y-31181250I0J243750D01*
G01*
X83550000Y-30693750D01*
G75*
G02*
X83793750Y-30450000I243750J0D01*
G01*
G37*
%TD*%
M02*
