%TF.GenerationSoftware,Altium Limited,Altium Designer,21.0.8 (223)*%
G04 Layer_Color=8421504*
%FSLAX45Y45*%
%MOMM*%
%TF.SameCoordinates,E6859DB6-3A4E-404A-A1E8-5F06C1255FAD*%
%TF.FilePolarity,Positive*%
%TF.FileFunction,Paste,Top*%
%TF.Part,Single*%
G01*
G75*
%TA.AperFunction,SMDPad,CuDef*%
%ADD21R,0.80000X0.90000*%
G04:AMPARAMS|DCode=22|XSize=1.15564mm|YSize=0.52981mm|CornerRadius=0.2649mm|HoleSize=0mm|Usage=FLASHONLY|Rotation=90.000|XOffset=0mm|YOffset=0mm|HoleType=Round|Shape=RoundedRectangle|*
%AMROUNDEDRECTD22*
21,1,1.15564,0.00000,0,0,90.0*
21,1,0.62584,0.52981,0,0,90.0*
1,1,0.52980,0.00000,0.31292*
1,1,0.52980,0.00000,-0.31292*
1,1,0.52980,0.00000,-0.31292*
1,1,0.52980,0.00000,0.31292*
%
%ADD22ROUNDEDRECTD22*%
%ADD23R,0.52981X1.15564*%
%ADD77R,1.65240X1.60240*%
%ADD78R,1.65240X1.35240*%
%ADD79R,1.35240X1.65240*%
%ADD104R,0.78240X0.98240*%
%ADD105R,2.31140X2.89540*%
G04:AMPARAMS|DCode=106|XSize=1.4524mm|YSize=0.9124mm|CornerRadius=0.1712mm|HoleSize=0mm|Usage=FLASHONLY|Rotation=270.000|XOffset=0mm|YOffset=0mm|HoleType=Round|Shape=RoundedRectangle|*
%AMROUNDEDRECTD106*
21,1,1.45240,0.57000,0,0,270.0*
21,1,1.11000,0.91240,0,0,270.0*
1,1,0.34240,-0.28500,-0.55500*
1,1,0.34240,-0.28500,0.55500*
1,1,0.34240,0.28500,0.55500*
1,1,0.34240,0.28500,-0.55500*
%
%ADD106ROUNDEDRECTD106*%
%ADD107R,1.35240X1.25240*%
G04:AMPARAMS|DCode=108|XSize=1.4524mm|YSize=0.9124mm|CornerRadius=0.1712mm|HoleSize=0mm|Usage=FLASHONLY|Rotation=180.000|XOffset=0mm|YOffset=0mm|HoleType=Round|Shape=RoundedRectangle|*
%AMROUNDEDRECTD108*
21,1,1.45240,0.57000,0,0,180.0*
21,1,1.11000,0.91240,0,0,180.0*
1,1,0.34240,-0.55500,0.28500*
1,1,0.34240,0.55500,0.28500*
1,1,0.34240,0.55500,-0.28500*
1,1,0.34240,-0.55500,-0.28500*
%
%ADD108ROUNDEDRECTD108*%
G04:AMPARAMS|DCode=109|XSize=0.7024mm|YSize=0.9524mm|CornerRadius=0.1257mm|HoleSize=0mm|Usage=FLASHONLY|Rotation=0.000|XOffset=0mm|YOffset=0mm|HoleType=Round|Shape=RoundedRectangle|*
%AMROUNDEDRECTD109*
21,1,0.70240,0.70100,0,0,0.0*
21,1,0.45100,0.95240,0,0,0.0*
1,1,0.25140,0.22550,-0.35050*
1,1,0.25140,-0.22550,-0.35050*
1,1,0.25140,-0.22550,0.35050*
1,1,0.25140,0.22550,0.35050*
%
%ADD109ROUNDEDRECTD109*%
G04:AMPARAMS|DCode=110|XSize=0.6024mm|YSize=1.2024mm|CornerRadius=0.1257mm|HoleSize=0mm|Usage=FLASHONLY|Rotation=180.000|XOffset=0mm|YOffset=0mm|HoleType=Round|Shape=RoundedRectangle|*
%AMROUNDEDRECTD110*
21,1,0.60240,0.95100,0,0,180.0*
21,1,0.35100,1.20240,0,0,180.0*
1,1,0.25140,-0.17550,0.47550*
1,1,0.25140,0.17550,0.47550*
1,1,0.25140,0.17550,-0.47550*
1,1,0.25140,-0.17550,-0.47550*
%
%ADD110ROUNDEDRECTD110*%
%ADD111R,1.60240X1.65240*%
G04:AMPARAMS|DCode=112|XSize=0.8024mm|YSize=1.3524mm|CornerRadius=0.12495mm|HoleSize=0mm|Usage=FLASHONLY|Rotation=90.000|XOffset=0mm|YOffset=0mm|HoleType=Round|Shape=RoundedRectangle|*
%AMROUNDEDRECTD112*
21,1,0.80240,1.10250,0,0,90.0*
21,1,0.55250,1.35240,0,0,90.0*
1,1,0.24990,0.55125,0.27625*
1,1,0.24990,0.55125,-0.27625*
1,1,0.24990,-0.55125,-0.27625*
1,1,0.24990,-0.55125,0.27625*
%
%ADD112ROUNDEDRECTD112*%
%ADD113R,1.15240X1.55240*%
%ADD114R,0.55240X0.80240*%
%ADD115R,1.15240X0.75240*%
%ADD116R,1.50240X2.00240*%
%ADD117O,0.45240X1.95240*%
%ADD118O,1.95240X0.45240*%
%ADD119R,1.25240X1.95240*%
%TA.AperFunction,ConnectorPad*%
%ADD120R,1.60240X0.75240*%
%ADD121R,1.60240X0.45240*%
%TA.AperFunction,SMDPad,CuDef*%
G04:AMPARAMS|DCode=122|XSize=1.6524mm|YSize=5.1524mm|CornerRadius=0.4512mm|HoleSize=0mm|Usage=FLASHONLY|Rotation=180.000|XOffset=0mm|YOffset=0mm|HoleType=Round|Shape=RoundedRectangle|*
%AMROUNDEDRECTD122*
21,1,1.65240,4.25000,0,0,180.0*
21,1,0.75000,5.15240,0,0,180.0*
1,1,0.90240,-0.37500,2.12500*
1,1,0.90240,0.37500,2.12500*
1,1,0.90240,0.37500,-2.12500*
1,1,0.90240,-0.37500,-2.12500*
%
%ADD122ROUNDEDRECTD122*%
%ADD123R,1.35240X1.55240*%
%ADD124O,1.55240X0.40240*%
G04:AMPARAMS|DCode=125|XSize=0.7024mm|YSize=1.4024mm|CornerRadius=0.1257mm|HoleSize=0mm|Usage=FLASHONLY|Rotation=270.000|XOffset=0mm|YOffset=0mm|HoleType=Round|Shape=RoundedRectangle|*
%AMROUNDEDRECTD125*
21,1,0.70240,1.15100,0,0,270.0*
21,1,0.45100,1.40240,0,0,270.0*
1,1,0.25140,-0.57550,-0.22550*
1,1,0.25140,-0.57550,0.22550*
1,1,0.25140,0.57550,0.22550*
1,1,0.25140,0.57550,-0.22550*
%
%ADD125ROUNDEDRECTD125*%
D21*
X7955000Y825000D02*
D03*
X8145000D02*
D03*
X8050000Y1025000D02*
D03*
D22*
X7430000Y882528D02*
D03*
X7620000D02*
D03*
Y667472D02*
D03*
X7525000D02*
D03*
D23*
X7430000D02*
D03*
D77*
X5565000Y3130000D02*
D03*
Y3315000D02*
D03*
X6465000Y3130000D02*
D03*
Y3315000D02*
D03*
X7365000Y3130000D02*
D03*
Y3315000D02*
D03*
X8265000Y3130000D02*
D03*
Y3315000D02*
D03*
X7825000Y1767500D02*
D03*
Y1582500D02*
D03*
Y1982500D02*
D03*
Y2167500D02*
D03*
X5925000Y2192500D02*
D03*
Y2007500D02*
D03*
X5875000Y1767500D02*
D03*
Y1582500D02*
D03*
X7225000Y657500D02*
D03*
Y842500D02*
D03*
X6875000D02*
D03*
Y657500D02*
D03*
X5450000Y1217500D02*
D03*
Y1032500D02*
D03*
X5175000Y1217500D02*
D03*
Y1032500D02*
D03*
X4900000Y1217500D02*
D03*
Y1032500D02*
D03*
X3725000Y1317500D02*
D03*
Y1132500D02*
D03*
X3500000Y1317500D02*
D03*
Y1132500D02*
D03*
X3050000Y992500D02*
D03*
Y807500D02*
D03*
X2825000Y992500D02*
D03*
Y807500D02*
D03*
D78*
X5125000Y1595000D02*
D03*
Y1805000D02*
D03*
X4625000Y1230000D02*
D03*
Y1020000D02*
D03*
X6075000Y1570000D02*
D03*
Y1780000D02*
D03*
X6275000Y1570000D02*
D03*
Y1780000D02*
D03*
X7875000Y445000D02*
D03*
Y655000D02*
D03*
X6200000Y855000D02*
D03*
Y645000D02*
D03*
X6000000D02*
D03*
Y855000D02*
D03*
X4875000Y1805000D02*
D03*
Y1595000D02*
D03*
D79*
X8220001Y3522500D02*
D03*
X8010000D02*
D03*
X7320001D02*
D03*
X7110001D02*
D03*
X6420001D02*
D03*
X6210001D02*
D03*
X5520000D02*
D03*
X5310000D02*
D03*
X6122280Y2705120D02*
D03*
X6332280D02*
D03*
X9020000Y3100000D02*
D03*
X9230000D02*
D03*
X9020000Y3275000D02*
D03*
X9230000D02*
D03*
X9020000Y3450000D02*
D03*
X9230000D02*
D03*
X9020000Y3625000D02*
D03*
X9230000D02*
D03*
X9395000Y1125000D02*
D03*
X9605000D02*
D03*
X5045000Y2375000D02*
D03*
X5255000D02*
D03*
X4430000Y2050000D02*
D03*
X4220000D02*
D03*
X4430000Y1850000D02*
D03*
X4220000D02*
D03*
X4220000Y1625000D02*
D03*
X4430000D02*
D03*
X3507500Y1580000D02*
D03*
X3717500D02*
D03*
D104*
X5863500Y1150000D02*
D03*
X6086500D02*
D03*
X9213500Y1300000D02*
D03*
X9436500D02*
D03*
D105*
X1054000Y1425000D02*
D03*
X1496000D02*
D03*
D106*
X7843420Y2705100D02*
D03*
X8022420D02*
D03*
D107*
X4425000Y3355000D02*
D03*
Y3145000D02*
D03*
X4200000Y3355000D02*
D03*
Y3145000D02*
D03*
X3975000Y3355000D02*
D03*
Y3145000D02*
D03*
X3749976Y3354999D02*
D03*
Y3144999D02*
D03*
X3525000Y3355000D02*
D03*
Y3145000D02*
D03*
D108*
X4425000Y2735000D02*
D03*
Y2914000D02*
D03*
X3975000Y2735000D02*
D03*
Y2914000D02*
D03*
X4200000Y2735000D02*
D03*
Y2914000D02*
D03*
X3750000Y2735000D02*
D03*
Y2914000D02*
D03*
X3525000Y2735000D02*
D03*
Y2914000D02*
D03*
D109*
X8060000Y3095000D02*
D03*
X7870001D02*
D03*
Y3350000D02*
D03*
X7965000D02*
D03*
X8060000D02*
D03*
X7160000Y3095000D02*
D03*
X6970001D02*
D03*
Y3350000D02*
D03*
X7065000D02*
D03*
X7160000D02*
D03*
X6260000Y3095000D02*
D03*
X6070001D02*
D03*
Y3350000D02*
D03*
X6165000D02*
D03*
X6260000D02*
D03*
X5170001Y3095000D02*
D03*
X5360000Y3350000D02*
D03*
X5265000D02*
D03*
X5170001D02*
D03*
X5360000Y3095000D02*
D03*
D110*
X7600000Y3345000D02*
D03*
X7730000D02*
D03*
Y3100000D02*
D03*
X7665000D02*
D03*
X7600000D02*
D03*
X6700000Y3345000D02*
D03*
X6830000D02*
D03*
Y3100000D02*
D03*
X6765000D02*
D03*
X6700000D02*
D03*
X5930000Y3100000D02*
D03*
X5800000D02*
D03*
Y3345000D02*
D03*
X5865000D02*
D03*
X5930000D02*
D03*
D111*
X7572500Y3522500D02*
D03*
X7757500D02*
D03*
X6672500D02*
D03*
X6857500D02*
D03*
X5772501D02*
D03*
X5957500D02*
D03*
X7457500Y2700000D02*
D03*
X7642500D02*
D03*
X7267500D02*
D03*
X7082500D02*
D03*
X6792500D02*
D03*
X6607500D02*
D03*
X6267500Y2400000D02*
D03*
X6082500D02*
D03*
X5882500Y1375000D02*
D03*
X6067500D02*
D03*
X8657500Y2350000D02*
D03*
X8842500D02*
D03*
Y1800000D02*
D03*
X8657500D02*
D03*
X7617500Y500000D02*
D03*
X7432500D02*
D03*
X7667500Y1100000D02*
D03*
X7482500D02*
D03*
X7267500D02*
D03*
X7082500D02*
D03*
X6582500D02*
D03*
X6767500D02*
D03*
X4232500Y1425000D02*
D03*
X4417500D02*
D03*
X4242500Y675000D02*
D03*
X4057500D02*
D03*
X3532500Y1875000D02*
D03*
X3717500D02*
D03*
X2467500Y150000D02*
D03*
X2282500D02*
D03*
Y1450000D02*
D03*
X2467500D02*
D03*
D112*
X6672500Y845000D02*
D03*
Y655000D02*
D03*
X6377500D02*
D03*
Y750000D02*
D03*
Y845000D02*
D03*
X2227500Y1220000D02*
D03*
Y1125000D02*
D03*
Y1030000D02*
D03*
X2522500D02*
D03*
Y1220000D02*
D03*
D113*
X4855000Y2185000D02*
D03*
X4950000Y1965000D02*
D03*
X5045000Y2185000D02*
D03*
D114*
X4040000Y1505000D02*
D03*
X3975000D02*
D03*
X3910000D02*
D03*
Y1695000D02*
D03*
X3975000D02*
D03*
X4040000D02*
D03*
D115*
X2495000Y355000D02*
D03*
Y450000D02*
D03*
Y545000D02*
D03*
X2255000D02*
D03*
Y355000D02*
D03*
D116*
X2527500Y800000D02*
D03*
X2222500D02*
D03*
D117*
X6825000Y1320000D02*
D03*
X6875000D02*
D03*
X6925000D02*
D03*
X6975000D02*
D03*
X7125000D02*
D03*
X7175000D02*
D03*
X7225000D02*
D03*
X6775000Y2430000D02*
D03*
X7275000Y1320000D02*
D03*
X7025000D02*
D03*
X7075000D02*
D03*
X6675000D02*
D03*
X6725000D02*
D03*
X6775000D02*
D03*
X7325000D02*
D03*
X7375000D02*
D03*
X7425000D02*
D03*
Y2430000D02*
D03*
X7375000D02*
D03*
X7325000D02*
D03*
X7275000D02*
D03*
X7225000D02*
D03*
X7175000D02*
D03*
X7125000D02*
D03*
X7075000D02*
D03*
X7025000D02*
D03*
X6975000D02*
D03*
X6925000D02*
D03*
X6875000D02*
D03*
X6825000D02*
D03*
X6725000D02*
D03*
X6675000D02*
D03*
D118*
X7605000Y1900000D02*
D03*
Y1950000D02*
D03*
Y2000000D02*
D03*
Y2050000D02*
D03*
Y2100000D02*
D03*
Y1500000D02*
D03*
Y1550000D02*
D03*
Y1600000D02*
D03*
Y1650000D02*
D03*
X6495000Y1900000D02*
D03*
Y1800000D02*
D03*
X7605000Y1700000D02*
D03*
Y1750000D02*
D03*
Y1800000D02*
D03*
Y1850000D02*
D03*
X6495000Y2200000D02*
D03*
Y2150000D02*
D03*
Y2100000D02*
D03*
Y2250000D02*
D03*
Y2050000D02*
D03*
Y2000000D02*
D03*
Y1950000D02*
D03*
Y1850000D02*
D03*
Y1750000D02*
D03*
Y1700000D02*
D03*
Y1650000D02*
D03*
Y1600000D02*
D03*
Y1550000D02*
D03*
Y1500000D02*
D03*
X7605000Y2150000D02*
D03*
Y2200000D02*
D03*
Y2250000D02*
D03*
D119*
X6909501Y4620099D02*
D03*
X7389500D02*
D03*
X6909500Y3820100D02*
D03*
X7389500Y3820101D02*
D03*
X7809501Y4620099D02*
D03*
X8289500D02*
D03*
X7809500Y3820100D02*
D03*
X8289500Y3820101D02*
D03*
X6009501Y4620099D02*
D03*
X6489500D02*
D03*
X6009500Y3820100D02*
D03*
X6489500Y3820101D02*
D03*
X5109501Y4620099D02*
D03*
X5589500D02*
D03*
X5109500Y3820100D02*
D03*
X5589500Y3820101D02*
D03*
D120*
X9272500Y1755000D02*
D03*
Y1675000D02*
D03*
Y2245000D02*
D03*
Y2325000D02*
D03*
D121*
Y1925000D02*
D03*
Y1875000D02*
D03*
Y1825000D02*
D03*
Y2075000D02*
D03*
Y2125000D02*
D03*
Y2175000D02*
D03*
Y2025000D02*
D03*
Y1975000D02*
D03*
D122*
X3675001Y725000D02*
D03*
X3325000D02*
D03*
D123*
X6255000Y1990000D02*
D03*
Y2210000D02*
D03*
X6095000Y1990000D02*
D03*
Y2210000D02*
D03*
D124*
X8970000Y1975000D02*
D03*
Y2025000D02*
D03*
Y2075000D02*
D03*
Y2125000D02*
D03*
Y2175000D02*
D03*
X8530000Y1975000D02*
D03*
Y2025000D02*
D03*
Y2075000D02*
D03*
Y2125000D02*
D03*
Y2175000D02*
D03*
D125*
X3887500Y1240500D02*
D03*
Y1113500D02*
D03*
Y986500D02*
D03*
Y859500D02*
D03*
X4412500Y1240500D02*
D03*
Y1113500D02*
D03*
Y986500D02*
D03*
Y859500D02*
D03*
%TF.MD5,613935237b108861d3d5750f48dd73aa*%
M02*
