%TF.GenerationSoftware,Altium Limited,Altium Designer,21.0.9 (235)*%
G04 Layer_Color=32896*
%FSLAX45Y45*%
%MOMM*%
%TF.SameCoordinates,23D9C264-9E25-4532-ABEF-1D24AEF7D3CB*%
%TF.FilePolarity,Positive*%
%TF.FileFunction,Legend,Bot*%
%TF.Part,Single*%
G01*
G75*
%TA.AperFunction,NonConductor*%
%ADD82C,0.20000*%
G36*
X1270850Y928504D02*
X1273809Y928042D01*
X1276398Y927487D01*
X1277600Y927117D01*
X1278709Y926747D01*
X1279726Y926378D01*
X1280651Y926008D01*
X1281390Y925730D01*
X1282130Y925453D01*
X1282592Y925176D01*
X1282962Y924991D01*
X1283239Y924898D01*
X1283332Y924806D01*
X1285828Y923234D01*
X1287955Y921385D01*
X1289804Y919536D01*
X1291376Y917687D01*
X1292578Y916023D01*
X1293040Y915283D01*
X1293410Y914636D01*
X1293779Y914173D01*
X1293964Y913804D01*
X1294057Y913526D01*
X1294149Y913434D01*
X1295444Y910568D01*
X1296368Y907609D01*
X1297015Y904650D01*
X1297478Y901969D01*
X1297663Y900767D01*
X1297755Y899565D01*
X1297848Y898641D01*
Y897716D01*
X1297940Y897069D01*
Y896514D01*
Y896145D01*
Y896052D01*
X1297755Y892724D01*
X1297385Y889488D01*
X1296923Y886622D01*
X1296553Y885235D01*
X1296276Y884033D01*
X1295998Y882923D01*
X1295629Y881906D01*
X1295351Y880982D01*
X1295166Y880242D01*
X1294889Y879687D01*
X1294796Y879225D01*
X1294612Y878948D01*
Y878855D01*
X1293225Y876082D01*
X1291653Y873585D01*
X1289989Y871459D01*
X1289157Y870627D01*
X1288417Y869795D01*
X1287677Y869055D01*
X1286938Y868408D01*
X1286291Y867853D01*
X1285736Y867483D01*
X1285366Y867113D01*
X1284996Y866836D01*
X1284811Y866744D01*
X1284719Y866651D01*
X1283424Y865911D01*
X1282130Y865264D01*
X1279356Y864247D01*
X1276583Y863508D01*
X1273901Y863045D01*
X1272607Y862860D01*
X1271498Y862675D01*
X1270481Y862583D01*
X1269648D01*
X1268909Y862491D01*
X1267892D01*
X1266043Y862583D01*
X1264286Y862768D01*
X1262622Y862953D01*
X1261050Y863323D01*
X1259571Y863785D01*
X1258184Y864247D01*
X1256890Y864709D01*
X1255688Y865264D01*
X1254671Y865726D01*
X1253654Y866189D01*
X1252914Y866651D01*
X1252174Y867113D01*
X1251712Y867483D01*
X1251250Y867668D01*
X1251065Y867853D01*
X1250972Y867945D01*
X1249678Y869055D01*
X1248568Y870164D01*
X1247551Y871459D01*
X1246534Y872753D01*
X1244870Y875342D01*
X1243576Y877931D01*
X1243021Y879133D01*
X1242559Y880242D01*
X1242189Y881259D01*
X1241912Y882091D01*
X1241634Y882831D01*
X1241449Y883386D01*
X1241357Y883755D01*
Y883848D01*
X1249863Y885974D01*
X1250233Y884495D01*
X1250695Y883108D01*
X1251157Y881814D01*
X1251620Y880612D01*
X1252174Y879502D01*
X1252729Y878578D01*
X1253376Y877653D01*
X1253931Y876821D01*
X1254393Y876082D01*
X1254948Y875527D01*
X1255410Y874972D01*
X1255780Y874510D01*
X1256150Y874232D01*
X1256427Y873955D01*
X1256520Y873863D01*
X1256612Y873770D01*
X1257537Y873031D01*
X1258554Y872476D01*
X1260588Y871459D01*
X1262529Y870719D01*
X1264471Y870257D01*
X1266135Y869887D01*
X1266782Y869795D01*
X1267430D01*
X1267984Y869702D01*
X1268631D01*
X1270758Y869795D01*
X1272792Y870164D01*
X1274641Y870627D01*
X1276305Y871181D01*
X1277600Y871736D01*
X1278154Y872013D01*
X1278617Y872198D01*
X1278987Y872383D01*
X1279264Y872568D01*
X1279449Y872661D01*
X1279541D01*
X1281298Y873955D01*
X1282777Y875342D01*
X1284072Y876914D01*
X1285089Y878393D01*
X1285921Y879687D01*
X1286475Y880797D01*
X1286660Y881259D01*
X1286845Y881536D01*
X1286938Y881721D01*
Y881814D01*
X1287677Y884218D01*
X1288232Y886622D01*
X1288694Y889025D01*
X1288972Y891244D01*
X1289064Y892261D01*
X1289157Y893186D01*
Y894018D01*
X1289249Y894665D01*
Y895220D01*
Y895682D01*
Y895960D01*
Y896052D01*
X1289157Y898456D01*
X1288972Y900675D01*
X1288602Y902709D01*
X1288232Y904558D01*
X1287955Y906130D01*
X1287770Y906777D01*
X1287585Y907332D01*
X1287492Y907794D01*
X1287400Y908071D01*
X1287308Y908256D01*
Y908349D01*
X1286383Y910475D01*
X1285366Y912417D01*
X1284257Y913989D01*
X1283055Y915375D01*
X1282038Y916485D01*
X1281205Y917224D01*
X1280558Y917687D01*
X1280466Y917872D01*
X1280373D01*
X1278432Y919074D01*
X1276305Y919998D01*
X1274271Y920645D01*
X1272330Y921015D01*
X1270573Y921293D01*
X1269833Y921385D01*
X1269186D01*
X1268724Y921477D01*
X1267984D01*
X1265673Y921385D01*
X1263546Y921015D01*
X1261790Y920460D01*
X1260218Y919906D01*
X1259016Y919259D01*
X1258091Y918796D01*
X1257537Y918426D01*
X1257352Y918241D01*
X1255873Y916855D01*
X1254486Y915283D01*
X1253376Y913619D01*
X1252452Y911954D01*
X1251712Y910475D01*
X1251435Y909736D01*
X1251250Y909181D01*
X1251065Y908719D01*
X1250880Y908349D01*
X1250787Y908164D01*
Y908071D01*
X1242466Y910013D01*
X1243021Y911677D01*
X1243576Y913156D01*
X1244316Y914543D01*
X1244963Y915930D01*
X1245702Y917132D01*
X1246534Y918241D01*
X1247274Y919351D01*
X1248014Y920276D01*
X1248753Y921015D01*
X1249401Y921755D01*
X1250048Y922402D01*
X1250510Y922864D01*
X1250972Y923327D01*
X1251342Y923604D01*
X1251527Y923696D01*
X1251620Y923789D01*
X1252914Y924621D01*
X1254208Y925453D01*
X1255503Y926100D01*
X1256890Y926655D01*
X1259663Y927487D01*
X1262160Y928042D01*
X1263361Y928319D01*
X1264378Y928412D01*
X1265395Y928504D01*
X1266228Y928597D01*
X1266875Y928689D01*
X1267799D01*
X1270850Y928504D01*
D02*
G37*
G36*
X1236827Y886159D02*
Y878948D01*
X1208997D01*
Y863600D01*
X1201139D01*
Y878948D01*
X1192448D01*
Y886159D01*
X1201139D01*
Y927580D01*
X1207518D01*
X1236827Y886159D01*
D02*
G37*
G36*
X1183849Y919166D02*
X1152507D01*
X1154726Y916485D01*
X1156852Y913619D01*
X1158701Y910845D01*
X1160458Y908164D01*
X1161198Y906962D01*
X1161845Y905852D01*
X1162492Y904835D01*
X1162954Y904003D01*
X1163324Y903264D01*
X1163601Y902801D01*
X1163786Y902432D01*
X1163879Y902339D01*
X1165728Y898641D01*
X1167392Y894943D01*
X1168779Y891429D01*
X1169334Y889858D01*
X1169888Y888286D01*
X1170443Y886899D01*
X1170813Y885605D01*
X1171183Y884495D01*
X1171460Y883570D01*
X1171738Y882738D01*
X1171922Y882184D01*
X1172015Y881814D01*
Y881721D01*
X1172939Y877931D01*
X1173309Y876082D01*
X1173587Y874417D01*
X1173864Y872846D01*
X1174141Y871274D01*
X1174326Y869979D01*
X1174511Y868685D01*
X1174604Y867576D01*
X1174696Y866559D01*
X1174789Y865634D01*
Y864894D01*
X1174881Y864340D01*
Y863970D01*
Y863692D01*
Y863600D01*
X1166837D01*
X1166560Y867113D01*
X1166098Y870349D01*
X1165635Y873308D01*
X1165358Y874695D01*
X1165081Y875989D01*
X1164896Y877099D01*
X1164618Y878116D01*
X1164434Y879040D01*
X1164249Y879780D01*
X1164064Y880335D01*
X1163971Y880797D01*
X1163879Y881074D01*
Y881167D01*
X1162492Y885420D01*
X1161013Y889395D01*
X1160273Y891337D01*
X1159533Y893186D01*
X1158701Y894850D01*
X1157962Y896514D01*
X1157314Y897994D01*
X1156667Y899288D01*
X1156112Y900397D01*
X1155650Y901415D01*
X1155188Y902247D01*
X1154911Y902801D01*
X1154726Y903171D01*
X1154633Y903264D01*
X1153524Y905205D01*
X1152414Y907147D01*
X1151305Y908903D01*
X1150195Y910568D01*
X1149178Y912047D01*
X1148161Y913526D01*
X1147144Y914821D01*
X1146312Y915930D01*
X1145480Y917040D01*
X1144740Y917964D01*
X1144001Y918704D01*
X1143446Y919351D01*
X1143076Y919906D01*
X1142706Y920276D01*
X1142521Y920460D01*
X1142429Y920553D01*
Y926747D01*
X1183849D01*
Y919166D01*
D02*
G37*
G36*
X739421Y927764D02*
X741178Y927580D01*
X742842Y927210D01*
X744414Y926747D01*
X745801Y926100D01*
X747188Y925546D01*
X748390Y924806D01*
X749499Y924159D01*
X750424Y923511D01*
X751348Y922772D01*
X752088Y922217D01*
X752643Y921662D01*
X753105Y921108D01*
X753475Y920738D01*
X753660Y920553D01*
X753752Y920460D01*
X754954Y918796D01*
X755971Y916855D01*
X756896Y914821D01*
X757728Y912694D01*
X758375Y910475D01*
X758930Y908256D01*
X759392Y905945D01*
X759762Y903818D01*
X760039Y901692D01*
X760224Y899750D01*
X760409Y897994D01*
X760501Y896514D01*
Y895220D01*
X760594Y894295D01*
Y893926D01*
Y893648D01*
Y893556D01*
Y893463D01*
X760501Y890505D01*
X760316Y887731D01*
X760039Y885142D01*
X759577Y882738D01*
X759115Y880612D01*
X758652Y878670D01*
X758098Y876914D01*
X757450Y875342D01*
X756896Y874048D01*
X756341Y872846D01*
X755879Y871921D01*
X755324Y871089D01*
X754954Y870442D01*
X754677Y870072D01*
X754492Y869795D01*
X754399Y869702D01*
X753197Y868408D01*
X751903Y867298D01*
X750609Y866374D01*
X749314Y865542D01*
X747927Y864802D01*
X746633Y864247D01*
X745339Y863785D01*
X744044Y863415D01*
X742935Y863138D01*
X741825Y862860D01*
X740901Y862675D01*
X740069Y862583D01*
X739329D01*
X738867Y862491D01*
X738404D01*
X736278Y862583D01*
X734336Y862953D01*
X732580Y863323D01*
X731008Y863877D01*
X729806Y864340D01*
X728881Y864802D01*
X728512Y864894D01*
X728234Y865079D01*
X728142Y865172D01*
X728049D01*
X726478Y866281D01*
X724998Y867576D01*
X723796Y868870D01*
X722779Y870164D01*
X721947Y871366D01*
X721393Y872291D01*
X721208Y872661D01*
X721023Y872938D01*
X720930Y873031D01*
Y873123D01*
X720006Y875065D01*
X719358Y877099D01*
X718896Y878948D01*
X718619Y880704D01*
X718341Y882184D01*
Y882738D01*
X718249Y883293D01*
Y883755D01*
Y884033D01*
Y884218D01*
Y884310D01*
X718341Y885974D01*
X718526Y887546D01*
X718804Y889118D01*
X719081Y890505D01*
X719543Y891799D01*
X720006Y893093D01*
X720468Y894203D01*
X721023Y895220D01*
X721577Y896145D01*
X722040Y896977D01*
X722502Y897624D01*
X722964Y898271D01*
X723242Y898733D01*
X723519Y899011D01*
X723704Y899196D01*
X723796Y899288D01*
X724813Y900305D01*
X725923Y901230D01*
X727125Y901969D01*
X728234Y902616D01*
X729344Y903264D01*
X730453Y903726D01*
X732580Y904373D01*
X733504Y904650D01*
X734429Y904835D01*
X735168Y904928D01*
X735908Y905020D01*
X736463Y905113D01*
X737202D01*
X738867Y905020D01*
X740438Y904743D01*
X741918Y904466D01*
X743212Y904096D01*
X744322Y903633D01*
X745154Y903356D01*
X745708Y903079D01*
X745801Y902986D01*
X745893D01*
X747373Y902062D01*
X748667Y901045D01*
X749869Y900028D01*
X750794Y898918D01*
X751626Y897994D01*
X752273Y897254D01*
X752643Y896699D01*
X752735Y896607D01*
Y898271D01*
X752643Y899935D01*
X752550Y901415D01*
X752365Y902894D01*
X752273Y904188D01*
X752088Y905390D01*
X751903Y906500D01*
X751626Y907517D01*
X751441Y908441D01*
X751256Y909181D01*
X751071Y909828D01*
X750978Y910383D01*
X750794Y910753D01*
X750701Y911030D01*
X750609Y911215D01*
Y911307D01*
X749684Y913156D01*
X748759Y914821D01*
X747742Y916115D01*
X746818Y917224D01*
X745986Y918149D01*
X745339Y918796D01*
X744876Y919166D01*
X744691Y919259D01*
X743582Y919998D01*
X742472Y920460D01*
X741363Y920830D01*
X740254Y921108D01*
X739421Y921293D01*
X738682Y921385D01*
X738035D01*
X736370Y921200D01*
X734799Y920830D01*
X733504Y920276D01*
X732302Y919721D01*
X731378Y919074D01*
X730731Y918519D01*
X730361Y918149D01*
X730176Y917964D01*
X729529Y917132D01*
X728881Y916115D01*
X728327Y915006D01*
X727957Y913896D01*
X727587Y912879D01*
X727310Y912047D01*
X727217Y911492D01*
X727125Y911400D01*
Y911307D01*
X719266Y911954D01*
X719821Y914543D01*
X720653Y916855D01*
X721577Y918889D01*
X722594Y920553D01*
X723611Y921847D01*
X723981Y922402D01*
X724444Y922864D01*
X724721Y923142D01*
X724998Y923419D01*
X725091Y923511D01*
X725183Y923604D01*
X726108Y924344D01*
X727125Y924991D01*
X729159Y926100D01*
X731193Y926840D01*
X733134Y927302D01*
X734891Y927672D01*
X735631Y927764D01*
X736278D01*
X736833Y927857D01*
X737572D01*
X739421Y927764D01*
D02*
G37*
G36*
X846670Y928504D02*
X849629Y928042D01*
X852218Y927487D01*
X853420Y927117D01*
X854529Y926747D01*
X855546Y926378D01*
X856471Y926008D01*
X857210Y925730D01*
X857950Y925453D01*
X858412Y925176D01*
X858782Y924991D01*
X859059Y924898D01*
X859152Y924806D01*
X861648Y923234D01*
X863775Y921385D01*
X865624Y919536D01*
X867196Y917687D01*
X868398Y916023D01*
X868860Y915283D01*
X869230Y914636D01*
X869599Y914173D01*
X869784Y913804D01*
X869877Y913526D01*
X869969Y913434D01*
X871264Y910568D01*
X872188Y907609D01*
X872835Y904650D01*
X873298Y901969D01*
X873483Y900767D01*
X873575Y899565D01*
X873668Y898641D01*
Y897716D01*
X873760Y897069D01*
Y896514D01*
Y896145D01*
Y896052D01*
X873575Y892724D01*
X873205Y889488D01*
X872743Y886622D01*
X872373Y885235D01*
X872096Y884033D01*
X871818Y882923D01*
X871449Y881906D01*
X871171Y880982D01*
X870986Y880242D01*
X870709Y879687D01*
X870616Y879225D01*
X870432Y878948D01*
Y878855D01*
X869045Y876082D01*
X867473Y873585D01*
X865809Y871459D01*
X864977Y870627D01*
X864237Y869795D01*
X863497Y869055D01*
X862758Y868408D01*
X862111Y867853D01*
X861556Y867483D01*
X861186Y867113D01*
X860816Y866836D01*
X860631Y866744D01*
X860539Y866651D01*
X859244Y865911D01*
X857950Y865264D01*
X855176Y864247D01*
X852403Y863508D01*
X849721Y863045D01*
X848427Y862860D01*
X847318Y862675D01*
X846301Y862583D01*
X845468D01*
X844729Y862491D01*
X843712D01*
X841863Y862583D01*
X840106Y862768D01*
X838442Y862953D01*
X836870Y863323D01*
X835391Y863785D01*
X834004Y864247D01*
X832710Y864709D01*
X831508Y865264D01*
X830491Y865726D01*
X829474Y866189D01*
X828734Y866651D01*
X827994Y867113D01*
X827532Y867483D01*
X827070Y867668D01*
X826885Y867853D01*
X826792Y867945D01*
X825498Y869055D01*
X824388Y870164D01*
X823371Y871459D01*
X822354Y872753D01*
X820690Y875342D01*
X819396Y877931D01*
X818841Y879133D01*
X818379Y880242D01*
X818009Y881259D01*
X817732Y882091D01*
X817454Y882831D01*
X817269Y883386D01*
X817177Y883755D01*
Y883848D01*
X825683Y885974D01*
X826053Y884495D01*
X826515Y883108D01*
X826977Y881814D01*
X827440Y880612D01*
X827994Y879502D01*
X828549Y878578D01*
X829196Y877653D01*
X829751Y876821D01*
X830213Y876082D01*
X830768Y875527D01*
X831230Y874972D01*
X831600Y874510D01*
X831970Y874232D01*
X832247Y873955D01*
X832340Y873863D01*
X832432Y873770D01*
X833357Y873031D01*
X834374Y872476D01*
X836408Y871459D01*
X838349Y870719D01*
X840291Y870257D01*
X841955Y869887D01*
X842602Y869795D01*
X843250D01*
X843804Y869702D01*
X844451D01*
X846578Y869795D01*
X848612Y870164D01*
X850461Y870627D01*
X852125Y871181D01*
X853420Y871736D01*
X853974Y872013D01*
X854437Y872198D01*
X854807Y872383D01*
X855084Y872568D01*
X855269Y872661D01*
X855361D01*
X857118Y873955D01*
X858597Y875342D01*
X859892Y876914D01*
X860909Y878393D01*
X861741Y879687D01*
X862295Y880797D01*
X862480Y881259D01*
X862665Y881536D01*
X862758Y881721D01*
Y881814D01*
X863497Y884218D01*
X864052Y886622D01*
X864514Y889025D01*
X864792Y891244D01*
X864884Y892261D01*
X864977Y893186D01*
Y894018D01*
X865069Y894665D01*
Y895220D01*
Y895682D01*
Y895960D01*
Y896052D01*
X864977Y898456D01*
X864792Y900675D01*
X864422Y902709D01*
X864052Y904558D01*
X863775Y906130D01*
X863590Y906777D01*
X863405Y907332D01*
X863312Y907794D01*
X863220Y908071D01*
X863128Y908256D01*
Y908349D01*
X862203Y910475D01*
X861186Y912417D01*
X860077Y913989D01*
X858875Y915375D01*
X857858Y916485D01*
X857025Y917224D01*
X856378Y917687D01*
X856286Y917872D01*
X856193D01*
X854252Y919074D01*
X852125Y919998D01*
X850091Y920645D01*
X848150Y921015D01*
X846393Y921293D01*
X845653Y921385D01*
X845006D01*
X844544Y921477D01*
X843804D01*
X841493Y921385D01*
X839366Y921015D01*
X837610Y920460D01*
X836038Y919906D01*
X834836Y919259D01*
X833911Y918796D01*
X833357Y918426D01*
X833172Y918241D01*
X831693Y916855D01*
X830306Y915283D01*
X829196Y913619D01*
X828272Y911954D01*
X827532Y910475D01*
X827255Y909736D01*
X827070Y909181D01*
X826885Y908719D01*
X826700Y908349D01*
X826607Y908164D01*
Y908071D01*
X818286Y910013D01*
X818841Y911677D01*
X819396Y913156D01*
X820136Y914543D01*
X820783Y915930D01*
X821522Y917132D01*
X822354Y918241D01*
X823094Y919351D01*
X823834Y920276D01*
X824573Y921015D01*
X825221Y921755D01*
X825868Y922402D01*
X826330Y922864D01*
X826792Y923327D01*
X827162Y923604D01*
X827347Y923696D01*
X827440Y923789D01*
X828734Y924621D01*
X830028Y925453D01*
X831323Y926100D01*
X832710Y926655D01*
X835483Y927487D01*
X837980Y928042D01*
X839181Y928319D01*
X840198Y928412D01*
X841215Y928504D01*
X842048Y928597D01*
X842695Y928689D01*
X843619D01*
X846670Y928504D01*
D02*
G37*
G36*
X812647Y886159D02*
Y878948D01*
X784817D01*
Y863600D01*
X776959D01*
Y878948D01*
X768268D01*
Y886159D01*
X776959D01*
Y927580D01*
X783338D01*
X812647Y886159D01*
D02*
G37*
G36*
X8234057Y893833D02*
X8226661Y892816D01*
X8226014Y893833D01*
X8225181Y894665D01*
X8224442Y895497D01*
X8223702Y896145D01*
X8222962Y896607D01*
X8222408Y897069D01*
X8222038Y897254D01*
X8221945Y897346D01*
X8220744Y897901D01*
X8219542Y898363D01*
X8218432Y898641D01*
X8217323Y898918D01*
X8216398Y899011D01*
X8215658Y899103D01*
X8213902D01*
X8212792Y898918D01*
X8210851Y898456D01*
X8209187Y897809D01*
X8207707Y897162D01*
X8206598Y896422D01*
X8205766Y895775D01*
X8205303Y895312D01*
X8205118Y895220D01*
Y895127D01*
X8203824Y893556D01*
X8202900Y891892D01*
X8202252Y890135D01*
X8201790Y888378D01*
X8201513Y886899D01*
X8201420Y886252D01*
Y885697D01*
X8201328Y885235D01*
Y884865D01*
Y884680D01*
Y884588D01*
Y883293D01*
X8201513Y882091D01*
X8201975Y879780D01*
X8202622Y877838D01*
X8203269Y876266D01*
X8204009Y874972D01*
X8204656Y873955D01*
X8204934Y873678D01*
X8205118Y873400D01*
X8205211Y873308D01*
X8205303Y873215D01*
X8206043Y872476D01*
X8206783Y871829D01*
X8208447Y870719D01*
X8210019Y869979D01*
X8211590Y869517D01*
X8212885Y869147D01*
X8213994Y869055D01*
X8214364Y868962D01*
X8214919D01*
X8216675Y869055D01*
X8218247Y869425D01*
X8219634Y869887D01*
X8220744Y870442D01*
X8221761Y870996D01*
X8222500Y871459D01*
X8222870Y871829D01*
X8223055Y871921D01*
X8224164Y873215D01*
X8225089Y874602D01*
X8225829Y876174D01*
X8226383Y877561D01*
X8226753Y878948D01*
X8227031Y879965D01*
X8227123Y880427D01*
X8227215Y880704D01*
Y880889D01*
Y880982D01*
X8235444Y880335D01*
X8235259Y878855D01*
X8234982Y877468D01*
X8234150Y874880D01*
X8233133Y872661D01*
X8232578Y871644D01*
X8232023Y870812D01*
X8231561Y869979D01*
X8231006Y869240D01*
X8230544Y868685D01*
X8230082Y868223D01*
X8229712Y867853D01*
X8229527Y867483D01*
X8229342Y867391D01*
X8229249Y867298D01*
X8228140Y866466D01*
X8227031Y865726D01*
X8225829Y865079D01*
X8224627Y864525D01*
X8222315Y863692D01*
X8220004Y863138D01*
X8218987Y862860D01*
X8217970Y862768D01*
X8217138Y862675D01*
X8216398Y862583D01*
X8215751Y862491D01*
X8214919D01*
X8212977Y862583D01*
X8211128Y862860D01*
X8209371Y863230D01*
X8207800Y863692D01*
X8206320Y864340D01*
X8204934Y864987D01*
X8203639Y865634D01*
X8202530Y866374D01*
X8201513Y867113D01*
X8200588Y867761D01*
X8199848Y868500D01*
X8199201Y869055D01*
X8198739Y869517D01*
X8198369Y869887D01*
X8198184Y870164D01*
X8198092Y870257D01*
X8197167Y871459D01*
X8196428Y872753D01*
X8195688Y873955D01*
X8195133Y875249D01*
X8194209Y877746D01*
X8193654Y880150D01*
X8193469Y881167D01*
X8193284Y882184D01*
X8193192Y883016D01*
X8193099Y883755D01*
X8193007Y884403D01*
Y884865D01*
Y885142D01*
Y885235D01*
X8193099Y886899D01*
X8193284Y888471D01*
X8193561Y890042D01*
X8193931Y891429D01*
X8194394Y892724D01*
X8194856Y894018D01*
X8195411Y895127D01*
X8195873Y896145D01*
X8196428Y897069D01*
X8196982Y897901D01*
X8197445Y898548D01*
X8197907Y899196D01*
X8198277Y899658D01*
X8198554Y899935D01*
X8198739Y900120D01*
X8198831Y900213D01*
X8199941Y901230D01*
X8201050Y902154D01*
X8202252Y902894D01*
X8203454Y903541D01*
X8204656Y904188D01*
X8205858Y904650D01*
X8208077Y905298D01*
X8209094Y905575D01*
X8210019Y905760D01*
X8210851Y905852D01*
X8211590Y905945D01*
X8212145Y906037D01*
X8214179D01*
X8215289Y905852D01*
X8217508Y905390D01*
X8219542Y904743D01*
X8221391Y904003D01*
X8222870Y903264D01*
X8223517Y902894D01*
X8224072Y902616D01*
X8224534Y902339D01*
X8224812Y902154D01*
X8224997Y902062D01*
X8225089Y901969D01*
X8221668Y919259D01*
X8196058D01*
Y926747D01*
X8227863D01*
X8234057Y893833D01*
D02*
G37*
G36*
X8321890Y928504D02*
X8324849Y928042D01*
X8327438Y927487D01*
X8328640Y927117D01*
X8329749Y926747D01*
X8330766Y926378D01*
X8331691Y926008D01*
X8332430Y925730D01*
X8333170Y925453D01*
X8333632Y925176D01*
X8334002Y924991D01*
X8334279Y924898D01*
X8334372Y924806D01*
X8336868Y923234D01*
X8338995Y921385D01*
X8340844Y919536D01*
X8342416Y917687D01*
X8343618Y916023D01*
X8344080Y915283D01*
X8344450Y914636D01*
X8344819Y914173D01*
X8345004Y913804D01*
X8345097Y913526D01*
X8345189Y913434D01*
X8346484Y910568D01*
X8347408Y907609D01*
X8348055Y904650D01*
X8348518Y901969D01*
X8348703Y900767D01*
X8348795Y899565D01*
X8348888Y898641D01*
Y897716D01*
X8348980Y897069D01*
Y896514D01*
Y896145D01*
Y896052D01*
X8348795Y892724D01*
X8348425Y889488D01*
X8347963Y886622D01*
X8347593Y885235D01*
X8347316Y884033D01*
X8347038Y882923D01*
X8346669Y881906D01*
X8346391Y880982D01*
X8346206Y880242D01*
X8345929Y879687D01*
X8345836Y879225D01*
X8345652Y878948D01*
Y878855D01*
X8344265Y876082D01*
X8342693Y873585D01*
X8341029Y871459D01*
X8340197Y870627D01*
X8339457Y869795D01*
X8338717Y869055D01*
X8337978Y868408D01*
X8337331Y867853D01*
X8336776Y867483D01*
X8336406Y867113D01*
X8336036Y866836D01*
X8335851Y866744D01*
X8335759Y866651D01*
X8334464Y865911D01*
X8333170Y865264D01*
X8330396Y864247D01*
X8327623Y863508D01*
X8324941Y863045D01*
X8323647Y862860D01*
X8322538Y862675D01*
X8321521Y862583D01*
X8320688D01*
X8319949Y862491D01*
X8318932D01*
X8317083Y862583D01*
X8315326Y862768D01*
X8313662Y862953D01*
X8312090Y863323D01*
X8310611Y863785D01*
X8309224Y864247D01*
X8307930Y864709D01*
X8306728Y865264D01*
X8305711Y865726D01*
X8304694Y866189D01*
X8303954Y866651D01*
X8303214Y867113D01*
X8302752Y867483D01*
X8302290Y867668D01*
X8302105Y867853D01*
X8302012Y867945D01*
X8300718Y869055D01*
X8299608Y870164D01*
X8298591Y871459D01*
X8297574Y872753D01*
X8295910Y875342D01*
X8294616Y877931D01*
X8294061Y879133D01*
X8293599Y880242D01*
X8293229Y881259D01*
X8292952Y882091D01*
X8292674Y882831D01*
X8292489Y883386D01*
X8292397Y883755D01*
Y883848D01*
X8300903Y885974D01*
X8301273Y884495D01*
X8301735Y883108D01*
X8302197Y881814D01*
X8302660Y880612D01*
X8303214Y879502D01*
X8303769Y878578D01*
X8304416Y877653D01*
X8304971Y876821D01*
X8305433Y876082D01*
X8305988Y875527D01*
X8306450Y874972D01*
X8306820Y874510D01*
X8307190Y874232D01*
X8307467Y873955D01*
X8307560Y873863D01*
X8307652Y873770D01*
X8308577Y873031D01*
X8309594Y872476D01*
X8311628Y871459D01*
X8313569Y870719D01*
X8315511Y870257D01*
X8317175Y869887D01*
X8317822Y869795D01*
X8318470D01*
X8319024Y869702D01*
X8319671D01*
X8321798Y869795D01*
X8323832Y870164D01*
X8325681Y870627D01*
X8327345Y871181D01*
X8328640Y871736D01*
X8329194Y872013D01*
X8329657Y872198D01*
X8330027Y872383D01*
X8330304Y872568D01*
X8330489Y872661D01*
X8330581D01*
X8332338Y873955D01*
X8333817Y875342D01*
X8335112Y876914D01*
X8336129Y878393D01*
X8336961Y879687D01*
X8337515Y880797D01*
X8337700Y881259D01*
X8337885Y881536D01*
X8337978Y881721D01*
Y881814D01*
X8338717Y884218D01*
X8339272Y886622D01*
X8339734Y889025D01*
X8340012Y891244D01*
X8340104Y892261D01*
X8340197Y893186D01*
Y894018D01*
X8340289Y894665D01*
Y895220D01*
Y895682D01*
Y895960D01*
Y896052D01*
X8340197Y898456D01*
X8340012Y900675D01*
X8339642Y902709D01*
X8339272Y904558D01*
X8338995Y906130D01*
X8338810Y906777D01*
X8338625Y907332D01*
X8338532Y907794D01*
X8338440Y908071D01*
X8338348Y908256D01*
Y908349D01*
X8337423Y910475D01*
X8336406Y912417D01*
X8335297Y913989D01*
X8334095Y915375D01*
X8333078Y916485D01*
X8332245Y917224D01*
X8331598Y917687D01*
X8331506Y917872D01*
X8331413D01*
X8329472Y919074D01*
X8327345Y919998D01*
X8325311Y920645D01*
X8323370Y921015D01*
X8321613Y921293D01*
X8320873Y921385D01*
X8320226D01*
X8319764Y921477D01*
X8319024D01*
X8316713Y921385D01*
X8314586Y921015D01*
X8312830Y920460D01*
X8311258Y919906D01*
X8310056Y919259D01*
X8309131Y918796D01*
X8308577Y918426D01*
X8308392Y918241D01*
X8306913Y916855D01*
X8305526Y915283D01*
X8304416Y913619D01*
X8303492Y911954D01*
X8302752Y910475D01*
X8302475Y909736D01*
X8302290Y909181D01*
X8302105Y908719D01*
X8301920Y908349D01*
X8301827Y908164D01*
Y908071D01*
X8293506Y910013D01*
X8294061Y911677D01*
X8294616Y913156D01*
X8295356Y914543D01*
X8296003Y915930D01*
X8296742Y917132D01*
X8297574Y918241D01*
X8298314Y919351D01*
X8299054Y920276D01*
X8299793Y921015D01*
X8300441Y921755D01*
X8301088Y922402D01*
X8301550Y922864D01*
X8302012Y923327D01*
X8302382Y923604D01*
X8302567Y923696D01*
X8302660Y923789D01*
X8303954Y924621D01*
X8305248Y925453D01*
X8306543Y926100D01*
X8307930Y926655D01*
X8310703Y927487D01*
X8313200Y928042D01*
X8314401Y928319D01*
X8315418Y928412D01*
X8316435Y928504D01*
X8317268Y928597D01*
X8317915Y928689D01*
X8318839D01*
X8321890Y928504D01*
D02*
G37*
G36*
X8287867Y886159D02*
Y878948D01*
X8260037D01*
Y863600D01*
X8252179D01*
Y878948D01*
X8243488D01*
Y886159D01*
X8252179D01*
Y927580D01*
X8258558D01*
X8287867Y886159D01*
D02*
G37*
G36*
X8720670Y928504D02*
X8723629Y928042D01*
X8726218Y927487D01*
X8727420Y927117D01*
X8728529Y926747D01*
X8729546Y926378D01*
X8730471Y926008D01*
X8731210Y925730D01*
X8731950Y925453D01*
X8732412Y925176D01*
X8732782Y924991D01*
X8733059Y924898D01*
X8733152Y924806D01*
X8735648Y923234D01*
X8737775Y921385D01*
X8739624Y919536D01*
X8741196Y917687D01*
X8742398Y916023D01*
X8742860Y915283D01*
X8743230Y914636D01*
X8743599Y914173D01*
X8743784Y913804D01*
X8743877Y913526D01*
X8743969Y913434D01*
X8745264Y910568D01*
X8746188Y907609D01*
X8746835Y904650D01*
X8747298Y901969D01*
X8747483Y900767D01*
X8747575Y899565D01*
X8747668Y898641D01*
Y897716D01*
X8747760Y897069D01*
Y896514D01*
Y896145D01*
Y896052D01*
X8747575Y892724D01*
X8747205Y889488D01*
X8746743Y886622D01*
X8746373Y885235D01*
X8746096Y884033D01*
X8745818Y882923D01*
X8745449Y881906D01*
X8745171Y880982D01*
X8744986Y880242D01*
X8744709Y879687D01*
X8744616Y879225D01*
X8744432Y878948D01*
Y878855D01*
X8743045Y876082D01*
X8741473Y873585D01*
X8739809Y871459D01*
X8738977Y870627D01*
X8738237Y869795D01*
X8737497Y869055D01*
X8736758Y868408D01*
X8736111Y867853D01*
X8735556Y867483D01*
X8735186Y867113D01*
X8734816Y866836D01*
X8734631Y866744D01*
X8734539Y866651D01*
X8733244Y865911D01*
X8731950Y865264D01*
X8729176Y864247D01*
X8726403Y863508D01*
X8723721Y863045D01*
X8722427Y862860D01*
X8721318Y862675D01*
X8720301Y862583D01*
X8719468D01*
X8718729Y862491D01*
X8717712D01*
X8715863Y862583D01*
X8714106Y862768D01*
X8712442Y862953D01*
X8710870Y863323D01*
X8709391Y863785D01*
X8708004Y864247D01*
X8706710Y864709D01*
X8705508Y865264D01*
X8704491Y865726D01*
X8703474Y866189D01*
X8702734Y866651D01*
X8701994Y867113D01*
X8701532Y867483D01*
X8701070Y867668D01*
X8700885Y867853D01*
X8700792Y867945D01*
X8699498Y869055D01*
X8698388Y870164D01*
X8697371Y871459D01*
X8696354Y872753D01*
X8694690Y875342D01*
X8693396Y877931D01*
X8692841Y879133D01*
X8692379Y880242D01*
X8692009Y881259D01*
X8691732Y882091D01*
X8691454Y882831D01*
X8691269Y883386D01*
X8691177Y883755D01*
Y883848D01*
X8699683Y885974D01*
X8700053Y884495D01*
X8700515Y883108D01*
X8700977Y881814D01*
X8701440Y880612D01*
X8701994Y879502D01*
X8702549Y878578D01*
X8703196Y877653D01*
X8703751Y876821D01*
X8704213Y876082D01*
X8704768Y875527D01*
X8705230Y874972D01*
X8705600Y874510D01*
X8705970Y874232D01*
X8706247Y873955D01*
X8706340Y873863D01*
X8706432Y873770D01*
X8707357Y873031D01*
X8708374Y872476D01*
X8710408Y871459D01*
X8712349Y870719D01*
X8714291Y870257D01*
X8715955Y869887D01*
X8716602Y869795D01*
X8717250D01*
X8717804Y869702D01*
X8718451D01*
X8720578Y869795D01*
X8722612Y870164D01*
X8724461Y870627D01*
X8726125Y871181D01*
X8727420Y871736D01*
X8727974Y872013D01*
X8728437Y872198D01*
X8728807Y872383D01*
X8729084Y872568D01*
X8729269Y872661D01*
X8729361D01*
X8731118Y873955D01*
X8732597Y875342D01*
X8733892Y876914D01*
X8734909Y878393D01*
X8735741Y879687D01*
X8736295Y880797D01*
X8736480Y881259D01*
X8736665Y881536D01*
X8736758Y881721D01*
Y881814D01*
X8737497Y884218D01*
X8738052Y886622D01*
X8738514Y889025D01*
X8738792Y891244D01*
X8738884Y892261D01*
X8738977Y893186D01*
Y894018D01*
X8739069Y894665D01*
Y895220D01*
Y895682D01*
Y895960D01*
Y896052D01*
X8738977Y898456D01*
X8738792Y900675D01*
X8738422Y902709D01*
X8738052Y904558D01*
X8737775Y906130D01*
X8737590Y906777D01*
X8737405Y907332D01*
X8737312Y907794D01*
X8737220Y908071D01*
X8737128Y908256D01*
Y908349D01*
X8736203Y910475D01*
X8735186Y912417D01*
X8734077Y913989D01*
X8732875Y915375D01*
X8731858Y916485D01*
X8731025Y917224D01*
X8730378Y917687D01*
X8730286Y917872D01*
X8730193D01*
X8728252Y919074D01*
X8726125Y919998D01*
X8724091Y920645D01*
X8722150Y921015D01*
X8720393Y921293D01*
X8719653Y921385D01*
X8719006D01*
X8718544Y921477D01*
X8717804D01*
X8715493Y921385D01*
X8713366Y921015D01*
X8711610Y920460D01*
X8710038Y919906D01*
X8708836Y919259D01*
X8707911Y918796D01*
X8707357Y918426D01*
X8707172Y918241D01*
X8705693Y916855D01*
X8704306Y915283D01*
X8703196Y913619D01*
X8702272Y911954D01*
X8701532Y910475D01*
X8701255Y909736D01*
X8701070Y909181D01*
X8700885Y908719D01*
X8700700Y908349D01*
X8700607Y908164D01*
Y908071D01*
X8692286Y910013D01*
X8692841Y911677D01*
X8693396Y913156D01*
X8694136Y914543D01*
X8694783Y915930D01*
X8695522Y917132D01*
X8696354Y918241D01*
X8697094Y919351D01*
X8697834Y920276D01*
X8698573Y921015D01*
X8699221Y921755D01*
X8699868Y922402D01*
X8700330Y922864D01*
X8700792Y923327D01*
X8701162Y923604D01*
X8701347Y923696D01*
X8701440Y923789D01*
X8702734Y924621D01*
X8704028Y925453D01*
X8705323Y926100D01*
X8706710Y926655D01*
X8709483Y927487D01*
X8711980Y928042D01*
X8713181Y928319D01*
X8714198Y928412D01*
X8715215Y928504D01*
X8716048Y928597D01*
X8716695Y928689D01*
X8717619D01*
X8720670Y928504D01*
D02*
G37*
G36*
X8686647Y886159D02*
Y878948D01*
X8658817D01*
Y863600D01*
X8650959D01*
Y878948D01*
X8642268D01*
Y886159D01*
X8650959D01*
Y927580D01*
X8657338D01*
X8686647Y886159D01*
D02*
G37*
G36*
X8636905D02*
Y878948D01*
X8609076D01*
Y863600D01*
X8601217D01*
Y878948D01*
X8592526D01*
Y886159D01*
X8601217D01*
Y927580D01*
X8607597D01*
X8636905Y886159D01*
D02*
G37*
G36*
X9716679Y2281112D02*
X9717696Y2279632D01*
X9718898Y2278153D01*
X9720007Y2276859D01*
X9721117Y2275749D01*
X9721949Y2274825D01*
X9722319Y2274547D01*
X9722596Y2274270D01*
X9722689Y2274177D01*
X9722781Y2274085D01*
X9724723Y2272513D01*
X9726664Y2271034D01*
X9728513Y2269739D01*
X9730363Y2268722D01*
X9731934Y2267798D01*
X9732581Y2267428D01*
X9733136Y2267151D01*
X9733599Y2266873D01*
X9733968Y2266781D01*
X9734153Y2266596D01*
X9734246D01*
Y2259015D01*
X9732859Y2259569D01*
X9731472Y2260216D01*
X9730085Y2260864D01*
X9728791Y2261511D01*
X9727681Y2262066D01*
X9726757Y2262528D01*
X9726202Y2262898D01*
X9726110Y2262990D01*
X9726017D01*
X9724353Y2264007D01*
X9722874Y2265024D01*
X9721579Y2265949D01*
X9720562Y2266781D01*
X9719638Y2267428D01*
X9719083Y2267983D01*
X9718621Y2268353D01*
X9718528Y2268445D01*
Y2218426D01*
X9710669D01*
Y2282683D01*
X9715755D01*
X9716679Y2281112D01*
D02*
G37*
G36*
X9669711Y2282591D02*
X9671468Y2282406D01*
X9673132Y2282036D01*
X9674704Y2281574D01*
X9676091Y2280927D01*
X9677478Y2280372D01*
X9678680Y2279632D01*
X9679789Y2278985D01*
X9680714Y2278338D01*
X9681638Y2277598D01*
X9682378Y2277043D01*
X9682933Y2276489D01*
X9683395Y2275934D01*
X9683765Y2275564D01*
X9683950Y2275379D01*
X9684042Y2275287D01*
X9685244Y2273623D01*
X9686261Y2271681D01*
X9687186Y2269647D01*
X9688018Y2267520D01*
X9688665Y2265302D01*
X9689220Y2263083D01*
X9689682Y2260771D01*
X9690052Y2258645D01*
X9690329Y2256518D01*
X9690514Y2254577D01*
X9690699Y2252820D01*
X9690791Y2251341D01*
Y2250046D01*
X9690884Y2249122D01*
Y2248752D01*
Y2248475D01*
Y2248382D01*
Y2248290D01*
X9690791Y2245331D01*
X9690606Y2242557D01*
X9690329Y2239969D01*
X9689867Y2237565D01*
X9689405Y2235438D01*
X9688942Y2233497D01*
X9688388Y2231740D01*
X9687740Y2230168D01*
X9687186Y2228874D01*
X9686631Y2227672D01*
X9686169Y2226747D01*
X9685614Y2225915D01*
X9685244Y2225268D01*
X9684967Y2224898D01*
X9684782Y2224621D01*
X9684689Y2224528D01*
X9683487Y2223234D01*
X9682193Y2222125D01*
X9680899Y2221200D01*
X9679604Y2220368D01*
X9678217Y2219628D01*
X9676923Y2219074D01*
X9675629Y2218611D01*
X9674334Y2218241D01*
X9673225Y2217964D01*
X9672115Y2217687D01*
X9671191Y2217502D01*
X9670359Y2217409D01*
X9669619D01*
X9669157Y2217317D01*
X9668694D01*
X9666568Y2217409D01*
X9664626Y2217779D01*
X9662870Y2218149D01*
X9661298Y2218704D01*
X9660096Y2219166D01*
X9659171Y2219628D01*
X9658802Y2219721D01*
X9658524Y2219906D01*
X9658432Y2219998D01*
X9658339D01*
X9656768Y2221108D01*
X9655288Y2222402D01*
X9654086Y2223696D01*
X9653069Y2224991D01*
X9652237Y2226193D01*
X9651682Y2227117D01*
X9651498Y2227487D01*
X9651313Y2227764D01*
X9651220Y2227857D01*
Y2227949D01*
X9650296Y2229891D01*
X9649648Y2231925D01*
X9649186Y2233774D01*
X9648909Y2235531D01*
X9648631Y2237010D01*
Y2237565D01*
X9648539Y2238119D01*
Y2238582D01*
Y2238859D01*
Y2239044D01*
Y2239136D01*
X9648631Y2240801D01*
X9648816Y2242372D01*
X9649094Y2243944D01*
X9649371Y2245331D01*
X9649833Y2246625D01*
X9650296Y2247920D01*
X9650758Y2249029D01*
X9651313Y2250046D01*
X9651867Y2250971D01*
X9652330Y2251803D01*
X9652792Y2252450D01*
X9653254Y2253097D01*
X9653532Y2253560D01*
X9653809Y2253837D01*
X9653994Y2254022D01*
X9654086Y2254114D01*
X9655103Y2255131D01*
X9656213Y2256056D01*
X9657415Y2256796D01*
X9658524Y2257443D01*
X9659634Y2258090D01*
X9660743Y2258552D01*
X9662870Y2259199D01*
X9663794Y2259477D01*
X9664719Y2259662D01*
X9665458Y2259754D01*
X9666198Y2259847D01*
X9666753Y2259939D01*
X9667492D01*
X9669157Y2259847D01*
X9670728Y2259569D01*
X9672208Y2259292D01*
X9673502Y2258922D01*
X9674612Y2258460D01*
X9675444Y2258182D01*
X9675998Y2257905D01*
X9676091Y2257813D01*
X9676183D01*
X9677663Y2256888D01*
X9678957Y2255871D01*
X9680159Y2254854D01*
X9681084Y2253745D01*
X9681916Y2252820D01*
X9682563Y2252080D01*
X9682933Y2251526D01*
X9683025Y2251433D01*
Y2253097D01*
X9682933Y2254762D01*
X9682840Y2256241D01*
X9682655Y2257720D01*
X9682563Y2259015D01*
X9682378Y2260216D01*
X9682193Y2261326D01*
X9681916Y2262343D01*
X9681731Y2263268D01*
X9681546Y2264007D01*
X9681361Y2264654D01*
X9681268Y2265209D01*
X9681084Y2265579D01*
X9680991Y2265856D01*
X9680899Y2266041D01*
Y2266134D01*
X9679974Y2267983D01*
X9679049Y2269647D01*
X9678032Y2270941D01*
X9677108Y2272051D01*
X9676276Y2272975D01*
X9675629Y2273623D01*
X9675166Y2273992D01*
X9674981Y2274085D01*
X9673872Y2274825D01*
X9672762Y2275287D01*
X9671653Y2275657D01*
X9670544Y2275934D01*
X9669711Y2276119D01*
X9668972Y2276211D01*
X9668325D01*
X9666660Y2276026D01*
X9665089Y2275657D01*
X9663794Y2275102D01*
X9662592Y2274547D01*
X9661668Y2273900D01*
X9661021Y2273345D01*
X9660651Y2272975D01*
X9660466Y2272790D01*
X9659819Y2271958D01*
X9659171Y2270941D01*
X9658617Y2269832D01*
X9658247Y2268722D01*
X9657877Y2267705D01*
X9657600Y2266873D01*
X9657507Y2266319D01*
X9657415Y2266226D01*
Y2266134D01*
X9649556Y2266781D01*
X9650111Y2269370D01*
X9650943Y2271681D01*
X9651867Y2273715D01*
X9652884Y2275379D01*
X9653901Y2276674D01*
X9654271Y2277228D01*
X9654734Y2277691D01*
X9655011Y2277968D01*
X9655288Y2278245D01*
X9655381Y2278338D01*
X9655473Y2278430D01*
X9656398Y2279170D01*
X9657415Y2279817D01*
X9659449Y2280927D01*
X9661483Y2281666D01*
X9663424Y2282129D01*
X9665181Y2282498D01*
X9665921Y2282591D01*
X9666568D01*
X9667123Y2282683D01*
X9667862D01*
X9669711Y2282591D01*
D02*
G37*
G36*
X9801461Y2218426D02*
X9792955D01*
Y2246810D01*
X9782045D01*
X9781028Y2246718D01*
X9780289D01*
X9779642Y2246625D01*
X9779179Y2246533D01*
X9778809D01*
X9778625Y2246441D01*
X9778532D01*
X9777053Y2245978D01*
X9776406Y2245701D01*
X9775851Y2245423D01*
X9775296Y2245146D01*
X9774926Y2244961D01*
X9774741Y2244869D01*
X9774649Y2244776D01*
X9773909Y2244222D01*
X9773170Y2243574D01*
X9771783Y2242188D01*
X9771136Y2241540D01*
X9770673Y2240986D01*
X9770396Y2240616D01*
X9770304Y2240523D01*
X9769379Y2239229D01*
X9768362Y2237842D01*
X9767345Y2236363D01*
X9766328Y2234976D01*
X9765496Y2233682D01*
X9764849Y2232665D01*
X9764571Y2232295D01*
X9764386Y2232017D01*
X9764201Y2231832D01*
Y2231740D01*
X9755788Y2218426D01*
X9745248D01*
X9756250Y2235808D01*
X9757545Y2237657D01*
X9758747Y2239321D01*
X9759948Y2240708D01*
X9760965Y2242003D01*
X9761890Y2242927D01*
X9762630Y2243667D01*
X9763092Y2244129D01*
X9763277Y2244314D01*
X9764017Y2244869D01*
X9764849Y2245516D01*
X9766513Y2246533D01*
X9767252Y2246903D01*
X9767807Y2247273D01*
X9768177Y2247458D01*
X9768362Y2247550D01*
X9766698Y2247827D01*
X9765126Y2248105D01*
X9763739Y2248567D01*
X9762352Y2248937D01*
X9761150Y2249399D01*
X9760041Y2249954D01*
X9759024Y2250416D01*
X9758099Y2250878D01*
X9757360Y2251433D01*
X9756620Y2251895D01*
X9756065Y2252265D01*
X9755603Y2252635D01*
X9755233Y2252912D01*
X9754956Y2253190D01*
X9754863Y2253282D01*
X9754771Y2253375D01*
X9754031Y2254299D01*
X9753292Y2255224D01*
X9752182Y2257165D01*
X9751443Y2259107D01*
X9750888Y2260956D01*
X9750518Y2262528D01*
X9750426Y2263175D01*
Y2263822D01*
X9750333Y2264285D01*
Y2264654D01*
Y2264839D01*
Y2264932D01*
X9750426Y2266873D01*
X9750703Y2268630D01*
X9751165Y2270294D01*
X9751627Y2271681D01*
X9752182Y2272883D01*
X9752552Y2273807D01*
X9752922Y2274362D01*
X9753014Y2274455D01*
Y2274547D01*
X9754124Y2276026D01*
X9755233Y2277321D01*
X9756435Y2278430D01*
X9757545Y2279262D01*
X9758562Y2279910D01*
X9759394Y2280279D01*
X9759948Y2280557D01*
X9760041Y2280649D01*
X9760133D01*
X9760965Y2280927D01*
X9761983Y2281204D01*
X9764017Y2281666D01*
X9766235Y2281944D01*
X9768270Y2282221D01*
X9770211Y2282313D01*
X9771043D01*
X9771783Y2282406D01*
X9801461D01*
Y2218426D01*
D02*
G37*
G36*
X9716910Y1781112D02*
X9717927Y1779632D01*
X9719129Y1778153D01*
X9720239Y1776859D01*
X9721348Y1775749D01*
X9722180Y1774824D01*
X9722550Y1774547D01*
X9722827Y1774270D01*
X9722920Y1774177D01*
X9723012Y1774085D01*
X9724954Y1772513D01*
X9726895Y1771034D01*
X9728745Y1769739D01*
X9730594Y1768722D01*
X9732165Y1767798D01*
X9732813Y1767428D01*
X9733367Y1767151D01*
X9733830Y1766873D01*
X9734199Y1766781D01*
X9734384Y1766596D01*
X9734477D01*
Y1759015D01*
X9733090Y1759569D01*
X9731703Y1760216D01*
X9730316Y1760864D01*
X9729022Y1761511D01*
X9727912Y1762066D01*
X9726988Y1762528D01*
X9726433Y1762898D01*
X9726341Y1762990D01*
X9726248D01*
X9724584Y1764007D01*
X9723105Y1765024D01*
X9721810Y1765949D01*
X9720793Y1766781D01*
X9719869Y1767428D01*
X9719314Y1767983D01*
X9718852Y1768353D01*
X9718759Y1768445D01*
Y1718426D01*
X9710901D01*
Y1782683D01*
X9715986D01*
X9716910Y1781112D01*
D02*
G37*
G36*
X9689358Y1748659D02*
X9681962Y1747642D01*
X9681315Y1748659D01*
X9680483Y1749492D01*
X9679743Y1750324D01*
X9679003Y1750971D01*
X9678264Y1751433D01*
X9677709Y1751895D01*
X9677339Y1752080D01*
X9677247Y1752173D01*
X9676045Y1752728D01*
X9674843Y1753190D01*
X9673733Y1753467D01*
X9672624Y1753745D01*
X9671699Y1753837D01*
X9670960Y1753929D01*
X9669203D01*
X9668093Y1753745D01*
X9666152Y1753282D01*
X9664488Y1752635D01*
X9663008Y1751988D01*
X9661899Y1751248D01*
X9661067Y1750601D01*
X9660605Y1750139D01*
X9660420Y1750046D01*
Y1749954D01*
X9659125Y1748382D01*
X9658201Y1746718D01*
X9657553Y1744961D01*
X9657091Y1743205D01*
X9656814Y1741725D01*
X9656721Y1741078D01*
Y1740523D01*
X9656629Y1740061D01*
Y1739691D01*
Y1739506D01*
Y1739414D01*
Y1738119D01*
X9656814Y1736918D01*
X9657276Y1734606D01*
X9657923Y1732665D01*
X9658570Y1731093D01*
X9659310Y1729798D01*
X9659957Y1728781D01*
X9660235Y1728504D01*
X9660420Y1728227D01*
X9660512Y1728134D01*
X9660605Y1728042D01*
X9661344Y1727302D01*
X9662084Y1726655D01*
X9663748Y1725545D01*
X9665320Y1724806D01*
X9666892Y1724344D01*
X9668186Y1723974D01*
X9669295Y1723881D01*
X9669665Y1723789D01*
X9670220D01*
X9671977Y1723881D01*
X9673548Y1724251D01*
X9674935Y1724713D01*
X9676045Y1725268D01*
X9677062Y1725823D01*
X9677801Y1726285D01*
X9678171Y1726655D01*
X9678356Y1726747D01*
X9679466Y1728042D01*
X9680390Y1729429D01*
X9681130Y1731000D01*
X9681684Y1732387D01*
X9682054Y1733774D01*
X9682332Y1734791D01*
X9682424Y1735253D01*
X9682517Y1735531D01*
Y1735716D01*
Y1735808D01*
X9690745Y1735161D01*
X9690560Y1733682D01*
X9690283Y1732295D01*
X9689451Y1729706D01*
X9688434Y1727487D01*
X9687879Y1726470D01*
X9687324Y1725638D01*
X9686862Y1724806D01*
X9686307Y1724066D01*
X9685845Y1723511D01*
X9685383Y1723049D01*
X9685013Y1722679D01*
X9684828Y1722309D01*
X9684643Y1722217D01*
X9684551Y1722125D01*
X9683441Y1721292D01*
X9682332Y1720553D01*
X9681130Y1719906D01*
X9679928Y1719351D01*
X9677616Y1718519D01*
X9675305Y1717964D01*
X9674288Y1717687D01*
X9673271Y1717594D01*
X9672439Y1717502D01*
X9671699Y1717409D01*
X9671052Y1717317D01*
X9670220D01*
X9668278Y1717409D01*
X9666429Y1717687D01*
X9664673Y1718057D01*
X9663101Y1718519D01*
X9661622Y1719166D01*
X9660235Y1719813D01*
X9658940Y1720460D01*
X9657831Y1721200D01*
X9656814Y1721940D01*
X9655889Y1722587D01*
X9655150Y1723326D01*
X9654502Y1723881D01*
X9654040Y1724344D01*
X9653670Y1724713D01*
X9653485Y1724991D01*
X9653393Y1725083D01*
X9652468Y1726285D01*
X9651729Y1727579D01*
X9650989Y1728781D01*
X9650434Y1730076D01*
X9649510Y1732572D01*
X9648955Y1734976D01*
X9648770Y1735993D01*
X9648585Y1737010D01*
X9648493Y1737842D01*
X9648400Y1738582D01*
X9648308Y1739229D01*
Y1739691D01*
Y1739969D01*
Y1740061D01*
X9648400Y1741725D01*
X9648585Y1743297D01*
X9648863Y1744869D01*
X9649232Y1746256D01*
X9649695Y1747550D01*
X9650157Y1748844D01*
X9650712Y1749954D01*
X9651174Y1750971D01*
X9651729Y1751895D01*
X9652283Y1752728D01*
X9652746Y1753375D01*
X9653208Y1754022D01*
X9653578Y1754484D01*
X9653855Y1754762D01*
X9654040Y1754946D01*
X9654133Y1755039D01*
X9655242Y1756056D01*
X9656352Y1756980D01*
X9657553Y1757720D01*
X9658755Y1758367D01*
X9659957Y1759015D01*
X9661159Y1759477D01*
X9663378Y1760124D01*
X9664395Y1760401D01*
X9665320Y1760586D01*
X9666152Y1760679D01*
X9666892Y1760771D01*
X9667446Y1760864D01*
X9669480D01*
X9670590Y1760679D01*
X9672809Y1760216D01*
X9674843Y1759569D01*
X9676692Y1758830D01*
X9678171Y1758090D01*
X9678818Y1757720D01*
X9679373Y1757443D01*
X9679835Y1757165D01*
X9680113Y1756980D01*
X9680298Y1756888D01*
X9680390Y1756796D01*
X9676969Y1774085D01*
X9651359D01*
Y1781574D01*
X9683164D01*
X9689358Y1748659D01*
D02*
G37*
G36*
X9801692Y1718426D02*
X9793186D01*
Y1746810D01*
X9782277D01*
X9781260Y1746718D01*
X9780520D01*
X9779873Y1746625D01*
X9779410Y1746533D01*
X9779041D01*
X9778856Y1746440D01*
X9778763D01*
X9777284Y1745978D01*
X9776637Y1745701D01*
X9776082Y1745423D01*
X9775527Y1745146D01*
X9775157Y1744961D01*
X9774973Y1744869D01*
X9774880Y1744776D01*
X9774140Y1744222D01*
X9773401Y1743574D01*
X9772014Y1742188D01*
X9771367Y1741540D01*
X9770905Y1740986D01*
X9770627Y1740616D01*
X9770535Y1740523D01*
X9769610Y1739229D01*
X9768593Y1737842D01*
X9767576Y1736363D01*
X9766559Y1734976D01*
X9765727Y1733682D01*
X9765080Y1732665D01*
X9764802Y1732295D01*
X9764618Y1732017D01*
X9764433Y1731832D01*
Y1731740D01*
X9756019Y1718426D01*
X9745479D01*
X9756481Y1735808D01*
X9757776Y1737657D01*
X9758978Y1739321D01*
X9760180Y1740708D01*
X9761197Y1742003D01*
X9762121Y1742927D01*
X9762861Y1743667D01*
X9763323Y1744129D01*
X9763508Y1744314D01*
X9764248Y1744869D01*
X9765080Y1745516D01*
X9766744Y1746533D01*
X9767484Y1746903D01*
X9768038Y1747273D01*
X9768408Y1747458D01*
X9768593Y1747550D01*
X9766929Y1747827D01*
X9765357Y1748105D01*
X9763970Y1748567D01*
X9762583Y1748937D01*
X9761382Y1749399D01*
X9760272Y1749954D01*
X9759255Y1750416D01*
X9758330Y1750878D01*
X9757591Y1751433D01*
X9756851Y1751895D01*
X9756296Y1752265D01*
X9755834Y1752635D01*
X9755464Y1752912D01*
X9755187Y1753190D01*
X9755095Y1753282D01*
X9755002Y1753375D01*
X9754262Y1754299D01*
X9753523Y1755224D01*
X9752413Y1757165D01*
X9751674Y1759107D01*
X9751119Y1760956D01*
X9750749Y1762528D01*
X9750657Y1763175D01*
Y1763822D01*
X9750564Y1764285D01*
Y1764654D01*
Y1764839D01*
Y1764932D01*
X9750657Y1766873D01*
X9750934Y1768630D01*
X9751396Y1770294D01*
X9751859Y1771681D01*
X9752413Y1772883D01*
X9752783Y1773807D01*
X9753153Y1774362D01*
X9753245Y1774455D01*
Y1774547D01*
X9754355Y1776026D01*
X9755464Y1777321D01*
X9756666Y1778430D01*
X9757776Y1779262D01*
X9758793Y1779910D01*
X9759625Y1780279D01*
X9760180Y1780557D01*
X9760272Y1780649D01*
X9760365D01*
X9761197Y1780927D01*
X9762214Y1781204D01*
X9764248Y1781666D01*
X9766467Y1781944D01*
X9768501Y1782221D01*
X9770442Y1782313D01*
X9771274D01*
X9772014Y1782406D01*
X9801692D01*
Y1718426D01*
D02*
G37*
G36*
X2190658Y3454645D02*
X2191675Y3453166D01*
X2192877Y3451687D01*
X2193986Y3450392D01*
X2195096Y3449283D01*
X2195928Y3448358D01*
X2196298Y3448081D01*
X2196575Y3447803D01*
X2196667Y3447711D01*
X2196760Y3447618D01*
X2198701Y3446047D01*
X2200643Y3444567D01*
X2202492Y3443273D01*
X2204341Y3442256D01*
X2205913Y3441331D01*
X2206560Y3440962D01*
X2207115Y3440684D01*
X2207577Y3440407D01*
X2207947Y3440314D01*
X2208132Y3440130D01*
X2208224D01*
Y3432548D01*
X2206838Y3433103D01*
X2205451Y3433750D01*
X2204064Y3434397D01*
X2202770Y3435044D01*
X2201660Y3435599D01*
X2200736Y3436061D01*
X2200181Y3436431D01*
X2200088Y3436524D01*
X2199996D01*
X2198332Y3437541D01*
X2196852Y3438558D01*
X2195558Y3439482D01*
X2194541Y3440314D01*
X2193616Y3440962D01*
X2193062Y3441516D01*
X2192599Y3441886D01*
X2192507Y3441979D01*
Y3391960D01*
X2184648D01*
Y3456217D01*
X2189733D01*
X2190658Y3454645D01*
D02*
G37*
G36*
X2275440Y3391960D02*
X2266934D01*
Y3420344D01*
X2256024D01*
X2255007Y3420251D01*
X2254268D01*
X2253620Y3420159D01*
X2253158Y3420067D01*
X2252788D01*
X2252603Y3419974D01*
X2252511D01*
X2251032Y3419512D01*
X2250384Y3419234D01*
X2249830Y3418957D01*
X2249275Y3418680D01*
X2248905Y3418495D01*
X2248720Y3418402D01*
X2248628Y3418310D01*
X2247888Y3417755D01*
X2247148Y3417108D01*
X2245762Y3415721D01*
X2245114Y3415074D01*
X2244652Y3414519D01*
X2244375Y3414149D01*
X2244282Y3414057D01*
X2243358Y3412763D01*
X2242341Y3411376D01*
X2241324Y3409896D01*
X2240307Y3408510D01*
X2239475Y3407215D01*
X2238827Y3406198D01*
X2238550Y3405828D01*
X2238365Y3405551D01*
X2238180Y3405366D01*
Y3405274D01*
X2229767Y3391960D01*
X2219227D01*
X2230229Y3409342D01*
X2231523Y3411191D01*
X2232725Y3412855D01*
X2233927Y3414242D01*
X2234944Y3415536D01*
X2235869Y3416461D01*
X2236608Y3417200D01*
X2237071Y3417663D01*
X2237256Y3417848D01*
X2237995Y3418402D01*
X2238827Y3419050D01*
X2240492Y3420067D01*
X2241231Y3420436D01*
X2241786Y3420806D01*
X2242156Y3420991D01*
X2242341Y3421084D01*
X2240676Y3421361D01*
X2239105Y3421638D01*
X2237718Y3422101D01*
X2236331Y3422470D01*
X2235129Y3422933D01*
X2234020Y3423487D01*
X2233003Y3423950D01*
X2232078Y3424412D01*
X2231338Y3424967D01*
X2230599Y3425429D01*
X2230044Y3425799D01*
X2229582Y3426169D01*
X2229212Y3426446D01*
X2228935Y3426723D01*
X2228842Y3426816D01*
X2228750Y3426908D01*
X2228010Y3427833D01*
X2227270Y3428757D01*
X2226161Y3430699D01*
X2225421Y3432641D01*
X2224867Y3434490D01*
X2224497Y3436061D01*
X2224404Y3436709D01*
Y3437356D01*
X2224312Y3437818D01*
Y3438188D01*
Y3438373D01*
Y3438465D01*
X2224404Y3440407D01*
X2224682Y3442164D01*
X2225144Y3443828D01*
X2225606Y3445215D01*
X2226161Y3446417D01*
X2226531Y3447341D01*
X2226901Y3447896D01*
X2226993Y3447988D01*
Y3448081D01*
X2228102Y3449560D01*
X2229212Y3450854D01*
X2230414Y3451964D01*
X2231523Y3452796D01*
X2232540Y3453443D01*
X2233372Y3453813D01*
X2233927Y3454090D01*
X2234020Y3454183D01*
X2234112D01*
X2234944Y3454460D01*
X2235961Y3454738D01*
X2237995Y3455200D01*
X2240214Y3455477D01*
X2242248Y3455755D01*
X2244190Y3455847D01*
X2245022D01*
X2245762Y3455939D01*
X2275440D01*
Y3391960D01*
D02*
G37*
G36*
X2167174Y3414519D02*
Y3407308D01*
X2139345D01*
Y3391960D01*
X2131486D01*
Y3407308D01*
X2122795D01*
Y3414519D01*
X2131486D01*
Y3455939D01*
X2137865D01*
X2167174Y3414519D01*
D02*
G37*
G36*
X1598331Y3458572D02*
X1600827Y3458110D01*
X1602954Y3457370D01*
X1604803Y3456630D01*
X1605635Y3456168D01*
X1606282Y3455798D01*
X1606929Y3455428D01*
X1607392Y3455059D01*
X1607762Y3454781D01*
X1608039Y3454596D01*
X1608224Y3454504D01*
X1608316Y3454411D01*
X1610073Y3452655D01*
X1611460Y3450713D01*
X1612569Y3448679D01*
X1613494Y3446645D01*
X1614049Y3444888D01*
X1614326Y3444149D01*
X1614511Y3443502D01*
X1614603Y3442947D01*
X1614696Y3442577D01*
X1614788Y3442300D01*
Y3442207D01*
X1606929Y3440820D01*
X1606560Y3442854D01*
X1606005Y3444611D01*
X1605358Y3446090D01*
X1604711Y3447292D01*
X1604063Y3448217D01*
X1603509Y3448864D01*
X1603139Y3449326D01*
X1603046Y3449419D01*
X1601844Y3450343D01*
X1600550Y3451083D01*
X1599348Y3451545D01*
X1598146Y3451915D01*
X1597037Y3452100D01*
X1596205Y3452285D01*
X1595465D01*
X1593801Y3452192D01*
X1592321Y3451823D01*
X1591027Y3451360D01*
X1589918Y3450898D01*
X1589085Y3450343D01*
X1588438Y3449881D01*
X1587976Y3449511D01*
X1587884Y3449419D01*
X1586867Y3448309D01*
X1586127Y3447107D01*
X1585665Y3445905D01*
X1585295Y3444796D01*
X1585110Y3443779D01*
X1584925Y3443039D01*
Y3442485D01*
Y3442392D01*
Y3442300D01*
Y3441283D01*
X1585110Y3440358D01*
X1585572Y3438786D01*
X1586219Y3437400D01*
X1586959Y3436198D01*
X1587699Y3435365D01*
X1588346Y3434718D01*
X1588808Y3434348D01*
X1588901Y3434256D01*
X1588993D01*
X1590565Y3433424D01*
X1592044Y3432777D01*
X1593616Y3432314D01*
X1595003Y3432037D01*
X1596205Y3431852D01*
X1597222Y3431667D01*
X1598424D01*
X1598793Y3431760D01*
X1599256D01*
X1600180Y3424826D01*
X1598978Y3425103D01*
X1597869Y3425288D01*
X1596944Y3425473D01*
X1596112Y3425565D01*
X1595465Y3425658D01*
X1594633D01*
X1592691Y3425473D01*
X1590935Y3425103D01*
X1589363Y3424548D01*
X1588068Y3423901D01*
X1587051Y3423254D01*
X1586312Y3422699D01*
X1585850Y3422329D01*
X1585665Y3422144D01*
X1584463Y3420757D01*
X1583538Y3419278D01*
X1582891Y3417799D01*
X1582521Y3416320D01*
X1582244Y3415118D01*
X1582151Y3414101D01*
X1582059Y3413731D01*
Y3413453D01*
Y3413269D01*
Y3413176D01*
X1582244Y3411142D01*
X1582706Y3409293D01*
X1583261Y3407721D01*
X1584000Y3406334D01*
X1584740Y3405225D01*
X1585295Y3404393D01*
X1585757Y3403838D01*
X1585942Y3403653D01*
X1587421Y3402359D01*
X1588993Y3401434D01*
X1590565Y3400787D01*
X1592044Y3400325D01*
X1593338Y3400047D01*
X1594355Y3399955D01*
X1594725Y3399862D01*
X1595280D01*
X1596944Y3399955D01*
X1598516Y3400325D01*
X1599903Y3400787D01*
X1601012Y3401342D01*
X1601937Y3401804D01*
X1602677Y3402266D01*
X1603046Y3402636D01*
X1603231Y3402729D01*
X1604341Y3404023D01*
X1605265Y3405502D01*
X1606097Y3407074D01*
X1606745Y3408738D01*
X1607207Y3410125D01*
X1607392Y3410772D01*
X1607484Y3411327D01*
X1607577Y3411789D01*
X1607669Y3412159D01*
X1607762Y3412344D01*
Y3412436D01*
X1615620Y3411419D01*
X1615435Y3409940D01*
X1615158Y3408553D01*
X1614326Y3405964D01*
X1613309Y3403746D01*
X1612754Y3402821D01*
X1612199Y3401896D01*
X1611645Y3401064D01*
X1611090Y3400417D01*
X1610628Y3399770D01*
X1610165Y3399308D01*
X1609888Y3398938D01*
X1609611Y3398660D01*
X1609426Y3398476D01*
X1609333Y3398383D01*
X1608224Y3397551D01*
X1607114Y3396719D01*
X1606005Y3396072D01*
X1604803Y3395517D01*
X1602492Y3394592D01*
X1600273Y3394038D01*
X1599256Y3393853D01*
X1598331Y3393668D01*
X1597499Y3393575D01*
X1596759Y3393483D01*
X1596205Y3393390D01*
X1595372D01*
X1593616Y3393483D01*
X1592044Y3393668D01*
X1590472Y3393945D01*
X1588993Y3394315D01*
X1587606Y3394777D01*
X1586404Y3395240D01*
X1585202Y3395794D01*
X1584185Y3396349D01*
X1583168Y3396811D01*
X1582336Y3397366D01*
X1581597Y3397828D01*
X1581042Y3398291D01*
X1580580Y3398660D01*
X1580210Y3398938D01*
X1580025Y3399123D01*
X1579932Y3399215D01*
X1578823Y3400325D01*
X1577898Y3401527D01*
X1577066Y3402729D01*
X1576327Y3403930D01*
X1575772Y3405040D01*
X1575217Y3406242D01*
X1574477Y3408461D01*
X1574293Y3409478D01*
X1574108Y3410402D01*
X1573923Y3411234D01*
X1573830Y3411974D01*
X1573738Y3412529D01*
Y3412991D01*
Y3413269D01*
Y3413361D01*
X1573830Y3415580D01*
X1574200Y3417614D01*
X1574755Y3419371D01*
X1575310Y3420850D01*
X1575864Y3422052D01*
X1576419Y3422976D01*
X1576789Y3423531D01*
X1576881Y3423716D01*
X1578176Y3425103D01*
X1579562Y3426305D01*
X1581042Y3427229D01*
X1582521Y3427969D01*
X1583815Y3428524D01*
X1584832Y3428894D01*
X1585202Y3428986D01*
X1585480Y3429078D01*
X1585665Y3429171D01*
X1585757D01*
X1584185Y3430003D01*
X1582891Y3430835D01*
X1581781Y3431760D01*
X1580857Y3432592D01*
X1580117Y3433331D01*
X1579562Y3433979D01*
X1579285Y3434348D01*
X1579193Y3434533D01*
X1578453Y3435828D01*
X1577898Y3437122D01*
X1577436Y3438417D01*
X1577159Y3439618D01*
X1576974Y3440635D01*
X1576881Y3441375D01*
Y3441930D01*
Y3442115D01*
X1576974Y3443687D01*
X1577251Y3445258D01*
X1577621Y3446645D01*
X1578083Y3447847D01*
X1578545Y3448864D01*
X1578915Y3449696D01*
X1579193Y3450158D01*
X1579285Y3450343D01*
X1580210Y3451730D01*
X1581319Y3452932D01*
X1582429Y3453949D01*
X1583538Y3454874D01*
X1584463Y3455521D01*
X1585295Y3456076D01*
X1585850Y3456353D01*
X1585942Y3456445D01*
X1586034D01*
X1587699Y3457185D01*
X1589363Y3457740D01*
X1591027Y3458202D01*
X1592506Y3458479D01*
X1593708Y3458664D01*
X1594725Y3458757D01*
X1597037D01*
X1598331Y3458572D01*
D02*
G37*
G36*
X1641878Y3457185D02*
X1642895Y3455706D01*
X1644097Y3454227D01*
X1645206Y3452932D01*
X1646316Y3451823D01*
X1647148Y3450898D01*
X1647518Y3450621D01*
X1647795Y3450343D01*
X1647887Y3450251D01*
X1647980Y3450158D01*
X1649922Y3448587D01*
X1651863Y3447107D01*
X1653712Y3445813D01*
X1655561Y3444796D01*
X1657133Y3443871D01*
X1657780Y3443502D01*
X1658335Y3443224D01*
X1658797Y3442947D01*
X1659167Y3442854D01*
X1659352Y3442670D01*
X1659444D01*
Y3435088D01*
X1658058Y3435643D01*
X1656671Y3436290D01*
X1655284Y3436937D01*
X1653990Y3437584D01*
X1652880Y3438139D01*
X1651956Y3438601D01*
X1651401Y3438971D01*
X1651308Y3439064D01*
X1651216D01*
X1649552Y3440081D01*
X1648072Y3441098D01*
X1646778Y3442022D01*
X1645761Y3442854D01*
X1644836Y3443502D01*
X1644282Y3444056D01*
X1643819Y3444426D01*
X1643727Y3444519D01*
Y3394500D01*
X1635868D01*
Y3458757D01*
X1640953D01*
X1641878Y3457185D01*
D02*
G37*
G36*
X1726660Y3394500D02*
X1718154D01*
Y3422884D01*
X1707244D01*
X1706227Y3422791D01*
X1705488D01*
X1704840Y3422699D01*
X1704378Y3422607D01*
X1704008D01*
X1703823Y3422514D01*
X1703731D01*
X1702252Y3422052D01*
X1701604Y3421774D01*
X1701050Y3421497D01*
X1700495Y3421220D01*
X1700125Y3421035D01*
X1699940Y3420942D01*
X1699848Y3420850D01*
X1699108Y3420295D01*
X1698368Y3419648D01*
X1696982Y3418261D01*
X1696334Y3417614D01*
X1695872Y3417059D01*
X1695595Y3416689D01*
X1695502Y3416597D01*
X1694578Y3415303D01*
X1693561Y3413916D01*
X1692544Y3412436D01*
X1691527Y3411050D01*
X1690695Y3409755D01*
X1690047Y3408738D01*
X1689770Y3408368D01*
X1689585Y3408091D01*
X1689400Y3407906D01*
Y3407814D01*
X1680987Y3394500D01*
X1670447D01*
X1681449Y3411882D01*
X1682743Y3413731D01*
X1683945Y3415395D01*
X1685147Y3416782D01*
X1686164Y3418076D01*
X1687089Y3419001D01*
X1687828Y3419740D01*
X1688291Y3420203D01*
X1688476Y3420388D01*
X1689215Y3420942D01*
X1690047Y3421590D01*
X1691712Y3422607D01*
X1692451Y3422976D01*
X1693006Y3423346D01*
X1693376Y3423531D01*
X1693561Y3423624D01*
X1691897Y3423901D01*
X1690325Y3424178D01*
X1688938Y3424641D01*
X1687551Y3425010D01*
X1686349Y3425473D01*
X1685240Y3426027D01*
X1684223Y3426490D01*
X1683298Y3426952D01*
X1682558Y3427507D01*
X1681819Y3427969D01*
X1681264Y3428339D01*
X1680802Y3428709D01*
X1680432Y3428986D01*
X1680155Y3429263D01*
X1680062Y3429356D01*
X1679970Y3429448D01*
X1679230Y3430373D01*
X1678490Y3431297D01*
X1677381Y3433239D01*
X1676641Y3435181D01*
X1676087Y3437030D01*
X1675717Y3438601D01*
X1675624Y3439249D01*
Y3439896D01*
X1675532Y3440358D01*
Y3440728D01*
Y3440913D01*
Y3441005D01*
X1675624Y3442947D01*
X1675902Y3444704D01*
X1676364Y3446368D01*
X1676826Y3447755D01*
X1677381Y3448957D01*
X1677751Y3449881D01*
X1678121Y3450436D01*
X1678213Y3450528D01*
Y3450621D01*
X1679323Y3452100D01*
X1680432Y3453394D01*
X1681634Y3454504D01*
X1682743Y3455336D01*
X1683760Y3455983D01*
X1684593Y3456353D01*
X1685147Y3456630D01*
X1685240Y3456723D01*
X1685332D01*
X1686164Y3457000D01*
X1687181Y3457278D01*
X1689215Y3457740D01*
X1691434Y3458017D01*
X1693468Y3458295D01*
X1695410Y3458387D01*
X1696242D01*
X1696982Y3458479D01*
X1726660D01*
Y3394500D01*
D02*
G37*
G36*
X1871864Y3456124D02*
X1873436Y3456032D01*
X1874915Y3455755D01*
X1876302Y3455477D01*
X1877597Y3455107D01*
X1878799Y3454738D01*
X1879908Y3454275D01*
X1880925Y3453813D01*
X1881850Y3453351D01*
X1882589Y3452888D01*
X1883237Y3452519D01*
X1883791Y3452149D01*
X1884254Y3451871D01*
X1884531Y3451594D01*
X1884716Y3451502D01*
X1884808Y3451409D01*
X1885733Y3450485D01*
X1886565Y3449468D01*
X1887397Y3448358D01*
X1888044Y3447249D01*
X1889154Y3445030D01*
X1889893Y3442811D01*
X1890171Y3441794D01*
X1890448Y3440777D01*
X1890633Y3439945D01*
X1890818Y3439205D01*
X1890910Y3438558D01*
Y3438095D01*
X1891003Y3437818D01*
Y3437726D01*
X1882959Y3436894D01*
X1882774Y3439020D01*
X1882404Y3440869D01*
X1881850Y3442533D01*
X1881202Y3443828D01*
X1880648Y3444937D01*
X1880093Y3445677D01*
X1879723Y3446139D01*
X1879538Y3446324D01*
X1878151Y3447434D01*
X1876672Y3448266D01*
X1875100Y3448913D01*
X1873714Y3449283D01*
X1872419Y3449560D01*
X1871310Y3449652D01*
X1870940Y3449745D01*
X1870385D01*
X1868444Y3449652D01*
X1866687Y3449283D01*
X1865208Y3448728D01*
X1863913Y3448173D01*
X1862896Y3447526D01*
X1862249Y3447064D01*
X1861787Y3446694D01*
X1861602Y3446509D01*
X1860492Y3445215D01*
X1859660Y3443920D01*
X1859013Y3442626D01*
X1858643Y3441331D01*
X1858366Y3440314D01*
X1858273Y3439390D01*
X1858181Y3438835D01*
Y3438743D01*
Y3438650D01*
X1858366Y3436986D01*
X1858736Y3435229D01*
X1859383Y3433658D01*
X1860030Y3432178D01*
X1860770Y3430976D01*
X1861417Y3429959D01*
X1861602Y3429590D01*
X1861787Y3429312D01*
X1861972Y3429220D01*
Y3429127D01*
X1862711Y3428110D01*
X1863636Y3427093D01*
X1864653Y3425984D01*
X1865762Y3424874D01*
X1868074Y3422655D01*
X1870385Y3420436D01*
X1871587Y3419419D01*
X1872604Y3418495D01*
X1873621Y3417663D01*
X1874453Y3416923D01*
X1875100Y3416368D01*
X1875655Y3415906D01*
X1876025Y3415629D01*
X1876117Y3415536D01*
X1878429Y3413595D01*
X1880555Y3411746D01*
X1882312Y3410081D01*
X1883699Y3408694D01*
X1884901Y3407493D01*
X1885733Y3406660D01*
X1886195Y3406106D01*
X1886380Y3406013D01*
Y3405921D01*
X1887674Y3404349D01*
X1888691Y3402870D01*
X1889616Y3401390D01*
X1890356Y3400096D01*
X1890910Y3398987D01*
X1891280Y3398154D01*
X1891465Y3397600D01*
X1891558Y3397507D01*
Y3397415D01*
X1891927Y3396398D01*
X1892112Y3395473D01*
X1892297Y3394549D01*
X1892390Y3393717D01*
X1892482Y3392977D01*
Y3392422D01*
Y3392052D01*
Y3391960D01*
X1850045D01*
Y3399541D01*
X1881572D01*
X1880463Y3401113D01*
X1879908Y3401760D01*
X1879446Y3402407D01*
X1878984Y3402962D01*
X1878614Y3403332D01*
X1878336Y3403609D01*
X1878244Y3403702D01*
X1877782Y3404164D01*
X1877227Y3404626D01*
X1875932Y3405828D01*
X1874453Y3407215D01*
X1872881Y3408602D01*
X1871402Y3409804D01*
X1870755Y3410359D01*
X1870200Y3410913D01*
X1869738Y3411283D01*
X1869368Y3411561D01*
X1869183Y3411746D01*
X1869091Y3411838D01*
X1867611Y3413132D01*
X1866132Y3414334D01*
X1864838Y3415536D01*
X1863636Y3416553D01*
X1862526Y3417570D01*
X1861602Y3418495D01*
X1860677Y3419327D01*
X1859938Y3420067D01*
X1859198Y3420806D01*
X1858643Y3421361D01*
X1858181Y3421823D01*
X1857719Y3422286D01*
X1857256Y3422840D01*
X1857071Y3423025D01*
X1855777Y3424597D01*
X1854668Y3425984D01*
X1853743Y3427371D01*
X1853003Y3428480D01*
X1852449Y3429497D01*
X1852079Y3430237D01*
X1851894Y3430699D01*
X1851801Y3430884D01*
X1851247Y3432271D01*
X1850877Y3433658D01*
X1850507Y3434952D01*
X1850322Y3436061D01*
X1850230Y3437078D01*
X1850137Y3437818D01*
Y3438280D01*
Y3438465D01*
X1850230Y3439852D01*
X1850415Y3441147D01*
X1850600Y3442441D01*
X1850969Y3443550D01*
X1851894Y3445769D01*
X1852818Y3447526D01*
X1853373Y3448358D01*
X1853836Y3449005D01*
X1854298Y3449652D01*
X1854760Y3450115D01*
X1855130Y3450485D01*
X1855315Y3450854D01*
X1855500Y3450947D01*
X1855592Y3451039D01*
X1856609Y3451964D01*
X1857719Y3452796D01*
X1858921Y3453443D01*
X1860123Y3453998D01*
X1862526Y3454922D01*
X1864930Y3455570D01*
X1865947Y3455755D01*
X1866964Y3455939D01*
X1867889Y3456032D01*
X1868628Y3456124D01*
X1869276Y3456217D01*
X1870200D01*
X1871864Y3456124D01*
D02*
G37*
G36*
X1917538Y3454645D02*
X1918555Y3453166D01*
X1919757Y3451687D01*
X1920866Y3450392D01*
X1921976Y3449283D01*
X1922808Y3448358D01*
X1923178Y3448081D01*
X1923455Y3447803D01*
X1923547Y3447711D01*
X1923640Y3447618D01*
X1925581Y3446047D01*
X1927523Y3444567D01*
X1929372Y3443273D01*
X1931221Y3442256D01*
X1932793Y3441331D01*
X1933440Y3440962D01*
X1933995Y3440684D01*
X1934457Y3440407D01*
X1934827Y3440314D01*
X1935012Y3440130D01*
X1935104D01*
Y3432548D01*
X1933717Y3433103D01*
X1932331Y3433750D01*
X1930944Y3434397D01*
X1929649Y3435044D01*
X1928540Y3435599D01*
X1927615Y3436061D01*
X1927061Y3436431D01*
X1926968Y3436524D01*
X1926876D01*
X1925212Y3437541D01*
X1923732Y3438558D01*
X1922438Y3439482D01*
X1921421Y3440314D01*
X1920496Y3440962D01*
X1919942Y3441516D01*
X1919479Y3441886D01*
X1919387Y3441979D01*
Y3391960D01*
X1911528D01*
Y3456217D01*
X1916613D01*
X1917538Y3454645D01*
D02*
G37*
G36*
X2002320Y3391960D02*
X1993814D01*
Y3420344D01*
X1982904D01*
X1981887Y3420251D01*
X1981147D01*
X1980500Y3420159D01*
X1980038Y3420067D01*
X1979668D01*
X1979483Y3419974D01*
X1979391D01*
X1977911Y3419512D01*
X1977264Y3419234D01*
X1976710Y3418957D01*
X1976155Y3418680D01*
X1975785Y3418495D01*
X1975600Y3418402D01*
X1975508Y3418310D01*
X1974768Y3417755D01*
X1974028Y3417108D01*
X1972641Y3415721D01*
X1971994Y3415074D01*
X1971532Y3414519D01*
X1971255Y3414149D01*
X1971162Y3414057D01*
X1970238Y3412763D01*
X1969221Y3411376D01*
X1968204Y3409896D01*
X1967187Y3408510D01*
X1966354Y3407215D01*
X1965707Y3406198D01*
X1965430Y3405828D01*
X1965245Y3405551D01*
X1965060Y3405366D01*
Y3405274D01*
X1956647Y3391960D01*
X1946107D01*
X1957109Y3409342D01*
X1958403Y3411191D01*
X1959605Y3412855D01*
X1960807Y3414242D01*
X1961824Y3415536D01*
X1962749Y3416461D01*
X1963488Y3417200D01*
X1963951Y3417663D01*
X1964136Y3417848D01*
X1964875Y3418402D01*
X1965707Y3419050D01*
X1967371Y3420067D01*
X1968111Y3420436D01*
X1968666Y3420806D01*
X1969036Y3420991D01*
X1969221Y3421084D01*
X1967556Y3421361D01*
X1965985Y3421638D01*
X1964598Y3422101D01*
X1963211Y3422470D01*
X1962009Y3422933D01*
X1960900Y3423487D01*
X1959883Y3423950D01*
X1958958Y3424412D01*
X1958218Y3424967D01*
X1957479Y3425429D01*
X1956924Y3425799D01*
X1956462Y3426169D01*
X1956092Y3426446D01*
X1955814Y3426723D01*
X1955722Y3426816D01*
X1955630Y3426908D01*
X1954890Y3427833D01*
X1954150Y3428757D01*
X1953041Y3430699D01*
X1952301Y3432641D01*
X1951746Y3434490D01*
X1951377Y3436061D01*
X1951284Y3436709D01*
Y3437356D01*
X1951192Y3437818D01*
Y3438188D01*
Y3438373D01*
Y3438465D01*
X1951284Y3440407D01*
X1951562Y3442164D01*
X1952024Y3443828D01*
X1952486Y3445215D01*
X1953041Y3446417D01*
X1953411Y3447341D01*
X1953780Y3447896D01*
X1953873Y3447988D01*
Y3448081D01*
X1954982Y3449560D01*
X1956092Y3450854D01*
X1957294Y3451964D01*
X1958403Y3452796D01*
X1959420Y3453443D01*
X1960252Y3453813D01*
X1960807Y3454090D01*
X1960900Y3454183D01*
X1960992D01*
X1961824Y3454460D01*
X1962841Y3454738D01*
X1964875Y3455200D01*
X1967094Y3455477D01*
X1969128Y3455755D01*
X1971070Y3455847D01*
X1971902D01*
X1972641Y3455939D01*
X2002320D01*
Y3391960D01*
D02*
G37*
G36*
X2470337Y3456124D02*
X2471909Y3456032D01*
X2473388Y3455755D01*
X2474775Y3455477D01*
X2476069Y3455107D01*
X2477271Y3454738D01*
X2478381Y3454275D01*
X2479398Y3453813D01*
X2480322Y3453351D01*
X2481062Y3452888D01*
X2481709Y3452519D01*
X2482264Y3452149D01*
X2482726Y3451871D01*
X2483004Y3451594D01*
X2483189Y3451502D01*
X2483281Y3451409D01*
X2484206Y3450485D01*
X2485038Y3449468D01*
X2485870Y3448358D01*
X2486517Y3447249D01*
X2487626Y3445030D01*
X2488366Y3442811D01*
X2488643Y3441794D01*
X2488921Y3440777D01*
X2489106Y3439945D01*
X2489291Y3439205D01*
X2489383Y3438558D01*
Y3438095D01*
X2489476Y3437818D01*
Y3437726D01*
X2481432Y3436894D01*
X2481247Y3439020D01*
X2480877Y3440869D01*
X2480322Y3442533D01*
X2479675Y3443828D01*
X2479121Y3444937D01*
X2478566Y3445677D01*
X2478196Y3446139D01*
X2478011Y3446324D01*
X2476624Y3447434D01*
X2475145Y3448266D01*
X2473573Y3448913D01*
X2472186Y3449283D01*
X2470892Y3449560D01*
X2469782Y3449652D01*
X2469413Y3449745D01*
X2468858D01*
X2466916Y3449652D01*
X2465160Y3449283D01*
X2463680Y3448728D01*
X2462386Y3448173D01*
X2461369Y3447526D01*
X2460722Y3447064D01*
X2460259Y3446694D01*
X2460075Y3446509D01*
X2458965Y3445215D01*
X2458133Y3443920D01*
X2457486Y3442626D01*
X2457116Y3441331D01*
X2456839Y3440314D01*
X2456746Y3439390D01*
X2456654Y3438835D01*
Y3438743D01*
Y3438650D01*
X2456839Y3436986D01*
X2457208Y3435229D01*
X2457856Y3433658D01*
X2458503Y3432178D01*
X2459242Y3430976D01*
X2459890Y3429959D01*
X2460075Y3429590D01*
X2460259Y3429312D01*
X2460444Y3429220D01*
Y3429127D01*
X2461184Y3428110D01*
X2462109Y3427093D01*
X2463126Y3425984D01*
X2464235Y3424874D01*
X2466547Y3422655D01*
X2468858Y3420436D01*
X2470060Y3419419D01*
X2471077Y3418495D01*
X2472094Y3417663D01*
X2472926Y3416923D01*
X2473573Y3416368D01*
X2474128Y3415906D01*
X2474498Y3415629D01*
X2474590Y3415536D01*
X2476902Y3413595D01*
X2479028Y3411746D01*
X2480785Y3410081D01*
X2482172Y3408694D01*
X2483373Y3407493D01*
X2484206Y3406660D01*
X2484668Y3406106D01*
X2484853Y3406013D01*
Y3405921D01*
X2486147Y3404349D01*
X2487164Y3402870D01*
X2488089Y3401390D01*
X2488828Y3400096D01*
X2489383Y3398987D01*
X2489753Y3398154D01*
X2489938Y3397600D01*
X2490030Y3397507D01*
Y3397415D01*
X2490400Y3396398D01*
X2490585Y3395473D01*
X2490770Y3394549D01*
X2490862Y3393717D01*
X2490955Y3392977D01*
Y3392422D01*
Y3392052D01*
Y3391960D01*
X2448518D01*
Y3399541D01*
X2480045D01*
X2478936Y3401113D01*
X2478381Y3401760D01*
X2477919Y3402407D01*
X2477456Y3402962D01*
X2477086Y3403332D01*
X2476809Y3403609D01*
X2476717Y3403702D01*
X2476254Y3404164D01*
X2475700Y3404626D01*
X2474405Y3405828D01*
X2472926Y3407215D01*
X2471354Y3408602D01*
X2469875Y3409804D01*
X2469228Y3410359D01*
X2468673Y3410913D01*
X2468211Y3411283D01*
X2467841Y3411561D01*
X2467656Y3411746D01*
X2467564Y3411838D01*
X2466084Y3413132D01*
X2464605Y3414334D01*
X2463311Y3415536D01*
X2462109Y3416553D01*
X2460999Y3417570D01*
X2460075Y3418495D01*
X2459150Y3419327D01*
X2458410Y3420067D01*
X2457671Y3420806D01*
X2457116Y3421361D01*
X2456654Y3421823D01*
X2456191Y3422286D01*
X2455729Y3422840D01*
X2455544Y3423025D01*
X2454250Y3424597D01*
X2453140Y3425984D01*
X2452216Y3427371D01*
X2451476Y3428480D01*
X2450921Y3429497D01*
X2450552Y3430237D01*
X2450367Y3430699D01*
X2450274Y3430884D01*
X2449720Y3432271D01*
X2449350Y3433658D01*
X2448980Y3434952D01*
X2448795Y3436061D01*
X2448702Y3437078D01*
X2448610Y3437818D01*
Y3438280D01*
Y3438465D01*
X2448702Y3439852D01*
X2448887Y3441147D01*
X2449072Y3442441D01*
X2449442Y3443550D01*
X2450367Y3445769D01*
X2451291Y3447526D01*
X2451846Y3448358D01*
X2452308Y3449005D01*
X2452771Y3449652D01*
X2453233Y3450115D01*
X2453603Y3450485D01*
X2453788Y3450854D01*
X2453972Y3450947D01*
X2454065Y3451039D01*
X2455082Y3451964D01*
X2456191Y3452796D01*
X2457393Y3453443D01*
X2458595Y3453998D01*
X2460999Y3454922D01*
X2463403Y3455570D01*
X2464420Y3455755D01*
X2465437Y3455939D01*
X2466362Y3456032D01*
X2467101Y3456124D01*
X2467748Y3456217D01*
X2468673D01*
X2470337Y3456124D01*
D02*
G37*
G36*
X2526550Y3456864D02*
X2529509Y3456402D01*
X2532098Y3455847D01*
X2533300Y3455477D01*
X2534409Y3455107D01*
X2535426Y3454738D01*
X2536351Y3454368D01*
X2537090Y3454090D01*
X2537830Y3453813D01*
X2538292Y3453536D01*
X2538662Y3453351D01*
X2538940Y3453258D01*
X2539032Y3453166D01*
X2541528Y3451594D01*
X2543655Y3449745D01*
X2545504Y3447896D01*
X2547076Y3446047D01*
X2548278Y3444382D01*
X2548740Y3443643D01*
X2549110Y3442996D01*
X2549480Y3442533D01*
X2549664Y3442164D01*
X2549757Y3441886D01*
X2549849Y3441794D01*
X2551144Y3438928D01*
X2552068Y3435969D01*
X2552715Y3433010D01*
X2553178Y3430329D01*
X2553363Y3429127D01*
X2553455Y3427925D01*
X2553548Y3427001D01*
Y3426076D01*
X2553640Y3425429D01*
Y3424874D01*
Y3424504D01*
Y3424412D01*
X2553455Y3421084D01*
X2553085Y3417848D01*
X2552623Y3414981D01*
X2552253Y3413595D01*
X2551976Y3412393D01*
X2551698Y3411283D01*
X2551329Y3410266D01*
X2551051Y3409342D01*
X2550866Y3408602D01*
X2550589Y3408047D01*
X2550497Y3407585D01*
X2550312Y3407308D01*
Y3407215D01*
X2548925Y3404442D01*
X2547353Y3401945D01*
X2545689Y3399819D01*
X2544857Y3398987D01*
X2544117Y3398154D01*
X2543377Y3397415D01*
X2542638Y3396768D01*
X2541991Y3396213D01*
X2541436Y3395843D01*
X2541066Y3395473D01*
X2540696Y3395196D01*
X2540511Y3395103D01*
X2540419Y3395011D01*
X2539124Y3394271D01*
X2537830Y3393624D01*
X2535056Y3392607D01*
X2532283Y3391867D01*
X2529601Y3391405D01*
X2528307Y3391220D01*
X2527198Y3391035D01*
X2526181Y3390943D01*
X2525349D01*
X2524609Y3390850D01*
X2523592D01*
X2521743Y3390943D01*
X2519986Y3391128D01*
X2518322Y3391313D01*
X2516750Y3391683D01*
X2515271Y3392145D01*
X2513884Y3392607D01*
X2512590Y3393069D01*
X2511388Y3393624D01*
X2510371Y3394086D01*
X2509354Y3394549D01*
X2508614Y3395011D01*
X2507874Y3395473D01*
X2507412Y3395843D01*
X2506950Y3396028D01*
X2506765Y3396213D01*
X2506672Y3396305D01*
X2505378Y3397415D01*
X2504269Y3398524D01*
X2503252Y3399819D01*
X2502235Y3401113D01*
X2500570Y3403702D01*
X2499276Y3406291D01*
X2498721Y3407493D01*
X2498259Y3408602D01*
X2497889Y3409619D01*
X2497612Y3410451D01*
X2497334Y3411191D01*
X2497149Y3411746D01*
X2497057Y3412115D01*
Y3412208D01*
X2505563Y3414334D01*
X2505933Y3412855D01*
X2506395Y3411468D01*
X2506857Y3410174D01*
X2507320Y3408972D01*
X2507874Y3407862D01*
X2508429Y3406938D01*
X2509076Y3406013D01*
X2509631Y3405181D01*
X2510093Y3404442D01*
X2510648Y3403887D01*
X2511110Y3403332D01*
X2511480Y3402870D01*
X2511850Y3402592D01*
X2512127Y3402315D01*
X2512220Y3402223D01*
X2512312Y3402130D01*
X2513237Y3401390D01*
X2514254Y3400836D01*
X2516288Y3399819D01*
X2518229Y3399079D01*
X2520171Y3398617D01*
X2521835Y3398247D01*
X2522482Y3398154D01*
X2523130D01*
X2523684Y3398062D01*
X2524332D01*
X2526458Y3398154D01*
X2528492Y3398524D01*
X2530341Y3398987D01*
X2532005Y3399541D01*
X2533300Y3400096D01*
X2533854Y3400373D01*
X2534317Y3400558D01*
X2534687Y3400743D01*
X2534964Y3400928D01*
X2535149Y3401021D01*
X2535241D01*
X2536998Y3402315D01*
X2538477Y3403702D01*
X2539772Y3405274D01*
X2540789Y3406753D01*
X2541621Y3408047D01*
X2542176Y3409157D01*
X2542360Y3409619D01*
X2542545Y3409896D01*
X2542638Y3410081D01*
Y3410174D01*
X2543377Y3412578D01*
X2543932Y3414981D01*
X2544394Y3417385D01*
X2544672Y3419604D01*
X2544764Y3420621D01*
X2544857Y3421546D01*
Y3422378D01*
X2544949Y3423025D01*
Y3423580D01*
Y3424042D01*
Y3424320D01*
Y3424412D01*
X2544857Y3426816D01*
X2544672Y3429035D01*
X2544302Y3431069D01*
X2543932Y3432918D01*
X2543655Y3434490D01*
X2543470Y3435137D01*
X2543285Y3435692D01*
X2543193Y3436154D01*
X2543100Y3436431D01*
X2543008Y3436616D01*
Y3436709D01*
X2542083Y3438835D01*
X2541066Y3440777D01*
X2539957Y3442348D01*
X2538755Y3443735D01*
X2537738Y3444845D01*
X2536906Y3445584D01*
X2536258Y3446047D01*
X2536166Y3446232D01*
X2536073D01*
X2534132Y3447434D01*
X2532005Y3448358D01*
X2529971Y3449005D01*
X2528030Y3449375D01*
X2526273Y3449652D01*
X2525533Y3449745D01*
X2524886D01*
X2524424Y3449837D01*
X2523684D01*
X2521373Y3449745D01*
X2519246Y3449375D01*
X2517490Y3448820D01*
X2515918Y3448266D01*
X2514716Y3447618D01*
X2513792Y3447156D01*
X2513237Y3446786D01*
X2513052Y3446601D01*
X2511573Y3445215D01*
X2510186Y3443643D01*
X2509076Y3441979D01*
X2508152Y3440314D01*
X2507412Y3438835D01*
X2507135Y3438095D01*
X2506950Y3437541D01*
X2506765Y3437078D01*
X2506580Y3436709D01*
X2506487Y3436524D01*
Y3436431D01*
X2498166Y3438373D01*
X2498721Y3440037D01*
X2499276Y3441516D01*
X2500016Y3442903D01*
X2500663Y3444290D01*
X2501402Y3445492D01*
X2502235Y3446601D01*
X2502974Y3447711D01*
X2503714Y3448635D01*
X2504453Y3449375D01*
X2505101Y3450115D01*
X2505748Y3450762D01*
X2506210Y3451224D01*
X2506672Y3451687D01*
X2507042Y3451964D01*
X2507227Y3452056D01*
X2507320Y3452149D01*
X2508614Y3452981D01*
X2509908Y3453813D01*
X2511203Y3454460D01*
X2512590Y3455015D01*
X2515363Y3455847D01*
X2517860Y3456402D01*
X2519062Y3456679D01*
X2520079Y3456772D01*
X2521096Y3456864D01*
X2521928Y3456957D01*
X2522575Y3457049D01*
X2523499D01*
X2526550Y3456864D01*
D02*
G37*
G36*
X2439549Y3447526D02*
X2408207D01*
X2410426Y3444845D01*
X2412552Y3441979D01*
X2414401Y3439205D01*
X2416158Y3436524D01*
X2416898Y3435322D01*
X2417545Y3434212D01*
X2418192Y3433195D01*
X2418654Y3432363D01*
X2419024Y3431624D01*
X2419301Y3431161D01*
X2419486Y3430791D01*
X2419579Y3430699D01*
X2421428Y3427001D01*
X2423092Y3423303D01*
X2424479Y3419789D01*
X2425034Y3418217D01*
X2425588Y3416646D01*
X2426143Y3415259D01*
X2426513Y3413964D01*
X2426883Y3412855D01*
X2427160Y3411930D01*
X2427438Y3411098D01*
X2427623Y3410544D01*
X2427715Y3410174D01*
Y3410081D01*
X2428640Y3406291D01*
X2429009Y3404442D01*
X2429287Y3402777D01*
X2429564Y3401206D01*
X2429841Y3399634D01*
X2430026Y3398339D01*
X2430211Y3397045D01*
X2430304Y3395936D01*
X2430396Y3394919D01*
X2430489Y3393994D01*
Y3393254D01*
X2430581Y3392700D01*
Y3392330D01*
Y3392052D01*
Y3391960D01*
X2422537D01*
X2422260Y3395473D01*
X2421798Y3398709D01*
X2421336Y3401668D01*
X2421058Y3403055D01*
X2420781Y3404349D01*
X2420596Y3405459D01*
X2420319Y3406476D01*
X2420134Y3407400D01*
X2419949Y3408140D01*
X2419764Y3408694D01*
X2419671Y3409157D01*
X2419579Y3409434D01*
Y3409527D01*
X2418192Y3413780D01*
X2416713Y3417755D01*
X2415973Y3419697D01*
X2415233Y3421546D01*
X2414401Y3423210D01*
X2413662Y3424874D01*
X2413014Y3426354D01*
X2412367Y3427648D01*
X2411813Y3428757D01*
X2411350Y3429774D01*
X2410888Y3430607D01*
X2410611Y3431161D01*
X2410426Y3431531D01*
X2410333Y3431624D01*
X2409224Y3433565D01*
X2408114Y3435507D01*
X2407005Y3437263D01*
X2405895Y3438928D01*
X2404878Y3440407D01*
X2403861Y3441886D01*
X2402844Y3443181D01*
X2402012Y3444290D01*
X2401180Y3445400D01*
X2400440Y3446324D01*
X2399701Y3447064D01*
X2399146Y3447711D01*
X2398776Y3448266D01*
X2398406Y3448635D01*
X2398222Y3448820D01*
X2398129Y3448913D01*
Y3455107D01*
X2439549D01*
Y3447526D01*
D02*
G37*
G36*
X2743457Y3456124D02*
X2745029Y3456032D01*
X2746508Y3455755D01*
X2747895Y3455477D01*
X2749190Y3455107D01*
X2750392Y3454738D01*
X2751501Y3454275D01*
X2752518Y3453813D01*
X2753443Y3453351D01*
X2754182Y3452888D01*
X2754829Y3452519D01*
X2755384Y3452149D01*
X2755846Y3451871D01*
X2756124Y3451594D01*
X2756309Y3451502D01*
X2756401Y3451409D01*
X2757326Y3450485D01*
X2758158Y3449468D01*
X2758990Y3448358D01*
X2759637Y3447249D01*
X2760747Y3445030D01*
X2761486Y3442811D01*
X2761764Y3441794D01*
X2762041Y3440777D01*
X2762226Y3439945D01*
X2762411Y3439205D01*
X2762503Y3438558D01*
Y3438095D01*
X2762596Y3437818D01*
Y3437726D01*
X2754552Y3436894D01*
X2754367Y3439020D01*
X2753997Y3440869D01*
X2753443Y3442533D01*
X2752795Y3443828D01*
X2752241Y3444937D01*
X2751686Y3445677D01*
X2751316Y3446139D01*
X2751131Y3446324D01*
X2749744Y3447434D01*
X2748265Y3448266D01*
X2746693Y3448913D01*
X2745306Y3449283D01*
X2744012Y3449560D01*
X2742903Y3449652D01*
X2742533Y3449745D01*
X2741978D01*
X2740036Y3449652D01*
X2738280Y3449283D01*
X2736800Y3448728D01*
X2735506Y3448173D01*
X2734489Y3447526D01*
X2733842Y3447064D01*
X2733380Y3446694D01*
X2733195Y3446509D01*
X2732085Y3445215D01*
X2731253Y3443920D01*
X2730606Y3442626D01*
X2730236Y3441331D01*
X2729959Y3440314D01*
X2729866Y3439390D01*
X2729774Y3438835D01*
Y3438743D01*
Y3438650D01*
X2729959Y3436986D01*
X2730329Y3435229D01*
X2730976Y3433658D01*
X2731623Y3432178D01*
X2732363Y3430976D01*
X2733010Y3429959D01*
X2733195Y3429590D01*
X2733380Y3429312D01*
X2733565Y3429220D01*
Y3429127D01*
X2734304Y3428110D01*
X2735229Y3427093D01*
X2736246Y3425984D01*
X2737355Y3424874D01*
X2739667Y3422655D01*
X2741978Y3420436D01*
X2743180Y3419419D01*
X2744197Y3418495D01*
X2745214Y3417663D01*
X2746046Y3416923D01*
X2746693Y3416368D01*
X2747248Y3415906D01*
X2747618Y3415629D01*
X2747710Y3415536D01*
X2750022Y3413595D01*
X2752148Y3411746D01*
X2753905Y3410081D01*
X2755292Y3408694D01*
X2756494Y3407493D01*
X2757326Y3406660D01*
X2757788Y3406106D01*
X2757973Y3406013D01*
Y3405921D01*
X2759267Y3404349D01*
X2760284Y3402870D01*
X2761209Y3401390D01*
X2761949Y3400096D01*
X2762503Y3398987D01*
X2762873Y3398154D01*
X2763058Y3397600D01*
X2763150Y3397507D01*
Y3397415D01*
X2763520Y3396398D01*
X2763705Y3395473D01*
X2763890Y3394549D01*
X2763983Y3393717D01*
X2764075Y3392977D01*
Y3392422D01*
Y3392052D01*
Y3391960D01*
X2721638D01*
Y3399541D01*
X2753165D01*
X2752056Y3401113D01*
X2751501Y3401760D01*
X2751039Y3402407D01*
X2750576Y3402962D01*
X2750207Y3403332D01*
X2749929Y3403609D01*
X2749837Y3403702D01*
X2749374Y3404164D01*
X2748820Y3404626D01*
X2747525Y3405828D01*
X2746046Y3407215D01*
X2744474Y3408602D01*
X2742995Y3409804D01*
X2742348Y3410359D01*
X2741793Y3410913D01*
X2741331Y3411283D01*
X2740961Y3411561D01*
X2740776Y3411746D01*
X2740684Y3411838D01*
X2739204Y3413132D01*
X2737725Y3414334D01*
X2736431Y3415536D01*
X2735229Y3416553D01*
X2734119Y3417570D01*
X2733195Y3418495D01*
X2732270Y3419327D01*
X2731530Y3420067D01*
X2730791Y3420806D01*
X2730236Y3421361D01*
X2729774Y3421823D01*
X2729312Y3422286D01*
X2728849Y3422840D01*
X2728664Y3423025D01*
X2727370Y3424597D01*
X2726260Y3425984D01*
X2725336Y3427371D01*
X2724596Y3428480D01*
X2724042Y3429497D01*
X2723672Y3430237D01*
X2723487Y3430699D01*
X2723394Y3430884D01*
X2722840Y3432271D01*
X2722470Y3433658D01*
X2722100Y3434952D01*
X2721915Y3436061D01*
X2721823Y3437078D01*
X2721730Y3437818D01*
Y3438280D01*
Y3438465D01*
X2721823Y3439852D01*
X2722008Y3441147D01*
X2722192Y3442441D01*
X2722562Y3443550D01*
X2723487Y3445769D01*
X2724411Y3447526D01*
X2724966Y3448358D01*
X2725428Y3449005D01*
X2725891Y3449652D01*
X2726353Y3450115D01*
X2726723Y3450485D01*
X2726908Y3450854D01*
X2727093Y3450947D01*
X2727185Y3451039D01*
X2728202Y3451964D01*
X2729312Y3452796D01*
X2730513Y3453443D01*
X2731715Y3453998D01*
X2734119Y3454922D01*
X2736523Y3455570D01*
X2737540Y3455755D01*
X2738557Y3455939D01*
X2739482Y3456032D01*
X2740221Y3456124D01*
X2740869Y3456217D01*
X2741793D01*
X2743457Y3456124D01*
D02*
G37*
G36*
X2692422D02*
X2694178Y3455939D01*
X2695842Y3455570D01*
X2697414Y3455107D01*
X2698801Y3454460D01*
X2700188Y3453905D01*
X2701390Y3453166D01*
X2702499Y3452519D01*
X2703424Y3451871D01*
X2704348Y3451132D01*
X2705088Y3450577D01*
X2705643Y3450022D01*
X2706105Y3449468D01*
X2706475Y3449098D01*
X2706660Y3448913D01*
X2706752Y3448820D01*
X2707954Y3447156D01*
X2708971Y3445215D01*
X2709896Y3443181D01*
X2710728Y3441054D01*
X2711375Y3438835D01*
X2711930Y3436616D01*
X2712392Y3434305D01*
X2712762Y3432178D01*
X2713039Y3430052D01*
X2713224Y3428110D01*
X2713409Y3426354D01*
X2713502Y3424874D01*
Y3423580D01*
X2713594Y3422655D01*
Y3422286D01*
Y3422008D01*
Y3421916D01*
Y3421823D01*
X2713502Y3418865D01*
X2713317Y3416091D01*
X2713039Y3413502D01*
X2712577Y3411098D01*
X2712115Y3408972D01*
X2711652Y3407030D01*
X2711098Y3405274D01*
X2710451Y3403702D01*
X2709896Y3402407D01*
X2709341Y3401206D01*
X2708879Y3400281D01*
X2708324Y3399449D01*
X2707954Y3398802D01*
X2707677Y3398432D01*
X2707492Y3398154D01*
X2707399Y3398062D01*
X2706198Y3396768D01*
X2704903Y3395658D01*
X2703609Y3394734D01*
X2702314Y3393902D01*
X2700928Y3393162D01*
X2699633Y3392607D01*
X2698339Y3392145D01*
X2697044Y3391775D01*
X2695935Y3391498D01*
X2694825Y3391220D01*
X2693901Y3391035D01*
X2693069Y3390943D01*
X2692329D01*
X2691867Y3390850D01*
X2691405D01*
X2689278Y3390943D01*
X2687337Y3391313D01*
X2685580Y3391683D01*
X2684008Y3392237D01*
X2682806Y3392700D01*
X2681882Y3393162D01*
X2681512Y3393254D01*
X2681234Y3393439D01*
X2681142Y3393532D01*
X2681050D01*
X2679478Y3394641D01*
X2677998Y3395936D01*
X2676797Y3397230D01*
X2675780Y3398524D01*
X2674947Y3399726D01*
X2674393Y3400651D01*
X2674208Y3401021D01*
X2674023Y3401298D01*
X2673930Y3401390D01*
Y3401483D01*
X2673006Y3403424D01*
X2672359Y3405459D01*
X2671896Y3407308D01*
X2671619Y3409064D01*
X2671342Y3410544D01*
Y3411098D01*
X2671249Y3411653D01*
Y3412115D01*
Y3412393D01*
Y3412578D01*
Y3412670D01*
X2671342Y3414334D01*
X2671527Y3415906D01*
X2671804Y3417478D01*
X2672081Y3418865D01*
X2672544Y3420159D01*
X2673006Y3421453D01*
X2673468Y3422563D01*
X2674023Y3423580D01*
X2674578Y3424504D01*
X2675040Y3425337D01*
X2675502Y3425984D01*
X2675964Y3426631D01*
X2676242Y3427093D01*
X2676519Y3427371D01*
X2676704Y3427556D01*
X2676797Y3427648D01*
X2677814Y3428665D01*
X2678923Y3429590D01*
X2680125Y3430329D01*
X2681234Y3430976D01*
X2682344Y3431624D01*
X2683453Y3432086D01*
X2685580Y3432733D01*
X2686504Y3433010D01*
X2687429Y3433195D01*
X2688169Y3433288D01*
X2688908Y3433380D01*
X2689463Y3433473D01*
X2690203D01*
X2691867Y3433380D01*
X2693439Y3433103D01*
X2694918Y3432825D01*
X2696212Y3432456D01*
X2697322Y3431993D01*
X2698154Y3431716D01*
X2698709Y3431439D01*
X2698801Y3431346D01*
X2698894D01*
X2700373Y3430422D01*
X2701667Y3429405D01*
X2702869Y3428388D01*
X2703794Y3427278D01*
X2704626Y3426354D01*
X2705273Y3425614D01*
X2705643Y3425059D01*
X2705735Y3424967D01*
Y3426631D01*
X2705643Y3428295D01*
X2705550Y3429774D01*
X2705365Y3431254D01*
X2705273Y3432548D01*
X2705088Y3433750D01*
X2704903Y3434860D01*
X2704626Y3435877D01*
X2704441Y3436801D01*
X2704256Y3437541D01*
X2704071Y3438188D01*
X2703979Y3438743D01*
X2703794Y3439113D01*
X2703701Y3439390D01*
X2703609Y3439575D01*
Y3439667D01*
X2702684Y3441516D01*
X2701760Y3443181D01*
X2700743Y3444475D01*
X2699818Y3445584D01*
X2698986Y3446509D01*
X2698339Y3447156D01*
X2697876Y3447526D01*
X2697692Y3447618D01*
X2696582Y3448358D01*
X2695473Y3448820D01*
X2694363Y3449190D01*
X2693254Y3449468D01*
X2692422Y3449652D01*
X2691682Y3449745D01*
X2691035D01*
X2689371Y3449560D01*
X2687799Y3449190D01*
X2686504Y3448635D01*
X2685302Y3448081D01*
X2684378Y3447434D01*
X2683731Y3446879D01*
X2683361Y3446509D01*
X2683176Y3446324D01*
X2682529Y3445492D01*
X2681882Y3444475D01*
X2681327Y3443365D01*
X2680957Y3442256D01*
X2680587Y3441239D01*
X2680310Y3440407D01*
X2680217Y3439852D01*
X2680125Y3439760D01*
Y3439667D01*
X2672266Y3440314D01*
X2672821Y3442903D01*
X2673653Y3445215D01*
X2674578Y3447249D01*
X2675595Y3448913D01*
X2676612Y3450207D01*
X2676981Y3450762D01*
X2677444Y3451224D01*
X2677721Y3451502D01*
X2677998Y3451779D01*
X2678091Y3451871D01*
X2678183Y3451964D01*
X2679108Y3452704D01*
X2680125Y3453351D01*
X2682159Y3454460D01*
X2684193Y3455200D01*
X2686135Y3455662D01*
X2687891Y3456032D01*
X2688631Y3456124D01*
X2689278D01*
X2689833Y3456217D01*
X2690572D01*
X2692422Y3456124D01*
D02*
G37*
G36*
X2799671Y3456864D02*
X2802629Y3456402D01*
X2805218Y3455847D01*
X2806420Y3455477D01*
X2807529Y3455107D01*
X2808546Y3454738D01*
X2809471Y3454368D01*
X2810211Y3454090D01*
X2810950Y3453813D01*
X2811412Y3453536D01*
X2811782Y3453351D01*
X2812060Y3453258D01*
X2812152Y3453166D01*
X2814648Y3451594D01*
X2816775Y3449745D01*
X2818624Y3447896D01*
X2820196Y3446047D01*
X2821398Y3444382D01*
X2821860Y3443643D01*
X2822230Y3442996D01*
X2822600Y3442533D01*
X2822785Y3442164D01*
X2822877Y3441886D01*
X2822969Y3441794D01*
X2824264Y3438928D01*
X2825188Y3435969D01*
X2825836Y3433010D01*
X2826298Y3430329D01*
X2826483Y3429127D01*
X2826575Y3427925D01*
X2826668Y3427001D01*
Y3426076D01*
X2826760Y3425429D01*
Y3424874D01*
Y3424504D01*
Y3424412D01*
X2826575Y3421084D01*
X2826205Y3417848D01*
X2825743Y3414981D01*
X2825373Y3413595D01*
X2825096Y3412393D01*
X2824819Y3411283D01*
X2824449Y3410266D01*
X2824171Y3409342D01*
X2823986Y3408602D01*
X2823709Y3408047D01*
X2823617Y3407585D01*
X2823432Y3407308D01*
Y3407215D01*
X2822045Y3404442D01*
X2820473Y3401945D01*
X2818809Y3399819D01*
X2817977Y3398987D01*
X2817237Y3398154D01*
X2816498Y3397415D01*
X2815758Y3396768D01*
X2815111Y3396213D01*
X2814556Y3395843D01*
X2814186Y3395473D01*
X2813816Y3395196D01*
X2813631Y3395103D01*
X2813539Y3395011D01*
X2812245Y3394271D01*
X2810950Y3393624D01*
X2808177Y3392607D01*
X2805403Y3391867D01*
X2802722Y3391405D01*
X2801427Y3391220D01*
X2800318Y3391035D01*
X2799301Y3390943D01*
X2798469D01*
X2797729Y3390850D01*
X2796712D01*
X2794863Y3390943D01*
X2793106Y3391128D01*
X2791442Y3391313D01*
X2789870Y3391683D01*
X2788391Y3392145D01*
X2787004Y3392607D01*
X2785710Y3393069D01*
X2784508Y3393624D01*
X2783491Y3394086D01*
X2782474Y3394549D01*
X2781734Y3395011D01*
X2780994Y3395473D01*
X2780532Y3395843D01*
X2780070Y3396028D01*
X2779885Y3396213D01*
X2779793Y3396305D01*
X2778498Y3397415D01*
X2777389Y3398524D01*
X2776372Y3399819D01*
X2775355Y3401113D01*
X2773690Y3403702D01*
X2772396Y3406291D01*
X2771841Y3407493D01*
X2771379Y3408602D01*
X2771009Y3409619D01*
X2770732Y3410451D01*
X2770454Y3411191D01*
X2770270Y3411746D01*
X2770177Y3412115D01*
Y3412208D01*
X2778683Y3414334D01*
X2779053Y3412855D01*
X2779515Y3411468D01*
X2779977Y3410174D01*
X2780440Y3408972D01*
X2780994Y3407862D01*
X2781549Y3406938D01*
X2782196Y3406013D01*
X2782751Y3405181D01*
X2783213Y3404442D01*
X2783768Y3403887D01*
X2784230Y3403332D01*
X2784600Y3402870D01*
X2784970Y3402592D01*
X2785247Y3402315D01*
X2785340Y3402223D01*
X2785432Y3402130D01*
X2786357Y3401390D01*
X2787374Y3400836D01*
X2789408Y3399819D01*
X2791350Y3399079D01*
X2793291Y3398617D01*
X2794955Y3398247D01*
X2795602Y3398154D01*
X2796250D01*
X2796804Y3398062D01*
X2797452D01*
X2799578Y3398154D01*
X2801612Y3398524D01*
X2803461Y3398987D01*
X2805125Y3399541D01*
X2806420Y3400096D01*
X2806975Y3400373D01*
X2807437Y3400558D01*
X2807807Y3400743D01*
X2808084Y3400928D01*
X2808269Y3401021D01*
X2808361D01*
X2810118Y3402315D01*
X2811597Y3403702D01*
X2812892Y3405274D01*
X2813909Y3406753D01*
X2814741Y3408047D01*
X2815296Y3409157D01*
X2815481Y3409619D01*
X2815665Y3409896D01*
X2815758Y3410081D01*
Y3410174D01*
X2816498Y3412578D01*
X2817052Y3414981D01*
X2817515Y3417385D01*
X2817792Y3419604D01*
X2817884Y3420621D01*
X2817977Y3421546D01*
Y3422378D01*
X2818069Y3423025D01*
Y3423580D01*
Y3424042D01*
Y3424320D01*
Y3424412D01*
X2817977Y3426816D01*
X2817792Y3429035D01*
X2817422Y3431069D01*
X2817052Y3432918D01*
X2816775Y3434490D01*
X2816590Y3435137D01*
X2816405Y3435692D01*
X2816313Y3436154D01*
X2816220Y3436431D01*
X2816128Y3436616D01*
Y3436709D01*
X2815203Y3438835D01*
X2814186Y3440777D01*
X2813077Y3442348D01*
X2811875Y3443735D01*
X2810858Y3444845D01*
X2810026Y3445584D01*
X2809378Y3446047D01*
X2809286Y3446232D01*
X2809194D01*
X2807252Y3447434D01*
X2805125Y3448358D01*
X2803091Y3449005D01*
X2801150Y3449375D01*
X2799393Y3449652D01*
X2798654Y3449745D01*
X2798006D01*
X2797544Y3449837D01*
X2796804D01*
X2794493Y3449745D01*
X2792367Y3449375D01*
X2790610Y3448820D01*
X2789038Y3448266D01*
X2787836Y3447618D01*
X2786912Y3447156D01*
X2786357Y3446786D01*
X2786172Y3446601D01*
X2784693Y3445215D01*
X2783306Y3443643D01*
X2782196Y3441979D01*
X2781272Y3440314D01*
X2780532Y3438835D01*
X2780255Y3438095D01*
X2780070Y3437541D01*
X2779885Y3437078D01*
X2779700Y3436709D01*
X2779608Y3436524D01*
Y3436431D01*
X2771287Y3438373D01*
X2771841Y3440037D01*
X2772396Y3441516D01*
X2773136Y3442903D01*
X2773783Y3444290D01*
X2774523Y3445492D01*
X2775355Y3446601D01*
X2776094Y3447711D01*
X2776834Y3448635D01*
X2777574Y3449375D01*
X2778221Y3450115D01*
X2778868Y3450762D01*
X2779330Y3451224D01*
X2779793Y3451687D01*
X2780162Y3451964D01*
X2780347Y3452056D01*
X2780440Y3452149D01*
X2781734Y3452981D01*
X2783028Y3453813D01*
X2784323Y3454460D01*
X2785710Y3455015D01*
X2788483Y3455847D01*
X2790980Y3456402D01*
X2792182Y3456679D01*
X2793199Y3456772D01*
X2794216Y3456864D01*
X2795048Y3456957D01*
X2795695Y3457049D01*
X2796620D01*
X2799671Y3456864D01*
D02*
G37*
G36*
X771582Y3456032D02*
X774079Y3455570D01*
X776205Y3454830D01*
X778054Y3454090D01*
X778886Y3453628D01*
X779534Y3453258D01*
X780181Y3452888D01*
X780643Y3452519D01*
X781013Y3452241D01*
X781290Y3452056D01*
X781475Y3451964D01*
X781568Y3451871D01*
X783324Y3450115D01*
X784711Y3448173D01*
X785821Y3446139D01*
X786745Y3444105D01*
X787300Y3442348D01*
X787577Y3441609D01*
X787762Y3440962D01*
X787855Y3440407D01*
X787947Y3440037D01*
X788040Y3439760D01*
Y3439667D01*
X780181Y3438280D01*
X779811Y3440314D01*
X779256Y3442071D01*
X778609Y3443550D01*
X777962Y3444752D01*
X777315Y3445677D01*
X776760Y3446324D01*
X776390Y3446786D01*
X776298Y3446879D01*
X775096Y3447803D01*
X773801Y3448543D01*
X772599Y3449005D01*
X771397Y3449375D01*
X770288Y3449560D01*
X769456Y3449745D01*
X768716D01*
X767052Y3449652D01*
X765573Y3449283D01*
X764278Y3448820D01*
X763169Y3448358D01*
X762337Y3447803D01*
X761690Y3447341D01*
X761227Y3446971D01*
X761135Y3446879D01*
X760118Y3445769D01*
X759378Y3444567D01*
X758916Y3443365D01*
X758546Y3442256D01*
X758361Y3441239D01*
X758176Y3440499D01*
Y3439945D01*
Y3439852D01*
Y3439760D01*
Y3438743D01*
X758361Y3437818D01*
X758823Y3436246D01*
X759471Y3434860D01*
X760210Y3433658D01*
X760950Y3432825D01*
X761597Y3432178D01*
X762059Y3431808D01*
X762152Y3431716D01*
X762244D01*
X763816Y3430884D01*
X765295Y3430237D01*
X766867Y3429774D01*
X768254Y3429497D01*
X769456Y3429312D01*
X770473Y3429127D01*
X771675D01*
X772045Y3429220D01*
X772507D01*
X773432Y3422286D01*
X772230Y3422563D01*
X771120Y3422748D01*
X770196Y3422933D01*
X769363Y3423025D01*
X768716Y3423118D01*
X767884D01*
X765943Y3422933D01*
X764186Y3422563D01*
X762614Y3422008D01*
X761320Y3421361D01*
X760303Y3420714D01*
X759563Y3420159D01*
X759101Y3419789D01*
X758916Y3419604D01*
X757714Y3418217D01*
X756789Y3416738D01*
X756142Y3415259D01*
X755772Y3413780D01*
X755495Y3412578D01*
X755403Y3411561D01*
X755310Y3411191D01*
Y3410913D01*
Y3410729D01*
Y3410636D01*
X755495Y3408602D01*
X755957Y3406753D01*
X756512Y3405181D01*
X757252Y3403794D01*
X757991Y3402685D01*
X758546Y3401853D01*
X759008Y3401298D01*
X759193Y3401113D01*
X760673Y3399819D01*
X762244Y3398894D01*
X763816Y3398247D01*
X765295Y3397785D01*
X766590Y3397507D01*
X767607Y3397415D01*
X767977Y3397322D01*
X768531D01*
X770196Y3397415D01*
X771767Y3397785D01*
X773154Y3398247D01*
X774264Y3398802D01*
X775188Y3399264D01*
X775928Y3399726D01*
X776298Y3400096D01*
X776483Y3400189D01*
X777592Y3401483D01*
X778517Y3402962D01*
X779349Y3404534D01*
X779996Y3406198D01*
X780458Y3407585D01*
X780643Y3408232D01*
X780736Y3408787D01*
X780828Y3409249D01*
X780920Y3409619D01*
X781013Y3409804D01*
Y3409896D01*
X788872Y3408879D01*
X788687Y3407400D01*
X788409Y3406013D01*
X787577Y3403424D01*
X786560Y3401206D01*
X786006Y3400281D01*
X785451Y3399356D01*
X784896Y3398524D01*
X784341Y3397877D01*
X783879Y3397230D01*
X783417Y3396768D01*
X783139Y3396398D01*
X782862Y3396120D01*
X782677Y3395936D01*
X782585Y3395843D01*
X781475Y3395011D01*
X780366Y3394179D01*
X779256Y3393532D01*
X778054Y3392977D01*
X775743Y3392052D01*
X773524Y3391498D01*
X772507Y3391313D01*
X771582Y3391128D01*
X770750Y3391035D01*
X770011Y3390943D01*
X769456Y3390850D01*
X768624D01*
X766867Y3390943D01*
X765295Y3391128D01*
X763724Y3391405D01*
X762244Y3391775D01*
X760858Y3392237D01*
X759656Y3392700D01*
X758454Y3393254D01*
X757437Y3393809D01*
X756420Y3394271D01*
X755588Y3394826D01*
X754848Y3395288D01*
X754293Y3395751D01*
X753831Y3396120D01*
X753461Y3396398D01*
X753276Y3396583D01*
X753184Y3396675D01*
X752074Y3397785D01*
X751150Y3398987D01*
X750318Y3400189D01*
X749578Y3401390D01*
X749023Y3402500D01*
X748468Y3403702D01*
X747729Y3405921D01*
X747544Y3406938D01*
X747359Y3407862D01*
X747174Y3408694D01*
X747082Y3409434D01*
X746989Y3409989D01*
Y3410451D01*
Y3410729D01*
Y3410821D01*
X747082Y3413040D01*
X747451Y3415074D01*
X748006Y3416831D01*
X748561Y3418310D01*
X749116Y3419512D01*
X749670Y3420436D01*
X750040Y3420991D01*
X750133Y3421176D01*
X751427Y3422563D01*
X752814Y3423765D01*
X754293Y3424689D01*
X755772Y3425429D01*
X757067Y3425984D01*
X758084Y3426354D01*
X758454Y3426446D01*
X758731Y3426538D01*
X758916Y3426631D01*
X759008D01*
X757437Y3427463D01*
X756142Y3428295D01*
X755033Y3429220D01*
X754108Y3430052D01*
X753369Y3430791D01*
X752814Y3431439D01*
X752536Y3431808D01*
X752444Y3431993D01*
X751704Y3433288D01*
X751150Y3434582D01*
X750687Y3435877D01*
X750410Y3437078D01*
X750225Y3438095D01*
X750133Y3438835D01*
Y3439390D01*
Y3439575D01*
X750225Y3441147D01*
X750502Y3442718D01*
X750872Y3444105D01*
X751335Y3445307D01*
X751797Y3446324D01*
X752167Y3447156D01*
X752444Y3447618D01*
X752536Y3447803D01*
X753461Y3449190D01*
X754570Y3450392D01*
X755680Y3451409D01*
X756789Y3452334D01*
X757714Y3452981D01*
X758546Y3453536D01*
X759101Y3453813D01*
X759193Y3453905D01*
X759286D01*
X760950Y3454645D01*
X762614Y3455200D01*
X764278Y3455662D01*
X765758Y3455939D01*
X766960Y3456124D01*
X767977Y3456217D01*
X770288D01*
X771582Y3456032D01*
D02*
G37*
G36*
X819197Y3456124D02*
X820769Y3456032D01*
X822248Y3455755D01*
X823635Y3455477D01*
X824930Y3455107D01*
X826131Y3454738D01*
X827241Y3454275D01*
X828258Y3453813D01*
X829182Y3453351D01*
X829922Y3452888D01*
X830569Y3452519D01*
X831124Y3452149D01*
X831586Y3451871D01*
X831864Y3451594D01*
X832049Y3451502D01*
X832141Y3451409D01*
X833066Y3450485D01*
X833898Y3449468D01*
X834730Y3448358D01*
X835377Y3447249D01*
X836487Y3445030D01*
X837226Y3442811D01*
X837504Y3441794D01*
X837781Y3440777D01*
X837966Y3439945D01*
X838151Y3439205D01*
X838243Y3438558D01*
Y3438095D01*
X838336Y3437818D01*
Y3437726D01*
X830292Y3436894D01*
X830107Y3439020D01*
X829737Y3440869D01*
X829182Y3442533D01*
X828535Y3443828D01*
X827981Y3444937D01*
X827426Y3445677D01*
X827056Y3446139D01*
X826871Y3446324D01*
X825484Y3447434D01*
X824005Y3448266D01*
X822433Y3448913D01*
X821046Y3449283D01*
X819752Y3449560D01*
X818643Y3449652D01*
X818273Y3449745D01*
X817718D01*
X815776Y3449652D01*
X814020Y3449283D01*
X812540Y3448728D01*
X811246Y3448173D01*
X810229Y3447526D01*
X809582Y3447064D01*
X809120Y3446694D01*
X808935Y3446509D01*
X807825Y3445215D01*
X806993Y3443920D01*
X806346Y3442626D01*
X805976Y3441331D01*
X805699Y3440314D01*
X805606Y3439390D01*
X805514Y3438835D01*
Y3438743D01*
Y3438650D01*
X805699Y3436986D01*
X806068Y3435229D01*
X806716Y3433658D01*
X807363Y3432178D01*
X808103Y3430976D01*
X808750Y3429959D01*
X808935Y3429590D01*
X809120Y3429312D01*
X809304Y3429220D01*
Y3429127D01*
X810044Y3428110D01*
X810969Y3427093D01*
X811986Y3425984D01*
X813095Y3424874D01*
X815407Y3422655D01*
X817718Y3420436D01*
X818920Y3419419D01*
X819937Y3418495D01*
X820954Y3417663D01*
X821786Y3416923D01*
X822433Y3416368D01*
X822988Y3415906D01*
X823358Y3415629D01*
X823450Y3415536D01*
X825762Y3413595D01*
X827888Y3411746D01*
X829645Y3410081D01*
X831032Y3408694D01*
X832234Y3407493D01*
X833066Y3406660D01*
X833528Y3406106D01*
X833713Y3406013D01*
Y3405921D01*
X835007Y3404349D01*
X836024Y3402870D01*
X836949Y3401390D01*
X837688Y3400096D01*
X838243Y3398987D01*
X838613Y3398154D01*
X838798Y3397600D01*
X838890Y3397507D01*
Y3397415D01*
X839260Y3396398D01*
X839445Y3395473D01*
X839630Y3394549D01*
X839722Y3393717D01*
X839815Y3392977D01*
Y3392422D01*
Y3392052D01*
Y3391960D01*
X797378D01*
Y3399541D01*
X828905D01*
X827796Y3401113D01*
X827241Y3401760D01*
X826779Y3402407D01*
X826316Y3402962D01*
X825947Y3403332D01*
X825669Y3403609D01*
X825577Y3403702D01*
X825114Y3404164D01*
X824560Y3404626D01*
X823265Y3405828D01*
X821786Y3407215D01*
X820214Y3408602D01*
X818735Y3409804D01*
X818088Y3410359D01*
X817533Y3410913D01*
X817071Y3411283D01*
X816701Y3411561D01*
X816516Y3411746D01*
X816424Y3411838D01*
X814944Y3413132D01*
X813465Y3414334D01*
X812171Y3415536D01*
X810969Y3416553D01*
X809859Y3417570D01*
X808935Y3418495D01*
X808010Y3419327D01*
X807270Y3420067D01*
X806531Y3420806D01*
X805976Y3421361D01*
X805514Y3421823D01*
X805051Y3422286D01*
X804589Y3422840D01*
X804404Y3423025D01*
X803110Y3424597D01*
X802000Y3425984D01*
X801076Y3427371D01*
X800336Y3428480D01*
X799781Y3429497D01*
X799412Y3430237D01*
X799227Y3430699D01*
X799134Y3430884D01*
X798580Y3432271D01*
X798210Y3433658D01*
X797840Y3434952D01*
X797655Y3436061D01*
X797563Y3437078D01*
X797470Y3437818D01*
Y3438280D01*
Y3438465D01*
X797563Y3439852D01*
X797747Y3441147D01*
X797932Y3442441D01*
X798302Y3443550D01*
X799227Y3445769D01*
X800151Y3447526D01*
X800706Y3448358D01*
X801168Y3449005D01*
X801631Y3449652D01*
X802093Y3450115D01*
X802463Y3450485D01*
X802648Y3450854D01*
X802833Y3450947D01*
X802925Y3451039D01*
X803942Y3451964D01*
X805051Y3452796D01*
X806253Y3453443D01*
X807455Y3453998D01*
X809859Y3454922D01*
X812263Y3455570D01*
X813280Y3455755D01*
X814297Y3455939D01*
X815222Y3456032D01*
X815961Y3456124D01*
X816608Y3456217D01*
X817533D01*
X819197Y3456124D01*
D02*
G37*
G36*
X875410Y3456864D02*
X878369Y3456402D01*
X880958Y3455847D01*
X882160Y3455477D01*
X883269Y3455107D01*
X884286Y3454738D01*
X885211Y3454368D01*
X885950Y3454090D01*
X886690Y3453813D01*
X887152Y3453536D01*
X887522Y3453351D01*
X887800Y3453258D01*
X887892Y3453166D01*
X890388Y3451594D01*
X892515Y3449745D01*
X894364Y3447896D01*
X895936Y3446047D01*
X897138Y3444382D01*
X897600Y3443643D01*
X897970Y3442996D01*
X898340Y3442533D01*
X898524Y3442164D01*
X898617Y3441886D01*
X898709Y3441794D01*
X900004Y3438928D01*
X900928Y3435969D01*
X901576Y3433010D01*
X902038Y3430329D01*
X902223Y3429127D01*
X902315Y3427925D01*
X902408Y3427001D01*
Y3426076D01*
X902500Y3425429D01*
Y3424874D01*
Y3424504D01*
Y3424412D01*
X902315Y3421084D01*
X901945Y3417848D01*
X901483Y3414981D01*
X901113Y3413595D01*
X900836Y3412393D01*
X900559Y3411283D01*
X900189Y3410266D01*
X899911Y3409342D01*
X899726Y3408602D01*
X899449Y3408047D01*
X899357Y3407585D01*
X899172Y3407308D01*
Y3407215D01*
X897785Y3404442D01*
X896213Y3401945D01*
X894549Y3399819D01*
X893717Y3398987D01*
X892977Y3398154D01*
X892237Y3397415D01*
X891498Y3396768D01*
X890851Y3396213D01*
X890296Y3395843D01*
X889926Y3395473D01*
X889556Y3395196D01*
X889371Y3395103D01*
X889279Y3395011D01*
X887985Y3394271D01*
X886690Y3393624D01*
X883916Y3392607D01*
X881143Y3391867D01*
X878462Y3391405D01*
X877167Y3391220D01*
X876058Y3391035D01*
X875041Y3390943D01*
X874209D01*
X873469Y3390850D01*
X872452D01*
X870603Y3390943D01*
X868846Y3391128D01*
X867182Y3391313D01*
X865610Y3391683D01*
X864131Y3392145D01*
X862744Y3392607D01*
X861450Y3393069D01*
X860248Y3393624D01*
X859231Y3394086D01*
X858214Y3394549D01*
X857474Y3395011D01*
X856734Y3395473D01*
X856272Y3395843D01*
X855810Y3396028D01*
X855625Y3396213D01*
X855532Y3396305D01*
X854238Y3397415D01*
X853129Y3398524D01*
X852112Y3399819D01*
X851095Y3401113D01*
X849430Y3403702D01*
X848136Y3406291D01*
X847581Y3407493D01*
X847119Y3408602D01*
X846749Y3409619D01*
X846472Y3410451D01*
X846194Y3411191D01*
X846009Y3411746D01*
X845917Y3412115D01*
Y3412208D01*
X854423Y3414334D01*
X854793Y3412855D01*
X855255Y3411468D01*
X855717Y3410174D01*
X856180Y3408972D01*
X856734Y3407862D01*
X857289Y3406938D01*
X857936Y3406013D01*
X858491Y3405181D01*
X858953Y3404442D01*
X859508Y3403887D01*
X859970Y3403332D01*
X860340Y3402870D01*
X860710Y3402592D01*
X860987Y3402315D01*
X861080Y3402223D01*
X861172Y3402130D01*
X862097Y3401390D01*
X863114Y3400836D01*
X865148Y3399819D01*
X867089Y3399079D01*
X869031Y3398617D01*
X870695Y3398247D01*
X871342Y3398154D01*
X871990D01*
X872544Y3398062D01*
X873192D01*
X875318Y3398154D01*
X877352Y3398524D01*
X879201Y3398987D01*
X880865Y3399541D01*
X882160Y3400096D01*
X882715Y3400373D01*
X883177Y3400558D01*
X883547Y3400743D01*
X883824Y3400928D01*
X884009Y3401021D01*
X884101D01*
X885858Y3402315D01*
X887337Y3403702D01*
X888632Y3405274D01*
X889649Y3406753D01*
X890481Y3408047D01*
X891036Y3409157D01*
X891220Y3409619D01*
X891405Y3409896D01*
X891498Y3410081D01*
Y3410174D01*
X892237Y3412578D01*
X892792Y3414981D01*
X893254Y3417385D01*
X893532Y3419604D01*
X893624Y3420621D01*
X893717Y3421546D01*
Y3422378D01*
X893809Y3423025D01*
Y3423580D01*
Y3424042D01*
Y3424320D01*
Y3424412D01*
X893717Y3426816D01*
X893532Y3429035D01*
X893162Y3431069D01*
X892792Y3432918D01*
X892515Y3434490D01*
X892330Y3435137D01*
X892145Y3435692D01*
X892053Y3436154D01*
X891960Y3436431D01*
X891868Y3436616D01*
Y3436709D01*
X890943Y3438835D01*
X889926Y3440777D01*
X888817Y3442348D01*
X887615Y3443735D01*
X886598Y3444845D01*
X885766Y3445584D01*
X885118Y3446047D01*
X885026Y3446232D01*
X884933D01*
X882992Y3447434D01*
X880865Y3448358D01*
X878831Y3449005D01*
X876890Y3449375D01*
X875133Y3449652D01*
X874393Y3449745D01*
X873746D01*
X873284Y3449837D01*
X872544D01*
X870233Y3449745D01*
X868106Y3449375D01*
X866350Y3448820D01*
X864778Y3448266D01*
X863576Y3447618D01*
X862652Y3447156D01*
X862097Y3446786D01*
X861912Y3446601D01*
X860433Y3445215D01*
X859046Y3443643D01*
X857936Y3441979D01*
X857012Y3440314D01*
X856272Y3438835D01*
X855995Y3438095D01*
X855810Y3437541D01*
X855625Y3437078D01*
X855440Y3436709D01*
X855348Y3436524D01*
Y3436431D01*
X847026Y3438373D01*
X847581Y3440037D01*
X848136Y3441516D01*
X848876Y3442903D01*
X849523Y3444290D01*
X850262Y3445492D01*
X851095Y3446601D01*
X851834Y3447711D01*
X852574Y3448635D01*
X853314Y3449375D01*
X853961Y3450115D01*
X854608Y3450762D01*
X855070Y3451224D01*
X855532Y3451687D01*
X855902Y3451964D01*
X856087Y3452056D01*
X856180Y3452149D01*
X857474Y3452981D01*
X858768Y3453813D01*
X860063Y3454460D01*
X861450Y3455015D01*
X864223Y3455847D01*
X866720Y3456402D01*
X867922Y3456679D01*
X868939Y3456772D01*
X869956Y3456864D01*
X870788Y3456957D01*
X871435Y3457049D01*
X872359D01*
X875410Y3456864D01*
D02*
G37*
G36*
X543537Y3456124D02*
X545109Y3456032D01*
X546588Y3455755D01*
X547975Y3455477D01*
X549269Y3455107D01*
X550471Y3454738D01*
X551581Y3454275D01*
X552598Y3453813D01*
X553522Y3453351D01*
X554262Y3452888D01*
X554909Y3452519D01*
X555464Y3452149D01*
X555926Y3451871D01*
X556204Y3451594D01*
X556389Y3451502D01*
X556481Y3451409D01*
X557406Y3450485D01*
X558238Y3449468D01*
X559070Y3448358D01*
X559717Y3447249D01*
X560826Y3445030D01*
X561566Y3442811D01*
X561843Y3441794D01*
X562121Y3440777D01*
X562306Y3439945D01*
X562491Y3439205D01*
X562583Y3438558D01*
Y3438095D01*
X562676Y3437818D01*
Y3437726D01*
X554632Y3436894D01*
X554447Y3439020D01*
X554077Y3440869D01*
X553522Y3442533D01*
X552875Y3443828D01*
X552320Y3444937D01*
X551766Y3445677D01*
X551396Y3446139D01*
X551211Y3446324D01*
X549824Y3447434D01*
X548345Y3448266D01*
X546773Y3448913D01*
X545386Y3449283D01*
X544092Y3449560D01*
X542982Y3449652D01*
X542613Y3449745D01*
X542058D01*
X540116Y3449652D01*
X538360Y3449283D01*
X536880Y3448728D01*
X535586Y3448173D01*
X534569Y3447526D01*
X533922Y3447064D01*
X533459Y3446694D01*
X533275Y3446509D01*
X532165Y3445215D01*
X531333Y3443920D01*
X530686Y3442626D01*
X530316Y3441331D01*
X530039Y3440314D01*
X529946Y3439390D01*
X529854Y3438835D01*
Y3438743D01*
Y3438650D01*
X530039Y3436986D01*
X530408Y3435229D01*
X531056Y3433658D01*
X531703Y3432178D01*
X532442Y3430976D01*
X533090Y3429959D01*
X533275Y3429590D01*
X533459Y3429312D01*
X533644Y3429220D01*
Y3429127D01*
X534384Y3428110D01*
X535309Y3427093D01*
X536326Y3425984D01*
X537435Y3424874D01*
X539746Y3422655D01*
X542058Y3420436D01*
X543260Y3419419D01*
X544277Y3418495D01*
X545294Y3417663D01*
X546126Y3416923D01*
X546773Y3416368D01*
X547328Y3415906D01*
X547698Y3415629D01*
X547790Y3415536D01*
X550102Y3413595D01*
X552228Y3411746D01*
X553985Y3410081D01*
X555372Y3408694D01*
X556573Y3407493D01*
X557406Y3406660D01*
X557868Y3406106D01*
X558053Y3406013D01*
Y3405921D01*
X559347Y3404349D01*
X560364Y3402870D01*
X561289Y3401390D01*
X562028Y3400096D01*
X562583Y3398987D01*
X562953Y3398154D01*
X563138Y3397600D01*
X563230Y3397507D01*
Y3397415D01*
X563600Y3396398D01*
X563785Y3395473D01*
X563970Y3394549D01*
X564062Y3393717D01*
X564155Y3392977D01*
Y3392422D01*
Y3392052D01*
Y3391960D01*
X521718D01*
Y3399541D01*
X553245D01*
X552136Y3401113D01*
X551581Y3401760D01*
X551119Y3402407D01*
X550656Y3402962D01*
X550286Y3403332D01*
X550009Y3403609D01*
X549917Y3403702D01*
X549454Y3404164D01*
X548900Y3404626D01*
X547605Y3405828D01*
X546126Y3407215D01*
X544554Y3408602D01*
X543075Y3409804D01*
X542428Y3410359D01*
X541873Y3410913D01*
X541411Y3411283D01*
X541041Y3411561D01*
X540856Y3411746D01*
X540763Y3411838D01*
X539284Y3413132D01*
X537805Y3414334D01*
X536510Y3415536D01*
X535309Y3416553D01*
X534199Y3417570D01*
X533275Y3418495D01*
X532350Y3419327D01*
X531610Y3420067D01*
X530871Y3420806D01*
X530316Y3421361D01*
X529854Y3421823D01*
X529391Y3422286D01*
X528929Y3422840D01*
X528744Y3423025D01*
X527450Y3424597D01*
X526340Y3425984D01*
X525416Y3427371D01*
X524676Y3428480D01*
X524121Y3429497D01*
X523752Y3430237D01*
X523567Y3430699D01*
X523474Y3430884D01*
X522919Y3432271D01*
X522550Y3433658D01*
X522180Y3434952D01*
X521995Y3436061D01*
X521902Y3437078D01*
X521810Y3437818D01*
Y3438280D01*
Y3438465D01*
X521902Y3439852D01*
X522087Y3441147D01*
X522272Y3442441D01*
X522642Y3443550D01*
X523567Y3445769D01*
X524491Y3447526D01*
X525046Y3448358D01*
X525508Y3449005D01*
X525970Y3449652D01*
X526433Y3450115D01*
X526803Y3450485D01*
X526988Y3450854D01*
X527172Y3450947D01*
X527265Y3451039D01*
X528282Y3451964D01*
X529391Y3452796D01*
X530593Y3453443D01*
X531795Y3453998D01*
X534199Y3454922D01*
X536603Y3455570D01*
X537620Y3455755D01*
X538637Y3455939D01*
X539562Y3456032D01*
X540301Y3456124D01*
X540948Y3456217D01*
X541873D01*
X543537Y3456124D01*
D02*
G37*
G36*
X493796D02*
X495368Y3456032D01*
X496847Y3455755D01*
X498234Y3455477D01*
X499528Y3455107D01*
X500730Y3454738D01*
X501839Y3454275D01*
X502857Y3453813D01*
X503781Y3453351D01*
X504521Y3452888D01*
X505168Y3452519D01*
X505723Y3452149D01*
X506185Y3451871D01*
X506462Y3451594D01*
X506647Y3451502D01*
X506740Y3451409D01*
X507664Y3450485D01*
X508496Y3449468D01*
X509328Y3448358D01*
X509976Y3447249D01*
X511085Y3445030D01*
X511825Y3442811D01*
X512102Y3441794D01*
X512379Y3440777D01*
X512564Y3439945D01*
X512749Y3439205D01*
X512842Y3438558D01*
Y3438095D01*
X512934Y3437818D01*
Y3437726D01*
X504891Y3436894D01*
X504706Y3439020D01*
X504336Y3440869D01*
X503781Y3442533D01*
X503134Y3443828D01*
X502579Y3444937D01*
X502024Y3445677D01*
X501655Y3446139D01*
X501470Y3446324D01*
X500083Y3447434D01*
X498604Y3448266D01*
X497032Y3448913D01*
X495645Y3449283D01*
X494351Y3449560D01*
X493241Y3449652D01*
X492871Y3449745D01*
X492317D01*
X490375Y3449652D01*
X488618Y3449283D01*
X487139Y3448728D01*
X485845Y3448173D01*
X484828Y3447526D01*
X484180Y3447064D01*
X483718Y3446694D01*
X483533Y3446509D01*
X482424Y3445215D01*
X481592Y3443920D01*
X480944Y3442626D01*
X480575Y3441331D01*
X480297Y3440314D01*
X480205Y3439390D01*
X480112Y3438835D01*
Y3438743D01*
Y3438650D01*
X480297Y3436986D01*
X480667Y3435229D01*
X481314Y3433658D01*
X481961Y3432178D01*
X482701Y3430976D01*
X483348Y3429959D01*
X483533Y3429590D01*
X483718Y3429312D01*
X483903Y3429220D01*
Y3429127D01*
X484643Y3428110D01*
X485567Y3427093D01*
X486584Y3425984D01*
X487694Y3424874D01*
X490005Y3422655D01*
X492317Y3420436D01*
X493518Y3419419D01*
X494535Y3418495D01*
X495552Y3417663D01*
X496385Y3416923D01*
X497032Y3416368D01*
X497587Y3415906D01*
X497956Y3415629D01*
X498049Y3415536D01*
X500360Y3413595D01*
X502487Y3411746D01*
X504243Y3410081D01*
X505630Y3408694D01*
X506832Y3407493D01*
X507664Y3406660D01*
X508126Y3406106D01*
X508311Y3406013D01*
Y3405921D01*
X509606Y3404349D01*
X510623Y3402870D01*
X511547Y3401390D01*
X512287Y3400096D01*
X512842Y3398987D01*
X513212Y3398154D01*
X513396Y3397600D01*
X513489Y3397507D01*
Y3397415D01*
X513859Y3396398D01*
X514044Y3395473D01*
X514229Y3394549D01*
X514321Y3393717D01*
X514413Y3392977D01*
Y3392422D01*
Y3392052D01*
Y3391960D01*
X471976D01*
Y3399541D01*
X503504D01*
X502394Y3401113D01*
X501839Y3401760D01*
X501377Y3402407D01*
X500915Y3402962D01*
X500545Y3403332D01*
X500268Y3403609D01*
X500175Y3403702D01*
X499713Y3404164D01*
X499158Y3404626D01*
X497864Y3405828D01*
X496385Y3407215D01*
X494813Y3408602D01*
X493334Y3409804D01*
X492686Y3410359D01*
X492132Y3410913D01*
X491669Y3411283D01*
X491299Y3411561D01*
X491115Y3411746D01*
X491022Y3411838D01*
X489543Y3413132D01*
X488064Y3414334D01*
X486769Y3415536D01*
X485567Y3416553D01*
X484458Y3417570D01*
X483533Y3418495D01*
X482609Y3419327D01*
X481869Y3420067D01*
X481129Y3420806D01*
X480575Y3421361D01*
X480112Y3421823D01*
X479650Y3422286D01*
X479188Y3422840D01*
X479003Y3423025D01*
X477708Y3424597D01*
X476599Y3425984D01*
X475674Y3427371D01*
X474935Y3428480D01*
X474380Y3429497D01*
X474010Y3430237D01*
X473825Y3430699D01*
X473733Y3430884D01*
X473178Y3432271D01*
X472808Y3433658D01*
X472438Y3434952D01*
X472254Y3436061D01*
X472161Y3437078D01*
X472069Y3437818D01*
Y3438280D01*
Y3438465D01*
X472161Y3439852D01*
X472346Y3441147D01*
X472531Y3442441D01*
X472901Y3443550D01*
X473825Y3445769D01*
X474750Y3447526D01*
X475305Y3448358D01*
X475767Y3449005D01*
X476229Y3449652D01*
X476691Y3450115D01*
X477061Y3450485D01*
X477246Y3450854D01*
X477431Y3450947D01*
X477524Y3451039D01*
X478541Y3451964D01*
X479650Y3452796D01*
X480852Y3453443D01*
X482054Y3453998D01*
X484458Y3454922D01*
X486862Y3455570D01*
X487879Y3455755D01*
X488896Y3455939D01*
X489820Y3456032D01*
X490560Y3456124D01*
X491207Y3456217D01*
X492132D01*
X493796Y3456124D01*
D02*
G37*
G36*
X599750Y3456864D02*
X602709Y3456402D01*
X605298Y3455847D01*
X606500Y3455477D01*
X607609Y3455107D01*
X608626Y3454738D01*
X609551Y3454368D01*
X610290Y3454090D01*
X611030Y3453813D01*
X611492Y3453536D01*
X611862Y3453351D01*
X612139Y3453258D01*
X612232Y3453166D01*
X614728Y3451594D01*
X616855Y3449745D01*
X618704Y3447896D01*
X620276Y3446047D01*
X621478Y3444382D01*
X621940Y3443643D01*
X622310Y3442996D01*
X622679Y3442533D01*
X622864Y3442164D01*
X622957Y3441886D01*
X623049Y3441794D01*
X624344Y3438928D01*
X625268Y3435969D01*
X625915Y3433010D01*
X626378Y3430329D01*
X626563Y3429127D01*
X626655Y3427925D01*
X626748Y3427001D01*
Y3426076D01*
X626840Y3425429D01*
Y3424874D01*
Y3424504D01*
Y3424412D01*
X626655Y3421084D01*
X626285Y3417848D01*
X625823Y3414981D01*
X625453Y3413595D01*
X625176Y3412393D01*
X624898Y3411283D01*
X624529Y3410266D01*
X624251Y3409342D01*
X624066Y3408602D01*
X623789Y3408047D01*
X623696Y3407585D01*
X623512Y3407308D01*
Y3407215D01*
X622125Y3404442D01*
X620553Y3401945D01*
X618889Y3399819D01*
X618057Y3398987D01*
X617317Y3398154D01*
X616577Y3397415D01*
X615838Y3396768D01*
X615191Y3396213D01*
X614636Y3395843D01*
X614266Y3395473D01*
X613896Y3395196D01*
X613711Y3395103D01*
X613619Y3395011D01*
X612324Y3394271D01*
X611030Y3393624D01*
X608256Y3392607D01*
X605483Y3391867D01*
X602801Y3391405D01*
X601507Y3391220D01*
X600398Y3391035D01*
X599381Y3390943D01*
X598548D01*
X597809Y3390850D01*
X596792D01*
X594943Y3390943D01*
X593186Y3391128D01*
X591522Y3391313D01*
X589950Y3391683D01*
X588471Y3392145D01*
X587084Y3392607D01*
X585790Y3393069D01*
X584588Y3393624D01*
X583571Y3394086D01*
X582554Y3394549D01*
X581814Y3395011D01*
X581074Y3395473D01*
X580612Y3395843D01*
X580150Y3396028D01*
X579965Y3396213D01*
X579872Y3396305D01*
X578578Y3397415D01*
X577468Y3398524D01*
X576451Y3399819D01*
X575434Y3401113D01*
X573770Y3403702D01*
X572476Y3406291D01*
X571921Y3407493D01*
X571459Y3408602D01*
X571089Y3409619D01*
X570812Y3410451D01*
X570534Y3411191D01*
X570349Y3411746D01*
X570257Y3412115D01*
Y3412208D01*
X578763Y3414334D01*
X579133Y3412855D01*
X579595Y3411468D01*
X580057Y3410174D01*
X580520Y3408972D01*
X581074Y3407862D01*
X581629Y3406938D01*
X582276Y3406013D01*
X582831Y3405181D01*
X583293Y3404442D01*
X583848Y3403887D01*
X584310Y3403332D01*
X584680Y3402870D01*
X585050Y3402592D01*
X585327Y3402315D01*
X585420Y3402223D01*
X585512Y3402130D01*
X586437Y3401390D01*
X587454Y3400836D01*
X589488Y3399819D01*
X591429Y3399079D01*
X593371Y3398617D01*
X595035Y3398247D01*
X595682Y3398154D01*
X596330D01*
X596884Y3398062D01*
X597531D01*
X599658Y3398154D01*
X601692Y3398524D01*
X603541Y3398987D01*
X605205Y3399541D01*
X606500Y3400096D01*
X607054Y3400373D01*
X607517Y3400558D01*
X607887Y3400743D01*
X608164Y3400928D01*
X608349Y3401021D01*
X608441D01*
X610198Y3402315D01*
X611677Y3403702D01*
X612972Y3405274D01*
X613989Y3406753D01*
X614821Y3408047D01*
X615375Y3409157D01*
X615560Y3409619D01*
X615745Y3409896D01*
X615838Y3410081D01*
Y3410174D01*
X616577Y3412578D01*
X617132Y3414981D01*
X617594Y3417385D01*
X617872Y3419604D01*
X617964Y3420621D01*
X618057Y3421546D01*
Y3422378D01*
X618149Y3423025D01*
Y3423580D01*
Y3424042D01*
Y3424320D01*
Y3424412D01*
X618057Y3426816D01*
X617872Y3429035D01*
X617502Y3431069D01*
X617132Y3432918D01*
X616855Y3434490D01*
X616670Y3435137D01*
X616485Y3435692D01*
X616392Y3436154D01*
X616300Y3436431D01*
X616208Y3436616D01*
Y3436709D01*
X615283Y3438835D01*
X614266Y3440777D01*
X613157Y3442348D01*
X611955Y3443735D01*
X610938Y3444845D01*
X610105Y3445584D01*
X609458Y3446047D01*
X609366Y3446232D01*
X609273D01*
X607332Y3447434D01*
X605205Y3448358D01*
X603171Y3449005D01*
X601230Y3449375D01*
X599473Y3449652D01*
X598733Y3449745D01*
X598086D01*
X597624Y3449837D01*
X596884D01*
X594573Y3449745D01*
X592446Y3449375D01*
X590690Y3448820D01*
X589118Y3448266D01*
X587916Y3447618D01*
X586991Y3447156D01*
X586437Y3446786D01*
X586252Y3446601D01*
X584773Y3445215D01*
X583386Y3443643D01*
X582276Y3441979D01*
X581352Y3440314D01*
X580612Y3438835D01*
X580335Y3438095D01*
X580150Y3437541D01*
X579965Y3437078D01*
X579780Y3436709D01*
X579687Y3436524D01*
Y3436431D01*
X571366Y3438373D01*
X571921Y3440037D01*
X572476Y3441516D01*
X573216Y3442903D01*
X573863Y3444290D01*
X574602Y3445492D01*
X575434Y3446601D01*
X576174Y3447711D01*
X576914Y3448635D01*
X577653Y3449375D01*
X578301Y3450115D01*
X578948Y3450762D01*
X579410Y3451224D01*
X579872Y3451687D01*
X580242Y3451964D01*
X580427Y3452056D01*
X580520Y3452149D01*
X581814Y3452981D01*
X583108Y3453813D01*
X584403Y3454460D01*
X585790Y3455015D01*
X588563Y3455847D01*
X591060Y3456402D01*
X592261Y3456679D01*
X593278Y3456772D01*
X594295Y3456864D01*
X595128Y3456957D01*
X595775Y3457049D01*
X596699D01*
X599750Y3456864D01*
D02*
G37*
G36*
X1362897Y3456124D02*
X1364469Y3456032D01*
X1365949Y3455755D01*
X1367335Y3455477D01*
X1368630Y3455107D01*
X1369832Y3454738D01*
X1370941Y3454275D01*
X1371958Y3453813D01*
X1372883Y3453351D01*
X1373622Y3452888D01*
X1374270Y3452519D01*
X1374824Y3452149D01*
X1375287Y3451871D01*
X1375564Y3451594D01*
X1375749Y3451502D01*
X1375841Y3451409D01*
X1376766Y3450485D01*
X1377598Y3449468D01*
X1378430Y3448358D01*
X1379077Y3447249D01*
X1380187Y3445030D01*
X1380926Y3442811D01*
X1381204Y3441794D01*
X1381481Y3440777D01*
X1381666Y3439945D01*
X1381851Y3439205D01*
X1381943Y3438558D01*
Y3438095D01*
X1382036Y3437818D01*
Y3437726D01*
X1373992Y3436894D01*
X1373807Y3439020D01*
X1373437Y3440869D01*
X1372883Y3442533D01*
X1372236Y3443828D01*
X1371681Y3444937D01*
X1371126Y3445677D01*
X1370756Y3446139D01*
X1370571Y3446324D01*
X1369184Y3447434D01*
X1367705Y3448266D01*
X1366133Y3448913D01*
X1364747Y3449283D01*
X1363452Y3449560D01*
X1362343Y3449652D01*
X1361973Y3449745D01*
X1361418D01*
X1359477Y3449652D01*
X1357720Y3449283D01*
X1356241Y3448728D01*
X1354946Y3448173D01*
X1353929Y3447526D01*
X1353282Y3447064D01*
X1352820Y3446694D01*
X1352635Y3446509D01*
X1351525Y3445215D01*
X1350693Y3443920D01*
X1350046Y3442626D01*
X1349676Y3441331D01*
X1349399Y3440314D01*
X1349306Y3439390D01*
X1349214Y3438835D01*
Y3438743D01*
Y3438650D01*
X1349399Y3436986D01*
X1349769Y3435229D01*
X1350416Y3433658D01*
X1351063Y3432178D01*
X1351803Y3430976D01*
X1352450Y3429959D01*
X1352635Y3429590D01*
X1352820Y3429312D01*
X1353005Y3429220D01*
Y3429127D01*
X1353744Y3428110D01*
X1354669Y3427093D01*
X1355686Y3425984D01*
X1356795Y3424874D01*
X1359107Y3422655D01*
X1361418Y3420436D01*
X1362620Y3419419D01*
X1363637Y3418495D01*
X1364654Y3417663D01*
X1365486Y3416923D01*
X1366133Y3416368D01*
X1366688Y3415906D01*
X1367058Y3415629D01*
X1367150Y3415536D01*
X1369462Y3413595D01*
X1371588Y3411746D01*
X1373345Y3410081D01*
X1374732Y3408694D01*
X1375934Y3407493D01*
X1376766Y3406660D01*
X1377228Y3406106D01*
X1377413Y3406013D01*
Y3405921D01*
X1378707Y3404349D01*
X1379724Y3402870D01*
X1380649Y3401390D01*
X1381389Y3400096D01*
X1381943Y3398987D01*
X1382313Y3398154D01*
X1382498Y3397600D01*
X1382591Y3397507D01*
Y3397415D01*
X1382960Y3396398D01*
X1383145Y3395473D01*
X1383330Y3394549D01*
X1383423Y3393717D01*
X1383515Y3392977D01*
Y3392422D01*
Y3392052D01*
Y3391960D01*
X1341078D01*
Y3399541D01*
X1372605D01*
X1371496Y3401113D01*
X1370941Y3401760D01*
X1370479Y3402407D01*
X1370017Y3402962D01*
X1369647Y3403332D01*
X1369369Y3403609D01*
X1369277Y3403702D01*
X1368815Y3404164D01*
X1368260Y3404626D01*
X1366966Y3405828D01*
X1365486Y3407215D01*
X1363914Y3408602D01*
X1362435Y3409804D01*
X1361788Y3410359D01*
X1361233Y3410913D01*
X1360771Y3411283D01*
X1360401Y3411561D01*
X1360216Y3411746D01*
X1360124Y3411838D01*
X1358644Y3413132D01*
X1357165Y3414334D01*
X1355871Y3415536D01*
X1354669Y3416553D01*
X1353559Y3417570D01*
X1352635Y3418495D01*
X1351710Y3419327D01*
X1350971Y3420067D01*
X1350231Y3420806D01*
X1349676Y3421361D01*
X1349214Y3421823D01*
X1348752Y3422286D01*
X1348289Y3422840D01*
X1348104Y3423025D01*
X1346810Y3424597D01*
X1345701Y3425984D01*
X1344776Y3427371D01*
X1344036Y3428480D01*
X1343482Y3429497D01*
X1343112Y3430237D01*
X1342927Y3430699D01*
X1342834Y3430884D01*
X1342280Y3432271D01*
X1341910Y3433658D01*
X1341540Y3434952D01*
X1341355Y3436061D01*
X1341263Y3437078D01*
X1341170Y3437818D01*
Y3438280D01*
Y3438465D01*
X1341263Y3439852D01*
X1341448Y3441147D01*
X1341633Y3442441D01*
X1342002Y3443550D01*
X1342927Y3445769D01*
X1343852Y3447526D01*
X1344406Y3448358D01*
X1344869Y3449005D01*
X1345331Y3449652D01*
X1345793Y3450115D01*
X1346163Y3450485D01*
X1346348Y3450854D01*
X1346533Y3450947D01*
X1346625Y3451039D01*
X1347642Y3451964D01*
X1348752Y3452796D01*
X1349954Y3453443D01*
X1351156Y3453998D01*
X1353559Y3454922D01*
X1355963Y3455570D01*
X1356980Y3455755D01*
X1357997Y3455939D01*
X1358922Y3456032D01*
X1359661Y3456124D01*
X1360309Y3456217D01*
X1361233D01*
X1362897Y3456124D01*
D02*
G37*
G36*
X1309088Y3454645D02*
X1310105Y3453166D01*
X1311307Y3451687D01*
X1312416Y3450392D01*
X1313526Y3449283D01*
X1314358Y3448358D01*
X1314728Y3448081D01*
X1315005Y3447803D01*
X1315098Y3447711D01*
X1315190Y3447618D01*
X1317132Y3446047D01*
X1319073Y3444567D01*
X1320922Y3443273D01*
X1322772Y3442256D01*
X1324343Y3441331D01*
X1324990Y3440962D01*
X1325545Y3440684D01*
X1326008Y3440407D01*
X1326377Y3440314D01*
X1326562Y3440130D01*
X1326655D01*
Y3432548D01*
X1325268Y3433103D01*
X1323881Y3433750D01*
X1322494Y3434397D01*
X1321200Y3435044D01*
X1320090Y3435599D01*
X1319166Y3436061D01*
X1318611Y3436431D01*
X1318519Y3436524D01*
X1318426D01*
X1316762Y3437541D01*
X1315283Y3438558D01*
X1313988Y3439482D01*
X1312971Y3440314D01*
X1312047Y3440962D01*
X1311492Y3441516D01*
X1311030Y3441886D01*
X1310937Y3441979D01*
Y3391960D01*
X1303078D01*
Y3456217D01*
X1308163D01*
X1309088Y3454645D01*
D02*
G37*
G36*
X1419111Y3456864D02*
X1422069Y3456402D01*
X1424658Y3455847D01*
X1425860Y3455477D01*
X1426969Y3455107D01*
X1427986Y3454738D01*
X1428911Y3454368D01*
X1429651Y3454090D01*
X1430390Y3453813D01*
X1430853Y3453536D01*
X1431222Y3453351D01*
X1431500Y3453258D01*
X1431592Y3453166D01*
X1434089Y3451594D01*
X1436215Y3449745D01*
X1438064Y3447896D01*
X1439636Y3446047D01*
X1440838Y3444382D01*
X1441300Y3443643D01*
X1441670Y3442996D01*
X1442040Y3442533D01*
X1442225Y3442164D01*
X1442317Y3441886D01*
X1442410Y3441794D01*
X1443704Y3438928D01*
X1444629Y3435969D01*
X1445276Y3433010D01*
X1445738Y3430329D01*
X1445923Y3429127D01*
X1446015Y3427925D01*
X1446108Y3427001D01*
Y3426076D01*
X1446200Y3425429D01*
Y3424874D01*
Y3424504D01*
Y3424412D01*
X1446015Y3421084D01*
X1445646Y3417848D01*
X1445183Y3414981D01*
X1444813Y3413595D01*
X1444536Y3412393D01*
X1444259Y3411283D01*
X1443889Y3410266D01*
X1443612Y3409342D01*
X1443427Y3408602D01*
X1443149Y3408047D01*
X1443057Y3407585D01*
X1442872Y3407308D01*
Y3407215D01*
X1441485Y3404442D01*
X1439913Y3401945D01*
X1438249Y3399819D01*
X1437417Y3398987D01*
X1436677Y3398154D01*
X1435938Y3397415D01*
X1435198Y3396768D01*
X1434551Y3396213D01*
X1433996Y3395843D01*
X1433626Y3395473D01*
X1433256Y3395196D01*
X1433072Y3395103D01*
X1432979Y3395011D01*
X1431685Y3394271D01*
X1430390Y3393624D01*
X1427617Y3392607D01*
X1424843Y3391867D01*
X1422162Y3391405D01*
X1420867Y3391220D01*
X1419758Y3391035D01*
X1418741Y3390943D01*
X1417909D01*
X1417169Y3390850D01*
X1416152D01*
X1414303Y3390943D01*
X1412546Y3391128D01*
X1410882Y3391313D01*
X1409310Y3391683D01*
X1407831Y3392145D01*
X1406444Y3392607D01*
X1405150Y3393069D01*
X1403948Y3393624D01*
X1402931Y3394086D01*
X1401914Y3394549D01*
X1401174Y3395011D01*
X1400435Y3395473D01*
X1399972Y3395843D01*
X1399510Y3396028D01*
X1399325Y3396213D01*
X1399233Y3396305D01*
X1397938Y3397415D01*
X1396829Y3398524D01*
X1395812Y3399819D01*
X1394795Y3401113D01*
X1393131Y3403702D01*
X1391836Y3406291D01*
X1391281Y3407493D01*
X1390819Y3408602D01*
X1390449Y3409619D01*
X1390172Y3410451D01*
X1389895Y3411191D01*
X1389710Y3411746D01*
X1389617Y3412115D01*
Y3412208D01*
X1398123Y3414334D01*
X1398493Y3412855D01*
X1398955Y3411468D01*
X1399418Y3410174D01*
X1399880Y3408972D01*
X1400435Y3407862D01*
X1400989Y3406938D01*
X1401637Y3406013D01*
X1402191Y3405181D01*
X1402654Y3404442D01*
X1403208Y3403887D01*
X1403671Y3403332D01*
X1404040Y3402870D01*
X1404410Y3402592D01*
X1404688Y3402315D01*
X1404780Y3402223D01*
X1404872Y3402130D01*
X1405797Y3401390D01*
X1406814Y3400836D01*
X1408848Y3399819D01*
X1410790Y3399079D01*
X1412731Y3398617D01*
X1414395Y3398247D01*
X1415043Y3398154D01*
X1415690D01*
X1416245Y3398062D01*
X1416892D01*
X1419018Y3398154D01*
X1421052Y3398524D01*
X1422901Y3398987D01*
X1424566Y3399541D01*
X1425860Y3400096D01*
X1426415Y3400373D01*
X1426877Y3400558D01*
X1427247Y3400743D01*
X1427524Y3400928D01*
X1427709Y3401021D01*
X1427802D01*
X1429558Y3402315D01*
X1431038Y3403702D01*
X1432332Y3405274D01*
X1433349Y3406753D01*
X1434181Y3408047D01*
X1434736Y3409157D01*
X1434921Y3409619D01*
X1435106Y3409896D01*
X1435198Y3410081D01*
Y3410174D01*
X1435938Y3412578D01*
X1436492Y3414981D01*
X1436955Y3417385D01*
X1437232Y3419604D01*
X1437325Y3420621D01*
X1437417Y3421546D01*
Y3422378D01*
X1437509Y3423025D01*
Y3423580D01*
Y3424042D01*
Y3424320D01*
Y3424412D01*
X1437417Y3426816D01*
X1437232Y3429035D01*
X1436862Y3431069D01*
X1436492Y3432918D01*
X1436215Y3434490D01*
X1436030Y3435137D01*
X1435845Y3435692D01*
X1435753Y3436154D01*
X1435660Y3436431D01*
X1435568Y3436616D01*
Y3436709D01*
X1434643Y3438835D01*
X1433626Y3440777D01*
X1432517Y3442348D01*
X1431315Y3443735D01*
X1430298Y3444845D01*
X1429466Y3445584D01*
X1428819Y3446047D01*
X1428726Y3446232D01*
X1428634D01*
X1426692Y3447434D01*
X1424566Y3448358D01*
X1422532Y3449005D01*
X1420590Y3449375D01*
X1418833Y3449652D01*
X1418094Y3449745D01*
X1417446D01*
X1416984Y3449837D01*
X1416245D01*
X1413933Y3449745D01*
X1411807Y3449375D01*
X1410050Y3448820D01*
X1408478Y3448266D01*
X1407276Y3447618D01*
X1406352Y3447156D01*
X1405797Y3446786D01*
X1405612Y3446601D01*
X1404133Y3445215D01*
X1402746Y3443643D01*
X1401637Y3441979D01*
X1400712Y3440314D01*
X1399972Y3438835D01*
X1399695Y3438095D01*
X1399510Y3437541D01*
X1399325Y3437078D01*
X1399140Y3436709D01*
X1399048Y3436524D01*
Y3436431D01*
X1390727Y3438373D01*
X1391281Y3440037D01*
X1391836Y3441516D01*
X1392576Y3442903D01*
X1393223Y3444290D01*
X1393963Y3445492D01*
X1394795Y3446601D01*
X1395534Y3447711D01*
X1396274Y3448635D01*
X1397014Y3449375D01*
X1397661Y3450115D01*
X1398308Y3450762D01*
X1398770Y3451224D01*
X1399233Y3451687D01*
X1399602Y3451964D01*
X1399787Y3452056D01*
X1399880Y3452149D01*
X1401174Y3452981D01*
X1402469Y3453813D01*
X1403763Y3454460D01*
X1405150Y3455015D01*
X1407924Y3455847D01*
X1410420Y3456402D01*
X1411622Y3456679D01*
X1412639Y3456772D01*
X1413656Y3456864D01*
X1414488Y3456957D01*
X1415135Y3457049D01*
X1416060D01*
X1419111Y3456864D01*
D02*
G37*
G36*
X1094857Y3456124D02*
X1096429Y3456032D01*
X1097908Y3455755D01*
X1099295Y3455477D01*
X1100590Y3455107D01*
X1101792Y3454738D01*
X1102901Y3454275D01*
X1103918Y3453813D01*
X1104843Y3453351D01*
X1105582Y3452888D01*
X1106229Y3452519D01*
X1106784Y3452149D01*
X1107246Y3451871D01*
X1107524Y3451594D01*
X1107709Y3451502D01*
X1107801Y3451409D01*
X1108726Y3450485D01*
X1109558Y3449468D01*
X1110390Y3448358D01*
X1111037Y3447249D01*
X1112147Y3445030D01*
X1112886Y3442811D01*
X1113164Y3441794D01*
X1113441Y3440777D01*
X1113626Y3439945D01*
X1113811Y3439205D01*
X1113903Y3438558D01*
Y3438095D01*
X1113996Y3437818D01*
Y3437726D01*
X1105952Y3436894D01*
X1105767Y3439020D01*
X1105397Y3440869D01*
X1104843Y3442533D01*
X1104195Y3443828D01*
X1103641Y3444937D01*
X1103086Y3445677D01*
X1102716Y3446139D01*
X1102531Y3446324D01*
X1101144Y3447434D01*
X1099665Y3448266D01*
X1098093Y3448913D01*
X1096706Y3449283D01*
X1095412Y3449560D01*
X1094303Y3449652D01*
X1093933Y3449745D01*
X1093378D01*
X1091436Y3449652D01*
X1089680Y3449283D01*
X1088201Y3448728D01*
X1086906Y3448173D01*
X1085889Y3447526D01*
X1085242Y3447064D01*
X1084780Y3446694D01*
X1084595Y3446509D01*
X1083485Y3445215D01*
X1082653Y3443920D01*
X1082006Y3442626D01*
X1081636Y3441331D01*
X1081359Y3440314D01*
X1081266Y3439390D01*
X1081174Y3438835D01*
Y3438743D01*
Y3438650D01*
X1081359Y3436986D01*
X1081729Y3435229D01*
X1082376Y3433658D01*
X1083023Y3432178D01*
X1083763Y3430976D01*
X1084410Y3429959D01*
X1084595Y3429590D01*
X1084780Y3429312D01*
X1084965Y3429220D01*
Y3429127D01*
X1085704Y3428110D01*
X1086629Y3427093D01*
X1087646Y3425984D01*
X1088755Y3424874D01*
X1091067Y3422655D01*
X1093378Y3420436D01*
X1094580Y3419419D01*
X1095597Y3418495D01*
X1096614Y3417663D01*
X1097446Y3416923D01*
X1098093Y3416368D01*
X1098648Y3415906D01*
X1099018Y3415629D01*
X1099110Y3415536D01*
X1101422Y3413595D01*
X1103548Y3411746D01*
X1105305Y3410081D01*
X1106692Y3408694D01*
X1107894Y3407493D01*
X1108726Y3406660D01*
X1109188Y3406106D01*
X1109373Y3406013D01*
Y3405921D01*
X1110667Y3404349D01*
X1111684Y3402870D01*
X1112609Y3401390D01*
X1113349Y3400096D01*
X1113903Y3398987D01*
X1114273Y3398154D01*
X1114458Y3397600D01*
X1114550Y3397507D01*
Y3397415D01*
X1114920Y3396398D01*
X1115105Y3395473D01*
X1115290Y3394549D01*
X1115383Y3393717D01*
X1115475Y3392977D01*
Y3392422D01*
Y3392052D01*
Y3391960D01*
X1073038D01*
Y3399541D01*
X1104565D01*
X1103456Y3401113D01*
X1102901Y3401760D01*
X1102439Y3402407D01*
X1101976Y3402962D01*
X1101607Y3403332D01*
X1101329Y3403609D01*
X1101237Y3403702D01*
X1100775Y3404164D01*
X1100220Y3404626D01*
X1098925Y3405828D01*
X1097446Y3407215D01*
X1095874Y3408602D01*
X1094395Y3409804D01*
X1093748Y3410359D01*
X1093193Y3410913D01*
X1092731Y3411283D01*
X1092361Y3411561D01*
X1092176Y3411746D01*
X1092084Y3411838D01*
X1090604Y3413132D01*
X1089125Y3414334D01*
X1087831Y3415536D01*
X1086629Y3416553D01*
X1085519Y3417570D01*
X1084595Y3418495D01*
X1083670Y3419327D01*
X1082931Y3420067D01*
X1082191Y3420806D01*
X1081636Y3421361D01*
X1081174Y3421823D01*
X1080712Y3422286D01*
X1080249Y3422840D01*
X1080064Y3423025D01*
X1078770Y3424597D01*
X1077661Y3425984D01*
X1076736Y3427371D01*
X1075996Y3428480D01*
X1075442Y3429497D01*
X1075072Y3430237D01*
X1074887Y3430699D01*
X1074794Y3430884D01*
X1074240Y3432271D01*
X1073870Y3433658D01*
X1073500Y3434952D01*
X1073315Y3436061D01*
X1073223Y3437078D01*
X1073130Y3437818D01*
Y3438280D01*
Y3438465D01*
X1073223Y3439852D01*
X1073408Y3441147D01*
X1073592Y3442441D01*
X1073962Y3443550D01*
X1074887Y3445769D01*
X1075811Y3447526D01*
X1076366Y3448358D01*
X1076828Y3449005D01*
X1077291Y3449652D01*
X1077753Y3450115D01*
X1078123Y3450485D01*
X1078308Y3450854D01*
X1078493Y3450947D01*
X1078585Y3451039D01*
X1079602Y3451964D01*
X1080712Y3452796D01*
X1081914Y3453443D01*
X1083115Y3453998D01*
X1085519Y3454922D01*
X1087923Y3455570D01*
X1088940Y3455755D01*
X1089957Y3455939D01*
X1090882Y3456032D01*
X1091621Y3456124D01*
X1092269Y3456217D01*
X1093193D01*
X1094857Y3456124D01*
D02*
G37*
G36*
X1151071Y3456864D02*
X1154029Y3456402D01*
X1156618Y3455847D01*
X1157820Y3455477D01*
X1158929Y3455107D01*
X1159946Y3454738D01*
X1160871Y3454368D01*
X1161611Y3454090D01*
X1162350Y3453813D01*
X1162813Y3453536D01*
X1163182Y3453351D01*
X1163460Y3453258D01*
X1163552Y3453166D01*
X1166048Y3451594D01*
X1168175Y3449745D01*
X1170024Y3447896D01*
X1171596Y3446047D01*
X1172798Y3444382D01*
X1173260Y3443643D01*
X1173630Y3442996D01*
X1174000Y3442533D01*
X1174185Y3442164D01*
X1174277Y3441886D01*
X1174370Y3441794D01*
X1175664Y3438928D01*
X1176588Y3435969D01*
X1177236Y3433010D01*
X1177698Y3430329D01*
X1177883Y3429127D01*
X1177975Y3427925D01*
X1178068Y3427001D01*
Y3426076D01*
X1178160Y3425429D01*
Y3424874D01*
Y3424504D01*
Y3424412D01*
X1177975Y3421084D01*
X1177605Y3417848D01*
X1177143Y3414981D01*
X1176773Y3413595D01*
X1176496Y3412393D01*
X1176219Y3411283D01*
X1175849Y3410266D01*
X1175571Y3409342D01*
X1175387Y3408602D01*
X1175109Y3408047D01*
X1175017Y3407585D01*
X1174832Y3407308D01*
Y3407215D01*
X1173445Y3404442D01*
X1171873Y3401945D01*
X1170209Y3399819D01*
X1169377Y3398987D01*
X1168637Y3398154D01*
X1167898Y3397415D01*
X1167158Y3396768D01*
X1166511Y3396213D01*
X1165956Y3395843D01*
X1165586Y3395473D01*
X1165216Y3395196D01*
X1165031Y3395103D01*
X1164939Y3395011D01*
X1163645Y3394271D01*
X1162350Y3393624D01*
X1159577Y3392607D01*
X1156803Y3391867D01*
X1154122Y3391405D01*
X1152827Y3391220D01*
X1151718Y3391035D01*
X1150701Y3390943D01*
X1149869D01*
X1149129Y3390850D01*
X1148112D01*
X1146263Y3390943D01*
X1144506Y3391128D01*
X1142842Y3391313D01*
X1141270Y3391683D01*
X1139791Y3392145D01*
X1138404Y3392607D01*
X1137110Y3393069D01*
X1135908Y3393624D01*
X1134891Y3394086D01*
X1133874Y3394549D01*
X1133134Y3395011D01*
X1132394Y3395473D01*
X1131932Y3395843D01*
X1131470Y3396028D01*
X1131285Y3396213D01*
X1131193Y3396305D01*
X1129898Y3397415D01*
X1128789Y3398524D01*
X1127772Y3399819D01*
X1126755Y3401113D01*
X1125090Y3403702D01*
X1123796Y3406291D01*
X1123241Y3407493D01*
X1122779Y3408602D01*
X1122409Y3409619D01*
X1122132Y3410451D01*
X1121854Y3411191D01*
X1121670Y3411746D01*
X1121577Y3412115D01*
Y3412208D01*
X1130083Y3414334D01*
X1130453Y3412855D01*
X1130915Y3411468D01*
X1131377Y3410174D01*
X1131840Y3408972D01*
X1132394Y3407862D01*
X1132949Y3406938D01*
X1133596Y3406013D01*
X1134151Y3405181D01*
X1134613Y3404442D01*
X1135168Y3403887D01*
X1135630Y3403332D01*
X1136000Y3402870D01*
X1136370Y3402592D01*
X1136647Y3402315D01*
X1136740Y3402223D01*
X1136832Y3402130D01*
X1137757Y3401390D01*
X1138774Y3400836D01*
X1140808Y3399819D01*
X1142750Y3399079D01*
X1144691Y3398617D01*
X1146355Y3398247D01*
X1147003Y3398154D01*
X1147650D01*
X1148204Y3398062D01*
X1148852D01*
X1150978Y3398154D01*
X1153012Y3398524D01*
X1154861Y3398987D01*
X1156525Y3399541D01*
X1157820Y3400096D01*
X1158375Y3400373D01*
X1158837Y3400558D01*
X1159207Y3400743D01*
X1159484Y3400928D01*
X1159669Y3401021D01*
X1159761D01*
X1161518Y3402315D01*
X1162997Y3403702D01*
X1164292Y3405274D01*
X1165309Y3406753D01*
X1166141Y3408047D01*
X1166696Y3409157D01*
X1166881Y3409619D01*
X1167065Y3409896D01*
X1167158Y3410081D01*
Y3410174D01*
X1167898Y3412578D01*
X1168452Y3414981D01*
X1168915Y3417385D01*
X1169192Y3419604D01*
X1169284Y3420621D01*
X1169377Y3421546D01*
Y3422378D01*
X1169469Y3423025D01*
Y3423580D01*
Y3424042D01*
Y3424320D01*
Y3424412D01*
X1169377Y3426816D01*
X1169192Y3429035D01*
X1168822Y3431069D01*
X1168452Y3432918D01*
X1168175Y3434490D01*
X1167990Y3435137D01*
X1167805Y3435692D01*
X1167713Y3436154D01*
X1167620Y3436431D01*
X1167528Y3436616D01*
Y3436709D01*
X1166603Y3438835D01*
X1165586Y3440777D01*
X1164477Y3442348D01*
X1163275Y3443735D01*
X1162258Y3444845D01*
X1161426Y3445584D01*
X1160778Y3446047D01*
X1160686Y3446232D01*
X1160594D01*
X1158652Y3447434D01*
X1156525Y3448358D01*
X1154491Y3449005D01*
X1152550Y3449375D01*
X1150793Y3449652D01*
X1150054Y3449745D01*
X1149406D01*
X1148944Y3449837D01*
X1148204D01*
X1145893Y3449745D01*
X1143767Y3449375D01*
X1142010Y3448820D01*
X1140438Y3448266D01*
X1139236Y3447618D01*
X1138312Y3447156D01*
X1137757Y3446786D01*
X1137572Y3446601D01*
X1136093Y3445215D01*
X1134706Y3443643D01*
X1133596Y3441979D01*
X1132672Y3440314D01*
X1131932Y3438835D01*
X1131655Y3438095D01*
X1131470Y3437541D01*
X1131285Y3437078D01*
X1131100Y3436709D01*
X1131008Y3436524D01*
Y3436431D01*
X1122687Y3438373D01*
X1123241Y3440037D01*
X1123796Y3441516D01*
X1124536Y3442903D01*
X1125183Y3444290D01*
X1125923Y3445492D01*
X1126755Y3446601D01*
X1127494Y3447711D01*
X1128234Y3448635D01*
X1128974Y3449375D01*
X1129621Y3450115D01*
X1130268Y3450762D01*
X1130730Y3451224D01*
X1131193Y3451687D01*
X1131562Y3451964D01*
X1131747Y3452056D01*
X1131840Y3452149D01*
X1133134Y3452981D01*
X1134429Y3453813D01*
X1135723Y3454460D01*
X1137110Y3455015D01*
X1139883Y3455847D01*
X1142380Y3456402D01*
X1143582Y3456679D01*
X1144599Y3456772D01*
X1145616Y3456864D01*
X1146448Y3456957D01*
X1147095Y3457049D01*
X1148020D01*
X1151071Y3456864D01*
D02*
G37*
G36*
X1046225Y3456032D02*
X1048537Y3455662D01*
X1050478Y3455015D01*
X1052143Y3454368D01*
X1053530Y3453628D01*
X1054084Y3453351D01*
X1054547Y3452981D01*
X1054916Y3452796D01*
X1055194Y3452611D01*
X1055286Y3452426D01*
X1055379D01*
X1057043Y3450947D01*
X1058430Y3449190D01*
X1059632Y3447434D01*
X1060556Y3445769D01*
X1061296Y3444198D01*
X1061666Y3443550D01*
X1061851Y3442903D01*
X1062035Y3442441D01*
X1062220Y3442071D01*
X1062313Y3441886D01*
Y3441794D01*
X1062683Y3440407D01*
X1063052Y3439020D01*
X1063607Y3435969D01*
X1064069Y3432918D01*
X1064347Y3430052D01*
X1064439Y3428665D01*
X1064532Y3427463D01*
Y3426354D01*
X1064624Y3425337D01*
Y3424597D01*
Y3423950D01*
Y3423580D01*
Y3423487D01*
X1064532Y3420251D01*
X1064347Y3417200D01*
X1064069Y3414427D01*
X1063607Y3411838D01*
X1063145Y3409434D01*
X1062590Y3407308D01*
X1062035Y3405366D01*
X1061481Y3403702D01*
X1060926Y3402223D01*
X1060279Y3400928D01*
X1059817Y3399819D01*
X1059354Y3398987D01*
X1058892Y3398247D01*
X1058615Y3397785D01*
X1058430Y3397507D01*
X1058337Y3397415D01*
X1057320Y3396305D01*
X1056211Y3395288D01*
X1055009Y3394364D01*
X1053807Y3393624D01*
X1052605Y3392977D01*
X1051403Y3392422D01*
X1050201Y3392052D01*
X1049092Y3391683D01*
X1047982Y3391405D01*
X1046965Y3391220D01*
X1046041Y3391035D01*
X1045301Y3390943D01*
X1044654Y3390850D01*
X1043729D01*
X1041233Y3391035D01*
X1038921Y3391405D01*
X1036980Y3392052D01*
X1035316Y3392700D01*
X1033929Y3393347D01*
X1033467Y3393717D01*
X1033004Y3393994D01*
X1032634Y3394179D01*
X1032357Y3394364D01*
X1032265Y3394549D01*
X1032172D01*
X1030508Y3396120D01*
X1029121Y3397785D01*
X1027919Y3399634D01*
X1026995Y3401298D01*
X1026255Y3402870D01*
X1025885Y3403517D01*
X1025700Y3404164D01*
X1025515Y3404626D01*
X1025330Y3404996D01*
X1025238Y3405181D01*
Y3405274D01*
X1024776Y3406660D01*
X1024406Y3408047D01*
X1023851Y3411006D01*
X1023389Y3414057D01*
X1023111Y3417016D01*
X1023019Y3418310D01*
X1022927Y3419512D01*
Y3420621D01*
X1022834Y3421638D01*
Y3422378D01*
Y3423025D01*
Y3423395D01*
Y3423487D01*
Y3425244D01*
X1022927Y3426908D01*
Y3428388D01*
X1023019Y3429867D01*
X1023204Y3431161D01*
X1023296Y3432456D01*
X1023389Y3433565D01*
X1023574Y3434582D01*
X1023666Y3435507D01*
X1023851Y3436339D01*
X1023944Y3436986D01*
X1024036Y3437541D01*
X1024129Y3438003D01*
X1024221Y3438280D01*
X1024313Y3438465D01*
Y3438558D01*
X1024868Y3440592D01*
X1025515Y3442441D01*
X1026255Y3444013D01*
X1026810Y3445400D01*
X1027457Y3446601D01*
X1027827Y3447434D01*
X1028197Y3447896D01*
X1028289Y3448081D01*
X1029306Y3449468D01*
X1030323Y3450670D01*
X1031433Y3451687D01*
X1032450Y3452611D01*
X1033374Y3453258D01*
X1034114Y3453721D01*
X1034576Y3453998D01*
X1034668Y3454090D01*
X1034761D01*
X1036240Y3454830D01*
X1037812Y3455292D01*
X1039291Y3455662D01*
X1040678Y3455939D01*
X1041880Y3456124D01*
X1042897Y3456217D01*
X1043729D01*
X1046225Y3456032D01*
D02*
G37*
%LPC*%
G36*
X1208997Y914821D02*
Y886159D01*
X1229153D01*
X1208997Y914821D01*
D02*
G37*
G36*
X739329Y898179D02*
X738774D01*
X736833Y897994D01*
X735076Y897531D01*
X733597Y896977D01*
X732302Y896237D01*
X731285Y895497D01*
X730546Y894943D01*
X730083Y894480D01*
X729898Y894295D01*
X728697Y892724D01*
X727772Y891059D01*
X727125Y889303D01*
X726755Y887639D01*
X726478Y886159D01*
X726385Y885512D01*
Y884957D01*
X726293Y884495D01*
Y884125D01*
Y883940D01*
Y883848D01*
X726478Y881352D01*
X726847Y879225D01*
X727402Y877376D01*
X728049Y875804D01*
X728789Y874602D01*
X729344Y873678D01*
X729714Y873123D01*
X729898Y873031D01*
Y872938D01*
X730546Y872198D01*
X731285Y871644D01*
X732765Y870627D01*
X734244Y869979D01*
X735538Y869425D01*
X736740Y869147D01*
X737665Y869055D01*
X738035Y868962D01*
X738497D01*
X739791Y869055D01*
X740993Y869240D01*
X742103Y869610D01*
X743027Y869979D01*
X743859Y870257D01*
X744507Y870627D01*
X744876Y870812D01*
X745061Y870904D01*
X746171Y871736D01*
X747095Y872568D01*
X747927Y873585D01*
X748575Y874417D01*
X749129Y875249D01*
X749499Y875897D01*
X749777Y876359D01*
X749869Y876544D01*
X750424Y877931D01*
X750794Y879318D01*
X751163Y880612D01*
X751348Y881814D01*
X751441Y882831D01*
X751533Y883663D01*
Y884125D01*
Y884310D01*
X751348Y886529D01*
X750978Y888471D01*
X750331Y890227D01*
X749684Y891614D01*
X749037Y892816D01*
X748390Y893648D01*
X748020Y894110D01*
X747835Y894295D01*
X746356Y895590D01*
X744876Y896514D01*
X743305Y897254D01*
X741918Y897716D01*
X740623Y897994D01*
X739699Y898086D01*
X739329Y898179D01*
D02*
G37*
G36*
X784817Y914821D02*
Y886159D01*
X804973D01*
X784817Y914821D01*
D02*
G37*
G36*
X8260037D02*
Y886159D01*
X8280193D01*
X8260037Y914821D01*
D02*
G37*
G36*
X8658817D02*
Y886159D01*
X8678973D01*
X8658817Y914821D01*
D02*
G37*
G36*
X8609076D02*
Y886159D01*
X8629231D01*
X8609076Y914821D01*
D02*
G37*
G36*
X9669619Y2253005D02*
X9669064D01*
X9667123Y2252820D01*
X9665366Y2252358D01*
X9663887Y2251803D01*
X9662592Y2251063D01*
X9661575Y2250324D01*
X9660836Y2249769D01*
X9660373Y2249307D01*
X9660188Y2249122D01*
X9658987Y2247550D01*
X9658062Y2245886D01*
X9657415Y2244129D01*
X9657045Y2242465D01*
X9656768Y2240986D01*
X9656675Y2240338D01*
Y2239784D01*
X9656583Y2239321D01*
Y2238952D01*
Y2238767D01*
Y2238674D01*
X9656768Y2236178D01*
X9657137Y2234051D01*
X9657692Y2232202D01*
X9658339Y2230631D01*
X9659079Y2229429D01*
X9659634Y2228504D01*
X9660004Y2227949D01*
X9660188Y2227857D01*
Y2227764D01*
X9660836Y2227025D01*
X9661575Y2226470D01*
X9663055Y2225453D01*
X9664534Y2224806D01*
X9665828Y2224251D01*
X9667030Y2223974D01*
X9667955Y2223881D01*
X9668325Y2223789D01*
X9668787D01*
X9670081Y2223881D01*
X9671283Y2224066D01*
X9672393Y2224436D01*
X9673317Y2224806D01*
X9674149Y2225083D01*
X9674796Y2225453D01*
X9675166Y2225638D01*
X9675351Y2225730D01*
X9676461Y2226562D01*
X9677385Y2227395D01*
X9678217Y2228412D01*
X9678865Y2229244D01*
X9679419Y2230076D01*
X9679789Y2230723D01*
X9680066Y2231185D01*
X9680159Y2231370D01*
X9680714Y2232757D01*
X9681084Y2234144D01*
X9681453Y2235438D01*
X9681638Y2236640D01*
X9681731Y2237657D01*
X9681823Y2238489D01*
Y2238952D01*
Y2239136D01*
X9681638Y2241355D01*
X9681268Y2243297D01*
X9680621Y2245054D01*
X9679974Y2246441D01*
X9679327Y2247642D01*
X9678680Y2248475D01*
X9678310Y2248937D01*
X9678125Y2249122D01*
X9676646Y2250416D01*
X9675166Y2251341D01*
X9673595Y2252080D01*
X9672208Y2252543D01*
X9670913Y2252820D01*
X9669989Y2252912D01*
X9669619Y2253005D01*
D02*
G37*
G36*
X9792955Y2275287D02*
X9772800D01*
X9770304Y2275194D01*
X9768177Y2274825D01*
X9766328Y2274362D01*
X9764941Y2273807D01*
X9763739Y2273253D01*
X9763000Y2272790D01*
X9762537Y2272421D01*
X9762352Y2272328D01*
X9761243Y2271126D01*
X9760411Y2269924D01*
X9759856Y2268630D01*
X9759394Y2267520D01*
X9759209Y2266411D01*
X9759116Y2265579D01*
X9759024Y2265024D01*
Y2264932D01*
Y2264839D01*
X9759116Y2263730D01*
X9759301Y2262620D01*
X9759579Y2261696D01*
X9759856Y2260864D01*
X9760226Y2260124D01*
X9760503Y2259569D01*
X9760688Y2259199D01*
X9760781Y2259107D01*
X9761428Y2258182D01*
X9762260Y2257350D01*
X9763092Y2256703D01*
X9763924Y2256148D01*
X9764664Y2255779D01*
X9765218Y2255501D01*
X9765588Y2255316D01*
X9765773Y2255224D01*
X9767068Y2254854D01*
X9768547Y2254577D01*
X9770026Y2254392D01*
X9771505Y2254299D01*
X9772800Y2254207D01*
X9773909Y2254114D01*
X9792955D01*
Y2275287D01*
D02*
G37*
G36*
X9793186Y1775287D02*
X9773031D01*
X9770535Y1775194D01*
X9768408Y1774824D01*
X9766559Y1774362D01*
X9765172Y1773807D01*
X9763970Y1773253D01*
X9763231Y1772790D01*
X9762768Y1772421D01*
X9762583Y1772328D01*
X9761474Y1771126D01*
X9760642Y1769924D01*
X9760087Y1768630D01*
X9759625Y1767520D01*
X9759440Y1766411D01*
X9759348Y1765579D01*
X9759255Y1765024D01*
Y1764932D01*
Y1764839D01*
X9759348Y1763730D01*
X9759532Y1762620D01*
X9759810Y1761696D01*
X9760087Y1760864D01*
X9760457Y1760124D01*
X9760734Y1759569D01*
X9760919Y1759199D01*
X9761012Y1759107D01*
X9761659Y1758182D01*
X9762491Y1757350D01*
X9763323Y1756703D01*
X9764155Y1756148D01*
X9764895Y1755779D01*
X9765450Y1755501D01*
X9765819Y1755316D01*
X9766004Y1755224D01*
X9767299Y1754854D01*
X9768778Y1754577D01*
X9770257Y1754392D01*
X9771737Y1754299D01*
X9773031Y1754207D01*
X9774140Y1754114D01*
X9793186D01*
Y1775287D01*
D02*
G37*
G36*
X2266934Y3448820D02*
X2246779D01*
X2244282Y3448728D01*
X2242156Y3448358D01*
X2240307Y3447896D01*
X2238920Y3447341D01*
X2237718Y3446786D01*
X2236978Y3446324D01*
X2236516Y3445954D01*
X2236331Y3445862D01*
X2235222Y3444660D01*
X2234389Y3443458D01*
X2233835Y3442164D01*
X2233372Y3441054D01*
X2233188Y3439945D01*
X2233095Y3439113D01*
X2233003Y3438558D01*
Y3438465D01*
Y3438373D01*
X2233095Y3437263D01*
X2233280Y3436154D01*
X2233557Y3435229D01*
X2233835Y3434397D01*
X2234205Y3433658D01*
X2234482Y3433103D01*
X2234667Y3432733D01*
X2234759Y3432641D01*
X2235407Y3431716D01*
X2236239Y3430884D01*
X2237071Y3430237D01*
X2237903Y3429682D01*
X2238642Y3429312D01*
X2239197Y3429035D01*
X2239567Y3428850D01*
X2239752Y3428757D01*
X2241046Y3428388D01*
X2242526Y3428110D01*
X2244005Y3427925D01*
X2245484Y3427833D01*
X2246779Y3427740D01*
X2247888Y3427648D01*
X2266934D01*
Y3448820D01*
D02*
G37*
G36*
X2139345Y3443181D02*
Y3414519D01*
X2159500D01*
X2139345Y3443181D01*
D02*
G37*
G36*
X1718154Y3451360D02*
X1697999D01*
X1695502Y3451268D01*
X1693376Y3450898D01*
X1691527Y3450436D01*
X1690140Y3449881D01*
X1688938Y3449326D01*
X1688198Y3448864D01*
X1687736Y3448494D01*
X1687551Y3448402D01*
X1686442Y3447200D01*
X1685610Y3445998D01*
X1685055Y3444704D01*
X1684593Y3443594D01*
X1684408Y3442485D01*
X1684315Y3441653D01*
X1684223Y3441098D01*
Y3441005D01*
Y3440913D01*
X1684315Y3439803D01*
X1684500Y3438694D01*
X1684777Y3437769D01*
X1685055Y3436937D01*
X1685425Y3436198D01*
X1685702Y3435643D01*
X1685887Y3435273D01*
X1685979Y3435181D01*
X1686627Y3434256D01*
X1687459Y3433424D01*
X1688291Y3432777D01*
X1689123Y3432222D01*
X1689863Y3431852D01*
X1690417Y3431575D01*
X1690787Y3431390D01*
X1690972Y3431297D01*
X1692266Y3430928D01*
X1693746Y3430650D01*
X1695225Y3430465D01*
X1696704Y3430373D01*
X1697999Y3430280D01*
X1699108Y3430188D01*
X1718154D01*
Y3451360D01*
D02*
G37*
G36*
X1993814Y3448820D02*
X1973658D01*
X1971162Y3448728D01*
X1969036Y3448358D01*
X1967187Y3447896D01*
X1965800Y3447341D01*
X1964598Y3446786D01*
X1963858Y3446324D01*
X1963396Y3445954D01*
X1963211Y3445862D01*
X1962101Y3444660D01*
X1961269Y3443458D01*
X1960715Y3442164D01*
X1960252Y3441054D01*
X1960067Y3439945D01*
X1959975Y3439113D01*
X1959883Y3438558D01*
Y3438465D01*
Y3438373D01*
X1959975Y3437263D01*
X1960160Y3436154D01*
X1960437Y3435229D01*
X1960715Y3434397D01*
X1961084Y3433658D01*
X1961362Y3433103D01*
X1961547Y3432733D01*
X1961639Y3432641D01*
X1962286Y3431716D01*
X1963119Y3430884D01*
X1963951Y3430237D01*
X1964783Y3429682D01*
X1965522Y3429312D01*
X1966077Y3429035D01*
X1966447Y3428850D01*
X1966632Y3428757D01*
X1967926Y3428388D01*
X1969406Y3428110D01*
X1970885Y3427925D01*
X1972364Y3427833D01*
X1973658Y3427740D01*
X1974768Y3427648D01*
X1993814D01*
Y3448820D01*
D02*
G37*
G36*
X2692329Y3426538D02*
X2691774D01*
X2689833Y3426354D01*
X2688076Y3425891D01*
X2686597Y3425337D01*
X2685302Y3424597D01*
X2684285Y3423857D01*
X2683546Y3423303D01*
X2683084Y3422840D01*
X2682899Y3422655D01*
X2681697Y3421084D01*
X2680772Y3419419D01*
X2680125Y3417663D01*
X2679755Y3415999D01*
X2679478Y3414519D01*
X2679385Y3413872D01*
Y3413317D01*
X2679293Y3412855D01*
Y3412485D01*
Y3412300D01*
Y3412208D01*
X2679478Y3409711D01*
X2679848Y3407585D01*
X2680402Y3405736D01*
X2681050Y3404164D01*
X2681789Y3402962D01*
X2682344Y3402038D01*
X2682714Y3401483D01*
X2682899Y3401390D01*
Y3401298D01*
X2683546Y3400558D01*
X2684285Y3400004D01*
X2685765Y3398987D01*
X2687244Y3398339D01*
X2688538Y3397785D01*
X2689740Y3397507D01*
X2690665Y3397415D01*
X2691035Y3397322D01*
X2691497D01*
X2692791Y3397415D01*
X2693993Y3397600D01*
X2695103Y3397970D01*
X2696027Y3398339D01*
X2696859Y3398617D01*
X2697507Y3398987D01*
X2697876Y3399172D01*
X2698061Y3399264D01*
X2699171Y3400096D01*
X2700095Y3400928D01*
X2700928Y3401945D01*
X2701575Y3402777D01*
X2702129Y3403609D01*
X2702499Y3404257D01*
X2702777Y3404719D01*
X2702869Y3404904D01*
X2703424Y3406291D01*
X2703794Y3407677D01*
X2704164Y3408972D01*
X2704348Y3410174D01*
X2704441Y3411191D01*
X2704533Y3412023D01*
Y3412485D01*
Y3412670D01*
X2704348Y3414889D01*
X2703979Y3416831D01*
X2703331Y3418587D01*
X2702684Y3419974D01*
X2702037Y3421176D01*
X2701390Y3422008D01*
X2701020Y3422470D01*
X2700835Y3422655D01*
X2699356Y3423950D01*
X2697876Y3424874D01*
X2696305Y3425614D01*
X2694918Y3426076D01*
X2693624Y3426354D01*
X2692699Y3426446D01*
X2692329Y3426538D01*
D02*
G37*
G36*
X1044376Y3449745D02*
X1043822D01*
X1042805Y3449652D01*
X1041788Y3449560D01*
X1040863Y3449283D01*
X1040031Y3448913D01*
X1038459Y3448081D01*
X1037072Y3447156D01*
X1036055Y3446139D01*
X1035223Y3445307D01*
X1034946Y3444937D01*
X1034761Y3444660D01*
X1034576Y3444567D01*
Y3444475D01*
X1033929Y3443365D01*
X1033374Y3442071D01*
X1032819Y3440592D01*
X1032450Y3439020D01*
X1032080Y3437356D01*
X1031802Y3435599D01*
X1031340Y3432086D01*
X1031155Y3430329D01*
X1031063Y3428757D01*
X1030970Y3427278D01*
Y3426076D01*
X1030878Y3424967D01*
Y3424135D01*
Y3423672D01*
Y3423580D01*
Y3423487D01*
Y3420621D01*
X1031063Y3418033D01*
X1031248Y3415721D01*
X1031433Y3413502D01*
X1031710Y3411653D01*
X1032080Y3409896D01*
X1032450Y3408417D01*
X1032727Y3407030D01*
X1033097Y3405921D01*
X1033467Y3404996D01*
X1033744Y3404164D01*
X1034114Y3403517D01*
X1034299Y3403055D01*
X1034484Y3402777D01*
X1034668Y3402592D01*
Y3402500D01*
X1035408Y3401575D01*
X1036148Y3400836D01*
X1036887Y3400096D01*
X1037627Y3399541D01*
X1039199Y3398617D01*
X1040586Y3397970D01*
X1041880Y3397600D01*
X1042805Y3397415D01*
X1043174Y3397322D01*
X1043729D01*
X1044746Y3397415D01*
X1045671Y3397507D01*
X1047427Y3398154D01*
X1048999Y3398987D01*
X1050386Y3399911D01*
X1051403Y3400836D01*
X1052235Y3401668D01*
X1052697Y3402315D01*
X1052882Y3402407D01*
Y3402500D01*
X1053530Y3403609D01*
X1054084Y3404904D01*
X1054639Y3406383D01*
X1055009Y3407955D01*
X1055379Y3409619D01*
X1055656Y3411376D01*
X1056118Y3414981D01*
X1056303Y3416646D01*
X1056396Y3418217D01*
X1056488Y3419697D01*
Y3420899D01*
X1056581Y3422008D01*
Y3422840D01*
Y3423303D01*
Y3423487D01*
X1056488Y3426354D01*
X1056396Y3428942D01*
X1056211Y3431346D01*
X1055933Y3433565D01*
X1055656Y3435507D01*
X1055286Y3437263D01*
X1054916Y3438835D01*
X1054547Y3440222D01*
X1054177Y3441424D01*
X1053899Y3442441D01*
X1053530Y3443273D01*
X1053252Y3444013D01*
X1052975Y3444475D01*
X1052790Y3444845D01*
X1052605Y3445030D01*
Y3445122D01*
X1051958Y3445954D01*
X1051311Y3446694D01*
X1050571Y3447249D01*
X1049831Y3447803D01*
X1048352Y3448635D01*
X1046965Y3449190D01*
X1045763Y3449468D01*
X1044746Y3449652D01*
X1044376Y3449745D01*
D02*
G37*
%LPD*%
D82*
X2135000Y3645000D02*
Y3655000D01*
X2265000Y3645000D02*
Y3655000D01*
X1860000Y3645000D02*
Y3655000D01*
X1990000Y3645000D02*
Y3655000D01*
X1585000Y3645000D02*
Y3655000D01*
X1715000Y3645000D02*
Y3655000D01*
X9720000Y1940000D02*
X9730000D01*
X9720000Y1810000D02*
X9730000D01*
X9720000Y2190000D02*
X9730000D01*
X9720000Y2060000D02*
X9730000D01*
%TF.MD5,45c731c0704bf1e2637b335e30580ded*%
M02*
