%TF.GenerationSoftware,Altium Limited,Altium Designer,21.0.9 (235)*%
G04 Layer_Color=2752767*
%FSLAX45Y45*%
%MOMM*%
%TF.SameCoordinates,22D8F9FD-25AF-47CB-AFD4-ABA5F5DCC75B*%
%TF.FilePolarity,Positive*%
%TF.FileFunction,Drawing*%
%TF.Part,Single*%
G01*
G75*
%TA.AperFunction,NonConductor*%
%ADD167C,0.12700*%
%ADD168C,0.16933*%
D167*
X9312700Y4074200D02*
Y4175800D01*
X9414300D01*
Y4074200D01*
X9312700D01*
X9185700D02*
Y4175800D01*
X9287300D01*
Y4074200D01*
X9185700D01*
X9662700Y3705200D02*
Y3806800D01*
X9764300D01*
Y3705200D01*
X9662700D01*
X9535700D02*
Y3806800D01*
X9637300D01*
Y3705200D01*
X9535700D01*
X9662700Y3578200D02*
Y3679800D01*
X9764300D01*
Y3578200D01*
X9662700D01*
Y3451200D02*
Y3552800D01*
X9764300D01*
Y3451200D01*
X9662700D01*
X9535700Y3578200D02*
Y3679800D01*
X9637300D01*
Y3578200D01*
X9535700D01*
Y3451200D02*
Y3552800D01*
X9637300D01*
Y3451200D01*
X9535700D01*
X9662700Y3324200D02*
Y3425800D01*
X9764300D01*
Y3324200D01*
X9662700D01*
X9535700D02*
Y3425800D01*
X9637300D01*
Y3324200D01*
X9535700D01*
X9662700Y3197200D02*
Y3298800D01*
X9764300D01*
Y3197200D01*
X9662700D01*
Y3070200D02*
Y3171800D01*
X9764300D01*
Y3070200D01*
X9662700D01*
Y2943200D02*
Y3044800D01*
X9764300D01*
Y2943200D01*
X9662700D01*
X9535700Y3197200D02*
Y3298800D01*
X9637300D01*
Y3197200D01*
X9535700D01*
Y3070200D02*
Y3171800D01*
X9637300D01*
Y3070200D01*
X9535700D01*
Y2943200D02*
Y3044800D01*
X9637300D01*
Y2943200D01*
X9535700D01*
X8762700Y1335700D02*
Y1437300D01*
X8864300D01*
Y1335700D01*
X8762700D01*
X8635700D02*
Y1437300D01*
X8737300D01*
Y1335700D01*
X8635700D01*
X8762700Y1462700D02*
Y1564300D01*
X8864300D01*
Y1462700D01*
X8762700D01*
X8635700D02*
Y1564300D01*
X8737300D01*
Y1462700D01*
X8635700D01*
X250000Y199200D02*
X199200Y300800D01*
X300800D01*
X250000Y199200D01*
X9750000D02*
X9699200Y300800D01*
X9800800D01*
X9750000Y199200D01*
Y4699200D02*
X9699200Y4800800D01*
X9800800D01*
X9750000Y4699200D01*
X250000D02*
X199200Y4800800D01*
X300800D01*
X250000Y4699200D01*
X9782000Y1517200D02*
X9807400Y1542600D01*
X9832800D01*
X9807400Y1568000D01*
X9832800Y1593400D01*
X9807400D01*
X9782000Y1618800D01*
X9756600Y1593400D01*
X9731200D01*
X9756600Y1568000D01*
X9731200Y1542600D01*
X9756600D01*
X9782000Y1517200D01*
X9313200Y2381200D02*
X9338600Y2432000D01*
X9313200Y2482800D01*
X9364000Y2457400D01*
X9414800Y2482800D01*
X9389400Y2432000D01*
X9414800Y2381200D01*
X9364000Y2406600D01*
X9313200Y2381200D01*
Y1517200D02*
X9338600Y1568000D01*
X9313200Y1618800D01*
X9364000Y1593400D01*
X9414800Y1618800D01*
X9389400Y1568000D01*
X9414800Y1517200D01*
X9364000Y1542600D01*
X9313200Y1517200D01*
X9782000Y2381200D02*
X9807400Y2406600D01*
X9832800D01*
X9807400Y2432000D01*
X9832800Y2457400D01*
X9807400D01*
X9782000Y2482800D01*
X9756600Y2457400D01*
X9731200D01*
X9756600Y2432000D01*
X9731200Y2406600D01*
X9756600D01*
X9782000Y2381200D01*
X9391600Y2263600D02*
Y2238200D01*
X9442400D01*
Y2263600D01*
X9467800D01*
Y2314400D01*
X9442400D01*
Y2339800D01*
X9391600D01*
Y2314400D01*
X9366200D01*
Y2263600D01*
X9391600D01*
Y1685600D02*
Y1660200D01*
X9442400D01*
Y1685600D01*
X9467800D01*
Y1736400D01*
X9442400D01*
Y1761800D01*
X9391600D01*
Y1736400D01*
X9366200D01*
Y1685600D01*
X9391600D01*
X1533700Y2146800D02*
X1559100D01*
X1584500Y2172200D01*
X1609900Y2146800D01*
X1635300D01*
Y2172200D01*
X1609900Y2197600D01*
X1635300Y2223000D01*
Y2248400D01*
X1609900D01*
X1584500Y2223000D01*
X1559100Y2248400D01*
X1533700D01*
Y2223000D01*
X1559100Y2197600D01*
X1533700Y2172200D01*
Y2146800D01*
X8482140Y3082500D02*
X8532940Y3133300D01*
X8583740Y3082500D01*
X8532940Y3031700D01*
X8482140Y3082500D01*
X7505040Y3057500D02*
X7555840Y3108300D01*
X7606640Y3057500D01*
X7555840Y3006700D01*
X7505040Y3057500D01*
X7152640Y3180080D02*
X7203440Y3230880D01*
X7254240Y3180080D01*
X7203440Y3129280D01*
X7152640Y3180080D01*
X6555080Y3057500D02*
X6605880Y3108300D01*
X6656680Y3057500D01*
X6605880Y3006700D01*
X6555080Y3057500D01*
X5606700Y3082500D02*
X5657500Y3133300D01*
X5708300Y3082500D01*
X5657500Y3031700D01*
X5606700Y3082500D01*
X8199200Y1300000D02*
X8250000Y1350800D01*
X8300800Y1300000D01*
X8250000Y1249200D01*
X8199200Y1300000D01*
X8549200Y174200D02*
Y275800D01*
X8650800D01*
Y174200D01*
X8549200D01*
X8569520Y194520D02*
Y255480D01*
X8630480D01*
Y194520D01*
X8569520D01*
X8249200Y174200D02*
Y275800D01*
X8350800D01*
Y174200D01*
X8249200D01*
X8269520Y194520D02*
Y255480D01*
X8330480D01*
Y194520D01*
X8269520D01*
X8134200Y450000D02*
X8185000Y500800D01*
X8235800Y450000D01*
X8185000Y399200D01*
X8134200Y450000D01*
X8284200D02*
X8335000Y500800D01*
X8385800Y450000D01*
X8335000Y399200D01*
X8284200Y450000D01*
X8134200Y375000D02*
X8185000Y425800D01*
X8235800Y375000D01*
X8185000Y324200D01*
X8134200Y375000D01*
X8284200D02*
X8335000Y425800D01*
X8385800Y375000D01*
X8335000Y324200D01*
X8284200Y375000D01*
X8434200D02*
X8485000Y425800D01*
X8535800Y375000D01*
X8485000Y324200D01*
X8434200Y375000D01*
X8584200D02*
X8635000Y425800D01*
X8685800Y375000D01*
X8635000Y324200D01*
X8584200Y375000D01*
X8734200Y450000D02*
X8785000Y500800D01*
X8835800Y450000D01*
X8785000Y399200D01*
X8734200Y450000D01*
X8584200D02*
X8635000Y500800D01*
X8685800Y450000D01*
X8635000Y399200D01*
X8584200Y450000D01*
X8734200Y375000D02*
X8785000Y425800D01*
X8835800Y375000D01*
X8785000Y324200D01*
X8734200Y375000D01*
X1274200D02*
X1325000Y425800D01*
X1375800Y375000D01*
X1325000Y324200D01*
X1274200Y375000D01*
X1124200Y450000D02*
X1175000Y500800D01*
X1225800Y450000D01*
X1175000Y399200D01*
X1124200Y450000D01*
X1199200D02*
X1250000Y500800D01*
X1300800Y450000D01*
X1250000Y399200D01*
X1199200Y450000D01*
X1274200D02*
X1325000Y500800D01*
X1375800Y450000D01*
X1325000Y399200D01*
X1274200Y450000D01*
X1199200Y375000D02*
X1250000Y425800D01*
X1300800Y375000D01*
X1250000Y324200D01*
X1199200Y375000D01*
X1124200D02*
X1175000Y425800D01*
X1225800Y375000D01*
X1175000Y324200D01*
X1124200Y375000D01*
X1049200D02*
X1100000Y425800D01*
X1150800Y375000D01*
X1100000Y324200D01*
X1049200Y375000D01*
X974200D02*
X1025000Y425800D01*
X1075800Y375000D01*
X1025000Y324200D01*
X974200Y375000D01*
X899200D02*
X950000Y425800D01*
X1000800Y375000D01*
X950000Y324200D01*
X899200Y375000D01*
X824200D02*
X875000Y425800D01*
X925800Y375000D01*
X875000Y324200D01*
X824200Y375000D01*
X749200D02*
X800000Y425800D01*
X850800Y375000D01*
X800000Y324200D01*
X749200Y375000D01*
X674200D02*
X725000Y425800D01*
X775800Y375000D01*
X725000Y324200D01*
X674200Y375000D01*
X824200Y450000D02*
X875000Y500800D01*
X925800Y450000D01*
X875000Y399200D01*
X824200Y450000D01*
X749200D02*
X800000Y500800D01*
X850800Y450000D01*
X800000Y399200D01*
X749200Y450000D01*
X674200D02*
X725000Y500800D01*
X775800Y450000D01*
X725000Y399200D01*
X674200Y450000D01*
X2276700Y800000D02*
X2327500Y850800D01*
X2378300Y800000D01*
X2327500Y749200D01*
X2276700Y800000D01*
X2071700D02*
X2122500Y850800D01*
X2173300Y800000D01*
X2122500Y749200D01*
X2071700Y800000D01*
X7609200Y3380000D02*
X7660000Y3430800D01*
X7710800Y3380000D01*
X7660000Y3329200D01*
X7609200Y3380000D01*
X8491700Y2397500D02*
X8542500Y2448300D01*
X8593300Y2397500D01*
X8542500Y2346700D01*
X8491700Y2397500D01*
X8496700Y1750000D02*
X8547500Y1800800D01*
X8598300Y1750000D01*
X8547500Y1699200D01*
X8496700Y1750000D01*
X5839200Y2957500D02*
X5890000Y3008300D01*
X5940800Y2957500D01*
X5890000Y2906700D01*
X5839200Y2957500D01*
X5941700Y2755000D02*
X5992500Y2805800D01*
X6043300Y2755000D01*
X5992500Y2704200D01*
X5941700Y2755000D01*
X1174200Y3557500D02*
X1225000Y3608300D01*
X1275800Y3557500D01*
X1225000Y3506700D01*
X1174200Y3557500D01*
X1321700Y3420000D02*
X1372500Y3470800D01*
X1423300Y3420000D01*
X1372500Y3369200D01*
X1321700Y3420000D01*
X1874200Y3877500D02*
X1925000Y3928300D01*
X1975800Y3877500D01*
X1925000Y3826700D01*
X1874200Y3877500D01*
X1599200Y3875000D02*
X1650000Y3925800D01*
X1700800Y3875000D01*
X1650000Y3824200D01*
X1599200Y3875000D01*
X7012300Y546900D02*
X7063100Y597700D01*
X7113900Y546900D01*
X7063100Y496100D01*
X7012300Y546900D01*
X7506700Y560000D02*
X7557500Y610800D01*
X7608300Y560000D01*
X7557500Y509200D01*
X7506700Y560000D01*
X7309169Y1256446D02*
X7359969Y1307246D01*
X7410769Y1256446D01*
X7359969Y1205646D01*
X7309169Y1256446D01*
X6836700Y2747500D02*
X6887500Y2798300D01*
X6938300Y2747500D01*
X6887500Y2696700D01*
X6836700Y2747500D01*
X6688389Y2590458D02*
X6739189Y2641258D01*
X6789989Y2590458D01*
X6739189Y2539658D01*
X6688389Y2590458D01*
X6624200Y2601510D02*
X6675000Y2652310D01*
X6725800Y2601510D01*
X6675000Y2550710D01*
X6624200Y2601510D01*
X6089200Y2372500D02*
X6140000Y2423300D01*
X6190800Y2372500D01*
X6140000Y2321700D01*
X6089200Y2372500D01*
X5876700Y2000000D02*
X5927500Y2050800D01*
X5978300Y2000000D01*
X5927500Y1949200D01*
X5876700Y2000000D01*
X5509402Y1032500D02*
X5560202Y1083300D01*
X5611002Y1032500D01*
X5560202Y981700D01*
X5509402Y1032500D01*
X6906702Y1210203D02*
X6957502Y1261003D01*
X7008302Y1210203D01*
X6957502Y1159403D01*
X6906702Y1210203D01*
X9554200Y1235202D02*
X9605000Y1286002D01*
X9655800Y1235202D01*
X9605000Y1184402D01*
X9554200Y1235202D01*
X8791702Y1860205D02*
X8842502Y1911005D01*
X8893302Y1860205D01*
X8842502Y1809405D01*
X8791702Y1860205D01*
Y2289800D02*
X8842502Y2340600D01*
X8893302Y2289800D01*
X8842502Y2239000D01*
X8791702Y2289800D01*
X7969199Y3439800D02*
X8019999Y3490600D01*
X8070799Y3439800D01*
X8019999Y3389000D01*
X7969199Y3439800D01*
X7716698D02*
X7767498Y3490600D01*
X7818298Y3439800D01*
X7767498Y3389000D01*
X7716698Y3439800D01*
X7531699D02*
X7582499Y3490600D01*
X7633299Y3439800D01*
X7582499Y3389000D01*
X7531699Y3439800D01*
X7069201D02*
X7120001Y3490600D01*
X7170801Y3439800D01*
X7120001Y3389000D01*
X7069201Y3439800D01*
X6816700D02*
X6867500Y3490600D01*
X6918300Y3439800D01*
X6867500Y3389000D01*
X6816700Y3439800D01*
X6631701D02*
X6682501Y3490600D01*
X6733301Y3439800D01*
X6682501Y3389000D01*
X6631701Y3439800D01*
X6169198D02*
X6219998Y3490600D01*
X6270798Y3439800D01*
X6219998Y3389000D01*
X6169198Y3439800D01*
X5916701D02*
X5967501Y3490600D01*
X6018301Y3439800D01*
X5967501Y3389000D01*
X5916701Y3439800D01*
X5731698D02*
X5782498Y3490600D01*
X5833298Y3439800D01*
X5782498Y3389000D01*
X5731698Y3439800D01*
X5269200Y3660201D02*
X5320000Y3711001D01*
X5370800Y3660201D01*
X5320000Y3609401D01*
X5269200Y3660201D01*
X5079202Y3227299D02*
X5130002Y3278099D01*
X5180802Y3227299D01*
X5130002Y3176499D01*
X5079202Y3227299D01*
X5388997Y3267502D02*
X5439797Y3318302D01*
X5490597Y3267502D01*
X5439797Y3216702D01*
X5388997Y3267502D01*
X6029198Y3227299D02*
X6079998Y3278099D01*
X6130798Y3227299D01*
X6079998Y3176499D01*
X6029198Y3227299D01*
X6338996Y3242502D02*
X6389796Y3293302D01*
X6440596Y3242502D01*
X6389796Y3191702D01*
X6338996Y3242502D01*
X6659199Y3209798D02*
X6709999Y3260598D01*
X6760799Y3209798D01*
X6709999Y3158998D01*
X6659199Y3209798D01*
X7289000Y3242502D02*
X7339800Y3293302D01*
X7390600Y3242502D01*
X7339800Y3191702D01*
X7289000Y3242502D01*
X7929199Y3227299D02*
X7979999Y3278099D01*
X8030799Y3227299D01*
X7979999Y3176499D01*
X7929199Y3227299D01*
X8263999Y3267502D02*
X8314799Y3318302D01*
X8365599Y3267502D01*
X8314799Y3216702D01*
X8263999Y3267502D01*
X7971622Y2654899D02*
X8022422Y2705699D01*
X8073222Y2654899D01*
X8022422Y2604099D01*
X7971622Y2654899D01*
X6676300Y1227500D02*
X6727100Y1278300D01*
X6777900Y1227500D01*
X6727100Y1176700D01*
X6676300Y1227500D01*
X6764200Y1100000D02*
X6815000Y1150800D01*
X6865800Y1100000D01*
X6815000Y1049200D01*
X6764200Y1100000D01*
X7251700D02*
X7302500Y1150800D01*
X7353300Y1100000D01*
X7302500Y1049200D01*
X7251700Y1100000D01*
X5981497Y750001D02*
X6032297Y800801D01*
X6083097Y750001D01*
X6032297Y699201D01*
X5981497Y750001D01*
X5734401Y1607500D02*
X5785201Y1658300D01*
X5836001Y1607500D01*
X5785201Y1556700D01*
X5734401Y1607500D01*
X5859404Y2242500D02*
X5910204Y2293300D01*
X5961004Y2242500D01*
X5910204Y2191700D01*
X5859404Y2242500D01*
X7541702Y1210203D02*
X7592502Y1261003D01*
X7643302Y1210203D01*
X7592502Y1159403D01*
X7541702Y1210203D01*
X6456700D02*
X6507500Y1261003D01*
X6558300Y1210203D01*
X6507500Y1159403D01*
X6456700Y1210203D01*
X7216699Y2860203D02*
X7267499Y2911003D01*
X7318299Y2860203D01*
X7267499Y2809403D01*
X7216699Y2860203D01*
X7031700Y2639797D02*
X7082500Y2690597D01*
X7133300Y2639797D01*
X7082500Y2588997D01*
X7031700Y2639797D01*
X7591699D02*
X7642499Y2690597D01*
X7693299Y2639797D01*
X7642499Y2588997D01*
X7591699Y2639797D01*
X7406701D02*
X7457501Y2690597D01*
X7508301Y2639797D01*
X7457501Y2588997D01*
X7406701Y2639797D01*
X5781700Y1460200D02*
X5832500Y1511000D01*
X5883300Y1460200D01*
X5832500Y1409400D01*
X5781700Y1460200D01*
X6734404Y842498D02*
X6785204Y893298D01*
X6836004Y842498D01*
X6785204Y791698D01*
X6734404Y842498D01*
X6513998Y657499D02*
X6564798Y708299D01*
X6615598Y657499D01*
X6564798Y606699D01*
X6513998Y657499D01*
X5789000Y1805000D02*
X5839800Y1855800D01*
X5890600Y1805000D01*
X5839800Y1754200D01*
X5789000Y1805000D01*
X6063996Y1594998D02*
X6114796Y1645798D01*
X6165596Y1594998D01*
X6114796Y1544198D01*
X6063996Y1594998D01*
X5659404Y645003D02*
X5710204Y695803D01*
X5761004Y645003D01*
X5710204Y594203D01*
X5659404Y645003D01*
X7986700Y1602500D02*
X8037500Y1653300D01*
X8088300Y1602500D01*
X8037500Y1551700D01*
X7986700Y1602500D01*
Y1792500D02*
X8037500Y1843300D01*
X8088300Y1792500D01*
X8037500Y1741700D01*
X7986700Y1792500D01*
X7706700Y2237500D02*
X7757500Y2288300D01*
X7808300Y2237500D01*
X7757500Y2186700D01*
X7706700Y2237500D01*
X7986700Y2057500D02*
X8037500Y2108300D01*
X8088300Y2057500D01*
X8037500Y2006700D01*
X7986700Y2057500D01*
Y2242500D02*
X8037500Y2293300D01*
X8088300Y2242500D01*
X8037500Y2191700D01*
X7986700Y2242500D01*
X3860800Y1600200D02*
X3911600Y1651000D01*
X3962400Y1600200D01*
X3911600Y1549400D01*
X3860800Y1600200D01*
X3814170Y2029460D02*
X3864970Y2080260D01*
X3915770Y2029460D01*
X3864970Y1978660D01*
X3814170Y2029460D01*
X1427480Y3258820D02*
X1478280Y3309620D01*
X1529080Y3258820D01*
X1478280Y3208020D01*
X1427480Y3258820D01*
X6822440Y2347870D02*
X6873240Y2398670D01*
X6924040Y2347870D01*
X6873240Y2297070D01*
X6822440Y2347870D01*
X5796280Y2500270D02*
X5847080Y2551070D01*
X5897880Y2500270D01*
X5847080Y2449470D01*
X5796280Y2500270D01*
X5839460Y2458720D02*
X5890260Y2509520D01*
X5941060Y2458720D01*
X5890260Y2407920D01*
X5839460Y2458720D01*
X6921500Y2346960D02*
X6972300Y2397760D01*
X7023100Y2346960D01*
X6972300Y2296160D01*
X6921500Y2346960D01*
X6237299Y1091259D02*
X6288099Y1142059D01*
X6338899Y1091259D01*
X6288099Y1040459D01*
X6237299Y1091259D01*
X6286500Y1216660D02*
X6337300Y1267460D01*
X6388100Y1216660D01*
X6337300Y1165860D01*
X6286500Y1216660D01*
X6604000Y1765300D02*
X6654800Y1816100D01*
X6705600Y1765300D01*
X6654800Y1714500D01*
X6604000Y1765300D01*
X6723380Y3131820D02*
X6774180Y3182620D01*
X6824980Y3131820D01*
X6774180Y3081020D01*
X6723380Y3131820D01*
X5768340Y3119120D02*
X5819140Y3169920D01*
X5869940Y3119120D01*
X5819140Y3068320D01*
X5768340Y3119120D01*
X6372860Y2374900D02*
X6423660Y2425700D01*
X6474460Y2374900D01*
X6423660Y2324100D01*
X6372860Y2374900D01*
X6499860Y2545080D02*
X6550660Y2595880D01*
X6601460Y2545080D01*
X6550660Y2494280D01*
X6499860Y2545080D01*
X6718300Y2639800D02*
X6769100Y2690600D01*
X6819900Y2639800D01*
X6769100Y2589000D01*
X6718300Y2639800D01*
X5470861Y2646320D02*
X5521661Y2697120D01*
X5572461Y2646320D01*
X5521661Y2595520D01*
X5470861Y2646320D01*
X7076440Y3106420D02*
X7127240Y3157220D01*
X7178040Y3106420D01*
X7127240Y3055620D01*
X7076440Y3106420D01*
X7673340Y3130910D02*
X7724140Y3181710D01*
X7774940Y3130910D01*
X7724140Y3080110D01*
X7673340Y3130910D01*
X6824980Y2616200D02*
X6875780Y2667000D01*
X6926580Y2616200D01*
X6875780Y2565400D01*
X6824980Y2616200D01*
X7574280Y2938780D02*
X7625080Y2989580D01*
X7675880Y2938780D01*
X7625080Y2887980D01*
X7574280Y2938780D01*
X7175500Y2628900D02*
X7226300Y2679700D01*
X7277100Y2628900D01*
X7226300Y2578100D01*
X7175500Y2628900D01*
X7355840Y2872740D02*
X7406640Y2923540D01*
X7457440Y2872740D01*
X7406640Y2821940D01*
X7355840Y2872740D01*
X7089923Y2046810D02*
X7140723Y2097610D01*
X7191523Y2046810D01*
X7140723Y1996010D01*
X7089923Y2046810D01*
X7073900Y2362200D02*
X7124700Y2413000D01*
X7175500Y2362200D01*
X7124700Y2311400D01*
X7073900Y2362200D01*
X7404598Y2149963D02*
X7455398Y2200763D01*
X7506198Y2149963D01*
X7455398Y2099163D01*
X7404598Y2149963D01*
X7071360Y2279460D02*
X7122160Y2330260D01*
X7172960Y2279460D01*
X7122160Y2228660D01*
X7071360Y2279460D01*
X7256780Y2237740D02*
X7307580Y2288540D01*
X7358380Y2237740D01*
X7307580Y2186940D01*
X7256780Y2237740D01*
X7137230Y2237910D02*
X7188030Y2288710D01*
X7238830Y2237910D01*
X7188030Y2187110D01*
X7137230Y2237910D01*
X6327510Y1899550D02*
X6378310Y1950350D01*
X6429110Y1899550D01*
X6378310Y1848750D01*
X6327510Y1899550D01*
X6233160Y1930400D02*
X6283960Y1981200D01*
X6334760Y1930400D01*
X6283960Y1879600D01*
X6233160Y1930400D01*
X6921500Y3180080D02*
X6972300Y3230880D01*
X7023100Y3180080D01*
X6972300Y3129280D01*
X6921500Y3180080D01*
X9680000Y1869440D02*
X9730800Y1920240D01*
X9781600Y1869440D01*
X9730800Y1818640D01*
X9680000Y1869440D01*
X9681148Y2124338D02*
X9731948Y2175138D01*
X9782748Y2124338D01*
X9731948Y2073538D01*
X9681148Y2124338D01*
X9464040Y2120900D02*
X9514840Y2171700D01*
X9565640Y2120900D01*
X9514840Y2070100D01*
X9464040Y2120900D01*
X8557260Y1592580D02*
X8608060Y1643380D01*
X8658860Y1592580D01*
X8608060Y1541780D01*
X8557260Y1592580D01*
X6304280Y1648460D02*
X6355080Y1699260D01*
X6405880Y1648460D01*
X6355080Y1597660D01*
X6304280Y1648460D01*
X5773420Y1701800D02*
X5824220Y1752600D01*
X5875020Y1701800D01*
X5824220Y1651000D01*
X5773420Y1701800D01*
X4122730Y1592270D02*
X4173530Y1643070D01*
X4224330Y1592270D01*
X4173530Y1541470D01*
X4122730Y1592270D01*
X7066280Y840740D02*
X7117080Y891540D01*
X7167880Y840740D01*
X7117080Y789940D01*
X7066280Y840740D01*
X7056120Y660400D02*
X7106920Y711200D01*
X7157720Y660400D01*
X7106920Y609600D01*
X7056120Y660400D01*
X3254899Y1315000D02*
X3305699Y1365800D01*
X3356499Y1315000D01*
X3305699Y1264200D01*
X3254899Y1315000D01*
X9699200Y1049200D02*
Y1150800D01*
X9800800D01*
Y1049200D01*
X9699200D01*
X9719520Y1069520D02*
Y1130480D01*
X9780480D01*
Y1069520D01*
X9719520D01*
X9699200Y799200D02*
Y900800D01*
X9800800D01*
Y799200D01*
X9699200D01*
X9719520Y819520D02*
Y880480D01*
X9780480D01*
Y819520D01*
X9719520D01*
X9699200Y549200D02*
Y650800D01*
X9800800D01*
Y549200D01*
X9699200D01*
X9719520Y569520D02*
Y630480D01*
X9780480D01*
Y569520D01*
X9719520D01*
X9049200Y199200D02*
Y300800D01*
X9150800D01*
Y199200D01*
X9049200D01*
X9069520Y219520D02*
Y280480D01*
X9130480D01*
Y219520D01*
X9069520D01*
X9299200Y199200D02*
Y300800D01*
X9400800D01*
Y199200D01*
X9299200D01*
X9319520Y219520D02*
Y280480D01*
X9380480D01*
Y219520D01*
X9319520D01*
X9699200Y1299200D02*
Y1400800D01*
X9800800D01*
Y1299200D01*
X9699200D01*
X9719520Y1319520D02*
Y1380480D01*
X9780480D01*
Y1319520D01*
X9719520D01*
X9699200Y2549200D02*
Y2650800D01*
X9800800D01*
Y2549200D01*
X9699200D01*
X9719520Y2569520D02*
Y2630480D01*
X9780480D01*
Y2569520D01*
X9719520D01*
X9699200Y4099200D02*
Y4200800D01*
X9800800D01*
Y4099200D01*
X9699200D01*
X9719520Y4119520D02*
Y4180480D01*
X9780480D01*
Y4119520D01*
X9719520D01*
X9699200Y4349200D02*
Y4450800D01*
X9800800D01*
Y4349200D01*
X9699200D01*
X9719520Y4369520D02*
Y4430480D01*
X9780480D01*
Y4369520D01*
X9719520D01*
X1799200Y1049200D02*
Y1150800D01*
X1900800D01*
Y1049200D01*
X1799200D01*
X1819520Y1069520D02*
Y1130480D01*
X1880480D01*
Y1069520D01*
X1819520D01*
X1799200Y1299200D02*
Y1400800D01*
X1900800D01*
Y1299200D01*
X1799200D01*
X1819520Y1319520D02*
Y1380480D01*
X1880480D01*
Y1319520D01*
X1819520D01*
X1799200Y1549200D02*
Y1650800D01*
X1900800D01*
Y1549200D01*
X1799200D01*
X1819520Y1569520D02*
Y1630480D01*
X1880480D01*
Y1569520D01*
X1819520D01*
X1799200Y1799200D02*
Y1900800D01*
X1900800D01*
Y1799200D01*
X1799200D01*
X1819520Y1819520D02*
Y1880480D01*
X1880480D01*
Y1819520D01*
X1819520D01*
X1549200Y1799200D02*
Y1900800D01*
X1650800D01*
Y1799200D01*
X1549200D01*
X1569520Y1819520D02*
Y1880480D01*
X1630480D01*
Y1819520D01*
X1569520D01*
X1299200Y1799200D02*
Y1900800D01*
X1400800D01*
Y1799200D01*
X1299200D01*
X1319520Y1819520D02*
Y1880480D01*
X1380480D01*
Y1819520D01*
X1319520D01*
X1049200Y1799200D02*
Y1900800D01*
X1150800D01*
Y1799200D01*
X1049200D01*
X1069520Y1819520D02*
Y1880480D01*
X1130480D01*
Y1819520D01*
X1069520D01*
X799200Y1799200D02*
Y1900800D01*
X900800D01*
Y1799200D01*
X799200D01*
X819520Y1819520D02*
Y1880480D01*
X880480D01*
Y1819520D01*
X819520D01*
X549200Y1799200D02*
Y1900800D01*
X650800D01*
Y1799200D01*
X549200D01*
X569520Y1819520D02*
Y1880480D01*
X630480D01*
Y1819520D01*
X569520D01*
X549200Y1549200D02*
Y1650800D01*
X650800D01*
Y1549200D01*
X549200D01*
X569520Y1569520D02*
Y1630480D01*
X630480D01*
Y1569520D01*
X569520D01*
X549200Y1299200D02*
Y1400800D01*
X650800D01*
Y1299200D01*
X549200D01*
X569520Y1319520D02*
Y1380480D01*
X630480D01*
Y1319520D01*
X569520D01*
X549200Y1049200D02*
Y1150800D01*
X650800D01*
Y1049200D01*
X549200D01*
X569520Y1069520D02*
Y1130480D01*
X630480D01*
Y1069520D01*
X569520D01*
X549200Y799200D02*
Y900800D01*
X650800D01*
Y799200D01*
X549200D01*
X569520Y819520D02*
Y880480D01*
X630480D01*
Y819520D01*
X569520D01*
X549200Y549200D02*
Y650800D01*
X650800D01*
Y549200D01*
X549200D01*
X569520Y569520D02*
Y630480D01*
X630480D01*
Y569520D01*
X569520D01*
X549200Y199200D02*
Y300800D01*
X650800D01*
Y199200D01*
X549200D01*
X569520Y219520D02*
Y280480D01*
X630480D01*
Y219520D01*
X569520D01*
X799200Y199200D02*
Y300800D01*
X900800D01*
Y199200D01*
X799200D01*
X819520Y219520D02*
Y280480D01*
X880480D01*
Y219520D01*
X819520D01*
X1049200Y199200D02*
Y300800D01*
X1150800D01*
Y199200D01*
X1049200D01*
X1069520Y219520D02*
Y280480D01*
X1130480D01*
Y219520D01*
X1069520D01*
X1299200Y199200D02*
Y300800D01*
X1400800D01*
Y199200D01*
X1299200D01*
X1319520Y219520D02*
Y280480D01*
X1380480D01*
Y219520D01*
X1319520D01*
X1549200Y199200D02*
Y300800D01*
X1650800D01*
Y199200D01*
X1549200D01*
X1569520Y219520D02*
Y280480D01*
X1630480D01*
Y219520D01*
X1569520D01*
X1799200Y199200D02*
Y300800D01*
X1900800D01*
Y199200D01*
X1799200D01*
X1819520Y219520D02*
Y280480D01*
X1880480D01*
Y219520D01*
X1819520D01*
X8549200Y4699200D02*
Y4800800D01*
X8650800D01*
Y4699200D01*
X8549200D01*
X8569520Y4719520D02*
Y4780480D01*
X8630480D01*
Y4719520D01*
X8569520D01*
X8799200Y4699200D02*
Y4800800D01*
X8900800D01*
Y4699200D01*
X8799200D01*
X8819520Y4719520D02*
Y4780480D01*
X8880480D01*
Y4719520D01*
X8819520D01*
X9049200Y4699200D02*
Y4800800D01*
X9150800D01*
Y4699200D01*
X9049200D01*
X9069520Y4719520D02*
Y4780480D01*
X9130480D01*
Y4719520D01*
X9069520D01*
X9299200Y4699200D02*
Y4800800D01*
X9400800D01*
Y4699200D01*
X9299200D01*
X9319520Y4719520D02*
Y4780480D01*
X9380480D01*
Y4719520D01*
X9319520D01*
X4549200Y4699200D02*
Y4800800D01*
X4650800D01*
Y4699200D01*
X4549200D01*
X4569520Y4719520D02*
Y4780480D01*
X4630480D01*
Y4719520D01*
X4569520D01*
X4799200Y4699200D02*
Y4800800D01*
X4900800D01*
Y4699200D01*
X4799200D01*
X4819520Y4719520D02*
Y4780480D01*
X4880480D01*
Y4719520D01*
X4819520D01*
X7549200Y4699200D02*
Y4800800D01*
X7650800D01*
Y4699200D01*
X7549200D01*
X7569520Y4719520D02*
Y4780480D01*
X7630480D01*
Y4719520D01*
X7569520D01*
X549200Y4699200D02*
Y4800800D01*
X650800D01*
Y4699200D01*
X549200D01*
X569520Y4719520D02*
Y4780480D01*
X630480D01*
Y4719520D01*
X569520D01*
X799200Y4699200D02*
Y4800800D01*
X900800D01*
Y4699200D01*
X799200D01*
X819520Y4719520D02*
Y4780480D01*
X880480D01*
Y4719520D01*
X819520D01*
X1049200Y4699200D02*
Y4800800D01*
X1150800D01*
Y4699200D01*
X1049200D01*
X1069520Y4719520D02*
Y4780480D01*
X1130480D01*
Y4719520D01*
X1069520D01*
X1299200Y4699200D02*
Y4800800D01*
X1400800D01*
Y4699200D01*
X1299200D01*
X1319520Y4719520D02*
Y4780480D01*
X1380480D01*
Y4719520D01*
X1319520D01*
X1549200Y4699200D02*
Y4800800D01*
X1650800D01*
Y4699200D01*
X1549200D01*
X1569520Y4719520D02*
Y4780480D01*
X1630480D01*
Y4719520D01*
X1569520D01*
X1799200Y4699200D02*
Y4800800D01*
X1900800D01*
Y4699200D01*
X1799200D01*
X1819520Y4719520D02*
Y4780480D01*
X1880480D01*
Y4719520D01*
X1819520D01*
X2049200Y4699200D02*
Y4800800D01*
X2150800D01*
Y4699200D01*
X2049200D01*
X2069520Y4719520D02*
Y4780480D01*
X2130480D01*
Y4719520D01*
X2069520D01*
X2299200Y4699200D02*
Y4800800D01*
X2400800D01*
Y4699200D01*
X2299200D01*
X2319520Y4719520D02*
Y4780480D01*
X2380480D01*
Y4719520D01*
X2319520D01*
X2549200Y4699200D02*
Y4800800D01*
X2650800D01*
Y4699200D01*
X2549200D01*
X2569520Y4719520D02*
Y4780480D01*
X2630480D01*
Y4719520D01*
X2569520D01*
X2799200Y4699200D02*
Y4800800D01*
X2900800D01*
Y4699200D01*
X2799200D01*
X2819520Y4719520D02*
Y4780480D01*
X2880480D01*
Y4719520D01*
X2819520D01*
X3049200Y4699200D02*
Y4800800D01*
X3150800D01*
Y4699200D01*
X3049200D01*
X3069520Y4719520D02*
Y4780480D01*
X3130480D01*
Y4719520D01*
X3069520D01*
X3299200Y4699200D02*
Y4800800D01*
X3400800D01*
Y4699200D01*
X3299200D01*
X3319520Y4719520D02*
Y4780480D01*
X3380480D01*
Y4719520D01*
X3319520D01*
X3549200Y4699200D02*
Y4800800D01*
X3650800D01*
Y4699200D01*
X3549200D01*
X3569520Y4719520D02*
Y4780480D01*
X3630480D01*
Y4719520D01*
X3569520D01*
X3799200Y4699200D02*
Y4800800D01*
X3900800D01*
Y4699200D01*
X3799200D01*
X3819520Y4719520D02*
Y4780480D01*
X3880480D01*
Y4719520D01*
X3819520D01*
X4049200Y4699200D02*
Y4800800D01*
X4150800D01*
Y4699200D01*
X4049200D01*
X4069520Y4719520D02*
Y4780480D01*
X4130480D01*
Y4719520D01*
X4069520D01*
X4299200Y4699200D02*
Y4800800D01*
X4400800D01*
Y4699200D01*
X4299200D01*
X4319520Y4719520D02*
Y4780480D01*
X4380480D01*
Y4719520D01*
X4319520D01*
X199200Y4299200D02*
Y4400800D01*
X300800D01*
Y4299200D01*
X199200D01*
X219520Y4319520D02*
Y4380480D01*
X280480D01*
Y4319520D01*
X219520D01*
X199200Y4049200D02*
Y4150800D01*
X300800D01*
Y4049200D01*
X199200D01*
X219520Y4069520D02*
Y4130480D01*
X280480D01*
Y4069520D01*
X219520D01*
X199200Y3799200D02*
Y3900800D01*
X300800D01*
Y3799200D01*
X199200D01*
X219520Y3819520D02*
Y3880480D01*
X280480D01*
Y3819520D01*
X219520D01*
X199200Y3549200D02*
Y3650800D01*
X300800D01*
Y3549200D01*
X199200D01*
X219520Y3569520D02*
Y3630480D01*
X280480D01*
Y3569520D01*
X219520D01*
X199200Y3299200D02*
Y3400800D01*
X300800D01*
Y3299200D01*
X199200D01*
X219520Y3319520D02*
Y3380480D01*
X280480D01*
Y3319520D01*
X219520D01*
X199200Y3049200D02*
Y3150800D01*
X300800D01*
Y3049200D01*
X199200D01*
X219520Y3069520D02*
Y3130480D01*
X280480D01*
Y3069520D01*
X219520D01*
X199200Y2799200D02*
Y2900800D01*
X300800D01*
Y2799200D01*
X199200D01*
X219520Y2819520D02*
Y2880480D01*
X280480D01*
Y2819520D01*
X219520D01*
X199200Y2549200D02*
Y2650800D01*
X300800D01*
Y2549200D01*
X199200D01*
X219520Y2569520D02*
Y2630480D01*
X280480D01*
Y2569520D01*
X219520D01*
X199200Y2299200D02*
Y2400800D01*
X300800D01*
Y2299200D01*
X199200D01*
X219520Y2319520D02*
Y2380480D01*
X280480D01*
Y2319520D01*
X219520D01*
X199200Y2049200D02*
Y2150800D01*
X300800D01*
Y2049200D01*
X199200D01*
X219520Y2069520D02*
Y2130480D01*
X280480D01*
Y2069520D01*
X219520D01*
X199200Y1799200D02*
Y1900800D01*
X300800D01*
Y1799200D01*
X199200D01*
X219520Y1819520D02*
Y1880480D01*
X280480D01*
Y1819520D01*
X219520D01*
X199200Y1549200D02*
Y1650800D01*
X300800D01*
Y1549200D01*
X199200D01*
X219520Y1569520D02*
Y1630480D01*
X280480D01*
Y1569520D01*
X219520D01*
X199200Y1299200D02*
Y1400800D01*
X300800D01*
Y1299200D01*
X199200D01*
X219520Y1319520D02*
Y1380480D01*
X280480D01*
Y1319520D01*
X219520D01*
X199200Y1049200D02*
Y1150800D01*
X300800D01*
Y1049200D01*
X199200D01*
X219520Y1069520D02*
Y1130480D01*
X280480D01*
Y1069520D01*
X219520D01*
X199200Y799200D02*
Y900800D01*
X300800D01*
Y799200D01*
X199200D01*
X219520Y819520D02*
Y880480D01*
X280480D01*
Y819520D01*
X219520D01*
X199200Y549200D02*
Y650800D01*
X300800D01*
Y549200D01*
X199200D01*
X219520Y569520D02*
Y630480D01*
X280480D01*
Y569520D01*
X219520D01*
X1649200Y1425000D02*
X1700000Y1475800D01*
X1750800Y1425000D01*
X1700000Y1374200D01*
X1649200Y1425000D01*
X4373880Y2575560D02*
X4424680Y2626360D01*
X4475480Y2575560D01*
X4424680Y2524760D01*
X4373880Y2575560D01*
X5377180Y2654300D02*
X5427980Y2705100D01*
X5478780Y2654300D01*
X5427980Y2603500D01*
X5377180Y2654300D01*
X3195320Y1978660D02*
X3246120Y2029460D01*
X3296920Y1978660D01*
X3246120Y1927860D01*
X3195320Y1978660D01*
X3154680Y1229360D02*
X3205480Y1280160D01*
X3256280Y1229360D01*
X3205480Y1178560D01*
X3154680Y1229360D01*
X4145280Y858520D02*
X4196080Y909320D01*
X4246880Y858520D01*
X4196080Y807720D01*
X4145280Y858520D01*
X3065383Y1318260D02*
X3116183Y1369060D01*
X3166983Y1318260D01*
X3116183Y1267460D01*
X3065383Y1318260D01*
X3111500Y1272540D02*
X3162300Y1323340D01*
X3213100Y1272540D01*
X3162300Y1221740D01*
X3111500Y1272540D01*
X2555240Y355600D02*
X2606040Y406400D01*
X2656840Y355600D01*
X2606040Y304800D01*
X2555240Y355600D01*
X3924200Y2575000D02*
X3975000Y2625800D01*
X4025800Y2575000D01*
X3975000Y2524200D01*
X3924200Y2575000D01*
X4149200D02*
X4200000Y2625800D01*
X4250800Y2575000D01*
X4200000Y2524200D01*
X4149200Y2575000D01*
X3699200D02*
X3750000Y2625800D01*
X3800800Y2575000D01*
X3750000Y2524200D01*
X3699200Y2575000D01*
X3474200D02*
X3525000Y2625800D01*
X3575800Y2575000D01*
X3525000Y2524200D01*
X3474200Y2575000D01*
X4549200Y174200D02*
Y275800D01*
X4650800D01*
Y174200D01*
X4549200D01*
X4569520Y194520D02*
Y255480D01*
X4630480D01*
Y194520D01*
X4569520D01*
X4849200Y174200D02*
Y275800D01*
X4950800D01*
Y174200D01*
X4849200D01*
X4869520Y194520D02*
Y255480D01*
X4930480D01*
Y194520D01*
X4869520D01*
X5149200Y174200D02*
Y275800D01*
X5250800D01*
Y174200D01*
X5149200D01*
X5169520Y194520D02*
Y255480D01*
X5230480D01*
Y194520D01*
X5169520D01*
X5449200Y174200D02*
Y275800D01*
X5550800D01*
Y174200D01*
X5449200D01*
X5469520Y194520D02*
Y255480D01*
X5530480D01*
Y194520D01*
X5469520D01*
X5749200Y174200D02*
Y275800D01*
X5850800D01*
Y174200D01*
X5749200D01*
X5769520Y194520D02*
Y255480D01*
X5830480D01*
Y194520D01*
X5769520D01*
X6049200Y174200D02*
Y275800D01*
X6150800D01*
Y174200D01*
X6049200D01*
X6069520Y194520D02*
Y255480D01*
X6130480D01*
Y194520D01*
X6069520D01*
X6349200Y174200D02*
Y275800D01*
X6450800D01*
Y174200D01*
X6349200D01*
X6369520Y194520D02*
Y255480D01*
X6430480D01*
Y194520D01*
X6369520D01*
X6649200Y174200D02*
Y275800D01*
X6750800D01*
Y174200D01*
X6649200D01*
X6669520Y194520D02*
Y255480D01*
X6730480D01*
Y194520D01*
X6669520D01*
X6949200Y174200D02*
Y275800D01*
X7050800D01*
Y174200D01*
X6949200D01*
X6969520Y194520D02*
Y255480D01*
X7030480D01*
Y194520D01*
X6969520D01*
X7249200Y174200D02*
Y275800D01*
X7350800D01*
Y174200D01*
X7249200D01*
X7269520Y194520D02*
Y255480D01*
X7330480D01*
Y194520D01*
X7269520D01*
X7549200Y174200D02*
Y275800D01*
X7650800D01*
Y174200D01*
X7549200D01*
X7569520Y194520D02*
Y255480D01*
X7630480D01*
Y194520D01*
X7569520D01*
X7849200Y174200D02*
Y275800D01*
X7950800D01*
Y174200D01*
X7849200D01*
X7869520Y194520D02*
Y255480D01*
X7930480D01*
Y194520D01*
X7869520D01*
X2291080Y353060D02*
X2341880Y403860D01*
X2392680Y353060D01*
X2341880Y302260D01*
X2291080Y353060D01*
X2359660Y449580D02*
X2410460Y500380D01*
X2461260Y449580D01*
X2410460Y398780D01*
X2359660Y449580D01*
X3632650Y1425200D02*
X3683450Y1476000D01*
X3734250Y1425200D01*
X3683450Y1374400D01*
X3632650Y1425200D01*
X5123180Y1338580D02*
X5173980Y1389380D01*
X5224780Y1338580D01*
X5173980Y1287780D01*
X5123180Y1338580D01*
X5260340D02*
X5311140Y1389380D01*
X5361940Y1338580D01*
X5311140Y1287780D01*
X5260340Y1338580D01*
X4986020D02*
X5036820Y1389380D01*
X5087620Y1338580D01*
X5036820Y1287780D01*
X4986020Y1338580D01*
X5397500D02*
X5448300Y1389380D01*
X5499100Y1338580D01*
X5448300Y1287780D01*
X5397500Y1338580D01*
X4848860D02*
X4899660Y1389380D01*
X4950460Y1338580D01*
X4899660Y1287780D01*
X4848860Y1338580D01*
X7757160Y3954780D02*
X7807960Y4005580D01*
X7858760Y3954780D01*
X7807960Y3903980D01*
X7757160Y3954780D01*
Y4500880D02*
X7807960Y4551680D01*
X7858760Y4500880D01*
X7807960Y4450080D01*
X7757160Y4500880D01*
X6860540Y3952240D02*
X6911340Y4003040D01*
X6962140Y3952240D01*
X6911340Y3901440D01*
X6860540Y3952240D01*
Y4498340D02*
X6911340Y4549140D01*
X6962140Y4498340D01*
X6911340Y4447540D01*
X6860540Y4498340D01*
X5958840Y3952240D02*
X6009640Y4003040D01*
X6060440Y3952240D01*
X6009640Y3901440D01*
X5958840Y3952240D01*
Y4498340D02*
X6009640Y4549140D01*
X6060440Y4498340D01*
X6009640Y4447540D01*
X5958840Y4498340D01*
X518160Y2786380D02*
X568960Y2837180D01*
X619760Y2786380D01*
X568960Y2735580D01*
X518160Y2786380D01*
X1008380D02*
X1059180Y2837180D01*
X1109980Y2786380D01*
X1059180Y2735580D01*
X1008380Y2786380D01*
X1150620D02*
X1201420Y2837180D01*
X1252220Y2786380D01*
X1201420Y2735580D01*
X1150620Y2786380D01*
X1292860D02*
X1343660Y2837180D01*
X1394460Y2786380D01*
X1343660Y2735580D01*
X1292860Y2786380D01*
X1358900D02*
X1409700Y2837180D01*
X1460500Y2786380D01*
X1409700Y2735580D01*
X1358900Y2786380D01*
X1569720D02*
X1620520Y2837180D01*
X1671320Y2786380D01*
X1620520Y2735580D01*
X1569720Y2786380D01*
X1638300D02*
X1689100Y2837180D01*
X1739900Y2786380D01*
X1689100Y2735580D01*
X1638300Y2786380D01*
X1917700D02*
X1968500Y2837180D01*
X2019300Y2786380D01*
X1968500Y2735580D01*
X1917700Y2786380D01*
X1988820D02*
X2039620Y2837180D01*
X2090420Y2786380D01*
X2039620Y2735580D01*
X1988820Y2786380D01*
X2059940D02*
X2110740Y2837180D01*
X2161540Y2786380D01*
X2110740Y2735580D01*
X2059940Y2786380D01*
X2550160D02*
X2600960Y2837180D01*
X2651760Y2786380D01*
X2600960Y2735580D01*
X2550160Y2786380D01*
X2479040D02*
X2529840Y2837180D01*
X2580640Y2786380D01*
X2529840Y2735580D01*
X2479040Y2786380D01*
X2199640D02*
X2250440Y2837180D01*
X2301240Y2786380D01*
X2250440Y2735580D01*
X2199640Y2786380D01*
X2128520D02*
X2179320Y2837180D01*
X2230120Y2786380D01*
X2179320Y2735580D01*
X2128520Y2786380D01*
X5059680Y4498340D02*
X5110480Y4549140D01*
X5161280Y4498340D01*
X5110480Y4447540D01*
X5059680Y4498340D01*
Y3952240D02*
X5110480Y4003040D01*
X5161280Y3952240D01*
X5110480Y3901440D01*
X5059680Y3952240D01*
X2125980Y1450340D02*
X2176780Y1501140D01*
X2227580Y1450340D01*
X2176780Y1399540D01*
X2125980Y1450340D01*
X3967480Y1767840D02*
X4018280Y1818640D01*
X4069080Y1767840D01*
X4018280Y1717040D01*
X3967480Y1767840D01*
X3779520Y1877060D02*
X3830320Y1927860D01*
X3881120Y1877060D01*
X3830320Y1826260D01*
X3779520Y1877060D01*
X4803140Y2376640D02*
X4853940Y2427440D01*
X4904740Y2376640D01*
X4853940Y2325840D01*
X4803140Y2376640D01*
X9464040Y1871980D02*
X9514840Y1922780D01*
X9565640Y1871980D01*
X9514840Y1821180D01*
X9464040Y1871980D01*
X2532380Y152400D02*
X2583180Y203200D01*
X2633980Y152400D01*
X2583180Y101600D01*
X2532380Y152400D01*
X6850560Y954220D02*
X6901360Y1005020D01*
X6952160Y954220D01*
X6901360Y903420D01*
X6850560Y954220D01*
X1747520Y2677160D02*
X1798320Y2727960D01*
X1849120Y2677160D01*
X1798320Y2626360D01*
X1747520Y2677160D01*
X1863090Y2622867D02*
X1913890Y2673668D01*
X1964690Y2622867D01*
X1913890Y2572068D01*
X1863090Y2622867D01*
X4066540Y2299780D02*
X4117340Y2350580D01*
X4168140Y2299780D01*
X4117340Y2248980D01*
X4066540Y2299780D01*
X4069080Y1474940D02*
X4119880Y1525740D01*
X4170680Y1474940D01*
X4119880Y1424140D01*
X4069080Y1474940D01*
X3942080Y988060D02*
X3992880Y1038860D01*
X4043680Y988060D01*
X3992880Y937260D01*
X3942080Y988060D01*
X3924300Y1620520D02*
X3975100Y1671320D01*
X4025900Y1620520D01*
X3975100Y1569720D01*
X3924300Y1620520D01*
X3365500Y1874520D02*
X3416300Y1925320D01*
X3467100Y1874520D01*
X3416300Y1823720D01*
X3365500Y1874520D01*
X3365300Y1572340D02*
X3416100Y1623140D01*
X3466900Y1572340D01*
X3416100Y1521540D01*
X3365300Y1572340D01*
X2997200Y1107440D02*
X3048000Y1158240D01*
X3098800Y1107440D01*
X3048000Y1056640D01*
X2997200Y1107440D01*
X2771140D02*
X2821940Y1158240D01*
X2872740Y1107440D01*
X2821940Y1056640D01*
X2771140Y1107440D01*
X2065020Y1125220D02*
X2115820Y1176020D01*
X2166620Y1125220D01*
X2115820Y1074420D01*
X2065020Y1125220D01*
X9352640Y2024380D02*
X9403440Y2075180D01*
X9454240Y2024380D01*
X9403440Y1973580D01*
X9352640Y2024380D01*
X9354820Y1925320D02*
X9405620Y1976120D01*
X9456420Y1925320D01*
X9405620Y1874520D01*
X9354820Y1925320D01*
D168*
X8526800Y558800D02*
G03*
X8526800Y558800I-50800J0D01*
G01*
X9034800D02*
G03*
X9034800Y558800I-50800J0D01*
G01*
X1066800D02*
G03*
X1066800Y558800I-50800J0D01*
G01*
X1574800D02*
G03*
X1574800Y558800I-50800J0D01*
G01*
%TF.MD5,948c96b82937463253a4a6e177458833*%
M02*
