%TF.GenerationSoftware,Altium Limited,Altium Designer,21.0.8 (223)*%
G04 Layer_Physical_Order=3*
G04 Layer_Color=128*
%FSLAX45Y45*%
%MOMM*%
%TF.SameCoordinates,E6859DB6-3A4E-404A-A1E8-5F06C1255FAD*%
%TF.FilePolarity,Negative*%
%TF.FileFunction,Copper,L3,Inr,Plane*%
%TF.Part,Single*%
G01*
G75*
%TA.AperFunction,NonConductor*%
%ADD57C,1.01600*%
%TA.AperFunction,ComponentPad*%
%ADD59C,1.35400*%
%ADD60C,0.95400*%
%ADD64C,0.90400*%
G04:AMPARAMS|DCode=65|XSize=2.316mm|YSize=2.316mm|CornerRadius=0mm|HoleSize=0mm|Usage=FLASHONLY|Rotation=0.000|XOffset=0mm|YOffset=0mm|HoleType=Round|Shape=Relief|Width=0.254mm|Gap=0.254mm|Entries=4|*
%AMTHD65*
7,0,0,2.31600,1.80800,0.25400,45*
%
%ADD65THD65*%
%ADD66C,1.55400*%
%ADD67O,22.25400X0.65400*%
%TA.AperFunction,ViaPad*%
%ADD68C,0.96520*%
%ADD69C,0.55400*%
G04:AMPARAMS|DCode=70|XSize=1.316mm|YSize=1.316mm|CornerRadius=0mm|HoleSize=0mm|Usage=FLASHONLY|Rotation=0.000|XOffset=0mm|YOffset=0mm|HoleType=Round|Shape=Relief|Width=0.254mm|Gap=0.254mm|Entries=4|*
%AMTHD70*
7,0,0,1.31600,0.80800,0.25400,45*
%
%ADD70THD70*%
G04:AMPARAMS|DCode=71|XSize=1.7272mm|YSize=1.7272mm|CornerRadius=0mm|HoleSize=0mm|Usage=FLASHONLY|Rotation=0.000|XOffset=0mm|YOffset=0mm|HoleType=Round|Shape=Relief|Width=0.254mm|Gap=0.254mm|Entries=4|*
%AMTHD71*
7,0,0,1.72720,1.21920,0.25400,45*
%
%ADD71THD71*%
%TA.AperFunction,ComponentPad*%
G04:AMPARAMS|DCode=72|XSize=1.716mm|YSize=1.716mm|CornerRadius=0mm|HoleSize=0mm|Usage=FLASHONLY|Rotation=0.000|XOffset=0mm|YOffset=0mm|HoleType=Round|Shape=Relief|Width=0.254mm|Gap=0.254mm|Entries=4|*
%AMTHD72*
7,0,0,1.71600,1.20800,0.25400,45*
%
%ADD72THD72*%
%TA.AperFunction,ViaPad*%
G04:AMPARAMS|DCode=73|XSize=3.216mm|YSize=3.216mm|CornerRadius=0mm|HoleSize=0mm|Usage=FLASHONLY|Rotation=0.000|XOffset=0mm|YOffset=0mm|HoleType=Round|Shape=Relief|Width=0.254mm|Gap=0.254mm|Entries=4|*
%AMTHD73*
7,0,0,3.21600,2.70800,0.25400,45*
%
%ADD73THD73*%
%TA.AperFunction,ComponentPad*%
%AMTHOVALD74*
21,1,0.60000,1.61600,0,0,180.0*
1,1,1.61600,0.30000,0.00000*
1,1,1.61600,-0.30000,0.00000*
21,0,0.60000,1.10800,0,0,180.0*
1,0,1.10800,0.30000,0.00000*
1,0,1.10800,-0.30000,0.00000*
4,0,4,0.21020,0.08980,0.78154,0.66114,0.96114,0.48154,0.38980,-0.08980,0.21020,0.08980,0.0*
4,0,4,-0.38980,0.08980,-0.96114,-0.48154,-0.78154,-0.66114,-0.21020,-0.08980,-0.38980,0.08980,0.0*
4,0,4,0.38980,0.08980,0.96114,-0.48154,0.78154,-0.66114,0.21020,-0.08980,0.38980,0.08980,0.0*
4,0,4,-0.21020,0.08980,-0.78154,0.66114,-0.96114,0.48154,-0.38980,-0.08980,-0.21020,0.08980,0.0*
%
%ADD74THOVALD74*%

%AMTHOVALD75*
21,1,1.10000,1.61600,0,0,180.0*
1,1,1.61600,0.55000,0.00000*
1,1,1.61600,-0.55000,0.00000*
21,0,1.10000,1.10800,0,0,180.0*
1,0,1.10800,0.55000,0.00000*
1,0,1.10800,-0.55000,0.00000*
4,0,4,0.46020,0.08980,1.03154,0.66114,1.21114,0.48154,0.63980,-0.08980,0.46020,0.08980,0.0*
4,0,4,-0.63980,0.08980,-1.21114,-0.48154,-1.03154,-0.66114,-0.46020,-0.08980,-0.63980,0.08980,0.0*
4,0,4,0.63980,0.08980,1.21114,-0.48154,1.03154,-0.66114,0.46020,-0.08980,0.63980,0.08980,0.0*
4,0,4,-0.46020,0.08980,-1.03154,0.66114,-1.21114,0.48154,-0.63980,-0.08980,-0.46020,0.08980,0.0*
%
%ADD75THOVALD75*%

D57*
X10000000Y200000D02*
Y4800000D01*
X9800000Y5000000D02*
X10000000Y4800000D01*
X200000Y5000000D02*
X9800000D01*
X0Y4800000D02*
X200000Y5000000D01*
X0Y200000D02*
X0Y4800000D01*
X0Y200000D02*
X200000Y0D01*
X9800000D01*
X10000000Y200000D01*
D59*
X8748000Y4125000D02*
D03*
X9002000D02*
D03*
D60*
X9713500Y3756000D02*
D03*
X9586500D02*
D03*
X9713500Y3629000D02*
D03*
X9586500D02*
D03*
Y3502000D02*
D03*
Y3375000D02*
D03*
X9713500Y3248000D02*
D03*
Y2994000D02*
D03*
X9586500Y3248000D02*
D03*
Y3121000D02*
D03*
Y2994000D02*
D03*
X8811260Y1463040D02*
D03*
X8684260D02*
D03*
X8811260Y1590040D02*
D03*
X8684260D02*
D03*
D64*
X9417000Y2289000D02*
D03*
Y1711000D02*
D03*
D65*
X8984000Y558800D02*
D03*
X1524000D02*
D03*
D66*
X8476000D02*
D03*
X1016000D02*
D03*
D67*
X1584500Y2197600D02*
D03*
D68*
X4600000Y225000D02*
D03*
X4900000D02*
D03*
X5200000D02*
D03*
X5500000D02*
D03*
X5800000D02*
D03*
X6100000D02*
D03*
X6400000D02*
D03*
X6700000D02*
D03*
X7000000D02*
D03*
X7300000D02*
D03*
X7600000D02*
D03*
X7900000D02*
D03*
X8300000Y300000D02*
D03*
X8600000D02*
D03*
D69*
X5999480Y1000520D02*
D03*
X5725000Y1725000D02*
D03*
X5996940Y2620920D02*
D03*
X7475220Y2100580D02*
D03*
X5427980Y2654300D02*
D03*
X6489700Y2590800D02*
D03*
X6875671Y2548786D02*
D03*
X7802880Y2557780D02*
D03*
X6367780Y1229360D02*
D03*
X6494780D02*
D03*
X8125000Y1100000D02*
D03*
X4050539Y2498599D02*
D03*
X4050030Y2366010D02*
D03*
X3246120Y1978660D02*
D03*
X3205480Y1229360D02*
D03*
X4196080Y858520D02*
D03*
X3116183Y1318260D02*
D03*
X3162300Y1272540D02*
D03*
X5875000Y1767500D02*
D03*
X7235925Y2281830D02*
D03*
X7349505Y2311187D02*
D03*
X7442200Y2250440D02*
D03*
X6622140Y2458546D02*
D03*
X6580907Y2410227D02*
D03*
X1478280Y2781300D02*
D03*
X7508240Y2989580D02*
D03*
X6733540Y1750060D02*
D03*
X2606040Y355600D02*
D03*
X6642100Y1600200D02*
D03*
X8582660Y1656080D02*
D03*
X6000000Y855000D02*
D03*
X6494780Y2342913D02*
D03*
X8150000Y950000D02*
D03*
X2341880Y353060D02*
D03*
X2255000Y472960D02*
D03*
X4018280Y1427480D02*
D03*
X3683450Y1425200D02*
D03*
X8371840Y3314700D02*
D03*
X7929880Y3522980D02*
D03*
X8547100Y1798320D02*
D03*
Y2352040D02*
D03*
X7645400Y2585720D02*
D03*
X6578600Y3317240D02*
D03*
X6126480Y3520440D02*
D03*
X6563360Y3522980D02*
D03*
X7025640Y3520440D02*
D03*
X7574280Y3632200D02*
D03*
X7477760Y3317240D02*
D03*
X1176250Y3557500D02*
D03*
X7917180Y2164080D02*
D03*
X7919720Y1582420D02*
D03*
X7487920Y998220D02*
D03*
X7117080Y840740D02*
D03*
X6982460Y843280D02*
D03*
X6870700Y1099820D02*
D03*
X6211240Y2702600D02*
D03*
X5930900Y3014980D02*
D03*
X5661660Y3515360D02*
D03*
X5679440Y3314700D02*
D03*
X5311140Y3632200D02*
D03*
X4018280Y1767840D02*
D03*
X3830320Y1877060D02*
D03*
X6075680Y1676400D02*
D03*
X9514840Y2174240D02*
D03*
Y1871980D02*
D03*
X1798320Y2677160D02*
D03*
X1913890Y2622867D02*
D03*
X6676390Y2559050D02*
D03*
X6362700Y1948180D02*
D03*
X6982460Y2692400D02*
D03*
X1976120Y3652520D02*
D03*
X1775460D02*
D03*
X6903720Y3266440D02*
D03*
X6159500Y3197860D02*
D03*
X7523480Y2402840D02*
D03*
X5905500Y3200400D02*
D03*
X9403440Y2024380D02*
D03*
X9405620Y1925320D02*
D03*
D70*
X1700000Y1425000D02*
D03*
X4424680Y2575560D02*
D03*
X7277100Y2801620D02*
D03*
X3975000Y2575000D02*
D03*
X4200000D02*
D03*
X3750000D02*
D03*
X3525000D02*
D03*
X6068060Y2001520D02*
D03*
X2410460Y449580D02*
D03*
X7251700Y3129280D02*
D03*
X7868920Y3268980D02*
D03*
X7729220Y3182620D02*
D03*
X8371840Y3129280D02*
D03*
X7866380Y3522980D02*
D03*
X5173980Y1338580D02*
D03*
X5311140D02*
D03*
X5036820D02*
D03*
X5448300D02*
D03*
X4899660D02*
D03*
X9730740Y2174240D02*
D03*
Y1871980D02*
D03*
X8862060Y2075180D02*
D03*
X8846820Y1684020D02*
D03*
X7454900Y2585720D02*
D03*
X6791960Y2590800D02*
D03*
X6830060Y3012440D02*
D03*
X6578600Y3134360D02*
D03*
X6959600Y3520440D02*
D03*
X7807960Y3954780D02*
D03*
Y4500880D02*
D03*
X6911340Y3952240D02*
D03*
Y4498340D02*
D03*
X6009640Y3952240D02*
D03*
Y4498340D02*
D03*
X568960Y2786380D02*
D03*
X1059180D02*
D03*
X1201420D02*
D03*
X1343660D02*
D03*
X1409700D02*
D03*
X1620520D02*
D03*
X1689100D02*
D03*
X1968500D02*
D03*
X2039620D02*
D03*
X2110740D02*
D03*
X2600960D02*
D03*
X2529840D02*
D03*
X2250440D02*
D03*
X2179320D02*
D03*
X1074420Y3855720D02*
D03*
X1275080D02*
D03*
X2372360D02*
D03*
X2575560D02*
D03*
X2174240Y3652520D02*
D03*
X7919720Y1874520D02*
D03*
X5679440Y3136900D02*
D03*
X5778500Y3251200D02*
D03*
X6062980Y3520440D02*
D03*
X5171440Y3426460D02*
D03*
X5110480Y4498340D02*
D03*
Y3952240D02*
D03*
X2176780Y1450340D02*
D03*
X4853940Y2326640D02*
D03*
X8956040Y2352040D02*
D03*
X2583180Y152400D02*
D03*
X6469380Y1097280D02*
D03*
X6969760Y1099820D02*
D03*
X7782560D02*
D03*
X7729220Y548640D02*
D03*
X7106920Y660400D02*
D03*
X6990080D02*
D03*
X6248400Y751840D02*
D03*
X6002020Y749300D02*
D03*
X7475220Y2199640D02*
D03*
X7376160Y1430020D02*
D03*
X6725920D02*
D03*
X6273800Y1480820D02*
D03*
X6724650Y2313940D02*
D03*
X5768340Y1372540D02*
D03*
X5925820Y2308860D02*
D03*
X5763260Y1582420D02*
D03*
X6385560Y2400300D02*
D03*
X4117340Y2049780D02*
D03*
X4119880Y1424940D02*
D03*
X3992880Y988060D02*
D03*
X3975100Y1620520D02*
D03*
X3416300Y1874520D02*
D03*
X3403600Y1577340D02*
D03*
X3388360Y1315720D02*
D03*
X3048000Y1107440D02*
D03*
X2821940D02*
D03*
X2115820Y1125220D02*
D03*
D71*
X9750000Y1100000D02*
D03*
X9100000Y250000D02*
D03*
X9350000D02*
D03*
X9750000Y600000D02*
D03*
Y850000D02*
D03*
Y1350000D02*
D03*
Y2600000D02*
D03*
Y4150000D02*
D03*
Y4400000D02*
D03*
X1850000Y1100000D02*
D03*
Y1350000D02*
D03*
Y1600000D02*
D03*
Y1850000D02*
D03*
X1600000D02*
D03*
X1350000D02*
D03*
X1100000D02*
D03*
X850000D02*
D03*
X600000D02*
D03*
Y1600000D02*
D03*
Y1350000D02*
D03*
Y1100000D02*
D03*
Y850000D02*
D03*
Y600000D02*
D03*
Y250000D02*
D03*
X850000D02*
D03*
X1100000D02*
D03*
X1350000D02*
D03*
X1600000D02*
D03*
X1850000D02*
D03*
X8600000Y4750000D02*
D03*
X8850000D02*
D03*
X9100000D02*
D03*
X9350000D02*
D03*
X4600000D02*
D03*
X4850000D02*
D03*
X7600000D02*
D03*
X600000D02*
D03*
X850000D02*
D03*
X1100000D02*
D03*
X1350000D02*
D03*
X1600000D02*
D03*
X1850000D02*
D03*
X2100000D02*
D03*
X2350000D02*
D03*
X2600000D02*
D03*
X2850000D02*
D03*
X3100000D02*
D03*
X3350000D02*
D03*
X3600000D02*
D03*
X3850000D02*
D03*
X4100000D02*
D03*
X4350000D02*
D03*
X250000Y4350000D02*
D03*
Y4100000D02*
D03*
Y3850000D02*
D03*
Y3600000D02*
D03*
Y3350000D02*
D03*
Y3100000D02*
D03*
Y2850000D02*
D03*
Y2600000D02*
D03*
Y2350000D02*
D03*
Y2100000D02*
D03*
Y1850000D02*
D03*
Y1600000D02*
D03*
Y1350000D02*
D03*
Y1100000D02*
D03*
Y850000D02*
D03*
Y600000D02*
D03*
D72*
X9713500Y3502000D02*
D03*
Y3375000D02*
D03*
Y3121000D02*
D03*
D73*
X250000Y250000D02*
D03*
X9750000D02*
D03*
Y4750000D02*
D03*
X250000D02*
D03*
D74*
X9782000Y1568000D02*
D03*
Y2432000D02*
D03*
D75*
X9364000D02*
D03*
Y1568000D02*
D03*
%TF.MD5,19e0f93ed82d912387fdc2951af4b431*%
M02*
