%TF.GenerationSoftware,Altium Limited,Altium Designer,21.0.8 (223)*%
G04 Layer_Color=128*
%FSLAX45Y45*%
%MOMM*%
%TF.SameCoordinates,7FD7D5E1-462F-4728-A759-DAD797B293AC*%
%TF.FilePolarity,Positive*%
%TF.FileFunction,Paste,Bot*%
%TF.Part,Single*%
G01*
G75*
%TA.AperFunction,SMDPad,CuDef*%
%ADD12R,1.20000X1.50000*%
%ADD14R,1.50000X1.45000*%
%ADD16R,1.50000X1.20000*%
%ADD74R,0.40000X2.50000*%
D12*
X9830000Y1875000D02*
D03*
X9620000D02*
D03*
X9830000Y2175000D02*
D03*
X9620000D02*
D03*
D14*
X2575000Y3557500D02*
D03*
Y3742500D02*
D03*
X2375000Y3557500D02*
D03*
Y3742500D02*
D03*
X1275000Y3557500D02*
D03*
Y3742500D02*
D03*
X1075000D02*
D03*
Y3557500D02*
D03*
X875000Y3742500D02*
D03*
Y3557500D02*
D03*
X675000D02*
D03*
Y3742500D02*
D03*
D16*
X2175000Y3755000D02*
D03*
Y3545000D02*
D03*
X1975000Y3755000D02*
D03*
Y3545000D02*
D03*
X1775000Y3755000D02*
D03*
Y3545000D02*
D03*
D74*
X1479500Y2947600D02*
D03*
X2599500D02*
D03*
X2389500D02*
D03*
X1969500D02*
D03*
X1759500D02*
D03*
X2179500D02*
D03*
X1199500D02*
D03*
X1409500D02*
D03*
X989500D02*
D03*
X2529500D02*
D03*
X2459500D02*
D03*
X2319500D02*
D03*
X2249500D02*
D03*
X2039500D02*
D03*
X2109500D02*
D03*
X1899500D02*
D03*
X1829500D02*
D03*
X1619500D02*
D03*
X1689500D02*
D03*
X1549500D02*
D03*
X1269500D02*
D03*
X1339500D02*
D03*
X1129500D02*
D03*
X1059500D02*
D03*
X919500D02*
D03*
X569500D02*
D03*
X849500D02*
D03*
X639500D02*
D03*
X709500D02*
D03*
X779500D02*
D03*
%TF.MD5,c33b43b79c4f2c50a3e74e571d7b1622*%
M02*
