%TF.GenerationSoftware,Altium Limited,Altium Designer,21.0.8 (223)*%
G04 Layer_Physical_Order=4*
G04 Layer_Color=16711680*
%FSLAX45Y45*%
%MOMM*%
%TF.SameCoordinates,ED3C5559-8931-45A1-834E-F7BCE4D23214*%
%TF.FilePolarity,Positive*%
%TF.FileFunction,Copper,L4,Bot,Signal*%
%TF.Part,Single*%
G01*
G75*
%TA.AperFunction,SMDPad,CuDef*%
%ADD10R,1.50000X1.20000*%
%ADD11R,1.20000X1.50000*%
%ADD17R,1.50000X1.45000*%
%TA.AperFunction,Conductor*%
%ADD34C,0.50800*%
%ADD35C,0.76200*%
%ADD36C,0.12700*%
%ADD37C,0.38100*%
%ADD39C,0.15240*%
%TA.AperFunction,ViaPad*%
%ADD40C,3.00000*%
%TA.AperFunction,ComponentPad*%
%ADD41C,1.05000*%
%ADD42C,1.60000*%
%ADD43R,1.60000X1.60000*%
%ADD44O,1.60000X1.00000*%
%ADD45O,2.10000X1.00000*%
%ADD46C,0.85000*%
%ADD47R,1.80000X1.80000*%
%ADD48C,1.80000*%
%ADD49R,1.60000X1.60000*%
%ADD50O,22.00000X0.50000*%
%TA.AperFunction,ViaPad*%
%ADD51C,1.27000*%
%ADD52C,0.45000*%
%TA.AperFunction,SMDPad,CuDef*%
%ADD73R,0.40000X2.50000*%
G36*
X10000000Y4800000D02*
Y200000D01*
X9800000Y0D01*
X200000D01*
X0Y200000D01*
Y4800000D01*
X200000Y5000000D01*
X9800000D01*
X10000000Y4800000D01*
D02*
G37*
%LPC*%
G36*
X9788100Y4921735D02*
Y4788100D01*
X9921735D01*
X9912833Y4817447D01*
X9896545Y4847918D01*
X9874627Y4874627D01*
X9847919Y4896545D01*
X9817447Y4912832D01*
X9788100Y4921735D01*
D02*
G37*
G36*
X9711900D02*
X9682553Y4912832D01*
X9652082Y4896545D01*
X9625373Y4874627D01*
X9603455Y4847918D01*
X9587168Y4817447D01*
X9578265Y4788100D01*
X9711900D01*
Y4921735D01*
D02*
G37*
G36*
X288100D02*
Y4788100D01*
X421735D01*
X412833Y4817447D01*
X396545Y4847918D01*
X374627Y4874627D01*
X347919Y4896545D01*
X317447Y4912832D01*
X288100Y4921735D01*
D02*
G37*
G36*
X211900D02*
X182553Y4912832D01*
X152081Y4896545D01*
X125373Y4874627D01*
X103455Y4847918D01*
X87167Y4817447D01*
X78265Y4788100D01*
X211900D01*
Y4921735D01*
D02*
G37*
G36*
X9921735Y4711900D02*
X9788100D01*
Y4578265D01*
X9817447Y4587167D01*
X9847919Y4603455D01*
X9874627Y4625373D01*
X9896545Y4652081D01*
X9912833Y4682552D01*
X9921735Y4711900D01*
D02*
G37*
G36*
X9711900D02*
X9578265D01*
X9587168Y4682552D01*
X9603455Y4652081D01*
X9625373Y4625373D01*
X9652082Y4603455D01*
X9682553Y4587167D01*
X9711900Y4578265D01*
Y4711900D01*
D02*
G37*
G36*
X421735D02*
X288100D01*
Y4578265D01*
X317447Y4587167D01*
X347919Y4603455D01*
X374627Y4625373D01*
X396545Y4652081D01*
X412833Y4682552D01*
X421735Y4711900D01*
D02*
G37*
G36*
X211900D02*
X78265D01*
X87167Y4682552D01*
X103455Y4652081D01*
X125373Y4625373D01*
X152081Y4603455D01*
X182553Y4587167D01*
X211900Y4578265D01*
Y4711900D01*
D02*
G37*
G36*
X1313180Y3884917D02*
Y3855720D01*
X1236980D01*
Y3884917D01*
X1229959Y3874410D01*
X1226242Y3855720D01*
X1227336Y3850217D01*
X1219279Y3840400D01*
X1130221D01*
X1122164Y3850217D01*
X1123258Y3855720D01*
X1119541Y3874410D01*
X1112520Y3884917D01*
Y3855720D01*
X1036320D01*
Y3884917D01*
X1029299Y3874410D01*
X1025582Y3855720D01*
X1026676Y3850217D01*
X1018619Y3840400D01*
X974600D01*
Y3829631D01*
X962699Y3827700D01*
Y3827700D01*
X787300D01*
Y3657300D01*
X924172D01*
X925441Y3655400D01*
X918652Y3642700D01*
X787300D01*
Y3472300D01*
X855577D01*
Y3445905D01*
X765766Y3356094D01*
X761556Y3349793D01*
X760077Y3342360D01*
Y3094280D01*
X751097Y3085300D01*
X737904D01*
X728923Y3094280D01*
Y3351959D01*
X728923Y3351960D01*
X727445Y3359393D01*
X723234Y3365694D01*
X723234Y3365695D01*
X695063Y3393865D01*
Y3472300D01*
X762700D01*
Y3642700D01*
X631347D01*
X624559Y3655400D01*
X625828Y3657300D01*
X762700D01*
Y3827700D01*
X587300D01*
Y3684769D01*
X567216Y3664684D01*
X563005Y3658383D01*
X561527Y3650950D01*
Y3406850D01*
X563005Y3399417D01*
X567216Y3393116D01*
X620077Y3340255D01*
Y3108556D01*
X614900Y3098000D01*
X607600D01*
Y3085305D01*
X606795D01*
Y2947600D01*
X569500D01*
Y2909500D01*
X524100D01*
Y2824480D01*
X568960D01*
Y2786380D01*
X607060D01*
Y2757183D01*
X614081Y2767690D01*
X617798Y2786380D01*
X615646Y2797200D01*
X623032Y2809900D01*
X672200D01*
Y2809899D01*
X676801D01*
Y2809900D01*
X734100D01*
X742200Y2809900D01*
X754900Y2809900D01*
X812200D01*
Y2809899D01*
X816801D01*
Y2809900D01*
X882200D01*
X882200Y2809899D01*
X886801D01*
Y2809900D01*
X894900Y2809900D01*
X952200D01*
Y2809899D01*
X956801D01*
Y2809900D01*
X1003057D01*
X1003231Y2809823D01*
X1012494Y2797200D01*
X1010342Y2786380D01*
X1014059Y2767690D01*
X1021080Y2757183D01*
Y2786380D01*
X1097280D01*
Y2757183D01*
X1104301Y2767690D01*
X1108018Y2786380D01*
X1105866Y2797200D01*
X1113771Y2809900D01*
X1154100D01*
Y2797200D01*
X1154100D01*
X1152581Y2786380D01*
X1152835Y2785106D01*
X1156299Y2767690D01*
X1163320Y2757183D01*
Y2786380D01*
X1239520D01*
Y2757183D01*
X1246541Y2767690D01*
X1250258Y2786380D01*
X1248106Y2797200D01*
X1257369Y2809823D01*
X1257543Y2809900D01*
X1294100D01*
Y2797200D01*
X1294099Y2797200D01*
X1294821Y2786380D01*
X1295112Y2784919D01*
X1298539Y2767690D01*
X1305560Y2757183D01*
Y2786380D01*
X1447800D01*
Y2757183D01*
X1447948Y2757405D01*
X1457983Y2764812D01*
X1469626Y2757033D01*
X1483360Y2754301D01*
X1497094Y2757033D01*
X1508738Y2764812D01*
X1516517Y2776456D01*
X1519249Y2790190D01*
X1517855Y2797200D01*
X1526228Y2809310D01*
X1527292Y2809900D01*
X1571078D01*
X1573834Y2797200D01*
X1571682Y2786380D01*
X1575399Y2767690D01*
X1582420Y2757183D01*
Y2786380D01*
X1727200D01*
Y2757183D01*
X1727377Y2757448D01*
X1740077Y2753595D01*
Y2715980D01*
X1741555Y2708547D01*
X1745766Y2702246D01*
X1763828Y2684184D01*
X1762431Y2677160D01*
X1765163Y2663426D01*
X1772942Y2651782D01*
X1784586Y2644003D01*
X1798320Y2641271D01*
X1812054Y2644003D01*
X1823698Y2651782D01*
X1830936Y2662615D01*
X1832010Y2663546D01*
X1845033Y2666478D01*
X1879766Y2631745D01*
X1878001Y2622867D01*
X1880733Y2609133D01*
X1888512Y2597490D01*
X1900156Y2589710D01*
X1913890Y2586978D01*
X1927624Y2589710D01*
X1939268Y2597490D01*
X1947047Y2609133D01*
X1949779Y2622867D01*
X1947047Y2636602D01*
X1939268Y2648245D01*
X1927624Y2656025D01*
X1913890Y2658757D01*
X1908720Y2657728D01*
X1848923Y2717525D01*
Y2809900D01*
X1862199D01*
Y2809899D01*
X1866800D01*
Y2809900D01*
X1912377D01*
X1912551Y2809823D01*
X1921814Y2797200D01*
X1919662Y2786380D01*
X1923379Y2767690D01*
X1930400Y2757183D01*
Y2786380D01*
X2288540D01*
Y2757183D01*
X2295561Y2767690D01*
X2299278Y2786380D01*
X2297126Y2797200D01*
X2306389Y2809823D01*
X2306563Y2809900D01*
X2352200Y2809900D01*
X2364900Y2809900D01*
X2414100D01*
X2422200Y2809900D01*
X2434900Y2809900D01*
X2475296D01*
X2483154Y2797200D01*
X2481002Y2786380D01*
X2484719Y2767690D01*
X2491740Y2757183D01*
Y2786380D01*
X2600960D01*
Y2824480D01*
X2644900D01*
Y2909500D01*
X2599500D01*
Y2947600D01*
X2492205D01*
Y3085305D01*
X2491400D01*
Y3098000D01*
X2484100D01*
X2478923Y3108556D01*
Y3330295D01*
X2589294Y3440666D01*
X2593505Y3446967D01*
X2594983Y3454400D01*
Y3472300D01*
X2662700D01*
X2662700Y3642700D01*
X2674613Y3644600D01*
X2675400D01*
Y3704400D01*
X2575000D01*
Y3780600D01*
X2675400D01*
Y3840400D01*
X2631361D01*
X2623304Y3850217D01*
X2624398Y3855720D01*
X2620681Y3874410D01*
X2613660Y3884917D01*
Y3855720D01*
X2537460D01*
Y3884917D01*
X2530439Y3874410D01*
X2526722Y3855720D01*
X2527816Y3850217D01*
X2519759Y3840400D01*
X2428161D01*
X2420104Y3850217D01*
X2421198Y3855720D01*
X2417481Y3874410D01*
X2410460Y3884917D01*
Y3855720D01*
X2334260D01*
Y3884917D01*
X2327239Y3874410D01*
X2323522Y3855720D01*
X2324616Y3850217D01*
X2316559Y3840400D01*
X2213100D01*
Y3755000D01*
X2136900D01*
Y3840400D01*
X2074600D01*
Y3829631D01*
X2062700Y3827700D01*
Y3827700D01*
X1887300D01*
Y3682300D01*
X1937273D01*
Y3652520D01*
X1940231Y3637654D01*
X1945078Y3630400D01*
X1938534Y3617700D01*
X1887300D01*
Y3472300D01*
X1955577D01*
Y3456246D01*
X1885766Y3386434D01*
X1815766Y3316434D01*
X1811555Y3310133D01*
X1810077Y3302700D01*
Y3085300D01*
X1796800D01*
Y3085300D01*
X1792335D01*
X1779643Y3085647D01*
Y3420955D01*
X1788734Y3430046D01*
X1792945Y3436347D01*
X1794423Y3443780D01*
X1794423Y3443781D01*
Y3472300D01*
X1862700D01*
Y3617700D01*
X1813046D01*
X1806502Y3630400D01*
X1811349Y3637654D01*
X1814307Y3652520D01*
Y3682300D01*
X1862700D01*
Y3827700D01*
X1687300D01*
Y3682300D01*
X1736613D01*
Y3652520D01*
X1739571Y3637654D01*
X1744418Y3630400D01*
X1737874Y3617700D01*
X1687300D01*
Y3472300D01*
X1755577D01*
Y3451825D01*
X1746486Y3442734D01*
X1742275Y3436433D01*
X1740797Y3429000D01*
Y3108257D01*
X1734900Y3098000D01*
X1727600D01*
Y3085305D01*
X1726795D01*
Y2947600D01*
X1651400D01*
Y3098000D01*
X1581872D01*
Y3136800D01*
X1579408Y3149188D01*
X1572391Y3159690D01*
X1311096Y3420985D01*
Y3472300D01*
X1362700D01*
Y3642700D01*
X1374613Y3644600D01*
X1375400D01*
Y3704400D01*
X1275000D01*
Y3780600D01*
X1375400D01*
Y3840400D01*
X1330881D01*
X1322824Y3850217D01*
X1323918Y3855720D01*
X1320201Y3874410D01*
X1313180Y3884917D01*
D02*
G37*
G36*
X9090700Y3992700D02*
X8905300D01*
Y3807300D01*
X9090700D01*
Y3992700D01*
D02*
G37*
G36*
X7574280Y3668089D02*
X7560546Y3665357D01*
X7548902Y3657578D01*
X7541123Y3645934D01*
X7538391Y3632200D01*
X7541123Y3618466D01*
X7548902Y3606822D01*
X7560546Y3599043D01*
X7574280Y3596311D01*
X7588014Y3599043D01*
X7599658Y3606822D01*
X7607437Y3618466D01*
X7610169Y3632200D01*
X7607437Y3645934D01*
X7599658Y3657578D01*
X7588014Y3665357D01*
X7574280Y3668089D01*
D02*
G37*
G36*
X5311140D02*
X5297406Y3665357D01*
X5285762Y3657578D01*
X5277983Y3645934D01*
X5275251Y3632200D01*
X5277983Y3618466D01*
X5285762Y3606822D01*
X5297406Y3599043D01*
X5311140Y3596311D01*
X5324874Y3599043D01*
X5336518Y3606822D01*
X5344297Y3618466D01*
X5347029Y3632200D01*
X5344297Y3645934D01*
X5336518Y3657578D01*
X5324874Y3665357D01*
X5311140Y3668089D01*
D02*
G37*
G36*
X7929880Y3558869D02*
X7916146Y3556137D01*
X7906251Y3549526D01*
X7904480Y3552177D01*
Y3548333D01*
X7896718Y3536716D01*
X7893985Y3522980D01*
X7896718Y3509244D01*
X7904480Y3497627D01*
Y3493783D01*
X7906251Y3496434D01*
X7916146Y3489823D01*
X7929880Y3487091D01*
X7943614Y3489823D01*
X7955258Y3497602D01*
X7963037Y3509246D01*
X7965769Y3522980D01*
X7963037Y3536714D01*
X7955258Y3548358D01*
X7943614Y3556137D01*
X7929880Y3558869D01*
D02*
G37*
G36*
X6126480Y3556329D02*
X6112746Y3553597D01*
X6102851Y3546986D01*
X6101080Y3549637D01*
Y3545793D01*
X6093318Y3534176D01*
X6090585Y3520440D01*
X6093318Y3506704D01*
X6101080Y3495087D01*
Y3491243D01*
X6102851Y3493894D01*
X6112746Y3487283D01*
X6126480Y3484551D01*
X6140214Y3487283D01*
X6151858Y3495062D01*
X6159637Y3506706D01*
X6162369Y3520440D01*
X6159637Y3534174D01*
X6151858Y3545818D01*
X6140214Y3553597D01*
X6126480Y3556329D01*
D02*
G37*
G36*
X7025640D02*
X7011906Y3553597D01*
X7010600Y3552725D01*
X7000077Y3546080D01*
X7000075Y3546082D01*
X6997700Y3549637D01*
Y3541992D01*
X6992478Y3534176D01*
X6989745Y3520440D01*
X6992478Y3506704D01*
X6997700Y3498888D01*
Y3491243D01*
X7000077Y3494800D01*
X7000262Y3495062D01*
X7000263D01*
X7011906Y3487283D01*
X7025640Y3484551D01*
X7039374Y3487283D01*
X7051018Y3495062D01*
X7058797Y3506706D01*
X7061529Y3520440D01*
X7058797Y3534174D01*
X7051018Y3545818D01*
X7039374Y3553597D01*
X7025640Y3556329D01*
D02*
G37*
G36*
X6563360Y3558869D02*
X6549626Y3556137D01*
X6537982Y3548358D01*
X6530203Y3536714D01*
X6527471Y3522980D01*
X6530203Y3509246D01*
X6537982Y3497602D01*
X6549626Y3489823D01*
X6563360Y3487091D01*
X6577094Y3489823D01*
X6588738Y3497602D01*
X6596517Y3509246D01*
X6599249Y3522980D01*
X6596517Y3536714D01*
X6588738Y3548358D01*
X6577094Y3556137D01*
X6563360Y3558869D01*
D02*
G37*
G36*
X5661660Y3551249D02*
X5647926Y3548517D01*
X5636282Y3540738D01*
X5628503Y3529094D01*
X5625771Y3515360D01*
X5628503Y3501626D01*
X5636282Y3489982D01*
X5647926Y3482203D01*
X5661660Y3479471D01*
X5675394Y3482203D01*
X5687038Y3489982D01*
X5694817Y3501626D01*
X5697549Y3515360D01*
X5694817Y3529094D01*
X5687038Y3540738D01*
X5675394Y3548517D01*
X5661660Y3551249D01*
D02*
G37*
G36*
X7477760Y3353129D02*
X7464026Y3350397D01*
X7452382Y3342618D01*
X7444603Y3330974D01*
X7441871Y3317240D01*
X7444603Y3303506D01*
X7452382Y3291862D01*
X7464026Y3284083D01*
X7477760Y3281351D01*
X7491494Y3284083D01*
X7503138Y3291862D01*
X7510917Y3303506D01*
X7513649Y3317240D01*
X7510917Y3330974D01*
X7503138Y3342618D01*
X7491494Y3350397D01*
X7477760Y3353129D01*
D02*
G37*
G36*
X6578600D02*
X6564866Y3350397D01*
X6553222Y3342618D01*
X6545443Y3330974D01*
X6542711Y3317240D01*
X6545443Y3303506D01*
X6553222Y3291862D01*
X6564866Y3284083D01*
X6578600Y3281351D01*
X6592334Y3284083D01*
X6603978Y3291862D01*
X6611757Y3303506D01*
X6614489Y3317240D01*
X6611757Y3330974D01*
X6603978Y3342618D01*
X6592334Y3350397D01*
X6578600Y3353129D01*
D02*
G37*
G36*
X8371840Y3350589D02*
X8358106Y3347857D01*
X8346462Y3340078D01*
X8338683Y3328434D01*
X8335951Y3314700D01*
X8338683Y3300966D01*
X8346462Y3289322D01*
X8358106Y3281543D01*
X8371840Y3278811D01*
X8385574Y3281543D01*
X8397218Y3289322D01*
X8404997Y3300966D01*
X8407729Y3314700D01*
X8404997Y3328434D01*
X8397218Y3340078D01*
X8385574Y3347857D01*
X8371840Y3350589D01*
D02*
G37*
G36*
X5679440D02*
X5665706Y3347857D01*
X5654062Y3340078D01*
X5646283Y3328434D01*
X5643551Y3314700D01*
X5646283Y3300966D01*
X5654062Y3289322D01*
X5665706Y3281543D01*
X5679440Y3278811D01*
X5693174Y3281543D01*
X5704818Y3289322D01*
X5712597Y3300966D01*
X5715329Y3314700D01*
X5712597Y3328434D01*
X5704818Y3340078D01*
X5693174Y3347857D01*
X5679440Y3350589D01*
D02*
G37*
G36*
X5905500Y3236289D02*
X5891766Y3233557D01*
X5880122Y3225778D01*
X5872343Y3214134D01*
X5869611Y3200400D01*
X5872343Y3186666D01*
X5880122Y3175022D01*
X5891766Y3167243D01*
X5905500Y3164511D01*
X5919234Y3167243D01*
X5930878Y3175022D01*
X5933159Y3178437D01*
X6130144D01*
X6134122Y3172482D01*
X6145766Y3164703D01*
X6159500Y3161971D01*
X6173234Y3164703D01*
X6184878Y3172482D01*
X6192657Y3184126D01*
X6195389Y3197860D01*
X6192657Y3211594D01*
X6184878Y3223238D01*
X6173234Y3231017D01*
X6159500Y3233749D01*
X6145766Y3231017D01*
X6134122Y3223238D01*
X6130144Y3217283D01*
X5936554D01*
X5930878Y3225778D01*
X5919234Y3233557D01*
X5905500Y3236289D01*
D02*
G37*
G36*
X9252000Y3993500D02*
X9227800Y3990314D01*
X9205250Y3980973D01*
X9185886Y3966114D01*
X9171027Y3946750D01*
X9161686Y3924200D01*
X9158500Y3900000D01*
X9161686Y3875800D01*
X9171027Y3853250D01*
X9185886Y3833886D01*
X9205250Y3819027D01*
X9227800Y3809686D01*
X9252000Y3806500D01*
X9276200Y3809686D01*
X9298750Y3819027D01*
X9303022Y3822305D01*
X9478320Y3647007D01*
X9472978Y3634111D01*
X9470737Y3617091D01*
X9472978Y3600070D01*
X9479548Y3584209D01*
X9489999Y3570589D01*
X9492162Y3568930D01*
X9491290Y3553590D01*
X9480941Y3545650D01*
X9468455Y3529377D01*
X9467964Y3528191D01*
X9536500D01*
Y3451991D01*
X9467964D01*
X9468455Y3450804D01*
X9480941Y3434532D01*
X9483015Y3432941D01*
Y3420241D01*
X9480941Y3418650D01*
X9468455Y3402377D01*
X9467964Y3401191D01*
X9536500D01*
Y3324991D01*
X9467964D01*
X9468455Y3323804D01*
X9480941Y3307532D01*
X9491290Y3299591D01*
X9492162Y3284251D01*
X9489999Y3282592D01*
X9479548Y3268972D01*
X9472978Y3253111D01*
X9470737Y3236091D01*
X9472978Y3219070D01*
X9479548Y3203209D01*
X9489999Y3189589D01*
X9492162Y3187930D01*
X9491290Y3172590D01*
X9480941Y3164650D01*
X9468455Y3148377D01*
X9467964Y3147191D01*
X9536500D01*
Y3109091D01*
X9574600D01*
Y3040554D01*
X9575786Y3041045D01*
X9592059Y3053532D01*
X9600000Y3063881D01*
X9615339Y3064752D01*
X9616999Y3062589D01*
X9630619Y3052138D01*
X9646480Y3045569D01*
X9663500Y3043328D01*
X9680521Y3045569D01*
X9696381Y3052138D01*
X9710001Y3062589D01*
X9720452Y3076209D01*
X9727022Y3092070D01*
X9729263Y3109091D01*
X9727022Y3126111D01*
X9720452Y3141972D01*
X9710001Y3155592D01*
X9696932Y3165620D01*
X9695904Y3172476D01*
Y3172705D01*
X9696932Y3179561D01*
X9710001Y3189589D01*
X9720452Y3203209D01*
X9727022Y3219070D01*
X9729263Y3236091D01*
X9727022Y3253111D01*
X9720452Y3268972D01*
X9710001Y3282592D01*
X9696932Y3292620D01*
X9695904Y3299476D01*
Y3299705D01*
X9696932Y3306561D01*
X9710001Y3316589D01*
X9720452Y3330209D01*
X9727022Y3346070D01*
X9729263Y3363091D01*
X9727022Y3380111D01*
X9720452Y3395972D01*
X9710001Y3409592D01*
X9696932Y3419620D01*
X9695904Y3426476D01*
Y3426705D01*
X9696932Y3433561D01*
X9710001Y3443589D01*
X9720452Y3457209D01*
X9727022Y3473070D01*
X9729263Y3490091D01*
X9727022Y3507111D01*
X9720452Y3522972D01*
X9710001Y3536592D01*
X9696932Y3546620D01*
X9695904Y3553476D01*
Y3553705D01*
X9696932Y3560561D01*
X9710001Y3570589D01*
X9720452Y3584209D01*
X9727022Y3600070D01*
X9729263Y3617091D01*
X9727022Y3634111D01*
X9720452Y3649972D01*
X9710001Y3663592D01*
X9696381Y3674043D01*
X9680521Y3680612D01*
X9663500Y3682853D01*
X9646480Y3680612D01*
X9630619Y3674043D01*
X9616999Y3663592D01*
X9606971Y3650523D01*
X9600114Y3649494D01*
X9599886D01*
X9593030Y3650523D01*
X9583001Y3663592D01*
X9569381Y3674043D01*
X9553521Y3680612D01*
X9536500Y3682853D01*
X9519480Y3680612D01*
X9505459Y3674805D01*
X9330386Y3849878D01*
X9332973Y3853250D01*
X9342314Y3875800D01*
X9345500Y3900000D01*
X9342314Y3924200D01*
X9332973Y3946750D01*
X9318114Y3966114D01*
X9298750Y3980973D01*
X9276200Y3990314D01*
X9252000Y3993500D01*
D02*
G37*
G36*
X9498400Y3070991D02*
X9467964D01*
X9468455Y3069804D01*
X9480941Y3053532D01*
X9497214Y3041045D01*
X9498400Y3040554D01*
Y3070991D01*
D02*
G37*
G36*
X2637600Y3098000D02*
Y2985700D01*
X2644900D01*
Y3098000D01*
X2637600D01*
D02*
G37*
G36*
X531400D02*
X524100D01*
Y2985700D01*
X531400D01*
Y3098000D01*
D02*
G37*
G36*
X5930900Y3050869D02*
X5917166Y3048137D01*
X5905522Y3040358D01*
X5897743Y3028714D01*
X5895011Y3014980D01*
X5897743Y3001246D01*
X5905522Y2989602D01*
X5917166Y2981823D01*
X5930900Y2979091D01*
X5944634Y2981823D01*
X5956278Y2989602D01*
X5964057Y3001246D01*
X5966789Y3014980D01*
X5964057Y3028714D01*
X5956278Y3040358D01*
X5944634Y3048137D01*
X5930900Y3050869D01*
D02*
G37*
G36*
X6903720Y3302329D02*
X6889986Y3299597D01*
X6878342Y3291818D01*
X6870563Y3280174D01*
X6867831Y3266440D01*
X6870563Y3252706D01*
X6878342Y3241062D01*
X6889986Y3233283D01*
X6903720Y3230551D01*
X6910744Y3231948D01*
X7192675Y2950016D01*
X7192676Y2950016D01*
X7198977Y2945805D01*
X7206410Y2944327D01*
X7333144D01*
X7337122Y2938372D01*
X7348766Y2930593D01*
X7362500Y2927861D01*
X7376234Y2930593D01*
X7387878Y2938372D01*
X7395657Y2950016D01*
X7398389Y2963750D01*
X7395657Y2977484D01*
X7387878Y2989128D01*
X7376234Y2996907D01*
X7362500Y2999639D01*
X7348766Y2996907D01*
X7337122Y2989128D01*
X7333144Y2983173D01*
X7214455D01*
X6938212Y3259416D01*
X6939609Y3266440D01*
X6936877Y3280174D01*
X6929098Y3291818D01*
X6917454Y3299597D01*
X6903720Y3302329D01*
D02*
G37*
G36*
X6283960Y2733369D02*
X6270226Y2730637D01*
X6258582Y2722858D01*
X6250803Y2711214D01*
X6248071Y2697480D01*
X6250803Y2683746D01*
X6258582Y2672102D01*
X6270226Y2664323D01*
X6283960Y2661591D01*
X6297694Y2664323D01*
X6309338Y2672102D01*
X6317117Y2683746D01*
X6319849Y2697480D01*
X6317117Y2711214D01*
X6309338Y2722858D01*
X6297694Y2730637D01*
X6283960Y2733369D01*
D02*
G37*
G36*
X6982460Y2728289D02*
X6968726Y2725557D01*
X6967550Y2724772D01*
X6809740D01*
X6797352Y2722308D01*
X6786850Y2715290D01*
X6664042Y2592483D01*
X6662656Y2592207D01*
X6651012Y2584428D01*
X6643233Y2572784D01*
X6640501Y2559050D01*
X6643233Y2545316D01*
X6651012Y2533672D01*
X6662656Y2525893D01*
X6676390Y2523161D01*
X6690124Y2525893D01*
X6701768Y2533672D01*
X6709547Y2545316D01*
X6709823Y2546702D01*
X6734935Y2571814D01*
X6749384Y2568302D01*
X6753860Y2561603D01*
Y2590732D01*
X6753928Y2590800D01*
X6791960D01*
Y2628832D01*
X6792028Y2628900D01*
X6821157D01*
X6814458Y2633376D01*
X6810946Y2647825D01*
X6823149Y2660028D01*
X6967550D01*
X6968726Y2659243D01*
X6982460Y2656511D01*
X6996194Y2659243D01*
X7007838Y2667022D01*
X7015617Y2678666D01*
X7018349Y2692400D01*
X7015617Y2706134D01*
X7007838Y2717778D01*
X6996194Y2725557D01*
X6982460Y2728289D01*
D02*
G37*
G36*
X7645400Y2621609D02*
X7631666Y2618877D01*
X7620022Y2611098D01*
X7612243Y2599454D01*
X7609511Y2585720D01*
X7612243Y2571986D01*
X7620022Y2560342D01*
X7631666Y2552563D01*
X7645400Y2549831D01*
X7659134Y2552563D01*
X7670778Y2560342D01*
X7678557Y2571986D01*
X7681289Y2585720D01*
X7678557Y2599454D01*
X7670778Y2611098D01*
X7659134Y2618877D01*
X7645400Y2621609D01*
D02*
G37*
G36*
X9419000Y2508051D02*
X9402100D01*
Y2470100D01*
X9484804D01*
X9472776Y2485776D01*
X9457025Y2497862D01*
X9438683Y2505459D01*
X9419000Y2508051D01*
D02*
G37*
G36*
X9325900D02*
X9309000D01*
X9289316Y2505459D01*
X9270974Y2497862D01*
X9255224Y2485776D01*
X9243195Y2470100D01*
X9325900D01*
Y2508051D01*
D02*
G37*
G36*
X9820100Y2506984D02*
Y2470100D01*
X9877804D01*
X9865776Y2485776D01*
X9850025Y2497862D01*
X9831683Y2505459D01*
X9820100Y2506984D01*
D02*
G37*
G36*
X9743900D02*
X9732317Y2505459D01*
X9713975Y2497862D01*
X9698224Y2485776D01*
X9686196Y2470100D01*
X9743900D01*
Y2506984D01*
D02*
G37*
G36*
X4052570Y2622879D02*
X4038836Y2620147D01*
X4027192Y2612368D01*
X4019413Y2600724D01*
X4016681Y2586990D01*
X4019413Y2573256D01*
X4027192Y2561612D01*
X4031877Y2558482D01*
Y2490195D01*
X4024652Y2485368D01*
X4016873Y2473724D01*
X4014141Y2459990D01*
X4016873Y2446256D01*
X4024652Y2434612D01*
X4036296Y2426833D01*
X4050030Y2424101D01*
X4063764Y2426833D01*
X4075408Y2434612D01*
X4083187Y2446256D01*
X4085919Y2459990D01*
X4083187Y2473724D01*
X4075408Y2485368D01*
X4070723Y2488498D01*
Y2556785D01*
X4077948Y2561612D01*
X4085727Y2573256D01*
X4088459Y2586990D01*
X4085727Y2600724D01*
X4077948Y2612368D01*
X4066304Y2620147D01*
X4052570Y2622879D01*
D02*
G37*
G36*
X3909060Y2580969D02*
X3895326Y2578237D01*
X3883682Y2570458D01*
X3875903Y2558814D01*
X3873171Y2545080D01*
X3875903Y2531346D01*
X3883682Y2519702D01*
X3890272Y2515300D01*
Y2487652D01*
X3884952Y2484098D01*
X3877173Y2472454D01*
X3874441Y2458720D01*
X3877173Y2444986D01*
X3884952Y2433342D01*
X3896596Y2425563D01*
X3910330Y2422831D01*
X3924064Y2425563D01*
X3935708Y2433342D01*
X3943487Y2444986D01*
X3946219Y2458720D01*
X3943487Y2472454D01*
X3935708Y2484098D01*
X3929118Y2488500D01*
Y2516148D01*
X3934438Y2519702D01*
X3942217Y2531346D01*
X3944949Y2545080D01*
X3942217Y2558814D01*
X3934438Y2570458D01*
X3922794Y2578237D01*
X3909060Y2580969D01*
D02*
G37*
G36*
X7523480Y2438729D02*
X7509746Y2435997D01*
X7498102Y2428218D01*
X7490323Y2416574D01*
X7487591Y2402840D01*
X7488988Y2395816D01*
X7390366Y2297194D01*
X7386155Y2290893D01*
X7384677Y2283460D01*
Y2264556D01*
X7378722Y2260578D01*
X7370943Y2248934D01*
X7368211Y2235200D01*
X7370943Y2221466D01*
X7378722Y2209822D01*
X7390366Y2202043D01*
X7404100Y2199311D01*
X7414089Y2201298D01*
X7415314Y2201132D01*
X7424873Y2195780D01*
X7427639Y2193319D01*
X7430099Y2180950D01*
X7437120Y2170443D01*
Y2199640D01*
X7475220D01*
Y2237740D01*
X7504417D01*
X7493910Y2244761D01*
X7475220Y2248478D01*
X7456530Y2244761D01*
X7451681Y2241521D01*
X7437569Y2247366D01*
X7437257Y2248934D01*
X7429478Y2260578D01*
X7425225Y2263419D01*
X7424445Y2276336D01*
X7516456Y2368348D01*
X7523480Y2366951D01*
X7537214Y2369683D01*
X7548858Y2377462D01*
X7556637Y2389106D01*
X7559369Y2402840D01*
X7556637Y2416574D01*
X7548858Y2428218D01*
X7537214Y2435997D01*
X7523480Y2438729D01*
D02*
G37*
G36*
X9877804Y2393900D02*
X9820100D01*
Y2357016D01*
X9831683Y2358541D01*
X9850025Y2366138D01*
X9865776Y2378224D01*
X9877804Y2393900D01*
D02*
G37*
G36*
X9743900D02*
X9686196D01*
X9698224Y2378224D01*
X9713975Y2366138D01*
X9732317Y2358541D01*
X9743900Y2357016D01*
Y2393900D01*
D02*
G37*
G36*
X9325900Y2393900D02*
X9243195D01*
X9255224Y2378224D01*
X9270974Y2366138D01*
X9289316Y2358541D01*
X9309000Y2355949D01*
X9325900D01*
Y2393900D01*
D02*
G37*
G36*
X8547100Y2387929D02*
X8533366Y2385197D01*
X8521722Y2377418D01*
X8513943Y2365774D01*
X8511211Y2352040D01*
X8513943Y2338306D01*
X8521722Y2326662D01*
X8533366Y2318883D01*
X8547100Y2316151D01*
X8560834Y2318883D01*
X8572478Y2326662D01*
X8580257Y2338306D01*
X8582989Y2352040D01*
X8580257Y2365774D01*
X8572478Y2377418D01*
X8560834Y2385197D01*
X8547100Y2387929D01*
D02*
G37*
G36*
X6494780Y2621609D02*
X6481046Y2618877D01*
X6469402Y2611098D01*
X6461623Y2599454D01*
X6458891Y2585720D01*
X6461623Y2571986D01*
X6462408Y2570810D01*
Y2323770D01*
X6461623Y2322594D01*
X6458891Y2308860D01*
X6461623Y2295126D01*
X6469402Y2283482D01*
X6481046Y2275703D01*
X6494780Y2272971D01*
X6508514Y2275703D01*
X6520158Y2283482D01*
X6527937Y2295126D01*
X6530669Y2308860D01*
X6527937Y2322594D01*
X6527152Y2323770D01*
Y2570810D01*
X6527937Y2571986D01*
X6530669Y2585720D01*
X6527937Y2599454D01*
X6520158Y2611098D01*
X6508514Y2618877D01*
X6494780Y2621609D01*
D02*
G37*
G36*
X9484804Y2393900D02*
X9402100D01*
Y2355949D01*
X9405532D01*
X9406783Y2343249D01*
X9395462Y2340997D01*
X9377203Y2328797D01*
X9365003Y2310538D01*
X9360718Y2289000D01*
X9365003Y2267462D01*
X9377203Y2249203D01*
X9395462Y2237003D01*
X9417000Y2232718D01*
X9438538Y2237003D01*
X9456797Y2249203D01*
X9468997Y2267462D01*
X9473282Y2289000D01*
X9468997Y2310538D01*
X9456797Y2328797D01*
X9438538Y2340997D01*
X9424276Y2343834D01*
X9424697Y2356699D01*
X9438683Y2358541D01*
X9457025Y2366138D01*
X9472776Y2378224D01*
X9484804Y2393900D01*
D02*
G37*
G36*
X9791900Y2275400D02*
X9744600D01*
Y2230331D01*
X9734783Y2222274D01*
X9730740Y2223078D01*
X9712050Y2219361D01*
X9705400Y2214917D01*
X9692700Y2221705D01*
Y2262700D01*
X9547300D01*
Y2210137D01*
X9534600Y2203371D01*
X9528574Y2207397D01*
X9514840Y2210129D01*
X9501106Y2207397D01*
X9489462Y2199618D01*
X9481683Y2187974D01*
X9478951Y2174240D01*
X9481683Y2160506D01*
X9489462Y2148862D01*
X9501106Y2141083D01*
X9514840Y2138351D01*
X9528574Y2141083D01*
X9534600Y2145109D01*
X9547300Y2138343D01*
Y2087300D01*
X9692700D01*
Y2126775D01*
X9705400Y2133563D01*
X9712050Y2129119D01*
X9730740Y2125402D01*
X9734783Y2126206D01*
X9744600Y2118149D01*
Y2074600D01*
X9791900D01*
Y2175000D01*
Y2275400D01*
D02*
G37*
G36*
X9915400D02*
X9868100D01*
Y2213100D01*
X9915400D01*
Y2275400D01*
D02*
G37*
G36*
X2659500Y2236038D02*
X509500D01*
X494790Y2233112D01*
X482320Y2224780D01*
X473988Y2212310D01*
X471062Y2197600D01*
X473988Y2182890D01*
X482320Y2170420D01*
X494790Y2162087D01*
X509500Y2159161D01*
X2659500D01*
X2674210Y2162087D01*
X2686680Y2170420D01*
X2695012Y2182890D01*
X2697938Y2197600D01*
X2695012Y2212310D01*
X2686680Y2224780D01*
X2674210Y2233112D01*
X2659500Y2236038D01*
D02*
G37*
G36*
X7917180Y2199969D02*
X7903446Y2197237D01*
X7891802Y2189458D01*
X7884023Y2177814D01*
X7881291Y2164080D01*
X7884023Y2150346D01*
X7891802Y2138702D01*
X7903446Y2130923D01*
X7917180Y2128191D01*
X7930914Y2130923D01*
X7942558Y2138702D01*
X7950337Y2150346D01*
X7953069Y2164080D01*
X7950337Y2177814D01*
X7942558Y2189458D01*
X7930914Y2197237D01*
X7917180Y2199969D01*
D02*
G37*
G36*
X9915400Y2136900D02*
X9868100D01*
Y2074600D01*
X9915400D01*
Y2136900D01*
D02*
G37*
G36*
X6106160Y2030717D02*
Y2001520D01*
X6029960D01*
Y2030717D01*
X6022939Y2020210D01*
X6019222Y2001520D01*
X6022939Y1982830D01*
X6025630Y1978804D01*
X6019643Y1967603D01*
X5938520D01*
X5931087Y1966125D01*
X5924786Y1961914D01*
X5924785Y1961914D01*
X5767744Y1804872D01*
X5760720Y1806269D01*
X5746986Y1803537D01*
X5735342Y1795758D01*
X5727563Y1784114D01*
X5724831Y1770380D01*
X5727563Y1756646D01*
X5735342Y1745002D01*
X5746986Y1737223D01*
X5760720Y1734491D01*
X5774454Y1737223D01*
X5786098Y1745002D01*
X5793877Y1756646D01*
X5796609Y1770380D01*
X5795212Y1777404D01*
X5946565Y1928757D01*
X6333344D01*
X6337322Y1922802D01*
X6348966Y1915023D01*
X6362700Y1912291D01*
X6376434Y1915023D01*
X6388078Y1922802D01*
X6395857Y1934446D01*
X6398589Y1948180D01*
X6395857Y1961914D01*
X6388078Y1973558D01*
X6376434Y1981337D01*
X6362700Y1984069D01*
X6348966Y1981337D01*
X6337322Y1973558D01*
X6333344Y1967603D01*
X6116477D01*
X6110490Y1978804D01*
X6113181Y1982830D01*
X6116898Y2001520D01*
X6113181Y2020210D01*
X6106160Y2030717D01*
D02*
G37*
G36*
X9791900Y1975400D02*
X9744600D01*
Y1928071D01*
X9734783Y1920014D01*
X9730740Y1920818D01*
X9712050Y1917101D01*
X9705400Y1912657D01*
X9692700Y1919445D01*
Y1962700D01*
X9547300D01*
Y1907877D01*
X9534600Y1901111D01*
X9528574Y1905137D01*
X9514840Y1907869D01*
X9501106Y1905137D01*
X9489462Y1897358D01*
X9481683Y1885714D01*
X9478951Y1871980D01*
X9481683Y1858246D01*
X9489462Y1846602D01*
X9501106Y1838823D01*
X9514840Y1836091D01*
X9528574Y1838823D01*
X9534600Y1842849D01*
X9547300Y1836083D01*
Y1787300D01*
X9692700D01*
Y1824515D01*
X9705400Y1831303D01*
X9712050Y1826859D01*
X9730740Y1823142D01*
X9734783Y1823946D01*
X9744600Y1815889D01*
Y1774600D01*
X9791900D01*
Y1875000D01*
Y1975400D01*
D02*
G37*
G36*
X9915400D02*
X9868100D01*
Y1913100D01*
X9915400D01*
Y1975400D01*
D02*
G37*
G36*
X9403440Y2060269D02*
X9389706Y2057537D01*
X9378062Y2049758D01*
X9370283Y2038114D01*
X9367550Y2024380D01*
X9370283Y2010646D01*
X9378062Y1999002D01*
X9384902Y1994432D01*
Y1953811D01*
X9380242Y1950698D01*
X9372463Y1939054D01*
X9369731Y1925320D01*
X9372463Y1911586D01*
X9380242Y1899942D01*
X9391886Y1892163D01*
X9405620Y1889431D01*
X9419354Y1892163D01*
X9430998Y1899942D01*
X9438777Y1911586D01*
X9441509Y1925320D01*
X9438777Y1939054D01*
X9430998Y1950698D01*
X9426338Y1953811D01*
Y1997346D01*
X9428818Y1999002D01*
X9436597Y2010646D01*
X9439329Y2024380D01*
X9436597Y2038114D01*
X9428818Y2049758D01*
X9417174Y2057537D01*
X9403440Y2060269D01*
D02*
G37*
G36*
X3830320Y1912949D02*
X3816586Y1910217D01*
X3804942Y1902438D01*
X3797163Y1890794D01*
X3794431Y1877060D01*
X3797163Y1863326D01*
X3804942Y1851682D01*
X3816586Y1843903D01*
X3830320Y1841171D01*
X3844054Y1843903D01*
X3855698Y1851682D01*
X3863477Y1863326D01*
X3866209Y1877060D01*
X3863477Y1890794D01*
X3855698Y1902438D01*
X3844054Y1910217D01*
X3830320Y1912949D01*
D02*
G37*
G36*
X9915400Y1836900D02*
X9868100D01*
Y1774600D01*
X9915400D01*
Y1836900D01*
D02*
G37*
G36*
X8547100Y1834209D02*
X8533366Y1831477D01*
X8521722Y1823698D01*
X8513943Y1812054D01*
X8511211Y1798320D01*
X8513943Y1784586D01*
X8521722Y1772942D01*
X8533366Y1765163D01*
X8547100Y1762431D01*
X8560834Y1765163D01*
X8572478Y1772942D01*
X8580257Y1784586D01*
X8582989Y1798320D01*
X8580257Y1812054D01*
X8572478Y1823698D01*
X8560834Y1831477D01*
X8547100Y1834209D01*
D02*
G37*
G36*
X4018280Y1803729D02*
X4004546Y1800997D01*
X3992902Y1793218D01*
X3985123Y1781574D01*
X3982391Y1767840D01*
X3985123Y1754106D01*
X3992902Y1742462D01*
X4004546Y1734683D01*
X4018280Y1731951D01*
X4032014Y1734683D01*
X4043658Y1742462D01*
X4051437Y1754106D01*
X4054169Y1767840D01*
X4051437Y1781574D01*
X4043658Y1793218D01*
X4032014Y1800997D01*
X4018280Y1803729D01*
D02*
G37*
G36*
X6075680Y1712289D02*
X6061946Y1709557D01*
X6050302Y1701778D01*
X6042523Y1690134D01*
X6039791Y1676400D01*
X6042523Y1662666D01*
X6050302Y1651022D01*
X6061946Y1643243D01*
X6075680Y1640511D01*
X6089414Y1643243D01*
X6101058Y1651022D01*
X6108837Y1662666D01*
X6111569Y1676400D01*
X6108837Y1690134D01*
X6101058Y1701778D01*
X6089414Y1709557D01*
X6075680Y1712289D01*
D02*
G37*
G36*
X8808720Y1713217D02*
X8801699Y1702710D01*
X8797982Y1684020D01*
X8801307Y1667302D01*
X8799866Y1661285D01*
X8796502Y1653860D01*
X8794239Y1653562D01*
X8778379Y1646992D01*
X8764759Y1636541D01*
X8754731Y1623472D01*
X8747874Y1622444D01*
X8747646D01*
X8740789Y1623472D01*
X8730761Y1636541D01*
X8717141Y1646992D01*
X8701281Y1653562D01*
X8684260Y1655803D01*
X8667239Y1653562D01*
X8651379Y1646992D01*
X8637759Y1636541D01*
X8627308Y1622921D01*
X8620738Y1607061D01*
X8618497Y1590040D01*
X8620738Y1573019D01*
X8627308Y1557159D01*
X8637759Y1543539D01*
X8650828Y1533511D01*
X8651856Y1526654D01*
Y1526426D01*
X8650828Y1519569D01*
X8637759Y1509541D01*
X8627308Y1495921D01*
X8620738Y1480061D01*
X8618497Y1463040D01*
X8620738Y1446019D01*
X8627308Y1430159D01*
X8637759Y1416539D01*
X8651379Y1406088D01*
X8667239Y1399518D01*
X8684260Y1397277D01*
X8701281Y1399518D01*
X8717141Y1406088D01*
X8730761Y1416539D01*
X8740789Y1429608D01*
X8747646Y1430636D01*
X8747874D01*
X8754731Y1429608D01*
X8764759Y1416539D01*
X8778379Y1406088D01*
X8794239Y1399518D01*
X8811260Y1397277D01*
X8828281Y1399518D01*
X8844141Y1406088D01*
X8857761Y1416539D01*
X8868212Y1430159D01*
X8874782Y1446019D01*
X8877023Y1463040D01*
X8874782Y1480061D01*
X8868212Y1495921D01*
X8857761Y1509541D01*
X8844692Y1519569D01*
X8843664Y1526426D01*
Y1526654D01*
X8844692Y1533511D01*
X8857761Y1543539D01*
X8868212Y1557159D01*
X8874782Y1573019D01*
X8877023Y1590040D01*
X8874782Y1607061D01*
X8868212Y1622921D01*
X8865838Y1626016D01*
X8865768Y1628769D01*
X8869774Y1641749D01*
X8876017Y1645920D01*
X8846820D01*
Y1684020D01*
X8808720D01*
Y1713217D01*
D02*
G37*
G36*
X9417000Y1767282D02*
X9395462Y1762997D01*
X9377203Y1750797D01*
X9365003Y1732538D01*
X9360718Y1711000D01*
X9365003Y1689462D01*
X9377203Y1671203D01*
X9395462Y1659003D01*
X9406783Y1656751D01*
X9405532Y1644051D01*
X9402100D01*
Y1606100D01*
X9484804D01*
X9472776Y1621776D01*
X9457025Y1633862D01*
X9438683Y1641460D01*
X9424697Y1643301D01*
X9424276Y1656166D01*
X9438538Y1659003D01*
X9456797Y1671203D01*
X9468997Y1689462D01*
X9473282Y1711000D01*
X9468997Y1732538D01*
X9456797Y1750797D01*
X9438538Y1762997D01*
X9417000Y1767282D01*
D02*
G37*
G36*
X9325900Y1644051D02*
X9309000D01*
X9289316Y1641460D01*
X9270974Y1633862D01*
X9255224Y1621776D01*
X9243195Y1606100D01*
X9325900D01*
Y1644051D01*
D02*
G37*
G36*
X9820100Y1642985D02*
Y1606100D01*
X9877804D01*
X9865776Y1621776D01*
X9850025Y1633862D01*
X9831683Y1641460D01*
X9820100Y1642985D01*
D02*
G37*
G36*
X9743900D02*
X9732317Y1641460D01*
X9713975Y1633862D01*
X9698224Y1621776D01*
X9686196Y1606100D01*
X9743900D01*
Y1642985D01*
D02*
G37*
G36*
X6623050Y1636089D02*
X6609316Y1633357D01*
X6597672Y1625578D01*
X6589893Y1613934D01*
X6587161Y1600200D01*
X6588558Y1593176D01*
X6139416Y1144034D01*
X6135205Y1137733D01*
X6133727Y1130300D01*
Y998645D01*
X6034064Y898983D01*
X6024200Y907078D01*
X6030097Y915906D01*
X6032829Y929640D01*
X6030097Y943374D01*
X6022318Y955018D01*
X6017633Y958148D01*
Y985795D01*
X6024858Y990622D01*
X6032637Y1002266D01*
X6035369Y1016000D01*
X6032637Y1029734D01*
X6024858Y1041378D01*
X6013214Y1049157D01*
X5999480Y1051889D01*
X5985746Y1049157D01*
X5974102Y1041378D01*
X5966323Y1029734D01*
X5963591Y1016000D01*
X5966323Y1002266D01*
X5974102Y990622D01*
X5978787Y987492D01*
Y959845D01*
X5971562Y955018D01*
X5963783Y943374D01*
X5961051Y929640D01*
X5963783Y915906D01*
X5971562Y904262D01*
X5983206Y896483D01*
X5996940Y893751D01*
X6010674Y896483D01*
X6019502Y902380D01*
X6027597Y892516D01*
X5980005Y844923D01*
X4917440D01*
X4910007Y843445D01*
X4903706Y839234D01*
X4903705Y839234D01*
X4434415Y369943D01*
X4106056D01*
X4102078Y375898D01*
X4090434Y383677D01*
X4076700Y386409D01*
X4062966Y383677D01*
X4051322Y375898D01*
X4043543Y364254D01*
X4040811Y350520D01*
X4043543Y336786D01*
X4050672Y326115D01*
X4049548Y321223D01*
X4046014Y313415D01*
X2368765D01*
X2364912Y326115D01*
X2367258Y327682D01*
X2375037Y339326D01*
X2377769Y353060D01*
X2375037Y366794D01*
X2367258Y378438D01*
X2355614Y386217D01*
X2341880Y388949D01*
X2328146Y386217D01*
X2316502Y378438D01*
X2312303Y372152D01*
X2298215Y368175D01*
X2296104Y368453D01*
X2294367Y369727D01*
Y472440D01*
X2291409Y487306D01*
X2282989Y499909D01*
X2282469Y500429D01*
X2269866Y508849D01*
X2255000Y511806D01*
X2240134Y508849D01*
X2227531Y500429D01*
X2219111Y487826D01*
X2216154Y472960D01*
X2216673Y470346D01*
Y342900D01*
X2219631Y328034D01*
X2228051Y315431D01*
X2285785Y257698D01*
X2288947Y241799D01*
X2300175Y224995D01*
X2316979Y213767D01*
X2336800Y209825D01*
X2559594D01*
X2564070Y198071D01*
X2563898Y197125D01*
X2553983Y190500D01*
X2612377D01*
X2602462Y197125D01*
X2602290Y198071D01*
X2606766Y209825D01*
X4436620D01*
X4456441Y213767D01*
X4473245Y224995D01*
X4721454Y473205D01*
X7250000D01*
X7269821Y477147D01*
X7286625Y488375D01*
X7696454Y898205D01*
X8150000D01*
X8169821Y902147D01*
X8186625Y913375D01*
X8197853Y930179D01*
X8201795Y950000D01*
X8197853Y969821D01*
X8186625Y986625D01*
X8169821Y997852D01*
X8150000Y1001795D01*
X7675000D01*
X7655179Y997852D01*
X7638375Y986625D01*
X7228546Y576795D01*
X4714164D01*
X4708904Y589495D01*
X4925485Y806077D01*
X5971867D01*
X5974037Y803486D01*
X5971733Y787400D01*
X6031217D01*
X6020710Y794421D01*
X6003738Y797797D01*
X6001187Y803051D01*
X5999919Y810520D01*
X6001784Y811766D01*
X6166884Y976866D01*
X6171095Y983167D01*
X6172573Y990600D01*
Y1122255D01*
X6616026Y1565708D01*
X6623050Y1564311D01*
X6636784Y1567043D01*
X6648428Y1574822D01*
X6656207Y1586466D01*
X6658939Y1600200D01*
X6656207Y1613934D01*
X6648428Y1625578D01*
X6636784Y1633357D01*
X6623050Y1636089D01*
D02*
G37*
G36*
X8317700Y1744700D02*
X8132300D01*
Y1559300D01*
X8317700D01*
Y1744700D01*
D02*
G37*
G36*
X7919720Y1618309D02*
X7905986Y1615577D01*
X7894342Y1607798D01*
X7886563Y1596154D01*
X7883831Y1582420D01*
X7886563Y1568686D01*
X7894342Y1557042D01*
X7905986Y1549263D01*
X7919720Y1546531D01*
X7933454Y1549263D01*
X7945098Y1557042D01*
X7952877Y1568686D01*
X7955609Y1582420D01*
X7952877Y1596154D01*
X7945098Y1607798D01*
X7933454Y1615577D01*
X7919720Y1618309D01*
D02*
G37*
G36*
X9877804Y1529900D02*
X9820100D01*
Y1493016D01*
X9831683Y1494541D01*
X9850025Y1502138D01*
X9865776Y1514224D01*
X9877804Y1529900D01*
D02*
G37*
G36*
X9743900D02*
X9686196D01*
X9698224Y1514224D01*
X9713975Y1502138D01*
X9732317Y1494541D01*
X9743900Y1493016D01*
Y1529900D01*
D02*
G37*
G36*
X9484804Y1529900D02*
X9402100D01*
Y1491950D01*
X9419000D01*
X9438683Y1494541D01*
X9457025Y1502138D01*
X9472776Y1514224D01*
X9484804Y1529900D01*
D02*
G37*
G36*
X9325900D02*
X9243195D01*
X9255224Y1514224D01*
X9270974Y1502138D01*
X9289316Y1494541D01*
X9309000Y1491950D01*
X9325900D01*
Y1529900D01*
D02*
G37*
G36*
X4018280Y1463369D02*
X4004546Y1460637D01*
X3992902Y1452858D01*
X3988162Y1445763D01*
X3712044D01*
X3708827Y1450578D01*
X3697184Y1458358D01*
X3683450Y1461090D01*
X3669716Y1458358D01*
X3658072Y1450578D01*
X3650292Y1438934D01*
X3647560Y1425200D01*
X3650292Y1411466D01*
X3658072Y1399822D01*
X3669716Y1392043D01*
X3683450Y1389311D01*
X3697184Y1392043D01*
X3708827Y1399822D01*
X3713568Y1406917D01*
X3989685D01*
X3992902Y1402102D01*
X4004546Y1394323D01*
X4018280Y1391591D01*
X4032014Y1394323D01*
X4043658Y1402102D01*
X4051437Y1413746D01*
X4054169Y1427480D01*
X4051437Y1441214D01*
X4043658Y1452858D01*
X4032014Y1460637D01*
X4018280Y1463369D01*
D02*
G37*
G36*
X8225000Y1491500D02*
X8200800Y1488314D01*
X8178250Y1478973D01*
X8158886Y1464114D01*
X8144027Y1444750D01*
X8134686Y1422200D01*
X8131500Y1398000D01*
X8134686Y1373800D01*
X8144027Y1351250D01*
X8158886Y1331886D01*
X8178250Y1317027D01*
X8200800Y1307686D01*
X8225000Y1304500D01*
X8249200Y1307686D01*
X8271750Y1317027D01*
X8291114Y1331886D01*
X8305973Y1351250D01*
X8315314Y1373800D01*
X8318500Y1398000D01*
X8315314Y1422200D01*
X8305973Y1444750D01*
X8291114Y1464114D01*
X8271750Y1478973D01*
X8249200Y1488314D01*
X8225000Y1491500D01*
D02*
G37*
G36*
X6870700Y1135709D02*
X6856966Y1132977D01*
X6845322Y1125198D01*
X6837543Y1113554D01*
X6834811Y1099820D01*
X6837543Y1086086D01*
X6845322Y1074442D01*
X6856966Y1066663D01*
X6870700Y1063931D01*
X6884434Y1066663D01*
X6896078Y1074442D01*
X6903857Y1086086D01*
X6906589Y1099820D01*
X6903857Y1113554D01*
X6896078Y1125198D01*
X6884434Y1132977D01*
X6870700Y1135709D01*
D02*
G37*
G36*
X7487920Y1034109D02*
X7474186Y1031377D01*
X7462542Y1023598D01*
X7454763Y1011954D01*
X7452031Y998220D01*
X7454763Y984486D01*
X7462542Y972842D01*
X7474186Y965063D01*
X7487920Y962331D01*
X7501654Y965063D01*
X7513298Y972842D01*
X7521077Y984486D01*
X7523809Y998220D01*
X7521077Y1011954D01*
X7513298Y1023598D01*
X7501654Y1031377D01*
X7487920Y1034109D01*
D02*
G37*
G36*
X3289300Y1184387D02*
X3274434Y1181429D01*
X3261831Y1173009D01*
X3253411Y1160406D01*
X3250453Y1145540D01*
X3253411Y1130674D01*
X3261831Y1118071D01*
X3548851Y831051D01*
X3561454Y822631D01*
X3576320Y819673D01*
X4196080D01*
X4210946Y822631D01*
X4223549Y831051D01*
X4231969Y843654D01*
X4234927Y858520D01*
X4231969Y873386D01*
X4223549Y885989D01*
X4210946Y894409D01*
X4196080Y897367D01*
X3592411D01*
X3316769Y1173009D01*
X3304166Y1181429D01*
X3289300Y1184387D01*
D02*
G37*
G36*
X6982460Y879169D02*
X6968726Y876437D01*
X6957082Y868658D01*
X6949303Y857014D01*
X6946571Y843280D01*
X6949303Y829546D01*
X6957082Y817902D01*
X6968726Y810123D01*
X6982460Y807391D01*
X6996194Y810123D01*
X7007838Y817902D01*
X7015617Y829546D01*
X7018349Y843280D01*
X7015617Y857014D01*
X7007838Y868658D01*
X6996194Y876437D01*
X6982460Y879169D01*
D02*
G37*
G36*
X7117080Y876629D02*
X7103346Y873897D01*
X7091702Y866118D01*
X7083923Y854474D01*
X7081191Y840740D01*
X7083923Y827006D01*
X7091702Y815362D01*
X7103346Y807583D01*
X7117080Y804851D01*
X7130814Y807583D01*
X7142458Y815362D01*
X7150237Y827006D01*
X7152969Y840740D01*
X7150237Y854474D01*
X7142458Y866118D01*
X7130814Y873897D01*
X7117080Y876629D01*
D02*
G37*
G36*
X1562100Y667926D02*
Y596900D01*
X1633126D01*
X1624801Y616998D01*
X1606304Y641104D01*
X1582198Y659601D01*
X1562100Y667926D01*
D02*
G37*
G36*
X9022100D02*
Y596900D01*
X9093127D01*
X9084802Y616998D01*
X9066304Y641104D01*
X9042198Y659601D01*
X9022100Y667926D01*
D02*
G37*
G36*
X1485900D02*
X1465802Y659601D01*
X1441696Y641104D01*
X1423199Y616998D01*
X1414874Y596900D01*
X1485900D01*
Y667926D01*
D02*
G37*
G36*
X8945900D02*
X8925803Y659601D01*
X8901696Y641104D01*
X8883199Y616998D01*
X8874874Y596900D01*
X8945900D01*
Y667926D01*
D02*
G37*
G36*
X8578700Y661500D02*
X8373300D01*
Y456100D01*
X8578700D01*
Y661500D01*
D02*
G37*
G36*
X1118700D02*
X913300D01*
Y456100D01*
X1118700D01*
Y661500D01*
D02*
G37*
G36*
X1633126Y520700D02*
X1562100D01*
Y449674D01*
X1582198Y457999D01*
X1606304Y476496D01*
X1624801Y500602D01*
X1633126Y520700D01*
D02*
G37*
G36*
X9093127D02*
X9022100D01*
Y449674D01*
X9042198Y457999D01*
X9066304Y476496D01*
X9084802Y500602D01*
X9093127Y520700D01*
D02*
G37*
G36*
X8945900D02*
X8874874D01*
X8883199Y500602D01*
X8901696Y476496D01*
X8925803Y457999D01*
X8945900Y449674D01*
Y520700D01*
D02*
G37*
G36*
X1485900D02*
X1414874D01*
X1423199Y500602D01*
X1441696Y476496D01*
X1465802Y457999D01*
X1485900Y449674D01*
Y520700D01*
D02*
G37*
G36*
X9788100Y421735D02*
Y288100D01*
X9921735D01*
X9912833Y317447D01*
X9896545Y347919D01*
X9874627Y374627D01*
X9847919Y396545D01*
X9817447Y412833D01*
X9788100Y421735D01*
D02*
G37*
G36*
X9711900D02*
X9682553Y412833D01*
X9652082Y396545D01*
X9625373Y374627D01*
X9603455Y347919D01*
X9587168Y317447D01*
X9578265Y288100D01*
X9711900D01*
Y421735D01*
D02*
G37*
G36*
X288100D02*
Y288100D01*
X421735D01*
X412833Y317447D01*
X396545Y347919D01*
X374627Y374627D01*
X347919Y396545D01*
X317447Y412833D01*
X288100Y421735D01*
D02*
G37*
G36*
X211900D02*
X182553Y412833D01*
X152081Y396545D01*
X125373Y374627D01*
X103455Y347919D01*
X87167Y317447D01*
X78265Y288100D01*
X211900D01*
Y421735D01*
D02*
G37*
G36*
X8600000Y376858D02*
X8580108Y374239D01*
X8561571Y366561D01*
X8545653Y354347D01*
X8533439Y338429D01*
X8525761Y319892D01*
X8523142Y300000D01*
X8525761Y280108D01*
X8533439Y261571D01*
X8545653Y245653D01*
X8561571Y233439D01*
X8580108Y225761D01*
X8600000Y223142D01*
X8619892Y225761D01*
X8638429Y233439D01*
X8654347Y245653D01*
X8666561Y261571D01*
X8674239Y280108D01*
X8676858Y300000D01*
X8674239Y319892D01*
X8666561Y338429D01*
X8654347Y354347D01*
X8638429Y366561D01*
X8619892Y374239D01*
X8600000Y376858D01*
D02*
G37*
G36*
X8300000D02*
X8280108Y374239D01*
X8261571Y366561D01*
X8245653Y354347D01*
X8233439Y338429D01*
X8225761Y319892D01*
X8223142Y300000D01*
X8225761Y280108D01*
X8233439Y261571D01*
X8245653Y245653D01*
X8261571Y233439D01*
X8280108Y225761D01*
X8300000Y223142D01*
X8319892Y225761D01*
X8338429Y233439D01*
X8354347Y245653D01*
X8366561Y261571D01*
X8374239Y280108D01*
X8376858Y300000D01*
X8374239Y319892D01*
X8366561Y338429D01*
X8354347Y354347D01*
X8338429Y366561D01*
X8319892Y374239D01*
X8300000Y376858D01*
D02*
G37*
G36*
X7900000Y301858D02*
X7880108Y299239D01*
X7861571Y291561D01*
X7845653Y279347D01*
X7833439Y263429D01*
X7825761Y244892D01*
X7823142Y225000D01*
X7825761Y205108D01*
X7833439Y186571D01*
X7845653Y170653D01*
X7861571Y158439D01*
X7880108Y150761D01*
X7900000Y148142D01*
X7919892Y150761D01*
X7938429Y158439D01*
X7954347Y170653D01*
X7966561Y186571D01*
X7974239Y205108D01*
X7976858Y225000D01*
X7974239Y244892D01*
X7966561Y263429D01*
X7954347Y279347D01*
X7938429Y291561D01*
X7919892Y299239D01*
X7900000Y301858D01*
D02*
G37*
G36*
X7600000D02*
X7580108Y299239D01*
X7561571Y291561D01*
X7545653Y279347D01*
X7533439Y263429D01*
X7525761Y244892D01*
X7523142Y225000D01*
X7525761Y205108D01*
X7533439Y186571D01*
X7545653Y170653D01*
X7561571Y158439D01*
X7580108Y150761D01*
X7600000Y148142D01*
X7619892Y150761D01*
X7638429Y158439D01*
X7654347Y170653D01*
X7666561Y186571D01*
X7674239Y205108D01*
X7676858Y225000D01*
X7674239Y244892D01*
X7666561Y263429D01*
X7654347Y279347D01*
X7638429Y291561D01*
X7619892Y299239D01*
X7600000Y301858D01*
D02*
G37*
G36*
X7300000D02*
X7280108Y299239D01*
X7261571Y291561D01*
X7245653Y279347D01*
X7233439Y263429D01*
X7225761Y244892D01*
X7223142Y225000D01*
X7225761Y205108D01*
X7233439Y186571D01*
X7245653Y170653D01*
X7261571Y158439D01*
X7280108Y150761D01*
X7300000Y148142D01*
X7319892Y150761D01*
X7338429Y158439D01*
X7354346Y170653D01*
X7366561Y186571D01*
X7374239Y205108D01*
X7376857Y225000D01*
X7374239Y244892D01*
X7366561Y263429D01*
X7354346Y279347D01*
X7338429Y291561D01*
X7319892Y299239D01*
X7300000Y301858D01*
D02*
G37*
G36*
X7000000D02*
X6980108Y299239D01*
X6961571Y291561D01*
X6945653Y279347D01*
X6933439Y263429D01*
X6925761Y244892D01*
X6923142Y225000D01*
X6925761Y205108D01*
X6933439Y186571D01*
X6945653Y170653D01*
X6961571Y158439D01*
X6980108Y150761D01*
X7000000Y148142D01*
X7019892Y150761D01*
X7038429Y158439D01*
X7054347Y170653D01*
X7066561Y186571D01*
X7074239Y205108D01*
X7076858Y225000D01*
X7074239Y244892D01*
X7066561Y263429D01*
X7054347Y279347D01*
X7038429Y291561D01*
X7019892Y299239D01*
X7000000Y301858D01*
D02*
G37*
G36*
X6700000D02*
X6680108Y299239D01*
X6661571Y291561D01*
X6645653Y279347D01*
X6633439Y263429D01*
X6625761Y244892D01*
X6623142Y225000D01*
X6625761Y205108D01*
X6633439Y186571D01*
X6645653Y170653D01*
X6661571Y158439D01*
X6680108Y150761D01*
X6700000Y148142D01*
X6719892Y150761D01*
X6738429Y158439D01*
X6754347Y170653D01*
X6766561Y186571D01*
X6774239Y205108D01*
X6776858Y225000D01*
X6774239Y244892D01*
X6766561Y263429D01*
X6754347Y279347D01*
X6738429Y291561D01*
X6719892Y299239D01*
X6700000Y301858D01*
D02*
G37*
G36*
X6400000D02*
X6380108Y299239D01*
X6361571Y291561D01*
X6345653Y279347D01*
X6333439Y263429D01*
X6325761Y244892D01*
X6323142Y225000D01*
X6325761Y205108D01*
X6333439Y186571D01*
X6345653Y170653D01*
X6361571Y158439D01*
X6380108Y150761D01*
X6400000Y148142D01*
X6419892Y150761D01*
X6438429Y158439D01*
X6454347Y170653D01*
X6466561Y186571D01*
X6474239Y205108D01*
X6476858Y225000D01*
X6474239Y244892D01*
X6466561Y263429D01*
X6454347Y279347D01*
X6438429Y291561D01*
X6419892Y299239D01*
X6400000Y301858D01*
D02*
G37*
G36*
X6100000D02*
X6080108Y299239D01*
X6061571Y291561D01*
X6045653Y279347D01*
X6033439Y263429D01*
X6025761Y244892D01*
X6023142Y225000D01*
X6025761Y205108D01*
X6033439Y186571D01*
X6045653Y170653D01*
X6061571Y158439D01*
X6080108Y150761D01*
X6100000Y148142D01*
X6119892Y150761D01*
X6138429Y158439D01*
X6154347Y170653D01*
X6166561Y186571D01*
X6174239Y205108D01*
X6176858Y225000D01*
X6174239Y244892D01*
X6166561Y263429D01*
X6154347Y279347D01*
X6138429Y291561D01*
X6119892Y299239D01*
X6100000Y301858D01*
D02*
G37*
G36*
X5800000D02*
X5780108Y299239D01*
X5761571Y291561D01*
X5745653Y279347D01*
X5733439Y263429D01*
X5725761Y244892D01*
X5723142Y225000D01*
X5725761Y205108D01*
X5733439Y186571D01*
X5745653Y170653D01*
X5761571Y158439D01*
X5780108Y150761D01*
X5800000Y148142D01*
X5819892Y150761D01*
X5838429Y158439D01*
X5854347Y170653D01*
X5866561Y186571D01*
X5874239Y205108D01*
X5876858Y225000D01*
X5874239Y244892D01*
X5866561Y263429D01*
X5854347Y279347D01*
X5838429Y291561D01*
X5819892Y299239D01*
X5800000Y301858D01*
D02*
G37*
G36*
X5500000D02*
X5480108Y299239D01*
X5461572Y291561D01*
X5445654Y279347D01*
X5433439Y263429D01*
X5425761Y244892D01*
X5423143Y225000D01*
X5425761Y205108D01*
X5433439Y186571D01*
X5445654Y170653D01*
X5461572Y158439D01*
X5480108Y150761D01*
X5500000Y148142D01*
X5519892Y150761D01*
X5538429Y158439D01*
X5554347Y170653D01*
X5566561Y186571D01*
X5574239Y205108D01*
X5576858Y225000D01*
X5574239Y244892D01*
X5566561Y263429D01*
X5554347Y279347D01*
X5538429Y291561D01*
X5519892Y299239D01*
X5500000Y301858D01*
D02*
G37*
G36*
X5200000D02*
X5180108Y299239D01*
X5161572Y291561D01*
X5145654Y279347D01*
X5133440Y263429D01*
X5125761Y244892D01*
X5123143Y225000D01*
X5125761Y205108D01*
X5133440Y186571D01*
X5145654Y170653D01*
X5161572Y158439D01*
X5180108Y150761D01*
X5200000Y148142D01*
X5219893Y150761D01*
X5238429Y158439D01*
X5254347Y170653D01*
X5266561Y186571D01*
X5274239Y205108D01*
X5276858Y225000D01*
X5274239Y244892D01*
X5266561Y263429D01*
X5254347Y279347D01*
X5238429Y291561D01*
X5219893Y299239D01*
X5200000Y301858D01*
D02*
G37*
G36*
X4900000D02*
X4880108Y299239D01*
X4861571Y291561D01*
X4845654Y279347D01*
X4833439Y263429D01*
X4825761Y244892D01*
X4823143Y225000D01*
X4825761Y205108D01*
X4833439Y186571D01*
X4845654Y170653D01*
X4861571Y158439D01*
X4880108Y150761D01*
X4900000Y148142D01*
X4919892Y150761D01*
X4938429Y158439D01*
X4954347Y170653D01*
X4966561Y186571D01*
X4974239Y205108D01*
X4976858Y225000D01*
X4974239Y244892D01*
X4966561Y263429D01*
X4954347Y279347D01*
X4938429Y291561D01*
X4919892Y299239D01*
X4900000Y301858D01*
D02*
G37*
G36*
X4600000D02*
X4580108Y299239D01*
X4561571Y291561D01*
X4545653Y279347D01*
X4533439Y263429D01*
X4525761Y244892D01*
X4523142Y225000D01*
X4525761Y205108D01*
X4533439Y186571D01*
X4545653Y170653D01*
X4561571Y158439D01*
X4580108Y150761D01*
X4600000Y148142D01*
X4619892Y150761D01*
X4638429Y158439D01*
X4654347Y170653D01*
X4666561Y186571D01*
X4674239Y205108D01*
X4676858Y225000D01*
X4674239Y244892D01*
X4666561Y263429D01*
X4654347Y279347D01*
X4638429Y291561D01*
X4619892Y299239D01*
X4600000Y301858D01*
D02*
G37*
G36*
X9921735Y211900D02*
X9788100D01*
Y78265D01*
X9817447Y87167D01*
X9847919Y103455D01*
X9874627Y125373D01*
X9896545Y152081D01*
X9912833Y182553D01*
X9921735Y211900D01*
D02*
G37*
G36*
X9711900D02*
X9578265D01*
X9587168Y182553D01*
X9603455Y152081D01*
X9625373Y125373D01*
X9652082Y103455D01*
X9682553Y87167D01*
X9711900Y78265D01*
Y211900D01*
D02*
G37*
G36*
X421735D02*
X288100D01*
Y78265D01*
X317447Y87167D01*
X347919Y103455D01*
X374627Y125373D01*
X396545Y152081D01*
X412833Y182553D01*
X421735Y211900D01*
D02*
G37*
G36*
X211900D02*
X78265D01*
X87167Y182553D01*
X103455Y152081D01*
X125373Y125373D01*
X152081Y103455D01*
X182553Y87167D01*
X211900Y78265D01*
Y211900D01*
D02*
G37*
%LPD*%
G36*
X2062700Y3682300D02*
X2074600Y3680369D01*
Y3669600D01*
X2118789D01*
X2126846Y3659783D01*
X2125402Y3652520D01*
X2129119Y3633830D01*
X2131411Y3630400D01*
X2124623Y3617700D01*
X2087300D01*
Y3472300D01*
X2155577D01*
Y3425700D01*
X2157055Y3418267D01*
X2161266Y3411966D01*
X2300077Y3273155D01*
Y3108556D01*
X2294900Y3098000D01*
X2287600D01*
Y3085305D01*
X2286795D01*
Y2947600D01*
X1932205D01*
Y3085305D01*
X1931400D01*
Y3098000D01*
X1924100D01*
X1918923Y3108556D01*
Y3364654D01*
X1988734Y3434466D01*
X1992945Y3440767D01*
X1994423Y3448200D01*
Y3472300D01*
X2062700D01*
Y3617700D01*
X2013706D01*
X2007162Y3630400D01*
X2012009Y3637654D01*
X2014967Y3652520D01*
Y3682300D01*
X2062700D01*
Y3682300D01*
D02*
G37*
G36*
X1187300Y3509745D02*
Y3472300D01*
X1233403D01*
Y3414050D01*
Y3098000D01*
X1168346D01*
Y3503000D01*
X1168074Y3504368D01*
X1176835Y3513489D01*
X1187300Y3509745D01*
D02*
G37*
G36*
X1090653Y3098000D02*
X1028347D01*
Y3368630D01*
X1066329Y3406611D01*
X1074749Y3419214D01*
X1077707Y3434080D01*
Y3472300D01*
X1090653D01*
Y3098000D01*
D02*
G37*
G36*
X2487300Y3642700D02*
X2487300Y3631900D01*
Y3472300D01*
X2549267D01*
X2553292Y3459600D01*
X2445766Y3352074D01*
X2441555Y3345773D01*
X2440077Y3338340D01*
Y3094280D01*
X2431096Y3085300D01*
X2417903D01*
X2408923Y3094280D01*
Y3416940D01*
X2407445Y3424373D01*
X2403234Y3430674D01*
X2394323Y3439585D01*
Y3472300D01*
X2462700D01*
X2462700Y3642700D01*
X2474613Y3644600D01*
X2475387D01*
X2487300Y3642700D01*
D02*
G37*
G36*
X2274600Y3644600D02*
X2275387D01*
X2287300Y3642700D01*
X2287300Y3631900D01*
Y3472300D01*
X2355477D01*
Y3431540D01*
X2356955Y3424107D01*
X2361166Y3417806D01*
X2370077Y3408895D01*
Y3094280D01*
X2361096Y3085300D01*
X2347903D01*
X2338923Y3094280D01*
Y3281200D01*
X2337444Y3288633D01*
X2333234Y3294934D01*
X2194423Y3433745D01*
Y3472300D01*
X2262700D01*
Y3617700D01*
X2223857D01*
X2217069Y3630400D01*
X2219361Y3633830D01*
X2223078Y3652520D01*
X2221634Y3659783D01*
X2229691Y3669600D01*
X2274600D01*
Y3644600D01*
D02*
G37*
G36*
X1517128Y3123391D02*
Y3095959D01*
X1512200Y3085300D01*
X1454900D01*
Y3098000D01*
X1447600D01*
Y3085305D01*
X1446795D01*
Y2947600D01*
X1371400D01*
Y3098000D01*
X1311096D01*
Y3312829D01*
X1322830Y3317689D01*
X1517128Y3123391D01*
D02*
G37*
D10*
X2175000Y3545000D02*
D03*
Y3755000D02*
D03*
X1775000Y3545000D02*
D03*
Y3755000D02*
D03*
X1975000Y3545000D02*
D03*
Y3755000D02*
D03*
D11*
X9620000Y2175000D02*
D03*
X9830000D02*
D03*
X9620000Y1875000D02*
D03*
X9830000D02*
D03*
D17*
X2375000Y3742500D02*
D03*
Y3557500D02*
D03*
X2575000Y3742500D02*
D03*
Y3557500D02*
D03*
X875000D02*
D03*
Y3742500D02*
D03*
X675000D02*
D03*
Y3557500D02*
D03*
X1275000Y3742500D02*
D03*
Y3557500D02*
D03*
X1075000D02*
D03*
Y3742500D02*
D03*
D34*
X2255520Y342900D02*
X2336800Y261620D01*
X2255520Y342900D02*
Y472440D01*
X2255000Y472960D02*
X2255520Y472440D01*
X9829240Y2174240D02*
X9830000Y2175000D01*
X9730740Y2174240D02*
X9829240D01*
X9826980Y1871980D02*
X9830000Y1875000D01*
X9730740Y1871980D02*
X9826980D01*
X1038860Y3518860D02*
X1077500Y3557500D01*
X1176250D01*
X1275000D01*
X568960Y2947060D02*
X569500Y2947600D01*
X568960Y2786380D02*
Y2947060D01*
X1059180Y2947280D02*
X1059500Y2947600D01*
X1059180Y2786380D02*
Y2947280D01*
X1199500Y2947600D02*
X1201420Y2945680D01*
Y2786380D02*
Y2945680D01*
X1272250Y3414050D02*
Y3554750D01*
Y2950350D02*
Y3414050D01*
X1339500Y2947600D02*
X1343660Y2943440D01*
Y2786380D02*
Y2943440D01*
X1409500Y2947600D02*
X1409700Y2947400D01*
Y2786380D02*
Y2947400D01*
X1620520Y2786380D02*
Y2946580D01*
X1619500Y2947600D02*
X1620520Y2946580D01*
X1689100Y2947200D02*
X1689500Y2947600D01*
X1689100Y2786380D02*
Y2947200D01*
X1968500Y2946600D02*
X1969500Y2947600D01*
X1968500Y2786380D02*
Y2946600D01*
X2039500Y2947600D02*
X2039620Y2947480D01*
Y2786380D02*
Y2947480D01*
X2109500Y2947600D02*
X2110740Y2946360D01*
Y2786380D02*
Y2946360D01*
X2599500Y2947600D02*
X2600960Y2946140D01*
Y2786380D02*
Y2946140D01*
X2529500Y2947600D02*
X2529840Y2947260D01*
Y2786380D02*
Y2947260D01*
X2249500Y2947600D02*
X2250440Y2946660D01*
Y2786380D02*
Y2946660D01*
X2179320Y2947420D02*
X2179500Y2947600D01*
X2179320Y2786380D02*
Y2947420D01*
X1074420Y3743080D02*
X1075000Y3742500D01*
X1074420Y3743080D02*
Y3855720D01*
X1275000Y3742500D02*
X1275080Y3742580D01*
Y3855720D01*
X2372360Y3745140D02*
X2375000Y3742500D01*
X2372360Y3745140D02*
Y3855720D01*
X2575000Y3742500D02*
X2575560Y3743060D01*
Y3855720D01*
X2174240Y3754240D02*
X2175000Y3755000D01*
X2174240Y3652520D02*
Y3754240D01*
X5778500Y3251200D02*
X5781040Y3248660D01*
X5786120D01*
X3289300Y1145540D02*
X3576320Y858520D01*
X4196080D01*
X1269500Y2947600D02*
X1272250Y2950350D01*
X1077500Y3557500D02*
X1124600Y3510400D01*
Y3507900D02*
Y3510400D01*
Y3507900D02*
X1129500Y3503000D01*
Y2947600D02*
Y3503000D01*
X919500Y3314720D02*
X989500Y3384720D01*
Y2947600D02*
Y3384720D01*
X1038860Y3434080D01*
X919500Y2947600D02*
Y3314720D01*
X1975000Y3755000D02*
X1976120Y3753880D01*
Y3652520D02*
Y3753880D01*
X1775000Y3755000D02*
X1775460Y3754540D01*
Y3652520D02*
Y3754540D01*
X1038860Y3434080D02*
Y3518860D01*
D35*
X7675000Y950000D02*
X8150000D01*
X7250000Y525000D02*
X7675000Y950000D01*
X4700000Y525000D02*
X7250000D01*
X2336800Y261620D02*
X4436620D01*
X4700000Y525000D01*
X1272250Y3554750D02*
X1275000Y3557500D01*
D36*
X3683450Y1425200D02*
X3684590Y1426340D01*
X4017140D01*
X4018280Y1427480D01*
X9619240Y2174240D02*
X9620000Y2175000D01*
X9514840Y2174240D02*
X9619240D01*
X9616980Y1871980D02*
X9620000Y1875000D01*
X9514840Y1871980D02*
X9616980D01*
X4076700Y350520D02*
X4442460D01*
X4917440Y825500D01*
X5988050D01*
X6153150Y990600D01*
Y1130300D02*
X6623050Y1600200D01*
X6153150Y990600D02*
Y1130300D01*
X5998210Y1014730D02*
X5999480Y1016000D01*
X5998210Y930910D02*
Y1014730D01*
X5996940Y929640D02*
X5998210Y930910D01*
X4051300Y2585720D02*
X4052570Y2586990D01*
X4051300Y2461260D02*
Y2585720D01*
X4050030Y2459990D02*
X4051300Y2461260D01*
X3909060Y2545080D02*
X3909695Y2544445D01*
Y2459355D02*
Y2544445D01*
Y2459355D02*
X3910330Y2458720D01*
X1483360Y2905640D02*
X1490980Y2913260D01*
X1483360Y2790190D02*
Y2905640D01*
X1759500Y2715980D02*
Y2947600D01*
Y2715980D02*
X1798320Y2677160D01*
X1913890Y2622867D02*
Y2625090D01*
X1829500Y2709480D02*
X1913890Y2625090D01*
X5760720Y1770380D02*
X5938520Y1948180D01*
X6362700D01*
X1829500Y2709480D02*
Y2947600D01*
X2573020Y3555520D02*
X2575560Y3552980D01*
Y3454400D02*
Y3552980D01*
X2459500Y3338340D02*
X2575560Y3454400D01*
X2459500Y2947600D02*
Y3338340D01*
X2374900Y3431540D02*
Y3557400D01*
X2389500Y2947600D02*
Y3416940D01*
X2374900Y3431540D02*
X2389500Y3416940D01*
X2319500Y2947600D02*
Y3281200D01*
X2175000Y3425700D02*
X2319500Y3281200D01*
X2175000Y3425700D02*
Y3545000D01*
X1829500Y2947600D02*
Y3302700D01*
X1899500Y3372700D01*
Y2947600D02*
Y3372700D01*
X1975000Y3448200D02*
Y3545000D01*
X1899500Y3372700D02*
X1975000Y3448200D01*
X1759500Y2947600D02*
X1760220Y2948320D01*
Y3429000D01*
X1775000Y3443780D02*
Y3545000D01*
X1760220Y3429000D02*
X1775000Y3443780D01*
X849500Y2947600D02*
Y3333620D01*
X779500Y2947600D02*
Y3342360D01*
X875000Y3437860D01*
X709500Y2947600D02*
Y3351960D01*
X675640Y3385820D02*
X709500Y3351960D01*
X639500Y2947600D02*
Y3348300D01*
X580950Y3406850D02*
X639500Y3348300D01*
X7206410Y2963750D02*
X7362500D01*
X6903720Y3266440D02*
X7206410Y2963750D01*
X5908040Y3197860D02*
X6159500D01*
X5905500Y3200400D02*
X5908040Y3197860D01*
X7404100Y2283460D02*
X7523480Y2402840D01*
X7404100Y2235200D02*
Y2283460D01*
X2573020Y3555520D02*
X2575000Y3557500D01*
X2374900Y3557400D02*
X2375000Y3557500D01*
X2175000Y3545000D02*
X2176780Y3543220D01*
X1975000Y3545000D02*
X1976120Y3543880D01*
X875000Y3742500D02*
X877500D01*
X969050Y3650950D01*
Y3453170D02*
Y3650950D01*
X849500Y3333620D02*
X969050Y3453170D01*
X875000Y3437860D02*
Y3557500D01*
X672500Y3742500D02*
X675000D01*
X580950Y3650950D02*
X672500Y3742500D01*
X580950Y3406850D02*
Y3650950D01*
X675640Y3385820D02*
Y3556860D01*
X675000Y3557500D02*
X675640Y3556860D01*
X9535705Y3617091D02*
X9536500D01*
X9252796Y3900000D02*
X9535705Y3617091D01*
X9252000Y3900000D02*
X9252796D01*
D37*
X1549500Y2947600D02*
Y3136800D01*
X1272250Y3414050D02*
X1549500Y3136800D01*
X6494780Y2308860D02*
Y2585720D01*
X6676390Y2559050D02*
X6809740Y2692400D01*
X6982460D01*
D39*
X9405620Y1925320D02*
Y2022200D01*
X9403440Y2024380D02*
X9405620Y2022200D01*
D40*
X250000Y250000D02*
D03*
X9750000D02*
D03*
Y4750000D02*
D03*
X250000D02*
D03*
D41*
X9663500Y3109091D02*
D03*
Y3236091D02*
D03*
X9536500Y3109091D02*
D03*
Y3236091D02*
D03*
X9663500Y3363091D02*
D03*
Y3490091D02*
D03*
X9536500Y3363091D02*
D03*
Y3490091D02*
D03*
X9663500Y3617091D02*
D03*
X9536500D02*
D03*
X8684260Y1590040D02*
D03*
X8811260D02*
D03*
X8684260Y1463040D02*
D03*
X8811260D02*
D03*
D42*
X9252000Y3900000D02*
D03*
X8225000Y1398000D02*
D03*
D43*
X8998000Y3900000D02*
D03*
D44*
X9782000Y1568000D02*
D03*
Y2432000D02*
D03*
D45*
X9364000D02*
D03*
Y1568000D02*
D03*
D46*
X9417000Y2289000D02*
D03*
Y1711000D02*
D03*
D47*
X8476000Y558800D02*
D03*
X1016000D02*
D03*
D48*
X8984000D02*
D03*
X1524000D02*
D03*
D49*
X8225000Y1652000D02*
D03*
D50*
X1584500Y2197600D02*
D03*
D51*
X4600000Y225000D02*
D03*
X4900000D02*
D03*
X5200000D02*
D03*
X5500000D02*
D03*
X5800000D02*
D03*
X6100000D02*
D03*
X6400000D02*
D03*
X6700000D02*
D03*
X7000000D02*
D03*
X7300000D02*
D03*
X7600000D02*
D03*
X7900000D02*
D03*
X8300000Y300000D02*
D03*
X8600000D02*
D03*
D52*
X8150000Y950000D02*
D03*
X6068060Y2001520D02*
D03*
X2341880Y353060D02*
D03*
X2410460Y449580D02*
D03*
X2255000Y472960D02*
D03*
X4018280Y1427480D02*
D03*
X3683450Y1425200D02*
D03*
X7251700Y3129280D02*
D03*
X7868920Y3268980D02*
D03*
X7729220Y3182620D02*
D03*
X8371840Y3129280D02*
D03*
Y3314700D02*
D03*
X7929880Y3522980D02*
D03*
X7866380D02*
D03*
X5173980Y1338580D02*
D03*
X5311140D02*
D03*
X5036820D02*
D03*
X5448300D02*
D03*
X4899660D02*
D03*
X9730740Y2174240D02*
D03*
Y1871980D02*
D03*
X8862060Y2075180D02*
D03*
X8846820Y1684020D02*
D03*
X8547100Y1798320D02*
D03*
Y2352040D02*
D03*
X7266940Y2588260D02*
D03*
X7645400Y2585720D02*
D03*
X7454900D02*
D03*
X6791960Y2590800D02*
D03*
X6830060Y3012440D02*
D03*
X6578600Y3134360D02*
D03*
Y3317240D02*
D03*
X6126480Y3520440D02*
D03*
X6563360Y3522980D02*
D03*
X7025640Y3520440D02*
D03*
X6959600D02*
D03*
X7574280Y3632200D02*
D03*
X7477760Y3317240D02*
D03*
X7807960Y3954780D02*
D03*
Y4500880D02*
D03*
X6911340Y3952240D02*
D03*
Y4498340D02*
D03*
X6009640Y3952240D02*
D03*
Y4498340D02*
D03*
X1176250Y3557500D02*
D03*
X568960Y2786380D02*
D03*
X1059180D02*
D03*
X1201420D02*
D03*
X1343660D02*
D03*
X1409700D02*
D03*
X1620520D02*
D03*
X1689100D02*
D03*
X1968500D02*
D03*
X2039620D02*
D03*
X2110740D02*
D03*
X2600960D02*
D03*
X2529840D02*
D03*
X2250440D02*
D03*
X2179320D02*
D03*
X1074420Y3855720D02*
D03*
X1275080D02*
D03*
X2372360D02*
D03*
X2575560D02*
D03*
X2174240Y3652520D02*
D03*
X7917180Y2164080D02*
D03*
X7919720Y1582420D02*
D03*
Y1874520D02*
D03*
X7487920Y998220D02*
D03*
X7117080Y840740D02*
D03*
X6982460Y843280D02*
D03*
X6870700Y1099820D02*
D03*
X6283960Y2697480D02*
D03*
X5930900Y3014980D02*
D03*
X5679440Y3136900D02*
D03*
X5778500Y3251200D02*
D03*
X6062980Y3520440D02*
D03*
X5661660Y3515360D02*
D03*
X5679440Y3314700D02*
D03*
X5311140Y3632200D02*
D03*
X5171440Y3426460D02*
D03*
X5110480Y4498340D02*
D03*
Y3952240D02*
D03*
X2176780Y1450340D02*
D03*
X4018280Y1767840D02*
D03*
X3830320Y1877060D02*
D03*
X5161280Y2184400D02*
D03*
X6075680Y1676400D02*
D03*
X4853940Y2326640D02*
D03*
X8956040Y2352040D02*
D03*
X9514840Y2174240D02*
D03*
Y1871980D02*
D03*
X2583180Y152400D02*
D03*
X4196080Y858520D02*
D03*
X3289300Y1145540D02*
D03*
X6469380Y1097280D02*
D03*
X6969760Y1099820D02*
D03*
X7782560D02*
D03*
X7729220Y548640D02*
D03*
X7106920Y660400D02*
D03*
X6990080D02*
D03*
X6248400Y751840D02*
D03*
X6002020Y749300D02*
D03*
X7475220Y2199640D02*
D03*
X7376160Y1430020D02*
D03*
X6725920D02*
D03*
X4076700Y350520D02*
D03*
X6623050Y1600200D02*
D03*
X5996940Y929640D02*
D03*
X5999480Y1016000D02*
D03*
X6273800Y1480820D02*
D03*
X6724650Y2313940D02*
D03*
X4050030Y2459990D02*
D03*
X4052570Y2586990D02*
D03*
X6494780Y2585720D02*
D03*
X3910330Y2458720D02*
D03*
X3909060Y2545080D02*
D03*
X1483360Y2790190D02*
D03*
X1798320Y2677160D02*
D03*
X1913890Y2622867D02*
D03*
X6676390Y2559050D02*
D03*
X6494780Y2308860D02*
D03*
X6362700Y1948180D02*
D03*
X5760720Y1770380D02*
D03*
X6982460Y2692400D02*
D03*
X1976120Y3652520D02*
D03*
X1775460D02*
D03*
X5768340Y1372540D02*
D03*
X5925820Y2308860D02*
D03*
X5763260Y1582420D02*
D03*
X6385560Y2400300D02*
D03*
X4117340Y2049780D02*
D03*
X4119880Y1424940D02*
D03*
X3992880Y988060D02*
D03*
X3975100Y1620520D02*
D03*
X3416300Y1874520D02*
D03*
X3403600Y1577340D02*
D03*
X3388360Y1315720D02*
D03*
X3048000Y1107440D02*
D03*
X2821940D02*
D03*
X2115820Y1125220D02*
D03*
X7362500Y2963750D02*
D03*
X6903720Y3266440D02*
D03*
X6159500Y3197860D02*
D03*
X7404100Y2235200D02*
D03*
X7523480Y2402840D02*
D03*
X5905500Y3200400D02*
D03*
X9403440Y2024380D02*
D03*
X9405620Y1925320D02*
D03*
D73*
X2599500Y2947600D02*
D03*
X2389500D02*
D03*
X1969500D02*
D03*
X1759500D02*
D03*
X2179500D02*
D03*
X1199500D02*
D03*
X1409500D02*
D03*
X989500D02*
D03*
X2529500D02*
D03*
X2459500D02*
D03*
X2319500D02*
D03*
X2249500D02*
D03*
X2039500D02*
D03*
X2109500D02*
D03*
X1899500D02*
D03*
X1829500D02*
D03*
X1619500D02*
D03*
X1689500D02*
D03*
X1549500D02*
D03*
X1479500D02*
D03*
X1269500D02*
D03*
X1339500D02*
D03*
X1129500D02*
D03*
X1059500D02*
D03*
X919500D02*
D03*
X569500D02*
D03*
X849500D02*
D03*
X639500D02*
D03*
X709500D02*
D03*
X779500D02*
D03*
%TF.MD5,113aa3b2814c462f48028bb7d01fdeed*%
M02*
