%TF.GenerationSoftware,Altium Limited,Altium Designer,21.0.9 (235)*%
G04 Layer_Color=255*
%FSLAX45Y45*%
%MOMM*%
%TF.SameCoordinates,23D9C264-9E25-4532-ABEF-1D24AEF7D3CB*%
%TF.FilePolarity,Positive*%
%TF.FileFunction,Pads,Bot*%
%TF.Part,Single*%
G01*
G75*
%TA.AperFunction,SMDPad,CuDef*%
%ADD13R,1.50000X1.45000*%
%ADD14R,1.20000X1.50000*%
%ADD16R,1.50000X1.20000*%
%TA.AperFunction,ComponentPad*%
%ADD46C,1.05000*%
%ADD47R,1.05000X1.05000*%
%ADD48R,1.80000X1.80000*%
%TA.AperFunction,ViaPad*%
%ADD49C,3.00000*%
%TA.AperFunction,ComponentPad*%
%ADD50O,1.60000X1.00000*%
%ADD51O,2.10000X1.00000*%
%ADD52C,0.85000*%
%ADD53C,1.80000*%
%ADD54O,22.00000X0.50000*%
%TA.AperFunction,SMDPad,CuDef*%
%ADD75R,1.30000X1.05000*%
%ADD76R,0.40000X2.50000*%
D13*
X2750000Y3557500D02*
D03*
Y3742500D02*
D03*
X2475000Y3557500D02*
D03*
Y3742500D02*
D03*
X1375000Y3557500D02*
D03*
Y3742500D02*
D03*
X1100000D02*
D03*
Y3557500D02*
D03*
X825000Y3742500D02*
D03*
Y3557500D02*
D03*
X550000D02*
D03*
Y3742500D02*
D03*
D14*
X9830000Y1875000D02*
D03*
X9620000D02*
D03*
X9830000Y2125000D02*
D03*
X9620000D02*
D03*
D16*
X2200000Y3755000D02*
D03*
Y3545000D02*
D03*
X1925000Y3755000D02*
D03*
Y3545000D02*
D03*
X1650000Y3755000D02*
D03*
Y3545000D02*
D03*
D46*
X8686500Y1513500D02*
D03*
X8813500D02*
D03*
X8686500Y1386500D02*
D03*
X8813500D02*
D03*
X9363500Y4125000D02*
D03*
D47*
X9236500D02*
D03*
D48*
X8476000Y558800D02*
D03*
X1016000D02*
D03*
D49*
X250000Y250000D02*
D03*
X9750000D02*
D03*
Y4750000D02*
D03*
X250000D02*
D03*
D50*
X9782000Y1568000D02*
D03*
Y2432000D02*
D03*
D51*
X9364000D02*
D03*
Y1568000D02*
D03*
D52*
X9417000Y2289000D02*
D03*
Y1711000D02*
D03*
D53*
X8984000Y558800D02*
D03*
X1524000D02*
D03*
D54*
X1584500Y2197600D02*
D03*
D75*
X1225000Y602500D02*
D03*
Y747500D02*
D03*
X800000Y602500D02*
D03*
Y747500D02*
D03*
X8275000Y602500D02*
D03*
Y747500D02*
D03*
X8675000Y602500D02*
D03*
Y747500D02*
D03*
D76*
X1479500Y2947600D02*
D03*
X2599500D02*
D03*
X2389500D02*
D03*
X1969500D02*
D03*
X1759500D02*
D03*
X2179500D02*
D03*
X1199500D02*
D03*
X1409500D02*
D03*
X989500D02*
D03*
X2529500D02*
D03*
X2459500D02*
D03*
X2319500D02*
D03*
X2249500D02*
D03*
X2039500D02*
D03*
X2109500D02*
D03*
X1899500D02*
D03*
X1829500D02*
D03*
X1619500D02*
D03*
X1689500D02*
D03*
X1549500D02*
D03*
X1269500D02*
D03*
X1339500D02*
D03*
X1129500D02*
D03*
X1059500D02*
D03*
X919500D02*
D03*
X569500D02*
D03*
X849500D02*
D03*
X639500D02*
D03*
X709500D02*
D03*
X779500D02*
D03*
%TF.MD5,317aa0d794d43b52754b2563bcf94556*%
M02*
