%TF.GenerationSoftware,Altium Limited,Altium Designer,21.0.8 (223)*%
G04 Layer_Color=2752767*
%FSLAX45Y45*%
%MOMM*%
%TF.SameCoordinates,93EC2011-4169-4821-B187-25AADE7CFEA4*%
%TF.FilePolarity,Positive*%
%TF.FileFunction,Drawing*%
%TF.Part,Single*%
G01*
G75*
%TA.AperFunction,NonConductor*%
%ADD167C,0.12700*%
%ADD168C,0.16933*%
%ADD169C,0.10160*%
D167*
X8697200Y4074200D02*
Y4175800D01*
X8798800D01*
Y4074200D01*
X8697200D01*
X8951200D02*
Y4175800D01*
X9052800D01*
Y4074200D01*
X8951200D01*
X250000Y199200D02*
X199200Y300800D01*
X300800D01*
X250000Y199200D01*
X9750000D02*
X9699200Y300800D01*
X9800800D01*
X9750000Y199200D01*
Y4699200D02*
X9699200Y4800800D01*
X9800800D01*
X9750000Y4699200D01*
X250000D02*
X199200Y4800800D01*
X300800D01*
X250000Y4699200D01*
X9782000Y1517200D02*
X9807400Y1542600D01*
X9832800D01*
X9807400Y1568000D01*
X9832800Y1593400D01*
X9807400D01*
X9782000Y1618800D01*
X9756600Y1593400D01*
X9731200D01*
X9756600Y1568000D01*
X9731200Y1542600D01*
X9756600D01*
X9782000Y1517200D01*
X9313200Y2381200D02*
X9338600Y2432000D01*
X9313200Y2482800D01*
X9364000Y2457400D01*
X9414800Y2482800D01*
X9389400Y2432000D01*
X9414800Y2381200D01*
X9364000Y2406600D01*
X9313200Y2381200D01*
Y1517200D02*
X9338600Y1568000D01*
X9313200Y1618800D01*
X9364000Y1593400D01*
X9414800Y1618800D01*
X9389400Y1568000D01*
X9414800Y1517200D01*
X9364000Y1542600D01*
X9313200Y1517200D01*
X9782000Y2381200D02*
X9807400Y2406600D01*
X9832800D01*
X9807400Y2432000D01*
X9832800Y2457400D01*
X9807400D01*
X9782000Y2482800D01*
X9756600Y2457400D01*
X9731200D01*
X9756600Y2432000D01*
X9731200Y2406600D01*
X9756600D01*
X9782000Y2381200D01*
X9391600Y2263600D02*
Y2238200D01*
X9442400D01*
Y2263600D01*
X9467800D01*
Y2314400D01*
X9442400D01*
Y2339800D01*
X9391600D01*
Y2314400D01*
X9366200D01*
Y2263600D01*
X9391600D01*
Y1685600D02*
Y1660200D01*
X9442400D01*
Y1685600D01*
X9467800D01*
Y1736400D01*
X9442400D01*
Y1761800D01*
X9391600D01*
Y1736400D01*
X9366200D01*
Y1685600D01*
X9391600D01*
X8425200Y508000D02*
X8450600D01*
X8476000Y533400D01*
X8501400Y508000D01*
X8526800D01*
Y533400D01*
X8501400Y558800D01*
X8526800Y584200D01*
Y609600D01*
X8501400D01*
X8476000Y584200D01*
X8450600Y609600D01*
X8425200D01*
Y584200D01*
X8450600Y558800D01*
X8425200Y533400D01*
Y508000D01*
X8933200D02*
X8958600D01*
X8984000Y533400D01*
X9009400Y508000D01*
X9034800D01*
Y533400D01*
X9009400Y558800D01*
X9034800Y584200D01*
Y609600D01*
X9009400D01*
X8984000Y584200D01*
X8958600Y609600D01*
X8933200D01*
Y584200D01*
X8958600Y558800D01*
X8933200Y533400D01*
Y508000D01*
X965200D02*
X990600D01*
X1016000Y533400D01*
X1041400Y508000D01*
X1066800D01*
Y533400D01*
X1041400Y558800D01*
X1066800Y584200D01*
Y609600D01*
X1041400D01*
X1016000Y584200D01*
X990600Y609600D01*
X965200D01*
Y584200D01*
X990600Y558800D01*
X965200Y533400D01*
Y508000D01*
X1473200D02*
X1498600D01*
X1524000Y533400D01*
X1549400Y508000D01*
X1574800D01*
Y533400D01*
X1549400Y558800D01*
X1574800Y584200D01*
Y609600D01*
X1549400D01*
X1524000Y584200D01*
X1498600Y609600D01*
X1473200D01*
Y584200D01*
X1498600Y558800D01*
X1473200Y533400D01*
Y508000D01*
X1533700Y2197600D02*
X1584500Y2248400D01*
X1635300Y2197600D01*
X1584500Y2146800D01*
X1533700Y2197600D01*
X9699200Y1049200D02*
Y1150800D01*
X9800800D01*
Y1049200D01*
X9699200D01*
X9719520Y1069520D02*
Y1130480D01*
X9780480D01*
Y1069520D01*
X9719520D01*
X9049200Y199200D02*
Y300800D01*
X9150800D01*
Y199200D01*
X9049200D01*
X9069520Y219520D02*
Y280480D01*
X9130480D01*
Y219520D01*
X9069520D01*
X9299200Y199200D02*
Y300800D01*
X9400800D01*
Y199200D01*
X9299200D01*
X9319520Y219520D02*
Y280480D01*
X9380480D01*
Y219520D01*
X9319520D01*
X9699200Y549200D02*
Y650800D01*
X9800800D01*
Y549200D01*
X9699200D01*
X9719520Y569520D02*
Y630480D01*
X9780480D01*
Y569520D01*
X9719520D01*
X9699200Y799200D02*
Y900800D01*
X9800800D01*
Y799200D01*
X9699200D01*
X9719520Y819520D02*
Y880480D01*
X9780480D01*
Y819520D01*
X9719520D01*
X9699200Y1299200D02*
Y1400800D01*
X9800800D01*
Y1299200D01*
X9699200D01*
X9719520Y1319520D02*
Y1380480D01*
X9780480D01*
Y1319520D01*
X9719520D01*
X9699200Y2549200D02*
Y2650800D01*
X9800800D01*
Y2549200D01*
X9699200D01*
X9719520Y2569520D02*
Y2630480D01*
X9780480D01*
Y2569520D01*
X9719520D01*
X9699200Y4099200D02*
Y4200800D01*
X9800800D01*
Y4099200D01*
X9699200D01*
X9719520Y4119520D02*
Y4180480D01*
X9780480D01*
Y4119520D01*
X9719520D01*
X9699200Y4349200D02*
Y4450800D01*
X9800800D01*
Y4349200D01*
X9699200D01*
X9719520Y4369520D02*
Y4430480D01*
X9780480D01*
Y4369520D01*
X9719520D01*
X1799200Y1049200D02*
Y1150800D01*
X1900800D01*
Y1049200D01*
X1799200D01*
X1819520Y1069520D02*
Y1130480D01*
X1880480D01*
Y1069520D01*
X1819520D01*
X1799200Y1299200D02*
Y1400800D01*
X1900800D01*
Y1299200D01*
X1799200D01*
X1819520Y1319520D02*
Y1380480D01*
X1880480D01*
Y1319520D01*
X1819520D01*
X1799200Y1549200D02*
Y1650800D01*
X1900800D01*
Y1549200D01*
X1799200D01*
X1819520Y1569520D02*
Y1630480D01*
X1880480D01*
Y1569520D01*
X1819520D01*
X1799200Y1799200D02*
Y1900800D01*
X1900800D01*
Y1799200D01*
X1799200D01*
X1819520Y1819520D02*
Y1880480D01*
X1880480D01*
Y1819520D01*
X1819520D01*
X1549200Y1799200D02*
Y1900800D01*
X1650800D01*
Y1799200D01*
X1549200D01*
X1569520Y1819520D02*
Y1880480D01*
X1630480D01*
Y1819520D01*
X1569520D01*
X1299200Y1799200D02*
Y1900800D01*
X1400800D01*
Y1799200D01*
X1299200D01*
X1319520Y1819520D02*
Y1880480D01*
X1380480D01*
Y1819520D01*
X1319520D01*
X1049200Y1799200D02*
Y1900800D01*
X1150800D01*
Y1799200D01*
X1049200D01*
X1069520Y1819520D02*
Y1880480D01*
X1130480D01*
Y1819520D01*
X1069520D01*
X799200Y1799200D02*
Y1900800D01*
X900800D01*
Y1799200D01*
X799200D01*
X819520Y1819520D02*
Y1880480D01*
X880480D01*
Y1819520D01*
X819520D01*
X549200Y1799200D02*
Y1900800D01*
X650800D01*
Y1799200D01*
X549200D01*
X569520Y1819520D02*
Y1880480D01*
X630480D01*
Y1819520D01*
X569520D01*
X549200Y1549200D02*
Y1650800D01*
X650800D01*
Y1549200D01*
X549200D01*
X569520Y1569520D02*
Y1630480D01*
X630480D01*
Y1569520D01*
X569520D01*
X549200Y1299200D02*
Y1400800D01*
X650800D01*
Y1299200D01*
X549200D01*
X569520Y1319520D02*
Y1380480D01*
X630480D01*
Y1319520D01*
X569520D01*
X549200Y1049200D02*
Y1150800D01*
X650800D01*
Y1049200D01*
X549200D01*
X569520Y1069520D02*
Y1130480D01*
X630480D01*
Y1069520D01*
X569520D01*
X549200Y799200D02*
Y900800D01*
X650800D01*
Y799200D01*
X549200D01*
X569520Y819520D02*
Y880480D01*
X630480D01*
Y819520D01*
X569520D01*
X549200Y549200D02*
Y650800D01*
X650800D01*
Y549200D01*
X549200D01*
X569520Y569520D02*
Y630480D01*
X630480D01*
Y569520D01*
X569520D01*
X549200Y199200D02*
Y300800D01*
X650800D01*
Y199200D01*
X549200D01*
X569520Y219520D02*
Y280480D01*
X630480D01*
Y219520D01*
X569520D01*
X799200Y199200D02*
Y300800D01*
X900800D01*
Y199200D01*
X799200D01*
X819520Y219520D02*
Y280480D01*
X880480D01*
Y219520D01*
X819520D01*
X1049200Y199200D02*
Y300800D01*
X1150800D01*
Y199200D01*
X1049200D01*
X1069520Y219520D02*
Y280480D01*
X1130480D01*
Y219520D01*
X1069520D01*
X1299200Y199200D02*
Y300800D01*
X1400800D01*
Y199200D01*
X1299200D01*
X1319520Y219520D02*
Y280480D01*
X1380480D01*
Y219520D01*
X1319520D01*
X1549200Y199200D02*
Y300800D01*
X1650800D01*
Y199200D01*
X1549200D01*
X1569520Y219520D02*
Y280480D01*
X1630480D01*
Y219520D01*
X1569520D01*
X1799200Y199200D02*
Y300800D01*
X1900800D01*
Y199200D01*
X1799200D01*
X1819520Y219520D02*
Y280480D01*
X1880480D01*
Y219520D01*
X1819520D01*
X8549200Y4699200D02*
Y4800800D01*
X8650800D01*
Y4699200D01*
X8549200D01*
X8569520Y4719520D02*
Y4780480D01*
X8630480D01*
Y4719520D01*
X8569520D01*
X8799200Y4699200D02*
Y4800800D01*
X8900800D01*
Y4699200D01*
X8799200D01*
X8819520Y4719520D02*
Y4780480D01*
X8880480D01*
Y4719520D01*
X8819520D01*
X9049200Y4699200D02*
Y4800800D01*
X9150800D01*
Y4699200D01*
X9049200D01*
X9069520Y4719520D02*
Y4780480D01*
X9130480D01*
Y4719520D01*
X9069520D01*
X9299200Y4699200D02*
Y4800800D01*
X9400800D01*
Y4699200D01*
X9299200D01*
X9319520Y4719520D02*
Y4780480D01*
X9380480D01*
Y4719520D01*
X9319520D01*
X4549200Y4699200D02*
Y4800800D01*
X4650800D01*
Y4699200D01*
X4549200D01*
X4569520Y4719520D02*
Y4780480D01*
X4630480D01*
Y4719520D01*
X4569520D01*
X4799200Y4699200D02*
Y4800800D01*
X4900800D01*
Y4699200D01*
X4799200D01*
X4819520Y4719520D02*
Y4780480D01*
X4880480D01*
Y4719520D01*
X4819520D01*
X7549200Y4699200D02*
Y4800800D01*
X7650800D01*
Y4699200D01*
X7549200D01*
X7569520Y4719520D02*
Y4780480D01*
X7630480D01*
Y4719520D01*
X7569520D01*
X549200Y4699200D02*
Y4800800D01*
X650800D01*
Y4699200D01*
X549200D01*
X569520Y4719520D02*
Y4780480D01*
X630480D01*
Y4719520D01*
X569520D01*
X799200Y4699200D02*
Y4800800D01*
X900800D01*
Y4699200D01*
X799200D01*
X819520Y4719520D02*
Y4780480D01*
X880480D01*
Y4719520D01*
X819520D01*
X1049200Y4699200D02*
Y4800800D01*
X1150800D01*
Y4699200D01*
X1049200D01*
X1069520Y4719520D02*
Y4780480D01*
X1130480D01*
Y4719520D01*
X1069520D01*
X1299200Y4699200D02*
Y4800800D01*
X1400800D01*
Y4699200D01*
X1299200D01*
X1319520Y4719520D02*
Y4780480D01*
X1380480D01*
Y4719520D01*
X1319520D01*
X1549200Y4699200D02*
Y4800800D01*
X1650800D01*
Y4699200D01*
X1549200D01*
X1569520Y4719520D02*
Y4780480D01*
X1630480D01*
Y4719520D01*
X1569520D01*
X1799200Y4699200D02*
Y4800800D01*
X1900800D01*
Y4699200D01*
X1799200D01*
X1819520Y4719520D02*
Y4780480D01*
X1880480D01*
Y4719520D01*
X1819520D01*
X2049200Y4699200D02*
Y4800800D01*
X2150800D01*
Y4699200D01*
X2049200D01*
X2069520Y4719520D02*
Y4780480D01*
X2130480D01*
Y4719520D01*
X2069520D01*
X2299200Y4699200D02*
Y4800800D01*
X2400800D01*
Y4699200D01*
X2299200D01*
X2319520Y4719520D02*
Y4780480D01*
X2380480D01*
Y4719520D01*
X2319520D01*
X2549200Y4699200D02*
Y4800800D01*
X2650800D01*
Y4699200D01*
X2549200D01*
X2569520Y4719520D02*
Y4780480D01*
X2630480D01*
Y4719520D01*
X2569520D01*
X2799200Y4699200D02*
Y4800800D01*
X2900800D01*
Y4699200D01*
X2799200D01*
X2819520Y4719520D02*
Y4780480D01*
X2880480D01*
Y4719520D01*
X2819520D01*
X3049200Y4699200D02*
Y4800800D01*
X3150800D01*
Y4699200D01*
X3049200D01*
X3069520Y4719520D02*
Y4780480D01*
X3130480D01*
Y4719520D01*
X3069520D01*
X3299200Y4699200D02*
Y4800800D01*
X3400800D01*
Y4699200D01*
X3299200D01*
X3319520Y4719520D02*
Y4780480D01*
X3380480D01*
Y4719520D01*
X3319520D01*
X3549200Y4699200D02*
Y4800800D01*
X3650800D01*
Y4699200D01*
X3549200D01*
X3569520Y4719520D02*
Y4780480D01*
X3630480D01*
Y4719520D01*
X3569520D01*
X3799200Y4699200D02*
Y4800800D01*
X3900800D01*
Y4699200D01*
X3799200D01*
X3819520Y4719520D02*
Y4780480D01*
X3880480D01*
Y4719520D01*
X3819520D01*
X4049200Y4699200D02*
Y4800800D01*
X4150800D01*
Y4699200D01*
X4049200D01*
X4069520Y4719520D02*
Y4780480D01*
X4130480D01*
Y4719520D01*
X4069520D01*
X4299200Y4699200D02*
Y4800800D01*
X4400800D01*
Y4699200D01*
X4299200D01*
X4319520Y4719520D02*
Y4780480D01*
X4380480D01*
Y4719520D01*
X4319520D01*
X199200Y4299200D02*
Y4400800D01*
X300800D01*
Y4299200D01*
X199200D01*
X219520Y4319520D02*
Y4380480D01*
X280480D01*
Y4319520D01*
X219520D01*
X199200Y4049200D02*
Y4150800D01*
X300800D01*
Y4049200D01*
X199200D01*
X219520Y4069520D02*
Y4130480D01*
X280480D01*
Y4069520D01*
X219520D01*
X199200Y3799200D02*
Y3900800D01*
X300800D01*
Y3799200D01*
X199200D01*
X219520Y3819520D02*
Y3880480D01*
X280480D01*
Y3819520D01*
X219520D01*
X199200Y3549200D02*
Y3650800D01*
X300800D01*
Y3549200D01*
X199200D01*
X219520Y3569520D02*
Y3630480D01*
X280480D01*
Y3569520D01*
X219520D01*
X199200Y3299200D02*
Y3400800D01*
X300800D01*
Y3299200D01*
X199200D01*
X219520Y3319520D02*
Y3380480D01*
X280480D01*
Y3319520D01*
X219520D01*
X199200Y3049200D02*
Y3150800D01*
X300800D01*
Y3049200D01*
X199200D01*
X219520Y3069520D02*
Y3130480D01*
X280480D01*
Y3069520D01*
X219520D01*
X199200Y2799200D02*
Y2900800D01*
X300800D01*
Y2799200D01*
X199200D01*
X219520Y2819520D02*
Y2880480D01*
X280480D01*
Y2819520D01*
X219520D01*
X199200Y2549200D02*
Y2650800D01*
X300800D01*
Y2549200D01*
X199200D01*
X219520Y2569520D02*
Y2630480D01*
X280480D01*
Y2569520D01*
X219520D01*
X199200Y2299200D02*
Y2400800D01*
X300800D01*
Y2299200D01*
X199200D01*
X219520Y2319520D02*
Y2380480D01*
X280480D01*
Y2319520D01*
X219520D01*
X199200Y2049200D02*
Y2150800D01*
X300800D01*
Y2049200D01*
X199200D01*
X219520Y2069520D02*
Y2130480D01*
X280480D01*
Y2069520D01*
X219520D01*
X199200Y1799200D02*
Y1900800D01*
X300800D01*
Y1799200D01*
X199200D01*
X219520Y1819520D02*
Y1880480D01*
X280480D01*
Y1819520D01*
X219520D01*
X199200Y1549200D02*
Y1650800D01*
X300800D01*
Y1549200D01*
X199200D01*
X219520Y1569520D02*
Y1630480D01*
X280480D01*
Y1569520D01*
X219520D01*
X199200Y1299200D02*
Y1400800D01*
X300800D01*
Y1299200D01*
X199200D01*
X219520Y1319520D02*
Y1380480D01*
X280480D01*
Y1319520D01*
X219520D01*
X199200Y1049200D02*
Y1150800D01*
X300800D01*
Y1049200D01*
X199200D01*
X219520Y1069520D02*
Y1130480D01*
X280480D01*
Y1069520D01*
X219520D01*
X199200Y799200D02*
Y900800D01*
X300800D01*
Y799200D01*
X199200D01*
X219520Y819520D02*
Y880480D01*
X280480D01*
Y819520D01*
X219520D01*
X199200Y549200D02*
Y650800D01*
X300800D01*
Y549200D01*
X199200D01*
X219520Y569520D02*
Y630480D01*
X280480D01*
Y569520D01*
X219520D01*
X4549200Y174200D02*
Y275800D01*
X4650800D01*
Y174200D01*
X4549200D01*
X4569520Y194520D02*
Y255480D01*
X4630480D01*
Y194520D01*
X4569520D01*
X4849200Y174200D02*
Y275800D01*
X4950800D01*
Y174200D01*
X4849200D01*
X4869520Y194520D02*
Y255480D01*
X4930480D01*
Y194520D01*
X4869520D01*
X5149200Y174200D02*
Y275800D01*
X5250800D01*
Y174200D01*
X5149200D01*
X5169520Y194520D02*
Y255480D01*
X5230480D01*
Y194520D01*
X5169520D01*
X5449200Y174200D02*
Y275800D01*
X5550800D01*
Y174200D01*
X5449200D01*
X5469520Y194520D02*
Y255480D01*
X5530480D01*
Y194520D01*
X5469520D01*
X5749200Y174200D02*
Y275800D01*
X5850800D01*
Y174200D01*
X5749200D01*
X5769520Y194520D02*
Y255480D01*
X5830480D01*
Y194520D01*
X5769520D01*
X6049200Y174200D02*
Y275800D01*
X6150800D01*
Y174200D01*
X6049200D01*
X6069520Y194520D02*
Y255480D01*
X6130480D01*
Y194520D01*
X6069520D01*
X6349200Y174200D02*
Y275800D01*
X6450800D01*
Y174200D01*
X6349200D01*
X6369520Y194520D02*
Y255480D01*
X6430480D01*
Y194520D01*
X6369520D01*
X6649200Y174200D02*
Y275800D01*
X6750800D01*
Y174200D01*
X6649200D01*
X6669520Y194520D02*
Y255480D01*
X6730480D01*
Y194520D01*
X6669520D01*
X6949200Y174200D02*
Y275800D01*
X7050800D01*
Y174200D01*
X6949200D01*
X6969520Y194520D02*
Y255480D01*
X7030480D01*
Y194520D01*
X6969520D01*
X7249200Y174200D02*
Y275800D01*
X7350800D01*
Y174200D01*
X7249200D01*
X7269520Y194520D02*
Y255480D01*
X7330480D01*
Y194520D01*
X7269520D01*
X7549200Y174200D02*
Y275800D01*
X7650800D01*
Y174200D01*
X7549200D01*
X7569520Y194520D02*
Y255480D01*
X7630480D01*
Y194520D01*
X7569520D01*
X7849200Y174200D02*
Y275800D01*
X7950800D01*
Y174200D01*
X7849200D01*
X7869520Y194520D02*
Y255480D01*
X7930480D01*
Y194520D01*
X7869520D01*
X8249200Y249200D02*
Y350800D01*
X8350800D01*
Y249200D01*
X8249200D01*
X8269520Y269520D02*
Y330480D01*
X8330480D01*
Y269520D01*
X8269520D01*
X8549200Y249200D02*
Y350800D01*
X8650800D01*
Y249200D01*
X8549200D01*
X8569520Y269520D02*
Y330480D01*
X8630480D01*
Y269520D01*
X8569520D01*
D168*
X9764300Y3756000D02*
G03*
X9764300Y3756000I-50800J0D01*
G01*
X9637300D02*
G03*
X9637300Y3756000I-50800J0D01*
G01*
X9764300Y3629000D02*
G03*
X9764300Y3629000I-50800J0D01*
G01*
Y3502000D02*
G03*
X9764300Y3502000I-50800J0D01*
G01*
X9637300Y3629000D02*
G03*
X9637300Y3629000I-50800J0D01*
G01*
Y3502000D02*
G03*
X9637300Y3502000I-50800J0D01*
G01*
X9764300Y3375000D02*
G03*
X9764300Y3375000I-50800J0D01*
G01*
X9637300D02*
G03*
X9637300Y3375000I-50800J0D01*
G01*
X9764300Y3248000D02*
G03*
X9764300Y3248000I-50800J0D01*
G01*
Y3121000D02*
G03*
X9764300Y3121000I-50800J0D01*
G01*
Y2994000D02*
G03*
X9764300Y2994000I-50800J0D01*
G01*
X9637300Y3248000D02*
G03*
X9637300Y3248000I-50800J0D01*
G01*
Y3121000D02*
G03*
X9637300Y3121000I-50800J0D01*
G01*
Y2994000D02*
G03*
X9637300Y2994000I-50800J0D01*
G01*
X8862060Y1463040D02*
G03*
X8862060Y1463040I-50800J0D01*
G01*
X8735060D02*
G03*
X8735060Y1463040I-50800J0D01*
G01*
X8862060Y1590040D02*
G03*
X8862060Y1590040I-50800J0D01*
G01*
X8735060D02*
G03*
X8735060Y1590040I-50800J0D01*
G01*
X6050280Y1000520D02*
G03*
X6050280Y1000520I-50800J0D01*
G01*
X5775800Y1725000D02*
G03*
X5775800Y1725000I-50800J0D01*
G01*
X1750800Y1425000D02*
G03*
X1750800Y1425000I-50800J0D01*
G01*
X4475480Y2575560D02*
G03*
X4475480Y2575560I-50800J0D01*
G01*
X6047740Y2620920D02*
G03*
X6047740Y2620920I-50800J0D01*
G01*
X7526020Y2100580D02*
G03*
X7526020Y2100580I-50800J0D01*
G01*
X5478780Y2654300D02*
G03*
X5478780Y2654300I-50800J0D01*
G01*
X6540500Y2590800D02*
G03*
X6540500Y2590800I-50800J0D01*
G01*
X6926471Y2548786D02*
G03*
X6926471Y2548786I-50800J0D01*
G01*
X7853680Y2557780D02*
G03*
X7853680Y2557780I-50800J0D01*
G01*
X6418580Y1229360D02*
G03*
X6418580Y1229360I-50800J0D01*
G01*
X6545580D02*
G03*
X6545580Y1229360I-50800J0D01*
G01*
X8175800Y1100000D02*
G03*
X8175800Y1100000I-50800J0D01*
G01*
X4101339Y2498599D02*
G03*
X4101339Y2498599I-50800J0D01*
G01*
X4100830Y2366010D02*
G03*
X4100830Y2366010I-50800J0D01*
G01*
X3296920Y1978660D02*
G03*
X3296920Y1978660I-50800J0D01*
G01*
X3256280Y1229360D02*
G03*
X3256280Y1229360I-50800J0D01*
G01*
X4246880Y858520D02*
G03*
X4246880Y858520I-50800J0D01*
G01*
X3166983Y1318260D02*
G03*
X3166983Y1318260I-50800J0D01*
G01*
X3213100Y1272540D02*
G03*
X3213100Y1272540I-50800J0D01*
G01*
X5925800Y1767500D02*
G03*
X5925800Y1767500I-50800J0D01*
G01*
X7286725Y2281830D02*
G03*
X7286725Y2281830I-50800J0D01*
G01*
X7400305Y2311187D02*
G03*
X7400305Y2311187I-50800J0D01*
G01*
X7493000Y2250440D02*
G03*
X7493000Y2250440I-50800J0D01*
G01*
X6672940Y2458546D02*
G03*
X6672940Y2458546I-50800J0D01*
G01*
X6631707Y2410227D02*
G03*
X6631707Y2410227I-50800J0D01*
G01*
X1529080Y2781300D02*
G03*
X1529080Y2781300I-50800J0D01*
G01*
X7559040Y2989580D02*
G03*
X7559040Y2989580I-50800J0D01*
G01*
X7327900Y2801620D02*
G03*
X7327900Y2801620I-50800J0D01*
G01*
X6784340Y1750060D02*
G03*
X6784340Y1750060I-50800J0D01*
G01*
X2656840Y355600D02*
G03*
X2656840Y355600I-50800J0D01*
G01*
X6692900Y1600200D02*
G03*
X6692900Y1600200I-50800J0D01*
G01*
X8633460Y1656080D02*
G03*
X8633460Y1656080I-50800J0D01*
G01*
X6050800Y855000D02*
G03*
X6050800Y855000I-50800J0D01*
G01*
X4025800Y2575000D02*
G03*
X4025800Y2575000I-50800J0D01*
G01*
X4250800D02*
G03*
X4250800Y2575000I-50800J0D01*
G01*
X3800800D02*
G03*
X3800800Y2575000I-50800J0D01*
G01*
X3575800D02*
G03*
X3575800Y2575000I-50800J0D01*
G01*
X6545580Y2342913D02*
G03*
X6545580Y2342913I-50800J0D01*
G01*
X8200800Y950000D02*
G03*
X8200800Y950000I-50800J0D01*
G01*
X6118860Y2001520D02*
G03*
X6118860Y2001520I-50800J0D01*
G01*
X2392680Y353060D02*
G03*
X2392680Y353060I-50800J0D01*
G01*
X2461260Y449580D02*
G03*
X2461260Y449580I-50800J0D01*
G01*
X2305800Y472960D02*
G03*
X2305800Y472960I-50800J0D01*
G01*
X4069080Y1427480D02*
G03*
X4069080Y1427480I-50800J0D01*
G01*
X3734250Y1425200D02*
G03*
X3734250Y1425200I-50800J0D01*
G01*
X7302500Y3129280D02*
G03*
X7302500Y3129280I-50800J0D01*
G01*
X7919720Y3268980D02*
G03*
X7919720Y3268980I-50800J0D01*
G01*
X7780020Y3182620D02*
G03*
X7780020Y3182620I-50800J0D01*
G01*
X8422640Y3129280D02*
G03*
X8422640Y3129280I-50800J0D01*
G01*
Y3314700D02*
G03*
X8422640Y3314700I-50800J0D01*
G01*
X7980680Y3522980D02*
G03*
X7980680Y3522980I-50800J0D01*
G01*
X7917180D02*
G03*
X7917180Y3522980I-50800J0D01*
G01*
X5224780Y1338580D02*
G03*
X5224780Y1338580I-50800J0D01*
G01*
X5361940D02*
G03*
X5361940Y1338580I-50800J0D01*
G01*
X5087620D02*
G03*
X5087620Y1338580I-50800J0D01*
G01*
X5499100D02*
G03*
X5499100Y1338580I-50800J0D01*
G01*
X4950460D02*
G03*
X4950460Y1338580I-50800J0D01*
G01*
X9781540Y2174240D02*
G03*
X9781540Y2174240I-50800J0D01*
G01*
Y1871980D02*
G03*
X9781540Y1871980I-50800J0D01*
G01*
X8912860Y2075180D02*
G03*
X8912860Y2075180I-50800J0D01*
G01*
X8897620Y1684020D02*
G03*
X8897620Y1684020I-50800J0D01*
G01*
X8597900Y1798320D02*
G03*
X8597900Y1798320I-50800J0D01*
G01*
Y2352040D02*
G03*
X8597900Y2352040I-50800J0D01*
G01*
X7696200Y2585720D02*
G03*
X7696200Y2585720I-50800J0D01*
G01*
X7505700D02*
G03*
X7505700Y2585720I-50800J0D01*
G01*
X6842760Y2590800D02*
G03*
X6842760Y2590800I-50800J0D01*
G01*
X6880860Y3012440D02*
G03*
X6880860Y3012440I-50800J0D01*
G01*
X6629400Y3134360D02*
G03*
X6629400Y3134360I-50800J0D01*
G01*
Y3317240D02*
G03*
X6629400Y3317240I-50800J0D01*
G01*
X6177280Y3520440D02*
G03*
X6177280Y3520440I-50800J0D01*
G01*
X6614160Y3522980D02*
G03*
X6614160Y3522980I-50800J0D01*
G01*
X7076440Y3520440D02*
G03*
X7076440Y3520440I-50800J0D01*
G01*
X7010400D02*
G03*
X7010400Y3520440I-50800J0D01*
G01*
X7625080Y3632200D02*
G03*
X7625080Y3632200I-50800J0D01*
G01*
X7528560Y3317240D02*
G03*
X7528560Y3317240I-50800J0D01*
G01*
X7858760Y3954780D02*
G03*
X7858760Y3954780I-50800J0D01*
G01*
Y4500880D02*
G03*
X7858760Y4500880I-50800J0D01*
G01*
X6962140Y3952240D02*
G03*
X6962140Y3952240I-50800J0D01*
G01*
Y4498340D02*
G03*
X6962140Y4498340I-50800J0D01*
G01*
X6060440Y3952240D02*
G03*
X6060440Y3952240I-50800J0D01*
G01*
Y4498340D02*
G03*
X6060440Y4498340I-50800J0D01*
G01*
X1227050Y3557500D02*
G03*
X1227050Y3557500I-50800J0D01*
G01*
X619760Y2786380D02*
G03*
X619760Y2786380I-50800J0D01*
G01*
X1109980D02*
G03*
X1109980Y2786380I-50800J0D01*
G01*
X1252220D02*
G03*
X1252220Y2786380I-50800J0D01*
G01*
X1394460D02*
G03*
X1394460Y2786380I-50800J0D01*
G01*
X1460500D02*
G03*
X1460500Y2786380I-50800J0D01*
G01*
X1671320D02*
G03*
X1671320Y2786380I-50800J0D01*
G01*
X1739900D02*
G03*
X1739900Y2786380I-50800J0D01*
G01*
X2019300D02*
G03*
X2019300Y2786380I-50800J0D01*
G01*
X2090420D02*
G03*
X2090420Y2786380I-50800J0D01*
G01*
X2161540D02*
G03*
X2161540Y2786380I-50800J0D01*
G01*
X2651760D02*
G03*
X2651760Y2786380I-50800J0D01*
G01*
X2580640D02*
G03*
X2580640Y2786380I-50800J0D01*
G01*
X2301240D02*
G03*
X2301240Y2786380I-50800J0D01*
G01*
X2230120D02*
G03*
X2230120Y2786380I-50800J0D01*
G01*
X1125220Y3855720D02*
G03*
X1125220Y3855720I-50800J0D01*
G01*
X1325880D02*
G03*
X1325880Y3855720I-50800J0D01*
G01*
X2423160D02*
G03*
X2423160Y3855720I-50800J0D01*
G01*
X2626360D02*
G03*
X2626360Y3855720I-50800J0D01*
G01*
X2225040Y3652520D02*
G03*
X2225040Y3652520I-50800J0D01*
G01*
X7967980Y2164080D02*
G03*
X7967980Y2164080I-50800J0D01*
G01*
X7970520Y1582420D02*
G03*
X7970520Y1582420I-50800J0D01*
G01*
Y1874520D02*
G03*
X7970520Y1874520I-50800J0D01*
G01*
X7538720Y998220D02*
G03*
X7538720Y998220I-50800J0D01*
G01*
X7167880Y840740D02*
G03*
X7167880Y840740I-50800J0D01*
G01*
X7033260Y843280D02*
G03*
X7033260Y843280I-50800J0D01*
G01*
X6921500Y1099820D02*
G03*
X6921500Y1099820I-50800J0D01*
G01*
X6262040Y2702600D02*
G03*
X6262040Y2702600I-50800J0D01*
G01*
X5981700Y3014980D02*
G03*
X5981700Y3014980I-50800J0D01*
G01*
X5730240Y3136900D02*
G03*
X5730240Y3136900I-50800J0D01*
G01*
X5829300Y3251200D02*
G03*
X5829300Y3251200I-50800J0D01*
G01*
X6113780Y3520440D02*
G03*
X6113780Y3520440I-50800J0D01*
G01*
X5712460Y3515360D02*
G03*
X5712460Y3515360I-50800J0D01*
G01*
X5730240Y3314700D02*
G03*
X5730240Y3314700I-50800J0D01*
G01*
X5361940Y3632200D02*
G03*
X5361940Y3632200I-50800J0D01*
G01*
X5222240Y3426460D02*
G03*
X5222240Y3426460I-50800J0D01*
G01*
X5161280Y4498340D02*
G03*
X5161280Y4498340I-50800J0D01*
G01*
Y3952240D02*
G03*
X5161280Y3952240I-50800J0D01*
G01*
X2227580Y1450340D02*
G03*
X2227580Y1450340I-50800J0D01*
G01*
X4069080Y1767840D02*
G03*
X4069080Y1767840I-50800J0D01*
G01*
X3881120Y1877060D02*
G03*
X3881120Y1877060I-50800J0D01*
G01*
X5212080Y2184400D02*
G03*
X5212080Y2184400I-50800J0D01*
G01*
X6126480Y1676400D02*
G03*
X6126480Y1676400I-50800J0D01*
G01*
X4904740Y2326640D02*
G03*
X4904740Y2326640I-50800J0D01*
G01*
X9006840Y2352040D02*
G03*
X9006840Y2352040I-50800J0D01*
G01*
X9565640Y2174240D02*
G03*
X9565640Y2174240I-50800J0D01*
G01*
Y1871980D02*
G03*
X9565640Y1871980I-50800J0D01*
G01*
X2633980Y152400D02*
G03*
X2633980Y152400I-50800J0D01*
G01*
X6520180Y1097280D02*
G03*
X6520180Y1097280I-50800J0D01*
G01*
X7020560Y1099820D02*
G03*
X7020560Y1099820I-50800J0D01*
G01*
X7833360D02*
G03*
X7833360Y1099820I-50800J0D01*
G01*
X7780020Y548640D02*
G03*
X7780020Y548640I-50800J0D01*
G01*
X7157720Y660400D02*
G03*
X7157720Y660400I-50800J0D01*
G01*
X7040880D02*
G03*
X7040880Y660400I-50800J0D01*
G01*
X6299200Y751840D02*
G03*
X6299200Y751840I-50800J0D01*
G01*
X6052820Y749300D02*
G03*
X6052820Y749300I-50800J0D01*
G01*
X7526020Y2199640D02*
G03*
X7526020Y2199640I-50800J0D01*
G01*
X7426960Y1430020D02*
G03*
X7426960Y1430020I-50800J0D01*
G01*
X6776720D02*
G03*
X6776720Y1430020I-50800J0D01*
G01*
X6324600Y1480820D02*
G03*
X6324600Y1480820I-50800J0D01*
G01*
X6775450Y2313940D02*
G03*
X6775450Y2313940I-50800J0D01*
G01*
X1849120Y2677160D02*
G03*
X1849120Y2677160I-50800J0D01*
G01*
X1964690Y2622867D02*
G03*
X1964690Y2622867I-50800J0D01*
G01*
X6727190Y2559050D02*
G03*
X6727190Y2559050I-50800J0D01*
G01*
X6413500Y1948180D02*
G03*
X6413500Y1948180I-50800J0D01*
G01*
X7033260Y2692400D02*
G03*
X7033260Y2692400I-50800J0D01*
G01*
X2026920Y3652520D02*
G03*
X2026920Y3652520I-50800J0D01*
G01*
X1826260D02*
G03*
X1826260Y3652520I-50800J0D01*
G01*
X5819140Y1372540D02*
G03*
X5819140Y1372540I-50800J0D01*
G01*
X5976620Y2308860D02*
G03*
X5976620Y2308860I-50800J0D01*
G01*
X5814060Y1582420D02*
G03*
X5814060Y1582420I-50800J0D01*
G01*
X6436360Y2400300D02*
G03*
X6436360Y2400300I-50800J0D01*
G01*
X4168140Y2049780D02*
G03*
X4168140Y2049780I-50800J0D01*
G01*
X4170680Y1424940D02*
G03*
X4170680Y1424940I-50800J0D01*
G01*
X4043680Y988060D02*
G03*
X4043680Y988060I-50800J0D01*
G01*
X4025900Y1620520D02*
G03*
X4025900Y1620520I-50800J0D01*
G01*
X3467100Y1874520D02*
G03*
X3467100Y1874520I-50800J0D01*
G01*
X3454400Y1577340D02*
G03*
X3454400Y1577340I-50800J0D01*
G01*
X3439160Y1315720D02*
G03*
X3439160Y1315720I-50800J0D01*
G01*
X3098800Y1107440D02*
G03*
X3098800Y1107440I-50800J0D01*
G01*
X2872740D02*
G03*
X2872740Y1107440I-50800J0D01*
G01*
X2166620Y1125220D02*
G03*
X2166620Y1125220I-50800J0D01*
G01*
X6954520Y3266440D02*
G03*
X6954520Y3266440I-50800J0D01*
G01*
X6210300Y3197860D02*
G03*
X6210300Y3197860I-50800J0D01*
G01*
X7574280Y2402840D02*
G03*
X7574280Y2402840I-50800J0D01*
G01*
X5956300Y3200400D02*
G03*
X5956300Y3200400I-50800J0D01*
G01*
X9454240Y2024380D02*
G03*
X9454240Y2024380I-50800J0D01*
G01*
X9456420Y1925320D02*
G03*
X9456420Y1925320I-50800J0D01*
G01*
D169*
X6029960Y1000520D02*
G03*
X6029960Y1000520I-30480J0D01*
G01*
X5755480Y1725000D02*
G03*
X5755480Y1725000I-30480J0D01*
G01*
X1730480Y1425000D02*
G03*
X1730480Y1425000I-30480J0D01*
G01*
X4455160Y2575560D02*
G03*
X4455160Y2575560I-30480J0D01*
G01*
X6027420Y2620920D02*
G03*
X6027420Y2620920I-30480J0D01*
G01*
X7505700Y2100580D02*
G03*
X7505700Y2100580I-30480J0D01*
G01*
X5458460Y2654300D02*
G03*
X5458460Y2654300I-30480J0D01*
G01*
X6520180Y2590800D02*
G03*
X6520180Y2590800I-30480J0D01*
G01*
X6906151Y2548786D02*
G03*
X6906151Y2548786I-30480J0D01*
G01*
X7833360Y2557780D02*
G03*
X7833360Y2557780I-30480J0D01*
G01*
X6398260Y1229360D02*
G03*
X6398260Y1229360I-30480J0D01*
G01*
X6525260D02*
G03*
X6525260Y1229360I-30480J0D01*
G01*
X8155480Y1100000D02*
G03*
X8155480Y1100000I-30480J0D01*
G01*
X4081019Y2498599D02*
G03*
X4081019Y2498599I-30480J0D01*
G01*
X4080510Y2366010D02*
G03*
X4080510Y2366010I-30480J0D01*
G01*
X3276600Y1978660D02*
G03*
X3276600Y1978660I-30480J0D01*
G01*
X3235960Y1229360D02*
G03*
X3235960Y1229360I-30480J0D01*
G01*
X4226560Y858520D02*
G03*
X4226560Y858520I-30480J0D01*
G01*
X3146663Y1318260D02*
G03*
X3146663Y1318260I-30480J0D01*
G01*
X3192780Y1272540D02*
G03*
X3192780Y1272540I-30480J0D01*
G01*
X5905480Y1767500D02*
G03*
X5905480Y1767500I-30480J0D01*
G01*
X7266405Y2281830D02*
G03*
X7266405Y2281830I-30480J0D01*
G01*
X7379985Y2311187D02*
G03*
X7379985Y2311187I-30480J0D01*
G01*
X7472680Y2250440D02*
G03*
X7472680Y2250440I-30480J0D01*
G01*
X6652620Y2458546D02*
G03*
X6652620Y2458546I-30480J0D01*
G01*
X6611387Y2410227D02*
G03*
X6611387Y2410227I-30480J0D01*
G01*
X1508760Y2781300D02*
G03*
X1508760Y2781300I-30480J0D01*
G01*
X7538720Y2989580D02*
G03*
X7538720Y2989580I-30480J0D01*
G01*
X7307580Y2801620D02*
G03*
X7307580Y2801620I-30480J0D01*
G01*
X6764020Y1750060D02*
G03*
X6764020Y1750060I-30480J0D01*
G01*
X2636520Y355600D02*
G03*
X2636520Y355600I-30480J0D01*
G01*
X6672580Y1600200D02*
G03*
X6672580Y1600200I-30480J0D01*
G01*
X8613140Y1656080D02*
G03*
X8613140Y1656080I-30480J0D01*
G01*
X6030480Y855000D02*
G03*
X6030480Y855000I-30480J0D01*
G01*
X4005480Y2575000D02*
G03*
X4005480Y2575000I-30480J0D01*
G01*
X4230480D02*
G03*
X4230480Y2575000I-30480J0D01*
G01*
X3780480D02*
G03*
X3780480Y2575000I-30480J0D01*
G01*
X3555480D02*
G03*
X3555480Y2575000I-30480J0D01*
G01*
X6525260Y2342913D02*
G03*
X6525260Y2342913I-30480J0D01*
G01*
X8180480Y950000D02*
G03*
X8180480Y950000I-30480J0D01*
G01*
X6098540Y2001520D02*
G03*
X6098540Y2001520I-30480J0D01*
G01*
X2372360Y353060D02*
G03*
X2372360Y353060I-30480J0D01*
G01*
X2440940Y449580D02*
G03*
X2440940Y449580I-30480J0D01*
G01*
X2285480Y472960D02*
G03*
X2285480Y472960I-30480J0D01*
G01*
X4048760Y1427480D02*
G03*
X4048760Y1427480I-30480J0D01*
G01*
X3713930Y1425200D02*
G03*
X3713930Y1425200I-30480J0D01*
G01*
X7282180Y3129280D02*
G03*
X7282180Y3129280I-30480J0D01*
G01*
X7899400Y3268980D02*
G03*
X7899400Y3268980I-30480J0D01*
G01*
X7759700Y3182620D02*
G03*
X7759700Y3182620I-30480J0D01*
G01*
X8402320Y3129280D02*
G03*
X8402320Y3129280I-30480J0D01*
G01*
Y3314700D02*
G03*
X8402320Y3314700I-30480J0D01*
G01*
X7960360Y3522980D02*
G03*
X7960360Y3522980I-30480J0D01*
G01*
X7896860D02*
G03*
X7896860Y3522980I-30480J0D01*
G01*
X5204460Y1338580D02*
G03*
X5204460Y1338580I-30480J0D01*
G01*
X5341620D02*
G03*
X5341620Y1338580I-30480J0D01*
G01*
X5067300D02*
G03*
X5067300Y1338580I-30480J0D01*
G01*
X5478780D02*
G03*
X5478780Y1338580I-30480J0D01*
G01*
X4930140D02*
G03*
X4930140Y1338580I-30480J0D01*
G01*
X9761220Y2174240D02*
G03*
X9761220Y2174240I-30480J0D01*
G01*
Y1871980D02*
G03*
X9761220Y1871980I-30480J0D01*
G01*
X8892540Y2075180D02*
G03*
X8892540Y2075180I-30480J0D01*
G01*
X8877300Y1684020D02*
G03*
X8877300Y1684020I-30480J0D01*
G01*
X8577580Y1798320D02*
G03*
X8577580Y1798320I-30480J0D01*
G01*
Y2352040D02*
G03*
X8577580Y2352040I-30480J0D01*
G01*
X7675880Y2585720D02*
G03*
X7675880Y2585720I-30480J0D01*
G01*
X7485380D02*
G03*
X7485380Y2585720I-30480J0D01*
G01*
X6822440Y2590800D02*
G03*
X6822440Y2590800I-30480J0D01*
G01*
X6860540Y3012440D02*
G03*
X6860540Y3012440I-30480J0D01*
G01*
X6609080Y3134360D02*
G03*
X6609080Y3134360I-30480J0D01*
G01*
Y3317240D02*
G03*
X6609080Y3317240I-30480J0D01*
G01*
X6156960Y3520440D02*
G03*
X6156960Y3520440I-30480J0D01*
G01*
X6593840Y3522980D02*
G03*
X6593840Y3522980I-30480J0D01*
G01*
X7056120Y3520440D02*
G03*
X7056120Y3520440I-30480J0D01*
G01*
X6990080D02*
G03*
X6990080Y3520440I-30480J0D01*
G01*
X7604760Y3632200D02*
G03*
X7604760Y3632200I-30480J0D01*
G01*
X7508240Y3317240D02*
G03*
X7508240Y3317240I-30480J0D01*
G01*
X7838440Y3954780D02*
G03*
X7838440Y3954780I-30480J0D01*
G01*
Y4500880D02*
G03*
X7838440Y4500880I-30480J0D01*
G01*
X6941820Y3952240D02*
G03*
X6941820Y3952240I-30480J0D01*
G01*
Y4498340D02*
G03*
X6941820Y4498340I-30480J0D01*
G01*
X6040120Y3952240D02*
G03*
X6040120Y3952240I-30480J0D01*
G01*
Y4498340D02*
G03*
X6040120Y4498340I-30480J0D01*
G01*
X1206730Y3557500D02*
G03*
X1206730Y3557500I-30480J0D01*
G01*
X599440Y2786380D02*
G03*
X599440Y2786380I-30480J0D01*
G01*
X1089660D02*
G03*
X1089660Y2786380I-30480J0D01*
G01*
X1231900D02*
G03*
X1231900Y2786380I-30480J0D01*
G01*
X1374140D02*
G03*
X1374140Y2786380I-30480J0D01*
G01*
X1440180D02*
G03*
X1440180Y2786380I-30480J0D01*
G01*
X1651000D02*
G03*
X1651000Y2786380I-30480J0D01*
G01*
X1719580D02*
G03*
X1719580Y2786380I-30480J0D01*
G01*
X1998980D02*
G03*
X1998980Y2786380I-30480J0D01*
G01*
X2070100D02*
G03*
X2070100Y2786380I-30480J0D01*
G01*
X2141220D02*
G03*
X2141220Y2786380I-30480J0D01*
G01*
X2631440D02*
G03*
X2631440Y2786380I-30480J0D01*
G01*
X2560320D02*
G03*
X2560320Y2786380I-30480J0D01*
G01*
X2280920D02*
G03*
X2280920Y2786380I-30480J0D01*
G01*
X2209800D02*
G03*
X2209800Y2786380I-30480J0D01*
G01*
X1104900Y3855720D02*
G03*
X1104900Y3855720I-30480J0D01*
G01*
X1305560D02*
G03*
X1305560Y3855720I-30480J0D01*
G01*
X2402840D02*
G03*
X2402840Y3855720I-30480J0D01*
G01*
X2606040D02*
G03*
X2606040Y3855720I-30480J0D01*
G01*
X2204720Y3652520D02*
G03*
X2204720Y3652520I-30480J0D01*
G01*
X7947660Y2164080D02*
G03*
X7947660Y2164080I-30480J0D01*
G01*
X7950200Y1582420D02*
G03*
X7950200Y1582420I-30480J0D01*
G01*
Y1874520D02*
G03*
X7950200Y1874520I-30480J0D01*
G01*
X7518400Y998220D02*
G03*
X7518400Y998220I-30480J0D01*
G01*
X7147560Y840740D02*
G03*
X7147560Y840740I-30480J0D01*
G01*
X7012940Y843280D02*
G03*
X7012940Y843280I-30480J0D01*
G01*
X6901180Y1099820D02*
G03*
X6901180Y1099820I-30480J0D01*
G01*
X6241720Y2702600D02*
G03*
X6241720Y2702600I-30480J0D01*
G01*
X5961380Y3014980D02*
G03*
X5961380Y3014980I-30480J0D01*
G01*
X5709920Y3136900D02*
G03*
X5709920Y3136900I-30480J0D01*
G01*
X5808980Y3251200D02*
G03*
X5808980Y3251200I-30480J0D01*
G01*
X6093460Y3520440D02*
G03*
X6093460Y3520440I-30480J0D01*
G01*
X5692140Y3515360D02*
G03*
X5692140Y3515360I-30480J0D01*
G01*
X5709920Y3314700D02*
G03*
X5709920Y3314700I-30480J0D01*
G01*
X5341620Y3632200D02*
G03*
X5341620Y3632200I-30480J0D01*
G01*
X5201920Y3426460D02*
G03*
X5201920Y3426460I-30480J0D01*
G01*
X5140960Y4498340D02*
G03*
X5140960Y4498340I-30480J0D01*
G01*
Y3952240D02*
G03*
X5140960Y3952240I-30480J0D01*
G01*
X2207260Y1450340D02*
G03*
X2207260Y1450340I-30480J0D01*
G01*
X4048760Y1767840D02*
G03*
X4048760Y1767840I-30480J0D01*
G01*
X3860800Y1877060D02*
G03*
X3860800Y1877060I-30480J0D01*
G01*
X5191760Y2184400D02*
G03*
X5191760Y2184400I-30480J0D01*
G01*
X6106160Y1676400D02*
G03*
X6106160Y1676400I-30480J0D01*
G01*
X4884420Y2326640D02*
G03*
X4884420Y2326640I-30480J0D01*
G01*
X8986520Y2352040D02*
G03*
X8986520Y2352040I-30480J0D01*
G01*
X9545320Y2174240D02*
G03*
X9545320Y2174240I-30480J0D01*
G01*
Y1871980D02*
G03*
X9545320Y1871980I-30480J0D01*
G01*
X2613660Y152400D02*
G03*
X2613660Y152400I-30480J0D01*
G01*
X6499860Y1097280D02*
G03*
X6499860Y1097280I-30480J0D01*
G01*
X7000240Y1099820D02*
G03*
X7000240Y1099820I-30480J0D01*
G01*
X7813040D02*
G03*
X7813040Y1099820I-30480J0D01*
G01*
X7759700Y548640D02*
G03*
X7759700Y548640I-30480J0D01*
G01*
X7137400Y660400D02*
G03*
X7137400Y660400I-30480J0D01*
G01*
X7020560D02*
G03*
X7020560Y660400I-30480J0D01*
G01*
X6278880Y751840D02*
G03*
X6278880Y751840I-30480J0D01*
G01*
X6032500Y749300D02*
G03*
X6032500Y749300I-30480J0D01*
G01*
X7505700Y2199640D02*
G03*
X7505700Y2199640I-30480J0D01*
G01*
X7406640Y1430020D02*
G03*
X7406640Y1430020I-30480J0D01*
G01*
X6756400D02*
G03*
X6756400Y1430020I-30480J0D01*
G01*
X6304280Y1480820D02*
G03*
X6304280Y1480820I-30480J0D01*
G01*
X6755130Y2313940D02*
G03*
X6755130Y2313940I-30480J0D01*
G01*
X1828800Y2677160D02*
G03*
X1828800Y2677160I-30480J0D01*
G01*
X1944370Y2622867D02*
G03*
X1944370Y2622867I-30480J0D01*
G01*
X6706870Y2559050D02*
G03*
X6706870Y2559050I-30480J0D01*
G01*
X6393180Y1948180D02*
G03*
X6393180Y1948180I-30480J0D01*
G01*
X7012940Y2692400D02*
G03*
X7012940Y2692400I-30480J0D01*
G01*
X2006600Y3652520D02*
G03*
X2006600Y3652520I-30480J0D01*
G01*
X1805940D02*
G03*
X1805940Y3652520I-30480J0D01*
G01*
X5798820Y1372540D02*
G03*
X5798820Y1372540I-30480J0D01*
G01*
X5956300Y2308860D02*
G03*
X5956300Y2308860I-30480J0D01*
G01*
X5793740Y1582420D02*
G03*
X5793740Y1582420I-30480J0D01*
G01*
X6416040Y2400300D02*
G03*
X6416040Y2400300I-30480J0D01*
G01*
X4147820Y2049780D02*
G03*
X4147820Y2049780I-30480J0D01*
G01*
X4150360Y1424940D02*
G03*
X4150360Y1424940I-30480J0D01*
G01*
X4023360Y988060D02*
G03*
X4023360Y988060I-30480J0D01*
G01*
X4005580Y1620520D02*
G03*
X4005580Y1620520I-30480J0D01*
G01*
X3446780Y1874520D02*
G03*
X3446780Y1874520I-30480J0D01*
G01*
X3434080Y1577340D02*
G03*
X3434080Y1577340I-30480J0D01*
G01*
X3418840Y1315720D02*
G03*
X3418840Y1315720I-30480J0D01*
G01*
X3078480Y1107440D02*
G03*
X3078480Y1107440I-30480J0D01*
G01*
X2852420D02*
G03*
X2852420Y1107440I-30480J0D01*
G01*
X2146300Y1125220D02*
G03*
X2146300Y1125220I-30480J0D01*
G01*
X6934200Y3266440D02*
G03*
X6934200Y3266440I-30480J0D01*
G01*
X6189980Y3197860D02*
G03*
X6189980Y3197860I-30480J0D01*
G01*
X7553960Y2402840D02*
G03*
X7553960Y2402840I-30480J0D01*
G01*
X5935980Y3200400D02*
G03*
X5935980Y3200400I-30480J0D01*
G01*
X9433920Y2024380D02*
G03*
X9433920Y2024380I-30480J0D01*
G01*
X9436100Y1925320D02*
G03*
X9436100Y1925320I-30480J0D01*
G01*
%TF.MD5,73c0e945a36aa00e6a956bcf5833e94d*%
M02*
