%TF.GenerationSoftware,Altium Limited,Altium Designer,21.0.8 (223)*%
G04 Layer_Color=128*
%FSLAX45Y45*%
%MOMM*%
%TF.SameCoordinates,93EC2011-4169-4821-B187-25AADE7CFEA4*%
%TF.FilePolarity,Positive*%
%TF.FileFunction,Drillmap*%
%TF.Part,Single*%
G01*
G75*
%TA.AperFunction,NonConductor*%
%ADD167C,0.12700*%
D167*
X8693000Y4125000D02*
X8803000D01*
X8748000Y4070000D02*
Y4180000D01*
X8947000Y4125000D02*
X9057000D01*
X9002000Y4070000D02*
Y4180000D01*
X9678500Y3756000D02*
X9748500D01*
X9713500Y3721000D02*
Y3791000D01*
X9551500Y3756000D02*
X9621500D01*
X9586500Y3721000D02*
Y3791000D01*
X9678500Y3629000D02*
X9748500D01*
X9713500Y3594000D02*
Y3664000D01*
X9678500Y3502000D02*
X9748500D01*
X9713500Y3467000D02*
Y3537000D01*
X9551500Y3629000D02*
X9621500D01*
X9586500Y3594000D02*
Y3664000D01*
X9551500Y3502000D02*
X9621500D01*
X9586500Y3467000D02*
Y3537000D01*
X9678500Y3375000D02*
X9748500D01*
X9713500Y3340000D02*
Y3410000D01*
X9551500Y3375000D02*
X9621500D01*
X9586500Y3340000D02*
Y3410000D01*
X9678500Y3248000D02*
X9748500D01*
X9713500Y3213000D02*
Y3283000D01*
X9678500Y3121000D02*
X9748500D01*
X9713500Y3086000D02*
Y3156000D01*
X9678500Y2994000D02*
X9748500D01*
X9713500Y2959000D02*
Y3029000D01*
X9551500Y3248000D02*
X9621500D01*
X9586500Y3213000D02*
Y3283000D01*
X9551500Y3121000D02*
X9621500D01*
X9586500Y3086000D02*
Y3156000D01*
X9551500Y2994000D02*
X9621500D01*
X9586500Y2959000D02*
Y3029000D01*
X8776260Y1463040D02*
X8846260D01*
X8811260Y1428040D02*
Y1498040D01*
X8649260Y1463040D02*
X8719260D01*
X8684260Y1428040D02*
Y1498040D01*
X8776260Y1590040D02*
X8846260D01*
X8811260Y1555040D02*
Y1625040D01*
X8649260Y1590040D02*
X8719260D01*
X8684260Y1555040D02*
Y1625040D01*
X140000Y250000D02*
X360000D01*
X250000Y140000D02*
Y360000D01*
X9640000Y250000D02*
X9860000D01*
X9750000Y140000D02*
Y360000D01*
X9640000Y4750000D02*
X9860000D01*
X9750000Y4640000D02*
Y4860000D01*
X140000Y4750000D02*
X360000D01*
X250000Y4640000D02*
Y4860000D01*
X9752000Y1568000D02*
X9812000D01*
X9782000Y1538000D02*
Y1598000D01*
X9334000Y2432000D02*
X9394000D01*
X9364000Y2402000D02*
Y2462000D01*
X9334000Y1568000D02*
X9394000D01*
X9364000Y1538000D02*
Y1598000D01*
X9752000Y2432000D02*
X9812000D01*
X9782000Y2402000D02*
Y2462000D01*
X9384500Y2289000D02*
X9449500D01*
X9417000Y2256500D02*
Y2321500D01*
X9384500Y1711000D02*
X9449500D01*
X9417000Y1678500D02*
Y1743500D01*
X8411000Y558800D02*
X8541000D01*
X8476000Y493800D02*
Y623800D01*
X8919000Y558800D02*
X9049000D01*
X8984000Y493800D02*
Y623800D01*
X951000Y558800D02*
X1081000D01*
X1016000Y493800D02*
Y623800D01*
X1459000Y558800D02*
X1589000D01*
X1524000Y493800D02*
Y623800D01*
X1564500Y2197600D02*
X1604500D01*
X1584500Y2177600D02*
Y2217600D01*
X9714440Y1100000D02*
X9785560D01*
X9750000Y1064440D02*
Y1135560D01*
X9064440Y250000D02*
X9135560D01*
X9100000Y214440D02*
Y285560D01*
X9314440Y250000D02*
X9385560D01*
X9350000Y214440D02*
Y285560D01*
X9714440Y600000D02*
X9785560D01*
X9750000Y564440D02*
Y635560D01*
X9714440Y850000D02*
X9785560D01*
X9750000Y814440D02*
Y885560D01*
X9714440Y1350000D02*
X9785560D01*
X9750000Y1314440D02*
Y1385560D01*
X9714440Y2600000D02*
X9785560D01*
X9750000Y2564440D02*
Y2635560D01*
X9714440Y4150000D02*
X9785560D01*
X9750000Y4114440D02*
Y4185560D01*
X9714440Y4400000D02*
X9785560D01*
X9750000Y4364440D02*
Y4435560D01*
X1814440Y1100000D02*
X1885560D01*
X1850000Y1064440D02*
Y1135560D01*
X1814440Y1350000D02*
X1885560D01*
X1850000Y1314440D02*
Y1385560D01*
X1814440Y1600000D02*
X1885560D01*
X1850000Y1564440D02*
Y1635560D01*
X1814440Y1850000D02*
X1885560D01*
X1850000Y1814440D02*
Y1885560D01*
X1564440Y1850000D02*
X1635560D01*
X1600000Y1814440D02*
Y1885560D01*
X1314440Y1850000D02*
X1385560D01*
X1350000Y1814440D02*
Y1885560D01*
X1064440Y1850000D02*
X1135560D01*
X1100000Y1814440D02*
Y1885560D01*
X814440Y1850000D02*
X885560D01*
X850000Y1814440D02*
Y1885560D01*
X564440Y1850000D02*
X635560D01*
X600000Y1814440D02*
Y1885560D01*
X564440Y1600000D02*
X635560D01*
X600000Y1564440D02*
Y1635560D01*
X564440Y1350000D02*
X635560D01*
X600000Y1314440D02*
Y1385560D01*
X564440Y1100000D02*
X635560D01*
X600000Y1064440D02*
Y1135560D01*
X564440Y850000D02*
X635560D01*
X600000Y814440D02*
Y885560D01*
X564440Y600000D02*
X635560D01*
X600000Y564440D02*
Y635560D01*
X564440Y250000D02*
X635560D01*
X600000Y214440D02*
Y285560D01*
X814440Y250000D02*
X885560D01*
X850000Y214440D02*
Y285560D01*
X1064440Y250000D02*
X1135560D01*
X1100000Y214440D02*
Y285560D01*
X1314440Y250000D02*
X1385560D01*
X1350000Y214440D02*
Y285560D01*
X1564440Y250000D02*
X1635560D01*
X1600000Y214440D02*
Y285560D01*
X1814440Y250000D02*
X1885560D01*
X1850000Y214440D02*
Y285560D01*
X8564440Y4750000D02*
X8635560D01*
X8600000Y4714440D02*
Y4785560D01*
X8814440Y4750000D02*
X8885560D01*
X8850000Y4714440D02*
Y4785560D01*
X9064440Y4750000D02*
X9135560D01*
X9100000Y4714440D02*
Y4785560D01*
X9314440Y4750000D02*
X9385560D01*
X9350000Y4714440D02*
Y4785560D01*
X4564440Y4750000D02*
X4635560D01*
X4600000Y4714440D02*
Y4785560D01*
X4814440Y4750000D02*
X4885560D01*
X4850000Y4714440D02*
Y4785560D01*
X7564440Y4750000D02*
X7635560D01*
X7600000Y4714440D02*
Y4785560D01*
X564440Y4750000D02*
X635560D01*
X600000Y4714440D02*
Y4785560D01*
X814440Y4750000D02*
X885560D01*
X850000Y4714440D02*
Y4785560D01*
X1064440Y4750000D02*
X1135560D01*
X1100000Y4714440D02*
Y4785560D01*
X1314440Y4750000D02*
X1385560D01*
X1350000Y4714440D02*
Y4785560D01*
X1564440Y4750000D02*
X1635560D01*
X1600000Y4714440D02*
Y4785560D01*
X1814440Y4750000D02*
X1885560D01*
X1850000Y4714440D02*
Y4785560D01*
X2064440Y4750000D02*
X2135560D01*
X2100000Y4714440D02*
Y4785560D01*
X2314440Y4750000D02*
X2385560D01*
X2350000Y4714440D02*
Y4785560D01*
X2564440Y4750000D02*
X2635560D01*
X2600000Y4714440D02*
Y4785560D01*
X2814440Y4750000D02*
X2885560D01*
X2850000Y4714440D02*
Y4785560D01*
X3064440Y4750000D02*
X3135560D01*
X3100000Y4714440D02*
Y4785560D01*
X3314440Y4750000D02*
X3385560D01*
X3350000Y4714440D02*
Y4785560D01*
X3564440Y4750000D02*
X3635560D01*
X3600000Y4714440D02*
Y4785560D01*
X3814440Y4750000D02*
X3885560D01*
X3850000Y4714440D02*
Y4785560D01*
X4064440Y4750000D02*
X4135560D01*
X4100000Y4714440D02*
Y4785560D01*
X4314440Y4750000D02*
X4385560D01*
X4350000Y4714440D02*
Y4785560D01*
X214440Y4350000D02*
X285560D01*
X250000Y4314440D02*
Y4385560D01*
X214440Y4100000D02*
X285560D01*
X250000Y4064440D02*
Y4135560D01*
X214440Y3850000D02*
X285560D01*
X250000Y3814440D02*
Y3885560D01*
X214440Y3600000D02*
X285560D01*
X250000Y3564440D02*
Y3635560D01*
X214440Y3350000D02*
X285560D01*
X250000Y3314440D02*
Y3385560D01*
X214440Y3100000D02*
X285560D01*
X250000Y3064440D02*
Y3135560D01*
X214440Y2850000D02*
X285560D01*
X250000Y2814440D02*
Y2885560D01*
X214440Y2600000D02*
X285560D01*
X250000Y2564440D02*
Y2635560D01*
X214440Y2350000D02*
X285560D01*
X250000Y2314440D02*
Y2385560D01*
X214440Y2100000D02*
X285560D01*
X250000Y2064440D02*
Y2135560D01*
X214440Y1850000D02*
X285560D01*
X250000Y1814440D02*
Y1885560D01*
X214440Y1600000D02*
X285560D01*
X250000Y1564440D02*
Y1635560D01*
X214440Y1350000D02*
X285560D01*
X250000Y1314440D02*
Y1385560D01*
X214440Y1100000D02*
X285560D01*
X250000Y1064440D02*
Y1135560D01*
X214440Y850000D02*
X285560D01*
X250000Y814440D02*
Y885560D01*
X214440Y600000D02*
X285560D01*
X250000Y564440D02*
Y635560D01*
X5984480Y1000520D02*
X6014480D01*
X5999480Y985520D02*
Y1015520D01*
X5710000Y1725000D02*
X5740000D01*
X5725000Y1710000D02*
Y1740000D01*
X1685000Y1425000D02*
X1715000D01*
X1700000Y1410000D02*
Y1440000D01*
X4409680Y2575560D02*
X4439680D01*
X4424680Y2560560D02*
Y2590560D01*
X5981940Y2620920D02*
X6011940D01*
X5996940Y2605920D02*
Y2635920D01*
X7460220Y2100580D02*
X7490220D01*
X7475220Y2085580D02*
Y2115580D01*
X5412980Y2654300D02*
X5442980D01*
X5427980Y2639300D02*
Y2669300D01*
X6474700Y2590800D02*
X6504700D01*
X6489700Y2575800D02*
Y2605800D01*
X6860671Y2548786D02*
X6890671D01*
X6875671Y2533786D02*
Y2563786D01*
X7787880Y2557780D02*
X7817880D01*
X7802880Y2542780D02*
Y2572780D01*
X6352780Y1229360D02*
X6382780D01*
X6367780Y1214360D02*
Y1244360D01*
X6479780Y1229360D02*
X6509780D01*
X6494780Y1214360D02*
Y1244360D01*
X8110000Y1100000D02*
X8140000D01*
X8125000Y1085000D02*
Y1115000D01*
X4035539Y2498599D02*
X4065539D01*
X4050539Y2483599D02*
Y2513599D01*
X4035030Y2366010D02*
X4065030D01*
X4050030Y2351010D02*
Y2381010D01*
X3231120Y1978660D02*
X3261120D01*
X3246120Y1963660D02*
Y1993660D01*
X3190480Y1229360D02*
X3220480D01*
X3205480Y1214360D02*
Y1244360D01*
X4181080Y858520D02*
X4211080D01*
X4196080Y843520D02*
Y873520D01*
X3101183Y1318260D02*
X3131183D01*
X3116183Y1303260D02*
Y1333260D01*
X3147300Y1272540D02*
X3177300D01*
X3162300Y1257540D02*
Y1287540D01*
X5860000Y1767500D02*
X5890000D01*
X5875000Y1752500D02*
Y1782500D01*
X7220925Y2281830D02*
X7250925D01*
X7235925Y2266830D02*
Y2296830D01*
X7334505Y2311187D02*
X7364505D01*
X7349505Y2296187D02*
Y2326187D01*
X7427200Y2250440D02*
X7457200D01*
X7442200Y2235440D02*
Y2265440D01*
X6607140Y2458546D02*
X6637140D01*
X6622140Y2443546D02*
Y2473546D01*
X6565907Y2410227D02*
X6595907D01*
X6580907Y2395227D02*
Y2425227D01*
X1463280Y2781300D02*
X1493280D01*
X1478280Y2766300D02*
Y2796300D01*
X7493240Y2989580D02*
X7523240D01*
X7508240Y2974580D02*
Y3004580D01*
X7262100Y2801620D02*
X7292100D01*
X7277100Y2786620D02*
Y2816620D01*
X6718540Y1750060D02*
X6748540D01*
X6733540Y1735060D02*
Y1765060D01*
X2591040Y355600D02*
X2621040D01*
X2606040Y340600D02*
Y370600D01*
X6627100Y1600200D02*
X6657100D01*
X6642100Y1585200D02*
Y1615200D01*
X8567660Y1656080D02*
X8597660D01*
X8582660Y1641080D02*
Y1671080D01*
X5985000Y855000D02*
X6015000D01*
X6000000Y840000D02*
Y870000D01*
X3960000Y2575000D02*
X3990000D01*
X3975000Y2560000D02*
Y2590000D01*
X4185000Y2575000D02*
X4215000D01*
X4200000Y2560000D02*
Y2590000D01*
X3735000Y2575000D02*
X3765000D01*
X3750000Y2560000D02*
Y2590000D01*
X3510000Y2575000D02*
X3540000D01*
X3525000Y2560000D02*
Y2590000D01*
X6479780Y2342913D02*
X6509780D01*
X6494780Y2327913D02*
Y2357913D01*
X4564440Y225000D02*
X4635560D01*
X4600000Y189440D02*
Y260560D01*
X4864440Y225000D02*
X4935560D01*
X4900000Y189440D02*
Y260560D01*
X5164440Y225000D02*
X5235560D01*
X5200000Y189440D02*
Y260560D01*
X5464440Y225000D02*
X5535560D01*
X5500000Y189440D02*
Y260560D01*
X5764440Y225000D02*
X5835560D01*
X5800000Y189440D02*
Y260560D01*
X6064440Y225000D02*
X6135560D01*
X6100000Y189440D02*
Y260560D01*
X6364440Y225000D02*
X6435560D01*
X6400000Y189440D02*
Y260560D01*
X6664440Y225000D02*
X6735560D01*
X6700000Y189440D02*
Y260560D01*
X6964440Y225000D02*
X7035560D01*
X7000000Y189440D02*
Y260560D01*
X7264440Y225000D02*
X7335560D01*
X7300000Y189440D02*
Y260560D01*
X7564440Y225000D02*
X7635560D01*
X7600000Y189440D02*
Y260560D01*
X7864440Y225000D02*
X7935560D01*
X7900000Y189440D02*
Y260560D01*
X8264440Y300000D02*
X8335560D01*
X8300000Y264440D02*
Y335560D01*
X8564440Y300000D02*
X8635560D01*
X8600000Y264440D02*
Y335560D01*
X8135000Y950000D02*
X8165000D01*
X8150000Y935000D02*
Y965000D01*
X6053060Y2001520D02*
X6083060D01*
X6068060Y1986520D02*
Y2016520D01*
X2326880Y353060D02*
X2356880D01*
X2341880Y338060D02*
Y368060D01*
X2395460Y449580D02*
X2425460D01*
X2410460Y434580D02*
Y464580D01*
X2240000Y472960D02*
X2270000D01*
X2255000Y457960D02*
Y487960D01*
X4003280Y1427480D02*
X4033280D01*
X4018280Y1412480D02*
Y1442480D01*
X3668450Y1425200D02*
X3698450D01*
X3683450Y1410200D02*
Y1440200D01*
X7236700Y3129280D02*
X7266700D01*
X7251700Y3114280D02*
Y3144280D01*
X7853920Y3268980D02*
X7883920D01*
X7868920Y3253980D02*
Y3283980D01*
X7714220Y3182620D02*
X7744220D01*
X7729220Y3167620D02*
Y3197620D01*
X8356840Y3129280D02*
X8386840D01*
X8371840Y3114280D02*
Y3144280D01*
X8356840Y3314700D02*
X8386840D01*
X8371840Y3299700D02*
Y3329700D01*
X7914880Y3522980D02*
X7944880D01*
X7929880Y3507980D02*
Y3537980D01*
X7851380Y3522980D02*
X7881380D01*
X7866380Y3507980D02*
Y3537980D01*
X5158980Y1338580D02*
X5188980D01*
X5173980Y1323580D02*
Y1353580D01*
X5296140Y1338580D02*
X5326140D01*
X5311140Y1323580D02*
Y1353580D01*
X5021820Y1338580D02*
X5051820D01*
X5036820Y1323580D02*
Y1353580D01*
X5433300Y1338580D02*
X5463300D01*
X5448300Y1323580D02*
Y1353580D01*
X4884660Y1338580D02*
X4914660D01*
X4899660Y1323580D02*
Y1353580D01*
X9715740Y2174240D02*
X9745740D01*
X9730740Y2159240D02*
Y2189240D01*
X9715740Y1871980D02*
X9745740D01*
X9730740Y1856980D02*
Y1886980D01*
X8847060Y2075180D02*
X8877060D01*
X8862060Y2060180D02*
Y2090180D01*
X8831820Y1684020D02*
X8861820D01*
X8846820Y1669020D02*
Y1699020D01*
X8532100Y1798320D02*
X8562100D01*
X8547100Y1783320D02*
Y1813320D01*
X8532100Y2352040D02*
X8562100D01*
X8547100Y2337040D02*
Y2367040D01*
X7630400Y2585720D02*
X7660400D01*
X7645400Y2570720D02*
Y2600720D01*
X7439900Y2585720D02*
X7469900D01*
X7454900Y2570720D02*
Y2600720D01*
X6776960Y2590800D02*
X6806960D01*
X6791960Y2575800D02*
Y2605800D01*
X6815060Y3012440D02*
X6845060D01*
X6830060Y2997440D02*
Y3027440D01*
X6563600Y3134360D02*
X6593600D01*
X6578600Y3119360D02*
Y3149360D01*
X6563600Y3317240D02*
X6593600D01*
X6578600Y3302240D02*
Y3332240D01*
X6111480Y3520440D02*
X6141480D01*
X6126480Y3505440D02*
Y3535440D01*
X6548360Y3522980D02*
X6578360D01*
X6563360Y3507980D02*
Y3537980D01*
X7010640Y3520440D02*
X7040640D01*
X7025640Y3505440D02*
Y3535440D01*
X6944600Y3520440D02*
X6974600D01*
X6959600Y3505440D02*
Y3535440D01*
X7559280Y3632200D02*
X7589280D01*
X7574280Y3617200D02*
Y3647200D01*
X7462760Y3317240D02*
X7492760D01*
X7477760Y3302240D02*
Y3332240D01*
X7792960Y3954780D02*
X7822960D01*
X7807960Y3939780D02*
Y3969780D01*
X7792960Y4500880D02*
X7822960D01*
X7807960Y4485880D02*
Y4515880D01*
X6896340Y3952240D02*
X6926340D01*
X6911340Y3937240D02*
Y3967240D01*
X6896340Y4498340D02*
X6926340D01*
X6911340Y4483340D02*
Y4513340D01*
X5994640Y3952240D02*
X6024640D01*
X6009640Y3937240D02*
Y3967240D01*
X5994640Y4498340D02*
X6024640D01*
X6009640Y4483340D02*
Y4513340D01*
X1161250Y3557500D02*
X1191250D01*
X1176250Y3542500D02*
Y3572500D01*
X553960Y2786380D02*
X583960D01*
X568960Y2771380D02*
Y2801380D01*
X1044180Y2786380D02*
X1074180D01*
X1059180Y2771380D02*
Y2801380D01*
X1186420Y2786380D02*
X1216420D01*
X1201420Y2771380D02*
Y2801380D01*
X1328660Y2786380D02*
X1358660D01*
X1343660Y2771380D02*
Y2801380D01*
X1394700Y2786380D02*
X1424700D01*
X1409700Y2771380D02*
Y2801380D01*
X1605520Y2786380D02*
X1635520D01*
X1620520Y2771380D02*
Y2801380D01*
X1674100Y2786380D02*
X1704100D01*
X1689100Y2771380D02*
Y2801380D01*
X1953500Y2786380D02*
X1983500D01*
X1968500Y2771380D02*
Y2801380D01*
X2024620Y2786380D02*
X2054620D01*
X2039620Y2771380D02*
Y2801380D01*
X2095740Y2786380D02*
X2125740D01*
X2110740Y2771380D02*
Y2801380D01*
X2585960Y2786380D02*
X2615960D01*
X2600960Y2771380D02*
Y2801380D01*
X2514840Y2786380D02*
X2544840D01*
X2529840Y2771380D02*
Y2801380D01*
X2235440Y2786380D02*
X2265440D01*
X2250440Y2771380D02*
Y2801380D01*
X2164320Y2786380D02*
X2194320D01*
X2179320Y2771380D02*
Y2801380D01*
X1059420Y3855720D02*
X1089420D01*
X1074420Y3840720D02*
Y3870720D01*
X1260080Y3855720D02*
X1290080D01*
X1275080Y3840720D02*
Y3870720D01*
X2357360Y3855720D02*
X2387360D01*
X2372360Y3840720D02*
Y3870720D01*
X2560560Y3855720D02*
X2590560D01*
X2575560Y3840720D02*
Y3870720D01*
X2159240Y3652520D02*
X2189240D01*
X2174240Y3637520D02*
Y3667520D01*
X7902180Y2164080D02*
X7932180D01*
X7917180Y2149080D02*
Y2179080D01*
X7904720Y1582420D02*
X7934720D01*
X7919720Y1567420D02*
Y1597420D01*
X7904720Y1874520D02*
X7934720D01*
X7919720Y1859520D02*
Y1889520D01*
X7472920Y998220D02*
X7502920D01*
X7487920Y983220D02*
Y1013220D01*
X7102080Y840740D02*
X7132080D01*
X7117080Y825740D02*
Y855740D01*
X6967460Y843280D02*
X6997460D01*
X6982460Y828280D02*
Y858280D01*
X6855700Y1099820D02*
X6885700D01*
X6870700Y1084820D02*
Y1114820D01*
X6196240Y2702600D02*
X6226240D01*
X6211240Y2687600D02*
Y2717600D01*
X5915900Y3014980D02*
X5945900D01*
X5930900Y2999980D02*
Y3029980D01*
X5664440Y3136900D02*
X5694440D01*
X5679440Y3121900D02*
Y3151900D01*
X5763500Y3251200D02*
X5793500D01*
X5778500Y3236200D02*
Y3266200D01*
X6047980Y3520440D02*
X6077980D01*
X6062980Y3505440D02*
Y3535440D01*
X5646660Y3515360D02*
X5676660D01*
X5661660Y3500360D02*
Y3530360D01*
X5664440Y3314700D02*
X5694440D01*
X5679440Y3299700D02*
Y3329700D01*
X5296140Y3632200D02*
X5326140D01*
X5311140Y3617200D02*
Y3647200D01*
X5156440Y3426460D02*
X5186440D01*
X5171440Y3411460D02*
Y3441460D01*
X5095480Y4498340D02*
X5125480D01*
X5110480Y4483340D02*
Y4513340D01*
X5095480Y3952240D02*
X5125480D01*
X5110480Y3937240D02*
Y3967240D01*
X2161780Y1450340D02*
X2191780D01*
X2176780Y1435340D02*
Y1465340D01*
X4003280Y1767840D02*
X4033280D01*
X4018280Y1752840D02*
Y1782840D01*
X3815320Y1877060D02*
X3845320D01*
X3830320Y1862060D02*
Y1892060D01*
X5146280Y2184400D02*
X5176280D01*
X5161280Y2169400D02*
Y2199400D01*
X6060680Y1676400D02*
X6090680D01*
X6075680Y1661400D02*
Y1691400D01*
X4838940Y2326640D02*
X4868940D01*
X4853940Y2311640D02*
Y2341640D01*
X8941040Y2352040D02*
X8971040D01*
X8956040Y2337040D02*
Y2367040D01*
X9499840Y2174240D02*
X9529840D01*
X9514840Y2159240D02*
Y2189240D01*
X9499840Y1871980D02*
X9529840D01*
X9514840Y1856980D02*
Y1886980D01*
X2568180Y152400D02*
X2598180D01*
X2583180Y137400D02*
Y167400D01*
X6454380Y1097280D02*
X6484380D01*
X6469380Y1082280D02*
Y1112280D01*
X6954760Y1099820D02*
X6984760D01*
X6969760Y1084820D02*
Y1114820D01*
X7767560Y1099820D02*
X7797560D01*
X7782560Y1084820D02*
Y1114820D01*
X7714220Y548640D02*
X7744220D01*
X7729220Y533640D02*
Y563640D01*
X7091920Y660400D02*
X7121920D01*
X7106920Y645400D02*
Y675400D01*
X6975080Y660400D02*
X7005080D01*
X6990080Y645400D02*
Y675400D01*
X6233400Y751840D02*
X6263400D01*
X6248400Y736840D02*
Y766840D01*
X5987020Y749300D02*
X6017020D01*
X6002020Y734300D02*
Y764300D01*
X7460220Y2199640D02*
X7490220D01*
X7475220Y2184640D02*
Y2214640D01*
X7361160Y1430020D02*
X7391160D01*
X7376160Y1415020D02*
Y1445020D01*
X6710920Y1430020D02*
X6740920D01*
X6725920Y1415020D02*
Y1445020D01*
X6258800Y1480820D02*
X6288800D01*
X6273800Y1465820D02*
Y1495820D01*
X6709650Y2313940D02*
X6739650D01*
X6724650Y2298940D02*
Y2328940D01*
X1783320Y2677160D02*
X1813320D01*
X1798320Y2662160D02*
Y2692160D01*
X1898890Y2622867D02*
X1928890D01*
X1913890Y2607868D02*
Y2637867D01*
X6661390Y2559050D02*
X6691390D01*
X6676390Y2544050D02*
Y2574050D01*
X6347700Y1948180D02*
X6377700D01*
X6362700Y1933180D02*
Y1963180D01*
X6967460Y2692400D02*
X6997460D01*
X6982460Y2677400D02*
Y2707400D01*
X1961120Y3652520D02*
X1991120D01*
X1976120Y3637520D02*
Y3667520D01*
X1760460Y3652520D02*
X1790460D01*
X1775460Y3637520D02*
Y3667520D01*
X5753340Y1372540D02*
X5783340D01*
X5768340Y1357540D02*
Y1387540D01*
X5910820Y2308860D02*
X5940820D01*
X5925820Y2293860D02*
Y2323860D01*
X5748260Y1582420D02*
X5778260D01*
X5763260Y1567420D02*
Y1597420D01*
X6370560Y2400300D02*
X6400560D01*
X6385560Y2385300D02*
Y2415300D01*
X4102340Y2049780D02*
X4132340D01*
X4117340Y2034780D02*
Y2064780D01*
X4104880Y1424940D02*
X4134880D01*
X4119880Y1409940D02*
Y1439940D01*
X3977880Y988060D02*
X4007880D01*
X3992880Y973060D02*
Y1003060D01*
X3960100Y1620520D02*
X3990100D01*
X3975100Y1605520D02*
Y1635520D01*
X3401300Y1874520D02*
X3431300D01*
X3416300Y1859520D02*
Y1889520D01*
X3388600Y1577340D02*
X3418600D01*
X3403600Y1562340D02*
Y1592340D01*
X3373360Y1315720D02*
X3403360D01*
X3388360Y1300720D02*
Y1330720D01*
X3033000Y1107440D02*
X3063000D01*
X3048000Y1092440D02*
Y1122440D01*
X2806940Y1107440D02*
X2836940D01*
X2821940Y1092440D02*
Y1122440D01*
X2100820Y1125220D02*
X2130820D01*
X2115820Y1110220D02*
Y1140220D01*
X6888720Y3266440D02*
X6918720D01*
X6903720Y3251440D02*
Y3281440D01*
X6144500Y3197860D02*
X6174500D01*
X6159500Y3182860D02*
Y3212860D01*
X7508480Y2402840D02*
X7538480D01*
X7523480Y2387840D02*
Y2417840D01*
X5890500Y3200400D02*
X5920500D01*
X5905500Y3185400D02*
Y3215400D01*
X9388440Y2024380D02*
X9418440D01*
X9403440Y2009380D02*
Y2039380D01*
X9390620Y1925320D02*
X9420620D01*
X9405620Y1910320D02*
Y1940320D01*
%TF.MD5,c8232a272c1c91ecbb2c7d9d5a5e4896*%
M02*
