%TF.GenerationSoftware,Altium Limited,Altium Designer,21.0.9 (235)*%
G04 Layer_Color=16711935*
%FSLAX45Y45*%
%MOMM*%
%TF.SameCoordinates,158FC4AE-840B-470E-B714-2E0BDA5EE684*%
%TF.FilePolarity,Positive*%
%TF.FileFunction,Other,Top_Assembly*%
%TF.Part,Single*%
G01*
G75*
%TA.AperFunction,NonConductor*%
%ADD81C,0.20000*%
%ADD148C,0.10000*%
G36*
X7935854Y1102830D02*
X7936039Y1102645D01*
X7936409Y1102275D01*
X7936964Y1101905D01*
X7937611Y1101351D01*
X7938351Y1100611D01*
X7939275Y1099871D01*
X7940385Y1099039D01*
X7941494Y1098207D01*
X7942789Y1097190D01*
X7944268Y1096173D01*
X7945747Y1095156D01*
X7947411Y1094047D01*
X7949168Y1092937D01*
X7951110Y1091828D01*
X7953051Y1090718D01*
X7953144Y1090626D01*
X7953513Y1090441D01*
X7954068Y1090163D01*
X7954900Y1089701D01*
X7955917Y1089239D01*
X7957027Y1088684D01*
X7958321Y1088037D01*
X7959800Y1087390D01*
X7961465Y1086650D01*
X7963129Y1085818D01*
X7964978Y1085078D01*
X7966920Y1084339D01*
X7970895Y1082859D01*
X7975148Y1081473D01*
X7975241D01*
X7975518Y1081380D01*
X7975980Y1081288D01*
X7976535Y1081103D01*
X7977275Y1080918D01*
X7978199Y1080733D01*
X7979216Y1080456D01*
X7980326Y1080271D01*
X7981620Y1079993D01*
X7983007Y1079716D01*
X7985965Y1079254D01*
X7989201Y1078791D01*
X7992715Y1078514D01*
Y1070470D01*
X7992622D01*
X7992345D01*
X7991975D01*
X7991420Y1070563D01*
X7990681D01*
X7989756Y1070655D01*
X7988739Y1070748D01*
X7987630Y1070840D01*
X7986335Y1071025D01*
X7985041Y1071210D01*
X7983469Y1071487D01*
X7981897Y1071765D01*
X7980233Y1072042D01*
X7978384Y1072412D01*
X7974593Y1073336D01*
X7974501D01*
X7974131Y1073429D01*
X7973576Y1073614D01*
X7972744Y1073891D01*
X7971820Y1074169D01*
X7970710Y1074538D01*
X7969416Y1074908D01*
X7968029Y1075463D01*
X7966457Y1076018D01*
X7964886Y1076572D01*
X7961372Y1077959D01*
X7957674Y1079623D01*
X7953976Y1081473D01*
X7953883Y1081565D01*
X7953513Y1081750D01*
X7953051Y1082027D01*
X7952312Y1082397D01*
X7951479Y1082859D01*
X7950462Y1083507D01*
X7949353Y1084154D01*
X7948151Y1084893D01*
X7945470Y1086650D01*
X7942696Y1088499D01*
X7939830Y1090626D01*
X7937149Y1092845D01*
Y1061502D01*
X7929567D01*
Y1102922D01*
X7935762D01*
X7935854Y1102830D01*
D02*
G37*
G36*
X7992715Y1032933D02*
X7942696D01*
X7942789Y1032841D01*
X7943158Y1032378D01*
X7943713Y1031824D01*
X7944360Y1030899D01*
X7945192Y1029882D01*
X7946117Y1028588D01*
X7947134Y1027108D01*
X7948151Y1025444D01*
Y1025352D01*
X7948243Y1025259D01*
X7948613Y1024705D01*
X7949076Y1023780D01*
X7949630Y1022671D01*
X7950277Y1021376D01*
X7950925Y1019989D01*
X7951572Y1018602D01*
X7952127Y1017216D01*
X7944545D01*
Y1017308D01*
X7944360Y1017493D01*
X7944268Y1017863D01*
X7943990Y1018325D01*
X7943713Y1018880D01*
X7943343Y1019527D01*
X7942419Y1021099D01*
X7941402Y1022948D01*
X7940107Y1024797D01*
X7938628Y1026739D01*
X7937056Y1028680D01*
X7936964Y1028773D01*
X7936871Y1028865D01*
X7936594Y1029142D01*
X7936317Y1029512D01*
X7935392Y1030344D01*
X7934283Y1031454D01*
X7932988Y1032563D01*
X7931509Y1033765D01*
X7930030Y1034782D01*
X7928458Y1035707D01*
Y1040792D01*
X7992715D01*
Y1032933D01*
D02*
G37*
G36*
X7968121Y1000204D02*
X7969046D01*
X7970156Y1000111D01*
X7971265Y1000019D01*
X7973761Y999741D01*
X7976350Y999372D01*
X7978846Y998817D01*
X7980048Y998447D01*
X7981158Y998077D01*
X7981250D01*
X7981435Y997985D01*
X7981713Y997800D01*
X7982082Y997615D01*
X7983099Y997060D01*
X7984394Y996228D01*
X7985873Y995119D01*
X7987352Y993824D01*
X7988924Y992160D01*
X7990311Y990126D01*
Y990034D01*
X7990496Y989849D01*
X7990588Y989571D01*
X7990866Y989109D01*
X7991143Y988554D01*
X7991420Y987815D01*
X7991698Y987075D01*
X7992068Y986150D01*
X7992437Y985133D01*
X7992715Y984024D01*
X7992992Y982822D01*
X7993270Y981435D01*
X7993454Y980048D01*
X7993639Y978569D01*
X7993824Y975241D01*
Y974409D01*
X7993732Y973761D01*
Y973022D01*
X7993639Y972097D01*
X7993547Y971080D01*
X7993454Y970063D01*
X7993085Y967752D01*
X7992530Y965255D01*
X7991790Y962852D01*
X7990773Y960540D01*
Y960448D01*
X7990588Y960263D01*
X7990403Y959985D01*
X7990218Y959616D01*
X7989479Y958599D01*
X7988462Y957397D01*
X7987167Y956010D01*
X7985688Y954715D01*
X7983839Y953421D01*
X7981805Y952404D01*
X7981713D01*
X7981528Y952312D01*
X7981158Y952219D01*
X7980695Y952034D01*
X7980141Y951849D01*
X7979401Y951664D01*
X7978569Y951387D01*
X7977552Y951202D01*
X7976443Y951017D01*
X7975241Y950740D01*
X7973946Y950555D01*
X7972559Y950370D01*
X7970988Y950185D01*
X7969323Y950093D01*
X7967567Y950000D01*
X7965718D01*
X7928735D01*
Y958506D01*
X7965718D01*
X7965810D01*
X7966087D01*
X7966550D01*
X7967104D01*
X7967752Y958599D01*
X7968584D01*
X7970340Y958691D01*
X7972374Y958876D01*
X7974408Y959153D01*
X7976350Y959523D01*
X7977182Y959708D01*
X7978014Y959985D01*
X7978199Y960078D01*
X7978661Y960263D01*
X7979309Y960725D01*
X7980233Y961280D01*
X7981158Y961927D01*
X7982175Y962852D01*
X7983192Y963961D01*
X7984024Y965255D01*
X7984116Y965440D01*
X7984394Y965903D01*
X7984671Y966735D01*
X7985041Y967844D01*
X7985503Y969139D01*
X7985781Y970803D01*
X7986058Y972559D01*
X7986150Y974501D01*
Y975426D01*
X7986058Y975980D01*
Y976812D01*
X7985965Y977644D01*
X7985596Y979679D01*
X7985133Y981897D01*
X7984394Y984024D01*
X7983377Y986058D01*
X7982730Y986983D01*
X7981990Y987815D01*
X7981897Y987907D01*
X7981805Y988000D01*
X7981528Y988184D01*
X7981158Y988462D01*
X7980603Y988739D01*
X7980048Y989109D01*
X7979216Y989479D01*
X7978384Y989849D01*
X7977367Y990218D01*
X7976165Y990496D01*
X7974778Y990866D01*
X7973299Y991143D01*
X7971635Y991420D01*
X7969878Y991605D01*
X7967844Y991790D01*
X7965718D01*
X7928735D01*
Y1000296D01*
X7965718D01*
X7965810D01*
X7966180D01*
X7966642D01*
X7967289D01*
X7968121Y1000204D01*
D02*
G37*
G36*
X7495230Y927643D02*
X7496340D01*
X7497542Y927551D01*
X7498836Y927458D01*
X7501794Y927181D01*
X7504846Y926719D01*
X7507804Y926164D01*
X7509191Y925794D01*
X7510578Y925332D01*
X7510670D01*
X7510855Y925239D01*
X7511225Y925055D01*
X7511687Y924870D01*
X7512334Y924685D01*
X7512982Y924315D01*
X7514553Y923575D01*
X7516218Y922651D01*
X7518067Y921449D01*
X7519731Y920062D01*
X7521303Y918398D01*
Y918305D01*
X7521488Y918213D01*
X7521673Y917935D01*
X7521857Y917566D01*
X7522135Y917103D01*
X7522505Y916641D01*
X7523152Y915254D01*
X7523799Y913590D01*
X7524446Y911648D01*
X7524816Y909337D01*
X7525001Y906841D01*
Y905916D01*
X7524908Y905269D01*
X7524816Y904529D01*
X7524631Y903605D01*
X7524446Y902588D01*
X7524169Y901478D01*
X7523799Y900369D01*
X7523429Y899167D01*
X7522874Y897965D01*
X7522227Y896763D01*
X7521488Y895561D01*
X7520563Y894359D01*
X7519546Y893250D01*
X7518437Y892233D01*
X7518344Y892140D01*
X7518067Y891955D01*
X7517604Y891678D01*
X7516865Y891216D01*
X7516033Y890753D01*
X7514923Y890291D01*
X7513629Y889644D01*
X7512150Y889089D01*
X7510485Y888534D01*
X7508544Y887980D01*
X7506417Y887425D01*
X7504013Y886963D01*
X7501425Y886500D01*
X7498651Y886223D01*
X7495600Y886038D01*
X7492364Y885946D01*
X7492272D01*
X7491902D01*
X7491255D01*
X7490515D01*
X7489498Y886038D01*
X7488388D01*
X7487186Y886131D01*
X7485800Y886223D01*
X7482933Y886500D01*
X7479882Y886963D01*
X7476831Y887517D01*
X7475445Y887887D01*
X7474058Y888257D01*
X7473965D01*
X7473780Y888350D01*
X7473411Y888534D01*
X7472948Y888719D01*
X7472301Y888904D01*
X7471654Y889274D01*
X7470082Y890014D01*
X7468418Y890938D01*
X7466661Y892140D01*
X7464905Y893527D01*
X7463425Y895191D01*
Y895284D01*
X7463240Y895376D01*
X7463055Y895654D01*
X7462871Y896023D01*
X7462501Y896486D01*
X7462223Y897040D01*
X7461484Y898427D01*
X7460836Y900091D01*
X7460189Y902033D01*
X7459819Y904344D01*
X7459635Y906841D01*
Y907673D01*
X7459727Y908690D01*
X7459912Y909892D01*
X7460189Y911279D01*
X7460559Y912758D01*
X7461021Y914330D01*
X7461761Y915809D01*
Y915901D01*
X7461854Y915994D01*
X7462131Y916456D01*
X7462593Y917196D01*
X7463240Y918120D01*
X7464165Y919137D01*
X7465182Y920247D01*
X7466384Y921264D01*
X7467771Y922281D01*
X7467956Y922373D01*
X7468418Y922743D01*
X7469250Y923113D01*
X7470452Y923760D01*
X7471839Y924315D01*
X7473411Y925055D01*
X7475260Y925702D01*
X7477294Y926256D01*
X7477386D01*
X7477571Y926349D01*
X7477848Y926441D01*
X7478311Y926534D01*
X7478865Y926626D01*
X7479513Y926719D01*
X7480345Y926904D01*
X7481269Y926996D01*
X7482286Y927181D01*
X7483396Y927273D01*
X7484690Y927366D01*
X7485985Y927551D01*
X7487464Y927643D01*
X7488943D01*
X7490607Y927736D01*
X7492364D01*
X7492456D01*
X7492826D01*
X7493473D01*
X7494213D01*
X7495230Y927643D01*
D02*
G37*
G36*
X7523891Y857931D02*
X7473873D01*
X7473965Y857839D01*
X7474335Y857377D01*
X7474890Y856822D01*
X7475537Y855897D01*
X7476369Y854880D01*
X7477294Y853586D01*
X7478311Y852107D01*
X7479328Y850443D01*
Y850350D01*
X7479420Y850258D01*
X7479790Y849703D01*
X7480252Y848778D01*
X7480807Y847669D01*
X7481454Y846374D01*
X7482101Y844988D01*
X7482749Y843601D01*
X7483303Y842214D01*
X7475722D01*
Y842306D01*
X7475537Y842491D01*
X7475445Y842861D01*
X7475167Y843323D01*
X7474890Y843878D01*
X7474520Y844525D01*
X7473595Y846097D01*
X7472578Y847946D01*
X7471284Y849795D01*
X7469805Y851737D01*
X7468233Y853679D01*
X7468141Y853771D01*
X7468048Y853863D01*
X7467771Y854141D01*
X7467493Y854511D01*
X7466569Y855343D01*
X7465459Y856452D01*
X7464165Y857562D01*
X7462686Y858764D01*
X7461206Y859781D01*
X7459635Y860705D01*
Y865790D01*
X7523891D01*
Y857931D01*
D02*
G37*
G36*
X7499298Y825202D02*
X7500223D01*
X7501332Y825110D01*
X7502442Y825017D01*
X7504938Y824740D01*
X7507527Y824370D01*
X7510023Y823815D01*
X7511225Y823445D01*
X7512334Y823076D01*
X7512427D01*
X7512612Y822983D01*
X7512889Y822798D01*
X7513259Y822613D01*
X7514276Y822059D01*
X7515570Y821226D01*
X7517050Y820117D01*
X7518529Y818823D01*
X7520101Y817158D01*
X7521488Y815124D01*
Y815032D01*
X7521673Y814847D01*
X7521765Y814570D01*
X7522042Y814107D01*
X7522320Y813553D01*
X7522597Y812813D01*
X7522874Y812073D01*
X7523244Y811149D01*
X7523614Y810132D01*
X7523891Y809022D01*
X7524169Y807820D01*
X7524446Y806433D01*
X7524631Y805047D01*
X7524816Y803567D01*
X7525001Y800239D01*
Y799407D01*
X7524908Y798760D01*
Y798020D01*
X7524816Y797095D01*
X7524724Y796078D01*
X7524631Y795061D01*
X7524261Y792750D01*
X7523707Y790254D01*
X7522967Y787850D01*
X7521950Y785538D01*
Y785446D01*
X7521765Y785261D01*
X7521580Y784984D01*
X7521395Y784614D01*
X7520656Y783597D01*
X7519639Y782395D01*
X7518344Y781008D01*
X7516865Y779714D01*
X7515016Y778419D01*
X7512982Y777402D01*
X7512889D01*
X7512704Y777310D01*
X7512334Y777217D01*
X7511872Y777032D01*
X7511317Y776848D01*
X7510578Y776663D01*
X7509746Y776385D01*
X7508729Y776200D01*
X7507619Y776015D01*
X7506417Y775738D01*
X7505123Y775553D01*
X7503736Y775368D01*
X7502164Y775183D01*
X7500500Y775091D01*
X7498743Y774998D01*
X7496894D01*
X7459912D01*
Y783504D01*
X7496894D01*
X7496987D01*
X7497264D01*
X7497726D01*
X7498281D01*
X7498928Y783597D01*
X7499760D01*
X7501517Y783689D01*
X7503551Y783874D01*
X7505585Y784152D01*
X7507527Y784521D01*
X7508359Y784706D01*
X7509191Y784984D01*
X7509376Y785076D01*
X7509838Y785261D01*
X7510485Y785723D01*
X7511410Y786278D01*
X7512334Y786925D01*
X7513351Y787850D01*
X7514369Y788959D01*
X7515201Y790254D01*
X7515293Y790439D01*
X7515570Y790901D01*
X7515848Y791733D01*
X7516218Y792842D01*
X7516680Y794137D01*
X7516957Y795801D01*
X7517235Y797558D01*
X7517327Y799499D01*
Y800424D01*
X7517235Y800979D01*
Y801811D01*
X7517142Y802643D01*
X7516772Y804677D01*
X7516310Y806896D01*
X7515570Y809022D01*
X7514553Y811056D01*
X7513906Y811981D01*
X7513167Y812813D01*
X7513074Y812905D01*
X7512982Y812998D01*
X7512704Y813183D01*
X7512334Y813460D01*
X7511780Y813738D01*
X7511225Y814107D01*
X7510393Y814477D01*
X7509561Y814847D01*
X7508544Y815217D01*
X7507342Y815494D01*
X7505955Y815864D01*
X7504476Y816141D01*
X7502812Y816419D01*
X7501055Y816604D01*
X7499021Y816789D01*
X7496894D01*
X7459912D01*
Y825295D01*
X7496894D01*
X7496987D01*
X7497357D01*
X7497819D01*
X7498466D01*
X7499298Y825202D01*
D02*
G37*
%LPC*%
G36*
X7495230Y919692D02*
X7492364D01*
X7492272D01*
X7492179D01*
X7491717D01*
X7490885D01*
X7489775Y919600D01*
X7488573D01*
X7487094Y919507D01*
X7485522Y919415D01*
X7483766Y919230D01*
X7480252Y918768D01*
X7478496Y918490D01*
X7476831Y918120D01*
X7475260Y917751D01*
X7473780Y917196D01*
X7472486Y916641D01*
X7471376Y915994D01*
X7471284D01*
X7471192Y915809D01*
X7470914Y915624D01*
X7470544Y915347D01*
X7469712Y914515D01*
X7468695Y913498D01*
X7467771Y912111D01*
X7466939Y910539D01*
X7466569Y909707D01*
X7466291Y908782D01*
X7466199Y907765D01*
X7466106Y906748D01*
Y906194D01*
X7466199Y905824D01*
X7466384Y904807D01*
X7466661Y903605D01*
X7467216Y902218D01*
X7468048Y900739D01*
X7468603Y899999D01*
X7469158Y899259D01*
X7469897Y898612D01*
X7470729Y897965D01*
X7470822D01*
X7471007Y897780D01*
X7471376Y897595D01*
X7471839Y897318D01*
X7472578Y897040D01*
X7473411Y896671D01*
X7474428Y896393D01*
X7475629Y896023D01*
X7477016Y895654D01*
X7478588Y895284D01*
X7480345Y894914D01*
X7482286Y894637D01*
X7484505Y894359D01*
X7486909Y894174D01*
X7489498Y894082D01*
X7492364Y893989D01*
X7492549D01*
X7493011D01*
X7493843D01*
X7494953Y894082D01*
X7496155D01*
X7497634Y894174D01*
X7499206Y894267D01*
X7500870Y894452D01*
X7504476Y894914D01*
X7506232Y895191D01*
X7507897Y895561D01*
X7509468Y895931D01*
X7510948Y896486D01*
X7512242Y897040D01*
X7513351Y897688D01*
X7513444D01*
X7513536Y897872D01*
X7514184Y898335D01*
X7515016Y899167D01*
X7515940Y900184D01*
X7516865Y901571D01*
X7517697Y903142D01*
X7518344Y904899D01*
X7518437Y905824D01*
X7518529Y906841D01*
Y907395D01*
X7518437Y907765D01*
X7518252Y908690D01*
X7517882Y909984D01*
X7517235Y911371D01*
X7516310Y912943D01*
X7515755Y913682D01*
X7515016Y914422D01*
X7514276Y915162D01*
X7513351Y915901D01*
X7513259D01*
X7513074Y916086D01*
X7512797Y916271D01*
X7512334Y916456D01*
X7511687Y916826D01*
X7510855Y917103D01*
X7509931Y917473D01*
X7508821Y917843D01*
X7507434Y918120D01*
X7505955Y918490D01*
X7504198Y918860D01*
X7502349Y919137D01*
X7500130Y919322D01*
X7497819Y919507D01*
X7495230Y919692D01*
D02*
G37*
%LPD*%
D81*
X7813000Y795000D02*
Y1105000D01*
X8137000D01*
Y795000D02*
Y1105000D01*
X7813000Y795000D02*
X8137000D01*
X7370000Y599690D02*
X7680000D01*
Y950310D01*
X7370000D02*
X7680000D01*
X7370000Y599690D02*
Y950310D01*
D148*
X7940000Y1372500D02*
X8160000D01*
X7940000Y1227500D02*
X8160000D01*
X7940000D02*
Y1372500D01*
X8160000Y1227500D02*
Y1372500D01*
X7822420Y2822600D02*
X8042420D01*
X7822420Y2687600D02*
X8042420D01*
X7822420D02*
Y2822600D01*
X8042420Y2687600D02*
Y2822600D01*
X4357500Y2715000D02*
X4492500D01*
X4357500Y2935000D02*
X4492500D01*
X4357500Y2715000D02*
Y2935000D01*
X4492500Y2715000D02*
Y2935000D01*
X3907500Y2715000D02*
X4042500D01*
X3907500Y2935000D02*
X4042500D01*
X3907500Y2715000D02*
Y2935000D01*
X4042500Y2715000D02*
Y2935000D01*
X4132500Y2715000D02*
X4267500D01*
X4132500Y2935000D02*
X4267500D01*
X4132500Y2715000D02*
Y2935000D01*
X4267500Y2715000D02*
Y2935000D01*
X3682500Y2715000D02*
X3817500D01*
X3682500Y2935000D02*
X3817500D01*
X3682500Y2715000D02*
Y2935000D01*
X3817500Y2715000D02*
Y2935000D01*
X3457500Y2715000D02*
X3592500D01*
X3457500Y2935000D02*
X3592500D01*
X3457500Y2715000D02*
Y2935000D01*
X3592500Y2715000D02*
Y2935000D01*
%TF.MD5,628ab2c25c20def093bb53aebd782583*%
M02*
