%TF.GenerationSoftware,Altium Limited,Altium Designer,21.0.8 (223)*%
G04 Layer_Color=8421504*
%FSLAX45Y45*%
%MOMM*%
%TF.SameCoordinates,ED3C5559-8931-45A1-834E-F7BCE4D23214*%
%TF.FilePolarity,Positive*%
%TF.FileFunction,Paste,Top*%
%TF.Part,Single*%
G01*
G75*
%TA.AperFunction,SMDPad,CuDef*%
%ADD10R,1.50000X1.20000*%
%ADD11R,1.20000X1.50000*%
%ADD12R,0.63000X0.83000*%
%ADD13R,0.80000X0.90000*%
%ADD14R,1.45000X1.50000*%
%ADD15R,0.52981X1.15564*%
G04:AMPARAMS|DCode=16|XSize=1.15564mm|YSize=0.52981mm|CornerRadius=0.2649mm|HoleSize=0mm|Usage=FLASHONLY|Rotation=90.000|XOffset=0mm|YOffset=0mm|HoleType=Round|Shape=RoundedRectangle|*
%AMROUNDEDRECTD16*
21,1,1.15564,0.00000,0,0,90.0*
21,1,0.62584,0.52981,0,0,90.0*
1,1,0.52980,0.00000,0.31292*
1,1,0.52980,0.00000,-0.31292*
1,1,0.52980,0.00000,-0.31292*
1,1,0.52980,0.00000,0.31292*
%
%ADD16ROUNDEDRECTD16*%
%ADD17R,1.50000X1.45000*%
G04:AMPARAMS|DCode=18|XSize=0.65mm|YSize=1.2mm|CornerRadius=0.04875mm|HoleSize=0mm|Usage=FLASHONLY|Rotation=90.000|XOffset=0mm|YOffset=0mm|HoleType=Round|Shape=RoundedRectangle|*
%AMROUNDEDRECTD18*
21,1,0.65000,1.10250,0,0,90.0*
21,1,0.55250,1.20000,0,0,90.0*
1,1,0.09750,0.55125,0.27625*
1,1,0.09750,0.55125,-0.27625*
1,1,0.09750,-0.55125,-0.27625*
1,1,0.09750,-0.55125,0.27625*
%
%ADD18ROUNDEDRECTD18*%
%ADD19R,1.10000X1.80000*%
%ADD20R,1.45000X0.60000*%
%ADD21R,1.45000X0.30000*%
G04:AMPARAMS|DCode=22|XSize=1.5mm|YSize=5mm|CornerRadius=0.375mm|HoleSize=0mm|Usage=FLASHONLY|Rotation=180.000|XOffset=0mm|YOffset=0mm|HoleType=Round|Shape=RoundedRectangle|*
%AMROUNDEDRECTD22*
21,1,1.50000,4.25000,0,0,180.0*
21,1,0.75000,5.00000,0,0,180.0*
1,1,0.75000,-0.37500,2.12500*
1,1,0.75000,0.37500,2.12500*
1,1,0.75000,0.37500,-2.12500*
1,1,0.75000,-0.37500,-2.12500*
%
%ADD22ROUNDEDRECTD22*%
%ADD23R,1.20000X1.40000*%
%ADD24R,1.00000X0.60000*%
%ADD25O,1.40000X0.25000*%
%ADD26R,0.40000X0.65000*%
G04:AMPARAMS|DCode=27|XSize=0.55mm|YSize=1.25mm|CornerRadius=0.0495mm|HoleSize=0mm|Usage=FLASHONLY|Rotation=270.000|XOffset=0mm|YOffset=0mm|HoleType=Round|Shape=RoundedRectangle|*
%AMROUNDEDRECTD27*
21,1,0.55000,1.15100,0,0,270.0*
21,1,0.45100,1.25000,0,0,270.0*
1,1,0.09900,-0.57550,-0.22550*
1,1,0.09900,-0.57550,0.22550*
1,1,0.09900,0.57550,0.22550*
1,1,0.09900,0.57550,-0.22550*
%
%ADD27ROUNDEDRECTD27*%
G04:AMPARAMS|DCode=28|XSize=0.55mm|YSize=0.8mm|CornerRadius=0.0495mm|HoleSize=0mm|Usage=FLASHONLY|Rotation=0.000|XOffset=0mm|YOffset=0mm|HoleType=Round|Shape=RoundedRectangle|*
%AMROUNDEDRECTD28*
21,1,0.55000,0.70100,0,0,0.0*
21,1,0.45100,0.80000,0,0,0.0*
1,1,0.09900,0.22550,-0.35050*
1,1,0.09900,-0.22550,-0.35050*
1,1,0.09900,-0.22550,0.35050*
1,1,0.09900,0.22550,0.35050*
%
%ADD28ROUNDEDRECTD28*%
G04:AMPARAMS|DCode=29|XSize=0.45mm|YSize=1.05mm|CornerRadius=0.0495mm|HoleSize=0mm|Usage=FLASHONLY|Rotation=0.000|XOffset=0mm|YOffset=0mm|HoleType=Round|Shape=RoundedRectangle|*
%AMROUNDEDRECTD29*
21,1,0.45000,0.95100,0,0,0.0*
21,1,0.35100,1.05000,0,0,0.0*
1,1,0.09900,0.17550,-0.47550*
1,1,0.09900,-0.17550,-0.47550*
1,1,0.09900,-0.17550,0.47550*
1,1,0.09900,0.17550,0.47550*
%
%ADD29ROUNDEDRECTD29*%
%ADD30O,1.80000X0.30000*%
%ADD31O,0.30000X1.80000*%
%ADD32R,1.35000X1.85000*%
%ADD33R,1.00000X1.40000*%
D10*
X7875000Y655000D02*
D03*
Y445000D02*
D03*
X6000000Y855000D02*
D03*
Y645000D02*
D03*
X6200000D02*
D03*
Y855000D02*
D03*
X5350000Y1595000D02*
D03*
Y1805000D02*
D03*
X4950000Y1595000D02*
D03*
Y1805000D02*
D03*
X6275000Y1780000D02*
D03*
Y1570000D02*
D03*
X6075000Y1780000D02*
D03*
Y1570000D02*
D03*
D11*
X9605000Y1125000D02*
D03*
X9395000D02*
D03*
X5310000Y3522500D02*
D03*
X5520000D02*
D03*
X6210001D02*
D03*
X6420001D02*
D03*
X7110001D02*
D03*
X7320001D02*
D03*
X8010000D02*
D03*
X8220001D02*
D03*
X6405000Y2700000D02*
D03*
X6195000D02*
D03*
X5255000Y2375000D02*
D03*
X5045000D02*
D03*
X4220000Y2050000D02*
D03*
X4430000D02*
D03*
X4220000Y1850000D02*
D03*
X4430000D02*
D03*
X4430000Y1625000D02*
D03*
X4220000D02*
D03*
X3717500Y1580000D02*
D03*
X3507500D02*
D03*
X9230000Y3100000D02*
D03*
X9020000D02*
D03*
X9230000Y3275000D02*
D03*
X9020000D02*
D03*
X9230000Y3450000D02*
D03*
X9020000D02*
D03*
X9230000Y3625000D02*
D03*
X9020000D02*
D03*
D12*
X9436500Y1300000D02*
D03*
X9213500D02*
D03*
D13*
X8050000Y1025000D02*
D03*
X8145000Y825000D02*
D03*
X7955000D02*
D03*
D14*
X7482500Y1100000D02*
D03*
X7667500D02*
D03*
X7082500D02*
D03*
X7267500D02*
D03*
X6767500D02*
D03*
X6582500D02*
D03*
X7432500Y500000D02*
D03*
X7617500D02*
D03*
X5957500Y3522500D02*
D03*
X5772501D02*
D03*
X6857500D02*
D03*
X6672500D02*
D03*
X7757500D02*
D03*
X7572500D02*
D03*
X8842500Y2350000D02*
D03*
X8657500D02*
D03*
X7642500Y2700000D02*
D03*
X7457500D02*
D03*
X7082500D02*
D03*
X7267500D02*
D03*
X6607500D02*
D03*
X6792500D02*
D03*
X6082500Y2400000D02*
D03*
X6267500D02*
D03*
X6067500Y1375000D02*
D03*
X5882500D02*
D03*
X4057500Y675000D02*
D03*
X4242500D02*
D03*
X2467500Y1450000D02*
D03*
X2282500D02*
D03*
X3717500Y1875000D02*
D03*
X3532500D02*
D03*
X4417500Y1425000D02*
D03*
X4232500D02*
D03*
X2282500Y150000D02*
D03*
X2467500D02*
D03*
X8657500Y1800000D02*
D03*
X8842500D02*
D03*
D15*
X7430000Y667472D02*
D03*
D16*
X7525000D02*
D03*
X7620000D02*
D03*
Y882528D02*
D03*
X7430000D02*
D03*
D17*
X7225000Y842500D02*
D03*
Y657500D02*
D03*
X6875000D02*
D03*
Y842500D02*
D03*
X7825000Y1582500D02*
D03*
Y1767500D02*
D03*
Y2167500D02*
D03*
Y1982500D02*
D03*
X5925000Y2007500D02*
D03*
Y2192500D02*
D03*
X5875000Y1582500D02*
D03*
Y1767500D02*
D03*
X3050000Y807500D02*
D03*
Y992500D02*
D03*
X2825000Y807500D02*
D03*
Y992500D02*
D03*
X3500000Y1132500D02*
D03*
Y1317500D02*
D03*
X3725000Y1132500D02*
D03*
Y1317500D02*
D03*
X5450000Y1032500D02*
D03*
Y1217500D02*
D03*
X5175000Y1032500D02*
D03*
Y1217500D02*
D03*
X4900000Y1032500D02*
D03*
Y1217500D02*
D03*
X8265000Y3315000D02*
D03*
Y3130000D02*
D03*
X7365000Y3315000D02*
D03*
Y3130000D02*
D03*
X6465000Y3315000D02*
D03*
Y3130000D02*
D03*
X5565000Y3315000D02*
D03*
Y3130000D02*
D03*
D18*
X6377500Y845000D02*
D03*
Y750000D02*
D03*
Y655000D02*
D03*
X6672500D02*
D03*
Y845000D02*
D03*
X2522500Y1220000D02*
D03*
Y1030000D02*
D03*
X2227500D02*
D03*
Y1125000D02*
D03*
Y1220000D02*
D03*
D19*
X6909501Y4620099D02*
D03*
X7389500D02*
D03*
X6909500Y3820100D02*
D03*
X7389500Y3820101D02*
D03*
X7809501Y4620099D02*
D03*
X8289500D02*
D03*
X7809500Y3820100D02*
D03*
X8289500Y3820101D02*
D03*
X6009501Y4620099D02*
D03*
X6489500D02*
D03*
X6009500Y3820100D02*
D03*
X6489500Y3820101D02*
D03*
X5109501Y4620099D02*
D03*
X5589500D02*
D03*
X5109500Y3820100D02*
D03*
X5589500Y3820101D02*
D03*
D20*
X9272500Y1755000D02*
D03*
Y1675000D02*
D03*
Y2245000D02*
D03*
Y2325000D02*
D03*
D21*
Y1925000D02*
D03*
Y1875000D02*
D03*
Y1825000D02*
D03*
Y2075000D02*
D03*
Y2125000D02*
D03*
Y2175000D02*
D03*
Y2025000D02*
D03*
Y1975000D02*
D03*
D22*
X3675001Y725000D02*
D03*
X3325000D02*
D03*
D23*
X6255000Y1990000D02*
D03*
Y2210000D02*
D03*
X6095000Y1990000D02*
D03*
Y2210000D02*
D03*
D24*
X2255000Y355000D02*
D03*
Y545000D02*
D03*
X2495000D02*
D03*
Y450000D02*
D03*
Y355000D02*
D03*
D25*
X8970000Y1975000D02*
D03*
Y2025000D02*
D03*
Y2075000D02*
D03*
Y2125000D02*
D03*
Y2175000D02*
D03*
X8530000Y1975000D02*
D03*
Y2025000D02*
D03*
Y2075000D02*
D03*
Y2125000D02*
D03*
Y2175000D02*
D03*
D26*
X4040000Y1695000D02*
D03*
X3975000D02*
D03*
X3910000D02*
D03*
Y1505000D02*
D03*
X3975000D02*
D03*
X4040000D02*
D03*
D27*
X3887500Y1240500D02*
D03*
Y1113500D02*
D03*
Y986500D02*
D03*
Y859500D02*
D03*
X4412500Y1240500D02*
D03*
Y1113500D02*
D03*
Y986500D02*
D03*
Y859500D02*
D03*
D28*
X5360000Y3350000D02*
D03*
X5265000D02*
D03*
X5170001D02*
D03*
Y3095000D02*
D03*
X5360000D02*
D03*
X6260000Y3350000D02*
D03*
X6165000D02*
D03*
X6070001D02*
D03*
Y3095000D02*
D03*
X6260000D02*
D03*
X7160000Y3350000D02*
D03*
X7065000D02*
D03*
X6970001D02*
D03*
Y3095000D02*
D03*
X7160000D02*
D03*
X8060000Y3350000D02*
D03*
X7965000D02*
D03*
X7870001D02*
D03*
Y3095000D02*
D03*
X8060000D02*
D03*
D29*
X5930000Y3345000D02*
D03*
X5865000D02*
D03*
X5800000D02*
D03*
Y3100000D02*
D03*
X5930000D02*
D03*
X6700000Y3100000D02*
D03*
X6765000D02*
D03*
X6830000D02*
D03*
Y3345000D02*
D03*
X6700000D02*
D03*
X7600000Y3100000D02*
D03*
X7665000D02*
D03*
X7730000D02*
D03*
Y3345000D02*
D03*
X7600000D02*
D03*
D30*
X6495000Y2250000D02*
D03*
Y2200000D02*
D03*
Y2150000D02*
D03*
Y2100000D02*
D03*
Y2050000D02*
D03*
Y2000000D02*
D03*
Y1950000D02*
D03*
Y1900000D02*
D03*
Y1850000D02*
D03*
Y1800000D02*
D03*
Y1750000D02*
D03*
Y1700000D02*
D03*
Y1650000D02*
D03*
Y1600000D02*
D03*
Y1550000D02*
D03*
Y1500000D02*
D03*
X7605000D02*
D03*
Y1550000D02*
D03*
Y1600000D02*
D03*
Y1650000D02*
D03*
Y1700000D02*
D03*
Y1750000D02*
D03*
Y1800000D02*
D03*
Y1850000D02*
D03*
Y1900000D02*
D03*
Y1950000D02*
D03*
Y2000000D02*
D03*
Y2050000D02*
D03*
Y2100000D02*
D03*
Y2150000D02*
D03*
Y2200000D02*
D03*
Y2250000D02*
D03*
D31*
X6675000Y1320000D02*
D03*
X6725000D02*
D03*
X6775000D02*
D03*
X6825000D02*
D03*
X6875000D02*
D03*
X6925000D02*
D03*
X6975000D02*
D03*
X7025000D02*
D03*
X7075000D02*
D03*
X7125000D02*
D03*
X7175000D02*
D03*
X7225000D02*
D03*
X7275000D02*
D03*
X7325000D02*
D03*
X7375000D02*
D03*
X7425000D02*
D03*
Y2430000D02*
D03*
X7375000D02*
D03*
X7325000D02*
D03*
X7275000D02*
D03*
X7225000D02*
D03*
X7175000D02*
D03*
X7125000D02*
D03*
X7075000D02*
D03*
X7025000D02*
D03*
X6975000D02*
D03*
X6925000D02*
D03*
X6875000D02*
D03*
X6825000D02*
D03*
X6775000D02*
D03*
X6725000D02*
D03*
X6675000D02*
D03*
D32*
X2222500Y800000D02*
D03*
X2527500D02*
D03*
D33*
X5445000Y2185000D02*
D03*
X5350000Y1965000D02*
D03*
X5255000Y2185000D02*
D03*
X5045000D02*
D03*
X4950000Y1965000D02*
D03*
X4855000Y2185000D02*
D03*
%TF.MD5,57be2d13c038fb13317362c64855cde6*%
M02*
