%TF.GenerationSoftware,Altium Limited,Altium Designer,21.0.9 (235)*%
G04 Layer_Color=8388736*
%FSLAX45Y45*%
%MOMM*%
%TF.SameCoordinates,158FC4AE-840B-470E-B714-2E0BDA5EE684*%
%TF.FilePolarity,Negative*%
%TF.FileFunction,Soldermask,Top*%
%TF.Part,Single*%
G01*
G75*
%TA.AperFunction,SMDPad,CuDef*%
%ADD23R,0.80000X0.90000*%
G04:AMPARAMS|DCode=24|XSize=1.15564mm|YSize=0.52981mm|CornerRadius=0.2649mm|HoleSize=0mm|Usage=FLASHONLY|Rotation=90.000|XOffset=0mm|YOffset=0mm|HoleType=Round|Shape=RoundedRectangle|*
%AMROUNDEDRECTD24*
21,1,1.15564,0.00000,0,0,90.0*
21,1,0.62584,0.52981,0,0,90.0*
1,1,0.52980,0.00000,0.31292*
1,1,0.52980,0.00000,-0.31292*
1,1,0.52980,0.00000,-0.31292*
1,1,0.52980,0.00000,0.31292*
%
%ADD24ROUNDEDRECTD24*%
%ADD25R,0.52981X1.15564*%
%ADD83R,1.70320X1.65320*%
%ADD84R,1.70320X1.40320*%
%ADD85R,1.40320X1.70320*%
%TA.AperFunction,ComponentPad*%
%ADD87C,1.25320*%
%ADD88R,1.25320X1.25320*%
%ADD89R,2.00320X2.00320*%
%TA.AperFunction,ViaPad*%
%ADD90C,3.20320*%
%TA.AperFunction,ComponentPad*%
%ADD91O,1.80320X1.20320*%
%ADD92O,2.30320X1.20320*%
%ADD93C,1.05320*%
%ADD94C,2.00320*%
%ADD95O,22.20320X0.70320*%
%TA.AperFunction,ViaPad*%
%ADD96C,1.47320*%
%ADD97C,0.65320*%
%TA.AperFunction,SMDPad,CuDef*%
%ADD126R,1.25320X0.80320*%
G04:AMPARAMS|DCode=127|XSize=1.5032mm|YSize=0.9632mm|CornerRadius=0.1966mm|HoleSize=0mm|Usage=FLASHONLY|Rotation=270.000|XOffset=0mm|YOffset=0mm|HoleType=Round|Shape=RoundedRectangle|*
%AMROUNDEDRECTD127*
21,1,1.50320,0.57000,0,0,270.0*
21,1,1.11000,0.96320,0,0,270.0*
1,1,0.39320,-0.28500,-0.55500*
1,1,0.39320,-0.28500,0.55500*
1,1,0.39320,0.28500,0.55500*
1,1,0.39320,0.28500,-0.55500*
%
%ADD127ROUNDEDRECTD127*%
%ADD128R,1.30320X2.00320*%
%ADD129R,0.83320X1.03320*%
%ADD130R,2.36220X2.94620*%
%ADD131R,1.40320X1.30320*%
G04:AMPARAMS|DCode=132|XSize=1.5032mm|YSize=0.9632mm|CornerRadius=0.1966mm|HoleSize=0mm|Usage=FLASHONLY|Rotation=180.000|XOffset=0mm|YOffset=0mm|HoleType=Round|Shape=RoundedRectangle|*
%AMROUNDEDRECTD132*
21,1,1.50320,0.57000,0,0,180.0*
21,1,1.11000,0.96320,0,0,180.0*
1,1,0.39320,-0.55500,0.28500*
1,1,0.39320,0.55500,0.28500*
1,1,0.39320,0.55500,-0.28500*
1,1,0.39320,-0.55500,-0.28500*
%
%ADD132ROUNDEDRECTD132*%
G04:AMPARAMS|DCode=133|XSize=0.7532mm|YSize=1.0032mm|CornerRadius=0.1511mm|HoleSize=0mm|Usage=FLASHONLY|Rotation=0.000|XOffset=0mm|YOffset=0mm|HoleType=Round|Shape=RoundedRectangle|*
%AMROUNDEDRECTD133*
21,1,0.75320,0.70100,0,0,0.0*
21,1,0.45100,1.00320,0,0,0.0*
1,1,0.30220,0.22550,-0.35050*
1,1,0.30220,-0.22550,-0.35050*
1,1,0.30220,-0.22550,0.35050*
1,1,0.30220,0.22550,0.35050*
%
%ADD133ROUNDEDRECTD133*%
G04:AMPARAMS|DCode=134|XSize=0.6532mm|YSize=1.2532mm|CornerRadius=0.1511mm|HoleSize=0mm|Usage=FLASHONLY|Rotation=180.000|XOffset=0mm|YOffset=0mm|HoleType=Round|Shape=RoundedRectangle|*
%AMROUNDEDRECTD134*
21,1,0.65320,0.95100,0,0,180.0*
21,1,0.35100,1.25320,0,0,180.0*
1,1,0.30220,-0.17550,0.47550*
1,1,0.30220,0.17550,0.47550*
1,1,0.30220,0.17550,-0.47550*
1,1,0.30220,-0.17550,-0.47550*
%
%ADD134ROUNDEDRECTD134*%
%ADD135R,1.65320X1.70320*%
%ADD136R,1.20320X1.60320*%
%ADD137R,0.60320X0.85320*%
%ADD138R,1.20320X0.80320*%
%ADD139R,1.55320X2.05320*%
%ADD140O,0.50320X2.00320*%
%ADD141O,2.00320X0.50320*%
%TA.AperFunction,ConnectorPad*%
%ADD142R,1.65320X0.80320*%
%ADD143R,1.65320X0.50320*%
%TA.AperFunction,SMDPad,CuDef*%
G04:AMPARAMS|DCode=144|XSize=1.7032mm|YSize=5.2032mm|CornerRadius=0.4766mm|HoleSize=0mm|Usage=FLASHONLY|Rotation=180.000|XOffset=0mm|YOffset=0mm|HoleType=Round|Shape=RoundedRectangle|*
%AMROUNDEDRECTD144*
21,1,1.70320,4.25000,0,0,180.0*
21,1,0.75000,5.20320,0,0,180.0*
1,1,0.95320,-0.37500,2.12500*
1,1,0.95320,0.37500,2.12500*
1,1,0.95320,0.37500,-2.12500*
1,1,0.95320,-0.37500,-2.12500*
%
%ADD144ROUNDEDRECTD144*%
%ADD145R,1.40320X1.60320*%
%ADD146O,1.60320X0.45320*%
G04:AMPARAMS|DCode=147|XSize=0.7532mm|YSize=1.4532mm|CornerRadius=0.1511mm|HoleSize=0mm|Usage=FLASHONLY|Rotation=270.000|XOffset=0mm|YOffset=0mm|HoleType=Round|Shape=RoundedRectangle|*
%AMROUNDEDRECTD147*
21,1,0.75320,1.15100,0,0,270.0*
21,1,0.45100,1.45320,0,0,270.0*
1,1,0.30220,-0.57550,-0.22550*
1,1,0.30220,-0.57550,0.22550*
1,1,0.30220,0.57550,0.22550*
1,1,0.30220,0.57550,-0.22550*
%
%ADD147ROUNDEDRECTD147*%
D23*
X7880000Y850000D02*
D03*
X8070000D02*
D03*
X7975000Y1050000D02*
D03*
D24*
X7430000Y882528D02*
D03*
X7620000D02*
D03*
Y667472D02*
D03*
X7525000D02*
D03*
D25*
X7430000D02*
D03*
D83*
X6500000Y3057500D02*
D03*
Y3242500D02*
D03*
X7450000Y3057500D02*
D03*
Y3242500D02*
D03*
X8425000Y3082500D02*
D03*
Y3267500D02*
D03*
X3417339Y1131780D02*
D03*
Y1316780D02*
D03*
X5550000Y3267500D02*
D03*
Y3082500D02*
D03*
X7875000Y1792500D02*
D03*
Y1607500D02*
D03*
Y2057500D02*
D03*
Y2242500D02*
D03*
X5800000D02*
D03*
Y2057500D02*
D03*
X5675000Y1792500D02*
D03*
Y1607500D02*
D03*
X6950000Y842500D02*
D03*
Y657500D02*
D03*
X7225000D02*
D03*
Y842500D02*
D03*
X6675000D02*
D03*
Y657500D02*
D03*
X5450000Y1217500D02*
D03*
Y1032500D02*
D03*
X5175000Y1217500D02*
D03*
Y1032500D02*
D03*
X4900000Y1217500D02*
D03*
Y1032500D02*
D03*
X3675000Y1317500D02*
D03*
Y1132500D02*
D03*
X3050000Y992500D02*
D03*
Y807500D02*
D03*
X2825000Y992500D02*
D03*
Y807500D02*
D03*
D84*
X5175000Y1595000D02*
D03*
Y1805000D02*
D03*
X4625000Y1230000D02*
D03*
Y1020000D02*
D03*
X5950000Y1595000D02*
D03*
Y1805000D02*
D03*
X6225000Y1595000D02*
D03*
Y1805000D02*
D03*
X7875000Y445000D02*
D03*
Y655000D02*
D03*
X5875000Y855000D02*
D03*
Y645000D02*
D03*
X5600000D02*
D03*
Y855000D02*
D03*
X4900000Y1805000D02*
D03*
Y1595000D02*
D03*
D85*
X5320000Y3550000D02*
D03*
X5530000D02*
D03*
X9605000Y1125000D02*
D03*
X9395000D02*
D03*
X8230000Y3550000D02*
D03*
X8020000D02*
D03*
X7330000D02*
D03*
X7120000D02*
D03*
X6430000D02*
D03*
X6220000D02*
D03*
X6122280Y2755120D02*
D03*
X6332280D02*
D03*
X9020000Y2950000D02*
D03*
X9230000D02*
D03*
X9020000Y3225000D02*
D03*
X9230000D02*
D03*
X9020000Y3500000D02*
D03*
X9230000D02*
D03*
X9020000Y3775000D02*
D03*
X9230000D02*
D03*
X5245000Y2200000D02*
D03*
X5455000D02*
D03*
X4430000Y2300000D02*
D03*
X4220000D02*
D03*
X4430000Y2025000D02*
D03*
X4220000D02*
D03*
Y1750000D02*
D03*
X4430000D02*
D03*
X3520000Y1575000D02*
D03*
X3730000D02*
D03*
D87*
X9363500Y4125000D02*
D03*
X9713500Y3756000D02*
D03*
X9586500D02*
D03*
X9713500Y3629000D02*
D03*
Y3502000D02*
D03*
X9586500Y3629000D02*
D03*
Y3502000D02*
D03*
X9713500Y3375000D02*
D03*
X9586500D02*
D03*
X9713500Y3248000D02*
D03*
Y3121000D02*
D03*
Y2994000D02*
D03*
X9586500Y3248000D02*
D03*
Y3121000D02*
D03*
Y2994000D02*
D03*
X8813500Y1386500D02*
D03*
X8686500D02*
D03*
X8813500Y1513500D02*
D03*
X8686500D02*
D03*
D88*
X9236500Y4125000D02*
D03*
D89*
X8476000Y558800D02*
D03*
X1016000D02*
D03*
D90*
X250000Y250000D02*
D03*
X9750000D02*
D03*
Y4750000D02*
D03*
X250000D02*
D03*
D91*
X9782000Y1568000D02*
D03*
Y2432000D02*
D03*
D92*
X9364000D02*
D03*
Y1568000D02*
D03*
D93*
X9417000Y2289000D02*
D03*
Y1711000D02*
D03*
D94*
X8984000Y558800D02*
D03*
X1524000D02*
D03*
D95*
X1584500Y2197600D02*
D03*
D96*
X4350000Y225000D02*
D03*
X4475000Y700000D02*
D03*
X5350000D02*
D03*
Y325000D02*
D03*
X5050000D02*
D03*
X4750000D02*
D03*
X5050000Y700000D02*
D03*
X4750000D02*
D03*
X4900000Y450000D02*
D03*
X5200000D02*
D03*
Y800000D02*
D03*
X4900000D02*
D03*
X4600000D02*
D03*
X8600000Y225000D02*
D03*
X8300000D02*
D03*
X9750000Y1100000D02*
D03*
Y850000D02*
D03*
Y600000D02*
D03*
X9100000Y250000D02*
D03*
X9350000D02*
D03*
X9750000Y1350000D02*
D03*
Y2600000D02*
D03*
Y4150000D02*
D03*
Y4400000D02*
D03*
X1850000Y1100000D02*
D03*
Y1350000D02*
D03*
Y1600000D02*
D03*
Y1850000D02*
D03*
X1600000D02*
D03*
X1350000D02*
D03*
X1100000D02*
D03*
X850000D02*
D03*
X600000D02*
D03*
Y1600000D02*
D03*
Y1350000D02*
D03*
Y1100000D02*
D03*
Y850000D02*
D03*
Y600000D02*
D03*
Y250000D02*
D03*
X850000D02*
D03*
X1100000D02*
D03*
X1350000D02*
D03*
X1600000D02*
D03*
X1850000D02*
D03*
X8600000Y4750000D02*
D03*
X8850000D02*
D03*
X9100000D02*
D03*
X9350000D02*
D03*
X4600000D02*
D03*
X4850000D02*
D03*
X7600000D02*
D03*
X600000D02*
D03*
X850000D02*
D03*
X1100000D02*
D03*
X1350000D02*
D03*
X1600000D02*
D03*
X1850000D02*
D03*
X2100000D02*
D03*
X2350000D02*
D03*
X2600000D02*
D03*
X2850000D02*
D03*
X3100000D02*
D03*
X3350000D02*
D03*
X3600000D02*
D03*
X3850000D02*
D03*
X4100000D02*
D03*
X4350000D02*
D03*
X250000Y4350000D02*
D03*
Y4100000D02*
D03*
Y3850000D02*
D03*
Y3600000D02*
D03*
Y3350000D02*
D03*
Y3100000D02*
D03*
Y2850000D02*
D03*
Y2600000D02*
D03*
Y2350000D02*
D03*
Y2100000D02*
D03*
Y1850000D02*
D03*
Y1600000D02*
D03*
Y1350000D02*
D03*
Y1100000D02*
D03*
Y850000D02*
D03*
Y600000D02*
D03*
X4600000Y225000D02*
D03*
X4900000D02*
D03*
X5200000D02*
D03*
X5500000D02*
D03*
X5800000D02*
D03*
X6100000D02*
D03*
X6400000D02*
D03*
X6700000D02*
D03*
X7000000D02*
D03*
X7300000D02*
D03*
X7600000D02*
D03*
X7900000D02*
D03*
D97*
X8532940Y3082500D02*
D03*
X7555840Y3057500D02*
D03*
X7203440Y3180080D02*
D03*
X6605880Y3057500D02*
D03*
X5657500Y3082500D02*
D03*
X8250000Y1300000D02*
D03*
X8185000Y450000D02*
D03*
X8335000D02*
D03*
X8185000Y375000D02*
D03*
X8335000D02*
D03*
X8485000D02*
D03*
X8635000D02*
D03*
X8785000Y450000D02*
D03*
X8635000D02*
D03*
X8785000Y375000D02*
D03*
X1325000D02*
D03*
X1175000Y450000D02*
D03*
X1250000D02*
D03*
X1325000D02*
D03*
X1250000Y375000D02*
D03*
X1175000D02*
D03*
X1100000D02*
D03*
X1025000D02*
D03*
X950000D02*
D03*
X875000D02*
D03*
X800000D02*
D03*
X725000D02*
D03*
X875000Y450000D02*
D03*
X800000D02*
D03*
X725000D02*
D03*
X2327500Y800000D02*
D03*
X2122500D02*
D03*
X7660000Y3380000D02*
D03*
X8542500Y2397500D02*
D03*
X8547500Y1750000D02*
D03*
X5890000Y2957500D02*
D03*
X5992500Y2755000D02*
D03*
X1225000Y3557500D02*
D03*
X1372500Y3420000D02*
D03*
X1925000Y3877500D02*
D03*
X1650000Y3875000D02*
D03*
X7063100Y546900D02*
D03*
X7557500Y560000D02*
D03*
X7359969Y1256446D02*
D03*
X6887500Y2747500D02*
D03*
X6739189Y2590458D02*
D03*
X6675000Y2601510D02*
D03*
X6140000Y2372500D02*
D03*
X5927500Y2000000D02*
D03*
X5560202Y1032500D02*
D03*
X6957502Y1210203D02*
D03*
X9605000Y1235202D02*
D03*
X8842502Y1860205D02*
D03*
Y2289800D02*
D03*
X8019999Y3439800D02*
D03*
X7767498D02*
D03*
X7582499D02*
D03*
X7120001D02*
D03*
X6867500D02*
D03*
X6682501D02*
D03*
X6219998D02*
D03*
X5967501D02*
D03*
X5782498D02*
D03*
X5320000Y3660201D02*
D03*
X5130002Y3227299D02*
D03*
X5439797Y3267502D02*
D03*
X6079998Y3227299D02*
D03*
X6389796Y3242502D02*
D03*
X6709999Y3209798D02*
D03*
X7339800Y3242502D02*
D03*
X7979999Y3227299D02*
D03*
X8314799Y3267502D02*
D03*
X8022422Y2654899D02*
D03*
X6727100Y1227500D02*
D03*
X6815000Y1100000D02*
D03*
X7302500D02*
D03*
X6032297Y750001D02*
D03*
X5785201Y1607500D02*
D03*
X5910204Y2242500D02*
D03*
X7592502Y1210203D02*
D03*
X6507500D02*
D03*
X7267499Y2860203D02*
D03*
X7082500Y2639797D02*
D03*
X7642499D02*
D03*
X7457501D02*
D03*
X5832500Y1460200D02*
D03*
X6785204Y842498D02*
D03*
X6564798Y657499D02*
D03*
X5839800Y1805000D02*
D03*
X6114796Y1594998D02*
D03*
X5710204Y645003D02*
D03*
X8037500Y1602500D02*
D03*
Y1792500D02*
D03*
X7757500Y2237500D02*
D03*
X8037500Y2057500D02*
D03*
Y2242500D02*
D03*
X3911600Y1600200D02*
D03*
X3864970Y2029460D02*
D03*
X1478280Y3258820D02*
D03*
X6873240Y2347870D02*
D03*
X5847080Y2500270D02*
D03*
X5890260Y2458720D02*
D03*
X6972300Y2346960D02*
D03*
X6288099Y1091259D02*
D03*
X6337300Y1216660D02*
D03*
X6654800Y1765300D02*
D03*
X6774180Y3131820D02*
D03*
X5819140Y3119120D02*
D03*
X6423660Y2374900D02*
D03*
X6550660Y2545080D02*
D03*
X6769100Y2639800D02*
D03*
X5521661Y2646320D02*
D03*
X7127240Y3106420D02*
D03*
X7724140Y3130910D02*
D03*
X6875780Y2616200D02*
D03*
X7625080Y2938780D02*
D03*
X7226300Y2628900D02*
D03*
X7406640Y2872740D02*
D03*
X7140723Y2046810D02*
D03*
X7124700Y2362200D02*
D03*
X7455398Y2149963D02*
D03*
X7122160Y2279460D02*
D03*
X7307580Y2237740D02*
D03*
X7188030Y2237910D02*
D03*
X6378310Y1899550D02*
D03*
X6283960Y1930400D02*
D03*
X6972300Y3180080D02*
D03*
X9730800Y1869440D02*
D03*
X9731948Y2124338D02*
D03*
X9514840Y2120900D02*
D03*
X8608060Y1592580D02*
D03*
X6355080Y1648460D02*
D03*
X5824220Y1701800D02*
D03*
X4173530Y1592270D02*
D03*
X7117080Y840740D02*
D03*
X7106920Y660400D02*
D03*
X3305699Y1315000D02*
D03*
X1700000Y1425000D02*
D03*
X4424680Y2575560D02*
D03*
X5427980Y2654300D02*
D03*
X3246120Y1978660D02*
D03*
X3205480Y1229360D02*
D03*
X4196080Y858520D02*
D03*
X3116183Y1318260D02*
D03*
X3162300Y1272540D02*
D03*
X2606040Y355600D02*
D03*
X3975000Y2575000D02*
D03*
X4200000D02*
D03*
X3750000D02*
D03*
X3525000D02*
D03*
X2341880Y353060D02*
D03*
X2410460Y449580D02*
D03*
X3683450Y1425200D02*
D03*
X5173980Y1338580D02*
D03*
X5311140D02*
D03*
X5036820D02*
D03*
X5448300D02*
D03*
X4899660D02*
D03*
X7807960Y3954780D02*
D03*
Y4500880D02*
D03*
X6911340Y3952240D02*
D03*
Y4498340D02*
D03*
X6009640Y3952240D02*
D03*
Y4498340D02*
D03*
X568960Y2786380D02*
D03*
X1059180D02*
D03*
X1201420D02*
D03*
X1343660D02*
D03*
X1409700D02*
D03*
X1620520D02*
D03*
X1689100D02*
D03*
X1968500D02*
D03*
X2039620D02*
D03*
X2110740D02*
D03*
X2600960D02*
D03*
X2529840D02*
D03*
X2250440D02*
D03*
X2179320D02*
D03*
X5110480Y4498340D02*
D03*
Y3952240D02*
D03*
X2176780Y1450340D02*
D03*
X4018280Y1767840D02*
D03*
X3830320Y1877060D02*
D03*
X4853940Y2376640D02*
D03*
X9514840Y1871980D02*
D03*
X2583180Y152400D02*
D03*
X6901360Y954220D02*
D03*
X1798320Y2677160D02*
D03*
X1913890Y2622867D02*
D03*
X4117340Y2299780D02*
D03*
X4119880Y1474940D02*
D03*
X3992880Y988060D02*
D03*
X3975100Y1620520D02*
D03*
X3416300Y1874520D02*
D03*
X3416100Y1572340D02*
D03*
X3048000Y1107440D02*
D03*
X2821940D02*
D03*
X2115820Y1125220D02*
D03*
X9403440Y2024380D02*
D03*
X9405620Y1925320D02*
D03*
D126*
X2512500Y1220000D02*
D03*
Y1030000D02*
D03*
X2237500D02*
D03*
Y1125000D02*
D03*
Y1220000D02*
D03*
X6412500Y845000D02*
D03*
Y655000D02*
D03*
X6137500D02*
D03*
Y750000D02*
D03*
Y845000D02*
D03*
D127*
X7961000Y1300000D02*
D03*
X8140000D02*
D03*
X7843420Y2755100D02*
D03*
X8022420D02*
D03*
D128*
X5109501Y4620099D02*
D03*
X5589500D02*
D03*
X5109500Y3820100D02*
D03*
X5589500Y3820101D02*
D03*
X6909501Y4620099D02*
D03*
X7389500D02*
D03*
X6909500Y3820100D02*
D03*
X7389500Y3820101D02*
D03*
X7809501Y4620099D02*
D03*
X8289500D02*
D03*
X7809500Y3820100D02*
D03*
X8289500Y3820101D02*
D03*
X6009501Y4620099D02*
D03*
X6489500D02*
D03*
X6009500Y3820100D02*
D03*
X6489500Y3820101D02*
D03*
D129*
X5813500Y1075000D02*
D03*
X6036500D02*
D03*
X9213500Y1350000D02*
D03*
X9436500D02*
D03*
D130*
X1054000Y1425000D02*
D03*
X1496000D02*
D03*
D131*
X4425000Y3355000D02*
D03*
Y3145000D02*
D03*
X4200000Y3355000D02*
D03*
Y3145000D02*
D03*
X3975000Y3355000D02*
D03*
Y3145000D02*
D03*
X3749976Y3354999D02*
D03*
Y3144999D02*
D03*
X3525000Y3355000D02*
D03*
Y3145000D02*
D03*
D132*
X4425000Y2735000D02*
D03*
Y2914000D02*
D03*
X3975000Y2735000D02*
D03*
Y2914000D02*
D03*
X4200000Y2735000D02*
D03*
Y2914000D02*
D03*
X3750000Y2735000D02*
D03*
Y2914000D02*
D03*
X3525000Y2735000D02*
D03*
Y2914000D02*
D03*
D133*
X8170000Y3047500D02*
D03*
X7980000D02*
D03*
Y3302500D02*
D03*
X8075000D02*
D03*
X8170000D02*
D03*
X7220000Y3047500D02*
D03*
X7030000D02*
D03*
Y3302500D02*
D03*
X7125000D02*
D03*
X7220000D02*
D03*
X6270000Y3047500D02*
D03*
X6080000D02*
D03*
Y3302500D02*
D03*
X6175000D02*
D03*
X6270000D02*
D03*
X5130000Y3047500D02*
D03*
X5320000Y3302500D02*
D03*
X5225000D02*
D03*
X5130000D02*
D03*
X5320000Y3047500D02*
D03*
D134*
X7660000Y3297500D02*
D03*
X7790000D02*
D03*
Y3052500D02*
D03*
X7725000D02*
D03*
X7660000D02*
D03*
X6710000Y3297500D02*
D03*
X6840000D02*
D03*
Y3052500D02*
D03*
X6775000D02*
D03*
X6710000D02*
D03*
X5890000Y3052500D02*
D03*
X5760000D02*
D03*
Y3297500D02*
D03*
X5825000D02*
D03*
X5890000D02*
D03*
D135*
X7582500Y3550000D02*
D03*
X7767500D02*
D03*
X6682500D02*
D03*
X6867500D02*
D03*
X5782500D02*
D03*
X5967500D02*
D03*
X7457500Y2750000D02*
D03*
X7642500D02*
D03*
X7267500D02*
D03*
X7082500D02*
D03*
X6792500D02*
D03*
X6607500D02*
D03*
X6217500Y2500000D02*
D03*
X6032500D02*
D03*
X5832500Y1350000D02*
D03*
X6017500D02*
D03*
X8657500Y2400000D02*
D03*
X8842500D02*
D03*
Y1750000D02*
D03*
X8657500D02*
D03*
X7592500Y1100000D02*
D03*
X7407500D02*
D03*
X7142500D02*
D03*
X6957500D02*
D03*
X6507500D02*
D03*
X6692500D02*
D03*
X4232500Y1475000D02*
D03*
X4417500D02*
D03*
X4242500Y650000D02*
D03*
X4057500D02*
D03*
X3532500Y1875000D02*
D03*
X3717500D02*
D03*
X2467500Y150000D02*
D03*
X2282500D02*
D03*
Y1450000D02*
D03*
X2467500D02*
D03*
D136*
X4855000Y2235000D02*
D03*
X4950000Y2015000D02*
D03*
X5045000Y2235000D02*
D03*
D137*
X4040000Y1505000D02*
D03*
X3975000D02*
D03*
X3910000D02*
D03*
Y1695000D02*
D03*
X3975000D02*
D03*
X4040000D02*
D03*
D138*
X2495000Y355000D02*
D03*
Y450000D02*
D03*
Y545000D02*
D03*
X2255000D02*
D03*
Y355000D02*
D03*
D139*
X2527500Y800000D02*
D03*
X2222500D02*
D03*
D140*
X6825000Y1370000D02*
D03*
X6875000D02*
D03*
X6925000D02*
D03*
X6975000D02*
D03*
X7125000D02*
D03*
X7175000D02*
D03*
X7225000D02*
D03*
X6775000Y2480000D02*
D03*
X7275000Y1370000D02*
D03*
X7025000D02*
D03*
X7075000D02*
D03*
X6675000D02*
D03*
X6725000D02*
D03*
X6775000D02*
D03*
X7325000D02*
D03*
X7375000D02*
D03*
X7425000D02*
D03*
Y2480000D02*
D03*
X7375000D02*
D03*
X7325000D02*
D03*
X7275000D02*
D03*
X7225000D02*
D03*
X7175000D02*
D03*
X7125000D02*
D03*
X7075000D02*
D03*
X7025000D02*
D03*
X6975000D02*
D03*
X6925000D02*
D03*
X6875000D02*
D03*
X6825000D02*
D03*
X6725000D02*
D03*
X6675000D02*
D03*
D141*
X7605000Y1950000D02*
D03*
Y2000000D02*
D03*
Y2050000D02*
D03*
Y2100000D02*
D03*
Y2150000D02*
D03*
Y1550000D02*
D03*
Y1600000D02*
D03*
Y1650000D02*
D03*
Y1700000D02*
D03*
X6495000Y1950000D02*
D03*
Y1850000D02*
D03*
X7605000Y1750000D02*
D03*
Y1800000D02*
D03*
Y1850000D02*
D03*
Y1900000D02*
D03*
X6495000Y2250000D02*
D03*
Y2200000D02*
D03*
Y2150000D02*
D03*
Y2300000D02*
D03*
Y2100000D02*
D03*
Y2050000D02*
D03*
Y2000000D02*
D03*
Y1900000D02*
D03*
Y1800000D02*
D03*
Y1750000D02*
D03*
Y1700000D02*
D03*
Y1650000D02*
D03*
Y1600000D02*
D03*
Y1550000D02*
D03*
X7605000Y2200000D02*
D03*
Y2250000D02*
D03*
Y2300000D02*
D03*
D142*
X9272500Y1755000D02*
D03*
Y1675000D02*
D03*
Y2245000D02*
D03*
Y2325000D02*
D03*
D143*
Y1925000D02*
D03*
Y1875000D02*
D03*
Y1825000D02*
D03*
Y2075000D02*
D03*
Y2125000D02*
D03*
Y2175000D02*
D03*
Y2025000D02*
D03*
Y1975000D02*
D03*
D144*
X3675001Y725000D02*
D03*
X3325000D02*
D03*
D145*
X6205000Y2040000D02*
D03*
Y2260000D02*
D03*
X6045000Y2040000D02*
D03*
Y2260000D02*
D03*
D146*
X8970000Y1975000D02*
D03*
Y2025000D02*
D03*
Y2075000D02*
D03*
Y2125000D02*
D03*
Y2175000D02*
D03*
X8530000Y1975000D02*
D03*
Y2025000D02*
D03*
Y2075000D02*
D03*
Y2125000D02*
D03*
Y2175000D02*
D03*
D147*
X3887500Y1240500D02*
D03*
Y1113500D02*
D03*
Y986500D02*
D03*
Y859500D02*
D03*
X4412500Y1240500D02*
D03*
Y1113500D02*
D03*
Y986500D02*
D03*
Y859500D02*
D03*
%TF.MD5,94eb35528c642811fd762f683e9056c4*%
M02*
