%TF.GenerationSoftware,Altium Limited,Altium Designer,21.0.8 (223)*%
G04 Layer_Color=255*
%FSLAX45Y45*%
%MOMM*%
%TF.SameCoordinates,E6859DB6-3A4E-404A-A1E8-5F06C1255FAD*%
%TF.FilePolarity,Positive*%
%TF.FileFunction,Pads,Bot*%
%TF.Part,Single*%
G01*
G75*
%TA.AperFunction,SMDPad,CuDef*%
%ADD10R,1.50000X1.20000*%
%ADD18R,1.20000X1.50000*%
%ADD20R,1.50000X1.45000*%
%TA.AperFunction,ComponentPad*%
%ADD44R,1.60000X1.60000*%
%ADD45C,1.60000*%
%ADD46C,1.05000*%
%TA.AperFunction,ViaPad*%
%ADD47C,3.00000*%
%TA.AperFunction,ComponentPad*%
%ADD48O,1.60000X1.00000*%
%ADD49O,2.10000X1.00000*%
%ADD50C,0.85000*%
%ADD51R,1.80000X1.80000*%
%ADD52C,1.80000*%
%ADD53O,22.00000X0.50000*%
%TA.AperFunction,SMDPad,CuDef*%
%ADD76R,0.40000X2.50000*%
D10*
X2175000Y3755000D02*
D03*
Y3545000D02*
D03*
X1975000Y3755000D02*
D03*
Y3545000D02*
D03*
X1775000Y3755000D02*
D03*
Y3545000D02*
D03*
D18*
X9830000Y1875000D02*
D03*
X9620000D02*
D03*
X9830000Y2175000D02*
D03*
X9620000D02*
D03*
D20*
X2575000Y3557500D02*
D03*
Y3742500D02*
D03*
X2375000Y3557500D02*
D03*
Y3742500D02*
D03*
X1275000Y3557500D02*
D03*
Y3742500D02*
D03*
X1075000D02*
D03*
Y3557500D02*
D03*
X875000Y3742500D02*
D03*
Y3557500D02*
D03*
X675000D02*
D03*
Y3742500D02*
D03*
D44*
X8748000Y4125000D02*
D03*
D45*
X9002000D02*
D03*
D46*
X9713500Y3756000D02*
D03*
X9586500D02*
D03*
X9713500Y3629000D02*
D03*
Y3502000D02*
D03*
X9586500Y3629000D02*
D03*
Y3502000D02*
D03*
X9713500Y3375000D02*
D03*
X9586500D02*
D03*
X9713500Y3248000D02*
D03*
Y3121000D02*
D03*
Y2994000D02*
D03*
X9586500Y3248000D02*
D03*
Y3121000D02*
D03*
Y2994000D02*
D03*
X8811260Y1463040D02*
D03*
X8684260D02*
D03*
X8811260Y1590040D02*
D03*
X8684260D02*
D03*
D47*
X250000Y250000D02*
D03*
X9750000D02*
D03*
Y4750000D02*
D03*
X250000D02*
D03*
D48*
X9782000Y1568000D02*
D03*
Y2432000D02*
D03*
D49*
X9364000D02*
D03*
Y1568000D02*
D03*
D50*
X9417000Y2289000D02*
D03*
Y1711000D02*
D03*
D51*
X8476000Y558800D02*
D03*
X1016000D02*
D03*
D52*
X8984000D02*
D03*
X1524000D02*
D03*
D53*
X1584500Y2197600D02*
D03*
D76*
X1479500Y2947600D02*
D03*
X2599500D02*
D03*
X2389500D02*
D03*
X1969500D02*
D03*
X1759500D02*
D03*
X2179500D02*
D03*
X1199500D02*
D03*
X1409500D02*
D03*
X989500D02*
D03*
X2529500D02*
D03*
X2459500D02*
D03*
X2319500D02*
D03*
X2249500D02*
D03*
X2039500D02*
D03*
X2109500D02*
D03*
X1899500D02*
D03*
X1829500D02*
D03*
X1619500D02*
D03*
X1689500D02*
D03*
X1549500D02*
D03*
X1269500D02*
D03*
X1339500D02*
D03*
X1129500D02*
D03*
X1059500D02*
D03*
X919500D02*
D03*
X569500D02*
D03*
X849500D02*
D03*
X639500D02*
D03*
X709500D02*
D03*
X779500D02*
D03*
%TF.MD5,839da8d13cd2aef46ae5c4aebf2b5f33*%
M02*
