%TF.GenerationSoftware,Altium Limited,Altium Designer,21.0.8 (223)*%
G04 Layer_Color=8388736*
%FSLAX45Y45*%
%MOMM*%
%TF.SameCoordinates,93EC2011-4169-4821-B187-25AADE7CFEA4*%
%TF.FilePolarity,Negative*%
%TF.FileFunction,Soldermask,Top*%
%TF.Part,Single*%
G01*
G75*
%TA.AperFunction,SMDPad,CuDef*%
%ADD21R,0.80000X0.90000*%
G04:AMPARAMS|DCode=22|XSize=1.15564mm|YSize=0.52981mm|CornerRadius=0.2649mm|HoleSize=0mm|Usage=FLASHONLY|Rotation=90.000|XOffset=0mm|YOffset=0mm|HoleType=Round|Shape=RoundedRectangle|*
%AMROUNDEDRECTD22*
21,1,1.15564,0.00000,0,0,90.0*
21,1,0.62584,0.52981,0,0,90.0*
1,1,0.52980,0.00000,0.31292*
1,1,0.52980,0.00000,-0.31292*
1,1,0.52980,0.00000,-0.31292*
1,1,0.52980,0.00000,0.31292*
%
%ADD22ROUNDEDRECTD22*%
%ADD23R,0.52981X1.15564*%
%ADD82R,1.70320X1.65320*%
%ADD83R,1.70320X1.40320*%
%ADD84R,1.40320X1.70320*%
%TA.AperFunction,ComponentPad*%
%ADD86R,1.80320X1.80320*%
%ADD87C,1.80320*%
%ADD88C,1.25320*%
%TA.AperFunction,ViaPad*%
%ADD89C,3.20320*%
%TA.AperFunction,ComponentPad*%
%ADD90O,1.80320X1.20320*%
%ADD91O,2.30320X1.20320*%
%ADD92C,1.05320*%
%ADD93R,2.00320X2.00320*%
%ADD94C,2.00320*%
%ADD95O,22.20320X0.70320*%
%TA.AperFunction,ViaPad*%
%ADD96C,1.47320*%
%ADD97C,0.65320*%
%TA.AperFunction,SMDPad,CuDef*%
%ADD126R,0.83320X1.03320*%
%ADD127R,2.36220X2.94620*%
G04:AMPARAMS|DCode=128|XSize=1.5032mm|YSize=0.9632mm|CornerRadius=0.1966mm|HoleSize=0mm|Usage=FLASHONLY|Rotation=270.000|XOffset=0mm|YOffset=0mm|HoleType=Round|Shape=RoundedRectangle|*
%AMROUNDEDRECTD128*
21,1,1.50320,0.57000,0,0,270.0*
21,1,1.11000,0.96320,0,0,270.0*
1,1,0.39320,-0.28500,-0.55500*
1,1,0.39320,-0.28500,0.55500*
1,1,0.39320,0.28500,0.55500*
1,1,0.39320,0.28500,-0.55500*
%
%ADD128ROUNDEDRECTD128*%
%ADD129R,1.40320X1.30320*%
G04:AMPARAMS|DCode=130|XSize=1.5032mm|YSize=0.9632mm|CornerRadius=0.1966mm|HoleSize=0mm|Usage=FLASHONLY|Rotation=180.000|XOffset=0mm|YOffset=0mm|HoleType=Round|Shape=RoundedRectangle|*
%AMROUNDEDRECTD130*
21,1,1.50320,0.57000,0,0,180.0*
21,1,1.11000,0.96320,0,0,180.0*
1,1,0.39320,-0.55500,0.28500*
1,1,0.39320,0.55500,0.28500*
1,1,0.39320,0.55500,-0.28500*
1,1,0.39320,-0.55500,-0.28500*
%
%ADD130ROUNDEDRECTD130*%
G04:AMPARAMS|DCode=131|XSize=0.7532mm|YSize=1.0032mm|CornerRadius=0.1511mm|HoleSize=0mm|Usage=FLASHONLY|Rotation=0.000|XOffset=0mm|YOffset=0mm|HoleType=Round|Shape=RoundedRectangle|*
%AMROUNDEDRECTD131*
21,1,0.75320,0.70100,0,0,0.0*
21,1,0.45100,1.00320,0,0,0.0*
1,1,0.30220,0.22550,-0.35050*
1,1,0.30220,-0.22550,-0.35050*
1,1,0.30220,-0.22550,0.35050*
1,1,0.30220,0.22550,0.35050*
%
%ADD131ROUNDEDRECTD131*%
G04:AMPARAMS|DCode=132|XSize=0.6532mm|YSize=1.2532mm|CornerRadius=0.1511mm|HoleSize=0mm|Usage=FLASHONLY|Rotation=180.000|XOffset=0mm|YOffset=0mm|HoleType=Round|Shape=RoundedRectangle|*
%AMROUNDEDRECTD132*
21,1,0.65320,0.95100,0,0,180.0*
21,1,0.35100,1.25320,0,0,180.0*
1,1,0.30220,-0.17550,0.47550*
1,1,0.30220,0.17550,0.47550*
1,1,0.30220,0.17550,-0.47550*
1,1,0.30220,-0.17550,-0.47550*
%
%ADD132ROUNDEDRECTD132*%
%ADD133R,1.65320X1.70320*%
G04:AMPARAMS|DCode=134|XSize=0.8532mm|YSize=1.4032mm|CornerRadius=0.15035mm|HoleSize=0mm|Usage=FLASHONLY|Rotation=90.000|XOffset=0mm|YOffset=0mm|HoleType=Round|Shape=RoundedRectangle|*
%AMROUNDEDRECTD134*
21,1,0.85320,1.10250,0,0,90.0*
21,1,0.55250,1.40320,0,0,90.0*
1,1,0.30070,0.55125,0.27625*
1,1,0.30070,0.55125,-0.27625*
1,1,0.30070,-0.55125,-0.27625*
1,1,0.30070,-0.55125,0.27625*
%
%ADD134ROUNDEDRECTD134*%
%ADD135R,1.20320X1.60320*%
%ADD136R,0.60320X0.85320*%
%ADD137R,1.20320X0.80320*%
%ADD138R,1.55320X2.05320*%
%ADD139O,0.50320X2.00320*%
%ADD140O,2.00320X0.50320*%
%ADD141R,1.30320X2.00320*%
%TA.AperFunction,ConnectorPad*%
%ADD142R,1.65320X0.80320*%
%ADD143R,1.65320X0.50320*%
%TA.AperFunction,SMDPad,CuDef*%
G04:AMPARAMS|DCode=144|XSize=1.7032mm|YSize=5.2032mm|CornerRadius=0.4766mm|HoleSize=0mm|Usage=FLASHONLY|Rotation=180.000|XOffset=0mm|YOffset=0mm|HoleType=Round|Shape=RoundedRectangle|*
%AMROUNDEDRECTD144*
21,1,1.70320,4.25000,0,0,180.0*
21,1,0.75000,5.20320,0,0,180.0*
1,1,0.95320,-0.37500,2.12500*
1,1,0.95320,0.37500,2.12500*
1,1,0.95320,0.37500,-2.12500*
1,1,0.95320,-0.37500,-2.12500*
%
%ADD144ROUNDEDRECTD144*%
%ADD145R,1.40320X1.60320*%
%ADD146O,1.60320X0.45320*%
G04:AMPARAMS|DCode=147|XSize=0.7532mm|YSize=1.4532mm|CornerRadius=0.1511mm|HoleSize=0mm|Usage=FLASHONLY|Rotation=270.000|XOffset=0mm|YOffset=0mm|HoleType=Round|Shape=RoundedRectangle|*
%AMROUNDEDRECTD147*
21,1,0.75320,1.15100,0,0,270.0*
21,1,0.45100,1.45320,0,0,270.0*
1,1,0.30220,-0.57550,-0.22550*
1,1,0.30220,-0.57550,0.22550*
1,1,0.30220,0.57550,0.22550*
1,1,0.30220,0.57550,-0.22550*
%
%ADD147ROUNDEDRECTD147*%
D21*
X7955000Y825000D02*
D03*
X8145000D02*
D03*
X8050000Y1025000D02*
D03*
D22*
X7430000Y882528D02*
D03*
X7620000D02*
D03*
Y667472D02*
D03*
X7525000D02*
D03*
D23*
X7430000D02*
D03*
D82*
X5565000Y3130000D02*
D03*
Y3315000D02*
D03*
X6465000Y3130000D02*
D03*
Y3315000D02*
D03*
X7365000Y3130000D02*
D03*
Y3315000D02*
D03*
X8265000Y3130000D02*
D03*
Y3315000D02*
D03*
X7825000Y1767500D02*
D03*
Y1582500D02*
D03*
Y1982500D02*
D03*
Y2167500D02*
D03*
X5925000Y2192500D02*
D03*
Y2007500D02*
D03*
X5875000Y1767500D02*
D03*
Y1582500D02*
D03*
X7225000Y657500D02*
D03*
Y842500D02*
D03*
X6875000D02*
D03*
Y657500D02*
D03*
X5450000Y1217500D02*
D03*
Y1032500D02*
D03*
X5175000Y1217500D02*
D03*
Y1032500D02*
D03*
X4900000Y1217500D02*
D03*
Y1032500D02*
D03*
X3725000Y1317500D02*
D03*
Y1132500D02*
D03*
X3500000Y1317500D02*
D03*
Y1132500D02*
D03*
X3050000Y992500D02*
D03*
Y807500D02*
D03*
X2825000Y992500D02*
D03*
Y807500D02*
D03*
D83*
X5425000Y1805000D02*
D03*
Y1595000D02*
D03*
X4625000Y1230000D02*
D03*
Y1020000D02*
D03*
X6075000Y1570000D02*
D03*
Y1780000D02*
D03*
X6275000Y1570000D02*
D03*
Y1780000D02*
D03*
X7875000Y445000D02*
D03*
Y655000D02*
D03*
X6200000Y855000D02*
D03*
Y645000D02*
D03*
X6000000D02*
D03*
Y855000D02*
D03*
X5150000Y1805000D02*
D03*
Y1595000D02*
D03*
X4875000Y1805000D02*
D03*
Y1595000D02*
D03*
D84*
X8220001Y3522500D02*
D03*
X8010000D02*
D03*
X7320001D02*
D03*
X7110001D02*
D03*
X6420001D02*
D03*
X6210001D02*
D03*
X5520000D02*
D03*
X5310000D02*
D03*
X6122280Y2705120D02*
D03*
X6332280D02*
D03*
X9020000Y3100000D02*
D03*
X9230000D02*
D03*
X9020000Y3275000D02*
D03*
X9230000D02*
D03*
X9020000Y3450000D02*
D03*
X9230000D02*
D03*
X9020000Y3625000D02*
D03*
X9230000D02*
D03*
X9395000Y1125000D02*
D03*
X9605000D02*
D03*
X5045000Y2375000D02*
D03*
X5255000D02*
D03*
X4430000Y2050000D02*
D03*
X4220000D02*
D03*
X4430000Y1850000D02*
D03*
X4220000D02*
D03*
X4220000Y1625000D02*
D03*
X4430000D02*
D03*
X3507500Y1580000D02*
D03*
X3717500D02*
D03*
D86*
X8748000Y4125000D02*
D03*
D87*
X9002000D02*
D03*
D88*
X9713500Y3756000D02*
D03*
X9586500D02*
D03*
X9713500Y3629000D02*
D03*
Y3502000D02*
D03*
X9586500Y3629000D02*
D03*
Y3502000D02*
D03*
X9713500Y3375000D02*
D03*
X9586500D02*
D03*
X9713500Y3248000D02*
D03*
Y3121000D02*
D03*
Y2994000D02*
D03*
X9586500Y3248000D02*
D03*
Y3121000D02*
D03*
Y2994000D02*
D03*
X8811260Y1463040D02*
D03*
X8684260D02*
D03*
X8811260Y1590040D02*
D03*
X8684260D02*
D03*
D89*
X250000Y250000D02*
D03*
X9750000D02*
D03*
Y4750000D02*
D03*
X250000D02*
D03*
D90*
X9782000Y1568000D02*
D03*
Y2432000D02*
D03*
D91*
X9364000D02*
D03*
Y1568000D02*
D03*
D92*
X9417000Y2289000D02*
D03*
Y1711000D02*
D03*
D93*
X8476000Y558800D02*
D03*
X1016000D02*
D03*
D94*
X8984000D02*
D03*
X1524000D02*
D03*
D95*
X1584500Y2197600D02*
D03*
D96*
X9750000Y1100000D02*
D03*
X9100000Y250000D02*
D03*
X9350000D02*
D03*
X9750000Y600000D02*
D03*
Y850000D02*
D03*
Y1350000D02*
D03*
Y2600000D02*
D03*
Y4150000D02*
D03*
Y4400000D02*
D03*
X1850000Y1100000D02*
D03*
Y1350000D02*
D03*
Y1600000D02*
D03*
Y1850000D02*
D03*
X1600000D02*
D03*
X1350000D02*
D03*
X1100000D02*
D03*
X850000D02*
D03*
X600000D02*
D03*
Y1600000D02*
D03*
Y1350000D02*
D03*
Y1100000D02*
D03*
Y850000D02*
D03*
Y600000D02*
D03*
Y250000D02*
D03*
X850000D02*
D03*
X1100000D02*
D03*
X1350000D02*
D03*
X1600000D02*
D03*
X1850000D02*
D03*
X8600000Y4750000D02*
D03*
X8850000D02*
D03*
X9100000D02*
D03*
X9350000D02*
D03*
X4600000D02*
D03*
X4850000D02*
D03*
X7600000D02*
D03*
X600000D02*
D03*
X850000D02*
D03*
X1100000D02*
D03*
X1350000D02*
D03*
X1600000D02*
D03*
X1850000D02*
D03*
X2100000D02*
D03*
X2350000D02*
D03*
X2600000D02*
D03*
X2850000D02*
D03*
X3100000D02*
D03*
X3350000D02*
D03*
X3600000D02*
D03*
X3850000D02*
D03*
X4100000D02*
D03*
X4350000D02*
D03*
X250000Y4350000D02*
D03*
Y4100000D02*
D03*
Y3850000D02*
D03*
Y3600000D02*
D03*
Y3350000D02*
D03*
Y3100000D02*
D03*
Y2850000D02*
D03*
Y2600000D02*
D03*
Y2350000D02*
D03*
Y2100000D02*
D03*
Y1850000D02*
D03*
Y1600000D02*
D03*
Y1350000D02*
D03*
Y1100000D02*
D03*
Y850000D02*
D03*
Y600000D02*
D03*
X4600000Y225000D02*
D03*
X4900000D02*
D03*
X5200000D02*
D03*
X5500000D02*
D03*
X5800000D02*
D03*
X6100000D02*
D03*
X6400000D02*
D03*
X6700000D02*
D03*
X7000000D02*
D03*
X7300000D02*
D03*
X7600000D02*
D03*
X7900000D02*
D03*
X8300000Y300000D02*
D03*
X8600000D02*
D03*
D97*
X5999480Y1000520D02*
D03*
X5725000Y1725000D02*
D03*
X1700000Y1425000D02*
D03*
X4424680Y2575560D02*
D03*
X5996940Y2620920D02*
D03*
X7475220Y2100580D02*
D03*
X5427980Y2654300D02*
D03*
X6489700Y2590800D02*
D03*
X6875671Y2548786D02*
D03*
X7802880Y2557780D02*
D03*
X6367780Y1229360D02*
D03*
X6494780D02*
D03*
X8125000Y1100000D02*
D03*
X4050539Y2498599D02*
D03*
X4050030Y2366010D02*
D03*
X3246120Y1978660D02*
D03*
X3205480Y1229360D02*
D03*
X4196080Y858520D02*
D03*
X3116183Y1318260D02*
D03*
X3162300Y1272540D02*
D03*
X5875000Y1767500D02*
D03*
X7235925Y2281830D02*
D03*
X7349505Y2311187D02*
D03*
X7442200Y2250440D02*
D03*
X6622140Y2458546D02*
D03*
X6580907Y2410227D02*
D03*
X1478280Y2781300D02*
D03*
X7508240Y2989580D02*
D03*
X7277100Y2801620D02*
D03*
X6733540Y1750060D02*
D03*
X2606040Y355600D02*
D03*
X6642100Y1600200D02*
D03*
X8582660Y1656080D02*
D03*
X6000000Y855000D02*
D03*
X3975000Y2575000D02*
D03*
X4200000D02*
D03*
X3750000D02*
D03*
X3525000D02*
D03*
X6494780Y2342913D02*
D03*
X8150000Y950000D02*
D03*
X6068060Y2001520D02*
D03*
X2341880Y353060D02*
D03*
X2410460Y449580D02*
D03*
X2255000Y472960D02*
D03*
X4018280Y1427480D02*
D03*
X3683450Y1425200D02*
D03*
X7251700Y3129280D02*
D03*
X7868920Y3268980D02*
D03*
X7729220Y3182620D02*
D03*
X8371840Y3129280D02*
D03*
Y3314700D02*
D03*
X7929880Y3522980D02*
D03*
X7866380D02*
D03*
X5173980Y1338580D02*
D03*
X5311140D02*
D03*
X5036820D02*
D03*
X5448300D02*
D03*
X4899660D02*
D03*
X9730740Y2174240D02*
D03*
Y1871980D02*
D03*
X8862060Y2075180D02*
D03*
X8846820Y1684020D02*
D03*
X8547100Y1798320D02*
D03*
Y2352040D02*
D03*
X7645400Y2585720D02*
D03*
X7454900D02*
D03*
X6791960Y2590800D02*
D03*
X6830060Y3012440D02*
D03*
X6578600Y3134360D02*
D03*
Y3317240D02*
D03*
X6126480Y3520440D02*
D03*
X6563360Y3522980D02*
D03*
X7025640Y3520440D02*
D03*
X6959600D02*
D03*
X7574280Y3632200D02*
D03*
X7477760Y3317240D02*
D03*
X7807960Y3954780D02*
D03*
Y4500880D02*
D03*
X6911340Y3952240D02*
D03*
Y4498340D02*
D03*
X6009640Y3952240D02*
D03*
Y4498340D02*
D03*
X1176250Y3557500D02*
D03*
X568960Y2786380D02*
D03*
X1059180D02*
D03*
X1201420D02*
D03*
X1343660D02*
D03*
X1409700D02*
D03*
X1620520D02*
D03*
X1689100D02*
D03*
X1968500D02*
D03*
X2039620D02*
D03*
X2110740D02*
D03*
X2600960D02*
D03*
X2529840D02*
D03*
X2250440D02*
D03*
X2179320D02*
D03*
X1074420Y3855720D02*
D03*
X1275080D02*
D03*
X2372360D02*
D03*
X2575560D02*
D03*
X2174240Y3652520D02*
D03*
X7917180Y2164080D02*
D03*
X7919720Y1582420D02*
D03*
Y1874520D02*
D03*
X7487920Y998220D02*
D03*
X7117080Y840740D02*
D03*
X6982460Y843280D02*
D03*
X6870700Y1099820D02*
D03*
X6211240Y2702600D02*
D03*
X5930900Y3014980D02*
D03*
X5679440Y3136900D02*
D03*
X5778500Y3251200D02*
D03*
X6062980Y3520440D02*
D03*
X5661660Y3515360D02*
D03*
X5679440Y3314700D02*
D03*
X5311140Y3632200D02*
D03*
X5171440Y3426460D02*
D03*
X5110480Y4498340D02*
D03*
Y3952240D02*
D03*
X2176780Y1450340D02*
D03*
X4018280Y1767840D02*
D03*
X3830320Y1877060D02*
D03*
X5161280Y2184400D02*
D03*
X6075680Y1676400D02*
D03*
X4853940Y2326640D02*
D03*
X8956040Y2352040D02*
D03*
X9514840Y2174240D02*
D03*
Y1871980D02*
D03*
X2583180Y152400D02*
D03*
X6469380Y1097280D02*
D03*
X6969760Y1099820D02*
D03*
X7782560D02*
D03*
X7729220Y548640D02*
D03*
X7106920Y660400D02*
D03*
X6990080D02*
D03*
X6248400Y751840D02*
D03*
X6002020Y749300D02*
D03*
X7475220Y2199640D02*
D03*
X7376160Y1430020D02*
D03*
X6725920D02*
D03*
X6273800Y1480820D02*
D03*
X6724650Y2313940D02*
D03*
X1798320Y2677160D02*
D03*
X1913890Y2622867D02*
D03*
X6676390Y2559050D02*
D03*
X6362700Y1948180D02*
D03*
X6982460Y2692400D02*
D03*
X1976120Y3652520D02*
D03*
X1775460D02*
D03*
X5768340Y1372540D02*
D03*
X5925820Y2308860D02*
D03*
X5763260Y1582420D02*
D03*
X6385560Y2400300D02*
D03*
X4117340Y2049780D02*
D03*
X4119880Y1424940D02*
D03*
X3992880Y988060D02*
D03*
X3975100Y1620520D02*
D03*
X3416300Y1874520D02*
D03*
X3403600Y1577340D02*
D03*
X3388360Y1315720D02*
D03*
X3048000Y1107440D02*
D03*
X2821940D02*
D03*
X2115820Y1125220D02*
D03*
X6903720Y3266440D02*
D03*
X6159500Y3197860D02*
D03*
X7523480Y2402840D02*
D03*
X5905500Y3200400D02*
D03*
X9403440Y2024380D02*
D03*
X9405620Y1925320D02*
D03*
D126*
X5863500Y1150000D02*
D03*
X6086500D02*
D03*
X9213500Y1300000D02*
D03*
X9436500D02*
D03*
D127*
X1054000Y1425000D02*
D03*
X1496000D02*
D03*
D128*
X7843420Y2705100D02*
D03*
X8022420D02*
D03*
D129*
X4425000Y3355000D02*
D03*
Y3145000D02*
D03*
X4200000Y3355000D02*
D03*
Y3145000D02*
D03*
X3975000Y3355000D02*
D03*
Y3145000D02*
D03*
X3749976Y3354999D02*
D03*
Y3144999D02*
D03*
X3525000Y3355000D02*
D03*
Y3145000D02*
D03*
D130*
X4425000Y2735000D02*
D03*
Y2914000D02*
D03*
X3975000Y2735000D02*
D03*
Y2914000D02*
D03*
X4200000Y2735000D02*
D03*
Y2914000D02*
D03*
X3750000Y2735000D02*
D03*
Y2914000D02*
D03*
X3525000Y2735000D02*
D03*
Y2914000D02*
D03*
D131*
X8060000Y3095000D02*
D03*
X7870001D02*
D03*
Y3350000D02*
D03*
X7965000D02*
D03*
X8060000D02*
D03*
X7160000Y3095000D02*
D03*
X6970001D02*
D03*
Y3350000D02*
D03*
X7065000D02*
D03*
X7160000D02*
D03*
X6260000Y3095000D02*
D03*
X6070001D02*
D03*
Y3350000D02*
D03*
X6165000D02*
D03*
X6260000D02*
D03*
X5170001Y3095000D02*
D03*
X5360000Y3350000D02*
D03*
X5265000D02*
D03*
X5170001D02*
D03*
X5360000Y3095000D02*
D03*
D132*
X7600000Y3345000D02*
D03*
X7730000D02*
D03*
Y3100000D02*
D03*
X7665000D02*
D03*
X7600000D02*
D03*
X6700000Y3345000D02*
D03*
X6830000D02*
D03*
Y3100000D02*
D03*
X6765000D02*
D03*
X6700000D02*
D03*
X5930000Y3100000D02*
D03*
X5800000D02*
D03*
Y3345000D02*
D03*
X5865000D02*
D03*
X5930000D02*
D03*
D133*
X7572500Y3522500D02*
D03*
X7757500D02*
D03*
X6672500D02*
D03*
X6857500D02*
D03*
X5772501D02*
D03*
X5957500D02*
D03*
X7457500Y2700000D02*
D03*
X7642500D02*
D03*
X7267500D02*
D03*
X7082500D02*
D03*
X6792500D02*
D03*
X6607500D02*
D03*
X6267500Y2400000D02*
D03*
X6082500D02*
D03*
X5882500Y1375000D02*
D03*
X6067500D02*
D03*
X8657500Y2350000D02*
D03*
X8842500D02*
D03*
Y1800000D02*
D03*
X8657500D02*
D03*
X7617500Y500000D02*
D03*
X7432500D02*
D03*
X7667500Y1100000D02*
D03*
X7482500D02*
D03*
X7267500D02*
D03*
X7082500D02*
D03*
X6582500D02*
D03*
X6767500D02*
D03*
X4232500Y1425000D02*
D03*
X4417500D02*
D03*
X4242500Y675000D02*
D03*
X4057500D02*
D03*
X3532500Y1875000D02*
D03*
X3717500D02*
D03*
X2467500Y150000D02*
D03*
X2282500D02*
D03*
Y1450000D02*
D03*
X2467500D02*
D03*
D134*
X6672500Y845000D02*
D03*
Y655000D02*
D03*
X6377500D02*
D03*
Y750000D02*
D03*
Y845000D02*
D03*
X2227500Y1220000D02*
D03*
Y1125000D02*
D03*
Y1030000D02*
D03*
X2522500D02*
D03*
Y1220000D02*
D03*
D135*
X5255000Y2185000D02*
D03*
X5350000Y1965000D02*
D03*
X5445000Y2185000D02*
D03*
X4855000D02*
D03*
X4950000Y1965000D02*
D03*
X5045000Y2185000D02*
D03*
D136*
X4040000Y1505000D02*
D03*
X3975000D02*
D03*
X3910000D02*
D03*
Y1695000D02*
D03*
X3975000D02*
D03*
X4040000D02*
D03*
D137*
X2495000Y355000D02*
D03*
Y450000D02*
D03*
Y545000D02*
D03*
X2255000D02*
D03*
Y355000D02*
D03*
D138*
X2527500Y800000D02*
D03*
X2222500D02*
D03*
D139*
X6825000Y1320000D02*
D03*
X6875000D02*
D03*
X6925000D02*
D03*
X6975000D02*
D03*
X7125000D02*
D03*
X7175000D02*
D03*
X7225000D02*
D03*
X6775000Y2430000D02*
D03*
X7275000Y1320000D02*
D03*
X7025000D02*
D03*
X7075000D02*
D03*
X6675000D02*
D03*
X6725000D02*
D03*
X6775000D02*
D03*
X7325000D02*
D03*
X7375000D02*
D03*
X7425000D02*
D03*
Y2430000D02*
D03*
X7375000D02*
D03*
X7325000D02*
D03*
X7275000D02*
D03*
X7225000D02*
D03*
X7175000D02*
D03*
X7125000D02*
D03*
X7075000D02*
D03*
X7025000D02*
D03*
X6975000D02*
D03*
X6925000D02*
D03*
X6875000D02*
D03*
X6825000D02*
D03*
X6725000D02*
D03*
X6675000D02*
D03*
D140*
X7605000Y1900000D02*
D03*
Y1950000D02*
D03*
Y2000000D02*
D03*
Y2050000D02*
D03*
Y2100000D02*
D03*
Y1500000D02*
D03*
Y1550000D02*
D03*
Y1600000D02*
D03*
Y1650000D02*
D03*
X6495000Y1900000D02*
D03*
Y1800000D02*
D03*
X7605000Y1700000D02*
D03*
Y1750000D02*
D03*
Y1800000D02*
D03*
Y1850000D02*
D03*
X6495000Y2200000D02*
D03*
Y2150000D02*
D03*
Y2100000D02*
D03*
Y2250000D02*
D03*
Y2050000D02*
D03*
Y2000000D02*
D03*
Y1950000D02*
D03*
Y1850000D02*
D03*
Y1750000D02*
D03*
Y1700000D02*
D03*
Y1650000D02*
D03*
Y1600000D02*
D03*
Y1550000D02*
D03*
Y1500000D02*
D03*
X7605000Y2150000D02*
D03*
Y2200000D02*
D03*
Y2250000D02*
D03*
D141*
X6909501Y4620099D02*
D03*
X7389500D02*
D03*
X6909500Y3820100D02*
D03*
X7389500Y3820101D02*
D03*
X7809501Y4620099D02*
D03*
X8289500D02*
D03*
X7809500Y3820100D02*
D03*
X8289500Y3820101D02*
D03*
X6009501Y4620099D02*
D03*
X6489500D02*
D03*
X6009500Y3820100D02*
D03*
X6489500Y3820101D02*
D03*
X5109501Y4620099D02*
D03*
X5589500D02*
D03*
X5109500Y3820100D02*
D03*
X5589500Y3820101D02*
D03*
D142*
X9272500Y1755000D02*
D03*
Y1675000D02*
D03*
Y2245000D02*
D03*
Y2325000D02*
D03*
D143*
Y1925000D02*
D03*
Y1875000D02*
D03*
Y1825000D02*
D03*
Y2075000D02*
D03*
Y2125000D02*
D03*
Y2175000D02*
D03*
Y2025000D02*
D03*
Y1975000D02*
D03*
D144*
X3675001Y725000D02*
D03*
X3325000D02*
D03*
D145*
X6255000Y1990000D02*
D03*
Y2210000D02*
D03*
X6095000Y1990000D02*
D03*
Y2210000D02*
D03*
D146*
X8970000Y1975000D02*
D03*
Y2025000D02*
D03*
Y2075000D02*
D03*
Y2125000D02*
D03*
Y2175000D02*
D03*
X8530000Y1975000D02*
D03*
Y2025000D02*
D03*
Y2075000D02*
D03*
Y2125000D02*
D03*
Y2175000D02*
D03*
D147*
X3887500Y1240500D02*
D03*
Y1113500D02*
D03*
Y986500D02*
D03*
Y859500D02*
D03*
X4412500Y1240500D02*
D03*
Y1113500D02*
D03*
Y986500D02*
D03*
Y859500D02*
D03*
%TF.MD5,5913623c7966eb2b7acf3d9ff4a92eec*%
M02*
