%TF.GenerationSoftware,Altium Limited,Altium Designer,21.0.8 (223)*%
G04 Layer_Color=32896*
%FSLAX45Y45*%
%MOMM*%
%TF.SameCoordinates,E6859DB6-3A4E-404A-A1E8-5F06C1255FAD*%
%TF.FilePolarity,Positive*%
%TF.FileFunction,Legend,Bot*%
%TF.Part,Single*%
G01*
G75*
%TA.AperFunction,NonConductor*%
%ADD81C,0.20000*%
G36*
X9716679Y2331111D02*
X9717696Y2329632D01*
X9718898Y2328153D01*
X9720007Y2326858D01*
X9721117Y2325749D01*
X9721949Y2324824D01*
X9722319Y2324547D01*
X9722596Y2324270D01*
X9722689Y2324177D01*
X9722781Y2324085D01*
X9724723Y2322513D01*
X9726664Y2321034D01*
X9728513Y2319739D01*
X9730363Y2318722D01*
X9731934Y2317798D01*
X9732581Y2317428D01*
X9733136Y2317151D01*
X9733599Y2316873D01*
X9733968Y2316781D01*
X9734153Y2316596D01*
X9734246D01*
Y2309014D01*
X9732859Y2309569D01*
X9731472Y2310216D01*
X9730085Y2310864D01*
X9728791Y2311511D01*
X9727681Y2312065D01*
X9726757Y2312528D01*
X9726202Y2312898D01*
X9726110Y2312990D01*
X9726017D01*
X9724353Y2314007D01*
X9722874Y2315024D01*
X9721579Y2315949D01*
X9720562Y2316781D01*
X9719638Y2317428D01*
X9719083Y2317983D01*
X9718621Y2318352D01*
X9718528Y2318445D01*
Y2268426D01*
X9710669D01*
Y2332683D01*
X9715755D01*
X9716679Y2331111D01*
D02*
G37*
G36*
X9669711Y2332591D02*
X9671468Y2332406D01*
X9673132Y2332036D01*
X9674704Y2331574D01*
X9676091Y2330927D01*
X9677478Y2330372D01*
X9678680Y2329632D01*
X9679789Y2328985D01*
X9680714Y2328338D01*
X9681638Y2327598D01*
X9682378Y2327043D01*
X9682933Y2326489D01*
X9683395Y2325934D01*
X9683765Y2325564D01*
X9683950Y2325379D01*
X9684042Y2325287D01*
X9685244Y2323622D01*
X9686261Y2321681D01*
X9687186Y2319647D01*
X9688018Y2317520D01*
X9688665Y2315301D01*
X9689220Y2313082D01*
X9689682Y2310771D01*
X9690052Y2308645D01*
X9690329Y2306518D01*
X9690514Y2304577D01*
X9690699Y2302820D01*
X9690791Y2301341D01*
Y2300046D01*
X9690884Y2299122D01*
Y2298752D01*
Y2298474D01*
Y2298382D01*
Y2298290D01*
X9690791Y2295331D01*
X9690606Y2292557D01*
X9690329Y2289968D01*
X9689867Y2287565D01*
X9689405Y2285438D01*
X9688942Y2283497D01*
X9688388Y2281740D01*
X9687740Y2280168D01*
X9687186Y2278874D01*
X9686631Y2277672D01*
X9686169Y2276747D01*
X9685614Y2275915D01*
X9685244Y2275268D01*
X9684967Y2274898D01*
X9684782Y2274621D01*
X9684689Y2274528D01*
X9683487Y2273234D01*
X9682193Y2272124D01*
X9680899Y2271200D01*
X9679604Y2270368D01*
X9678217Y2269628D01*
X9676923Y2269073D01*
X9675629Y2268611D01*
X9674334Y2268241D01*
X9673225Y2267964D01*
X9672115Y2267687D01*
X9671191Y2267502D01*
X9670359Y2267409D01*
X9669619D01*
X9669157Y2267317D01*
X9668694D01*
X9666568Y2267409D01*
X9664626Y2267779D01*
X9662870Y2268149D01*
X9661298Y2268704D01*
X9660096Y2269166D01*
X9659171Y2269628D01*
X9658802Y2269721D01*
X9658524Y2269906D01*
X9658432Y2269998D01*
X9658339D01*
X9656768Y2271107D01*
X9655288Y2272402D01*
X9654086Y2273696D01*
X9653069Y2274991D01*
X9652237Y2276193D01*
X9651682Y2277117D01*
X9651498Y2277487D01*
X9651313Y2277764D01*
X9651220Y2277857D01*
Y2277949D01*
X9650296Y2279891D01*
X9649648Y2281925D01*
X9649186Y2283774D01*
X9648909Y2285531D01*
X9648631Y2287010D01*
Y2287565D01*
X9648539Y2288119D01*
Y2288582D01*
Y2288859D01*
Y2289044D01*
Y2289136D01*
X9648631Y2290801D01*
X9648816Y2292372D01*
X9649094Y2293944D01*
X9649371Y2295331D01*
X9649833Y2296625D01*
X9650296Y2297920D01*
X9650758Y2299029D01*
X9651313Y2300046D01*
X9651867Y2300971D01*
X9652330Y2301803D01*
X9652792Y2302450D01*
X9653254Y2303097D01*
X9653532Y2303560D01*
X9653809Y2303837D01*
X9653994Y2304022D01*
X9654086Y2304114D01*
X9655103Y2305131D01*
X9656213Y2306056D01*
X9657415Y2306795D01*
X9658524Y2307443D01*
X9659634Y2308090D01*
X9660743Y2308552D01*
X9662870Y2309199D01*
X9663794Y2309477D01*
X9664719Y2309662D01*
X9665458Y2309754D01*
X9666198Y2309847D01*
X9666753Y2309939D01*
X9667492D01*
X9669157Y2309847D01*
X9670728Y2309569D01*
X9672208Y2309292D01*
X9673502Y2308922D01*
X9674612Y2308460D01*
X9675444Y2308182D01*
X9675998Y2307905D01*
X9676091Y2307813D01*
X9676183D01*
X9677663Y2306888D01*
X9678957Y2305871D01*
X9680159Y2304854D01*
X9681084Y2303744D01*
X9681916Y2302820D01*
X9682563Y2302080D01*
X9682933Y2301525D01*
X9683025Y2301433D01*
Y2303097D01*
X9682933Y2304761D01*
X9682840Y2306241D01*
X9682655Y2307720D01*
X9682563Y2309014D01*
X9682378Y2310216D01*
X9682193Y2311326D01*
X9681916Y2312343D01*
X9681731Y2313267D01*
X9681546Y2314007D01*
X9681361Y2314654D01*
X9681268Y2315209D01*
X9681084Y2315579D01*
X9680991Y2315856D01*
X9680899Y2316041D01*
Y2316134D01*
X9679974Y2317983D01*
X9679049Y2319647D01*
X9678032Y2320941D01*
X9677108Y2322051D01*
X9676276Y2322975D01*
X9675629Y2323622D01*
X9675166Y2323992D01*
X9674981Y2324085D01*
X9673872Y2324824D01*
X9672762Y2325287D01*
X9671653Y2325657D01*
X9670544Y2325934D01*
X9669711Y2326119D01*
X9668972Y2326211D01*
X9668325D01*
X9666660Y2326026D01*
X9665089Y2325657D01*
X9663794Y2325102D01*
X9662592Y2324547D01*
X9661668Y2323900D01*
X9661021Y2323345D01*
X9660651Y2322975D01*
X9660466Y2322790D01*
X9659819Y2321958D01*
X9659171Y2320941D01*
X9658617Y2319832D01*
X9658247Y2318722D01*
X9657877Y2317705D01*
X9657600Y2316873D01*
X9657507Y2316318D01*
X9657415Y2316226D01*
Y2316134D01*
X9649556Y2316781D01*
X9650111Y2319370D01*
X9650943Y2321681D01*
X9651867Y2323715D01*
X9652884Y2325379D01*
X9653901Y2326674D01*
X9654271Y2327228D01*
X9654734Y2327691D01*
X9655011Y2327968D01*
X9655288Y2328245D01*
X9655381Y2328338D01*
X9655473Y2328430D01*
X9656398Y2329170D01*
X9657415Y2329817D01*
X9659449Y2330927D01*
X9661483Y2331666D01*
X9663424Y2332128D01*
X9665181Y2332498D01*
X9665921Y2332591D01*
X9666568D01*
X9667123Y2332683D01*
X9667862D01*
X9669711Y2332591D01*
D02*
G37*
G36*
X9801461Y2268426D02*
X9792955D01*
Y2296810D01*
X9782045D01*
X9781028Y2296718D01*
X9780289D01*
X9779642Y2296625D01*
X9779179Y2296533D01*
X9778809D01*
X9778625Y2296440D01*
X9778532D01*
X9777053Y2295978D01*
X9776406Y2295701D01*
X9775851Y2295423D01*
X9775296Y2295146D01*
X9774926Y2294961D01*
X9774741Y2294869D01*
X9774649Y2294776D01*
X9773909Y2294221D01*
X9773170Y2293574D01*
X9771783Y2292187D01*
X9771136Y2291540D01*
X9770673Y2290986D01*
X9770396Y2290616D01*
X9770304Y2290523D01*
X9769379Y2289229D01*
X9768362Y2287842D01*
X9767345Y2286363D01*
X9766328Y2284976D01*
X9765496Y2283681D01*
X9764849Y2282664D01*
X9764571Y2282295D01*
X9764386Y2282017D01*
X9764201Y2281832D01*
Y2281740D01*
X9755788Y2268426D01*
X9745248D01*
X9756250Y2285808D01*
X9757545Y2287657D01*
X9758747Y2289321D01*
X9759948Y2290708D01*
X9760965Y2292003D01*
X9761890Y2292927D01*
X9762630Y2293667D01*
X9763092Y2294129D01*
X9763277Y2294314D01*
X9764017Y2294869D01*
X9764849Y2295516D01*
X9766513Y2296533D01*
X9767252Y2296903D01*
X9767807Y2297273D01*
X9768177Y2297457D01*
X9768362Y2297550D01*
X9766698Y2297827D01*
X9765126Y2298105D01*
X9763739Y2298567D01*
X9762352Y2298937D01*
X9761150Y2299399D01*
X9760041Y2299954D01*
X9759024Y2300416D01*
X9758099Y2300878D01*
X9757360Y2301433D01*
X9756620Y2301895D01*
X9756065Y2302265D01*
X9755603Y2302635D01*
X9755233Y2302912D01*
X9754956Y2303190D01*
X9754863Y2303282D01*
X9754771Y2303375D01*
X9754031Y2304299D01*
X9753292Y2305224D01*
X9752182Y2307165D01*
X9751443Y2309107D01*
X9750888Y2310956D01*
X9750518Y2312528D01*
X9750426Y2313175D01*
Y2313822D01*
X9750333Y2314284D01*
Y2314654D01*
Y2314839D01*
Y2314932D01*
X9750426Y2316873D01*
X9750703Y2318630D01*
X9751165Y2320294D01*
X9751627Y2321681D01*
X9752182Y2322883D01*
X9752552Y2323807D01*
X9752922Y2324362D01*
X9753014Y2324455D01*
Y2324547D01*
X9754124Y2326026D01*
X9755233Y2327321D01*
X9756435Y2328430D01*
X9757545Y2329262D01*
X9758562Y2329909D01*
X9759394Y2330279D01*
X9759948Y2330557D01*
X9760041Y2330649D01*
X9760133D01*
X9760965Y2330927D01*
X9761983Y2331204D01*
X9764017Y2331666D01*
X9766235Y2331944D01*
X9768270Y2332221D01*
X9770211Y2332313D01*
X9771043D01*
X9771783Y2332406D01*
X9801461D01*
Y2268426D01*
D02*
G37*
G36*
X9716910Y1781112D02*
X9717927Y1779632D01*
X9719129Y1778153D01*
X9720239Y1776859D01*
X9721348Y1775749D01*
X9722180Y1774824D01*
X9722550Y1774547D01*
X9722827Y1774270D01*
X9722920Y1774177D01*
X9723012Y1774085D01*
X9724954Y1772513D01*
X9726895Y1771034D01*
X9728745Y1769739D01*
X9730594Y1768722D01*
X9732165Y1767798D01*
X9732813Y1767428D01*
X9733367Y1767151D01*
X9733830Y1766873D01*
X9734199Y1766781D01*
X9734384Y1766596D01*
X9734477D01*
Y1759015D01*
X9733090Y1759569D01*
X9731703Y1760216D01*
X9730316Y1760864D01*
X9729022Y1761511D01*
X9727912Y1762066D01*
X9726988Y1762528D01*
X9726433Y1762898D01*
X9726341Y1762990D01*
X9726248D01*
X9724584Y1764007D01*
X9723105Y1765024D01*
X9721810Y1765949D01*
X9720793Y1766781D01*
X9719869Y1767428D01*
X9719314Y1767983D01*
X9718852Y1768353D01*
X9718759Y1768445D01*
Y1718426D01*
X9710901D01*
Y1782683D01*
X9715986D01*
X9716910Y1781112D01*
D02*
G37*
G36*
X9689358Y1748659D02*
X9681962Y1747642D01*
X9681315Y1748659D01*
X9680483Y1749492D01*
X9679743Y1750324D01*
X9679003Y1750971D01*
X9678264Y1751433D01*
X9677709Y1751895D01*
X9677339Y1752080D01*
X9677247Y1752173D01*
X9676045Y1752728D01*
X9674843Y1753190D01*
X9673733Y1753467D01*
X9672624Y1753745D01*
X9671699Y1753837D01*
X9670960Y1753929D01*
X9669203D01*
X9668093Y1753745D01*
X9666152Y1753282D01*
X9664488Y1752635D01*
X9663008Y1751988D01*
X9661899Y1751248D01*
X9661067Y1750601D01*
X9660605Y1750139D01*
X9660420Y1750046D01*
Y1749954D01*
X9659125Y1748382D01*
X9658201Y1746718D01*
X9657553Y1744961D01*
X9657091Y1743205D01*
X9656814Y1741725D01*
X9656721Y1741078D01*
Y1740523D01*
X9656629Y1740061D01*
Y1739691D01*
Y1739506D01*
Y1739414D01*
Y1738119D01*
X9656814Y1736918D01*
X9657276Y1734606D01*
X9657923Y1732665D01*
X9658570Y1731093D01*
X9659310Y1729798D01*
X9659957Y1728781D01*
X9660235Y1728504D01*
X9660420Y1728227D01*
X9660512Y1728134D01*
X9660605Y1728042D01*
X9661344Y1727302D01*
X9662084Y1726655D01*
X9663748Y1725545D01*
X9665320Y1724806D01*
X9666892Y1724344D01*
X9668186Y1723974D01*
X9669295Y1723881D01*
X9669665Y1723789D01*
X9670220D01*
X9671977Y1723881D01*
X9673548Y1724251D01*
X9674935Y1724713D01*
X9676045Y1725268D01*
X9677062Y1725823D01*
X9677801Y1726285D01*
X9678171Y1726655D01*
X9678356Y1726747D01*
X9679466Y1728042D01*
X9680390Y1729429D01*
X9681130Y1731000D01*
X9681684Y1732387D01*
X9682054Y1733774D01*
X9682332Y1734791D01*
X9682424Y1735253D01*
X9682517Y1735531D01*
Y1735716D01*
Y1735808D01*
X9690745Y1735161D01*
X9690560Y1733682D01*
X9690283Y1732295D01*
X9689451Y1729706D01*
X9688434Y1727487D01*
X9687879Y1726470D01*
X9687324Y1725638D01*
X9686862Y1724806D01*
X9686307Y1724066D01*
X9685845Y1723511D01*
X9685383Y1723049D01*
X9685013Y1722679D01*
X9684828Y1722309D01*
X9684643Y1722217D01*
X9684551Y1722125D01*
X9683441Y1721292D01*
X9682332Y1720553D01*
X9681130Y1719906D01*
X9679928Y1719351D01*
X9677616Y1718519D01*
X9675305Y1717964D01*
X9674288Y1717687D01*
X9673271Y1717594D01*
X9672439Y1717502D01*
X9671699Y1717409D01*
X9671052Y1717317D01*
X9670220D01*
X9668278Y1717409D01*
X9666429Y1717687D01*
X9664673Y1718057D01*
X9663101Y1718519D01*
X9661622Y1719166D01*
X9660235Y1719813D01*
X9658940Y1720460D01*
X9657831Y1721200D01*
X9656814Y1721940D01*
X9655889Y1722587D01*
X9655150Y1723326D01*
X9654502Y1723881D01*
X9654040Y1724344D01*
X9653670Y1724713D01*
X9653485Y1724991D01*
X9653393Y1725083D01*
X9652468Y1726285D01*
X9651729Y1727579D01*
X9650989Y1728781D01*
X9650434Y1730076D01*
X9649510Y1732572D01*
X9648955Y1734976D01*
X9648770Y1735993D01*
X9648585Y1737010D01*
X9648493Y1737842D01*
X9648400Y1738582D01*
X9648308Y1739229D01*
Y1739691D01*
Y1739969D01*
Y1740061D01*
X9648400Y1741725D01*
X9648585Y1743297D01*
X9648863Y1744869D01*
X9649232Y1746256D01*
X9649695Y1747550D01*
X9650157Y1748844D01*
X9650712Y1749954D01*
X9651174Y1750971D01*
X9651729Y1751895D01*
X9652283Y1752728D01*
X9652746Y1753375D01*
X9653208Y1754022D01*
X9653578Y1754484D01*
X9653855Y1754762D01*
X9654040Y1754946D01*
X9654133Y1755039D01*
X9655242Y1756056D01*
X9656352Y1756980D01*
X9657553Y1757720D01*
X9658755Y1758367D01*
X9659957Y1759015D01*
X9661159Y1759477D01*
X9663378Y1760124D01*
X9664395Y1760401D01*
X9665320Y1760586D01*
X9666152Y1760679D01*
X9666892Y1760771D01*
X9667446Y1760864D01*
X9669480D01*
X9670590Y1760679D01*
X9672809Y1760216D01*
X9674843Y1759569D01*
X9676692Y1758830D01*
X9678171Y1758090D01*
X9678818Y1757720D01*
X9679373Y1757443D01*
X9679835Y1757165D01*
X9680113Y1756980D01*
X9680298Y1756888D01*
X9680390Y1756796D01*
X9676969Y1774085D01*
X9651359D01*
Y1781574D01*
X9683164D01*
X9689358Y1748659D01*
D02*
G37*
G36*
X9801692Y1718426D02*
X9793186D01*
Y1746810D01*
X9782277D01*
X9781260Y1746718D01*
X9780520D01*
X9779873Y1746625D01*
X9779410Y1746533D01*
X9779041D01*
X9778856Y1746440D01*
X9778763D01*
X9777284Y1745978D01*
X9776637Y1745701D01*
X9776082Y1745423D01*
X9775527Y1745146D01*
X9775157Y1744961D01*
X9774973Y1744869D01*
X9774880Y1744776D01*
X9774140Y1744222D01*
X9773401Y1743574D01*
X9772014Y1742188D01*
X9771367Y1741540D01*
X9770905Y1740986D01*
X9770627Y1740616D01*
X9770535Y1740523D01*
X9769610Y1739229D01*
X9768593Y1737842D01*
X9767576Y1736363D01*
X9766559Y1734976D01*
X9765727Y1733682D01*
X9765080Y1732665D01*
X9764802Y1732295D01*
X9764618Y1732017D01*
X9764433Y1731832D01*
Y1731740D01*
X9756019Y1718426D01*
X9745479D01*
X9756481Y1735808D01*
X9757776Y1737657D01*
X9758978Y1739321D01*
X9760180Y1740708D01*
X9761197Y1742003D01*
X9762121Y1742927D01*
X9762861Y1743667D01*
X9763323Y1744129D01*
X9763508Y1744314D01*
X9764248Y1744869D01*
X9765080Y1745516D01*
X9766744Y1746533D01*
X9767484Y1746903D01*
X9768038Y1747273D01*
X9768408Y1747458D01*
X9768593Y1747550D01*
X9766929Y1747827D01*
X9765357Y1748105D01*
X9763970Y1748567D01*
X9762583Y1748937D01*
X9761382Y1749399D01*
X9760272Y1749954D01*
X9759255Y1750416D01*
X9758330Y1750878D01*
X9757591Y1751433D01*
X9756851Y1751895D01*
X9756296Y1752265D01*
X9755834Y1752635D01*
X9755464Y1752912D01*
X9755187Y1753190D01*
X9755095Y1753282D01*
X9755002Y1753375D01*
X9754262Y1754299D01*
X9753523Y1755224D01*
X9752413Y1757165D01*
X9751674Y1759107D01*
X9751119Y1760956D01*
X9750749Y1762528D01*
X9750657Y1763175D01*
Y1763822D01*
X9750564Y1764285D01*
Y1764654D01*
Y1764839D01*
Y1764932D01*
X9750657Y1766873D01*
X9750934Y1768630D01*
X9751396Y1770294D01*
X9751859Y1771681D01*
X9752413Y1772883D01*
X9752783Y1773807D01*
X9753153Y1774362D01*
X9753245Y1774455D01*
Y1774547D01*
X9754355Y1776026D01*
X9755464Y1777321D01*
X9756666Y1778430D01*
X9757776Y1779262D01*
X9758793Y1779910D01*
X9759625Y1780279D01*
X9760180Y1780557D01*
X9760272Y1780649D01*
X9760365D01*
X9761197Y1780927D01*
X9762214Y1781204D01*
X9764248Y1781666D01*
X9766467Y1781944D01*
X9768501Y1782221D01*
X9770442Y1782313D01*
X9771274D01*
X9772014Y1782406D01*
X9801692D01*
Y1718426D01*
D02*
G37*
G36*
X2165658Y3454645D02*
X2166675Y3453166D01*
X2167877Y3451687D01*
X2168986Y3450392D01*
X2170096Y3449283D01*
X2170928Y3448358D01*
X2171298Y3448081D01*
X2171575Y3447803D01*
X2171667Y3447711D01*
X2171760Y3447618D01*
X2173702Y3446047D01*
X2175643Y3444567D01*
X2177492Y3443273D01*
X2179341Y3442256D01*
X2180913Y3441331D01*
X2181560Y3440962D01*
X2182115Y3440684D01*
X2182577Y3440407D01*
X2182947Y3440314D01*
X2183132Y3440130D01*
X2183224D01*
Y3432548D01*
X2181838Y3433103D01*
X2180451Y3433750D01*
X2179064Y3434397D01*
X2177770Y3435044D01*
X2176660Y3435599D01*
X2175736Y3436061D01*
X2175181Y3436431D01*
X2175088Y3436524D01*
X2174996D01*
X2173332Y3437541D01*
X2171852Y3438558D01*
X2170558Y3439482D01*
X2169541Y3440314D01*
X2168616Y3440962D01*
X2168062Y3441516D01*
X2167599Y3441886D01*
X2167507Y3441979D01*
Y3391960D01*
X2159648D01*
Y3456217D01*
X2164733D01*
X2165658Y3454645D01*
D02*
G37*
G36*
X2250440Y3391960D02*
X2241934D01*
Y3420344D01*
X2231024D01*
X2230007Y3420251D01*
X2229268D01*
X2228620Y3420159D01*
X2228158Y3420067D01*
X2227788D01*
X2227603Y3419974D01*
X2227511D01*
X2226032Y3419512D01*
X2225384Y3419234D01*
X2224830Y3418957D01*
X2224275Y3418680D01*
X2223905Y3418495D01*
X2223720Y3418402D01*
X2223628Y3418310D01*
X2222888Y3417755D01*
X2222148Y3417108D01*
X2220762Y3415721D01*
X2220114Y3415074D01*
X2219652Y3414519D01*
X2219375Y3414149D01*
X2219282Y3414057D01*
X2218358Y3412763D01*
X2217341Y3411376D01*
X2216324Y3409896D01*
X2215307Y3408510D01*
X2214475Y3407215D01*
X2213827Y3406198D01*
X2213550Y3405828D01*
X2213365Y3405551D01*
X2213180Y3405366D01*
Y3405274D01*
X2204767Y3391960D01*
X2194227D01*
X2205229Y3409342D01*
X2206523Y3411191D01*
X2207725Y3412855D01*
X2208927Y3414242D01*
X2209944Y3415536D01*
X2210869Y3416461D01*
X2211608Y3417200D01*
X2212071Y3417663D01*
X2212256Y3417848D01*
X2212995Y3418402D01*
X2213827Y3419050D01*
X2215492Y3420067D01*
X2216231Y3420436D01*
X2216786Y3420806D01*
X2217156Y3420991D01*
X2217341Y3421084D01*
X2215677Y3421361D01*
X2214105Y3421638D01*
X2212718Y3422101D01*
X2211331Y3422470D01*
X2210129Y3422933D01*
X2209020Y3423487D01*
X2208003Y3423950D01*
X2207078Y3424412D01*
X2206338Y3424967D01*
X2205599Y3425429D01*
X2205044Y3425799D01*
X2204582Y3426169D01*
X2204212Y3426446D01*
X2203935Y3426723D01*
X2203842Y3426816D01*
X2203750Y3426908D01*
X2203010Y3427833D01*
X2202270Y3428757D01*
X2201161Y3430699D01*
X2200421Y3432641D01*
X2199867Y3434490D01*
X2199497Y3436061D01*
X2199404Y3436709D01*
Y3437356D01*
X2199312Y3437818D01*
Y3438188D01*
Y3438373D01*
Y3438465D01*
X2199404Y3440407D01*
X2199682Y3442164D01*
X2200144Y3443828D01*
X2200606Y3445215D01*
X2201161Y3446417D01*
X2201531Y3447341D01*
X2201901Y3447896D01*
X2201993Y3447988D01*
Y3448081D01*
X2203103Y3449560D01*
X2204212Y3450854D01*
X2205414Y3451964D01*
X2206523Y3452796D01*
X2207540Y3453443D01*
X2208373Y3453813D01*
X2208927Y3454090D01*
X2209020Y3454183D01*
X2209112D01*
X2209944Y3454460D01*
X2210961Y3454738D01*
X2212995Y3455200D01*
X2215214Y3455477D01*
X2217248Y3455755D01*
X2219190Y3455847D01*
X2220022D01*
X2220762Y3455939D01*
X2250440D01*
Y3391960D01*
D02*
G37*
G36*
X2142174Y3414519D02*
Y3407308D01*
X2114345D01*
Y3391960D01*
X2106486D01*
Y3407308D01*
X2097795D01*
Y3414519D01*
X2106486D01*
Y3455939D01*
X2112865D01*
X2142174Y3414519D01*
D02*
G37*
G36*
X1723331Y3458572D02*
X1725827Y3458110D01*
X1727954Y3457370D01*
X1729803Y3456630D01*
X1730635Y3456168D01*
X1731282Y3455798D01*
X1731929Y3455428D01*
X1732392Y3455059D01*
X1732762Y3454781D01*
X1733039Y3454596D01*
X1733224Y3454504D01*
X1733316Y3454411D01*
X1735073Y3452655D01*
X1736460Y3450713D01*
X1737569Y3448679D01*
X1738494Y3446645D01*
X1739049Y3444888D01*
X1739326Y3444149D01*
X1739511Y3443502D01*
X1739603Y3442947D01*
X1739696Y3442577D01*
X1739788Y3442300D01*
Y3442207D01*
X1731929Y3440820D01*
X1731560Y3442854D01*
X1731005Y3444611D01*
X1730358Y3446090D01*
X1729711Y3447292D01*
X1729063Y3448217D01*
X1728509Y3448864D01*
X1728139Y3449326D01*
X1728046Y3449419D01*
X1726844Y3450343D01*
X1725550Y3451083D01*
X1724348Y3451545D01*
X1723146Y3451915D01*
X1722037Y3452100D01*
X1721205Y3452285D01*
X1720465D01*
X1718801Y3452192D01*
X1717321Y3451823D01*
X1716027Y3451360D01*
X1714918Y3450898D01*
X1714085Y3450343D01*
X1713438Y3449881D01*
X1712976Y3449511D01*
X1712884Y3449419D01*
X1711867Y3448309D01*
X1711127Y3447107D01*
X1710665Y3445905D01*
X1710295Y3444796D01*
X1710110Y3443779D01*
X1709925Y3443039D01*
Y3442485D01*
Y3442392D01*
Y3442300D01*
Y3441283D01*
X1710110Y3440358D01*
X1710572Y3438786D01*
X1711219Y3437400D01*
X1711959Y3436198D01*
X1712699Y3435365D01*
X1713346Y3434718D01*
X1713808Y3434348D01*
X1713901Y3434256D01*
X1713993D01*
X1715565Y3433424D01*
X1717044Y3432777D01*
X1718616Y3432314D01*
X1720003Y3432037D01*
X1721205Y3431852D01*
X1722222Y3431667D01*
X1723424D01*
X1723793Y3431760D01*
X1724256D01*
X1725180Y3424826D01*
X1723978Y3425103D01*
X1722869Y3425288D01*
X1721944Y3425473D01*
X1721112Y3425565D01*
X1720465Y3425658D01*
X1719633D01*
X1717691Y3425473D01*
X1715935Y3425103D01*
X1714363Y3424548D01*
X1713068Y3423901D01*
X1712051Y3423254D01*
X1711312Y3422699D01*
X1710850Y3422329D01*
X1710665Y3422144D01*
X1709463Y3420757D01*
X1708538Y3419278D01*
X1707891Y3417799D01*
X1707521Y3416320D01*
X1707244Y3415118D01*
X1707151Y3414101D01*
X1707059Y3413731D01*
Y3413453D01*
Y3413269D01*
Y3413176D01*
X1707244Y3411142D01*
X1707706Y3409293D01*
X1708261Y3407721D01*
X1709000Y3406334D01*
X1709740Y3405225D01*
X1710295Y3404393D01*
X1710757Y3403838D01*
X1710942Y3403653D01*
X1712421Y3402359D01*
X1713993Y3401434D01*
X1715565Y3400787D01*
X1717044Y3400325D01*
X1718338Y3400047D01*
X1719355Y3399955D01*
X1719725Y3399862D01*
X1720280D01*
X1721944Y3399955D01*
X1723516Y3400325D01*
X1724903Y3400787D01*
X1726012Y3401342D01*
X1726937Y3401804D01*
X1727677Y3402266D01*
X1728046Y3402636D01*
X1728231Y3402729D01*
X1729341Y3404023D01*
X1730265Y3405502D01*
X1731097Y3407074D01*
X1731745Y3408738D01*
X1732207Y3410125D01*
X1732392Y3410772D01*
X1732484Y3411327D01*
X1732577Y3411789D01*
X1732669Y3412159D01*
X1732762Y3412344D01*
Y3412436D01*
X1740620Y3411419D01*
X1740435Y3409940D01*
X1740158Y3408553D01*
X1739326Y3405964D01*
X1738309Y3403746D01*
X1737754Y3402821D01*
X1737199Y3401896D01*
X1736645Y3401064D01*
X1736090Y3400417D01*
X1735628Y3399770D01*
X1735165Y3399308D01*
X1734888Y3398938D01*
X1734611Y3398660D01*
X1734426Y3398476D01*
X1734333Y3398383D01*
X1733224Y3397551D01*
X1732114Y3396719D01*
X1731005Y3396072D01*
X1729803Y3395517D01*
X1727492Y3394592D01*
X1725273Y3394038D01*
X1724256Y3393853D01*
X1723331Y3393668D01*
X1722499Y3393575D01*
X1721759Y3393483D01*
X1721205Y3393390D01*
X1720372D01*
X1718616Y3393483D01*
X1717044Y3393668D01*
X1715472Y3393945D01*
X1713993Y3394315D01*
X1712606Y3394777D01*
X1711404Y3395240D01*
X1710202Y3395794D01*
X1709185Y3396349D01*
X1708168Y3396811D01*
X1707336Y3397366D01*
X1706597Y3397828D01*
X1706042Y3398291D01*
X1705580Y3398660D01*
X1705210Y3398938D01*
X1705025Y3399123D01*
X1704932Y3399215D01*
X1703823Y3400325D01*
X1702898Y3401527D01*
X1702066Y3402729D01*
X1701327Y3403930D01*
X1700772Y3405040D01*
X1700217Y3406242D01*
X1699477Y3408461D01*
X1699293Y3409478D01*
X1699108Y3410402D01*
X1698923Y3411234D01*
X1698830Y3411974D01*
X1698738Y3412529D01*
Y3412991D01*
Y3413269D01*
Y3413361D01*
X1698830Y3415580D01*
X1699200Y3417614D01*
X1699755Y3419371D01*
X1700310Y3420850D01*
X1700864Y3422052D01*
X1701419Y3422976D01*
X1701789Y3423531D01*
X1701881Y3423716D01*
X1703176Y3425103D01*
X1704563Y3426305D01*
X1706042Y3427229D01*
X1707521Y3427969D01*
X1708815Y3428524D01*
X1709832Y3428894D01*
X1710202Y3428986D01*
X1710480Y3429078D01*
X1710665Y3429171D01*
X1710757D01*
X1709185Y3430003D01*
X1707891Y3430835D01*
X1706781Y3431760D01*
X1705857Y3432592D01*
X1705117Y3433331D01*
X1704563Y3433979D01*
X1704285Y3434348D01*
X1704193Y3434533D01*
X1703453Y3435828D01*
X1702898Y3437122D01*
X1702436Y3438417D01*
X1702159Y3439618D01*
X1701974Y3440635D01*
X1701881Y3441375D01*
Y3441930D01*
Y3442115D01*
X1701974Y3443687D01*
X1702251Y3445258D01*
X1702621Y3446645D01*
X1703083Y3447847D01*
X1703545Y3448864D01*
X1703915Y3449696D01*
X1704193Y3450158D01*
X1704285Y3450343D01*
X1705210Y3451730D01*
X1706319Y3452932D01*
X1707429Y3453949D01*
X1708538Y3454874D01*
X1709463Y3455521D01*
X1710295Y3456076D01*
X1710850Y3456353D01*
X1710942Y3456445D01*
X1711034D01*
X1712699Y3457185D01*
X1714363Y3457740D01*
X1716027Y3458202D01*
X1717506Y3458479D01*
X1718708Y3458664D01*
X1719725Y3458757D01*
X1722037D01*
X1723331Y3458572D01*
D02*
G37*
G36*
X1766878Y3457185D02*
X1767895Y3455706D01*
X1769097Y3454227D01*
X1770206Y3452932D01*
X1771316Y3451823D01*
X1772148Y3450898D01*
X1772518Y3450621D01*
X1772795Y3450343D01*
X1772887Y3450251D01*
X1772980Y3450158D01*
X1774922Y3448587D01*
X1776863Y3447107D01*
X1778712Y3445813D01*
X1780561Y3444796D01*
X1782133Y3443871D01*
X1782780Y3443502D01*
X1783335Y3443224D01*
X1783797Y3442947D01*
X1784167Y3442854D01*
X1784352Y3442670D01*
X1784444D01*
Y3435088D01*
X1783058Y3435643D01*
X1781671Y3436290D01*
X1780284Y3436937D01*
X1778990Y3437584D01*
X1777880Y3438139D01*
X1776956Y3438601D01*
X1776401Y3438971D01*
X1776308Y3439064D01*
X1776216D01*
X1774552Y3440081D01*
X1773072Y3441098D01*
X1771778Y3442022D01*
X1770761Y3442854D01*
X1769836Y3443502D01*
X1769282Y3444056D01*
X1768819Y3444426D01*
X1768727Y3444519D01*
Y3394500D01*
X1760868D01*
Y3458757D01*
X1765953D01*
X1766878Y3457185D01*
D02*
G37*
G36*
X1851660Y3394500D02*
X1843154D01*
Y3422884D01*
X1832244D01*
X1831227Y3422791D01*
X1830488D01*
X1829840Y3422699D01*
X1829378Y3422607D01*
X1829008D01*
X1828823Y3422514D01*
X1828731D01*
X1827252Y3422052D01*
X1826604Y3421774D01*
X1826050Y3421497D01*
X1825495Y3421220D01*
X1825125Y3421035D01*
X1824940Y3420942D01*
X1824848Y3420850D01*
X1824108Y3420295D01*
X1823368Y3419648D01*
X1821982Y3418261D01*
X1821334Y3417614D01*
X1820872Y3417059D01*
X1820595Y3416689D01*
X1820502Y3416597D01*
X1819578Y3415303D01*
X1818561Y3413916D01*
X1817544Y3412436D01*
X1816527Y3411050D01*
X1815695Y3409755D01*
X1815047Y3408738D01*
X1814770Y3408368D01*
X1814585Y3408091D01*
X1814400Y3407906D01*
Y3407814D01*
X1805987Y3394500D01*
X1795447D01*
X1806449Y3411882D01*
X1807743Y3413731D01*
X1808945Y3415395D01*
X1810147Y3416782D01*
X1811164Y3418076D01*
X1812089Y3419001D01*
X1812828Y3419740D01*
X1813291Y3420203D01*
X1813476Y3420388D01*
X1814215Y3420942D01*
X1815047Y3421590D01*
X1816712Y3422607D01*
X1817451Y3422976D01*
X1818006Y3423346D01*
X1818376Y3423531D01*
X1818561Y3423624D01*
X1816897Y3423901D01*
X1815325Y3424178D01*
X1813938Y3424641D01*
X1812551Y3425010D01*
X1811349Y3425473D01*
X1810240Y3426027D01*
X1809223Y3426490D01*
X1808298Y3426952D01*
X1807558Y3427507D01*
X1806819Y3427969D01*
X1806264Y3428339D01*
X1805802Y3428709D01*
X1805432Y3428986D01*
X1805155Y3429263D01*
X1805062Y3429356D01*
X1804970Y3429448D01*
X1804230Y3430373D01*
X1803490Y3431297D01*
X1802381Y3433239D01*
X1801641Y3435181D01*
X1801087Y3437030D01*
X1800717Y3438601D01*
X1800624Y3439249D01*
Y3439896D01*
X1800532Y3440358D01*
Y3440728D01*
Y3440913D01*
Y3441005D01*
X1800624Y3442947D01*
X1800902Y3444704D01*
X1801364Y3446368D01*
X1801826Y3447755D01*
X1802381Y3448957D01*
X1802751Y3449881D01*
X1803121Y3450436D01*
X1803213Y3450528D01*
Y3450621D01*
X1804323Y3452100D01*
X1805432Y3453394D01*
X1806634Y3454504D01*
X1807743Y3455336D01*
X1808760Y3455983D01*
X1809593Y3456353D01*
X1810147Y3456630D01*
X1810240Y3456723D01*
X1810332D01*
X1811164Y3457000D01*
X1812181Y3457278D01*
X1814215Y3457740D01*
X1816434Y3458017D01*
X1818468Y3458295D01*
X1820410Y3458387D01*
X1821242D01*
X1821982Y3458479D01*
X1851660D01*
Y3394500D01*
D02*
G37*
G36*
X1921865Y3456124D02*
X1923436Y3456032D01*
X1924916Y3455755D01*
X1926302Y3455477D01*
X1927597Y3455107D01*
X1928799Y3454738D01*
X1929908Y3454275D01*
X1930925Y3453813D01*
X1931850Y3453351D01*
X1932589Y3452888D01*
X1933237Y3452519D01*
X1933791Y3452149D01*
X1934254Y3451871D01*
X1934531Y3451594D01*
X1934716Y3451502D01*
X1934808Y3451409D01*
X1935733Y3450485D01*
X1936565Y3449468D01*
X1937397Y3448358D01*
X1938044Y3447249D01*
X1939154Y3445030D01*
X1939894Y3442811D01*
X1940171Y3441794D01*
X1940448Y3440777D01*
X1940633Y3439945D01*
X1940818Y3439205D01*
X1940911Y3438558D01*
Y3438095D01*
X1941003Y3437818D01*
Y3437726D01*
X1932959Y3436894D01*
X1932774Y3439020D01*
X1932405Y3440869D01*
X1931850Y3442533D01*
X1931203Y3443828D01*
X1930648Y3444937D01*
X1930093Y3445677D01*
X1929723Y3446139D01*
X1929538Y3446324D01*
X1928152Y3447434D01*
X1926672Y3448266D01*
X1925101Y3448913D01*
X1923714Y3449283D01*
X1922419Y3449560D01*
X1921310Y3449652D01*
X1920940Y3449745D01*
X1920385D01*
X1918444Y3449652D01*
X1916687Y3449283D01*
X1915208Y3448728D01*
X1913913Y3448173D01*
X1912896Y3447526D01*
X1912249Y3447064D01*
X1911787Y3446694D01*
X1911602Y3446509D01*
X1910492Y3445215D01*
X1909660Y3443920D01*
X1909013Y3442626D01*
X1908643Y3441331D01*
X1908366Y3440314D01*
X1908274Y3439390D01*
X1908181Y3438835D01*
Y3438743D01*
Y3438650D01*
X1908366Y3436986D01*
X1908736Y3435229D01*
X1909383Y3433658D01*
X1910030Y3432178D01*
X1910770Y3430976D01*
X1911417Y3429959D01*
X1911602Y3429590D01*
X1911787Y3429312D01*
X1911972Y3429220D01*
Y3429127D01*
X1912711Y3428110D01*
X1913636Y3427093D01*
X1914653Y3425984D01*
X1915762Y3424874D01*
X1918074Y3422655D01*
X1920385Y3420436D01*
X1921587Y3419419D01*
X1922604Y3418495D01*
X1923621Y3417663D01*
X1924453Y3416923D01*
X1925101Y3416368D01*
X1925655Y3415906D01*
X1926025Y3415629D01*
X1926118Y3415536D01*
X1928429Y3413595D01*
X1930555Y3411746D01*
X1932312Y3410081D01*
X1933699Y3408694D01*
X1934901Y3407493D01*
X1935733Y3406660D01*
X1936195Y3406106D01*
X1936380Y3406013D01*
Y3405921D01*
X1937675Y3404349D01*
X1938692Y3402870D01*
X1939616Y3401390D01*
X1940356Y3400096D01*
X1940911Y3398987D01*
X1941280Y3398154D01*
X1941465Y3397600D01*
X1941558Y3397507D01*
Y3397415D01*
X1941928Y3396398D01*
X1942112Y3395473D01*
X1942297Y3394549D01*
X1942390Y3393717D01*
X1942482Y3392977D01*
Y3392422D01*
Y3392052D01*
Y3391960D01*
X1900045D01*
Y3399541D01*
X1931572D01*
X1930463Y3401113D01*
X1929908Y3401760D01*
X1929446Y3402407D01*
X1928984Y3402962D01*
X1928614Y3403332D01*
X1928337Y3403609D01*
X1928244Y3403702D01*
X1927782Y3404164D01*
X1927227Y3404626D01*
X1925933Y3405828D01*
X1924453Y3407215D01*
X1922882Y3408602D01*
X1921402Y3409804D01*
X1920755Y3410359D01*
X1920200Y3410913D01*
X1919738Y3411283D01*
X1919368Y3411561D01*
X1919183Y3411746D01*
X1919091Y3411838D01*
X1917612Y3413132D01*
X1916132Y3414334D01*
X1914838Y3415536D01*
X1913636Y3416553D01*
X1912527Y3417570D01*
X1911602Y3418495D01*
X1910677Y3419327D01*
X1909938Y3420067D01*
X1909198Y3420806D01*
X1908643Y3421361D01*
X1908181Y3421823D01*
X1907719Y3422286D01*
X1907257Y3422840D01*
X1907072Y3423025D01*
X1905777Y3424597D01*
X1904668Y3425984D01*
X1903743Y3427371D01*
X1903004Y3428480D01*
X1902449Y3429497D01*
X1902079Y3430237D01*
X1901894Y3430699D01*
X1901802Y3430884D01*
X1901247Y3432271D01*
X1900877Y3433658D01*
X1900507Y3434952D01*
X1900322Y3436061D01*
X1900230Y3437078D01*
X1900137Y3437818D01*
Y3438280D01*
Y3438465D01*
X1900230Y3439852D01*
X1900415Y3441147D01*
X1900600Y3442441D01*
X1900970Y3443550D01*
X1901894Y3445769D01*
X1902819Y3447526D01*
X1903373Y3448358D01*
X1903836Y3449005D01*
X1904298Y3449652D01*
X1904760Y3450115D01*
X1905130Y3450485D01*
X1905315Y3450854D01*
X1905500Y3450947D01*
X1905592Y3451039D01*
X1906609Y3451964D01*
X1907719Y3452796D01*
X1908921Y3453443D01*
X1910123Y3453998D01*
X1912527Y3454922D01*
X1914930Y3455570D01*
X1915947Y3455755D01*
X1916964Y3455939D01*
X1917889Y3456032D01*
X1918629Y3456124D01*
X1919276Y3456217D01*
X1920200D01*
X1921865Y3456124D01*
D02*
G37*
G36*
X1967538Y3454645D02*
X1968555Y3453166D01*
X1969757Y3451687D01*
X1970866Y3450392D01*
X1971976Y3449283D01*
X1972808Y3448358D01*
X1973178Y3448081D01*
X1973455Y3447803D01*
X1973547Y3447711D01*
X1973640Y3447618D01*
X1975582Y3446047D01*
X1977523Y3444567D01*
X1979372Y3443273D01*
X1981221Y3442256D01*
X1982793Y3441331D01*
X1983440Y3440962D01*
X1983995Y3440684D01*
X1984457Y3440407D01*
X1984827Y3440314D01*
X1985012Y3440130D01*
X1985104D01*
Y3432548D01*
X1983718Y3433103D01*
X1982331Y3433750D01*
X1980944Y3434397D01*
X1979650Y3435044D01*
X1978540Y3435599D01*
X1977616Y3436061D01*
X1977061Y3436431D01*
X1976968Y3436524D01*
X1976876D01*
X1975212Y3437541D01*
X1973732Y3438558D01*
X1972438Y3439482D01*
X1971421Y3440314D01*
X1970496Y3440962D01*
X1969942Y3441516D01*
X1969479Y3441886D01*
X1969387Y3441979D01*
Y3391960D01*
X1961528D01*
Y3456217D01*
X1966613D01*
X1967538Y3454645D01*
D02*
G37*
G36*
X2052320Y3391960D02*
X2043814D01*
Y3420344D01*
X2032904D01*
X2031887Y3420251D01*
X2031148D01*
X2030500Y3420159D01*
X2030038Y3420067D01*
X2029668D01*
X2029483Y3419974D01*
X2029391D01*
X2027912Y3419512D01*
X2027264Y3419234D01*
X2026710Y3418957D01*
X2026155Y3418680D01*
X2025785Y3418495D01*
X2025600Y3418402D01*
X2025508Y3418310D01*
X2024768Y3417755D01*
X2024028Y3417108D01*
X2022642Y3415721D01*
X2021994Y3415074D01*
X2021532Y3414519D01*
X2021255Y3414149D01*
X2021162Y3414057D01*
X2020238Y3412763D01*
X2019221Y3411376D01*
X2018204Y3409896D01*
X2017187Y3408510D01*
X2016355Y3407215D01*
X2015707Y3406198D01*
X2015430Y3405828D01*
X2015245Y3405551D01*
X2015060Y3405366D01*
Y3405274D01*
X2006647Y3391960D01*
X1996107D01*
X2007109Y3409342D01*
X2008403Y3411191D01*
X2009605Y3412855D01*
X2010807Y3414242D01*
X2011824Y3415536D01*
X2012749Y3416461D01*
X2013488Y3417200D01*
X2013951Y3417663D01*
X2014136Y3417848D01*
X2014875Y3418402D01*
X2015707Y3419050D01*
X2017372Y3420067D01*
X2018111Y3420436D01*
X2018666Y3420806D01*
X2019036Y3420991D01*
X2019221Y3421084D01*
X2017557Y3421361D01*
X2015985Y3421638D01*
X2014598Y3422101D01*
X2013211Y3422470D01*
X2012009Y3422933D01*
X2010900Y3423487D01*
X2009883Y3423950D01*
X2008958Y3424412D01*
X2008218Y3424967D01*
X2007479Y3425429D01*
X2006924Y3425799D01*
X2006462Y3426169D01*
X2006092Y3426446D01*
X2005815Y3426723D01*
X2005722Y3426816D01*
X2005630Y3426908D01*
X2004890Y3427833D01*
X2004150Y3428757D01*
X2003041Y3430699D01*
X2002301Y3432641D01*
X2001747Y3434490D01*
X2001377Y3436061D01*
X2001284Y3436709D01*
Y3437356D01*
X2001192Y3437818D01*
Y3438188D01*
Y3438373D01*
Y3438465D01*
X2001284Y3440407D01*
X2001562Y3442164D01*
X2002024Y3443828D01*
X2002486Y3445215D01*
X2003041Y3446417D01*
X2003411Y3447341D01*
X2003781Y3447896D01*
X2003873Y3447988D01*
Y3448081D01*
X2004983Y3449560D01*
X2006092Y3450854D01*
X2007294Y3451964D01*
X2008403Y3452796D01*
X2009420Y3453443D01*
X2010253Y3453813D01*
X2010807Y3454090D01*
X2010900Y3454183D01*
X2010992D01*
X2011824Y3454460D01*
X2012841Y3454738D01*
X2014875Y3455200D01*
X2017094Y3455477D01*
X2019128Y3455755D01*
X2021070Y3455847D01*
X2021902D01*
X2022642Y3455939D01*
X2052320D01*
Y3391960D01*
D02*
G37*
G36*
X2370337Y3456124D02*
X2371909Y3456032D01*
X2373388Y3455755D01*
X2374775Y3455477D01*
X2376069Y3455107D01*
X2377271Y3454738D01*
X2378381Y3454275D01*
X2379398Y3453813D01*
X2380322Y3453351D01*
X2381062Y3452888D01*
X2381709Y3452519D01*
X2382264Y3452149D01*
X2382726Y3451871D01*
X2383004Y3451594D01*
X2383189Y3451502D01*
X2383281Y3451409D01*
X2384206Y3450485D01*
X2385038Y3449468D01*
X2385870Y3448358D01*
X2386517Y3447249D01*
X2387626Y3445030D01*
X2388366Y3442811D01*
X2388643Y3441794D01*
X2388921Y3440777D01*
X2389106Y3439945D01*
X2389291Y3439205D01*
X2389383Y3438558D01*
Y3438095D01*
X2389476Y3437818D01*
Y3437726D01*
X2381432Y3436894D01*
X2381247Y3439020D01*
X2380877Y3440869D01*
X2380322Y3442533D01*
X2379675Y3443828D01*
X2379120Y3444937D01*
X2378566Y3445677D01*
X2378196Y3446139D01*
X2378011Y3446324D01*
X2376624Y3447434D01*
X2375145Y3448266D01*
X2373573Y3448913D01*
X2372186Y3449283D01*
X2370892Y3449560D01*
X2369782Y3449652D01*
X2369413Y3449745D01*
X2368858D01*
X2366916Y3449652D01*
X2365160Y3449283D01*
X2363680Y3448728D01*
X2362386Y3448173D01*
X2361369Y3447526D01*
X2360722Y3447064D01*
X2360259Y3446694D01*
X2360075Y3446509D01*
X2358965Y3445215D01*
X2358133Y3443920D01*
X2357486Y3442626D01*
X2357116Y3441331D01*
X2356839Y3440314D01*
X2356746Y3439390D01*
X2356654Y3438835D01*
Y3438743D01*
Y3438650D01*
X2356839Y3436986D01*
X2357208Y3435229D01*
X2357856Y3433658D01*
X2358503Y3432178D01*
X2359242Y3430976D01*
X2359890Y3429959D01*
X2360075Y3429590D01*
X2360259Y3429312D01*
X2360444Y3429220D01*
Y3429127D01*
X2361184Y3428110D01*
X2362109Y3427093D01*
X2363126Y3425984D01*
X2364235Y3424874D01*
X2366546Y3422655D01*
X2368858Y3420436D01*
X2370060Y3419419D01*
X2371077Y3418495D01*
X2372094Y3417663D01*
X2372926Y3416923D01*
X2373573Y3416368D01*
X2374128Y3415906D01*
X2374498Y3415629D01*
X2374590Y3415536D01*
X2376902Y3413595D01*
X2379028Y3411746D01*
X2380785Y3410081D01*
X2382172Y3408694D01*
X2383373Y3407493D01*
X2384206Y3406660D01*
X2384668Y3406106D01*
X2384853Y3406013D01*
Y3405921D01*
X2386147Y3404349D01*
X2387164Y3402870D01*
X2388089Y3401390D01*
X2388828Y3400096D01*
X2389383Y3398987D01*
X2389753Y3398154D01*
X2389938Y3397600D01*
X2390030Y3397507D01*
Y3397415D01*
X2390400Y3396398D01*
X2390585Y3395473D01*
X2390770Y3394549D01*
X2390862Y3393717D01*
X2390955Y3392977D01*
Y3392422D01*
Y3392052D01*
Y3391960D01*
X2348518D01*
Y3399541D01*
X2380045D01*
X2378936Y3401113D01*
X2378381Y3401760D01*
X2377919Y3402407D01*
X2377456Y3402962D01*
X2377086Y3403332D01*
X2376809Y3403609D01*
X2376717Y3403702D01*
X2376254Y3404164D01*
X2375700Y3404626D01*
X2374405Y3405828D01*
X2372926Y3407215D01*
X2371354Y3408602D01*
X2369875Y3409804D01*
X2369228Y3410359D01*
X2368673Y3410913D01*
X2368211Y3411283D01*
X2367841Y3411561D01*
X2367656Y3411746D01*
X2367563Y3411838D01*
X2366084Y3413132D01*
X2364605Y3414334D01*
X2363310Y3415536D01*
X2362109Y3416553D01*
X2360999Y3417570D01*
X2360075Y3418495D01*
X2359150Y3419327D01*
X2358410Y3420067D01*
X2357671Y3420806D01*
X2357116Y3421361D01*
X2356654Y3421823D01*
X2356191Y3422286D01*
X2355729Y3422840D01*
X2355544Y3423025D01*
X2354250Y3424597D01*
X2353140Y3425984D01*
X2352216Y3427371D01*
X2351476Y3428480D01*
X2350921Y3429497D01*
X2350552Y3430237D01*
X2350367Y3430699D01*
X2350274Y3430884D01*
X2349719Y3432271D01*
X2349350Y3433658D01*
X2348980Y3434952D01*
X2348795Y3436061D01*
X2348702Y3437078D01*
X2348610Y3437818D01*
Y3438280D01*
Y3438465D01*
X2348702Y3439852D01*
X2348887Y3441147D01*
X2349072Y3442441D01*
X2349442Y3443550D01*
X2350367Y3445769D01*
X2351291Y3447526D01*
X2351846Y3448358D01*
X2352308Y3449005D01*
X2352771Y3449652D01*
X2353233Y3450115D01*
X2353603Y3450485D01*
X2353788Y3450854D01*
X2353972Y3450947D01*
X2354065Y3451039D01*
X2355082Y3451964D01*
X2356191Y3452796D01*
X2357393Y3453443D01*
X2358595Y3453998D01*
X2360999Y3454922D01*
X2363403Y3455570D01*
X2364420Y3455755D01*
X2365437Y3455939D01*
X2366362Y3456032D01*
X2367101Y3456124D01*
X2367748Y3456217D01*
X2368673D01*
X2370337Y3456124D01*
D02*
G37*
G36*
X2426550Y3456864D02*
X2429509Y3456402D01*
X2432098Y3455847D01*
X2433300Y3455477D01*
X2434409Y3455107D01*
X2435426Y3454738D01*
X2436351Y3454368D01*
X2437090Y3454090D01*
X2437830Y3453813D01*
X2438292Y3453536D01*
X2438662Y3453351D01*
X2438939Y3453258D01*
X2439032Y3453166D01*
X2441528Y3451594D01*
X2443655Y3449745D01*
X2445504Y3447896D01*
X2447076Y3446047D01*
X2448278Y3444382D01*
X2448740Y3443643D01*
X2449110Y3442996D01*
X2449479Y3442533D01*
X2449664Y3442164D01*
X2449757Y3441886D01*
X2449849Y3441794D01*
X2451144Y3438928D01*
X2452068Y3435969D01*
X2452715Y3433010D01*
X2453178Y3430329D01*
X2453363Y3429127D01*
X2453455Y3427925D01*
X2453548Y3427001D01*
Y3426076D01*
X2453640Y3425429D01*
Y3424874D01*
Y3424504D01*
Y3424412D01*
X2453455Y3421084D01*
X2453085Y3417848D01*
X2452623Y3414981D01*
X2452253Y3413595D01*
X2451976Y3412393D01*
X2451698Y3411283D01*
X2451329Y3410266D01*
X2451051Y3409342D01*
X2450866Y3408602D01*
X2450589Y3408047D01*
X2450496Y3407585D01*
X2450312Y3407308D01*
Y3407215D01*
X2448925Y3404442D01*
X2447353Y3401945D01*
X2445689Y3399819D01*
X2444857Y3398987D01*
X2444117Y3398154D01*
X2443377Y3397415D01*
X2442638Y3396768D01*
X2441991Y3396213D01*
X2441436Y3395843D01*
X2441066Y3395473D01*
X2440696Y3395196D01*
X2440511Y3395103D01*
X2440419Y3395011D01*
X2439124Y3394271D01*
X2437830Y3393624D01*
X2435056Y3392607D01*
X2432283Y3391867D01*
X2429601Y3391405D01*
X2428307Y3391220D01*
X2427198Y3391035D01*
X2426181Y3390943D01*
X2425348D01*
X2424609Y3390850D01*
X2423592D01*
X2421743Y3390943D01*
X2419986Y3391128D01*
X2418322Y3391313D01*
X2416750Y3391683D01*
X2415271Y3392145D01*
X2413884Y3392607D01*
X2412590Y3393069D01*
X2411388Y3393624D01*
X2410371Y3394086D01*
X2409354Y3394549D01*
X2408614Y3395011D01*
X2407874Y3395473D01*
X2407412Y3395843D01*
X2406950Y3396028D01*
X2406765Y3396213D01*
X2406672Y3396305D01*
X2405378Y3397415D01*
X2404268Y3398524D01*
X2403251Y3399819D01*
X2402234Y3401113D01*
X2400570Y3403702D01*
X2399276Y3406291D01*
X2398721Y3407493D01*
X2398259Y3408602D01*
X2397889Y3409619D01*
X2397612Y3410451D01*
X2397334Y3411191D01*
X2397149Y3411746D01*
X2397057Y3412115D01*
Y3412208D01*
X2405563Y3414334D01*
X2405933Y3412855D01*
X2406395Y3411468D01*
X2406857Y3410174D01*
X2407320Y3408972D01*
X2407874Y3407862D01*
X2408429Y3406938D01*
X2409076Y3406013D01*
X2409631Y3405181D01*
X2410093Y3404442D01*
X2410648Y3403887D01*
X2411110Y3403332D01*
X2411480Y3402870D01*
X2411850Y3402592D01*
X2412127Y3402315D01*
X2412220Y3402223D01*
X2412312Y3402130D01*
X2413237Y3401390D01*
X2414254Y3400836D01*
X2416288Y3399819D01*
X2418229Y3399079D01*
X2420171Y3398617D01*
X2421835Y3398247D01*
X2422482Y3398154D01*
X2423130D01*
X2423684Y3398062D01*
X2424331D01*
X2426458Y3398154D01*
X2428492Y3398524D01*
X2430341Y3398987D01*
X2432005Y3399541D01*
X2433300Y3400096D01*
X2433854Y3400373D01*
X2434317Y3400558D01*
X2434687Y3400743D01*
X2434964Y3400928D01*
X2435149Y3401021D01*
X2435241D01*
X2436998Y3402315D01*
X2438477Y3403702D01*
X2439772Y3405274D01*
X2440789Y3406753D01*
X2441621Y3408047D01*
X2442175Y3409157D01*
X2442360Y3409619D01*
X2442545Y3409896D01*
X2442638Y3410081D01*
Y3410174D01*
X2443377Y3412578D01*
X2443932Y3414981D01*
X2444394Y3417385D01*
X2444672Y3419604D01*
X2444764Y3420621D01*
X2444857Y3421546D01*
Y3422378D01*
X2444949Y3423025D01*
Y3423580D01*
Y3424042D01*
Y3424320D01*
Y3424412D01*
X2444857Y3426816D01*
X2444672Y3429035D01*
X2444302Y3431069D01*
X2443932Y3432918D01*
X2443655Y3434490D01*
X2443470Y3435137D01*
X2443285Y3435692D01*
X2443192Y3436154D01*
X2443100Y3436431D01*
X2443008Y3436616D01*
Y3436709D01*
X2442083Y3438835D01*
X2441066Y3440777D01*
X2439957Y3442348D01*
X2438755Y3443735D01*
X2437738Y3444845D01*
X2436905Y3445584D01*
X2436258Y3446047D01*
X2436166Y3446232D01*
X2436073D01*
X2434132Y3447434D01*
X2432005Y3448358D01*
X2429971Y3449005D01*
X2428030Y3449375D01*
X2426273Y3449652D01*
X2425533Y3449745D01*
X2424886D01*
X2424424Y3449837D01*
X2423684D01*
X2421373Y3449745D01*
X2419246Y3449375D01*
X2417490Y3448820D01*
X2415918Y3448266D01*
X2414716Y3447618D01*
X2413791Y3447156D01*
X2413237Y3446786D01*
X2413052Y3446601D01*
X2411573Y3445215D01*
X2410186Y3443643D01*
X2409076Y3441979D01*
X2408152Y3440314D01*
X2407412Y3438835D01*
X2407135Y3438095D01*
X2406950Y3437541D01*
X2406765Y3437078D01*
X2406580Y3436709D01*
X2406487Y3436524D01*
Y3436431D01*
X2398166Y3438373D01*
X2398721Y3440037D01*
X2399276Y3441516D01*
X2400016Y3442903D01*
X2400663Y3444290D01*
X2401402Y3445492D01*
X2402234Y3446601D01*
X2402974Y3447711D01*
X2403714Y3448635D01*
X2404453Y3449375D01*
X2405101Y3450115D01*
X2405748Y3450762D01*
X2406210Y3451224D01*
X2406672Y3451687D01*
X2407042Y3451964D01*
X2407227Y3452056D01*
X2407320Y3452149D01*
X2408614Y3452981D01*
X2409908Y3453813D01*
X2411203Y3454460D01*
X2412590Y3455015D01*
X2415363Y3455847D01*
X2417860Y3456402D01*
X2419061Y3456679D01*
X2420078Y3456772D01*
X2421095Y3456864D01*
X2421928Y3456957D01*
X2422575Y3457049D01*
X2423499D01*
X2426550Y3456864D01*
D02*
G37*
G36*
X2339549Y3447526D02*
X2308207D01*
X2310426Y3444845D01*
X2312552Y3441979D01*
X2314401Y3439205D01*
X2316158Y3436524D01*
X2316898Y3435322D01*
X2317545Y3434212D01*
X2318192Y3433195D01*
X2318654Y3432363D01*
X2319024Y3431624D01*
X2319301Y3431161D01*
X2319486Y3430791D01*
X2319579Y3430699D01*
X2321428Y3427001D01*
X2323092Y3423303D01*
X2324479Y3419789D01*
X2325034Y3418217D01*
X2325588Y3416646D01*
X2326143Y3415259D01*
X2326513Y3413964D01*
X2326883Y3412855D01*
X2327160Y3411930D01*
X2327438Y3411098D01*
X2327622Y3410544D01*
X2327715Y3410174D01*
Y3410081D01*
X2328639Y3406291D01*
X2329009Y3404442D01*
X2329287Y3402777D01*
X2329564Y3401206D01*
X2329841Y3399634D01*
X2330026Y3398339D01*
X2330211Y3397045D01*
X2330304Y3395936D01*
X2330396Y3394919D01*
X2330489Y3393994D01*
Y3393254D01*
X2330581Y3392700D01*
Y3392330D01*
Y3392052D01*
Y3391960D01*
X2322537D01*
X2322260Y3395473D01*
X2321798Y3398709D01*
X2321335Y3401668D01*
X2321058Y3403055D01*
X2320781Y3404349D01*
X2320596Y3405459D01*
X2320318Y3406476D01*
X2320134Y3407400D01*
X2319949Y3408140D01*
X2319764Y3408694D01*
X2319671Y3409157D01*
X2319579Y3409434D01*
Y3409527D01*
X2318192Y3413780D01*
X2316713Y3417755D01*
X2315973Y3419697D01*
X2315233Y3421546D01*
X2314401Y3423210D01*
X2313662Y3424874D01*
X2313014Y3426354D01*
X2312367Y3427648D01*
X2311812Y3428757D01*
X2311350Y3429774D01*
X2310888Y3430607D01*
X2310611Y3431161D01*
X2310426Y3431531D01*
X2310333Y3431624D01*
X2309224Y3433565D01*
X2308114Y3435507D01*
X2307005Y3437263D01*
X2305895Y3438928D01*
X2304878Y3440407D01*
X2303861Y3441886D01*
X2302844Y3443181D01*
X2302012Y3444290D01*
X2301180Y3445400D01*
X2300440Y3446324D01*
X2299701Y3447064D01*
X2299146Y3447711D01*
X2298776Y3448266D01*
X2298406Y3448635D01*
X2298221Y3448820D01*
X2298129Y3448913D01*
Y3455107D01*
X2339549D01*
Y3447526D01*
D02*
G37*
G36*
X2568457Y3456124D02*
X2570029Y3456032D01*
X2571508Y3455755D01*
X2572895Y3455477D01*
X2574189Y3455107D01*
X2575391Y3454738D01*
X2576501Y3454275D01*
X2577518Y3453813D01*
X2578442Y3453351D01*
X2579182Y3452888D01*
X2579829Y3452519D01*
X2580384Y3452149D01*
X2580846Y3451871D01*
X2581124Y3451594D01*
X2581309Y3451502D01*
X2581401Y3451409D01*
X2582326Y3450485D01*
X2583158Y3449468D01*
X2583990Y3448358D01*
X2584637Y3447249D01*
X2585746Y3445030D01*
X2586486Y3442811D01*
X2586763Y3441794D01*
X2587041Y3440777D01*
X2587226Y3439945D01*
X2587411Y3439205D01*
X2587503Y3438558D01*
Y3438095D01*
X2587596Y3437818D01*
Y3437726D01*
X2579552Y3436894D01*
X2579367Y3439020D01*
X2578997Y3440869D01*
X2578442Y3442533D01*
X2577795Y3443828D01*
X2577240Y3444937D01*
X2576686Y3445677D01*
X2576316Y3446139D01*
X2576131Y3446324D01*
X2574744Y3447434D01*
X2573265Y3448266D01*
X2571693Y3448913D01*
X2570306Y3449283D01*
X2569012Y3449560D01*
X2567902Y3449652D01*
X2567533Y3449745D01*
X2566978D01*
X2565036Y3449652D01*
X2563280Y3449283D01*
X2561800Y3448728D01*
X2560506Y3448173D01*
X2559489Y3447526D01*
X2558842Y3447064D01*
X2558379Y3446694D01*
X2558195Y3446509D01*
X2557085Y3445215D01*
X2556253Y3443920D01*
X2555606Y3442626D01*
X2555236Y3441331D01*
X2554959Y3440314D01*
X2554866Y3439390D01*
X2554774Y3438835D01*
Y3438743D01*
Y3438650D01*
X2554959Y3436986D01*
X2555328Y3435229D01*
X2555976Y3433658D01*
X2556623Y3432178D01*
X2557362Y3430976D01*
X2558010Y3429959D01*
X2558195Y3429590D01*
X2558379Y3429312D01*
X2558564Y3429220D01*
Y3429127D01*
X2559304Y3428110D01*
X2560229Y3427093D01*
X2561246Y3425984D01*
X2562355Y3424874D01*
X2564666Y3422655D01*
X2566978Y3420436D01*
X2568180Y3419419D01*
X2569197Y3418495D01*
X2570214Y3417663D01*
X2571046Y3416923D01*
X2571693Y3416368D01*
X2572248Y3415906D01*
X2572618Y3415629D01*
X2572710Y3415536D01*
X2575022Y3413595D01*
X2577148Y3411746D01*
X2578905Y3410081D01*
X2580292Y3408694D01*
X2581493Y3407493D01*
X2582326Y3406660D01*
X2582788Y3406106D01*
X2582973Y3406013D01*
Y3405921D01*
X2584267Y3404349D01*
X2585284Y3402870D01*
X2586209Y3401390D01*
X2586948Y3400096D01*
X2587503Y3398987D01*
X2587873Y3398154D01*
X2588058Y3397600D01*
X2588150Y3397507D01*
Y3397415D01*
X2588520Y3396398D01*
X2588705Y3395473D01*
X2588890Y3394549D01*
X2588982Y3393717D01*
X2589075Y3392977D01*
Y3392422D01*
Y3392052D01*
Y3391960D01*
X2546638D01*
Y3399541D01*
X2578165D01*
X2577056Y3401113D01*
X2576501Y3401760D01*
X2576039Y3402407D01*
X2575576Y3402962D01*
X2575206Y3403332D01*
X2574929Y3403609D01*
X2574837Y3403702D01*
X2574374Y3404164D01*
X2573820Y3404626D01*
X2572525Y3405828D01*
X2571046Y3407215D01*
X2569474Y3408602D01*
X2567995Y3409804D01*
X2567348Y3410359D01*
X2566793Y3410913D01*
X2566331Y3411283D01*
X2565961Y3411561D01*
X2565776Y3411746D01*
X2565683Y3411838D01*
X2564204Y3413132D01*
X2562725Y3414334D01*
X2561430Y3415536D01*
X2560229Y3416553D01*
X2559119Y3417570D01*
X2558195Y3418495D01*
X2557270Y3419327D01*
X2556530Y3420067D01*
X2555791Y3420806D01*
X2555236Y3421361D01*
X2554774Y3421823D01*
X2554311Y3422286D01*
X2553849Y3422840D01*
X2553664Y3423025D01*
X2552370Y3424597D01*
X2551260Y3425984D01*
X2550336Y3427371D01*
X2549596Y3428480D01*
X2549041Y3429497D01*
X2548672Y3430237D01*
X2548487Y3430699D01*
X2548394Y3430884D01*
X2547839Y3432271D01*
X2547470Y3433658D01*
X2547100Y3434952D01*
X2546915Y3436061D01*
X2546822Y3437078D01*
X2546730Y3437818D01*
Y3438280D01*
Y3438465D01*
X2546822Y3439852D01*
X2547007Y3441147D01*
X2547192Y3442441D01*
X2547562Y3443550D01*
X2548487Y3445769D01*
X2549411Y3447526D01*
X2549966Y3448358D01*
X2550428Y3449005D01*
X2550891Y3449652D01*
X2551353Y3450115D01*
X2551723Y3450485D01*
X2551908Y3450854D01*
X2552092Y3450947D01*
X2552185Y3451039D01*
X2553202Y3451964D01*
X2554311Y3452796D01*
X2555513Y3453443D01*
X2556715Y3453998D01*
X2559119Y3454922D01*
X2561523Y3455570D01*
X2562540Y3455755D01*
X2563557Y3455939D01*
X2564482Y3456032D01*
X2565221Y3456124D01*
X2565868Y3456217D01*
X2566793D01*
X2568457Y3456124D01*
D02*
G37*
G36*
X2517421D02*
X2519178Y3455939D01*
X2520842Y3455570D01*
X2522414Y3455107D01*
X2523801Y3454460D01*
X2525188Y3453905D01*
X2526390Y3453166D01*
X2527499Y3452519D01*
X2528424Y3451871D01*
X2529348Y3451132D01*
X2530088Y3450577D01*
X2530643Y3450022D01*
X2531105Y3449468D01*
X2531475Y3449098D01*
X2531660Y3448913D01*
X2531752Y3448820D01*
X2532954Y3447156D01*
X2533971Y3445215D01*
X2534896Y3443181D01*
X2535728Y3441054D01*
X2536375Y3438835D01*
X2536930Y3436616D01*
X2537392Y3434305D01*
X2537762Y3432178D01*
X2538039Y3430052D01*
X2538224Y3428110D01*
X2538409Y3426354D01*
X2538501Y3424874D01*
Y3423580D01*
X2538594Y3422655D01*
Y3422286D01*
Y3422008D01*
Y3421916D01*
Y3421823D01*
X2538501Y3418865D01*
X2538316Y3416091D01*
X2538039Y3413502D01*
X2537577Y3411098D01*
X2537115Y3408972D01*
X2536652Y3407030D01*
X2536098Y3405274D01*
X2535450Y3403702D01*
X2534896Y3402407D01*
X2534341Y3401206D01*
X2533879Y3400281D01*
X2533324Y3399449D01*
X2532954Y3398802D01*
X2532677Y3398432D01*
X2532492Y3398154D01*
X2532399Y3398062D01*
X2531197Y3396768D01*
X2529903Y3395658D01*
X2528609Y3394734D01*
X2527314Y3393902D01*
X2525927Y3393162D01*
X2524633Y3392607D01*
X2523339Y3392145D01*
X2522044Y3391775D01*
X2520935Y3391498D01*
X2519825Y3391220D01*
X2518901Y3391035D01*
X2518069Y3390943D01*
X2517329D01*
X2516867Y3390850D01*
X2516404D01*
X2514278Y3390943D01*
X2512336Y3391313D01*
X2510580Y3391683D01*
X2509008Y3392237D01*
X2507806Y3392700D01*
X2506881Y3393162D01*
X2506512Y3393254D01*
X2506234Y3393439D01*
X2506142Y3393532D01*
X2506049D01*
X2504478Y3394641D01*
X2502998Y3395936D01*
X2501796Y3397230D01*
X2500779Y3398524D01*
X2499947Y3399726D01*
X2499393Y3400651D01*
X2499208Y3401021D01*
X2499023Y3401298D01*
X2498930Y3401390D01*
Y3401483D01*
X2498006Y3403424D01*
X2497358Y3405459D01*
X2496896Y3407308D01*
X2496619Y3409064D01*
X2496341Y3410544D01*
Y3411098D01*
X2496249Y3411653D01*
Y3412115D01*
Y3412393D01*
Y3412578D01*
Y3412670D01*
X2496341Y3414334D01*
X2496526Y3415906D01*
X2496804Y3417478D01*
X2497081Y3418865D01*
X2497543Y3420159D01*
X2498006Y3421453D01*
X2498468Y3422563D01*
X2499023Y3423580D01*
X2499577Y3424504D01*
X2500040Y3425337D01*
X2500502Y3425984D01*
X2500964Y3426631D01*
X2501242Y3427093D01*
X2501519Y3427371D01*
X2501704Y3427556D01*
X2501796Y3427648D01*
X2502813Y3428665D01*
X2503923Y3429590D01*
X2505125Y3430329D01*
X2506234Y3430976D01*
X2507344Y3431624D01*
X2508453Y3432086D01*
X2510580Y3432733D01*
X2511504Y3433010D01*
X2512429Y3433195D01*
X2513168Y3433288D01*
X2513908Y3433380D01*
X2514463Y3433473D01*
X2515202D01*
X2516867Y3433380D01*
X2518438Y3433103D01*
X2519918Y3432825D01*
X2521212Y3432456D01*
X2522322Y3431993D01*
X2523154Y3431716D01*
X2523708Y3431439D01*
X2523801Y3431346D01*
X2523893D01*
X2525373Y3430422D01*
X2526667Y3429405D01*
X2527869Y3428388D01*
X2528794Y3427278D01*
X2529626Y3426354D01*
X2530273Y3425614D01*
X2530643Y3425059D01*
X2530735Y3424967D01*
Y3426631D01*
X2530643Y3428295D01*
X2530550Y3429774D01*
X2530365Y3431254D01*
X2530273Y3432548D01*
X2530088Y3433750D01*
X2529903Y3434860D01*
X2529626Y3435877D01*
X2529441Y3436801D01*
X2529256Y3437541D01*
X2529071Y3438188D01*
X2528978Y3438743D01*
X2528794Y3439113D01*
X2528701Y3439390D01*
X2528609Y3439575D01*
Y3439667D01*
X2527684Y3441516D01*
X2526759Y3443181D01*
X2525742Y3444475D01*
X2524818Y3445584D01*
X2523986Y3446509D01*
X2523339Y3447156D01*
X2522876Y3447526D01*
X2522691Y3447618D01*
X2521582Y3448358D01*
X2520472Y3448820D01*
X2519363Y3449190D01*
X2518254Y3449468D01*
X2517421Y3449652D01*
X2516682Y3449745D01*
X2516035D01*
X2514370Y3449560D01*
X2512799Y3449190D01*
X2511504Y3448635D01*
X2510302Y3448081D01*
X2509378Y3447434D01*
X2508731Y3446879D01*
X2508361Y3446509D01*
X2508176Y3446324D01*
X2507529Y3445492D01*
X2506881Y3444475D01*
X2506327Y3443365D01*
X2505957Y3442256D01*
X2505587Y3441239D01*
X2505310Y3440407D01*
X2505217Y3439852D01*
X2505125Y3439760D01*
Y3439667D01*
X2497266Y3440314D01*
X2497821Y3442903D01*
X2498653Y3445215D01*
X2499577Y3447249D01*
X2500594Y3448913D01*
X2501611Y3450207D01*
X2501981Y3450762D01*
X2502444Y3451224D01*
X2502721Y3451502D01*
X2502998Y3451779D01*
X2503091Y3451871D01*
X2503183Y3451964D01*
X2504108Y3452704D01*
X2505125Y3453351D01*
X2507159Y3454460D01*
X2509193Y3455200D01*
X2511134Y3455662D01*
X2512891Y3456032D01*
X2513631Y3456124D01*
X2514278D01*
X2514833Y3456217D01*
X2515572D01*
X2517421Y3456124D01*
D02*
G37*
G36*
X2624670Y3456864D02*
X2627629Y3456402D01*
X2630218Y3455847D01*
X2631420Y3455477D01*
X2632529Y3455107D01*
X2633546Y3454738D01*
X2634471Y3454368D01*
X2635210Y3454090D01*
X2635950Y3453813D01*
X2636412Y3453536D01*
X2636782Y3453351D01*
X2637059Y3453258D01*
X2637152Y3453166D01*
X2639648Y3451594D01*
X2641775Y3449745D01*
X2643624Y3447896D01*
X2645196Y3446047D01*
X2646398Y3444382D01*
X2646860Y3443643D01*
X2647230Y3442996D01*
X2647599Y3442533D01*
X2647784Y3442164D01*
X2647877Y3441886D01*
X2647969Y3441794D01*
X2649264Y3438928D01*
X2650188Y3435969D01*
X2650835Y3433010D01*
X2651298Y3430329D01*
X2651483Y3429127D01*
X2651575Y3427925D01*
X2651668Y3427001D01*
Y3426076D01*
X2651760Y3425429D01*
Y3424874D01*
Y3424504D01*
Y3424412D01*
X2651575Y3421084D01*
X2651205Y3417848D01*
X2650743Y3414981D01*
X2650373Y3413595D01*
X2650096Y3412393D01*
X2649818Y3411283D01*
X2649449Y3410266D01*
X2649171Y3409342D01*
X2648986Y3408602D01*
X2648709Y3408047D01*
X2648616Y3407585D01*
X2648432Y3407308D01*
Y3407215D01*
X2647045Y3404442D01*
X2645473Y3401945D01*
X2643809Y3399819D01*
X2642977Y3398987D01*
X2642237Y3398154D01*
X2641497Y3397415D01*
X2640758Y3396768D01*
X2640111Y3396213D01*
X2639556Y3395843D01*
X2639186Y3395473D01*
X2638816Y3395196D01*
X2638631Y3395103D01*
X2638539Y3395011D01*
X2637244Y3394271D01*
X2635950Y3393624D01*
X2633176Y3392607D01*
X2630403Y3391867D01*
X2627721Y3391405D01*
X2626427Y3391220D01*
X2625318Y3391035D01*
X2624301Y3390943D01*
X2623468D01*
X2622729Y3390850D01*
X2621712D01*
X2619863Y3390943D01*
X2618106Y3391128D01*
X2616442Y3391313D01*
X2614870Y3391683D01*
X2613391Y3392145D01*
X2612004Y3392607D01*
X2610710Y3393069D01*
X2609508Y3393624D01*
X2608491Y3394086D01*
X2607474Y3394549D01*
X2606734Y3395011D01*
X2605994Y3395473D01*
X2605532Y3395843D01*
X2605070Y3396028D01*
X2604885Y3396213D01*
X2604792Y3396305D01*
X2603498Y3397415D01*
X2602388Y3398524D01*
X2601371Y3399819D01*
X2600354Y3401113D01*
X2598690Y3403702D01*
X2597396Y3406291D01*
X2596841Y3407493D01*
X2596379Y3408602D01*
X2596009Y3409619D01*
X2595732Y3410451D01*
X2595454Y3411191D01*
X2595269Y3411746D01*
X2595177Y3412115D01*
Y3412208D01*
X2603683Y3414334D01*
X2604053Y3412855D01*
X2604515Y3411468D01*
X2604977Y3410174D01*
X2605440Y3408972D01*
X2605994Y3407862D01*
X2606549Y3406938D01*
X2607196Y3406013D01*
X2607751Y3405181D01*
X2608213Y3404442D01*
X2608768Y3403887D01*
X2609230Y3403332D01*
X2609600Y3402870D01*
X2609970Y3402592D01*
X2610247Y3402315D01*
X2610340Y3402223D01*
X2610432Y3402130D01*
X2611357Y3401390D01*
X2612374Y3400836D01*
X2614408Y3399819D01*
X2616349Y3399079D01*
X2618291Y3398617D01*
X2619955Y3398247D01*
X2620602Y3398154D01*
X2621250D01*
X2621804Y3398062D01*
X2622451D01*
X2624578Y3398154D01*
X2626612Y3398524D01*
X2628461Y3398987D01*
X2630125Y3399541D01*
X2631420Y3400096D01*
X2631974Y3400373D01*
X2632437Y3400558D01*
X2632807Y3400743D01*
X2633084Y3400928D01*
X2633269Y3401021D01*
X2633361D01*
X2635118Y3402315D01*
X2636597Y3403702D01*
X2637892Y3405274D01*
X2638909Y3406753D01*
X2639741Y3408047D01*
X2640295Y3409157D01*
X2640480Y3409619D01*
X2640665Y3409896D01*
X2640758Y3410081D01*
Y3410174D01*
X2641497Y3412578D01*
X2642052Y3414981D01*
X2642514Y3417385D01*
X2642792Y3419604D01*
X2642884Y3420621D01*
X2642977Y3421546D01*
Y3422378D01*
X2643069Y3423025D01*
Y3423580D01*
Y3424042D01*
Y3424320D01*
Y3424412D01*
X2642977Y3426816D01*
X2642792Y3429035D01*
X2642422Y3431069D01*
X2642052Y3432918D01*
X2641775Y3434490D01*
X2641590Y3435137D01*
X2641405Y3435692D01*
X2641312Y3436154D01*
X2641220Y3436431D01*
X2641128Y3436616D01*
Y3436709D01*
X2640203Y3438835D01*
X2639186Y3440777D01*
X2638077Y3442348D01*
X2636875Y3443735D01*
X2635858Y3444845D01*
X2635025Y3445584D01*
X2634378Y3446047D01*
X2634286Y3446232D01*
X2634193D01*
X2632252Y3447434D01*
X2630125Y3448358D01*
X2628091Y3449005D01*
X2626150Y3449375D01*
X2624393Y3449652D01*
X2623653Y3449745D01*
X2623006D01*
X2622544Y3449837D01*
X2621804D01*
X2619493Y3449745D01*
X2617366Y3449375D01*
X2615610Y3448820D01*
X2614038Y3448266D01*
X2612836Y3447618D01*
X2611911Y3447156D01*
X2611357Y3446786D01*
X2611172Y3446601D01*
X2609693Y3445215D01*
X2608306Y3443643D01*
X2607196Y3441979D01*
X2606272Y3440314D01*
X2605532Y3438835D01*
X2605255Y3438095D01*
X2605070Y3437541D01*
X2604885Y3437078D01*
X2604700Y3436709D01*
X2604607Y3436524D01*
Y3436431D01*
X2596286Y3438373D01*
X2596841Y3440037D01*
X2597396Y3441516D01*
X2598136Y3442903D01*
X2598783Y3444290D01*
X2599522Y3445492D01*
X2600354Y3446601D01*
X2601094Y3447711D01*
X2601834Y3448635D01*
X2602573Y3449375D01*
X2603221Y3450115D01*
X2603868Y3450762D01*
X2604330Y3451224D01*
X2604792Y3451687D01*
X2605162Y3451964D01*
X2605347Y3452056D01*
X2605440Y3452149D01*
X2606734Y3452981D01*
X2608028Y3453813D01*
X2609323Y3454460D01*
X2610710Y3455015D01*
X2613483Y3455847D01*
X2615980Y3456402D01*
X2617181Y3456679D01*
X2618198Y3456772D01*
X2619215Y3456864D01*
X2620048Y3456957D01*
X2620695Y3457049D01*
X2621619D01*
X2624670Y3456864D01*
D02*
G37*
G36*
X821582Y3456032D02*
X824079Y3455570D01*
X826205Y3454830D01*
X828054Y3454090D01*
X828886Y3453628D01*
X829534Y3453258D01*
X830181Y3452888D01*
X830643Y3452519D01*
X831013Y3452241D01*
X831290Y3452056D01*
X831475Y3451964D01*
X831568Y3451871D01*
X833324Y3450115D01*
X834711Y3448173D01*
X835821Y3446139D01*
X836745Y3444105D01*
X837300Y3442348D01*
X837577Y3441609D01*
X837762Y3440962D01*
X837855Y3440407D01*
X837947Y3440037D01*
X838039Y3439760D01*
Y3439667D01*
X830181Y3438280D01*
X829811Y3440314D01*
X829256Y3442071D01*
X828609Y3443550D01*
X827962Y3444752D01*
X827315Y3445677D01*
X826760Y3446324D01*
X826390Y3446786D01*
X826298Y3446879D01*
X825096Y3447803D01*
X823801Y3448543D01*
X822599Y3449005D01*
X821397Y3449375D01*
X820288Y3449560D01*
X819456Y3449745D01*
X818716D01*
X817052Y3449652D01*
X815573Y3449283D01*
X814278Y3448820D01*
X813169Y3448358D01*
X812337Y3447803D01*
X811690Y3447341D01*
X811227Y3446971D01*
X811135Y3446879D01*
X810118Y3445769D01*
X809378Y3444567D01*
X808916Y3443365D01*
X808546Y3442256D01*
X808361Y3441239D01*
X808176Y3440499D01*
Y3439945D01*
Y3439852D01*
Y3439760D01*
Y3438743D01*
X808361Y3437818D01*
X808823Y3436246D01*
X809471Y3434860D01*
X810210Y3433658D01*
X810950Y3432825D01*
X811597Y3432178D01*
X812059Y3431808D01*
X812152Y3431716D01*
X812244D01*
X813816Y3430884D01*
X815295Y3430237D01*
X816867Y3429774D01*
X818254Y3429497D01*
X819456Y3429312D01*
X820473Y3429127D01*
X821675D01*
X822045Y3429220D01*
X822507D01*
X823431Y3422286D01*
X822229Y3422563D01*
X821120Y3422748D01*
X820195Y3422933D01*
X819363Y3423025D01*
X818716Y3423118D01*
X817884D01*
X815942Y3422933D01*
X814186Y3422563D01*
X812614Y3422008D01*
X811320Y3421361D01*
X810303Y3420714D01*
X809563Y3420159D01*
X809101Y3419789D01*
X808916Y3419604D01*
X807714Y3418217D01*
X806789Y3416738D01*
X806142Y3415259D01*
X805772Y3413780D01*
X805495Y3412578D01*
X805403Y3411561D01*
X805310Y3411191D01*
Y3410913D01*
Y3410729D01*
Y3410636D01*
X805495Y3408602D01*
X805957Y3406753D01*
X806512Y3405181D01*
X807252Y3403794D01*
X807991Y3402685D01*
X808546Y3401853D01*
X809008Y3401298D01*
X809193Y3401113D01*
X810672Y3399819D01*
X812244Y3398894D01*
X813816Y3398247D01*
X815295Y3397785D01*
X816590Y3397507D01*
X817607Y3397415D01*
X817977Y3397322D01*
X818531D01*
X820195Y3397415D01*
X821767Y3397785D01*
X823154Y3398247D01*
X824264Y3398802D01*
X825188Y3399264D01*
X825928Y3399726D01*
X826298Y3400096D01*
X826482Y3400189D01*
X827592Y3401483D01*
X828517Y3402962D01*
X829349Y3404534D01*
X829996Y3406198D01*
X830458Y3407585D01*
X830643Y3408232D01*
X830735Y3408787D01*
X830828Y3409249D01*
X830920Y3409619D01*
X831013Y3409804D01*
Y3409896D01*
X838872Y3408879D01*
X838687Y3407400D01*
X838409Y3406013D01*
X837577Y3403424D01*
X836560Y3401206D01*
X836005Y3400281D01*
X835451Y3399356D01*
X834896Y3398524D01*
X834341Y3397877D01*
X833879Y3397230D01*
X833417Y3396768D01*
X833139Y3396398D01*
X832862Y3396120D01*
X832677Y3395936D01*
X832585Y3395843D01*
X831475Y3395011D01*
X830366Y3394179D01*
X829256Y3393532D01*
X828054Y3392977D01*
X825743Y3392052D01*
X823524Y3391498D01*
X822507Y3391313D01*
X821582Y3391128D01*
X820750Y3391035D01*
X820011Y3390943D01*
X819456Y3390850D01*
X818624D01*
X816867Y3390943D01*
X815295Y3391128D01*
X813724Y3391405D01*
X812244Y3391775D01*
X810857Y3392237D01*
X809655Y3392700D01*
X808454Y3393254D01*
X807437Y3393809D01*
X806420Y3394271D01*
X805587Y3394826D01*
X804848Y3395288D01*
X804293Y3395751D01*
X803831Y3396120D01*
X803461Y3396398D01*
X803276Y3396583D01*
X803184Y3396675D01*
X802074Y3397785D01*
X801150Y3398987D01*
X800317Y3400189D01*
X799578Y3401390D01*
X799023Y3402500D01*
X798468Y3403702D01*
X797729Y3405921D01*
X797544Y3406938D01*
X797359Y3407862D01*
X797174Y3408694D01*
X797081Y3409434D01*
X796989Y3409989D01*
Y3410451D01*
Y3410729D01*
Y3410821D01*
X797081Y3413040D01*
X797451Y3415074D01*
X798006Y3416831D01*
X798561Y3418310D01*
X799115Y3419512D01*
X799670Y3420436D01*
X800040Y3420991D01*
X800133Y3421176D01*
X801427Y3422563D01*
X802814Y3423765D01*
X804293Y3424689D01*
X805772Y3425429D01*
X807067Y3425984D01*
X808084Y3426354D01*
X808454Y3426446D01*
X808731Y3426538D01*
X808916Y3426631D01*
X809008D01*
X807437Y3427463D01*
X806142Y3428295D01*
X805033Y3429220D01*
X804108Y3430052D01*
X803368Y3430791D01*
X802814Y3431439D01*
X802536Y3431808D01*
X802444Y3431993D01*
X801704Y3433288D01*
X801150Y3434582D01*
X800687Y3435877D01*
X800410Y3437078D01*
X800225Y3438095D01*
X800133Y3438835D01*
Y3439390D01*
Y3439575D01*
X800225Y3441147D01*
X800502Y3442718D01*
X800872Y3444105D01*
X801334Y3445307D01*
X801797Y3446324D01*
X802167Y3447156D01*
X802444Y3447618D01*
X802536Y3447803D01*
X803461Y3449190D01*
X804570Y3450392D01*
X805680Y3451409D01*
X806789Y3452334D01*
X807714Y3452981D01*
X808546Y3453536D01*
X809101Y3453813D01*
X809193Y3453905D01*
X809286D01*
X810950Y3454645D01*
X812614Y3455200D01*
X814278Y3455662D01*
X815758Y3455939D01*
X816960Y3456124D01*
X817977Y3456217D01*
X820288D01*
X821582Y3456032D01*
D02*
G37*
G36*
X869197Y3456124D02*
X870769Y3456032D01*
X872248Y3455755D01*
X873635Y3455477D01*
X874929Y3455107D01*
X876131Y3454738D01*
X877241Y3454275D01*
X878258Y3453813D01*
X879182Y3453351D01*
X879922Y3452888D01*
X880569Y3452519D01*
X881124Y3452149D01*
X881586Y3451871D01*
X881864Y3451594D01*
X882049Y3451502D01*
X882141Y3451409D01*
X883066Y3450485D01*
X883898Y3449468D01*
X884730Y3448358D01*
X885377Y3447249D01*
X886486Y3445030D01*
X887226Y3442811D01*
X887503Y3441794D01*
X887781Y3440777D01*
X887966Y3439945D01*
X888151Y3439205D01*
X888243Y3438558D01*
Y3438095D01*
X888336Y3437818D01*
Y3437726D01*
X880292Y3436894D01*
X880107Y3439020D01*
X879737Y3440869D01*
X879182Y3442533D01*
X878535Y3443828D01*
X877980Y3444937D01*
X877426Y3445677D01*
X877056Y3446139D01*
X876871Y3446324D01*
X875484Y3447434D01*
X874005Y3448266D01*
X872433Y3448913D01*
X871046Y3449283D01*
X869752Y3449560D01*
X868642Y3449652D01*
X868273Y3449745D01*
X867718D01*
X865776Y3449652D01*
X864020Y3449283D01*
X862540Y3448728D01*
X861246Y3448173D01*
X860229Y3447526D01*
X859582Y3447064D01*
X859119Y3446694D01*
X858935Y3446509D01*
X857825Y3445215D01*
X856993Y3443920D01*
X856346Y3442626D01*
X855976Y3441331D01*
X855699Y3440314D01*
X855606Y3439390D01*
X855514Y3438835D01*
Y3438743D01*
Y3438650D01*
X855699Y3436986D01*
X856068Y3435229D01*
X856716Y3433658D01*
X857363Y3432178D01*
X858102Y3430976D01*
X858750Y3429959D01*
X858935Y3429590D01*
X859119Y3429312D01*
X859304Y3429220D01*
Y3429127D01*
X860044Y3428110D01*
X860969Y3427093D01*
X861986Y3425984D01*
X863095Y3424874D01*
X865406Y3422655D01*
X867718Y3420436D01*
X868920Y3419419D01*
X869937Y3418495D01*
X870954Y3417663D01*
X871786Y3416923D01*
X872433Y3416368D01*
X872988Y3415906D01*
X873358Y3415629D01*
X873450Y3415536D01*
X875762Y3413595D01*
X877888Y3411746D01*
X879645Y3410081D01*
X881032Y3408694D01*
X882233Y3407493D01*
X883066Y3406660D01*
X883528Y3406106D01*
X883713Y3406013D01*
Y3405921D01*
X885007Y3404349D01*
X886024Y3402870D01*
X886949Y3401390D01*
X887688Y3400096D01*
X888243Y3398987D01*
X888613Y3398154D01*
X888798Y3397600D01*
X888890Y3397507D01*
Y3397415D01*
X889260Y3396398D01*
X889445Y3395473D01*
X889630Y3394549D01*
X889722Y3393717D01*
X889815Y3392977D01*
Y3392422D01*
Y3392052D01*
Y3391960D01*
X847378D01*
Y3399541D01*
X878905D01*
X877796Y3401113D01*
X877241Y3401760D01*
X876779Y3402407D01*
X876316Y3402962D01*
X875946Y3403332D01*
X875669Y3403609D01*
X875577Y3403702D01*
X875114Y3404164D01*
X874560Y3404626D01*
X873265Y3405828D01*
X871786Y3407215D01*
X870214Y3408602D01*
X868735Y3409804D01*
X868088Y3410359D01*
X867533Y3410913D01*
X867071Y3411283D01*
X866701Y3411561D01*
X866516Y3411746D01*
X866423Y3411838D01*
X864944Y3413132D01*
X863465Y3414334D01*
X862170Y3415536D01*
X860969Y3416553D01*
X859859Y3417570D01*
X858935Y3418495D01*
X858010Y3419327D01*
X857270Y3420067D01*
X856531Y3420806D01*
X855976Y3421361D01*
X855514Y3421823D01*
X855051Y3422286D01*
X854589Y3422840D01*
X854404Y3423025D01*
X853110Y3424597D01*
X852000Y3425984D01*
X851076Y3427371D01*
X850336Y3428480D01*
X849781Y3429497D01*
X849412Y3430237D01*
X849227Y3430699D01*
X849134Y3430884D01*
X848579Y3432271D01*
X848210Y3433658D01*
X847840Y3434952D01*
X847655Y3436061D01*
X847562Y3437078D01*
X847470Y3437818D01*
Y3438280D01*
Y3438465D01*
X847562Y3439852D01*
X847747Y3441147D01*
X847932Y3442441D01*
X848302Y3443550D01*
X849227Y3445769D01*
X850151Y3447526D01*
X850706Y3448358D01*
X851168Y3449005D01*
X851631Y3449652D01*
X852093Y3450115D01*
X852463Y3450485D01*
X852648Y3450854D01*
X852832Y3450947D01*
X852925Y3451039D01*
X853942Y3451964D01*
X855051Y3452796D01*
X856253Y3453443D01*
X857455Y3453998D01*
X859859Y3454922D01*
X862263Y3455570D01*
X863280Y3455755D01*
X864297Y3455939D01*
X865222Y3456032D01*
X865961Y3456124D01*
X866608Y3456217D01*
X867533D01*
X869197Y3456124D01*
D02*
G37*
G36*
X925410Y3456864D02*
X928369Y3456402D01*
X930958Y3455847D01*
X932160Y3455477D01*
X933269Y3455107D01*
X934286Y3454738D01*
X935211Y3454368D01*
X935950Y3454090D01*
X936690Y3453813D01*
X937152Y3453536D01*
X937522Y3453351D01*
X937799Y3453258D01*
X937892Y3453166D01*
X940388Y3451594D01*
X942515Y3449745D01*
X944364Y3447896D01*
X945936Y3446047D01*
X947138Y3444382D01*
X947600Y3443643D01*
X947970Y3442996D01*
X948339Y3442533D01*
X948524Y3442164D01*
X948617Y3441886D01*
X948709Y3441794D01*
X950004Y3438928D01*
X950928Y3435969D01*
X951575Y3433010D01*
X952038Y3430329D01*
X952223Y3429127D01*
X952315Y3427925D01*
X952408Y3427001D01*
Y3426076D01*
X952500Y3425429D01*
Y3424874D01*
Y3424504D01*
Y3424412D01*
X952315Y3421084D01*
X951945Y3417848D01*
X951483Y3414981D01*
X951113Y3413595D01*
X950836Y3412393D01*
X950558Y3411283D01*
X950189Y3410266D01*
X949911Y3409342D01*
X949726Y3408602D01*
X949449Y3408047D01*
X949356Y3407585D01*
X949172Y3407308D01*
Y3407215D01*
X947785Y3404442D01*
X946213Y3401945D01*
X944549Y3399819D01*
X943717Y3398987D01*
X942977Y3398154D01*
X942237Y3397415D01*
X941498Y3396768D01*
X940851Y3396213D01*
X940296Y3395843D01*
X939926Y3395473D01*
X939556Y3395196D01*
X939371Y3395103D01*
X939279Y3395011D01*
X937984Y3394271D01*
X936690Y3393624D01*
X933916Y3392607D01*
X931143Y3391867D01*
X928461Y3391405D01*
X927167Y3391220D01*
X926058Y3391035D01*
X925041Y3390943D01*
X924208D01*
X923469Y3390850D01*
X922452D01*
X920603Y3390943D01*
X918846Y3391128D01*
X917182Y3391313D01*
X915610Y3391683D01*
X914131Y3392145D01*
X912744Y3392607D01*
X911450Y3393069D01*
X910248Y3393624D01*
X909231Y3394086D01*
X908214Y3394549D01*
X907474Y3395011D01*
X906734Y3395473D01*
X906272Y3395843D01*
X905810Y3396028D01*
X905625Y3396213D01*
X905532Y3396305D01*
X904238Y3397415D01*
X903128Y3398524D01*
X902111Y3399819D01*
X901094Y3401113D01*
X899430Y3403702D01*
X898136Y3406291D01*
X897581Y3407493D01*
X897119Y3408602D01*
X896749Y3409619D01*
X896472Y3410451D01*
X896194Y3411191D01*
X896009Y3411746D01*
X895917Y3412115D01*
Y3412208D01*
X904423Y3414334D01*
X904793Y3412855D01*
X905255Y3411468D01*
X905717Y3410174D01*
X906180Y3408972D01*
X906734Y3407862D01*
X907289Y3406938D01*
X907936Y3406013D01*
X908491Y3405181D01*
X908953Y3404442D01*
X909508Y3403887D01*
X909970Y3403332D01*
X910340Y3402870D01*
X910710Y3402592D01*
X910987Y3402315D01*
X911080Y3402223D01*
X911172Y3402130D01*
X912097Y3401390D01*
X913114Y3400836D01*
X915148Y3399819D01*
X917089Y3399079D01*
X919031Y3398617D01*
X920695Y3398247D01*
X921342Y3398154D01*
X921990D01*
X922544Y3398062D01*
X923191D01*
X925318Y3398154D01*
X927352Y3398524D01*
X929201Y3398987D01*
X930865Y3399541D01*
X932160Y3400096D01*
X932714Y3400373D01*
X933177Y3400558D01*
X933547Y3400743D01*
X933824Y3400928D01*
X934009Y3401021D01*
X934101D01*
X935858Y3402315D01*
X937337Y3403702D01*
X938632Y3405274D01*
X939649Y3406753D01*
X940481Y3408047D01*
X941035Y3409157D01*
X941220Y3409619D01*
X941405Y3409896D01*
X941498Y3410081D01*
Y3410174D01*
X942237Y3412578D01*
X942792Y3414981D01*
X943254Y3417385D01*
X943532Y3419604D01*
X943624Y3420621D01*
X943717Y3421546D01*
Y3422378D01*
X943809Y3423025D01*
Y3423580D01*
Y3424042D01*
Y3424320D01*
Y3424412D01*
X943717Y3426816D01*
X943532Y3429035D01*
X943162Y3431069D01*
X942792Y3432918D01*
X942515Y3434490D01*
X942330Y3435137D01*
X942145Y3435692D01*
X942052Y3436154D01*
X941960Y3436431D01*
X941868Y3436616D01*
Y3436709D01*
X940943Y3438835D01*
X939926Y3440777D01*
X938817Y3442348D01*
X937615Y3443735D01*
X936598Y3444845D01*
X935765Y3445584D01*
X935118Y3446047D01*
X935026Y3446232D01*
X934933D01*
X932992Y3447434D01*
X930865Y3448358D01*
X928831Y3449005D01*
X926890Y3449375D01*
X925133Y3449652D01*
X924393Y3449745D01*
X923746D01*
X923284Y3449837D01*
X922544D01*
X920233Y3449745D01*
X918106Y3449375D01*
X916350Y3448820D01*
X914778Y3448266D01*
X913576Y3447618D01*
X912651Y3447156D01*
X912097Y3446786D01*
X911912Y3446601D01*
X910433Y3445215D01*
X909046Y3443643D01*
X907936Y3441979D01*
X907012Y3440314D01*
X906272Y3438835D01*
X905995Y3438095D01*
X905810Y3437541D01*
X905625Y3437078D01*
X905440Y3436709D01*
X905347Y3436524D01*
Y3436431D01*
X897026Y3438373D01*
X897581Y3440037D01*
X898136Y3441516D01*
X898876Y3442903D01*
X899523Y3444290D01*
X900262Y3445492D01*
X901094Y3446601D01*
X901834Y3447711D01*
X902574Y3448635D01*
X903313Y3449375D01*
X903961Y3450115D01*
X904608Y3450762D01*
X905070Y3451224D01*
X905532Y3451687D01*
X905902Y3451964D01*
X906087Y3452056D01*
X906180Y3452149D01*
X907474Y3452981D01*
X908768Y3453813D01*
X910063Y3454460D01*
X911450Y3455015D01*
X914223Y3455847D01*
X916720Y3456402D01*
X917921Y3456679D01*
X918938Y3456772D01*
X919955Y3456864D01*
X920788Y3456957D01*
X921435Y3457049D01*
X922359D01*
X925410Y3456864D01*
D02*
G37*
G36*
X668537Y3456124D02*
X670109Y3456032D01*
X671588Y3455755D01*
X672975Y3455477D01*
X674269Y3455107D01*
X675471Y3454738D01*
X676581Y3454275D01*
X677598Y3453813D01*
X678522Y3453351D01*
X679262Y3452888D01*
X679909Y3452519D01*
X680464Y3452149D01*
X680926Y3451871D01*
X681204Y3451594D01*
X681389Y3451502D01*
X681481Y3451409D01*
X682406Y3450485D01*
X683238Y3449468D01*
X684070Y3448358D01*
X684717Y3447249D01*
X685826Y3445030D01*
X686566Y3442811D01*
X686843Y3441794D01*
X687121Y3440777D01*
X687306Y3439945D01*
X687491Y3439205D01*
X687583Y3438558D01*
Y3438095D01*
X687676Y3437818D01*
Y3437726D01*
X679632Y3436894D01*
X679447Y3439020D01*
X679077Y3440869D01*
X678522Y3442533D01*
X677875Y3443828D01*
X677320Y3444937D01*
X676766Y3445677D01*
X676396Y3446139D01*
X676211Y3446324D01*
X674824Y3447434D01*
X673345Y3448266D01*
X671773Y3448913D01*
X670386Y3449283D01*
X669092Y3449560D01*
X667982Y3449652D01*
X667613Y3449745D01*
X667058D01*
X665116Y3449652D01*
X663360Y3449283D01*
X661880Y3448728D01*
X660586Y3448173D01*
X659569Y3447526D01*
X658922Y3447064D01*
X658459Y3446694D01*
X658275Y3446509D01*
X657165Y3445215D01*
X656333Y3443920D01*
X655686Y3442626D01*
X655316Y3441331D01*
X655039Y3440314D01*
X654946Y3439390D01*
X654854Y3438835D01*
Y3438743D01*
Y3438650D01*
X655039Y3436986D01*
X655408Y3435229D01*
X656056Y3433658D01*
X656703Y3432178D01*
X657442Y3430976D01*
X658090Y3429959D01*
X658275Y3429590D01*
X658459Y3429312D01*
X658644Y3429220D01*
Y3429127D01*
X659384Y3428110D01*
X660309Y3427093D01*
X661326Y3425984D01*
X662435Y3424874D01*
X664746Y3422655D01*
X667058Y3420436D01*
X668260Y3419419D01*
X669277Y3418495D01*
X670294Y3417663D01*
X671126Y3416923D01*
X671773Y3416368D01*
X672328Y3415906D01*
X672698Y3415629D01*
X672790Y3415536D01*
X675102Y3413595D01*
X677228Y3411746D01*
X678985Y3410081D01*
X680372Y3408694D01*
X681573Y3407493D01*
X682406Y3406660D01*
X682868Y3406106D01*
X683053Y3406013D01*
Y3405921D01*
X684347Y3404349D01*
X685364Y3402870D01*
X686289Y3401390D01*
X687028Y3400096D01*
X687583Y3398987D01*
X687953Y3398154D01*
X688138Y3397600D01*
X688230Y3397507D01*
Y3397415D01*
X688600Y3396398D01*
X688785Y3395473D01*
X688970Y3394549D01*
X689062Y3393717D01*
X689155Y3392977D01*
Y3392422D01*
Y3392052D01*
Y3391960D01*
X646718D01*
Y3399541D01*
X678245D01*
X677136Y3401113D01*
X676581Y3401760D01*
X676119Y3402407D01*
X675656Y3402962D01*
X675286Y3403332D01*
X675009Y3403609D01*
X674917Y3403702D01*
X674454Y3404164D01*
X673900Y3404626D01*
X672605Y3405828D01*
X671126Y3407215D01*
X669554Y3408602D01*
X668075Y3409804D01*
X667428Y3410359D01*
X666873Y3410913D01*
X666411Y3411283D01*
X666041Y3411561D01*
X665856Y3411746D01*
X665763Y3411838D01*
X664284Y3413132D01*
X662805Y3414334D01*
X661510Y3415536D01*
X660309Y3416553D01*
X659199Y3417570D01*
X658275Y3418495D01*
X657350Y3419327D01*
X656610Y3420067D01*
X655871Y3420806D01*
X655316Y3421361D01*
X654854Y3421823D01*
X654391Y3422286D01*
X653929Y3422840D01*
X653744Y3423025D01*
X652450Y3424597D01*
X651340Y3425984D01*
X650416Y3427371D01*
X649676Y3428480D01*
X649121Y3429497D01*
X648752Y3430237D01*
X648567Y3430699D01*
X648474Y3430884D01*
X647919Y3432271D01*
X647550Y3433658D01*
X647180Y3434952D01*
X646995Y3436061D01*
X646902Y3437078D01*
X646810Y3437818D01*
Y3438280D01*
Y3438465D01*
X646902Y3439852D01*
X647087Y3441147D01*
X647272Y3442441D01*
X647642Y3443550D01*
X648567Y3445769D01*
X649491Y3447526D01*
X650046Y3448358D01*
X650508Y3449005D01*
X650971Y3449652D01*
X651433Y3450115D01*
X651803Y3450485D01*
X651988Y3450854D01*
X652172Y3450947D01*
X652265Y3451039D01*
X653282Y3451964D01*
X654391Y3452796D01*
X655593Y3453443D01*
X656795Y3453998D01*
X659199Y3454922D01*
X661603Y3455570D01*
X662620Y3455755D01*
X663637Y3455939D01*
X664562Y3456032D01*
X665301Y3456124D01*
X665948Y3456217D01*
X666873D01*
X668537Y3456124D01*
D02*
G37*
G36*
X618796D02*
X620368Y3456032D01*
X621847Y3455755D01*
X623234Y3455477D01*
X624528Y3455107D01*
X625730Y3454738D01*
X626839Y3454275D01*
X627857Y3453813D01*
X628781Y3453351D01*
X629521Y3452888D01*
X630168Y3452519D01*
X630723Y3452149D01*
X631185Y3451871D01*
X631462Y3451594D01*
X631647Y3451502D01*
X631740Y3451409D01*
X632664Y3450485D01*
X633496Y3449468D01*
X634328Y3448358D01*
X634976Y3447249D01*
X636085Y3445030D01*
X636825Y3442811D01*
X637102Y3441794D01*
X637379Y3440777D01*
X637564Y3439945D01*
X637749Y3439205D01*
X637842Y3438558D01*
Y3438095D01*
X637934Y3437818D01*
Y3437726D01*
X629891Y3436894D01*
X629706Y3439020D01*
X629336Y3440869D01*
X628781Y3442533D01*
X628134Y3443828D01*
X627579Y3444937D01*
X627024Y3445677D01*
X626655Y3446139D01*
X626470Y3446324D01*
X625083Y3447434D01*
X623604Y3448266D01*
X622032Y3448913D01*
X620645Y3449283D01*
X619351Y3449560D01*
X618241Y3449652D01*
X617871Y3449745D01*
X617317D01*
X615375Y3449652D01*
X613618Y3449283D01*
X612139Y3448728D01*
X610845Y3448173D01*
X609828Y3447526D01*
X609180Y3447064D01*
X608718Y3446694D01*
X608533Y3446509D01*
X607424Y3445215D01*
X606592Y3443920D01*
X605944Y3442626D01*
X605575Y3441331D01*
X605297Y3440314D01*
X605205Y3439390D01*
X605112Y3438835D01*
Y3438743D01*
Y3438650D01*
X605297Y3436986D01*
X605667Y3435229D01*
X606314Y3433658D01*
X606961Y3432178D01*
X607701Y3430976D01*
X608348Y3429959D01*
X608533Y3429590D01*
X608718Y3429312D01*
X608903Y3429220D01*
Y3429127D01*
X609643Y3428110D01*
X610567Y3427093D01*
X611584Y3425984D01*
X612694Y3424874D01*
X615005Y3422655D01*
X617317Y3420436D01*
X618518Y3419419D01*
X619535Y3418495D01*
X620552Y3417663D01*
X621385Y3416923D01*
X622032Y3416368D01*
X622587Y3415906D01*
X622956Y3415629D01*
X623049Y3415536D01*
X625360Y3413595D01*
X627487Y3411746D01*
X629243Y3410081D01*
X630630Y3408694D01*
X631832Y3407493D01*
X632664Y3406660D01*
X633126Y3406106D01*
X633311Y3406013D01*
Y3405921D01*
X634606Y3404349D01*
X635623Y3402870D01*
X636547Y3401390D01*
X637287Y3400096D01*
X637842Y3398987D01*
X638212Y3398154D01*
X638396Y3397600D01*
X638489Y3397507D01*
Y3397415D01*
X638859Y3396398D01*
X639044Y3395473D01*
X639229Y3394549D01*
X639321Y3393717D01*
X639414Y3392977D01*
Y3392422D01*
Y3392052D01*
Y3391960D01*
X596976D01*
Y3399541D01*
X628504D01*
X627394Y3401113D01*
X626839Y3401760D01*
X626377Y3402407D01*
X625915Y3402962D01*
X625545Y3403332D01*
X625268Y3403609D01*
X625175Y3403702D01*
X624713Y3404164D01*
X624158Y3404626D01*
X622864Y3405828D01*
X621385Y3407215D01*
X619813Y3408602D01*
X618334Y3409804D01*
X617686Y3410359D01*
X617132Y3410913D01*
X616669Y3411283D01*
X616300Y3411561D01*
X616115Y3411746D01*
X616022Y3411838D01*
X614543Y3413132D01*
X613064Y3414334D01*
X611769Y3415536D01*
X610567Y3416553D01*
X609458Y3417570D01*
X608533Y3418495D01*
X607609Y3419327D01*
X606869Y3420067D01*
X606129Y3420806D01*
X605575Y3421361D01*
X605112Y3421823D01*
X604650Y3422286D01*
X604188Y3422840D01*
X604003Y3423025D01*
X602708Y3424597D01*
X601599Y3425984D01*
X600674Y3427371D01*
X599935Y3428480D01*
X599380Y3429497D01*
X599010Y3430237D01*
X598825Y3430699D01*
X598733Y3430884D01*
X598178Y3432271D01*
X597808Y3433658D01*
X597438Y3434952D01*
X597254Y3436061D01*
X597161Y3437078D01*
X597069Y3437818D01*
Y3438280D01*
Y3438465D01*
X597161Y3439852D01*
X597346Y3441147D01*
X597531Y3442441D01*
X597901Y3443550D01*
X598825Y3445769D01*
X599750Y3447526D01*
X600305Y3448358D01*
X600767Y3449005D01*
X601229Y3449652D01*
X601691Y3450115D01*
X602061Y3450485D01*
X602246Y3450854D01*
X602431Y3450947D01*
X602524Y3451039D01*
X603541Y3451964D01*
X604650Y3452796D01*
X605852Y3453443D01*
X607054Y3453998D01*
X609458Y3454922D01*
X611862Y3455570D01*
X612879Y3455755D01*
X613896Y3455939D01*
X614820Y3456032D01*
X615560Y3456124D01*
X616207Y3456217D01*
X617132D01*
X618796Y3456124D01*
D02*
G37*
G36*
X724750Y3456864D02*
X727709Y3456402D01*
X730298Y3455847D01*
X731500Y3455477D01*
X732609Y3455107D01*
X733626Y3454738D01*
X734551Y3454368D01*
X735290Y3454090D01*
X736030Y3453813D01*
X736492Y3453536D01*
X736862Y3453351D01*
X737139Y3453258D01*
X737232Y3453166D01*
X739728Y3451594D01*
X741855Y3449745D01*
X743704Y3447896D01*
X745276Y3446047D01*
X746478Y3444382D01*
X746940Y3443643D01*
X747310Y3442996D01*
X747679Y3442533D01*
X747864Y3442164D01*
X747957Y3441886D01*
X748049Y3441794D01*
X749344Y3438928D01*
X750268Y3435969D01*
X750915Y3433010D01*
X751378Y3430329D01*
X751563Y3429127D01*
X751655Y3427925D01*
X751748Y3427001D01*
Y3426076D01*
X751840Y3425429D01*
Y3424874D01*
Y3424504D01*
Y3424412D01*
X751655Y3421084D01*
X751285Y3417848D01*
X750823Y3414981D01*
X750453Y3413595D01*
X750176Y3412393D01*
X749898Y3411283D01*
X749529Y3410266D01*
X749251Y3409342D01*
X749066Y3408602D01*
X748789Y3408047D01*
X748696Y3407585D01*
X748512Y3407308D01*
Y3407215D01*
X747125Y3404442D01*
X745553Y3401945D01*
X743889Y3399819D01*
X743057Y3398987D01*
X742317Y3398154D01*
X741577Y3397415D01*
X740838Y3396768D01*
X740191Y3396213D01*
X739636Y3395843D01*
X739266Y3395473D01*
X738896Y3395196D01*
X738711Y3395103D01*
X738619Y3395011D01*
X737324Y3394271D01*
X736030Y3393624D01*
X733256Y3392607D01*
X730483Y3391867D01*
X727801Y3391405D01*
X726507Y3391220D01*
X725398Y3391035D01*
X724381Y3390943D01*
X723548D01*
X722809Y3390850D01*
X721792D01*
X719943Y3390943D01*
X718186Y3391128D01*
X716522Y3391313D01*
X714950Y3391683D01*
X713471Y3392145D01*
X712084Y3392607D01*
X710790Y3393069D01*
X709588Y3393624D01*
X708571Y3394086D01*
X707554Y3394549D01*
X706814Y3395011D01*
X706074Y3395473D01*
X705612Y3395843D01*
X705150Y3396028D01*
X704965Y3396213D01*
X704872Y3396305D01*
X703578Y3397415D01*
X702468Y3398524D01*
X701451Y3399819D01*
X700434Y3401113D01*
X698770Y3403702D01*
X697476Y3406291D01*
X696921Y3407493D01*
X696459Y3408602D01*
X696089Y3409619D01*
X695812Y3410451D01*
X695534Y3411191D01*
X695349Y3411746D01*
X695257Y3412115D01*
Y3412208D01*
X703763Y3414334D01*
X704133Y3412855D01*
X704595Y3411468D01*
X705057Y3410174D01*
X705520Y3408972D01*
X706074Y3407862D01*
X706629Y3406938D01*
X707276Y3406013D01*
X707831Y3405181D01*
X708293Y3404442D01*
X708848Y3403887D01*
X709310Y3403332D01*
X709680Y3402870D01*
X710050Y3402592D01*
X710327Y3402315D01*
X710420Y3402223D01*
X710512Y3402130D01*
X711437Y3401390D01*
X712454Y3400836D01*
X714488Y3399819D01*
X716429Y3399079D01*
X718371Y3398617D01*
X720035Y3398247D01*
X720682Y3398154D01*
X721330D01*
X721884Y3398062D01*
X722531D01*
X724658Y3398154D01*
X726692Y3398524D01*
X728541Y3398987D01*
X730205Y3399541D01*
X731500Y3400096D01*
X732054Y3400373D01*
X732517Y3400558D01*
X732887Y3400743D01*
X733164Y3400928D01*
X733349Y3401021D01*
X733441D01*
X735198Y3402315D01*
X736677Y3403702D01*
X737972Y3405274D01*
X738989Y3406753D01*
X739821Y3408047D01*
X740375Y3409157D01*
X740560Y3409619D01*
X740745Y3409896D01*
X740838Y3410081D01*
Y3410174D01*
X741577Y3412578D01*
X742132Y3414981D01*
X742594Y3417385D01*
X742872Y3419604D01*
X742964Y3420621D01*
X743057Y3421546D01*
Y3422378D01*
X743149Y3423025D01*
Y3423580D01*
Y3424042D01*
Y3424320D01*
Y3424412D01*
X743057Y3426816D01*
X742872Y3429035D01*
X742502Y3431069D01*
X742132Y3432918D01*
X741855Y3434490D01*
X741670Y3435137D01*
X741485Y3435692D01*
X741392Y3436154D01*
X741300Y3436431D01*
X741208Y3436616D01*
Y3436709D01*
X740283Y3438835D01*
X739266Y3440777D01*
X738157Y3442348D01*
X736955Y3443735D01*
X735938Y3444845D01*
X735105Y3445584D01*
X734458Y3446047D01*
X734366Y3446232D01*
X734273D01*
X732332Y3447434D01*
X730205Y3448358D01*
X728171Y3449005D01*
X726230Y3449375D01*
X724473Y3449652D01*
X723733Y3449745D01*
X723086D01*
X722624Y3449837D01*
X721884D01*
X719573Y3449745D01*
X717446Y3449375D01*
X715690Y3448820D01*
X714118Y3448266D01*
X712916Y3447618D01*
X711991Y3447156D01*
X711437Y3446786D01*
X711252Y3446601D01*
X709773Y3445215D01*
X708386Y3443643D01*
X707276Y3441979D01*
X706352Y3440314D01*
X705612Y3438835D01*
X705335Y3438095D01*
X705150Y3437541D01*
X704965Y3437078D01*
X704780Y3436709D01*
X704687Y3436524D01*
Y3436431D01*
X696366Y3438373D01*
X696921Y3440037D01*
X697476Y3441516D01*
X698216Y3442903D01*
X698863Y3444290D01*
X699602Y3445492D01*
X700434Y3446601D01*
X701174Y3447711D01*
X701914Y3448635D01*
X702653Y3449375D01*
X703301Y3450115D01*
X703948Y3450762D01*
X704410Y3451224D01*
X704872Y3451687D01*
X705242Y3451964D01*
X705427Y3452056D01*
X705520Y3452149D01*
X706814Y3452981D01*
X708108Y3453813D01*
X709403Y3454460D01*
X710790Y3455015D01*
X713563Y3455847D01*
X716060Y3456402D01*
X717261Y3456679D01*
X718278Y3456772D01*
X719295Y3456864D01*
X720128Y3456957D01*
X720775Y3457049D01*
X721699D01*
X724750Y3456864D01*
D02*
G37*
G36*
X1262897Y3456124D02*
X1264469Y3456032D01*
X1265948Y3455755D01*
X1267335Y3455477D01*
X1268629Y3455107D01*
X1269831Y3454738D01*
X1270941Y3454275D01*
X1271958Y3453813D01*
X1272882Y3453351D01*
X1273622Y3452888D01*
X1274269Y3452519D01*
X1274824Y3452149D01*
X1275286Y3451871D01*
X1275564Y3451594D01*
X1275749Y3451502D01*
X1275841Y3451409D01*
X1276766Y3450485D01*
X1277598Y3449468D01*
X1278430Y3448358D01*
X1279077Y3447249D01*
X1280186Y3445030D01*
X1280926Y3442811D01*
X1281203Y3441794D01*
X1281481Y3440777D01*
X1281666Y3439945D01*
X1281851Y3439205D01*
X1281943Y3438558D01*
Y3438095D01*
X1282036Y3437818D01*
Y3437726D01*
X1273992Y3436894D01*
X1273807Y3439020D01*
X1273437Y3440869D01*
X1272882Y3442533D01*
X1272235Y3443828D01*
X1271680Y3444937D01*
X1271126Y3445677D01*
X1270756Y3446139D01*
X1270571Y3446324D01*
X1269184Y3447434D01*
X1267705Y3448266D01*
X1266133Y3448913D01*
X1264746Y3449283D01*
X1263452Y3449560D01*
X1262342Y3449652D01*
X1261973Y3449745D01*
X1261418D01*
X1259476Y3449652D01*
X1257720Y3449283D01*
X1256240Y3448728D01*
X1254946Y3448173D01*
X1253929Y3447526D01*
X1253282Y3447064D01*
X1252819Y3446694D01*
X1252635Y3446509D01*
X1251525Y3445215D01*
X1250693Y3443920D01*
X1250046Y3442626D01*
X1249676Y3441331D01*
X1249399Y3440314D01*
X1249306Y3439390D01*
X1249214Y3438835D01*
Y3438743D01*
Y3438650D01*
X1249399Y3436986D01*
X1249768Y3435229D01*
X1250416Y3433658D01*
X1251063Y3432178D01*
X1251802Y3430976D01*
X1252450Y3429959D01*
X1252635Y3429590D01*
X1252819Y3429312D01*
X1253004Y3429220D01*
Y3429127D01*
X1253744Y3428110D01*
X1254669Y3427093D01*
X1255686Y3425984D01*
X1256795Y3424874D01*
X1259106Y3422655D01*
X1261418Y3420436D01*
X1262620Y3419419D01*
X1263637Y3418495D01*
X1264654Y3417663D01*
X1265486Y3416923D01*
X1266133Y3416368D01*
X1266688Y3415906D01*
X1267058Y3415629D01*
X1267150Y3415536D01*
X1269462Y3413595D01*
X1271588Y3411746D01*
X1273345Y3410081D01*
X1274732Y3408694D01*
X1275933Y3407493D01*
X1276766Y3406660D01*
X1277228Y3406106D01*
X1277413Y3406013D01*
Y3405921D01*
X1278707Y3404349D01*
X1279724Y3402870D01*
X1280649Y3401390D01*
X1281388Y3400096D01*
X1281943Y3398987D01*
X1282313Y3398154D01*
X1282498Y3397600D01*
X1282590Y3397507D01*
Y3397415D01*
X1282960Y3396398D01*
X1283145Y3395473D01*
X1283330Y3394549D01*
X1283422Y3393717D01*
X1283515Y3392977D01*
Y3392422D01*
Y3392052D01*
Y3391960D01*
X1241078D01*
Y3399541D01*
X1272605D01*
X1271496Y3401113D01*
X1270941Y3401760D01*
X1270479Y3402407D01*
X1270016Y3402962D01*
X1269646Y3403332D01*
X1269369Y3403609D01*
X1269277Y3403702D01*
X1268814Y3404164D01*
X1268260Y3404626D01*
X1266965Y3405828D01*
X1265486Y3407215D01*
X1263914Y3408602D01*
X1262435Y3409804D01*
X1261788Y3410359D01*
X1261233Y3410913D01*
X1260771Y3411283D01*
X1260401Y3411561D01*
X1260216Y3411746D01*
X1260123Y3411838D01*
X1258644Y3413132D01*
X1257165Y3414334D01*
X1255870Y3415536D01*
X1254669Y3416553D01*
X1253559Y3417570D01*
X1252635Y3418495D01*
X1251710Y3419327D01*
X1250970Y3420067D01*
X1250231Y3420806D01*
X1249676Y3421361D01*
X1249214Y3421823D01*
X1248751Y3422286D01*
X1248289Y3422840D01*
X1248104Y3423025D01*
X1246810Y3424597D01*
X1245700Y3425984D01*
X1244776Y3427371D01*
X1244036Y3428480D01*
X1243481Y3429497D01*
X1243112Y3430237D01*
X1242927Y3430699D01*
X1242834Y3430884D01*
X1242279Y3432271D01*
X1241910Y3433658D01*
X1241540Y3434952D01*
X1241355Y3436061D01*
X1241262Y3437078D01*
X1241170Y3437818D01*
Y3438280D01*
Y3438465D01*
X1241262Y3439852D01*
X1241447Y3441147D01*
X1241632Y3442441D01*
X1242002Y3443550D01*
X1242927Y3445769D01*
X1243851Y3447526D01*
X1244406Y3448358D01*
X1244868Y3449005D01*
X1245331Y3449652D01*
X1245793Y3450115D01*
X1246163Y3450485D01*
X1246348Y3450854D01*
X1246532Y3450947D01*
X1246625Y3451039D01*
X1247642Y3451964D01*
X1248751Y3452796D01*
X1249953Y3453443D01*
X1251155Y3453998D01*
X1253559Y3454922D01*
X1255963Y3455570D01*
X1256980Y3455755D01*
X1257997Y3455939D01*
X1258922Y3456032D01*
X1259661Y3456124D01*
X1260308Y3456217D01*
X1261233D01*
X1262897Y3456124D01*
D02*
G37*
G36*
X1209088Y3454645D02*
X1210105Y3453166D01*
X1211307Y3451687D01*
X1212416Y3450392D01*
X1213526Y3449283D01*
X1214358Y3448358D01*
X1214728Y3448081D01*
X1215005Y3447803D01*
X1215097Y3447711D01*
X1215190Y3447618D01*
X1217131Y3446047D01*
X1219073Y3444567D01*
X1220922Y3443273D01*
X1222771Y3442256D01*
X1224343Y3441331D01*
X1224990Y3440962D01*
X1225545Y3440684D01*
X1226007Y3440407D01*
X1226377Y3440314D01*
X1226562Y3440130D01*
X1226654D01*
Y3432548D01*
X1225268Y3433103D01*
X1223881Y3433750D01*
X1222494Y3434397D01*
X1221199Y3435044D01*
X1220090Y3435599D01*
X1219165Y3436061D01*
X1218611Y3436431D01*
X1218518Y3436524D01*
X1218426D01*
X1216762Y3437541D01*
X1215282Y3438558D01*
X1213988Y3439482D01*
X1212971Y3440314D01*
X1212046Y3440962D01*
X1211492Y3441516D01*
X1211029Y3441886D01*
X1210937Y3441979D01*
Y3391960D01*
X1203078D01*
Y3456217D01*
X1208163D01*
X1209088Y3454645D01*
D02*
G37*
G36*
X1319110Y3456864D02*
X1322069Y3456402D01*
X1324658Y3455847D01*
X1325860Y3455477D01*
X1326969Y3455107D01*
X1327986Y3454738D01*
X1328911Y3454368D01*
X1329650Y3454090D01*
X1330390Y3453813D01*
X1330852Y3453536D01*
X1331222Y3453351D01*
X1331499Y3453258D01*
X1331592Y3453166D01*
X1334088Y3451594D01*
X1336215Y3449745D01*
X1338064Y3447896D01*
X1339636Y3446047D01*
X1340838Y3444382D01*
X1341300Y3443643D01*
X1341670Y3442996D01*
X1342039Y3442533D01*
X1342224Y3442164D01*
X1342317Y3441886D01*
X1342409Y3441794D01*
X1343704Y3438928D01*
X1344628Y3435969D01*
X1345275Y3433010D01*
X1345738Y3430329D01*
X1345923Y3429127D01*
X1346015Y3427925D01*
X1346108Y3427001D01*
Y3426076D01*
X1346200Y3425429D01*
Y3424874D01*
Y3424504D01*
Y3424412D01*
X1346015Y3421084D01*
X1345645Y3417848D01*
X1345183Y3414981D01*
X1344813Y3413595D01*
X1344536Y3412393D01*
X1344258Y3411283D01*
X1343889Y3410266D01*
X1343611Y3409342D01*
X1343426Y3408602D01*
X1343149Y3408047D01*
X1343056Y3407585D01*
X1342872Y3407308D01*
Y3407215D01*
X1341485Y3404442D01*
X1339913Y3401945D01*
X1338249Y3399819D01*
X1337417Y3398987D01*
X1336677Y3398154D01*
X1335937Y3397415D01*
X1335198Y3396768D01*
X1334551Y3396213D01*
X1333996Y3395843D01*
X1333626Y3395473D01*
X1333256Y3395196D01*
X1333071Y3395103D01*
X1332979Y3395011D01*
X1331684Y3394271D01*
X1330390Y3393624D01*
X1327616Y3392607D01*
X1324843Y3391867D01*
X1322161Y3391405D01*
X1320867Y3391220D01*
X1319758Y3391035D01*
X1318741Y3390943D01*
X1317908D01*
X1317169Y3390850D01*
X1316152D01*
X1314303Y3390943D01*
X1312546Y3391128D01*
X1310882Y3391313D01*
X1309310Y3391683D01*
X1307831Y3392145D01*
X1306444Y3392607D01*
X1305150Y3393069D01*
X1303948Y3393624D01*
X1302931Y3394086D01*
X1301914Y3394549D01*
X1301174Y3395011D01*
X1300434Y3395473D01*
X1299972Y3395843D01*
X1299510Y3396028D01*
X1299325Y3396213D01*
X1299232Y3396305D01*
X1297938Y3397415D01*
X1296828Y3398524D01*
X1295811Y3399819D01*
X1294794Y3401113D01*
X1293130Y3403702D01*
X1291836Y3406291D01*
X1291281Y3407493D01*
X1290819Y3408602D01*
X1290449Y3409619D01*
X1290172Y3410451D01*
X1289894Y3411191D01*
X1289709Y3411746D01*
X1289617Y3412115D01*
Y3412208D01*
X1298123Y3414334D01*
X1298493Y3412855D01*
X1298955Y3411468D01*
X1299417Y3410174D01*
X1299880Y3408972D01*
X1300434Y3407862D01*
X1300989Y3406938D01*
X1301636Y3406013D01*
X1302191Y3405181D01*
X1302653Y3404442D01*
X1303208Y3403887D01*
X1303670Y3403332D01*
X1304040Y3402870D01*
X1304410Y3402592D01*
X1304687Y3402315D01*
X1304780Y3402223D01*
X1304872Y3402130D01*
X1305797Y3401390D01*
X1306814Y3400836D01*
X1308848Y3399819D01*
X1310789Y3399079D01*
X1312731Y3398617D01*
X1314395Y3398247D01*
X1315042Y3398154D01*
X1315690D01*
X1316244Y3398062D01*
X1316891D01*
X1319018Y3398154D01*
X1321052Y3398524D01*
X1322901Y3398987D01*
X1324565Y3399541D01*
X1325860Y3400096D01*
X1326414Y3400373D01*
X1326877Y3400558D01*
X1327247Y3400743D01*
X1327524Y3400928D01*
X1327709Y3401021D01*
X1327801D01*
X1329558Y3402315D01*
X1331037Y3403702D01*
X1332332Y3405274D01*
X1333349Y3406753D01*
X1334181Y3408047D01*
X1334735Y3409157D01*
X1334920Y3409619D01*
X1335105Y3409896D01*
X1335198Y3410081D01*
Y3410174D01*
X1335937Y3412578D01*
X1336492Y3414981D01*
X1336954Y3417385D01*
X1337232Y3419604D01*
X1337324Y3420621D01*
X1337417Y3421546D01*
Y3422378D01*
X1337509Y3423025D01*
Y3423580D01*
Y3424042D01*
Y3424320D01*
Y3424412D01*
X1337417Y3426816D01*
X1337232Y3429035D01*
X1336862Y3431069D01*
X1336492Y3432918D01*
X1336215Y3434490D01*
X1336030Y3435137D01*
X1335845Y3435692D01*
X1335752Y3436154D01*
X1335660Y3436431D01*
X1335568Y3436616D01*
Y3436709D01*
X1334643Y3438835D01*
X1333626Y3440777D01*
X1332517Y3442348D01*
X1331315Y3443735D01*
X1330298Y3444845D01*
X1329465Y3445584D01*
X1328818Y3446047D01*
X1328726Y3446232D01*
X1328633D01*
X1326692Y3447434D01*
X1324565Y3448358D01*
X1322531Y3449005D01*
X1320590Y3449375D01*
X1318833Y3449652D01*
X1318093Y3449745D01*
X1317446D01*
X1316984Y3449837D01*
X1316244D01*
X1313933Y3449745D01*
X1311806Y3449375D01*
X1310050Y3448820D01*
X1308478Y3448266D01*
X1307276Y3447618D01*
X1306351Y3447156D01*
X1305797Y3446786D01*
X1305612Y3446601D01*
X1304133Y3445215D01*
X1302746Y3443643D01*
X1301636Y3441979D01*
X1300712Y3440314D01*
X1299972Y3438835D01*
X1299695Y3438095D01*
X1299510Y3437541D01*
X1299325Y3437078D01*
X1299140Y3436709D01*
X1299047Y3436524D01*
Y3436431D01*
X1290726Y3438373D01*
X1291281Y3440037D01*
X1291836Y3441516D01*
X1292576Y3442903D01*
X1293223Y3444290D01*
X1293962Y3445492D01*
X1294794Y3446601D01*
X1295534Y3447711D01*
X1296274Y3448635D01*
X1297013Y3449375D01*
X1297661Y3450115D01*
X1298308Y3450762D01*
X1298770Y3451224D01*
X1299232Y3451687D01*
X1299602Y3451964D01*
X1299787Y3452056D01*
X1299880Y3452149D01*
X1301174Y3452981D01*
X1302468Y3453813D01*
X1303763Y3454460D01*
X1305150Y3455015D01*
X1307923Y3455847D01*
X1310420Y3456402D01*
X1311621Y3456679D01*
X1312638Y3456772D01*
X1313655Y3456864D01*
X1314488Y3456957D01*
X1315135Y3457049D01*
X1316059D01*
X1319110Y3456864D01*
D02*
G37*
G36*
X1069857Y3456124D02*
X1071429Y3456032D01*
X1072908Y3455755D01*
X1074295Y3455477D01*
X1075589Y3455107D01*
X1076791Y3454738D01*
X1077901Y3454275D01*
X1078918Y3453813D01*
X1079842Y3453351D01*
X1080582Y3452888D01*
X1081229Y3452519D01*
X1081784Y3452149D01*
X1082246Y3451871D01*
X1082524Y3451594D01*
X1082709Y3451502D01*
X1082801Y3451409D01*
X1083726Y3450485D01*
X1084558Y3449468D01*
X1085390Y3448358D01*
X1086037Y3447249D01*
X1087146Y3445030D01*
X1087886Y3442811D01*
X1088163Y3441794D01*
X1088441Y3440777D01*
X1088626Y3439945D01*
X1088811Y3439205D01*
X1088903Y3438558D01*
Y3438095D01*
X1088996Y3437818D01*
Y3437726D01*
X1080952Y3436894D01*
X1080767Y3439020D01*
X1080397Y3440869D01*
X1079842Y3442533D01*
X1079195Y3443828D01*
X1078640Y3444937D01*
X1078086Y3445677D01*
X1077716Y3446139D01*
X1077531Y3446324D01*
X1076144Y3447434D01*
X1074665Y3448266D01*
X1073093Y3448913D01*
X1071706Y3449283D01*
X1070412Y3449560D01*
X1069302Y3449652D01*
X1068933Y3449745D01*
X1068378D01*
X1066436Y3449652D01*
X1064680Y3449283D01*
X1063200Y3448728D01*
X1061906Y3448173D01*
X1060889Y3447526D01*
X1060242Y3447064D01*
X1059779Y3446694D01*
X1059595Y3446509D01*
X1058485Y3445215D01*
X1057653Y3443920D01*
X1057006Y3442626D01*
X1056636Y3441331D01*
X1056359Y3440314D01*
X1056266Y3439390D01*
X1056174Y3438835D01*
Y3438743D01*
Y3438650D01*
X1056359Y3436986D01*
X1056728Y3435229D01*
X1057376Y3433658D01*
X1058023Y3432178D01*
X1058762Y3430976D01*
X1059410Y3429959D01*
X1059595Y3429590D01*
X1059779Y3429312D01*
X1059964Y3429220D01*
Y3429127D01*
X1060704Y3428110D01*
X1061629Y3427093D01*
X1062646Y3425984D01*
X1063755Y3424874D01*
X1066066Y3422655D01*
X1068378Y3420436D01*
X1069580Y3419419D01*
X1070597Y3418495D01*
X1071614Y3417663D01*
X1072446Y3416923D01*
X1073093Y3416368D01*
X1073648Y3415906D01*
X1074018Y3415629D01*
X1074110Y3415536D01*
X1076422Y3413595D01*
X1078548Y3411746D01*
X1080305Y3410081D01*
X1081692Y3408694D01*
X1082893Y3407493D01*
X1083726Y3406660D01*
X1084188Y3406106D01*
X1084373Y3406013D01*
Y3405921D01*
X1085667Y3404349D01*
X1086684Y3402870D01*
X1087609Y3401390D01*
X1088348Y3400096D01*
X1088903Y3398987D01*
X1089273Y3398154D01*
X1089458Y3397600D01*
X1089550Y3397507D01*
Y3397415D01*
X1089920Y3396398D01*
X1090105Y3395473D01*
X1090290Y3394549D01*
X1090382Y3393717D01*
X1090475Y3392977D01*
Y3392422D01*
Y3392052D01*
Y3391960D01*
X1048038D01*
Y3399541D01*
X1079565D01*
X1078456Y3401113D01*
X1077901Y3401760D01*
X1077439Y3402407D01*
X1076976Y3402962D01*
X1076606Y3403332D01*
X1076329Y3403609D01*
X1076237Y3403702D01*
X1075774Y3404164D01*
X1075220Y3404626D01*
X1073925Y3405828D01*
X1072446Y3407215D01*
X1070874Y3408602D01*
X1069395Y3409804D01*
X1068748Y3410359D01*
X1068193Y3410913D01*
X1067731Y3411283D01*
X1067361Y3411561D01*
X1067176Y3411746D01*
X1067083Y3411838D01*
X1065604Y3413132D01*
X1064125Y3414334D01*
X1062830Y3415536D01*
X1061629Y3416553D01*
X1060519Y3417570D01*
X1059595Y3418495D01*
X1058670Y3419327D01*
X1057930Y3420067D01*
X1057191Y3420806D01*
X1056636Y3421361D01*
X1056174Y3421823D01*
X1055711Y3422286D01*
X1055249Y3422840D01*
X1055064Y3423025D01*
X1053770Y3424597D01*
X1052660Y3425984D01*
X1051736Y3427371D01*
X1050996Y3428480D01*
X1050441Y3429497D01*
X1050072Y3430237D01*
X1049887Y3430699D01*
X1049794Y3430884D01*
X1049239Y3432271D01*
X1048870Y3433658D01*
X1048500Y3434952D01*
X1048315Y3436061D01*
X1048222Y3437078D01*
X1048130Y3437818D01*
Y3438280D01*
Y3438465D01*
X1048222Y3439852D01*
X1048407Y3441147D01*
X1048592Y3442441D01*
X1048962Y3443550D01*
X1049887Y3445769D01*
X1050811Y3447526D01*
X1051366Y3448358D01*
X1051828Y3449005D01*
X1052291Y3449652D01*
X1052753Y3450115D01*
X1053123Y3450485D01*
X1053308Y3450854D01*
X1053492Y3450947D01*
X1053585Y3451039D01*
X1054602Y3451964D01*
X1055711Y3452796D01*
X1056913Y3453443D01*
X1058115Y3453998D01*
X1060519Y3454922D01*
X1062923Y3455570D01*
X1063940Y3455755D01*
X1064957Y3455939D01*
X1065882Y3456032D01*
X1066621Y3456124D01*
X1067268Y3456217D01*
X1068193D01*
X1069857Y3456124D01*
D02*
G37*
G36*
X1126070Y3456864D02*
X1129029Y3456402D01*
X1131618Y3455847D01*
X1132820Y3455477D01*
X1133929Y3455107D01*
X1134946Y3454738D01*
X1135871Y3454368D01*
X1136610Y3454090D01*
X1137350Y3453813D01*
X1137812Y3453536D01*
X1138182Y3453351D01*
X1138459Y3453258D01*
X1138552Y3453166D01*
X1141048Y3451594D01*
X1143175Y3449745D01*
X1145024Y3447896D01*
X1146596Y3446047D01*
X1147798Y3444382D01*
X1148260Y3443643D01*
X1148630Y3442996D01*
X1148999Y3442533D01*
X1149184Y3442164D01*
X1149277Y3441886D01*
X1149369Y3441794D01*
X1150664Y3438928D01*
X1151588Y3435969D01*
X1152235Y3433010D01*
X1152698Y3430329D01*
X1152883Y3429127D01*
X1152975Y3427925D01*
X1153068Y3427001D01*
Y3426076D01*
X1153160Y3425429D01*
Y3424874D01*
Y3424504D01*
Y3424412D01*
X1152975Y3421084D01*
X1152605Y3417848D01*
X1152143Y3414981D01*
X1151773Y3413595D01*
X1151496Y3412393D01*
X1151218Y3411283D01*
X1150849Y3410266D01*
X1150571Y3409342D01*
X1150386Y3408602D01*
X1150109Y3408047D01*
X1150016Y3407585D01*
X1149832Y3407308D01*
Y3407215D01*
X1148445Y3404442D01*
X1146873Y3401945D01*
X1145209Y3399819D01*
X1144377Y3398987D01*
X1143637Y3398154D01*
X1142897Y3397415D01*
X1142158Y3396768D01*
X1141511Y3396213D01*
X1140956Y3395843D01*
X1140586Y3395473D01*
X1140216Y3395196D01*
X1140031Y3395103D01*
X1139939Y3395011D01*
X1138644Y3394271D01*
X1137350Y3393624D01*
X1134576Y3392607D01*
X1131803Y3391867D01*
X1129121Y3391405D01*
X1127827Y3391220D01*
X1126718Y3391035D01*
X1125701Y3390943D01*
X1124868D01*
X1124129Y3390850D01*
X1123112D01*
X1121263Y3390943D01*
X1119506Y3391128D01*
X1117842Y3391313D01*
X1116270Y3391683D01*
X1114791Y3392145D01*
X1113404Y3392607D01*
X1112110Y3393069D01*
X1110908Y3393624D01*
X1109891Y3394086D01*
X1108874Y3394549D01*
X1108134Y3395011D01*
X1107394Y3395473D01*
X1106932Y3395843D01*
X1106470Y3396028D01*
X1106285Y3396213D01*
X1106192Y3396305D01*
X1104898Y3397415D01*
X1103788Y3398524D01*
X1102771Y3399819D01*
X1101754Y3401113D01*
X1100090Y3403702D01*
X1098796Y3406291D01*
X1098241Y3407493D01*
X1097779Y3408602D01*
X1097409Y3409619D01*
X1097132Y3410451D01*
X1096854Y3411191D01*
X1096669Y3411746D01*
X1096577Y3412115D01*
Y3412208D01*
X1105083Y3414334D01*
X1105453Y3412855D01*
X1105915Y3411468D01*
X1106377Y3410174D01*
X1106840Y3408972D01*
X1107394Y3407862D01*
X1107949Y3406938D01*
X1108596Y3406013D01*
X1109151Y3405181D01*
X1109613Y3404442D01*
X1110168Y3403887D01*
X1110630Y3403332D01*
X1111000Y3402870D01*
X1111370Y3402592D01*
X1111647Y3402315D01*
X1111740Y3402223D01*
X1111832Y3402130D01*
X1112757Y3401390D01*
X1113774Y3400836D01*
X1115808Y3399819D01*
X1117749Y3399079D01*
X1119691Y3398617D01*
X1121355Y3398247D01*
X1122002Y3398154D01*
X1122650D01*
X1123204Y3398062D01*
X1123851D01*
X1125978Y3398154D01*
X1128012Y3398524D01*
X1129861Y3398987D01*
X1131525Y3399541D01*
X1132820Y3400096D01*
X1133374Y3400373D01*
X1133837Y3400558D01*
X1134207Y3400743D01*
X1134484Y3400928D01*
X1134669Y3401021D01*
X1134761D01*
X1136518Y3402315D01*
X1137997Y3403702D01*
X1139292Y3405274D01*
X1140309Y3406753D01*
X1141141Y3408047D01*
X1141695Y3409157D01*
X1141880Y3409619D01*
X1142065Y3409896D01*
X1142158Y3410081D01*
Y3410174D01*
X1142897Y3412578D01*
X1143452Y3414981D01*
X1143914Y3417385D01*
X1144192Y3419604D01*
X1144284Y3420621D01*
X1144377Y3421546D01*
Y3422378D01*
X1144469Y3423025D01*
Y3423580D01*
Y3424042D01*
Y3424320D01*
Y3424412D01*
X1144377Y3426816D01*
X1144192Y3429035D01*
X1143822Y3431069D01*
X1143452Y3432918D01*
X1143175Y3434490D01*
X1142990Y3435137D01*
X1142805Y3435692D01*
X1142712Y3436154D01*
X1142620Y3436431D01*
X1142528Y3436616D01*
Y3436709D01*
X1141603Y3438835D01*
X1140586Y3440777D01*
X1139477Y3442348D01*
X1138275Y3443735D01*
X1137258Y3444845D01*
X1136425Y3445584D01*
X1135778Y3446047D01*
X1135686Y3446232D01*
X1135593D01*
X1133652Y3447434D01*
X1131525Y3448358D01*
X1129491Y3449005D01*
X1127550Y3449375D01*
X1125793Y3449652D01*
X1125053Y3449745D01*
X1124406D01*
X1123944Y3449837D01*
X1123204D01*
X1120893Y3449745D01*
X1118766Y3449375D01*
X1117010Y3448820D01*
X1115438Y3448266D01*
X1114236Y3447618D01*
X1113311Y3447156D01*
X1112757Y3446786D01*
X1112572Y3446601D01*
X1111093Y3445215D01*
X1109706Y3443643D01*
X1108596Y3441979D01*
X1107672Y3440314D01*
X1106932Y3438835D01*
X1106655Y3438095D01*
X1106470Y3437541D01*
X1106285Y3437078D01*
X1106100Y3436709D01*
X1106007Y3436524D01*
Y3436431D01*
X1097686Y3438373D01*
X1098241Y3440037D01*
X1098796Y3441516D01*
X1099536Y3442903D01*
X1100183Y3444290D01*
X1100922Y3445492D01*
X1101754Y3446601D01*
X1102494Y3447711D01*
X1103234Y3448635D01*
X1103973Y3449375D01*
X1104621Y3450115D01*
X1105268Y3450762D01*
X1105730Y3451224D01*
X1106192Y3451687D01*
X1106562Y3451964D01*
X1106747Y3452056D01*
X1106840Y3452149D01*
X1108134Y3452981D01*
X1109428Y3453813D01*
X1110723Y3454460D01*
X1112110Y3455015D01*
X1114883Y3455847D01*
X1117380Y3456402D01*
X1118581Y3456679D01*
X1119598Y3456772D01*
X1120615Y3456864D01*
X1121448Y3456957D01*
X1122095Y3457049D01*
X1123019D01*
X1126070Y3456864D01*
D02*
G37*
G36*
X1021225Y3456032D02*
X1023537Y3455662D01*
X1025478Y3455015D01*
X1027142Y3454368D01*
X1028529Y3453628D01*
X1029084Y3453351D01*
X1029546Y3452981D01*
X1029916Y3452796D01*
X1030194Y3452611D01*
X1030286Y3452426D01*
X1030378D01*
X1032043Y3450947D01*
X1033429Y3449190D01*
X1034631Y3447434D01*
X1035556Y3445769D01*
X1036296Y3444198D01*
X1036665Y3443550D01*
X1036850Y3442903D01*
X1037035Y3442441D01*
X1037220Y3442071D01*
X1037313Y3441886D01*
Y3441794D01*
X1037682Y3440407D01*
X1038052Y3439020D01*
X1038607Y3435969D01*
X1039069Y3432918D01*
X1039347Y3430052D01*
X1039439Y3428665D01*
X1039532Y3427463D01*
Y3426354D01*
X1039624Y3425337D01*
Y3424597D01*
Y3423950D01*
Y3423580D01*
Y3423487D01*
X1039532Y3420251D01*
X1039347Y3417200D01*
X1039069Y3414427D01*
X1038607Y3411838D01*
X1038145Y3409434D01*
X1037590Y3407308D01*
X1037035Y3405366D01*
X1036481Y3403702D01*
X1035926Y3402223D01*
X1035279Y3400928D01*
X1034816Y3399819D01*
X1034354Y3398987D01*
X1033892Y3398247D01*
X1033614Y3397785D01*
X1033429Y3397507D01*
X1033337Y3397415D01*
X1032320Y3396305D01*
X1031211Y3395288D01*
X1030009Y3394364D01*
X1028807Y3393624D01*
X1027605Y3392977D01*
X1026403Y3392422D01*
X1025201Y3392052D01*
X1024091Y3391683D01*
X1022982Y3391405D01*
X1021965Y3391220D01*
X1021040Y3391035D01*
X1020301Y3390943D01*
X1019654Y3390850D01*
X1018729D01*
X1016233Y3391035D01*
X1013921Y3391405D01*
X1011980Y3392052D01*
X1010315Y3392700D01*
X1008929Y3393347D01*
X1008466Y3393717D01*
X1008004Y3393994D01*
X1007634Y3394179D01*
X1007357Y3394364D01*
X1007264Y3394549D01*
X1007172D01*
X1005508Y3396120D01*
X1004121Y3397785D01*
X1002919Y3399634D01*
X1001994Y3401298D01*
X1001255Y3402870D01*
X1000885Y3403517D01*
X1000700Y3404164D01*
X1000515Y3404626D01*
X1000330Y3404996D01*
X1000238Y3405181D01*
Y3405274D01*
X999775Y3406660D01*
X999406Y3408047D01*
X998851Y3411006D01*
X998389Y3414057D01*
X998111Y3417016D01*
X998019Y3418310D01*
X997926Y3419512D01*
Y3420621D01*
X997834Y3421638D01*
Y3422378D01*
Y3423025D01*
Y3423395D01*
Y3423487D01*
Y3425244D01*
X997926Y3426908D01*
Y3428388D01*
X998019Y3429867D01*
X998204Y3431161D01*
X998296Y3432456D01*
X998389Y3433565D01*
X998574Y3434582D01*
X998666Y3435507D01*
X998851Y3436339D01*
X998943Y3436986D01*
X999036Y3437541D01*
X999128Y3438003D01*
X999221Y3438280D01*
X999313Y3438465D01*
Y3438558D01*
X999868Y3440592D01*
X1000515Y3442441D01*
X1001255Y3444013D01*
X1001810Y3445400D01*
X1002457Y3446601D01*
X1002827Y3447434D01*
X1003196Y3447896D01*
X1003289Y3448081D01*
X1004306Y3449468D01*
X1005323Y3450670D01*
X1006432Y3451687D01*
X1007449Y3452611D01*
X1008374Y3453258D01*
X1009114Y3453721D01*
X1009576Y3453998D01*
X1009668Y3454090D01*
X1009761D01*
X1011240Y3454830D01*
X1012812Y3455292D01*
X1014291Y3455662D01*
X1015678Y3455939D01*
X1016880Y3456124D01*
X1017897Y3456217D01*
X1018729D01*
X1021225Y3456032D01*
D02*
G37*
%LPC*%
G36*
X9669619Y2303005D02*
X9669064D01*
X9667123Y2302820D01*
X9665366Y2302358D01*
X9663887Y2301803D01*
X9662592Y2301063D01*
X9661575Y2300324D01*
X9660836Y2299769D01*
X9660373Y2299307D01*
X9660188Y2299122D01*
X9658987Y2297550D01*
X9658062Y2295886D01*
X9657415Y2294129D01*
X9657045Y2292465D01*
X9656768Y2290986D01*
X9656675Y2290338D01*
Y2289784D01*
X9656583Y2289321D01*
Y2288951D01*
Y2288767D01*
Y2288674D01*
X9656768Y2286178D01*
X9657137Y2284051D01*
X9657692Y2282202D01*
X9658339Y2280630D01*
X9659079Y2279429D01*
X9659634Y2278504D01*
X9660004Y2277949D01*
X9660188Y2277857D01*
Y2277764D01*
X9660836Y2277025D01*
X9661575Y2276470D01*
X9663055Y2275453D01*
X9664534Y2274806D01*
X9665828Y2274251D01*
X9667030Y2273974D01*
X9667955Y2273881D01*
X9668325Y2273789D01*
X9668787D01*
X9670081Y2273881D01*
X9671283Y2274066D01*
X9672393Y2274436D01*
X9673317Y2274806D01*
X9674149Y2275083D01*
X9674796Y2275453D01*
X9675166Y2275638D01*
X9675351Y2275730D01*
X9676461Y2276562D01*
X9677385Y2277394D01*
X9678217Y2278411D01*
X9678865Y2279244D01*
X9679419Y2280076D01*
X9679789Y2280723D01*
X9680066Y2281185D01*
X9680159Y2281370D01*
X9680714Y2282757D01*
X9681084Y2284144D01*
X9681453Y2285438D01*
X9681638Y2286640D01*
X9681731Y2287657D01*
X9681823Y2288489D01*
Y2288951D01*
Y2289136D01*
X9681638Y2291355D01*
X9681268Y2293297D01*
X9680621Y2295054D01*
X9679974Y2296440D01*
X9679327Y2297642D01*
X9678680Y2298474D01*
X9678310Y2298937D01*
X9678125Y2299122D01*
X9676646Y2300416D01*
X9675166Y2301341D01*
X9673595Y2302080D01*
X9672208Y2302543D01*
X9670913Y2302820D01*
X9669989Y2302912D01*
X9669619Y2303005D01*
D02*
G37*
G36*
X9792955Y2325287D02*
X9772800D01*
X9770304Y2325194D01*
X9768177Y2324824D01*
X9766328Y2324362D01*
X9764941Y2323807D01*
X9763739Y2323253D01*
X9763000Y2322790D01*
X9762537Y2322421D01*
X9762352Y2322328D01*
X9761243Y2321126D01*
X9760411Y2319924D01*
X9759856Y2318630D01*
X9759394Y2317520D01*
X9759209Y2316411D01*
X9759116Y2315579D01*
X9759024Y2315024D01*
Y2314932D01*
Y2314839D01*
X9759116Y2313730D01*
X9759301Y2312620D01*
X9759579Y2311696D01*
X9759856Y2310864D01*
X9760226Y2310124D01*
X9760503Y2309569D01*
X9760688Y2309199D01*
X9760781Y2309107D01*
X9761428Y2308182D01*
X9762260Y2307350D01*
X9763092Y2306703D01*
X9763924Y2306148D01*
X9764664Y2305778D01*
X9765218Y2305501D01*
X9765588Y2305316D01*
X9765773Y2305224D01*
X9767068Y2304854D01*
X9768547Y2304577D01*
X9770026Y2304392D01*
X9771505Y2304299D01*
X9772800Y2304207D01*
X9773909Y2304114D01*
X9792955D01*
Y2325287D01*
D02*
G37*
G36*
X9793186Y1775287D02*
X9773031D01*
X9770535Y1775194D01*
X9768408Y1774824D01*
X9766559Y1774362D01*
X9765172Y1773807D01*
X9763970Y1773253D01*
X9763231Y1772790D01*
X9762768Y1772421D01*
X9762583Y1772328D01*
X9761474Y1771126D01*
X9760642Y1769924D01*
X9760087Y1768630D01*
X9759625Y1767520D01*
X9759440Y1766411D01*
X9759348Y1765579D01*
X9759255Y1765024D01*
Y1764932D01*
Y1764839D01*
X9759348Y1763730D01*
X9759532Y1762620D01*
X9759810Y1761696D01*
X9760087Y1760864D01*
X9760457Y1760124D01*
X9760734Y1759569D01*
X9760919Y1759199D01*
X9761012Y1759107D01*
X9761659Y1758182D01*
X9762491Y1757350D01*
X9763323Y1756703D01*
X9764155Y1756148D01*
X9764895Y1755779D01*
X9765450Y1755501D01*
X9765819Y1755316D01*
X9766004Y1755224D01*
X9767299Y1754854D01*
X9768778Y1754577D01*
X9770257Y1754392D01*
X9771737Y1754299D01*
X9773031Y1754207D01*
X9774140Y1754114D01*
X9793186D01*
Y1775287D01*
D02*
G37*
G36*
X2241934Y3448820D02*
X2221779D01*
X2219282Y3448728D01*
X2217156Y3448358D01*
X2215307Y3447896D01*
X2213920Y3447341D01*
X2212718Y3446786D01*
X2211978Y3446324D01*
X2211516Y3445954D01*
X2211331Y3445862D01*
X2210222Y3444660D01*
X2209390Y3443458D01*
X2208835Y3442164D01*
X2208373Y3441054D01*
X2208188Y3439945D01*
X2208095Y3439113D01*
X2208003Y3438558D01*
Y3438465D01*
Y3438373D01*
X2208095Y3437263D01*
X2208280Y3436154D01*
X2208557Y3435229D01*
X2208835Y3434397D01*
X2209205Y3433658D01*
X2209482Y3433103D01*
X2209667Y3432733D01*
X2209759Y3432641D01*
X2210407Y3431716D01*
X2211239Y3430884D01*
X2212071Y3430237D01*
X2212903Y3429682D01*
X2213643Y3429312D01*
X2214197Y3429035D01*
X2214567Y3428850D01*
X2214752Y3428757D01*
X2216046Y3428388D01*
X2217526Y3428110D01*
X2219005Y3427925D01*
X2220484Y3427833D01*
X2221779Y3427740D01*
X2222888Y3427648D01*
X2241934D01*
Y3448820D01*
D02*
G37*
G36*
X2114345Y3443181D02*
Y3414519D01*
X2134500D01*
X2114345Y3443181D01*
D02*
G37*
G36*
X1843154Y3451360D02*
X1822999D01*
X1820502Y3451268D01*
X1818376Y3450898D01*
X1816527Y3450436D01*
X1815140Y3449881D01*
X1813938Y3449326D01*
X1813198Y3448864D01*
X1812736Y3448494D01*
X1812551Y3448402D01*
X1811442Y3447200D01*
X1810610Y3445998D01*
X1810055Y3444704D01*
X1809593Y3443594D01*
X1809408Y3442485D01*
X1809315Y3441653D01*
X1809223Y3441098D01*
Y3441005D01*
Y3440913D01*
X1809315Y3439803D01*
X1809500Y3438694D01*
X1809777Y3437769D01*
X1810055Y3436937D01*
X1810425Y3436198D01*
X1810702Y3435643D01*
X1810887Y3435273D01*
X1810979Y3435181D01*
X1811627Y3434256D01*
X1812459Y3433424D01*
X1813291Y3432777D01*
X1814123Y3432222D01*
X1814863Y3431852D01*
X1815417Y3431575D01*
X1815787Y3431390D01*
X1815972Y3431297D01*
X1817266Y3430928D01*
X1818746Y3430650D01*
X1820225Y3430465D01*
X1821704Y3430373D01*
X1822999Y3430280D01*
X1824108Y3430188D01*
X1843154D01*
Y3451360D01*
D02*
G37*
G36*
X2043814Y3448820D02*
X2023659D01*
X2021162Y3448728D01*
X2019036Y3448358D01*
X2017187Y3447896D01*
X2015800Y3447341D01*
X2014598Y3446786D01*
X2013858Y3446324D01*
X2013396Y3445954D01*
X2013211Y3445862D01*
X2012102Y3444660D01*
X2011270Y3443458D01*
X2010715Y3442164D01*
X2010253Y3441054D01*
X2010068Y3439945D01*
X2009975Y3439113D01*
X2009883Y3438558D01*
Y3438465D01*
Y3438373D01*
X2009975Y3437263D01*
X2010160Y3436154D01*
X2010437Y3435229D01*
X2010715Y3434397D01*
X2011085Y3433658D01*
X2011362Y3433103D01*
X2011547Y3432733D01*
X2011639Y3432641D01*
X2012287Y3431716D01*
X2013119Y3430884D01*
X2013951Y3430237D01*
X2014783Y3429682D01*
X2015523Y3429312D01*
X2016077Y3429035D01*
X2016447Y3428850D01*
X2016632Y3428757D01*
X2017926Y3428388D01*
X2019406Y3428110D01*
X2020885Y3427925D01*
X2022364Y3427833D01*
X2023659Y3427740D01*
X2024768Y3427648D01*
X2043814D01*
Y3448820D01*
D02*
G37*
G36*
X2517329Y3426538D02*
X2516774D01*
X2514833Y3426354D01*
X2513076Y3425891D01*
X2511597Y3425337D01*
X2510302Y3424597D01*
X2509285Y3423857D01*
X2508546Y3423303D01*
X2508083Y3422840D01*
X2507898Y3422655D01*
X2506697Y3421084D01*
X2505772Y3419419D01*
X2505125Y3417663D01*
X2504755Y3415999D01*
X2504478Y3414519D01*
X2504385Y3413872D01*
Y3413317D01*
X2504293Y3412855D01*
Y3412485D01*
Y3412300D01*
Y3412208D01*
X2504478Y3409711D01*
X2504847Y3407585D01*
X2505402Y3405736D01*
X2506049Y3404164D01*
X2506789Y3402962D01*
X2507344Y3402038D01*
X2507714Y3401483D01*
X2507898Y3401390D01*
Y3401298D01*
X2508546Y3400558D01*
X2509285Y3400004D01*
X2510765Y3398987D01*
X2512244Y3398339D01*
X2513538Y3397785D01*
X2514740Y3397507D01*
X2515665Y3397415D01*
X2516035Y3397322D01*
X2516497D01*
X2517791Y3397415D01*
X2518993Y3397600D01*
X2520103Y3397970D01*
X2521027Y3398339D01*
X2521859Y3398617D01*
X2522507Y3398987D01*
X2522876Y3399172D01*
X2523061Y3399264D01*
X2524171Y3400096D01*
X2525095Y3400928D01*
X2525927Y3401945D01*
X2526575Y3402777D01*
X2527129Y3403609D01*
X2527499Y3404257D01*
X2527777Y3404719D01*
X2527869Y3404904D01*
X2528424Y3406291D01*
X2528794Y3407677D01*
X2529163Y3408972D01*
X2529348Y3410174D01*
X2529441Y3411191D01*
X2529533Y3412023D01*
Y3412485D01*
Y3412670D01*
X2529348Y3414889D01*
X2528978Y3416831D01*
X2528331Y3418587D01*
X2527684Y3419974D01*
X2527037Y3421176D01*
X2526390Y3422008D01*
X2526020Y3422470D01*
X2525835Y3422655D01*
X2524356Y3423950D01*
X2522876Y3424874D01*
X2521305Y3425614D01*
X2519918Y3426076D01*
X2518623Y3426354D01*
X2517699Y3426446D01*
X2517329Y3426538D01*
D02*
G37*
G36*
X1019376Y3449745D02*
X1018821D01*
X1017804Y3449652D01*
X1016787Y3449560D01*
X1015863Y3449283D01*
X1015031Y3448913D01*
X1013459Y3448081D01*
X1012072Y3447156D01*
X1011055Y3446139D01*
X1010223Y3445307D01*
X1009946Y3444937D01*
X1009761Y3444660D01*
X1009576Y3444567D01*
Y3444475D01*
X1008929Y3443365D01*
X1008374Y3442071D01*
X1007819Y3440592D01*
X1007449Y3439020D01*
X1007080Y3437356D01*
X1006802Y3435599D01*
X1006340Y3432086D01*
X1006155Y3430329D01*
X1006063Y3428757D01*
X1005970Y3427278D01*
Y3426076D01*
X1005878Y3424967D01*
Y3424135D01*
Y3423672D01*
Y3423580D01*
Y3423487D01*
Y3420621D01*
X1006063Y3418033D01*
X1006247Y3415721D01*
X1006432Y3413502D01*
X1006710Y3411653D01*
X1007080Y3409896D01*
X1007449Y3408417D01*
X1007727Y3407030D01*
X1008097Y3405921D01*
X1008466Y3404996D01*
X1008744Y3404164D01*
X1009114Y3403517D01*
X1009298Y3403055D01*
X1009483Y3402777D01*
X1009668Y3402592D01*
Y3402500D01*
X1010408Y3401575D01*
X1011148Y3400836D01*
X1011887Y3400096D01*
X1012627Y3399541D01*
X1014199Y3398617D01*
X1015585Y3397970D01*
X1016880Y3397600D01*
X1017804Y3397415D01*
X1018174Y3397322D01*
X1018729D01*
X1019746Y3397415D01*
X1020671Y3397507D01*
X1022427Y3398154D01*
X1023999Y3398987D01*
X1025386Y3399911D01*
X1026403Y3400836D01*
X1027235Y3401668D01*
X1027697Y3402315D01*
X1027882Y3402407D01*
Y3402500D01*
X1028529Y3403609D01*
X1029084Y3404904D01*
X1029639Y3406383D01*
X1030009Y3407955D01*
X1030378Y3409619D01*
X1030656Y3411376D01*
X1031118Y3414981D01*
X1031303Y3416646D01*
X1031395Y3418217D01*
X1031488Y3419697D01*
Y3420899D01*
X1031580Y3422008D01*
Y3422840D01*
Y3423303D01*
Y3423487D01*
X1031488Y3426354D01*
X1031395Y3428942D01*
X1031211Y3431346D01*
X1030933Y3433565D01*
X1030656Y3435507D01*
X1030286Y3437263D01*
X1029916Y3438835D01*
X1029546Y3440222D01*
X1029177Y3441424D01*
X1028899Y3442441D01*
X1028529Y3443273D01*
X1028252Y3444013D01*
X1027975Y3444475D01*
X1027790Y3444845D01*
X1027605Y3445030D01*
Y3445122D01*
X1026958Y3445954D01*
X1026310Y3446694D01*
X1025571Y3447249D01*
X1024831Y3447803D01*
X1023352Y3448635D01*
X1021965Y3449190D01*
X1020763Y3449468D01*
X1019746Y3449652D01*
X1019376Y3449745D01*
D02*
G37*
%LPD*%
D81*
X2110000Y3645000D02*
Y3655000D01*
X2240000Y3645000D02*
Y3655000D01*
X1910000Y3645000D02*
Y3655000D01*
X2040000Y3645000D02*
Y3655000D01*
X1710000Y3645000D02*
Y3655000D01*
X1840000Y3645000D02*
Y3655000D01*
X9720000Y1940000D02*
X9730000D01*
X9720000Y1810000D02*
X9730000D01*
X9720000Y2240000D02*
X9730000D01*
X9720000Y2110000D02*
X9730000D01*
%TF.MD5,977c4c9a2117e61510db04382125e65c*%
M02*
