%TF.GenerationSoftware,Altium Limited,Altium Designer,21.0.8 (223)*%
G04 Layer_Color=16711935*
%FSLAX45Y45*%
%MOMM*%
%TF.SameCoordinates,93EC2011-4169-4821-B187-25AADE7CFEA4*%
%TF.FilePolarity,Negative*%
%TF.FileFunction,Soldermask,Bot*%
%TF.Part,Single*%
G01*
G75*
%TA.AperFunction,SMDPad,CuDef*%
%ADD82R,1.70320X1.65320*%
%ADD83R,1.70320X1.40320*%
%ADD84R,1.40320X1.70320*%
%ADD85R,0.60320X2.70320*%
%TA.AperFunction,ComponentPad*%
%ADD86R,1.80320X1.80320*%
%ADD87C,1.80320*%
%ADD88C,1.25320*%
%TA.AperFunction,ViaPad*%
%ADD89C,3.20320*%
%TA.AperFunction,ComponentPad*%
%ADD90O,1.80320X1.20320*%
%ADD91O,2.30320X1.20320*%
%ADD92C,1.05320*%
%ADD93R,2.00320X2.00320*%
%ADD94C,2.00320*%
%ADD95O,22.20320X0.70320*%
%TA.AperFunction,ViaPad*%
%ADD96C,1.47320*%
%ADD97C,0.65320*%
D82*
X2575000Y3557500D02*
D03*
Y3742500D02*
D03*
X2375000Y3557500D02*
D03*
Y3742500D02*
D03*
X1275000Y3557500D02*
D03*
Y3742500D02*
D03*
X1075000D02*
D03*
Y3557500D02*
D03*
X875000Y3742500D02*
D03*
Y3557500D02*
D03*
X675000D02*
D03*
Y3742500D02*
D03*
D83*
X2175000Y3755000D02*
D03*
Y3545000D02*
D03*
X1975000Y3755000D02*
D03*
Y3545000D02*
D03*
X1775000Y3755000D02*
D03*
Y3545000D02*
D03*
D84*
X9830000Y1875000D02*
D03*
X9620000D02*
D03*
X9830000Y2175000D02*
D03*
X9620000D02*
D03*
D85*
X1479500Y2947600D02*
D03*
X2599500D02*
D03*
X2389500D02*
D03*
X1969500D02*
D03*
X1759500D02*
D03*
X2179500D02*
D03*
X1199500D02*
D03*
X1409500D02*
D03*
X989500D02*
D03*
X2529500D02*
D03*
X2459500D02*
D03*
X2319500D02*
D03*
X2249500D02*
D03*
X2039500D02*
D03*
X2109500D02*
D03*
X1899500D02*
D03*
X1829500D02*
D03*
X1619500D02*
D03*
X1689500D02*
D03*
X1549500D02*
D03*
X1269500D02*
D03*
X1339500D02*
D03*
X1129500D02*
D03*
X1059500D02*
D03*
X919500D02*
D03*
X569500D02*
D03*
X849500D02*
D03*
X639500D02*
D03*
X709500D02*
D03*
X779500D02*
D03*
D86*
X8748000Y4125000D02*
D03*
D87*
X9002000D02*
D03*
D88*
X9713500Y3756000D02*
D03*
X9586500D02*
D03*
X9713500Y3629000D02*
D03*
Y3502000D02*
D03*
X9586500Y3629000D02*
D03*
Y3502000D02*
D03*
X9713500Y3375000D02*
D03*
X9586500D02*
D03*
X9713500Y3248000D02*
D03*
Y3121000D02*
D03*
Y2994000D02*
D03*
X9586500Y3248000D02*
D03*
Y3121000D02*
D03*
Y2994000D02*
D03*
X8811260Y1463040D02*
D03*
X8684260D02*
D03*
X8811260Y1590040D02*
D03*
X8684260D02*
D03*
D89*
X250000Y250000D02*
D03*
X9750000D02*
D03*
Y4750000D02*
D03*
X250000D02*
D03*
D90*
X9782000Y1568000D02*
D03*
Y2432000D02*
D03*
D91*
X9364000D02*
D03*
Y1568000D02*
D03*
D92*
X9417000Y2289000D02*
D03*
Y1711000D02*
D03*
D93*
X8476000Y558800D02*
D03*
X1016000D02*
D03*
D94*
X8984000D02*
D03*
X1524000D02*
D03*
D95*
X1584500Y2197600D02*
D03*
D96*
X9750000Y1100000D02*
D03*
X9100000Y250000D02*
D03*
X9350000D02*
D03*
X9750000Y600000D02*
D03*
Y850000D02*
D03*
Y1350000D02*
D03*
Y2600000D02*
D03*
Y4150000D02*
D03*
Y4400000D02*
D03*
X1850000Y1100000D02*
D03*
Y1350000D02*
D03*
Y1600000D02*
D03*
Y1850000D02*
D03*
X1600000D02*
D03*
X1350000D02*
D03*
X1100000D02*
D03*
X850000D02*
D03*
X600000D02*
D03*
Y1600000D02*
D03*
Y1350000D02*
D03*
Y1100000D02*
D03*
Y850000D02*
D03*
Y600000D02*
D03*
Y250000D02*
D03*
X850000D02*
D03*
X1100000D02*
D03*
X1350000D02*
D03*
X1600000D02*
D03*
X1850000D02*
D03*
X8600000Y4750000D02*
D03*
X8850000D02*
D03*
X9100000D02*
D03*
X9350000D02*
D03*
X4600000D02*
D03*
X4850000D02*
D03*
X7600000D02*
D03*
X600000D02*
D03*
X850000D02*
D03*
X1100000D02*
D03*
X1350000D02*
D03*
X1600000D02*
D03*
X1850000D02*
D03*
X2100000D02*
D03*
X2350000D02*
D03*
X2600000D02*
D03*
X2850000D02*
D03*
X3100000D02*
D03*
X3350000D02*
D03*
X3600000D02*
D03*
X3850000D02*
D03*
X4100000D02*
D03*
X4350000D02*
D03*
X250000Y4350000D02*
D03*
Y4100000D02*
D03*
Y3850000D02*
D03*
Y3600000D02*
D03*
Y3350000D02*
D03*
Y3100000D02*
D03*
Y2850000D02*
D03*
Y2600000D02*
D03*
Y2350000D02*
D03*
Y2100000D02*
D03*
Y1850000D02*
D03*
Y1600000D02*
D03*
Y1350000D02*
D03*
Y1100000D02*
D03*
Y850000D02*
D03*
Y600000D02*
D03*
X4600000Y225000D02*
D03*
X4900000D02*
D03*
X5200000D02*
D03*
X5500000D02*
D03*
X5800000D02*
D03*
X6100000D02*
D03*
X6400000D02*
D03*
X6700000D02*
D03*
X7000000D02*
D03*
X7300000D02*
D03*
X7600000D02*
D03*
X7900000D02*
D03*
X8300000Y300000D02*
D03*
X8600000D02*
D03*
D97*
X5999480Y1000520D02*
D03*
X5725000Y1725000D02*
D03*
X1700000Y1425000D02*
D03*
X4424680Y2575560D02*
D03*
X5996940Y2620920D02*
D03*
X7475220Y2100580D02*
D03*
X5427980Y2654300D02*
D03*
X6489700Y2590800D02*
D03*
X6875671Y2548786D02*
D03*
X7802880Y2557780D02*
D03*
X6367780Y1229360D02*
D03*
X6494780D02*
D03*
X8125000Y1100000D02*
D03*
X4050539Y2498599D02*
D03*
X4050030Y2366010D02*
D03*
X3246120Y1978660D02*
D03*
X3205480Y1229360D02*
D03*
X4196080Y858520D02*
D03*
X3116183Y1318260D02*
D03*
X3162300Y1272540D02*
D03*
X5875000Y1767500D02*
D03*
X7235925Y2281830D02*
D03*
X7349505Y2311187D02*
D03*
X7442200Y2250440D02*
D03*
X6622140Y2458546D02*
D03*
X6580907Y2410227D02*
D03*
X1478280Y2781300D02*
D03*
X7508240Y2989580D02*
D03*
X7277100Y2801620D02*
D03*
X6733540Y1750060D02*
D03*
X2606040Y355600D02*
D03*
X6642100Y1600200D02*
D03*
X8582660Y1656080D02*
D03*
X6000000Y855000D02*
D03*
X3975000Y2575000D02*
D03*
X4200000D02*
D03*
X3750000D02*
D03*
X3525000D02*
D03*
X6494780Y2342913D02*
D03*
X8150000Y950000D02*
D03*
X6068060Y2001520D02*
D03*
X2341880Y353060D02*
D03*
X2410460Y449580D02*
D03*
X2255000Y472960D02*
D03*
X4018280Y1427480D02*
D03*
X3683450Y1425200D02*
D03*
X7251700Y3129280D02*
D03*
X7868920Y3268980D02*
D03*
X7729220Y3182620D02*
D03*
X8371840Y3129280D02*
D03*
Y3314700D02*
D03*
X7929880Y3522980D02*
D03*
X7866380D02*
D03*
X5173980Y1338580D02*
D03*
X5311140D02*
D03*
X5036820D02*
D03*
X5448300D02*
D03*
X4899660D02*
D03*
X9730740Y2174240D02*
D03*
Y1871980D02*
D03*
X8862060Y2075180D02*
D03*
X8846820Y1684020D02*
D03*
X8547100Y1798320D02*
D03*
Y2352040D02*
D03*
X7645400Y2585720D02*
D03*
X7454900D02*
D03*
X6791960Y2590800D02*
D03*
X6830060Y3012440D02*
D03*
X6578600Y3134360D02*
D03*
Y3317240D02*
D03*
X6126480Y3520440D02*
D03*
X6563360Y3522980D02*
D03*
X7025640Y3520440D02*
D03*
X6959600D02*
D03*
X7574280Y3632200D02*
D03*
X7477760Y3317240D02*
D03*
X7807960Y3954780D02*
D03*
Y4500880D02*
D03*
X6911340Y3952240D02*
D03*
Y4498340D02*
D03*
X6009640Y3952240D02*
D03*
Y4498340D02*
D03*
X1176250Y3557500D02*
D03*
X568960Y2786380D02*
D03*
X1059180D02*
D03*
X1201420D02*
D03*
X1343660D02*
D03*
X1409700D02*
D03*
X1620520D02*
D03*
X1689100D02*
D03*
X1968500D02*
D03*
X2039620D02*
D03*
X2110740D02*
D03*
X2600960D02*
D03*
X2529840D02*
D03*
X2250440D02*
D03*
X2179320D02*
D03*
X1074420Y3855720D02*
D03*
X1275080D02*
D03*
X2372360D02*
D03*
X2575560D02*
D03*
X2174240Y3652520D02*
D03*
X7917180Y2164080D02*
D03*
X7919720Y1582420D02*
D03*
Y1874520D02*
D03*
X7487920Y998220D02*
D03*
X7117080Y840740D02*
D03*
X6982460Y843280D02*
D03*
X6870700Y1099820D02*
D03*
X6211240Y2702600D02*
D03*
X5930900Y3014980D02*
D03*
X5679440Y3136900D02*
D03*
X5778500Y3251200D02*
D03*
X6062980Y3520440D02*
D03*
X5661660Y3515360D02*
D03*
X5679440Y3314700D02*
D03*
X5311140Y3632200D02*
D03*
X5171440Y3426460D02*
D03*
X5110480Y4498340D02*
D03*
Y3952240D02*
D03*
X2176780Y1450340D02*
D03*
X4018280Y1767840D02*
D03*
X3830320Y1877060D02*
D03*
X5161280Y2184400D02*
D03*
X6075680Y1676400D02*
D03*
X4853940Y2326640D02*
D03*
X8956040Y2352040D02*
D03*
X9514840Y2174240D02*
D03*
Y1871980D02*
D03*
X2583180Y152400D02*
D03*
X6469380Y1097280D02*
D03*
X6969760Y1099820D02*
D03*
X7782560D02*
D03*
X7729220Y548640D02*
D03*
X7106920Y660400D02*
D03*
X6990080D02*
D03*
X6248400Y751840D02*
D03*
X6002020Y749300D02*
D03*
X7475220Y2199640D02*
D03*
X7376160Y1430020D02*
D03*
X6725920D02*
D03*
X6273800Y1480820D02*
D03*
X6724650Y2313940D02*
D03*
X1798320Y2677160D02*
D03*
X1913890Y2622867D02*
D03*
X6676390Y2559050D02*
D03*
X6362700Y1948180D02*
D03*
X6982460Y2692400D02*
D03*
X1976120Y3652520D02*
D03*
X1775460D02*
D03*
X5768340Y1372540D02*
D03*
X5925820Y2308860D02*
D03*
X5763260Y1582420D02*
D03*
X6385560Y2400300D02*
D03*
X4117340Y2049780D02*
D03*
X4119880Y1424940D02*
D03*
X3992880Y988060D02*
D03*
X3975100Y1620520D02*
D03*
X3416300Y1874520D02*
D03*
X3403600Y1577340D02*
D03*
X3388360Y1315720D02*
D03*
X3048000Y1107440D02*
D03*
X2821940D02*
D03*
X2115820Y1125220D02*
D03*
X6903720Y3266440D02*
D03*
X6159500Y3197860D02*
D03*
X7523480Y2402840D02*
D03*
X5905500Y3200400D02*
D03*
X9403440Y2024380D02*
D03*
X9405620Y1925320D02*
D03*
%TF.MD5,6f4da72afa040907cd9b0a9c7a2fa630*%
M02*
