%TF.GenerationSoftware,Altium Limited,Altium Designer,21.0.8 (223)*%
G04 Layer_Color=16711935*
%FSLAX45Y45*%
%MOMM*%
%TF.SameCoordinates,E6859DB6-3A4E-404A-A1E8-5F06C1255FAD*%
%TF.FilePolarity,Positive*%
%TF.FileFunction,Other,Mechanical_1*%
%TF.Part,Single*%
G01*
G75*
%TA.AperFunction,NonConductor*%
%ADD148C,0.10000*%
%ADD149C,0.06000*%
%ADD150C,0.05000*%
D148*
X4289700Y1015420D02*
Y1065404D01*
X4279703Y1075400D01*
X4259710D01*
X4249713Y1065404D01*
Y1015420D01*
X4229720Y1065404D02*
X4219723Y1075400D01*
X4199729D01*
X4189733Y1065404D01*
Y1025417D01*
X4199729Y1015420D01*
X4219723D01*
X4229720Y1025417D01*
Y1035413D01*
X4219723Y1045410D01*
X4189733D01*
D149*
X7979587Y3286000D02*
X7946265D01*
X7939600Y3279335D01*
Y3266006D01*
X7946265Y3259342D01*
X7979587D01*
X7972923Y3246013D02*
X7979587Y3239348D01*
Y3226019D01*
X7972923Y3219355D01*
X7966258D01*
X7959594Y3226019D01*
Y3232684D01*
Y3226019D01*
X7952929Y3219355D01*
X7946265D01*
X7939600Y3226019D01*
Y3239348D01*
X7946265Y3246013D01*
X7079587Y3286000D02*
X7046265D01*
X7039600Y3279335D01*
Y3266006D01*
X7046265Y3259342D01*
X7079587D01*
Y3219355D02*
Y3246013D01*
X7059594D01*
X7066258Y3232684D01*
Y3226019D01*
X7059594Y3219355D01*
X7046265D01*
X7039600Y3226019D01*
Y3239348D01*
X7046265Y3246013D01*
X6179587Y3286000D02*
X6146265D01*
X6139600Y3279335D01*
Y3266006D01*
X6146265Y3259342D01*
X6179587D01*
Y3219355D02*
X6172923Y3232684D01*
X6159594Y3246013D01*
X6146265D01*
X6139600Y3239348D01*
Y3226019D01*
X6146265Y3219355D01*
X6152929D01*
X6159594Y3226019D01*
Y3246013D01*
X6461500Y777287D02*
Y743964D01*
X6468164Y737300D01*
X6481494D01*
X6488158Y743964D01*
Y777287D01*
X6501487Y737300D02*
X6514816D01*
X6508151D01*
Y777287D01*
X6501487Y770623D01*
X6561467Y737300D02*
X6534809D01*
X6561467Y763958D01*
Y770623D01*
X6554803Y777287D01*
X6541474D01*
X6534809Y770623D01*
X2311500Y1152287D02*
Y1118964D01*
X2318165Y1112300D01*
X2331494D01*
X2338158Y1118964D01*
Y1152287D01*
X2351487Y1112300D02*
X2364816D01*
X2358151D01*
Y1152287D01*
X2351487Y1145623D01*
X2384810D02*
X2391474Y1152287D01*
X2404803D01*
X2411468Y1145623D01*
Y1138958D01*
X2404803Y1132294D01*
X2398138D01*
X2404803D01*
X2411468Y1125629D01*
Y1118964D01*
X2404803Y1112300D01*
X2391474D01*
X2384810Y1118964D01*
X5279587Y3286000D02*
X5246265D01*
X5239600Y3279335D01*
Y3266006D01*
X5246265Y3259342D01*
X5279587D01*
X5272923Y3246013D02*
X5279587Y3239348D01*
Y3226019D01*
X5272923Y3219355D01*
X5266258D01*
X5259594Y3226019D01*
X5252929Y3219355D01*
X5246265D01*
X5239600Y3226019D01*
Y3239348D01*
X5246265Y3246013D01*
X5252929D01*
X5259594Y3239348D01*
X5266258Y3246013D01*
X5272923D01*
X5259594Y3239348D02*
Y3226019D01*
D150*
X7647710Y3171700D02*
X7672702D01*
X7677700Y3176698D01*
Y3186695D01*
X7672702Y3191693D01*
X7647710D01*
X7677700Y3221684D02*
Y3201690D01*
X7657707Y3221684D01*
X7652709D01*
X7647710Y3216685D01*
Y3206689D01*
X7652709Y3201690D01*
X6747710Y3171700D02*
X6772702D01*
X6777700Y3176698D01*
Y3186695D01*
X6772702Y3191693D01*
X6747710D01*
X6777700Y3216685D02*
X6747710D01*
X6762705Y3201690D01*
Y3221684D01*
X5882290Y3273300D02*
X5857299D01*
X5852300Y3268301D01*
Y3258305D01*
X5857299Y3253306D01*
X5882290D01*
Y3243309D02*
Y3223316D01*
X5877292D01*
X5857299Y3243309D01*
X5852300D01*
%TF.MD5,c967b830f6b3136918e441d37fc52e4e*%
M02*
