%TF.GenerationSoftware,Altium Limited,Altium Designer,21.1.1 (26)*%
G04 Layer_Color=8421504*
%FSLAX45Y45*%
%MOMM*%
%TF.SameCoordinates,E9E44C67-710E-4D47-B277-6F884E921ACF*%
%TF.FilePolarity,Positive*%
%TF.FileFunction,Paste,Top*%
%TF.Part,Single*%
G01*
G75*
%TA.AperFunction,SMDPad,CuDef*%
%ADD16R,0.52981X1.15564*%
G04:AMPARAMS|DCode=17|XSize=1.15564mm|YSize=0.52981mm|CornerRadius=0.2649mm|HoleSize=0mm|Usage=FLASHONLY|Rotation=90.000|XOffset=0mm|YOffset=0mm|HoleType=Round|Shape=RoundedRectangle|*
%AMROUNDEDRECTD17*
21,1,1.15564,0.00000,0,0,90.0*
21,1,0.62584,0.52981,0,0,90.0*
1,1,0.52980,0.00000,0.31292*
1,1,0.52980,0.00000,-0.31292*
1,1,0.52980,0.00000,-0.31292*
1,1,0.52980,0.00000,0.31292*
%
%ADD17ROUNDEDRECTD17*%
%ADD26R,0.70000X1.00000*%
%ADD31R,0.80000X0.90000*%
%ADD81R,1.35240X1.65240*%
%ADD83R,1.65240X1.60240*%
%ADD84R,1.65240X1.35240*%
%ADD109R,2.94240X0.89240*%
%ADD110R,1.15240X1.55240*%
%ADD111O,0.45240X1.95240*%
%ADD112O,1.95240X0.45240*%
G04:AMPARAMS|DCode=113|XSize=0.7024mm|YSize=0.9524mm|CornerRadius=0.1257mm|HoleSize=0mm|Usage=FLASHONLY|Rotation=0.000|XOffset=0mm|YOffset=0mm|HoleType=Round|Shape=RoundedRectangle|*
%AMROUNDEDRECTD113*
21,1,0.70240,0.70100,0,0,0.0*
21,1,0.45100,0.95240,0,0,0.0*
1,1,0.25140,0.22550,-0.35050*
1,1,0.25140,-0.22550,-0.35050*
1,1,0.25140,-0.22550,0.35050*
1,1,0.25140,0.22550,0.35050*
%
%ADD113ROUNDEDRECTD113*%
G04:AMPARAMS|DCode=114|XSize=0.7024mm|YSize=1.4024mm|CornerRadius=0.1257mm|HoleSize=0mm|Usage=FLASHONLY|Rotation=270.000|XOffset=0mm|YOffset=0mm|HoleType=Round|Shape=RoundedRectangle|*
%AMROUNDEDRECTD114*
21,1,0.70240,1.15100,0,0,270.0*
21,1,0.45100,1.40240,0,0,270.0*
1,1,0.25140,-0.57550,-0.22550*
1,1,0.25140,-0.57550,0.22550*
1,1,0.25140,0.57550,0.22550*
1,1,0.25140,0.57550,-0.22550*
%
%ADD114ROUNDEDRECTD114*%
%ADD115R,0.55240X0.80240*%
%ADD116R,1.20240X0.75240*%
%ADD117R,1.60240X1.65240*%
%TA.AperFunction,ConnectorPad*%
%ADD118R,1.60240X0.45240*%
%ADD119R,1.60240X0.75240*%
%TA.AperFunction,SMDPad,CuDef*%
G04:AMPARAMS|DCode=120|XSize=1.6524mm|YSize=5.1524mm|CornerRadius=0.4512mm|HoleSize=0mm|Usage=FLASHONLY|Rotation=180.000|XOffset=0mm|YOffset=0mm|HoleType=Round|Shape=RoundedRectangle|*
%AMROUNDEDRECTD120*
21,1,1.65240,4.25000,0,0,180.0*
21,1,0.75000,5.15240,0,0,180.0*
1,1,0.90240,-0.37500,2.12500*
1,1,0.90240,0.37500,2.12500*
1,1,0.90240,0.37500,-2.12500*
1,1,0.90240,-0.37500,-2.12500*
%
%ADD120ROUNDEDRECTD120*%
%ADD121R,1.50240X2.00240*%
%ADD122O,1.55240X0.40240*%
%ADD123R,1.15240X0.75240*%
%ADD124R,1.35240X1.55240*%
G04:AMPARAMS|DCode=125|XSize=0.6024mm|YSize=1.2024mm|CornerRadius=0.1257mm|HoleSize=0mm|Usage=FLASHONLY|Rotation=0.000|XOffset=0mm|YOffset=0mm|HoleType=Round|Shape=RoundedRectangle|*
%AMROUNDEDRECTD125*
21,1,0.60240,0.95100,0,0,0.0*
21,1,0.35100,1.20240,0,0,0.0*
1,1,0.25140,0.17550,-0.47550*
1,1,0.25140,-0.17550,-0.47550*
1,1,0.25140,-0.17550,0.47550*
1,1,0.25140,0.17550,0.47550*
%
%ADD125ROUNDEDRECTD125*%
%ADD126R,1.35240X1.25240*%
G04:AMPARAMS|DCode=127|XSize=1.4524mm|YSize=0.9124mm|CornerRadius=0.1712mm|HoleSize=0mm|Usage=FLASHONLY|Rotation=180.000|XOffset=0mm|YOffset=0mm|HoleType=Round|Shape=RoundedRectangle|*
%AMROUNDEDRECTD127*
21,1,1.45240,0.57000,0,0,180.0*
21,1,1.11000,0.91240,0,0,180.0*
1,1,0.34240,-0.55500,0.28500*
1,1,0.34240,0.55500,0.28500*
1,1,0.34240,0.55500,-0.28500*
1,1,0.34240,-0.55500,-0.28500*
%
%ADD127ROUNDEDRECTD127*%
%ADD128R,0.78240X0.98240*%
G04:AMPARAMS|DCode=129|XSize=1.4524mm|YSize=0.9124mm|CornerRadius=0.1712mm|HoleSize=0mm|Usage=FLASHONLY|Rotation=270.000|XOffset=0mm|YOffset=0mm|HoleType=Round|Shape=RoundedRectangle|*
%AMROUNDEDRECTD129*
21,1,1.45240,0.57000,0,0,270.0*
21,1,1.11000,0.91240,0,0,270.0*
1,1,0.34240,-0.28500,-0.55500*
1,1,0.34240,-0.28500,0.55500*
1,1,0.34240,0.28500,0.55500*
1,1,0.34240,0.28500,-0.55500*
%
%ADD129ROUNDEDRECTD129*%
G04:AMPARAMS|DCode=130|XSize=5.5524mm|YSize=2.3524mm|CornerRadius=0.6262mm|HoleSize=0mm|Usage=FLASHONLY|Rotation=0.000|XOffset=0mm|YOffset=0mm|HoleType=Round|Shape=RoundedRectangle|*
%AMROUNDEDRECTD130*
21,1,5.55240,1.10000,0,0,0.0*
21,1,4.30000,2.35240,0,0,0.0*
1,1,1.25240,2.15000,-0.55000*
1,1,1.25240,-2.15000,-0.55000*
1,1,1.25240,-2.15000,0.55000*
1,1,1.25240,2.15000,0.55000*
%
%ADD130ROUNDEDRECTD130*%
%ADD131R,2.31140X2.89540*%
D16*
X7430000Y667472D02*
D03*
D17*
X7525000D02*
D03*
X7620000D02*
D03*
Y882528D02*
D03*
X7430000D02*
D03*
D26*
X5534500Y4520100D02*
D03*
Y3920100D02*
D03*
X5164500Y4520100D02*
D03*
Y3920100D02*
D03*
X6434500Y4520100D02*
D03*
Y3920100D02*
D03*
X6064500Y4520100D02*
D03*
Y3920100D02*
D03*
X7334500Y4520100D02*
D03*
Y3920100D02*
D03*
X6964500Y4520100D02*
D03*
Y3920100D02*
D03*
X8234500Y4520100D02*
D03*
Y3920100D02*
D03*
X7864500Y4520100D02*
D03*
Y3920100D02*
D03*
D31*
X7975000Y1050000D02*
D03*
X8070000Y850000D02*
D03*
X7880000D02*
D03*
D81*
X5455000Y2200000D02*
D03*
X5245000D02*
D03*
X5320000Y3550000D02*
D03*
X5530000D02*
D03*
X9555000Y1125000D02*
D03*
X9345000D02*
D03*
X8230000Y3550000D02*
D03*
X8020000D02*
D03*
X7330000D02*
D03*
X7120000D02*
D03*
X6430000D02*
D03*
X6220000D02*
D03*
X6122280Y2755120D02*
D03*
X6332280D02*
D03*
X8745000Y2950000D02*
D03*
X8955000D02*
D03*
X8745000Y3225000D02*
D03*
X8955000D02*
D03*
X8745000Y3500000D02*
D03*
X8955000D02*
D03*
X8745000Y3775000D02*
D03*
X8955000D02*
D03*
X4430000Y2300000D02*
D03*
X4220000D02*
D03*
X4430000Y2025000D02*
D03*
X4220000D02*
D03*
Y1750000D02*
D03*
X4430000D02*
D03*
X3520000Y1575000D02*
D03*
X3730000D02*
D03*
D83*
X6500000Y3057500D02*
D03*
Y3242500D02*
D03*
X7450000Y3057500D02*
D03*
Y3242500D02*
D03*
X8425000Y3082500D02*
D03*
Y3267500D02*
D03*
X3417339Y1131780D02*
D03*
Y1316780D02*
D03*
X5550000Y3267500D02*
D03*
Y3082500D02*
D03*
X7875000Y1792500D02*
D03*
Y1607500D02*
D03*
Y2057500D02*
D03*
Y2242500D02*
D03*
X5800000D02*
D03*
Y2057500D02*
D03*
X5675000Y1792500D02*
D03*
Y1607500D02*
D03*
X6950000Y842500D02*
D03*
Y657500D02*
D03*
X7225000D02*
D03*
Y842500D02*
D03*
X6675000D02*
D03*
Y657500D02*
D03*
X5450000Y1217500D02*
D03*
Y1032500D02*
D03*
X5175000Y1217500D02*
D03*
Y1032500D02*
D03*
X4900000Y1217500D02*
D03*
Y1032500D02*
D03*
X3675000Y1317500D02*
D03*
Y1132500D02*
D03*
X3025000Y1017500D02*
D03*
Y832500D02*
D03*
X2800000Y1017500D02*
D03*
Y832500D02*
D03*
D84*
X5175000Y1805000D02*
D03*
Y1595000D02*
D03*
X5425000Y1805000D02*
D03*
Y1595000D02*
D03*
X4625000Y1230000D02*
D03*
Y1020000D02*
D03*
X5950000Y1595000D02*
D03*
Y1805000D02*
D03*
X6225000Y1595000D02*
D03*
Y1805000D02*
D03*
X7875000Y445000D02*
D03*
Y655000D02*
D03*
X5875000Y855000D02*
D03*
Y645000D02*
D03*
X5600000D02*
D03*
Y855000D02*
D03*
X4900000Y1805000D02*
D03*
Y1595000D02*
D03*
D109*
X9753500Y3019000D02*
D03*
X9346500D02*
D03*
X9753500Y3273000D02*
D03*
X9346500D02*
D03*
X9753500Y3146000D02*
D03*
X9346500D02*
D03*
X9753500Y3527000D02*
D03*
X9346500D02*
D03*
X9753500Y3400000D02*
D03*
X9346500D02*
D03*
X9753500Y3781000D02*
D03*
X9346500D02*
D03*
X9753500Y3654000D02*
D03*
X9346500D02*
D03*
D110*
X5045000Y2235000D02*
D03*
X4950000Y2015000D02*
D03*
X4855000Y2235000D02*
D03*
D111*
X6675000Y2480000D02*
D03*
X6725000D02*
D03*
X6825000D02*
D03*
X6875000D02*
D03*
X6925000D02*
D03*
X6975000D02*
D03*
X7025000D02*
D03*
X7075000D02*
D03*
X7125000D02*
D03*
X7175000D02*
D03*
X7225000D02*
D03*
X7275000D02*
D03*
X7325000D02*
D03*
X7375000D02*
D03*
X7425000D02*
D03*
Y1370000D02*
D03*
X7375000D02*
D03*
X7325000D02*
D03*
X6775000D02*
D03*
X6725000D02*
D03*
X6675000D02*
D03*
X7075000D02*
D03*
X7025000D02*
D03*
X7275000D02*
D03*
X6775000Y2480000D02*
D03*
X7225000Y1370000D02*
D03*
X7175000D02*
D03*
X7125000D02*
D03*
X6975000D02*
D03*
X6925000D02*
D03*
X6875000D02*
D03*
X6825000D02*
D03*
D112*
X7605000Y2300000D02*
D03*
Y2250000D02*
D03*
Y2200000D02*
D03*
X6495000Y1550000D02*
D03*
Y1600000D02*
D03*
Y1650000D02*
D03*
Y1700000D02*
D03*
Y1750000D02*
D03*
Y1800000D02*
D03*
Y1900000D02*
D03*
Y2000000D02*
D03*
Y2050000D02*
D03*
Y2100000D02*
D03*
Y2300000D02*
D03*
Y2150000D02*
D03*
Y2200000D02*
D03*
Y2250000D02*
D03*
X7605000Y1900000D02*
D03*
Y1850000D02*
D03*
Y1800000D02*
D03*
Y1750000D02*
D03*
X6495000Y1850000D02*
D03*
Y1950000D02*
D03*
X7605000Y1700000D02*
D03*
Y1650000D02*
D03*
Y1600000D02*
D03*
Y1550000D02*
D03*
Y2150000D02*
D03*
Y2100000D02*
D03*
Y2050000D02*
D03*
Y2000000D02*
D03*
Y1950000D02*
D03*
D113*
X5320000Y3047500D02*
D03*
X5130000Y3302500D02*
D03*
X5225000D02*
D03*
X5320000D02*
D03*
X5130000Y3047500D02*
D03*
X8170000D02*
D03*
X7980000D02*
D03*
Y3302500D02*
D03*
X8075000D02*
D03*
X8170000D02*
D03*
X7220000Y3047500D02*
D03*
X7030000D02*
D03*
Y3302500D02*
D03*
X7125000D02*
D03*
X7220000D02*
D03*
X6270000Y3047500D02*
D03*
X6080000D02*
D03*
Y3302500D02*
D03*
X6175000D02*
D03*
X6270000D02*
D03*
D114*
X4412500Y859500D02*
D03*
Y986500D02*
D03*
Y1113500D02*
D03*
Y1240500D02*
D03*
X3887500Y859500D02*
D03*
Y986500D02*
D03*
Y1113500D02*
D03*
Y1240500D02*
D03*
D115*
X4040000Y1695000D02*
D03*
X3975000D02*
D03*
X3910000D02*
D03*
Y1505000D02*
D03*
X3975000D02*
D03*
X4040000D02*
D03*
D116*
X2137501Y1220001D02*
D03*
Y1125001D02*
D03*
Y1030001D02*
D03*
X2412501D02*
D03*
Y1220001D02*
D03*
X6412500Y845000D02*
D03*
Y655000D02*
D03*
X6137500D02*
D03*
Y750000D02*
D03*
Y845000D02*
D03*
D117*
X2367501Y1450001D02*
D03*
X2182502D02*
D03*
X7582500Y3550000D02*
D03*
X7767500D02*
D03*
X6682500D02*
D03*
X6867500D02*
D03*
X5782500D02*
D03*
X5967500D02*
D03*
X7457500Y2750000D02*
D03*
X7642500D02*
D03*
X7267500D02*
D03*
X7082500D02*
D03*
X6792500D02*
D03*
X6607500D02*
D03*
X6217500Y2500000D02*
D03*
X6032500D02*
D03*
X5832500Y1350000D02*
D03*
X6017500D02*
D03*
X8657500Y2400000D02*
D03*
X8842500D02*
D03*
Y1750000D02*
D03*
X8657500D02*
D03*
X7592500Y1100000D02*
D03*
X7407500D02*
D03*
X7142500D02*
D03*
X6957500D02*
D03*
X6507500D02*
D03*
X6692500D02*
D03*
X4232500Y1475000D02*
D03*
X4417500D02*
D03*
X4242500Y650000D02*
D03*
X4057500D02*
D03*
X3532500Y1875000D02*
D03*
X3717500D02*
D03*
X2367501Y150001D02*
D03*
X2182502D02*
D03*
D118*
X9272500Y1975000D02*
D03*
Y2025000D02*
D03*
Y2175000D02*
D03*
Y2125000D02*
D03*
Y2075000D02*
D03*
Y1825000D02*
D03*
Y1875000D02*
D03*
Y1925000D02*
D03*
D119*
Y2325000D02*
D03*
Y2245000D02*
D03*
Y1675000D02*
D03*
Y1755000D02*
D03*
D120*
X3325000Y725000D02*
D03*
X3675001D02*
D03*
D121*
X2122501Y800001D02*
D03*
X2427501D02*
D03*
D122*
X8530000Y2175000D02*
D03*
Y2125000D02*
D03*
Y2075000D02*
D03*
Y2025000D02*
D03*
Y1975000D02*
D03*
X8970000Y2175000D02*
D03*
Y2125000D02*
D03*
Y2075000D02*
D03*
Y2025000D02*
D03*
Y1975000D02*
D03*
D123*
X2155002Y355001D02*
D03*
Y545001D02*
D03*
X2395002D02*
D03*
Y450001D02*
D03*
Y355001D02*
D03*
D124*
X6045000Y2260000D02*
D03*
Y2040000D02*
D03*
X6205000Y2260000D02*
D03*
Y2040000D02*
D03*
D125*
X5890000Y3297500D02*
D03*
X5825000D02*
D03*
X5760000D02*
D03*
Y3052500D02*
D03*
X5890000D02*
D03*
X7660000Y3297500D02*
D03*
X7790000D02*
D03*
Y3052500D02*
D03*
X7725000D02*
D03*
X7660000D02*
D03*
X6710000Y3297500D02*
D03*
X6840000D02*
D03*
Y3052500D02*
D03*
X6775000D02*
D03*
X6710000D02*
D03*
D126*
X4425000Y3145000D02*
D03*
Y3355000D02*
D03*
X4200000Y3355000D02*
D03*
Y3145000D02*
D03*
X3975000Y3355000D02*
D03*
Y3145000D02*
D03*
X3749976Y3354999D02*
D03*
Y3144999D02*
D03*
X3525000Y3355000D02*
D03*
Y3145000D02*
D03*
D127*
X4425000Y2914000D02*
D03*
Y2735000D02*
D03*
X3975000D02*
D03*
Y2914000D02*
D03*
X4200000Y2735000D02*
D03*
Y2914000D02*
D03*
X3750000Y2735000D02*
D03*
Y2914000D02*
D03*
X3525000Y2735000D02*
D03*
Y2914000D02*
D03*
D128*
X6036500Y1075000D02*
D03*
X5813500D02*
D03*
X9213500Y1350000D02*
D03*
X9436500D02*
D03*
D129*
X7961000Y1300000D02*
D03*
X8140000D02*
D03*
X7843420Y2755100D02*
D03*
X8022420D02*
D03*
D130*
X2900000Y155000D02*
D03*
Y595000D02*
D03*
D131*
X8479000Y1400000D02*
D03*
X8921000D02*
D03*
X3821000Y225000D02*
D03*
X3379000D02*
D03*
X1054000Y1425000D02*
D03*
X1496000D02*
D03*
%TF.MD5,1a3b734ef8f4c32c43dbd38a05fe6448*%
M02*
