%TF.GenerationSoftware,Altium Limited,Altium Designer,21.0.9 (235)*%
G04 Layer_Color=128*
%FSLAX45Y45*%
%MOMM*%
%TF.SameCoordinates,22D8F9FD-25AF-47CB-AFD4-ABA5F5DCC75B*%
%TF.FilePolarity,Positive*%
%TF.FileFunction,Drillmap*%
%TF.Part,Single*%
G01*
G75*
%TA.AperFunction,NonConductor*%
%ADD167C,0.12700*%
D167*
X9328500Y4125000D02*
X9398500D01*
X9363500Y4090000D02*
Y4160000D01*
X9201500Y4125000D02*
X9271500D01*
X9236500Y4090000D02*
Y4160000D01*
X8411000Y558800D02*
X8541000D01*
X8476000Y493800D02*
Y623800D01*
X9678500Y3756000D02*
X9748500D01*
X9713500Y3721000D02*
Y3791000D01*
X9551500Y3756000D02*
X9621500D01*
X9586500Y3721000D02*
Y3791000D01*
X9678500Y3629000D02*
X9748500D01*
X9713500Y3594000D02*
Y3664000D01*
X9678500Y3502000D02*
X9748500D01*
X9713500Y3467000D02*
Y3537000D01*
X9551500Y3629000D02*
X9621500D01*
X9586500Y3594000D02*
Y3664000D01*
X9551500Y3502000D02*
X9621500D01*
X9586500Y3467000D02*
Y3537000D01*
X9678500Y3375000D02*
X9748500D01*
X9713500Y3340000D02*
Y3410000D01*
X9551500Y3375000D02*
X9621500D01*
X9586500Y3340000D02*
Y3410000D01*
X9678500Y3248000D02*
X9748500D01*
X9713500Y3213000D02*
Y3283000D01*
X9678500Y3121000D02*
X9748500D01*
X9713500Y3086000D02*
Y3156000D01*
X9678500Y2994000D02*
X9748500D01*
X9713500Y2959000D02*
Y3029000D01*
X9551500Y3248000D02*
X9621500D01*
X9586500Y3213000D02*
Y3283000D01*
X9551500Y3121000D02*
X9621500D01*
X9586500Y3086000D02*
Y3156000D01*
X9551500Y2994000D02*
X9621500D01*
X9586500Y2959000D02*
Y3029000D01*
X8778500Y1386500D02*
X8848500D01*
X8813500Y1351500D02*
Y1421500D01*
X8651500Y1386500D02*
X8721500D01*
X8686500Y1351500D02*
Y1421500D01*
X8778500Y1513500D02*
X8848500D01*
X8813500Y1478500D02*
Y1548500D01*
X8651500Y1513500D02*
X8721500D01*
X8686500Y1478500D02*
Y1548500D01*
X140000Y250000D02*
X360000D01*
X250000Y140000D02*
Y360000D01*
X9640000Y250000D02*
X9860000D01*
X9750000Y140000D02*
Y360000D01*
X9640000Y4750000D02*
X9860000D01*
X9750000Y4640000D02*
Y4860000D01*
X140000Y4750000D02*
X360000D01*
X250000Y4640000D02*
Y4860000D01*
X9752000Y1568000D02*
X9812000D01*
X9782000Y1538000D02*
Y1598000D01*
X9334000Y2432000D02*
X9394000D01*
X9364000Y2402000D02*
Y2462000D01*
X9334000Y1568000D02*
X9394000D01*
X9364000Y1538000D02*
Y1598000D01*
X9752000Y2432000D02*
X9812000D01*
X9782000Y2402000D02*
Y2462000D01*
X9384500Y2289000D02*
X9449500D01*
X9417000Y2256500D02*
Y2321500D01*
X9384500Y1711000D02*
X9449500D01*
X9417000Y1678500D02*
Y1743500D01*
X8919000Y558800D02*
X9049000D01*
X8984000Y493800D02*
Y623800D01*
X951000Y558800D02*
X1081000D01*
X1016000Y493800D02*
Y623800D01*
X1459000Y558800D02*
X1589000D01*
X1524000Y493800D02*
Y623800D01*
X1564500Y2197600D02*
X1604500D01*
X1584500Y2177600D02*
Y2217600D01*
X8517940Y3082500D02*
X8547940D01*
X8532940Y3067500D02*
Y3097500D01*
X7540840Y3057500D02*
X7570840D01*
X7555840Y3042500D02*
Y3072500D01*
X7188440Y3180080D02*
X7218440D01*
X7203440Y3165080D02*
Y3195080D01*
X6590880Y3057500D02*
X6620880D01*
X6605880Y3042500D02*
Y3072500D01*
X5642500Y3082500D02*
X5672500D01*
X5657500Y3067500D02*
Y3097500D01*
X8235000Y1300000D02*
X8265000D01*
X8250000Y1285000D02*
Y1315000D01*
X8564440Y225000D02*
X8635560D01*
X8600000Y189440D02*
Y260560D01*
X8264440Y225000D02*
X8335560D01*
X8300000Y189440D02*
Y260560D01*
X8170000Y450000D02*
X8200000D01*
X8185000Y435000D02*
Y465000D01*
X8320000Y450000D02*
X8350000D01*
X8335000Y435000D02*
Y465000D01*
X8170000Y375000D02*
X8200000D01*
X8185000Y360000D02*
Y390000D01*
X8320000Y375000D02*
X8350000D01*
X8335000Y360000D02*
Y390000D01*
X8470000Y375000D02*
X8500000D01*
X8485000Y360000D02*
Y390000D01*
X8620000Y375000D02*
X8650000D01*
X8635000Y360000D02*
Y390000D01*
X8770000Y450000D02*
X8800000D01*
X8785000Y435000D02*
Y465000D01*
X8620000Y450000D02*
X8650000D01*
X8635000Y435000D02*
Y465000D01*
X8770000Y375000D02*
X8800000D01*
X8785000Y360000D02*
Y390000D01*
X1310000Y375000D02*
X1340000D01*
X1325000Y360000D02*
Y390000D01*
X1160000Y450000D02*
X1190000D01*
X1175000Y435000D02*
Y465000D01*
X1235000Y450000D02*
X1265000D01*
X1250000Y435000D02*
Y465000D01*
X1310000Y450000D02*
X1340000D01*
X1325000Y435000D02*
Y465000D01*
X1235000Y375000D02*
X1265000D01*
X1250000Y360000D02*
Y390000D01*
X1160000Y375000D02*
X1190000D01*
X1175000Y360000D02*
Y390000D01*
X1085000Y375000D02*
X1115000D01*
X1100000Y360000D02*
Y390000D01*
X1010000Y375000D02*
X1040000D01*
X1025000Y360000D02*
Y390000D01*
X935000Y375000D02*
X965000D01*
X950000Y360000D02*
Y390000D01*
X860000Y375000D02*
X890000D01*
X875000Y360000D02*
Y390000D01*
X785000Y375000D02*
X815000D01*
X800000Y360000D02*
Y390000D01*
X710000Y375000D02*
X740000D01*
X725000Y360000D02*
Y390000D01*
X860000Y450000D02*
X890000D01*
X875000Y435000D02*
Y465000D01*
X785000Y450000D02*
X815000D01*
X800000Y435000D02*
Y465000D01*
X710000Y450000D02*
X740000D01*
X725000Y435000D02*
Y465000D01*
X2312500Y800000D02*
X2342500D01*
X2327500Y785000D02*
Y815000D01*
X2107500Y800000D02*
X2137500D01*
X2122500Y785000D02*
Y815000D01*
X7645000Y3380000D02*
X7675000D01*
X7660000Y3365000D02*
Y3395000D01*
X8527500Y2397500D02*
X8557500D01*
X8542500Y2382500D02*
Y2412500D01*
X8532500Y1750000D02*
X8562500D01*
X8547500Y1735000D02*
Y1765000D01*
X5875000Y2957500D02*
X5905000D01*
X5890000Y2942500D02*
Y2972500D01*
X5977500Y2755000D02*
X6007500D01*
X5992500Y2740000D02*
Y2770000D01*
X1210000Y3557500D02*
X1240000D01*
X1225000Y3542500D02*
Y3572500D01*
X1357500Y3420000D02*
X1387500D01*
X1372500Y3405000D02*
Y3435000D01*
X1910000Y3877500D02*
X1940000D01*
X1925000Y3862500D02*
Y3892500D01*
X1635000Y3875000D02*
X1665000D01*
X1650000Y3860000D02*
Y3890000D01*
X7048100Y546900D02*
X7078100D01*
X7063100Y531900D02*
Y561900D01*
X7542500Y560000D02*
X7572500D01*
X7557500Y545000D02*
Y575000D01*
X7344969Y1256446D02*
X7374969D01*
X7359969Y1241446D02*
Y1271446D01*
X6872500Y2747500D02*
X6902500D01*
X6887500Y2732500D02*
Y2762500D01*
X6724189Y2590458D02*
X6754189D01*
X6739189Y2575458D02*
Y2605458D01*
X6660000Y2601510D02*
X6690000D01*
X6675000Y2586510D02*
Y2616510D01*
X6125000Y2372500D02*
X6155000D01*
X6140000Y2357500D02*
Y2387500D01*
X5912500Y2000000D02*
X5942500D01*
X5927500Y1985000D02*
Y2015000D01*
X5545202Y1032500D02*
X5575202D01*
X5560202Y1017500D02*
Y1047500D01*
X6942502Y1210203D02*
X6972502D01*
X6957502Y1195203D02*
Y1225203D01*
X9590000Y1235202D02*
X9620000D01*
X9605000Y1220202D02*
Y1250202D01*
X8827502Y1860205D02*
X8857502D01*
X8842502Y1845205D02*
Y1875205D01*
X8827502Y2289800D02*
X8857502D01*
X8842502Y2274800D02*
Y2304800D01*
X8004999Y3439800D02*
X8034999D01*
X8019999Y3424800D02*
Y3454800D01*
X7752498Y3439800D02*
X7782498D01*
X7767498Y3424800D02*
Y3454800D01*
X7567499Y3439800D02*
X7597499D01*
X7582499Y3424800D02*
Y3454800D01*
X7105001Y3439800D02*
X7135001D01*
X7120001Y3424800D02*
Y3454800D01*
X6852500Y3439800D02*
X6882500D01*
X6867500Y3424800D02*
Y3454800D01*
X6667501Y3439800D02*
X6697501D01*
X6682501Y3424800D02*
Y3454800D01*
X6204998Y3439800D02*
X6234998D01*
X6219998Y3424800D02*
Y3454800D01*
X5952501Y3439800D02*
X5982501D01*
X5967501Y3424800D02*
Y3454800D01*
X5767498Y3439800D02*
X5797498D01*
X5782498Y3424800D02*
Y3454800D01*
X5305000Y3660201D02*
X5334999D01*
X5320000Y3645201D02*
Y3675201D01*
X5115002Y3227299D02*
X5145002D01*
X5130002Y3212299D02*
Y3242299D01*
X5424797Y3267502D02*
X5454797D01*
X5439797Y3252502D02*
Y3282502D01*
X6064998Y3227299D02*
X6094998D01*
X6079998Y3212299D02*
Y3242299D01*
X6374796Y3242502D02*
X6404796D01*
X6389796Y3227502D02*
Y3257502D01*
X6694999Y3209798D02*
X6724999D01*
X6709999Y3194798D02*
Y3224798D01*
X7324800Y3242502D02*
X7354800D01*
X7339800Y3227502D02*
Y3257502D01*
X7964999Y3227299D02*
X7994999D01*
X7979999Y3212299D02*
Y3242299D01*
X8299800Y3267502D02*
X8329799D01*
X8314799Y3252502D02*
Y3282502D01*
X8007422Y2654899D02*
X8037422D01*
X8022422Y2639899D02*
Y2669899D01*
X6712100Y1227500D02*
X6742100D01*
X6727100Y1212500D02*
Y1242500D01*
X6800000Y1100000D02*
X6830000D01*
X6815000Y1085000D02*
Y1115000D01*
X7287500Y1100000D02*
X7317500D01*
X7302500Y1085000D02*
Y1115000D01*
X6017297Y750001D02*
X6047297D01*
X6032297Y735001D02*
Y765001D01*
X5770201Y1607500D02*
X5800200D01*
X5785201Y1592500D02*
Y1622500D01*
X5895204Y2242500D02*
X5925204D01*
X5910204Y2227500D02*
Y2257500D01*
X7577502Y1210203D02*
X7607502D01*
X7592502Y1195203D02*
Y1225203D01*
X6492500Y1210203D02*
X6522500D01*
X6507500Y1195203D02*
Y1225203D01*
X7252499Y2860203D02*
X7282499D01*
X7267499Y2845203D02*
Y2875203D01*
X7067500Y2639797D02*
X7097500D01*
X7082500Y2624797D02*
Y2654797D01*
X7627499Y2639797D02*
X7657499D01*
X7642499Y2624797D02*
Y2654797D01*
X7442501Y2639797D02*
X7472501D01*
X7457501Y2624797D02*
Y2654797D01*
X5817500Y1460200D02*
X5847500D01*
X5832500Y1445200D02*
Y1475200D01*
X6770204Y842498D02*
X6800204D01*
X6785204Y827498D02*
Y857498D01*
X6549798Y657499D02*
X6579798D01*
X6564798Y642499D02*
Y672499D01*
X5824800Y1805000D02*
X5854800D01*
X5839800Y1790000D02*
Y1820000D01*
X6099796Y1594998D02*
X6129796D01*
X6114796Y1579998D02*
Y1609998D01*
X5695205Y645003D02*
X5725204D01*
X5710204Y630003D02*
Y660002D01*
X8022500Y1602500D02*
X8052500D01*
X8037500Y1587500D02*
Y1617500D01*
X8022500Y1792500D02*
X8052500D01*
X8037500Y1777500D02*
Y1807500D01*
X7742500Y2237500D02*
X7772500D01*
X7757500Y2222500D02*
Y2252500D01*
X8022500Y2057500D02*
X8052500D01*
X8037500Y2042500D02*
Y2072500D01*
X8022500Y2242500D02*
X8052500D01*
X8037500Y2227500D02*
Y2257500D01*
X3896600Y1600200D02*
X3926600D01*
X3911600Y1585200D02*
Y1615200D01*
X3849970Y2029460D02*
X3879970D01*
X3864970Y2014460D02*
Y2044460D01*
X1463280Y3258820D02*
X1493280D01*
X1478280Y3243820D02*
Y3273820D01*
X6858240Y2347870D02*
X6888240D01*
X6873240Y2332870D02*
Y2362870D01*
X5832080Y2500270D02*
X5862080D01*
X5847080Y2485270D02*
Y2515270D01*
X5875260Y2458720D02*
X5905260D01*
X5890260Y2443720D02*
Y2473720D01*
X6957300Y2346960D02*
X6987300D01*
X6972300Y2331960D02*
Y2361960D01*
X6273099Y1091259D02*
X6303099D01*
X6288099Y1076259D02*
Y1106259D01*
X6322300Y1216660D02*
X6352300D01*
X6337300Y1201660D02*
Y1231660D01*
X6639800Y1765300D02*
X6669800D01*
X6654800Y1750300D02*
Y1780300D01*
X6759180Y3131820D02*
X6789180D01*
X6774180Y3116820D02*
Y3146820D01*
X5804140Y3119120D02*
X5834140D01*
X5819140Y3104120D02*
Y3134120D01*
X6408660Y2374900D02*
X6438660D01*
X6423660Y2359900D02*
Y2389900D01*
X6535660Y2545080D02*
X6565660D01*
X6550660Y2530080D02*
Y2560080D01*
X6754100Y2639800D02*
X6784100D01*
X6769100Y2624800D02*
Y2654800D01*
X5506661Y2646320D02*
X5536661D01*
X5521661Y2631320D02*
Y2661320D01*
X7112240Y3106420D02*
X7142240D01*
X7127240Y3091420D02*
Y3121420D01*
X7709140Y3130910D02*
X7739140D01*
X7724140Y3115910D02*
Y3145910D01*
X6860780Y2616200D02*
X6890780D01*
X6875780Y2601200D02*
Y2631200D01*
X7610080Y2938780D02*
X7640080D01*
X7625080Y2923780D02*
Y2953780D01*
X7211300Y2628900D02*
X7241300D01*
X7226300Y2613900D02*
Y2643900D01*
X7391640Y2872740D02*
X7421640D01*
X7406640Y2857740D02*
Y2887740D01*
X7125723Y2046810D02*
X7155723D01*
X7140723Y2031811D02*
Y2061810D01*
X7109700Y2362200D02*
X7139700D01*
X7124700Y2347200D02*
Y2377200D01*
X7440398Y2149963D02*
X7470398D01*
X7455398Y2134963D02*
Y2164963D01*
X7107160Y2279460D02*
X7137160D01*
X7122160Y2264460D02*
Y2294460D01*
X7292580Y2237740D02*
X7322580D01*
X7307580Y2222740D02*
Y2252740D01*
X7173030Y2237910D02*
X7203030D01*
X7188030Y2222910D02*
Y2252910D01*
X6363310Y1899550D02*
X6393310D01*
X6378310Y1884550D02*
Y1914550D01*
X6268960Y1930400D02*
X6298960D01*
X6283960Y1915400D02*
Y1945400D01*
X6957300Y3180080D02*
X6987300D01*
X6972300Y3165080D02*
Y3195080D01*
X9715800Y1869440D02*
X9745800D01*
X9730800Y1854440D02*
Y1884440D01*
X9716948Y2124338D02*
X9746948D01*
X9731948Y2109338D02*
Y2139338D01*
X9499840Y2120900D02*
X9529840D01*
X9514840Y2105900D02*
Y2135900D01*
X8593060Y1592580D02*
X8623060D01*
X8608060Y1577580D02*
Y1607580D01*
X6340080Y1648460D02*
X6370080D01*
X6355080Y1633460D02*
Y1663460D01*
X5809220Y1701800D02*
X5839220D01*
X5824220Y1686800D02*
Y1716800D01*
X4158530Y1592270D02*
X4188530D01*
X4173530Y1577270D02*
Y1607270D01*
X7102080Y840740D02*
X7132080D01*
X7117080Y825740D02*
Y855740D01*
X7091920Y660400D02*
X7121920D01*
X7106920Y645400D02*
Y675400D01*
X3290699Y1315000D02*
X3320699D01*
X3305699Y1300000D02*
Y1330000D01*
X9714440Y1100000D02*
X9785560D01*
X9750000Y1064440D02*
Y1135560D01*
X9714440Y850000D02*
X9785560D01*
X9750000Y814440D02*
Y885560D01*
X9714440Y600000D02*
X9785560D01*
X9750000Y564440D02*
Y635560D01*
X9064440Y250000D02*
X9135560D01*
X9100000Y214440D02*
Y285560D01*
X9314440Y250000D02*
X9385560D01*
X9350000Y214440D02*
Y285560D01*
X9714440Y1350000D02*
X9785560D01*
X9750000Y1314440D02*
Y1385560D01*
X9714440Y2600000D02*
X9785560D01*
X9750000Y2564440D02*
Y2635560D01*
X9714440Y4150000D02*
X9785560D01*
X9750000Y4114440D02*
Y4185560D01*
X9714440Y4400000D02*
X9785560D01*
X9750000Y4364440D02*
Y4435560D01*
X1814440Y1100000D02*
X1885560D01*
X1850000Y1064440D02*
Y1135560D01*
X1814440Y1350000D02*
X1885560D01*
X1850000Y1314440D02*
Y1385560D01*
X1814440Y1600000D02*
X1885560D01*
X1850000Y1564440D02*
Y1635560D01*
X1814440Y1850000D02*
X1885560D01*
X1850000Y1814440D02*
Y1885560D01*
X1564440Y1850000D02*
X1635560D01*
X1600000Y1814440D02*
Y1885560D01*
X1314440Y1850000D02*
X1385560D01*
X1350000Y1814440D02*
Y1885560D01*
X1064440Y1850000D02*
X1135560D01*
X1100000Y1814440D02*
Y1885560D01*
X814440Y1850000D02*
X885560D01*
X850000Y1814440D02*
Y1885560D01*
X564440Y1850000D02*
X635560D01*
X600000Y1814440D02*
Y1885560D01*
X564440Y1600000D02*
X635560D01*
X600000Y1564440D02*
Y1635560D01*
X564440Y1350000D02*
X635560D01*
X600000Y1314440D02*
Y1385560D01*
X564440Y1100000D02*
X635560D01*
X600000Y1064440D02*
Y1135560D01*
X564440Y850000D02*
X635560D01*
X600000Y814440D02*
Y885560D01*
X564440Y600000D02*
X635560D01*
X600000Y564440D02*
Y635560D01*
X564440Y250000D02*
X635560D01*
X600000Y214440D02*
Y285560D01*
X814440Y250000D02*
X885560D01*
X850000Y214440D02*
Y285560D01*
X1064440Y250000D02*
X1135560D01*
X1100000Y214440D02*
Y285560D01*
X1314440Y250000D02*
X1385560D01*
X1350000Y214440D02*
Y285560D01*
X1564440Y250000D02*
X1635560D01*
X1600000Y214440D02*
Y285560D01*
X1814440Y250000D02*
X1885560D01*
X1850000Y214440D02*
Y285560D01*
X8564440Y4750000D02*
X8635560D01*
X8600000Y4714440D02*
Y4785560D01*
X8814440Y4750000D02*
X8885560D01*
X8850000Y4714440D02*
Y4785560D01*
X9064440Y4750000D02*
X9135560D01*
X9100000Y4714440D02*
Y4785560D01*
X9314440Y4750000D02*
X9385560D01*
X9350000Y4714440D02*
Y4785560D01*
X4564440Y4750000D02*
X4635560D01*
X4600000Y4714440D02*
Y4785560D01*
X4814440Y4750000D02*
X4885560D01*
X4850000Y4714440D02*
Y4785560D01*
X7564440Y4750000D02*
X7635560D01*
X7600000Y4714440D02*
Y4785560D01*
X564440Y4750000D02*
X635560D01*
X600000Y4714440D02*
Y4785560D01*
X814440Y4750000D02*
X885560D01*
X850000Y4714440D02*
Y4785560D01*
X1064440Y4750000D02*
X1135560D01*
X1100000Y4714440D02*
Y4785560D01*
X1314440Y4750000D02*
X1385560D01*
X1350000Y4714440D02*
Y4785560D01*
X1564440Y4750000D02*
X1635560D01*
X1600000Y4714440D02*
Y4785560D01*
X1814440Y4750000D02*
X1885560D01*
X1850000Y4714440D02*
Y4785560D01*
X2064440Y4750000D02*
X2135560D01*
X2100000Y4714440D02*
Y4785560D01*
X2314440Y4750000D02*
X2385560D01*
X2350000Y4714440D02*
Y4785560D01*
X2564440Y4750000D02*
X2635560D01*
X2600000Y4714440D02*
Y4785560D01*
X2814440Y4750000D02*
X2885560D01*
X2850000Y4714440D02*
Y4785560D01*
X3064440Y4750000D02*
X3135560D01*
X3100000Y4714440D02*
Y4785560D01*
X3314440Y4750000D02*
X3385560D01*
X3350000Y4714440D02*
Y4785560D01*
X3564440Y4750000D02*
X3635560D01*
X3600000Y4714440D02*
Y4785560D01*
X3814440Y4750000D02*
X3885560D01*
X3850000Y4714440D02*
Y4785560D01*
X4064440Y4750000D02*
X4135560D01*
X4100000Y4714440D02*
Y4785560D01*
X4314440Y4750000D02*
X4385560D01*
X4350000Y4714440D02*
Y4785560D01*
X214440Y4350000D02*
X285560D01*
X250000Y4314440D02*
Y4385560D01*
X214440Y4100000D02*
X285560D01*
X250000Y4064440D02*
Y4135560D01*
X214440Y3850000D02*
X285560D01*
X250000Y3814440D02*
Y3885560D01*
X214440Y3600000D02*
X285560D01*
X250000Y3564440D02*
Y3635560D01*
X214440Y3350000D02*
X285560D01*
X250000Y3314440D02*
Y3385560D01*
X214440Y3100000D02*
X285560D01*
X250000Y3064440D02*
Y3135560D01*
X214440Y2850000D02*
X285560D01*
X250000Y2814440D02*
Y2885560D01*
X214440Y2600000D02*
X285560D01*
X250000Y2564440D02*
Y2635560D01*
X214440Y2350000D02*
X285560D01*
X250000Y2314440D02*
Y2385560D01*
X214440Y2100000D02*
X285560D01*
X250000Y2064440D02*
Y2135560D01*
X214440Y1850000D02*
X285560D01*
X250000Y1814440D02*
Y1885560D01*
X214440Y1600000D02*
X285560D01*
X250000Y1564440D02*
Y1635560D01*
X214440Y1350000D02*
X285560D01*
X250000Y1314440D02*
Y1385560D01*
X214440Y1100000D02*
X285560D01*
X250000Y1064440D02*
Y1135560D01*
X214440Y850000D02*
X285560D01*
X250000Y814440D02*
Y885560D01*
X214440Y600000D02*
X285560D01*
X250000Y564440D02*
Y635560D01*
X1685000Y1425000D02*
X1715000D01*
X1700000Y1410000D02*
Y1440000D01*
X4409680Y2575560D02*
X4439680D01*
X4424680Y2560560D02*
Y2590560D01*
X5412980Y2654300D02*
X5442980D01*
X5427980Y2639300D02*
Y2669300D01*
X3231120Y1978660D02*
X3261120D01*
X3246120Y1963660D02*
Y1993660D01*
X3190480Y1229360D02*
X3220480D01*
X3205480Y1214360D02*
Y1244360D01*
X4181080Y858520D02*
X4211080D01*
X4196080Y843520D02*
Y873520D01*
X3101183Y1318260D02*
X3131183D01*
X3116183Y1303260D02*
Y1333260D01*
X3147300Y1272540D02*
X3177300D01*
X3162300Y1257540D02*
Y1287540D01*
X2591040Y355600D02*
X2621040D01*
X2606040Y340600D02*
Y370600D01*
X3960000Y2575000D02*
X3990000D01*
X3975000Y2560000D02*
Y2590000D01*
X4185000Y2575000D02*
X4215000D01*
X4200000Y2560000D02*
Y2590000D01*
X3735000Y2575000D02*
X3765000D01*
X3750000Y2560000D02*
Y2590000D01*
X3510000Y2575000D02*
X3540000D01*
X3525000Y2560000D02*
Y2590000D01*
X4564440Y225000D02*
X4635560D01*
X4600000Y189440D02*
Y260560D01*
X4864440Y225000D02*
X4935560D01*
X4900000Y189440D02*
Y260560D01*
X5164440Y225000D02*
X5235560D01*
X5200000Y189440D02*
Y260560D01*
X5464440Y225000D02*
X5535560D01*
X5500000Y189440D02*
Y260560D01*
X5764440Y225000D02*
X5835560D01*
X5800000Y189440D02*
Y260560D01*
X6064440Y225000D02*
X6135560D01*
X6100000Y189440D02*
Y260560D01*
X6364440Y225000D02*
X6435560D01*
X6400000Y189440D02*
Y260560D01*
X6664440Y225000D02*
X6735560D01*
X6700000Y189440D02*
Y260560D01*
X6964440Y225000D02*
X7035560D01*
X7000000Y189440D02*
Y260560D01*
X7264440Y225000D02*
X7335560D01*
X7300000Y189440D02*
Y260560D01*
X7564440Y225000D02*
X7635560D01*
X7600000Y189440D02*
Y260560D01*
X7864440Y225000D02*
X7935560D01*
X7900000Y189440D02*
Y260560D01*
X2326880Y353060D02*
X2356880D01*
X2341880Y338060D02*
Y368060D01*
X2395460Y449580D02*
X2425460D01*
X2410460Y434580D02*
Y464580D01*
X3668450Y1425200D02*
X3698450D01*
X3683450Y1410200D02*
Y1440200D01*
X5158980Y1338580D02*
X5188980D01*
X5173980Y1323580D02*
Y1353580D01*
X5296140Y1338580D02*
X5326140D01*
X5311140Y1323580D02*
Y1353580D01*
X5021820Y1338580D02*
X5051820D01*
X5036820Y1323580D02*
Y1353580D01*
X5433300Y1338580D02*
X5463300D01*
X5448300Y1323580D02*
Y1353580D01*
X4884660Y1338580D02*
X4914660D01*
X4899660Y1323580D02*
Y1353580D01*
X7792960Y3954780D02*
X7822960D01*
X7807960Y3939780D02*
Y3969780D01*
X7792960Y4500880D02*
X7822960D01*
X7807960Y4485880D02*
Y4515880D01*
X6896340Y3952240D02*
X6926340D01*
X6911340Y3937240D02*
Y3967240D01*
X6896340Y4498340D02*
X6926340D01*
X6911340Y4483340D02*
Y4513340D01*
X5994640Y3952240D02*
X6024640D01*
X6009640Y3937240D02*
Y3967240D01*
X5994640Y4498340D02*
X6024640D01*
X6009640Y4483340D02*
Y4513340D01*
X553960Y2786380D02*
X583960D01*
X568960Y2771380D02*
Y2801380D01*
X1044180Y2786380D02*
X1074180D01*
X1059180Y2771380D02*
Y2801380D01*
X1186420Y2786380D02*
X1216420D01*
X1201420Y2771380D02*
Y2801380D01*
X1328660Y2786380D02*
X1358660D01*
X1343660Y2771380D02*
Y2801380D01*
X1394700Y2786380D02*
X1424700D01*
X1409700Y2771380D02*
Y2801380D01*
X1605520Y2786380D02*
X1635520D01*
X1620520Y2771380D02*
Y2801380D01*
X1674100Y2786380D02*
X1704100D01*
X1689100Y2771380D02*
Y2801380D01*
X1953500Y2786380D02*
X1983500D01*
X1968500Y2771380D02*
Y2801380D01*
X2024620Y2786380D02*
X2054620D01*
X2039620Y2771380D02*
Y2801380D01*
X2095740Y2786380D02*
X2125740D01*
X2110740Y2771380D02*
Y2801380D01*
X2585960Y2786380D02*
X2615960D01*
X2600960Y2771380D02*
Y2801380D01*
X2514840Y2786380D02*
X2544840D01*
X2529840Y2771380D02*
Y2801380D01*
X2235440Y2786380D02*
X2265440D01*
X2250440Y2771380D02*
Y2801380D01*
X2164320Y2786380D02*
X2194320D01*
X2179320Y2771380D02*
Y2801380D01*
X5095480Y4498340D02*
X5125480D01*
X5110480Y4483340D02*
Y4513340D01*
X5095480Y3952240D02*
X5125480D01*
X5110480Y3937240D02*
Y3967240D01*
X2161780Y1450340D02*
X2191780D01*
X2176780Y1435340D02*
Y1465340D01*
X4003280Y1767840D02*
X4033280D01*
X4018280Y1752840D02*
Y1782840D01*
X3815320Y1877060D02*
X3845320D01*
X3830320Y1862060D02*
Y1892060D01*
X4838940Y2376640D02*
X4868940D01*
X4853940Y2361640D02*
Y2391640D01*
X9499840Y1871980D02*
X9529840D01*
X9514840Y1856980D02*
Y1886980D01*
X2568180Y152400D02*
X2598180D01*
X2583180Y137400D02*
Y167400D01*
X6886360Y954220D02*
X6916360D01*
X6901360Y939220D02*
Y969220D01*
X1783320Y2677160D02*
X1813320D01*
X1798320Y2662160D02*
Y2692160D01*
X1898890Y2622867D02*
X1928890D01*
X1913890Y2607868D02*
Y2637867D01*
X4102340Y2299780D02*
X4132340D01*
X4117340Y2284780D02*
Y2314780D01*
X4104880Y1474940D02*
X4134880D01*
X4119880Y1459940D02*
Y1489940D01*
X3977880Y988060D02*
X4007880D01*
X3992880Y973060D02*
Y1003060D01*
X3960100Y1620520D02*
X3990100D01*
X3975100Y1605520D02*
Y1635520D01*
X3401300Y1874520D02*
X3431300D01*
X3416300Y1859520D02*
Y1889520D01*
X3401100Y1572340D02*
X3431100D01*
X3416100Y1557340D02*
Y1587340D01*
X3033000Y1107440D02*
X3063000D01*
X3048000Y1092440D02*
Y1122440D01*
X2806940Y1107440D02*
X2836940D01*
X2821940Y1092440D02*
Y1122440D01*
X2100820Y1125220D02*
X2130820D01*
X2115820Y1110220D02*
Y1140220D01*
X9388440Y2024380D02*
X9418440D01*
X9403440Y2009380D02*
Y2039380D01*
X9390620Y1925320D02*
X9420620D01*
X9405620Y1910320D02*
Y1940320D01*
%TF.MD5,a818476acecf568defa28c250ab172a3*%
M02*
