%TF.GenerationSoftware,Altium Limited,Altium Designer,21.0.9 (235)*%
G04 Layer_Physical_Order=3*
G04 Layer_Color=128*
%FSLAX45Y45*%
%MOMM*%
%TF.SameCoordinates,EF7BBA3F-781E-4618-A6AB-C8CA2981E545*%
%TF.FilePolarity,Negative*%
%TF.FileFunction,Copper,L3,Inr,Plane*%
%TF.Part,Single*%
G01*
G75*
%TA.AperFunction,NonConductor*%
%ADD57C,1.01600*%
%TA.AperFunction,ComponentPad*%
%ADD58C,0.95400*%
G04:AMPARAMS|DCode=59|XSize=1.716mm|YSize=1.716mm|CornerRadius=0mm|HoleSize=0mm|Usage=FLASHONLY|Rotation=0.000|XOffset=0mm|YOffset=0mm|HoleType=Round|Shape=Relief|Width=0.254mm|Gap=0.254mm|Entries=4|*
%AMTHD59*
7,0,0,1.71600,1.20800,0.25400,45*
%
%ADD59THD59*%
G04:AMPARAMS|DCode=60|XSize=2.316mm|YSize=2.316mm|CornerRadius=0mm|HoleSize=0mm|Usage=FLASHONLY|Rotation=0.000|XOffset=0mm|YOffset=0mm|HoleType=Round|Shape=Relief|Width=0.254mm|Gap=0.254mm|Entries=4|*
%AMTHD60*
7,0,0,2.31600,1.80800,0.25400,45*
%
%ADD60THD60*%
%ADD64C,0.90400*%
%ADD65C,1.55400*%
%ADD66O,22.25400X0.65400*%
%TA.AperFunction,ViaPad*%
G04:AMPARAMS|DCode=67|XSize=1.7272mm|YSize=1.7272mm|CornerRadius=0mm|HoleSize=0mm|Usage=FLASHONLY|Rotation=0.000|XOffset=0mm|YOffset=0mm|HoleType=Round|Shape=Relief|Width=0.254mm|Gap=0.254mm|Entries=4|*
%AMTHD67*
7,0,0,1.72720,1.21920,0.25400,45*
%
%ADD67THD67*%
G04:AMPARAMS|DCode=68|XSize=1.316mm|YSize=1.316mm|CornerRadius=0mm|HoleSize=0mm|Usage=FLASHONLY|Rotation=0.000|XOffset=0mm|YOffset=0mm|HoleType=Round|Shape=Relief|Width=0.254mm|Gap=0.254mm|Entries=4|*
%AMTHD68*
7,0,0,1.31600,0.80800,0.25400,45*
%
%ADD68THD68*%
%ADD69C,0.55400*%
%ADD70C,0.96520*%
G04:AMPARAMS|DCode=71|XSize=3.216mm|YSize=3.216mm|CornerRadius=0mm|HoleSize=0mm|Usage=FLASHONLY|Rotation=0.000|XOffset=0mm|YOffset=0mm|HoleType=Round|Shape=Relief|Width=0.254mm|Gap=0.254mm|Entries=4|*
%AMTHD71*
7,0,0,3.21600,2.70800,0.25400,45*
%
%ADD71THD71*%
%TA.AperFunction,ComponentPad*%
%AMTHOVALD72*
21,1,0.60000,1.61600,0,0,180.0*
1,1,1.61600,0.30000,0.00000*
1,1,1.61600,-0.30000,0.00000*
21,0,0.60000,1.10800,0,0,180.0*
1,0,1.10800,0.30000,0.00000*
1,0,1.10800,-0.30000,0.00000*
4,0,4,0.21020,0.08980,0.78154,0.66114,0.96114,0.48154,0.38980,-0.08980,0.21020,0.08980,0.0*
4,0,4,-0.38980,0.08980,-0.96114,-0.48154,-0.78154,-0.66114,-0.21020,-0.08980,-0.38980,0.08980,0.0*
4,0,4,0.38980,0.08980,0.96114,-0.48154,0.78154,-0.66114,0.21020,-0.08980,0.38980,0.08980,0.0*
4,0,4,-0.21020,0.08980,-0.78154,0.66114,-0.96114,0.48154,-0.38980,-0.08980,-0.21020,0.08980,0.0*
%
%ADD72THOVALD72*%

%AMTHOVALD73*
21,1,1.10000,1.61600,0,0,180.0*
1,1,1.61600,0.55000,0.00000*
1,1,1.61600,-0.55000,0.00000*
21,0,1.10000,1.10800,0,0,180.0*
1,0,1.10800,0.55000,0.00000*
1,0,1.10800,-0.55000,0.00000*
4,0,4,0.46020,0.08980,1.03154,0.66114,1.21114,0.48154,0.63980,-0.08980,0.46020,0.08980,0.0*
4,0,4,-0.63980,0.08980,-1.21114,-0.48154,-1.03154,-0.66114,-0.46020,-0.08980,-0.63980,0.08980,0.0*
4,0,4,0.63980,0.08980,1.21114,-0.48154,1.03154,-0.66114,0.46020,-0.08980,0.63980,0.08980,0.0*
4,0,4,-0.46020,0.08980,-1.03154,0.66114,-1.21114,0.48154,-0.63980,-0.08980,-0.46020,0.08980,0.0*
%
%ADD73THOVALD73*%

D57*
X10000000Y200000D02*
Y4800000D01*
X9800000Y5000000D02*
X10000000Y4800000D01*
X200000Y5000000D02*
X9800000D01*
X0Y4800000D02*
X200000Y5000000D01*
X0Y200000D02*
X0Y4800000D01*
X0Y200000D02*
X200000Y0D01*
X9800000D01*
X10000000Y200000D01*
D58*
X9363500Y4125000D02*
D03*
X9236500D02*
D03*
X9713500Y3756000D02*
D03*
X9586500D02*
D03*
X9713500Y3629000D02*
D03*
X9586500D02*
D03*
Y3502000D02*
D03*
Y3375000D02*
D03*
X9713500Y3248000D02*
D03*
Y2994000D02*
D03*
X9586500Y3248000D02*
D03*
Y3121000D02*
D03*
Y2994000D02*
D03*
X8813500Y1386500D02*
D03*
X8686500D02*
D03*
X8813500Y1513500D02*
D03*
X8686500D02*
D03*
D59*
X9713500Y3502000D02*
D03*
Y3375000D02*
D03*
Y3121000D02*
D03*
D60*
X8984000Y558800D02*
D03*
X1524000D02*
D03*
D64*
X9417000Y2289000D02*
D03*
Y1711000D02*
D03*
D65*
X8476000Y558800D02*
D03*
X1016000D02*
D03*
D66*
X1584500Y2197600D02*
D03*
D67*
X9750000Y1100000D02*
D03*
Y850000D02*
D03*
Y600000D02*
D03*
X9100000Y250000D02*
D03*
X9350000D02*
D03*
X9750000Y1350000D02*
D03*
Y2600000D02*
D03*
Y4150000D02*
D03*
Y4400000D02*
D03*
X1850000Y1100000D02*
D03*
Y1350000D02*
D03*
Y1600000D02*
D03*
Y1850000D02*
D03*
X1600000D02*
D03*
X1350000D02*
D03*
X1100000D02*
D03*
X850000D02*
D03*
X600000D02*
D03*
Y1600000D02*
D03*
Y1350000D02*
D03*
Y1100000D02*
D03*
Y850000D02*
D03*
Y600000D02*
D03*
Y250000D02*
D03*
X850000D02*
D03*
X1100000D02*
D03*
X1350000D02*
D03*
X1600000D02*
D03*
X1850000D02*
D03*
X8600000Y4750000D02*
D03*
X8850000D02*
D03*
X9100000D02*
D03*
X9350000D02*
D03*
X4600000D02*
D03*
X4850000D02*
D03*
X7600000D02*
D03*
X600000D02*
D03*
X850000D02*
D03*
X1100000D02*
D03*
X1350000D02*
D03*
X1600000D02*
D03*
X1850000D02*
D03*
X2100000D02*
D03*
X2350000D02*
D03*
X2600000D02*
D03*
X2850000D02*
D03*
X3100000D02*
D03*
X3350000D02*
D03*
X3600000D02*
D03*
X3850000D02*
D03*
X4100000D02*
D03*
X4350000D02*
D03*
X250000Y4350000D02*
D03*
Y4100000D02*
D03*
Y3850000D02*
D03*
Y3600000D02*
D03*
Y3350000D02*
D03*
Y3100000D02*
D03*
Y2850000D02*
D03*
Y2600000D02*
D03*
Y2350000D02*
D03*
Y2100000D02*
D03*
Y1850000D02*
D03*
Y1600000D02*
D03*
Y1350000D02*
D03*
Y1100000D02*
D03*
Y850000D02*
D03*
Y600000D02*
D03*
D68*
X7557500Y560000D02*
D03*
X7359969Y1256446D02*
D03*
X6887500Y2747500D02*
D03*
X6739189Y2590458D02*
D03*
X6140000Y2372500D02*
D03*
X5927500Y2000000D02*
D03*
X6957502Y1210203D02*
D03*
X9605000Y1235202D02*
D03*
X8842502Y1860205D02*
D03*
Y2289800D02*
D03*
X7767498Y3439800D02*
D03*
X6867500D02*
D03*
X5967501D02*
D03*
X5130002Y3227299D02*
D03*
X5635203Y3082498D02*
D03*
X6079998Y3227299D02*
D03*
X6585204Y3082498D02*
D03*
X7535200D02*
D03*
X7979999Y3227299D02*
D03*
X8485200Y3082498D02*
D03*
X8022422Y2654899D02*
D03*
X6727100Y1227500D02*
D03*
X6032297Y750001D02*
D03*
X5785201Y1607500D02*
D03*
X5910204Y2242500D02*
D03*
X7592502Y1210203D02*
D03*
X6507500D02*
D03*
X7267499Y2860203D02*
D03*
X7457501Y2639797D02*
D03*
X5832500Y1460200D02*
D03*
X6564798Y657499D02*
D03*
X6114796Y1594998D02*
D03*
X5710204Y645003D02*
D03*
X8037500Y1792500D02*
D03*
X7757500Y2237500D02*
D03*
X8037500Y2057500D02*
D03*
X9730800Y1869440D02*
D03*
X9731948Y2124338D02*
D03*
X7106920Y660400D02*
D03*
X3305699Y1315000D02*
D03*
X1700000Y1425000D02*
D03*
X4424680Y2575560D02*
D03*
X3975000Y2575000D02*
D03*
X4200000D02*
D03*
X3750000D02*
D03*
X3525000D02*
D03*
X2410460Y449580D02*
D03*
X5173980Y1338580D02*
D03*
X5311140D02*
D03*
X5036820D02*
D03*
X5448300D02*
D03*
X4899660D02*
D03*
X7807960Y3954780D02*
D03*
Y4500880D02*
D03*
X6911340Y3952240D02*
D03*
Y4498340D02*
D03*
X6009640Y3952240D02*
D03*
Y4498340D02*
D03*
X568960Y2786380D02*
D03*
X1059180D02*
D03*
X1201420D02*
D03*
X1343660D02*
D03*
X1409700D02*
D03*
X1620520D02*
D03*
X1689100D02*
D03*
X1968500D02*
D03*
X2039620D02*
D03*
X2110740D02*
D03*
X2600960D02*
D03*
X2529840D02*
D03*
X2250440D02*
D03*
X2179320D02*
D03*
X5110480Y4498340D02*
D03*
Y3952240D02*
D03*
X2176780Y1450340D02*
D03*
X4853940Y2376640D02*
D03*
X2583180Y152400D02*
D03*
X6901360Y954220D02*
D03*
X4117340Y2299780D02*
D03*
X4119880Y1474940D02*
D03*
X3992880Y988060D02*
D03*
X3975100Y1620520D02*
D03*
X3416300Y1874520D02*
D03*
X3416100Y1572340D02*
D03*
X3048000Y1107440D02*
D03*
X2821940D02*
D03*
X2115820Y1125220D02*
D03*
D69*
X8185000Y450000D02*
D03*
X8260000D02*
D03*
X8335000D02*
D03*
X8185000Y375000D02*
D03*
X8260000D02*
D03*
X8335000D02*
D03*
X8410000D02*
D03*
X8485000D02*
D03*
X8560000D02*
D03*
X8635000D02*
D03*
X8710000D02*
D03*
X8785000Y450000D02*
D03*
X8710000D02*
D03*
X8635000D02*
D03*
X8785000Y375000D02*
D03*
X1325000D02*
D03*
X1175000Y450000D02*
D03*
X1250000D02*
D03*
X1325000D02*
D03*
X1250000Y375000D02*
D03*
X1175000D02*
D03*
X1100000D02*
D03*
X1025000D02*
D03*
X950000D02*
D03*
X875000D02*
D03*
X800000D02*
D03*
X725000D02*
D03*
X875000Y450000D02*
D03*
X800000D02*
D03*
X725000D02*
D03*
X2327500Y800000D02*
D03*
X2122500D02*
D03*
X7252500Y3380000D02*
D03*
X7660000D02*
D03*
X8542500Y2397500D02*
D03*
X8547500Y1750000D02*
D03*
X7540000Y3232500D02*
D03*
X5890000Y2957500D02*
D03*
X5992500Y2755000D02*
D03*
X1225000Y3557500D02*
D03*
X1372500Y3420000D02*
D03*
X1925000Y3877500D02*
D03*
X1650000Y3875000D02*
D03*
X7063100Y546900D02*
D03*
X6675000Y2601510D02*
D03*
X5560202Y1032500D02*
D03*
X8019999Y3439800D02*
D03*
X7582499D02*
D03*
X7120001D02*
D03*
X6682501D02*
D03*
X6219998D02*
D03*
X5782498D02*
D03*
X5320000Y3660201D02*
D03*
Y3227299D02*
D03*
X5635203Y3267502D02*
D03*
X6270000Y3227299D02*
D03*
X6585204Y3267502D02*
D03*
X6709999Y3209798D02*
D03*
X8170001Y3227299D02*
D03*
X8485200Y3267502D02*
D03*
X6815000Y1100000D02*
D03*
X7302500D02*
D03*
X7082500Y2639797D02*
D03*
X7642499D02*
D03*
X6785204Y842498D02*
D03*
X5839800Y1805000D02*
D03*
X8037500Y1602500D02*
D03*
Y2242500D02*
D03*
X3911600Y1600200D02*
D03*
X3864970Y2029460D02*
D03*
X1478280Y3258820D02*
D03*
X6873240Y2347870D02*
D03*
X5847080Y2500270D02*
D03*
X5890260Y2458720D02*
D03*
X6972300Y2346960D02*
D03*
X6288099Y1091259D02*
D03*
X6337300Y1216660D02*
D03*
X6654800Y1765300D02*
D03*
X6774180Y3131820D02*
D03*
X5819140Y3119120D02*
D03*
X6423660Y2374900D02*
D03*
X6550660Y2545080D02*
D03*
X6769100Y2639800D02*
D03*
X5521661Y2646320D02*
D03*
X7127240Y3106420D02*
D03*
X7724140Y3130910D02*
D03*
X6875780Y2616200D02*
D03*
X7625080Y2938780D02*
D03*
X7226300Y2628900D02*
D03*
X7406640Y2872740D02*
D03*
X7140723Y2046810D02*
D03*
X7124700Y2362200D02*
D03*
X7455398Y2149963D02*
D03*
X7122160Y2279460D02*
D03*
X7307580Y2237740D02*
D03*
X7188030Y2237910D02*
D03*
X6378310Y1899550D02*
D03*
X6283960Y1930400D02*
D03*
X7299960Y3274060D02*
D03*
X6972300Y3180080D02*
D03*
X9514840Y2120900D02*
D03*
X8608060Y1592580D02*
D03*
X6355080Y1648460D02*
D03*
X5824220Y1701800D02*
D03*
X4173530Y1592270D02*
D03*
X7117080Y840740D02*
D03*
X5427980Y2654300D02*
D03*
X3246120Y1978660D02*
D03*
X3205480Y1229360D02*
D03*
X4196080Y858520D02*
D03*
X3116183Y1318260D02*
D03*
X3162300Y1272540D02*
D03*
X2606040Y355600D02*
D03*
X2341880Y353060D02*
D03*
X3683450Y1425200D02*
D03*
X4018280Y1767840D02*
D03*
X3830320Y1877060D02*
D03*
X9514840Y1871980D02*
D03*
X1798320Y2677160D02*
D03*
X1913890Y2622867D02*
D03*
X9403440Y2024380D02*
D03*
X9405620Y1925320D02*
D03*
D70*
X8600000Y225000D02*
D03*
X8300000D02*
D03*
X4600000D02*
D03*
X4900000D02*
D03*
X5200000D02*
D03*
X5500000D02*
D03*
X5800000D02*
D03*
X6100000D02*
D03*
X6400000D02*
D03*
X6700000D02*
D03*
X7000000D02*
D03*
X7300000D02*
D03*
X7600000D02*
D03*
X7900000D02*
D03*
D71*
X250000Y250000D02*
D03*
X9750000D02*
D03*
Y4750000D02*
D03*
X250000D02*
D03*
D72*
X9782000Y1568000D02*
D03*
Y2432000D02*
D03*
D73*
X9364000D02*
D03*
Y1568000D02*
D03*
%TF.MD5,8152a58c43adcb1160085727d60eea19*%
M02*
