%TF.GenerationSoftware,Altium Limited,Altium Designer,21.0.8 (223)*%
G04 Layer_Color=16711935*
%FSLAX45Y45*%
%MOMM*%
%TF.SameCoordinates,93EC2011-4169-4821-B187-25AADE7CFEA4*%
%TF.FilePolarity,Positive*%
%TF.FileFunction,Other,Mechanical_13*%
%TF.Part,Single*%
G01*
G75*
%TA.AperFunction,NonConductor*%
%ADD148C,0.10000*%
%ADD151R,0.61467X3.81000*%
D148*
X8860000Y2015000D02*
G03*
X8860000Y2015000I-50000J0D01*
G01*
X4310000Y890000D02*
G03*
X4310000Y890000I-50000J0D01*
G01*
X6690000Y2285000D02*
G03*
X6690000Y2285000I-50000J0D01*
G01*
X5890000Y1087500D02*
X6060000D01*
Y1212500D01*
X5890000D02*
X6060000D01*
X5890000Y1087500D02*
Y1212500D01*
X5355000Y1810000D02*
X5495000D01*
X5355000Y1590000D02*
X5495000D01*
Y1810000D01*
X5355000Y1590000D02*
Y1810000D01*
X4555000Y1235000D02*
X4695000D01*
X4555000Y1015000D02*
X4695000D01*
Y1235000D01*
X4555000Y1015000D02*
Y1235000D01*
X1046500Y1234500D02*
Y1615500D01*
X1503500Y1234500D02*
Y1615500D01*
X1046500D02*
X1503500D01*
X1046500Y1234500D02*
X1503500D01*
X4492500Y3145000D02*
Y3355000D01*
X4357500Y3145000D02*
Y3355000D01*
X4492500D01*
X4357500Y3145000D02*
X4492500D01*
X2642500Y3545000D02*
Y3755000D01*
X2507500Y3545000D02*
Y3755000D01*
Y3545000D02*
X2642500D01*
X2507500Y3755000D02*
X2642500D01*
X2442500Y3545000D02*
Y3755000D01*
X2307500Y3545000D02*
Y3755000D01*
Y3545000D02*
X2442500D01*
X2307500Y3755000D02*
X2442500D01*
X2105000Y3540000D02*
Y3760000D01*
X2245000Y3540000D02*
Y3760000D01*
X2105000D02*
X2245000D01*
X2105000Y3540000D02*
X2245000D01*
X1905000D02*
Y3760000D01*
X2045000Y3540000D02*
Y3760000D01*
X1905000D02*
X2045000D01*
X1905000Y3540000D02*
X2045000D01*
X1705000D02*
Y3760000D01*
X1845000Y3540000D02*
Y3760000D01*
X1705000D02*
X1845000D01*
X1705000Y3540000D02*
X1845000D01*
X1342500Y3545000D02*
Y3755000D01*
X1207500Y3545000D02*
Y3755000D01*
Y3545000D02*
X1342500D01*
X1207500Y3755000D02*
X1342500D01*
X1007500Y3545000D02*
Y3755000D01*
X1142500Y3545000D02*
Y3755000D01*
X1007500D02*
X1142500D01*
X1007500Y3545000D02*
X1142500D01*
X807500D02*
Y3755000D01*
X942500Y3545000D02*
Y3755000D01*
X807500D02*
X942500D01*
X807500Y3545000D02*
X942500D01*
X742500D02*
Y3755000D01*
X607500Y3545000D02*
Y3755000D01*
Y3545000D02*
X742500D01*
X607500Y3755000D02*
X742500D01*
X8621000Y3998000D02*
Y4252000D01*
Y3998000D02*
X9129000D01*
Y4252000D01*
X8621000D02*
X9129000D01*
X7812501Y3135000D02*
Y3310000D01*
X8117500Y3135000D02*
Y3310000D01*
X7812501Y3135000D02*
X8117500D01*
X7812501Y3310000D02*
X8117500D01*
X7772500Y3152500D02*
Y3292500D01*
X7557500Y3152500D02*
Y3292500D01*
X7772500D01*
X7557500Y3152500D02*
X7772500D01*
X6912501Y3135000D02*
Y3310000D01*
X7217500Y3135000D02*
Y3310000D01*
X6912501Y3135000D02*
X7217500D01*
X6912501Y3310000D02*
X7217500D01*
X6872500Y3152500D02*
Y3292500D01*
X6657500Y3152500D02*
Y3292500D01*
X6872500D01*
X6657500Y3152500D02*
X6872500D01*
X6012501Y3135000D02*
Y3310000D01*
X6317500Y3135000D02*
Y3310000D01*
X6012501Y3135000D02*
X6317500D01*
X6012501Y3310000D02*
X6317500D01*
X5757500Y3152500D02*
Y3292500D01*
X5972500Y3152500D02*
Y3292500D01*
X5757500Y3152500D02*
X5972500D01*
X5757500Y3292500D02*
X5972500D01*
X8225001Y3452500D02*
Y3592500D01*
X8005000Y3452500D02*
Y3592500D01*
Y3452500D02*
X8225001D01*
X8005000Y3592500D02*
X8225001D01*
X7560000Y3455000D02*
Y3590000D01*
X7770000Y3455000D02*
Y3590000D01*
X7560000D02*
X7770000D01*
X7560000Y3455000D02*
X7770000D01*
X7325001Y3452500D02*
Y3592500D01*
X7105001Y3452500D02*
Y3592500D01*
Y3452500D02*
X7325001D01*
X7105001Y3592500D02*
X7325001D01*
X6660000Y3455000D02*
Y3590000D01*
X6870000Y3455000D02*
Y3590000D01*
X6660000D02*
X6870000D01*
X6660000Y3455000D02*
X6870000D01*
X6425001Y3452500D02*
Y3592500D01*
X6205001Y3452500D02*
Y3592500D01*
Y3452500D02*
X6425001D01*
X6205001Y3592500D02*
X6425001D01*
X5760000Y3455000D02*
Y3590000D01*
X5970001Y3455000D02*
Y3590000D01*
X5760000D02*
X5970001D01*
X5760000Y3455000D02*
X5970001D01*
X5525000Y3452500D02*
Y3592500D01*
X5305000Y3452500D02*
Y3592500D01*
Y3452500D02*
X5525000D01*
X5305000Y3592500D02*
X5525000D01*
X5497500Y3117500D02*
Y3327500D01*
X5632500Y3117500D02*
Y3327500D01*
X5497500Y3117500D02*
X5632500D01*
X5497500Y3327500D02*
X5632500D01*
X6397500Y3117500D02*
Y3327500D01*
X6532500Y3117500D02*
Y3327500D01*
X6397500Y3117500D02*
X6532500D01*
X6397500Y3327500D02*
X6532500D01*
X7297500Y3117500D02*
Y3327500D01*
X7432500Y3117500D02*
Y3327500D01*
X7297500Y3117500D02*
X7432500D01*
X7297500Y3327500D02*
X7432500D01*
X8197500Y3117500D02*
Y3327500D01*
X8332500Y3117500D02*
Y3327500D01*
X8197500Y3117500D02*
X8332500D01*
X8197500Y3327500D02*
X8332500D01*
X7757500Y1780000D02*
X7892500D01*
X7757500Y1570000D02*
X7892500D01*
Y1780000D01*
X7757500Y1570000D02*
Y1780000D01*
Y1970000D02*
X7892500D01*
X7757500Y2180000D02*
X7892500D01*
X7757500Y1970000D02*
Y2180000D01*
X7892500Y1970000D02*
Y2180000D01*
X7445000Y2632500D02*
Y2767500D01*
X7655000Y2632500D02*
Y2767500D01*
X7445000D02*
X7655000D01*
X7445000Y2632500D02*
X7655000D01*
X7280000D02*
Y2767500D01*
X7070000Y2632500D02*
Y2767500D01*
Y2632500D02*
X7280000D01*
X7070000Y2767500D02*
X7280000D01*
X6805000Y2632500D02*
Y2767500D01*
X6595000Y2632500D02*
Y2767500D01*
Y2632500D02*
X6805000D01*
X6595000Y2767500D02*
X6805000D01*
X6117280Y2635120D02*
Y2775120D01*
X6337280Y2635120D02*
Y2775120D01*
X6117280D02*
X6337280D01*
X6117280Y2635120D02*
X6337280D01*
X6280000Y2332500D02*
Y2467500D01*
X6070000Y2332500D02*
Y2467500D01*
Y2332500D02*
X6280000D01*
X6070000Y2467500D02*
X6280000D01*
X5857500Y2205000D02*
X5992500D01*
X5857500Y1995000D02*
X5992500D01*
Y2205000D01*
X5857500Y1995000D02*
Y2205000D01*
X6005000Y1565000D02*
Y1785000D01*
X6145000Y1565000D02*
Y1785000D01*
X6005000Y1565000D02*
X6145000D01*
X6005000Y1785000D02*
X6145000D01*
X5807500Y1780000D02*
X5942500D01*
X5807500Y1570000D02*
X5942500D01*
Y1780000D01*
X5807500Y1570000D02*
Y1780000D01*
X6205000Y1565000D02*
Y1785000D01*
X6345000Y1565000D02*
Y1785000D01*
X6205000Y1565000D02*
X6345000D01*
X6205000Y1785000D02*
X6345000D01*
X5870000Y1307500D02*
Y1442500D01*
X6080000Y1307500D02*
Y1442500D01*
X5870000D02*
X6080000D01*
X5870000Y1307500D02*
X6080000D01*
X9015000Y3170000D02*
X9235000D01*
X9015000Y3030000D02*
X9235000D01*
X9015000D02*
Y3170000D01*
X9235000Y3030000D02*
Y3170000D01*
X9015000Y3345000D02*
X9235000D01*
X9015000Y3205000D02*
X9235000D01*
X9015000D02*
Y3345000D01*
X9235000Y3205000D02*
Y3345000D01*
X9015000Y3520000D02*
X9235000D01*
X9015000Y3380000D02*
X9235000D01*
X9015000D02*
Y3520000D01*
X9235000Y3380000D02*
Y3520000D01*
X9015000Y3695000D02*
X9235000D01*
X9015000Y3555000D02*
X9235000D01*
X9015000D02*
Y3695000D01*
X9235000Y3555000D02*
Y3695000D01*
X9480000Y2930500D02*
Y3819500D01*
Y2930500D02*
X9820000D01*
Y3819500D01*
X9480000D02*
X9820000D01*
X9615000Y1945000D02*
X9835000D01*
X9615000Y1805000D02*
X9835000D01*
Y1945000D01*
X9615000Y1805000D02*
Y1945000D01*
Y2245000D02*
X9835000D01*
X9615000Y2105000D02*
X9835000D01*
Y2245000D01*
X9615000Y2105000D02*
Y2245000D01*
X8645000Y2282500D02*
Y2417500D01*
X8855000Y2282500D02*
Y2417500D01*
X8645000D02*
X8855000D01*
X8645000Y2282500D02*
X8855000D01*
X8577760Y1653540D02*
X8917760D01*
X8577760Y1399540D02*
Y1653540D01*
Y1399540D02*
X8917760D01*
Y1653540D01*
X8645000Y1732500D02*
X8855000D01*
X8645000Y1867500D02*
X8855000D01*
Y1732500D02*
Y1867500D01*
X8645000Y1732500D02*
Y1867500D01*
X9410000Y1237500D02*
Y1362500D01*
X9240000Y1237500D02*
X9410000D01*
X9240000D02*
Y1362500D01*
X9410000D01*
X9390000Y1195000D02*
X9610000D01*
X9390000Y1055000D02*
X9610000D01*
X9390000D02*
Y1195000D01*
X9610000Y1055000D02*
Y1195000D01*
X7805000Y440000D02*
Y660000D01*
X7945000Y440000D02*
Y660000D01*
X7805000Y440000D02*
X7945000D01*
X7805000Y660000D02*
X7945000D01*
X7630000Y432500D02*
Y567500D01*
X7420000Y432500D02*
Y567500D01*
Y432500D02*
X7630000D01*
X7420000Y567500D02*
X7630000D01*
X7680000Y1032500D02*
Y1167500D01*
X7470000Y1032500D02*
Y1167500D01*
Y1032500D02*
X7680000D01*
X7470000Y1167500D02*
X7680000D01*
X7280000Y1032500D02*
Y1167500D01*
X7070000Y1032500D02*
Y1167500D01*
Y1032500D02*
X7280000D01*
X7070000Y1167500D02*
X7280000D01*
X7157500Y645000D02*
X7292500D01*
X7157500Y855000D02*
X7292500D01*
X7157500Y645000D02*
Y855000D01*
X7292500Y645000D02*
Y855000D01*
X6807500D02*
X6942500D01*
X6807500Y645000D02*
X6942500D01*
Y855000D01*
X6807500Y645000D02*
Y855000D01*
X6570000Y1032500D02*
Y1167500D01*
X6780000Y1032500D02*
Y1167500D01*
X6570000D02*
X6780000D01*
X6570000Y1032500D02*
X6780000D01*
X6437500Y597500D02*
X6612500D01*
X6437500Y902500D02*
X6612500D01*
Y597500D02*
Y902500D01*
X6437500Y597500D02*
Y902500D01*
X6130000Y860000D02*
X6270000D01*
X6130000Y640000D02*
X6270000D01*
Y860000D01*
X6130000Y640000D02*
Y860000D01*
X5930000Y640000D02*
X6070000D01*
X5930000Y860000D02*
X6070000D01*
X5930000Y640000D02*
Y860000D01*
X6070000Y640000D02*
Y860000D01*
X5040000Y2445000D02*
X5260000D01*
X5040000Y2305000D02*
X5260000D01*
X5040000D02*
Y2445000D01*
X5260000Y2305000D02*
Y2445000D01*
X5496000Y2005000D02*
Y2145000D01*
X5204000Y2005000D02*
Y2145000D01*
X5496000D01*
X5204000Y2005000D02*
X5496000D01*
X5096000D02*
Y2145000D01*
X4804000Y2005000D02*
Y2145000D01*
X5096000D01*
X4804000Y2005000D02*
X5096000D01*
X5080000Y1810000D02*
X5220000D01*
X5080000Y1590000D02*
X5220000D01*
Y1810000D01*
X5080000Y1590000D02*
Y1810000D01*
X4805000D02*
X4945000D01*
X4805000Y1590000D02*
X4945000D01*
Y1810000D01*
X4805000Y1590000D02*
Y1810000D01*
X5517500Y1020000D02*
Y1230000D01*
X5382500Y1020000D02*
Y1230000D01*
X5517500D01*
X5382500Y1020000D02*
X5517500D01*
X5242500D02*
Y1230000D01*
X5107500Y1020000D02*
Y1230000D01*
X5242500D01*
X5107500Y1020000D02*
X5242500D01*
X4967500D02*
Y1230000D01*
X4832500Y1020000D02*
Y1230000D01*
X4967500D01*
X4832500Y1020000D02*
X4967500D01*
X4215000Y1980000D02*
X4435000D01*
X4215000Y2120000D02*
X4435000D01*
Y1980000D02*
Y2120000D01*
X4215000Y1980000D02*
Y2120000D01*
X4215000Y1780000D02*
X4435000D01*
X4215000Y1920000D02*
X4435000D01*
Y1780000D02*
Y1920000D01*
X4215000Y1780000D02*
Y1920000D01*
X4215000Y1695000D02*
X4435000D01*
X4215000Y1555000D02*
X4435000D01*
X4215000D02*
Y1695000D01*
X4435000Y1555000D02*
Y1695000D01*
X4220000Y1492500D02*
X4430000D01*
X4220000Y1357500D02*
X4430000D01*
X4220000D02*
Y1492500D01*
X4430000Y1357500D02*
Y1492500D01*
X3865000Y1530000D02*
Y1670000D01*
X4085000Y1530000D02*
Y1670000D01*
X3865000Y1530000D02*
X4085000D01*
X3865000Y1670000D02*
X4085000D01*
X4255000Y607500D02*
Y742500D01*
X4045000Y607500D02*
Y742500D01*
Y607500D02*
X4255000D01*
X4045000Y742500D02*
X4255000D01*
X3520000Y1942500D02*
X3730000D01*
X3520000Y1807500D02*
X3730000D01*
X3520000D02*
Y1942500D01*
X3730000Y1807500D02*
Y1942500D01*
X3502500Y1650000D02*
X3722500D01*
X3502500Y1510000D02*
X3722500D01*
X3502500D02*
Y1650000D01*
X3722500Y1510000D02*
Y1650000D01*
X3792500Y1120000D02*
Y1330000D01*
X3657500Y1120000D02*
Y1330000D01*
X3792500D01*
X3657500Y1120000D02*
X3792500D01*
X3567500D02*
Y1330000D01*
X3432500Y1120000D02*
Y1330000D01*
X3567500D01*
X3432500Y1120000D02*
X3567500D01*
X2982500Y1005000D02*
X3117500D01*
X2982500Y795000D02*
X3117500D01*
Y1005000D01*
X2982500Y795000D02*
Y1005000D01*
X2757500D02*
X2892500D01*
X2757500Y795000D02*
X2892500D01*
Y1005000D01*
X2757500Y795000D02*
Y1005000D01*
X2270000Y82500D02*
X2480000D01*
X2270000Y217500D02*
X2480000D01*
Y82500D02*
Y217500D01*
X2270000Y82500D02*
Y217500D01*
X2445000Y300000D02*
Y600000D01*
X2305000Y300000D02*
Y600000D01*
Y300000D02*
X2445000D01*
X2305000Y600000D02*
X2445000D01*
X2210000Y712500D02*
X2540000D01*
X2210000Y887500D02*
X2540000D01*
Y712500D02*
Y887500D01*
X2210000Y712500D02*
Y887500D01*
X2287500Y972500D02*
Y1277500D01*
X2462500Y972500D02*
Y1277500D01*
X2287500D02*
X2462500D01*
X2287500Y972500D02*
X2462500D01*
X2270000Y1517500D02*
X2480000D01*
X2270000Y1382500D02*
X2480000D01*
X2270000D02*
Y1517500D01*
X2480000Y1382500D02*
Y1517500D01*
X4267500Y3145000D02*
Y3355000D01*
X4132500Y3145000D02*
Y3355000D01*
X4267500D01*
X4132500Y3145000D02*
X4267500D01*
X4042500D02*
Y3355000D01*
X3907500Y3145000D02*
Y3355000D01*
X4042500D01*
X3907500Y3145000D02*
X4042500D01*
X3817476Y3144999D02*
Y3354999D01*
X3682476Y3144999D02*
Y3354999D01*
X3817476D01*
X3682476Y3144999D02*
X3817476D01*
X3592500Y3145000D02*
Y3355000D01*
X3457500Y3145000D02*
Y3355000D01*
X3592500D01*
X3457500Y3145000D02*
X3592500D01*
X8191300Y282500D02*
X8209126Y267484D01*
X8221992D01*
X8164991Y282481D02*
X8191285D01*
X8164999Y282472D02*
X8165007Y282481D01*
X8164999Y211100D02*
Y282472D01*
X9237992Y153790D02*
Y963786D01*
X8221992Y153790D02*
Y963786D01*
Y153790D02*
X9237992D01*
X8221992Y963786D02*
X9237992D01*
X8164999Y211100D02*
X8191276D01*
X8209126Y226088D02*
X8221992D01*
X8191300Y211100D02*
X8209126Y226088D01*
X731300Y282500D02*
X749125Y267484D01*
X761992D01*
X704990Y282481D02*
X731284D01*
X704998Y282472D02*
X705006Y282481D01*
X704998Y211100D02*
Y282472D01*
X1777992Y153790D02*
Y963786D01*
X761992Y153790D02*
Y963786D01*
Y153790D02*
X1777992D01*
X761992Y963786D02*
X1777992D01*
X704998Y211100D02*
X731276D01*
X749125Y226088D02*
X761992D01*
X731300Y211100D02*
X749125Y226088D01*
X8900000Y1925000D02*
Y2225000D01*
X8600000Y1925000D02*
Y2225000D01*
Y1925000D02*
X8900000D01*
X8600000Y2225000D02*
X8900000D01*
X3950000Y1300000D02*
X4350000D01*
X3950000Y800000D02*
X4350000D01*
X3950000D02*
Y1300000D01*
X4350000Y800000D02*
Y1300000D01*
X5112501Y3310000D02*
X5417500D01*
X5112501Y3135000D02*
X5417500D01*
Y3310000D01*
X5112501Y3135000D02*
Y3310000D01*
X6550000Y1375000D02*
Y2375000D01*
X7550000Y1375000D02*
Y2375000D01*
X6550000D02*
X7550000D01*
X6550000Y1375000D02*
X7550000D01*
D151*
X1077213Y1425020D02*
D03*
%TF.MD5,8b9f15b5523a2d64d43be34be26535fd*%
M02*
