%TF.GenerationSoftware,Altium Limited,Altium Designer,21.0.9 (235)*%
G04 Layer_Color=16711935*
%FSLAX45Y45*%
%MOMM*%
%TF.SameCoordinates,EF7BBA3F-781E-4618-A6AB-C8CA2981E545*%
%TF.FilePolarity,Positive*%
%TF.FileFunction,Other,Mechanical_1*%
%TF.Part,Single*%
G01*
G75*
%TA.AperFunction,NonConductor*%
%ADD148C,0.10000*%
%ADD149C,0.06000*%
%ADD150C,0.05000*%
D148*
X4289700Y1015420D02*
Y1065404D01*
X4279703Y1075400D01*
X4259710D01*
X4249713Y1065404D01*
Y1015420D01*
X4229720Y1065404D02*
X4219723Y1075400D01*
X4199729D01*
X4189733Y1065404D01*
Y1025417D01*
X4199729Y1015420D01*
X4219723D01*
X4229720Y1025417D01*
Y1035413D01*
X4219723Y1045410D01*
X4189733D01*
D149*
X8089587Y3238500D02*
X8056264D01*
X8049600Y3231836D01*
Y3218506D01*
X8056264Y3211842D01*
X8089587D01*
X8082922Y3198513D02*
X8089587Y3191849D01*
Y3178519D01*
X8082922Y3171855D01*
X8076258D01*
X8069593Y3178519D01*
Y3185184D01*
Y3178519D01*
X8062929Y3171855D01*
X8056264D01*
X8049600Y3178519D01*
Y3191849D01*
X8056264Y3198513D01*
X7139587Y3238500D02*
X7106264D01*
X7099600Y3231836D01*
Y3218506D01*
X7106264Y3211842D01*
X7139587D01*
Y3171855D02*
Y3198513D01*
X7119594D01*
X7126258Y3185184D01*
Y3178519D01*
X7119594Y3171855D01*
X7106264D01*
X7099600Y3178519D01*
Y3191849D01*
X7106264Y3198513D01*
X6189587Y3238500D02*
X6156265D01*
X6149600Y3231836D01*
Y3218506D01*
X6156265Y3211842D01*
X6189587D01*
Y3171855D02*
X6182923Y3185184D01*
X6169594Y3198513D01*
X6156265D01*
X6149600Y3191849D01*
Y3178519D01*
X6156265Y3171855D01*
X6162929D01*
X6169594Y3178519D01*
Y3198513D01*
X6211500Y777287D02*
Y743964D01*
X6218164Y737300D01*
X6231494D01*
X6238158Y743964D01*
Y777287D01*
X6251487Y737300D02*
X6264816D01*
X6258151D01*
Y777287D01*
X6251487Y770623D01*
X6311467Y737300D02*
X6284809D01*
X6311467Y763958D01*
Y770623D01*
X6304803Y777287D01*
X6291474D01*
X6284809Y770623D01*
X2311500Y1152287D02*
Y1118964D01*
X2318165Y1112300D01*
X2331494D01*
X2338158Y1118964D01*
Y1152287D01*
X2351487Y1112300D02*
X2364816D01*
X2358151D01*
Y1152287D01*
X2351487Y1145623D01*
X2384810D02*
X2391474Y1152287D01*
X2404803D01*
X2411468Y1145623D01*
Y1138958D01*
X2404803Y1132294D01*
X2398138D01*
X2404803D01*
X2411468Y1125629D01*
Y1118964D01*
X2404803Y1112300D01*
X2391474D01*
X2384810Y1118964D01*
X5239587Y3238500D02*
X5206265D01*
X5199600Y3231836D01*
Y3218506D01*
X5206265Y3211842D01*
X5239587D01*
X5232923Y3198513D02*
X5239587Y3191849D01*
Y3178519D01*
X5232923Y3171855D01*
X5226258D01*
X5219594Y3178519D01*
X5212929Y3171855D01*
X5206265D01*
X5199600Y3178519D01*
Y3191849D01*
X5206265Y3198513D01*
X5212929D01*
X5219594Y3191849D01*
X5226258Y3198513D01*
X5232923D01*
X5219594Y3191849D02*
Y3178519D01*
D150*
X7707710Y3124200D02*
X7732701D01*
X7737700Y3129198D01*
Y3139195D01*
X7732701Y3144194D01*
X7707710D01*
X7737700Y3174184D02*
Y3154190D01*
X7717706Y3174184D01*
X7712708D01*
X7707710Y3169185D01*
Y3159189D01*
X7712708Y3154190D01*
X6757710Y3124200D02*
X6782701D01*
X6787700Y3129198D01*
Y3139195D01*
X6782701Y3144194D01*
X6757710D01*
X6787700Y3169185D02*
X6757710D01*
X6772705Y3154190D01*
Y3174184D01*
X5842290Y3225800D02*
X5817298D01*
X5812300Y3220802D01*
Y3210805D01*
X5817298Y3205806D01*
X5842290D01*
Y3195810D02*
Y3175816D01*
X5837292D01*
X5817298Y3195810D01*
X5812300D01*
%TF.MD5,3896dfbcc3eeb6741c05420e7b82789d*%
M02*
