%TF.GenerationSoftware,Altium Limited,Altium Designer,21.0.8 (223)*%
G04 Layer_Physical_Order=1*
G04 Layer_Color=255*
%FSLAX45Y45*%
%MOMM*%
%TF.SameCoordinates,ED3C5559-8931-45A1-834E-F7BCE4D23214*%
%TF.FilePolarity,Positive*%
%TF.FileFunction,Copper,L1,Top,Signal*%
%TF.Part,Single*%
G01*
G75*
%TA.AperFunction,SMDPad,CuDef*%
%ADD10R,1.50000X1.20000*%
%ADD11R,1.20000X1.50000*%
%ADD12R,0.63000X0.83000*%
%ADD13R,0.80000X0.90000*%
%ADD14R,1.45000X1.50000*%
%ADD15R,0.52981X1.15564*%
G04:AMPARAMS|DCode=16|XSize=1.15564mm|YSize=0.52981mm|CornerRadius=0.2649mm|HoleSize=0mm|Usage=FLASHONLY|Rotation=90.000|XOffset=0mm|YOffset=0mm|HoleType=Round|Shape=RoundedRectangle|*
%AMROUNDEDRECTD16*
21,1,1.15564,0.00000,0,0,90.0*
21,1,0.62584,0.52981,0,0,90.0*
1,1,0.52980,0.00000,0.31292*
1,1,0.52980,0.00000,-0.31292*
1,1,0.52980,0.00000,-0.31292*
1,1,0.52980,0.00000,0.31292*
%
%ADD16ROUNDEDRECTD16*%
%ADD17R,1.50000X1.45000*%
G04:AMPARAMS|DCode=18|XSize=0.65mm|YSize=1.2mm|CornerRadius=0.04875mm|HoleSize=0mm|Usage=FLASHONLY|Rotation=90.000|XOffset=0mm|YOffset=0mm|HoleType=Round|Shape=RoundedRectangle|*
%AMROUNDEDRECTD18*
21,1,0.65000,1.10250,0,0,90.0*
21,1,0.55250,1.20000,0,0,90.0*
1,1,0.09750,0.55125,0.27625*
1,1,0.09750,0.55125,-0.27625*
1,1,0.09750,-0.55125,-0.27625*
1,1,0.09750,-0.55125,0.27625*
%
%ADD18ROUNDEDRECTD18*%
%ADD19R,1.10000X1.80000*%
%ADD20R,1.45000X0.60000*%
%ADD21R,1.45000X0.30000*%
G04:AMPARAMS|DCode=22|XSize=1.5mm|YSize=5mm|CornerRadius=0.375mm|HoleSize=0mm|Usage=FLASHONLY|Rotation=180.000|XOffset=0mm|YOffset=0mm|HoleType=Round|Shape=RoundedRectangle|*
%AMROUNDEDRECTD22*
21,1,1.50000,4.25000,0,0,180.0*
21,1,0.75000,5.00000,0,0,180.0*
1,1,0.75000,-0.37500,2.12500*
1,1,0.75000,0.37500,2.12500*
1,1,0.75000,0.37500,-2.12500*
1,1,0.75000,-0.37500,-2.12500*
%
%ADD22ROUNDEDRECTD22*%
%ADD23R,1.20000X1.40000*%
%ADD24R,1.00000X0.60000*%
%ADD25O,1.40000X0.25000*%
%ADD26R,0.40000X0.65000*%
G04:AMPARAMS|DCode=27|XSize=0.55mm|YSize=1.25mm|CornerRadius=0.0495mm|HoleSize=0mm|Usage=FLASHONLY|Rotation=270.000|XOffset=0mm|YOffset=0mm|HoleType=Round|Shape=RoundedRectangle|*
%AMROUNDEDRECTD27*
21,1,0.55000,1.15100,0,0,270.0*
21,1,0.45100,1.25000,0,0,270.0*
1,1,0.09900,-0.57550,-0.22550*
1,1,0.09900,-0.57550,0.22550*
1,1,0.09900,0.57550,0.22550*
1,1,0.09900,0.57550,-0.22550*
%
%ADD27ROUNDEDRECTD27*%
G04:AMPARAMS|DCode=28|XSize=0.55mm|YSize=0.8mm|CornerRadius=0.0495mm|HoleSize=0mm|Usage=FLASHONLY|Rotation=0.000|XOffset=0mm|YOffset=0mm|HoleType=Round|Shape=RoundedRectangle|*
%AMROUNDEDRECTD28*
21,1,0.55000,0.70100,0,0,0.0*
21,1,0.45100,0.80000,0,0,0.0*
1,1,0.09900,0.22550,-0.35050*
1,1,0.09900,-0.22550,-0.35050*
1,1,0.09900,-0.22550,0.35050*
1,1,0.09900,0.22550,0.35050*
%
%ADD28ROUNDEDRECTD28*%
G04:AMPARAMS|DCode=29|XSize=0.45mm|YSize=1.05mm|CornerRadius=0.0495mm|HoleSize=0mm|Usage=FLASHONLY|Rotation=0.000|XOffset=0mm|YOffset=0mm|HoleType=Round|Shape=RoundedRectangle|*
%AMROUNDEDRECTD29*
21,1,0.45000,0.95100,0,0,0.0*
21,1,0.35100,1.05000,0,0,0.0*
1,1,0.09900,0.17550,-0.47550*
1,1,0.09900,-0.17550,-0.47550*
1,1,0.09900,-0.17550,0.47550*
1,1,0.09900,0.17550,0.47550*
%
%ADD29ROUNDEDRECTD29*%
%ADD30O,1.80000X0.30000*%
%ADD31O,0.30000X1.80000*%
%ADD32R,1.35000X1.85000*%
%ADD33R,1.00000X1.40000*%
%TA.AperFunction,Conductor*%
%ADD34C,0.50800*%
%ADD35C,0.76200*%
%ADD36C,0.12700*%
%ADD37C,0.38100*%
%ADD38C,0.17800*%
%ADD39C,0.15240*%
%TA.AperFunction,ViaPad*%
%ADD40C,3.00000*%
%TA.AperFunction,ComponentPad*%
%ADD41C,1.05000*%
%ADD42C,1.60000*%
%ADD43R,1.60000X1.60000*%
%ADD44O,1.60000X1.00000*%
%ADD45O,2.10000X1.00000*%
%ADD46C,0.85000*%
%ADD47R,1.80000X1.80000*%
%ADD48C,1.80000*%
%ADD49R,1.60000X1.60000*%
%ADD50O,22.00000X0.50000*%
%TA.AperFunction,ViaPad*%
%ADD51C,1.27000*%
%ADD52C,0.45000*%
G36*
X10000000Y4800000D02*
Y200000D01*
X9800000Y0D01*
X200000D01*
X0Y200000D01*
Y4800000D01*
X0D01*
X200000Y5000000D01*
X9800000D01*
X10000000Y4800000D01*
D02*
G37*
%LPC*%
G36*
X9788100Y4921735D02*
Y4788100D01*
X9921735D01*
X9912833Y4817447D01*
X9896545Y4847918D01*
X9874627Y4874627D01*
X9847919Y4896545D01*
X9817447Y4912832D01*
X9788100Y4921735D01*
D02*
G37*
G36*
X9711900D02*
X9682553Y4912832D01*
X9652082Y4896545D01*
X9625373Y4874627D01*
X9603455Y4847918D01*
X9587168Y4817447D01*
X9578265Y4788100D01*
X9711900D01*
Y4921735D01*
D02*
G37*
G36*
X288100D02*
Y4788100D01*
X421735D01*
X412833Y4817447D01*
X396545Y4847918D01*
X374627Y4874627D01*
X347919Y4896545D01*
X317447Y4912832D01*
X288100Y4921735D01*
D02*
G37*
G36*
X211900D02*
X182553Y4912832D01*
X152081Y4896545D01*
X125373Y4874627D01*
X103455Y4847918D01*
X87167Y4817447D01*
X78265Y4788100D01*
X211900D01*
Y4921735D01*
D02*
G37*
G36*
X5189901Y4735499D02*
X5147601D01*
Y4658199D01*
X5189901D01*
Y4735499D01*
D02*
G37*
G36*
X5071401D02*
X5029101D01*
Y4658199D01*
X5071401D01*
Y4735499D01*
D02*
G37*
G36*
X7889901D02*
X7847601D01*
Y4658199D01*
X7889901D01*
Y4735499D01*
D02*
G37*
G36*
X6089901D02*
X6047601D01*
Y4658199D01*
X6089901D01*
Y4735499D01*
D02*
G37*
G36*
X7771401D02*
X7729101D01*
Y4658199D01*
X7771401D01*
Y4735499D01*
D02*
G37*
G36*
X5971401D02*
X5929101D01*
Y4658199D01*
X5971401D01*
Y4735499D01*
D02*
G37*
G36*
X6989901D02*
X6947601D01*
Y4658199D01*
X6989901D01*
Y4735499D01*
D02*
G37*
G36*
X6871401D02*
X6829101D01*
Y4658199D01*
X6871401D01*
Y4735499D01*
D02*
G37*
G36*
X9921735Y4711900D02*
X9788100D01*
Y4578265D01*
X9817447Y4587167D01*
X9847919Y4603455D01*
X9874627Y4625373D01*
X9896545Y4652081D01*
X9912833Y4682552D01*
X9921735Y4711900D01*
D02*
G37*
G36*
X9711900D02*
X9578265D01*
X9587168Y4682552D01*
X9603455Y4652081D01*
X9625373Y4625373D01*
X9652082Y4603455D01*
X9682553Y4587167D01*
X9711900Y4578265D01*
Y4711900D01*
D02*
G37*
G36*
X421735D02*
X288100D01*
Y4578265D01*
X317447Y4587167D01*
X347919Y4603455D01*
X374627Y4625373D01*
X396545Y4652081D01*
X412833Y4682552D01*
X421735Y4711900D01*
D02*
G37*
G36*
X211900D02*
X78265D01*
X87167Y4682552D01*
X103455Y4652081D01*
X125373Y4625373D01*
X152081Y4603455D01*
X182553Y4587167D01*
X211900Y4578265D01*
Y4711900D01*
D02*
G37*
G36*
X7889901Y4581999D02*
X7809501D01*
X7729101D01*
Y4504699D01*
X7755987D01*
X7759122Y4500880D01*
X7762839Y4482190D01*
X7769860Y4471683D01*
Y4500880D01*
X7846060D01*
Y4471683D01*
X7853081Y4482190D01*
X7856798Y4500880D01*
X7859933Y4504699D01*
X7889901D01*
Y4581999D01*
D02*
G37*
G36*
X6989901Y4581999D02*
X6909501D01*
X6829101D01*
Y4504699D01*
X6857283D01*
X6862502Y4498340D01*
X6866219Y4479650D01*
X6873240Y4469143D01*
Y4498340D01*
X6949440D01*
Y4469143D01*
X6956461Y4479650D01*
X6960178Y4498340D01*
X6965397Y4504699D01*
X6989901D01*
Y4581999D01*
D02*
G37*
G36*
X6089901Y4581999D02*
X6009501D01*
X5929101D01*
Y4504699D01*
X5955583D01*
X5960802Y4498340D01*
X5964519Y4479650D01*
X5971540Y4469143D01*
Y4498340D01*
X6047740D01*
Y4469143D01*
X6054761Y4479650D01*
X6058478Y4498340D01*
X6063697Y4504699D01*
X6089901D01*
Y4581999D01*
D02*
G37*
G36*
X5189901Y4581999D02*
X5109501D01*
X5029101D01*
Y4504699D01*
X5056423D01*
X5061642Y4498340D01*
X5065359Y4479650D01*
X5072380Y4469143D01*
Y4498340D01*
X5148580D01*
Y4469143D01*
X5155601Y4479650D01*
X5159318Y4498340D01*
X5164537Y4504699D01*
X5189901D01*
Y4581999D01*
D02*
G37*
G36*
X7846060Y3983977D02*
Y3954780D01*
X7769860D01*
Y3983977D01*
X7762839Y3973470D01*
X7759122Y3954780D01*
X7760431Y3948200D01*
X7750008Y3935500D01*
X7729100D01*
Y3858200D01*
X7809500D01*
X7889900D01*
Y3935500D01*
X7865912D01*
X7855489Y3948200D01*
X7856798Y3954780D01*
X7853081Y3973470D01*
X7846060Y3983977D01*
D02*
G37*
G36*
X6949440Y3981437D02*
Y3952240D01*
X6873240D01*
Y3981437D01*
X6866219Y3970930D01*
X6862502Y3952240D01*
X6863879Y3945317D01*
X6855822Y3935500D01*
X6829100D01*
Y3858200D01*
X6909500D01*
X6989900D01*
Y3935500D01*
X6966858D01*
X6958801Y3945317D01*
X6960178Y3952240D01*
X6956461Y3970930D01*
X6949440Y3981437D01*
D02*
G37*
G36*
X6047740D02*
Y3952240D01*
X5971540D01*
Y3981437D01*
X5964519Y3970930D01*
X5960802Y3952240D01*
X5962179Y3945317D01*
X5954122Y3935500D01*
X5929100D01*
Y3858200D01*
X6009500D01*
X6089900D01*
Y3935500D01*
X6065158D01*
X6057101Y3945317D01*
X6058478Y3952240D01*
X6054761Y3970930D01*
X6047740Y3981437D01*
D02*
G37*
G36*
X5148580D02*
Y3952240D01*
X5072380D01*
Y3981437D01*
X5065359Y3970930D01*
X5061642Y3952240D01*
X5063019Y3945317D01*
X5054962Y3935500D01*
X5029100D01*
Y3858200D01*
X5109501D01*
X5189900D01*
Y3935500D01*
X5165998D01*
X5157941Y3945317D01*
X5159318Y3952240D01*
X5155601Y3970930D01*
X5148580Y3981437D01*
D02*
G37*
G36*
X9090700Y3992700D02*
X8905300D01*
Y3807300D01*
X9090700D01*
Y3992700D01*
D02*
G37*
G36*
X9252000Y3993500D02*
X9227800Y3990314D01*
X9205250Y3980973D01*
X9185886Y3966114D01*
X9171027Y3946750D01*
X9161686Y3924200D01*
X9158500Y3900000D01*
X9161686Y3875800D01*
X9171027Y3853250D01*
X9185886Y3833886D01*
X9205250Y3819027D01*
X9227800Y3809686D01*
X9252000Y3806500D01*
X9276200Y3809686D01*
X9298750Y3819027D01*
X9318114Y3833886D01*
X9332973Y3853250D01*
X9342314Y3875800D01*
X9345500Y3900000D01*
X9342314Y3924200D01*
X9332973Y3946750D01*
X9318114Y3966114D01*
X9298750Y3980973D01*
X9276200Y3990314D01*
X9252000Y3993500D01*
D02*
G37*
G36*
X7889900Y3782000D02*
X7847600D01*
Y3704700D01*
X7889900D01*
Y3782000D01*
D02*
G37*
G36*
X7771400D02*
X7729100D01*
Y3704700D01*
X7771400D01*
Y3782000D01*
D02*
G37*
G36*
X6989900Y3782000D02*
X6947600D01*
Y3704700D01*
X6989900D01*
Y3782000D01*
D02*
G37*
G36*
X6871400D02*
X6829100D01*
Y3704700D01*
X6871400D01*
Y3782000D01*
D02*
G37*
G36*
X6089900Y3782000D02*
X6047600D01*
Y3704700D01*
X6089900D01*
Y3782000D01*
D02*
G37*
G36*
X5971400D02*
X5929100D01*
Y3704700D01*
X5971400D01*
Y3782000D01*
D02*
G37*
G36*
X5189900Y3782000D02*
X5147601D01*
Y3704700D01*
X5189900D01*
Y3782000D01*
D02*
G37*
G36*
X5071401D02*
X5029100D01*
Y3704700D01*
X5071401D01*
Y3782000D01*
D02*
G37*
G36*
X1976120Y3688409D02*
X1962386Y3685677D01*
X1950742Y3677898D01*
X1942963Y3666254D01*
X1940231Y3652520D01*
X1942963Y3638786D01*
X1950742Y3627142D01*
X1962386Y3619363D01*
X1976120Y3616631D01*
X1989854Y3619363D01*
X2001498Y3627142D01*
X2009277Y3638786D01*
X2012009Y3652520D01*
X2009277Y3666254D01*
X2001498Y3677898D01*
X1989854Y3685677D01*
X1976120Y3688409D01*
D02*
G37*
G36*
X1775460D02*
X1761726Y3685677D01*
X1750082Y3677898D01*
X1742303Y3666254D01*
X1739571Y3652520D01*
X1742303Y3638786D01*
X1750082Y3627142D01*
X1761726Y3619363D01*
X1775460Y3616631D01*
X1789194Y3619363D01*
X1800838Y3627142D01*
X1808617Y3638786D01*
X1811349Y3652520D01*
X1808617Y3666254D01*
X1800838Y3677898D01*
X1789194Y3685677D01*
X1775460Y3688409D01*
D02*
G37*
G36*
X1176250Y3593390D02*
X1162516Y3590658D01*
X1150872Y3582878D01*
X1143092Y3571234D01*
X1140360Y3557500D01*
X1143092Y3543766D01*
X1150872Y3532122D01*
X1162516Y3524343D01*
X1176250Y3521611D01*
X1189984Y3524343D01*
X1201628Y3532122D01*
X1209407Y3543766D01*
X1212139Y3557500D01*
X1209407Y3571234D01*
X1201628Y3582878D01*
X1189984Y3590658D01*
X1176250Y3593390D01*
D02*
G37*
G36*
X8357200Y4722799D02*
X8221800D01*
Y4517399D01*
X8270077D01*
Y3922800D01*
X8221800D01*
Y3717401D01*
X8239088D01*
X8243948Y3705667D01*
X8206266Y3667986D01*
X8202056Y3661685D01*
X8200577Y3654252D01*
Y3610200D01*
X8147301D01*
Y3551792D01*
X8140950Y3541923D01*
X8133518Y3540445D01*
X8127216Y3536234D01*
X8127216Y3536233D01*
X8095686Y3504704D01*
X8095400Y3504276D01*
X8082700Y3508129D01*
Y3610200D01*
X7937301D01*
Y3561827D01*
X7929880D01*
X7915014Y3558869D01*
X7904640Y3551938D01*
X7900914Y3557514D01*
X7885070Y3568101D01*
X7866380Y3571818D01*
X7865218Y3571587D01*
X7855400Y3579644D01*
Y3622900D01*
X7795600D01*
Y3522500D01*
X7719400D01*
Y3622900D01*
X7659600D01*
Y3622113D01*
X7657700Y3610200D01*
X7646900Y3610200D01*
X7613127D01*
Y3632200D01*
X7610169Y3647066D01*
X7601749Y3659669D01*
X7589146Y3668089D01*
X7574280Y3671047D01*
X7559414Y3668089D01*
X7546811Y3659669D01*
X7538391Y3647066D01*
X7535433Y3632200D01*
Y3610200D01*
X7487300D01*
Y3434800D01*
X7558254D01*
Y3347900D01*
X7561211Y3333034D01*
X7564455Y3328179D01*
Y3297450D01*
X7565825Y3290563D01*
X7569726Y3284725D01*
X7575564Y3280824D01*
X7582450Y3279454D01*
X7617550D01*
X7624437Y3280824D01*
X7630275Y3284725D01*
X7634176Y3290563D01*
X7635546Y3297450D01*
Y3329619D01*
X7635890Y3330134D01*
X7638847Y3345000D01*
X7635947Y3359578D01*
Y3425820D01*
X7644927Y3434800D01*
X7657700Y3434800D01*
X7659600Y3422887D01*
Y3422100D01*
X7705440D01*
X7706691Y3409400D01*
X7705564Y3409176D01*
X7699726Y3405275D01*
X7695825Y3399437D01*
X7694455Y3392550D01*
Y3307272D01*
X7630055Y3242873D01*
X7452700D01*
Y3278393D01*
X7477760D01*
X7492626Y3281351D01*
X7505229Y3289771D01*
X7513649Y3302374D01*
X7516607Y3317240D01*
X7513649Y3332106D01*
X7505229Y3344709D01*
X7492626Y3353129D01*
X7477760Y3356087D01*
X7452700D01*
Y3400200D01*
X7277300D01*
Y3353846D01*
X7200546D01*
Y3385050D01*
X7199176Y3391937D01*
X7195275Y3397775D01*
X7193552Y3398926D01*
X7190798Y3411478D01*
X7191187Y3414277D01*
X7223155Y3446245D01*
X7227365Y3452546D01*
X7228844Y3459979D01*
X7228844Y3459980D01*
Y3479778D01*
X7234601Y3484282D01*
X7247301Y3478148D01*
Y3434800D01*
X7392700D01*
Y3610200D01*
X7339424D01*
Y3646206D01*
X7403234Y3710016D01*
X7407444Y3716318D01*
X7407660Y3717401D01*
X7457200D01*
Y3922800D01*
X7408923D01*
Y4517399D01*
X7457200D01*
Y4722799D01*
X7321800D01*
Y4517399D01*
X7370077D01*
Y3922800D01*
X7321800D01*
Y3717401D01*
X7339088D01*
X7343948Y3705667D01*
X7306266Y3667986D01*
X7302056Y3661685D01*
X7300577Y3654252D01*
Y3610200D01*
X7247301D01*
Y3551792D01*
X7240950Y3541923D01*
X7233518Y3540445D01*
X7227216Y3536234D01*
X7227216Y3536233D01*
X7195686Y3504704D01*
X7195400Y3504276D01*
X7182700Y3508129D01*
Y3610200D01*
X7037301D01*
Y3559287D01*
X7025640D01*
X7010774Y3556329D01*
X6998644Y3548224D01*
X6994134Y3554974D01*
X6978290Y3565561D01*
X6959600Y3569278D01*
X6955400Y3572725D01*
Y3622900D01*
X6895600D01*
Y3522500D01*
X6819400D01*
Y3622900D01*
X6759600D01*
Y3622113D01*
X6757700Y3610200D01*
X6746900Y3610200D01*
X6587301D01*
Y3561827D01*
X6563360D01*
X6548494Y3558869D01*
X6535891Y3550449D01*
X6527471Y3537846D01*
X6524513Y3522980D01*
X6527471Y3508114D01*
X6535891Y3495511D01*
X6548494Y3487091D01*
X6563360Y3484133D01*
X6587301D01*
Y3434800D01*
X6658254D01*
Y3347900D01*
X6661211Y3333034D01*
X6664455Y3328179D01*
Y3297450D01*
X6665824Y3290563D01*
X6669725Y3284725D01*
X6675563Y3280824D01*
X6682450Y3279454D01*
X6717550D01*
X6724437Y3280824D01*
X6730275Y3284725D01*
X6734176Y3290563D01*
X6735546Y3297450D01*
Y3329619D01*
X6735889Y3330134D01*
X6738847Y3345000D01*
X6735947Y3359578D01*
Y3425820D01*
X6744927Y3434800D01*
X6757700Y3434800D01*
X6759600Y3422887D01*
Y3422100D01*
X6805440D01*
X6806691Y3409400D01*
X6805563Y3409176D01*
X6799725Y3405275D01*
X6795824Y3399437D01*
X6794455Y3392550D01*
Y3297450D01*
X6795824Y3290563D01*
X6799725Y3284725D01*
X6805563Y3280824D01*
X6812450Y3279454D01*
X6845277D01*
X6865845Y3258886D01*
X6869868Y3256198D01*
X6869992Y3255573D01*
X6863021Y3242873D01*
X6755059D01*
X6747626Y3241394D01*
X6741325Y3237184D01*
X6686266Y3182125D01*
X6682055Y3175824D01*
X6680577Y3168391D01*
Y3165173D01*
X6675563Y3164176D01*
X6669726Y3160275D01*
X6663188Y3159631D01*
X6587534Y3235284D01*
X6581233Y3239494D01*
X6573800Y3240973D01*
X6552700D01*
Y3278393D01*
X6578600D01*
X6593466Y3281351D01*
X6606069Y3289771D01*
X6614489Y3302374D01*
X6617447Y3317240D01*
X6614489Y3332106D01*
X6606069Y3344709D01*
X6593466Y3353129D01*
X6578600Y3356087D01*
X6552700D01*
Y3400200D01*
X6377300D01*
Y3353846D01*
X6300546D01*
Y3385050D01*
X6299176Y3391937D01*
X6295275Y3397775D01*
X6293552Y3398926D01*
X6290798Y3411478D01*
X6291187Y3414277D01*
X6323155Y3446245D01*
X6327365Y3452546D01*
X6328844Y3459979D01*
X6328844Y3459980D01*
Y3479778D01*
X6334601Y3484282D01*
X6347301Y3478148D01*
Y3434800D01*
X6492701D01*
Y3610200D01*
X6470413D01*
X6465552Y3621933D01*
X6503234Y3659615D01*
X6507444Y3665916D01*
X6508923Y3673349D01*
X6508923Y3673350D01*
Y3717401D01*
X6557200D01*
Y3922800D01*
X6508923D01*
Y4517399D01*
X6557200D01*
Y4722799D01*
X6421800D01*
Y4517399D01*
X6470077D01*
Y3922800D01*
X6421800D01*
Y3717401D01*
X6470077D01*
Y3681394D01*
X6406266Y3617584D01*
X6402056Y3611283D01*
X6401841Y3610200D01*
X6347301D01*
Y3551792D01*
X6340950Y3541923D01*
X6333518Y3540445D01*
X6327216Y3536234D01*
X6327216Y3536233D01*
X6295686Y3504704D01*
X6295400Y3504276D01*
X6282700Y3508129D01*
Y3610200D01*
X6137301D01*
Y3559287D01*
X6126480D01*
X6111614Y3556329D01*
X6101240Y3549398D01*
X6097514Y3554974D01*
X6081670Y3565561D01*
X6062980Y3569278D01*
X6055400Y3575499D01*
Y3622900D01*
X5995600D01*
Y3522500D01*
X5919400D01*
Y3622900D01*
X5859600D01*
Y3622113D01*
X5857700Y3610200D01*
X5846900Y3610200D01*
X5687301D01*
Y3552792D01*
X5675870Y3548688D01*
X5674601Y3548675D01*
X5661660Y3551249D01*
X5647926Y3548517D01*
X5636282Y3540738D01*
X5628503Y3529094D01*
X5625771Y3515360D01*
X5628503Y3501626D01*
X5636282Y3489982D01*
X5647926Y3482203D01*
X5661660Y3479471D01*
X5674601Y3482045D01*
X5675870Y3482032D01*
X5687301Y3477928D01*
Y3434800D01*
X5774190D01*
X5775441Y3422100D01*
X5770608Y3421139D01*
X5760569Y3414431D01*
X5753861Y3404392D01*
X5751506Y3392550D01*
Y3383100D01*
X5800000D01*
Y3306900D01*
X5751506D01*
Y3297450D01*
X5752678Y3291555D01*
X5749303Y3289300D01*
X5778500D01*
Y3215176D01*
X5776424Y3213100D01*
X5749303D01*
X5754799Y3209428D01*
X5757839Y3194508D01*
X5731458Y3168127D01*
X5722056Y3167375D01*
X5715810Y3168686D01*
X5713974Y3171434D01*
X5698130Y3182021D01*
X5679440Y3185738D01*
X5675218Y3184898D01*
X5665400Y3192955D01*
Y3227900D01*
X5664613D01*
X5652700Y3229800D01*
X5652700Y3240600D01*
Y3278913D01*
X5665400Y3281747D01*
X5665706Y3281543D01*
X5679440Y3278811D01*
X5693174Y3281543D01*
X5704818Y3289322D01*
X5712597Y3300966D01*
X5715329Y3314700D01*
X5712597Y3328434D01*
X5704818Y3340078D01*
X5693174Y3347857D01*
X5679440Y3350589D01*
X5665706Y3347857D01*
X5665400Y3347653D01*
X5652700Y3350487D01*
Y3400200D01*
X5477300D01*
Y3347372D01*
X5408410D01*
X5403841Y3351940D01*
X5400546Y3354142D01*
Y3385050D01*
X5399176Y3391937D01*
X5395275Y3397775D01*
X5393552Y3398926D01*
X5390798Y3411478D01*
X5391187Y3414277D01*
X5423155Y3446245D01*
X5427365Y3452546D01*
X5428844Y3459979D01*
X5428844Y3459980D01*
Y3479778D01*
X5434601Y3484282D01*
X5447301Y3478148D01*
Y3434800D01*
X5592700D01*
Y3610200D01*
X5570413D01*
X5565552Y3621933D01*
X5603234Y3659615D01*
X5607444Y3665916D01*
X5608923Y3673349D01*
Y3717401D01*
X5657200D01*
Y3922800D01*
X5608923D01*
Y4517399D01*
X5657200D01*
Y4722799D01*
X5521800D01*
Y4517399D01*
X5570077D01*
Y3922800D01*
X5521800D01*
Y3717401D01*
X5570077D01*
Y3681395D01*
X5506266Y3617584D01*
X5502056Y3611283D01*
X5501840Y3610200D01*
X5447301D01*
Y3551792D01*
X5440950Y3541923D01*
X5433517Y3540445D01*
X5427216Y3536234D01*
X5427215Y3536233D01*
X5395686Y3504704D01*
X5395400Y3504276D01*
X5382700Y3508129D01*
Y3610200D01*
X5354020D01*
X5351678Y3612191D01*
X5345180Y3622900D01*
X5347029Y3632200D01*
X5344297Y3645934D01*
X5336518Y3657578D01*
X5324874Y3665357D01*
X5311140Y3668089D01*
X5297406Y3665357D01*
X5285762Y3657578D01*
X5277983Y3645934D01*
X5275251Y3632200D01*
X5277100Y3622900D01*
X5270602Y3612191D01*
X5268260Y3610200D01*
X5237300D01*
Y3434800D01*
X5293239D01*
X5298099Y3423067D01*
X5278077Y3403046D01*
X5242451D01*
X5235564Y3401676D01*
X5233138Y3400055D01*
X5227558Y3398584D01*
X5226069Y3399140D01*
X5216561Y3407771D01*
X5220278Y3426460D01*
X5216561Y3445150D01*
X5209540Y3455657D01*
Y3426460D01*
X5171440D01*
Y3388360D01*
X5117165D01*
X5117113Y3388100D01*
X5170001D01*
Y3350000D01*
X5208101D01*
Y3288839D01*
X5214432Y3293069D01*
X5217500Y3297662D01*
X5227558Y3301416D01*
X5233138Y3299945D01*
X5235564Y3298324D01*
X5242451Y3296954D01*
X5287550D01*
X5294437Y3298324D01*
X5300275Y3302225D01*
X5304176Y3308063D01*
X5305546Y3314950D01*
Y3363540D01*
X5306755Y3364348D01*
X5319455Y3357560D01*
Y3314950D01*
X5320825Y3308063D01*
X5324726Y3302225D01*
X5330564Y3298324D01*
X5337451Y3296954D01*
X5367060D01*
X5367316Y3296903D01*
X5372110Y3292109D01*
X5382612Y3285092D01*
X5395001Y3282628D01*
X5477300D01*
X5477300Y3229800D01*
X5465387Y3227900D01*
X5464600D01*
Y3168100D01*
X5565000D01*
Y3091900D01*
X5464600D01*
Y3055373D01*
X5404302D01*
X5400546Y3059950D01*
Y3130050D01*
X5399176Y3136937D01*
X5395275Y3142775D01*
X5389437Y3146676D01*
X5382550Y3148046D01*
X5337451D01*
X5330564Y3146676D01*
X5324726Y3142775D01*
X5320825Y3136937D01*
X5319455Y3130050D01*
Y3059950D01*
X5315699Y3055373D01*
X5225175D01*
X5210546Y3070002D01*
Y3130050D01*
X5209176Y3136937D01*
X5205275Y3142775D01*
X5199437Y3146676D01*
X5192550Y3148046D01*
X5147451D01*
X5140564Y3146676D01*
X5134726Y3142775D01*
X5130825Y3136937D01*
X5129455Y3130050D01*
Y3059950D01*
X5130825Y3053063D01*
X5134726Y3047225D01*
X5140564Y3043324D01*
X5147451Y3041954D01*
X5183657D01*
X5203395Y3022216D01*
X5203396Y3022215D01*
X5209697Y3018005D01*
X5217130Y3016527D01*
X5720675D01*
X5728108Y3018005D01*
X5734410Y3022215D01*
X5754134Y3041940D01*
X5755262Y3042289D01*
X5764409Y3041994D01*
X5769248Y3040439D01*
X5769726Y3039725D01*
X5775564Y3035824D01*
X5782450Y3034454D01*
X5817550D01*
X5824437Y3035824D01*
X5830275Y3039725D01*
X5834176Y3045563D01*
X5835546Y3052450D01*
Y3147550D01*
X5834176Y3154436D01*
X5830919Y3159311D01*
X5843535Y3171927D01*
X5884756D01*
X5890400Y3168155D01*
X5892541Y3164795D01*
X5895824Y3154437D01*
X5895643Y3153522D01*
X5894455Y3147550D01*
Y3052450D01*
X5895825Y3045563D01*
X5898078Y3042190D01*
Y3029216D01*
X5897743Y3028714D01*
X5895011Y3014980D01*
X5897743Y3001246D01*
X5905522Y2989602D01*
X5917166Y2981823D01*
X5930900Y2979091D01*
X5944634Y2981823D01*
X5956278Y2989602D01*
X5964057Y3001246D01*
X5966789Y3014980D01*
X5964057Y3028714D01*
X5962822Y3030563D01*
Y3043537D01*
X5964176Y3045563D01*
X5965546Y3052450D01*
Y3147550D01*
X5964176Y3154436D01*
X5960275Y3160275D01*
X5954437Y3164176D01*
X5947550Y3165545D01*
X5938657D01*
X5937099Y3167443D01*
X5933031Y3178245D01*
X5938657Y3186666D01*
X5940307Y3194959D01*
X5953483Y3199743D01*
X6002917Y3150310D01*
Y3042920D01*
X6004395Y3035487D01*
X6008606Y3029186D01*
X6031466Y3006326D01*
X6037767Y3002115D01*
X6045200Y3000637D01*
X6089054D01*
X6306885Y2782806D01*
X6313186Y2778595D01*
X6320619Y2777117D01*
X6332300D01*
Y2707738D01*
X6331025Y2706395D01*
X6317286Y2710368D01*
X6317117Y2711214D01*
X6309338Y2722858D01*
X6297694Y2730637D01*
X6283960Y2733369D01*
X6280400Y2732661D01*
X6267700Y2743061D01*
Y2787700D01*
X6122300D01*
Y2617843D01*
X6122300Y2612300D01*
X6112565Y2605143D01*
X4082775D01*
X4077948Y2612368D01*
X4066304Y2620147D01*
X4052570Y2622879D01*
X4038836Y2620147D01*
X4027192Y2612368D01*
X4019413Y2600724D01*
X4016681Y2586990D01*
X4018627Y2577203D01*
X4011149Y2564503D01*
X3938416D01*
X3934438Y2570458D01*
X3922794Y2578237D01*
X3909060Y2580969D01*
X3895326Y2578237D01*
X3883682Y2570458D01*
X3875903Y2558814D01*
X3873171Y2545080D01*
X3875370Y2534023D01*
X3868488Y2521323D01*
X2156885D01*
X1949920Y2728288D01*
X1956176Y2739993D01*
X1968500Y2737542D01*
X1987190Y2741259D01*
X1993893Y2745738D01*
X2001520Y2749900D01*
Y2786380D01*
X1930400D01*
Y2815577D01*
X1923379Y2805070D01*
X1919662Y2786380D01*
X1923025Y2769471D01*
X1922196Y2767837D01*
X1918957Y2763903D01*
X1913664Y2759370D01*
X1910080Y2760083D01*
X1743249D01*
X1735234Y2772783D01*
X1737938Y2786380D01*
X1734221Y2805070D01*
X1727200Y2815577D01*
Y2786380D01*
X1582420D01*
Y2815577D01*
X1575399Y2805070D01*
X1571682Y2786380D01*
X1574386Y2772783D01*
X1566371Y2760083D01*
X1520852D01*
X1514064Y2772783D01*
X1516517Y2776456D01*
X1519249Y2790190D01*
X1516517Y2803924D01*
X1508738Y2815568D01*
X1497094Y2823347D01*
X1483360Y2826079D01*
X1469626Y2823347D01*
X1457983Y2815568D01*
X1447806D01*
X1444234Y2820914D01*
X1428390Y2831501D01*
X1409700Y2835218D01*
X1391010Y2831501D01*
X1381760Y2825320D01*
Y2786380D01*
X1447800D01*
Y2757183D01*
X1447948Y2757405D01*
X1452047Y2760431D01*
X1463937Y2754045D01*
Y2748280D01*
X1465415Y2740847D01*
X1469626Y2734546D01*
X1477245Y2726926D01*
X1477246Y2726926D01*
X1483547Y2722715D01*
X1490980Y2721237D01*
X1779339D01*
X1781921Y2708537D01*
X1772942Y2702538D01*
X1765163Y2690894D01*
X1762431Y2677160D01*
X1765163Y2663426D01*
X1772942Y2651782D01*
X1784586Y2644003D01*
X1798320Y2641271D01*
X1812054Y2644003D01*
X1823698Y2651782D01*
X1827676Y2657737D01*
X1880743D01*
X1882324Y2655806D01*
X1886369Y2645037D01*
X1880733Y2636602D01*
X1878001Y2622867D01*
X1880733Y2609133D01*
X1888512Y2597490D01*
X1900156Y2589710D01*
X1913890Y2586978D01*
X1922768Y2588744D01*
X2229086Y2282426D01*
X2235387Y2278215D01*
X2242820Y2276737D01*
X2704675D01*
X3300966Y1680446D01*
X3307267Y1676235D01*
X3314700Y1674757D01*
X3422100D01*
Y1632508D01*
X3412283Y1624451D01*
X3403600Y1626178D01*
X3384910Y1622461D01*
X3374403Y1615440D01*
X3403600D01*
Y1539240D01*
X3374403D01*
X3384910Y1532219D01*
X3403600Y1528502D01*
X3412283Y1530229D01*
X3422100Y1522172D01*
Y1479600D01*
X3469400D01*
Y1580000D01*
X3507500D01*
Y1618100D01*
X3592900D01*
Y1674757D01*
X3635023D01*
X3644800Y1667700D01*
Y1492300D01*
X3705577D01*
Y1466861D01*
X3692877Y1459214D01*
X3683450Y1461090D01*
X3669716Y1458358D01*
X3658072Y1450578D01*
X3654094Y1444623D01*
X3639821D01*
X3639820Y1444623D01*
X3632387Y1443145D01*
X3626086Y1438934D01*
X3626085Y1438934D01*
X3609715Y1422564D01*
X3600400Y1415401D01*
Y1415400D01*
X3600399Y1415400D01*
X3538100D01*
Y1317500D01*
X3461900D01*
Y1415400D01*
X3399600D01*
Y1372332D01*
X3389783Y1364275D01*
X3388360Y1364558D01*
X3369670Y1360841D01*
X3359163Y1353820D01*
X3388360D01*
Y1277620D01*
X3359163D01*
X3369670Y1270599D01*
X3388360Y1266882D01*
X3389783Y1267165D01*
X3399600Y1259108D01*
Y1243703D01*
X3393440D01*
X3386007Y1242225D01*
X3379706Y1238014D01*
X3359386Y1217694D01*
X3355175Y1211393D01*
X3353697Y1203960D01*
Y1148505D01*
X3338703Y1133511D01*
X3326998Y1139767D01*
X3328147Y1145540D01*
X3325189Y1160406D01*
X3316769Y1173009D01*
X3012309Y1477468D01*
X2999706Y1485889D01*
X2984840Y1488846D01*
X2552700D01*
Y1537700D01*
X2382300Y1537700D01*
X2380400Y1549613D01*
Y1550400D01*
X2320600D01*
Y1450000D01*
Y1349600D01*
X2380400D01*
Y1350387D01*
X2382300Y1362300D01*
X2393100Y1362300D01*
X2428654D01*
Y1275000D01*
X2431611Y1260134D01*
X2440031Y1247531D01*
X2449053Y1238510D01*
Y1227100D01*
X2449456Y1225078D01*
Y1192375D01*
X2450820Y1185518D01*
X2454704Y1179704D01*
X2460518Y1175820D01*
X2467375Y1174456D01*
X2577625D01*
X2584482Y1175820D01*
X2590296Y1179704D01*
X2594180Y1185518D01*
X2595544Y1192375D01*
Y1247625D01*
X2594180Y1254483D01*
X2590296Y1260296D01*
X2584482Y1264181D01*
X2577625Y1265545D01*
X2524569D01*
X2523789Y1269466D01*
X2515368Y1282069D01*
X2506347Y1291091D01*
Y1362300D01*
X2552700D01*
Y1411153D01*
X2968749D01*
X3261831Y1118071D01*
X3267681Y1114163D01*
X3263828Y1101463D01*
X3213101D01*
X3213100Y1101463D01*
X3205667Y1099985D01*
X3199366Y1095774D01*
X3199365Y1095774D01*
X3163100Y1059508D01*
X3150400Y1064769D01*
Y1090400D01*
X3103459D01*
X3095402Y1100218D01*
X3096838Y1107440D01*
X3093121Y1126130D01*
X3086100Y1136637D01*
Y1107440D01*
X3009900D01*
Y1136637D01*
X3002879Y1126130D01*
X2999162Y1107440D01*
X3000598Y1100218D01*
X2992541Y1090400D01*
X2949600D01*
Y1030600D01*
X3050000D01*
Y954400D01*
X2949600D01*
Y918583D01*
X2925400D01*
Y954400D01*
X2825000D01*
Y1030600D01*
X2925400D01*
Y1090400D01*
X2877399D01*
X2869342Y1100218D01*
X2870778Y1107440D01*
X2867061Y1126130D01*
X2860040Y1136637D01*
Y1107440D01*
X2783840D01*
Y1136637D01*
X2776819Y1126130D01*
X2773102Y1107440D01*
X2774538Y1100218D01*
X2766481Y1090400D01*
X2724600D01*
Y1010962D01*
X2719281Y1007712D01*
X2711900Y1006188D01*
X2674354Y1043735D01*
X2668053Y1047945D01*
X2660620Y1049423D01*
X2595544D01*
Y1057625D01*
X2594180Y1064483D01*
X2590296Y1070296D01*
X2584482Y1074181D01*
X2577625Y1075545D01*
X2479984D01*
X2321794Y1233734D01*
X2315493Y1237945D01*
X2308060Y1239423D01*
X2300544D01*
Y1247625D01*
X2299180Y1254483D01*
X2295296Y1260296D01*
X2289482Y1264181D01*
X2282625Y1265545D01*
X2172375D01*
X2165518Y1264181D01*
X2159704Y1260296D01*
X2155820Y1254483D01*
X2154456Y1247625D01*
Y1192375D01*
X2155820Y1185518D01*
X2153920Y1182570D01*
Y1125220D01*
Y1067457D01*
X2155820Y1064483D01*
X2154456Y1057625D01*
Y1002375D01*
X2155820Y995518D01*
X2159704Y989704D01*
X2165518Y985820D01*
X2172375Y984456D01*
X2186154D01*
Y963745D01*
X929620Y963745D01*
X916853Y963746D01*
X915552Y963207D01*
X914171Y963482D01*
X889129Y958501D01*
X887958Y957719D01*
X886550D01*
X862960Y947948D01*
X861964Y946952D01*
X860583Y946678D01*
X839353Y932492D01*
X838571Y931321D01*
X837270Y930783D01*
X819216Y912728D01*
X818677Y911427D01*
X817506Y910645D01*
X803321Y889415D01*
X803046Y888034D01*
X802050Y887038D01*
X792280Y863448D01*
Y862040D01*
X791498Y860869D01*
X786517Y835826D01*
X786792Y834446D01*
X786253Y833145D01*
X786253Y820378D01*
Y400000D01*
X786253Y390055D01*
X787299Y387528D01*
Y384794D01*
X794911Y366417D01*
X796844Y364483D01*
X797890Y361957D01*
X811956Y347891D01*
X814482Y346845D01*
X816415Y344912D01*
X834792Y337300D01*
X837527D01*
X840053Y336253D01*
X849999Y336254D01*
X1101227D01*
X1101562Y336392D01*
X1101903Y336270D01*
X1104355Y336391D01*
X1104681Y336545D01*
X1105026Y336440D01*
X1107469Y336681D01*
X1107788Y336851D01*
X1108140Y336764D01*
X1109129Y336910D01*
X1110715Y336254D01*
X1110718D01*
X1110719Y336253D01*
X1110719Y336254D01*
X1184946D01*
X1187471Y337300D01*
X1190206D01*
X1208583Y344912D01*
X1210517Y346845D01*
X1213043Y347892D01*
X1227108Y361957D01*
X1228155Y364483D01*
X1230088Y366417D01*
X1237700Y384794D01*
Y387528D01*
X1238747Y390054D01*
Y599326D01*
X1239441Y606378D01*
X1245080Y619991D01*
X1255008Y629918D01*
X1268621Y635556D01*
X1275678Y636251D01*
X1423615Y636251D01*
X1429232Y624861D01*
X1423199Y616998D01*
X1414874Y596900D01*
X1524000D01*
X1633126D01*
X1624801Y616998D01*
X1618767Y624861D01*
X1624385Y636252D01*
X2199904Y636253D01*
Y587700D01*
X2192300D01*
Y502300D01*
X2216154D01*
Y472960D01*
X2219111Y458094D01*
X2227531Y445491D01*
X2240134Y437070D01*
X2255000Y434113D01*
X2269866Y437070D01*
X2282469Y445491D01*
X2290889Y458094D01*
X2293847Y472960D01*
Y502300D01*
X2317700D01*
Y587700D01*
X2277597D01*
Y636253D01*
X2309945D01*
X2312471Y637300D01*
X2315205D01*
X2333582Y644912D01*
X2335516Y646845D01*
X2338042Y647892D01*
X2352107Y661957D01*
X2353153Y664483D01*
X2355086Y666416D01*
X2362698Y684793D01*
Y687527D01*
X2363745Y690053D01*
Y699998D01*
X2363745Y699999D01*
X2363745Y699999D01*
X2363745Y899999D01*
X2363746Y909944D01*
X2362699Y912471D01*
Y915205D01*
X2355087Y933583D01*
X2353154Y935516D01*
X2352107Y938043D01*
X2338042Y952108D01*
X2335516Y953154D01*
X2333582Y955087D01*
X2316970Y961968D01*
X2314650D01*
X2312566Y962987D01*
X2300860Y963718D01*
X2300427Y963569D01*
X2300004Y963744D01*
X2300000D01*
X2299998Y963745D01*
X2263847D01*
Y984456D01*
X2282625D01*
X2289482Y985820D01*
X2295296Y989704D01*
X2299180Y995518D01*
X2300544Y1002375D01*
Y1057625D01*
X2299180Y1064483D01*
X2295696Y1069697D01*
X2304452Y1075548D01*
X2311143Y1085562D01*
X2311409Y1086900D01*
X2227500D01*
Y1163100D01*
X2311409D01*
X2311143Y1164438D01*
X2305086Y1173503D01*
X2304588Y1174905D01*
X2305311Y1177320D01*
X2319653Y1180938D01*
X2449456Y1051136D01*
Y1002375D01*
X2450820Y995518D01*
X2454704Y989704D01*
X2460518Y985820D01*
X2467375Y984456D01*
X2577625D01*
X2584482Y985820D01*
X2590296Y989704D01*
X2594180Y995518D01*
X2595544Y1002375D01*
Y1010577D01*
X2652574D01*
X2680597Y982555D01*
Y967754D01*
X2670037Y960699D01*
X2665206Y962700D01*
X2662472D01*
X2659945Y963746D01*
X2450000D01*
X2449999Y963746D01*
X2440054Y963746D01*
X2437528Y962700D01*
X2434793D01*
X2416417Y955087D01*
X2414483Y953154D01*
X2411957Y952108D01*
X2397892Y938043D01*
X2396845Y935516D01*
X2394912Y933583D01*
X2387300Y915206D01*
Y912472D01*
X2386254Y909945D01*
X2386254Y899999D01*
X2386254Y550000D01*
X2386253Y540054D01*
X2387300Y537528D01*
Y534793D01*
X2394912Y516417D01*
X2396845Y514483D01*
X2397891Y511957D01*
X2397892Y511956D01*
X2398147Y511702D01*
X2400673Y510655D01*
X2401703Y509625D01*
X2401543Y499918D01*
X2401246Y496585D01*
X2391770Y494701D01*
X2381263Y487680D01*
X2410460D01*
Y411480D01*
X2381263D01*
X2391770Y404459D01*
X2409521Y400928D01*
X2419600Y394600D01*
X2419600Y394600D01*
X2419601Y394600D01*
X2432300D01*
Y312300D01*
X2557700D01*
Y331097D01*
X4047344D01*
X4051322Y325142D01*
X4062966Y317363D01*
X4076700Y314631D01*
X4090434Y317363D01*
X4102078Y325142D01*
X4109857Y336786D01*
X4112589Y350520D01*
X4109857Y364254D01*
X4102078Y375898D01*
X4090435Y383677D01*
X4088232Y389664D01*
X4088044Y397889D01*
X4102110Y411955D01*
X4103156Y414482D01*
X4105090Y416415D01*
X4112701Y434794D01*
X4112701Y437529D01*
X4113747Y440056D01*
X4113746Y450002D01*
X4113746Y574600D01*
X4117111Y579636D01*
X4124969Y581042D01*
X4136254Y571587D01*
Y300000D01*
X4136254Y280301D01*
X4136793Y279000D01*
X4136518Y277619D01*
X4144204Y238980D01*
X4144986Y237809D01*
Y236401D01*
X4160062Y200003D01*
X4161058Y199008D01*
X4161333Y197627D01*
X4183220Y164870D01*
X4184391Y164088D01*
X4184930Y162787D01*
X4212787Y134929D01*
X4214088Y134390D01*
X4214870Y133220D01*
X4247627Y111332D01*
X4249008Y111057D01*
X4250004Y110062D01*
X4286401Y94986D01*
X4287810D01*
X4288980Y94204D01*
X4327619Y86517D01*
X4329001Y86792D01*
X4330302Y86253D01*
X4350000Y86254D01*
X8674999D01*
X8684849Y86253D01*
X8686150Y86792D01*
X8687531Y86517D01*
X8706851Y90360D01*
X8708021Y91143D01*
X8709429D01*
X8727628Y98681D01*
X8728624Y99677D01*
X8730004Y99951D01*
X8746383Y110895D01*
X8747165Y112066D01*
X8748466Y112604D01*
X8762395Y126533D01*
X8762934Y127834D01*
X8764105Y128616D01*
X8775048Y144995D01*
X8775323Y146376D01*
X8776318Y147372D01*
X8783857Y165570D01*
Y166978D01*
X8784639Y168149D01*
X8788482Y187469D01*
X8788207Y188850D01*
X8788746Y190151D01*
X8788746Y200000D01*
X8788747Y725000D01*
X8788746Y725001D01*
Y732387D01*
X8788208Y733688D01*
X8788482Y735069D01*
X8785600Y749559D01*
X8784818Y750730D01*
Y752137D01*
X8779164Y765786D01*
X8778169Y766782D01*
X8777894Y768163D01*
X8769686Y780447D01*
X8768515Y781229D01*
X8767976Y782530D01*
X8757530Y792976D01*
X8756229Y793515D01*
X8755447Y794686D01*
X8743163Y802893D01*
X8741782Y803168D01*
X8740786Y804164D01*
X8727137Y809817D01*
X8725729D01*
X8724559Y810599D01*
X8710069Y813481D01*
X8708687Y813207D01*
X8707386Y813746D01*
X8700000Y813745D01*
X8550000Y813745D01*
X8365151Y813746D01*
X8363850Y813208D01*
X8362469Y813482D01*
X8343149Y809639D01*
X8341978Y808857D01*
X8340570D01*
X8322371Y801319D01*
X8321376Y800323D01*
X8319995Y800048D01*
X8303616Y789105D01*
X8302834Y787934D01*
X8301534Y787395D01*
X8287604Y773466D01*
X8287065Y772165D01*
X8285895Y771383D01*
X8274951Y755005D01*
X8274676Y753624D01*
X8273681Y752628D01*
X8266143Y734429D01*
Y733021D01*
X8265360Y731850D01*
X8261518Y712531D01*
X8261792Y711150D01*
X8261253Y709849D01*
Y550675D01*
X8260559Y543622D01*
X8254920Y530009D01*
X8244991Y520080D01*
X8231378Y514441D01*
X8224326Y513747D01*
X8088846D01*
Y725000D01*
X8085889Y739866D01*
X8077468Y752469D01*
X8016309Y813628D01*
Y831371D01*
X8077468Y892531D01*
X8082405Y899919D01*
X8095105Y896067D01*
Y882700D01*
X8092300D01*
Y767300D01*
X8197700D01*
Y821895D01*
X8198695Y826900D01*
Y934416D01*
X8201795Y950000D01*
X8197853Y969821D01*
X8186625Y986625D01*
X8169821Y997852D01*
X8150000Y1001795D01*
X8130179Y997852D01*
X8115400Y987977D01*
X8108279Y990102D01*
X8102700Y993910D01*
Y1022763D01*
X8141091Y1061154D01*
X9013500D01*
X9028366Y1064111D01*
X9040969Y1072532D01*
X9214237Y1245800D01*
X9215847D01*
X9219600Y1245053D01*
X9235009D01*
X9322300Y1157762D01*
Y1037300D01*
X9467700D01*
Y1212700D01*
X9377238D01*
X9278569Y1311368D01*
X9265966Y1319789D01*
X9257700Y1321434D01*
Y1354200D01*
X9169300D01*
Y1310737D01*
X8997409Y1138847D01*
X8125000D01*
X8110134Y1135890D01*
X8097531Y1127469D01*
X8052763Y1082700D01*
X7997300D01*
Y967300D01*
X8011153D01*
Y936091D01*
X7957763Y882700D01*
X7902300D01*
Y767300D01*
X7952763D01*
X8011153Y708909D01*
Y495849D01*
X8004151Y488847D01*
X7962700D01*
Y517700D01*
X7787300D01*
Y449246D01*
X7729281D01*
X7725217Y448438D01*
X7715400Y456495D01*
Y492541D01*
X7725217Y500598D01*
X7729220Y499802D01*
X7747910Y503519D01*
X7758417Y510540D01*
X7729220D01*
Y548640D01*
X7691120D01*
Y600400D01*
X7658111D01*
X7651712Y613100D01*
X7656916Y620889D01*
X7659958Y636180D01*
Y648049D01*
X7787300D01*
Y582300D01*
X7962700D01*
Y727700D01*
X7787300D01*
Y686895D01*
X7659958D01*
Y698764D01*
X7656916Y714055D01*
X7648255Y727018D01*
X7635291Y735680D01*
X7620000Y738722D01*
X7604709Y735680D01*
X7602136Y733961D01*
X7596465Y739633D01*
X7596465Y739633D01*
X7573063Y763034D01*
X7566762Y767245D01*
X7559329Y768723D01*
X7312700D01*
Y803653D01*
X7355060D01*
X7369926Y806611D01*
X7382529Y815031D01*
X7391489Y823992D01*
X7401745Y822981D01*
X7414709Y814320D01*
X7430000Y811278D01*
X7445291Y814320D01*
X7458255Y822982D01*
X7466916Y835945D01*
X7469958Y851236D01*
Y913820D01*
X7466916Y929111D01*
X7458255Y942075D01*
X7445291Y950736D01*
X7430000Y953778D01*
X7414709Y950736D01*
X7401745Y942075D01*
X7393084Y929111D01*
X7390042Y913820D01*
Y912607D01*
X7386320D01*
X7371454Y909649D01*
X7358851Y901229D01*
X7338969Y881346D01*
X7312700D01*
Y927700D01*
X7137300D01*
Y884570D01*
X7136380Y883056D01*
X7124600Y875134D01*
X7117080Y876629D01*
X7103346Y873897D01*
X7091702Y866118D01*
X7090783Y864742D01*
X7078083Y868595D01*
Y908850D01*
X7076605Y916283D01*
X7072394Y922584D01*
X7008853Y986126D01*
X7007693Y986900D01*
X7011546Y999600D01*
X7044400D01*
Y1100000D01*
Y1200400D01*
X6984600D01*
Y1155716D01*
X6974783Y1147659D01*
X6969760Y1148658D01*
X6951070Y1144941D01*
X6940563Y1137920D01*
X6969760D01*
Y1061720D01*
X6940563D01*
X6951070Y1054699D01*
X6969760Y1050982D01*
X6974783Y1051981D01*
X6984600Y1043924D01*
Y1004515D01*
X6984600Y999600D01*
X6975125Y991814D01*
X6689875D01*
X6680400Y999600D01*
Y1000387D01*
X6682303Y1012300D01*
X6693100Y1012300D01*
X6852700D01*
Y1055401D01*
X6865400Y1064985D01*
X6870700Y1063931D01*
X6884434Y1066663D01*
X6896078Y1074442D01*
X6903857Y1086086D01*
X6906589Y1099820D01*
X6903857Y1113554D01*
X6896078Y1125198D01*
X6884434Y1132977D01*
X6870700Y1135709D01*
X6865400Y1134655D01*
X6852700Y1144239D01*
Y1187700D01*
X6807372D01*
Y1209353D01*
X6820072Y1217738D01*
X6825000Y1216758D01*
X6835808Y1218907D01*
X6844971Y1225030D01*
X6855030D01*
X6864192Y1218907D01*
X6875000Y1216758D01*
X6885808Y1218907D01*
X6894971Y1225030D01*
X6905030D01*
X6914192Y1218907D01*
X6925000Y1216758D01*
X6935808Y1218907D01*
X6944971Y1225030D01*
X6955030D01*
X6964192Y1218907D01*
X6975000Y1216758D01*
X6985808Y1218907D01*
X6994971Y1225030D01*
X7005030D01*
X7014192Y1218907D01*
X7025000Y1216758D01*
X7035808Y1218907D01*
X7044971Y1225030D01*
X7055030D01*
X7064192Y1218907D01*
X7075000Y1216758D01*
X7085808Y1218907D01*
X7094971Y1225030D01*
X7105030D01*
X7114192Y1218907D01*
X7125000Y1216758D01*
X7135808Y1218907D01*
X7144971Y1225030D01*
X7155030D01*
X7164192Y1218907D01*
X7175000Y1216758D01*
X7185808Y1218907D01*
X7194971Y1225030D01*
X7205030D01*
X7214192Y1218907D01*
X7225000Y1216758D01*
X7235808Y1218907D01*
X7244971Y1225030D01*
X7255030D01*
X7258538Y1222685D01*
X7266775Y1212153D01*
X7265297Y1204720D01*
Y1187700D01*
X7182300Y1187700D01*
X7180400Y1199613D01*
Y1200400D01*
X7120600D01*
Y1100000D01*
Y999600D01*
X7180400D01*
Y1000387D01*
X7182300Y1012300D01*
X7193100Y1012300D01*
X7352700D01*
Y1187700D01*
X7313129D01*
X7307869Y1200400D01*
X7324355Y1216886D01*
X7325000Y1216758D01*
X7335808Y1218907D01*
X7341366Y1222620D01*
X7341368Y1222616D01*
X7344975Y1225026D01*
X7351098Y1234190D01*
X7353248Y1245000D01*
Y1320000D01*
X7392623D01*
Y1253100D01*
X7395088Y1240710D01*
X7398673Y1235343D01*
X7398903Y1234190D01*
X7405026Y1225026D01*
X7411837Y1220475D01*
X7413100Y1219212D01*
Y1214745D01*
X7418217Y1214102D01*
X7432886Y1199433D01*
X7428026Y1187700D01*
X7397300D01*
Y1012300D01*
X7441882D01*
X7452305Y999600D01*
X7452031Y998220D01*
X7454763Y984486D01*
X7462542Y972842D01*
X7474186Y965063D01*
X7487920Y962331D01*
X7501654Y965063D01*
X7513298Y972842D01*
X7521077Y984486D01*
X7523809Y998220D01*
X7523535Y999600D01*
X7533957Y1012300D01*
X7567700Y1012300D01*
X7569600Y1000388D01*
Y999600D01*
X7629400D01*
Y1100000D01*
Y1200400D01*
X7569600D01*
Y1199613D01*
X7567700Y1187700D01*
X7556900Y1187700D01*
X7514872D01*
Y1195600D01*
X7512408Y1207988D01*
X7505391Y1218490D01*
X7457372Y1266509D01*
Y1320000D01*
X7454908Y1332388D01*
X7453243Y1334880D01*
Y1395000D01*
X7451093Y1405808D01*
X7444971Y1414971D01*
X7435808Y1421093D01*
X7425000Y1423243D01*
X7424585Y1427942D01*
X7424998Y1430020D01*
X7422799Y1441077D01*
X7423741Y1442982D01*
X7434252Y1448600D01*
X7498586Y1384266D01*
X7504887Y1380055D01*
X7512320Y1378577D01*
X8134057D01*
X8134686Y1373800D01*
X8144027Y1351250D01*
X8158886Y1331886D01*
X8178250Y1317027D01*
X8200800Y1307686D01*
X8225000Y1304500D01*
X8249200Y1307686D01*
X8271750Y1317027D01*
X8291114Y1331886D01*
X8305973Y1351250D01*
X8315314Y1373800D01*
X8315943Y1378577D01*
X8594244D01*
X8601677Y1380055D01*
X8607978Y1384266D01*
X8639169Y1415457D01*
X8651379Y1406088D01*
X8667239Y1399518D01*
X8684260Y1397277D01*
X8701281Y1399518D01*
X8717141Y1406088D01*
X8730761Y1416539D01*
X8740789Y1429608D01*
X8747646Y1430636D01*
X8747874D01*
X8754731Y1429608D01*
X8764759Y1416539D01*
X8778379Y1406088D01*
X8794239Y1399518D01*
X8811260Y1397277D01*
X8828281Y1399518D01*
X8844141Y1406088D01*
X8857761Y1416539D01*
X8868212Y1430159D01*
X8873787Y1443617D01*
X8889200D01*
X8896633Y1445095D01*
X8902934Y1449306D01*
X9038734Y1585106D01*
X9042945Y1591407D01*
X9044423Y1598840D01*
Y1827860D01*
X9044423Y1827862D01*
X9042945Y1835295D01*
X9038734Y1841596D01*
X8947146Y1933184D01*
X8948967Y1947189D01*
X8950500Y1949306D01*
X9027500D01*
X9037333Y1951262D01*
X9044647Y1956149D01*
X9061176D01*
X9061177Y1956149D01*
X9069106Y1957726D01*
X9075827Y1962217D01*
X9076382Y1962772D01*
X9187300D01*
Y1847300D01*
Y1730400D01*
X9174600D01*
Y1713100D01*
X9187295D01*
Y1712295D01*
X9272500D01*
Y1636900D01*
X9174600D01*
Y1619600D01*
X9239197D01*
X9244814Y1608210D01*
X9243195Y1606100D01*
X9364000D01*
Y1568000D01*
X9402100D01*
Y1491950D01*
X9419000D01*
X9435819Y1494164D01*
X9441274Y1486413D01*
X9442424Y1482808D01*
X9409031Y1449415D01*
X9400610Y1436812D01*
X9397653Y1421946D01*
Y1354200D01*
X9392300D01*
Y1245800D01*
X9480700D01*
Y1354200D01*
X9475346D01*
Y1405856D01*
X9534568Y1465078D01*
X9542989Y1477681D01*
X9545946Y1492546D01*
Y1698239D01*
X9549752Y1698996D01*
X9562355Y1707417D01*
X9652469Y1797531D01*
X9660889Y1810134D01*
X9663847Y1825000D01*
Y2425000D01*
X9660889Y2439866D01*
X9652469Y2452469D01*
X9552469Y2552469D01*
X9539866Y2560889D01*
X9525000Y2563847D01*
X9277408D01*
X9262542Y2560889D01*
X9249939Y2552469D01*
X9134431Y2436961D01*
X9126010Y2424358D01*
X9123053Y2409492D01*
Y2279219D01*
X9126010Y2264353D01*
X9134431Y2251750D01*
X9164050Y2222131D01*
X9176653Y2213711D01*
X9187300Y2211593D01*
Y2147300D01*
Y2045718D01*
X9068791D01*
X9062002Y2058418D01*
X9063201Y2060212D01*
X9066142Y2075000D01*
X9063201Y2089788D01*
X9054824Y2102324D01*
X9053634Y2103119D01*
X9051238Y2115167D01*
X9053194Y2125000D01*
X9051238Y2134832D01*
X9045668Y2143168D01*
Y2156832D01*
X9051238Y2165167D01*
X9053194Y2175000D01*
X9051238Y2184833D01*
X9045668Y2193168D01*
X9037333Y2198738D01*
X9027500Y2200694D01*
X8912500D01*
X8902667Y2198738D01*
X8894332Y2193168D01*
X8888762Y2184833D01*
X8886806Y2175000D01*
X8888762Y2165167D01*
X8894332Y2156832D01*
Y2143168D01*
X8888762Y2134832D01*
X8887953Y2130762D01*
X8886791Y2129075D01*
X8876785Y2122167D01*
X8874547Y2121534D01*
X8862060Y2124018D01*
X8843370Y2120301D01*
X8832863Y2113280D01*
X8862060D01*
Y2037080D01*
X8832863D01*
X8843370Y2030059D01*
X8862060Y2026342D01*
X8874621Y2028840D01*
X8877008Y2028088D01*
X8886740Y2021246D01*
X8887889Y2019556D01*
X8888762Y2015167D01*
X8894332Y2006832D01*
Y1993168D01*
X8888762Y1984832D01*
X8886806Y1975000D01*
X8888762Y1965167D01*
X8894332Y1956832D01*
X8902202Y1951573D01*
X8902398Y1950617D01*
X8899702Y1938873D01*
X8840006D01*
X8696495Y2082384D01*
X8690194Y2086595D01*
X8682761Y2088073D01*
X8658458D01*
X8654605Y2100773D01*
X8658072Y2103090D01*
X8680391Y2125408D01*
X8687408Y2135910D01*
X8689872Y2148298D01*
Y2262300D01*
X8742700Y2262300D01*
X8744600Y2250388D01*
Y2249600D01*
X8804400D01*
Y2350000D01*
Y2450400D01*
X8744600D01*
Y2449613D01*
X8742700Y2437700D01*
X8731900Y2437700D01*
X8572300D01*
Y2390131D01*
X8562672Y2385988D01*
X8559600Y2385443D01*
X8547100Y2387929D01*
X8533366Y2385197D01*
X8521722Y2377418D01*
X8513943Y2365774D01*
X8511211Y2352040D01*
X8513943Y2338306D01*
X8521722Y2326662D01*
X8533366Y2318883D01*
X8547100Y2316151D01*
X8559600Y2318637D01*
X8562672Y2318092D01*
X8572300Y2313949D01*
Y2262300D01*
X8625128D01*
Y2180101D01*
X8612428Y2178850D01*
X8611238Y2184833D01*
X8605668Y2193168D01*
X8597333Y2198738D01*
X8587500Y2200694D01*
X8472500D01*
X8462668Y2198738D01*
X8454332Y2193168D01*
X8448762Y2184833D01*
X8446807Y2175000D01*
X8447592Y2171052D01*
X8440684Y2159678D01*
X8438257Y2158030D01*
X8427490Y2155888D01*
X8416988Y2148870D01*
X8394670Y2126552D01*
X8387652Y2116050D01*
X8385188Y2103662D01*
Y1997318D01*
X8387652Y1984930D01*
X8394670Y1974428D01*
X8416988Y1952109D01*
X8427490Y1945092D01*
X8439878Y1942628D01*
X8560992D01*
X8571678Y1931941D01*
Y1853450D01*
X8572300Y1850322D01*
Y1836411D01*
X8562672Y1832268D01*
X8559600Y1831723D01*
X8547100Y1834209D01*
X8533366Y1831477D01*
X8521722Y1823698D01*
X8513943Y1812054D01*
X8511211Y1798320D01*
X8513943Y1784586D01*
X8521722Y1772942D01*
X8533366Y1765163D01*
X8547100Y1762431D01*
X8559600Y1764917D01*
X8562672Y1764372D01*
X8572300Y1760229D01*
Y1712300D01*
X8742700D01*
X8744600Y1700387D01*
Y1699600D01*
X8791071D01*
X8799128Y1689783D01*
X8797982Y1684020D01*
X8801307Y1667302D01*
X8799866Y1661285D01*
X8796502Y1653860D01*
X8794239Y1653562D01*
X8778379Y1646992D01*
X8764759Y1636541D01*
X8754731Y1623472D01*
X8747874Y1622444D01*
X8747646D01*
X8740789Y1623472D01*
X8730761Y1636541D01*
X8717141Y1646992D01*
X8701281Y1653562D01*
X8684260Y1655803D01*
X8667239Y1653562D01*
X8653781Y1647987D01*
X8636034Y1665734D01*
X8629733Y1669945D01*
X8622300Y1671423D01*
X8317700D01*
Y1744700D01*
X8132300D01*
Y1586769D01*
X7988355Y1442823D01*
X7535605D01*
X7517042Y1461386D01*
X7523299Y1473091D01*
X7530000Y1471758D01*
X7680000D01*
X7690808Y1473907D01*
X7699971Y1480030D01*
X7706093Y1489192D01*
X7708243Y1500000D01*
X7706093Y1510808D01*
X7702380Y1516365D01*
X7700858Y1525000D01*
X7702380Y1533635D01*
X7706093Y1539192D01*
X7708243Y1550000D01*
X7706093Y1560808D01*
X7702380Y1566365D01*
X7700858Y1575000D01*
X7702380Y1583635D01*
X7706093Y1589192D01*
X7708243Y1600000D01*
X7706093Y1610808D01*
X7702380Y1616365D01*
X7700858Y1625000D01*
X7702380Y1633635D01*
X7706093Y1639192D01*
X7708243Y1650000D01*
X7706093Y1660808D01*
X7702380Y1666365D01*
X7700858Y1675000D01*
X7702380Y1683635D01*
X7706093Y1689192D01*
X7708243Y1700000D01*
X7706093Y1710808D01*
X7702380Y1716365D01*
X7700858Y1725000D01*
X7702380Y1733635D01*
X7706093Y1739192D01*
X7708243Y1750000D01*
X7706093Y1760808D01*
X7702380Y1766365D01*
X7700858Y1775000D01*
X7702380Y1783635D01*
X7706093Y1789192D01*
X7708243Y1800000D01*
X7706093Y1810808D01*
X7702380Y1816365D01*
X7700858Y1825000D01*
X7702380Y1833635D01*
X7706093Y1839192D01*
X7708243Y1850000D01*
X7706093Y1860808D01*
X7702380Y1866365D01*
X7700858Y1875000D01*
X7702380Y1883635D01*
X7706093Y1889192D01*
X7708243Y1900000D01*
X7706093Y1910808D01*
X7702380Y1916365D01*
X7700858Y1925000D01*
X7702380Y1933635D01*
X7706093Y1939192D01*
X7708243Y1950000D01*
X7706093Y1960808D01*
X7702380Y1966365D01*
X7700858Y1975000D01*
X7702380Y1983635D01*
X7706093Y1989192D01*
X7708243Y2000000D01*
X7706093Y2010808D01*
X7702380Y2016365D01*
X7700858Y2025000D01*
X7702380Y2033636D01*
X7706093Y2039192D01*
X7708243Y2050000D01*
X7706093Y2060808D01*
X7702380Y2066365D01*
X7700858Y2075000D01*
X7702380Y2083635D01*
X7706093Y2089192D01*
X7708243Y2100000D01*
X7706093Y2110808D01*
X7702380Y2116365D01*
X7700858Y2125000D01*
X7702380Y2133635D01*
X7706093Y2139192D01*
X7708243Y2150000D01*
X7706093Y2160808D01*
X7702380Y2166365D01*
X7709127Y2170873D01*
X7718056Y2184237D01*
X7721192Y2200000D01*
X7728033Y2205558D01*
X7737300Y2197576D01*
X7737300Y2082300D01*
X7725388Y2080400D01*
X7724600D01*
Y2020600D01*
X7825001D01*
X7925400D01*
Y2080400D01*
X7924613D01*
X7912700Y2082300D01*
X7912700Y2093100D01*
Y2124514D01*
X7917180Y2128191D01*
X7930914Y2130923D01*
X7942558Y2138702D01*
X7950337Y2150346D01*
X7953069Y2164080D01*
X7950337Y2177814D01*
X7942558Y2189458D01*
X7930914Y2197237D01*
X7917180Y2199969D01*
X7912700Y2203646D01*
Y2252700D01*
X7785581D01*
X7776784Y2261497D01*
X7782045Y2274197D01*
X7879802D01*
X7887235Y2275675D01*
X7893536Y2279886D01*
X8625577Y3011927D01*
X8966350D01*
X8968227Y3012300D01*
X9092700D01*
Y3187300D01*
Y3362300D01*
Y3537300D01*
Y3712700D01*
X8947300D01*
Y3575773D01*
X8941150D01*
X8933717Y3574295D01*
X8927416Y3570084D01*
X8927415Y3570084D01*
X8876266Y3518934D01*
X8872055Y3512633D01*
X8870577Y3505200D01*
Y3419626D01*
X7873214Y2422263D01*
X7552836D01*
X7548858Y2428218D01*
X7537214Y2435997D01*
X7523480Y2438729D01*
X7509746Y2435997D01*
X7498102Y2428218D01*
X7490323Y2416574D01*
X7489250Y2411180D01*
X7475469Y2407000D01*
X7465345Y2417124D01*
X7459044Y2421335D01*
X7453243Y2422489D01*
Y2505000D01*
X7451093Y2515808D01*
X7444971Y2524971D01*
X7442974Y2526305D01*
X7447929Y2538268D01*
X7454900Y2536882D01*
X7473590Y2540599D01*
X7489434Y2551186D01*
X7500021Y2567030D01*
X7503738Y2585720D01*
X7502930Y2589783D01*
X7510987Y2599600D01*
X7555400D01*
Y2600387D01*
X7557300Y2612300D01*
X7568100Y2612300D01*
X7606553D01*
Y2585720D01*
X7609511Y2570854D01*
X7617931Y2558251D01*
X7630534Y2549831D01*
X7645400Y2546873D01*
X7660266Y2549831D01*
X7672869Y2558251D01*
X7681289Y2570854D01*
X7684247Y2585720D01*
Y2612300D01*
X7727700D01*
Y2787700D01*
X7557300Y2787700D01*
X7555400Y2799613D01*
Y2800400D01*
X7495600D01*
Y2700000D01*
X7419400D01*
Y2800400D01*
X7381923D01*
Y2934394D01*
X7387878Y2938372D01*
X7395657Y2950016D01*
X7398389Y2963750D01*
X7395657Y2977484D01*
X7395395Y2977877D01*
X7402183Y2990577D01*
X7455362D01*
X7462795Y2992055D01*
X7469097Y2996266D01*
X7512207Y3039377D01*
X7570247D01*
X7575564Y3035824D01*
X7582450Y3034454D01*
X7604036D01*
X7623775Y3014716D01*
X7630076Y3010505D01*
X7637509Y3009027D01*
X7815371D01*
X7822804Y3010505D01*
X7829105Y3014716D01*
X7856344Y3041954D01*
X7892550D01*
X7899437Y3043324D01*
X7905275Y3047225D01*
X7909176Y3053063D01*
X7910546Y3059950D01*
Y3130050D01*
X7909176Y3136937D01*
X7905275Y3142775D01*
X7899437Y3146676D01*
X7892550Y3148046D01*
X7847451D01*
X7840564Y3146676D01*
X7834726Y3142775D01*
X7830825Y3136937D01*
X7829455Y3130050D01*
Y3070002D01*
X7807326Y3047873D01*
X7782251D01*
X7778495Y3052450D01*
Y3061900D01*
X7730000D01*
Y3138100D01*
X7778495D01*
Y3144520D01*
X7729220D01*
Y3182620D01*
X7691120D01*
Y3211817D01*
X7684099Y3201310D01*
X7682145Y3191485D01*
X7668364Y3187305D01*
X7666935Y3188734D01*
X7660633Y3192945D01*
X7653200Y3194423D01*
X7650068D01*
X7649898Y3194838D01*
X7647955Y3207123D01*
X7651835Y3209715D01*
X7721574Y3279454D01*
X7747550D01*
X7754437Y3280824D01*
X7760275Y3284725D01*
X7764176Y3290563D01*
X7765546Y3297450D01*
Y3392550D01*
X7764176Y3399437D01*
X7760275Y3405275D01*
X7754437Y3409176D01*
X7753309Y3409400D01*
X7754560Y3422100D01*
X7825412D01*
X7829265Y3409400D01*
X7825570Y3406931D01*
X7818862Y3396892D01*
X7817113Y3388100D01*
X7870001D01*
Y3311900D01*
X7817113D01*
X7818071Y3307080D01*
X7868920D01*
Y3268980D01*
X7907020D01*
Y3239783D01*
X7914041Y3250290D01*
X7917758Y3268980D01*
X7914041Y3287669D01*
X7919655Y3298466D01*
X7927558Y3301416D01*
X7933138Y3299945D01*
X7935564Y3298324D01*
X7942450Y3296954D01*
X7987550D01*
X7994437Y3298324D01*
X8000275Y3302225D01*
X8004176Y3308063D01*
X8005546Y3314950D01*
Y3363540D01*
X8006755Y3364348D01*
X8019455Y3357560D01*
Y3314950D01*
X8020825Y3308063D01*
X8024726Y3302225D01*
X8030564Y3298324D01*
X8037451Y3296954D01*
X8060084D01*
X8062100Y3296553D01*
X8177300D01*
X8177300Y3229800D01*
X8165388Y3227900D01*
X8164600D01*
Y3168100D01*
X8265000D01*
Y3130000D01*
X8303100D01*
Y3032100D01*
X8365400D01*
Y3075156D01*
X8371840Y3080442D01*
X8390530Y3084159D01*
X8401037Y3091180D01*
X8371840D01*
Y3167380D01*
X8401037D01*
X8390530Y3174401D01*
X8371840Y3178118D01*
X8365400Y3183404D01*
Y3227900D01*
X8364613D01*
X8352700Y3229800D01*
X8352700Y3240600D01*
Y3275853D01*
X8371840D01*
X8386706Y3278811D01*
X8399309Y3287231D01*
X8407729Y3299834D01*
X8410687Y3314700D01*
X8407729Y3329566D01*
X8399309Y3342169D01*
X8386706Y3350589D01*
X8371840Y3353547D01*
X8352700D01*
Y3400200D01*
X8177300D01*
Y3374246D01*
X8100546D01*
Y3385050D01*
X8099176Y3391937D01*
X8095275Y3397775D01*
X8093552Y3398926D01*
X8090798Y3411478D01*
X8091187Y3414277D01*
X8123155Y3446245D01*
X8127365Y3452546D01*
X8128844Y3459979D01*
X8128844Y3459980D01*
Y3479778D01*
X8134601Y3484282D01*
X8147301Y3478148D01*
Y3434800D01*
X8292700D01*
Y3610200D01*
X8239424D01*
Y3646206D01*
X8303234Y3710016D01*
X8307444Y3716318D01*
X8307660Y3717401D01*
X8357200D01*
Y3922800D01*
X8308923D01*
Y4517399D01*
X8357200D01*
Y4722799D01*
D02*
G37*
G36*
X5131901Y3311900D02*
X5117113D01*
X5118862Y3303108D01*
X5125570Y3293069D01*
X5131901Y3288839D01*
Y3311900D01*
D02*
G37*
G36*
X8082550Y3148046D02*
X8037451D01*
X8030564Y3146676D01*
X8024726Y3142775D01*
X8020825Y3136937D01*
X8019455Y3130050D01*
Y3059950D01*
X8020825Y3053063D01*
X8024726Y3047225D01*
X8030564Y3043324D01*
X8037451Y3041954D01*
X8082550D01*
X8089437Y3043324D01*
X8095275Y3047225D01*
X8099176Y3053063D01*
X8100546Y3059950D01*
Y3130050D01*
X8099176Y3136937D01*
X8095275Y3142775D01*
X8089437Y3146676D01*
X8082550Y3148046D01*
D02*
G37*
G36*
X8226900Y3091900D02*
X8164600D01*
Y3032100D01*
X8226900D01*
Y3091900D01*
D02*
G37*
G36*
X9662727Y3738473D02*
X9162109D01*
X9154676Y3736995D01*
X9148375Y3732785D01*
X9137216Y3721625D01*
X9133005Y3715324D01*
X9131527Y3707891D01*
Y3542109D01*
X9133005Y3534676D01*
X9137216Y3528375D01*
X9148375Y3517216D01*
X9154225Y3513307D01*
X9157300Y3510231D01*
Y3362300D01*
Y3214769D01*
X9154224Y3211693D01*
X9148375Y3207785D01*
X9137216Y3196625D01*
X9133005Y3190324D01*
X9131527Y3182891D01*
Y3017109D01*
X9133005Y3009676D01*
X9137216Y3003375D01*
X9148375Y2992216D01*
X9154676Y2988005D01*
X9162109Y2986527D01*
X9661547D01*
X9668980Y2988005D01*
X9675281Y2992216D01*
X9748784Y3065719D01*
X9752995Y3072021D01*
X9754474Y3079454D01*
X9754473Y3079455D01*
Y3291541D01*
X9752995Y3298974D01*
X9748784Y3305275D01*
X9721447Y3332612D01*
X9727022Y3346070D01*
X9729263Y3363091D01*
X9727022Y3380111D01*
X9720452Y3395972D01*
X9710001Y3409592D01*
X9696932Y3419620D01*
X9695904Y3426476D01*
Y3426705D01*
X9696932Y3433561D01*
X9710001Y3443589D01*
X9720452Y3457209D01*
X9727022Y3473070D01*
X9729263Y3490091D01*
X9727022Y3507111D01*
X9721447Y3520569D01*
X9748784Y3547906D01*
X9752995Y3554208D01*
X9754473Y3561641D01*
Y3646728D01*
X9752995Y3654161D01*
X9748784Y3660462D01*
X9676462Y3732785D01*
X9670160Y3736995D01*
X9662727Y3738473D01*
D02*
G37*
G36*
X9820100Y2506984D02*
Y2470100D01*
X9877804D01*
X9865776Y2485776D01*
X9850025Y2497862D01*
X9831683Y2505459D01*
X9820100Y2506984D01*
D02*
G37*
G36*
X9743900D02*
X9732317Y2505459D01*
X9713975Y2497862D01*
X9698224Y2485776D01*
X9686196Y2470100D01*
X9743900D01*
Y2506984D01*
D02*
G37*
G36*
X9877804Y2393900D02*
X9820100D01*
Y2357016D01*
X9831683Y2358541D01*
X9850025Y2366138D01*
X9865776Y2378224D01*
X9877804Y2393900D01*
D02*
G37*
G36*
X9743900D02*
X9686196D01*
X9698224Y2378224D01*
X9713975Y2366138D01*
X9732317Y2358541D01*
X9743900Y2357016D01*
Y2393900D01*
D02*
G37*
G36*
X8940400Y2450400D02*
X8880600D01*
Y2350000D01*
Y2249600D01*
X8940400D01*
Y2296303D01*
X8950217Y2304360D01*
X8956040Y2303202D01*
X8974730Y2306919D01*
X8985237Y2313940D01*
X8956040D01*
Y2390140D01*
X8985237D01*
X8974730Y2397161D01*
X8956040Y2400878D01*
X8950217Y2399720D01*
X8940400Y2407777D01*
Y2450400D01*
D02*
G37*
G36*
X2659500Y2236038D02*
X509500D01*
X494790Y2233112D01*
X482320Y2224780D01*
X473988Y2212310D01*
X471062Y2197600D01*
X473988Y2182890D01*
X482320Y2170420D01*
X494790Y2162087D01*
X509500Y2159161D01*
X2659500D01*
X2674210Y2162087D01*
X2686680Y2170420D01*
X2695012Y2182890D01*
X2697938Y2197600D01*
X2695012Y2212310D01*
X2686680Y2224780D01*
X2674210Y2233112D01*
X2659500Y2236038D01*
D02*
G37*
G36*
X7925400Y1944400D02*
X7825001D01*
X7724600D01*
Y1884600D01*
X7786154D01*
Y1865400D01*
X7724600D01*
Y1805600D01*
X7925400D01*
Y1826811D01*
X7938410Y1829399D01*
X7948917Y1836420D01*
X7919720D01*
Y1912620D01*
X7948917D01*
X7938410Y1919641D01*
X7925400Y1922229D01*
Y1944400D01*
D02*
G37*
G36*
X9820100Y1642985D02*
Y1606100D01*
X9877804D01*
X9865776Y1621776D01*
X9850025Y1633862D01*
X9831683Y1641460D01*
X9820100Y1642985D01*
D02*
G37*
G36*
X9743900D02*
X9732317Y1641460D01*
X9713975Y1633862D01*
X9698224Y1621776D01*
X9686196Y1606100D01*
X9743900D01*
Y1642985D01*
D02*
G37*
G36*
X7925400Y1729400D02*
X7724600D01*
Y1669600D01*
X7725387D01*
X7737300Y1667699D01*
X7737300Y1656899D01*
Y1497300D01*
X7912700D01*
Y1540769D01*
X7919720Y1546531D01*
X7933454Y1549263D01*
X7945098Y1557042D01*
X7952877Y1568686D01*
X7955609Y1582420D01*
X7952877Y1596154D01*
X7945098Y1607798D01*
X7933454Y1615577D01*
X7919720Y1618309D01*
X7912700Y1624071D01*
X7912700Y1667699D01*
X7924613Y1669600D01*
X7925400D01*
Y1729400D01*
D02*
G37*
G36*
X9877804Y1529900D02*
X9820100D01*
Y1493016D01*
X9831683Y1494541D01*
X9850025Y1502138D01*
X9865776Y1514224D01*
X9877804Y1529900D01*
D02*
G37*
G36*
X9743900D02*
X9686196D01*
X9698224Y1514224D01*
X9713975Y1502138D01*
X9732317Y1494541D01*
X9743900Y1493016D01*
Y1529900D01*
D02*
G37*
G36*
X9325900Y1529900D02*
X9243195D01*
X9255224Y1514224D01*
X9270974Y1502138D01*
X9289316Y1494541D01*
X9309000Y1491950D01*
X9325900D01*
Y1529900D01*
D02*
G37*
G36*
X3592900Y1541900D02*
X3545600D01*
Y1479600D01*
X3592900D01*
Y1541900D01*
D02*
G37*
G36*
X2244400Y1550400D02*
X2184600D01*
Y1505596D01*
X2176780Y1499178D01*
X2158090Y1495461D01*
X2147583Y1488440D01*
X2176780D01*
Y1412240D01*
X2147583D01*
X2158090Y1405219D01*
X2176780Y1401502D01*
X2184600Y1395084D01*
Y1349600D01*
X2244400D01*
Y1450000D01*
Y1550400D01*
D02*
G37*
G36*
X9690400Y1225400D02*
X9643100D01*
Y1163100D01*
X9690400D01*
Y1225400D01*
D02*
G37*
G36*
X9566900D02*
X9519600D01*
Y1163100D01*
X9566900D01*
Y1225400D01*
D02*
G37*
G36*
X7765400Y1200400D02*
X7705600D01*
Y1100000D01*
Y999600D01*
X7765400D01*
Y1044385D01*
X7775217Y1052442D01*
X7782560Y1050982D01*
X7801250Y1054699D01*
X7811757Y1061720D01*
X7782560D01*
Y1137920D01*
X7811757D01*
X7801250Y1144941D01*
X7782560Y1148658D01*
X7775217Y1147198D01*
X7765400Y1155255D01*
Y1200400D01*
D02*
G37*
G36*
X9690400Y1086900D02*
X9643100D01*
Y1024600D01*
X9690400D01*
Y1086900D01*
D02*
G37*
G36*
X9566900D02*
X9519600D01*
Y1024600D01*
X9566900D01*
Y1086900D01*
D02*
G37*
G36*
X7620000Y953778D02*
X7604709Y950736D01*
X7591745Y942075D01*
X7583084Y929111D01*
X7580042Y913820D01*
Y851236D01*
X7583084Y835945D01*
X7591745Y822982D01*
X7604709Y814320D01*
X7620000Y811278D01*
X7635291Y814320D01*
X7648255Y822982D01*
X7656916Y835945D01*
X7659958Y851236D01*
Y913820D01*
X7656916Y929111D01*
X7648255Y942075D01*
X7635291Y950736D01*
X7620000Y953778D01*
D02*
G37*
G36*
X9022100Y667926D02*
Y596900D01*
X9093127D01*
X9084802Y616998D01*
X9066304Y641104D01*
X9042198Y659601D01*
X9022100Y667926D01*
D02*
G37*
G36*
X8945900D02*
X8925803Y659601D01*
X8901696Y641104D01*
X8883199Y616998D01*
X8874874Y596900D01*
X8945900D01*
Y667926D01*
D02*
G37*
G36*
X1633126Y520700D02*
X1562100D01*
Y449674D01*
X1582198Y457999D01*
X1606304Y476496D01*
X1624801Y500602D01*
X1633126Y520700D01*
D02*
G37*
G36*
X9093127D02*
X9022100D01*
Y449674D01*
X9042198Y457999D01*
X9066304Y476496D01*
X9084802Y500602D01*
X9093127Y520700D01*
D02*
G37*
G36*
X8945900D02*
X8874874D01*
X8883199Y500602D01*
X8901696Y476496D01*
X8925803Y457999D01*
X8945900Y449674D01*
Y520700D01*
D02*
G37*
G36*
X1485900D02*
X1414874D01*
X1423199Y500602D01*
X1441696Y476496D01*
X1465802Y457999D01*
X1485900Y449674D01*
Y520700D01*
D02*
G37*
G36*
X2317700Y397700D02*
X2192300D01*
Y312300D01*
X2250128D01*
Y237700D01*
X2197300D01*
Y62300D01*
X2367700Y62300D01*
X2369600Y50388D01*
Y49600D01*
X2429400D01*
Y150000D01*
Y250400D01*
X2369600D01*
Y249613D01*
X2367700Y237700D01*
X2356900Y237700D01*
X2314872D01*
Y300771D01*
X2317700Y312300D01*
X2327967Y318174D01*
X2330400Y319454D01*
X2341880Y317171D01*
X2355614Y319903D01*
X2367258Y327682D01*
X2375037Y339326D01*
X2377769Y353060D01*
X2375037Y366794D01*
X2367258Y378438D01*
X2355614Y386217D01*
X2341880Y388949D01*
X2330400Y386666D01*
X2317700Y389364D01*
Y397700D01*
D02*
G37*
G36*
X9788100Y421735D02*
Y288100D01*
X9921735D01*
X9912833Y317447D01*
X9896545Y347919D01*
X9874627Y374627D01*
X9847919Y396545D01*
X9817447Y412833D01*
X9788100Y421735D01*
D02*
G37*
G36*
X9711900D02*
X9682553Y412833D01*
X9652082Y396545D01*
X9625373Y374627D01*
X9603455Y347919D01*
X9587168Y317447D01*
X9578265Y288100D01*
X9711900D01*
Y421735D01*
D02*
G37*
G36*
X288100D02*
Y288100D01*
X421735D01*
X412833Y317447D01*
X396545Y347919D01*
X374627Y374627D01*
X347919Y396545D01*
X317447Y412833D01*
X288100Y421735D01*
D02*
G37*
G36*
X211900D02*
X182553Y412833D01*
X152081Y396545D01*
X125373Y374627D01*
X103455Y347919D01*
X87167Y317447D01*
X78265Y288100D01*
X211900D01*
Y421735D01*
D02*
G37*
G36*
X2565400Y250400D02*
X2505600D01*
Y150000D01*
Y49600D01*
X2565400D01*
Y97088D01*
X2575217Y105146D01*
X2583180Y103562D01*
X2601870Y107279D01*
X2612377Y114300D01*
X2583180D01*
Y190500D01*
X2612377D01*
X2601870Y197521D01*
X2583180Y201238D01*
X2575217Y199654D01*
X2565400Y207712D01*
Y250400D01*
D02*
G37*
G36*
X9921735Y211900D02*
X9788100D01*
Y78265D01*
X9817447Y87167D01*
X9847919Y103455D01*
X9874627Y125373D01*
X9896545Y152081D01*
X9912833Y182553D01*
X9921735Y211900D01*
D02*
G37*
G36*
X9711900D02*
X9578265D01*
X9587168Y182553D01*
X9603455Y152081D01*
X9625373Y125373D01*
X9652082Y103455D01*
X9682553Y87167D01*
X9711900Y78265D01*
Y211900D01*
D02*
G37*
G36*
X421735D02*
X288100D01*
Y78265D01*
X317447Y87167D01*
X347919Y103455D01*
X374627Y125373D01*
X396545Y152081D01*
X412833Y182553D01*
X421735Y211900D01*
D02*
G37*
G36*
X211900D02*
X78265D01*
X87167Y182553D01*
X103455Y152081D01*
X125373Y125373D01*
X152081Y103455D01*
X182553Y87167D01*
X211900Y78265D01*
Y211900D01*
D02*
G37*
%LPD*%
G36*
X6021589Y3400974D02*
X6018862Y3396892D01*
X6017113Y3388100D01*
X6070001D01*
Y3350000D01*
X6108101D01*
Y3288839D01*
X6114432Y3293069D01*
X6117500Y3297662D01*
X6127558Y3301416D01*
X6133138Y3299945D01*
X6135564Y3298324D01*
X6142451Y3296954D01*
X6187550D01*
X6194437Y3298324D01*
X6200275Y3302225D01*
X6204176Y3308063D01*
X6205546Y3314950D01*
Y3363540D01*
X6206755Y3364348D01*
X6219455Y3357560D01*
Y3314950D01*
X6220825Y3308063D01*
X6224726Y3302225D01*
X6230564Y3298324D01*
X6237451Y3296954D01*
X6245609D01*
X6255032Y3287531D01*
X6267635Y3279110D01*
X6282501Y3276153D01*
X6377300D01*
Y3240973D01*
X6319870D01*
X6312437Y3239494D01*
X6306136Y3235284D01*
X6306135Y3235283D01*
X6288135Y3217283D01*
X6188856D01*
X6184878Y3223238D01*
X6173234Y3231017D01*
X6159500Y3233749D01*
X6145766Y3231017D01*
X6134122Y3223238D01*
X6126343Y3211594D01*
X6123611Y3197860D01*
X6126343Y3184126D01*
X6134122Y3172482D01*
X6145766Y3164703D01*
X6159500Y3161971D01*
X6173234Y3164703D01*
X6184878Y3172482D01*
X6188856Y3178437D01*
X6296180D01*
X6303614Y3179915D01*
X6309915Y3184126D01*
X6327915Y3202127D01*
X6364600D01*
Y3168100D01*
X6465000D01*
Y3130000D01*
X6503100D01*
Y3032100D01*
X6565400D01*
Y3078138D01*
X6575217Y3086194D01*
X6578600Y3085522D01*
X6597290Y3089239D01*
X6613134Y3099826D01*
X6621587Y3112477D01*
X6633274Y3116646D01*
X6636938Y3117020D01*
X6639027Y3115502D01*
Y3042509D01*
X6640505Y3035076D01*
X6644716Y3028774D01*
X6658775Y3014716D01*
X6665076Y3010505D01*
X6672509Y3009026D01*
X6672510Y3009027D01*
X6729512D01*
X6736945Y3010505D01*
X6743246Y3014716D01*
X6761310Y3032779D01*
X6774637Y3032490D01*
X6783121Y3021991D01*
X6781222Y3012440D01*
X6784939Y2993750D01*
X6791960Y2983243D01*
Y3012440D01*
X6830060D01*
Y3050540D01*
X6878115D01*
X6878494Y3052450D01*
Y3061900D01*
X6830000D01*
Y3100000D01*
X6800551D01*
Y3147550D01*
X6799181Y3154439D01*
X6795279Y3160279D01*
X6791900Y3162536D01*
Y3170320D01*
X6790569Y3169431D01*
X6787337Y3164594D01*
X6782550Y3165546D01*
X6747450D01*
X6741376Y3164337D01*
X6740603Y3164892D01*
X6736303Y3177225D01*
X6763105Y3204027D01*
X7264600D01*
Y3185562D01*
X7254783Y3177505D01*
X7251700Y3178118D01*
X7233010Y3174401D01*
X7217166Y3163814D01*
X7206579Y3147970D01*
X7203631Y3146615D01*
X7192911Y3144354D01*
X7189437Y3146676D01*
X7182550Y3148046D01*
X7137451D01*
X7130564Y3146676D01*
X7124726Y3142775D01*
X7120825Y3136937D01*
X7119455Y3130050D01*
Y3068424D01*
X7106755Y3063164D01*
X7061185Y3108734D01*
X7054883Y3112944D01*
X7047450Y3114423D01*
X7010546D01*
Y3130050D01*
X7009176Y3136937D01*
X7005275Y3142775D01*
X6999437Y3146676D01*
X6992550Y3148046D01*
X6947451D01*
X6940564Y3146676D01*
X6934726Y3142775D01*
X6930825Y3136937D01*
X6929455Y3130050D01*
Y3071684D01*
X6925416Y3067644D01*
X6921205Y3061343D01*
X6919727Y3053910D01*
Y2835585D01*
X6907994Y2830725D01*
X6903044Y2835674D01*
X6896743Y2839885D01*
X6889310Y2841363D01*
X6339186D01*
X6110546Y3070003D01*
Y3130050D01*
X6109176Y3136937D01*
X6105275Y3142775D01*
X6099437Y3146676D01*
X6092550Y3148046D01*
X6089424D01*
Y3175600D01*
X6087945Y3183033D01*
X6083735Y3189334D01*
X5965546Y3307523D01*
Y3392550D01*
X5964176Y3399436D01*
X5960275Y3405275D01*
X5954437Y3409176D01*
X5953308Y3409400D01*
X5954559Y3422100D01*
X6000463D01*
X6021589Y3400974D01*
D02*
G37*
G36*
X8947300Y3050773D02*
X8645096D01*
X8640236Y3062506D01*
X8764656Y3186927D01*
X8947300D01*
Y3050773D01*
D02*
G37*
G36*
X7092766Y3022215D02*
X7099068Y3018005D01*
X7106500Y3016526D01*
X7106502Y3016527D01*
X7193715D01*
X7198575Y3004793D01*
X7161266Y2967484D01*
X7157055Y2961183D01*
X7155577Y2953750D01*
Y2787700D01*
X6997300D01*
Y2738286D01*
X6984600Y2727864D01*
X6982460Y2728289D01*
X6971273Y2726064D01*
X6958573Y2732885D01*
Y3041954D01*
X6992550D01*
X6999437Y3043324D01*
X7005275Y3047225D01*
X7009176Y3053063D01*
X7010546Y3059950D01*
Y3075577D01*
X7039405D01*
X7092766Y3022215D01*
D02*
G37*
G36*
X7329605Y2977877D02*
X7329342Y2977484D01*
X7326610Y2963750D01*
X7329342Y2950016D01*
X7337122Y2938372D01*
X7343077Y2934394D01*
Y2800400D01*
X7305600D01*
Y2700000D01*
X7229400D01*
Y2800400D01*
X7194423D01*
Y2945705D01*
X7239295Y2990577D01*
X7322816D01*
X7329605Y2977877D01*
D02*
G37*
G36*
X6686112Y2612300D02*
X6689051Y2604396D01*
X6679774Y2594266D01*
X6676390Y2594939D01*
X6662656Y2592207D01*
X6651012Y2584428D01*
X6643233Y2572784D01*
X6640501Y2559050D01*
X6643233Y2545316D01*
X6644018Y2544140D01*
Y2436988D01*
X6642628Y2430000D01*
Y2424670D01*
X6645092Y2412282D01*
X6646757Y2409790D01*
Y2367412D01*
X6634057Y2362151D01*
X6396754Y2599454D01*
X6396536Y2599600D01*
X6400389Y2612300D01*
X6433679D01*
X6459118Y2586861D01*
X6458891Y2585720D01*
X6461623Y2571986D01*
X6469402Y2560342D01*
X6481046Y2552563D01*
X6494780Y2549831D01*
X6508514Y2552563D01*
X6520158Y2560342D01*
X6527937Y2571986D01*
X6530669Y2585720D01*
X6527937Y2599454D01*
X6527840Y2599600D01*
X6529894Y2605741D01*
X6536841Y2612300D01*
X6686112D01*
D02*
G37*
G36*
X6508915Y2354887D02*
X6502659Y2343182D01*
X6494780Y2344749D01*
X6481046Y2342017D01*
X6469402Y2334238D01*
X6461623Y2322594D01*
X6458891Y2308860D01*
X6461623Y2295126D01*
X6462408Y2293950D01*
Y2278243D01*
X6420000D01*
X6409192Y2276093D01*
X6400030Y2269971D01*
X6393907Y2260808D01*
X6391758Y2250000D01*
X6393907Y2239192D01*
X6397620Y2233635D01*
X6399143Y2225000D01*
X6397620Y2216365D01*
X6393907Y2210808D01*
X6391758Y2200000D01*
X6393907Y2189192D01*
X6397620Y2183635D01*
X6399143Y2175000D01*
X6397620Y2166365D01*
X6393907Y2160808D01*
X6391758Y2150000D01*
X6393907Y2139192D01*
X6397620Y2133635D01*
X6399143Y2125000D01*
X6397620Y2116365D01*
X6393907Y2110808D01*
X6391758Y2100000D01*
X6393907Y2089192D01*
X6397620Y2083635D01*
X6398160Y2080572D01*
X6396265Y2074314D01*
X6393043Y2069423D01*
X6359987D01*
X6327510Y2101900D01*
X6332770Y2114600D01*
X6340400D01*
Y2171900D01*
X6255000D01*
Y2248100D01*
X6340400D01*
Y2299600D01*
X6365400D01*
Y2342523D01*
X6378100Y2352946D01*
X6385560Y2351462D01*
X6404250Y2355179D01*
X6420094Y2365766D01*
X6430681Y2381610D01*
X6434398Y2400300D01*
X6431632Y2414209D01*
X6443336Y2420465D01*
X6508915Y2354887D01*
D02*
G37*
G36*
X7108636Y2332620D02*
X7114192Y2328907D01*
X7125000Y2326758D01*
X7125646Y2326886D01*
X7147246Y2305286D01*
X7153547Y2301075D01*
X7160980Y2299597D01*
X7289815D01*
X7294675Y2287864D01*
X6976235Y1969423D01*
X6596957D01*
X6593735Y1974315D01*
X6591840Y1980572D01*
X6592380Y1983635D01*
X6596093Y1989192D01*
X6598243Y2000000D01*
X6596093Y2010808D01*
X6592380Y2016365D01*
X6590858Y2025000D01*
X6592380Y2033636D01*
X6596093Y2039192D01*
X6598243Y2050000D01*
X6596093Y2060808D01*
X6592380Y2066365D01*
X6590858Y2075000D01*
X6592380Y2083635D01*
X6596093Y2089192D01*
X6598243Y2100000D01*
X6596093Y2110808D01*
X6592380Y2116365D01*
X6590858Y2125000D01*
X6592380Y2133635D01*
X6596093Y2139192D01*
X6598243Y2150000D01*
X6596093Y2160808D01*
X6592380Y2166365D01*
X6590858Y2175000D01*
X6592380Y2183635D01*
X6596093Y2189192D01*
X6598243Y2200000D01*
X6596093Y2210808D01*
X6592380Y2216365D01*
X6590858Y2225000D01*
X6592380Y2233635D01*
X6596093Y2239192D01*
X6597844Y2247997D01*
X6604146Y2251563D01*
X6610544Y2253258D01*
X6658846Y2204956D01*
X6665147Y2200745D01*
X6672580Y2199267D01*
X6925310D01*
X6932743Y2200745D01*
X6939044Y2204956D01*
X7038734Y2304646D01*
X7042945Y2310947D01*
X7044423Y2318380D01*
Y2328044D01*
X7049315Y2331265D01*
X7055572Y2333160D01*
X7058635Y2332620D01*
X7064192Y2328907D01*
X7075000Y2326758D01*
X7085808Y2328907D01*
X7091365Y2332620D01*
X7100000Y2334143D01*
X7108636Y2332620D01*
D02*
G37*
G36*
X5997300Y2312300D02*
X6063077D01*
Y2292700D01*
X6022300D01*
Y2290400D01*
X5980996D01*
X5972939Y2300217D01*
X5974658Y2308860D01*
X5970941Y2327550D01*
X5963920Y2338057D01*
Y2308860D01*
X5887720D01*
Y2338057D01*
X5880699Y2327550D01*
X5876982Y2308860D01*
X5878701Y2300217D01*
X5870644Y2290400D01*
X5824600D01*
Y2230600D01*
X5925000D01*
Y2154400D01*
X5824600D01*
Y2094600D01*
X5825387D01*
X5837300Y2092700D01*
Y1922300D01*
X6009600D01*
Y1899023D01*
X5806865D01*
X5772523Y1933365D01*
Y2080259D01*
X5772523Y2080260D01*
X5771045Y2087693D01*
X5766834Y2093994D01*
X5766834Y2093995D01*
X5472094Y2388734D01*
X5465793Y2392944D01*
X5458360Y2394423D01*
X5327700D01*
Y2462700D01*
X5182300D01*
Y2295263D01*
X5173980D01*
X5166547Y2293785D01*
X5160246Y2289574D01*
X5138745Y2268073D01*
X5088650D01*
X5086773Y2267700D01*
X5064423D01*
Y2287300D01*
X5117700D01*
Y2462700D01*
X4972300D01*
Y2287300D01*
X5025577D01*
Y2267700D01*
X4982300D01*
Y2102300D01*
X4982300D01*
X4979420Y2090793D01*
X4930400D01*
Y2146900D01*
X4779600D01*
Y2089600D01*
X4857021D01*
X4862282Y2076900D01*
X4723455Y1938073D01*
X4483650D01*
X4481773Y1937700D01*
X4449423D01*
Y1962300D01*
X4502700D01*
Y2137700D01*
X4357300D01*
Y1962300D01*
X4410577D01*
Y1937700D01*
X4357300D01*
Y1762300D01*
X4502700D01*
Y1899227D01*
X4731500D01*
X4738933Y1900706D01*
X4745234Y1904916D01*
X4875567Y2035248D01*
X4887300Y2030388D01*
Y1882300D01*
X4876505Y1877700D01*
X4862300D01*
Y1759769D01*
X4697966Y1595434D01*
X4693755Y1589133D01*
X4692277Y1581700D01*
Y1385746D01*
X4460577Y1154046D01*
X4354950D01*
X4348064Y1152676D01*
X4337476Y1160045D01*
X4335416Y1161424D01*
X4332874Y1161932D01*
X4332671Y1162071D01*
X4332416Y1162023D01*
X4331479Y1162210D01*
X4327770Y1163746D01*
X4285226D01*
X4283925Y1163208D01*
X4282544Y1163482D01*
X4253564Y1157718D01*
X4252394Y1156935D01*
X4250986D01*
X4223688Y1145628D01*
X4222692Y1144632D01*
X4221311Y1144358D01*
X4196743Y1127942D01*
X4195961Y1126772D01*
X4194660Y1126233D01*
X4173767Y1105340D01*
X4173228Y1104039D01*
X4172057Y1103257D01*
X4155642Y1078689D01*
X4155367Y1077308D01*
X4154372Y1076312D01*
X4143064Y1049014D01*
Y1047606D01*
X4142282Y1046435D01*
X4136518Y1017456D01*
X4136792Y1016075D01*
X4136254Y1014774D01*
Y898633D01*
X4137154Y896460D01*
X4137019Y894111D01*
X4139089Y891788D01*
X4140280Y888913D01*
X4142453Y888013D01*
X4144019Y886256D01*
X4144234Y886153D01*
Y858520D01*
X4148260Y848800D01*
X4157980Y844774D01*
X4162931D01*
X4170702Y833142D01*
X4182346Y825363D01*
X4196080Y822631D01*
X4209814Y825363D01*
X4211113Y826231D01*
X4212332Y826651D01*
X4214302Y827205D01*
X4227313Y821780D01*
X4227405Y821608D01*
X4228913Y820370D01*
X4229536Y807685D01*
X4228766Y806914D01*
X4224555Y800613D01*
X4223077Y793180D01*
Y762700D01*
X4157300D01*
Y610705D01*
X4157243Y610557D01*
X4155400Y609414D01*
X4142700Y616479D01*
Y762700D01*
X4034863D01*
Y805482D01*
X4033384Y812915D01*
X4029174Y819216D01*
X3975345Y873045D01*
X3969044Y877255D01*
X3963046Y878448D01*
Y882050D01*
X3961676Y888937D01*
X3957775Y894775D01*
X3951937Y898676D01*
X3945050Y900046D01*
X3900234D01*
X3897221Y907321D01*
X3887500Y911347D01*
X3827675D01*
X3819228Y923600D01*
X3819349Y924334D01*
X3829950Y933006D01*
X3849400D01*
Y986500D01*
Y1039995D01*
X3829950D01*
X3821694Y1038352D01*
X3813121Y1047679D01*
X3812700Y1048526D01*
Y1065975D01*
X3816907Y1069365D01*
X3825400Y1073860D01*
X3829950Y1072955D01*
X3945050D01*
X3951937Y1074324D01*
X3957775Y1078225D01*
X3961676Y1084064D01*
X3963046Y1090950D01*
Y1136050D01*
X3961676Y1142937D01*
X3957775Y1148775D01*
X3951937Y1152676D01*
X3945050Y1154046D01*
X3829950D01*
X3825400Y1153141D01*
X3816907Y1157636D01*
X3812700Y1161025D01*
Y1192975D01*
X3816907Y1196365D01*
X3825400Y1200860D01*
X3829950Y1199955D01*
X3945050D01*
X3951937Y1201324D01*
X3957775Y1205225D01*
X3961676Y1211064D01*
X3963046Y1217950D01*
Y1263050D01*
X3961676Y1269937D01*
X3957775Y1275775D01*
X3951937Y1279676D01*
X3945050Y1281046D01*
X3922355D01*
X3917094Y1293746D01*
X3988834Y1365485D01*
X3988834Y1365486D01*
X3993045Y1371787D01*
X3994523Y1379220D01*
Y1386908D01*
X4007223Y1393790D01*
X4018280Y1391591D01*
X4032014Y1394323D01*
X4043658Y1402102D01*
X4049334Y1410597D01*
X4064180D01*
X4074759Y1406250D01*
X4085346Y1390406D01*
X4101190Y1379819D01*
X4119880Y1376102D01*
X4124783Y1377077D01*
X4134600Y1369020D01*
Y1324600D01*
X4194400D01*
Y1425000D01*
X4270600D01*
Y1324600D01*
X4330400D01*
Y1325387D01*
X4332300Y1337300D01*
X4343100Y1337300D01*
X4393077D01*
Y1281046D01*
X4354950D01*
X4348063Y1279676D01*
X4342225Y1275775D01*
X4338324Y1269937D01*
X4336954Y1263050D01*
Y1217950D01*
X4338324Y1211064D01*
X4342225Y1205225D01*
X4348063Y1201324D01*
X4354950Y1199955D01*
X4470050D01*
X4476937Y1201324D01*
X4482775Y1205225D01*
X4486676Y1211064D01*
X4488046Y1217950D01*
Y1263050D01*
X4486676Y1269937D01*
X4482775Y1275775D01*
X4476937Y1279676D01*
X4470050Y1281046D01*
X4431923D01*
Y1337300D01*
X4502700D01*
Y1512700D01*
X4332300Y1512700D01*
X4332183Y1513438D01*
X4330400Y1525400D01*
X4333233Y1536927D01*
X4376350D01*
X4378227Y1537300D01*
X4502700D01*
Y1712700D01*
X4384579D01*
X4348724Y1748554D01*
X4342423Y1752765D01*
X4334990Y1754243D01*
X4328604D01*
X4292700Y1790148D01*
Y1937700D01*
X4292700D01*
X4294631Y1949600D01*
X4305400D01*
Y2011900D01*
X4220000D01*
Y2050000D01*
X4181900D01*
Y2150400D01*
X4134600D01*
Y2105195D01*
X4124783Y2097138D01*
X4117340Y2098618D01*
X4098650Y2094901D01*
X4082806Y2084314D01*
X4082153Y2083337D01*
X4069453Y2087189D01*
Y2430634D01*
X4075408Y2434612D01*
X4083187Y2446256D01*
X4085919Y2459990D01*
X4083973Y2469777D01*
X4091451Y2482477D01*
X5997300D01*
Y2312300D01*
D02*
G37*
G36*
X9586154Y2408909D02*
Y1841091D01*
X9520993Y1775930D01*
X9477854Y1819069D01*
X9465251Y1827490D01*
X9450385Y1830447D01*
X9383614D01*
X9370400Y1827818D01*
X9364296Y1829870D01*
X9357700Y1833395D01*
Y1854067D01*
X9484475D01*
X9489462Y1846602D01*
X9501106Y1838823D01*
X9514840Y1836091D01*
X9528574Y1838823D01*
X9540218Y1846602D01*
X9547997Y1858246D01*
X9550729Y1871980D01*
X9547997Y1885714D01*
X9540218Y1897358D01*
X9528574Y1905137D01*
X9514840Y1907869D01*
X9501106Y1905137D01*
X9489462Y1897358D01*
X9486493Y1892913D01*
X9441575D01*
X9434787Y1905613D01*
X9438777Y1911586D01*
X9441509Y1925320D01*
X9438777Y1939054D01*
X9433060Y1947611D01*
X9431413Y1953142D01*
X9433330Y1964414D01*
X9460909Y1991993D01*
X9460910Y1991993D01*
X9465401Y1998715D01*
X9466978Y2006643D01*
X9466978Y2006645D01*
Y2042117D01*
X9465401Y2050045D01*
X9460910Y2056767D01*
X9460909Y2056767D01*
X9428026Y2089650D01*
X9421305Y2094141D01*
X9413376Y2095718D01*
X9413375Y2095718D01*
X9357700D01*
Y2155197D01*
X9485230D01*
X9489462Y2148862D01*
X9501106Y2141083D01*
X9514840Y2138351D01*
X9528574Y2141083D01*
X9540218Y2148862D01*
X9547997Y2160506D01*
X9550729Y2174240D01*
X9547997Y2187974D01*
X9540218Y2199618D01*
X9528574Y2207397D01*
X9514840Y2210129D01*
X9501106Y2207397D01*
X9489462Y2199618D01*
X9485738Y2194043D01*
X9357700D01*
Y2255532D01*
X9370400Y2259384D01*
X9377203Y2249203D01*
X9395462Y2237003D01*
X9417000Y2232718D01*
X9438538Y2237003D01*
X9456797Y2249203D01*
X9468997Y2267462D01*
X9473282Y2289000D01*
X9468997Y2310538D01*
X9456797Y2328797D01*
X9438538Y2340997D01*
X9424276Y2343834D01*
X9424697Y2356699D01*
X9438683Y2358541D01*
X9457025Y2366138D01*
X9472776Y2378224D01*
X9484804Y2393900D01*
X9364000D01*
Y2470100D01*
X9484804D01*
X9482231Y2473454D01*
X9488494Y2486154D01*
X9508909D01*
X9586154Y2408909D01*
D02*
G37*
G36*
X4016087Y2469777D02*
X4014141Y2459990D01*
X4016873Y2446256D01*
X4024652Y2434612D01*
X4030607Y2430634D01*
Y1814226D01*
X4018298Y1803726D01*
X4018280Y1803729D01*
X4004546Y1800997D01*
X3992902Y1793218D01*
X3985123Y1781574D01*
X3982391Y1767840D01*
X3982836Y1765600D01*
X3972413Y1752900D01*
X3929753D01*
Y2429364D01*
X3935708Y2433342D01*
X3943487Y2444986D01*
X3946219Y2458720D01*
X3944020Y2469777D01*
X3950902Y2482477D01*
X4008609D01*
X4016087Y2469777D01*
D02*
G37*
G36*
X5733677Y2072215D02*
Y1925320D01*
X5735155Y1917887D01*
X5739366Y1911586D01*
X5785085Y1865866D01*
X5785086Y1865866D01*
X5786363Y1865012D01*
X5787300Y1852700D01*
X5787300Y1850275D01*
Y1810229D01*
X5774600Y1803440D01*
X5774454Y1803537D01*
X5760720Y1806269D01*
X5746986Y1803537D01*
X5735342Y1795758D01*
X5727563Y1784114D01*
X5724831Y1770380D01*
X5727563Y1756646D01*
X5735342Y1745002D01*
X5746986Y1737223D01*
X5760720Y1734491D01*
X5774454Y1737223D01*
X5774600Y1737320D01*
X5787300Y1730531D01*
X5787300Y1682300D01*
X5775387Y1680400D01*
X5774600D01*
Y1639012D01*
X5764783Y1630956D01*
X5763260Y1631258D01*
X5744570Y1627541D01*
X5734063Y1620520D01*
X5763260D01*
Y1544320D01*
X5734063D01*
X5744570Y1537299D01*
X5763260Y1533582D01*
X5764783Y1533884D01*
X5774600Y1525828D01*
Y1484600D01*
X5776150D01*
X5784600Y1475400D01*
X5784600Y1471900D01*
Y1428154D01*
X5774783Y1420097D01*
X5768340Y1421378D01*
X5749650Y1417661D01*
X5733806Y1407074D01*
X5723219Y1391230D01*
X5719502Y1372540D01*
X5719664Y1371725D01*
X5707959Y1365469D01*
X5693783Y1379645D01*
Y1800860D01*
X5692305Y1808293D01*
X5688094Y1814594D01*
X5688094Y1814595D01*
X5417584Y2085104D01*
X5411283Y2089315D01*
X5409848Y2089600D01*
X5411099Y2102300D01*
X5507700D01*
Y2267700D01*
X5410252D01*
X5388378Y2289574D01*
X5382077Y2293785D01*
X5374644Y2295263D01*
X5327700D01*
Y2355577D01*
X5450315D01*
X5733677Y2072215D01*
D02*
G37*
G36*
X3876640Y2469777D02*
X3874441Y2458720D01*
X3877173Y2444986D01*
X3884952Y2433342D01*
X3890907Y2429364D01*
Y1740200D01*
X3877300D01*
Y1714423D01*
X3815046D01*
X3801235Y1728234D01*
X3800148Y1728961D01*
X3795794Y1733314D01*
X3789493Y1737525D01*
X3782060Y1739003D01*
X3333266D01*
X3252235Y1820035D01*
X3252234Y1820035D01*
X3252234Y1820036D01*
X2736975Y2335294D01*
X2730674Y2339505D01*
X2723241Y2340983D01*
X2294406D01*
X2164646Y2470744D01*
X2169506Y2482477D01*
X3869758D01*
X3876640Y2469777D01*
D02*
G37*
G36*
X5287300Y2047699D02*
Y1882300D01*
X5276505Y1877700D01*
X5262300D01*
Y1732300D01*
X5399227D01*
Y1688291D01*
X5400705Y1680858D01*
X5401011Y1680400D01*
X5394223Y1667700D01*
X5262300D01*
Y1633846D01*
X5037700D01*
Y1667700D01*
X4862300D01*
Y1577237D01*
X4742856Y1457793D01*
X4731123Y1462654D01*
Y1573654D01*
X4889769Y1732300D01*
X5037700D01*
Y1877700D01*
X5023495D01*
X5012700Y1882300D01*
Y2047699D01*
X5023641Y2051947D01*
X5276359D01*
X5287300Y2047699D01*
D02*
G37*
G36*
X4082806Y2015246D02*
X4098650Y2004659D01*
X4117340Y2000942D01*
X4124783Y2002422D01*
X4134600Y1994365D01*
Y1949600D01*
X4145369D01*
X4147300Y1937700D01*
X4147300D01*
Y1762300D01*
X4265610D01*
X4306825Y1721086D01*
X4306825Y1721086D01*
X4313127Y1716875D01*
X4320559Y1715397D01*
X4326945D01*
X4357300Y1685041D01*
Y1575773D01*
X4313291D01*
X4305858Y1574295D01*
X4305400Y1573989D01*
X4292700Y1580777D01*
Y1712700D01*
X4147300D01*
Y1575773D01*
X4082462D01*
X4077383Y1584889D01*
X4076861Y1588132D01*
X4112024Y1623295D01*
X4112024Y1623296D01*
X4116235Y1629597D01*
X4117713Y1637030D01*
X4117713Y1637031D01*
Y1756409D01*
X4117713Y1756410D01*
X4116235Y1763843D01*
X4112024Y1770144D01*
X4112024Y1770145D01*
X4069453Y1812715D01*
Y2012371D01*
X4082153Y2016223D01*
X4082806Y2015246D01*
D02*
G37*
G36*
X7380098Y2261497D02*
X7378722Y2260578D01*
X7370943Y2248934D01*
X7368211Y2235200D01*
X7370943Y2221466D01*
X7378722Y2209822D01*
X7384677Y2205844D01*
Y2184400D01*
X7386155Y2176967D01*
X7390366Y2170666D01*
X7424766Y2136266D01*
X7431067Y2132056D01*
X7438500Y2130577D01*
X7503044D01*
X7506265Y2125686D01*
X7508160Y2119429D01*
X7507620Y2116365D01*
X7503908Y2110808D01*
X7501758Y2100000D01*
X7503908Y2089192D01*
X7507620Y2083635D01*
X7509143Y2075000D01*
X7507620Y2066365D01*
X7503908Y2060808D01*
X7501758Y2050000D01*
X7503908Y2039192D01*
X7507620Y2033636D01*
X7509143Y2025000D01*
X7507620Y2016365D01*
X7503908Y2010808D01*
X7501758Y2000000D01*
X7503908Y1989192D01*
X7507620Y1983635D01*
X7509143Y1975000D01*
X7507620Y1966365D01*
X7503908Y1960808D01*
X7501758Y1950000D01*
X7503908Y1939192D01*
X7507620Y1933635D01*
X7509143Y1925000D01*
X7507620Y1916365D01*
X7503908Y1910808D01*
X7501758Y1900000D01*
X7503908Y1889192D01*
X7507620Y1883635D01*
X7509143Y1875000D01*
X7507620Y1866365D01*
X7503908Y1860808D01*
X7501758Y1850000D01*
X7503908Y1839192D01*
X7507620Y1833635D01*
X7509143Y1825000D01*
X7507620Y1816365D01*
X7503908Y1810808D01*
X7501758Y1800000D01*
X7503908Y1789192D01*
X7507620Y1783635D01*
X7509143Y1775000D01*
X7507620Y1766365D01*
X7503908Y1760808D01*
X7501758Y1750000D01*
X7503908Y1739192D01*
X7507620Y1733635D01*
X7509143Y1725000D01*
X7507620Y1716365D01*
X7503908Y1710808D01*
X7501758Y1700000D01*
X7503908Y1689192D01*
X7507620Y1683635D01*
X7509143Y1675000D01*
X7507620Y1666365D01*
X7503908Y1660808D01*
X7501758Y1650000D01*
X7503908Y1639192D01*
X7507620Y1633635D01*
X7509143Y1625000D01*
X7507620Y1616365D01*
X7503908Y1610808D01*
X7501758Y1600000D01*
X7503908Y1589192D01*
X7507620Y1583635D01*
X7509143Y1575000D01*
X7507620Y1566365D01*
X7503908Y1560808D01*
X7501758Y1550000D01*
X7503908Y1539192D01*
X7507620Y1533635D01*
X7509143Y1525000D01*
X7507620Y1516365D01*
X7503908Y1510808D01*
X7501758Y1500000D01*
X7503091Y1493299D01*
X7491386Y1487042D01*
X7466094Y1512334D01*
X7459793Y1516545D01*
X7452360Y1518023D01*
X6599408D01*
X6591631Y1529385D01*
X6592380Y1533635D01*
X6596093Y1539192D01*
X6598243Y1550000D01*
X6596140Y1560572D01*
X6596697Y1561372D01*
X6605496Y1569595D01*
X6609316Y1567043D01*
X6623050Y1564311D01*
X6636784Y1567043D01*
X6648428Y1574822D01*
X6656207Y1586466D01*
X6658939Y1600200D01*
X6656207Y1613934D01*
X6648428Y1625578D01*
X6636784Y1633357D01*
X6623050Y1636089D01*
X6609316Y1633357D01*
X6605979Y1631128D01*
X6597808Y1637793D01*
X6596232Y1639889D01*
X6598243Y1650000D01*
X6596093Y1660808D01*
X6592380Y1666365D01*
X6590858Y1675000D01*
X6592380Y1683635D01*
X6596093Y1689192D01*
X6598243Y1700000D01*
X6596093Y1710808D01*
X6592380Y1716365D01*
X6590858Y1725000D01*
X6592380Y1733635D01*
X6596093Y1739192D01*
X6598243Y1750000D01*
X6596093Y1760808D01*
X6592380Y1766365D01*
X6590858Y1775000D01*
X6592380Y1783635D01*
X6596093Y1789192D01*
X6598243Y1800000D01*
X6596093Y1810808D01*
X6592380Y1816365D01*
X6590858Y1825000D01*
X6592380Y1833635D01*
X6596093Y1839192D01*
X6598243Y1850000D01*
X6596093Y1860808D01*
X6592380Y1866365D01*
X6590858Y1875000D01*
X6592380Y1883635D01*
X6596093Y1889192D01*
X6598243Y1900000D01*
X6596093Y1910808D01*
X6592380Y1916365D01*
X6591840Y1919428D01*
X6593736Y1925686D01*
X6596957Y1930577D01*
X6984280D01*
X6991713Y1932056D01*
X6998014Y1936266D01*
X7335945Y2274197D01*
X7376245D01*
X7380098Y2261497D01*
D02*
G37*
G36*
X5614297Y1465175D02*
Y1318260D01*
X5615775Y1310827D01*
X5619986Y1304526D01*
X5795756Y1128755D01*
X5790496Y1116055D01*
X5771353D01*
X5758080Y1118695D01*
X5562725D01*
X5550400Y1119600D01*
Y1179400D01*
X5450000D01*
Y1255600D01*
X5550400D01*
Y1315400D01*
X5500095D01*
Y1338580D01*
X5496153Y1358401D01*
X5484925Y1375205D01*
X5468121Y1386433D01*
X5448300Y1390375D01*
X4899660D01*
X4879839Y1386433D01*
X4863035Y1375205D01*
X4851807Y1358401D01*
X4847865Y1338580D01*
Y1315400D01*
X4799601D01*
X4794997Y1326193D01*
Y1400059D01*
X4917237Y1522300D01*
X5037700D01*
Y1556153D01*
X5262300D01*
Y1522300D01*
X5437700D01*
Y1625179D01*
X5449433Y1630039D01*
X5614297Y1465175D01*
D02*
G37*
G36*
X5654937Y1792815D02*
Y1497433D01*
X5642237Y1492173D01*
X5438073Y1696336D01*
Y1751349D01*
X5438073Y1751350D01*
X5437700Y1753228D01*
Y1877700D01*
X5423495D01*
X5412700Y1882300D01*
Y2018458D01*
X5424433Y2023318D01*
X5654937Y1792815D01*
D02*
G37*
G36*
X8626313Y1620519D02*
X8620738Y1607061D01*
X8618497Y1590040D01*
X8620738Y1573019D01*
X8627308Y1557159D01*
X8637759Y1543539D01*
X8650828Y1533511D01*
X8651856Y1526654D01*
Y1526426D01*
X8650828Y1519569D01*
X8637759Y1509541D01*
X8627308Y1495921D01*
X8620738Y1480061D01*
X8618497Y1463040D01*
X8620047Y1451272D01*
X8586198Y1417423D01*
X8315943D01*
X8315314Y1422200D01*
X8305973Y1444750D01*
X8291114Y1464114D01*
X8271750Y1478973D01*
X8249200Y1488314D01*
X8225000Y1491500D01*
X8200800Y1488314D01*
X8178250Y1478973D01*
X8158886Y1464114D01*
X8144027Y1444750D01*
X8134686Y1422200D01*
X8134057Y1417423D01*
X8034485D01*
X8029625Y1429156D01*
X8159769Y1559300D01*
X8317700D01*
Y1632577D01*
X8614255D01*
X8626313Y1620519D01*
D02*
G37*
G36*
X7329521Y1441077D02*
X7328414Y1435513D01*
X7325000Y1423243D01*
X7314192Y1421093D01*
X7305030Y1414971D01*
X7294971D01*
X7285808Y1421093D01*
X7275000Y1423243D01*
X7264192Y1421093D01*
X7255030Y1414971D01*
X7244971D01*
X7235808Y1421093D01*
X7225000Y1423243D01*
X7214192Y1421093D01*
X7205030Y1414971D01*
X7194971D01*
X7185808Y1421093D01*
X7175000Y1423243D01*
X7164192Y1421093D01*
X7155030Y1414971D01*
X7144971D01*
X7135808Y1421093D01*
X7125000Y1423243D01*
X7114192Y1421093D01*
X7105030Y1414971D01*
X7094971D01*
X7085808Y1421093D01*
X7075000Y1423243D01*
X7064192Y1421093D01*
X7055030Y1414971D01*
X7044971D01*
X7035808Y1421093D01*
X7025000Y1423243D01*
X7014192Y1421093D01*
X7005030Y1414971D01*
X6994971D01*
X6985808Y1421093D01*
X6975000Y1423243D01*
X6964192Y1421093D01*
X6955030Y1414971D01*
X6944971D01*
X6935808Y1421093D01*
X6925000Y1423243D01*
X6914192Y1421093D01*
X6905030Y1414971D01*
X6894971D01*
X6885808Y1421093D01*
X6875000Y1423243D01*
X6864192Y1421093D01*
X6855030Y1414971D01*
X6844971D01*
X6835808Y1421093D01*
X6825000Y1423243D01*
X6814192Y1421093D01*
X6805030Y1414971D01*
X6794971D01*
X6785808Y1421093D01*
X6775000Y1423243D01*
X6774439Y1428416D01*
X6774758Y1430020D01*
X6772559Y1441077D01*
X6781766Y1453777D01*
X7320314D01*
X7329521Y1441077D01*
D02*
G37*
G36*
X3803886Y1548366D02*
X3860985Y1491267D01*
X3860986Y1491266D01*
X3867287Y1487055D01*
X3874720Y1485577D01*
X3877300D01*
Y1459800D01*
X3955677D01*
Y1387265D01*
X3873766Y1305355D01*
X3869556Y1299053D01*
X3868077Y1291620D01*
Y1281046D01*
X3829950D01*
X3825400Y1280141D01*
X3816907Y1284636D01*
X3812700Y1288025D01*
Y1402700D01*
X3744423D01*
Y1492300D01*
X3790200D01*
Y1545989D01*
X3802900Y1549841D01*
X3803886Y1548366D01*
D02*
G37*
G36*
X6406927Y1470390D02*
Y1450915D01*
X6006504Y1050492D01*
X5999480Y1051889D01*
X5985746Y1049157D01*
X5974102Y1041378D01*
X5966864Y1030545D01*
X5965790Y1029614D01*
X5952766Y1026682D01*
X5653143Y1326305D01*
Y1347388D01*
X5665843Y1352648D01*
X5795246Y1223246D01*
X5801547Y1219035D01*
X5808980Y1217557D01*
X6116320D01*
X6123753Y1219035D01*
X6130054Y1223246D01*
X6385590Y1478781D01*
X6395991Y1479680D01*
X6406927Y1470390D01*
D02*
G37*
G36*
X6674915Y1467444D02*
X6661266Y1453794D01*
X6657056Y1447493D01*
X6655577Y1440060D01*
Y1415337D01*
X6655029Y1414971D01*
X6648907Y1405808D01*
X6646757Y1395000D01*
Y1245000D01*
X6648907Y1234192D01*
X6655029Y1225030D01*
X6664192Y1218907D01*
X6675000Y1216758D01*
X6685808Y1218907D01*
X6691365Y1222621D01*
X6695874Y1215874D01*
X6709237Y1206944D01*
X6723139Y1204179D01*
X6726726Y1201127D01*
X6732388Y1192330D01*
X6730732Y1187700D01*
X6682300Y1187700D01*
X6680400Y1199613D01*
Y1200400D01*
X6620600D01*
Y1100000D01*
X6544400D01*
Y1200400D01*
X6484600D01*
Y1153101D01*
X6474783Y1145044D01*
X6469380Y1146118D01*
X6450690Y1142401D01*
X6440183Y1135380D01*
X6469380D01*
Y1059180D01*
X6440183D01*
X6450690Y1052159D01*
X6469380Y1048442D01*
X6474783Y1049516D01*
X6484600Y1041459D01*
X6484600Y999600D01*
X6475125Y991814D01*
X6039766D01*
X6033085Y1004515D01*
X6035369Y1016000D01*
X6033972Y1023024D01*
X6440084Y1429135D01*
X6440084Y1429136D01*
X6444295Y1435437D01*
X6445773Y1442870D01*
X6445773Y1442871D01*
Y1471758D01*
X6570000D01*
X6580808Y1473907D01*
X6588695Y1479177D01*
X6670055D01*
X6674915Y1467444D01*
D02*
G37*
G36*
X4717303Y1339241D02*
Y1163746D01*
X4541808D01*
X4536948Y1175479D01*
X4705570Y1344102D01*
X4717303Y1339241D01*
D02*
G37*
G36*
X3409945Y1049999D02*
X3412300Y1049024D01*
Y1047300D01*
X3416461D01*
X3428322Y1042387D01*
X3442387Y1028322D01*
X3449999Y1009945D01*
X3449999Y1000000D01*
X3449999D01*
X3450000Y500000D01*
Y490150D01*
X3446157Y470831D01*
X3438618Y452632D01*
X3427675Y436253D01*
X3413746Y422325D01*
X3397367Y411381D01*
X3379169Y403843D01*
X3359849Y400000D01*
X2950000D01*
X2940151Y400000D01*
X2920831Y403843D01*
X2902632Y411381D01*
X2886253Y422325D01*
X2872324Y436253D01*
X2861381Y452632D01*
X2853843Y470831D01*
X2850000Y490150D01*
X2850000Y500000D01*
X2837300Y500000D01*
X2570400Y500000D01*
Y506900D01*
X2495000D01*
Y545000D01*
X2456900D01*
Y600400D01*
X2419600D01*
Y526282D01*
X2407867Y521422D01*
X2407612Y521677D01*
X2400000Y540054D01*
X2400000Y550000D01*
X2400000Y900000D01*
X2400000Y909945D01*
X2407612Y928322D01*
X2421677Y942387D01*
X2440054Y950000D01*
X2450000Y949999D01*
X2450000Y950000D01*
X2659945D01*
X2678323Y942388D01*
X2680597Y940113D01*
Y927035D01*
X2682075Y919602D01*
X2686286Y913300D01*
X2714160Y885426D01*
X2720462Y881215D01*
X2724600Y880392D01*
Y845600D01*
X2925400D01*
Y879737D01*
X2949600D01*
Y845600D01*
X3150400D01*
Y890271D01*
X3162033Y901904D01*
X3177778Y908426D01*
X3191573Y922221D01*
X3199039Y940245D01*
X3199999Y949999D01*
X3200000Y950000D01*
X3200000Y999999D01*
X3200000Y1009945D01*
X3207612Y1028322D01*
X3221677Y1042388D01*
X3240054Y1049999D01*
X3250000Y1049999D01*
X3250000Y1050000D01*
X3409945Y1049999D01*
D02*
G37*
G36*
X4327770Y1150000D02*
X4329830Y1148621D01*
X4337203Y1137300D01*
X4336954Y1136050D01*
Y1090950D01*
X4338324Y1084064D01*
X4342225Y1078225D01*
X4348063Y1074324D01*
X4354950Y1072955D01*
X4470050D01*
X4476937Y1074324D01*
X4482775Y1078225D01*
X4486676Y1084064D01*
X4488046Y1090950D01*
Y1126577D01*
X4511468Y1150000D01*
X4717303D01*
Y1066078D01*
X4720261Y1051212D01*
X4728681Y1038610D01*
X4758439Y1008851D01*
X4771042Y1000431D01*
X4785908Y997473D01*
X4799600D01*
Y934600D01*
X4861901D01*
Y1032500D01*
X4900001D01*
Y1070600D01*
X5000400D01*
Y1130400D01*
X4999613D01*
X4987700Y1132300D01*
Y1149999D01*
X5078320D01*
X5083728Y1144591D01*
X5080360Y1131193D01*
X5075388Y1130400D01*
X5074600D01*
Y1070600D01*
X5175000D01*
X5275400D01*
Y1130400D01*
X5274613D01*
X5269640Y1131193D01*
X5266272Y1144591D01*
X5271680Y1149999D01*
X5362300D01*
Y1132300D01*
X5350387Y1130400D01*
X5349600D01*
Y1070600D01*
X5450000D01*
Y1032500D01*
X5488100D01*
Y934600D01*
X5550400D01*
Y1015105D01*
X5747447D01*
X5760720Y1012465D01*
X5784985D01*
X5793109Y1004341D01*
X5800000Y969698D01*
X5799999Y949999D01*
X5799999D01*
X5800000Y949999D01*
X5800000Y599999D01*
X5800481Y590197D01*
X5804306Y570971D01*
X5811808Y552859D01*
X5822699Y536560D01*
X5836560Y522698D01*
X5852560Y512008D01*
X5870332Y494235D01*
X5887136Y483007D01*
X5906957Y479065D01*
X6310963D01*
X6330784Y483007D01*
X6347588Y494235D01*
X6353352Y500000D01*
X7347300Y500000D01*
Y412300D01*
X7442365D01*
X7443711Y405534D01*
X7452131Y392932D01*
X7485632Y359431D01*
X7498234Y351010D01*
X7513100Y348053D01*
X7705781D01*
X7720647Y351010D01*
X7733250Y359431D01*
X7745372Y371553D01*
X7840400D01*
X7844154Y372300D01*
X7962700D01*
Y411154D01*
X8020242D01*
X8035108Y414111D01*
X8047710Y422532D01*
X8077468Y452289D01*
X8085889Y464892D01*
X8088846Y479758D01*
Y500000D01*
X8150000D01*
X8225000D01*
X8234755Y500961D01*
X8252779Y508427D01*
X8266573Y522221D01*
X8274039Y540245D01*
X8275000Y550000D01*
Y709849D01*
X8278843Y729169D01*
X8286381Y747368D01*
X8297325Y763746D01*
X8311254Y777675D01*
X8327632Y788619D01*
X8345831Y796157D01*
X8365151Y800000D01*
X8550000Y799999D01*
X8700000Y799999D01*
X8707387Y799999D01*
X8721877Y797117D01*
X8735526Y791463D01*
X8747810Y783256D01*
X8758256Y772809D01*
X8766464Y760526D01*
X8772118Y746877D01*
X8775000Y732387D01*
Y725000D01*
X8775000D01*
X8774999Y200000D01*
X8775000Y190151D01*
X8771157Y170831D01*
X8763618Y152632D01*
X8752675Y136253D01*
X8738746Y122325D01*
X8722367Y111381D01*
X8704169Y103843D01*
X8684849Y100000D01*
X8675000Y100000D01*
X4350000D01*
X4330301Y100000D01*
X4291662Y107686D01*
X4255264Y122762D01*
X4222507Y144649D01*
X4194650Y172507D01*
X4172762Y205264D01*
X4157686Y241662D01*
X4150000Y280301D01*
X4150000Y299999D01*
Y577624D01*
X4162700Y587300D01*
X4327700D01*
Y762700D01*
X4261923D01*
Y785135D01*
X4316865Y840077D01*
X4336954D01*
Y836950D01*
X4338324Y830064D01*
X4342225Y824225D01*
X4348063Y820324D01*
X4354950Y818955D01*
X4470050D01*
X4476937Y820324D01*
X4482775Y824225D01*
X4486676Y830064D01*
X4488046Y836950D01*
Y882050D01*
X4486676Y888937D01*
X4482775Y894775D01*
X4476937Y898676D01*
X4470050Y900046D01*
X4354950D01*
X4348063Y898676D01*
X4342225Y894775D01*
X4338324Y888937D01*
X4336954Y882050D01*
Y878923D01*
X4308820D01*
X4301387Y877445D01*
X4295086Y873234D01*
X4295085Y873234D01*
X4245990Y824138D01*
X4236125Y832234D01*
X4241201Y839830D01*
X4244918Y858520D01*
X4241201Y877210D01*
X4234180Y887717D01*
Y858520D01*
X4157980D01*
Y894965D01*
X4157201Y895153D01*
X4150000Y898633D01*
Y1014774D01*
X4155764Y1043754D01*
X4167072Y1071052D01*
X4183487Y1095619D01*
X4204380Y1116513D01*
X4228948Y1132928D01*
X4256246Y1144235D01*
X4285226Y1150000D01*
X4300000D01*
X4327770D01*
D02*
G37*
G36*
X929619Y949999D02*
X2299998Y949998D01*
X2299999Y949998D01*
X2299999Y949998D01*
X2300004D01*
X2311710Y949267D01*
X2328322Y942387D01*
X2342387Y928322D01*
X2349999Y909945D01*
X2349999Y899999D01*
X2349998Y699999D01*
X2349998Y699999D01*
Y690053D01*
X2342386Y671677D01*
X2328321Y657612D01*
X2309945Y650000D01*
X2299999D01*
X1572196Y649998D01*
X1550810Y658856D01*
X1524000Y662386D01*
X1497190Y658856D01*
X1475804Y649998D01*
X1274999Y649998D01*
X1274999Y649997D01*
X1265245Y649037D01*
X1247222Y641572D01*
X1233427Y627778D01*
X1225961Y609755D01*
X1225000Y600001D01*
Y390054D01*
X1217388Y371677D01*
X1203323Y357612D01*
X1184946Y350000D01*
X1110715D01*
X1109754Y350961D01*
X1108550Y350722D01*
X1106122Y350361D01*
X1103679Y350121D01*
X1101227Y350000D01*
X849999D01*
X840053Y350000D01*
X821676Y357612D01*
X807611Y371677D01*
X799999Y390054D01*
X800000Y400000D01*
Y820379D01*
X799999Y833145D01*
X804980Y858188D01*
X814750Y881778D01*
X828936Y903008D01*
X846990Y921062D01*
X868221Y935248D01*
X891810Y945019D01*
X916853Y949999D01*
X929619Y949999D01*
D02*
G37*
G36*
X7039237Y900804D02*
Y825500D01*
X7040715Y818067D01*
X7044926Y811766D01*
X7121126Y735566D01*
X7124600Y733244D01*
Y715731D01*
X7114783Y707674D01*
X7106920Y709238D01*
X7088230Y705521D01*
X7077723Y698500D01*
X7106920D01*
Y622300D01*
X7077723D01*
X7088230Y615279D01*
X7106920Y611562D01*
X7114783Y613126D01*
X7124600Y605069D01*
Y559600D01*
X7186900D01*
Y657500D01*
X7225000D01*
Y695600D01*
X7325400D01*
Y729877D01*
X7390810D01*
Y596990D01*
X7382577Y587700D01*
X7347300D01*
Y513747D01*
X6383692Y513746D01*
X6378832Y525480D01*
X6392224Y538872D01*
X6403452Y555676D01*
X6407395Y575497D01*
Y609456D01*
X6432625D01*
X6439482Y610820D01*
X6445296Y614704D01*
X6449180Y620518D01*
X6450544Y627375D01*
Y682625D01*
X6449180Y689483D01*
X6445696Y694697D01*
X6454452Y700548D01*
X6461143Y710562D01*
X6461409Y711900D01*
X6377500D01*
Y788100D01*
X6461409D01*
X6461143Y789438D01*
X6454452Y799452D01*
X6445696Y805303D01*
X6449180Y810518D01*
X6450544Y817375D01*
Y825577D01*
X6464695D01*
X6503297Y786976D01*
Y693423D01*
X6504775Y685990D01*
X6508986Y679689D01*
X6547409Y641266D01*
X6553710Y637056D01*
X6561143Y635577D01*
X6599455D01*
Y627375D01*
X6600819Y620518D01*
X6604704Y614704D01*
X6610517Y610820D01*
X6617375Y609456D01*
X6727625D01*
X6734482Y610820D01*
X6740296Y614704D01*
X6744180Y620518D01*
X6745544Y627375D01*
Y682625D01*
X6744180Y689483D01*
X6740296Y695296D01*
X6734482Y699181D01*
X6727625Y700545D01*
X6617375D01*
X6610517Y699181D01*
X6604704Y695296D01*
X6600819Y689483D01*
X6599455Y682625D01*
Y674423D01*
X6569189D01*
X6542143Y701469D01*
Y795021D01*
X6540665Y802454D01*
X6536454Y808755D01*
X6486475Y858734D01*
X6480174Y862945D01*
X6472741Y864423D01*
X6450544D01*
Y872625D01*
X6449180Y879483D01*
X6445296Y885296D01*
X6439482Y889181D01*
X6432625Y890545D01*
X6322375D01*
X6315517Y889181D01*
X6309704Y885296D01*
X6305819Y879483D01*
X6304456Y872625D01*
Y864423D01*
X6287700D01*
Y927700D01*
X6112300D01*
Y801762D01*
X6100567Y796902D01*
X6087700Y809769D01*
Y927700D01*
X6034422D01*
X6032829Y929640D01*
X6030715Y940268D01*
X6037799Y952968D01*
X6987073D01*
X7039237Y900804D01*
D02*
G37*
G36*
X3637300Y1047300D02*
Y1047300D01*
X3766526D01*
X3778344Y1042417D01*
X3792417Y1028344D01*
X3799289Y1011713D01*
X3800000Y1000005D01*
Y1000000D01*
X3799999D01*
X3800000Y1000000D01*
Y925000D01*
X3800480Y920123D01*
X3804213Y911110D01*
X3808367Y906957D01*
X3808069Y903931D01*
X3803839Y897600D01*
X3887500D01*
Y859500D01*
X3925600D01*
Y806006D01*
X3945050D01*
X3956892Y808361D01*
X3966931Y815069D01*
X3977357Y816096D01*
X3996016Y797436D01*
Y775400D01*
X3959600D01*
Y713100D01*
X4057500D01*
Y675000D01*
X4095600D01*
Y574600D01*
X4100000D01*
X4099999Y450000D01*
X4100001Y440054D01*
X4092390Y421675D01*
X4078324Y407609D01*
X4062297Y400972D01*
X4049999Y399999D01*
X3599999Y400000D01*
X3590049Y399984D01*
X3571656Y407585D01*
X3557584Y421657D01*
X3549984Y440049D01*
X3550000Y450000D01*
Y999999D01*
X3550000Y1009944D01*
X3557613Y1028320D01*
X3571677Y1042385D01*
X3583543Y1047300D01*
X3587700D01*
Y1049022D01*
X3590054Y1049997D01*
X3599999Y1049998D01*
X3599999Y1049998D01*
X3634602Y1049998D01*
X3637300Y1047300D01*
D02*
G37*
G36*
X3545601Y1037848D02*
X3545932Y1034600D01*
X3544913Y1033581D01*
X3537300Y1015205D01*
Y1012470D01*
X3536254Y1009944D01*
X3536254Y999999D01*
Y450023D01*
X3536237Y440072D01*
X3537281Y437539D01*
X3537279Y434799D01*
X3544880Y416407D01*
X3546815Y414468D01*
X3547864Y411937D01*
X3561936Y397865D01*
X3564467Y396816D01*
X3566406Y394880D01*
X3584799Y387279D01*
X3587538Y387282D01*
X3590071Y386237D01*
X3600022Y386253D01*
X4034194Y386253D01*
X4040393Y373553D01*
X4037576Y369943D01*
X2557700D01*
Y394600D01*
X2570400D01*
Y486254D01*
X2836759Y486254D01*
X2840360Y468149D01*
X2841143Y466978D01*
Y465570D01*
X2848681Y447371D01*
X2849677Y446376D01*
X2849951Y444995D01*
X2860894Y428616D01*
X2862065Y427834D01*
X2862604Y426533D01*
X2876533Y412604D01*
X2877834Y412065D01*
X2878616Y410895D01*
X2894995Y399951D01*
X2896376Y399676D01*
X2897371Y398681D01*
X2915570Y391143D01*
X2916978D01*
X2918149Y390360D01*
X2937469Y386517D01*
X2938850Y386792D01*
X2940151Y386253D01*
X2950000Y386253D01*
X3359849D01*
X3361150Y386792D01*
X3362531Y386518D01*
X3381850Y390360D01*
X3383021Y391143D01*
X3384429D01*
X3402628Y398681D01*
X3403624Y399677D01*
X3405004Y399951D01*
X3421383Y410895D01*
X3422165Y412066D01*
X3423466Y412605D01*
X3437395Y426533D01*
X3437934Y427834D01*
X3439104Y428616D01*
X3450048Y444995D01*
X3450323Y446376D01*
X3451318Y447371D01*
X3458857Y465570D01*
Y466978D01*
X3459639Y468149D01*
X3463482Y487468D01*
X3463207Y488849D01*
X3463746Y490150D01*
Y500000D01*
X3463746Y1000000D01*
X3463745Y1000001D01*
X3463745Y1009945D01*
X3462699Y1012471D01*
Y1015206D01*
X3455087Y1033583D01*
X3454070Y1034600D01*
X3454402Y1037854D01*
X3459443Y1047300D01*
X3540558D01*
X3545601Y1037848D01*
D02*
G37*
%LPC*%
G36*
X6031901Y3311900D02*
X6017113D01*
X6018862Y3303108D01*
X6025570Y3293069D01*
X6031901Y3288839D01*
Y3311900D01*
D02*
G37*
G36*
X6868100Y3170320D02*
Y3138100D01*
X6878494D01*
Y3147550D01*
X6876139Y3159392D01*
X6869431Y3169431D01*
X6868100Y3170320D01*
D02*
G37*
G36*
X6282550Y3148046D02*
X6237451D01*
X6230564Y3146676D01*
X6224726Y3142775D01*
X6220825Y3136937D01*
X6219455Y3130050D01*
Y3059950D01*
X6220825Y3053063D01*
X6224726Y3047225D01*
X6230564Y3043324D01*
X6237451Y3041954D01*
X6282550D01*
X6289437Y3043324D01*
X6295275Y3047225D01*
X6299176Y3053063D01*
X6300546Y3059950D01*
Y3130050D01*
X6299176Y3136937D01*
X6295275Y3142775D01*
X6289437Y3146676D01*
X6282550Y3148046D01*
D02*
G37*
G36*
X6426900Y3091900D02*
X6364600D01*
Y3032100D01*
X6426900D01*
Y3091900D01*
D02*
G37*
G36*
X4893846Y2288540D02*
X4816153D01*
Y2280400D01*
X4779600D01*
Y2223100D01*
X4930400D01*
Y2280400D01*
X4893846D01*
Y2288540D01*
D02*
G37*
G36*
X4305400Y2150400D02*
X4258100D01*
Y2088100D01*
X4305400D01*
Y2150400D01*
D02*
G37*
G36*
X3945050Y1039995D02*
X3925600D01*
Y986500D01*
Y933006D01*
X3945050D01*
X3954780Y934941D01*
Y988060D01*
Y1038059D01*
X3945050Y1039995D01*
D02*
G37*
G36*
X3494400Y1975400D02*
X3434600D01*
Y1929728D01*
X3424783Y1921671D01*
X3416300Y1923358D01*
X3397610Y1919641D01*
X3387103Y1912620D01*
X3416300D01*
Y1836420D01*
X3387103D01*
X3397610Y1829399D01*
X3416300Y1825682D01*
X3424783Y1827369D01*
X3434600Y1819312D01*
Y1774600D01*
X3494400D01*
Y1875000D01*
Y1975400D01*
D02*
G37*
G36*
X3630400D02*
X3570600D01*
Y1875000D01*
Y1774600D01*
X3630400D01*
Y1775387D01*
X3632300Y1787300D01*
X3643100Y1787300D01*
X3802700D01*
Y1844688D01*
X3815410D01*
X3816586Y1843903D01*
X3830320Y1841171D01*
X3844054Y1843903D01*
X3855698Y1851682D01*
X3863477Y1863326D01*
X3866209Y1877060D01*
X3863477Y1890794D01*
X3855698Y1902438D01*
X3844054Y1910217D01*
X3830320Y1912949D01*
X3816586Y1910217D01*
X3815410Y1909432D01*
X3802700D01*
Y1962700D01*
X3632300Y1962700D01*
X3630400Y1974613D01*
Y1975400D01*
D02*
G37*
G36*
X2620400Y917900D02*
X2565600D01*
Y838100D01*
X2620400D01*
Y917900D01*
D02*
G37*
G36*
X2489400D02*
X2434600D01*
Y838100D01*
X2489400D01*
Y917900D01*
D02*
G37*
G36*
X3363100Y1001513D02*
Y763100D01*
X3426632D01*
Y937500D01*
X3421751Y962043D01*
X3407848Y982848D01*
X3387043Y996751D01*
X3363100Y1001513D01*
D02*
G37*
G36*
X3286900D02*
X3262958Y996751D01*
X3242152Y982848D01*
X3228250Y962043D01*
X3223368Y937500D01*
Y763100D01*
X3286900D01*
Y1001513D01*
D02*
G37*
G36*
X3150400Y769400D02*
X3088100D01*
Y709600D01*
X3150400D01*
Y769400D01*
D02*
G37*
G36*
X3011900D02*
X2949600D01*
Y709600D01*
X3011900D01*
Y769400D01*
D02*
G37*
G36*
X2925400D02*
X2863100D01*
Y709600D01*
X2925400D01*
Y769400D01*
D02*
G37*
G36*
X2786900D02*
X2724600D01*
Y709600D01*
X2786900D01*
Y769400D01*
D02*
G37*
G36*
X2620400Y761900D02*
X2565600D01*
Y682100D01*
X2620400D01*
Y761900D01*
D02*
G37*
G36*
X2489400D02*
X2434600D01*
Y682100D01*
X2489400D01*
Y761900D01*
D02*
G37*
G36*
X2570400Y600400D02*
X2533100D01*
Y583100D01*
X2570400D01*
Y600400D01*
D02*
G37*
G36*
X3426632Y686900D02*
X3363100D01*
Y448487D01*
X3387043Y453250D01*
X3407848Y467152D01*
X3421751Y487958D01*
X3426632Y512500D01*
Y686900D01*
D02*
G37*
G36*
X3286900D02*
X3223368D01*
Y512500D01*
X3228250Y487958D01*
X3242152Y467152D01*
X3262958Y453250D01*
X3286900Y448487D01*
Y686900D01*
D02*
G37*
G36*
X4470050Y1039995D02*
X4450600D01*
Y1024600D01*
X4496161D01*
X4491931Y1030931D01*
X4481892Y1037639D01*
X4470050Y1039995D01*
D02*
G37*
G36*
X4374400D02*
X4354950D01*
X4343108Y1037639D01*
X4333069Y1030931D01*
X4328839Y1024600D01*
X4374400D01*
Y1039995D01*
D02*
G37*
G36*
X5411900Y994400D02*
X5349600D01*
Y934600D01*
X5411900D01*
Y994400D01*
D02*
G37*
G36*
X5275400D02*
X5213100D01*
Y934600D01*
X5275400D01*
Y994400D01*
D02*
G37*
G36*
X5136900D02*
X5074600D01*
Y934600D01*
X5136900D01*
Y994400D01*
D02*
G37*
G36*
X5000400D02*
X4938101D01*
Y934600D01*
X5000400D01*
Y994400D01*
D02*
G37*
G36*
X4496161Y948400D02*
X4450600D01*
Y933006D01*
X4470050D01*
X4481892Y935361D01*
X4491931Y942069D01*
X4496161Y948400D01*
D02*
G37*
G36*
X4374400D02*
X4328839D01*
X4333069Y942069D01*
X4343108Y935361D01*
X4354950Y933006D01*
X4374400D01*
Y948400D01*
D02*
G37*
G36*
X8591400Y674200D02*
X8514100D01*
Y596900D01*
X8591400D01*
Y674200D01*
D02*
G37*
G36*
X8437900D02*
X8360600D01*
Y596900D01*
X8437900D01*
Y674200D01*
D02*
G37*
G36*
X8591400Y520700D02*
X8514100D01*
Y443400D01*
X8591400D01*
Y520700D01*
D02*
G37*
G36*
X8437900D02*
X8360600D01*
Y443400D01*
X8437900D01*
Y520700D01*
D02*
G37*
G36*
X8638100Y380443D02*
Y338100D01*
X8680443D01*
X8677654Y344833D01*
X8663404Y363404D01*
X8644834Y377654D01*
X8638100Y380443D01*
D02*
G37*
G36*
X8561900D02*
X8555167Y377654D01*
X8536596Y363404D01*
X8522346Y344833D01*
X8519557Y338100D01*
X8561900D01*
Y380443D01*
D02*
G37*
G36*
X8338100D02*
Y338100D01*
X8380443D01*
X8377654Y344833D01*
X8363404Y363404D01*
X8344833Y377654D01*
X8338100Y380443D01*
D02*
G37*
G36*
X8261900D02*
X8255166Y377654D01*
X8236596Y363404D01*
X8222346Y344833D01*
X8219557Y338100D01*
X8261900D01*
Y380443D01*
D02*
G37*
G36*
X7938100Y305443D02*
Y263100D01*
X7980443D01*
X7977654Y269834D01*
X7963404Y288404D01*
X7944833Y302654D01*
X7938100Y305443D01*
D02*
G37*
G36*
X7861900D02*
X7855166Y302654D01*
X7836596Y288404D01*
X7822346Y269834D01*
X7819557Y263100D01*
X7861900D01*
Y305443D01*
D02*
G37*
G36*
X7638100D02*
Y263100D01*
X7680443D01*
X7677654Y269834D01*
X7663404Y288404D01*
X7644834Y302654D01*
X7638100Y305443D01*
D02*
G37*
G36*
X7561900D02*
X7555166Y302654D01*
X7536596Y288404D01*
X7522346Y269834D01*
X7519557Y263100D01*
X7561900D01*
Y305443D01*
D02*
G37*
G36*
X7338100D02*
Y263100D01*
X7380443D01*
X7377654Y269834D01*
X7363404Y288404D01*
X7344833Y302654D01*
X7338100Y305443D01*
D02*
G37*
G36*
X7261900D02*
X7255166Y302654D01*
X7236596Y288404D01*
X7222346Y269834D01*
X7219557Y263100D01*
X7261900D01*
Y305443D01*
D02*
G37*
G36*
X7038100D02*
Y263100D01*
X7080443D01*
X7077654Y269834D01*
X7063404Y288404D01*
X7044834Y302654D01*
X7038100Y305443D01*
D02*
G37*
G36*
X6961900D02*
X6955166Y302654D01*
X6936596Y288404D01*
X6922346Y269834D01*
X6919557Y263100D01*
X6961900D01*
Y305443D01*
D02*
G37*
G36*
X6738100D02*
Y263100D01*
X6780443D01*
X6777654Y269834D01*
X6763404Y288404D01*
X6744834Y302654D01*
X6738100Y305443D01*
D02*
G37*
G36*
X6661900D02*
X6655167Y302654D01*
X6636596Y288404D01*
X6622346Y269834D01*
X6619557Y263100D01*
X6661900D01*
Y305443D01*
D02*
G37*
G36*
X6438100D02*
Y263100D01*
X6480443D01*
X6477654Y269834D01*
X6463404Y288404D01*
X6444833Y302654D01*
X6438100Y305443D01*
D02*
G37*
G36*
X6361900D02*
X6355166Y302654D01*
X6336596Y288404D01*
X6322346Y269834D01*
X6319557Y263100D01*
X6361900D01*
Y305443D01*
D02*
G37*
G36*
X6138100D02*
Y263100D01*
X6180443D01*
X6177654Y269834D01*
X6163404Y288404D01*
X6144834Y302654D01*
X6138100Y305443D01*
D02*
G37*
G36*
X6061900D02*
X6055166Y302654D01*
X6036596Y288404D01*
X6022346Y269834D01*
X6019557Y263100D01*
X6061900D01*
Y305443D01*
D02*
G37*
G36*
X5838100D02*
Y263100D01*
X5880443D01*
X5877654Y269834D01*
X5863404Y288404D01*
X5844834Y302654D01*
X5838100Y305443D01*
D02*
G37*
G36*
X5761900D02*
X5755167Y302654D01*
X5736596Y288404D01*
X5722346Y269834D01*
X5719557Y263100D01*
X5761900D01*
Y305443D01*
D02*
G37*
G36*
X5538100D02*
Y263100D01*
X5580443D01*
X5577654Y269834D01*
X5563404Y288404D01*
X5544834Y302654D01*
X5538100Y305443D01*
D02*
G37*
G36*
X5461900D02*
X5455167Y302654D01*
X5436596Y288404D01*
X5422346Y269834D01*
X5419557Y263100D01*
X5461900D01*
Y305443D01*
D02*
G37*
G36*
X5238100D02*
Y263100D01*
X5280443D01*
X5277654Y269834D01*
X5263405Y288404D01*
X5244834Y302654D01*
X5238100Y305443D01*
D02*
G37*
G36*
X5161900D02*
X5155167Y302654D01*
X5136596Y288404D01*
X5122346Y269834D01*
X5119557Y263100D01*
X5161900D01*
Y305443D01*
D02*
G37*
G36*
X4938100D02*
Y263100D01*
X4980443D01*
X4977654Y269834D01*
X4963404Y288404D01*
X4944834Y302654D01*
X4938100Y305443D01*
D02*
G37*
G36*
X4861900D02*
X4855167Y302654D01*
X4836596Y288404D01*
X4822346Y269834D01*
X4819557Y263100D01*
X4861900D01*
Y305443D01*
D02*
G37*
G36*
X4638100D02*
Y263100D01*
X4680443D01*
X4677654Y269834D01*
X4663404Y288404D01*
X4644833Y302654D01*
X4638100Y305443D01*
D02*
G37*
G36*
X4561900D02*
X4555166Y302654D01*
X4536596Y288404D01*
X4522346Y269834D01*
X4519557Y263100D01*
X4561900D01*
Y305443D01*
D02*
G37*
G36*
X8680443Y261900D02*
X8638100D01*
Y219557D01*
X8644834Y222346D01*
X8663404Y236596D01*
X8677654Y255166D01*
X8680443Y261900D01*
D02*
G37*
G36*
X8561900D02*
X8519557D01*
X8522346Y255166D01*
X8536596Y236596D01*
X8555167Y222346D01*
X8561900Y219557D01*
Y261900D01*
D02*
G37*
G36*
X8380443D02*
X8338100D01*
Y219557D01*
X8344833Y222346D01*
X8363404Y236596D01*
X8377654Y255166D01*
X8380443Y261900D01*
D02*
G37*
G36*
X8261900D02*
X8219557D01*
X8222346Y255166D01*
X8236596Y236596D01*
X8255166Y222346D01*
X8261900Y219557D01*
Y261900D01*
D02*
G37*
G36*
X7980443Y186900D02*
X7938100D01*
Y144557D01*
X7944833Y147346D01*
X7963404Y161596D01*
X7977654Y180167D01*
X7980443Y186900D01*
D02*
G37*
G36*
X7861900D02*
X7819557D01*
X7822346Y180167D01*
X7836596Y161596D01*
X7855166Y147346D01*
X7861900Y144557D01*
Y186900D01*
D02*
G37*
G36*
X7680443D02*
X7638100D01*
Y144557D01*
X7644834Y147346D01*
X7663404Y161596D01*
X7677654Y180167D01*
X7680443Y186900D01*
D02*
G37*
G36*
X7561900D02*
X7519557D01*
X7522346Y180167D01*
X7536596Y161596D01*
X7555166Y147346D01*
X7561900Y144557D01*
Y186900D01*
D02*
G37*
G36*
X7380443D02*
X7338100D01*
Y144557D01*
X7344833Y147346D01*
X7363404Y161596D01*
X7377654Y180167D01*
X7380443Y186900D01*
D02*
G37*
G36*
X7261900D02*
X7219557D01*
X7222346Y180167D01*
X7236596Y161596D01*
X7255166Y147346D01*
X7261900Y144557D01*
Y186900D01*
D02*
G37*
G36*
X7080443D02*
X7038100D01*
Y144557D01*
X7044834Y147346D01*
X7063404Y161596D01*
X7077654Y180167D01*
X7080443Y186900D01*
D02*
G37*
G36*
X6961900D02*
X6919557D01*
X6922346Y180167D01*
X6936596Y161596D01*
X6955166Y147346D01*
X6961900Y144557D01*
Y186900D01*
D02*
G37*
G36*
X6780443D02*
X6738100D01*
Y144557D01*
X6744834Y147346D01*
X6763404Y161596D01*
X6777654Y180167D01*
X6780443Y186900D01*
D02*
G37*
G36*
X6661900D02*
X6619557D01*
X6622346Y180167D01*
X6636596Y161596D01*
X6655167Y147346D01*
X6661900Y144557D01*
Y186900D01*
D02*
G37*
G36*
X6480443D02*
X6438100D01*
Y144557D01*
X6444833Y147346D01*
X6463404Y161596D01*
X6477654Y180167D01*
X6480443Y186900D01*
D02*
G37*
G36*
X6361900D02*
X6319557D01*
X6322346Y180167D01*
X6336596Y161596D01*
X6355166Y147346D01*
X6361900Y144557D01*
Y186900D01*
D02*
G37*
G36*
X6180443D02*
X6138100D01*
Y144557D01*
X6144834Y147346D01*
X6163404Y161596D01*
X6177654Y180167D01*
X6180443Y186900D01*
D02*
G37*
G36*
X6061900D02*
X6019557D01*
X6022346Y180167D01*
X6036596Y161596D01*
X6055166Y147346D01*
X6061900Y144557D01*
Y186900D01*
D02*
G37*
G36*
X5880443D02*
X5838100D01*
Y144557D01*
X5844834Y147346D01*
X5863404Y161596D01*
X5877654Y180167D01*
X5880443Y186900D01*
D02*
G37*
G36*
X5761900D02*
X5719557D01*
X5722346Y180167D01*
X5736596Y161596D01*
X5755167Y147346D01*
X5761900Y144557D01*
Y186900D01*
D02*
G37*
G36*
X5580443D02*
X5538100D01*
Y144557D01*
X5544834Y147346D01*
X5563404Y161596D01*
X5577654Y180167D01*
X5580443Y186900D01*
D02*
G37*
G36*
X5461900D02*
X5419557D01*
X5422346Y180167D01*
X5436596Y161596D01*
X5455167Y147346D01*
X5461900Y144557D01*
Y186900D01*
D02*
G37*
G36*
X5280443D02*
X5238100D01*
Y144557D01*
X5244834Y147346D01*
X5263405Y161596D01*
X5277654Y180167D01*
X5280443Y186900D01*
D02*
G37*
G36*
X5161900D02*
X5119557D01*
X5122346Y180167D01*
X5136596Y161596D01*
X5155167Y147346D01*
X5161900Y144557D01*
Y186900D01*
D02*
G37*
G36*
X4980443D02*
X4938100D01*
Y144557D01*
X4944834Y147346D01*
X4963404Y161596D01*
X4977654Y180167D01*
X4980443Y186900D01*
D02*
G37*
G36*
X4861900D02*
X4819557D01*
X4822346Y180167D01*
X4836596Y161596D01*
X4855167Y147346D01*
X4861900Y144557D01*
Y186900D01*
D02*
G37*
G36*
X4680443D02*
X4638100D01*
Y144557D01*
X4644833Y147346D01*
X4663404Y161596D01*
X4677654Y180167D01*
X4680443Y186900D01*
D02*
G37*
G36*
X4561900D02*
X4519557D01*
X4522346Y180167D01*
X4536596Y161596D01*
X4555166Y147346D01*
X4561900Y144557D01*
Y186900D01*
D02*
G37*
G36*
X2315400Y917900D02*
X2260600D01*
Y838100D01*
X2315400D01*
Y917900D01*
D02*
G37*
G36*
X2184400D02*
X2129600D01*
Y838100D01*
X2184400D01*
Y917900D01*
D02*
G37*
G36*
X2315400Y761900D02*
X2260600D01*
Y682100D01*
X2315400D01*
Y761900D01*
D02*
G37*
G36*
X2184400D02*
X2129600D01*
Y682100D01*
X2184400D01*
Y761900D01*
D02*
G37*
G36*
X1131400Y674200D02*
X1054100D01*
Y596900D01*
X1131400D01*
Y674200D01*
D02*
G37*
G36*
X977900D02*
X900600D01*
Y596900D01*
X977900D01*
Y674200D01*
D02*
G37*
G36*
X1131400Y520700D02*
X1054100D01*
Y443400D01*
X1131400D01*
Y520700D01*
D02*
G37*
G36*
X977900D02*
X900600D01*
Y443400D01*
X977900D01*
Y520700D01*
D02*
G37*
G36*
X6962700Y927700D02*
X6787300D01*
Y882597D01*
X6742099D01*
X6740296Y885296D01*
X6734482Y889181D01*
X6727625Y890545D01*
X6617375D01*
X6610517Y889181D01*
X6604704Y885296D01*
X6600819Y879483D01*
X6599455Y872625D01*
Y817375D01*
X6600819Y810518D01*
X6604704Y804704D01*
X6610517Y800820D01*
X6617375Y799456D01*
X6727625D01*
X6734482Y800820D01*
X6740296Y804704D01*
X6740429Y804904D01*
X6787300D01*
X6787300Y757300D01*
X6775387Y755400D01*
X6774600D01*
Y695600D01*
X6875000D01*
Y657500D01*
X6913100D01*
Y559600D01*
X6975400D01*
Y604472D01*
X6985217Y612529D01*
X6990080Y611562D01*
X7008770Y615279D01*
X7019277Y622300D01*
X6990080D01*
Y698500D01*
X7019277D01*
X7008770Y705521D01*
X6990080Y709238D01*
X6985217Y708271D01*
X6975400Y716328D01*
Y755400D01*
X6974613D01*
X6962700Y757300D01*
X6962700Y768100D01*
Y804433D01*
X6982460D01*
X6997326Y807391D01*
X7009929Y815811D01*
X7018349Y828414D01*
X7021307Y843280D01*
X7018349Y858146D01*
X7009929Y870749D01*
X6997326Y879169D01*
X6982460Y882127D01*
X6962700D01*
Y927700D01*
D02*
G37*
G36*
X7325400Y619400D02*
X7263100D01*
Y559600D01*
X7325400D01*
Y619400D01*
D02*
G37*
G36*
X6836900D02*
X6774600D01*
Y559600D01*
X6836900D01*
Y619400D01*
D02*
G37*
G36*
X3849400Y821400D02*
X3803839D01*
X3808069Y815069D01*
X3818108Y808361D01*
X3829950Y806006D01*
X3849400D01*
Y821400D01*
D02*
G37*
G36*
X3713101Y1001513D02*
Y763100D01*
X3776633D01*
Y937500D01*
X3771751Y962043D01*
X3757849Y982848D01*
X3737043Y996751D01*
X3713101Y1001513D01*
D02*
G37*
G36*
X3636901D02*
X3612959Y996751D01*
X3592153Y982848D01*
X3578251Y962043D01*
X3573369Y937500D01*
Y763100D01*
X3636901D01*
Y1001513D01*
D02*
G37*
G36*
X4019400Y636900D02*
X3959600D01*
Y574600D01*
X4019400D01*
Y636900D01*
D02*
G37*
G36*
X3776633Y686900D02*
X3713101D01*
Y448487D01*
X3737043Y453250D01*
X3757849Y467152D01*
X3771751Y487958D01*
X3776633Y512500D01*
Y686900D01*
D02*
G37*
G36*
X3636901D02*
X3573369D01*
Y512500D01*
X3578251Y487958D01*
X3592153Y467152D01*
X3612959Y453250D01*
X3636901Y448487D01*
Y686900D01*
D02*
G37*
%LPD*%
G36*
X9484570Y3656517D02*
X9479548Y3649972D01*
X9472978Y3634111D01*
X9470737Y3617091D01*
X9472978Y3600070D01*
X9479548Y3584209D01*
X9489999Y3570589D01*
X9492162Y3568930D01*
X9491290Y3553590D01*
X9480941Y3545650D01*
X9468455Y3529377D01*
X9467964Y3528191D01*
X9536500D01*
Y3451991D01*
X9467964D01*
X9468455Y3450804D01*
X9480880Y3434611D01*
X9483015Y3431717D01*
Y3421464D01*
X9480880Y3418570D01*
X9468455Y3402377D01*
X9467964Y3401191D01*
X9536500D01*
Y3324991D01*
X9467964D01*
X9468455Y3323804D01*
X9480941Y3307532D01*
X9491290Y3299591D01*
X9492162Y3284251D01*
X9489999Y3282592D01*
X9479548Y3268972D01*
X9472978Y3253111D01*
X9470737Y3236091D01*
X9472978Y3219070D01*
X9479548Y3203209D01*
X9489999Y3189589D01*
X9492162Y3187930D01*
X9491290Y3172590D01*
X9480941Y3164650D01*
X9468455Y3148377D01*
X9467964Y3147191D01*
X9536500D01*
Y3070991D01*
X9467964D01*
X9468455Y3069805D01*
X9458130Y3063003D01*
X9407398Y3113734D01*
X9401097Y3117945D01*
X9393664Y3119423D01*
X9302700D01*
Y3187300D01*
Y3362300D01*
Y3537300D01*
Y3605577D01*
X9393073D01*
X9400506Y3607056D01*
X9406808Y3611266D01*
X9464759Y3669217D01*
X9478307D01*
X9484570Y3656517D01*
D02*
G37*
D10*
X7875000Y655000D02*
D03*
Y445000D02*
D03*
X6000000Y855000D02*
D03*
Y645000D02*
D03*
X6200000D02*
D03*
Y855000D02*
D03*
X5350000Y1595000D02*
D03*
Y1805000D02*
D03*
X4950000Y1595000D02*
D03*
Y1805000D02*
D03*
X6275000Y1780000D02*
D03*
Y1570000D02*
D03*
X6075000Y1780000D02*
D03*
Y1570000D02*
D03*
D11*
X9605000Y1125000D02*
D03*
X9395000D02*
D03*
X5310000Y3522500D02*
D03*
X5520000D02*
D03*
X6210001D02*
D03*
X6420001D02*
D03*
X7110001D02*
D03*
X7320001D02*
D03*
X8010000D02*
D03*
X8220001D02*
D03*
X6405000Y2700000D02*
D03*
X6195000D02*
D03*
X5255000Y2375000D02*
D03*
X5045000D02*
D03*
X4220000Y2050000D02*
D03*
X4430000D02*
D03*
X4220000Y1850000D02*
D03*
X4430000D02*
D03*
X4430000Y1625000D02*
D03*
X4220000D02*
D03*
X3717500Y1580000D02*
D03*
X3507500D02*
D03*
X9230000Y3100000D02*
D03*
X9020000D02*
D03*
X9230000Y3275000D02*
D03*
X9020000D02*
D03*
X9230000Y3450000D02*
D03*
X9020000D02*
D03*
X9230000Y3625000D02*
D03*
X9020000D02*
D03*
D12*
X9436500Y1300000D02*
D03*
X9213500D02*
D03*
D13*
X8050000Y1025000D02*
D03*
X8145000Y825000D02*
D03*
X7955000D02*
D03*
D14*
X7482500Y1100000D02*
D03*
X7667500D02*
D03*
X7082500D02*
D03*
X7267500D02*
D03*
X6767500D02*
D03*
X6582500D02*
D03*
X7432500Y500000D02*
D03*
X7617500D02*
D03*
X5957500Y3522500D02*
D03*
X5772501D02*
D03*
X6857500D02*
D03*
X6672500D02*
D03*
X7757500D02*
D03*
X7572500D02*
D03*
X8842500Y2350000D02*
D03*
X8657500D02*
D03*
X7642500Y2700000D02*
D03*
X7457500D02*
D03*
X7082500D02*
D03*
X7267500D02*
D03*
X6607500D02*
D03*
X6792500D02*
D03*
X6082500Y2400000D02*
D03*
X6267500D02*
D03*
X6067500Y1375000D02*
D03*
X5882500D02*
D03*
X4057500Y675000D02*
D03*
X4242500D02*
D03*
X2467500Y1450000D02*
D03*
X2282500D02*
D03*
X3717500Y1875000D02*
D03*
X3532500D02*
D03*
X4417500Y1425000D02*
D03*
X4232500D02*
D03*
X2282500Y150000D02*
D03*
X2467500D02*
D03*
X8657500Y1800000D02*
D03*
X8842500D02*
D03*
D15*
X7430000Y667472D02*
D03*
D16*
X7525000D02*
D03*
X7620000D02*
D03*
Y882528D02*
D03*
X7430000D02*
D03*
D17*
X7225000Y842500D02*
D03*
Y657500D02*
D03*
X6875000D02*
D03*
Y842500D02*
D03*
X7825000Y1582500D02*
D03*
Y1767500D02*
D03*
Y2167500D02*
D03*
Y1982500D02*
D03*
X5925000Y2007500D02*
D03*
Y2192500D02*
D03*
X5875000Y1582500D02*
D03*
Y1767500D02*
D03*
X3050000Y807500D02*
D03*
Y992500D02*
D03*
X2825000Y807500D02*
D03*
Y992500D02*
D03*
X3500000Y1132500D02*
D03*
Y1317500D02*
D03*
X3725000Y1132500D02*
D03*
Y1317500D02*
D03*
X5450000Y1032500D02*
D03*
Y1217500D02*
D03*
X5175000Y1032500D02*
D03*
Y1217500D02*
D03*
X4900000Y1032500D02*
D03*
Y1217500D02*
D03*
X8265000Y3315000D02*
D03*
Y3130000D02*
D03*
X7365000Y3315000D02*
D03*
Y3130000D02*
D03*
X6465000Y3315000D02*
D03*
Y3130000D02*
D03*
X5565000Y3315000D02*
D03*
Y3130000D02*
D03*
D18*
X6377500Y845000D02*
D03*
Y750000D02*
D03*
Y655000D02*
D03*
X6672500D02*
D03*
Y845000D02*
D03*
X2522500Y1220000D02*
D03*
Y1030000D02*
D03*
X2227500D02*
D03*
Y1125000D02*
D03*
Y1220000D02*
D03*
D19*
X6909501Y4620099D02*
D03*
X7389500D02*
D03*
X6909500Y3820100D02*
D03*
X7389500Y3820101D02*
D03*
X7809501Y4620099D02*
D03*
X8289500D02*
D03*
X7809500Y3820100D02*
D03*
X8289500Y3820101D02*
D03*
X6009501Y4620099D02*
D03*
X6489500D02*
D03*
X6009500Y3820100D02*
D03*
X6489500Y3820101D02*
D03*
X5109501Y4620099D02*
D03*
X5589500D02*
D03*
X5109500Y3820100D02*
D03*
X5589500Y3820101D02*
D03*
D20*
X9272500Y1755000D02*
D03*
Y1675000D02*
D03*
Y2245000D02*
D03*
Y2325000D02*
D03*
D21*
Y1925000D02*
D03*
Y1875000D02*
D03*
Y1825000D02*
D03*
Y2075000D02*
D03*
Y2125000D02*
D03*
Y2175000D02*
D03*
Y2025000D02*
D03*
Y1975000D02*
D03*
D22*
X3675001Y725000D02*
D03*
X3325000D02*
D03*
D23*
X6255000Y1990000D02*
D03*
Y2210000D02*
D03*
X6095000Y1990000D02*
D03*
Y2210000D02*
D03*
D24*
X2255000Y355000D02*
D03*
Y545000D02*
D03*
X2495000D02*
D03*
Y450000D02*
D03*
Y355000D02*
D03*
D25*
X8970000Y1975000D02*
D03*
Y2025000D02*
D03*
Y2075000D02*
D03*
Y2125000D02*
D03*
Y2175000D02*
D03*
X8530000Y1975000D02*
D03*
Y2025000D02*
D03*
Y2075000D02*
D03*
Y2125000D02*
D03*
Y2175000D02*
D03*
D26*
X4040000Y1695000D02*
D03*
X3975000D02*
D03*
X3910000D02*
D03*
Y1505000D02*
D03*
X3975000D02*
D03*
X4040000D02*
D03*
D27*
X3887500Y1240500D02*
D03*
Y1113500D02*
D03*
Y986500D02*
D03*
Y859500D02*
D03*
X4412500Y1240500D02*
D03*
Y1113500D02*
D03*
Y986500D02*
D03*
Y859500D02*
D03*
D28*
X5360000Y3350000D02*
D03*
X5265000D02*
D03*
X5170001D02*
D03*
Y3095000D02*
D03*
X5360000D02*
D03*
X6260000Y3350000D02*
D03*
X6165000D02*
D03*
X6070001D02*
D03*
Y3095000D02*
D03*
X6260000D02*
D03*
X7160000Y3350000D02*
D03*
X7065000D02*
D03*
X6970001D02*
D03*
Y3095000D02*
D03*
X7160000D02*
D03*
X8060000Y3350000D02*
D03*
X7965000D02*
D03*
X7870001D02*
D03*
Y3095000D02*
D03*
X8060000D02*
D03*
D29*
X5930000Y3345000D02*
D03*
X5865000D02*
D03*
X5800000D02*
D03*
Y3100000D02*
D03*
X5930000D02*
D03*
X6700000Y3100000D02*
D03*
X6765000D02*
D03*
X6830000D02*
D03*
Y3345000D02*
D03*
X6700000D02*
D03*
X7600000Y3100000D02*
D03*
X7665000D02*
D03*
X7730000D02*
D03*
Y3345000D02*
D03*
X7600000D02*
D03*
D30*
X6495000Y2250000D02*
D03*
Y2200000D02*
D03*
Y2150000D02*
D03*
Y2100000D02*
D03*
Y2050000D02*
D03*
Y2000000D02*
D03*
Y1950000D02*
D03*
Y1900000D02*
D03*
Y1850000D02*
D03*
Y1800000D02*
D03*
Y1750000D02*
D03*
Y1700000D02*
D03*
Y1650000D02*
D03*
Y1600000D02*
D03*
Y1550000D02*
D03*
Y1500000D02*
D03*
X7605000D02*
D03*
Y1550000D02*
D03*
Y1600000D02*
D03*
Y1650000D02*
D03*
Y1700000D02*
D03*
Y1750000D02*
D03*
Y1800000D02*
D03*
Y1850000D02*
D03*
Y1900000D02*
D03*
Y1950000D02*
D03*
Y2000000D02*
D03*
Y2050000D02*
D03*
Y2100000D02*
D03*
Y2150000D02*
D03*
Y2200000D02*
D03*
Y2250000D02*
D03*
D31*
X6675000Y1320000D02*
D03*
X6725000D02*
D03*
X6775000D02*
D03*
X6825000D02*
D03*
X6875000D02*
D03*
X6925000D02*
D03*
X6975000D02*
D03*
X7025000D02*
D03*
X7075000D02*
D03*
X7125000D02*
D03*
X7175000D02*
D03*
X7225000D02*
D03*
X7275000D02*
D03*
X7325000D02*
D03*
X7375000D02*
D03*
X7425000D02*
D03*
Y2430000D02*
D03*
X7375000D02*
D03*
X7325000D02*
D03*
X7275000D02*
D03*
X7225000D02*
D03*
X7175000D02*
D03*
X7125000D02*
D03*
X7075000D02*
D03*
X7025000D02*
D03*
X6975000D02*
D03*
X6925000D02*
D03*
X6875000D02*
D03*
X6825000D02*
D03*
X6775000D02*
D03*
X6725000D02*
D03*
X6675000D02*
D03*
D32*
X2222500Y800000D02*
D03*
X2527500D02*
D03*
D33*
X5445000Y2185000D02*
D03*
X5350000Y1965000D02*
D03*
X5255000Y2185000D02*
D03*
X5045000D02*
D03*
X4950000Y1965000D02*
D03*
X4855000Y2185000D02*
D03*
D34*
X8125000Y1100000D02*
X9013500D01*
X8064600Y1044600D02*
X8069600D01*
X8050000Y920000D02*
Y1030000D01*
X9013500Y1100000D02*
X9197400Y1283900D01*
X8050000Y1030000D02*
X8064600Y1044600D01*
X8069600D02*
X8125000Y1100000D01*
X7513100Y386900D02*
X7705781D01*
X7479600Y420400D02*
X7513100Y386900D01*
X7431090Y501410D02*
X7479600Y452900D01*
Y420400D02*
Y452900D01*
X7705781Y386900D02*
X7729281Y410400D01*
X7840400D02*
X7880000Y450000D01*
X9251100Y1283900D02*
X9395000Y1140000D01*
Y1125000D02*
Y1140000D01*
X9213500Y1290000D02*
Y1300000D01*
X7431090Y501410D02*
Y666381D01*
X7430000Y667472D02*
X7431090Y666381D01*
X7729281Y410400D02*
X7840400D01*
X8050000Y479758D02*
Y725000D01*
X8020242Y450000D02*
X8050000Y479758D01*
X7880000Y450000D02*
X8020242D01*
X7955000Y820000D02*
X8050000Y725000D01*
X7955000Y820000D02*
Y825000D01*
X7969600Y844600D02*
X7974600D01*
X7955000Y830000D02*
X7969600Y844600D01*
X7955000Y825000D02*
Y830000D01*
X7974600Y844600D02*
X8050000Y920000D01*
X9207400Y1283900D02*
X9213500Y1290000D01*
X9197400Y1283900D02*
X9207400D01*
X9219600D02*
X9251100D01*
X9213500Y1290000D02*
X9219600Y1283900D01*
X9507100Y1734886D02*
X9534886D01*
X9625000Y1825000D01*
Y2425000D01*
X9525000Y2525000D02*
X9625000Y2425000D01*
X9277408Y2525000D02*
X9525000D01*
X9161900Y2409492D02*
X9277408Y2525000D01*
X9161900Y2279219D02*
Y2409492D01*
Y2279219D02*
X9191519Y2249600D01*
X9267900D01*
X9272500Y2245000D01*
X9450385Y1791600D02*
X9507100Y1734886D01*
X9383614Y1791600D02*
X9450385D01*
X9507100Y1492546D02*
Y1734886D01*
X9436500Y1421946D02*
X9507100Y1492546D01*
X9436500Y1300000D02*
Y1421946D01*
X9351614Y1759600D02*
X9383614Y1791600D01*
X9272500Y1755000D02*
X9277100Y1759600D01*
X9351614D01*
X2410460Y449580D02*
X2489500D01*
X2492040Y447040D01*
X2255000Y472960D02*
Y545000D01*
X7364280Y3129280D02*
X7365000Y3130000D01*
X7251700Y3129280D02*
X7364280D01*
X7868920Y3348919D02*
X7870001Y3350000D01*
X7868920Y3268980D02*
Y3348919D01*
X7729220Y3100780D02*
X7730000Y3100000D01*
X7729220Y3100780D02*
Y3182620D01*
X8265000Y3130000D02*
X8265720Y3129280D01*
X8371840D01*
X8265000Y3315000D02*
X8265300Y3314700D01*
X8371840D01*
X8009520Y3522980D02*
X8010000Y3522500D01*
X7929880Y3522980D02*
X8009520D01*
X7757500Y3522500D02*
X7757980Y3522980D01*
X7866380D01*
X8060000Y3337500D02*
Y3350000D01*
Y3337500D02*
X8062100Y3335400D01*
X8244600D01*
X8265000Y3315000D01*
X4950000Y1595000D02*
X5350000D01*
X4756150Y1066078D02*
Y1416150D01*
X4896180Y1036320D02*
X4900000Y1032500D01*
X4785908Y1036320D02*
X4896180D01*
X4756150Y1066078D02*
X4785908Y1036320D01*
X4935000Y1595000D02*
X4950000D01*
X4756150Y1416150D02*
X4935000Y1595000D01*
X9272500Y2325000D02*
X9313650D01*
X9318250Y2329600D01*
Y2409273D01*
X9340977Y2432000D01*
X9364000D01*
X9272500Y1675000D02*
X9313650D01*
X9318250Y1670400D01*
Y1590728D02*
Y1670400D01*
Y1590728D02*
X9340977Y1568000D01*
X9364000D01*
X8842500Y1800000D02*
X8846820Y1795680D01*
Y1684020D02*
Y1795680D01*
X7266940Y2699440D02*
X7267500Y2700000D01*
X7266940Y2588260D02*
Y2699440D01*
X7642500Y2700000D02*
X7645400Y2697100D01*
Y2585720D02*
Y2697100D01*
X7454900Y2697400D02*
X7457500Y2700000D01*
X7454900Y2585720D02*
Y2697400D01*
X6791960Y2699460D02*
X6792500Y2700000D01*
X6791960Y2590800D02*
Y2699460D01*
X6830000Y3100000D02*
X6830060Y3099940D01*
Y3012440D02*
Y3099940D01*
X6465000Y3130000D02*
X6469360Y3134360D01*
X6578600D01*
X6465000Y3315000D02*
X6467241Y3317240D01*
X6578600D01*
X6067900Y3352100D02*
X6070001Y3350000D01*
X6067900Y3352100D02*
Y3409600D01*
X5959560Y3517940D02*
X6067900Y3409600D01*
X5959560Y3517940D02*
Y3520440D01*
X6207941D02*
X6210001Y3522500D01*
X6126480Y3520440D02*
X6207941D01*
X6672020Y3522980D02*
X6672500Y3522500D01*
X6563360Y3522980D02*
X6672020D01*
X6857500Y3520000D02*
Y3522500D01*
Y3520000D02*
X6967900Y3409600D01*
Y3352100D02*
Y3409600D01*
Y3352100D02*
X6970001Y3350000D01*
X6859560Y3520440D02*
X6959600D01*
X6857500Y3522500D02*
X6859560Y3520440D01*
X6697100Y3347900D02*
X6700000Y3345000D01*
X6697100Y3347900D02*
Y3497900D01*
X6672500Y3522500D02*
X6697100Y3497900D01*
X6282501Y3315000D02*
X6465000D01*
X6260000Y3337500D02*
X6282501Y3315000D01*
X6260000Y3337500D02*
Y3350000D01*
X7107941Y3520440D02*
X7110001Y3522500D01*
X7025640Y3520440D02*
X7107941D01*
X7572500Y3522500D02*
X7574280Y3524279D01*
Y3632200D01*
X7365000Y3315000D02*
X7367241Y3317240D01*
X7477760D01*
X7182500Y3315000D02*
X7365000D01*
X7160000Y3337500D02*
X7182500Y3315000D01*
X7160000Y3337500D02*
Y3350000D01*
X7597100Y3347900D02*
X7600000Y3345000D01*
X7597100Y3347900D02*
Y3497900D01*
X7572500Y3522500D02*
X7597100Y3497900D01*
X7807960Y3823619D02*
Y3954780D01*
Y4500880D02*
Y4621660D01*
X6911340Y3821079D02*
Y3952240D01*
Y4498340D02*
Y4619120D01*
X6009640Y3821079D02*
Y3952240D01*
Y4498340D02*
Y4619120D01*
X7825000Y1875000D02*
Y1982500D01*
Y1767500D02*
Y1875000D01*
X7919240D02*
X7919720Y1874520D01*
X7825000Y1875000D02*
X7919240D01*
X6874220Y843280D02*
X6982460D01*
X6873750Y843750D02*
X6874220Y843280D01*
X5565000Y3130000D02*
X5571900Y3136900D01*
X5679440D01*
X5797100Y3342100D02*
X5800000Y3345000D01*
X5797100Y3269800D02*
Y3342100D01*
X5778500Y3251200D02*
X5797100Y3269800D01*
X5959560Y3520440D02*
X6062980D01*
X5170001Y3350000D02*
X5171440Y3351439D01*
Y3426460D01*
X5109501Y4620099D02*
X5110480Y4619120D01*
Y4498340D02*
Y4619120D01*
X5109500Y3820100D02*
X5110480Y3821079D01*
Y3952240D01*
X2282160Y1450340D02*
X2282500Y1450000D01*
X2176780Y1450340D02*
X2282160D01*
X2492040Y447040D02*
X2495000Y450000D01*
X5254400Y2184400D02*
X5255000Y2185000D01*
X5161280Y2184400D02*
X5254400D01*
X4855000Y2185000D02*
Y2325580D01*
X4853940Y2326640D02*
X4855000Y2325580D01*
X8842500Y2350000D02*
X8844540Y2352040D01*
X8956040D01*
X2467500Y150000D02*
X2469900Y152400D01*
X2583180D01*
X2222500Y800000D02*
X2238750Y783750D01*
Y549600D02*
Y783750D01*
Y549600D02*
X2243350Y545000D01*
X2255000D01*
X2225000Y1027500D02*
X2227500Y1030000D01*
X2225000Y802500D02*
Y1027500D01*
X2222500Y800000D02*
X2225000Y802500D01*
X2467500Y1450000D02*
X2984840D01*
X3289300Y1145540D01*
X2495000Y1220000D02*
X2522500D01*
X2487900Y1227100D02*
X2495000Y1220000D01*
X2487900Y1227100D02*
Y1254600D01*
X2467500Y1275000D02*
X2487900Y1254600D01*
X2467500Y1275000D02*
Y1450000D01*
X6579780Y1097280D02*
X6582500Y1100000D01*
X6469380Y1097280D02*
X6579780D01*
X7082320Y1099820D02*
X7082500Y1100000D01*
X6969760Y1099820D02*
X7082320D01*
X7667500Y1100000D02*
X7667680Y1099820D01*
X7782560D01*
X7525000Y636770D02*
X7526007Y635763D01*
X7529073D02*
X7570400Y594436D01*
X7526007Y635763D02*
X7529073D01*
X7525000Y636770D02*
Y667472D01*
X7570400Y547100D02*
X7617500Y500000D01*
X7570400Y547100D02*
Y594436D01*
X7617500Y500000D02*
Y501540D01*
X7664600Y548640D01*
X7729220D01*
X7222100Y660400D02*
X7225000Y657500D01*
X7106920Y660400D02*
X7222100D01*
X6875000Y657500D02*
X6877900Y660400D01*
X6990080D01*
X6250240Y750000D02*
X6377500D01*
X6248400Y751840D02*
X6250240Y750000D01*
X6000000Y645000D02*
X6002020Y647020D01*
Y749300D01*
X6392440Y1700000D02*
X6402122D01*
X6347040Y1745400D02*
X6392440Y1700000D01*
X6275000Y1780000D02*
X6309600Y1745400D01*
X6347040D01*
X6273800Y1568800D02*
X6275000Y1570000D01*
X6273800Y1480820D02*
Y1568800D01*
X7430000Y874767D02*
Y882528D01*
X7428993Y873760D02*
X7430000Y874767D01*
X7386320Y873760D02*
X7428993D01*
X7225000Y842500D02*
X7355060D01*
X7386320Y873760D01*
X6672500Y845000D02*
X6673750Y843750D01*
X6873750D01*
X5880040Y1372540D02*
X5882500Y1375000D01*
X5768340Y1372540D02*
X5880040D01*
X5925000Y2192500D02*
X5925820Y2193320D01*
Y2308860D01*
X5874920Y1582420D02*
X5875000Y1582500D01*
X5763260Y1582420D02*
X5874920D01*
X6093460Y1988460D02*
X6095000Y1990000D01*
X6267500Y2400000D02*
X6267800Y2400300D01*
X6385560D01*
X6255000Y2210000D02*
X6261250Y2216250D01*
Y2393750D01*
X6267500Y2400000D01*
X4219780Y2049780D02*
X4220000Y2050000D01*
X4117340Y2049780D02*
X4219780D01*
X4232440Y1424940D02*
X4232500Y1425000D01*
X4119880Y1424940D02*
X4232440D01*
X3889060Y988060D02*
X3992880D01*
X3887500Y986500D02*
X3889060Y988060D01*
X3975000Y1695000D02*
X3975100Y1694900D01*
Y1620520D02*
Y1694900D01*
X3532020Y1874520D02*
X3532500Y1875000D01*
X3416300Y1874520D02*
X3532020D01*
X3504840Y1577340D02*
X3507500Y1580000D01*
X3403600Y1577340D02*
X3504840D01*
X3498220Y1315720D02*
X3500000Y1317500D01*
X3388360Y1315720D02*
X3498220D01*
X3048000Y994500D02*
X3050000Y992500D01*
X3048000Y994500D02*
Y1107440D01*
X2779402Y1035598D02*
X2822500Y992500D01*
X2779402Y1035598D02*
X2817938D01*
X2821940Y1039600D01*
Y1107440D01*
X2822500Y992500D02*
X2825000D01*
X2116040Y1125000D02*
X2227500D01*
X2115820Y1125220D02*
X2116040Y1125000D01*
D35*
X8146900Y826900D02*
Y946900D01*
X8145000Y825000D02*
X8146900Y826900D01*
Y946900D02*
X8150000Y950000D01*
X6068060Y2001520D02*
X6083480D01*
X6095000Y1990000D01*
X5760720Y1064260D02*
X5806440D01*
X5484400Y1066900D02*
X5758080D01*
X5760720Y1064260D01*
X5862320Y1008380D02*
Y1008380D01*
Y575497D02*
Y1008380D01*
X5806440Y1064260D02*
X5862320Y1008380D01*
X5450000Y1032500D02*
X5484400Y1066900D01*
X5862320Y575497D02*
X5906957Y530860D01*
X6355600Y575497D02*
Y649400D01*
X6310963Y530860D02*
X6355600Y575497D01*
X5906957Y530860D02*
X6310963D01*
X6361200Y655000D02*
X6377500D01*
X6355600Y649400D02*
X6361200Y655000D01*
X5173980Y1338580D02*
X5311140D01*
X5448300D01*
X5036820D02*
X5173980D01*
X4899660D02*
X5036820D01*
X5448300Y1219200D02*
X5450000Y1217500D01*
X5448300Y1219200D02*
Y1338580D01*
X5173980Y1218520D02*
X5175000Y1217500D01*
X5173980Y1218520D02*
Y1338580D01*
X4899660Y1217840D02*
X4900000Y1217500D01*
X4899660Y1217840D02*
Y1338580D01*
D36*
X7620000Y667472D02*
X7862528D01*
X7875000Y655000D01*
X3639820Y1425200D02*
X3683450D01*
X3609340Y1239520D02*
Y1394720D01*
X3639820Y1425200D01*
X3594100Y1224280D02*
X3609340Y1239520D01*
X3393440Y1224280D02*
X3594100D01*
X3373120Y1203960D02*
X3393440Y1224280D01*
X3373120Y1140460D02*
Y1203960D01*
X2660620Y1030000D02*
X2700020Y990600D01*
Y927035D02*
X2727895Y899160D01*
X2700020Y927035D02*
Y990600D01*
X2727895Y899160D02*
X3131820D01*
X3164840Y932180D02*
Y1033780D01*
X3131820Y899160D02*
X3164840Y932180D01*
Y1033780D02*
X3213100Y1082040D01*
X4430000Y1610000D02*
Y1625000D01*
X4376350Y1556350D02*
X4430000Y1610000D01*
X4313291Y1556350D02*
X4376350D01*
X4280941Y1524000D02*
X4313291Y1556350D01*
X4119880Y1524000D02*
X4280941D01*
X4081727Y1485847D02*
X4119880Y1524000D01*
X4081727Y1447747D02*
Y1485847D01*
X4071620Y1437640D02*
X4081727Y1447747D01*
X4064180Y1430020D02*
X4071620Y1437460D01*
Y1437640D01*
X4020820Y1430020D02*
X4064180D01*
X4018280Y1427480D02*
X4020820Y1430020D01*
X3314700Y1082040D02*
X3373120Y1140460D01*
X3213100Y1082040D02*
X3314700D01*
X2522500Y1030000D02*
X2660620D01*
X9272500Y2175000D02*
X9272880Y2174620D01*
X9514460D01*
X9514840Y2174240D01*
X9272500Y1875000D02*
X9274010Y1873490D01*
X9513330D01*
X9514840Y1871980D01*
X7437120Y1473200D02*
X7512320Y1398000D01*
X6708140Y1473200D02*
X7437120D01*
X7512320Y1398000D02*
X8225000D01*
X6496401Y1498600D02*
X7452360D01*
X7527560Y1423400D02*
X7996400D01*
X7452360Y1498600D02*
X7527560Y1423400D01*
X6675000Y1320000D02*
Y1440060D01*
X6708140Y1473200D01*
X6495000Y1500000D02*
X6496401Y1498600D01*
X7267500Y1100000D02*
X7284720Y1117220D01*
Y1204720D01*
X7325000Y1245000D02*
Y1320000D01*
X7284720Y1204720D02*
X7325000Y1245000D01*
X5633720Y1318260D02*
Y1473221D01*
X5979589Y972391D02*
X6995118D01*
X5633720Y1318260D02*
X5979589Y972391D01*
X2495000Y355000D02*
X2499480Y350520D01*
X4076700D01*
X5808980Y1236980D02*
X6116320D01*
X6376670Y1497330D01*
X5674360Y1371600D02*
X5808980Y1236980D01*
X6082500Y1570000D02*
X6090000D01*
X6067500Y1555000D02*
X6082500Y1570000D01*
X6067500Y1375000D02*
Y1555000D01*
X6090000Y1570000D02*
X6197670Y1677670D01*
X6350000D01*
X6377670Y1650000D02*
X6495000D01*
X6350000Y1677670D02*
X6377670Y1650000D01*
X6495000Y1600000D02*
X6495100Y1600100D01*
X6622950D01*
X6623050Y1600200D01*
X5996940Y858060D02*
X6000000Y855000D01*
X5996940Y858060D02*
Y929640D01*
X6434341Y1500000D02*
X6495000D01*
X6426350Y1492009D02*
X6434341Y1500000D01*
X6426350Y1442870D02*
Y1492009D01*
X5999480Y1016000D02*
X6426350Y1442870D01*
X5674360Y1371600D02*
Y1800860D01*
X5403850Y2071370D02*
X5674360Y1800860D01*
X4430000Y1865000D02*
Y2050000D01*
X6376670Y1497330D02*
Y1542561D01*
X6384110Y1550000D02*
X6495000D01*
X6376670Y1542561D02*
X6384110Y1550000D01*
X4430000Y1850000D02*
Y1865000D01*
X4483650Y1918650D01*
X4731500D01*
X4884220Y2071370D01*
X5403850D01*
X6699250Y2269490D02*
X6875650D01*
X6925000Y2318840D01*
Y2430000D01*
X6684010Y2244090D02*
X6899910D01*
X6383020Y2545080D02*
X6684010Y2244090D01*
X6899910D02*
X6975000Y2319180D01*
X6925310Y2218690D02*
X7025000Y2318380D01*
X6672580Y2218690D02*
X6925310D01*
X6389370Y2501900D02*
X6672580Y2218690D01*
X4052570Y2586990D02*
X4053840Y2585720D01*
X6383020D01*
X6699250Y2269490D01*
X3933175Y1570990D02*
X4032250D01*
X3910000Y1505000D02*
X3911295Y1506295D01*
Y1549110D01*
X3933175Y1570990D01*
X4098290Y1637030D02*
Y1756410D01*
X4032250Y1570990D02*
X4098290Y1637030D01*
X4050030Y1804670D02*
Y2459990D01*
Y1804670D02*
X4098290Y1756410D01*
X3909060Y2545080D02*
X6383020D01*
X3910000Y1695000D02*
X3910330Y1695330D01*
Y2458720D01*
X1483360Y2748280D02*
Y2790190D01*
Y2748280D02*
X1490980Y2740660D01*
X1910080D01*
X2148840Y2501900D01*
X1798320Y2677160D02*
X1930761D01*
X2286361Y2321560D01*
X1913890Y2622867D02*
X1916112D01*
X2242820Y2296160D01*
X2148840Y2501900D02*
X6389370D01*
X7025000Y2318380D02*
Y2430000D01*
X6975000Y2319180D02*
Y2430000D01*
X6494090Y1949090D02*
X6495000Y1950000D01*
X6363610Y1949090D02*
X6494090D01*
X6362700Y1948180D02*
X6363610Y1949090D01*
X5872120Y1770380D02*
X5875000Y1767500D01*
X5760720Y1770380D02*
X5872120D01*
X5753100Y1925320D02*
X5798820Y1879600D01*
X6337341D02*
X6366941Y1850000D01*
X5798820Y1879600D02*
X6337341D01*
X6366941Y1850000D02*
X6495000D01*
X5753100Y1925320D02*
Y2080260D01*
X5255000Y2375000D02*
X5458360D01*
X5753100Y2080260D01*
X7058660Y825500D02*
Y908850D01*
X7134860Y749300D02*
X7559329D01*
X7058660Y825500D02*
X7134860Y749300D01*
X7582731Y725898D02*
X7582731D01*
X7559329Y749300D02*
X7582731Y725898D01*
X7582731D02*
X7620000Y688629D01*
Y667472D02*
Y688629D01*
X6995118Y972391D02*
X7058660Y908850D01*
X5350000Y1805000D02*
X5365000D01*
X5418650Y1751350D01*
Y1688291D02*
Y1751350D01*
Y1688291D02*
X5633720Y1473221D01*
X4711700Y1377700D02*
Y1581700D01*
X4935000Y1805000D01*
X4950000D01*
X4412500Y1113500D02*
X4447500D01*
X4711700Y1377700D01*
X2242820Y2296160D02*
X2712720D01*
X2286361Y2321560D02*
X2723241D01*
X3238500Y1806301D02*
Y1806301D01*
X2723241Y2321560D02*
X3238500Y1806301D01*
Y1806301D02*
X3325221Y1719580D01*
X3787501Y1714500D02*
X3807001Y1695000D01*
X3787140Y1714500D02*
X3787501D01*
X3807001Y1695000D02*
X3910000D01*
X3782060Y1719580D02*
X3787140Y1714500D01*
X3325221Y1719580D02*
X3782060D01*
X3314700Y1694180D02*
X3771900D01*
X3817620Y1562100D02*
Y1648460D01*
X3771900Y1694180D02*
X3817620Y1648460D01*
Y1562100D02*
X3874720Y1505000D01*
X3910000D01*
X2712720Y2296160D02*
X3314700Y1694180D01*
X3725000Y1317500D02*
Y1572500D01*
X3717500Y1580000D02*
X3725000Y1572500D01*
X5350000Y1805000D02*
Y1965000D01*
X4950000Y1805000D02*
Y1965000D01*
X5374644Y2275840D02*
X5401350Y2249134D01*
X5173980Y2275840D02*
X5374644D01*
X5401350Y2228650D02*
X5445000Y2185000D01*
X5401350Y2228650D02*
Y2249134D01*
X5045000Y2205000D02*
Y2375000D01*
Y2185000D02*
Y2205000D01*
X5088650Y2248650D01*
X5146790D01*
X5173980Y2275840D01*
X5045000Y2375000D02*
X5045000Y2375000D01*
X8933412Y1919450D02*
X9025000Y1827862D01*
Y1598840D02*
Y1827862D01*
X8889200Y1463040D02*
X9025000Y1598840D01*
X8811260Y1590040D02*
X8821220Y1600000D01*
X8976360Y1607440D02*
Y1840581D01*
X8821220Y1600000D02*
X8968920D01*
X8976360Y1607440D01*
X8536350Y2018650D02*
X8681351D01*
X8805951Y1894050D02*
X8922891D01*
X8681351Y2018650D02*
X8805951Y1894050D01*
X7996400Y1423400D02*
X8225000Y1652000D01*
X7275000Y2532500D02*
X7362500Y2620000D01*
X7275000Y2430000D02*
Y2532500D01*
X7362500Y2620000D02*
Y2963750D01*
X7175000Y2558750D02*
Y2953750D01*
Y2558750D02*
X7216250Y2517500D01*
X7175000Y2953750D02*
X7231250Y3010000D01*
X7455362D01*
X7600000Y3074950D02*
Y3100000D01*
X7583850Y3058800D02*
X7600000Y3074950D01*
X7504162Y3058800D02*
X7583850D01*
X7455362Y3010000D02*
X7504162Y3058800D01*
X6970001Y3082500D02*
Y3095000D01*
X6948850Y3061350D02*
X6970001Y3082500D01*
X6946590Y3061350D02*
X6948850D01*
X6939150Y3053910D02*
X6946590Y3061350D01*
X6939150Y2624314D02*
Y3053910D01*
X6970124Y2593340D02*
X7089160D01*
X7175000Y2430000D02*
Y2507500D01*
X7089160Y2593340D02*
X7175000Y2507500D01*
X6939150Y2624314D02*
X6970124Y2593340D01*
X6913750Y2613793D02*
Y2797500D01*
Y2613793D02*
X6959603Y2567940D01*
X6889310Y2821940D02*
X6913750Y2797500D01*
X6331140Y2821940D02*
X6889310D01*
X6070001Y3095000D02*
Y3175600D01*
Y3082500D02*
Y3095000D01*
X6959603Y2567940D02*
X7061200D01*
X7125000Y2504140D01*
X6091731Y3061350D02*
X6331140Y2821940D01*
X6878320Y2796540D02*
X6885940Y2788920D01*
Y2600960D02*
X6944360Y2542540D01*
X6885940Y2600960D02*
Y2788920D01*
X6022340Y3042920D02*
X6045200Y3020060D01*
X6097099D02*
X6320619Y2796540D01*
X6045200Y3020060D02*
X6097099D01*
X7042142Y2542540D02*
X7075720Y2508962D01*
X6944360Y2542540D02*
X7042142D01*
X6320619Y2796540D02*
X6878320D01*
X5906495Y3274200D02*
X6022340Y3158355D01*
Y3042920D02*
Y3158355D01*
X5865000Y3274200D02*
X5906495D01*
X6070001Y3082500D02*
X6091151Y3061350D01*
X6091731D01*
X6879580Y3272620D02*
X6897540D01*
X6830000Y3315000D02*
X6846150Y3298850D01*
X6853350D02*
X6879580Y3272620D01*
X6846150Y3298850D02*
X6853350D01*
X6830000Y3315000D02*
Y3345000D01*
X6897540Y3272620D02*
X6903720Y3266440D01*
X5930000Y3315000D02*
Y3345000D01*
Y3315000D02*
X5946150Y3298850D01*
X5946751D01*
X6070001Y3175600D01*
X6495000Y1950000D02*
X6984280D01*
X7327900Y2293620D02*
X7879802D01*
X6984280Y1950000D02*
X7327900Y2293620D01*
X6296180Y3197860D02*
X6319870Y3221550D01*
X6159500Y3197860D02*
X6296180D01*
X5865000Y3345000D02*
X5881150Y3361150D01*
X7125000Y2430000D02*
Y2504140D01*
X7404100Y2184400D02*
Y2235200D01*
X7438500Y2150000D02*
X7605000D01*
X7404100Y2184400D02*
X7438500Y2150000D01*
X7523480Y2402840D02*
X7881259D01*
X8890000Y3411581D01*
Y3505200D01*
X9020000Y3610000D02*
Y3625000D01*
X8966350Y3556350D02*
X9020000Y3610000D01*
X8941150Y3556350D02*
X8966350D01*
X8890000Y3505200D02*
X8941150Y3556350D01*
X7425000Y2411382D02*
Y2430000D01*
Y2411382D02*
X7432991Y2403390D01*
X7451610D01*
X7510581Y2344420D01*
X7858760D01*
X8948390Y3434050D01*
X7160980Y2319020D02*
X7869281D01*
X8756611Y3206350D01*
X7125000Y2355000D02*
X7160980Y2319020D01*
X8966350Y3206350D02*
X9020000Y3260000D01*
X8756611Y3206350D02*
X8966350D01*
X8948390Y3434050D02*
X9004049D01*
X7879802Y2293620D02*
X8617532Y3031350D01*
X9004049Y3434050D02*
X9020000Y3450000D01*
Y3085000D02*
Y3100000D01*
X8966350Y3031350D02*
X9020000Y3085000D01*
X8617532Y3031350D02*
X8966350D01*
X7125000Y2355000D02*
Y2430000D01*
X9020000Y3260000D02*
Y3275000D01*
X5835490Y3191350D02*
X5896450D01*
X5800000Y3100000D02*
X5808250Y3108249D01*
Y3164110D01*
X5835490Y3191350D01*
X5742940Y3152140D02*
X5865000Y3274200D01*
X5896450Y3191350D02*
X5905500Y3200400D01*
X5742940Y3058214D02*
Y3152140D01*
X5865000Y3274200D02*
Y3345000D01*
X6755059Y3223450D02*
X7638101D01*
X6700000Y3168391D02*
X6755059Y3223450D01*
X6700000Y3100000D02*
Y3168391D01*
X6522720Y693423D02*
Y795021D01*
X6561143Y655000D02*
X6672500D01*
X6522720Y693423D02*
X6561143Y655000D01*
X6472741Y845000D02*
X6522720Y795021D01*
X6210000Y845000D02*
X6377500D01*
X6405000D01*
X6472741D01*
X6200000Y855000D02*
X6210000Y845000D01*
X6106245Y724135D02*
X6185380Y645000D01*
X6106245Y724135D02*
Y763755D01*
X6015000Y855000D02*
X6106245Y763755D01*
X6185380Y645000D02*
X6200000D01*
X6000000Y855000D02*
X6015000D01*
X6082500Y2212500D02*
Y2400000D01*
X6260000Y1995000D02*
X6265000Y2000000D01*
X5925000Y2007500D02*
X5991150Y2073650D01*
X6021709D01*
X6027109Y2079050D01*
X6175950D01*
X6260000Y1995000D01*
X6260000D01*
X6351941Y2050000D02*
X6495000D01*
X6303766Y2098175D02*
X6351941Y2050000D01*
X6196825Y2098175D02*
X6303766D01*
X6082500Y2212500D02*
X6196825Y2098175D01*
X6265000Y2000000D02*
X6495000D01*
X3500000Y1132500D02*
X3725000D01*
X3744000Y1113500D02*
X3887500D01*
X3725000Y1132500D02*
X3744000Y1113500D01*
X3887500Y859500D02*
X3887690Y859311D01*
X3961611D02*
X4015440Y805482D01*
Y717061D02*
Y805482D01*
X3887690Y859311D02*
X3961611D01*
X4015440Y717061D02*
X4057500Y675000D01*
X4242500D02*
Y793180D01*
X4308820Y859500D02*
X4412500D01*
X4242500Y793180D02*
X4308820Y859500D01*
X4412500Y1240500D02*
Y1420000D01*
X4417500Y1425000D01*
X4430000Y1850000D02*
X4430000Y1850000D01*
X4274029Y1781350D02*
X4320559Y1734820D01*
X4334990D01*
X4430000Y1625000D02*
Y1640000D01*
X4376350Y1693650D02*
X4430000Y1640000D01*
X4376160Y1693650D02*
X4376350D01*
X4334990Y1734820D02*
X4376160Y1693650D01*
X4273650Y1781350D02*
X4274029D01*
X4220000Y1835000D02*
X4273650Y1781350D01*
X4220000Y1835000D02*
Y1850000D01*
X4220000Y1610000D02*
Y1625000D01*
X4166350Y1556350D02*
X4220000Y1610000D01*
X4078850Y1556350D02*
X4166350D01*
X4040000Y1517500D02*
X4078850Y1556350D01*
X4040000Y1505000D02*
Y1517500D01*
X3975000Y1505000D02*
X4040000D01*
X3975000D02*
X3975100Y1504900D01*
Y1379220D02*
Y1504900D01*
X3887500Y1240500D02*
Y1291620D01*
X3975100Y1379220D01*
X2227500Y1220000D02*
X2308060D01*
X2468850Y1059210D01*
Y1056150D02*
Y1059210D01*
Y1056150D02*
X2495000Y1030000D01*
X2522500D01*
X9661547Y3005950D02*
X9735050Y3079454D01*
Y3291541D01*
X9162109Y3005950D02*
X9661547D01*
X9663500Y3363091D02*
X9735050Y3291541D01*
X9150950Y3017109D02*
X9162109Y3005950D01*
X9150950Y3017109D02*
Y3182891D01*
X9230000Y3260000D02*
Y3275000D01*
X9164050Y3194050D02*
X9230000Y3260000D01*
X9162109Y3194050D02*
X9164050D01*
X9150950Y3182891D02*
X9162109Y3194050D01*
X9230000Y3100000D02*
X9393664D01*
X9456124Y3037541D01*
X9591950D01*
X9663500Y3109091D01*
X9735050Y3561641D02*
Y3646728D01*
X9162109Y3719050D02*
X9662727D01*
X9663500Y3490091D02*
X9735050Y3561641D01*
X9662727Y3719050D02*
X9735050Y3646728D01*
X9150950Y3542109D02*
Y3707891D01*
X9162109Y3719050D01*
X9591950Y3688641D02*
X9663500Y3617091D01*
X9150950Y3542109D02*
X9162109Y3530950D01*
X9456714Y3688641D02*
X9591950D01*
X9164050Y3530950D02*
X9230000Y3465000D01*
X9162109Y3530950D02*
X9164050D01*
X9393073Y3625000D02*
X9456714Y3688641D01*
X9230000Y3450000D02*
Y3465000D01*
Y3625000D02*
X9393073D01*
X7637509Y3028450D02*
X7815371D01*
X7870001Y3082500D02*
Y3095000D01*
X7848850Y3061350D02*
X7870001Y3082500D01*
X7848271Y3061350D02*
X7848850D01*
X7815371Y3028450D02*
X7848271Y3061350D01*
X7600000Y3100000D02*
X7616150Y3083850D01*
Y3049809D02*
Y3083850D01*
Y3049809D02*
X7637509Y3028450D01*
X7660640Y3104360D02*
X7665000Y3100000D01*
X7575959Y3175000D02*
X7653200D01*
X7660640Y3104360D02*
Y3167560D01*
X7653200Y3175000D02*
X7660640Y3167560D01*
X7510200Y3109241D02*
X7575959Y3175000D01*
X7510200Y3100759D02*
Y3109241D01*
X6970001Y3095000D02*
X7047450D01*
X7106500Y3035950D01*
X7445391D01*
X7510200Y3100759D01*
X7713501Y3298850D02*
X7713850D01*
X7730000Y3315000D01*
X7638101Y3223450D02*
X7713501Y3298850D01*
X6748850Y3047788D02*
Y3083850D01*
X6729512Y3028450D02*
X6748850Y3047788D01*
X6672509Y3028450D02*
X6729512D01*
X6748850Y3083850D02*
X6765000Y3100000D01*
X6658450Y3042509D02*
X6672509Y3028450D01*
X6658450Y3042509D02*
Y3136900D01*
X6573800Y3221550D02*
X6658450Y3136900D01*
X6319870Y3221550D02*
X6573800D01*
X7730000Y3315000D02*
Y3345000D01*
X5170001Y3082500D02*
X5191151Y3061350D01*
X5217130Y3035950D02*
X5720675D01*
X5170001Y3082500D02*
Y3095000D01*
X5191151Y3061350D02*
X5191730D01*
X5217130Y3035950D01*
X5720675D02*
X5742940Y3058214D01*
X8140950Y3522500D02*
X8220001D01*
X8109421Y3490970D02*
X8140950Y3522500D01*
X8109421Y3459979D02*
Y3490970D01*
X8071256Y3421814D02*
X8109421Y3459979D01*
X8024315Y3421814D02*
X8071256D01*
X7965000Y3362500D02*
X8024315Y3421814D01*
X7965000Y3350000D02*
Y3362500D01*
X7240950Y3522500D02*
X7320001D01*
X7209421Y3490970D02*
X7240950Y3522500D01*
X7209421Y3459979D02*
Y3490970D01*
X7171256Y3421814D02*
X7209421Y3459979D01*
X7124315Y3421814D02*
X7171256D01*
X7065000Y3362500D02*
X7124315Y3421814D01*
X7065000Y3350000D02*
Y3362500D01*
X6340950Y3522500D02*
X6420001D01*
X6309421Y3490970D02*
X6340950Y3522500D01*
X6309421Y3459979D02*
Y3490970D01*
X6271256Y3421814D02*
X6309421Y3459979D01*
X6224315Y3421814D02*
X6271256D01*
X6165000Y3362500D02*
X6224315Y3421814D01*
X6165000Y3350000D02*
Y3362500D01*
X5440950Y3522500D02*
X5520000D01*
X5409420Y3490970D02*
X5440950Y3522500D01*
X5409420Y3459979D02*
Y3490970D01*
X5371256Y3421814D02*
X5409420Y3459979D01*
X5324315Y3421814D02*
X5371256D01*
X5265000Y3362500D02*
X5324315Y3421814D01*
X5265000Y3350000D02*
Y3362500D01*
X8289500Y3820101D02*
Y4620099D01*
X7389500Y3820101D02*
Y4620099D01*
X6489500Y3820101D02*
Y4620099D01*
X5589500Y3820101D02*
Y4620099D01*
X8220001Y3522500D02*
Y3654252D01*
X8289500Y3723751D01*
Y3820101D01*
X7320001Y3522500D02*
Y3654252D01*
X7389500Y3723751D01*
Y3820101D01*
X6420001Y3522500D02*
Y3603850D01*
X6489500Y3673349D01*
Y3820101D01*
X5520000Y3522500D02*
Y3603850D01*
X5589500Y3673349D01*
Y3820101D01*
X8659284Y1463040D02*
X8684260D01*
X8594244Y1398000D02*
X8659284Y1463040D01*
X8225000Y1398000D02*
X8594244D01*
X8622300Y1652000D02*
X8684260Y1590040D01*
X8225000Y1652000D02*
X8622300D01*
X8811260Y1463040D02*
X8889200D01*
X8831961Y1919450D02*
X8933412D01*
X8682761Y2068650D02*
X8831961Y1919450D01*
X8922891Y1894050D02*
X8976360Y1840581D01*
X8536350Y2068650D02*
X8682761D01*
X8530000Y2075000D02*
X8536350Y2068650D01*
X8530000Y2025000D02*
X8536350Y2018650D01*
X8970000Y1975000D02*
X8970000Y1975000D01*
D37*
X2340910Y354030D02*
X2341880Y353060D01*
X2272520Y354030D02*
X2340910D01*
X8862150Y2075090D02*
X8969910D01*
X8655820Y1798320D02*
X8657500Y1800000D01*
X8547100Y1798320D02*
X8655820D01*
X8655460Y2352040D02*
X8657500Y2350000D01*
X8547100Y2352040D02*
X8655460D01*
X7825000Y2167500D02*
X7828420Y2164080D01*
X7917180D01*
X7825000Y1582500D02*
X7825080Y1582420D01*
X7919720D01*
X7482500Y1100000D02*
X7487920Y1094580D01*
Y998220D02*
Y1094580D01*
X7117080Y840740D02*
X7226300D01*
X7225000Y842040D02*
X7226300Y840740D01*
X7228840Y838200D01*
X7225000Y842040D02*
Y842500D01*
X6775000Y1107500D02*
X6782680Y1099820D01*
X6870700D01*
X6195000Y2700000D02*
X6197520Y2697480D01*
X6283960D01*
X5930000Y3100000D02*
X5930450Y3099550D01*
Y3015430D02*
Y3099550D01*
Y3015430D02*
X5930900Y3014980D01*
X5661660Y3515360D02*
X5765361D01*
X5772501Y3522500D01*
X5565000Y3315000D02*
X5565300Y3314700D01*
X5679440D01*
X5360000Y3337500D02*
Y3350000D01*
Y3337500D02*
X5368451Y3329050D01*
X5380951D01*
X5395001Y3315000D01*
X5565000D01*
X5310000Y3522500D02*
X5311140Y3523640D01*
Y3632200D01*
X2255970Y354030D02*
X2272520D01*
X2282500Y344050D01*
X2255000Y355000D02*
X2255970Y354030D01*
X4039050Y1695950D02*
X4040000Y1695000D01*
X4039050Y1695950D02*
Y1745203D01*
X4018280Y1765973D02*
X4039050Y1745203D01*
X4018280Y1765973D02*
Y1767840D01*
X3717500Y1875000D02*
X3719560Y1877060D01*
X3830320D01*
X6075000Y1780000D02*
X6075680Y1779320D01*
Y1676400D02*
Y1779320D01*
X8417560Y1997318D02*
Y2103662D01*
X8439878Y2125980D02*
X8529020D01*
X8417560Y2103662D02*
X8439878Y2125980D01*
X8657500Y2148298D02*
Y2350000D01*
X8530980Y2125980D02*
X8635182D01*
X8657500Y2148298D01*
X8439878Y1975000D02*
X8530000D01*
X8417560Y1997318D02*
X8439878Y1975000D01*
X8604050Y1853450D02*
X8657500Y1800000D01*
X8604050Y1853450D02*
Y1945350D01*
X8574400Y1975000D02*
X8604050Y1945350D01*
X8530000Y1975000D02*
X8574400D01*
X2282500Y150000D02*
Y344050D01*
X6494780Y2585720D02*
Y2596980D01*
X6405880Y2685880D02*
X6494780Y2596980D01*
X6675000Y2424670D02*
X6676390Y2426060D01*
Y2559050D01*
X6405880Y2685880D02*
X6420000Y2700000D01*
X6405000Y2685000D02*
X6405880Y2685880D01*
Y2699120D01*
X6494780Y2250221D02*
X6495000Y2250000D01*
X6494780Y2250221D02*
Y2308860D01*
X6405000Y2700000D02*
X6405880Y2699120D01*
X6675000Y2424670D02*
Y2430000D01*
X7074900Y2692400D02*
X7082500Y2700000D01*
X6982460Y2692400D02*
X7074900D01*
X6675000Y2430000D02*
X6675060Y2430060D01*
X6420000Y2700000D02*
X6607500D01*
X7605000Y2250000D02*
X7742500D01*
X7769050Y2223450D01*
Y2220950D02*
Y2223450D01*
Y2220950D02*
X7822500Y2167500D01*
X7825000D01*
X7425000Y1253100D02*
Y1320000D01*
Y1253100D02*
X7482500Y1195600D01*
Y1100000D02*
Y1195600D01*
X6775000Y1107500D02*
Y1320000D01*
D38*
X8969910Y2075090D02*
X8970000Y2075000D01*
X8862060Y2075180D02*
X8862150Y2075090D01*
X7604820Y2199820D02*
X7605000Y2200000D01*
X7475400Y2199820D02*
X7604820D01*
X7475220Y2199640D02*
X7475400Y2199820D01*
X7375000Y1320000D02*
X7375580Y1320580D01*
Y1429440D01*
X7376160Y1430020D01*
X6725000Y1320000D02*
X6725460Y1320460D01*
Y1429560D01*
X6725920Y1430020D01*
X6724825Y2429825D02*
X6725000Y2430000D01*
X6724825Y2314115D02*
Y2429825D01*
X6724650Y2313940D02*
X6724825Y2314115D01*
D39*
X8970000Y2025000D02*
X9272500D01*
X9198692Y1983490D02*
X9199802Y1982380D01*
X9265120D01*
X8970000Y2025000D02*
X8970000Y2025000D01*
X9195747Y1983490D02*
X9198692D01*
X9272500Y1925000D02*
X9272660Y1925160D01*
X9405460D01*
X9405620Y1925320D01*
X9272500Y1975000D02*
X9414617D01*
X9413376Y2075000D02*
X9446260Y2042117D01*
Y2006643D02*
Y2042117D01*
X9272500Y2075000D02*
X9413376D01*
X9414617Y1975000D02*
X9446260Y2006643D01*
X9272810Y2024690D02*
X9403130D01*
X9403440Y2024380D01*
X9272500Y2025000D02*
X9272810Y2024690D01*
X9067800Y1983490D02*
X9195747D01*
X9265120Y1982380D02*
X9272500Y1975000D01*
X9061177Y1976867D02*
X9067800Y1983490D01*
X8971868Y1976867D02*
X9061177D01*
X8970000Y1975000D02*
X8971868Y1976867D01*
D40*
X250000Y250000D02*
D03*
X9750000D02*
D03*
Y4750000D02*
D03*
X250000D02*
D03*
D41*
X9663500Y3109091D02*
D03*
Y3236091D02*
D03*
X9536500Y3109091D02*
D03*
Y3236091D02*
D03*
X9663500Y3363091D02*
D03*
Y3490091D02*
D03*
X9536500Y3363091D02*
D03*
Y3490091D02*
D03*
X9663500Y3617091D02*
D03*
X9536500D02*
D03*
X8684260Y1590040D02*
D03*
X8811260D02*
D03*
X8684260Y1463040D02*
D03*
X8811260D02*
D03*
D42*
X9252000Y3900000D02*
D03*
X8225000Y1398000D02*
D03*
D43*
X8998000Y3900000D02*
D03*
D44*
X9782000Y1568000D02*
D03*
Y2432000D02*
D03*
D45*
X9364000D02*
D03*
Y1568000D02*
D03*
D46*
X9417000Y2289000D02*
D03*
Y1711000D02*
D03*
D47*
X8476000Y558800D02*
D03*
X1016000D02*
D03*
D48*
X8984000D02*
D03*
X1524000D02*
D03*
D49*
X8225000Y1652000D02*
D03*
D50*
X1584500Y2197600D02*
D03*
D51*
X4600000Y225000D02*
D03*
X4900000D02*
D03*
X5200000D02*
D03*
X5500000D02*
D03*
X5800000D02*
D03*
X6100000D02*
D03*
X6400000D02*
D03*
X6700000D02*
D03*
X7000000D02*
D03*
X7300000D02*
D03*
X7600000D02*
D03*
X7900000D02*
D03*
X8300000Y300000D02*
D03*
X8600000D02*
D03*
D52*
X8150000Y950000D02*
D03*
X6068060Y2001520D02*
D03*
X2341880Y353060D02*
D03*
X2410460Y449580D02*
D03*
X2255000Y472960D02*
D03*
X4018280Y1427480D02*
D03*
X3683450Y1425200D02*
D03*
X7251700Y3129280D02*
D03*
X7868920Y3268980D02*
D03*
X7729220Y3182620D02*
D03*
X8371840Y3129280D02*
D03*
Y3314700D02*
D03*
X7929880Y3522980D02*
D03*
X7866380D02*
D03*
X5173980Y1338580D02*
D03*
X5311140D02*
D03*
X5036820D02*
D03*
X5448300D02*
D03*
X4899660D02*
D03*
X9730740Y2174240D02*
D03*
Y1871980D02*
D03*
X8862060Y2075180D02*
D03*
X8846820Y1684020D02*
D03*
X8547100Y1798320D02*
D03*
Y2352040D02*
D03*
X7266940Y2588260D02*
D03*
X7645400Y2585720D02*
D03*
X7454900D02*
D03*
X6791960Y2590800D02*
D03*
X6830060Y3012440D02*
D03*
X6578600Y3134360D02*
D03*
Y3317240D02*
D03*
X6126480Y3520440D02*
D03*
X6563360Y3522980D02*
D03*
X7025640Y3520440D02*
D03*
X6959600D02*
D03*
X7574280Y3632200D02*
D03*
X7477760Y3317240D02*
D03*
X7807960Y3954780D02*
D03*
Y4500880D02*
D03*
X6911340Y3952240D02*
D03*
Y4498340D02*
D03*
X6009640Y3952240D02*
D03*
Y4498340D02*
D03*
X1176250Y3557500D02*
D03*
X568960Y2786380D02*
D03*
X1059180D02*
D03*
X1201420D02*
D03*
X1343660D02*
D03*
X1409700D02*
D03*
X1620520D02*
D03*
X1689100D02*
D03*
X1968500D02*
D03*
X2039620D02*
D03*
X2110740D02*
D03*
X2600960D02*
D03*
X2529840D02*
D03*
X2250440D02*
D03*
X2179320D02*
D03*
X1074420Y3855720D02*
D03*
X1275080D02*
D03*
X2372360D02*
D03*
X2575560D02*
D03*
X2174240Y3652520D02*
D03*
X7917180Y2164080D02*
D03*
X7919720Y1582420D02*
D03*
Y1874520D02*
D03*
X7487920Y998220D02*
D03*
X7117080Y840740D02*
D03*
X6982460Y843280D02*
D03*
X6870700Y1099820D02*
D03*
X6283960Y2697480D02*
D03*
X5930900Y3014980D02*
D03*
X5679440Y3136900D02*
D03*
X5778500Y3251200D02*
D03*
X6062980Y3520440D02*
D03*
X5661660Y3515360D02*
D03*
X5679440Y3314700D02*
D03*
X5311140Y3632200D02*
D03*
X5171440Y3426460D02*
D03*
X5110480Y4498340D02*
D03*
Y3952240D02*
D03*
X2176780Y1450340D02*
D03*
X4018280Y1767840D02*
D03*
X3830320Y1877060D02*
D03*
X5161280Y2184400D02*
D03*
X6075680Y1676400D02*
D03*
X4853940Y2326640D02*
D03*
X8956040Y2352040D02*
D03*
X9514840Y2174240D02*
D03*
Y1871980D02*
D03*
X2583180Y152400D02*
D03*
X4196080Y858520D02*
D03*
X3289300Y1145540D02*
D03*
X6469380Y1097280D02*
D03*
X6969760Y1099820D02*
D03*
X7782560D02*
D03*
X7729220Y548640D02*
D03*
X7106920Y660400D02*
D03*
X6990080D02*
D03*
X6248400Y751840D02*
D03*
X6002020Y749300D02*
D03*
X7475220Y2199640D02*
D03*
X7376160Y1430020D02*
D03*
X6725920D02*
D03*
X4076700Y350520D02*
D03*
X6623050Y1600200D02*
D03*
X5996940Y929640D02*
D03*
X5999480Y1016000D02*
D03*
X6273800Y1480820D02*
D03*
X6724650Y2313940D02*
D03*
X4050030Y2459990D02*
D03*
X4052570Y2586990D02*
D03*
X6494780Y2585720D02*
D03*
X3910330Y2458720D02*
D03*
X3909060Y2545080D02*
D03*
X1483360Y2790190D02*
D03*
X1798320Y2677160D02*
D03*
X1913890Y2622867D02*
D03*
X6676390Y2559050D02*
D03*
X6494780Y2308860D02*
D03*
X6362700Y1948180D02*
D03*
X5760720Y1770380D02*
D03*
X6982460Y2692400D02*
D03*
X1976120Y3652520D02*
D03*
X1775460D02*
D03*
X5768340Y1372540D02*
D03*
X5925820Y2308860D02*
D03*
X5763260Y1582420D02*
D03*
X6385560Y2400300D02*
D03*
X4117340Y2049780D02*
D03*
X4119880Y1424940D02*
D03*
X3992880Y988060D02*
D03*
X3975100Y1620520D02*
D03*
X3416300Y1874520D02*
D03*
X3403600Y1577340D02*
D03*
X3388360Y1315720D02*
D03*
X3048000Y1107440D02*
D03*
X2821940D02*
D03*
X2115820Y1125220D02*
D03*
X7362500Y2963750D02*
D03*
X6903720Y3266440D02*
D03*
X6159500Y3197860D02*
D03*
X7404100Y2235200D02*
D03*
X7523480Y2402840D02*
D03*
X5905500Y3200400D02*
D03*
X9403440Y2024380D02*
D03*
X9405620Y1925320D02*
D03*
%TF.MD5,b6907288672fd44c7b951038118283d0*%
M02*
