%TF.GenerationSoftware,Altium Limited,Altium Designer,21.0.9 (235)*%
G04 Layer_Color=16711935*
%FSLAX45Y45*%
%MOMM*%
%TF.SameCoordinates,22D8F9FD-25AF-47CB-AFD4-ABA5F5DCC75B*%
%TF.FilePolarity,Positive*%
%TF.FileFunction,Other,Mechanical_13*%
%TF.Part,Single*%
G01*
G75*
%TA.AperFunction,NonConductor*%
%ADD148C,0.10000*%
%ADD151R,0.61467X3.81000*%
D148*
X8860000Y2015000D02*
G03*
X8860000Y2015000I-50000J0D01*
G01*
X4310000Y890000D02*
G03*
X4310000Y890000I-50000J0D01*
G01*
X6690000Y2335000D02*
G03*
X6690000Y2335000I-50000J0D01*
G01*
X6432500Y3045000D02*
X6567500D01*
X6432500Y3255000D02*
X6567500D01*
X6432500Y3045000D02*
Y3255000D01*
X6567500Y3045000D02*
Y3255000D01*
X7382500Y3045000D02*
X7517500D01*
X7382500Y3255000D02*
X7517500D01*
X7382500Y3045000D02*
Y3255000D01*
X7517500Y3045000D02*
Y3255000D01*
X8357500Y3070000D02*
X8492500D01*
X8357500Y3280000D02*
X8492500D01*
X8357500Y3070000D02*
Y3280000D01*
X8492500Y3070000D02*
Y3280000D01*
X1292500Y570000D02*
Y780000D01*
X1157500Y570000D02*
Y780000D01*
Y570000D02*
X1292500D01*
X1157500Y780000D02*
X1292500D01*
X867500Y570000D02*
Y780000D01*
X732500Y570000D02*
Y780000D01*
Y570000D02*
X867500D01*
X732500Y780000D02*
X867500D01*
X8342500Y570000D02*
Y780000D01*
X8207500Y570000D02*
Y780000D01*
Y570000D02*
X8342500D01*
X8207500Y780000D02*
X8342500D01*
X8742500Y570000D02*
Y780000D01*
X8607500Y570000D02*
Y780000D01*
Y570000D02*
X8742500D01*
X8607500Y780000D02*
X8742500D01*
X9173000Y4018027D02*
Y4232021D01*
Y4018027D02*
X9427032D01*
Y4232021D01*
X9173000D02*
X9427032D01*
X5315000Y3620000D02*
X5535000D01*
X5315000Y3480000D02*
X5535000D01*
X5315000D02*
Y3620000D01*
X5535000Y3480000D02*
Y3620000D01*
X3349839Y1119280D02*
X3484839D01*
X3349839Y1329280D02*
X3484839D01*
X3349839Y1119280D02*
Y1329280D01*
X3484839Y1119280D02*
Y1329280D01*
X9610000Y1055000D02*
Y1195000D01*
X9390000Y1055000D02*
Y1195000D01*
Y1055000D02*
X9610000D01*
X9390000Y1195000D02*
X9610000D01*
X5105000Y1590000D02*
X5245000D01*
X5105000Y1810000D02*
X5245000D01*
X5105000Y1590000D02*
Y1810000D01*
X5245000Y1590000D02*
Y1810000D01*
X5840000Y1012500D02*
X6010000D01*
Y1137500D01*
X5840000D02*
X6010000D01*
X5840000Y1012500D02*
Y1137500D01*
X4555000Y1235000D02*
X4695000D01*
X4555000Y1015000D02*
X4695000D01*
Y1235000D01*
X4555000Y1015000D02*
Y1235000D01*
X1046500Y1234500D02*
Y1615500D01*
X1503500Y1234500D02*
Y1615500D01*
X1046500D02*
X1503500D01*
X1046500Y1234500D02*
X1503500D01*
X4492500Y3145000D02*
Y3355000D01*
X4357500Y3145000D02*
Y3355000D01*
X4492500D01*
X4357500Y3145000D02*
X4492500D01*
X2817500Y3545000D02*
Y3755000D01*
X2682500Y3545000D02*
Y3755000D01*
Y3545000D02*
X2817500D01*
X2682500Y3755000D02*
X2817500D01*
X2542500Y3545000D02*
Y3755000D01*
X2407500Y3545000D02*
Y3755000D01*
Y3545000D02*
X2542500D01*
X2407500Y3755000D02*
X2542500D01*
X2130000Y3540000D02*
Y3760000D01*
X2270000Y3540000D02*
Y3760000D01*
X2130000D02*
X2270000D01*
X2130000Y3540000D02*
X2270000D01*
X1855000D02*
Y3760000D01*
X1995000Y3540000D02*
Y3760000D01*
X1855000D02*
X1995000D01*
X1855000Y3540000D02*
X1995000D01*
X1580000D02*
Y3760000D01*
X1720000Y3540000D02*
Y3760000D01*
X1580000D02*
X1720000D01*
X1580000Y3540000D02*
X1720000D01*
X1442500Y3545000D02*
Y3755000D01*
X1307500Y3545000D02*
Y3755000D01*
Y3545000D02*
X1442500D01*
X1307500Y3755000D02*
X1442500D01*
X1032500Y3545000D02*
Y3755000D01*
X1167500Y3545000D02*
Y3755000D01*
X1032500D02*
X1167500D01*
X1032500Y3545000D02*
X1167500D01*
X757500D02*
Y3755000D01*
X892500Y3545000D02*
Y3755000D01*
X757500D02*
X892500D01*
X757500Y3545000D02*
X892500D01*
X617500D02*
Y3755000D01*
X482500Y3545000D02*
Y3755000D01*
Y3545000D02*
X617500D01*
X482500Y3755000D02*
X617500D01*
X7922500Y3087500D02*
Y3262500D01*
X8227500Y3087500D02*
Y3262500D01*
X7922500Y3087500D02*
X8227500D01*
X7922500Y3262500D02*
X8227500D01*
X7832500Y3105000D02*
Y3245000D01*
X7617500Y3105000D02*
Y3245000D01*
X7832500D01*
X7617500Y3105000D02*
X7832500D01*
X6972500Y3087500D02*
Y3262500D01*
X7277500Y3087500D02*
Y3262500D01*
X6972500Y3087500D02*
X7277500D01*
X6972500Y3262500D02*
X7277500D01*
X6882500Y3105000D02*
Y3245000D01*
X6667500Y3105000D02*
Y3245000D01*
X6882500D01*
X6667500Y3105000D02*
X6882500D01*
X6022500Y3087500D02*
Y3262500D01*
X6327500Y3087500D02*
Y3262500D01*
X6022500Y3087500D02*
X6327500D01*
X6022500Y3262500D02*
X6327500D01*
X5717500Y3105000D02*
Y3245000D01*
X5932500Y3105000D02*
Y3245000D01*
X5717500Y3105000D02*
X5932500D01*
X5717500Y3245000D02*
X5932500D01*
X8235000Y3480000D02*
Y3620000D01*
X8015000Y3480000D02*
Y3620000D01*
Y3480000D02*
X8235000D01*
X8015000Y3620000D02*
X8235000D01*
X7570000Y3482500D02*
Y3617500D01*
X7780000Y3482500D02*
Y3617500D01*
X7570000D02*
X7780000D01*
X7570000Y3482500D02*
X7780000D01*
X7335000Y3480000D02*
Y3620000D01*
X7115000Y3480000D02*
Y3620000D01*
Y3480000D02*
X7335000D01*
X7115000Y3620000D02*
X7335000D01*
X6670000Y3482500D02*
Y3617500D01*
X6880000Y3482500D02*
Y3617500D01*
X6670000D02*
X6880000D01*
X6670000Y3482500D02*
X6880000D01*
X6435000Y3480000D02*
Y3620000D01*
X6215000Y3480000D02*
Y3620000D01*
Y3480000D02*
X6435000D01*
X6215000Y3620000D02*
X6435000D01*
X5770000Y3482500D02*
Y3617500D01*
X5980000Y3482500D02*
Y3617500D01*
X5770000D02*
X5980000D01*
X5770000Y3482500D02*
X5980000D01*
X5617500Y3070000D02*
Y3280000D01*
X5482500Y3070000D02*
Y3280000D01*
X5617500D01*
X5482500Y3070000D02*
X5617500D01*
X7807500Y1805000D02*
X7942500D01*
X7807500Y1595000D02*
X7942500D01*
Y1805000D01*
X7807500Y1595000D02*
Y1805000D01*
Y2045000D02*
X7942500D01*
X7807500Y2255000D02*
X7942500D01*
X7807500Y2045000D02*
Y2255000D01*
X7942500Y2045000D02*
Y2255000D01*
X7445000Y2682500D02*
Y2817500D01*
X7655000Y2682500D02*
Y2817500D01*
X7445000D02*
X7655000D01*
X7445000Y2682500D02*
X7655000D01*
X7280000D02*
Y2817500D01*
X7070000Y2682500D02*
Y2817500D01*
Y2682500D02*
X7280000D01*
X7070000Y2817500D02*
X7280000D01*
X6805000Y2682500D02*
Y2817500D01*
X6595000Y2682500D02*
Y2817500D01*
Y2682500D02*
X6805000D01*
X6595000Y2817500D02*
X6805000D01*
X6117280Y2685120D02*
Y2825120D01*
X6337280Y2685120D02*
Y2825120D01*
X6117280D02*
X6337280D01*
X6117280Y2685120D02*
X6337280D01*
X6230000Y2432500D02*
Y2567500D01*
X6020000Y2432500D02*
Y2567500D01*
Y2432500D02*
X6230000D01*
X6020000Y2567500D02*
X6230000D01*
X5732500Y2255000D02*
X5867500D01*
X5732500Y2045000D02*
X5867500D01*
Y2255000D01*
X5732500Y2045000D02*
Y2255000D01*
X5880000Y1590000D02*
Y1810000D01*
X6020000Y1590000D02*
Y1810000D01*
X5880000Y1590000D02*
X6020000D01*
X5880000Y1810000D02*
X6020000D01*
X5607500Y1805000D02*
X5742500D01*
X5607500Y1595000D02*
X5742500D01*
Y1805000D01*
X5607500Y1595000D02*
Y1805000D01*
X6155000Y1590000D02*
Y1810000D01*
X6295000Y1590000D02*
Y1810000D01*
X6155000Y1590000D02*
X6295000D01*
X6155000Y1810000D02*
X6295000D01*
X5820000Y1282500D02*
Y1417500D01*
X6030000Y1282500D02*
Y1417500D01*
X5820000D02*
X6030000D01*
X5820000Y1282500D02*
X6030000D01*
X9015000Y3020000D02*
X9235000D01*
X9015000Y2880000D02*
X9235000D01*
X9015000D02*
Y3020000D01*
X9235000Y2880000D02*
Y3020000D01*
X9015000Y3295000D02*
X9235000D01*
X9015000Y3155000D02*
X9235000D01*
X9015000D02*
Y3295000D01*
X9235000Y3155000D02*
Y3295000D01*
X9015000Y3570000D02*
X9235000D01*
X9015000Y3430000D02*
X9235000D01*
X9015000D02*
Y3570000D01*
X9235000Y3430000D02*
Y3570000D01*
X9015000Y3845000D02*
X9235000D01*
X9015000Y3705000D02*
X9235000D01*
X9015000D02*
Y3845000D01*
X9235000Y3705000D02*
Y3845000D01*
X9480000Y2930500D02*
Y3819500D01*
Y2930500D02*
X9820000D01*
Y3819500D01*
X9480000D02*
X9820000D01*
X9615000Y1945000D02*
X9835000D01*
X9615000Y1805000D02*
X9835000D01*
Y1945000D01*
X9615000Y1805000D02*
Y1945000D01*
Y2195000D02*
X9835000D01*
X9615000Y2055000D02*
X9835000D01*
Y2195000D01*
X9615000Y2055000D02*
Y2195000D01*
X8645000Y2332500D02*
Y2467500D01*
X8855000Y2332500D02*
Y2467500D01*
X8645000D02*
X8855000D01*
X8645000Y2332500D02*
X8855000D01*
X8580000Y1577000D02*
X8920000D01*
X8580000Y1323000D02*
Y1577000D01*
Y1323000D02*
X8920000D01*
Y1577000D01*
X8645000Y1682500D02*
X8855000D01*
X8645000Y1817500D02*
X8855000D01*
Y1682500D02*
Y1817500D01*
X8645000Y1682500D02*
Y1817500D01*
X9410000Y1287500D02*
Y1412500D01*
X9240000Y1287500D02*
X9410000D01*
X9240000D02*
Y1412500D01*
X9410000D01*
X7805000Y440000D02*
Y660000D01*
X7945000Y440000D02*
Y660000D01*
X7805000Y440000D02*
X7945000D01*
X7805000Y660000D02*
X7945000D01*
X6882500Y855000D02*
X7017500D01*
X6882500Y645000D02*
X7017500D01*
Y855000D01*
X6882500Y645000D02*
Y855000D01*
X7605000Y1032500D02*
Y1167500D01*
X7395000Y1032500D02*
Y1167500D01*
Y1032500D02*
X7605000D01*
X7395000Y1167500D02*
X7605000D01*
X7155000Y1032500D02*
Y1167500D01*
X6945000Y1032500D02*
Y1167500D01*
Y1032500D02*
X7155000D01*
X6945000Y1167500D02*
X7155000D01*
X7157500Y645000D02*
X7292500D01*
X7157500Y855000D02*
X7292500D01*
X7157500Y645000D02*
Y855000D01*
X7292500Y645000D02*
Y855000D01*
X6607500D02*
X6742500D01*
X6607500Y645000D02*
X6742500D01*
Y855000D01*
X6607500Y645000D02*
Y855000D01*
X6495000Y1032500D02*
Y1167500D01*
X6705000Y1032500D02*
Y1167500D01*
X6495000D02*
X6705000D01*
X6495000Y1032500D02*
X6705000D01*
X6187500Y597500D02*
X6362500D01*
X6187500Y902500D02*
X6362500D01*
Y597500D02*
Y902500D01*
X6187500Y597500D02*
Y902500D01*
X5805000Y860000D02*
X5945000D01*
X5805000Y640000D02*
X5945000D01*
Y860000D01*
X5805000Y640000D02*
Y860000D01*
X5530000Y640000D02*
X5670000D01*
X5530000Y860000D02*
X5670000D01*
X5530000Y640000D02*
Y860000D01*
X5670000Y640000D02*
Y860000D01*
X5240000Y2270000D02*
X5460000D01*
X5240000Y2130000D02*
X5460000D01*
X5240000D02*
Y2270000D01*
X5460000Y2130000D02*
Y2270000D01*
X5096000Y2055000D02*
Y2195000D01*
X4804000Y2055000D02*
Y2195000D01*
X5096000D01*
X4804000Y2055000D02*
X5096000D01*
X4830000Y1810000D02*
X4970000D01*
X4830000Y1590000D02*
X4970000D01*
Y1810000D01*
X4830000Y1590000D02*
Y1810000D01*
X5517500Y1020000D02*
Y1230000D01*
X5382500Y1020000D02*
Y1230000D01*
X5517500D01*
X5382500Y1020000D02*
X5517500D01*
X5242500D02*
Y1230000D01*
X5107500Y1020000D02*
Y1230000D01*
X5242500D01*
X5107500Y1020000D02*
X5242500D01*
X4967500D02*
Y1230000D01*
X4832500Y1020000D02*
Y1230000D01*
X4967500D01*
X4832500Y1020000D02*
X4967500D01*
X4215000Y2230000D02*
X4435000D01*
X4215000Y2370000D02*
X4435000D01*
Y2230000D02*
Y2370000D01*
X4215000Y2230000D02*
Y2370000D01*
Y1955000D02*
X4435000D01*
X4215000Y2095000D02*
X4435000D01*
Y1955000D02*
Y2095000D01*
X4215000Y1955000D02*
Y2095000D01*
Y1820000D02*
X4435000D01*
X4215000Y1680000D02*
X4435000D01*
X4215000D02*
Y1820000D01*
X4435000Y1680000D02*
Y1820000D01*
X4220000Y1542500D02*
X4430000D01*
X4220000Y1407500D02*
X4430000D01*
X4220000D02*
Y1542500D01*
X4430000Y1407500D02*
Y1542500D01*
X3865000Y1530000D02*
Y1670000D01*
X4085000Y1530000D02*
Y1670000D01*
X3865000Y1530000D02*
X4085000D01*
X3865000Y1670000D02*
X4085000D01*
X4255000Y582500D02*
Y717500D01*
X4045000Y582500D02*
Y717500D01*
Y582500D02*
X4255000D01*
X4045000Y717500D02*
X4255000D01*
X3520000Y1942500D02*
X3730000D01*
X3520000Y1807500D02*
X3730000D01*
X3520000D02*
Y1942500D01*
X3730000Y1807500D02*
Y1942500D01*
X3515000Y1645000D02*
X3735000D01*
X3515000Y1505000D02*
X3735000D01*
X3515000D02*
Y1645000D01*
X3735000Y1505000D02*
Y1645000D01*
X3742500Y1120000D02*
Y1330000D01*
X3607500Y1120000D02*
Y1330000D01*
X3742500D01*
X3607500Y1120000D02*
X3742500D01*
X2982500Y1005000D02*
X3117500D01*
X2982500Y795000D02*
X3117500D01*
Y1005000D01*
X2982500Y795000D02*
Y1005000D01*
X2757500D02*
X2892500D01*
X2757500Y795000D02*
X2892500D01*
Y1005000D01*
X2757500Y795000D02*
Y1005000D01*
X2270000Y82500D02*
X2480000D01*
X2270000Y217500D02*
X2480000D01*
Y82500D02*
Y217500D01*
X2270000Y82500D02*
Y217500D01*
X2445000Y300000D02*
Y600000D01*
X2305000Y300000D02*
Y600000D01*
Y300000D02*
X2445000D01*
X2305000Y600000D02*
X2445000D01*
X2210000Y712500D02*
X2540000D01*
X2210000Y887500D02*
X2540000D01*
Y712500D02*
Y887500D01*
X2210000Y712500D02*
Y887500D01*
X2287500Y972500D02*
Y1277500D01*
X2462500Y972500D02*
Y1277500D01*
X2287500D02*
X2462500D01*
X2287500Y972500D02*
X2462500D01*
X2270000Y1517500D02*
X2480000D01*
X2270000Y1382500D02*
X2480000D01*
X2270000D02*
Y1517500D01*
X2480000Y1382500D02*
Y1517500D01*
X4267500Y3145000D02*
Y3355000D01*
X4132500Y3145000D02*
Y3355000D01*
X4267500D01*
X4132500Y3145000D02*
X4267500D01*
X4042500D02*
Y3355000D01*
X3907500Y3145000D02*
Y3355000D01*
X4042500D01*
X3907500Y3145000D02*
X4042500D01*
X3817476Y3144999D02*
Y3354999D01*
X3682476Y3144999D02*
Y3354999D01*
X3817476D01*
X3682476Y3144999D02*
X3817476D01*
X3592500Y3145000D02*
Y3355000D01*
X3457500Y3145000D02*
Y3355000D01*
X3592500D01*
X3457500Y3145000D02*
X3592500D01*
X8191300Y282500D02*
X8209126Y267484D01*
X8221992D01*
X8164991Y282481D02*
X8191285D01*
X8164999Y282472D02*
X8165007Y282481D01*
X8164999Y211100D02*
Y282472D01*
X9237992Y153790D02*
Y963786D01*
X8221992Y153790D02*
Y963786D01*
Y153790D02*
X9237992D01*
X8221992Y963786D02*
X9237992D01*
X8164999Y211100D02*
X8191276D01*
X8209126Y226088D02*
X8221992D01*
X8191300Y211100D02*
X8209126Y226088D01*
X731300Y282500D02*
X749125Y267484D01*
X761992D01*
X704990Y282481D02*
X731284D01*
X704998Y282472D02*
X705006Y282481D01*
X704998Y211100D02*
Y282472D01*
X1777992Y153790D02*
Y963786D01*
X761992Y153790D02*
Y963786D01*
Y153790D02*
X1777992D01*
X761992Y963786D02*
X1777992D01*
X704998Y211100D02*
X731276D01*
X749125Y226088D02*
X761992D01*
X731300Y211100D02*
X749125Y226088D01*
X8900000Y1925000D02*
Y2225000D01*
X8600000Y1925000D02*
Y2225000D01*
Y1925000D02*
X8900000D01*
X8600000Y2225000D02*
X8900000D01*
X3950000Y1300000D02*
X4350000D01*
X3950000Y800000D02*
X4350000D01*
X3950000D02*
Y1300000D01*
X4350000Y800000D02*
Y1300000D01*
X5072500Y3262500D02*
X5377500D01*
X5072500Y3087500D02*
X5377500D01*
Y3262500D01*
X5072500Y3087500D02*
Y3262500D01*
X6550000Y1425000D02*
Y2425000D01*
X7550000Y1425000D02*
Y2425000D01*
X6550000D02*
X7550000D01*
X6550000Y1425000D02*
X7550000D01*
D151*
X1077213Y1425020D02*
D03*
%TF.MD5,e2d2affc9fc2d34e57ab178aedf79aa9*%
M02*
