%TF.GenerationSoftware,Altium Limited,Altium Designer,21.0.8 (223)*%
G04 Layer_Color=32768*
%FSLAX45Y45*%
%MOMM*%
%TF.SameCoordinates,93EC2011-4169-4821-B187-25AADE7CFEA4*%
%TF.FilePolarity,Positive*%
%TF.FileFunction,Other,Top_Courtyard*%
%TF.Part,Single*%
G01*
G75*
%TA.AperFunction,NonConductor*%
%ADD81C,0.20000*%
%ADD150C,0.05000*%
D81*
X7888000Y770000D02*
Y1080000D01*
X8212000D01*
Y770000D02*
Y1080000D01*
X7888000Y770000D02*
X8212000D01*
X7370000Y599690D02*
X7680000D01*
Y950310D01*
X7370000D02*
X7680000D01*
X7370000Y599690D02*
Y950310D01*
D150*
X7782420Y2620100D02*
X8082420D01*
X7782420Y2790100D02*
X8082420D01*
X7932420Y2655100D02*
Y2755100D01*
X7882420Y2705100D02*
X7982420D01*
X7782420Y2620100D02*
Y2790100D01*
X8082420Y2620100D02*
Y2790100D01*
X4340000Y2675000D02*
X4510000D01*
X4340000Y2975000D02*
X4510000D01*
X4425000Y2775000D02*
Y2875000D01*
X4375000Y2825000D02*
X4475000D01*
X4510000Y2675000D02*
Y2975000D01*
X4340000Y2675000D02*
Y2975000D01*
X3890000Y2675000D02*
X4060000D01*
X3890000Y2975000D02*
X4060000D01*
X3975000Y2775000D02*
Y2875000D01*
X3925000Y2825000D02*
X4025000D01*
X4060000Y2675000D02*
Y2975000D01*
X3890000Y2675000D02*
Y2975000D01*
X4115000Y2675000D02*
X4285000D01*
X4115000Y2975000D02*
X4285000D01*
X4200000Y2775000D02*
Y2875000D01*
X4150000Y2825000D02*
X4250000D01*
X4285000Y2675000D02*
Y2975000D01*
X4115000Y2675000D02*
Y2975000D01*
X3665000Y2675000D02*
X3835000D01*
X3665000Y2975000D02*
X3835000D01*
X3750000Y2775000D02*
Y2875000D01*
X3700000Y2825000D02*
X3800000D01*
X3835000Y2675000D02*
Y2975000D01*
X3665000Y2675000D02*
Y2975000D01*
X3440000Y2675000D02*
X3610000D01*
X3440000Y2975000D02*
X3610000D01*
X3525000Y2775000D02*
Y2875000D01*
X3475000Y2825000D02*
X3575000D01*
X3610000Y2675000D02*
Y2975000D01*
X3440000Y2675000D02*
Y2975000D01*
%TF.MD5,dd33a01aedeb4268ba2b825ee3753857*%
M02*
