%TF.GenerationSoftware,KiCad,Pcbnew,(5.99.0-2671-gfc0a358ba)*%
%TF.CreationDate,2020-09-06T03:18:24+05:30*%
%TF.ProjectId,Power_Supply,506f7765-725f-4537-9570-706c792e6b69,rev?*%
%TF.SameCoordinates,Original*%
%TF.FileFunction,Profile,NP*%
%FSLAX46Y46*%
G04 Gerber Fmt 4.6, Leading zero omitted, Abs format (unit mm)*
G04 Created by KiCad (PCBNEW (5.99.0-2671-gfc0a358ba)) date 2020-09-06 03:18:24*
%MOMM*%
%LPD*%
G01*
G04 APERTURE LIST*
%TA.AperFunction,Profile*%
%ADD10C,0.100000*%
%TD*%
G04 APERTURE END LIST*
D10*
X82000000Y-35000000D02*
X82000000Y-28457106D01*
X53750000Y-28250000D02*
G75*
G02*
X54750000Y-27250000I1000000J0D01*
G01*
X53750000Y-33750000D02*
X53750000Y-28250000D01*
X91000000Y-27750000D02*
G75*
G03*
X90750000Y-28582050I1259614J-832050D01*
G01*
X80500000Y-26500000D02*
X81750000Y-27750000D01*
X91000000Y-27750000D02*
X93750000Y-24750000D01*
X80750000Y-24500000D02*
G75*
G03*
X80000000Y-24250000I-750000J-1000000D01*
G01*
X102500000Y-26250000D02*
X95050000Y-26250000D01*
X62750000Y-33250000D02*
G75*
G03*
X63500000Y-33500000I750000J1000000D01*
G01*
X112000000Y-14000000D02*
X112000000Y-110000000D01*
X60500000Y-19000000D02*
X65500000Y-24000000D01*
X57000000Y-27500000D02*
X62750000Y-33250000D01*
X83750000Y-27750000D02*
G75*
G02*
X84000000Y-28457106I-874998J-707106D01*
G01*
X12000000Y-110000000D02*
X12000000Y-14000000D01*
X81750000Y-27750000D02*
G75*
G02*
X82000000Y-28457106I-874998J-707106D01*
G01*
X92750000Y-35000000D02*
G75*
G02*
X90750000Y-35000000I-1000000J0D01*
G01*
X64250000Y-32000000D02*
X66000000Y-32000000D01*
X54750000Y-27250000D02*
X56250000Y-27250000D01*
X58500000Y-20250000D02*
X46250000Y-20250000D01*
X84000000Y-35000000D02*
G75*
G02*
X82000000Y-35000000I-1000000J0D01*
G01*
X80000000Y-24250000D02*
X72250000Y-24250000D01*
X12000000Y-14000000D02*
G75*
G02*
X14000000Y-12000000I2000000J0D01*
G01*
X92750000Y-28582050D02*
X92750000Y-35000000D01*
X84000000Y-28457106D02*
X84000000Y-35000000D01*
X65500000Y-24000000D02*
G75*
G03*
X66250000Y-24250000I750000J1000000D01*
G01*
X94250000Y-26500000D02*
G75*
G02*
X95050000Y-26250000I800000J-1155000D01*
G01*
X57000000Y-27500000D02*
G75*
G03*
X56250000Y-27250000I-750000J-1000000D01*
G01*
X64750000Y-26000000D02*
X59250000Y-20500000D01*
X110000000Y-12000000D02*
G75*
G02*
X112000000Y-14000000I0J-2000000D01*
G01*
X59250000Y-20500000D02*
G75*
G03*
X58500000Y-20250000I-750000J-1000000D01*
G01*
X94644427Y-24250000D02*
X102500000Y-24250000D01*
X102500000Y-24250000D02*
G75*
G02*
X102500000Y-26250000I0J-1000000D01*
G01*
X72250000Y-26250000D02*
X79750000Y-26250000D01*
X64750000Y-26000000D02*
G75*
G03*
X65500000Y-26250000I750000J1000000D01*
G01*
X66000000Y-33500000D02*
X63500000Y-33500000D01*
X46250000Y-20250000D02*
G75*
G02*
X46250000Y-18750000I0J750000D01*
G01*
X14000000Y-12000000D02*
X110000000Y-12000000D01*
X94250000Y-26500000D02*
X93000000Y-27750000D01*
X53250000Y-25000000D02*
X56250000Y-25000000D01*
X14000000Y-112000000D02*
G75*
G02*
X12000000Y-110000000I0J2000000D01*
G01*
X57000000Y-25250000D02*
G75*
G03*
X56250000Y-25000000I-750000J-1000000D01*
G01*
X52250000Y-26000000D02*
X52250000Y-33750000D01*
X66250000Y-24250000D02*
X72250000Y-24250000D01*
X110000000Y-112000000D02*
X14000000Y-112000000D01*
X80500000Y-26500000D02*
G75*
G03*
X79750000Y-26250000I-750000J-1000000D01*
G01*
X90750000Y-35000000D02*
X90750000Y-28582050D01*
X93000000Y-27750000D02*
G75*
G03*
X92750000Y-28582050I1259614J-832050D01*
G01*
X93750000Y-24750000D02*
G75*
G02*
X94644427Y-24250000I894427J-549999D01*
G01*
X66000000Y-32000000D02*
G75*
G02*
X66000000Y-33500000I0J-750000D01*
G01*
X63500000Y-31750000D02*
G75*
G03*
X64250000Y-32000000I750000J1000000D01*
G01*
X83750000Y-27750000D02*
X80750000Y-24500000D01*
X53250000Y-25000000D02*
G75*
G03*
X52250000Y-26000000I0J-1000000D01*
G01*
X46250000Y-18750000D02*
X59779858Y-18742535D01*
X60500000Y-19000000D02*
G75*
G03*
X59779858Y-18742535I-720142J-878403D01*
G01*
X53750000Y-33750000D02*
G75*
G02*
X52250000Y-33750000I-750000J0D01*
G01*
X57000000Y-25250000D02*
X63500000Y-31750000D01*
X112000000Y-110000000D02*
G75*
G02*
X110000000Y-112000000I-2000000J0D01*
G01*
X72250000Y-26250000D02*
X65500000Y-26250000D01*
M02*
