<?xml version="1.0" standalone="no"?>
 <!DOCTYPE svg PUBLIC "-//W3C//DTD SVG 1.1//EN" 
 "http://www.w3.org/Graphics/SVG/1.1/DTD/svg11.dtd"> 
<svg
  xmlns:svg="http://www.w3.org/2000/svg"
  xmlns="http://www.w3.org/2000/svg"
  xmlns:xlink="http://www.w3.org/1999/xlink"
  version="1.1"
  width="12.357100cm" height="5.765800cm" viewBox="0 0 123571000 57658000">
<title>SVG Picture created as Power_Supply-B_SilkS.svg date 2020/09/06 04:04:44 </title>
  <desc>Picture generated by PCBNEW </desc>
<g style="fill:#000000; fill-opacity:1.000000;stroke:#000000; stroke-opacity:1.000000;
stroke-linecap:round; stroke-linejoin:round;"
 transform="translate(0 0) scale(1 1)">
</g>
<g style="fill:#000000; fill-opacity:0.0; 
stroke:#000000; stroke-width:0.000000; stroke-opacity:1; 
stroke-linecap:round; stroke-linejoin:round;">
</g>
<g style="fill:#840084; fill-opacity:0.0; 
stroke:#840084; stroke-width:0.000000; stroke-opacity:1; 
stroke-linecap:round; stroke-linejoin:round;">
</g>
<g style="fill:#840084; fill-opacity:0.0; 
stroke:#840084; stroke-width:150000.000000; stroke-opacity:1; 
stroke-linecap:round; stroke-linejoin:round;">
<text x="108708333.000000" y="52057500.000000"
transform="scale(-1 1) translate(-217416666.000000 0)"
textLength="9393810.000000" font-size="1333333.000000" lengthAdjust="spacingAndGlyphs"
text-anchor="middle" opacity="0">GND | +12V</text>
<g class="stroked-text"><desc>GND | +12V</desc>
<path d="M112708333 51057500
L112803571 51009880
L112946428 51009880
L113089285 51057500
L113184523 51152738
L113232142 51247976
L113279761 51438452
L113279761 51581309
L113232142 51771785
L113184523 51867023
L113089285 51962261
L112946428 52009880
L112851190 52009880
L112708333 51962261
L112660713 51914642
L112660713 51581309
L112851190 51581309
" />
<path d="M112232142 52009880
L112232142 51009880
L111660713 52009880
L111660713 51009880
" />
<path d="M111184523 52009880
L111184523 51009880
L110946428 51009880
L110803571 51057500
L110708333 51152738
L110660713 51247976
L110613094 51438452
L110613094 51581309
L110660713 51771785
L110708333 51867023
L110803571 51962261
L110946428 52009880
L111184523 52009880
" />
<path d="M109184523 52343214
L109184523 50914642
" />
<path d="M107708333 51628928
L106946428 51628928
" />
<path d="M107327380 52009880
L107327380 51247976
" />
<path d="M105946428 52009880
L106517856 52009880
" />
<path d="M106232142 52009880
L106232142 51009880
L106327380 51152738
L106422618 51247976
L106517856 51295595
" />
<path d="M105565475 51105119
L105517856 51057500
L105422618 51009880
L105184523 51009880
L105089285 51057500
L105041666 51105119
L104994047 51200357
L104994047 51295595
L105041666 51438452
L105613094 52009880
L104994047 52009880
" />
<path d="M104708333 51009880
L104374999 52009880
L104041666 51009880
" />
</g></g>
<g style="fill:#840084; fill-opacity:0.0; 
stroke:#840084; stroke-width:75000.000000; stroke-opacity:1; 
stroke-linecap:round; stroke-linejoin:round;">
<text x="70708333.000000" y="22623750.000000"
transform="scale(-1 1) translate(-141416666.000000 0)"
textLength="15222798.000000" font-size="1333333.000000" lengthAdjust="spacingAndGlyphs"
text-anchor="middle" opacity="0">Bench Top PSU V1.0</text>
<g class="stroked-text"><desc>Bench Top PSU V1.0</desc>
<path d="M77975624 22052321
L77838719 22099940
L77797053 22147559
L77761338 22242797
L77779196 22385654
L77838719 22480892
L77892291 22528511
L77993481 22576130
L78374434 22576130
L78249434 21576130
L77916100 21576130
L77826815 21623750
L77785148 21671369
L77749434 21766607
L77761338 21861845
L77820862 21957083
L77874434 22004702
L77975624 22052321
L78308958 22052321
" />
<path d="M76987529 22528511
L77088719 22576130
L77279196 22576130
L77368481 22528511
L77404196 22433273
L77356577 22052321
L77297053 21957083
L77195862 21909464
L77005386 21909464
L76916100 21957083
L76880386 22052321
L76892291 22147559
L77380386 22242797
" />
<path d="M76433958 21909464
L76517291 22576130
" />
<path d="M76445862 22004702
L76392291 21957083
L76291100 21909464
L76148243 21909464
L76058958 21957083
L76023243 22052321
L76088719 22576130
" />
<path d="M75178005 22528511
L75279196 22576130
L75469672 22576130
L75558958 22528511
L75600624 22480892
L75636338 22385654
L75600624 22099940
L75541100 22004702
L75487529 21957083
L75386338 21909464
L75195862 21909464
L75106577 21957083
" />
<path d="M74755386 22576130
L74630386 21576130
" />
<path d="M74326815 22576130
L74261338 22052321
L74297053 21957083
L74386338 21909464
L74529196 21909464
L74630386 21957083
L74683958 22004702
" />
<path d="M73106577 21576130
L72535148 21576130
" />
<path d="M72945862 22576130
L72820862 21576130
" />
<path d="M72183958 22576130
L72273243 22528511
L72314910 22480892
L72350624 22385654
L72314910 22099940
L72255386 22004702
L72201815 21957083
L72100624 21909464
L71957767 21909464
L71868481 21957083
L71826815 22004702
L71791100 22099940
L71826815 22385654
L71886338 22480892
L71939910 22528511
L72041100 22576130
L72183958 22576130
" />
<path d="M71338719 21909464
L71463719 22909464
" />
<path d="M71344672 21957083
L71243481 21909464
L71053005 21909464
L70963719 21957083
L70922053 22004702
L70886338 22099940
L70922053 22385654
L70981577 22480892
L71035148 22528511
L71136338 22576130
L71326815 22576130
L71416100 22528511
" />
<path d="M69755386 22576130
L69630386 21576130
L69249434 21576130
L69160148 21623750
L69118481 21671369
L69082767 21766607
L69100624 21909464
L69160148 22004702
L69213719 22052321
L69314910 22099940
L69695862 22099940
" />
<path d="M68797053 22528511
L68660148 22576130
L68422053 22576130
L68320862 22528511
L68267291 22480892
L68207767 22385654
L68195862 22290416
L68231577 22195178
L68273243 22147559
L68362529 22099940
L68547053 22052321
L68636338 22004702
L68678005 21957083
L68713719 21861845
L68701815 21766607
L68642291 21671369
L68588719 21623750
L68487529 21576130
L68249434 21576130
L68112529 21623750
" />
<path d="M67678005 21576130
L67779196 22385654
L67743481 22480892
L67701815 22528511
L67612529 22576130
L67422053 22576130
L67320862 22528511
L67267291 22480892
L67207767 22385654
L67106577 21576130
" />
<path d="M66011338 21576130
L65803005 22576130
L65344672 21576130
" />
<path d="M64612529 22576130
L65183958 22576130
" />
<path d="M64898243 22576130
L64773243 21576130
L64886338 21718988
L64993481 21814226
L65094672 21861845
" />
<path d="M64172053 22480892
L64130386 22528511
L64183958 22576130
L64225624 22528511
L64172053 22480892
L64183958 22576130
" />
<path d="M63392291 21576130
L63297053 21576130
L63207767 21623750
L63166100 21671369
L63130386 21766607
L63106577 21957083
L63136338 22195178
L63207767 22385654
L63267291 22480892
L63320862 22528511
L63422053 22576130
L63517291 22576130
L63606577 22528511
L63648243 22480892
L63683958 22385654
L63707767 22195178
L63678005 21957083
L63606577 21766607
L63547053 21671369
L63493481 21623750
L63392291 21576130
" />
</g></g>
<g style="fill:#840084; fill-opacity:0.0; 
stroke:#840084; stroke-width:100000.000000; stroke-opacity:1; 
stroke-linecap:round; stroke-linejoin:round;">
<text x="46708333.000000" y="11557500.000000"
transform="scale(-1 1) translate(-93416666.000000 0)"
textLength="1354881.000000" font-size="666666.000000" lengthAdjust="spacingAndGlyphs"
text-anchor="middle" opacity="0">C32</text>
<g class="stroked-text"><desc>C32</desc>
<path d="M47029761 11486071
L47053571 11509880
L47124999 11533690
L47172618 11533690
L47244047 11509880
L47291666 11462261
L47315475 11414642
L47339285 11319404
L47339285 11247976
L47315475 11152738
L47291666 11105119
L47244047 11057500
L47172618 11033690
L47124999 11033690
L47053571 11057500
L47029761 11081309
" />
<path d="M46863094 11033690
L46553571 11033690
L46720237 11224166
L46648809 11224166
L46601190 11247976
L46577380 11271785
L46553571 11319404
L46553571 11438452
L46577380 11486071
L46601190 11509880
L46648809 11533690
L46791666 11533690
L46839285 11509880
L46863094 11486071
" />
<path d="M46363094 11081309
L46339285 11057500
L46291666 11033690
L46172618 11033690
L46124999 11057500
L46101190 11081309
L46077380 11128928
L46077380 11176547
L46101190 11247976
L46386904 11533690
L46077380 11533690
" />
</g><text x="87458333.000000" y="36557500.000000"
transform="scale(-1 1) translate(-174916666.000000 0)"
textLength="846190.000000" font-size="666666.000000" lengthAdjust="spacingAndGlyphs"
text-anchor="middle" opacity="0">D6</text>
<g class="stroked-text"><desc>D6</desc>
<path d="M87827380 36533690
L87827380 36033690
L87708333 36033690
L87636904 36057500
L87589285 36105119
L87565475 36152738
L87541666 36247976
L87541666 36319404
L87565475 36414642
L87589285 36462261
L87636904 36509880
L87708333 36533690
L87827380 36533690
" />
<path d="M87113094 36033690
L87208333 36033690
L87255952 36057500
L87279761 36081309
L87327380 36152738
L87351190 36247976
L87351190 36438452
L87327380 36486071
L87303571 36509880
L87255952 36533690
L87160713 36533690
L87113094 36509880
L87089285 36486071
L87065475 36438452
L87065475 36319404
L87089285 36271785
L87113094 36247976
L87160713 36224166
L87255952 36224166
L87303571 36247976
L87327380 36271785
L87351190 36319404
" />
</g><text x="60458333.000000" y="13307500.000000"
transform="scale(-1 1) translate(-120916666.000000 0)"
textLength="1322381.000000" font-size="666666.000000" lengthAdjust="spacingAndGlyphs"
text-anchor="middle" opacity="0">R14</text>
<g class="stroked-text"><desc>R14</desc>
<path d="M60779761 13283690
L60946428 13045595
" />
<path d="M61065475 13283690
L61065475 12783690
L60874999 12783690
L60827380 12807500
L60803571 12831309
L60779761 12878928
L60779761 12950357
L60803571 12997976
L60827380 13021785
L60874999 13045595
L61065475 13045595
" />
<path d="M60303571 13283690
L60589285 13283690
" />
<path d="M60446428 13283690
L60446428 12783690
L60494047 12855119
L60541666 12902738
L60589285 12926547
" />
<path d="M59874999 12950357
L59874999 13283690
" />
<path d="M59994047 12759880
L60113094 13117023
L59803571 13117023
" />
</g><text x="102958333.000000" y="38057500.000000"
transform="scale(-1 1) translate(-205916666.000000 0)"
textLength="846190.000000" font-size="666666.000000" lengthAdjust="spacingAndGlyphs"
text-anchor="middle" opacity="0">C3</text>
<g class="stroked-text"><desc>C3</desc>
<path d="M103041666 37986071
L103065475 38009880
L103136904 38033690
L103184523 38033690
L103255952 38009880
L103303571 37962261
L103327380 37914642
L103351190 37819404
L103351190 37747976
L103327380 37652738
L103303571 37605119
L103255952 37557500
L103184523 37533690
L103136904 37533690
L103065475 37557500
L103041666 37581309
" />
<path d="M102874999 37533690
L102565475 37533690
L102732142 37724166
L102660713 37724166
L102613094 37747976
L102589285 37771785
L102565475 37819404
L102565475 37938452
L102589285 37986071
L102613094 38009880
L102660713 38033690
L102803571 38033690
L102851190 38009880
L102874999 37986071
" />
</g><text x="90708333.000000" y="44057500.000000"
transform="scale(-1 1) translate(-181416666.000000 0)"
textLength="846190.000000" font-size="666666.000000" lengthAdjust="spacingAndGlyphs"
text-anchor="middle" opacity="0">C8</text>
<g class="stroked-text"><desc>C8</desc>
<path d="M90791666 43986071
L90815475 44009880
L90886904 44033690
L90934523 44033690
L91005952 44009880
L91053571 43962261
L91077380 43914642
L91101190 43819404
L91101190 43747976
L91077380 43652738
L91053571 43605119
L91005952 43557500
L90934523 43533690
L90886904 43533690
L90815475 43557500
L90791666 43581309
" />
<path d="M90505952 43747976
L90553571 43724166
L90577380 43700357
L90601190 43652738
L90601190 43628928
L90577380 43581309
L90553571 43557500
L90505952 43533690
L90410713 43533690
L90363094 43557500
L90339285 43581309
L90315475 43628928
L90315475 43652738
L90339285 43700357
L90363094 43724166
L90410713 43747976
L90505952 43747976
L90553571 43771785
L90577380 43795595
L90601190 43843214
L90601190 43938452
L90577380 43986071
L90553571 44009880
L90505952 44033690
L90410713 44033690
L90363094 44009880
L90339285 43986071
L90315475 43938452
L90315475 43843214
L90339285 43795595
L90363094 43771785
L90410713 43747976
" />
</g><text x="106708333.000000" y="25807500.000000"
transform="scale(-1 1) translate(-213416666.000000 0)"
textLength="846190.000000" font-size="666666.000000" lengthAdjust="spacingAndGlyphs"
text-anchor="middle" opacity="0">C2</text>
<g class="stroked-text"><desc>C2</desc>
<path d="M106791666 25736071
L106815475 25759880
L106886904 25783690
L106934523 25783690
L107005952 25759880
L107053571 25712261
L107077380 25664642
L107101190 25569404
L107101190 25497976
L107077380 25402738
L107053571 25355119
L107005952 25307500
L106934523 25283690
L106886904 25283690
L106815475 25307500
L106791666 25331309
" />
<path d="M106601190 25331309
L106577380 25307500
L106529761 25283690
L106410713 25283690
L106363094 25307500
L106339285 25331309
L106315475 25378928
L106315475 25426547
L106339285 25497976
L106624999 25783690
L106315475 25783690
" />
</g><text x="110708333.000000" y="24307500.000000"
transform="scale(-1 1) translate(-221416666.000000 0)"
textLength="1322381.000000" font-size="666666.000000" lengthAdjust="spacingAndGlyphs"
text-anchor="middle" opacity="0">R11</text>
<g class="stroked-text"><desc>R11</desc>
<path d="M111029761 24283690
L111196428 24045595
" />
<path d="M111315475 24283690
L111315475 23783690
L111124999 23783690
L111077380 23807500
L111053571 23831309
L111029761 23878928
L111029761 23950357
L111053571 23997976
L111077380 24021785
L111124999 24045595
L111315475 24045595
" />
<path d="M110553571 24283690
L110839285 24283690
" />
<path d="M110696428 24283690
L110696428 23783690
L110744047 23855119
L110791666 23902738
L110839285 23926547
" />
<path d="M110077380 24283690
L110363094 24283690
" />
<path d="M110220237 24283690
L110220237 23783690
L110267856 23855119
L110315475 23902738
L110363094 23926547
" />
</g><text x="103958333.000000" y="31057500.000000"
transform="scale(-1 1) translate(-207916666.000000 0)"
textLength="846190.000000" font-size="666666.000000" lengthAdjust="spacingAndGlyphs"
text-anchor="middle" opacity="0">D8</text>
<g class="stroked-text"><desc>D8</desc>
<path d="M104327380 31033690
L104327380 30533690
L104208333 30533690
L104136904 30557500
L104089285 30605119
L104065475 30652738
L104041666 30747976
L104041666 30819404
L104065475 30914642
L104089285 30962261
L104136904 31009880
L104208333 31033690
L104327380 31033690
" />
<path d="M103755952 30747976
L103803571 30724166
L103827380 30700357
L103851190 30652738
L103851190 30628928
L103827380 30581309
L103803571 30557500
L103755952 30533690
L103660713 30533690
L103613094 30557500
L103589285 30581309
L103565475 30628928
L103565475 30652738
L103589285 30700357
L103613094 30724166
L103660713 30747976
L103755952 30747976
L103803571 30771785
L103827380 30795595
L103851190 30843214
L103851190 30938452
L103827380 30986071
L103803571 31009880
L103755952 31033690
L103660713 31033690
L103613094 31009880
L103589285 30986071
L103565475 30938452
L103565475 30843214
L103589285 30795595
L103613094 30771785
L103660713 30747976
" />
</g><text x="110708333.000000" y="30057500.000000"
transform="scale(-1 1) translate(-221416666.000000 0)"
textLength="846190.000000" font-size="666666.000000" lengthAdjust="spacingAndGlyphs"
text-anchor="middle" opacity="0">R4</text>
<g class="stroked-text"><desc>R4</desc>
<path d="M110791666 30033690
L110958333 29795595
" />
<path d="M111077380 30033690
L111077380 29533690
L110886904 29533690
L110839285 29557500
L110815475 29581309
L110791666 29628928
L110791666 29700357
L110815475 29747976
L110839285 29771785
L110886904 29795595
L111077380 29795595
" />
<path d="M110363094 29700357
L110363094 30033690
" />
<path d="M110482142 29509880
L110601190 29867023
L110291666 29867023
" />
</g><text x="50108333.000000" y="11557500.000000"
transform="scale(-1 1) translate(-100216666.000000 0)"
textLength="1322381.000000" font-size="666666.000000" lengthAdjust="spacingAndGlyphs"
text-anchor="middle" opacity="0">C34</text>
<g class="stroked-text"><desc>C34</desc>
<path d="M50429761 11486071
L50453571 11509880
L50524999 11533690
L50572618 11533690
L50644047 11509880
L50691666 11462261
L50715475 11414642
L50739285 11319404
L50739285 11247976
L50715475 11152738
L50691666 11105119
L50644047 11057500
L50572618 11033690
L50524999 11033690
L50453571 11057500
L50429761 11081309
" />
<path d="M50263094 11033690
L49953571 11033690
L50120237 11224166
L50048809 11224166
L50001190 11247976
L49977380 11271785
L49953571 11319404
L49953571 11438452
L49977380 11486071
L50001190 11509880
L50048809 11533690
L50191666 11533690
L50239285 11509880
L50263094 11486071
" />
<path d="M49524999 11200357
L49524999 11533690
" />
<path d="M49644047 11009880
L49763094 11367023
L49453571 11367023
" />
</g><text x="67458333.000000" y="29807500.000000"
transform="scale(-1 1) translate(-134916666.000000 0)"
textLength="1322381.000000" font-size="666666.000000" lengthAdjust="spacingAndGlyphs"
text-anchor="middle" opacity="0">R25</text>
<g class="stroked-text"><desc>R25</desc>
<path d="M67779761 29783690
L67946428 29545595
" />
<path d="M68065475 29783690
L68065475 29283690
L67874999 29283690
L67827380 29307500
L67803571 29331309
L67779761 29378928
L67779761 29450357
L67803571 29497976
L67827380 29521785
L67874999 29545595
L68065475 29545595
" />
<path d="M67589285 29331309
L67565475 29307500
L67517856 29283690
L67398809 29283690
L67351190 29307500
L67327380 29331309
L67303571 29378928
L67303571 29426547
L67327380 29497976
L67613094 29783690
L67303571 29783690
" />
<path d="M66851190 29283690
L67089285 29283690
L67113094 29521785
L67089285 29497976
L67041666 29474166
L66922618 29474166
L66874999 29497976
L66851190 29521785
L66827380 29569404
L66827380 29688452
L66851190 29736071
L66874999 29759880
L66922618 29783690
L67041666 29783690
L67089285 29759880
L67113094 29736071
" />
</g><text x="94208333.000000" y="33057500.000000"
transform="scale(-1 1) translate(-188416666.000000 0)"
textLength="846190.000000" font-size="666666.000000" lengthAdjust="spacingAndGlyphs"
text-anchor="middle" opacity="0">D5</text>
<g class="stroked-text"><desc>D5</desc>
<path d="M94577380 33033690
L94577380 32533690
L94458333 32533690
L94386904 32557500
L94339285 32605119
L94315475 32652738
L94291666 32747976
L94291666 32819404
L94315475 32914642
L94339285 32962261
L94386904 33009880
L94458333 33033690
L94577380 33033690
" />
<path d="M93839285 32533690
L94077380 32533690
L94101190 32771785
L94077380 32747976
L94029761 32724166
L93910713 32724166
L93863094 32747976
L93839285 32771785
L93815475 32819404
L93815475 32938452
L93839285 32986071
L93863094 33009880
L93910713 33033690
L94029761 33033690
L94077380 33009880
L94101190 32986071
" />
</g><text x="87458333.000000" y="33307500.000000"
transform="scale(-1 1) translate(-174916666.000000 0)"
textLength="1322381.000000" font-size="666666.000000" lengthAdjust="spacingAndGlyphs"
text-anchor="middle" opacity="0">C15</text>
<g class="stroked-text"><desc>C15</desc>
<path d="M87779761 33236071
L87803571 33259880
L87874999 33283690
L87922618 33283690
L87994047 33259880
L88041666 33212261
L88065475 33164642
L88089285 33069404
L88089285 32997976
L88065475 32902738
L88041666 32855119
L87994047 32807500
L87922618 32783690
L87874999 32783690
L87803571 32807500
L87779761 32831309
" />
<path d="M87303571 33283690
L87589285 33283690
" />
<path d="M87446428 33283690
L87446428 32783690
L87494047 32855119
L87541666 32902738
L87589285 32926547
" />
<path d="M86851190 32783690
L87089285 32783690
L87113094 33021785
L87089285 32997976
L87041666 32974166
L86922618 32974166
L86874999 32997976
L86851190 33021785
L86827380 33069404
L86827380 33188452
L86851190 33236071
L86874999 33259880
L86922618 33283690
L87041666 33283690
L87089285 33259880
L87113094 33236071
" />
</g><text x="32958333.000000" y="11557500.000000"
transform="scale(-1 1) translate(-65916666.000000 0)"
textLength="1322381.000000" font-size="666666.000000" lengthAdjust="spacingAndGlyphs"
text-anchor="middle" opacity="0">C31</text>
<g class="stroked-text"><desc>C31</desc>
<path d="M33279761 11486071
L33303571 11509880
L33374999 11533690
L33422618 11533690
L33494047 11509880
L33541666 11462261
L33565475 11414642
L33589285 11319404
L33589285 11247976
L33565475 11152738
L33541666 11105119
L33494047 11057500
L33422618 11033690
L33374999 11033690
L33303571 11057500
L33279761 11081309
" />
<path d="M33113094 11033690
L32803571 11033690
L32970237 11224166
L32898809 11224166
L32851190 11247976
L32827380 11271785
L32803571 11319404
L32803571 11438452
L32827380 11486071
L32851190 11509880
L32898809 11533690
L33041666 11533690
L33089285 11509880
L33113094 11486071
" />
<path d="M32327380 11533690
L32613094 11533690
" />
<path d="M32470237 11533690
L32470237 11033690
L32517856 11105119
L32565475 11152738
L32613094 11176547
" />
</g><text x="106708333.000000" y="29807500.000000"
transform="scale(-1 1) translate(-213416666.000000 0)"
textLength="1322381.000000" font-size="666666.000000" lengthAdjust="spacingAndGlyphs"
text-anchor="middle" opacity="0">C10</text>
<g class="stroked-text"><desc>C10</desc>
<path d="M107029761 29736071
L107053571 29759880
L107124999 29783690
L107172618 29783690
L107244047 29759880
L107291666 29712261
L107315475 29664642
L107339285 29569404
L107339285 29497976
L107315475 29402738
L107291666 29355119
L107244047 29307500
L107172618 29283690
L107124999 29283690
L107053571 29307500
L107029761 29331309
" />
<path d="M106553571 29783690
L106839285 29783690
" />
<path d="M106696428 29783690
L106696428 29283690
L106744047 29355119
L106791666 29402738
L106839285 29426547
" />
<path d="M106244047 29283690
L106196428 29283690
L106148809 29307500
L106124999 29331309
L106101190 29378928
L106077380 29474166
L106077380 29593214
L106101190 29688452
L106124999 29736071
L106148809 29759880
L106196428 29783690
L106244047 29783690
L106291666 29759880
L106315475 29736071
L106339285 29688452
L106363094 29593214
L106363094 29474166
L106339285 29378928
L106315475 29331309
L106291666 29307500
L106244047 29283690
" />
</g><text x="58458333.000000" y="13307500.000000"
transform="scale(-1 1) translate(-116916666.000000 0)"
textLength="846190.000000" font-size="666666.000000" lengthAdjust="spacingAndGlyphs"
text-anchor="middle" opacity="0">R5</text>
<g class="stroked-text"><desc>R5</desc>
<path d="M58541666 13283690
L58708333 13045595
" />
<path d="M58827380 13283690
L58827380 12783690
L58636904 12783690
L58589285 12807500
L58565475 12831309
L58541666 12878928
L58541666 12950357
L58565475 12997976
L58589285 13021785
L58636904 13045595
L58827380 13045595
" />
<path d="M58089285 12783690
L58327380 12783690
L58351190 13021785
L58327380 12997976
L58279761 12974166
L58160713 12974166
L58113094 12997976
L58089285 13021785
L58065475 13069404
L58065475 13188452
L58089285 13236071
L58113094 13259880
L58160713 13283690
L58279761 13283690
L58327380 13259880
L58351190 13236071
" />
</g><text x="83708333.000000" y="46057500.000000"
transform="scale(-1 1) translate(-167416666.000000 0)"
textLength="1322381.000000" font-size="666666.000000" lengthAdjust="spacingAndGlyphs"
text-anchor="middle" opacity="0">C14</text>
<g class="stroked-text"><desc>C14</desc>
<path d="M84029761 45986071
L84053571 46009880
L84124999 46033690
L84172618 46033690
L84244047 46009880
L84291666 45962261
L84315475 45914642
L84339285 45819404
L84339285 45747976
L84315475 45652738
L84291666 45605119
L84244047 45557500
L84172618 45533690
L84124999 45533690
L84053571 45557500
L84029761 45581309
" />
<path d="M83553571 46033690
L83839285 46033690
" />
<path d="M83696428 46033690
L83696428 45533690
L83744047 45605119
L83791666 45652738
L83839285 45676547
" />
<path d="M83124999 45700357
L83124999 46033690
" />
<path d="M83244047 45509880
L83363094 45867023
L83053571 45867023
" />
</g><text x="115208333.000000" y="18307500.000000"
transform="scale(-1 1) translate(-230416666.000000 0)"
textLength="846190.000000" font-size="666666.000000" lengthAdjust="spacingAndGlyphs"
text-anchor="middle" opacity="0">R2</text>
<g class="stroked-text"><desc>R2</desc>
<path d="M115291666 18283690
L115458333 18045595
" />
<path d="M115577380 18283690
L115577380 17783690
L115386904 17783690
L115339285 17807500
L115315475 17831309
L115291666 17878928
L115291666 17950357
L115315475 17997976
L115339285 18021785
L115386904 18045595
L115577380 18045595
" />
<path d="M115101190 17831309
L115077380 17807500
L115029761 17783690
L114910713 17783690
L114863094 17807500
L114839285 17831309
L114815475 17878928
L114815475 17926547
L114839285 17997976
L115124999 18283690
L114815475 18283690
" />
</g><text x="106958333.000000" y="34307500.000000"
transform="scale(-1 1) translate(-213916666.000000 0)"
textLength="846190.000000" font-size="666666.000000" lengthAdjust="spacingAndGlyphs"
text-anchor="middle" opacity="0">R3</text>
<g class="stroked-text"><desc>R3</desc>
<path d="M107041666 34283690
L107208333 34045595
" />
<path d="M107327380 34283690
L107327380 33783690
L107136904 33783690
L107089285 33807500
L107065475 33831309
L107041666 33878928
L107041666 33950357
L107065475 33997976
L107089285 34021785
L107136904 34045595
L107327380 34045595
" />
<path d="M106874999 33783690
L106565475 33783690
L106732142 33974166
L106660713 33974166
L106613094 33997976
L106589285 34021785
L106565475 34069404
L106565475 34188452
L106589285 34236071
L106613094 34259880
L106660713 34283690
L106803571 34283690
L106851190 34259880
L106874999 34236071
" />
</g><text x="94328333.000000" y="44057500.000000"
transform="scale(-1 1) translate(-188656666.000000 0)"
textLength="1322381.000000" font-size="666666.000000" lengthAdjust="spacingAndGlyphs"
text-anchor="middle" opacity="0">R12</text>
<g class="stroked-text"><desc>R12</desc>
<path d="M94649761 44033690
L94816428 43795595
" />
<path d="M94935475 44033690
L94935475 43533690
L94744999 43533690
L94697380 43557500
L94673571 43581309
L94649761 43628928
L94649761 43700357
L94673571 43747976
L94697380 43771785
L94744999 43795595
L94935475 43795595
" />
<path d="M94173571 44033690
L94459285 44033690
" />
<path d="M94316428 44033690
L94316428 43533690
L94364047 43605119
L94411666 43652738
L94459285 43676547
" />
<path d="M93983094 43581309
L93959285 43557500
L93911666 43533690
L93792618 43533690
L93744999 43557500
L93721190 43581309
L93697380 43628928
L93697380 43676547
L93721190 43747976
L94006904 44033690
L93697380 44033690
" />
</g><text x="29458333.000000" y="11557500.000000"
transform="scale(-1 1) translate(-58916666.000000 0)"
textLength="1322381.000000" font-size="666666.000000" lengthAdjust="spacingAndGlyphs"
text-anchor="middle" opacity="0">C33</text>
<g class="stroked-text"><desc>C33</desc>
<path d="M29779761 11486071
L29803571 11509880
L29874999 11533690
L29922618 11533690
L29994047 11509880
L30041666 11462261
L30065475 11414642
L30089285 11319404
L30089285 11247976
L30065475 11152738
L30041666 11105119
L29994047 11057500
L29922618 11033690
L29874999 11033690
L29803571 11057500
L29779761 11081309
" />
<path d="M29613094 11033690
L29303571 11033690
L29470237 11224166
L29398809 11224166
L29351190 11247976
L29327380 11271785
L29303571 11319404
L29303571 11438452
L29327380 11486071
L29351190 11509880
L29398809 11533690
L29541666 11533690
L29589285 11509880
L29613094 11486071
" />
<path d="M29136904 11033690
L28827380 11033690
L28994047 11224166
L28922618 11224166
L28874999 11247976
L28851190 11271785
L28827380 11319404
L28827380 11438452
L28851190 11486071
L28874999 11509880
L28922618 11533690
L29065475 11533690
L29113094 11509880
L29136904 11486071
" />
</g><text x="92208333.000000" y="18307500.000000"
transform="scale(-1 1) translate(-184416666.000000 0)"
textLength="1322381.000000" font-size="666666.000000" lengthAdjust="spacingAndGlyphs"
text-anchor="middle" opacity="0">C22</text>
<g class="stroked-text"><desc>C22</desc>
<path d="M92529761 18236071
L92553571 18259880
L92624999 18283690
L92672618 18283690
L92744047 18259880
L92791666 18212261
L92815475 18164642
L92839285 18069404
L92839285 17997976
L92815475 17902738
L92791666 17855119
L92744047 17807500
L92672618 17783690
L92624999 17783690
L92553571 17807500
L92529761 17831309
" />
<path d="M92339285 17831309
L92315475 17807500
L92267856 17783690
L92148809 17783690
L92101190 17807500
L92077380 17831309
L92053571 17878928
L92053571 17926547
L92077380 17997976
L92363094 18283690
L92053571 18283690
" />
<path d="M91863094 17831309
L91839285 17807500
L91791666 17783690
L91672618 17783690
L91624999 17807500
L91601190 17831309
L91577380 17878928
L91577380 17926547
L91601190 17997976
L91886904 18283690
L91577380 18283690
" />
</g><text x="86708333.000000" y="46557500.000000"
transform="scale(-1 1) translate(-173416666.000000 0)"
textLength="1322381.000000" font-size="666666.000000" lengthAdjust="spacingAndGlyphs"
text-anchor="middle" opacity="0">C13</text>
<g class="stroked-text"><desc>C13</desc>
<path d="M87029761 46486071
L87053571 46509880
L87124999 46533690
L87172618 46533690
L87244047 46509880
L87291666 46462261
L87315475 46414642
L87339285 46319404
L87339285 46247976
L87315475 46152738
L87291666 46105119
L87244047 46057500
L87172618 46033690
L87124999 46033690
L87053571 46057500
L87029761 46081309
" />
<path d="M86553571 46533690
L86839285 46533690
" />
<path d="M86696428 46533690
L86696428 46033690
L86744047 46105119
L86791666 46152738
L86839285 46176547
" />
<path d="M86386904 46033690
L86077380 46033690
L86244047 46224166
L86172618 46224166
L86124999 46247976
L86101190 46271785
L86077380 46319404
L86077380 46438452
L86101190 46486071
L86124999 46509880
L86172618 46533690
L86315475 46533690
L86363094 46509880
L86386904 46486071
" />
</g><text x="107208333.000000" y="18307500.000000"
transform="scale(-1 1) translate(-214416666.000000 0)"
textLength="846190.000000" font-size="666666.000000" lengthAdjust="spacingAndGlyphs"
text-anchor="middle" opacity="0">R1</text>
<g class="stroked-text"><desc>R1</desc>
<path d="M107291666 18283690
L107458333 18045595
" />
<path d="M107577380 18283690
L107577380 17783690
L107386904 17783690
L107339285 17807500
L107315475 17831309
L107291666 17878928
L107291666 17950357
L107315475 17997976
L107339285 18021785
L107386904 18045595
L107577380 18045595
" />
<path d="M106815475 18283690
L107101190 18283690
" />
<path d="M106958333 18283690
L106958333 17783690
L107005952 17855119
L107053571 17902738
L107101190 17926547
" />
</g><text x="78208333.000000" y="26807500.000000"
transform="scale(-1 1) translate(-156416666.000000 0)"
textLength="1322381.000000" font-size="666666.000000" lengthAdjust="spacingAndGlyphs"
text-anchor="middle" opacity="0">C21</text>
<g class="stroked-text"><desc>C21</desc>
<path d="M78529761 26736071
L78553571 26759880
L78624999 26783690
L78672618 26783690
L78744047 26759880
L78791666 26712261
L78815475 26664642
L78839285 26569404
L78839285 26497976
L78815475 26402738
L78791666 26355119
L78744047 26307500
L78672618 26283690
L78624999 26283690
L78553571 26307500
L78529761 26331309
" />
<path d="M78339285 26331309
L78315475 26307500
L78267856 26283690
L78148809 26283690
L78101190 26307500
L78077380 26331309
L78053571 26378928
L78053571 26426547
L78077380 26497976
L78363094 26783690
L78053571 26783690
" />
<path d="M77577380 26783690
L77863094 26783690
" />
<path d="M77720237 26783690
L77720237 26283690
L77767856 26355119
L77815475 26402738
L77863094 26426547
" />
</g><text x="74458333.000000" y="31557500.000000"
transform="scale(-1 1) translate(-148916666.000000 0)"
textLength="1322381.000000" font-size="666666.000000" lengthAdjust="spacingAndGlyphs"
text-anchor="middle" opacity="0">C19</text>
<g class="stroked-text"><desc>C19</desc>
<path d="M74779761 31486071
L74803571 31509880
L74874999 31533690
L74922618 31533690
L74994047 31509880
L75041666 31462261
L75065475 31414642
L75089285 31319404
L75089285 31247976
L75065475 31152738
L75041666 31105119
L74994047 31057500
L74922618 31033690
L74874999 31033690
L74803571 31057500
L74779761 31081309
" />
<path d="M74303571 31533690
L74589285 31533690
" />
<path d="M74446428 31533690
L74446428 31033690
L74494047 31105119
L74541666 31152738
L74589285 31176547
" />
<path d="M74065475 31533690
L73970237 31533690
L73922618 31509880
L73898809 31486071
L73851190 31414642
L73827380 31319404
L73827380 31128928
L73851190 31081309
L73874999 31057500
L73922618 31033690
L74017856 31033690
L74065475 31057500
L74089285 31081309
L74113094 31128928
L74113094 31247976
L74089285 31295595
L74065475 31319404
L74017856 31343214
L73922618 31343214
L73874999 31319404
L73851190 31295595
L73827380 31247976
" />
</g><text x="88208333.000000" y="17557500.000000"
transform="scale(-1 1) translate(-176416666.000000 0)"
textLength="1322381.000000" font-size="666666.000000" lengthAdjust="spacingAndGlyphs"
text-anchor="middle" opacity="0">C24</text>
<g class="stroked-text"><desc>C24</desc>
<path d="M88529761 17486071
L88553571 17509880
L88624999 17533690
L88672618 17533690
L88744047 17509880
L88791666 17462261
L88815475 17414642
L88839285 17319404
L88839285 17247976
L88815475 17152738
L88791666 17105119
L88744047 17057500
L88672618 17033690
L88624999 17033690
L88553571 17057500
L88529761 17081309
" />
<path d="M88339285 17081309
L88315475 17057500
L88267856 17033690
L88148809 17033690
L88101190 17057500
L88077380 17081309
L88053571 17128928
L88053571 17176547
L88077380 17247976
L88363094 17533690
L88053571 17533690
" />
<path d="M87624999 17200357
L87624999 17533690
" />
<path d="M87744047 17009880
L87863094 17367023
L87553571 17367023
" />
</g><text x="85458333.000000" y="30557500.000000"
transform="scale(-1 1) translate(-170916666.000000 0)"
textLength="846190.000000" font-size="666666.000000" lengthAdjust="spacingAndGlyphs"
text-anchor="middle" opacity="0">D7</text>
<g class="stroked-text"><desc>D7</desc>
<path d="M85827380 30533690
L85827380 30033690
L85708333 30033690
L85636904 30057500
L85589285 30105119
L85565475 30152738
L85541666 30247976
L85541666 30319404
L85565475 30414642
L85589285 30462261
L85636904 30509880
L85708333 30533690
L85827380 30533690
" />
<path d="M85374999 30033690
L85041666 30033690
L85255952 30533690
" />
</g><text x="43308333.000000" y="11557500.000000"
transform="scale(-1 1) translate(-86616666.000000 0)"
textLength="1322381.000000" font-size="666666.000000" lengthAdjust="spacingAndGlyphs"
text-anchor="middle" opacity="0">R15</text>
<g class="stroked-text"><desc>R15</desc>
<path d="M43629761 11533690
L43796428 11295595
" />
<path d="M43915475 11533690
L43915475 11033690
L43724999 11033690
L43677380 11057500
L43653571 11081309
L43629761 11128928
L43629761 11200357
L43653571 11247976
L43677380 11271785
L43724999 11295595
L43915475 11295595
" />
<path d="M43153571 11533690
L43439285 11533690
" />
<path d="M43296428 11533690
L43296428 11033690
L43344047 11105119
L43391666 11152738
L43439285 11176547
" />
<path d="M42701190 11033690
L42939285 11033690
L42963094 11271785
L42939285 11247976
L42891666 11224166
L42772618 11224166
L42724999 11247976
L42701190 11271785
L42677380 11319404
L42677380 11438452
L42701190 11486071
L42724999 11509880
L42772618 11533690
L42891666 11533690
L42939285 11509880
L42963094 11486071
" />
</g><text x="86708333.000000" y="41807500.000000"
transform="scale(-1 1) translate(-173416666.000000 0)"
textLength="846190.000000" font-size="666666.000000" lengthAdjust="spacingAndGlyphs"
text-anchor="middle" opacity="0">R7</text>
<g class="stroked-text"><desc>R7</desc>
<path d="M86791666 41783690
L86958333 41545595
" />
<path d="M87077380 41783690
L87077380 41283690
L86886904 41283690
L86839285 41307500
L86815475 41331309
L86791666 41378928
L86791666 41450357
L86815475 41497976
L86839285 41521785
L86886904 41545595
L87077380 41545595
" />
<path d="M86624999 41283690
L86291666 41283690
L86505952 41783690
" />
</g><text x="88208333.000000" y="23307500.000000"
transform="scale(-1 1) translate(-176416666.000000 0)"
textLength="1322381.000000" font-size="666666.000000" lengthAdjust="spacingAndGlyphs"
text-anchor="middle" opacity="0">C26</text>
<g class="stroked-text"><desc>C26</desc>
<path d="M88529761 23236071
L88553571 23259880
L88624999 23283690
L88672618 23283690
L88744047 23259880
L88791666 23212261
L88815475 23164642
L88839285 23069404
L88839285 22997976
L88815475 22902738
L88791666 22855119
L88744047 22807500
L88672618 22783690
L88624999 22783690
L88553571 22807500
L88529761 22831309
" />
<path d="M88339285 22831309
L88315475 22807500
L88267856 22783690
L88148809 22783690
L88101190 22807500
L88077380 22831309
L88053571 22878928
L88053571 22926547
L88077380 22997976
L88363094 23283690
L88053571 23283690
" />
<path d="M87624999 22783690
L87720237 22783690
L87767856 22807500
L87791666 22831309
L87839285 22902738
L87863094 22997976
L87863094 23188452
L87839285 23236071
L87815475 23259880
L87767856 23283690
L87672618 23283690
L87624999 23259880
L87601190 23236071
L87577380 23188452
L87577380 23069404
L87601190 23021785
L87624999 22997976
L87672618 22974166
L87767856 22974166
L87815475 22997976
L87839285 23021785
L87863094 23069404
" />
</g><text x="88958333.000000" y="28307500.000000"
transform="scale(-1 1) translate(-177916666.000000 0)"
textLength="1322381.000000" font-size="666666.000000" lengthAdjust="spacingAndGlyphs"
text-anchor="middle" opacity="0">C17</text>
<g class="stroked-text"><desc>C17</desc>
<path d="M89279761 28236071
L89303571 28259880
L89374999 28283690
L89422618 28283690
L89494047 28259880
L89541666 28212261
L89565475 28164642
L89589285 28069404
L89589285 27997976
L89565475 27902738
L89541666 27855119
L89494047 27807500
L89422618 27783690
L89374999 27783690
L89303571 27807500
L89279761 27831309
" />
<path d="M88803571 28283690
L89089285 28283690
" />
<path d="M88946428 28283690
L88946428 27783690
L88994047 27855119
L89041666 27902738
L89089285 27926547
" />
<path d="M88636904 27783690
L88303571 27783690
L88517856 28283690
" />
</g><text x="99958333.000000" y="34307500.000000"
transform="scale(-1 1) translate(-199916666.000000 0)"
textLength="1322381.000000" font-size="666666.000000" lengthAdjust="spacingAndGlyphs"
text-anchor="middle" opacity="0">C11</text>
<g class="stroked-text"><desc>C11</desc>
<path d="M100279761 34236071
L100303571 34259880
L100374999 34283690
L100422618 34283690
L100494047 34259880
L100541666 34212261
L100565475 34164642
L100589285 34069404
L100589285 33997976
L100565475 33902738
L100541666 33855119
L100494047 33807500
L100422618 33783690
L100374999 33783690
L100303571 33807500
L100279761 33831309
" />
<path d="M99803571 34283690
L100089285 34283690
" />
<path d="M99946428 34283690
L99946428 33783690
L99994047 33855119
L100041666 33902738
L100089285 33926547
" />
<path d="M99327380 34283690
L99613094 34283690
" />
<path d="M99470237 34283690
L99470237 33783690
L99517856 33855119
L99565475 33902738
L99613094 33926547
" />
</g><text x="94208333.000000" y="18307500.000000"
transform="scale(-1 1) translate(-188416666.000000 0)"
textLength="1322381.000000" font-size="666666.000000" lengthAdjust="spacingAndGlyphs"
text-anchor="middle" opacity="0">C23</text>
<g class="stroked-text"><desc>C23</desc>
<path d="M94529761 18236071
L94553571 18259880
L94624999 18283690
L94672618 18283690
L94744047 18259880
L94791666 18212261
L94815475 18164642
L94839285 18069404
L94839285 17997976
L94815475 17902738
L94791666 17855119
L94744047 17807500
L94672618 17783690
L94624999 17783690
L94553571 17807500
L94529761 17831309
" />
<path d="M94339285 17831309
L94315475 17807500
L94267856 17783690
L94148809 17783690
L94101190 17807500
L94077380 17831309
L94053571 17878928
L94053571 17926547
L94077380 17997976
L94363094 18283690
L94053571 18283690
" />
<path d="M93886904 17783690
L93577380 17783690
L93744047 17974166
L93672618 17974166
L93624999 17997976
L93601190 18021785
L93577380 18069404
L93577380 18188452
L93601190 18236071
L93624999 18259880
L93672618 18283690
L93815475 18283690
L93863094 18259880
L93886904 18236071
" />
</g><text x="91958333.000000" y="23307500.000000"
transform="scale(-1 1) translate(-183916666.000000 0)"
textLength="846190.000000" font-size="666666.000000" lengthAdjust="spacingAndGlyphs"
text-anchor="middle" opacity="0">C9</text>
<g class="stroked-text"><desc>C9</desc>
<path d="M92041666 23236071
L92065475 23259880
L92136904 23283690
L92184523 23283690
L92255952 23259880
L92303571 23212261
L92327380 23164642
L92351190 23069404
L92351190 22997976
L92327380 22902738
L92303571 22855119
L92255952 22807500
L92184523 22783690
L92136904 22783690
L92065475 22807500
L92041666 22831309
" />
<path d="M91803571 23283690
L91708333 23283690
L91660713 23259880
L91636904 23236071
L91589285 23164642
L91565475 23069404
L91565475 22878928
L91589285 22831309
L91613094 22807500
L91660713 22783690
L91755952 22783690
L91803571 22807500
L91827380 22831309
L91851190 22878928
L91851190 22997976
L91827380 23045595
L91803571 23069404
L91755952 23093214
L91660713 23093214
L91613094 23069404
L91589285 23045595
L91565475 22997976
" />
</g></g>
<g style="fill:#840084; fill-opacity:0.0; 
stroke:#840084; stroke-width:120000.000000; stroke-opacity:1; 
stroke-linecap:round; stroke-linejoin:round;">
<path d="M28508333 25890190
L28508333 19890190
" />
<path d="M50908333 19890190
L50908333 25890190
" />
<path d="M28508333 19890190
L50908333 19890190
" />
</g>
<g style="fill:#840084; fill-opacity:1.0; 
stroke:#840084; stroke-width:10000.000000; stroke-opacity:1; 
stroke-linecap:round; stroke-linejoin:round;">
<path style="fill:#840084; fill-opacity:1.0; 
stroke:#840084; stroke-width:10000.000000; stroke-opacity:1; 
stroke-linecap:round; stroke-linejoin:round;fill-rule:evenodd;"
d="M 29708333.000000,23757500.000000
29408333.000000,23757500.000000
29408333.000000,23057500.000000
29708333.000000,23057500.000000
Z" /> 
</g>
<g style="fill:#840084; fill-opacity:1.0; 
stroke:#840084; stroke-width:50000.000000; stroke-opacity:1; 
stroke-linecap:round; stroke-linejoin:round;">
</g>
<g style="fill:#840084; fill-opacity:0.0; 
stroke:#840084; stroke-width:50000.000000; stroke-opacity:1; 
stroke-linecap:round; stroke-linejoin:round;">
<path d="M33661418 55132746
L33661418 44132746
" />
<path d="M25661418 55132746
L33661418 55132746
" />
<path d="M25661418 44132746
L25661418 55132746
" />
<path d="M33661416.809524 44132744.666667 A8062256.000000 8062256.000000 0.0 1 0 25660167.873378 44132029.480025" />
<path d="M45661418 44132746
L45661418 55132746
" />
<path d="M53661418 55132746
L53661418 44132746
" />
<path d="M45661418 55132746
L53661418 55132746
" />
<path d="M53661416.809524 44132744.666667 A8062256.000000 8062256.000000 0.0 1 0 45660167.873378 44132029.480025" />
</g>
<g style="fill:#840084; fill-opacity:0.0; 
stroke:#840084; stroke-width:120000.000000; stroke-opacity:1; 
stroke-linecap:round; stroke-linejoin:round;">
<circle cx="99708333.000000" cy="29057500.000000" r="700000.000000" /> 
<path d="M46449755 10767500
L46966911 10767500
" />
<path d="M46449755 9347500
L46966911 9347500
" />
<circle cx="99708333.000000" cy="27057500.000000" r="700000.000000" /> 
<path d="M85958333 36707500
L88508333 36707500
" />
<path d="M85958333 38407500
L85958333 36707500
" />
<path d="M85958333 38407500
L88508333 38407500
" />
<path d="M61218333 15316078
L61218333 14798922
" />
<path d="M59798333 15316078
L59798333 14798922
" />
<circle cx="95708333.000000" cy="29057500.000000" r="700000.000000" /> 
<path d="M103216911 38347500
L102699755 38347500
" />
<path d="M103216911 39767500
L102699755 39767500
" />
<path d="M90319755 45767500
L90836911 45767500
" />
<path d="M90319755 44347500
L90836911 44347500
" />
<path d="M105998333 27298922
L105998333 27816078
" />
<path d="M107418333 27298922
L107418333 27816078
" />
<circle cx="97708333.000000" cy="29057500.000000" r="700000.000000" /> 
<path d="M111418333 25798922
L111418333 26316078
" />
<path d="M109998333 25798922
L109998333 26316078
" />
<path d="M102458333 32907500
L105008333 32907500
" />
<path d="M102458333 32907500
L102458333 31207500
" />
<path d="M102458333 31207500
L105008333 31207500
" />
<path d="M109998333 32316078
L109998333 31798922
" />
<path d="M111418333 32316078
L111418333 31798922
" />
<path d="M50366911 9347500
L49849755 9347500
" />
<path d="M50366911 10767500
L49849755 10767500
" />
<path d="M67199755 31517500
L67716911 31517500
" />
<path d="M67199755 30097500
L67716911 30097500
" />
<path d="M92708333 34907500
L95258333 34907500
" />
<path d="M92708333 33207500
L95258333 33207500
" />
<path d="M92708333 34907500
L92708333 33207500
" />
<path d="M86748333 30798922
L86748333 31316078
" />
<path d="M88168333 30798922
L88168333 31316078
" />
<path d="M32699755 10767500
L33216911 10767500
" />
<path d="M32699755 9347500
L33216911 9347500
" />
<path d="M107418333 31816078
L107418333 31298922
" />
<path d="M105998333 31816078
L105998333 31298922
" />
<path d="M57798333 15316078
L57798333 14798922
" />
<path d="M59218333 15316078
L59218333 14798922
" />
<path d="M82868333 47598922
L82868333 48116078
" />
<path d="M84288333 47598922
L84288333 48116078
" />
<path d="M115918333 19798922
L115918333 20316078
" />
<path d="M114498333 19798922
L114498333 20316078
" />
<circle cx="97708333.000000" cy="27057500.000000" r="700000.000000" /> 
<path d="M107668333 36316078
L107668333 35798922
" />
<path d="M106248333 36316078
L106248333 35798922
" />
<path d="M94069755 44347500
L94586911 44347500
" />
<path d="M94069755 45767500
L94586911 45767500
" />
<path d="M29766911 9347500
L29249755 9347500
" />
<path d="M29766911 10767500
L29249755 10767500
" />
<path d="M93498333 19798922
L93498333 20316078
" />
<path d="M94918333 19798922
L94918333 20316078
" />
<path d="M86319755 45767500
L86836911 45767500
" />
<path d="M86319755 44347500
L86836911 44347500
" />
<path d="M107918333 19798922
L107918333 20316078
" />
<path d="M106498333 19798922
L106498333 20316078
" />
<path d="M78918333 24816078
L78918333 24298922
" />
<path d="M77498333 24816078
L77498333 24298922
" />
<path d="M74716911 31847500
L74199755 31847500
" />
<path d="M74716911 33267500
L74199755 33267500
" />
<path d="M88466911 17847500
L87949755 17847500
" />
<path d="M88466911 19267500
L87949755 19267500
" />
<path d="M86308333 26807500
L86308333 29357500
" />
<path d="M84608333 26807500
L84608333 29357500
" />
<path d="M84608333 26807500
L86308333 26807500
" />
<path d="M43049755 10767500
L43566911 10767500
" />
<path d="M43049755 9347500
L43566911 9347500
" />
<path d="M86836911 43517500
L86319755 43517500
" />
<path d="M86836911 42097500
L86319755 42097500
" />
<circle cx="95708333.000000" cy="27057500.000000" r="700000.000000" /> 
<path d="M87949755 25267500
L88466911 25267500
" />
<path d="M87949755 23847500
L88466911 23847500
" />
<path d="M90949755 28767500
L91466911 28767500
" />
<path d="M90949755 27347500
L91466911 27347500
" />
<path d="M100668333 36316078
L100668333 35798922
" />
<path d="M99248333 36316078
L99248333 35798922
" />
<path d="M91498333 20316078
L91498333 19798922
" />
<path d="M92918333 20316078
L92918333 19798922
" />
<path d="M91248333 24798922
L91248333 25316078
" />
<path d="M92668333 24798922
L92668333 25316078
" />
<g >
</g>
<g >
</g>
<g >
</g>
<g >
</g>
<g >
</g>
<g >
</g>
<g >
</g>
<g >
</g>
<g >
</g>
<g >
</g>
<g >
</g>
<g >
</g>
<g >
</g>
<g >
</g>
<g >
</g>
<g >
</g>
<g >
</g>
<g >
</g>
<g >
</g>
<g >
</g>
<g >
</g>
<g >
</g>
<g >
</g>
<g >
</g>
<g >
</g>
<g >
</g>
<g >
</g>
<g >
</g>
<g >
</g>
<g >
</g>
<g >
</g>
<g >
</g>
<g >
</g>
<g >
</g>
<g >
</g>
<g >
</g>
<g >
</g>
<g >
</g>
<g >
</g>
<g >
</g>
<g >
</g>
<g >
</g>
<g >
</g>
<g >
</g>
<g >
</g>
<g >
</g>
<g >
</g>
<g >
</g>
<g >
</g>
<g >
</g>
<g >
</g>
<g >
</g>
<g >
</g>
<g >
</g>
<g >
</g>
<g >
</g>
<g >
</g>
<g >
</g>
<g >
</g>
<g >
</g>
<g >
</g>
<g >
</g>
<g >
</g>
<g >
</g>
<g >
</g>
<g >
</g>
<g >
</g>
<g >
</g>
<g >
</g>
<g >
</g>
<g >
</g>
<g >
</g>
<g >
</g>
<g >
</g>
<g >
</g>
<g >
</g>
<g >
</g>
<g >
</g>
<g >
</g>
<g >
</g>
<g >
</g>
<g >
</g>
<g >
</g>
<g >
</g>
<g >
</g>
<g >
</g>
<g >
</g>
<g >
</g>
<g >
</g>
<g >
</g>
<g >
</g>
<g >
</g>
<g >
</g>
<g >
</g>
<g >
</g>
<g >
</g>
<g >
</g>
<g >
</g>
<g >
</g>
<g >
</g>
<g >
</g>
<g >
</g>
<g >
</g>
<g >
</g>
<g >
</g>
<g >
</g>
<g >
</g>
<g >
</g>
<g >
</g>
</g>
<g style="fill:#000000; fill-opacity:0.0; 
stroke:#000000; stroke-width:120000.000000; stroke-opacity:1; 
stroke-linecap:round; stroke-linejoin:round;">
</g>
<g style="fill:#C2C200; fill-opacity:0.0; 
stroke:#C2C200; stroke-width:120000.000000; stroke-opacity:1; 
stroke-linecap:round; stroke-linejoin:round;">
</g>
<g style="fill:#C2C200; fill-opacity:0.0; 
stroke:#C2C200; stroke-width:100000.000000; stroke-opacity:1; 
stroke-linecap:round; stroke-linejoin:round;">
<path d="M118708333 49057500
L118708333 44557500
" />
<path d="M114708333.000000 49057500.000000 A2000000.000000 2000000.000000 0.0 0 0 118708333.000000 49057500.000000" />
<path d="M119708333 9057500
L119708333 55057500
" />
<path d="M19708333 55057500
L19708333 9057500
" />
<path d="M21708333.000000 7057500.000000 A2000000.000000 2000000.000000 0.0 0 0 19708333.000000 9057500.000000" />
<path d="M118708333.000000 44557500.000000 A2000000.000000 2000000.000000 0.0 0 0 114708333.000000 44557500.000000" />
<path d="M119708333.000000 9057500.000000 A2000000.000000 2000000.000000 0.0 0 0 117708333.000000 7057500.000000" />
<path d="M21708333 7057500
L117708333 7057500
" />
<path d="M114708333 44557500
L114708333 49057500
" />
<path d="M19708333.000000 55057500.000000 A2000000.000000 2000000.000000 0.0 0 0 21708333.000000 57057500.000000" />
<path d="M117708333 57057500
L21708333 57057500
" />
<path d="M117708333.000000 57057500.000000 A2000000.000000 2000000.000000 0.0 0 0 119708333.000000 55057500.000000" />
<g >
</g>
<g >
</g>
<g >
</g>
<g >
</g>
<g >
</g>
<g >
</g>
<g >
</g>
<g >
</g>
<g >
</g>
<g >
</g>
<g >
</g>
<g >
</g>
<g >
</g>
<g >
</g>
<g >
</g>
<g >
</g>
<g >
</g>
<g >
</g>
<g >
</g>
<g >
</g>
<g >
</g>
<g >
</g>
<g >
</g>
<g >
</g>
<g >
</g>
<g >
</g>
<g >
</g>
<g >
</g>
<g >
</g>
<g >
</g>
<g >
</g>
<g >
</g>
<g >
</g>
<g >
</g>
<g >
</g>
<g >
</g>
<g >
</g>
<g >
</g>
<g >
</g>
<g >
</g>
<g >
</g>
<g >
</g>
<g >
</g>
<g >
</g>
<g >
</g>
<g >
</g>
<g >
</g>
<g >
</g>
<g >
</g>
<g >
</g>
<g >
</g>
<g >
</g>
<g >
</g>
<g >
</g>
<g >
</g>
<g >
</g>
<g >
</g>
<g >
</g>
<g >
</g>
<g >
</g>
<g >
</g>
<g >
</g>
<g >
</g>
<g >
</g>
<g >
</g>
<g >
</g>
<g >
</g>
<g >
</g>
<g >
</g>
<g >
</g>
<g >
</g>
<g >
</g>
<g >
</g>
<g >
</g>
<g >
</g>
<g >
</g>
<g >
</g>
<g >
</g>
<g >
</g>
<g >
</g>
<g >
</g>
<g >
</g>
<g >
</g>
<g >
</g>
<g >
</g>
<g >
</g>
<g >
</g>
<g >
</g>
<g >
</g>
<g >
</g>
<g >
</g>
<g >
</g>
<g >
</g>
<g >
</g>
<g >
</g>
<g >
</g>
<g >
</g>
<g >
</g>
<g >
</g>
<g >
</g>
<g >
</g>
<g >
</g>
<g >
</g>
<g >
</g>
<g >
</g>
<g >
</g>
<g >
</g>
<g >
</g>
<g >
</g>
</g> 
</svg>
