M48
; DRILL file {KiCad (5.99.0-2671-gfc0a358ba)} date Sunday, September 06, 2020 at 03:18:26 AM
; FORMAT={-:-/ absolute / inch / decimal}
; #@! TF.CreationDate,2020-09-06T03:18:26+05:30
; #@! TF.GenerationSoftware,Kicad,Pcbnew,(5.99.0-2671-gfc0a358ba)
; #@! TF.FileFunction,Plated,1,2,PTH
FMAT,2
INCH
T1C0.0197
T2C0.0276
T3C0.0315
T4C0.0394
T5C0.0472
T6C0.0591
T7C0.0748
T8C0.0866
%
G90
G05
T1
X1.1811Y-3.563
X1.1811Y-3.622
X1.1811Y-3.6811
X1.1811Y-3.7402
X1.1811Y-3.7992
X1.1811Y-3.8583
X1.1811Y-3.9173
X1.1811Y-3.9764
X1.1811Y-4.0354
X1.2402Y-3.563
X1.2402Y-3.622
X1.2402Y-3.6811
X1.2402Y-3.7402
X1.2402Y-3.7992
X1.2402Y-3.9764
X1.2402Y-4.0354
X1.2992Y-3.563
X1.2992Y-3.622
X1.2992Y-3.6811
X1.2992Y-3.7402
X1.2992Y-3.7992
X1.2992Y-3.8583
X1.2992Y-3.9173
X1.2992Y-3.9764
X1.2992Y-4.0354
X1.3583Y-3.563
X1.3583Y-3.622
X1.3583Y-3.6811
X1.3583Y-3.7402
X1.3583Y-3.7992
X1.4173Y-3.563
X1.4173Y-3.622
X1.4173Y-3.6811
X1.4173Y-3.7402
X1.4764Y-3.563
X1.4764Y-3.622
X1.4764Y-3.6811
X1.5354Y-3.563
X1.5354Y-3.622
X1.5354Y-3.6811
X1.5945Y-3.563
X1.5945Y-3.622
X1.5945Y-3.6811
X1.6535Y-3.563
X1.6535Y-3.622
X1.6535Y-3.6811
X1.7126Y-3.563
X1.7126Y-3.622
X1.7126Y-3.6811
X1.7717Y-3.563
X1.7717Y-3.622
X1.7717Y-3.6811
X1.8307Y-3.563
X1.8307Y-3.622
X1.8307Y-3.6811
X1.8898Y-3.563
X1.8898Y-3.622
X1.8898Y-3.6811
X1.9488Y-3.563
X1.9488Y-3.622
X1.9488Y-3.6811
X2.0079Y-3.563
X2.0079Y-3.622
X2.0079Y-3.6811
X2.0669Y-3.563
X2.0669Y-3.622
X2.0669Y-3.6811
X2.126Y-3.563
X2.126Y-3.622
X2.126Y-3.6811
X2.126Y-3.9764
X2.126Y-4.0354
X2.185Y-3.563
X2.185Y-3.622
X2.185Y-3.6811
X2.185Y-3.9764
X2.185Y-4.0354
X2.2441Y-3.563
X2.2441Y-3.622
X2.2441Y-3.6811
X2.2441Y-3.9173
X2.2441Y-3.9764
X2.2441Y-4.0354
X2.3031Y-3.563
X2.3031Y-3.622
X2.3031Y-3.6811
X2.3031Y-3.9173
X2.3031Y-3.9764
X2.3031Y-4.0354
X2.3622Y-3.563
X2.3622Y-3.622
X2.3622Y-3.6811
X2.3622Y-3.9173
X2.3622Y-3.9764
X2.3622Y-4.0354
X2.4213Y-3.563
X2.4213Y-3.622
X2.4213Y-3.6811
X2.4213Y-3.7402
X2.4213Y-3.9173
X2.4213Y-3.9764
X2.4213Y-4.0354
X2.4803Y-3.563
X2.4803Y-3.622
X2.4803Y-3.6811
X2.4803Y-3.7402
X2.4803Y-3.9173
X2.4803Y-3.9764
X2.4803Y-4.0354
X2.5394Y-3.563
X2.5394Y-3.622
X2.5394Y-3.6811
X2.5394Y-3.7402
X2.5394Y-3.9173
X2.5394Y-3.9764
X2.5394Y-4.0354
X2.5984Y-3.563
X2.5984Y-3.622
X2.5984Y-3.6811
X2.5984Y-3.7402
X2.5984Y-3.9173
X2.5984Y-3.9764
X2.5984Y-4.0354
X2.6575Y-3.563
X2.6575Y-3.622
X2.6575Y-3.6811
X2.6575Y-3.7402
X2.6575Y-3.9173
X2.6575Y-3.9764
X2.6575Y-4.0354
X2.7165Y-3.563
X2.7165Y-3.622
X2.7165Y-3.6811
X2.7165Y-3.7402
X2.7165Y-3.9173
X2.7165Y-3.9764
X2.7165Y-4.0354
X2.7756Y-3.563
X2.7756Y-3.622
X2.7756Y-3.6811
X2.7756Y-3.7402
X2.7756Y-3.9173
X2.7756Y-3.9764
X2.8346Y-3.563
X2.9134Y-3.563
X2.9724Y-3.563
X2.9724Y-3.622
X2.9724Y-3.6811
X2.9724Y-3.7402
X2.9724Y-3.9173
X2.9724Y-3.9764
X2.9724Y-4.0354
X3.0315Y-3.563
X3.0315Y-3.622
X3.0315Y-3.6811
X3.0315Y-3.7402
X3.0315Y-3.9173
X3.0315Y-3.9764
X3.0315Y-4.0354
X3.0906Y-3.563
X3.0906Y-3.622
X3.0906Y-3.6811
X3.0906Y-3.7402
X3.0906Y-3.9173
X3.0906Y-3.9764
X3.0906Y-4.0354
X3.1496Y-3.563
X3.1496Y-3.622
X3.1496Y-3.6811
X3.1496Y-3.7402
X3.1496Y-3.9173
X3.1496Y-3.9764
X3.1496Y-4.0354
X3.2087Y-3.563
X3.2087Y-3.622
X3.2087Y-3.6811
X3.2087Y-3.7402
X3.2087Y-3.9173
X3.2087Y-3.9764
X3.2087Y-4.0354
X3.2677Y-3.563
X3.2677Y-3.622
X3.2677Y-3.6811
X3.2677Y-3.9764
X3.2677Y-4.0354
X3.3268Y-3.563
X3.3268Y-3.622
X3.3268Y-3.6811
X3.3268Y-3.9764
X3.3268Y-4.0354
X3.3858Y-3.563
X3.3858Y-3.622
X3.3858Y-3.6811
X3.3858Y-3.7402
X3.3858Y-3.9173
X3.3858Y-3.9764
X3.3858Y-4.0354
X3.4449Y-3.563
X3.4449Y-3.622
X3.4449Y-3.6811
X3.4449Y-3.7402
X3.4449Y-3.9173
X3.4449Y-3.9764
X3.4449Y-4.0354
X3.5039Y-3.563
X3.5039Y-3.622
X3.5039Y-3.6811
X3.5039Y-3.7402
X3.5039Y-3.9173
X3.5039Y-3.9764
X3.5039Y-4.0354
X3.563Y-3.563
X3.563Y-3.622
X3.563Y-3.6811
X3.563Y-3.9764
X3.563Y-4.0354
X3.622Y-3.563
X3.622Y-3.622
X3.622Y-3.6811
X3.622Y-3.7402
X3.622Y-3.9173
X3.622Y-3.9764
X3.622Y-4.0354
X3.6811Y-3.563
X3.6811Y-3.622
X3.6811Y-3.6811
X3.6811Y-3.7402
X3.6811Y-3.9173
X3.6811Y-3.9764
X3.6811Y-4.0354
X3.7402Y-3.563
X3.7402Y-3.622
X3.7402Y-3.6811
X3.7402Y-3.7402
X3.7402Y-3.9173
X3.7402Y-3.9764
X3.7402Y-4.0354
X3.7992Y-3.622
X3.7992Y-3.6811
X3.7992Y-3.7402
X3.7992Y-3.9173
X3.7992Y-3.9764
X3.7992Y-4.0354
X3.8583Y-3.6614
X3.8583Y-3.7205
X3.8583Y-3.7795
X3.8583Y-3.9567
X3.8583Y-4.0157
X3.9173Y-3.7205
X3.9173Y-3.7795
X3.9173Y-3.8386
X3.9764Y-3.7795
X3.9764Y-3.8386
X3.9764Y-3.8976
X4.0354Y-3.8386
X4.0354Y-3.8976
X4.0354Y-3.9567
X4.0945Y-3.8976
X4.0945Y-3.9567
X4.0945Y-4.0157
X4.1535Y-3.9567
X4.1535Y-4.0157
T3
X1.9488Y-1.1555
X2.2441Y-1.2106
T5
X0.9055Y-1.4567
X1.0138Y-3.8976
X1.2402Y-3.8976
X1.4665Y-3.8976
X1.6929Y-1.4567
X1.6929Y-3.8976
X1.9193Y-3.8976
X2.1457Y-3.8976
X2.4803Y-1.4567
T6
X3.8976Y-4.0945
X4.0945Y-4.0945
T7
X3.0906Y-1.1417
X3.4449Y-1.1417
X3.7992Y-1.1417
T8
X4.2913Y-4.2913
X0.5906Y-4.2913
X4.2913Y-0.5906
X0.5906Y-0.5906
T2
G00X3.8858Y-1.3386
M15
G01X3.7126Y-1.3386
M16
G05
G00X3.8858Y-2.126
M15
G01X3.7126Y-2.126
M16
G05
T4
G00X2.9075Y-0.7638
M15
G01X2.9075Y-0.8504
M16
G05
G00X3.9823Y-0.7638
M15
G01X3.9823Y-0.8504
M16
G05
T0
M30
