<?xml version="1.0" standalone="no"?>
 <!DOCTYPE svg PUBLIC "-//W3C//DTD SVG 1.1//EN" 
 "http://www.w3.org/Graphics/SVG/1.1/DTD/svg11.dtd"> 
<svg
  xmlns:svg="http://www.w3.org/2000/svg"
  xmlns="http://www.w3.org/2000/svg"
  xmlns:xlink="http://www.w3.org/1999/xlink"
  version="1.1"
  width="12.357100cm" height="5.765800cm" viewBox="0 0 123571000 57658000">
<title>SVG Picture created as Power_Supply-F_SilkS.svg date 2020/09/06 04:04:44 </title>
  <desc>Picture generated by PCBNEW </desc>
<g style="fill:#000000; fill-opacity:1.000000;stroke:#000000; stroke-opacity:1.000000;
stroke-linecap:round; stroke-linejoin:round;"
 transform="translate(0 0) scale(1 1)">
</g>
<g style="fill:#000000; fill-opacity:0.0; 
stroke:#000000; stroke-width:0.000000; stroke-opacity:1; 
stroke-linecap:round; stroke-linejoin:round;">
</g>
<g style="fill:#008484; fill-opacity:0.0; 
stroke:#008484; stroke-width:0.000000; stroke-opacity:1; 
stroke-linecap:round; stroke-linejoin:round;">
</g>
<g style="fill:#008484; fill-opacity:0.0; 
stroke:#008484; stroke-width:75000.000000; stroke-opacity:1; 
stroke-linecap:round; stroke-linejoin:round;">
<text x="70708333.000000" y="22557500.000000"
textLength="16331250.000000" font-size="1333333.000000" lengthAdjust="spacingAndGlyphs"
text-anchor="middle" opacity="0">github.com/adsehgal</text>
<g class="stroked-text"><desc>github.com/adsehgal</desc>
<path d="M63363660 21843214
L63262469 22652738
L63202946 22747976
L63149374 22795595
L63048184 22843214
L62905327 22843214
L62816041 22795595
" />
<path d="M63286279 22462261
L63185088 22509880
L62994612 22509880
L62905327 22462261
L62863660 22414642
L62827946 22319404
L62863660 22033690
L62923184 21938452
L62976755 21890833
L63077946 21843214
L63268422 21843214
L63357708 21890833
" />
<path d="M63756517 22509880
L63839850 21843214
" />
<path d="M63881517 21509880
L63827946 21557500
L63869612 21605119
L63923184 21557500
L63881517 21509880
L63869612 21605119
" />
<path d="M64173184 21843214
L64554136 21843214
" />
<path d="M64357708 21509880
L64250565 22367023
L64286279 22462261
L64375565 22509880
L64470803 22509880
" />
<path d="M64804136 22509880
L64929136 21509880
" />
<path d="M65232708 22509880
L65298184 21986071
L65262469 21890833
L65173184 21843214
L65030327 21843214
L64929136 21890833
L64875565 21938452
" />
<path d="M66220803 21843214
L66137469 22509880
" />
<path d="M65792231 21843214
L65726755 22367023
L65762469 22462261
L65851755 22509880
L65994612 22509880
L66095803 22462261
L66149374 22414642
" />
<path d="M66613660 22509880
L66738660 21509880
" />
<path d="M66691041 21890833
L66792231 21843214
L66982708 21843214
L67071993 21890833
L67113660 21938452
L67149374 22033690
L67113660 22319404
L67054136 22414642
L67000565 22462261
L66899374 22509880
L66708898 22509880
L66619612 22462261
" />
<path d="M67530327 22414642
L67571993 22462261
L67518422 22509880
L67476755 22462261
L67530327 22414642
L67518422 22509880
" />
<path d="M68429136 22462261
L68327946 22509880
L68137469 22509880
L68048184 22462261
L68006517 22414642
L67970803 22319404
L68006517 22033690
L68066041 21938452
L68119612 21890833
L68220803 21843214
L68411279 21843214
L68500565 21890833
" />
<path d="M68994612 22509880
L68905327 22462261
L68863660 22414642
L68827946 22319404
L68863660 22033690
L68923184 21938452
L68976755 21890833
L69077946 21843214
L69220803 21843214
L69310088 21890833
L69351755 21938452
L69387469 22033690
L69351755 22319404
L69292231 22414642
L69238660 22462261
L69137469 22509880
L68994612 22509880
" />
<path d="M69756517 22509880
L69839850 21843214
" />
<path d="M69827946 21938452
L69881517 21890833
L69982708 21843214
L70125565 21843214
L70214850 21890833
L70250565 21986071
L70185088 22509880
" />
<path d="M70250565 21986071
L70310088 21890833
L70411279 21843214
L70554136 21843214
L70643422 21890833
L70679136 21986071
L70613660 22509880
" />
<path d="M71935088 21462261
L70917231 22747976
" />
<path d="M72566041 22509880
L72631517 21986071
L72595803 21890833
L72506517 21843214
L72316041 21843214
L72214850 21890833
" />
<path d="M72571993 22462261
L72470803 22509880
L72232708 22509880
L72143422 22462261
L72107708 22367023
L72119612 22271785
L72179136 22176547
L72280327 22128928
L72518422 22128928
L72619612 22081309
" />
<path d="M73470803 22509880
L73595803 21509880
" />
<path d="M73476755 22462261
L73375565 22509880
L73185088 22509880
L73095803 22462261
L73054136 22414642
L73018422 22319404
L73054136 22033690
L73113660 21938452
L73167231 21890833
L73268422 21843214
L73458898 21843214
L73548184 21890833
" />
<path d="M73905327 22462261
L73994612 22509880
L74185088 22509880
L74286279 22462261
L74345803 22367023
L74351755 22319404
L74316041 22224166
L74226755 22176547
L74083898 22176547
L73994612 22128928
L73958898 22033690
L73964850 21986071
L74024374 21890833
L74125565 21843214
L74268422 21843214
L74357708 21890833
" />
<path d="M75143422 22462261
L75042231 22509880
L74851755 22509880
L74762469 22462261
L74726755 22367023
L74774374 21986071
L74833898 21890833
L74935088 21843214
L75125565 21843214
L75214850 21890833
L75250565 21986071
L75238660 22081309
L74750565 22176547
" />
<path d="M75613660 22509880
L75738660 21509880
" />
<path d="M76042231 22509880
L76107708 21986071
L76071993 21890833
L75982708 21843214
L75839850 21843214
L75738660 21890833
L75685088 21938452
" />
<path d="M77030327 21843214
L76929136 22652738
L76869612 22747976
L76816041 22795595
L76714850 22843214
L76571993 22843214
L76482708 22795595
" />
<path d="M76952946 22462261
L76851755 22509880
L76661279 22509880
L76571993 22462261
L76530327 22414642
L76494612 22319404
L76530327 22033690
L76589850 21938452
L76643422 21890833
L76744612 21843214
L76935088 21843214
L77024374 21890833
" />
<path d="M77851755 22509880
L77917231 21986071
L77881517 21890833
L77792231 21843214
L77601755 21843214
L77500565 21890833
" />
<path d="M77857708 22462261
L77756517 22509880
L77518422 22509880
L77429136 22462261
L77393422 22367023
L77405327 22271785
L77464850 22176547
L77566041 22128928
L77804136 22128928
L77905327 22081309
" />
<path d="M78470803 22509880
L78381517 22462261
L78345803 22367023
L78452946 21509880
" />
</g></g>
<g style="fill:#008484; fill-opacity:0.0; 
stroke:#008484; stroke-width:500000.000000; stroke-opacity:1; 
stroke-linecap:round; stroke-linejoin:round;">
<text x="49708333.000000" y="49057500.000000"
textLength="12859405.000000" font-size="2666666.000000" lengthAdjust="spacingAndGlyphs"
text-anchor="middle" opacity="0">0.8-12V</text>
<g class="stroked-text"><desc>0.8-12V</desc>
<path d="M44184523 46962261
L44374999 46962261
L44565475 47057500
L44660713 47152738
L44755952 47343214
L44851190 47724166
L44851190 48200357
L44755952 48581309
L44660713 48771785
L44565475 48867023
L44374999 48962261
L44184523 48962261
L43994047 48867023
L43898809 48771785
L43803571 48581309
L43708333 48200357
L43708333 47724166
L43803571 47343214
L43898809 47152738
L43994047 47057500
L44184523 46962261
" />
<path d="M45708333 48771785
L45803571 48867023
L45708333 48962261
L45613094 48867023
L45708333 48771785
L45708333 48962261
" />
<path d="M46946428 47819404
L46755952 47724166
L46660713 47628928
L46565475 47438452
L46565475 47343214
L46660713 47152738
L46755952 47057500
L46946428 46962261
L47327380 46962261
L47517856 47057500
L47613094 47152738
L47708333 47343214
L47708333 47438452
L47613094 47628928
L47517856 47724166
L47327380 47819404
L46946428 47819404
L46755952 47914642
L46660713 48009880
L46565475 48200357
L46565475 48581309
L46660713 48771785
L46755952 48867023
L46946428 48962261
L47327380 48962261
L47517856 48867023
L47613094 48771785
L47708333 48581309
L47708333 48200357
L47613094 48009880
L47517856 47914642
L47327380 47819404
" />
<path d="M48565475 48200357
L50089285 48200357
" />
<path d="M52089285 48962261
L50946428 48962261
" />
<path d="M51517856 48962261
L51517856 46962261
L51327380 47247976
L51136904 47438452
L50946428 47533690
" />
<path d="M52851190 47152738
L52946428 47057500
L53136904 46962261
L53613094 46962261
L53803571 47057500
L53898809 47152738
L53994047 47343214
L53994047 47533690
L53898809 47819404
L52755952 48962261
L53994047 48962261
" />
<path d="M54565475 46962261
L55232142 48962261
L55898809 46962261
" />
</g><text x="29708333.000000" y="49057500.000000"
textLength="6745238.000000" font-size="2666666.000000" lengthAdjust="spacingAndGlyphs"
text-anchor="middle" opacity="0">GND</text>
<g class="stroked-text"><desc>GND</desc>
<path d="M28184523 47057500
L27994047 46962261
L27708333 46962261
L27422618 47057500
L27232142 47247976
L27136904 47438452
L27041666 47819404
L27041666 48105119
L27136904 48486071
L27232142 48676547
L27422618 48867023
L27708333 48962261
L27898809 48962261
L28184523 48867023
L28279761 48771785
L28279761 48105119
L27898809 48105119
" />
<path d="M29136904 48962261
L29136904 46962261
L30279761 48962261
L30279761 46962261
" />
<path d="M31232142 48962261
L31232142 46962261
L31708333 46962261
L31994047 47057500
L32184523 47247976
L32279761 47438452
L32374999 47819404
L32374999 48105119
L32279761 48486071
L32184523 48676547
L31994047 48867023
L31708333 48962261
L31232142 48962261
" />
</g></g>
<g style="fill:#008484; fill-opacity:0.0; 
stroke:#008484; stroke-width:150000.000000; stroke-opacity:1; 
stroke-linecap:round; stroke-linejoin:round;">
<text x="108708333.000000" y="52105000.000000"
textLength="10173810.000000" font-size="1333333.000000" lengthAdjust="spacingAndGlyphs"
text-anchor="middle" opacity="0">+12V | GND</text>
<g class="stroked-text"><desc>+12V | GND</desc>
<path d="M104184523 51676428
L104946428 51676428
" />
<path d="M104565475 52057380
L104565475 51295476
" />
<path d="M105946428 52057380
L105374999 52057380
" />
<path d="M105660713 52057380
L105660713 51057380
L105565475 51200238
L105470237 51295476
L105374999 51343095
" />
<path d="M106327380 51152619
L106374999 51105000
L106470237 51057380
L106708333 51057380
L106803571 51105000
L106851190 51152619
L106898809 51247857
L106898809 51343095
L106851190 51485952
L106279761 52057380
L106898809 52057380
" />
<path d="M107184523 51057380
L107517856 52057380
L107851190 51057380
" />
<path d="M109184523 52390714
L109184523 50962142
" />
<path d="M111184523 51105000
L111089285 51057380
L110946428 51057380
L110803571 51105000
L110708333 51200238
L110660713 51295476
L110613094 51485952
L110613094 51628809
L110660713 51819285
L110708333 51914523
L110803571 52009761
L110946428 52057380
L111041666 52057380
L111184523 52009761
L111232142 51962142
L111232142 51628809
L111041666 51628809
" />
<path d="M111660713 52057380
L111660713 51057380
L112232142 52057380
L112232142 51057380
" />
<path d="M112708333 52057380
L112708333 51057380
L112946428 51057380
L113089285 51105000
L113184523 51200238
L113232142 51295476
L113279761 51485952
L113279761 51628809
L113232142 51819285
L113184523 51914523
L113089285 52009761
L112946428 52057380
L112708333 52057380
" />
</g></g>
<g style="fill:#008484; fill-opacity:0.0; 
stroke:#008484; stroke-width:100000.000000; stroke-opacity:1; 
stroke-linecap:round; stroke-linejoin:round;">
<text x="116708333.000000" y="54307500.000000"
textLength="1195000.000000" font-size="666666.000000" lengthAdjust="spacingAndGlyphs"
text-anchor="middle" opacity="0">H3</text>
<g class="stroked-text"><desc>H3</desc>
<path d="M116327380 54283690
L116327380 53783690
" />
<path d="M116327380 54021785
L116613094 54021785
" />
<path d="M116613094 54283690
L116613094 53783690
" />
<path d="M116803571 53783690
L117113094 53783690
L116946428 53974166
L117017856 53974166
L117065475 53997976
L117089285 54021785
L117113094 54069404
L117113094 54188452
L117089285 54236071
L117065475 54259880
L117017856 54283690
L116874999 54283690
L116827380 54259880
L116803571 54236071
" />
</g><text x="116708333.000000" y="10307500.000000"
textLength="1130000.000000" font-size="666666.000000" lengthAdjust="spacingAndGlyphs"
text-anchor="middle" opacity="0">H2</text>
<g class="stroked-text"><desc>H2</desc>
<path d="M116327380 10283690
L116327380 9783690
" />
<path d="M116327380 10021785
L116613094 10021785
" />
<path d="M116613094 10283690
L116613094 9783690
" />
<path d="M116827380 9831309
L116851190 9807500
L116898809 9783690
L117017856 9783690
L117065475 9807500
L117089285 9831309
L117113094 9878928
L117113094 9926547
L117089285 9997976
L116803571 10283690
L117113094 10283690
" />
</g><text x="62958333.000000" y="11807500.000000"
textLength="1582381.000000" font-size="666666.000000" lengthAdjust="spacingAndGlyphs"
text-anchor="middle" opacity="0">C27</text>
<g class="stroked-text"><desc>C27</desc>
<path d="M62636904 11736071
L62613094 11759880
L62541666 11783690
L62494047 11783690
L62422618 11759880
L62374999 11712261
L62351190 11664642
L62327380 11569404
L62327380 11497976
L62351190 11402738
L62374999 11355119
L62422618 11307500
L62494047 11283690
L62541666 11283690
L62613094 11307500
L62636904 11331309
" />
<path d="M62827380 11331309
L62851190 11307500
L62898809 11283690
L63017856 11283690
L63065475 11307500
L63089285 11331309
L63113094 11378928
L63113094 11426547
L63089285 11497976
L62803571 11783690
L63113094 11783690
" />
<path d="M63279761 11283690
L63613094 11283690
L63398809 11783690
" />
</g><text x="56458333.000000" y="11807500.000000"
textLength="1582381.000000" font-size="666666.000000" lengthAdjust="spacingAndGlyphs"
text-anchor="middle" opacity="0">C29</text>
<g class="stroked-text"><desc>C29</desc>
<path d="M56136904 11736071
L56113094 11759880
L56041666 11783690
L55994047 11783690
L55922618 11759880
L55874999 11712261
L55851190 11664642
L55827380 11569404
L55827380 11497976
L55851190 11402738
L55874999 11355119
L55922618 11307500
L55994047 11283690
L56041666 11283690
L56113094 11307500
L56136904 11331309
" />
<path d="M56327380 11331309
L56351190 11307500
L56398809 11283690
L56517856 11283690
L56565475 11307500
L56589285 11331309
L56613094 11378928
L56613094 11426547
L56589285 11497976
L56303571 11783690
L56613094 11783690
" />
<path d="M56851190 11783690
L56946428 11783690
L56994047 11759880
L57017856 11736071
L57065475 11664642
L57089285 11569404
L57089285 11378928
L57065475 11331309
L57041666 11307500
L56994047 11283690
L56898809 11283690
L56851190 11307500
L56827380 11331309
L56803571 11378928
L56803571 11497976
L56827380 11545595
L56851190 11569404
L56898809 11593214
L56994047 11593214
L57041666 11569404
L57065475 11545595
L57089285 11497976
" />
</g><text x="80708333.000000" y="26057500.000000"
textLength="1582381.000000" font-size="666666.000000" lengthAdjust="spacingAndGlyphs"
text-anchor="middle" opacity="0">R20</text>
<g class="stroked-text"><desc>R20</desc>
<path d="M80386904 26033690
L80220237 25795595
" />
<path d="M80101190 26033690
L80101190 25533690
L80291666 25533690
L80339285 25557500
L80363094 25581309
L80386904 25628928
L80386904 25700357
L80363094 25747976
L80339285 25771785
L80291666 25795595
L80101190 25795595
" />
<path d="M80577380 25581309
L80601190 25557500
L80648809 25533690
L80767856 25533690
L80815475 25557500
L80839285 25581309
L80863094 25628928
L80863094 25676547
L80839285 25747976
L80553571 26033690
L80863094 26033690
" />
<path d="M81172618 25533690
L81220237 25533690
L81267856 25557500
L81291666 25581309
L81315475 25628928
L81339285 25724166
L81339285 25843214
L81315475 25938452
L81291666 25986071
L81267856 26009880
L81220237 26033690
L81172618 26033690
L81124999 26009880
L81101190 25986071
L81077380 25938452
L81053571 25843214
L81053571 25724166
L81077380 25628928
L81101190 25581309
L81124999 25557500
L81172618 25533690
" />
</g><text x="83708333.000000" y="50057500.000000"
textLength="1106190.000000" font-size="666666.000000" lengthAdjust="spacingAndGlyphs"
text-anchor="middle" opacity="0">C6</text>
<g class="stroked-text"><desc>C6</desc>
<path d="M83624999 49986071
L83601190 50009880
L83529761 50033690
L83482142 50033690
L83410713 50009880
L83363094 49962261
L83339285 49914642
L83315475 49819404
L83315475 49747976
L83339285 49652738
L83363094 49605119
L83410713 49557500
L83482142 49533690
L83529761 49533690
L83601190 49557500
L83624999 49581309
" />
<path d="M84053571 49533690
L83958333 49533690
L83910713 49557500
L83886904 49581309
L83839285 49652738
L83815475 49747976
L83815475 49938452
L83839285 49986071
L83863094 50009880
L83910713 50033690
L84005952 50033690
L84053571 50009880
L84077380 49986071
L84101190 49938452
L84101190 49819404
L84077380 49771785
L84053571 49747976
L84005952 49724166
L83910713 49724166
L83863094 49747976
L83839285 49771785
L83815475 49819404
" />
</g><text x="100458333.000000" y="39807500.000000"
textLength="1582381.000000" font-size="666666.000000" lengthAdjust="spacingAndGlyphs"
text-anchor="middle" opacity="0">R23</text>
<g class="stroked-text"><desc>R23</desc>
<path d="M100136904 39783690
L99970237 39545595
" />
<path d="M99851190 39783690
L99851190 39283690
L100041666 39283690
L100089285 39307500
L100113094 39331309
L100136904 39378928
L100136904 39450357
L100113094 39497976
L100089285 39521785
L100041666 39545595
L99851190 39545595
" />
<path d="M100327380 39331309
L100351190 39307500
L100398809 39283690
L100517856 39283690
L100565475 39307500
L100589285 39331309
L100613094 39378928
L100613094 39426547
L100589285 39497976
L100303571 39783690
L100613094 39783690
" />
<path d="M100779761 39283690
L101089285 39283690
L100922618 39474166
L100994047 39474166
L101041666 39497976
L101065475 39521785
L101089285 39569404
L101089285 39688452
L101065475 39736071
L101041666 39759880
L100994047 39783690
L100851190 39783690
L100803571 39759880
L100779761 39736071
" />
</g><text x="105458333.000000" y="55307500.000000"
textLength="987143.000000" font-size="666666.000000" lengthAdjust="spacingAndGlyphs"
text-anchor="middle" opacity="0">J4</text>
<g class="stroked-text"><desc>J4</desc>
<path d="M105291666 54783690
L105291666 55140833
L105267856 55212261
L105220237 55259880
L105148809 55283690
L105101190 55283690
" />
<path d="M105744047 54950357
L105744047 55283690
" />
<path d="M105624999 54759880
L105505952 55117023
L105815475 55117023
" />
</g><text x="70708333.000000" y="31807500.000000"
textLength="1582381.000000" font-size="666666.000000" lengthAdjust="spacingAndGlyphs"
text-anchor="middle" opacity="0">R16</text>
<g class="stroked-text"><desc>R16</desc>
<path d="M70386904 31783690
L70220237 31545595
" />
<path d="M70101190 31783690
L70101190 31283690
L70291666 31283690
L70339285 31307500
L70363094 31331309
L70386904 31378928
L70386904 31450357
L70363094 31497976
L70339285 31521785
L70291666 31545595
L70101190 31545595
" />
<path d="M70863094 31783690
L70577380 31783690
" />
<path d="M70720237 31783690
L70720237 31283690
L70672618 31355119
L70624999 31402738
L70577380 31426547
" />
<path d="M71291666 31283690
L71196428 31283690
L71148809 31307500
L71124999 31331309
L71077380 31402738
L71053571 31497976
L71053571 31688452
L71077380 31736071
L71101190 31759880
L71148809 31783690
L71244047 31783690
L71291666 31759880
L71315475 31736071
L71339285 31688452
L71339285 31569404
L71315475 31521785
L71291666 31497976
L71244047 31474166
L71148809 31474166
L71101190 31497976
L71077380 31521785
L71053571 31569404
" />
</g><text x="66708333.000000" y="47307500.000000"
textLength="1582381.000000" font-size="666666.000000" lengthAdjust="spacingAndGlyphs"
text-anchor="middle" opacity="0">C18</text>
<g class="stroked-text"><desc>C18</desc>
<path d="M66386904 47236071
L66363094 47259880
L66291666 47283690
L66244047 47283690
L66172618 47259880
L66124999 47212261
L66101190 47164642
L66077380 47069404
L66077380 46997976
L66101190 46902738
L66124999 46855119
L66172618 46807500
L66244047 46783690
L66291666 46783690
L66363094 46807500
L66386904 46831309
" />
<path d="M66863094 47283690
L66577380 47283690
" />
<path d="M66720237 47283690
L66720237 46783690
L66672618 46855119
L66624999 46902738
L66577380 46926547
" />
<path d="M67148809 46997976
L67101190 46974166
L67077380 46950357
L67053571 46902738
L67053571 46878928
L67077380 46831309
L67101190 46807500
L67148809 46783690
L67244047 46783690
L67291666 46807500
L67315475 46831309
L67339285 46878928
L67339285 46902738
L67315475 46950357
L67291666 46974166
L67244047 46997976
L67148809 46997976
L67101190 47021785
L67077380 47045595
L67053571 47093214
L67053571 47188452
L67077380 47236071
L67101190 47259880
L67148809 47283690
L67244047 47283690
L67291666 47259880
L67315475 47236071
L67339285 47188452
L67339285 47093214
L67315475 47045595
L67291666 47021785
L67244047 46997976
" />
</g><text x="90708333.000000" y="29307500.000000"
textLength="1034762.000000" font-size="666666.000000" lengthAdjust="spacingAndGlyphs"
text-anchor="middle" opacity="0">Y1</text>
<g class="stroked-text"><desc>Y1</desc>
<path d="M90470237 29045595
L90470237 29283690
" />
<path d="M90303571 28783690
L90470237 29045595
L90636904 28783690
" />
<path d="M91065475 29283690
L90779761 29283690
" />
<path d="M90922618 29283690
L90922618 28783690
L90874999 28855119
L90827380 28902738
L90779761 28926547
" />
</g><text x="75708333.000000" y="27307500.000000"
textLength="1130000.000000" font-size="666666.000000" lengthAdjust="spacingAndGlyphs"
text-anchor="middle" opacity="0">U4</text>
<g class="stroked-text"><desc>U4</desc>
<path d="M75327380 26783690
L75327380 27188452
L75351190 27236071
L75374999 27259880
L75422618 27283690
L75517856 27283690
L75565475 27259880
L75589285 27236071
L75613094 27188452
L75613094 26783690
" />
<path d="M76065475 26950357
L76065475 27283690
" />
<path d="M75946428 26759880
L75827380 27117023
L76136904 27117023
" />
</g><text x="99208333.000000" y="22807500.000000"
textLength="1130000.000000" font-size="666666.000000" lengthAdjust="spacingAndGlyphs"
text-anchor="middle" opacity="0">U2</text>
<g class="stroked-text"><desc>U2</desc>
<path d="M98827380 22283690
L98827380 22688452
L98851190 22736071
L98874999 22759880
L98922618 22783690
L99017856 22783690
L99065475 22759880
L99089285 22736071
L99113094 22688452
L99113094 22283690
" />
<path d="M99327380 22331309
L99351190 22307500
L99398809 22283690
L99517856 22283690
L99565475 22307500
L99589285 22331309
L99613094 22378928
L99613094 22426547
L99589285 22497976
L99303571 22783690
L99613094 22783690
" />
</g><text x="57458333.000000" y="17057500.000000"
textLength="1582381.000000" font-size="666666.000000" lengthAdjust="spacingAndGlyphs"
text-anchor="middle" opacity="0">C28</text>
<g class="stroked-text"><desc>C28</desc>
<path d="M57136904 16986071
L57113094 17009880
L57041666 17033690
L56994047 17033690
L56922618 17009880
L56874999 16962261
L56851190 16914642
L56827380 16819404
L56827380 16747976
L56851190 16652738
L56874999 16605119
L56922618 16557500
L56994047 16533690
L57041666 16533690
L57113094 16557500
L57136904 16581309
" />
<path d="M57327380 16581309
L57351190 16557500
L57398809 16533690
L57517856 16533690
L57565475 16557500
L57589285 16581309
L57613094 16628928
L57613094 16676547
L57589285 16747976
L57303571 17033690
L57613094 17033690
" />
<path d="M57898809 16747976
L57851190 16724166
L57827380 16700357
L57803571 16652738
L57803571 16628928
L57827380 16581309
L57851190 16557500
L57898809 16533690
L57994047 16533690
L58041666 16557500
L58065475 16581309
L58089285 16628928
L58089285 16652738
L58065475 16700357
L58041666 16724166
L57994047 16747976
L57898809 16747976
L57851190 16771785
L57827380 16795595
L57803571 16843214
L57803571 16938452
L57827380 16986071
L57851190 17009880
L57898809 17033690
L57994047 17033690
L58041666 17009880
L58065475 16986071
L58089285 16938452
L58089285 16843214
L58065475 16795595
L58041666 16771785
L57994047 16747976
" />
</g><text x="94458333.000000" y="40307500.000000"
textLength="1130000.000000" font-size="666666.000000" lengthAdjust="spacingAndGlyphs"
text-anchor="middle" opacity="0">Q2</text>
<g class="stroked-text"><desc>Q2</desc>
<path d="M94410713 40331309
L94363094 40307500
L94315475 40259880
L94244047 40188452
L94196428 40164642
L94148809 40164642
" />
<path d="M94172618 40283690
L94124999 40259880
L94077380 40212261
L94053571 40117023
L94053571 39950357
L94077380 39855119
L94124999 39807500
L94172618 39783690
L94267856 39783690
L94315475 39807500
L94363094 39855119
L94386904 39950357
L94386904 40117023
L94363094 40212261
L94315475 40259880
L94267856 40283690
L94172618 40283690
" />
<path d="M94577380 39831309
L94601190 39807500
L94648809 39783690
L94767856 39783690
L94815475 39807500
L94839285 39831309
L94863094 39878928
L94863094 39926547
L94839285 39997976
L94553571 40283690
L94863094 40283690
" />
</g><text x="93708333.000000" y="50057500.000000"
textLength="1106190.000000" font-size="666666.000000" lengthAdjust="spacingAndGlyphs"
text-anchor="middle" opacity="0">C4</text>
<g class="stroked-text"><desc>C4</desc>
<path d="M93624999 49986071
L93601190 50009880
L93529761 50033690
L93482142 50033690
L93410713 50009880
L93363094 49962261
L93339285 49914642
L93315475 49819404
L93315475 49747976
L93339285 49652738
L93363094 49605119
L93410713 49557500
L93482142 49533690
L93529761 49533690
L93601190 49557500
L93624999 49581309
" />
<path d="M94053571 49700357
L94053571 50033690
" />
<path d="M93934523 49509880
L93815475 49867023
L94124999 49867023
" />
</g></g>
<g style="fill:#008484; fill-opacity:0.0; 
stroke:#008484; stroke-width:150000.000000; stroke-opacity:1; 
stroke-linecap:round; stroke-linejoin:round;">
<text x="98708333.000000" y="10557500.000000"
textLength="2272857.000000" font-size="1333333.000000" lengthAdjust="spacingAndGlyphs"
text-anchor="middle" opacity="0">DW</text>
<g class="stroked-text"><desc>DW</desc>
<path d="M97874999 10509880
L97874999 9509880
L98113094 9509880
L98255952 9557500
L98351190 9652738
L98398809 9747976
L98446428 9938452
L98446428 10081309
L98398809 10271785
L98351190 10367023
L98255952 10462261
L98113094 10509880
L97874999 10509880
" />
<path d="M98779761 9509880
L99017856 10509880
L99208333 9795595
L99398809 10509880
L99636904 9509880
" />
</g></g>
<g style="fill:#008484; fill-opacity:0.0; 
stroke:#008484; stroke-width:100000.000000; stroke-opacity:1; 
stroke-linecap:round; stroke-linejoin:round;">
<text x="117708333.000000" y="34557500.000000"
textLength="1171190.000000" font-size="666666.000000" lengthAdjust="spacingAndGlyphs"
text-anchor="middle" opacity="0">D4</text>
<g class="stroked-text"><desc>D4</desc>
<path d="M117339285 34533690
L117339285 34033690
L117458333 34033690
L117529761 34057500
L117577380 34105119
L117601190 34152738
L117624999 34247976
L117624999 34319404
L117601190 34414642
L117577380 34462261
L117529761 34509880
L117458333 34533690
L117339285 34533690
" />
<path d="M118053571 34200357
L118053571 34533690
" />
<path d="M117934523 34009880
L117815475 34367023
L118124999 34367023
" />
</g><text x="109958333.000000" y="34307500.000000"
textLength="1582381.000000" font-size="666666.000000" lengthAdjust="spacingAndGlyphs"
text-anchor="middle" opacity="0">R21</text>
<g class="stroked-text"><desc>R21</desc>
<path d="M109636904 34283690
L109470237 34045595
" />
<path d="M109351190 34283690
L109351190 33783690
L109541666 33783690
L109589285 33807500
L109613094 33831309
L109636904 33878928
L109636904 33950357
L109613094 33997976
L109589285 34021785
L109541666 34045595
L109351190 34045595
" />
<path d="M109827380 33831309
L109851190 33807500
L109898809 33783690
L110017856 33783690
L110065475 33807500
L110089285 33831309
L110113094 33878928
L110113094 33926547
L110089285 33997976
L109803571 34283690
L110113094 34283690
" />
<path d="M110589285 34283690
L110303571 34283690
" />
<path d="M110446428 34283690
L110446428 33783690
L110398809 33855119
L110351190 33902738
L110303571 33926547
" />
</g><text x="63708333.000000" y="43307500.000000"
textLength="1582381.000000" font-size="666666.000000" lengthAdjust="spacingAndGlyphs"
text-anchor="middle" opacity="0">R13</text>
<g class="stroked-text"><desc>R13</desc>
<path d="M63386904 43283690
L63220237 43045595
" />
<path d="M63101190 43283690
L63101190 42783690
L63291666 42783690
L63339285 42807500
L63363094 42831309
L63386904 42878928
L63386904 42950357
L63363094 42997976
L63339285 43021785
L63291666 43045595
L63101190 43045595
" />
<path d="M63863094 43283690
L63577380 43283690
" />
<path d="M63720237 43283690
L63720237 42783690
L63672618 42855119
L63624999 42902738
L63577380 42926547
" />
<path d="M64029761 42783690
L64339285 42783690
L64172618 42974166
L64244047 42974166
L64291666 42997976
L64315475 43021785
L64339285 43069404
L64339285 43188452
L64315475 43236071
L64291666 43259880
L64244047 43283690
L64101190 43283690
L64053571 43259880
L64029761 43236071
" />
</g><text x="68208333.000000" y="10307500.000000"
textLength="1582381.000000" font-size="666666.000000" lengthAdjust="spacingAndGlyphs"
text-anchor="middle" opacity="0">R10</text>
<g class="stroked-text"><desc>R10</desc>
<path d="M67886904 10283690
L67720237 10045595
" />
<path d="M67601190 10283690
L67601190 9783690
L67791666 9783690
L67839285 9807500
L67863094 9831309
L67886904 9878928
L67886904 9950357
L67863094 9997976
L67839285 10021785
L67791666 10045595
L67601190 10045595
" />
<path d="M68363094 10283690
L68077380 10283690
" />
<path d="M68220237 10283690
L68220237 9783690
L68172618 9855119
L68124999 9902738
L68077380 9926547
" />
<path d="M68672618 9783690
L68720237 9783690
L68767856 9807500
L68791666 9831309
L68815475 9878928
L68839285 9974166
L68839285 10093214
L68815475 10188452
L68791666 10236071
L68767856 10259880
L68720237 10283690
L68672618 10283690
L68624999 10259880
L68601190 10236071
L68577380 10188452
L68553571 10093214
L68553571 9974166
L68577380 9878928
L68601190 9831309
L68624999 9807500
L68672618 9783690
" />
</g><text x="93708333.000000" y="46057500.000000"
textLength="1106190.000000" font-size="666666.000000" lengthAdjust="spacingAndGlyphs"
text-anchor="middle" opacity="0">C1</text>
<g class="stroked-text"><desc>C1</desc>
<path d="M93624999 45986071
L93601190 46009880
L93529761 46033690
L93482142 46033690
L93410713 46009880
L93363094 45962261
L93339285 45914642
L93315475 45819404
L93315475 45747976
L93339285 45652738
L93363094 45605119
L93410713 45557500
L93482142 45533690
L93529761 45533690
L93601190 45557500
L93624999 45581309
" />
<path d="M94101190 46033690
L93815475 46033690
" />
<path d="M93958333 46033690
L93958333 45533690
L93910713 45605119
L93863094 45652738
L93815475 45676547
" />
</g><text x="61458333.000000" y="54807500.000000"
textLength="1582381.000000" font-size="666666.000000" lengthAdjust="spacingAndGlyphs"
text-anchor="middle" opacity="0">C20</text>
<g class="stroked-text"><desc>C20</desc>
<path d="M61136904 54736071
L61113094 54759880
L61041666 54783690
L60994047 54783690
L60922618 54759880
L60874999 54712261
L60851190 54664642
L60827380 54569404
L60827380 54497976
L60851190 54402738
L60874999 54355119
L60922618 54307500
L60994047 54283690
L61041666 54283690
L61113094 54307500
L61136904 54331309
" />
<path d="M61327380 54331309
L61351190 54307500
L61398809 54283690
L61517856 54283690
L61565475 54307500
L61589285 54331309
L61613094 54378928
L61613094 54426547
L61589285 54497976
L61303571 54783690
L61613094 54783690
" />
<path d="M61922618 54283690
L61970237 54283690
L62017856 54307500
L62041666 54331309
L62065475 54378928
L62089285 54474166
L62089285 54593214
L62065475 54688452
L62041666 54736071
L62017856 54759880
L61970237 54783690
L61922618 54783690
L61874999 54759880
L61851190 54736071
L61827380 54688452
L61803571 54593214
L61803571 54474166
L61827380 54378928
L61851190 54331309
L61874999 54307500
L61922618 54283690
" />
</g><text x="80458333.000000" y="10307500.000000"
textLength="1106190.000000" font-size="666666.000000" lengthAdjust="spacingAndGlyphs"
text-anchor="middle" opacity="0">R6</text>
<g class="stroked-text"><desc>R6</desc>
<path d="M80374999 10283690
L80208333 10045595
" />
<path d="M80089285 10283690
L80089285 9783690
L80279761 9783690
L80327380 9807500
L80351190 9831309
L80374999 9878928
L80374999 9950357
L80351190 9997976
L80327380 10021785
L80279761 10045595
L80089285 10045595
" />
<path d="M80803571 9783690
L80708333 9783690
L80660713 9807500
L80636904 9831309
L80589285 9902738
L80565475 9997976
L80565475 10188452
L80589285 10236071
L80613094 10259880
L80660713 10283690
L80755952 10283690
L80803571 10259880
L80827380 10236071
L80851190 10188452
L80851190 10069404
L80827380 10021785
L80803571 9997976
L80755952 9974166
L80660713 9974166
L80613094 9997976
L80589285 10021785
L80565475 10069404
" />
</g></g>
<g style="fill:#008484; fill-opacity:0.0; 
stroke:#008484; stroke-width:150000.000000; stroke-opacity:1; 
stroke-linecap:round; stroke-linejoin:round;">
<text x="86708333.000000" y="10557500.000000"
textLength="2177619.000000" font-size="1333333.000000" lengthAdjust="spacingAndGlyphs"
text-anchor="middle" opacity="0">UP</text>
<g class="stroked-text"><desc>UP</desc>
<path d="M85922618 9509880
L85922618 10319404
L85970237 10414642
L86017856 10462261
L86113094 10509880
L86303571 10509880
L86398809 10462261
L86446428 10414642
L86494047 10319404
L86494047 9509880
" />
<path d="M86970237 10509880
L86970237 9509880
L87351190 9509880
L87446428 9557500
L87494047 9605119
L87541666 9700357
L87541666 9843214
L87494047 9938452
L87446428 9986071
L87351190 10033690
L86970237 10033690
" />
</g></g>
<g style="fill:#008484; fill-opacity:0.0; 
stroke:#008484; stroke-width:100000.000000; stroke-opacity:1; 
stroke-linecap:round; stroke-linejoin:round;">
<text x="66708333.000000" y="52307500.000000"
textLength="1647381.000000" font-size="666666.000000" lengthAdjust="spacingAndGlyphs"
text-anchor="middle" opacity="0">R18</text>
<g class="stroked-text"><desc>R18</desc>
<path d="M66386904 52283690
L66220237 52045595
" />
<path d="M66101190 52283690
L66101190 51783690
L66291666 51783690
L66339285 51807500
L66363094 51831309
L66386904 51878928
L66386904 51950357
L66363094 51997976
L66339285 52021785
L66291666 52045595
L66101190 52045595
" />
<path d="M66863094 52283690
L66577380 52283690
" />
<path d="M66720237 52283690
L66720237 51783690
L66672618 51855119
L66624999 51902738
L66577380 51926547
" />
<path d="M67148809 51997976
L67101190 51974166
L67077380 51950357
L67053571 51902738
L67053571 51878928
L67077380 51831309
L67101190 51807500
L67148809 51783690
L67244047 51783690
L67291666 51807500
L67315475 51831309
L67339285 51878928
L67339285 51902738
L67315475 51950357
L67291666 51974166
L67244047 51997976
L67148809 51997976
L67101190 52021785
L67077380 52045595
L67053571 52093214
L67053571 52188452
L67077380 52236071
L67101190 52259880
L67148809 52283690
L67244047 52283690
L67291666 52259880
L67315475 52236071
L67339285 52188452
L67339285 52093214
L67315475 52045595
L67291666 52021785
L67244047 51997976
" />
</g><text x="59708333.000000" y="10807500.000000"
textLength="1130000.000000" font-size="666666.000000" lengthAdjust="spacingAndGlyphs"
text-anchor="middle" opacity="0">U9</text>
<g class="stroked-text"><desc>U9</desc>
<path d="M59327380 10283690
L59327380 10688452
L59351190 10736071
L59374999 10759880
L59422618 10783690
L59517856 10783690
L59565475 10759880
L59589285 10736071
L59613094 10688452
L59613094 10283690
" />
<path d="M59874999 10783690
L59970237 10783690
L60017856 10759880
L60041666 10736071
L60089285 10664642
L60113094 10569404
L60113094 10378928
L60089285 10331309
L60065475 10307500
L60017856 10283690
L59922618 10283690
L59874999 10307500
L59851190 10331309
L59827380 10378928
L59827380 10497976
L59851190 10545595
L59874999 10569404
L59922618 10593214
L60017856 10593214
L60065475 10569404
L60089285 10545595
L60113094 10497976
" />
</g><text x="58708333.000000" y="46807500.000000"
textLength="1106190.000000" font-size="666666.000000" lengthAdjust="spacingAndGlyphs"
text-anchor="middle" opacity="0">C7</text>
<g class="stroked-text"><desc>C7</desc>
<path d="M58624999 46736071
L58601190 46759880
L58529761 46783690
L58482142 46783690
L58410713 46759880
L58363094 46712261
L58339285 46664642
L58315475 46569404
L58315475 46497976
L58339285 46402738
L58363094 46355119
L58410713 46307500
L58482142 46283690
L58529761 46283690
L58601190 46307500
L58624999 46331309
" />
<path d="M58791666 46283690
L59124999 46283690
L58910713 46783690
" />
</g><text x="111958333.000000" y="39057500.000000"
textLength="1582381.000000" font-size="666666.000000" lengthAdjust="spacingAndGlyphs"
text-anchor="middle" opacity="0">C35</text>
<g class="stroked-text"><desc>C35</desc>
<path d="M111636904 38986071
L111613094 39009880
L111541666 39033690
L111494047 39033690
L111422618 39009880
L111374999 38962261
L111351190 38914642
L111327380 38819404
L111327380 38747976
L111351190 38652738
L111374999 38605119
L111422618 38557500
L111494047 38533690
L111541666 38533690
L111613094 38557500
L111636904 38581309
" />
<path d="M111803571 38533690
L112113094 38533690
L111946428 38724166
L112017856 38724166
L112065475 38747976
L112089285 38771785
L112113094 38819404
L112113094 38938452
L112089285 38986071
L112065475 39009880
L112017856 39033690
L111874999 39033690
L111827380 39009880
L111803571 38986071
" />
<path d="M112565475 38533690
L112327380 38533690
L112303571 38771785
L112327380 38747976
L112374999 38724166
L112494047 38724166
L112541666 38747976
L112565475 38771785
L112589285 38819404
L112589285 38938452
L112565475 38986071
L112541666 39009880
L112494047 39033690
L112374999 39033690
L112327380 39009880
L112303571 38986071
" />
</g><text x="39708333.000000" y="11807500.000000"
textLength="1606190.000000" font-size="666666.000000" lengthAdjust="spacingAndGlyphs"
text-anchor="middle" opacity="0">U10</text>
<g class="stroked-text"><desc>U10</desc>
<path d="M39089285 11283690
L39089285 11688452
L39113094 11736071
L39136904 11759880
L39184523 11783690
L39279761 11783690
L39327380 11759880
L39351190 11736071
L39374999 11688452
L39374999 11283690
" />
<path d="M39874999 11783690
L39589285 11783690
" />
<path d="M39732142 11783690
L39732142 11283690
L39684523 11355119
L39636904 11402738
L39589285 11426547
" />
<path d="M40184523 11283690
L40232142 11283690
L40279761 11307500
L40303571 11331309
L40327380 11378928
L40351190 11474166
L40351190 11593214
L40327380 11688452
L40303571 11736071
L40279761 11759880
L40232142 11783690
L40184523 11783690
L40136904 11759880
L40113094 11736071
L40089285 11688452
L40065475 11593214
L40065475 11474166
L40089285 11378928
L40113094 11331309
L40136904 11307500
L40184523 11283690
" />
</g><text x="22708333.000000" y="54307500.000000"
textLength="1130000.000000" font-size="666666.000000" lengthAdjust="spacingAndGlyphs"
text-anchor="middle" opacity="0">H4</text>
<g class="stroked-text"><desc>H4</desc>
<path d="M22327380 54283690
L22327380 53783690
" />
<path d="M22327380 54021785
L22613094 54021785
" />
<path d="M22613094 54283690
L22613094 53783690
" />
<path d="M23065475 53950357
L23065475 54283690
" />
<path d="M22946428 53759880
L22827380 54117023
L23136904 54117023
" />
</g><text x="92458333.000000" y="10307500.000000"
textLength="1106190.000000" font-size="666666.000000" lengthAdjust="spacingAndGlyphs"
text-anchor="middle" opacity="0">R8</text>
<g class="stroked-text"><desc>R8</desc>
<path d="M92374999 10283690
L92208333 10045595
" />
<path d="M92089285 10283690
L92089285 9783690
L92279761 9783690
L92327380 9807500
L92351190 9831309
L92374999 9878928
L92374999 9950357
L92351190 9997976
L92327380 10021785
L92279761 10045595
L92089285 10045595
" />
<path d="M92660713 9997976
L92613094 9974166
L92589285 9950357
L92565475 9902738
L92565475 9878928
L92589285 9831309
L92613094 9807500
L92660713 9783690
L92755952 9783690
L92803571 9807500
L92827380 9831309
L92851190 9878928
L92851190 9902738
L92827380 9950357
L92803571 9974166
L92755952 9997976
L92660713 9997976
L92613094 10021785
L92589285 10045595
L92565475 10093214
L92565475 10188452
L92589285 10236071
L92613094 10259880
L92660713 10283690
L92755952 10283690
L92803571 10259880
L92827380 10236071
L92851190 10188452
L92851190 10093214
L92827380 10045595
L92803571 10021785
L92755952 9997976
" />
</g></g>
<g style="fill:#008484; fill-opacity:0.0; 
stroke:#008484; stroke-width:150000.000000; stroke-opacity:1; 
stroke-linecap:round; stroke-linejoin:round;">
<text x="109708333.000000" y="10557500.000000"
textLength="5653810.000000" font-size="1333333.000000" lengthAdjust="spacingAndGlyphs"
text-anchor="middle" opacity="0">V_I_SEL</text>
<g class="stroked-text"><desc>V_I_SEL</desc>
<path d="M107041666 9509880
L107374999 10509880
L107708333 9509880
" />
<path d="M107803571 10605119
L108565475 10605119
" />
<path d="M108803571 10509880
L108803571 9509880
" />
<path d="M109041666 10605119
L109803571 10605119
" />
<path d="M109994047 10462261
L110136904 10509880
L110374999 10509880
L110470237 10462261
L110517856 10414642
L110565475 10319404
L110565475 10224166
L110517856 10128928
L110470237 10081309
L110374999 10033690
L110184523 9986071
L110089285 9938452
L110041666 9890833
L109994047 9795595
L109994047 9700357
L110041666 9605119
L110089285 9557500
L110184523 9509880
L110422618 9509880
L110565475 9557500
" />
<path d="M110994047 9986071
L111327380 9986071
" />
<path d="M111470237 10509880
L110994047 10509880
L110994047 9509880
L111470237 9509880
" />
<path d="M112374999 10509880
L111898809 10509880
L111898809 9509880
" />
</g></g>
<g style="fill:#008484; fill-opacity:0.0; 
stroke:#008484; stroke-width:100000.000000; stroke-opacity:1; 
stroke-linecap:round; stroke-linejoin:round;">
<text x="99208333.000000" y="18307500.000000"
textLength="1195000.000000" font-size="666666.000000" lengthAdjust="spacingAndGlyphs"
text-anchor="middle" opacity="0">U7</text>
<g class="stroked-text"><desc>U7</desc>
<path d="M98827380 17783690
L98827380 18188452
L98851190 18236071
L98874999 18259880
L98922618 18283690
L99017856 18283690
L99065475 18259880
L99089285 18236071
L99113094 18188452
L99113094 17783690
" />
<path d="M99303571 17783690
L99636904 17783690
L99422618 18283690
" />
</g><text x="67458333.000000" y="24307500.000000"
textLength="1106190.000000" font-size="666666.000000" lengthAdjust="spacingAndGlyphs"
text-anchor="middle" opacity="0">D9</text>
<g class="stroked-text"><desc>D9</desc>
<path d="M67089285 24283690
L67089285 23783690
L67208333 23783690
L67279761 23807500
L67327380 23855119
L67351190 23902738
L67374999 23997976
L67374999 24069404
L67351190 24164642
L67327380 24212261
L67279761 24259880
L67208333 24283690
L67089285 24283690
" />
<path d="M67613094 24283690
L67708333 24283690
L67755952 24259880
L67779761 24236071
L67827380 24164642
L67851190 24069404
L67851190 23878928
L67827380 23831309
L67803571 23807500
L67755952 23783690
L67660713 23783690
L67613094 23807500
L67589285 23831309
L67565475 23878928
L67565475 23997976
L67589285 24045595
L67613094 24069404
L67660713 24093214
L67755952 24093214
L67803571 24069404
L67827380 24045595
L67851190 23997976
" />
</g><text x="67458333.000000" y="26807500.000000"
textLength="1130000.000000" font-size="666666.000000" lengthAdjust="spacingAndGlyphs"
text-anchor="middle" opacity="0">Q3</text>
<g class="stroked-text"><desc>Q3</desc>
<path d="M67410713 26831309
L67363094 26807500
L67315475 26759880
L67244047 26688452
L67196428 26664642
L67148809 26664642
" />
<path d="M67172618 26783690
L67124999 26759880
L67077380 26712261
L67053571 26617023
L67053571 26450357
L67077380 26355119
L67124999 26307500
L67172618 26283690
L67267856 26283690
L67315475 26307500
L67363094 26355119
L67386904 26450357
L67386904 26617023
L67363094 26712261
L67315475 26759880
L67267856 26783690
L67172618 26783690
" />
<path d="M67553571 26283690
L67863094 26283690
L67696428 26474166
L67767856 26474166
L67815475 26497976
L67839285 26521785
L67863094 26569404
L67863094 26688452
L67839285 26736071
L67815475 26759880
L67767856 26783690
L67624999 26783690
L67577380 26759880
L67553571 26736071
" />
</g><text x="116958333.000000" y="29307500.000000"
textLength="987143.000000" font-size="666666.000000" lengthAdjust="spacingAndGlyphs"
text-anchor="middle" opacity="0">J5</text>
<g class="stroked-text"><desc>J5</desc>
<path d="M116791666 28783690
L116791666 29140833
L116767856 29212261
L116720237 29259880
L116648809 29283690
L116601190 29283690
" />
<path d="M117267856 28783690
L117029761 28783690
L117005952 29021785
L117029761 28997976
L117077380 28974166
L117196428 28974166
L117244047 28997976
L117267856 29021785
L117291666 29069404
L117291666 29188452
L117267856 29236071
L117244047 29259880
L117196428 29283690
L117077380 29283690
L117029761 29259880
L117005952 29236071
" />
</g><text x="22708333.000000" y="10307500.000000"
textLength="1130000.000000" font-size="666666.000000" lengthAdjust="spacingAndGlyphs"
text-anchor="middle" opacity="0">H1</text>
<g class="stroked-text"><desc>H1</desc>
<path d="M22327380 10283690
L22327380 9783690
" />
<path d="M22327380 10021785
L22613094 10021785
" />
<path d="M22613094 10283690
L22613094 9783690
" />
<path d="M23113094 10283690
L22827380 10283690
" />
<path d="M22970237 10283690
L22970237 9783690
L22922618 9855119
L22874999 9902738
L22827380 9926547
" />
</g><text x="100708333.000000" y="51307500.000000"
textLength="1582381.000000" font-size="666666.000000" lengthAdjust="spacingAndGlyphs"
text-anchor="middle" opacity="0">C12</text>
<g class="stroked-text"><desc>C12</desc>
<path d="M100386904 51236071
L100363094 51259880
L100291666 51283690
L100244047 51283690
L100172618 51259880
L100124999 51212261
L100101190 51164642
L100077380 51069404
L100077380 50997976
L100101190 50902738
L100124999 50855119
L100172618 50807500
L100244047 50783690
L100291666 50783690
L100363094 50807500
L100386904 50831309
" />
<path d="M100863094 51283690
L100577380 51283690
" />
<path d="M100720237 51283690
L100720237 50783690
L100672618 50855119
L100624999 50902738
L100577380 50926547
" />
<path d="M101053571 50831309
L101077380 50807500
L101124999 50783690
L101244047 50783690
L101291666 50807500
L101315475 50831309
L101339285 50878928
L101339285 50926547
L101315475 50997976
L101029761 51283690
L101339285 51283690
" />
</g><text x="80708333.000000" y="33557500.000000"
textLength="1582381.000000" font-size="666666.000000" lengthAdjust="spacingAndGlyphs"
text-anchor="middle" opacity="0">R19</text>
<g class="stroked-text"><desc>R19</desc>
<path d="M80386904 33533690
L80220237 33295595
" />
<path d="M80101190 33533690
L80101190 33033690
L80291666 33033690
L80339285 33057500
L80363094 33081309
L80386904 33128928
L80386904 33200357
L80363094 33247976
L80339285 33271785
L80291666 33295595
L80101190 33295595
" />
<path d="M80863094 33533690
L80577380 33533690
" />
<path d="M80720237 33533690
L80720237 33033690
L80672618 33105119
L80624999 33152738
L80577380 33176547
" />
<path d="M81101190 33533690
L81196428 33533690
L81244047 33509880
L81267856 33486071
L81315475 33414642
L81339285 33319404
L81339285 33128928
L81315475 33081309
L81291666 33057500
L81244047 33033690
L81148809 33033690
L81101190 33057500
L81077380 33081309
L81053571 33128928
L81053571 33247976
L81077380 33295595
L81101190 33319404
L81148809 33343214
L81244047 33343214
L81291666 33319404
L81315475 33295595
L81339285 33247976
" />
</g><text x="74958333.000000" y="39557500.000000"
textLength="1010952.000000" font-size="666666.000000" lengthAdjust="spacingAndGlyphs"
text-anchor="middle" opacity="0">L1</text>
<g class="stroked-text"><desc>L1</desc>
<path d="M74874999 39533690
L74636904 39533690
L74636904 39033690
" />
<path d="M75303571 39533690
L75017856 39533690
" />
<path d="M75160713 39533690
L75160713 39033690
L75113094 39105119
L75065475 39152738
L75017856 39176547
" />
</g><text x="113958333.000000" y="34557500.000000"
textLength="1034762.000000" font-size="666666.000000" lengthAdjust="spacingAndGlyphs"
text-anchor="middle" opacity="0">F1</text>
<g class="stroked-text"><desc>F1</desc>
<path d="M113791666 34271785
L113624999 34271785
" />
<path d="M113624999 34533690
L113624999 34033690
L113863094 34033690
" />
<path d="M114315475 34533690
L114029761 34533690
" />
<path d="M114172618 34533690
L114172618 34033690
L114124999 34105119
L114077380 34152738
L114029761 34176547
" />
</g><text x="104208333.000000" y="18307500.000000"
textLength="1582381.000000" font-size="666666.000000" lengthAdjust="spacingAndGlyphs"
text-anchor="middle" opacity="0">C25</text>
<g class="stroked-text"><desc>C25</desc>
<path d="M103886904 18236071
L103863094 18259880
L103791666 18283690
L103744047 18283690
L103672618 18259880
L103624999 18212261
L103601190 18164642
L103577380 18069404
L103577380 17997976
L103601190 17902738
L103624999 17855119
L103672618 17807500
L103744047 17783690
L103791666 17783690
L103863094 17807500
L103886904 17831309
" />
<path d="M104077380 17831309
L104101190 17807500
L104148809 17783690
L104267856 17783690
L104315475 17807500
L104339285 17831309
L104363094 17878928
L104363094 17926547
L104339285 17997976
L104053571 18283690
L104363094 18283690
" />
<path d="M104815475 17783690
L104577380 17783690
L104553571 18021785
L104577380 17997976
L104624999 17974166
L104744047 17974166
L104791666 17997976
L104815475 18021785
L104839285 18069404
L104839285 18188452
L104815475 18236071
L104791666 18259880
L104744047 18283690
L104624999 18283690
L104577380 18259880
L104553571 18236071
" />
</g></g>
<g style="fill:#008484; fill-opacity:0.0; 
stroke:#008484; stroke-width:150000.000000; stroke-opacity:1; 
stroke-linecap:round; stroke-linejoin:round;">
<text x="74708333.000000" y="10557500.000000"
textLength="3891905.000000" font-size="1333333.000000" lengthAdjust="spacingAndGlyphs"
text-anchor="middle" opacity="0">O_EN</text>
<g class="stroked-text"><desc>O_EN</desc>
<path d="M73255952 9509880
L73446428 9509880
L73541666 9557500
L73636904 9652738
L73684523 9843214
L73684523 10176547
L73636904 10367023
L73541666 10462261
L73446428 10509880
L73255952 10509880
L73160713 10462261
L73065475 10367023
L73017856 10176547
L73017856 9843214
L73065475 9652738
L73160713 9557500
L73255952 9509880
" />
<path d="M73874999 10605119
L74636904 10605119
" />
<path d="M74874999 9986071
L75208333 9986071
" />
<path d="M75351190 10509880
L74874999 10509880
L74874999 9509880
L75351190 9509880
" />
<path d="M75779761 10509880
L75779761 9509880
L76351190 10509880
L76351190 9509880
" />
</g><text x="109208333.000000" y="18307500.000000"
textLength="2004524.000000" font-size="1333333.000000" lengthAdjust="spacingAndGlyphs"
text-anchor="middle" opacity="0">CL</text>
<g class="stroked-text"><desc>CL</desc>
<path d="M109113094 18164642
L109065475 18212261
L108922618 18259880
L108827380 18259880
L108684523 18212261
L108589285 18117023
L108541666 18021785
L108494047 17831309
L108494047 17688452
L108541666 17497976
L108589285 17402738
L108684523 17307500
L108827380 17259880
L108922618 17259880
L109065475 17307500
L109113094 17355119
" />
<path d="M110017856 18259880
L109541666 18259880
L109541666 17259880
" />
</g></g>
<g style="fill:#008484; fill-opacity:0.0; 
stroke:#008484; stroke-width:100000.000000; stroke-opacity:1; 
stroke-linecap:round; stroke-linejoin:round;">
<text x="106958333.000000" y="34307500.000000"
textLength="1195000.000000" font-size="666666.000000" lengthAdjust="spacingAndGlyphs"
text-anchor="middle" opacity="0">Q1</text>
<g class="stroked-text"><desc>Q1</desc>
<path d="M106910713 34331309
L106863094 34307500
L106815475 34259880
L106744047 34188452
L106696428 34164642
L106648809 34164642
" />
<path d="M106672618 34283690
L106624999 34259880
L106577380 34212261
L106553571 34117023
L106553571 33950357
L106577380 33855119
L106624999 33807500
L106672618 33783690
L106767856 33783690
L106815475 33807500
L106863094 33855119
L106886904 33950357
L106886904 34117023
L106863094 34212261
L106815475 34259880
L106767856 34283690
L106672618 34283690
" />
<path d="M107363094 34283690
L107077380 34283690
" />
<path d="M107220237 34283690
L107220237 33783690
L107172618 33855119
L107124999 33902738
L107077380 33926547
" />
</g><text x="107708333.000000" y="39057500.000000"
textLength="1606190.000000" font-size="666666.000000" lengthAdjust="spacingAndGlyphs"
text-anchor="middle" opacity="0">U11</text>
<g class="stroked-text"><desc>U11</desc>
<path d="M107089285 38533690
L107089285 38938452
L107113094 38986071
L107136904 39009880
L107184523 39033690
L107279761 39033690
L107327380 39009880
L107351190 38986071
L107374999 38938452
L107374999 38533690
" />
<path d="M107874999 39033690
L107589285 39033690
" />
<path d="M107732142 39033690
L107732142 38533690
L107684523 38605119
L107636904 38652738
L107589285 38676547
" />
<path d="M108351190 39033690
L108065475 39033690
" />
<path d="M108208333 39033690
L108208333 38533690
L108160713 38605119
L108113094 38652738
L108065475 38676547
" />
</g><text x="95708333.000000" y="46057500.000000"
textLength="1106190.000000" font-size="666666.000000" lengthAdjust="spacingAndGlyphs"
text-anchor="middle" opacity="0">C5</text>
<g class="stroked-text"><desc>C5</desc>
<path d="M95624999 45986071
L95601190 46009880
L95529761 46033690
L95482142 46033690
L95410713 46009880
L95363094 45962261
L95339285 45914642
L95315475 45819404
L95315475 45747976
L95339285 45652738
L95363094 45605119
L95410713 45557500
L95482142 45533690
L95529761 45533690
L95601190 45557500
L95624999 45581309
" />
<path d="M96077380 45533690
L95839285 45533690
L95815475 45771785
L95839285 45747976
L95886904 45724166
L96005952 45724166
L96053571 45747976
L96077380 45771785
L96101190 45819404
L96101190 45938452
L96077380 45986071
L96053571 46009880
L96005952 46033690
L95886904 46033690
L95839285 46009880
L95815475 45986071
" />
</g><text x="74708333.000000" y="26807500.000000"
textLength="1130000.000000" font-size="666666.000000" lengthAdjust="spacingAndGlyphs"
text-anchor="middle" opacity="0">U6</text>
<g class="stroked-text"><desc>U6</desc>
<path d="M74327380 26283690
L74327380 26688452
L74351190 26736071
L74374999 26759880
L74422618 26783690
L74517856 26783690
L74565475 26759880
L74589285 26736071
L74613094 26688452
L74613094 26283690
" />
<path d="M75065475 26283690
L74970237 26283690
L74922618 26307500
L74898809 26331309
L74851190 26402738
L74827380 26497976
L74827380 26688452
L74851190 26736071
L74874999 26759880
L74922618 26783690
L75017856 26783690
L75065475 26759880
L75089285 26736071
L75113094 26688452
L75113094 26569404
L75089285 26521785
L75065475 26497976
L75017856 26474166
L74922618 26474166
L74874999 26497976
L74851190 26521785
L74827380 26569404
" />
</g><text x="88578333.000000" y="46307500.000000"
textLength="1130000.000000" font-size="666666.000000" lengthAdjust="spacingAndGlyphs"
text-anchor="middle" opacity="0">U3</text>
<g class="stroked-text"><desc>U3</desc>
<path d="M88197380 45783690
L88197380 46188452
L88221190 46236071
L88244999 46259880
L88292618 46283690
L88387856 46283690
L88435475 46259880
L88459285 46236071
L88483094 46188452
L88483094 45783690
" />
<path d="M88673571 45783690
L88983094 45783690
L88816428 45974166
L88887856 45974166
L88935475 45997976
L88959285 46021785
L88983094 46069404
L88983094 46188452
L88959285 46236071
L88935475 46259880
L88887856 46283690
L88744999 46283690
L88697380 46259880
L88673571 46236071
" />
</g><text x="63708333.000000" y="49807500.000000"
textLength="1130000.000000" font-size="666666.000000" lengthAdjust="spacingAndGlyphs"
text-anchor="middle" opacity="0">U5</text>
<g class="stroked-text"><desc>U5</desc>
<path d="M63327380 49283690
L63327380 49688452
L63351190 49736071
L63374999 49759880
L63422618 49783690
L63517856 49783690
L63565475 49759880
L63589285 49736071
L63613094 49688452
L63613094 49283690
" />
<path d="M64089285 49283690
L63851190 49283690
L63827380 49521785
L63851190 49497976
L63898809 49474166
L64017856 49474166
L64065475 49497976
L64089285 49521785
L64113094 49569404
L64113094 49688452
L64089285 49736071
L64065475 49759880
L64017856 49783690
L63898809 49783690
L63851190 49759880
L63827380 49736071
" />
</g><text x="57458333.000000" y="19057500.000000"
textLength="1582381.000000" font-size="666666.000000" lengthAdjust="spacingAndGlyphs"
text-anchor="middle" opacity="0">C30</text>
<g class="stroked-text"><desc>C30</desc>
<path d="M57136904 18986071
L57113094 19009880
L57041666 19033690
L56994047 19033690
L56922618 19009880
L56874999 18962261
L56851190 18914642
L56827380 18819404
L56827380 18747976
L56851190 18652738
L56874999 18605119
L56922618 18557500
L56994047 18533690
L57041666 18533690
L57113094 18557500
L57136904 18581309
" />
<path d="M57303571 18533690
L57613094 18533690
L57446428 18724166
L57517856 18724166
L57565475 18747976
L57589285 18771785
L57613094 18819404
L57613094 18938452
L57589285 18986071
L57565475 19009880
L57517856 19033690
L57374999 19033690
L57327380 19009880
L57303571 18986071
" />
<path d="M57922618 18533690
L57970237 18533690
L58017856 18557500
L58041666 18581309
L58065475 18628928
L58089285 18724166
L58089285 18843214
L58065475 18938452
L58041666 18986071
L58017856 19009880
L57970237 19033690
L57922618 19033690
L57874999 19009880
L57851190 18986071
L57827380 18938452
L57803571 18843214
L57803571 18724166
L57827380 18628928
L57851190 18581309
L57874999 18557500
L57922618 18533690
" />
</g><text x="88208333.000000" y="19807500.000000"
textLength="1130000.000000" font-size="666666.000000" lengthAdjust="spacingAndGlyphs"
text-anchor="middle" opacity="0">U8</text>
<g class="stroked-text"><desc>U8</desc>
<path d="M87827380 19283690
L87827380 19688452
L87851190 19736071
L87874999 19759880
L87922618 19783690
L88017856 19783690
L88065475 19759880
L88089285 19736071
L88113094 19688452
L88113094 19283690
" />
<path d="M88422618 19497976
L88374999 19474166
L88351190 19450357
L88327380 19402738
L88327380 19378928
L88351190 19331309
L88374999 19307500
L88422618 19283690
L88517856 19283690
L88565475 19307500
L88589285 19331309
L88613094 19378928
L88613094 19402738
L88589285 19450357
L88565475 19474166
L88517856 19497976
L88422618 19497976
L88374999 19521785
L88351190 19545595
L88327380 19593214
L88327380 19688452
L88351190 19736071
L88374999 19759880
L88422618 19783690
L88517856 19783690
L88565475 19759880
L88589285 19736071
L88613094 19688452
L88613094 19593214
L88589285 19545595
L88565475 19521785
L88517856 19497976
" />
</g></g>
<g style="fill:#008484; fill-opacity:0.0; 
stroke:#008484; stroke-width:150000.000000; stroke-opacity:1; 
stroke-linecap:round; stroke-linejoin:round;">
<text x="113208333.000000" y="18307500.000000"
textLength="2987143.000000" font-size="1333333.000000" lengthAdjust="spacingAndGlyphs"
text-anchor="middle" opacity="0">OUT</text>
<g class="stroked-text"><desc>OUT</desc>
<path d="M112208333 17259880
L112398809 17259880
L112494047 17307500
L112589285 17402738
L112636904 17593214
L112636904 17926547
L112589285 18117023
L112494047 18212261
L112398809 18259880
L112208333 18259880
L112113094 18212261
L112017856 18117023
L111970237 17926547
L111970237 17593214
L112017856 17402738
L112113094 17307500
L112208333 17259880
" />
<path d="M113065475 17259880
L113065475 18069404
L113113094 18164642
L113160713 18212261
L113255952 18259880
L113446428 18259880
L113541666 18212261
L113589285 18164642
L113636904 18069404
L113636904 17259880
" />
<path d="M113970237 17259880
L114541666 17259880
" />
<path d="M114255952 18259880
L114255952 17259880
" />
</g></g>
<g style="fill:#008484; fill-opacity:0.0; 
stroke:#008484; stroke-width:100000.000000; stroke-opacity:1; 
stroke-linecap:round; stroke-linejoin:round;">
<text x="102958333.000000" y="34307500.000000"
textLength="1195000.000000" font-size="666666.000000" lengthAdjust="spacingAndGlyphs"
text-anchor="middle" opacity="0">U1</text>
<g class="stroked-text"><desc>U1</desc>
<path d="M102577380 33783690
L102577380 34188452
L102601190 34236071
L102624999 34259880
L102672618 34283690
L102767856 34283690
L102815475 34259880
L102839285 34236071
L102863094 34188452
L102863094 33783690
" />
<path d="M103363094 34283690
L103077380 34283690
" />
<path d="M103220237 34283690
L103220237 33783690
L103172618 33855119
L103124999 33902738
L103077380 33926547
" />
</g><text x="100458333.000000" y="41807500.000000"
textLength="1582381.000000" font-size="666666.000000" lengthAdjust="spacingAndGlyphs"
text-anchor="middle" opacity="0">R24</text>
<g class="stroked-text"><desc>R24</desc>
<path d="M100136904 41783690
L99970237 41545595
" />
<path d="M99851190 41783690
L99851190 41283690
L100041666 41283690
L100089285 41307500
L100113094 41331309
L100136904 41378928
L100136904 41450357
L100113094 41497976
L100089285 41521785
L100041666 41545595
L99851190 41545595
" />
<path d="M100327380 41331309
L100351190 41307500
L100398809 41283690
L100517856 41283690
L100565475 41307500
L100589285 41331309
L100613094 41378928
L100613094 41426547
L100589285 41497976
L100303571 41783690
L100613094 41783690
" />
<path d="M101041666 41450357
L101041666 41783690
" />
<path d="M100922618 41259880
L100803571 41617023
L101113094 41617023
" />
</g><text x="103458333.000000" y="10307500.000000"
textLength="1106190.000000" font-size="666666.000000" lengthAdjust="spacingAndGlyphs"
text-anchor="middle" opacity="0">R9</text>
<g class="stroked-text"><desc>R9</desc>
<path d="M103374999 10283690
L103208333 10045595
" />
<path d="M103089285 10283690
L103089285 9783690
L103279761 9783690
L103327380 9807500
L103351190 9831309
L103374999 9878928
L103374999 9950357
L103351190 9997976
L103327380 10021785
L103279761 10045595
L103089285 10045595
" />
<path d="M103613094 10283690
L103708333 10283690
L103755952 10259880
L103779761 10236071
L103827380 10164642
L103851190 10069404
L103851190 9878928
L103827380 9831309
L103803571 9807500
L103755952 9783690
L103660713 9783690
L103613094 9807500
L103589285 9831309
L103565475 9878928
L103565475 9997976
L103589285 10045595
L103613094 10069404
L103660713 10093214
L103755952 10093214
L103803571 10069404
L103827380 10045595
L103851190 9997976
" />
</g><text x="66708333.000000" y="41307500.000000"
textLength="1582381.000000" font-size="666666.000000" lengthAdjust="spacingAndGlyphs"
text-anchor="middle" opacity="0">C16</text>
<g class="stroked-text"><desc>C16</desc>
<path d="M66386904 41236071
L66363094 41259880
L66291666 41283690
L66244047 41283690
L66172618 41259880
L66124999 41212261
L66101190 41164642
L66077380 41069404
L66077380 40997976
L66101190 40902738
L66124999 40855119
L66172618 40807500
L66244047 40783690
L66291666 40783690
L66363094 40807500
L66386904 40831309
" />
<path d="M66863094 41283690
L66577380 41283690
" />
<path d="M66720237 41283690
L66720237 40783690
L66672618 40855119
L66624999 40902738
L66577380 40926547
" />
<path d="M67291666 40783690
L67196428 40783690
L67148809 40807500
L67124999 40831309
L67077380 40902738
L67053571 40997976
L67053571 41188452
L67077380 41236071
L67101190 41259880
L67148809 41283690
L67244047 41283690
L67291666 41259880
L67315475 41236071
L67339285 41188452
L67339285 41069404
L67315475 41021785
L67291666 40997976
L67244047 40974166
L67148809 40974166
L67101190 40997976
L67077380 41021785
L67053571 41069404
" />
</g><text x="97458333.000000" y="40307500.000000"
textLength="1582381.000000" font-size="666666.000000" lengthAdjust="spacingAndGlyphs"
text-anchor="middle" opacity="0">R22</text>
<g class="stroked-text"><desc>R22</desc>
<path d="M97136904 40283690
L96970237 40045595
" />
<path d="M96851190 40283690
L96851190 39783690
L97041666 39783690
L97089285 39807500
L97113094 39831309
L97136904 39878928
L97136904 39950357
L97113094 39997976
L97089285 40021785
L97041666 40045595
L96851190 40045595
" />
<path d="M97327380 39831309
L97351190 39807500
L97398809 39783690
L97517856 39783690
L97565475 39807500
L97589285 39831309
L97613094 39878928
L97613094 39926547
L97589285 39997976
L97303571 40283690
L97613094 40283690
" />
<path d="M97803571 39831309
L97827380 39807500
L97874999 39783690
L97994047 39783690
L98041666 39807500
L98065475 39831309
L98089285 39878928
L98089285 39926547
L98065475 39997976
L97779761 40283690
L98089285 40283690
" />
</g><text x="70708333.000000" y="24307500.000000"
textLength="1582381.000000" font-size="666666.000000" lengthAdjust="spacingAndGlyphs"
text-anchor="middle" opacity="0">R17</text>
<g class="stroked-text"><desc>R17</desc>
<path d="M70386904 24283690
L70220237 24045595
" />
<path d="M70101190 24283690
L70101190 23783690
L70291666 23783690
L70339285 23807500
L70363094 23831309
L70386904 23878928
L70386904 23950357
L70363094 23997976
L70339285 24021785
L70291666 24045595
L70101190 24045595
" />
<path d="M70863094 24283690
L70577380 24283690
" />
<path d="M70720237 24283690
L70720237 23783690
L70672618 23855119
L70624999 23902738
L70577380 23926547
" />
<path d="M71029761 23783690
L71363094 23783690
L71148809 24283690
" />
</g><text x="63708333.000000" y="38307500.000000"
textLength="1106190.000000" font-size="666666.000000" lengthAdjust="spacingAndGlyphs"
text-anchor="middle" opacity="0">D3</text>
<g class="stroked-text"><desc>D3</desc>
<path d="M63339285 38283690
L63339285 37783690
L63458333 37783690
L63529761 37807500
L63577380 37855119
L63601190 37902738
L63624999 37997976
L63624999 38069404
L63601190 38164642
L63577380 38212261
L63529761 38259880
L63458333 38283690
L63339285 38283690
" />
<path d="M63791666 37783690
L64101190 37783690
L63934523 37974166
L64005952 37974166
L64053571 37997976
L64077380 38021785
L64101190 38069404
L64101190 38188452
L64077380 38236071
L64053571 38259880
L64005952 38283690
L63863094 38283690
L63815475 38259880
L63791666 38236071
" />
</g></g>
<g style="fill:#008484; fill-opacity:0.0; 
stroke:#008484; stroke-width:120000.000000; stroke-opacity:1; 
stroke-linecap:round; stroke-linejoin:round;">
<path d="M63668333 13716078
L63668333 13198922
" />
<path d="M62248333 13716078
L62248333 13198922
" />
<path d="M57168333 13816078
L57168333 13298922
" />
<path d="M55748333 13816078
L55748333 13298922
" />
<path d="M81418333 28066078
L81418333 27548922
" />
<path d="M79998333 28066078
L79998333 27548922
" />
<path d="M82868333 52116078
L82868333 51598922
" />
<path d="M84288333 52116078
L84288333 51598922
" />
<path d="M102449755 40267500
L102966911 40267500
" />
<path d="M102449755 38847500
L102966911 38847500
" />
<path d="M104088333 42937500
L114328333 42937500
" />
<path d="M104088333 42937500
L104088333 55677500
" />
<path d="M104088333 55677500
L114328333 55677500
" />
<path d="M104088333 42937500
L104088333 55677500
" />
<path d="M114328333 42937500
L114328333 55677500
" />
<path d="M103708333 45557500
L103708333 42557500
" />
<path d="M103708333 42557500
L106708333 42557500
" />
<path d="M104088333 42937500
L114328333 42937500
" />
<path d="M104088333 55677500
L114328333 55677500
" />
<path d="M114328333 42937500
L114328333 55677500
" />
<path d="M69998333 29298922
L69998333 29816078
" />
<path d="M71418333 29298922
L71418333 29816078
" />
<path d="M65998333 49316078
L65998333 48798922
" />
<path d="M67418333 49316078
L67418333 48798922
" />
<path d="M88708333 32632500
L92708333 32632500
" />
<path d="M88708333 29482500
L88708333 32632500
" />
<path d="M75708333 27447500
L77208333 27447500
" />
<path d="M75708333 30667500
L74208333 30667500
" />
<path d="M75708333 27447500
L74208333 27447500
" />
<path d="M75708333 30667500
L78633333 30667500
" />
</g>
<g style="fill:#008484; fill-opacity:0.0; 
stroke:#008484; stroke-width:150000.000000; stroke-opacity:1; 
stroke-linecap:round; stroke-linejoin:round;">
<path d="M95583333 31682500
L95583333 31357500
" />
<path d="M102833333 24432500
L102508333 24432500
" />
<path d="M102833333 31682500
L102833333 31357500
" />
<path d="M95583333 24432500
L95908333 24432500
" />
<path d="M95583333 24432500
L95583333 24657500
" />
<path d="M102833333 31682500
L102508333 31682500
" />
<path d="M95583333 31682500
L95908333 31682500
" />
<path d="M95583333 24657500
L94158333 24657500
" />
<path d="M102833333 24432500
L102833333 24757500
" />
</g>
<g style="fill:#008484; fill-opacity:0.0; 
stroke:#008484; stroke-width:120000.000000; stroke-opacity:1; 
stroke-linecap:round; stroke-linejoin:round;">
<path d="M55366911 17367500
L54849755 17367500
" />
<path d="M55366911 15947500
L54849755 15947500
" />
<path d="M93568333 40477500
L95028333 40477500
" />
<path d="M93568333 43637500
L95728333 43637500
" />
<path d="M93568333 43637500
L93568333 42707500
" />
<path d="M93568333 40477500
L93568333 41407500
" />
<path d="M92868333 52116078
L92868333 51598922
" />
<path d="M94288333 52116078
L94288333 51598922
" />
<path d="M97008333 16357500
L97458333 16807500
" />
<path d="M97458333 16807500
L99958333 16807500
" />
<path d="M95958333 13057500
L95958333 15057500
" />
<path d="M100408333 11757500
L99958333 11307500
" />
<path d="M97008333 11757500
L97458333 11307500
" />
<path d="M100408333 16357500
L99958333 16807500
" />
<path d="M97458333 11307500
L99958333 11307500
" />
<path d="M101458333 13057500
L101458333 15057500
" />
<path d="M116208333 34707500
L116208333 36407500
" />
<path d="M116208333 34707500
L118758333 34707500
" />
<path d="M116208333 36407500
L118758333 36407500
" />
<path d="M109248333 35798922
L109248333 36316078
" />
<path d="M110668333 35798922
L110668333 36316078
" />
<path d="M63347081 48667500
L64069585 48667500
" />
<path d="M63347081 43447500
L64069585 43447500
" />
<path d="M70449755 10767500
L70966911 10767500
" />
<path d="M70449755 9347500
L70966911 9347500
" />
<path d="M94288333 47598922
L94288333 48116078
" />
<path d="M92868333 47598922
L92868333 48116078
" />
<path d="M63449755 53847500
L63966911 53847500
" />
<path d="M63449755 55267500
L63966911 55267500
" />
<path d="M82449755 10767500
L82966911 10767500
" />
<path d="M82449755 9347500
L82966911 9347500
" />
<path d="M85008333 16357500
L85458333 16807500
" />
<path d="M85458333 16807500
L87958333 16807500
" />
<path d="M83958333 13057500
L83958333 15057500
" />
<path d="M88408333 11757500
L87958333 11307500
" />
<path d="M85008333 11757500
L85458333 11307500
" />
<path d="M88408333 16357500
L87958333 16807500
" />
<path d="M85458333 11307500
L87958333 11307500
" />
<path d="M89458333 13057500
L89458333 15057500
" />
<path d="M67418333 54316078
L67418333 53798922
" />
<path d="M65998333 54316078
L65998333 53798922
" />
<path d="M58608333 10957500
L60808333 10957500
" />
<path d="M58608333 13157500
L61608333 13157500
" />
<path d="M60403896 53317500
L61468333 52253063
" />
<path d="M57012770 53317500
L55948333 52253063
" />
<path d="M61468333 52253063
L61468333 47797500
" />
<path d="M60403896 53317500
L59768333 53317500
" />
<path d="M57012770 53317500
L57648333 53317500
" />
<path d="M55948333 52253063
L55948333 47797500
" />
<path d="M55948333 47797500
L57648333 47797500
" />
<path d="M61468333 47797500
L59768333 47797500
" />
<path d="M112668333 41066078
L112668333 40548922
" />
<path d="M111248333 41066078
L111248333 40548922
" />
<path d="M28508333 7557596
L50908333 7557596
" />
<path d="M28508333 29057500
L28508333 7557500
" />
<path d="M50908333 7557500
L50908333 29057500
" />
<path d="M94449755 10767500
L94966911 10767500
" />
<path d="M94449755 9347500
L94966911 9347500
" />
<path d="M108008333 16357500
L108458333 16807500
" />
<path d="M108458333 16807500
L110958333 16807500
" />
<path d="M106958333 13057500
L106958333 15057500
" />
<path d="M111408333 11757500
L110958333 11307500
" />
<path d="M108008333 11757500
L108458333 11307500
" />
<path d="M111408333 16357500
L110958333 16807500
" />
<path d="M108458333 11307500
L110958333 11307500
" />
<path d="M112458333 13057500
L112458333 15057500
" />
</g>
<g style="fill:#008484; fill-opacity:0.0; 
stroke:#008484; stroke-width:150000.000000; stroke-opacity:1; 
stroke-linecap:round; stroke-linejoin:round;">
<path d="M100883333 18382500
L100883333 18682500
" />
<path d="M100883333 21732500
L97533333 21732500
" />
<path d="M97533333 18382500
L97533333 18682500
" />
<path d="M100883333 21507500
L102108333 21507500
" />
<path d="M100883333 21732500
L100883333 21507500
" />
<path d="M100883333 18382500
L97533333 18382500
" />
<path d="M97533333 21732500
L97533333 21432500
" />
</g>
<g style="fill:#008484; fill-opacity:0.0; 
stroke:#008484; stroke-width:120000.000000; stroke-opacity:1; 
stroke-linecap:round; stroke-linejoin:round;">
<path d="M68958333 24457500
L66408333 24457500
" />
<path d="M68958333 26157500
L66408333 26157500
" />
<path d="M68958333 26157500
L68958333 24457500
" />
<path d="M65878333 28817500
L65878333 27357500
" />
<path d="M69038333 28817500
L68108333 28817500
" />
<path d="M65878333 28817500
L66808333 28817500
" />
<path d="M69038333 28817500
L69038333 26657500
" />
<path d="M115308333 33757500
L117308333 33757500
" />
<path d="M119208333 33757500
L121108333 33757500
" />
<path d="M121108333 33757500
L121108333 24357500
" />
<path d="M115308333 24357500
L117308333 24357500
" />
<path d="M119208333 24357500
L121108333 24357500
" />
<path d="M99012770 44297500
L97948333 45361937
" />
<path d="M102403896 44297500
L103468333 45361937
" />
<path d="M97948333 45361937
L97948333 49817500
" />
<path d="M99012770 44297500
L99648333 44297500
" />
<path d="M102403896 44297500
L101768333 44297500
" />
<path d="M103468333 45361937
L103468333 49817500
" />
<path d="M103468333 49817500
L101768333 49817500
" />
<path d="M97948333 49817500
L99648333 49817500
" />
<path d="M81418333 31566078
L81418333 31048922
" />
<path d="M79998333 31566078
L79998333 31048922
" />
<path d="M81608333 51807500
L81608333 49057500
" />
<path d="M68808333 51807500
L68808333 49057500
" />
<path d="M69458333 39657500
L80958333 39657500
" />
<path d="M80958333 52457500
L69458333 52457500
" />
<path d="M81608333 43057500
L81608333 40307500
" />
<path d="M68808333 43057500
L68808333 40307500
" />
<path d="M81608333.000000 40307500.000000 A650000.000000 650000.000000 0.0 0 0 80958333.000000 39657500.000000" />
<path d="M68808333.000000 51807500.000000 A650000.000000 650000.000000 0.0 0 0 69458333.000000 52457500.000000" />
<path d="M80958333.000000 52457500.000000 A650000.000000 650000.000000 0.0 0 0 81608333.000000 51807500.000000" />
<path d="M69458333.000000 39657500.000000 A650000.000000 650000.000000 0.0 0 0 68808333.000000 40307500.000000" />
<path d="M114103364 34847500
L113813302 34847500
" />
<path d="M114103364 36267500
L113813302 36267500
" />
<path d="M104918333 20316078
L104918333 19798922
" />
<path d="M103498333 20316078
L103498333 19798922
" />
<path d="M73008333 16357500
L73458333 16807500
" />
<path d="M73458333 16807500
L75958333 16807500
" />
<path d="M71958333 13057500
L71958333 15057500
" />
<path d="M76408333 11757500
L75958333 11307500
" />
<path d="M73008333 11757500
L73458333 11307500
" />
<path d="M76408333 16357500
L75958333 16807500
" />
<path d="M73458333 11307500
L75958333 11307500
" />
<path d="M77458333 13057500
L77458333 15057500
" />
<path d="M108248333 21742500
L110168333 21742500
" />
<path d="M110168333 21742500
L110168333 19057500
" />
<path d="M108248333 19057500
L108248333 21742500
" />
<path d="M105378333 36817500
L106308333 36817500
" />
<path d="M105378333 36817500
L105378333 35357500
" />
<path d="M108538333 36817500
L108538333 34657500
" />
<path d="M108538333 36817500
L107608333 36817500
" />
<path d="M107708333 39197500
L104783333 39197500
" />
<path d="M107708333 42417500
L106208333 42417500
" />
<path d="M107708333 42417500
L109208333 42417500
" />
<path d="M107708333 39197500
L109208333 39197500
" />
<path d="M96288333 47598922
L96288333 48116078
" />
<path d="M94868333 47598922
L94868333 48116078
" />
<path d="M73808333 26167500
L76258333 26167500
" />
<path d="M75608333 22947500
L73808333 22947500
" />
<path d="M88578333 51617500
L92028333 51617500
" />
<path d="M88578333 51617500
L86628333 51617500
" />
<path d="M88578333 46497500
L86628333 46497500
" />
<path d="M88578333 46497500
L90528333 46497500
" />
<path d="M64608333 49947500
L62808333 49947500
" />
<path d="M62808333 53167500
L65258333 53167500
" />
<path d="M55366911 19367500
L54849755 19367500
" />
<path d="M55366911 17947500
L54849755 17947500
" />
<path d="M89818333 22457500
L89818333 20007500
" />
<path d="M86598333 20657500
L86598333 22457500
" />
<path d="M112248333 21742500
L114168333 21742500
" />
<path d="M114168333 21742500
L114168333 19057500
" />
<path d="M112248333 19057500
L112248333 21742500
" />
<path d="M101348333 35157500
L101348333 37607500
" />
<path d="M104568333 36957500
L104568333 35157500
" />
<path d="M102449755 42267500
L102966911 42267500
" />
<path d="M102449755 40847500
L102966911 40847500
" />
<path d="M105449755 10767500
L105966911 10767500
" />
<path d="M105449755 9347500
L105966911 9347500
" />
<path d="M67418333 42798922
L67418333 43316078
" />
<path d="M65998333 42798922
L65998333 43316078
" />
<path d="M98168333 42316078
L98168333 41798922
" />
<path d="M96748333 42316078
L96748333 41798922
" />
<path d="M69998333 25798922
L69998333 26316078
" />
<path d="M71418333 25798922
L71418333 26316078
" />
<path d="M65218333 41487500
L65218333 39057500
" />
<path d="M63208333 41507500
L62158333 41507500
" />
<path d="M62158333 41507500
L62158333 39657500
" />
<path d="M65208333 41507500
L64208333 41507500
" />
<g >
</g>
<g >
</g>
<g >
</g>
<g >
</g>
<g >
</g>
<g >
</g>
<g >
</g>
<g >
</g>
<g >
</g>
<g >
</g>
<g >
</g>
<g >
</g>
<g >
</g>
<g >
</g>
<g >
</g>
<g >
</g>
<g >
</g>
<g >
</g>
<g >
</g>
<g >
</g>
<g >
</g>
<g >
</g>
<g >
</g>
<g >
</g>
<g >
</g>
<g >
</g>
<g >
</g>
<g >
</g>
<g >
</g>
<g >
</g>
<g >
</g>
<g >
</g>
<g >
</g>
<g >
</g>
<g >
</g>
<g >
</g>
<g >
</g>
<g >
</g>
<g >
</g>
<g >
</g>
<g >
</g>
<g >
</g>
<g >
</g>
<g >
</g>
<g >
</g>
<g >
</g>
<g >
</g>
<g >
</g>
<g >
</g>
<g >
</g>
<g >
</g>
<g >
</g>
<g >
</g>
<g >
</g>
<g >
</g>
<g >
</g>
<g >
</g>
<g >
</g>
<g >
</g>
<g >
</g>
<g >
</g>
<g >
</g>
<g >
</g>
<g >
</g>
<g >
</g>
<g >
</g>
<g >
</g>
<g >
</g>
<g >
</g>
<g >
</g>
<g >
</g>
<g >
</g>
<g >
</g>
<g >
</g>
<g >
</g>
<g >
</g>
<g >
</g>
<g >
</g>
<g >
</g>
<g >
</g>
<g >
</g>
<g >
</g>
<g >
</g>
<g >
</g>
<g >
</g>
<g >
</g>
<g >
</g>
<g >
</g>
<g >
</g>
<g >
</g>
<g >
</g>
<g >
</g>
<g >
</g>
<g >
</g>
<g >
</g>
<g >
</g>
<g >
</g>
<g >
</g>
<g >
</g>
<g >
</g>
<g >
</g>
<g >
</g>
<g >
</g>
<g >
</g>
<g >
</g>
<g >
</g>
<g >
</g>
<g >
</g>
<g >
</g>
</g>
<g style="fill:#000000; fill-opacity:0.0; 
stroke:#000000; stroke-width:120000.000000; stroke-opacity:1; 
stroke-linecap:round; stroke-linejoin:round;">
</g>
<g style="fill:#C2C200; fill-opacity:0.0; 
stroke:#C2C200; stroke-width:120000.000000; stroke-opacity:1; 
stroke-linecap:round; stroke-linejoin:round;">
</g>
<g style="fill:#C2C200; fill-opacity:0.0; 
stroke:#C2C200; stroke-width:100000.000000; stroke-opacity:1; 
stroke-linecap:round; stroke-linejoin:round;">
<path d="M118708333 49057500
L118708333 44557500
" />
<path d="M114708333.000000 49057500.000000 A2000000.000000 2000000.000000 0.0 0 0 118708333.000000 49057500.000000" />
<path d="M119708333 9057500
L119708333 55057500
" />
<path d="M19708333 55057500
L19708333 9057500
" />
<path d="M21708333.000000 7057500.000000 A2000000.000000 2000000.000000 0.0 0 0 19708333.000000 9057500.000000" />
<path d="M118708333.000000 44557500.000000 A2000000.000000 2000000.000000 0.0 0 0 114708333.000000 44557500.000000" />
<path d="M119708333.000000 9057500.000000 A2000000.000000 2000000.000000 0.0 0 0 117708333.000000 7057500.000000" />
<path d="M21708333 7057500
L117708333 7057500
" />
<path d="M114708333 44557500
L114708333 49057500
" />
<path d="M19708333.000000 55057500.000000 A2000000.000000 2000000.000000 0.0 0 0 21708333.000000 57057500.000000" />
<path d="M117708333 57057500
L21708333 57057500
" />
<path d="M117708333.000000 57057500.000000 A2000000.000000 2000000.000000 0.0 0 0 119708333.000000 55057500.000000" />
<g >
</g>
<g >
</g>
<g >
</g>
<g >
</g>
<g >
</g>
<g >
</g>
<g >
</g>
<g >
</g>
<g >
</g>
<g >
</g>
<g >
</g>
<g >
</g>
<g >
</g>
<g >
</g>
<g >
</g>
<g >
</g>
<g >
</g>
<g >
</g>
<g >
</g>
<g >
</g>
<g >
</g>
<g >
</g>
<g >
</g>
<g >
</g>
<g >
</g>
<g >
</g>
<g >
</g>
<g >
</g>
<g >
</g>
<g >
</g>
<g >
</g>
<g >
</g>
<g >
</g>
<g >
</g>
<g >
</g>
<g >
</g>
<g >
</g>
<g >
</g>
<g >
</g>
<g >
</g>
<g >
</g>
<g >
</g>
<g >
</g>
<g >
</g>
<g >
</g>
<g >
</g>
<g >
</g>
<g >
</g>
<g >
</g>
<g >
</g>
<g >
</g>
<g >
</g>
<g >
</g>
<g >
</g>
<g >
</g>
<g >
</g>
<g >
</g>
<g >
</g>
<g >
</g>
<g >
</g>
<g >
</g>
<g >
</g>
<g >
</g>
<g >
</g>
<g >
</g>
<g >
</g>
<g >
</g>
<g >
</g>
<g >
</g>
<g >
</g>
<g >
</g>
<g >
</g>
<g >
</g>
<g >
</g>
<g >
</g>
<g >
</g>
<g >
</g>
<g >
</g>
<g >
</g>
<g >
</g>
<g >
</g>
<g >
</g>
<g >
</g>
<g >
</g>
<g >
</g>
<g >
</g>
<g >
</g>
<g >
</g>
<g >
</g>
<g >
</g>
<g >
</g>
<g >
</g>
<g >
</g>
<g >
</g>
<g >
</g>
<g >
</g>
<g >
</g>
<g >
</g>
<g >
</g>
<g >
</g>
<g >
</g>
<g >
</g>
<g >
</g>
<g >
</g>
<g >
</g>
<g >
</g>
<g >
</g>
<g >
</g>
<g >
</g>
</g> 
</svg>
