M48
; DRILL file {KiCad (5.99.0-2619-gb519867d9)} date Sunday, August 09, 2020 at 10:36:08 PM
; FORMAT={-:-/ absolute / inch / decimal}
; #@! TF.CreationDate,2020-08-09T22:36:08+05:30
; #@! TF.GenerationSoftware,Kicad,Pcbnew,(5.99.0-2619-gb519867d9)
; #@! TF.FileFunction,Plated,1,2,PTH
FMAT,2
INCH
T1C0.0138
T2C0.0276
T3C0.0394
T4C0.0591
T5C0.0866
T6C0.1378
%
G90
G05
T1
X0.5118Y-0.7087
X0.5118Y-0.7874
X0.5118Y-0.8661
X0.5118Y-0.9449
X0.5118Y-1.0236
X0.5118Y-1.1024
X0.5118Y-1.1811
X0.5118Y-1.2598
X0.5118Y-1.3386
X0.5118Y-1.4173
X0.5118Y-1.4961
X0.5118Y-1.5748
X0.5118Y-1.6535
X0.5118Y-1.7323
X0.5118Y-1.811
X0.5118Y-1.8898
X0.5118Y-1.9685
X0.5118Y-2.0472
X0.5118Y-2.126
X0.5118Y-2.2047
X0.7087Y-0.5118
X0.7087Y-2.4016
X0.7874Y-0.5118
X0.7874Y-1.811
X0.7874Y-1.8898
X0.7874Y-1.9685
X0.7874Y-2.0472
X0.7874Y-2.126
X0.7874Y-2.2047
X0.7874Y-2.2835
X0.7874Y-2.4016
X0.8268Y-1.7717
X0.8268Y-1.8504
X0.8268Y-1.9291
X0.8268Y-2.0079
X0.8268Y-2.0866
X0.8268Y-2.1654
X0.8268Y-2.2441
X0.8661Y-0.5118
X0.8661Y-1.811
X0.8661Y-1.8898
X0.8661Y-1.9685
X0.8661Y-2.0472
X0.8661Y-2.126
X0.8661Y-2.2047
X0.8661Y-2.2835
X0.8661Y-2.4016
X0.9055Y-1.7717
X0.9055Y-1.8504
X0.9055Y-1.9291
X0.9055Y-2.0079
X0.9055Y-2.0866
X0.9055Y-2.1654
X0.9055Y-2.2441
X0.9449Y-0.5118
X0.9449Y-1.811
X0.9449Y-1.8898
X0.9449Y-1.9685
X0.9449Y-2.0472
X0.9449Y-2.126
X0.9449Y-2.2047
X0.9449Y-2.2835
X0.9449Y-2.4016
X1.0236Y-0.5118
X1.0236Y-2.4016
X1.1024Y-0.5118
X1.1024Y-2.4016
X1.1811Y-0.5118
X1.1811Y-2.4016
X1.2598Y-0.5118
X1.2598Y-2.4016
X1.3386Y-0.5118
X1.3386Y-2.4016
X1.4173Y-0.5118
X1.4173Y-2.4016
X1.4961Y-0.5118
X1.4961Y-2.4016
X1.5748Y-0.5118
X1.5748Y-1.811
X1.5748Y-1.8898
X1.5748Y-1.9685
X1.5748Y-2.0472
X1.5748Y-2.126
X1.5748Y-2.2047
X1.5748Y-2.2835
X1.5748Y-2.4016
X1.6142Y-1.7717
X1.6142Y-1.8504
X1.6142Y-1.9291
X1.6142Y-2.0079
X1.6142Y-2.0866
X1.6142Y-2.1654
X1.6142Y-2.2441
X1.6535Y-0.5118
X1.6535Y-1.811
X1.6535Y-1.8898
X1.6535Y-1.9685
X1.6535Y-2.0472
X1.6535Y-2.126
X1.6535Y-2.2047
X1.6535Y-2.2835
X1.6535Y-2.4016
X1.6929Y-1.7717
X1.6929Y-1.8504
X1.6929Y-1.9291
X1.6929Y-2.0079
X1.6929Y-2.0866
X1.6929Y-2.1654
X1.6929Y-2.2441
X1.7323Y-0.5118
X1.7323Y-1.811
X1.7323Y-1.8898
X1.7323Y-1.9685
X1.7323Y-2.0472
X1.7323Y-2.126
X1.7323Y-2.2047
X1.7323Y-2.2835
X1.7323Y-2.4016
X1.811Y-0.5118
X1.811Y-2.4016
X1.8898Y-0.5118
X1.8898Y-2.4016
X1.9685Y-0.5118
X1.9685Y-2.4016
X2.0472Y-0.5118
X2.0472Y-2.4016
X2.126Y-0.5118
X2.126Y-2.4016
X2.1535Y-2.0591
X2.2047Y-0.5118
X2.2047Y-2.4016
X2.2835Y-2.4016
X2.3622Y-2.4016
X2.4409Y-2.4016
X2.5197Y-2.4016
X2.5787Y-1.5787
X2.5984Y-2.4016
X2.6417Y-0.8228
X2.6772Y-2.4016
X2.7559Y-2.4016
X2.8346Y-0.7283
X2.8346Y-1.0236
X2.8346Y-2.4016
X2.9134Y-0.9055
X2.9134Y-2.4016
X2.9528Y-1.063
X2.9528Y-1.2598
X2.9921Y-1.1811
X2.9921Y-2.4016
X3.0669Y-1.2205
X3.0709Y-1.063
X3.0709Y-2.4016
X3.0866Y-1.4409
X3.0906Y-1.4961
X3.0906Y-1.5354
X3.0906Y-1.5748
X3.1142Y-0.8228
X3.1299Y-1.4961
X3.1299Y-1.5354
X3.1299Y-1.5748
X3.1496Y-0.9055
X3.1496Y-1.063
X3.1496Y-2.4016
X3.1575Y-1.2598
X3.2008Y-1.1769
X3.2283Y-2.4016
X3.2323Y-1.1969
X3.248Y-1.752
X3.248Y-1.8504
X3.2795Y-1.2402
X3.2874Y-0.7283
X3.2874Y-1.8307
X3.3071Y-2.4016
X3.3268Y-0.5512
X3.3346Y-1.189
X3.3661Y-1.3386
X3.3661Y-1.5354
X3.3661Y-1.7323
X3.3858Y-0.9055
X3.3858Y-1.063
X3.3858Y-2.4016
X3.4055Y-1.8307
X3.4252Y-1.2205
X3.4252Y-1.4764
X3.4252Y-1.7323
X3.4528Y-1.8583
X3.4528Y-1.7779
X3.4646Y-2.4016
X3.4723Y-1.1931
X3.4882Y-1.1693
X3.5118Y-1.1496
X3.5433Y-2.4016
X3.563Y-0.9055
X3.5866Y-0.8228
X3.622Y-2.4016
X3.6614Y-1.1024
X3.7008Y-2.4016
X3.7402Y-0.9055
X3.7402Y-1.0236
X3.7795Y-0.7283
X3.7795Y-2.4016
X3.8145Y-1.0939
X3.8147Y-1.0653
X3.8275Y-1.122
X3.8292Y-1.2298
X3.8307Y-1.3386
X3.8347Y-1.2008
X3.8354Y-1.0455
X3.8583Y-0.7283
X3.8583Y-2.4016
X3.8858Y-1.0845
X3.8858Y-1.1131
X3.8858Y-1.1614
X3.9141Y-1.0652
X3.937Y-2.4016
X3.9567Y-1.2008
X3.9567Y-1.2402
X3.9961Y-1.2402
X3.9961Y-1.2795
X4.0157Y-1.063
X4.0157Y-2.4016
X4.0197Y-0.8228
X4.0462Y-1.4048
X4.0512Y-1.0197
X4.0551Y-0.5512
X4.0591Y-1.248
X4.0591Y-1.3071
X4.0591Y-1.3386
X4.0591Y-1.378
X4.0906Y-1.252
X4.0945Y-0.5118
X4.0945Y-1.3071
X4.0945Y-1.3386
X4.0945Y-1.3701
X4.0945Y-1.6106
X4.0945Y-2.4016
X4.1339Y-1.0748
X4.1339Y-1.3071
X4.1339Y-1.3386
X4.1339Y-1.3701
X4.1614Y-1.2012
X4.1732Y-0.5118
X4.1732Y-2.4016
X4.185Y-1.0748
X4.2087Y-1.1063
X4.2717Y-1.2087
X4.2717Y-1.4409
X4.3701Y-0.7087
X4.3701Y-0.7874
X4.3701Y-0.8661
X4.3701Y-0.9449
X4.3701Y-1.0236
X4.3701Y-1.1024
X4.3701Y-1.3386
X4.3701Y-1.4173
X4.3701Y-1.4961
X4.3701Y-1.5748
X4.3701Y-1.6535
X4.3701Y-1.7323
X4.3701Y-1.811
X4.3701Y-1.8898
X4.3701Y-2.2047
T2
X3.5011Y-2.01
X3.563Y-1.4075
X3.8287Y-1.4272
T3
X3.8976Y-1.6717
X3.8976Y-1.7717
X3.9976Y-1.6717
X3.9976Y-1.7717
X4.0976Y-1.6717
X4.0976Y-1.7717
X0.8661Y-0.5906
X0.8661Y-0.6906
X0.8661Y-0.7906
X0.8661Y-0.8906
X2.2047Y-0.5906
X2.2047Y-0.6906
X2.2047Y-0.7906
X2.2047Y-0.8906
T4
X3.8976Y-2.126
X4.0945Y-2.126
T5
X4.2913Y-2.3228
X4.2913Y-0.5906
X0.5906Y-2.3228
X0.5906Y-0.5906
T6
X1.6535Y-1.6535
X0.8661Y-1.6535
T0
M30
