%TF.GenerationSoftware,KiCad,Pcbnew,(5.99.0-2619-gb519867d9)*%
%TF.CreationDate,2020-08-09T22:36:05+05:30*%
%TF.ProjectId,Power_Supply,506f7765-725f-4537-9570-706c792e6b69,rev?*%
%TF.SameCoordinates,Original*%
%TF.FileFunction,Copper,L2,Bot*%
%TF.FilePolarity,Positive*%
%FSLAX46Y46*%
G04 Gerber Fmt 4.6, Leading zero omitted, Abs format (unit mm)*
G04 Created by KiCad (PCBNEW (5.99.0-2619-gb519867d9)) date 2020-08-09 22:36:05*
%MOMM*%
%LPD*%
G01*
G04 APERTURE LIST*
%TA.AperFunction,ComponentPad*%
%ADD10C,3.500000*%
%TD*%
%TA.AperFunction,ComponentPad*%
%ADD11R,3.000000X3.000000*%
%TD*%
%TA.AperFunction,ComponentPad*%
%ADD12C,3.000000*%
%TD*%
%TA.AperFunction,ComponentPad*%
%ADD13C,5.000000*%
%TD*%
%TA.AperFunction,ComponentPad*%
%ADD14O,1.700000X1.700000*%
%TD*%
%TA.AperFunction,ViaPad*%
%ADD15C,0.600000*%
%TD*%
%TA.AperFunction,ViaPad*%
%ADD16C,1.000000*%
%TD*%
%TA.AperFunction,Conductor*%
%ADD17C,0.508000*%
%TD*%
%TA.AperFunction,Conductor*%
%ADD18C,0.127000*%
%TD*%
G04 APERTURE END LIST*
D10*
%TO.P,H3,1,1*%
%TO.N,GND*%
X109000000Y-59000000D03*
%TD*%
%TO.P,H2,1,1*%
%TO.N,GND*%
X109000000Y-15000000D03*
%TD*%
D11*
%TO.P,J4,1,Pin_1*%
%TO.N,+VSW*%
X99000000Y-54000000D03*
D12*
%TO.P,J4,2,Pin_2*%
%TO.N,GND*%
X104000000Y-54000000D03*
%TD*%
%TA.AperFunction,SMDPad,CuDef*%
%TO.P,J3,1,Pin_1*%
%TO.N,GND*%
G36*
X23737086Y-39014659D02*
G01*
X23973039Y-39072816D01*
X24196608Y-39168070D01*
X24402002Y-39297953D01*
X24583901Y-39459102D01*
X24737595Y-39647342D01*
X24859103Y-39857799D01*
X24945277Y-40085022D01*
X24993886Y-40323126D01*
X25000000Y-40424201D01*
X25000000Y-57555506D01*
X24985341Y-57737086D01*
X24927184Y-57973039D01*
X24831930Y-58196608D01*
X24702047Y-58402002D01*
X24540898Y-58583901D01*
X24352658Y-58737595D01*
X24142201Y-58859103D01*
X23914978Y-58945277D01*
X23676874Y-58993886D01*
X23575799Y-59000000D01*
X20444494Y-59000000D01*
X20262914Y-58985341D01*
X20026961Y-58927184D01*
X19803392Y-58831930D01*
X19597998Y-58702047D01*
X19416099Y-58540898D01*
X19262405Y-58352658D01*
X19140897Y-58142201D01*
X19054723Y-57914978D01*
X19006114Y-57676874D01*
X19000000Y-57575799D01*
X19000000Y-40444494D01*
X19014659Y-40262914D01*
X19072816Y-40026961D01*
X19168070Y-39803392D01*
X19297953Y-39597998D01*
X19459102Y-39416099D01*
X19647342Y-39262405D01*
X19857799Y-39140897D01*
X20085022Y-39054723D01*
X20323126Y-39006114D01*
X20424201Y-39000000D01*
X23555506Y-39000000D01*
X23737086Y-39014659D01*
G37*
%TD.AperFunction*%
D13*
X22000000Y-42000000D03*
%TD*%
D10*
%TO.P,H4,1,1*%
%TO.N,GND*%
X15000000Y-59000000D03*
%TD*%
%TA.AperFunction,SMDPad,CuDef*%
%TO.P,J2,1,Pin_1*%
%TO.N,VDC*%
G36*
X43737086Y-39014659D02*
G01*
X43973039Y-39072816D01*
X44196608Y-39168070D01*
X44402002Y-39297953D01*
X44583901Y-39459102D01*
X44737595Y-39647342D01*
X44859103Y-39857799D01*
X44945277Y-40085022D01*
X44993886Y-40323126D01*
X45000000Y-40424201D01*
X45000000Y-57555506D01*
X44985341Y-57737086D01*
X44927184Y-57973039D01*
X44831930Y-58196608D01*
X44702047Y-58402002D01*
X44540898Y-58583901D01*
X44352658Y-58737595D01*
X44142201Y-58859103D01*
X43914978Y-58945277D01*
X43676874Y-58993886D01*
X43575799Y-59000000D01*
X40444494Y-59000000D01*
X40262914Y-58985341D01*
X40026961Y-58927184D01*
X39803392Y-58831930D01*
X39597998Y-58702047D01*
X39416099Y-58540898D01*
X39262405Y-58352658D01*
X39140897Y-58142201D01*
X39054723Y-57914978D01*
X39006114Y-57676874D01*
X39000000Y-57575799D01*
X39000000Y-40444494D01*
X39014659Y-40262914D01*
X39072816Y-40026961D01*
X39168070Y-39803392D01*
X39297953Y-39597998D01*
X39459102Y-39416099D01*
X39647342Y-39262405D01*
X39857799Y-39140897D01*
X40085022Y-39054723D01*
X40323126Y-39006114D01*
X40424201Y-39000000D01*
X43555506Y-39000000D01*
X43737086Y-39014659D01*
G37*
%TD.AperFunction*%
D13*
X42000000Y-42000000D03*
%TD*%
D10*
%TO.P,H1,1,1*%
%TO.N,GND*%
X15000000Y-15000000D03*
%TD*%
D14*
%TO.P,J6,1,Pin_1*%
%TO.N,/SDA0*%
X22000000Y-15000000D03*
%TO.P,J6,2,Pin_2*%
%TO.N,/SCL0*%
X22000000Y-17540000D03*
%TO.P,J6,3,Pin_3*%
%TO.N,+5V*%
X22000000Y-20080000D03*
%TO.P,J6,4,Pin_4*%
%TO.N,GND*%
X22000000Y-22620000D03*
%TD*%
%TO.P,J1,1,Pin_1*%
%TO.N,/MISO*%
X99000000Y-45000000D03*
%TO.P,J1,2,Pin_2*%
%TO.N,+5V*%
X99000000Y-42460000D03*
%TO.P,J1,3,Pin_3*%
%TO.N,/SCK*%
X101540000Y-45000000D03*
%TO.P,J1,4,Pin_4*%
%TO.N,/MOSI*%
X101540000Y-42460000D03*
%TO.P,J1,5,Pin_5*%
%TO.N,/RST*%
X104080000Y-45000000D03*
%TO.P,J1,6,Pin_6*%
%TO.N,GND*%
X104080000Y-42460000D03*
%TD*%
%TO.P,J7,1,Pin_1*%
%TO.N,/SDA0*%
X56000000Y-15000000D03*
%TO.P,J7,2,Pin_2*%
%TO.N,/SCL0*%
X56000000Y-17540000D03*
%TO.P,J7,3,Pin_3*%
%TO.N,+5V*%
X56000000Y-20080000D03*
%TO.P,J7,4,Pin_4*%
%TO.N,GND*%
X56000000Y-22620000D03*
%TD*%
D15*
%TO.N,GND*%
X85500000Y-39000000D03*
X85500000Y-44000000D03*
X87000000Y-37500000D03*
X90500000Y-23000000D03*
X86500000Y-46500000D03*
X83500000Y-46500000D03*
X79500000Y-40000000D03*
X79500000Y-39000000D03*
X79500000Y-38000000D03*
X78500000Y-38000000D03*
X78500000Y-39000000D03*
X78500000Y-40000000D03*
X85500000Y-34000000D03*
X87000000Y-44000000D03*
X87000000Y-31000000D03*
X86000000Y-27000000D03*
X93000000Y-28000000D03*
X95000000Y-26000000D03*
X95000000Y-23000000D03*
X86000000Y-23000000D03*
X80000000Y-23000000D03*
X80000000Y-27000000D03*
X78000000Y-27000000D03*
X76000000Y-30000000D03*
X75000000Y-32000000D03*
X75000000Y-27000000D03*
X72000000Y-26000000D03*
X74000000Y-23000000D03*
X24000000Y-13000000D03*
X26000000Y-13000000D03*
X18000000Y-13000000D03*
X20000000Y-13000000D03*
X22000000Y-13000000D03*
X28000000Y-13000000D03*
X50000000Y-13000000D03*
X54000000Y-13000000D03*
X48000000Y-13000000D03*
X44000000Y-13000000D03*
X46000000Y-13000000D03*
X30000000Y-13000000D03*
X52000000Y-13000000D03*
X36000000Y-13000000D03*
X56000000Y-13000000D03*
X42000000Y-13000000D03*
X38000000Y-13000000D03*
X32000000Y-13000000D03*
X34000000Y-13000000D03*
X40000000Y-13000000D03*
X104000000Y-13000000D03*
X106000000Y-13000000D03*
X111000000Y-18000000D03*
X111000000Y-40000000D03*
X111000000Y-44000000D03*
X111000000Y-38000000D03*
X111000000Y-34000000D03*
X111000000Y-56000000D03*
X111000000Y-36000000D03*
X111000000Y-20000000D03*
X111000000Y-48000000D03*
X111000000Y-42000000D03*
X111000000Y-26000000D03*
X111000000Y-46000000D03*
X111000000Y-28000000D03*
X111000000Y-22000000D03*
X111000000Y-24000000D03*
X100000000Y-61000000D03*
X98000000Y-61000000D03*
X106000000Y-61000000D03*
X104000000Y-61000000D03*
X102000000Y-61000000D03*
X96000000Y-61000000D03*
X74000000Y-61000000D03*
X70000000Y-61000000D03*
X60000000Y-61000000D03*
X76000000Y-61000000D03*
X80000000Y-61000000D03*
X58000000Y-61000000D03*
X78000000Y-61000000D03*
X94000000Y-61000000D03*
X66000000Y-61000000D03*
X72000000Y-61000000D03*
X64000000Y-61000000D03*
X88000000Y-61000000D03*
X68000000Y-61000000D03*
X82000000Y-61000000D03*
X86000000Y-61000000D03*
X92000000Y-61000000D03*
X62000000Y-61000000D03*
X90000000Y-61000000D03*
X84000000Y-61000000D03*
X56000000Y-61000000D03*
X34000000Y-61000000D03*
X30000000Y-61000000D03*
X20000000Y-61000000D03*
X36000000Y-61000000D03*
X40000000Y-61000000D03*
X18000000Y-61000000D03*
X38000000Y-61000000D03*
X54000000Y-61000000D03*
X26000000Y-61000000D03*
X32000000Y-61000000D03*
X24000000Y-61000000D03*
X48000000Y-61000000D03*
X28000000Y-61000000D03*
X42000000Y-61000000D03*
X46000000Y-61000000D03*
X52000000Y-61000000D03*
X22000000Y-61000000D03*
X50000000Y-61000000D03*
X44000000Y-61000000D03*
X80200000Y-32000000D03*
X100500000Y-31500000D03*
X13000000Y-24000000D03*
X24000000Y-48000000D03*
X21000000Y-49000000D03*
X22000000Y-54000000D03*
X20000000Y-52000000D03*
X13000000Y-52000000D03*
X24000000Y-46000000D03*
X13000000Y-30000000D03*
X23000000Y-53000000D03*
X21000000Y-45000000D03*
X100500000Y-30500000D03*
X13000000Y-20000000D03*
X22000000Y-56000000D03*
X13000000Y-36000000D03*
X13000000Y-56000000D03*
X20000000Y-58000000D03*
X13000000Y-34000000D03*
X24000000Y-56000000D03*
X20000000Y-54000000D03*
X104000000Y-33200000D03*
X22000000Y-48000000D03*
X23000000Y-55000000D03*
X22000000Y-52000000D03*
X13000000Y-38000000D03*
X21000000Y-47000000D03*
X13000000Y-54000000D03*
X23000000Y-45000000D03*
X22000000Y-58000000D03*
X20000000Y-56000000D03*
X21000000Y-55000000D03*
X24000000Y-52000000D03*
X91100000Y-20900000D03*
X13000000Y-44000000D03*
X13000000Y-40000000D03*
X20000000Y-48000000D03*
X21000000Y-51000000D03*
X13000000Y-18000000D03*
X102100000Y-20900000D03*
X20000000Y-50000000D03*
X21000000Y-57000000D03*
X104000000Y-34000000D03*
D16*
X97250000Y-36250000D03*
D15*
X22000000Y-46000000D03*
X79100000Y-20900000D03*
X13000000Y-22000000D03*
D16*
X88926742Y-51053882D03*
D15*
X101500000Y-32500000D03*
X13000000Y-28000000D03*
X103100000Y-33200000D03*
X13000000Y-32000000D03*
X20000000Y-46000000D03*
X24000000Y-54000000D03*
X104000000Y-34800000D03*
X24000000Y-50000000D03*
X23000000Y-47000000D03*
X105000000Y-34800000D03*
D16*
X90500000Y-35750000D03*
D15*
X67100000Y-20900000D03*
X21000000Y-53000000D03*
X13000000Y-46000000D03*
X23000000Y-51000000D03*
X103100000Y-34000000D03*
X22000000Y-50000000D03*
X13000000Y-26000000D03*
X13000000Y-50000000D03*
X103000000Y-14000000D03*
X106300000Y-27300000D03*
X23000000Y-57000000D03*
X24000000Y-58000000D03*
X102000000Y-27000000D03*
X84500000Y-14000000D03*
X13000000Y-42000000D03*
X101500000Y-31500000D03*
X105000000Y-34000000D03*
X13000000Y-48000000D03*
X23000000Y-49000000D03*
%TO.N,+5V*%
X84700000Y-30200000D03*
X65500000Y-40100000D03*
X83300000Y-31500000D03*
X102773119Y-35681001D03*
X54700000Y-52300000D03*
%TO.N,Net-(D1-Pad1)*%
X103900000Y-31800000D03*
X102900000Y-25900000D03*
%TO.N,Net-(D2-Pad1)*%
X105000000Y-33200000D03*
X105000000Y-27300000D03*
%TO.N,/RST*%
X103100000Y-35000000D03*
%TO.N,/MOSI*%
X104000000Y-40909500D03*
%TO.N,VDC*%
X44000000Y-48000000D03*
X41000000Y-49000000D03*
X42000000Y-54000000D03*
X40000000Y-52000000D03*
X44000000Y-46000000D03*
X43000000Y-53000000D03*
X41000000Y-45000000D03*
X42000000Y-56000000D03*
X40000000Y-58000000D03*
X44000000Y-56000000D03*
X40000000Y-54000000D03*
X42000000Y-48000000D03*
X43000000Y-55000000D03*
X42000000Y-52000000D03*
X41000000Y-47000000D03*
X43000000Y-45000000D03*
X42000000Y-58000000D03*
X40000000Y-56000000D03*
X41000000Y-55000000D03*
X44000000Y-52000000D03*
X40000000Y-48000000D03*
X41000000Y-51000000D03*
X40000000Y-50000000D03*
X41000000Y-57000000D03*
X42000000Y-46000000D03*
X40000000Y-46000000D03*
X44000000Y-54000000D03*
X44000000Y-50000000D03*
X43000000Y-47000000D03*
X41000000Y-53000000D03*
X43000000Y-51000000D03*
X42000000Y-50000000D03*
X43000000Y-57000000D03*
X44000000Y-58000000D03*
X43000000Y-49000000D03*
%TO.N,/REG_EN*%
X97418237Y-26556182D03*
X87700000Y-47200000D03*
X87701134Y-45158393D03*
X99418605Y-27055494D03*
%TO.N,/I_SENSE*%
X108500000Y-36600000D03*
X108500000Y-30700000D03*
%TO.N,/V_FB*%
X82500000Y-44500000D03*
X82500000Y-47000000D03*
%TO.N,/~POT_CS*%
X88600000Y-29700000D03*
X98700000Y-28272997D03*
X96887999Y-27785804D03*
X82100000Y-30400000D03*
%TO.N,/POT_U~D*%
X77900000Y-31000000D03*
X89200000Y-29200000D03*
X98700000Y-27545994D03*
X81300000Y-29893990D03*
X96892987Y-27058819D03*
%TO.N,/SCL0*%
X105700000Y-30509500D03*
X106900000Y-28100000D03*
%TO.N,/V_SENSE*%
X103100000Y-31700000D03*
X88196732Y-30304902D03*
X97219000Y-28500000D03*
X78400000Y-36600000D03*
%TO.N,/SW3*%
X98000000Y-18500000D03*
X98700000Y-29500000D03*
%TO.N,/SW4*%
X72000000Y-18500000D03*
X97300000Y-34000000D03*
%TO.N,/SW1*%
X97262790Y-31237210D03*
X83500000Y-18500000D03*
%TO.N,/SW2*%
X96000000Y-18500000D03*
X97400290Y-30500290D03*
%TD*%
D17*
%TO.N,+5V*%
X83300000Y-31500000D02*
X83400000Y-31500000D01*
X99000000Y-42460000D02*
X99000000Y-39454120D01*
X54700000Y-50900000D02*
X65500000Y-40100000D01*
X54700000Y-52300000D02*
X54700000Y-50900000D01*
X83400000Y-31500000D02*
X84700000Y-30200000D01*
X99000000Y-39454120D02*
X102773119Y-35681001D01*
D18*
%TO.N,Net-(D1-Pad1)*%
X102900000Y-30800000D02*
X103900000Y-31800000D01*
X102900000Y-28900000D02*
X102900000Y-30800000D01*
X102900000Y-25900000D02*
X102900000Y-28900000D01*
X102900000Y-28900000D02*
X102900000Y-29000000D01*
%TO.N,Net-(D2-Pad1)*%
X105000000Y-30300000D02*
X105000000Y-33200000D01*
X105000000Y-27300000D02*
X105000000Y-30300000D01*
X105000000Y-30300000D02*
X105000000Y-30400000D01*
%TO.N,/RST*%
X105200000Y-37100000D02*
X103100000Y-35000000D01*
X105200000Y-43880000D02*
X105200000Y-37100000D01*
X104080000Y-45000000D02*
X105200000Y-43880000D01*
%TO.N,/MOSI*%
X101540000Y-42460000D02*
X101540000Y-41460000D01*
X101540000Y-41460000D02*
X102090500Y-40909500D01*
X102090500Y-40909500D02*
X104000000Y-40909500D01*
%TO.N,/REG_EN*%
X87700000Y-45159527D02*
X87701134Y-45158393D01*
X87700000Y-47000000D02*
X87700000Y-47200000D01*
X87700000Y-47000000D02*
X87700000Y-45159527D01*
X98919293Y-26556182D02*
X99418605Y-27055494D01*
X97418237Y-26556182D02*
X98919293Y-26556182D01*
%TO.N,/I_SENSE*%
X108500000Y-36600000D02*
X108500000Y-30700000D01*
D17*
%TO.N,/V_FB*%
X82500000Y-44500000D02*
X82500000Y-47000000D01*
D18*
%TO.N,/~POT_CS*%
X83800000Y-30400000D02*
X84490501Y-29709499D01*
X82100000Y-30400000D02*
X83800000Y-30400000D01*
X98212807Y-27785804D02*
X98700000Y-28272997D01*
X86890501Y-29709499D02*
X88590501Y-29709499D01*
X96887999Y-27785804D02*
X98212807Y-27785804D01*
X88590501Y-29709499D02*
X88600000Y-29700000D01*
X84490501Y-29709499D02*
X86890501Y-29709499D01*
%TO.N,/POT_U~D*%
X83906010Y-29893990D02*
X84400000Y-29400000D01*
X77900000Y-31000000D02*
X79000000Y-29900000D01*
X81300000Y-29893990D02*
X83906010Y-29893990D01*
X84400000Y-29400000D02*
X86600000Y-29400000D01*
X88200000Y-29400000D02*
X88400000Y-29200000D01*
X86600000Y-29400000D02*
X88200000Y-29400000D01*
X88400000Y-29200000D02*
X89200000Y-29200000D01*
X80800000Y-29900000D02*
X81293990Y-29900000D01*
X96892987Y-27058819D02*
X98212825Y-27058819D01*
X98212825Y-27058819D02*
X98700000Y-27545994D01*
X81293990Y-29900000D02*
X81300000Y-29893990D01*
X79000000Y-29900000D02*
X80800000Y-29900000D01*
%TO.N,/SCL0*%
X106900000Y-28500000D02*
X106900000Y-29309500D01*
X106900000Y-29309500D02*
X105700000Y-30509500D01*
X106900000Y-28500000D02*
X106900000Y-28600000D01*
X106900000Y-28100000D02*
X106900000Y-28500000D01*
%TO.N,/V_SENSE*%
X100409499Y-29009499D02*
X103100000Y-31700000D01*
X79025942Y-36600000D02*
X85321040Y-30304902D01*
X78400000Y-36600000D02*
X79025942Y-36600000D01*
X97219000Y-28500000D02*
X97728499Y-29009499D01*
X85321040Y-30304902D02*
X88196732Y-30304902D01*
X97728499Y-29009499D02*
X100409499Y-29009499D01*
%TO.N,/SW3*%
X96254010Y-20245990D02*
X96254010Y-28376338D01*
X98000000Y-18500000D02*
X96254010Y-20245990D01*
X97377672Y-29500000D02*
X98700000Y-29500000D01*
X96254010Y-28376338D02*
X97377672Y-29500000D01*
%TO.N,/SW4*%
X72490501Y-18990501D02*
X94677267Y-18990501D01*
X96655779Y-29855779D02*
X96655779Y-33355779D01*
X95491982Y-19805216D02*
X95491982Y-28691982D01*
X95491982Y-28691982D02*
X96655779Y-29855779D01*
X96655779Y-33355779D02*
X97300000Y-34000000D01*
X72000000Y-18500000D02*
X72490501Y-18990501D01*
X94677267Y-18990501D02*
X95491982Y-19805216D01*
%TO.N,/SW1*%
X96909789Y-30884209D02*
X97262790Y-31237210D01*
X95745992Y-19700002D02*
X95745992Y-28586768D01*
X96909788Y-29750564D02*
X96909789Y-30884209D01*
X94545990Y-18500000D02*
X95745992Y-19700002D01*
X95745992Y-28586768D02*
X96909788Y-29750564D01*
X83500000Y-18500000D02*
X94545990Y-18500000D01*
%TO.N,/SW2*%
X97400290Y-29881842D02*
X97400290Y-30500290D01*
X96000000Y-28481552D02*
X97400290Y-29881842D01*
X96000000Y-18500000D02*
X96000000Y-28481552D01*
%TD*%
%TO.N,GND*%
X109979537Y-12193576D02*
X109983993Y-12194216D01*
X110254274Y-12213353D01*
X110503484Y-12267007D01*
X110742639Y-12355236D01*
X110966980Y-12476282D01*
X111172027Y-12627734D01*
X111353688Y-12806563D01*
X111508341Y-13009207D01*
X111632894Y-13231614D01*
X111724870Y-13469357D01*
X111782433Y-13717697D01*
X111804957Y-13977769D01*
X111805179Y-14005998D01*
X111806519Y-14014830D01*
X111810500Y-14028015D01*
X111810501Y-59960839D01*
X111806424Y-59979536D01*
X111805784Y-59983992D01*
X111786646Y-60254276D01*
X111732995Y-60503481D01*
X111644764Y-60742639D01*
X111523717Y-60966981D01*
X111372266Y-61172027D01*
X111193437Y-61353688D01*
X110990798Y-61508338D01*
X110768386Y-61632894D01*
X110530635Y-61724874D01*
X110282304Y-61782433D01*
X110022231Y-61804957D01*
X109994002Y-61805179D01*
X109985170Y-61806519D01*
X109971985Y-61810500D01*
X14039157Y-61810500D01*
X14020464Y-61806424D01*
X14016008Y-61805784D01*
X13745724Y-61786646D01*
X13496519Y-61732995D01*
X13257361Y-61644764D01*
X13033019Y-61523717D01*
X12827973Y-61372266D01*
X12646312Y-61193437D01*
X12491662Y-60990798D01*
X12367106Y-60768386D01*
X12275126Y-60530635D01*
X12261196Y-60470533D01*
X13800289Y-60470533D01*
X13803940Y-60526986D01*
X13926274Y-60621196D01*
X13930053Y-60623692D01*
X14171549Y-60759214D01*
X14175649Y-60761138D01*
X14434180Y-60860379D01*
X14438515Y-60861692D01*
X14708665Y-60922573D01*
X14713143Y-60923246D01*
X14989251Y-60944492D01*
X14993780Y-60944511D01*
X15270063Y-60925676D01*
X15274547Y-60925042D01*
X15545218Y-60866521D01*
X15549564Y-60865246D01*
X15808951Y-60768265D01*
X15813067Y-60766376D01*
X16055738Y-60632967D01*
X16059538Y-60630504D01*
X16195882Y-60527388D01*
X16199801Y-60470623D01*
X16199711Y-60470533D01*
X107800289Y-60470533D01*
X107803940Y-60526986D01*
X107926274Y-60621196D01*
X107930053Y-60623692D01*
X108171549Y-60759214D01*
X108175649Y-60761138D01*
X108434180Y-60860379D01*
X108438515Y-60861692D01*
X108708665Y-60922573D01*
X108713143Y-60923246D01*
X108989251Y-60944492D01*
X108993780Y-60944511D01*
X109270063Y-60925676D01*
X109274547Y-60925042D01*
X109545218Y-60866521D01*
X109549564Y-60865246D01*
X109808951Y-60768265D01*
X109813067Y-60766376D01*
X110055738Y-60632967D01*
X110059538Y-60630504D01*
X110195882Y-60527388D01*
X110199801Y-60470623D01*
X109025888Y-59296710D01*
X108974112Y-59296710D01*
X107800289Y-60470533D01*
X16199711Y-60470533D01*
X15025888Y-59296710D01*
X14974112Y-59296710D01*
X13800289Y-60470533D01*
X12261196Y-60470533D01*
X12217567Y-60282304D01*
X12195043Y-60022231D01*
X12194821Y-59994002D01*
X12193481Y-59985170D01*
X12189500Y-59971985D01*
X12189500Y-58949666D01*
X13056131Y-58949666D01*
X13068692Y-59226305D01*
X13069224Y-59230803D01*
X13121590Y-59502731D01*
X13122766Y-59507105D01*
X13213837Y-59768626D01*
X13215632Y-59772784D01*
X13343501Y-60018418D01*
X13345878Y-60022273D01*
X13471089Y-60195885D01*
X13528662Y-60200517D01*
X14703290Y-59025888D01*
X14703290Y-58974112D01*
X15296710Y-58974112D01*
X15296710Y-59025888D01*
X16470980Y-60200159D01*
X16528242Y-60195803D01*
X16645138Y-60036670D01*
X16647548Y-60032835D01*
X16777556Y-59788326D01*
X16779388Y-59784183D01*
X16872737Y-59523466D01*
X16873951Y-59519103D01*
X16928771Y-59247228D01*
X16929377Y-59241886D01*
X16939635Y-58862806D01*
X16939318Y-58857439D01*
X16899281Y-58582997D01*
X16898305Y-58578575D01*
X16819191Y-58313191D01*
X16817587Y-58308956D01*
X16700992Y-58057773D01*
X16698793Y-58053814D01*
X16534049Y-57802060D01*
X16474876Y-57795946D01*
X15296710Y-58974112D01*
X14703290Y-58974112D01*
X13529225Y-57800047D01*
X13473585Y-57803012D01*
X13403582Y-57889770D01*
X13401000Y-57893491D01*
X13260034Y-58131851D01*
X13258017Y-58135906D01*
X13152936Y-58392119D01*
X13151525Y-58396423D01*
X13084532Y-58665121D01*
X13083757Y-58669583D01*
X13056253Y-58945139D01*
X13056131Y-58949666D01*
X12189500Y-58949666D01*
X12189500Y-57527248D01*
X13798069Y-57527248D01*
X14974112Y-58703290D01*
X15025888Y-58703290D01*
X16200878Y-57528300D01*
X16198580Y-57473478D01*
X16146164Y-57429181D01*
X16142502Y-57426516D01*
X15907401Y-57280179D01*
X15903393Y-57278070D01*
X15649630Y-57167203D01*
X15645359Y-57165695D01*
X15378250Y-57092622D01*
X15373806Y-57091746D01*
X15098946Y-57057998D01*
X15094423Y-57057773D01*
X14817569Y-57064055D01*
X14813061Y-57064486D01*
X14540014Y-57110668D01*
X14535615Y-57111744D01*
X14272095Y-57196858D01*
X14267898Y-57198559D01*
X14019425Y-57320823D01*
X14015517Y-57323112D01*
X13803433Y-57468873D01*
X13798069Y-57527248D01*
X12189500Y-57527248D01*
X12189500Y-49228112D01*
X18809922Y-49228112D01*
X18809922Y-57557212D01*
X18810143Y-57560925D01*
X18849609Y-57891000D01*
X18851111Y-57897530D01*
X18955268Y-58198475D01*
X18957742Y-58203892D01*
X19116786Y-58479363D01*
X19120240Y-58484214D01*
X19328542Y-58724608D01*
X19332852Y-58728717D01*
X19582885Y-58925345D01*
X19587895Y-58928564D01*
X19870622Y-59074320D01*
X19876150Y-59076534D01*
X20181352Y-59166149D01*
X20187199Y-59167276D01*
X20424510Y-59189936D01*
X20427482Y-59190078D01*
X21771888Y-59190078D01*
X21808500Y-59153466D01*
X21808500Y-49228112D01*
X22191500Y-49228112D01*
X22191500Y-59153466D01*
X22228112Y-59190078D01*
X23557212Y-59190078D01*
X23560925Y-59189857D01*
X23891000Y-59150391D01*
X23897530Y-59148889D01*
X24198475Y-59044732D01*
X24203892Y-59042258D01*
X24479363Y-58883214D01*
X24484214Y-58879760D01*
X24724608Y-58671458D01*
X24728717Y-58667148D01*
X24925345Y-58417115D01*
X24928564Y-58412105D01*
X25074320Y-58129378D01*
X25076534Y-58123850D01*
X25166149Y-57818648D01*
X25167276Y-57812801D01*
X25189936Y-57575490D01*
X25190078Y-57572518D01*
X25190078Y-49228112D01*
X25153466Y-49191500D01*
X22228112Y-49191500D01*
X22191500Y-49228112D01*
X21808500Y-49228112D01*
X21771888Y-49191500D01*
X18846534Y-49191500D01*
X18809922Y-49228112D01*
X12189500Y-49228112D01*
X12189500Y-40427482D01*
X18809922Y-40427482D01*
X18809922Y-48771888D01*
X18846534Y-48808500D01*
X21771888Y-48808500D01*
X21808500Y-48771888D01*
X21808500Y-38846534D01*
X22191500Y-38846534D01*
X22191500Y-48771888D01*
X22228112Y-48808500D01*
X25153466Y-48808500D01*
X25190078Y-48771888D01*
X25190078Y-40442788D01*
X25189857Y-40439075D01*
X25188471Y-40427482D01*
X38809922Y-40427482D01*
X38809922Y-57557212D01*
X38810143Y-57560925D01*
X38849609Y-57891000D01*
X38851111Y-57897530D01*
X38955268Y-58198475D01*
X38957742Y-58203892D01*
X39116786Y-58479363D01*
X39120240Y-58484214D01*
X39328542Y-58724608D01*
X39332852Y-58728717D01*
X39582885Y-58925345D01*
X39587895Y-58928564D01*
X39870622Y-59074320D01*
X39876150Y-59076534D01*
X40181352Y-59166149D01*
X40187199Y-59167276D01*
X40424510Y-59189936D01*
X40427482Y-59190078D01*
X43557212Y-59190078D01*
X43560925Y-59189857D01*
X43891000Y-59150391D01*
X43897530Y-59148889D01*
X44198475Y-59044732D01*
X44203892Y-59042258D01*
X44364265Y-58949666D01*
X107056131Y-58949666D01*
X107068692Y-59226305D01*
X107069224Y-59230803D01*
X107121590Y-59502731D01*
X107122766Y-59507105D01*
X107213837Y-59768626D01*
X107215632Y-59772784D01*
X107343501Y-60018418D01*
X107345878Y-60022273D01*
X107471089Y-60195885D01*
X107528662Y-60200517D01*
X108703290Y-59025888D01*
X108703290Y-58974112D01*
X109296710Y-58974112D01*
X109296710Y-59025888D01*
X110470980Y-60200159D01*
X110528242Y-60195803D01*
X110645138Y-60036670D01*
X110647548Y-60032835D01*
X110777556Y-59788326D01*
X110779388Y-59784183D01*
X110872737Y-59523466D01*
X110873951Y-59519103D01*
X110928771Y-59247228D01*
X110929377Y-59241886D01*
X110939635Y-58862806D01*
X110939318Y-58857439D01*
X110899281Y-58582997D01*
X110898305Y-58578575D01*
X110819191Y-58313191D01*
X110817587Y-58308956D01*
X110700992Y-58057773D01*
X110698793Y-58053814D01*
X110534049Y-57802060D01*
X110474876Y-57795946D01*
X109296710Y-58974112D01*
X108703290Y-58974112D01*
X107529225Y-57800047D01*
X107473585Y-57803012D01*
X107403582Y-57889770D01*
X107401000Y-57893491D01*
X107260034Y-58131851D01*
X107258017Y-58135906D01*
X107152936Y-58392119D01*
X107151525Y-58396423D01*
X107084532Y-58665121D01*
X107083757Y-58669583D01*
X107056253Y-58945139D01*
X107056131Y-58949666D01*
X44364265Y-58949666D01*
X44479363Y-58883214D01*
X44484214Y-58879760D01*
X44724608Y-58671458D01*
X44728717Y-58667148D01*
X44925345Y-58417115D01*
X44928564Y-58412105D01*
X45074320Y-58129378D01*
X45076534Y-58123850D01*
X45166149Y-57818648D01*
X45167276Y-57812801D01*
X45189936Y-57575490D01*
X45190078Y-57572518D01*
X45190078Y-57527248D01*
X107798069Y-57527248D01*
X108974112Y-58703290D01*
X109025888Y-58703290D01*
X110200878Y-57528300D01*
X110198580Y-57473478D01*
X110146164Y-57429181D01*
X110142502Y-57426516D01*
X109907401Y-57280179D01*
X109903393Y-57278070D01*
X109649630Y-57167203D01*
X109645359Y-57165695D01*
X109378250Y-57092622D01*
X109373806Y-57091746D01*
X109098946Y-57057998D01*
X109094423Y-57057773D01*
X108817569Y-57064055D01*
X108813061Y-57064486D01*
X108540014Y-57110668D01*
X108535615Y-57111744D01*
X108272095Y-57196858D01*
X108267898Y-57198559D01*
X108019425Y-57320823D01*
X108015517Y-57323112D01*
X107803433Y-57468873D01*
X107798069Y-57527248D01*
X45190078Y-57527248D01*
X45190078Y-52300133D01*
X54203071Y-52300133D01*
X54232404Y-52468204D01*
X54236436Y-52479018D01*
X54324307Y-52625259D01*
X54331962Y-52633896D01*
X54466588Y-52738700D01*
X54476839Y-52744003D01*
X54640169Y-52793314D01*
X54651641Y-52794571D01*
X54821771Y-52781778D01*
X54832927Y-52778821D01*
X54987046Y-52705639D01*
X54996389Y-52698864D01*
X55113829Y-52575107D01*
X55120106Y-52565423D01*
X55148337Y-52496929D01*
X97308012Y-52496929D01*
X97308012Y-55503071D01*
X97308614Y-55509182D01*
X97320271Y-55567784D01*
X97324982Y-55579158D01*
X97359891Y-55631403D01*
X97368597Y-55640109D01*
X97420842Y-55675018D01*
X97432216Y-55679729D01*
X97490818Y-55691386D01*
X97496929Y-55691988D01*
X100503071Y-55691988D01*
X100509182Y-55691386D01*
X100567784Y-55679729D01*
X100579158Y-55675018D01*
X100631403Y-55640109D01*
X100640109Y-55631403D01*
X100675018Y-55579158D01*
X100679729Y-55567784D01*
X100691386Y-55509182D01*
X100691988Y-55503071D01*
X100691988Y-55292142D01*
X102978681Y-55292142D01*
X102983202Y-55349590D01*
X103112516Y-55443542D01*
X103116704Y-55446108D01*
X103349263Y-55564603D01*
X103353800Y-55566482D01*
X103602032Y-55647138D01*
X103606807Y-55648284D01*
X103864600Y-55689115D01*
X103869496Y-55689500D01*
X104130504Y-55689500D01*
X104135400Y-55689115D01*
X104393193Y-55648284D01*
X104397968Y-55647138D01*
X104646200Y-55566482D01*
X104650737Y-55564603D01*
X104883296Y-55446108D01*
X104887484Y-55443542D01*
X105016798Y-55349590D01*
X105021319Y-55292142D01*
X104025888Y-54296710D01*
X103974112Y-54296710D01*
X102978681Y-55292142D01*
X100691988Y-55292142D01*
X100691988Y-53869496D01*
X102310500Y-53869496D01*
X102310500Y-54130504D01*
X102310885Y-54135400D01*
X102351716Y-54393193D01*
X102352862Y-54397968D01*
X102433518Y-54646200D01*
X102435397Y-54650737D01*
X102553892Y-54883296D01*
X102556458Y-54887484D01*
X102650410Y-55016798D01*
X102707858Y-55021319D01*
X103703290Y-54025888D01*
X103703290Y-53974112D01*
X104296710Y-53974112D01*
X104296710Y-54025888D01*
X105292142Y-55021319D01*
X105349590Y-55016798D01*
X105443542Y-54887484D01*
X105446108Y-54883296D01*
X105564603Y-54650737D01*
X105566482Y-54646200D01*
X105647138Y-54397968D01*
X105648284Y-54393193D01*
X105689115Y-54135400D01*
X105689500Y-54130504D01*
X105689500Y-54000810D01*
X106805126Y-54000810D01*
X106806219Y-54070348D01*
X106806845Y-54074269D01*
X106806775Y-54075947D01*
X106806910Y-54080445D01*
X106836389Y-54368162D01*
X106838553Y-54376828D01*
X106838639Y-54377040D01*
X106839356Y-54384215D01*
X106840124Y-54388650D01*
X106909849Y-54669345D01*
X106913213Y-54677619D01*
X106913327Y-54677814D01*
X106915047Y-54684818D01*
X106916432Y-54689102D01*
X107025013Y-54957171D01*
X107029508Y-54964888D01*
X107029649Y-54965066D01*
X107032340Y-54971760D01*
X107034315Y-54975805D01*
X107179582Y-55225900D01*
X107185120Y-55232907D01*
X107185284Y-55233062D01*
X107188892Y-55239312D01*
X107191417Y-55243038D01*
X107370474Y-55470170D01*
X107376944Y-55476326D01*
X107377131Y-55476459D01*
X107381581Y-55482134D01*
X107384606Y-55485468D01*
X107593880Y-55685105D01*
X107601156Y-55690290D01*
X107601355Y-55690393D01*
X107606560Y-55695384D01*
X107610025Y-55698259D01*
X107845340Y-55866417D01*
X107853270Y-55870524D01*
X107853485Y-55870599D01*
X107859344Y-55874809D01*
X107863179Y-55877166D01*
X108119842Y-56010492D01*
X108128275Y-56013440D01*
X108128495Y-56013483D01*
X108134885Y-56016824D01*
X108139014Y-56018618D01*
X108411903Y-56114450D01*
X108420669Y-56116181D01*
X108420892Y-56116193D01*
X108427690Y-56118600D01*
X108432031Y-56119794D01*
X108715700Y-56176219D01*
X108724622Y-56176698D01*
X108724847Y-56176678D01*
X108731912Y-56178103D01*
X108736379Y-56178673D01*
X109025167Y-56194566D01*
X109034064Y-56193784D01*
X109034287Y-56193732D01*
X109041486Y-56194147D01*
X109045987Y-56194082D01*
X109334134Y-56169126D01*
X109342836Y-56167097D01*
X109343041Y-56167017D01*
X109350228Y-56166414D01*
X109354676Y-56165715D01*
X109636430Y-56100408D01*
X109644753Y-56097176D01*
X109644954Y-56097063D01*
X109651987Y-56095452D01*
X109656291Y-56094134D01*
X109926034Y-55989778D01*
X109933823Y-55985403D01*
X109934004Y-55985264D01*
X109940733Y-55982681D01*
X109944809Y-55980770D01*
X110197156Y-55839449D01*
X110204248Y-55834022D01*
X110204407Y-55833860D01*
X110210711Y-55830351D01*
X110214476Y-55827884D01*
X110444393Y-55652417D01*
X110450650Y-55646045D01*
X110450784Y-55645862D01*
X110456531Y-55641500D01*
X110459911Y-55638528D01*
X110662812Y-55432414D01*
X110668110Y-55425221D01*
X110668215Y-55425024D01*
X110673288Y-55419899D01*
X110676217Y-55416479D01*
X110848053Y-55183832D01*
X110852285Y-55175963D01*
X110852362Y-55175752D01*
X110856660Y-55169966D01*
X110859078Y-55166167D01*
X110996418Y-54911631D01*
X110999499Y-54903249D01*
X110999547Y-54903024D01*
X111002989Y-54896684D01*
X111004846Y-54892585D01*
X111104951Y-54621236D01*
X111106819Y-54612502D01*
X111106834Y-54612277D01*
X111109349Y-54605515D01*
X111110610Y-54601195D01*
X111171484Y-54318450D01*
X111172103Y-54309540D01*
X111172086Y-54309313D01*
X111173623Y-54302264D01*
X111174263Y-54297809D01*
X111194690Y-54009307D01*
X111194048Y-54000397D01*
X111189500Y-53979540D01*
X111189500Y-49543374D01*
X111194620Y-49503685D01*
X111194874Y-49499190D01*
X111193781Y-49429653D01*
X111193155Y-49425731D01*
X111193225Y-49424053D01*
X111193090Y-49419555D01*
X111163611Y-49131838D01*
X111161447Y-49123172D01*
X111161361Y-49122960D01*
X111160644Y-49115784D01*
X111159876Y-49111349D01*
X111090151Y-48830655D01*
X111086787Y-48822381D01*
X111086673Y-48822186D01*
X111084953Y-48815182D01*
X111083568Y-48810898D01*
X110974988Y-48542828D01*
X110970491Y-48535109D01*
X110970349Y-48534930D01*
X110967660Y-48528241D01*
X110965685Y-48524196D01*
X110820417Y-48274097D01*
X110814876Y-48267088D01*
X110814712Y-48266933D01*
X110811109Y-48260691D01*
X110808583Y-48256964D01*
X110629525Y-48029829D01*
X110623054Y-48023672D01*
X110622870Y-48023541D01*
X110618420Y-48017866D01*
X110615394Y-48014532D01*
X110406120Y-47814895D01*
X110398844Y-47809710D01*
X110398645Y-47809607D01*
X110393440Y-47804616D01*
X110389975Y-47801741D01*
X110154658Y-47633581D01*
X110146725Y-47629474D01*
X110146514Y-47629401D01*
X110140657Y-47625192D01*
X110136821Y-47622834D01*
X109880160Y-47489509D01*
X109871730Y-47486561D01*
X109871505Y-47486517D01*
X109865113Y-47483175D01*
X109860984Y-47481382D01*
X109588097Y-47385550D01*
X109579331Y-47383819D01*
X109579108Y-47383807D01*
X109572310Y-47381400D01*
X109567969Y-47380206D01*
X109284299Y-47323781D01*
X109275377Y-47323302D01*
X109275153Y-47323322D01*
X109268089Y-47321897D01*
X109263622Y-47321327D01*
X108974833Y-47305434D01*
X108965936Y-47306216D01*
X108965713Y-47306268D01*
X108958515Y-47305853D01*
X108954014Y-47305918D01*
X108665869Y-47330873D01*
X108657171Y-47332901D01*
X108656959Y-47332984D01*
X108649769Y-47333588D01*
X108645323Y-47334286D01*
X108363567Y-47399593D01*
X108355238Y-47402828D01*
X108355041Y-47402939D01*
X108348015Y-47404548D01*
X108343710Y-47405866D01*
X108073967Y-47510222D01*
X108066179Y-47514596D01*
X108066001Y-47514733D01*
X108059268Y-47517317D01*
X108055191Y-47519229D01*
X107802842Y-47660552D01*
X107795746Y-47665983D01*
X107795590Y-47666142D01*
X107789291Y-47669648D01*
X107785524Y-47672115D01*
X107555607Y-47847583D01*
X107549350Y-47853955D01*
X107549216Y-47854138D01*
X107543469Y-47858500D01*
X107540089Y-47861472D01*
X107337189Y-48067585D01*
X107331892Y-48074776D01*
X107331785Y-48074975D01*
X107326712Y-48080102D01*
X107323784Y-48083521D01*
X107151948Y-48316167D01*
X107147716Y-48324034D01*
X107147638Y-48324248D01*
X107143339Y-48330036D01*
X107140922Y-48333834D01*
X107003582Y-48588369D01*
X107000501Y-48596751D01*
X107000453Y-48596976D01*
X106997011Y-48603316D01*
X106995154Y-48607415D01*
X106895049Y-48878764D01*
X106893181Y-48887498D01*
X106893166Y-48887723D01*
X106890651Y-48894485D01*
X106889390Y-48898805D01*
X106828516Y-49181551D01*
X106827897Y-49190462D01*
X106827914Y-49190688D01*
X106826377Y-49197734D01*
X106825737Y-49202190D01*
X106805310Y-49490693D01*
X106805952Y-49499603D01*
X106810500Y-49520460D01*
X106810501Y-53956615D01*
X106805380Y-53996315D01*
X106805126Y-54000810D01*
X105689500Y-54000810D01*
X105689500Y-53869496D01*
X105689115Y-53864600D01*
X105648284Y-53606807D01*
X105647138Y-53602032D01*
X105566482Y-53353800D01*
X105564603Y-53349263D01*
X105446108Y-53116704D01*
X105443542Y-53112516D01*
X105349590Y-52983202D01*
X105292142Y-52978681D01*
X104296710Y-53974112D01*
X103703290Y-53974112D01*
X102707858Y-52978681D01*
X102650410Y-52983202D01*
X102556458Y-53112516D01*
X102553892Y-53116704D01*
X102435397Y-53349263D01*
X102433518Y-53353800D01*
X102352862Y-53602032D01*
X102351716Y-53606807D01*
X102310885Y-53864600D01*
X102310500Y-53869496D01*
X100691988Y-53869496D01*
X100691988Y-52707858D01*
X102978681Y-52707858D01*
X103974112Y-53703290D01*
X104025888Y-53703290D01*
X105021319Y-52707858D01*
X105016798Y-52650410D01*
X104887484Y-52556458D01*
X104883296Y-52553892D01*
X104650737Y-52435397D01*
X104646200Y-52433518D01*
X104397968Y-52352862D01*
X104393193Y-52351716D01*
X104135400Y-52310885D01*
X104130504Y-52310500D01*
X103869496Y-52310500D01*
X103864600Y-52310885D01*
X103606807Y-52351716D01*
X103602032Y-52352862D01*
X103353800Y-52433518D01*
X103349263Y-52435397D01*
X103116704Y-52553892D01*
X103112516Y-52556458D01*
X102983202Y-52650410D01*
X102978681Y-52707858D01*
X100691988Y-52707858D01*
X100691988Y-52496929D01*
X100691386Y-52490818D01*
X100679729Y-52432216D01*
X100675018Y-52420842D01*
X100640109Y-52368597D01*
X100631403Y-52359891D01*
X100579158Y-52324982D01*
X100567784Y-52320271D01*
X100509182Y-52308614D01*
X100503071Y-52308012D01*
X97496929Y-52308012D01*
X97490818Y-52308614D01*
X97432216Y-52320271D01*
X97420842Y-52324982D01*
X97368597Y-52359891D01*
X97359891Y-52368597D01*
X97324982Y-52420842D01*
X97320271Y-52432216D01*
X97308614Y-52490818D01*
X97308012Y-52496929D01*
X55148337Y-52496929D01*
X55185189Y-52407520D01*
X55187566Y-52395861D01*
X55189616Y-52215225D01*
X55187504Y-52203516D01*
X55143500Y-52089475D01*
X55143500Y-51083703D01*
X61727070Y-44500133D01*
X82003071Y-44500133D01*
X82032404Y-44668204D01*
X82036436Y-44679018D01*
X82056500Y-44712410D01*
X82056501Y-46785385D01*
X82040617Y-46810511D01*
X82036340Y-46821231D01*
X82003201Y-46988593D01*
X82003071Y-47000133D01*
X82032404Y-47168204D01*
X82036436Y-47179018D01*
X82124307Y-47325259D01*
X82131962Y-47333896D01*
X82266588Y-47438700D01*
X82276839Y-47444003D01*
X82440169Y-47493314D01*
X82451641Y-47494571D01*
X82621771Y-47481778D01*
X82632927Y-47478821D01*
X82787046Y-47405639D01*
X82796389Y-47398864D01*
X82913829Y-47275107D01*
X82920106Y-47265423D01*
X82947016Y-47200133D01*
X87203071Y-47200133D01*
X87232404Y-47368204D01*
X87236436Y-47379018D01*
X87324307Y-47525259D01*
X87331962Y-47533896D01*
X87466588Y-47638700D01*
X87476839Y-47644003D01*
X87640169Y-47693314D01*
X87651641Y-47694571D01*
X87821771Y-47681778D01*
X87832927Y-47678821D01*
X87987046Y-47605639D01*
X87996389Y-47598864D01*
X88113829Y-47475107D01*
X88120106Y-47465423D01*
X88185189Y-47307520D01*
X88187566Y-47295861D01*
X88189616Y-47115225D01*
X88187504Y-47103516D01*
X88126020Y-46944177D01*
X88119964Y-46934352D01*
X88005361Y-46807963D01*
X87996175Y-46800977D01*
X87953000Y-46779262D01*
X87953000Y-45580737D01*
X87988180Y-45564032D01*
X87997523Y-45557257D01*
X88114963Y-45433500D01*
X88121240Y-45423816D01*
X88186323Y-45265913D01*
X88188700Y-45254254D01*
X88190750Y-45073618D01*
X88188638Y-45061909D01*
X88164565Y-44999520D01*
X97955457Y-44999520D01*
X97975443Y-45203357D01*
X97976695Y-45209564D01*
X98037260Y-45405219D01*
X98039735Y-45411048D01*
X98138405Y-45590528D01*
X98142001Y-45595740D01*
X98274745Y-45751715D01*
X98279315Y-45756097D01*
X98440711Y-45882194D01*
X98446069Y-45885568D01*
X98629524Y-45976636D01*
X98635452Y-45978864D01*
X98833471Y-46031182D01*
X98839725Y-46032173D01*
X99044220Y-46043606D01*
X99050546Y-46043319D01*
X99253163Y-46013399D01*
X99259302Y-46011846D01*
X99451764Y-45941795D01*
X99457465Y-45939039D01*
X99631912Y-45831719D01*
X99636942Y-45827873D01*
X99786245Y-45687668D01*
X99790399Y-45682889D01*
X99908462Y-45515526D01*
X99911570Y-45510009D01*
X99993567Y-45322324D01*
X99995503Y-45316295D01*
X100038098Y-45115903D01*
X100038782Y-45109498D01*
X100039166Y-44999520D01*
X100495457Y-44999520D01*
X100515443Y-45203357D01*
X100516695Y-45209564D01*
X100577260Y-45405219D01*
X100579735Y-45411048D01*
X100678405Y-45590528D01*
X100682001Y-45595740D01*
X100814745Y-45751715D01*
X100819315Y-45756097D01*
X100980711Y-45882194D01*
X100986069Y-45885568D01*
X101169524Y-45976636D01*
X101175452Y-45978864D01*
X101373471Y-46031182D01*
X101379725Y-46032173D01*
X101584220Y-46043606D01*
X101590546Y-46043319D01*
X101793163Y-46013399D01*
X101799302Y-46011846D01*
X101991764Y-45941795D01*
X101997465Y-45939039D01*
X102171912Y-45831719D01*
X102176942Y-45827873D01*
X102326245Y-45687668D01*
X102330399Y-45682889D01*
X102448462Y-45515526D01*
X102451570Y-45510009D01*
X102533567Y-45322324D01*
X102535503Y-45316295D01*
X102578098Y-45115903D01*
X102578782Y-45109498D01*
X102579522Y-44897756D01*
X102578882Y-44891347D01*
X102537687Y-44690662D01*
X102535793Y-44684620D01*
X102455109Y-44496368D01*
X102452039Y-44490829D01*
X102335148Y-44322646D01*
X102331027Y-44317838D01*
X102182706Y-44176594D01*
X102177703Y-44172713D01*
X102004011Y-44064177D01*
X101998329Y-44061381D01*
X101806360Y-43989989D01*
X101800232Y-43988393D01*
X101597829Y-43957059D01*
X101591505Y-43956728D01*
X101386936Y-43966733D01*
X101380675Y-43967680D01*
X101182294Y-44018615D01*
X101176352Y-44020801D01*
X100992265Y-44110586D01*
X100986883Y-44113923D01*
X100824611Y-44238890D01*
X100820011Y-44243241D01*
X100686181Y-44398284D01*
X100682549Y-44403471D01*
X100582628Y-44582258D01*
X100580113Y-44588070D01*
X100518183Y-44783297D01*
X100516888Y-44789495D01*
X100495479Y-44993188D01*
X100495457Y-44999520D01*
X100039166Y-44999520D01*
X100039522Y-44897756D01*
X100038882Y-44891347D01*
X99997687Y-44690662D01*
X99995793Y-44684620D01*
X99915109Y-44496368D01*
X99912039Y-44490829D01*
X99795148Y-44322646D01*
X99791027Y-44317838D01*
X99642706Y-44176594D01*
X99637703Y-44172713D01*
X99464011Y-44064177D01*
X99458329Y-44061381D01*
X99266360Y-43989989D01*
X99260232Y-43988393D01*
X99057829Y-43957059D01*
X99051505Y-43956728D01*
X98846936Y-43966733D01*
X98840675Y-43967680D01*
X98642294Y-44018615D01*
X98636352Y-44020801D01*
X98452265Y-44110586D01*
X98446883Y-44113923D01*
X98284611Y-44238890D01*
X98280011Y-44243241D01*
X98146181Y-44398284D01*
X98142549Y-44403471D01*
X98042628Y-44582258D01*
X98040113Y-44588070D01*
X97978183Y-44783297D01*
X97976888Y-44789495D01*
X97955479Y-44993188D01*
X97955457Y-44999520D01*
X88164565Y-44999520D01*
X88127154Y-44902570D01*
X88121098Y-44892745D01*
X88006495Y-44766356D01*
X87997309Y-44759370D01*
X87844890Y-44682712D01*
X87833805Y-44679501D01*
X87664008Y-44662852D01*
X87652510Y-44663848D01*
X87488104Y-44709442D01*
X87477736Y-44714510D01*
X87340765Y-44816232D01*
X87332917Y-44824693D01*
X87241751Y-44968905D01*
X87237474Y-44979624D01*
X87204335Y-45146986D01*
X87204205Y-45158526D01*
X87233538Y-45326597D01*
X87237570Y-45337411D01*
X87325441Y-45483652D01*
X87333096Y-45492289D01*
X87447001Y-45580962D01*
X87447000Y-46778101D01*
X87339631Y-46857839D01*
X87331783Y-46866300D01*
X87240617Y-47010512D01*
X87236340Y-47021231D01*
X87203201Y-47188593D01*
X87203071Y-47200133D01*
X82947016Y-47200133D01*
X82985189Y-47107520D01*
X82987566Y-47095861D01*
X82989616Y-46915225D01*
X82987504Y-46903516D01*
X82943500Y-46789475D01*
X82943500Y-44708665D01*
X82985189Y-44607520D01*
X82987566Y-44595861D01*
X82989616Y-44415225D01*
X82987504Y-44403516D01*
X82926020Y-44244177D01*
X82919964Y-44234352D01*
X82805361Y-44107963D01*
X82796175Y-44100977D01*
X82643756Y-44024319D01*
X82632671Y-44021108D01*
X82462874Y-44004459D01*
X82451376Y-44005455D01*
X82286970Y-44051049D01*
X82276602Y-44056117D01*
X82139631Y-44157839D01*
X82131783Y-44166300D01*
X82040617Y-44310512D01*
X82036340Y-44321231D01*
X82003201Y-44488593D01*
X82003071Y-44500133D01*
X61727070Y-44500133D01*
X63767683Y-42459520D01*
X97955457Y-42459520D01*
X97975443Y-42663357D01*
X97976695Y-42669564D01*
X98037260Y-42865219D01*
X98039735Y-42871048D01*
X98138405Y-43050528D01*
X98142001Y-43055740D01*
X98274745Y-43211715D01*
X98279315Y-43216097D01*
X98440711Y-43342194D01*
X98446069Y-43345568D01*
X98629524Y-43436636D01*
X98635452Y-43438864D01*
X98833471Y-43491182D01*
X98839725Y-43492173D01*
X99044220Y-43503606D01*
X99050546Y-43503319D01*
X99253163Y-43473399D01*
X99259302Y-43471846D01*
X99451764Y-43401795D01*
X99457465Y-43399039D01*
X99631912Y-43291719D01*
X99636942Y-43287873D01*
X99786245Y-43147668D01*
X99790399Y-43142889D01*
X99908462Y-42975526D01*
X99911570Y-42970009D01*
X99993567Y-42782324D01*
X99995503Y-42776295D01*
X100038098Y-42575903D01*
X100038782Y-42569498D01*
X100039166Y-42459520D01*
X100495457Y-42459520D01*
X100515443Y-42663357D01*
X100516695Y-42669564D01*
X100577260Y-42865219D01*
X100579735Y-42871048D01*
X100678405Y-43050528D01*
X100682001Y-43055740D01*
X100814745Y-43211715D01*
X100819315Y-43216097D01*
X100980711Y-43342194D01*
X100986069Y-43345568D01*
X101169524Y-43436636D01*
X101175452Y-43438864D01*
X101373471Y-43491182D01*
X101379725Y-43492173D01*
X101584220Y-43503606D01*
X101590546Y-43503319D01*
X101793163Y-43473399D01*
X101799302Y-43471846D01*
X101991764Y-43401795D01*
X101997465Y-43399039D01*
X102171912Y-43291719D01*
X102176942Y-43287873D01*
X102326245Y-43147668D01*
X102330399Y-43142889D01*
X102448462Y-42975526D01*
X102451570Y-42970009D01*
X102533567Y-42782324D01*
X102535503Y-42776295D01*
X102551226Y-42702322D01*
X103066835Y-42702322D01*
X103117260Y-42865219D01*
X103119735Y-42871048D01*
X103218405Y-43050528D01*
X103222001Y-43055740D01*
X103354745Y-43211715D01*
X103359315Y-43216097D01*
X103520711Y-43342194D01*
X103526069Y-43345568D01*
X103709524Y-43436636D01*
X103715452Y-43438864D01*
X103839768Y-43471709D01*
X103888500Y-43434181D01*
X103888501Y-42688112D01*
X103851889Y-42651500D01*
X103104305Y-42651499D01*
X103066835Y-42702322D01*
X102551226Y-42702322D01*
X102578098Y-42575903D01*
X102578782Y-42569498D01*
X102579522Y-42357756D01*
X102578882Y-42351347D01*
X102551372Y-42217326D01*
X103066422Y-42217326D01*
X103103876Y-42268500D01*
X103851888Y-42268501D01*
X103888500Y-42231889D01*
X103888501Y-41485897D01*
X103840115Y-41448364D01*
X103722294Y-41478615D01*
X103716352Y-41480801D01*
X103532265Y-41570586D01*
X103526883Y-41573923D01*
X103364611Y-41698890D01*
X103360011Y-41703241D01*
X103226181Y-41858284D01*
X103222549Y-41863471D01*
X103122628Y-42042259D01*
X103120113Y-42048070D01*
X103066422Y-42217326D01*
X102551372Y-42217326D01*
X102537687Y-42150662D01*
X102535793Y-42144620D01*
X102455109Y-41956368D01*
X102452039Y-41950829D01*
X102335148Y-41782646D01*
X102331027Y-41777838D01*
X102182706Y-41636594D01*
X102177703Y-41632713D01*
X102004011Y-41524177D01*
X101998329Y-41521381D01*
X101880306Y-41477489D01*
X102195296Y-41162500D01*
X103580889Y-41162500D01*
X103624307Y-41234759D01*
X103631962Y-41243396D01*
X103766588Y-41348200D01*
X103776839Y-41353503D01*
X103940169Y-41402814D01*
X103951641Y-41404071D01*
X104121771Y-41391278D01*
X104132927Y-41388321D01*
X104287046Y-41315139D01*
X104296389Y-41308364D01*
X104413829Y-41184607D01*
X104420106Y-41174923D01*
X104485189Y-41017020D01*
X104487566Y-41005361D01*
X104489616Y-40824725D01*
X104487504Y-40813016D01*
X104426020Y-40653677D01*
X104419964Y-40643852D01*
X104305361Y-40517463D01*
X104296175Y-40510477D01*
X104143756Y-40433819D01*
X104132671Y-40430608D01*
X103962874Y-40413959D01*
X103951376Y-40414955D01*
X103786970Y-40460549D01*
X103776602Y-40465617D01*
X103639631Y-40567339D01*
X103631782Y-40575801D01*
X103580767Y-40656500D01*
X102031227Y-40656500D01*
X102015330Y-40660759D01*
X101992844Y-40673742D01*
X101967766Y-40680461D01*
X101953514Y-40688689D01*
X101929336Y-40712868D01*
X101397197Y-41245008D01*
X101319191Y-41323014D01*
X101310963Y-41337265D01*
X101304243Y-41362344D01*
X101291259Y-41384833D01*
X101287000Y-41400728D01*
X101287000Y-41451731D01*
X101182295Y-41478615D01*
X101176352Y-41480801D01*
X100992265Y-41570586D01*
X100986883Y-41573923D01*
X100824611Y-41698890D01*
X100820011Y-41703241D01*
X100686181Y-41858284D01*
X100682549Y-41863471D01*
X100582628Y-42042258D01*
X100580113Y-42048070D01*
X100518183Y-42243297D01*
X100516888Y-42249495D01*
X100495479Y-42453188D01*
X100495457Y-42459520D01*
X100039166Y-42459520D01*
X100039522Y-42357756D01*
X100038882Y-42351347D01*
X99997687Y-42150662D01*
X99995793Y-42144620D01*
X99915109Y-41956368D01*
X99912039Y-41950829D01*
X99795148Y-41782646D01*
X99791027Y-41777838D01*
X99642706Y-41636594D01*
X99637703Y-41632713D01*
X99464011Y-41524177D01*
X99458329Y-41521382D01*
X99443500Y-41515867D01*
X99443500Y-39637823D01*
X102935479Y-36145845D01*
X103060165Y-36086640D01*
X103069508Y-36079865D01*
X103186948Y-35956108D01*
X103193225Y-35946424D01*
X103258308Y-35788521D01*
X103260685Y-35776862D01*
X103262735Y-35596226D01*
X103260623Y-35584517D01*
X103221002Y-35481836D01*
X103221771Y-35481778D01*
X103223520Y-35481315D01*
X104947001Y-37204796D01*
X104947000Y-41886027D01*
X104875148Y-41782646D01*
X104871027Y-41777838D01*
X104722706Y-41636594D01*
X104717703Y-41632713D01*
X104544011Y-41524177D01*
X104538329Y-41521381D01*
X104325161Y-41442106D01*
X104271500Y-41479401D01*
X104271499Y-42231889D01*
X104271500Y-42231890D01*
X104271499Y-43439800D01*
X104324802Y-43477124D01*
X104531765Y-43401795D01*
X104537465Y-43399039D01*
X104711912Y-43291719D01*
X104716942Y-43287873D01*
X104866245Y-43147668D01*
X104870399Y-43142889D01*
X104947000Y-43034301D01*
X104947000Y-43775205D01*
X104614181Y-44108024D01*
X104544011Y-44064177D01*
X104538329Y-44061381D01*
X104346360Y-43989989D01*
X104340232Y-43988393D01*
X104137829Y-43957059D01*
X104131505Y-43956728D01*
X103926936Y-43966733D01*
X103920675Y-43967680D01*
X103722294Y-44018615D01*
X103716352Y-44020801D01*
X103532265Y-44110586D01*
X103526883Y-44113923D01*
X103364611Y-44238890D01*
X103360011Y-44243241D01*
X103226181Y-44398284D01*
X103222549Y-44403471D01*
X103122628Y-44582258D01*
X103120113Y-44588070D01*
X103058183Y-44783297D01*
X103056888Y-44789495D01*
X103035479Y-44993188D01*
X103035457Y-44999520D01*
X103055443Y-45203357D01*
X103056695Y-45209564D01*
X103117260Y-45405219D01*
X103119735Y-45411048D01*
X103218405Y-45590528D01*
X103222001Y-45595740D01*
X103354745Y-45751715D01*
X103359315Y-45756097D01*
X103520711Y-45882194D01*
X103526069Y-45885568D01*
X103709524Y-45976636D01*
X103715452Y-45978864D01*
X103913471Y-46031182D01*
X103919725Y-46032173D01*
X104124220Y-46043606D01*
X104130546Y-46043319D01*
X104333163Y-46013399D01*
X104339302Y-46011846D01*
X104531764Y-45941795D01*
X104537465Y-45939039D01*
X104711912Y-45831719D01*
X104716942Y-45827873D01*
X104866245Y-45687668D01*
X104870399Y-45682889D01*
X104988462Y-45515526D01*
X104991570Y-45510009D01*
X105073567Y-45322324D01*
X105075503Y-45316295D01*
X105118098Y-45115903D01*
X105118782Y-45109498D01*
X105119522Y-44897756D01*
X105118882Y-44891347D01*
X105077687Y-44690662D01*
X105075793Y-44684620D01*
X104995109Y-44496368D01*
X104992039Y-44490829D01*
X104973557Y-44464238D01*
X105374293Y-44063502D01*
X105420811Y-44016986D01*
X105429039Y-44002733D01*
X105435759Y-43977654D01*
X105448740Y-43955170D01*
X105453000Y-43939274D01*
X105453000Y-37071087D01*
X105452999Y-37071079D01*
X105452999Y-37040727D01*
X105448740Y-37024831D01*
X105435759Y-37002347D01*
X105429039Y-36977266D01*
X105420810Y-36963014D01*
X105334013Y-36876217D01*
X105334011Y-36876216D01*
X103579388Y-35121593D01*
X103585189Y-35107520D01*
X103587566Y-35095861D01*
X103589616Y-34915225D01*
X103587504Y-34903516D01*
X103526020Y-34744177D01*
X103519964Y-34734352D01*
X103405361Y-34607963D01*
X103396175Y-34600977D01*
X103243756Y-34524319D01*
X103232671Y-34521108D01*
X103062874Y-34504459D01*
X103051376Y-34505455D01*
X102886970Y-34551049D01*
X102876602Y-34556117D01*
X102739631Y-34657839D01*
X102731783Y-34666300D01*
X102640617Y-34810512D01*
X102636340Y-34821231D01*
X102603201Y-34988593D01*
X102603071Y-35000133D01*
X102632404Y-35168204D01*
X102636436Y-35179018D01*
X102652845Y-35206326D01*
X102560089Y-35232050D01*
X102549721Y-35237118D01*
X102412750Y-35338840D01*
X102404902Y-35347301D01*
X102313736Y-35491513D01*
X102309459Y-35502232D01*
X102305700Y-35521216D01*
X98717287Y-39109630D01*
X98685474Y-39130887D01*
X98676768Y-39139593D01*
X98652092Y-39176523D01*
X98585719Y-39275857D01*
X98581008Y-39287231D01*
X98549036Y-39447964D01*
X98549036Y-39460276D01*
X98556501Y-39497804D01*
X98556500Y-41519747D01*
X98452265Y-41570586D01*
X98446883Y-41573923D01*
X98284611Y-41698890D01*
X98280011Y-41703241D01*
X98146181Y-41858284D01*
X98142549Y-41863471D01*
X98042628Y-42042258D01*
X98040113Y-42048070D01*
X97978183Y-42243297D01*
X97976888Y-42249495D01*
X97955479Y-42453188D01*
X97955457Y-42459520D01*
X63767683Y-42459520D01*
X65662358Y-40564845D01*
X65787046Y-40505639D01*
X65796389Y-40498864D01*
X65913829Y-40375107D01*
X65920106Y-40365423D01*
X65985189Y-40207520D01*
X65987566Y-40195861D01*
X65989616Y-40015225D01*
X65987504Y-40003516D01*
X65926020Y-39844177D01*
X65919964Y-39834352D01*
X65805361Y-39707963D01*
X65796175Y-39700977D01*
X65643756Y-39624319D01*
X65632671Y-39621108D01*
X65462874Y-39604459D01*
X65451376Y-39605455D01*
X65286970Y-39651049D01*
X65276602Y-39656117D01*
X65139631Y-39757839D01*
X65131783Y-39766300D01*
X65040617Y-39910512D01*
X65036340Y-39921230D01*
X65032580Y-39940217D01*
X54417287Y-50555510D01*
X54385474Y-50576767D01*
X54376768Y-50585473D01*
X54352092Y-50622403D01*
X54285719Y-50721737D01*
X54281008Y-50733111D01*
X54249036Y-50893844D01*
X54249036Y-50906156D01*
X54256501Y-50943684D01*
X54256500Y-52085387D01*
X54240617Y-52110512D01*
X54236340Y-52121231D01*
X54203201Y-52288593D01*
X54203071Y-52300133D01*
X45190078Y-52300133D01*
X45190078Y-40442788D01*
X45189857Y-40439075D01*
X45150391Y-40109000D01*
X45148889Y-40102470D01*
X45044732Y-39801525D01*
X45042258Y-39796108D01*
X44883214Y-39520637D01*
X44879760Y-39515786D01*
X44671458Y-39275392D01*
X44667148Y-39271283D01*
X44417115Y-39074655D01*
X44412105Y-39071436D01*
X44129378Y-38925680D01*
X44123850Y-38923466D01*
X43818648Y-38833851D01*
X43812801Y-38832724D01*
X43575490Y-38810064D01*
X43572518Y-38809922D01*
X40442788Y-38809922D01*
X40439075Y-38810143D01*
X40109000Y-38849609D01*
X40102470Y-38851111D01*
X39801525Y-38955268D01*
X39796108Y-38957742D01*
X39520637Y-39116786D01*
X39515786Y-39120240D01*
X39275392Y-39328542D01*
X39271283Y-39332852D01*
X39074655Y-39582885D01*
X39071436Y-39587895D01*
X38925680Y-39870622D01*
X38923466Y-39876150D01*
X38833851Y-40181352D01*
X38832724Y-40187199D01*
X38810064Y-40424510D01*
X38809922Y-40427482D01*
X25188471Y-40427482D01*
X25150391Y-40109000D01*
X25148889Y-40102470D01*
X25044732Y-39801525D01*
X25042258Y-39796108D01*
X24883214Y-39520637D01*
X24879760Y-39515786D01*
X24671458Y-39275392D01*
X24667148Y-39271283D01*
X24417115Y-39074655D01*
X24412105Y-39071436D01*
X24129378Y-38925680D01*
X24123850Y-38923466D01*
X23818648Y-38833851D01*
X23812801Y-38832724D01*
X23575490Y-38810064D01*
X23572518Y-38809922D01*
X22228112Y-38809922D01*
X22191500Y-38846534D01*
X21808500Y-38846534D01*
X21771888Y-38809922D01*
X20442788Y-38809922D01*
X20439075Y-38810143D01*
X20109000Y-38849609D01*
X20102470Y-38851111D01*
X19801525Y-38955268D01*
X19796108Y-38957742D01*
X19520637Y-39116786D01*
X19515786Y-39120240D01*
X19275392Y-39328542D01*
X19271283Y-39332852D01*
X19074655Y-39582885D01*
X19071436Y-39587895D01*
X18925680Y-39870622D01*
X18923466Y-39876150D01*
X18833851Y-40181352D01*
X18832724Y-40187199D01*
X18810064Y-40424510D01*
X18809922Y-40427482D01*
X12189500Y-40427482D01*
X12189500Y-31000133D01*
X77403071Y-31000133D01*
X77432404Y-31168204D01*
X77436436Y-31179018D01*
X77524307Y-31325259D01*
X77531962Y-31333896D01*
X77666588Y-31438700D01*
X77676839Y-31444003D01*
X77840169Y-31493314D01*
X77851641Y-31494571D01*
X78021771Y-31481778D01*
X78032927Y-31478821D01*
X78187046Y-31405639D01*
X78196389Y-31398864D01*
X78313829Y-31275107D01*
X78320106Y-31265423D01*
X78385189Y-31107520D01*
X78387566Y-31095861D01*
X78389616Y-30915225D01*
X78387504Y-30903516D01*
X78378254Y-30879542D01*
X79104796Y-30153000D01*
X80884500Y-30153000D01*
X80924307Y-30219249D01*
X80931962Y-30227886D01*
X81066588Y-30332690D01*
X81076839Y-30337993D01*
X81240169Y-30387304D01*
X81251641Y-30388561D01*
X81421771Y-30375768D01*
X81432927Y-30372811D01*
X81587046Y-30299629D01*
X81596389Y-30292854D01*
X81628953Y-30258539D01*
X81603201Y-30388593D01*
X81603071Y-30400133D01*
X81632404Y-30568204D01*
X81636436Y-30579018D01*
X81724307Y-30725259D01*
X81731962Y-30733896D01*
X81866588Y-30838700D01*
X81876839Y-30844003D01*
X82040169Y-30893314D01*
X82051641Y-30894571D01*
X82221771Y-30881778D01*
X82232927Y-30878821D01*
X82387046Y-30805639D01*
X82396389Y-30798864D01*
X82513829Y-30675107D01*
X82520106Y-30665423D01*
X82525226Y-30653000D01*
X83619797Y-30653000D01*
X83267850Y-31004947D01*
X83262875Y-31004459D01*
X83251376Y-31005455D01*
X83086970Y-31051049D01*
X83076602Y-31056117D01*
X82939631Y-31157839D01*
X82931783Y-31166300D01*
X82840617Y-31310512D01*
X82836340Y-31321231D01*
X82803201Y-31488593D01*
X82803071Y-31500133D01*
X82832404Y-31668204D01*
X82836436Y-31679018D01*
X82924307Y-31825259D01*
X82931962Y-31833896D01*
X83066588Y-31938700D01*
X83076839Y-31944003D01*
X83240169Y-31993314D01*
X83251641Y-31994571D01*
X83275358Y-31992788D01*
X78921147Y-36347000D01*
X78827109Y-36347000D01*
X78826020Y-36344177D01*
X78819964Y-36334352D01*
X78705361Y-36207963D01*
X78696175Y-36200977D01*
X78543756Y-36124319D01*
X78532671Y-36121108D01*
X78362874Y-36104459D01*
X78351376Y-36105455D01*
X78186970Y-36151049D01*
X78176602Y-36156117D01*
X78039631Y-36257839D01*
X78031783Y-36266300D01*
X77940617Y-36410512D01*
X77936340Y-36421231D01*
X77903201Y-36588593D01*
X77903071Y-36600133D01*
X77932404Y-36768204D01*
X77936436Y-36779018D01*
X78024307Y-36925259D01*
X78031962Y-36933896D01*
X78166588Y-37038700D01*
X78176839Y-37044003D01*
X78340169Y-37093314D01*
X78351641Y-37094571D01*
X78521771Y-37081778D01*
X78532927Y-37078821D01*
X78687046Y-37005639D01*
X78696389Y-36998864D01*
X78813829Y-36875107D01*
X78820106Y-36865423D01*
X78825226Y-36853000D01*
X79085214Y-36853000D01*
X79101111Y-36848741D01*
X79123595Y-36835759D01*
X79148675Y-36829039D01*
X79162928Y-36820811D01*
X79249725Y-36734013D01*
X79249726Y-36734011D01*
X85425836Y-30557902D01*
X87777621Y-30557902D01*
X87821039Y-30630161D01*
X87828694Y-30638798D01*
X87963320Y-30743602D01*
X87973571Y-30748905D01*
X88136901Y-30798216D01*
X88148373Y-30799473D01*
X88318503Y-30786680D01*
X88329659Y-30783723D01*
X88483778Y-30710541D01*
X88493121Y-30703766D01*
X88610561Y-30580009D01*
X88616838Y-30570325D01*
X88681921Y-30412422D01*
X88684298Y-30400763D01*
X88686348Y-30220127D01*
X88684236Y-30208418D01*
X88675305Y-30185272D01*
X88721771Y-30181778D01*
X88732927Y-30178821D01*
X88887046Y-30105639D01*
X88896389Y-30098864D01*
X89013829Y-29975107D01*
X89020106Y-29965423D01*
X89085189Y-29807520D01*
X89087566Y-29795861D01*
X89088905Y-29677837D01*
X89140169Y-29693314D01*
X89151641Y-29694571D01*
X89321771Y-29681778D01*
X89332927Y-29678821D01*
X89487046Y-29605639D01*
X89496389Y-29598864D01*
X89613829Y-29475107D01*
X89620106Y-29465423D01*
X89685189Y-29307520D01*
X89687566Y-29295861D01*
X89689616Y-29115225D01*
X89687504Y-29103516D01*
X89626020Y-28944177D01*
X89619964Y-28934352D01*
X89505361Y-28807963D01*
X89496175Y-28800977D01*
X89343756Y-28724319D01*
X89332671Y-28721108D01*
X89162874Y-28704459D01*
X89151376Y-28705455D01*
X88986970Y-28751049D01*
X88976602Y-28756117D01*
X88839631Y-28857839D01*
X88831782Y-28866301D01*
X88780767Y-28947000D01*
X88340727Y-28947000D01*
X88324830Y-28951259D01*
X88302344Y-28964242D01*
X88277266Y-28970961D01*
X88263014Y-28979189D01*
X88238836Y-29003368D01*
X88095205Y-29147000D01*
X84371087Y-29147000D01*
X84371079Y-29147001D01*
X84340727Y-29147001D01*
X84324831Y-29151260D01*
X84302347Y-29164241D01*
X84277266Y-29170961D01*
X84263014Y-29179190D01*
X84176217Y-29265987D01*
X84176216Y-29265989D01*
X83801215Y-29640990D01*
X81727109Y-29640990D01*
X81726020Y-29638167D01*
X81719964Y-29628342D01*
X81605361Y-29501953D01*
X81596175Y-29494967D01*
X81443756Y-29418309D01*
X81432671Y-29415098D01*
X81262874Y-29398449D01*
X81251376Y-29399445D01*
X81086970Y-29445039D01*
X81076602Y-29450107D01*
X80939632Y-29551829D01*
X80931783Y-29560290D01*
X80876967Y-29647000D01*
X78940727Y-29647000D01*
X78924830Y-29651259D01*
X78902344Y-29664242D01*
X78877266Y-29670961D01*
X78863014Y-29679189D01*
X78838836Y-29703368D01*
X78022130Y-30520074D01*
X77862874Y-30504459D01*
X77851376Y-30505455D01*
X77686970Y-30551049D01*
X77676602Y-30556117D01*
X77539631Y-30657839D01*
X77531783Y-30666300D01*
X77440617Y-30810512D01*
X77436340Y-30821231D01*
X77403201Y-30988593D01*
X77403071Y-31000133D01*
X12189500Y-31000133D01*
X12189500Y-22862323D01*
X20986835Y-22862323D01*
X21037260Y-23025219D01*
X21039735Y-23031048D01*
X21138405Y-23210528D01*
X21142001Y-23215740D01*
X21274745Y-23371715D01*
X21279315Y-23376097D01*
X21440711Y-23502194D01*
X21446069Y-23505568D01*
X21629524Y-23596636D01*
X21635452Y-23598864D01*
X21759768Y-23631709D01*
X21808500Y-23594181D01*
X21808500Y-22848112D01*
X22191500Y-22848112D01*
X22191500Y-23599799D01*
X22244803Y-23637123D01*
X22451764Y-23561795D01*
X22457465Y-23559039D01*
X22631912Y-23451719D01*
X22636942Y-23447873D01*
X22786245Y-23307668D01*
X22790399Y-23302889D01*
X22908462Y-23135526D01*
X22911570Y-23130009D01*
X22993567Y-22942324D01*
X22995503Y-22936295D01*
X23011226Y-22862323D01*
X54986835Y-22862323D01*
X55037260Y-23025219D01*
X55039735Y-23031048D01*
X55138405Y-23210528D01*
X55142001Y-23215740D01*
X55274745Y-23371715D01*
X55279315Y-23376097D01*
X55440711Y-23502194D01*
X55446069Y-23505568D01*
X55629524Y-23596636D01*
X55635452Y-23598864D01*
X55759768Y-23631709D01*
X55808500Y-23594181D01*
X55808500Y-22848112D01*
X56191500Y-22848112D01*
X56191500Y-23599799D01*
X56244803Y-23637123D01*
X56451764Y-23561795D01*
X56457465Y-23559039D01*
X56631912Y-23451719D01*
X56636942Y-23447873D01*
X56786245Y-23307668D01*
X56790399Y-23302889D01*
X56908462Y-23135526D01*
X56911570Y-23130009D01*
X56993567Y-22942324D01*
X56995503Y-22936295D01*
X57012180Y-22857835D01*
X56974659Y-22811500D01*
X56228112Y-22811500D01*
X56191500Y-22848112D01*
X55808500Y-22848112D01*
X55771888Y-22811500D01*
X55024305Y-22811500D01*
X54986835Y-22862323D01*
X23011226Y-22862323D01*
X23012180Y-22857835D01*
X22974659Y-22811500D01*
X22228112Y-22811500D01*
X22191500Y-22848112D01*
X21808500Y-22848112D01*
X21771888Y-22811500D01*
X21024305Y-22811500D01*
X20986835Y-22862323D01*
X12189500Y-22862323D01*
X12189500Y-22377326D01*
X20986422Y-22377326D01*
X21023876Y-22428500D01*
X21771888Y-22428500D01*
X21808500Y-22391888D01*
X21808500Y-21645897D01*
X21800126Y-21639401D01*
X22191500Y-21639401D01*
X22191500Y-22391888D01*
X22228112Y-22428500D01*
X22974920Y-22428500D01*
X23012434Y-22382504D01*
X23011372Y-22377326D01*
X54986422Y-22377326D01*
X55023876Y-22428500D01*
X55771888Y-22428500D01*
X55808500Y-22391888D01*
X55808500Y-21645897D01*
X55800126Y-21639401D01*
X56191500Y-21639401D01*
X56191500Y-22391888D01*
X56228112Y-22428500D01*
X56974920Y-22428500D01*
X57012434Y-22382504D01*
X56997687Y-22310662D01*
X56995793Y-22304620D01*
X56915109Y-22116368D01*
X56912039Y-22110829D01*
X56795148Y-21942646D01*
X56791027Y-21937838D01*
X56642706Y-21796594D01*
X56637703Y-21792713D01*
X56464011Y-21684177D01*
X56458329Y-21681381D01*
X56245161Y-21602106D01*
X56191500Y-21639401D01*
X55800126Y-21639401D01*
X55760113Y-21608364D01*
X55642294Y-21638615D01*
X55636351Y-21640801D01*
X55452265Y-21730586D01*
X55446883Y-21733923D01*
X55284611Y-21858890D01*
X55280011Y-21863241D01*
X55146181Y-22018284D01*
X55142549Y-22023471D01*
X55042628Y-22202259D01*
X55040113Y-22208070D01*
X54986422Y-22377326D01*
X23011372Y-22377326D01*
X22997687Y-22310662D01*
X22995793Y-22304620D01*
X22915109Y-22116368D01*
X22912039Y-22110829D01*
X22795148Y-21942646D01*
X22791027Y-21937838D01*
X22642706Y-21796594D01*
X22637703Y-21792713D01*
X22464011Y-21684177D01*
X22458329Y-21681381D01*
X22245161Y-21602106D01*
X22191500Y-21639401D01*
X21800126Y-21639401D01*
X21760113Y-21608364D01*
X21642294Y-21638615D01*
X21636351Y-21640801D01*
X21452265Y-21730586D01*
X21446883Y-21733923D01*
X21284611Y-21858890D01*
X21280011Y-21863241D01*
X21146181Y-22018284D01*
X21142549Y-22023471D01*
X21042628Y-22202259D01*
X21040113Y-22208070D01*
X20986422Y-22377326D01*
X12189500Y-22377326D01*
X12189500Y-20079520D01*
X20955457Y-20079520D01*
X20975443Y-20283357D01*
X20976695Y-20289564D01*
X21037260Y-20485219D01*
X21039735Y-20491048D01*
X21138405Y-20670528D01*
X21142001Y-20675740D01*
X21274745Y-20831715D01*
X21279315Y-20836097D01*
X21440711Y-20962194D01*
X21446069Y-20965568D01*
X21629524Y-21056636D01*
X21635452Y-21058864D01*
X21833471Y-21111182D01*
X21839725Y-21112173D01*
X22044220Y-21123606D01*
X22050546Y-21123319D01*
X22253163Y-21093399D01*
X22259302Y-21091846D01*
X22451764Y-21021795D01*
X22457465Y-21019039D01*
X22631912Y-20911719D01*
X22636942Y-20907873D01*
X22786245Y-20767668D01*
X22790399Y-20762889D01*
X22908462Y-20595526D01*
X22911570Y-20590009D01*
X22993567Y-20402324D01*
X22995503Y-20396295D01*
X23038098Y-20195903D01*
X23038782Y-20189498D01*
X23039166Y-20079520D01*
X54955457Y-20079520D01*
X54975443Y-20283357D01*
X54976695Y-20289564D01*
X55037260Y-20485219D01*
X55039735Y-20491048D01*
X55138405Y-20670528D01*
X55142001Y-20675740D01*
X55274745Y-20831715D01*
X55279315Y-20836097D01*
X55440711Y-20962194D01*
X55446069Y-20965568D01*
X55629524Y-21056636D01*
X55635452Y-21058864D01*
X55833471Y-21111182D01*
X55839725Y-21112173D01*
X56044220Y-21123606D01*
X56050546Y-21123319D01*
X56253163Y-21093399D01*
X56259302Y-21091846D01*
X56451764Y-21021795D01*
X56457465Y-21019039D01*
X56631912Y-20911719D01*
X56636942Y-20907873D01*
X56786245Y-20767668D01*
X56790399Y-20762889D01*
X56908462Y-20595526D01*
X56911570Y-20590009D01*
X56993567Y-20402324D01*
X56995503Y-20396295D01*
X57038098Y-20195903D01*
X57038782Y-20189498D01*
X57039522Y-19977756D01*
X57038882Y-19971347D01*
X56997687Y-19770662D01*
X56995793Y-19764620D01*
X56915109Y-19576368D01*
X56912039Y-19570829D01*
X56795148Y-19402646D01*
X56791027Y-19397838D01*
X56642706Y-19256594D01*
X56637703Y-19252713D01*
X56464011Y-19144177D01*
X56458329Y-19141381D01*
X56266360Y-19069989D01*
X56260232Y-19068393D01*
X56057829Y-19037059D01*
X56051505Y-19036728D01*
X55846936Y-19046733D01*
X55840675Y-19047680D01*
X55642294Y-19098615D01*
X55636352Y-19100801D01*
X55452265Y-19190586D01*
X55446883Y-19193923D01*
X55284611Y-19318890D01*
X55280011Y-19323241D01*
X55146181Y-19478284D01*
X55142549Y-19483471D01*
X55042628Y-19662258D01*
X55040113Y-19668070D01*
X54978183Y-19863297D01*
X54976888Y-19869495D01*
X54955479Y-20073188D01*
X54955457Y-20079520D01*
X23039166Y-20079520D01*
X23039522Y-19977756D01*
X23038882Y-19971347D01*
X22997687Y-19770662D01*
X22995793Y-19764620D01*
X22915109Y-19576368D01*
X22912039Y-19570829D01*
X22795148Y-19402646D01*
X22791027Y-19397838D01*
X22642706Y-19256594D01*
X22637703Y-19252713D01*
X22464011Y-19144177D01*
X22458329Y-19141381D01*
X22266360Y-19069989D01*
X22260232Y-19068393D01*
X22057829Y-19037059D01*
X22051505Y-19036728D01*
X21846936Y-19046733D01*
X21840675Y-19047680D01*
X21642294Y-19098615D01*
X21636352Y-19100801D01*
X21452265Y-19190586D01*
X21446883Y-19193923D01*
X21284611Y-19318890D01*
X21280011Y-19323241D01*
X21146181Y-19478284D01*
X21142549Y-19483471D01*
X21042628Y-19662258D01*
X21040113Y-19668070D01*
X20978183Y-19863297D01*
X20976888Y-19869495D01*
X20955479Y-20073188D01*
X20955457Y-20079520D01*
X12189500Y-20079520D01*
X12189500Y-17539520D01*
X20955457Y-17539520D01*
X20975443Y-17743357D01*
X20976695Y-17749564D01*
X21037260Y-17945219D01*
X21039735Y-17951048D01*
X21138405Y-18130528D01*
X21142001Y-18135740D01*
X21274745Y-18291715D01*
X21279315Y-18296097D01*
X21440711Y-18422194D01*
X21446069Y-18425568D01*
X21629524Y-18516636D01*
X21635452Y-18518864D01*
X21833471Y-18571182D01*
X21839725Y-18572173D01*
X22044220Y-18583606D01*
X22050546Y-18583319D01*
X22253163Y-18553399D01*
X22259302Y-18551846D01*
X22451764Y-18481795D01*
X22457465Y-18479039D01*
X22631912Y-18371719D01*
X22636942Y-18367873D01*
X22786245Y-18227668D01*
X22790399Y-18222889D01*
X22908462Y-18055526D01*
X22911570Y-18050009D01*
X22993567Y-17862324D01*
X22995503Y-17856295D01*
X23038098Y-17655903D01*
X23038782Y-17649498D01*
X23039166Y-17539520D01*
X54955457Y-17539520D01*
X54975443Y-17743357D01*
X54976695Y-17749564D01*
X55037260Y-17945219D01*
X55039735Y-17951048D01*
X55138405Y-18130528D01*
X55142001Y-18135740D01*
X55274745Y-18291715D01*
X55279315Y-18296097D01*
X55440711Y-18422194D01*
X55446069Y-18425568D01*
X55629524Y-18516636D01*
X55635452Y-18518864D01*
X55833471Y-18571182D01*
X55839725Y-18572173D01*
X56044220Y-18583606D01*
X56050546Y-18583319D01*
X56253163Y-18553399D01*
X56259302Y-18551846D01*
X56401381Y-18500133D01*
X71503071Y-18500133D01*
X71532404Y-18668204D01*
X71536436Y-18679018D01*
X71624307Y-18825259D01*
X71631962Y-18833896D01*
X71766588Y-18938700D01*
X71776839Y-18944003D01*
X71940169Y-18993314D01*
X71951641Y-18994571D01*
X72121771Y-18981778D01*
X72123520Y-18981315D01*
X72266717Y-19124512D01*
X72266718Y-19124514D01*
X72353515Y-19211312D01*
X72367768Y-19219540D01*
X72392847Y-19226260D01*
X72415331Y-19239241D01*
X72431227Y-19243501D01*
X94572472Y-19243501D01*
X95238982Y-19910012D01*
X95238983Y-28633657D01*
X95238982Y-28633661D01*
X95238982Y-28751254D01*
X95243241Y-28767149D01*
X95256225Y-28789638D01*
X95262945Y-28814717D01*
X95271173Y-28828968D01*
X95295350Y-28853145D01*
X96402779Y-29960575D01*
X96402780Y-33297454D01*
X96402779Y-33297458D01*
X96402779Y-33415051D01*
X96407038Y-33430946D01*
X96420022Y-33453435D01*
X96426742Y-33478514D01*
X96434970Y-33492765D01*
X96459147Y-33516942D01*
X96824290Y-33882086D01*
X96803201Y-33988593D01*
X96803071Y-34000133D01*
X96832404Y-34168204D01*
X96836436Y-34179018D01*
X96924307Y-34325259D01*
X96931962Y-34333896D01*
X97066588Y-34438700D01*
X97076839Y-34444003D01*
X97240169Y-34493314D01*
X97251641Y-34494571D01*
X97421771Y-34481778D01*
X97432927Y-34478821D01*
X97587046Y-34405639D01*
X97596389Y-34398864D01*
X97713829Y-34275107D01*
X97720106Y-34265423D01*
X97785189Y-34107520D01*
X97787566Y-34095861D01*
X97789616Y-33915225D01*
X97787504Y-33903516D01*
X97726020Y-33744177D01*
X97719964Y-33734352D01*
X97605361Y-33607963D01*
X97596175Y-33600977D01*
X97443756Y-33524319D01*
X97432671Y-33521108D01*
X97262874Y-33504459D01*
X97251376Y-33505455D01*
X97182383Y-33524588D01*
X96908779Y-33250984D01*
X96908779Y-31582026D01*
X97029378Y-31675910D01*
X97039629Y-31681213D01*
X97202959Y-31730524D01*
X97214431Y-31731781D01*
X97384561Y-31718988D01*
X97395717Y-31716031D01*
X97549836Y-31642849D01*
X97559179Y-31636074D01*
X97676619Y-31512317D01*
X97682896Y-31502633D01*
X97747979Y-31344730D01*
X97750356Y-31333071D01*
X97752406Y-31152435D01*
X97750294Y-31140726D01*
X97688810Y-30981387D01*
X97682754Y-30971562D01*
X97642532Y-30927204D01*
X97687336Y-30905929D01*
X97696679Y-30899154D01*
X97814119Y-30775397D01*
X97820396Y-30765713D01*
X97885479Y-30607810D01*
X97887856Y-30596151D01*
X97889906Y-30415515D01*
X97887794Y-30403806D01*
X97826310Y-30244467D01*
X97820254Y-30234642D01*
X97705651Y-30108253D01*
X97696465Y-30101267D01*
X97653290Y-30079552D01*
X97653290Y-29822569D01*
X97649031Y-29806672D01*
X97636048Y-29784186D01*
X97629329Y-29759108D01*
X97625803Y-29753000D01*
X98280889Y-29753000D01*
X98324307Y-29825259D01*
X98331962Y-29833896D01*
X98466588Y-29938700D01*
X98476839Y-29944003D01*
X98640169Y-29993314D01*
X98651641Y-29994571D01*
X98821771Y-29981778D01*
X98832927Y-29978821D01*
X98987046Y-29905639D01*
X98996389Y-29898864D01*
X99113829Y-29775107D01*
X99120106Y-29765423D01*
X99185189Y-29607520D01*
X99187566Y-29595861D01*
X99189616Y-29415225D01*
X99187504Y-29403516D01*
X99133090Y-29262499D01*
X100304704Y-29262499D01*
X102624290Y-31582086D01*
X102603201Y-31688593D01*
X102603071Y-31700133D01*
X102632404Y-31868204D01*
X102636436Y-31879018D01*
X102724307Y-32025259D01*
X102731962Y-32033896D01*
X102866588Y-32138700D01*
X102876839Y-32144003D01*
X103040169Y-32193314D01*
X103051641Y-32194571D01*
X103221771Y-32181778D01*
X103232927Y-32178821D01*
X103387046Y-32105639D01*
X103396389Y-32098864D01*
X103465002Y-32026560D01*
X103524307Y-32125259D01*
X103531962Y-32133896D01*
X103666588Y-32238700D01*
X103676839Y-32244003D01*
X103840169Y-32293314D01*
X103851641Y-32294571D01*
X104021771Y-32281778D01*
X104032927Y-32278821D01*
X104187046Y-32205639D01*
X104196389Y-32198864D01*
X104313829Y-32075107D01*
X104320106Y-32065423D01*
X104385189Y-31907520D01*
X104387566Y-31895861D01*
X104389616Y-31715225D01*
X104387504Y-31703516D01*
X104326020Y-31544177D01*
X104319964Y-31534352D01*
X104205361Y-31407963D01*
X104196175Y-31400977D01*
X104043756Y-31324319D01*
X104032671Y-31321108D01*
X103862874Y-31304459D01*
X103851376Y-31305455D01*
X103782384Y-31324588D01*
X103153000Y-30695205D01*
X103153000Y-27300133D01*
X104503071Y-27300133D01*
X104532404Y-27468204D01*
X104536436Y-27479018D01*
X104624307Y-27625259D01*
X104631962Y-27633896D01*
X104747000Y-27723451D01*
X104747001Y-30271080D01*
X104747000Y-30271088D01*
X104747001Y-32778101D01*
X104639631Y-32857839D01*
X104631783Y-32866300D01*
X104540617Y-33010512D01*
X104536340Y-33021231D01*
X104503201Y-33188593D01*
X104503071Y-33200133D01*
X104532404Y-33368204D01*
X104536436Y-33379018D01*
X104624307Y-33525259D01*
X104631962Y-33533896D01*
X104766588Y-33638700D01*
X104776839Y-33644003D01*
X104940169Y-33693314D01*
X104951641Y-33694571D01*
X105121771Y-33681778D01*
X105132927Y-33678821D01*
X105287046Y-33605639D01*
X105296389Y-33598864D01*
X105413829Y-33475107D01*
X105420106Y-33465423D01*
X105485189Y-33307520D01*
X105487566Y-33295861D01*
X105489616Y-33115225D01*
X105487504Y-33103516D01*
X105426020Y-32944177D01*
X105419964Y-32934352D01*
X105305361Y-32807963D01*
X105296175Y-32800977D01*
X105253000Y-32779262D01*
X105253000Y-30716085D01*
X105324307Y-30834759D01*
X105331962Y-30843396D01*
X105466588Y-30948200D01*
X105476839Y-30953503D01*
X105640169Y-31002814D01*
X105651641Y-31004071D01*
X105821771Y-30991278D01*
X105832927Y-30988321D01*
X105987046Y-30915139D01*
X105996389Y-30908364D01*
X106113829Y-30784607D01*
X106120106Y-30774923D01*
X106150932Y-30700133D01*
X108003071Y-30700133D01*
X108032404Y-30868204D01*
X108036436Y-30879018D01*
X108124307Y-31025259D01*
X108131962Y-31033896D01*
X108247001Y-31123452D01*
X108247000Y-36178101D01*
X108139631Y-36257839D01*
X108131783Y-36266300D01*
X108040617Y-36410512D01*
X108036340Y-36421231D01*
X108003201Y-36588593D01*
X108003071Y-36600133D01*
X108032404Y-36768204D01*
X108036436Y-36779018D01*
X108124307Y-36925259D01*
X108131962Y-36933896D01*
X108266588Y-37038700D01*
X108276839Y-37044003D01*
X108440169Y-37093314D01*
X108451641Y-37094571D01*
X108621771Y-37081778D01*
X108632927Y-37078821D01*
X108787046Y-37005639D01*
X108796389Y-36998864D01*
X108913829Y-36875107D01*
X108920106Y-36865423D01*
X108985189Y-36707520D01*
X108987566Y-36695861D01*
X108989616Y-36515225D01*
X108987504Y-36503516D01*
X108926020Y-36344177D01*
X108919964Y-36334352D01*
X108805361Y-36207963D01*
X108796175Y-36200977D01*
X108753000Y-36179262D01*
X108753000Y-31121805D01*
X108787046Y-31105639D01*
X108796389Y-31098864D01*
X108913829Y-30975107D01*
X108920106Y-30965423D01*
X108985189Y-30807520D01*
X108987566Y-30795861D01*
X108989616Y-30615225D01*
X108987504Y-30603516D01*
X108926020Y-30444177D01*
X108919964Y-30434352D01*
X108805361Y-30307963D01*
X108796175Y-30300977D01*
X108643756Y-30224319D01*
X108632671Y-30221108D01*
X108462874Y-30204459D01*
X108451376Y-30205455D01*
X108286970Y-30251049D01*
X108276602Y-30256117D01*
X108139631Y-30357839D01*
X108131783Y-30366300D01*
X108040617Y-30510512D01*
X108036340Y-30521231D01*
X108003201Y-30688593D01*
X108003071Y-30700133D01*
X106150932Y-30700133D01*
X106185189Y-30617020D01*
X106187566Y-30605361D01*
X106189616Y-30424725D01*
X106187504Y-30413015D01*
X106178253Y-30389042D01*
X107034011Y-29533284D01*
X107034013Y-29533283D01*
X107120811Y-29446486D01*
X107129039Y-29432233D01*
X107135759Y-29407154D01*
X107148740Y-29384670D01*
X107153000Y-29368774D01*
X107153000Y-28521805D01*
X107187046Y-28505639D01*
X107196389Y-28498864D01*
X107313829Y-28375107D01*
X107320106Y-28365423D01*
X107385189Y-28207520D01*
X107387566Y-28195861D01*
X107389616Y-28015225D01*
X107387504Y-28003516D01*
X107326020Y-27844177D01*
X107319964Y-27834352D01*
X107205361Y-27707963D01*
X107196175Y-27700977D01*
X107043756Y-27624319D01*
X107032671Y-27621108D01*
X106862874Y-27604459D01*
X106851376Y-27605455D01*
X106686970Y-27651049D01*
X106676602Y-27656117D01*
X106539631Y-27757839D01*
X106531783Y-27766300D01*
X106440617Y-27910512D01*
X106436340Y-27921231D01*
X106403201Y-28088593D01*
X106403071Y-28100133D01*
X106432404Y-28268204D01*
X106436436Y-28279018D01*
X106524307Y-28425259D01*
X106531962Y-28433896D01*
X106647000Y-28523451D01*
X106647001Y-29204704D01*
X105822131Y-30029574D01*
X105662874Y-30013959D01*
X105651376Y-30014955D01*
X105486970Y-30060549D01*
X105476602Y-30065617D01*
X105339631Y-30167339D01*
X105331783Y-30175800D01*
X105253000Y-30300424D01*
X105253000Y-27721805D01*
X105287046Y-27705639D01*
X105296389Y-27698864D01*
X105413829Y-27575107D01*
X105420106Y-27565423D01*
X105485189Y-27407520D01*
X105487566Y-27395861D01*
X105489616Y-27215225D01*
X105487504Y-27203516D01*
X105426020Y-27044177D01*
X105419964Y-27034352D01*
X105305361Y-26907963D01*
X105296175Y-26900977D01*
X105143756Y-26824319D01*
X105132671Y-26821108D01*
X104962874Y-26804459D01*
X104951376Y-26805455D01*
X104786970Y-26851049D01*
X104776602Y-26856117D01*
X104639631Y-26957839D01*
X104631783Y-26966300D01*
X104540617Y-27110512D01*
X104536340Y-27121231D01*
X104503201Y-27288593D01*
X104503071Y-27300133D01*
X103153000Y-27300133D01*
X103153000Y-26321805D01*
X103187046Y-26305639D01*
X103196389Y-26298864D01*
X103313829Y-26175107D01*
X103320106Y-26165423D01*
X103385189Y-26007520D01*
X103387566Y-25995861D01*
X103389616Y-25815225D01*
X103387504Y-25803516D01*
X103326020Y-25644177D01*
X103319964Y-25634352D01*
X103205361Y-25507963D01*
X103196175Y-25500977D01*
X103043756Y-25424319D01*
X103032671Y-25421108D01*
X102862874Y-25404459D01*
X102851376Y-25405455D01*
X102686970Y-25451049D01*
X102676602Y-25456117D01*
X102539631Y-25557839D01*
X102531783Y-25566300D01*
X102440617Y-25710512D01*
X102436340Y-25721231D01*
X102403201Y-25888593D01*
X102403071Y-25900133D01*
X102432404Y-26068204D01*
X102436436Y-26079018D01*
X102524307Y-26225259D01*
X102531962Y-26233896D01*
X102647000Y-26323451D01*
X102647001Y-28871080D01*
X102647000Y-28871088D01*
X102647001Y-30741675D01*
X102647000Y-30741679D01*
X102647000Y-30859272D01*
X102651259Y-30875167D01*
X102664243Y-30897656D01*
X102667461Y-30909665D01*
X100633283Y-28875488D01*
X100633282Y-28875486D01*
X100546485Y-28788688D01*
X100532232Y-28780460D01*
X100507152Y-28773740D01*
X100484668Y-28760758D01*
X100468771Y-28756499D01*
X98798844Y-28756499D01*
X98821771Y-28754775D01*
X98832927Y-28751818D01*
X98987046Y-28678636D01*
X98996389Y-28671861D01*
X99113829Y-28548104D01*
X99120106Y-28538420D01*
X99185189Y-28380517D01*
X99187566Y-28368858D01*
X99189616Y-28188222D01*
X99187504Y-28176513D01*
X99126020Y-28017174D01*
X99119964Y-28007349D01*
X99030606Y-27908801D01*
X99113829Y-27821101D01*
X99120106Y-27811417D01*
X99185189Y-27653514D01*
X99187566Y-27641855D01*
X99189218Y-27496276D01*
X99195444Y-27499497D01*
X99358774Y-27548808D01*
X99370246Y-27550065D01*
X99540376Y-27537272D01*
X99551532Y-27534315D01*
X99705651Y-27461133D01*
X99714994Y-27454358D01*
X99832434Y-27330601D01*
X99838711Y-27320917D01*
X99903794Y-27163014D01*
X99906171Y-27151355D01*
X99908221Y-26970719D01*
X99906109Y-26959010D01*
X99844625Y-26799671D01*
X99838569Y-26789846D01*
X99723966Y-26663457D01*
X99714780Y-26656471D01*
X99562361Y-26579813D01*
X99551276Y-26576602D01*
X99381479Y-26559953D01*
X99369981Y-26560949D01*
X99300988Y-26580082D01*
X99143077Y-26422171D01*
X99143076Y-26422169D01*
X99056279Y-26335371D01*
X99042026Y-26327143D01*
X99016946Y-26320423D01*
X98994462Y-26307441D01*
X98978565Y-26303182D01*
X97845346Y-26303182D01*
X97844257Y-26300359D01*
X97838201Y-26290534D01*
X97723598Y-26164145D01*
X97714412Y-26157159D01*
X97561993Y-26080501D01*
X97550908Y-26077290D01*
X97381111Y-26060641D01*
X97369613Y-26061637D01*
X97205207Y-26107231D01*
X97194839Y-26112299D01*
X97057868Y-26214021D01*
X97050020Y-26222482D01*
X96958854Y-26366694D01*
X96954577Y-26377413D01*
X96921438Y-26544775D01*
X96921308Y-26556315D01*
X96923684Y-26569928D01*
X96855861Y-26563278D01*
X96844363Y-26564274D01*
X96679957Y-26609868D01*
X96669589Y-26614936D01*
X96532618Y-26716658D01*
X96524770Y-26725119D01*
X96507010Y-26753213D01*
X96507010Y-20350785D01*
X97882033Y-18975763D01*
X97940169Y-18993314D01*
X97951641Y-18994571D01*
X98121771Y-18981778D01*
X98132927Y-18978821D01*
X98287046Y-18905639D01*
X98296389Y-18898864D01*
X98413829Y-18775107D01*
X98420106Y-18765423D01*
X98485189Y-18607520D01*
X98487566Y-18595861D01*
X98489616Y-18415225D01*
X98487504Y-18403516D01*
X98426020Y-18244177D01*
X98419964Y-18234352D01*
X98305361Y-18107963D01*
X98296175Y-18100977D01*
X98143756Y-18024319D01*
X98132671Y-18021108D01*
X97962874Y-18004459D01*
X97951376Y-18005455D01*
X97786970Y-18051049D01*
X97776602Y-18056117D01*
X97639631Y-18157839D01*
X97631783Y-18166300D01*
X97540617Y-18310512D01*
X97536340Y-18321231D01*
X97503201Y-18488593D01*
X97503071Y-18500133D01*
X97523725Y-18618479D01*
X96253000Y-19889205D01*
X96253000Y-18921805D01*
X96287046Y-18905639D01*
X96296389Y-18898864D01*
X96413829Y-18775107D01*
X96420106Y-18765423D01*
X96485189Y-18607520D01*
X96487566Y-18595861D01*
X96489616Y-18415225D01*
X96487504Y-18403516D01*
X96426020Y-18244177D01*
X96419964Y-18234352D01*
X96305361Y-18107963D01*
X96296175Y-18100977D01*
X96143756Y-18024319D01*
X96132671Y-18021108D01*
X95962874Y-18004459D01*
X95951376Y-18005455D01*
X95786970Y-18051049D01*
X95776602Y-18056117D01*
X95639631Y-18157839D01*
X95631783Y-18166300D01*
X95540617Y-18310512D01*
X95536340Y-18321231D01*
X95503201Y-18488593D01*
X95503071Y-18500133D01*
X95532404Y-18668204D01*
X95536436Y-18679018D01*
X95624307Y-18825259D01*
X95631962Y-18833896D01*
X95747000Y-18923451D01*
X95747000Y-19343214D01*
X94769774Y-18365989D01*
X94769773Y-18365987D01*
X94682976Y-18279189D01*
X94668723Y-18270961D01*
X94643643Y-18264241D01*
X94621159Y-18251259D01*
X94605262Y-18247000D01*
X83927109Y-18247000D01*
X83926020Y-18244177D01*
X83919964Y-18234352D01*
X83805361Y-18107963D01*
X83796175Y-18100977D01*
X83643756Y-18024319D01*
X83632671Y-18021108D01*
X83462874Y-18004459D01*
X83451376Y-18005455D01*
X83286970Y-18051049D01*
X83276602Y-18056117D01*
X83139631Y-18157839D01*
X83131783Y-18166300D01*
X83040617Y-18310512D01*
X83036340Y-18321231D01*
X83003201Y-18488593D01*
X83003071Y-18500133D01*
X83032404Y-18668204D01*
X83036436Y-18679018D01*
X83071576Y-18737501D01*
X72595296Y-18737501D01*
X72479388Y-18621593D01*
X72485189Y-18607520D01*
X72487566Y-18595861D01*
X72489616Y-18415225D01*
X72487504Y-18403516D01*
X72426020Y-18244177D01*
X72419964Y-18234352D01*
X72305361Y-18107963D01*
X72296175Y-18100977D01*
X72143756Y-18024319D01*
X72132671Y-18021108D01*
X71962874Y-18004459D01*
X71951376Y-18005455D01*
X71786970Y-18051049D01*
X71776602Y-18056117D01*
X71639631Y-18157839D01*
X71631783Y-18166300D01*
X71540617Y-18310512D01*
X71536340Y-18321231D01*
X71503201Y-18488593D01*
X71503071Y-18500133D01*
X56401381Y-18500133D01*
X56451764Y-18481795D01*
X56457465Y-18479039D01*
X56631912Y-18371719D01*
X56636942Y-18367873D01*
X56786245Y-18227668D01*
X56790399Y-18222889D01*
X56908462Y-18055526D01*
X56911570Y-18050009D01*
X56993567Y-17862324D01*
X56995503Y-17856295D01*
X57038098Y-17655903D01*
X57038782Y-17649498D01*
X57039522Y-17437756D01*
X57038882Y-17431347D01*
X56997687Y-17230662D01*
X56995793Y-17224620D01*
X56915109Y-17036368D01*
X56912039Y-17030829D01*
X56795148Y-16862646D01*
X56791027Y-16857838D01*
X56642706Y-16716594D01*
X56637703Y-16712713D01*
X56464011Y-16604177D01*
X56458329Y-16601381D01*
X56266360Y-16529989D01*
X56260232Y-16528393D01*
X56057829Y-16497059D01*
X56051505Y-16496728D01*
X55846936Y-16506733D01*
X55840675Y-16507680D01*
X55642294Y-16558615D01*
X55636352Y-16560801D01*
X55452265Y-16650586D01*
X55446883Y-16653923D01*
X55284611Y-16778890D01*
X55280011Y-16783241D01*
X55146181Y-16938284D01*
X55142549Y-16943471D01*
X55042628Y-17122258D01*
X55040113Y-17128070D01*
X54978183Y-17323297D01*
X54976888Y-17329495D01*
X54955479Y-17533188D01*
X54955457Y-17539520D01*
X23039166Y-17539520D01*
X23039522Y-17437756D01*
X23038882Y-17431347D01*
X22997687Y-17230662D01*
X22995793Y-17224620D01*
X22915109Y-17036368D01*
X22912039Y-17030829D01*
X22795148Y-16862646D01*
X22791027Y-16857838D01*
X22642706Y-16716594D01*
X22637703Y-16712713D01*
X22464011Y-16604177D01*
X22458329Y-16601381D01*
X22266360Y-16529989D01*
X22260232Y-16528393D01*
X22057829Y-16497059D01*
X22051505Y-16496728D01*
X21846936Y-16506733D01*
X21840675Y-16507680D01*
X21642294Y-16558615D01*
X21636352Y-16560801D01*
X21452265Y-16650586D01*
X21446883Y-16653923D01*
X21284611Y-16778890D01*
X21280011Y-16783241D01*
X21146181Y-16938284D01*
X21142549Y-16943471D01*
X21042628Y-17122258D01*
X21040113Y-17128070D01*
X20978183Y-17323297D01*
X20976888Y-17329495D01*
X20955479Y-17533188D01*
X20955457Y-17539520D01*
X12189500Y-17539520D01*
X12189500Y-16470533D01*
X13800289Y-16470533D01*
X13803940Y-16526986D01*
X13926274Y-16621196D01*
X13930053Y-16623692D01*
X14171549Y-16759214D01*
X14175649Y-16761138D01*
X14434180Y-16860379D01*
X14438515Y-16861692D01*
X14708665Y-16922573D01*
X14713143Y-16923246D01*
X14989251Y-16944492D01*
X14993780Y-16944511D01*
X15270063Y-16925676D01*
X15274547Y-16925042D01*
X15545218Y-16866521D01*
X15549564Y-16865246D01*
X15808951Y-16768265D01*
X15813067Y-16766376D01*
X16055738Y-16632967D01*
X16059538Y-16630504D01*
X16195882Y-16527388D01*
X16199801Y-16470623D01*
X16199711Y-16470533D01*
X107800289Y-16470533D01*
X107803940Y-16526986D01*
X107926274Y-16621196D01*
X107930053Y-16623692D01*
X108171549Y-16759214D01*
X108175649Y-16761138D01*
X108434180Y-16860379D01*
X108438515Y-16861692D01*
X108708665Y-16922573D01*
X108713143Y-16923246D01*
X108989251Y-16944492D01*
X108993780Y-16944511D01*
X109270063Y-16925676D01*
X109274547Y-16925042D01*
X109545218Y-16866521D01*
X109549564Y-16865246D01*
X109808951Y-16768265D01*
X109813067Y-16766376D01*
X110055738Y-16632967D01*
X110059538Y-16630504D01*
X110195882Y-16527388D01*
X110199801Y-16470623D01*
X109025888Y-15296710D01*
X108974112Y-15296710D01*
X107800289Y-16470533D01*
X16199711Y-16470533D01*
X15025888Y-15296710D01*
X14974112Y-15296710D01*
X13800289Y-16470533D01*
X12189500Y-16470533D01*
X12189500Y-14949666D01*
X13056131Y-14949666D01*
X13068692Y-15226305D01*
X13069224Y-15230803D01*
X13121590Y-15502731D01*
X13122766Y-15507105D01*
X13213837Y-15768626D01*
X13215632Y-15772784D01*
X13343501Y-16018418D01*
X13345878Y-16022273D01*
X13471089Y-16195885D01*
X13528662Y-16200517D01*
X14703290Y-15025888D01*
X14703290Y-14974112D01*
X15296710Y-14974112D01*
X15296710Y-15025888D01*
X16470980Y-16200159D01*
X16528242Y-16195803D01*
X16645138Y-16036670D01*
X16647548Y-16032835D01*
X16777556Y-15788326D01*
X16779388Y-15784183D01*
X16872737Y-15523466D01*
X16873951Y-15519103D01*
X16928771Y-15247228D01*
X16929377Y-15241886D01*
X16935935Y-14999520D01*
X20955457Y-14999520D01*
X20975443Y-15203357D01*
X20976695Y-15209564D01*
X21037260Y-15405219D01*
X21039735Y-15411048D01*
X21138405Y-15590528D01*
X21142001Y-15595740D01*
X21274745Y-15751715D01*
X21279315Y-15756097D01*
X21440711Y-15882194D01*
X21446069Y-15885568D01*
X21629524Y-15976636D01*
X21635452Y-15978864D01*
X21833471Y-16031182D01*
X21839725Y-16032173D01*
X22044220Y-16043606D01*
X22050546Y-16043319D01*
X22253163Y-16013399D01*
X22259302Y-16011846D01*
X22451764Y-15941795D01*
X22457465Y-15939039D01*
X22631912Y-15831719D01*
X22636942Y-15827873D01*
X22786245Y-15687668D01*
X22790399Y-15682889D01*
X22908462Y-15515526D01*
X22911570Y-15510009D01*
X22993567Y-15322324D01*
X22995503Y-15316295D01*
X23038098Y-15115903D01*
X23038782Y-15109498D01*
X23039166Y-14999520D01*
X54955457Y-14999520D01*
X54975443Y-15203357D01*
X54976695Y-15209564D01*
X55037260Y-15405219D01*
X55039735Y-15411048D01*
X55138405Y-15590528D01*
X55142001Y-15595740D01*
X55274745Y-15751715D01*
X55279315Y-15756097D01*
X55440711Y-15882194D01*
X55446069Y-15885568D01*
X55629524Y-15976636D01*
X55635452Y-15978864D01*
X55833471Y-16031182D01*
X55839725Y-16032173D01*
X56044220Y-16043606D01*
X56050546Y-16043319D01*
X56253163Y-16013399D01*
X56259302Y-16011846D01*
X56451764Y-15941795D01*
X56457465Y-15939039D01*
X56631912Y-15831719D01*
X56636942Y-15827873D01*
X56786245Y-15687668D01*
X56790399Y-15682889D01*
X56908462Y-15515526D01*
X56911570Y-15510009D01*
X56993567Y-15322324D01*
X56995503Y-15316295D01*
X57038098Y-15115903D01*
X57038782Y-15109498D01*
X57039340Y-14949666D01*
X107056131Y-14949666D01*
X107068692Y-15226305D01*
X107069224Y-15230803D01*
X107121590Y-15502731D01*
X107122766Y-15507105D01*
X107213837Y-15768626D01*
X107215632Y-15772784D01*
X107343501Y-16018418D01*
X107345878Y-16022273D01*
X107471089Y-16195885D01*
X107528662Y-16200517D01*
X108703290Y-15025888D01*
X108703290Y-14974112D01*
X109296710Y-14974112D01*
X109296710Y-15025888D01*
X110470980Y-16200159D01*
X110528242Y-16195803D01*
X110645138Y-16036670D01*
X110647548Y-16032835D01*
X110777556Y-15788326D01*
X110779388Y-15784183D01*
X110872737Y-15523466D01*
X110873951Y-15519103D01*
X110928771Y-15247228D01*
X110929377Y-15241886D01*
X110939635Y-14862806D01*
X110939318Y-14857439D01*
X110899281Y-14582997D01*
X110898305Y-14578575D01*
X110819191Y-14313191D01*
X110817587Y-14308956D01*
X110700992Y-14057773D01*
X110698793Y-14053814D01*
X110534049Y-13802060D01*
X110474876Y-13795946D01*
X109296710Y-14974112D01*
X108703290Y-14974112D01*
X107529225Y-13800047D01*
X107473585Y-13803012D01*
X107403582Y-13889770D01*
X107401000Y-13893491D01*
X107260034Y-14131851D01*
X107258017Y-14135906D01*
X107152936Y-14392119D01*
X107151525Y-14396423D01*
X107084532Y-14665121D01*
X107083757Y-14669583D01*
X107056253Y-14945139D01*
X107056131Y-14949666D01*
X57039340Y-14949666D01*
X57039522Y-14897756D01*
X57038882Y-14891347D01*
X56997687Y-14690662D01*
X56995793Y-14684620D01*
X56915109Y-14496368D01*
X56912039Y-14490829D01*
X56795148Y-14322646D01*
X56791027Y-14317838D01*
X56642706Y-14176594D01*
X56637703Y-14172713D01*
X56464011Y-14064177D01*
X56458329Y-14061381D01*
X56266360Y-13989989D01*
X56260232Y-13988393D01*
X56057829Y-13957059D01*
X56051505Y-13956728D01*
X55846936Y-13966733D01*
X55840675Y-13967680D01*
X55642294Y-14018615D01*
X55636352Y-14020801D01*
X55452265Y-14110586D01*
X55446883Y-14113923D01*
X55284611Y-14238890D01*
X55280011Y-14243241D01*
X55146181Y-14398284D01*
X55142549Y-14403471D01*
X55042628Y-14582258D01*
X55040113Y-14588070D01*
X54978183Y-14783297D01*
X54976888Y-14789495D01*
X54955479Y-14993188D01*
X54955457Y-14999520D01*
X23039166Y-14999520D01*
X23039522Y-14897756D01*
X23038882Y-14891347D01*
X22997687Y-14690662D01*
X22995793Y-14684620D01*
X22915109Y-14496368D01*
X22912039Y-14490829D01*
X22795148Y-14322646D01*
X22791027Y-14317838D01*
X22642706Y-14176594D01*
X22637703Y-14172713D01*
X22464011Y-14064177D01*
X22458329Y-14061381D01*
X22266360Y-13989989D01*
X22260232Y-13988393D01*
X22057829Y-13957059D01*
X22051505Y-13956728D01*
X21846936Y-13966733D01*
X21840675Y-13967680D01*
X21642294Y-14018615D01*
X21636352Y-14020801D01*
X21452265Y-14110586D01*
X21446883Y-14113923D01*
X21284611Y-14238890D01*
X21280011Y-14243241D01*
X21146181Y-14398284D01*
X21142549Y-14403471D01*
X21042628Y-14582258D01*
X21040113Y-14588070D01*
X20978183Y-14783297D01*
X20976888Y-14789495D01*
X20955479Y-14993188D01*
X20955457Y-14999520D01*
X16935935Y-14999520D01*
X16939635Y-14862806D01*
X16939318Y-14857439D01*
X16899281Y-14582997D01*
X16898305Y-14578575D01*
X16819191Y-14313191D01*
X16817587Y-14308956D01*
X16700992Y-14057773D01*
X16698793Y-14053814D01*
X16534049Y-13802060D01*
X16474876Y-13795946D01*
X15296710Y-14974112D01*
X14703290Y-14974112D01*
X13529225Y-13800047D01*
X13473585Y-13803012D01*
X13403582Y-13889770D01*
X13401000Y-13893491D01*
X13260034Y-14131851D01*
X13258017Y-14135906D01*
X13152936Y-14392119D01*
X13151525Y-14396423D01*
X13084532Y-14665121D01*
X13083757Y-14669583D01*
X13056253Y-14945139D01*
X13056131Y-14949666D01*
X12189500Y-14949666D01*
X12189500Y-14039156D01*
X12193576Y-14020463D01*
X12194216Y-14016007D01*
X12213353Y-13745726D01*
X12260390Y-13527248D01*
X13798069Y-13527248D01*
X14974112Y-14703290D01*
X15025888Y-14703290D01*
X16200878Y-13528300D01*
X16200834Y-13527248D01*
X107798069Y-13527248D01*
X108974112Y-14703290D01*
X109025888Y-14703290D01*
X110200878Y-13528300D01*
X110198580Y-13473478D01*
X110146164Y-13429181D01*
X110142502Y-13426516D01*
X109907401Y-13280179D01*
X109903393Y-13278070D01*
X109649630Y-13167203D01*
X109645359Y-13165695D01*
X109378250Y-13092622D01*
X109373806Y-13091746D01*
X109098946Y-13057998D01*
X109094423Y-13057773D01*
X108817569Y-13064055D01*
X108813061Y-13064486D01*
X108540014Y-13110668D01*
X108535615Y-13111744D01*
X108272095Y-13196858D01*
X108267898Y-13198559D01*
X108019425Y-13320823D01*
X108015517Y-13323112D01*
X107803433Y-13468873D01*
X107798069Y-13527248D01*
X16200834Y-13527248D01*
X16198580Y-13473478D01*
X16146164Y-13429181D01*
X16142502Y-13426516D01*
X15907401Y-13280179D01*
X15903393Y-13278070D01*
X15649630Y-13167203D01*
X15645359Y-13165695D01*
X15378250Y-13092622D01*
X15373806Y-13091746D01*
X15098946Y-13057998D01*
X15094423Y-13057773D01*
X14817569Y-13064055D01*
X14813061Y-13064486D01*
X14540014Y-13110668D01*
X14535615Y-13111744D01*
X14272095Y-13196858D01*
X14267898Y-13198559D01*
X14019425Y-13320823D01*
X14015517Y-13323112D01*
X13803433Y-13468873D01*
X13798069Y-13527248D01*
X12260390Y-13527248D01*
X12267007Y-13496516D01*
X12355236Y-13257361D01*
X12476282Y-13033020D01*
X12627734Y-12827973D01*
X12806563Y-12646312D01*
X13009207Y-12491659D01*
X13231614Y-12367106D01*
X13469357Y-12275130D01*
X13717697Y-12217567D01*
X13977769Y-12195043D01*
X14005998Y-12194821D01*
X14014830Y-12193481D01*
X14028015Y-12189500D01*
X109960844Y-12189500D01*
X109979537Y-12193576D01*
%TA.AperFunction,Conductor*%
G36*
X109979537Y-12193576D02*
G01*
X109983993Y-12194216D01*
X110254274Y-12213353D01*
X110503484Y-12267007D01*
X110742639Y-12355236D01*
X110966980Y-12476282D01*
X111172027Y-12627734D01*
X111353688Y-12806563D01*
X111508341Y-13009207D01*
X111632894Y-13231614D01*
X111724870Y-13469357D01*
X111782433Y-13717697D01*
X111804957Y-13977769D01*
X111805179Y-14005998D01*
X111806519Y-14014830D01*
X111810500Y-14028015D01*
X111810501Y-59960839D01*
X111806424Y-59979536D01*
X111805784Y-59983992D01*
X111786646Y-60254276D01*
X111732995Y-60503481D01*
X111644764Y-60742639D01*
X111523717Y-60966981D01*
X111372266Y-61172027D01*
X111193437Y-61353688D01*
X110990798Y-61508338D01*
X110768386Y-61632894D01*
X110530635Y-61724874D01*
X110282304Y-61782433D01*
X110022231Y-61804957D01*
X109994002Y-61805179D01*
X109985170Y-61806519D01*
X109971985Y-61810500D01*
X14039157Y-61810500D01*
X14020464Y-61806424D01*
X14016008Y-61805784D01*
X13745724Y-61786646D01*
X13496519Y-61732995D01*
X13257361Y-61644764D01*
X13033019Y-61523717D01*
X12827973Y-61372266D01*
X12646312Y-61193437D01*
X12491662Y-60990798D01*
X12367106Y-60768386D01*
X12275126Y-60530635D01*
X12261196Y-60470533D01*
X13800289Y-60470533D01*
X13803940Y-60526986D01*
X13926274Y-60621196D01*
X13930053Y-60623692D01*
X14171549Y-60759214D01*
X14175649Y-60761138D01*
X14434180Y-60860379D01*
X14438515Y-60861692D01*
X14708665Y-60922573D01*
X14713143Y-60923246D01*
X14989251Y-60944492D01*
X14993780Y-60944511D01*
X15270063Y-60925676D01*
X15274547Y-60925042D01*
X15545218Y-60866521D01*
X15549564Y-60865246D01*
X15808951Y-60768265D01*
X15813067Y-60766376D01*
X16055738Y-60632967D01*
X16059538Y-60630504D01*
X16195882Y-60527388D01*
X16199801Y-60470623D01*
X16199711Y-60470533D01*
X107800289Y-60470533D01*
X107803940Y-60526986D01*
X107926274Y-60621196D01*
X107930053Y-60623692D01*
X108171549Y-60759214D01*
X108175649Y-60761138D01*
X108434180Y-60860379D01*
X108438515Y-60861692D01*
X108708665Y-60922573D01*
X108713143Y-60923246D01*
X108989251Y-60944492D01*
X108993780Y-60944511D01*
X109270063Y-60925676D01*
X109274547Y-60925042D01*
X109545218Y-60866521D01*
X109549564Y-60865246D01*
X109808951Y-60768265D01*
X109813067Y-60766376D01*
X110055738Y-60632967D01*
X110059538Y-60630504D01*
X110195882Y-60527388D01*
X110199801Y-60470623D01*
X109025888Y-59296710D01*
X108974112Y-59296710D01*
X107800289Y-60470533D01*
X16199711Y-60470533D01*
X15025888Y-59296710D01*
X14974112Y-59296710D01*
X13800289Y-60470533D01*
X12261196Y-60470533D01*
X12217567Y-60282304D01*
X12195043Y-60022231D01*
X12194821Y-59994002D01*
X12193481Y-59985170D01*
X12189500Y-59971985D01*
X12189500Y-58949666D01*
X13056131Y-58949666D01*
X13068692Y-59226305D01*
X13069224Y-59230803D01*
X13121590Y-59502731D01*
X13122766Y-59507105D01*
X13213837Y-59768626D01*
X13215632Y-59772784D01*
X13343501Y-60018418D01*
X13345878Y-60022273D01*
X13471089Y-60195885D01*
X13528662Y-60200517D01*
X14703290Y-59025888D01*
X14703290Y-58974112D01*
X15296710Y-58974112D01*
X15296710Y-59025888D01*
X16470980Y-60200159D01*
X16528242Y-60195803D01*
X16645138Y-60036670D01*
X16647548Y-60032835D01*
X16777556Y-59788326D01*
X16779388Y-59784183D01*
X16872737Y-59523466D01*
X16873951Y-59519103D01*
X16928771Y-59247228D01*
X16929377Y-59241886D01*
X16939635Y-58862806D01*
X16939318Y-58857439D01*
X16899281Y-58582997D01*
X16898305Y-58578575D01*
X16819191Y-58313191D01*
X16817587Y-58308956D01*
X16700992Y-58057773D01*
X16698793Y-58053814D01*
X16534049Y-57802060D01*
X16474876Y-57795946D01*
X15296710Y-58974112D01*
X14703290Y-58974112D01*
X13529225Y-57800047D01*
X13473585Y-57803012D01*
X13403582Y-57889770D01*
X13401000Y-57893491D01*
X13260034Y-58131851D01*
X13258017Y-58135906D01*
X13152936Y-58392119D01*
X13151525Y-58396423D01*
X13084532Y-58665121D01*
X13083757Y-58669583D01*
X13056253Y-58945139D01*
X13056131Y-58949666D01*
X12189500Y-58949666D01*
X12189500Y-57527248D01*
X13798069Y-57527248D01*
X14974112Y-58703290D01*
X15025888Y-58703290D01*
X16200878Y-57528300D01*
X16198580Y-57473478D01*
X16146164Y-57429181D01*
X16142502Y-57426516D01*
X15907401Y-57280179D01*
X15903393Y-57278070D01*
X15649630Y-57167203D01*
X15645359Y-57165695D01*
X15378250Y-57092622D01*
X15373806Y-57091746D01*
X15098946Y-57057998D01*
X15094423Y-57057773D01*
X14817569Y-57064055D01*
X14813061Y-57064486D01*
X14540014Y-57110668D01*
X14535615Y-57111744D01*
X14272095Y-57196858D01*
X14267898Y-57198559D01*
X14019425Y-57320823D01*
X14015517Y-57323112D01*
X13803433Y-57468873D01*
X13798069Y-57527248D01*
X12189500Y-57527248D01*
X12189500Y-49228112D01*
X18809922Y-49228112D01*
X18809922Y-57557212D01*
X18810143Y-57560925D01*
X18849609Y-57891000D01*
X18851111Y-57897530D01*
X18955268Y-58198475D01*
X18957742Y-58203892D01*
X19116786Y-58479363D01*
X19120240Y-58484214D01*
X19328542Y-58724608D01*
X19332852Y-58728717D01*
X19582885Y-58925345D01*
X19587895Y-58928564D01*
X19870622Y-59074320D01*
X19876150Y-59076534D01*
X20181352Y-59166149D01*
X20187199Y-59167276D01*
X20424510Y-59189936D01*
X20427482Y-59190078D01*
X21771888Y-59190078D01*
X21808500Y-59153466D01*
X21808500Y-49228112D01*
X22191500Y-49228112D01*
X22191500Y-59153466D01*
X22228112Y-59190078D01*
X23557212Y-59190078D01*
X23560925Y-59189857D01*
X23891000Y-59150391D01*
X23897530Y-59148889D01*
X24198475Y-59044732D01*
X24203892Y-59042258D01*
X24479363Y-58883214D01*
X24484214Y-58879760D01*
X24724608Y-58671458D01*
X24728717Y-58667148D01*
X24925345Y-58417115D01*
X24928564Y-58412105D01*
X25074320Y-58129378D01*
X25076534Y-58123850D01*
X25166149Y-57818648D01*
X25167276Y-57812801D01*
X25189936Y-57575490D01*
X25190078Y-57572518D01*
X25190078Y-49228112D01*
X25153466Y-49191500D01*
X22228112Y-49191500D01*
X22191500Y-49228112D01*
X21808500Y-49228112D01*
X21771888Y-49191500D01*
X18846534Y-49191500D01*
X18809922Y-49228112D01*
X12189500Y-49228112D01*
X12189500Y-40427482D01*
X18809922Y-40427482D01*
X18809922Y-48771888D01*
X18846534Y-48808500D01*
X21771888Y-48808500D01*
X21808500Y-48771888D01*
X21808500Y-38846534D01*
X22191500Y-38846534D01*
X22191500Y-48771888D01*
X22228112Y-48808500D01*
X25153466Y-48808500D01*
X25190078Y-48771888D01*
X25190078Y-40442788D01*
X25189857Y-40439075D01*
X25188471Y-40427482D01*
X38809922Y-40427482D01*
X38809922Y-57557212D01*
X38810143Y-57560925D01*
X38849609Y-57891000D01*
X38851111Y-57897530D01*
X38955268Y-58198475D01*
X38957742Y-58203892D01*
X39116786Y-58479363D01*
X39120240Y-58484214D01*
X39328542Y-58724608D01*
X39332852Y-58728717D01*
X39582885Y-58925345D01*
X39587895Y-58928564D01*
X39870622Y-59074320D01*
X39876150Y-59076534D01*
X40181352Y-59166149D01*
X40187199Y-59167276D01*
X40424510Y-59189936D01*
X40427482Y-59190078D01*
X43557212Y-59190078D01*
X43560925Y-59189857D01*
X43891000Y-59150391D01*
X43897530Y-59148889D01*
X44198475Y-59044732D01*
X44203892Y-59042258D01*
X44364265Y-58949666D01*
X107056131Y-58949666D01*
X107068692Y-59226305D01*
X107069224Y-59230803D01*
X107121590Y-59502731D01*
X107122766Y-59507105D01*
X107213837Y-59768626D01*
X107215632Y-59772784D01*
X107343501Y-60018418D01*
X107345878Y-60022273D01*
X107471089Y-60195885D01*
X107528662Y-60200517D01*
X108703290Y-59025888D01*
X108703290Y-58974112D01*
X109296710Y-58974112D01*
X109296710Y-59025888D01*
X110470980Y-60200159D01*
X110528242Y-60195803D01*
X110645138Y-60036670D01*
X110647548Y-60032835D01*
X110777556Y-59788326D01*
X110779388Y-59784183D01*
X110872737Y-59523466D01*
X110873951Y-59519103D01*
X110928771Y-59247228D01*
X110929377Y-59241886D01*
X110939635Y-58862806D01*
X110939318Y-58857439D01*
X110899281Y-58582997D01*
X110898305Y-58578575D01*
X110819191Y-58313191D01*
X110817587Y-58308956D01*
X110700992Y-58057773D01*
X110698793Y-58053814D01*
X110534049Y-57802060D01*
X110474876Y-57795946D01*
X109296710Y-58974112D01*
X108703290Y-58974112D01*
X107529225Y-57800047D01*
X107473585Y-57803012D01*
X107403582Y-57889770D01*
X107401000Y-57893491D01*
X107260034Y-58131851D01*
X107258017Y-58135906D01*
X107152936Y-58392119D01*
X107151525Y-58396423D01*
X107084532Y-58665121D01*
X107083757Y-58669583D01*
X107056253Y-58945139D01*
X107056131Y-58949666D01*
X44364265Y-58949666D01*
X44479363Y-58883214D01*
X44484214Y-58879760D01*
X44724608Y-58671458D01*
X44728717Y-58667148D01*
X44925345Y-58417115D01*
X44928564Y-58412105D01*
X45074320Y-58129378D01*
X45076534Y-58123850D01*
X45166149Y-57818648D01*
X45167276Y-57812801D01*
X45189936Y-57575490D01*
X45190078Y-57572518D01*
X45190078Y-57527248D01*
X107798069Y-57527248D01*
X108974112Y-58703290D01*
X109025888Y-58703290D01*
X110200878Y-57528300D01*
X110198580Y-57473478D01*
X110146164Y-57429181D01*
X110142502Y-57426516D01*
X109907401Y-57280179D01*
X109903393Y-57278070D01*
X109649630Y-57167203D01*
X109645359Y-57165695D01*
X109378250Y-57092622D01*
X109373806Y-57091746D01*
X109098946Y-57057998D01*
X109094423Y-57057773D01*
X108817569Y-57064055D01*
X108813061Y-57064486D01*
X108540014Y-57110668D01*
X108535615Y-57111744D01*
X108272095Y-57196858D01*
X108267898Y-57198559D01*
X108019425Y-57320823D01*
X108015517Y-57323112D01*
X107803433Y-57468873D01*
X107798069Y-57527248D01*
X45190078Y-57527248D01*
X45190078Y-52300133D01*
X54203071Y-52300133D01*
X54232404Y-52468204D01*
X54236436Y-52479018D01*
X54324307Y-52625259D01*
X54331962Y-52633896D01*
X54466588Y-52738700D01*
X54476839Y-52744003D01*
X54640169Y-52793314D01*
X54651641Y-52794571D01*
X54821771Y-52781778D01*
X54832927Y-52778821D01*
X54987046Y-52705639D01*
X54996389Y-52698864D01*
X55113829Y-52575107D01*
X55120106Y-52565423D01*
X55148337Y-52496929D01*
X97308012Y-52496929D01*
X97308012Y-55503071D01*
X97308614Y-55509182D01*
X97320271Y-55567784D01*
X97324982Y-55579158D01*
X97359891Y-55631403D01*
X97368597Y-55640109D01*
X97420842Y-55675018D01*
X97432216Y-55679729D01*
X97490818Y-55691386D01*
X97496929Y-55691988D01*
X100503071Y-55691988D01*
X100509182Y-55691386D01*
X100567784Y-55679729D01*
X100579158Y-55675018D01*
X100631403Y-55640109D01*
X100640109Y-55631403D01*
X100675018Y-55579158D01*
X100679729Y-55567784D01*
X100691386Y-55509182D01*
X100691988Y-55503071D01*
X100691988Y-55292142D01*
X102978681Y-55292142D01*
X102983202Y-55349590D01*
X103112516Y-55443542D01*
X103116704Y-55446108D01*
X103349263Y-55564603D01*
X103353800Y-55566482D01*
X103602032Y-55647138D01*
X103606807Y-55648284D01*
X103864600Y-55689115D01*
X103869496Y-55689500D01*
X104130504Y-55689500D01*
X104135400Y-55689115D01*
X104393193Y-55648284D01*
X104397968Y-55647138D01*
X104646200Y-55566482D01*
X104650737Y-55564603D01*
X104883296Y-55446108D01*
X104887484Y-55443542D01*
X105016798Y-55349590D01*
X105021319Y-55292142D01*
X104025888Y-54296710D01*
X103974112Y-54296710D01*
X102978681Y-55292142D01*
X100691988Y-55292142D01*
X100691988Y-53869496D01*
X102310500Y-53869496D01*
X102310500Y-54130504D01*
X102310885Y-54135400D01*
X102351716Y-54393193D01*
X102352862Y-54397968D01*
X102433518Y-54646200D01*
X102435397Y-54650737D01*
X102553892Y-54883296D01*
X102556458Y-54887484D01*
X102650410Y-55016798D01*
X102707858Y-55021319D01*
X103703290Y-54025888D01*
X103703290Y-53974112D01*
X104296710Y-53974112D01*
X104296710Y-54025888D01*
X105292142Y-55021319D01*
X105349590Y-55016798D01*
X105443542Y-54887484D01*
X105446108Y-54883296D01*
X105564603Y-54650737D01*
X105566482Y-54646200D01*
X105647138Y-54397968D01*
X105648284Y-54393193D01*
X105689115Y-54135400D01*
X105689500Y-54130504D01*
X105689500Y-54000810D01*
X106805126Y-54000810D01*
X106806219Y-54070348D01*
X106806845Y-54074269D01*
X106806775Y-54075947D01*
X106806910Y-54080445D01*
X106836389Y-54368162D01*
X106838553Y-54376828D01*
X106838639Y-54377040D01*
X106839356Y-54384215D01*
X106840124Y-54388650D01*
X106909849Y-54669345D01*
X106913213Y-54677619D01*
X106913327Y-54677814D01*
X106915047Y-54684818D01*
X106916432Y-54689102D01*
X107025013Y-54957171D01*
X107029508Y-54964888D01*
X107029649Y-54965066D01*
X107032340Y-54971760D01*
X107034315Y-54975805D01*
X107179582Y-55225900D01*
X107185120Y-55232907D01*
X107185284Y-55233062D01*
X107188892Y-55239312D01*
X107191417Y-55243038D01*
X107370474Y-55470170D01*
X107376944Y-55476326D01*
X107377131Y-55476459D01*
X107381581Y-55482134D01*
X107384606Y-55485468D01*
X107593880Y-55685105D01*
X107601156Y-55690290D01*
X107601355Y-55690393D01*
X107606560Y-55695384D01*
X107610025Y-55698259D01*
X107845340Y-55866417D01*
X107853270Y-55870524D01*
X107853485Y-55870599D01*
X107859344Y-55874809D01*
X107863179Y-55877166D01*
X108119842Y-56010492D01*
X108128275Y-56013440D01*
X108128495Y-56013483D01*
X108134885Y-56016824D01*
X108139014Y-56018618D01*
X108411903Y-56114450D01*
X108420669Y-56116181D01*
X108420892Y-56116193D01*
X108427690Y-56118600D01*
X108432031Y-56119794D01*
X108715700Y-56176219D01*
X108724622Y-56176698D01*
X108724847Y-56176678D01*
X108731912Y-56178103D01*
X108736379Y-56178673D01*
X109025167Y-56194566D01*
X109034064Y-56193784D01*
X109034287Y-56193732D01*
X109041486Y-56194147D01*
X109045987Y-56194082D01*
X109334134Y-56169126D01*
X109342836Y-56167097D01*
X109343041Y-56167017D01*
X109350228Y-56166414D01*
X109354676Y-56165715D01*
X109636430Y-56100408D01*
X109644753Y-56097176D01*
X109644954Y-56097063D01*
X109651987Y-56095452D01*
X109656291Y-56094134D01*
X109926034Y-55989778D01*
X109933823Y-55985403D01*
X109934004Y-55985264D01*
X109940733Y-55982681D01*
X109944809Y-55980770D01*
X110197156Y-55839449D01*
X110204248Y-55834022D01*
X110204407Y-55833860D01*
X110210711Y-55830351D01*
X110214476Y-55827884D01*
X110444393Y-55652417D01*
X110450650Y-55646045D01*
X110450784Y-55645862D01*
X110456531Y-55641500D01*
X110459911Y-55638528D01*
X110662812Y-55432414D01*
X110668110Y-55425221D01*
X110668215Y-55425024D01*
X110673288Y-55419899D01*
X110676217Y-55416479D01*
X110848053Y-55183832D01*
X110852285Y-55175963D01*
X110852362Y-55175752D01*
X110856660Y-55169966D01*
X110859078Y-55166167D01*
X110996418Y-54911631D01*
X110999499Y-54903249D01*
X110999547Y-54903024D01*
X111002989Y-54896684D01*
X111004846Y-54892585D01*
X111104951Y-54621236D01*
X111106819Y-54612502D01*
X111106834Y-54612277D01*
X111109349Y-54605515D01*
X111110610Y-54601195D01*
X111171484Y-54318450D01*
X111172103Y-54309540D01*
X111172086Y-54309313D01*
X111173623Y-54302264D01*
X111174263Y-54297809D01*
X111194690Y-54009307D01*
X111194048Y-54000397D01*
X111189500Y-53979540D01*
X111189500Y-49543374D01*
X111194620Y-49503685D01*
X111194874Y-49499190D01*
X111193781Y-49429653D01*
X111193155Y-49425731D01*
X111193225Y-49424053D01*
X111193090Y-49419555D01*
X111163611Y-49131838D01*
X111161447Y-49123172D01*
X111161361Y-49122960D01*
X111160644Y-49115784D01*
X111159876Y-49111349D01*
X111090151Y-48830655D01*
X111086787Y-48822381D01*
X111086673Y-48822186D01*
X111084953Y-48815182D01*
X111083568Y-48810898D01*
X110974988Y-48542828D01*
X110970491Y-48535109D01*
X110970349Y-48534930D01*
X110967660Y-48528241D01*
X110965685Y-48524196D01*
X110820417Y-48274097D01*
X110814876Y-48267088D01*
X110814712Y-48266933D01*
X110811109Y-48260691D01*
X110808583Y-48256964D01*
X110629525Y-48029829D01*
X110623054Y-48023672D01*
X110622870Y-48023541D01*
X110618420Y-48017866D01*
X110615394Y-48014532D01*
X110406120Y-47814895D01*
X110398844Y-47809710D01*
X110398645Y-47809607D01*
X110393440Y-47804616D01*
X110389975Y-47801741D01*
X110154658Y-47633581D01*
X110146725Y-47629474D01*
X110146514Y-47629401D01*
X110140657Y-47625192D01*
X110136821Y-47622834D01*
X109880160Y-47489509D01*
X109871730Y-47486561D01*
X109871505Y-47486517D01*
X109865113Y-47483175D01*
X109860984Y-47481382D01*
X109588097Y-47385550D01*
X109579331Y-47383819D01*
X109579108Y-47383807D01*
X109572310Y-47381400D01*
X109567969Y-47380206D01*
X109284299Y-47323781D01*
X109275377Y-47323302D01*
X109275153Y-47323322D01*
X109268089Y-47321897D01*
X109263622Y-47321327D01*
X108974833Y-47305434D01*
X108965936Y-47306216D01*
X108965713Y-47306268D01*
X108958515Y-47305853D01*
X108954014Y-47305918D01*
X108665869Y-47330873D01*
X108657171Y-47332901D01*
X108656959Y-47332984D01*
X108649769Y-47333588D01*
X108645323Y-47334286D01*
X108363567Y-47399593D01*
X108355238Y-47402828D01*
X108355041Y-47402939D01*
X108348015Y-47404548D01*
X108343710Y-47405866D01*
X108073967Y-47510222D01*
X108066179Y-47514596D01*
X108066001Y-47514733D01*
X108059268Y-47517317D01*
X108055191Y-47519229D01*
X107802842Y-47660552D01*
X107795746Y-47665983D01*
X107795590Y-47666142D01*
X107789291Y-47669648D01*
X107785524Y-47672115D01*
X107555607Y-47847583D01*
X107549350Y-47853955D01*
X107549216Y-47854138D01*
X107543469Y-47858500D01*
X107540089Y-47861472D01*
X107337189Y-48067585D01*
X107331892Y-48074776D01*
X107331785Y-48074975D01*
X107326712Y-48080102D01*
X107323784Y-48083521D01*
X107151948Y-48316167D01*
X107147716Y-48324034D01*
X107147638Y-48324248D01*
X107143339Y-48330036D01*
X107140922Y-48333834D01*
X107003582Y-48588369D01*
X107000501Y-48596751D01*
X107000453Y-48596976D01*
X106997011Y-48603316D01*
X106995154Y-48607415D01*
X106895049Y-48878764D01*
X106893181Y-48887498D01*
X106893166Y-48887723D01*
X106890651Y-48894485D01*
X106889390Y-48898805D01*
X106828516Y-49181551D01*
X106827897Y-49190462D01*
X106827914Y-49190688D01*
X106826377Y-49197734D01*
X106825737Y-49202190D01*
X106805310Y-49490693D01*
X106805952Y-49499603D01*
X106810500Y-49520460D01*
X106810501Y-53956615D01*
X106805380Y-53996315D01*
X106805126Y-54000810D01*
X105689500Y-54000810D01*
X105689500Y-53869496D01*
X105689115Y-53864600D01*
X105648284Y-53606807D01*
X105647138Y-53602032D01*
X105566482Y-53353800D01*
X105564603Y-53349263D01*
X105446108Y-53116704D01*
X105443542Y-53112516D01*
X105349590Y-52983202D01*
X105292142Y-52978681D01*
X104296710Y-53974112D01*
X103703290Y-53974112D01*
X102707858Y-52978681D01*
X102650410Y-52983202D01*
X102556458Y-53112516D01*
X102553892Y-53116704D01*
X102435397Y-53349263D01*
X102433518Y-53353800D01*
X102352862Y-53602032D01*
X102351716Y-53606807D01*
X102310885Y-53864600D01*
X102310500Y-53869496D01*
X100691988Y-53869496D01*
X100691988Y-52707858D01*
X102978681Y-52707858D01*
X103974112Y-53703290D01*
X104025888Y-53703290D01*
X105021319Y-52707858D01*
X105016798Y-52650410D01*
X104887484Y-52556458D01*
X104883296Y-52553892D01*
X104650737Y-52435397D01*
X104646200Y-52433518D01*
X104397968Y-52352862D01*
X104393193Y-52351716D01*
X104135400Y-52310885D01*
X104130504Y-52310500D01*
X103869496Y-52310500D01*
X103864600Y-52310885D01*
X103606807Y-52351716D01*
X103602032Y-52352862D01*
X103353800Y-52433518D01*
X103349263Y-52435397D01*
X103116704Y-52553892D01*
X103112516Y-52556458D01*
X102983202Y-52650410D01*
X102978681Y-52707858D01*
X100691988Y-52707858D01*
X100691988Y-52496929D01*
X100691386Y-52490818D01*
X100679729Y-52432216D01*
X100675018Y-52420842D01*
X100640109Y-52368597D01*
X100631403Y-52359891D01*
X100579158Y-52324982D01*
X100567784Y-52320271D01*
X100509182Y-52308614D01*
X100503071Y-52308012D01*
X97496929Y-52308012D01*
X97490818Y-52308614D01*
X97432216Y-52320271D01*
X97420842Y-52324982D01*
X97368597Y-52359891D01*
X97359891Y-52368597D01*
X97324982Y-52420842D01*
X97320271Y-52432216D01*
X97308614Y-52490818D01*
X97308012Y-52496929D01*
X55148337Y-52496929D01*
X55185189Y-52407520D01*
X55187566Y-52395861D01*
X55189616Y-52215225D01*
X55187504Y-52203516D01*
X55143500Y-52089475D01*
X55143500Y-51083703D01*
X61727070Y-44500133D01*
X82003071Y-44500133D01*
X82032404Y-44668204D01*
X82036436Y-44679018D01*
X82056500Y-44712410D01*
X82056501Y-46785385D01*
X82040617Y-46810511D01*
X82036340Y-46821231D01*
X82003201Y-46988593D01*
X82003071Y-47000133D01*
X82032404Y-47168204D01*
X82036436Y-47179018D01*
X82124307Y-47325259D01*
X82131962Y-47333896D01*
X82266588Y-47438700D01*
X82276839Y-47444003D01*
X82440169Y-47493314D01*
X82451641Y-47494571D01*
X82621771Y-47481778D01*
X82632927Y-47478821D01*
X82787046Y-47405639D01*
X82796389Y-47398864D01*
X82913829Y-47275107D01*
X82920106Y-47265423D01*
X82947016Y-47200133D01*
X87203071Y-47200133D01*
X87232404Y-47368204D01*
X87236436Y-47379018D01*
X87324307Y-47525259D01*
X87331962Y-47533896D01*
X87466588Y-47638700D01*
X87476839Y-47644003D01*
X87640169Y-47693314D01*
X87651641Y-47694571D01*
X87821771Y-47681778D01*
X87832927Y-47678821D01*
X87987046Y-47605639D01*
X87996389Y-47598864D01*
X88113829Y-47475107D01*
X88120106Y-47465423D01*
X88185189Y-47307520D01*
X88187566Y-47295861D01*
X88189616Y-47115225D01*
X88187504Y-47103516D01*
X88126020Y-46944177D01*
X88119964Y-46934352D01*
X88005361Y-46807963D01*
X87996175Y-46800977D01*
X87953000Y-46779262D01*
X87953000Y-45580737D01*
X87988180Y-45564032D01*
X87997523Y-45557257D01*
X88114963Y-45433500D01*
X88121240Y-45423816D01*
X88186323Y-45265913D01*
X88188700Y-45254254D01*
X88190750Y-45073618D01*
X88188638Y-45061909D01*
X88164565Y-44999520D01*
X97955457Y-44999520D01*
X97975443Y-45203357D01*
X97976695Y-45209564D01*
X98037260Y-45405219D01*
X98039735Y-45411048D01*
X98138405Y-45590528D01*
X98142001Y-45595740D01*
X98274745Y-45751715D01*
X98279315Y-45756097D01*
X98440711Y-45882194D01*
X98446069Y-45885568D01*
X98629524Y-45976636D01*
X98635452Y-45978864D01*
X98833471Y-46031182D01*
X98839725Y-46032173D01*
X99044220Y-46043606D01*
X99050546Y-46043319D01*
X99253163Y-46013399D01*
X99259302Y-46011846D01*
X99451764Y-45941795D01*
X99457465Y-45939039D01*
X99631912Y-45831719D01*
X99636942Y-45827873D01*
X99786245Y-45687668D01*
X99790399Y-45682889D01*
X99908462Y-45515526D01*
X99911570Y-45510009D01*
X99993567Y-45322324D01*
X99995503Y-45316295D01*
X100038098Y-45115903D01*
X100038782Y-45109498D01*
X100039166Y-44999520D01*
X100495457Y-44999520D01*
X100515443Y-45203357D01*
X100516695Y-45209564D01*
X100577260Y-45405219D01*
X100579735Y-45411048D01*
X100678405Y-45590528D01*
X100682001Y-45595740D01*
X100814745Y-45751715D01*
X100819315Y-45756097D01*
X100980711Y-45882194D01*
X100986069Y-45885568D01*
X101169524Y-45976636D01*
X101175452Y-45978864D01*
X101373471Y-46031182D01*
X101379725Y-46032173D01*
X101584220Y-46043606D01*
X101590546Y-46043319D01*
X101793163Y-46013399D01*
X101799302Y-46011846D01*
X101991764Y-45941795D01*
X101997465Y-45939039D01*
X102171912Y-45831719D01*
X102176942Y-45827873D01*
X102326245Y-45687668D01*
X102330399Y-45682889D01*
X102448462Y-45515526D01*
X102451570Y-45510009D01*
X102533567Y-45322324D01*
X102535503Y-45316295D01*
X102578098Y-45115903D01*
X102578782Y-45109498D01*
X102579522Y-44897756D01*
X102578882Y-44891347D01*
X102537687Y-44690662D01*
X102535793Y-44684620D01*
X102455109Y-44496368D01*
X102452039Y-44490829D01*
X102335148Y-44322646D01*
X102331027Y-44317838D01*
X102182706Y-44176594D01*
X102177703Y-44172713D01*
X102004011Y-44064177D01*
X101998329Y-44061381D01*
X101806360Y-43989989D01*
X101800232Y-43988393D01*
X101597829Y-43957059D01*
X101591505Y-43956728D01*
X101386936Y-43966733D01*
X101380675Y-43967680D01*
X101182294Y-44018615D01*
X101176352Y-44020801D01*
X100992265Y-44110586D01*
X100986883Y-44113923D01*
X100824611Y-44238890D01*
X100820011Y-44243241D01*
X100686181Y-44398284D01*
X100682549Y-44403471D01*
X100582628Y-44582258D01*
X100580113Y-44588070D01*
X100518183Y-44783297D01*
X100516888Y-44789495D01*
X100495479Y-44993188D01*
X100495457Y-44999520D01*
X100039166Y-44999520D01*
X100039522Y-44897756D01*
X100038882Y-44891347D01*
X99997687Y-44690662D01*
X99995793Y-44684620D01*
X99915109Y-44496368D01*
X99912039Y-44490829D01*
X99795148Y-44322646D01*
X99791027Y-44317838D01*
X99642706Y-44176594D01*
X99637703Y-44172713D01*
X99464011Y-44064177D01*
X99458329Y-44061381D01*
X99266360Y-43989989D01*
X99260232Y-43988393D01*
X99057829Y-43957059D01*
X99051505Y-43956728D01*
X98846936Y-43966733D01*
X98840675Y-43967680D01*
X98642294Y-44018615D01*
X98636352Y-44020801D01*
X98452265Y-44110586D01*
X98446883Y-44113923D01*
X98284611Y-44238890D01*
X98280011Y-44243241D01*
X98146181Y-44398284D01*
X98142549Y-44403471D01*
X98042628Y-44582258D01*
X98040113Y-44588070D01*
X97978183Y-44783297D01*
X97976888Y-44789495D01*
X97955479Y-44993188D01*
X97955457Y-44999520D01*
X88164565Y-44999520D01*
X88127154Y-44902570D01*
X88121098Y-44892745D01*
X88006495Y-44766356D01*
X87997309Y-44759370D01*
X87844890Y-44682712D01*
X87833805Y-44679501D01*
X87664008Y-44662852D01*
X87652510Y-44663848D01*
X87488104Y-44709442D01*
X87477736Y-44714510D01*
X87340765Y-44816232D01*
X87332917Y-44824693D01*
X87241751Y-44968905D01*
X87237474Y-44979624D01*
X87204335Y-45146986D01*
X87204205Y-45158526D01*
X87233538Y-45326597D01*
X87237570Y-45337411D01*
X87325441Y-45483652D01*
X87333096Y-45492289D01*
X87447001Y-45580962D01*
X87447000Y-46778101D01*
X87339631Y-46857839D01*
X87331783Y-46866300D01*
X87240617Y-47010512D01*
X87236340Y-47021231D01*
X87203201Y-47188593D01*
X87203071Y-47200133D01*
X82947016Y-47200133D01*
X82985189Y-47107520D01*
X82987566Y-47095861D01*
X82989616Y-46915225D01*
X82987504Y-46903516D01*
X82943500Y-46789475D01*
X82943500Y-44708665D01*
X82985189Y-44607520D01*
X82987566Y-44595861D01*
X82989616Y-44415225D01*
X82987504Y-44403516D01*
X82926020Y-44244177D01*
X82919964Y-44234352D01*
X82805361Y-44107963D01*
X82796175Y-44100977D01*
X82643756Y-44024319D01*
X82632671Y-44021108D01*
X82462874Y-44004459D01*
X82451376Y-44005455D01*
X82286970Y-44051049D01*
X82276602Y-44056117D01*
X82139631Y-44157839D01*
X82131783Y-44166300D01*
X82040617Y-44310512D01*
X82036340Y-44321231D01*
X82003201Y-44488593D01*
X82003071Y-44500133D01*
X61727070Y-44500133D01*
X63767683Y-42459520D01*
X97955457Y-42459520D01*
X97975443Y-42663357D01*
X97976695Y-42669564D01*
X98037260Y-42865219D01*
X98039735Y-42871048D01*
X98138405Y-43050528D01*
X98142001Y-43055740D01*
X98274745Y-43211715D01*
X98279315Y-43216097D01*
X98440711Y-43342194D01*
X98446069Y-43345568D01*
X98629524Y-43436636D01*
X98635452Y-43438864D01*
X98833471Y-43491182D01*
X98839725Y-43492173D01*
X99044220Y-43503606D01*
X99050546Y-43503319D01*
X99253163Y-43473399D01*
X99259302Y-43471846D01*
X99451764Y-43401795D01*
X99457465Y-43399039D01*
X99631912Y-43291719D01*
X99636942Y-43287873D01*
X99786245Y-43147668D01*
X99790399Y-43142889D01*
X99908462Y-42975526D01*
X99911570Y-42970009D01*
X99993567Y-42782324D01*
X99995503Y-42776295D01*
X100038098Y-42575903D01*
X100038782Y-42569498D01*
X100039166Y-42459520D01*
X100495457Y-42459520D01*
X100515443Y-42663357D01*
X100516695Y-42669564D01*
X100577260Y-42865219D01*
X100579735Y-42871048D01*
X100678405Y-43050528D01*
X100682001Y-43055740D01*
X100814745Y-43211715D01*
X100819315Y-43216097D01*
X100980711Y-43342194D01*
X100986069Y-43345568D01*
X101169524Y-43436636D01*
X101175452Y-43438864D01*
X101373471Y-43491182D01*
X101379725Y-43492173D01*
X101584220Y-43503606D01*
X101590546Y-43503319D01*
X101793163Y-43473399D01*
X101799302Y-43471846D01*
X101991764Y-43401795D01*
X101997465Y-43399039D01*
X102171912Y-43291719D01*
X102176942Y-43287873D01*
X102326245Y-43147668D01*
X102330399Y-43142889D01*
X102448462Y-42975526D01*
X102451570Y-42970009D01*
X102533567Y-42782324D01*
X102535503Y-42776295D01*
X102551226Y-42702322D01*
X103066835Y-42702322D01*
X103117260Y-42865219D01*
X103119735Y-42871048D01*
X103218405Y-43050528D01*
X103222001Y-43055740D01*
X103354745Y-43211715D01*
X103359315Y-43216097D01*
X103520711Y-43342194D01*
X103526069Y-43345568D01*
X103709524Y-43436636D01*
X103715452Y-43438864D01*
X103839768Y-43471709D01*
X103888500Y-43434181D01*
X103888501Y-42688112D01*
X103851889Y-42651500D01*
X103104305Y-42651499D01*
X103066835Y-42702322D01*
X102551226Y-42702322D01*
X102578098Y-42575903D01*
X102578782Y-42569498D01*
X102579522Y-42357756D01*
X102578882Y-42351347D01*
X102551372Y-42217326D01*
X103066422Y-42217326D01*
X103103876Y-42268500D01*
X103851888Y-42268501D01*
X103888500Y-42231889D01*
X103888501Y-41485897D01*
X103840115Y-41448364D01*
X103722294Y-41478615D01*
X103716352Y-41480801D01*
X103532265Y-41570586D01*
X103526883Y-41573923D01*
X103364611Y-41698890D01*
X103360011Y-41703241D01*
X103226181Y-41858284D01*
X103222549Y-41863471D01*
X103122628Y-42042259D01*
X103120113Y-42048070D01*
X103066422Y-42217326D01*
X102551372Y-42217326D01*
X102537687Y-42150662D01*
X102535793Y-42144620D01*
X102455109Y-41956368D01*
X102452039Y-41950829D01*
X102335148Y-41782646D01*
X102331027Y-41777838D01*
X102182706Y-41636594D01*
X102177703Y-41632713D01*
X102004011Y-41524177D01*
X101998329Y-41521381D01*
X101880306Y-41477489D01*
X102195296Y-41162500D01*
X103580889Y-41162500D01*
X103624307Y-41234759D01*
X103631962Y-41243396D01*
X103766588Y-41348200D01*
X103776839Y-41353503D01*
X103940169Y-41402814D01*
X103951641Y-41404071D01*
X104121771Y-41391278D01*
X104132927Y-41388321D01*
X104287046Y-41315139D01*
X104296389Y-41308364D01*
X104413829Y-41184607D01*
X104420106Y-41174923D01*
X104485189Y-41017020D01*
X104487566Y-41005361D01*
X104489616Y-40824725D01*
X104487504Y-40813016D01*
X104426020Y-40653677D01*
X104419964Y-40643852D01*
X104305361Y-40517463D01*
X104296175Y-40510477D01*
X104143756Y-40433819D01*
X104132671Y-40430608D01*
X103962874Y-40413959D01*
X103951376Y-40414955D01*
X103786970Y-40460549D01*
X103776602Y-40465617D01*
X103639631Y-40567339D01*
X103631782Y-40575801D01*
X103580767Y-40656500D01*
X102031227Y-40656500D01*
X102015330Y-40660759D01*
X101992844Y-40673742D01*
X101967766Y-40680461D01*
X101953514Y-40688689D01*
X101929336Y-40712868D01*
X101397197Y-41245008D01*
X101319191Y-41323014D01*
X101310963Y-41337265D01*
X101304243Y-41362344D01*
X101291259Y-41384833D01*
X101287000Y-41400728D01*
X101287000Y-41451731D01*
X101182295Y-41478615D01*
X101176352Y-41480801D01*
X100992265Y-41570586D01*
X100986883Y-41573923D01*
X100824611Y-41698890D01*
X100820011Y-41703241D01*
X100686181Y-41858284D01*
X100682549Y-41863471D01*
X100582628Y-42042258D01*
X100580113Y-42048070D01*
X100518183Y-42243297D01*
X100516888Y-42249495D01*
X100495479Y-42453188D01*
X100495457Y-42459520D01*
X100039166Y-42459520D01*
X100039522Y-42357756D01*
X100038882Y-42351347D01*
X99997687Y-42150662D01*
X99995793Y-42144620D01*
X99915109Y-41956368D01*
X99912039Y-41950829D01*
X99795148Y-41782646D01*
X99791027Y-41777838D01*
X99642706Y-41636594D01*
X99637703Y-41632713D01*
X99464011Y-41524177D01*
X99458329Y-41521382D01*
X99443500Y-41515867D01*
X99443500Y-39637823D01*
X102935479Y-36145845D01*
X103060165Y-36086640D01*
X103069508Y-36079865D01*
X103186948Y-35956108D01*
X103193225Y-35946424D01*
X103258308Y-35788521D01*
X103260685Y-35776862D01*
X103262735Y-35596226D01*
X103260623Y-35584517D01*
X103221002Y-35481836D01*
X103221771Y-35481778D01*
X103223520Y-35481315D01*
X104947001Y-37204796D01*
X104947000Y-41886027D01*
X104875148Y-41782646D01*
X104871027Y-41777838D01*
X104722706Y-41636594D01*
X104717703Y-41632713D01*
X104544011Y-41524177D01*
X104538329Y-41521381D01*
X104325161Y-41442106D01*
X104271500Y-41479401D01*
X104271499Y-42231889D01*
X104271500Y-42231890D01*
X104271499Y-43439800D01*
X104324802Y-43477124D01*
X104531765Y-43401795D01*
X104537465Y-43399039D01*
X104711912Y-43291719D01*
X104716942Y-43287873D01*
X104866245Y-43147668D01*
X104870399Y-43142889D01*
X104947000Y-43034301D01*
X104947000Y-43775205D01*
X104614181Y-44108024D01*
X104544011Y-44064177D01*
X104538329Y-44061381D01*
X104346360Y-43989989D01*
X104340232Y-43988393D01*
X104137829Y-43957059D01*
X104131505Y-43956728D01*
X103926936Y-43966733D01*
X103920675Y-43967680D01*
X103722294Y-44018615D01*
X103716352Y-44020801D01*
X103532265Y-44110586D01*
X103526883Y-44113923D01*
X103364611Y-44238890D01*
X103360011Y-44243241D01*
X103226181Y-44398284D01*
X103222549Y-44403471D01*
X103122628Y-44582258D01*
X103120113Y-44588070D01*
X103058183Y-44783297D01*
X103056888Y-44789495D01*
X103035479Y-44993188D01*
X103035457Y-44999520D01*
X103055443Y-45203357D01*
X103056695Y-45209564D01*
X103117260Y-45405219D01*
X103119735Y-45411048D01*
X103218405Y-45590528D01*
X103222001Y-45595740D01*
X103354745Y-45751715D01*
X103359315Y-45756097D01*
X103520711Y-45882194D01*
X103526069Y-45885568D01*
X103709524Y-45976636D01*
X103715452Y-45978864D01*
X103913471Y-46031182D01*
X103919725Y-46032173D01*
X104124220Y-46043606D01*
X104130546Y-46043319D01*
X104333163Y-46013399D01*
X104339302Y-46011846D01*
X104531764Y-45941795D01*
X104537465Y-45939039D01*
X104711912Y-45831719D01*
X104716942Y-45827873D01*
X104866245Y-45687668D01*
X104870399Y-45682889D01*
X104988462Y-45515526D01*
X104991570Y-45510009D01*
X105073567Y-45322324D01*
X105075503Y-45316295D01*
X105118098Y-45115903D01*
X105118782Y-45109498D01*
X105119522Y-44897756D01*
X105118882Y-44891347D01*
X105077687Y-44690662D01*
X105075793Y-44684620D01*
X104995109Y-44496368D01*
X104992039Y-44490829D01*
X104973557Y-44464238D01*
X105374293Y-44063502D01*
X105420811Y-44016986D01*
X105429039Y-44002733D01*
X105435759Y-43977654D01*
X105448740Y-43955170D01*
X105453000Y-43939274D01*
X105453000Y-37071087D01*
X105452999Y-37071079D01*
X105452999Y-37040727D01*
X105448740Y-37024831D01*
X105435759Y-37002347D01*
X105429039Y-36977266D01*
X105420810Y-36963014D01*
X105334013Y-36876217D01*
X105334011Y-36876216D01*
X103579388Y-35121593D01*
X103585189Y-35107520D01*
X103587566Y-35095861D01*
X103589616Y-34915225D01*
X103587504Y-34903516D01*
X103526020Y-34744177D01*
X103519964Y-34734352D01*
X103405361Y-34607963D01*
X103396175Y-34600977D01*
X103243756Y-34524319D01*
X103232671Y-34521108D01*
X103062874Y-34504459D01*
X103051376Y-34505455D01*
X102886970Y-34551049D01*
X102876602Y-34556117D01*
X102739631Y-34657839D01*
X102731783Y-34666300D01*
X102640617Y-34810512D01*
X102636340Y-34821231D01*
X102603201Y-34988593D01*
X102603071Y-35000133D01*
X102632404Y-35168204D01*
X102636436Y-35179018D01*
X102652845Y-35206326D01*
X102560089Y-35232050D01*
X102549721Y-35237118D01*
X102412750Y-35338840D01*
X102404902Y-35347301D01*
X102313736Y-35491513D01*
X102309459Y-35502232D01*
X102305700Y-35521216D01*
X98717287Y-39109630D01*
X98685474Y-39130887D01*
X98676768Y-39139593D01*
X98652092Y-39176523D01*
X98585719Y-39275857D01*
X98581008Y-39287231D01*
X98549036Y-39447964D01*
X98549036Y-39460276D01*
X98556501Y-39497804D01*
X98556500Y-41519747D01*
X98452265Y-41570586D01*
X98446883Y-41573923D01*
X98284611Y-41698890D01*
X98280011Y-41703241D01*
X98146181Y-41858284D01*
X98142549Y-41863471D01*
X98042628Y-42042258D01*
X98040113Y-42048070D01*
X97978183Y-42243297D01*
X97976888Y-42249495D01*
X97955479Y-42453188D01*
X97955457Y-42459520D01*
X63767683Y-42459520D01*
X65662358Y-40564845D01*
X65787046Y-40505639D01*
X65796389Y-40498864D01*
X65913829Y-40375107D01*
X65920106Y-40365423D01*
X65985189Y-40207520D01*
X65987566Y-40195861D01*
X65989616Y-40015225D01*
X65987504Y-40003516D01*
X65926020Y-39844177D01*
X65919964Y-39834352D01*
X65805361Y-39707963D01*
X65796175Y-39700977D01*
X65643756Y-39624319D01*
X65632671Y-39621108D01*
X65462874Y-39604459D01*
X65451376Y-39605455D01*
X65286970Y-39651049D01*
X65276602Y-39656117D01*
X65139631Y-39757839D01*
X65131783Y-39766300D01*
X65040617Y-39910512D01*
X65036340Y-39921230D01*
X65032580Y-39940217D01*
X54417287Y-50555510D01*
X54385474Y-50576767D01*
X54376768Y-50585473D01*
X54352092Y-50622403D01*
X54285719Y-50721737D01*
X54281008Y-50733111D01*
X54249036Y-50893844D01*
X54249036Y-50906156D01*
X54256501Y-50943684D01*
X54256500Y-52085387D01*
X54240617Y-52110512D01*
X54236340Y-52121231D01*
X54203201Y-52288593D01*
X54203071Y-52300133D01*
X45190078Y-52300133D01*
X45190078Y-40442788D01*
X45189857Y-40439075D01*
X45150391Y-40109000D01*
X45148889Y-40102470D01*
X45044732Y-39801525D01*
X45042258Y-39796108D01*
X44883214Y-39520637D01*
X44879760Y-39515786D01*
X44671458Y-39275392D01*
X44667148Y-39271283D01*
X44417115Y-39074655D01*
X44412105Y-39071436D01*
X44129378Y-38925680D01*
X44123850Y-38923466D01*
X43818648Y-38833851D01*
X43812801Y-38832724D01*
X43575490Y-38810064D01*
X43572518Y-38809922D01*
X40442788Y-38809922D01*
X40439075Y-38810143D01*
X40109000Y-38849609D01*
X40102470Y-38851111D01*
X39801525Y-38955268D01*
X39796108Y-38957742D01*
X39520637Y-39116786D01*
X39515786Y-39120240D01*
X39275392Y-39328542D01*
X39271283Y-39332852D01*
X39074655Y-39582885D01*
X39071436Y-39587895D01*
X38925680Y-39870622D01*
X38923466Y-39876150D01*
X38833851Y-40181352D01*
X38832724Y-40187199D01*
X38810064Y-40424510D01*
X38809922Y-40427482D01*
X25188471Y-40427482D01*
X25150391Y-40109000D01*
X25148889Y-40102470D01*
X25044732Y-39801525D01*
X25042258Y-39796108D01*
X24883214Y-39520637D01*
X24879760Y-39515786D01*
X24671458Y-39275392D01*
X24667148Y-39271283D01*
X24417115Y-39074655D01*
X24412105Y-39071436D01*
X24129378Y-38925680D01*
X24123850Y-38923466D01*
X23818648Y-38833851D01*
X23812801Y-38832724D01*
X23575490Y-38810064D01*
X23572518Y-38809922D01*
X22228112Y-38809922D01*
X22191500Y-38846534D01*
X21808500Y-38846534D01*
X21771888Y-38809922D01*
X20442788Y-38809922D01*
X20439075Y-38810143D01*
X20109000Y-38849609D01*
X20102470Y-38851111D01*
X19801525Y-38955268D01*
X19796108Y-38957742D01*
X19520637Y-39116786D01*
X19515786Y-39120240D01*
X19275392Y-39328542D01*
X19271283Y-39332852D01*
X19074655Y-39582885D01*
X19071436Y-39587895D01*
X18925680Y-39870622D01*
X18923466Y-39876150D01*
X18833851Y-40181352D01*
X18832724Y-40187199D01*
X18810064Y-40424510D01*
X18809922Y-40427482D01*
X12189500Y-40427482D01*
X12189500Y-31000133D01*
X77403071Y-31000133D01*
X77432404Y-31168204D01*
X77436436Y-31179018D01*
X77524307Y-31325259D01*
X77531962Y-31333896D01*
X77666588Y-31438700D01*
X77676839Y-31444003D01*
X77840169Y-31493314D01*
X77851641Y-31494571D01*
X78021771Y-31481778D01*
X78032927Y-31478821D01*
X78187046Y-31405639D01*
X78196389Y-31398864D01*
X78313829Y-31275107D01*
X78320106Y-31265423D01*
X78385189Y-31107520D01*
X78387566Y-31095861D01*
X78389616Y-30915225D01*
X78387504Y-30903516D01*
X78378254Y-30879542D01*
X79104796Y-30153000D01*
X80884500Y-30153000D01*
X80924307Y-30219249D01*
X80931962Y-30227886D01*
X81066588Y-30332690D01*
X81076839Y-30337993D01*
X81240169Y-30387304D01*
X81251641Y-30388561D01*
X81421771Y-30375768D01*
X81432927Y-30372811D01*
X81587046Y-30299629D01*
X81596389Y-30292854D01*
X81628953Y-30258539D01*
X81603201Y-30388593D01*
X81603071Y-30400133D01*
X81632404Y-30568204D01*
X81636436Y-30579018D01*
X81724307Y-30725259D01*
X81731962Y-30733896D01*
X81866588Y-30838700D01*
X81876839Y-30844003D01*
X82040169Y-30893314D01*
X82051641Y-30894571D01*
X82221771Y-30881778D01*
X82232927Y-30878821D01*
X82387046Y-30805639D01*
X82396389Y-30798864D01*
X82513829Y-30675107D01*
X82520106Y-30665423D01*
X82525226Y-30653000D01*
X83619797Y-30653000D01*
X83267850Y-31004947D01*
X83262875Y-31004459D01*
X83251376Y-31005455D01*
X83086970Y-31051049D01*
X83076602Y-31056117D01*
X82939631Y-31157839D01*
X82931783Y-31166300D01*
X82840617Y-31310512D01*
X82836340Y-31321231D01*
X82803201Y-31488593D01*
X82803071Y-31500133D01*
X82832404Y-31668204D01*
X82836436Y-31679018D01*
X82924307Y-31825259D01*
X82931962Y-31833896D01*
X83066588Y-31938700D01*
X83076839Y-31944003D01*
X83240169Y-31993314D01*
X83251641Y-31994571D01*
X83275358Y-31992788D01*
X78921147Y-36347000D01*
X78827109Y-36347000D01*
X78826020Y-36344177D01*
X78819964Y-36334352D01*
X78705361Y-36207963D01*
X78696175Y-36200977D01*
X78543756Y-36124319D01*
X78532671Y-36121108D01*
X78362874Y-36104459D01*
X78351376Y-36105455D01*
X78186970Y-36151049D01*
X78176602Y-36156117D01*
X78039631Y-36257839D01*
X78031783Y-36266300D01*
X77940617Y-36410512D01*
X77936340Y-36421231D01*
X77903201Y-36588593D01*
X77903071Y-36600133D01*
X77932404Y-36768204D01*
X77936436Y-36779018D01*
X78024307Y-36925259D01*
X78031962Y-36933896D01*
X78166588Y-37038700D01*
X78176839Y-37044003D01*
X78340169Y-37093314D01*
X78351641Y-37094571D01*
X78521771Y-37081778D01*
X78532927Y-37078821D01*
X78687046Y-37005639D01*
X78696389Y-36998864D01*
X78813829Y-36875107D01*
X78820106Y-36865423D01*
X78825226Y-36853000D01*
X79085214Y-36853000D01*
X79101111Y-36848741D01*
X79123595Y-36835759D01*
X79148675Y-36829039D01*
X79162928Y-36820811D01*
X79249725Y-36734013D01*
X79249726Y-36734011D01*
X85425836Y-30557902D01*
X87777621Y-30557902D01*
X87821039Y-30630161D01*
X87828694Y-30638798D01*
X87963320Y-30743602D01*
X87973571Y-30748905D01*
X88136901Y-30798216D01*
X88148373Y-30799473D01*
X88318503Y-30786680D01*
X88329659Y-30783723D01*
X88483778Y-30710541D01*
X88493121Y-30703766D01*
X88610561Y-30580009D01*
X88616838Y-30570325D01*
X88681921Y-30412422D01*
X88684298Y-30400763D01*
X88686348Y-30220127D01*
X88684236Y-30208418D01*
X88675305Y-30185272D01*
X88721771Y-30181778D01*
X88732927Y-30178821D01*
X88887046Y-30105639D01*
X88896389Y-30098864D01*
X89013829Y-29975107D01*
X89020106Y-29965423D01*
X89085189Y-29807520D01*
X89087566Y-29795861D01*
X89088905Y-29677837D01*
X89140169Y-29693314D01*
X89151641Y-29694571D01*
X89321771Y-29681778D01*
X89332927Y-29678821D01*
X89487046Y-29605639D01*
X89496389Y-29598864D01*
X89613829Y-29475107D01*
X89620106Y-29465423D01*
X89685189Y-29307520D01*
X89687566Y-29295861D01*
X89689616Y-29115225D01*
X89687504Y-29103516D01*
X89626020Y-28944177D01*
X89619964Y-28934352D01*
X89505361Y-28807963D01*
X89496175Y-28800977D01*
X89343756Y-28724319D01*
X89332671Y-28721108D01*
X89162874Y-28704459D01*
X89151376Y-28705455D01*
X88986970Y-28751049D01*
X88976602Y-28756117D01*
X88839631Y-28857839D01*
X88831782Y-28866301D01*
X88780767Y-28947000D01*
X88340727Y-28947000D01*
X88324830Y-28951259D01*
X88302344Y-28964242D01*
X88277266Y-28970961D01*
X88263014Y-28979189D01*
X88238836Y-29003368D01*
X88095205Y-29147000D01*
X84371087Y-29147000D01*
X84371079Y-29147001D01*
X84340727Y-29147001D01*
X84324831Y-29151260D01*
X84302347Y-29164241D01*
X84277266Y-29170961D01*
X84263014Y-29179190D01*
X84176217Y-29265987D01*
X84176216Y-29265989D01*
X83801215Y-29640990D01*
X81727109Y-29640990D01*
X81726020Y-29638167D01*
X81719964Y-29628342D01*
X81605361Y-29501953D01*
X81596175Y-29494967D01*
X81443756Y-29418309D01*
X81432671Y-29415098D01*
X81262874Y-29398449D01*
X81251376Y-29399445D01*
X81086970Y-29445039D01*
X81076602Y-29450107D01*
X80939632Y-29551829D01*
X80931783Y-29560290D01*
X80876967Y-29647000D01*
X78940727Y-29647000D01*
X78924830Y-29651259D01*
X78902344Y-29664242D01*
X78877266Y-29670961D01*
X78863014Y-29679189D01*
X78838836Y-29703368D01*
X78022130Y-30520074D01*
X77862874Y-30504459D01*
X77851376Y-30505455D01*
X77686970Y-30551049D01*
X77676602Y-30556117D01*
X77539631Y-30657839D01*
X77531783Y-30666300D01*
X77440617Y-30810512D01*
X77436340Y-30821231D01*
X77403201Y-30988593D01*
X77403071Y-31000133D01*
X12189500Y-31000133D01*
X12189500Y-22862323D01*
X20986835Y-22862323D01*
X21037260Y-23025219D01*
X21039735Y-23031048D01*
X21138405Y-23210528D01*
X21142001Y-23215740D01*
X21274745Y-23371715D01*
X21279315Y-23376097D01*
X21440711Y-23502194D01*
X21446069Y-23505568D01*
X21629524Y-23596636D01*
X21635452Y-23598864D01*
X21759768Y-23631709D01*
X21808500Y-23594181D01*
X21808500Y-22848112D01*
X22191500Y-22848112D01*
X22191500Y-23599799D01*
X22244803Y-23637123D01*
X22451764Y-23561795D01*
X22457465Y-23559039D01*
X22631912Y-23451719D01*
X22636942Y-23447873D01*
X22786245Y-23307668D01*
X22790399Y-23302889D01*
X22908462Y-23135526D01*
X22911570Y-23130009D01*
X22993567Y-22942324D01*
X22995503Y-22936295D01*
X23011226Y-22862323D01*
X54986835Y-22862323D01*
X55037260Y-23025219D01*
X55039735Y-23031048D01*
X55138405Y-23210528D01*
X55142001Y-23215740D01*
X55274745Y-23371715D01*
X55279315Y-23376097D01*
X55440711Y-23502194D01*
X55446069Y-23505568D01*
X55629524Y-23596636D01*
X55635452Y-23598864D01*
X55759768Y-23631709D01*
X55808500Y-23594181D01*
X55808500Y-22848112D01*
X56191500Y-22848112D01*
X56191500Y-23599799D01*
X56244803Y-23637123D01*
X56451764Y-23561795D01*
X56457465Y-23559039D01*
X56631912Y-23451719D01*
X56636942Y-23447873D01*
X56786245Y-23307668D01*
X56790399Y-23302889D01*
X56908462Y-23135526D01*
X56911570Y-23130009D01*
X56993567Y-22942324D01*
X56995503Y-22936295D01*
X57012180Y-22857835D01*
X56974659Y-22811500D01*
X56228112Y-22811500D01*
X56191500Y-22848112D01*
X55808500Y-22848112D01*
X55771888Y-22811500D01*
X55024305Y-22811500D01*
X54986835Y-22862323D01*
X23011226Y-22862323D01*
X23012180Y-22857835D01*
X22974659Y-22811500D01*
X22228112Y-22811500D01*
X22191500Y-22848112D01*
X21808500Y-22848112D01*
X21771888Y-22811500D01*
X21024305Y-22811500D01*
X20986835Y-22862323D01*
X12189500Y-22862323D01*
X12189500Y-22377326D01*
X20986422Y-22377326D01*
X21023876Y-22428500D01*
X21771888Y-22428500D01*
X21808500Y-22391888D01*
X21808500Y-21645897D01*
X21800126Y-21639401D01*
X22191500Y-21639401D01*
X22191500Y-22391888D01*
X22228112Y-22428500D01*
X22974920Y-22428500D01*
X23012434Y-22382504D01*
X23011372Y-22377326D01*
X54986422Y-22377326D01*
X55023876Y-22428500D01*
X55771888Y-22428500D01*
X55808500Y-22391888D01*
X55808500Y-21645897D01*
X55800126Y-21639401D01*
X56191500Y-21639401D01*
X56191500Y-22391888D01*
X56228112Y-22428500D01*
X56974920Y-22428500D01*
X57012434Y-22382504D01*
X56997687Y-22310662D01*
X56995793Y-22304620D01*
X56915109Y-22116368D01*
X56912039Y-22110829D01*
X56795148Y-21942646D01*
X56791027Y-21937838D01*
X56642706Y-21796594D01*
X56637703Y-21792713D01*
X56464011Y-21684177D01*
X56458329Y-21681381D01*
X56245161Y-21602106D01*
X56191500Y-21639401D01*
X55800126Y-21639401D01*
X55760113Y-21608364D01*
X55642294Y-21638615D01*
X55636351Y-21640801D01*
X55452265Y-21730586D01*
X55446883Y-21733923D01*
X55284611Y-21858890D01*
X55280011Y-21863241D01*
X55146181Y-22018284D01*
X55142549Y-22023471D01*
X55042628Y-22202259D01*
X55040113Y-22208070D01*
X54986422Y-22377326D01*
X23011372Y-22377326D01*
X22997687Y-22310662D01*
X22995793Y-22304620D01*
X22915109Y-22116368D01*
X22912039Y-22110829D01*
X22795148Y-21942646D01*
X22791027Y-21937838D01*
X22642706Y-21796594D01*
X22637703Y-21792713D01*
X22464011Y-21684177D01*
X22458329Y-21681381D01*
X22245161Y-21602106D01*
X22191500Y-21639401D01*
X21800126Y-21639401D01*
X21760113Y-21608364D01*
X21642294Y-21638615D01*
X21636351Y-21640801D01*
X21452265Y-21730586D01*
X21446883Y-21733923D01*
X21284611Y-21858890D01*
X21280011Y-21863241D01*
X21146181Y-22018284D01*
X21142549Y-22023471D01*
X21042628Y-22202259D01*
X21040113Y-22208070D01*
X20986422Y-22377326D01*
X12189500Y-22377326D01*
X12189500Y-20079520D01*
X20955457Y-20079520D01*
X20975443Y-20283357D01*
X20976695Y-20289564D01*
X21037260Y-20485219D01*
X21039735Y-20491048D01*
X21138405Y-20670528D01*
X21142001Y-20675740D01*
X21274745Y-20831715D01*
X21279315Y-20836097D01*
X21440711Y-20962194D01*
X21446069Y-20965568D01*
X21629524Y-21056636D01*
X21635452Y-21058864D01*
X21833471Y-21111182D01*
X21839725Y-21112173D01*
X22044220Y-21123606D01*
X22050546Y-21123319D01*
X22253163Y-21093399D01*
X22259302Y-21091846D01*
X22451764Y-21021795D01*
X22457465Y-21019039D01*
X22631912Y-20911719D01*
X22636942Y-20907873D01*
X22786245Y-20767668D01*
X22790399Y-20762889D01*
X22908462Y-20595526D01*
X22911570Y-20590009D01*
X22993567Y-20402324D01*
X22995503Y-20396295D01*
X23038098Y-20195903D01*
X23038782Y-20189498D01*
X23039166Y-20079520D01*
X54955457Y-20079520D01*
X54975443Y-20283357D01*
X54976695Y-20289564D01*
X55037260Y-20485219D01*
X55039735Y-20491048D01*
X55138405Y-20670528D01*
X55142001Y-20675740D01*
X55274745Y-20831715D01*
X55279315Y-20836097D01*
X55440711Y-20962194D01*
X55446069Y-20965568D01*
X55629524Y-21056636D01*
X55635452Y-21058864D01*
X55833471Y-21111182D01*
X55839725Y-21112173D01*
X56044220Y-21123606D01*
X56050546Y-21123319D01*
X56253163Y-21093399D01*
X56259302Y-21091846D01*
X56451764Y-21021795D01*
X56457465Y-21019039D01*
X56631912Y-20911719D01*
X56636942Y-20907873D01*
X56786245Y-20767668D01*
X56790399Y-20762889D01*
X56908462Y-20595526D01*
X56911570Y-20590009D01*
X56993567Y-20402324D01*
X56995503Y-20396295D01*
X57038098Y-20195903D01*
X57038782Y-20189498D01*
X57039522Y-19977756D01*
X57038882Y-19971347D01*
X56997687Y-19770662D01*
X56995793Y-19764620D01*
X56915109Y-19576368D01*
X56912039Y-19570829D01*
X56795148Y-19402646D01*
X56791027Y-19397838D01*
X56642706Y-19256594D01*
X56637703Y-19252713D01*
X56464011Y-19144177D01*
X56458329Y-19141381D01*
X56266360Y-19069989D01*
X56260232Y-19068393D01*
X56057829Y-19037059D01*
X56051505Y-19036728D01*
X55846936Y-19046733D01*
X55840675Y-19047680D01*
X55642294Y-19098615D01*
X55636352Y-19100801D01*
X55452265Y-19190586D01*
X55446883Y-19193923D01*
X55284611Y-19318890D01*
X55280011Y-19323241D01*
X55146181Y-19478284D01*
X55142549Y-19483471D01*
X55042628Y-19662258D01*
X55040113Y-19668070D01*
X54978183Y-19863297D01*
X54976888Y-19869495D01*
X54955479Y-20073188D01*
X54955457Y-20079520D01*
X23039166Y-20079520D01*
X23039522Y-19977756D01*
X23038882Y-19971347D01*
X22997687Y-19770662D01*
X22995793Y-19764620D01*
X22915109Y-19576368D01*
X22912039Y-19570829D01*
X22795148Y-19402646D01*
X22791027Y-19397838D01*
X22642706Y-19256594D01*
X22637703Y-19252713D01*
X22464011Y-19144177D01*
X22458329Y-19141381D01*
X22266360Y-19069989D01*
X22260232Y-19068393D01*
X22057829Y-19037059D01*
X22051505Y-19036728D01*
X21846936Y-19046733D01*
X21840675Y-19047680D01*
X21642294Y-19098615D01*
X21636352Y-19100801D01*
X21452265Y-19190586D01*
X21446883Y-19193923D01*
X21284611Y-19318890D01*
X21280011Y-19323241D01*
X21146181Y-19478284D01*
X21142549Y-19483471D01*
X21042628Y-19662258D01*
X21040113Y-19668070D01*
X20978183Y-19863297D01*
X20976888Y-19869495D01*
X20955479Y-20073188D01*
X20955457Y-20079520D01*
X12189500Y-20079520D01*
X12189500Y-17539520D01*
X20955457Y-17539520D01*
X20975443Y-17743357D01*
X20976695Y-17749564D01*
X21037260Y-17945219D01*
X21039735Y-17951048D01*
X21138405Y-18130528D01*
X21142001Y-18135740D01*
X21274745Y-18291715D01*
X21279315Y-18296097D01*
X21440711Y-18422194D01*
X21446069Y-18425568D01*
X21629524Y-18516636D01*
X21635452Y-18518864D01*
X21833471Y-18571182D01*
X21839725Y-18572173D01*
X22044220Y-18583606D01*
X22050546Y-18583319D01*
X22253163Y-18553399D01*
X22259302Y-18551846D01*
X22451764Y-18481795D01*
X22457465Y-18479039D01*
X22631912Y-18371719D01*
X22636942Y-18367873D01*
X22786245Y-18227668D01*
X22790399Y-18222889D01*
X22908462Y-18055526D01*
X22911570Y-18050009D01*
X22993567Y-17862324D01*
X22995503Y-17856295D01*
X23038098Y-17655903D01*
X23038782Y-17649498D01*
X23039166Y-17539520D01*
X54955457Y-17539520D01*
X54975443Y-17743357D01*
X54976695Y-17749564D01*
X55037260Y-17945219D01*
X55039735Y-17951048D01*
X55138405Y-18130528D01*
X55142001Y-18135740D01*
X55274745Y-18291715D01*
X55279315Y-18296097D01*
X55440711Y-18422194D01*
X55446069Y-18425568D01*
X55629524Y-18516636D01*
X55635452Y-18518864D01*
X55833471Y-18571182D01*
X55839725Y-18572173D01*
X56044220Y-18583606D01*
X56050546Y-18583319D01*
X56253163Y-18553399D01*
X56259302Y-18551846D01*
X56401381Y-18500133D01*
X71503071Y-18500133D01*
X71532404Y-18668204D01*
X71536436Y-18679018D01*
X71624307Y-18825259D01*
X71631962Y-18833896D01*
X71766588Y-18938700D01*
X71776839Y-18944003D01*
X71940169Y-18993314D01*
X71951641Y-18994571D01*
X72121771Y-18981778D01*
X72123520Y-18981315D01*
X72266717Y-19124512D01*
X72266718Y-19124514D01*
X72353515Y-19211312D01*
X72367768Y-19219540D01*
X72392847Y-19226260D01*
X72415331Y-19239241D01*
X72431227Y-19243501D01*
X94572472Y-19243501D01*
X95238982Y-19910012D01*
X95238983Y-28633657D01*
X95238982Y-28633661D01*
X95238982Y-28751254D01*
X95243241Y-28767149D01*
X95256225Y-28789638D01*
X95262945Y-28814717D01*
X95271173Y-28828968D01*
X95295350Y-28853145D01*
X96402779Y-29960575D01*
X96402780Y-33297454D01*
X96402779Y-33297458D01*
X96402779Y-33415051D01*
X96407038Y-33430946D01*
X96420022Y-33453435D01*
X96426742Y-33478514D01*
X96434970Y-33492765D01*
X96459147Y-33516942D01*
X96824290Y-33882086D01*
X96803201Y-33988593D01*
X96803071Y-34000133D01*
X96832404Y-34168204D01*
X96836436Y-34179018D01*
X96924307Y-34325259D01*
X96931962Y-34333896D01*
X97066588Y-34438700D01*
X97076839Y-34444003D01*
X97240169Y-34493314D01*
X97251641Y-34494571D01*
X97421771Y-34481778D01*
X97432927Y-34478821D01*
X97587046Y-34405639D01*
X97596389Y-34398864D01*
X97713829Y-34275107D01*
X97720106Y-34265423D01*
X97785189Y-34107520D01*
X97787566Y-34095861D01*
X97789616Y-33915225D01*
X97787504Y-33903516D01*
X97726020Y-33744177D01*
X97719964Y-33734352D01*
X97605361Y-33607963D01*
X97596175Y-33600977D01*
X97443756Y-33524319D01*
X97432671Y-33521108D01*
X97262874Y-33504459D01*
X97251376Y-33505455D01*
X97182383Y-33524588D01*
X96908779Y-33250984D01*
X96908779Y-31582026D01*
X97029378Y-31675910D01*
X97039629Y-31681213D01*
X97202959Y-31730524D01*
X97214431Y-31731781D01*
X97384561Y-31718988D01*
X97395717Y-31716031D01*
X97549836Y-31642849D01*
X97559179Y-31636074D01*
X97676619Y-31512317D01*
X97682896Y-31502633D01*
X97747979Y-31344730D01*
X97750356Y-31333071D01*
X97752406Y-31152435D01*
X97750294Y-31140726D01*
X97688810Y-30981387D01*
X97682754Y-30971562D01*
X97642532Y-30927204D01*
X97687336Y-30905929D01*
X97696679Y-30899154D01*
X97814119Y-30775397D01*
X97820396Y-30765713D01*
X97885479Y-30607810D01*
X97887856Y-30596151D01*
X97889906Y-30415515D01*
X97887794Y-30403806D01*
X97826310Y-30244467D01*
X97820254Y-30234642D01*
X97705651Y-30108253D01*
X97696465Y-30101267D01*
X97653290Y-30079552D01*
X97653290Y-29822569D01*
X97649031Y-29806672D01*
X97636048Y-29784186D01*
X97629329Y-29759108D01*
X97625803Y-29753000D01*
X98280889Y-29753000D01*
X98324307Y-29825259D01*
X98331962Y-29833896D01*
X98466588Y-29938700D01*
X98476839Y-29944003D01*
X98640169Y-29993314D01*
X98651641Y-29994571D01*
X98821771Y-29981778D01*
X98832927Y-29978821D01*
X98987046Y-29905639D01*
X98996389Y-29898864D01*
X99113829Y-29775107D01*
X99120106Y-29765423D01*
X99185189Y-29607520D01*
X99187566Y-29595861D01*
X99189616Y-29415225D01*
X99187504Y-29403516D01*
X99133090Y-29262499D01*
X100304704Y-29262499D01*
X102624290Y-31582086D01*
X102603201Y-31688593D01*
X102603071Y-31700133D01*
X102632404Y-31868204D01*
X102636436Y-31879018D01*
X102724307Y-32025259D01*
X102731962Y-32033896D01*
X102866588Y-32138700D01*
X102876839Y-32144003D01*
X103040169Y-32193314D01*
X103051641Y-32194571D01*
X103221771Y-32181778D01*
X103232927Y-32178821D01*
X103387046Y-32105639D01*
X103396389Y-32098864D01*
X103465002Y-32026560D01*
X103524307Y-32125259D01*
X103531962Y-32133896D01*
X103666588Y-32238700D01*
X103676839Y-32244003D01*
X103840169Y-32293314D01*
X103851641Y-32294571D01*
X104021771Y-32281778D01*
X104032927Y-32278821D01*
X104187046Y-32205639D01*
X104196389Y-32198864D01*
X104313829Y-32075107D01*
X104320106Y-32065423D01*
X104385189Y-31907520D01*
X104387566Y-31895861D01*
X104389616Y-31715225D01*
X104387504Y-31703516D01*
X104326020Y-31544177D01*
X104319964Y-31534352D01*
X104205361Y-31407963D01*
X104196175Y-31400977D01*
X104043756Y-31324319D01*
X104032671Y-31321108D01*
X103862874Y-31304459D01*
X103851376Y-31305455D01*
X103782384Y-31324588D01*
X103153000Y-30695205D01*
X103153000Y-27300133D01*
X104503071Y-27300133D01*
X104532404Y-27468204D01*
X104536436Y-27479018D01*
X104624307Y-27625259D01*
X104631962Y-27633896D01*
X104747000Y-27723451D01*
X104747001Y-30271080D01*
X104747000Y-30271088D01*
X104747001Y-32778101D01*
X104639631Y-32857839D01*
X104631783Y-32866300D01*
X104540617Y-33010512D01*
X104536340Y-33021231D01*
X104503201Y-33188593D01*
X104503071Y-33200133D01*
X104532404Y-33368204D01*
X104536436Y-33379018D01*
X104624307Y-33525259D01*
X104631962Y-33533896D01*
X104766588Y-33638700D01*
X104776839Y-33644003D01*
X104940169Y-33693314D01*
X104951641Y-33694571D01*
X105121771Y-33681778D01*
X105132927Y-33678821D01*
X105287046Y-33605639D01*
X105296389Y-33598864D01*
X105413829Y-33475107D01*
X105420106Y-33465423D01*
X105485189Y-33307520D01*
X105487566Y-33295861D01*
X105489616Y-33115225D01*
X105487504Y-33103516D01*
X105426020Y-32944177D01*
X105419964Y-32934352D01*
X105305361Y-32807963D01*
X105296175Y-32800977D01*
X105253000Y-32779262D01*
X105253000Y-30716085D01*
X105324307Y-30834759D01*
X105331962Y-30843396D01*
X105466588Y-30948200D01*
X105476839Y-30953503D01*
X105640169Y-31002814D01*
X105651641Y-31004071D01*
X105821771Y-30991278D01*
X105832927Y-30988321D01*
X105987046Y-30915139D01*
X105996389Y-30908364D01*
X106113829Y-30784607D01*
X106120106Y-30774923D01*
X106150932Y-30700133D01*
X108003071Y-30700133D01*
X108032404Y-30868204D01*
X108036436Y-30879018D01*
X108124307Y-31025259D01*
X108131962Y-31033896D01*
X108247001Y-31123452D01*
X108247000Y-36178101D01*
X108139631Y-36257839D01*
X108131783Y-36266300D01*
X108040617Y-36410512D01*
X108036340Y-36421231D01*
X108003201Y-36588593D01*
X108003071Y-36600133D01*
X108032404Y-36768204D01*
X108036436Y-36779018D01*
X108124307Y-36925259D01*
X108131962Y-36933896D01*
X108266588Y-37038700D01*
X108276839Y-37044003D01*
X108440169Y-37093314D01*
X108451641Y-37094571D01*
X108621771Y-37081778D01*
X108632927Y-37078821D01*
X108787046Y-37005639D01*
X108796389Y-36998864D01*
X108913829Y-36875107D01*
X108920106Y-36865423D01*
X108985189Y-36707520D01*
X108987566Y-36695861D01*
X108989616Y-36515225D01*
X108987504Y-36503516D01*
X108926020Y-36344177D01*
X108919964Y-36334352D01*
X108805361Y-36207963D01*
X108796175Y-36200977D01*
X108753000Y-36179262D01*
X108753000Y-31121805D01*
X108787046Y-31105639D01*
X108796389Y-31098864D01*
X108913829Y-30975107D01*
X108920106Y-30965423D01*
X108985189Y-30807520D01*
X108987566Y-30795861D01*
X108989616Y-30615225D01*
X108987504Y-30603516D01*
X108926020Y-30444177D01*
X108919964Y-30434352D01*
X108805361Y-30307963D01*
X108796175Y-30300977D01*
X108643756Y-30224319D01*
X108632671Y-30221108D01*
X108462874Y-30204459D01*
X108451376Y-30205455D01*
X108286970Y-30251049D01*
X108276602Y-30256117D01*
X108139631Y-30357839D01*
X108131783Y-30366300D01*
X108040617Y-30510512D01*
X108036340Y-30521231D01*
X108003201Y-30688593D01*
X108003071Y-30700133D01*
X106150932Y-30700133D01*
X106185189Y-30617020D01*
X106187566Y-30605361D01*
X106189616Y-30424725D01*
X106187504Y-30413015D01*
X106178253Y-30389042D01*
X107034011Y-29533284D01*
X107034013Y-29533283D01*
X107120811Y-29446486D01*
X107129039Y-29432233D01*
X107135759Y-29407154D01*
X107148740Y-29384670D01*
X107153000Y-29368774D01*
X107153000Y-28521805D01*
X107187046Y-28505639D01*
X107196389Y-28498864D01*
X107313829Y-28375107D01*
X107320106Y-28365423D01*
X107385189Y-28207520D01*
X107387566Y-28195861D01*
X107389616Y-28015225D01*
X107387504Y-28003516D01*
X107326020Y-27844177D01*
X107319964Y-27834352D01*
X107205361Y-27707963D01*
X107196175Y-27700977D01*
X107043756Y-27624319D01*
X107032671Y-27621108D01*
X106862874Y-27604459D01*
X106851376Y-27605455D01*
X106686970Y-27651049D01*
X106676602Y-27656117D01*
X106539631Y-27757839D01*
X106531783Y-27766300D01*
X106440617Y-27910512D01*
X106436340Y-27921231D01*
X106403201Y-28088593D01*
X106403071Y-28100133D01*
X106432404Y-28268204D01*
X106436436Y-28279018D01*
X106524307Y-28425259D01*
X106531962Y-28433896D01*
X106647000Y-28523451D01*
X106647001Y-29204704D01*
X105822131Y-30029574D01*
X105662874Y-30013959D01*
X105651376Y-30014955D01*
X105486970Y-30060549D01*
X105476602Y-30065617D01*
X105339631Y-30167339D01*
X105331783Y-30175800D01*
X105253000Y-30300424D01*
X105253000Y-27721805D01*
X105287046Y-27705639D01*
X105296389Y-27698864D01*
X105413829Y-27575107D01*
X105420106Y-27565423D01*
X105485189Y-27407520D01*
X105487566Y-27395861D01*
X105489616Y-27215225D01*
X105487504Y-27203516D01*
X105426020Y-27044177D01*
X105419964Y-27034352D01*
X105305361Y-26907963D01*
X105296175Y-26900977D01*
X105143756Y-26824319D01*
X105132671Y-26821108D01*
X104962874Y-26804459D01*
X104951376Y-26805455D01*
X104786970Y-26851049D01*
X104776602Y-26856117D01*
X104639631Y-26957839D01*
X104631783Y-26966300D01*
X104540617Y-27110512D01*
X104536340Y-27121231D01*
X104503201Y-27288593D01*
X104503071Y-27300133D01*
X103153000Y-27300133D01*
X103153000Y-26321805D01*
X103187046Y-26305639D01*
X103196389Y-26298864D01*
X103313829Y-26175107D01*
X103320106Y-26165423D01*
X103385189Y-26007520D01*
X103387566Y-25995861D01*
X103389616Y-25815225D01*
X103387504Y-25803516D01*
X103326020Y-25644177D01*
X103319964Y-25634352D01*
X103205361Y-25507963D01*
X103196175Y-25500977D01*
X103043756Y-25424319D01*
X103032671Y-25421108D01*
X102862874Y-25404459D01*
X102851376Y-25405455D01*
X102686970Y-25451049D01*
X102676602Y-25456117D01*
X102539631Y-25557839D01*
X102531783Y-25566300D01*
X102440617Y-25710512D01*
X102436340Y-25721231D01*
X102403201Y-25888593D01*
X102403071Y-25900133D01*
X102432404Y-26068204D01*
X102436436Y-26079018D01*
X102524307Y-26225259D01*
X102531962Y-26233896D01*
X102647000Y-26323451D01*
X102647001Y-28871080D01*
X102647000Y-28871088D01*
X102647001Y-30741675D01*
X102647000Y-30741679D01*
X102647000Y-30859272D01*
X102651259Y-30875167D01*
X102664243Y-30897656D01*
X102667461Y-30909665D01*
X100633283Y-28875488D01*
X100633282Y-28875486D01*
X100546485Y-28788688D01*
X100532232Y-28780460D01*
X100507152Y-28773740D01*
X100484668Y-28760758D01*
X100468771Y-28756499D01*
X98798844Y-28756499D01*
X98821771Y-28754775D01*
X98832927Y-28751818D01*
X98987046Y-28678636D01*
X98996389Y-28671861D01*
X99113829Y-28548104D01*
X99120106Y-28538420D01*
X99185189Y-28380517D01*
X99187566Y-28368858D01*
X99189616Y-28188222D01*
X99187504Y-28176513D01*
X99126020Y-28017174D01*
X99119964Y-28007349D01*
X99030606Y-27908801D01*
X99113829Y-27821101D01*
X99120106Y-27811417D01*
X99185189Y-27653514D01*
X99187566Y-27641855D01*
X99189218Y-27496276D01*
X99195444Y-27499497D01*
X99358774Y-27548808D01*
X99370246Y-27550065D01*
X99540376Y-27537272D01*
X99551532Y-27534315D01*
X99705651Y-27461133D01*
X99714994Y-27454358D01*
X99832434Y-27330601D01*
X99838711Y-27320917D01*
X99903794Y-27163014D01*
X99906171Y-27151355D01*
X99908221Y-26970719D01*
X99906109Y-26959010D01*
X99844625Y-26799671D01*
X99838569Y-26789846D01*
X99723966Y-26663457D01*
X99714780Y-26656471D01*
X99562361Y-26579813D01*
X99551276Y-26576602D01*
X99381479Y-26559953D01*
X99369981Y-26560949D01*
X99300988Y-26580082D01*
X99143077Y-26422171D01*
X99143076Y-26422169D01*
X99056279Y-26335371D01*
X99042026Y-26327143D01*
X99016946Y-26320423D01*
X98994462Y-26307441D01*
X98978565Y-26303182D01*
X97845346Y-26303182D01*
X97844257Y-26300359D01*
X97838201Y-26290534D01*
X97723598Y-26164145D01*
X97714412Y-26157159D01*
X97561993Y-26080501D01*
X97550908Y-26077290D01*
X97381111Y-26060641D01*
X97369613Y-26061637D01*
X97205207Y-26107231D01*
X97194839Y-26112299D01*
X97057868Y-26214021D01*
X97050020Y-26222482D01*
X96958854Y-26366694D01*
X96954577Y-26377413D01*
X96921438Y-26544775D01*
X96921308Y-26556315D01*
X96923684Y-26569928D01*
X96855861Y-26563278D01*
X96844363Y-26564274D01*
X96679957Y-26609868D01*
X96669589Y-26614936D01*
X96532618Y-26716658D01*
X96524770Y-26725119D01*
X96507010Y-26753213D01*
X96507010Y-20350785D01*
X97882033Y-18975763D01*
X97940169Y-18993314D01*
X97951641Y-18994571D01*
X98121771Y-18981778D01*
X98132927Y-18978821D01*
X98287046Y-18905639D01*
X98296389Y-18898864D01*
X98413829Y-18775107D01*
X98420106Y-18765423D01*
X98485189Y-18607520D01*
X98487566Y-18595861D01*
X98489616Y-18415225D01*
X98487504Y-18403516D01*
X98426020Y-18244177D01*
X98419964Y-18234352D01*
X98305361Y-18107963D01*
X98296175Y-18100977D01*
X98143756Y-18024319D01*
X98132671Y-18021108D01*
X97962874Y-18004459D01*
X97951376Y-18005455D01*
X97786970Y-18051049D01*
X97776602Y-18056117D01*
X97639631Y-18157839D01*
X97631783Y-18166300D01*
X97540617Y-18310512D01*
X97536340Y-18321231D01*
X97503201Y-18488593D01*
X97503071Y-18500133D01*
X97523725Y-18618479D01*
X96253000Y-19889205D01*
X96253000Y-18921805D01*
X96287046Y-18905639D01*
X96296389Y-18898864D01*
X96413829Y-18775107D01*
X96420106Y-18765423D01*
X96485189Y-18607520D01*
X96487566Y-18595861D01*
X96489616Y-18415225D01*
X96487504Y-18403516D01*
X96426020Y-18244177D01*
X96419964Y-18234352D01*
X96305361Y-18107963D01*
X96296175Y-18100977D01*
X96143756Y-18024319D01*
X96132671Y-18021108D01*
X95962874Y-18004459D01*
X95951376Y-18005455D01*
X95786970Y-18051049D01*
X95776602Y-18056117D01*
X95639631Y-18157839D01*
X95631783Y-18166300D01*
X95540617Y-18310512D01*
X95536340Y-18321231D01*
X95503201Y-18488593D01*
X95503071Y-18500133D01*
X95532404Y-18668204D01*
X95536436Y-18679018D01*
X95624307Y-18825259D01*
X95631962Y-18833896D01*
X95747000Y-18923451D01*
X95747000Y-19343214D01*
X94769774Y-18365989D01*
X94769773Y-18365987D01*
X94682976Y-18279189D01*
X94668723Y-18270961D01*
X94643643Y-18264241D01*
X94621159Y-18251259D01*
X94605262Y-18247000D01*
X83927109Y-18247000D01*
X83926020Y-18244177D01*
X83919964Y-18234352D01*
X83805361Y-18107963D01*
X83796175Y-18100977D01*
X83643756Y-18024319D01*
X83632671Y-18021108D01*
X83462874Y-18004459D01*
X83451376Y-18005455D01*
X83286970Y-18051049D01*
X83276602Y-18056117D01*
X83139631Y-18157839D01*
X83131783Y-18166300D01*
X83040617Y-18310512D01*
X83036340Y-18321231D01*
X83003201Y-18488593D01*
X83003071Y-18500133D01*
X83032404Y-18668204D01*
X83036436Y-18679018D01*
X83071576Y-18737501D01*
X72595296Y-18737501D01*
X72479388Y-18621593D01*
X72485189Y-18607520D01*
X72487566Y-18595861D01*
X72489616Y-18415225D01*
X72487504Y-18403516D01*
X72426020Y-18244177D01*
X72419964Y-18234352D01*
X72305361Y-18107963D01*
X72296175Y-18100977D01*
X72143756Y-18024319D01*
X72132671Y-18021108D01*
X71962874Y-18004459D01*
X71951376Y-18005455D01*
X71786970Y-18051049D01*
X71776602Y-18056117D01*
X71639631Y-18157839D01*
X71631783Y-18166300D01*
X71540617Y-18310512D01*
X71536340Y-18321231D01*
X71503201Y-18488593D01*
X71503071Y-18500133D01*
X56401381Y-18500133D01*
X56451764Y-18481795D01*
X56457465Y-18479039D01*
X56631912Y-18371719D01*
X56636942Y-18367873D01*
X56786245Y-18227668D01*
X56790399Y-18222889D01*
X56908462Y-18055526D01*
X56911570Y-18050009D01*
X56993567Y-17862324D01*
X56995503Y-17856295D01*
X57038098Y-17655903D01*
X57038782Y-17649498D01*
X57039522Y-17437756D01*
X57038882Y-17431347D01*
X56997687Y-17230662D01*
X56995793Y-17224620D01*
X56915109Y-17036368D01*
X56912039Y-17030829D01*
X56795148Y-16862646D01*
X56791027Y-16857838D01*
X56642706Y-16716594D01*
X56637703Y-16712713D01*
X56464011Y-16604177D01*
X56458329Y-16601381D01*
X56266360Y-16529989D01*
X56260232Y-16528393D01*
X56057829Y-16497059D01*
X56051505Y-16496728D01*
X55846936Y-16506733D01*
X55840675Y-16507680D01*
X55642294Y-16558615D01*
X55636352Y-16560801D01*
X55452265Y-16650586D01*
X55446883Y-16653923D01*
X55284611Y-16778890D01*
X55280011Y-16783241D01*
X55146181Y-16938284D01*
X55142549Y-16943471D01*
X55042628Y-17122258D01*
X55040113Y-17128070D01*
X54978183Y-17323297D01*
X54976888Y-17329495D01*
X54955479Y-17533188D01*
X54955457Y-17539520D01*
X23039166Y-17539520D01*
X23039522Y-17437756D01*
X23038882Y-17431347D01*
X22997687Y-17230662D01*
X22995793Y-17224620D01*
X22915109Y-17036368D01*
X22912039Y-17030829D01*
X22795148Y-16862646D01*
X22791027Y-16857838D01*
X22642706Y-16716594D01*
X22637703Y-16712713D01*
X22464011Y-16604177D01*
X22458329Y-16601381D01*
X22266360Y-16529989D01*
X22260232Y-16528393D01*
X22057829Y-16497059D01*
X22051505Y-16496728D01*
X21846936Y-16506733D01*
X21840675Y-16507680D01*
X21642294Y-16558615D01*
X21636352Y-16560801D01*
X21452265Y-16650586D01*
X21446883Y-16653923D01*
X21284611Y-16778890D01*
X21280011Y-16783241D01*
X21146181Y-16938284D01*
X21142549Y-16943471D01*
X21042628Y-17122258D01*
X21040113Y-17128070D01*
X20978183Y-17323297D01*
X20976888Y-17329495D01*
X20955479Y-17533188D01*
X20955457Y-17539520D01*
X12189500Y-17539520D01*
X12189500Y-16470533D01*
X13800289Y-16470533D01*
X13803940Y-16526986D01*
X13926274Y-16621196D01*
X13930053Y-16623692D01*
X14171549Y-16759214D01*
X14175649Y-16761138D01*
X14434180Y-16860379D01*
X14438515Y-16861692D01*
X14708665Y-16922573D01*
X14713143Y-16923246D01*
X14989251Y-16944492D01*
X14993780Y-16944511D01*
X15270063Y-16925676D01*
X15274547Y-16925042D01*
X15545218Y-16866521D01*
X15549564Y-16865246D01*
X15808951Y-16768265D01*
X15813067Y-16766376D01*
X16055738Y-16632967D01*
X16059538Y-16630504D01*
X16195882Y-16527388D01*
X16199801Y-16470623D01*
X16199711Y-16470533D01*
X107800289Y-16470533D01*
X107803940Y-16526986D01*
X107926274Y-16621196D01*
X107930053Y-16623692D01*
X108171549Y-16759214D01*
X108175649Y-16761138D01*
X108434180Y-16860379D01*
X108438515Y-16861692D01*
X108708665Y-16922573D01*
X108713143Y-16923246D01*
X108989251Y-16944492D01*
X108993780Y-16944511D01*
X109270063Y-16925676D01*
X109274547Y-16925042D01*
X109545218Y-16866521D01*
X109549564Y-16865246D01*
X109808951Y-16768265D01*
X109813067Y-16766376D01*
X110055738Y-16632967D01*
X110059538Y-16630504D01*
X110195882Y-16527388D01*
X110199801Y-16470623D01*
X109025888Y-15296710D01*
X108974112Y-15296710D01*
X107800289Y-16470533D01*
X16199711Y-16470533D01*
X15025888Y-15296710D01*
X14974112Y-15296710D01*
X13800289Y-16470533D01*
X12189500Y-16470533D01*
X12189500Y-14949666D01*
X13056131Y-14949666D01*
X13068692Y-15226305D01*
X13069224Y-15230803D01*
X13121590Y-15502731D01*
X13122766Y-15507105D01*
X13213837Y-15768626D01*
X13215632Y-15772784D01*
X13343501Y-16018418D01*
X13345878Y-16022273D01*
X13471089Y-16195885D01*
X13528662Y-16200517D01*
X14703290Y-15025888D01*
X14703290Y-14974112D01*
X15296710Y-14974112D01*
X15296710Y-15025888D01*
X16470980Y-16200159D01*
X16528242Y-16195803D01*
X16645138Y-16036670D01*
X16647548Y-16032835D01*
X16777556Y-15788326D01*
X16779388Y-15784183D01*
X16872737Y-15523466D01*
X16873951Y-15519103D01*
X16928771Y-15247228D01*
X16929377Y-15241886D01*
X16935935Y-14999520D01*
X20955457Y-14999520D01*
X20975443Y-15203357D01*
X20976695Y-15209564D01*
X21037260Y-15405219D01*
X21039735Y-15411048D01*
X21138405Y-15590528D01*
X21142001Y-15595740D01*
X21274745Y-15751715D01*
X21279315Y-15756097D01*
X21440711Y-15882194D01*
X21446069Y-15885568D01*
X21629524Y-15976636D01*
X21635452Y-15978864D01*
X21833471Y-16031182D01*
X21839725Y-16032173D01*
X22044220Y-16043606D01*
X22050546Y-16043319D01*
X22253163Y-16013399D01*
X22259302Y-16011846D01*
X22451764Y-15941795D01*
X22457465Y-15939039D01*
X22631912Y-15831719D01*
X22636942Y-15827873D01*
X22786245Y-15687668D01*
X22790399Y-15682889D01*
X22908462Y-15515526D01*
X22911570Y-15510009D01*
X22993567Y-15322324D01*
X22995503Y-15316295D01*
X23038098Y-15115903D01*
X23038782Y-15109498D01*
X23039166Y-14999520D01*
X54955457Y-14999520D01*
X54975443Y-15203357D01*
X54976695Y-15209564D01*
X55037260Y-15405219D01*
X55039735Y-15411048D01*
X55138405Y-15590528D01*
X55142001Y-15595740D01*
X55274745Y-15751715D01*
X55279315Y-15756097D01*
X55440711Y-15882194D01*
X55446069Y-15885568D01*
X55629524Y-15976636D01*
X55635452Y-15978864D01*
X55833471Y-16031182D01*
X55839725Y-16032173D01*
X56044220Y-16043606D01*
X56050546Y-16043319D01*
X56253163Y-16013399D01*
X56259302Y-16011846D01*
X56451764Y-15941795D01*
X56457465Y-15939039D01*
X56631912Y-15831719D01*
X56636942Y-15827873D01*
X56786245Y-15687668D01*
X56790399Y-15682889D01*
X56908462Y-15515526D01*
X56911570Y-15510009D01*
X56993567Y-15322324D01*
X56995503Y-15316295D01*
X57038098Y-15115903D01*
X57038782Y-15109498D01*
X57039340Y-14949666D01*
X107056131Y-14949666D01*
X107068692Y-15226305D01*
X107069224Y-15230803D01*
X107121590Y-15502731D01*
X107122766Y-15507105D01*
X107213837Y-15768626D01*
X107215632Y-15772784D01*
X107343501Y-16018418D01*
X107345878Y-16022273D01*
X107471089Y-16195885D01*
X107528662Y-16200517D01*
X108703290Y-15025888D01*
X108703290Y-14974112D01*
X109296710Y-14974112D01*
X109296710Y-15025888D01*
X110470980Y-16200159D01*
X110528242Y-16195803D01*
X110645138Y-16036670D01*
X110647548Y-16032835D01*
X110777556Y-15788326D01*
X110779388Y-15784183D01*
X110872737Y-15523466D01*
X110873951Y-15519103D01*
X110928771Y-15247228D01*
X110929377Y-15241886D01*
X110939635Y-14862806D01*
X110939318Y-14857439D01*
X110899281Y-14582997D01*
X110898305Y-14578575D01*
X110819191Y-14313191D01*
X110817587Y-14308956D01*
X110700992Y-14057773D01*
X110698793Y-14053814D01*
X110534049Y-13802060D01*
X110474876Y-13795946D01*
X109296710Y-14974112D01*
X108703290Y-14974112D01*
X107529225Y-13800047D01*
X107473585Y-13803012D01*
X107403582Y-13889770D01*
X107401000Y-13893491D01*
X107260034Y-14131851D01*
X107258017Y-14135906D01*
X107152936Y-14392119D01*
X107151525Y-14396423D01*
X107084532Y-14665121D01*
X107083757Y-14669583D01*
X107056253Y-14945139D01*
X107056131Y-14949666D01*
X57039340Y-14949666D01*
X57039522Y-14897756D01*
X57038882Y-14891347D01*
X56997687Y-14690662D01*
X56995793Y-14684620D01*
X56915109Y-14496368D01*
X56912039Y-14490829D01*
X56795148Y-14322646D01*
X56791027Y-14317838D01*
X56642706Y-14176594D01*
X56637703Y-14172713D01*
X56464011Y-14064177D01*
X56458329Y-14061381D01*
X56266360Y-13989989D01*
X56260232Y-13988393D01*
X56057829Y-13957059D01*
X56051505Y-13956728D01*
X55846936Y-13966733D01*
X55840675Y-13967680D01*
X55642294Y-14018615D01*
X55636352Y-14020801D01*
X55452265Y-14110586D01*
X55446883Y-14113923D01*
X55284611Y-14238890D01*
X55280011Y-14243241D01*
X55146181Y-14398284D01*
X55142549Y-14403471D01*
X55042628Y-14582258D01*
X55040113Y-14588070D01*
X54978183Y-14783297D01*
X54976888Y-14789495D01*
X54955479Y-14993188D01*
X54955457Y-14999520D01*
X23039166Y-14999520D01*
X23039522Y-14897756D01*
X23038882Y-14891347D01*
X22997687Y-14690662D01*
X22995793Y-14684620D01*
X22915109Y-14496368D01*
X22912039Y-14490829D01*
X22795148Y-14322646D01*
X22791027Y-14317838D01*
X22642706Y-14176594D01*
X22637703Y-14172713D01*
X22464011Y-14064177D01*
X22458329Y-14061381D01*
X22266360Y-13989989D01*
X22260232Y-13988393D01*
X22057829Y-13957059D01*
X22051505Y-13956728D01*
X21846936Y-13966733D01*
X21840675Y-13967680D01*
X21642294Y-14018615D01*
X21636352Y-14020801D01*
X21452265Y-14110586D01*
X21446883Y-14113923D01*
X21284611Y-14238890D01*
X21280011Y-14243241D01*
X21146181Y-14398284D01*
X21142549Y-14403471D01*
X21042628Y-14582258D01*
X21040113Y-14588070D01*
X20978183Y-14783297D01*
X20976888Y-14789495D01*
X20955479Y-14993188D01*
X20955457Y-14999520D01*
X16935935Y-14999520D01*
X16939635Y-14862806D01*
X16939318Y-14857439D01*
X16899281Y-14582997D01*
X16898305Y-14578575D01*
X16819191Y-14313191D01*
X16817587Y-14308956D01*
X16700992Y-14057773D01*
X16698793Y-14053814D01*
X16534049Y-13802060D01*
X16474876Y-13795946D01*
X15296710Y-14974112D01*
X14703290Y-14974112D01*
X13529225Y-13800047D01*
X13473585Y-13803012D01*
X13403582Y-13889770D01*
X13401000Y-13893491D01*
X13260034Y-14131851D01*
X13258017Y-14135906D01*
X13152936Y-14392119D01*
X13151525Y-14396423D01*
X13084532Y-14665121D01*
X13083757Y-14669583D01*
X13056253Y-14945139D01*
X13056131Y-14949666D01*
X12189500Y-14949666D01*
X12189500Y-14039156D01*
X12193576Y-14020463D01*
X12194216Y-14016007D01*
X12213353Y-13745726D01*
X12260390Y-13527248D01*
X13798069Y-13527248D01*
X14974112Y-14703290D01*
X15025888Y-14703290D01*
X16200878Y-13528300D01*
X16200834Y-13527248D01*
X107798069Y-13527248D01*
X108974112Y-14703290D01*
X109025888Y-14703290D01*
X110200878Y-13528300D01*
X110198580Y-13473478D01*
X110146164Y-13429181D01*
X110142502Y-13426516D01*
X109907401Y-13280179D01*
X109903393Y-13278070D01*
X109649630Y-13167203D01*
X109645359Y-13165695D01*
X109378250Y-13092622D01*
X109373806Y-13091746D01*
X109098946Y-13057998D01*
X109094423Y-13057773D01*
X108817569Y-13064055D01*
X108813061Y-13064486D01*
X108540014Y-13110668D01*
X108535615Y-13111744D01*
X108272095Y-13196858D01*
X108267898Y-13198559D01*
X108019425Y-13320823D01*
X108015517Y-13323112D01*
X107803433Y-13468873D01*
X107798069Y-13527248D01*
X16200834Y-13527248D01*
X16198580Y-13473478D01*
X16146164Y-13429181D01*
X16142502Y-13426516D01*
X15907401Y-13280179D01*
X15903393Y-13278070D01*
X15649630Y-13167203D01*
X15645359Y-13165695D01*
X15378250Y-13092622D01*
X15373806Y-13091746D01*
X15098946Y-13057998D01*
X15094423Y-13057773D01*
X14817569Y-13064055D01*
X14813061Y-13064486D01*
X14540014Y-13110668D01*
X14535615Y-13111744D01*
X14272095Y-13196858D01*
X14267898Y-13198559D01*
X14019425Y-13320823D01*
X14015517Y-13323112D01*
X13803433Y-13468873D01*
X13798069Y-13527248D01*
X12260390Y-13527248D01*
X12267007Y-13496516D01*
X12355236Y-13257361D01*
X12476282Y-13033020D01*
X12627734Y-12827973D01*
X12806563Y-12646312D01*
X13009207Y-12491659D01*
X13231614Y-12367106D01*
X13469357Y-12275130D01*
X13717697Y-12217567D01*
X13977769Y-12195043D01*
X14005998Y-12194821D01*
X14014830Y-12193481D01*
X14028015Y-12189500D01*
X109960844Y-12189500D01*
X109979537Y-12193576D01*
G37*
%TD.AperFunction*%
%TD*%
M02*
