%TF.GenerationSoftware,KiCad,Pcbnew,(5.99.0-2619-gb519867d9)*%
%TF.CreationDate,2020-08-09T22:36:06+05:30*%
%TF.ProjectId,Power_Supply,506f7765-725f-4537-9570-706c792e6b69,rev?*%
%TF.SameCoordinates,Original*%
%TF.FileFunction,Paste,Bot*%
%TF.FilePolarity,Positive*%
%FSLAX46Y46*%
G04 Gerber Fmt 4.6, Leading zero omitted, Abs format (unit mm)*
G04 Created by KiCad (PCBNEW (5.99.0-2619-gb519867d9)) date 2020-08-09 22:36:06*
%MOMM*%
%LPD*%
G01*
G04 APERTURE LIST*
G04 APERTURE END LIST*
%TO.C,J3*%
G36*
X23737086Y-39014659D02*
G01*
X23973039Y-39072816D01*
X24196608Y-39168070D01*
X24402002Y-39297953D01*
X24583901Y-39459102D01*
X24737595Y-39647342D01*
X24859103Y-39857799D01*
X24945277Y-40085022D01*
X24993886Y-40323126D01*
X25000000Y-40424201D01*
X25000000Y-57555506D01*
X24985341Y-57737086D01*
X24927184Y-57973039D01*
X24831930Y-58196608D01*
X24702047Y-58402002D01*
X24540898Y-58583901D01*
X24352658Y-58737595D01*
X24142201Y-58859103D01*
X23914978Y-58945277D01*
X23676874Y-58993886D01*
X23575799Y-59000000D01*
X20444494Y-59000000D01*
X20262914Y-58985341D01*
X20026961Y-58927184D01*
X19803392Y-58831930D01*
X19597998Y-58702047D01*
X19416099Y-58540898D01*
X19262405Y-58352658D01*
X19140897Y-58142201D01*
X19054723Y-57914978D01*
X19006114Y-57676874D01*
X19000000Y-57575799D01*
X19000000Y-40444494D01*
X19014659Y-40262914D01*
X19072816Y-40026961D01*
X19168070Y-39803392D01*
X19297953Y-39597998D01*
X19459102Y-39416099D01*
X19647342Y-39262405D01*
X19857799Y-39140897D01*
X20085022Y-39054723D01*
X20323126Y-39006114D01*
X20424201Y-39000000D01*
X23555506Y-39000000D01*
X23737086Y-39014659D01*
G37*
%TD*%
%TO.C,J2*%
G36*
X43737086Y-39014659D02*
G01*
X43973039Y-39072816D01*
X44196608Y-39168070D01*
X44402002Y-39297953D01*
X44583901Y-39459102D01*
X44737595Y-39647342D01*
X44859103Y-39857799D01*
X44945277Y-40085022D01*
X44993886Y-40323126D01*
X45000000Y-40424201D01*
X45000000Y-57555506D01*
X44985341Y-57737086D01*
X44927184Y-57973039D01*
X44831930Y-58196608D01*
X44702047Y-58402002D01*
X44540898Y-58583901D01*
X44352658Y-58737595D01*
X44142201Y-58859103D01*
X43914978Y-58945277D01*
X43676874Y-58993886D01*
X43575799Y-59000000D01*
X40444494Y-59000000D01*
X40262914Y-58985341D01*
X40026961Y-58927184D01*
X39803392Y-58831930D01*
X39597998Y-58702047D01*
X39416099Y-58540898D01*
X39262405Y-58352658D01*
X39140897Y-58142201D01*
X39054723Y-57914978D01*
X39006114Y-57676874D01*
X39000000Y-57575799D01*
X39000000Y-40444494D01*
X39014659Y-40262914D01*
X39072816Y-40026961D01*
X39168070Y-39803392D01*
X39297953Y-39597998D01*
X39459102Y-39416099D01*
X39647342Y-39262405D01*
X39857799Y-39140897D01*
X40085022Y-39054723D01*
X40323126Y-39006114D01*
X40424201Y-39000000D01*
X43555506Y-39000000D01*
X43737086Y-39014659D01*
G37*
%TD*%
M02*
