%TF.GenerationSoftware,Altium Limited,Altium Designer,21.1.1 (26)*%
G04 Layer_Color=8388736*
%FSLAX45Y45*%
%MOMM*%
%TF.SameCoordinates,E9E44C67-710E-4D47-B277-6F884E921ACF*%
%TF.FilePolarity,Positive*%
%TF.FileFunction,Other,Top_3D_Body*%
%TF.Part,Single*%
G01*
G75*
%TA.AperFunction,NonConductor*%
%ADD87C,0.20000*%
D87*
X7380000Y695000D02*
Y855000D01*
X7670000D01*
Y695000D02*
Y855000D01*
X7380000Y695000D02*
X7670000D01*
X5079500Y3950100D02*
X5619500D01*
Y4490100D01*
X5079500D02*
X5619500D01*
X5079500Y3950100D02*
Y4490100D01*
X7823000Y880000D02*
X8127000D01*
Y1020000D01*
X7823000D02*
X8127000D01*
X7823000Y880000D02*
Y1020000D01*
X5979500Y3950100D02*
X6519500D01*
Y4490100D01*
X5979500D02*
X6519500D01*
X5979500Y3950100D02*
Y4490100D01*
X6879500Y3950100D02*
X7419500D01*
Y4490100D01*
X6879500D02*
X7419500D01*
X6879500Y3950100D02*
Y4490100D01*
X7779500Y3950100D02*
X8319500D01*
Y4490100D01*
X7779500D02*
X8319500D01*
X7779500Y3950100D02*
Y4490100D01*
%TF.MD5,2239be86e7d3db6f7e28c8f7dbd62bbb*%
M02*
