%TF.GenerationSoftware,Altium Limited,Altium Designer,21.1.1 (26)*%
G04 Layer_Physical_Order=3*
G04 Layer_Color=128*
%FSLAX45Y45*%
%MOMM*%
%TF.SameCoordinates,E9E44C67-710E-4D47-B277-6F884E921ACF*%
%TF.FilePolarity,Negative*%
%TF.FileFunction,Copper,L3,Inr,Plane*%
%TF.Part,Single*%
G01*
G75*
%TA.AperFunction,NonConductor*%
%ADD59C,1.01600*%
%TA.AperFunction,ComponentPad*%
%ADD61C,0.95400*%
%ADD62C,0.90400*%
%ADD65C,1.55400*%
G04:AMPARAMS|DCode=66|XSize=2.316mm|YSize=2.316mm|CornerRadius=0mm|HoleSize=0mm|Usage=FLASHONLY|Rotation=0.000|XOffset=0mm|YOffset=0mm|HoleType=Round|Shape=Relief|Width=0.254mm|Gap=0.254mm|Entries=4|*
%AMTHD66*
7,0,0,2.31600,1.80800,0.25400,45*
%
%ADD66THD66*%
%ADD67O,22.25400X0.65400*%
%TA.AperFunction,ViaPad*%
%ADD69C,0.55400*%
%ADD70C,0.96520*%
%TA.AperFunction,ComponentPad*%
%AMTHOVALD71*
21,1,0.60000,1.61600,0,0,180.0*
1,1,1.61600,0.30000,0.00000*
1,1,1.61600,-0.30000,0.00000*
21,0,0.60000,1.10800,0,0,180.0*
1,0,1.10800,0.30000,0.00000*
1,0,1.10800,-0.30000,0.00000*
4,0,4,0.21020,0.08980,0.78154,0.66114,0.96114,0.48154,0.38980,-0.08980,0.21020,0.08980,0.0*
4,0,4,-0.38980,0.08980,-0.96114,-0.48154,-0.78154,-0.66114,-0.21020,-0.08980,-0.38980,0.08980,0.0*
4,0,4,0.38980,0.08980,0.96114,-0.48154,0.78154,-0.66114,0.21020,-0.08980,0.38980,0.08980,0.0*
4,0,4,-0.21020,0.08980,-0.78154,0.66114,-0.96114,0.48154,-0.38980,-0.08980,-0.21020,0.08980,0.0*
%
%ADD71THOVALD71*%

%AMTHOVALD72*
21,1,1.10000,1.61600,0,0,180.0*
1,1,1.61600,0.55000,0.00000*
1,1,1.61600,-0.55000,0.00000*
21,0,1.10000,1.10800,0,0,180.0*
1,0,1.10800,0.55000,0.00000*
1,0,1.10800,-0.55000,0.00000*
4,0,4,0.46020,0.08980,1.03154,0.66114,1.21114,0.48154,0.63980,-0.08980,0.46020,0.08980,0.0*
4,0,4,-0.63980,0.08980,-1.21114,-0.48154,-1.03154,-0.66114,-0.46020,-0.08980,-0.63980,0.08980,0.0*
4,0,4,0.63980,0.08980,1.21114,-0.48154,1.03154,-0.66114,0.46020,-0.08980,0.63980,0.08980,0.0*
4,0,4,-0.46020,0.08980,-1.03154,0.66114,-1.21114,0.48154,-0.63980,-0.08980,-0.46020,0.08980,0.0*
%
%ADD72THOVALD72*%

%TA.AperFunction,ViaPad*%
G04:AMPARAMS|DCode=73|XSize=3.216mm|YSize=3.216mm|CornerRadius=0mm|HoleSize=0mm|Usage=FLASHONLY|Rotation=0.000|XOffset=0mm|YOffset=0mm|HoleType=Round|Shape=Relief|Width=0.254mm|Gap=0.254mm|Entries=4|*
%AMTHD73*
7,0,0,3.21600,2.70800,0.25400,45*
%
%ADD73THD73*%
D59*
X10000000Y200000D02*
Y4800000D01*
X9800000Y5000000D02*
X10000000Y4800000D01*
X200000Y5000000D02*
X9800000D01*
X0Y4800000D02*
X200000Y5000000D01*
X0Y200000D02*
X0Y4800000D01*
X0Y200000D02*
X200000Y0D01*
X9800000D01*
X10000000Y200000D01*
D61*
X9236500Y4125000D02*
D03*
X9363500D02*
D03*
D62*
X9417000Y1711000D02*
D03*
Y2289000D02*
D03*
D65*
X8476000Y558800D02*
D03*
X1016000D02*
D03*
D66*
X8984000D02*
D03*
X1524000D02*
D03*
D67*
X1584500Y2197600D02*
D03*
D69*
X7116978Y1545141D02*
D03*
X7051040Y1508760D02*
D03*
X7058660Y1220327D02*
D03*
X5025000Y1900000D02*
D03*
X5000000Y2600000D02*
D03*
X6735265Y1617165D02*
D03*
X6873428Y1545141D02*
D03*
X6976511Y1535428D02*
D03*
X6925533Y1508400D02*
D03*
X6283960Y1925600D02*
D03*
X6378310Y1899550D02*
D03*
X6654800Y1612635D02*
D03*
X5420360Y1910080D02*
D03*
X7340720Y546900D02*
D03*
X7123700Y840740D02*
D03*
X8037500Y1602500D02*
D03*
X1100000Y375000D02*
D03*
X1175000Y450000D02*
D03*
X875000D02*
D03*
X1025000Y375000D02*
D03*
X950000D02*
D03*
X9250000Y1125000D02*
D03*
X8175000D02*
D03*
X8394700Y2174240D02*
D03*
X8638540Y2024380D02*
D03*
X8542500Y2397500D02*
D03*
X6697980Y1508450D02*
D03*
X8185000Y450000D02*
D03*
X8260000D02*
D03*
X8335000D02*
D03*
X8185000Y375000D02*
D03*
X8260000D02*
D03*
X8335000D02*
D03*
X8410000D02*
D03*
X8485000D02*
D03*
X8560000D02*
D03*
X8635000D02*
D03*
X8710000D02*
D03*
X8785000Y450000D02*
D03*
X8710000D02*
D03*
X8635000D02*
D03*
X8785000Y375000D02*
D03*
X5552985Y1595665D02*
D03*
X2522220Y403860D02*
D03*
X4196080Y858520D02*
D03*
X2775000Y1450000D02*
D03*
X2875000D02*
D03*
X2975000D02*
D03*
X7155180Y2141220D02*
D03*
X8532940Y3082500D02*
D03*
X7555840Y3057500D02*
D03*
X7203440Y3180080D02*
D03*
X6605880Y3057500D02*
D03*
X5657500Y3082500D02*
D03*
X1325000Y375000D02*
D03*
X1250000Y450000D02*
D03*
X1325000D02*
D03*
X1250000Y375000D02*
D03*
X1175000D02*
D03*
X875000D02*
D03*
X800000D02*
D03*
X725000D02*
D03*
X800000Y450000D02*
D03*
X725000D02*
D03*
X2227502Y800001D02*
D03*
X2022501D02*
D03*
X7660000Y3380000D02*
D03*
X5890000Y2957500D02*
D03*
X5992500Y2755000D02*
D03*
X1225000Y3557500D02*
D03*
X1372500Y3420000D02*
D03*
X1925000Y3877500D02*
D03*
X1650000Y3875000D02*
D03*
X7063100Y546900D02*
D03*
X6675000Y2601510D02*
D03*
X5560202Y1032500D02*
D03*
X8019999Y3439800D02*
D03*
X7582499D02*
D03*
X7120001D02*
D03*
X6682501D02*
D03*
X6219998D02*
D03*
X5782498D02*
D03*
X5320000Y3660201D02*
D03*
X6709999Y3209798D02*
D03*
X6815000Y1100000D02*
D03*
X7302500D02*
D03*
X7082500Y2639797D02*
D03*
X7642499D02*
D03*
X6785204Y842498D02*
D03*
X5839800Y1805000D02*
D03*
X8037500Y2242500D02*
D03*
X3911600Y1600200D02*
D03*
X3864970Y2029460D02*
D03*
X1478280Y3258820D02*
D03*
X6873240Y2347870D02*
D03*
X5847080Y2500270D02*
D03*
X5890260Y2458720D02*
D03*
X6972300Y2346960D02*
D03*
X6288099Y1091259D02*
D03*
X6337300Y1216660D02*
D03*
X6774180Y3131820D02*
D03*
X5819140Y3119120D02*
D03*
X6423660Y2374900D02*
D03*
X6550660Y2545080D02*
D03*
X6769100Y2639800D02*
D03*
X5521661Y2646320D02*
D03*
X7127240Y3106420D02*
D03*
X7724140Y3130910D02*
D03*
X6875780Y2616200D02*
D03*
X7625080Y2938780D02*
D03*
X7226300Y2628900D02*
D03*
X7406640Y2872740D02*
D03*
X7124700Y2362200D02*
D03*
X7455398Y2149963D02*
D03*
X7122160Y2279460D02*
D03*
X7307580Y2237740D02*
D03*
X7188030Y2237910D02*
D03*
X6972300Y3180080D02*
D03*
X9514840Y2120900D02*
D03*
X6355080Y1648460D02*
D03*
X5824220Y1701800D02*
D03*
X4173530Y1592270D02*
D03*
X5427980Y2654300D02*
D03*
X3246120Y1978660D02*
D03*
X2241881Y353061D02*
D03*
X3683450Y1425200D02*
D03*
X4018280Y1767840D02*
D03*
X3830320Y1877060D02*
D03*
X9514840Y1871980D02*
D03*
X1798320Y2677160D02*
D03*
X1913890Y2622867D02*
D03*
X9403440Y2024380D02*
D03*
X9405620Y1925320D02*
D03*
D70*
X5800000Y4750000D02*
D03*
X6700000D02*
D03*
X4350000Y225000D02*
D03*
X4475000Y700000D02*
D03*
X5350000D02*
D03*
Y325000D02*
D03*
X5050000D02*
D03*
X4750000D02*
D03*
X5050000Y700000D02*
D03*
X4750000D02*
D03*
X4900000Y450000D02*
D03*
X5200000D02*
D03*
Y800000D02*
D03*
X4900000D02*
D03*
X4600000D02*
D03*
X8600000Y225000D02*
D03*
X8300000D02*
D03*
X4600000D02*
D03*
X4900000D02*
D03*
X5200000D02*
D03*
X5500000D02*
D03*
X5800000D02*
D03*
X6100000D02*
D03*
X6400000D02*
D03*
X6700000D02*
D03*
X7000000D02*
D03*
X7300000D02*
D03*
X7600000D02*
D03*
X7900000D02*
D03*
D71*
X9782000Y2432000D02*
D03*
Y1568000D02*
D03*
D72*
X9364000D02*
D03*
Y2432000D02*
D03*
D73*
X250000Y250000D02*
D03*
X9750000D02*
D03*
Y4750000D02*
D03*
X250000D02*
D03*
%TF.MD5,c50b0816fab50e1deb77717302a5cdbe*%
M02*
