%TF.GenerationSoftware,Altium Limited,Altium Designer,21.1.1 (26)*%
G04 Layer_Color=16711935*
%FSLAX45Y45*%
%MOMM*%
%TF.SameCoordinates,E9E44C67-710E-4D47-B277-6F884E921ACF*%
%TF.FilePolarity,Positive*%
%TF.FileFunction,Other,Top_Assembly*%
%TF.Part,Single*%
G01*
G75*
%TA.AperFunction,NonConductor*%
%ADD87C,0.20000*%
%ADD155C,0.10000*%
G36*
X7495230Y927643D02*
X7496340D01*
X7497542Y927551D01*
X7498836Y927458D01*
X7501794Y927181D01*
X7504846Y926719D01*
X7507804Y926164D01*
X7509191Y925794D01*
X7510578Y925332D01*
X7510670D01*
X7510855Y925239D01*
X7511225Y925055D01*
X7511687Y924870D01*
X7512334Y924685D01*
X7512982Y924315D01*
X7514553Y923575D01*
X7516218Y922651D01*
X7518067Y921449D01*
X7519731Y920062D01*
X7521303Y918398D01*
Y918305D01*
X7521488Y918213D01*
X7521673Y917935D01*
X7521857Y917566D01*
X7522135Y917103D01*
X7522505Y916641D01*
X7523152Y915254D01*
X7523799Y913590D01*
X7524446Y911648D01*
X7524816Y909337D01*
X7525001Y906841D01*
Y905916D01*
X7524908Y905269D01*
X7524816Y904529D01*
X7524631Y903605D01*
X7524446Y902588D01*
X7524169Y901478D01*
X7523799Y900369D01*
X7523429Y899167D01*
X7522874Y897965D01*
X7522227Y896763D01*
X7521488Y895561D01*
X7520563Y894359D01*
X7519546Y893250D01*
X7518437Y892233D01*
X7518344Y892140D01*
X7518067Y891955D01*
X7517604Y891678D01*
X7516865Y891216D01*
X7516033Y890753D01*
X7514923Y890291D01*
X7513629Y889644D01*
X7512150Y889089D01*
X7510485Y888534D01*
X7508544Y887980D01*
X7506417Y887425D01*
X7504013Y886963D01*
X7501425Y886500D01*
X7498651Y886223D01*
X7495600Y886038D01*
X7492364Y885946D01*
X7492272D01*
X7491902D01*
X7491255D01*
X7490515D01*
X7489498Y886038D01*
X7488388D01*
X7487186Y886131D01*
X7485800Y886223D01*
X7482933Y886500D01*
X7479882Y886963D01*
X7476831Y887517D01*
X7475445Y887887D01*
X7474058Y888257D01*
X7473965D01*
X7473780Y888350D01*
X7473411Y888534D01*
X7472948Y888719D01*
X7472301Y888904D01*
X7471654Y889274D01*
X7470082Y890014D01*
X7468418Y890938D01*
X7466661Y892140D01*
X7464905Y893527D01*
X7463425Y895191D01*
Y895284D01*
X7463240Y895376D01*
X7463055Y895654D01*
X7462871Y896023D01*
X7462501Y896486D01*
X7462223Y897040D01*
X7461484Y898427D01*
X7460836Y900091D01*
X7460189Y902033D01*
X7459819Y904344D01*
X7459635Y906841D01*
Y907673D01*
X7459727Y908690D01*
X7459912Y909892D01*
X7460189Y911279D01*
X7460559Y912758D01*
X7461021Y914330D01*
X7461761Y915809D01*
Y915901D01*
X7461854Y915994D01*
X7462131Y916456D01*
X7462593Y917196D01*
X7463240Y918120D01*
X7464165Y919137D01*
X7465182Y920247D01*
X7466384Y921264D01*
X7467771Y922281D01*
X7467956Y922373D01*
X7468418Y922743D01*
X7469250Y923113D01*
X7470452Y923760D01*
X7471839Y924315D01*
X7473411Y925055D01*
X7475260Y925702D01*
X7477294Y926256D01*
X7477386D01*
X7477571Y926349D01*
X7477848Y926441D01*
X7478311Y926534D01*
X7478865Y926626D01*
X7479513Y926719D01*
X7480345Y926904D01*
X7481269Y926996D01*
X7482286Y927181D01*
X7483396Y927273D01*
X7484690Y927366D01*
X7485985Y927551D01*
X7487464Y927643D01*
X7488943D01*
X7490607Y927736D01*
X7492364D01*
X7492456D01*
X7492826D01*
X7493473D01*
X7494213D01*
X7495230Y927643D01*
D02*
G37*
G36*
X7523891Y857931D02*
X7473873D01*
X7473965Y857839D01*
X7474335Y857377D01*
X7474890Y856822D01*
X7475537Y855897D01*
X7476369Y854880D01*
X7477294Y853586D01*
X7478311Y852107D01*
X7479328Y850443D01*
Y850350D01*
X7479420Y850258D01*
X7479790Y849703D01*
X7480252Y848778D01*
X7480807Y847669D01*
X7481454Y846374D01*
X7482101Y844988D01*
X7482749Y843601D01*
X7483303Y842214D01*
X7475722D01*
Y842306D01*
X7475537Y842491D01*
X7475445Y842861D01*
X7475167Y843323D01*
X7474890Y843878D01*
X7474520Y844525D01*
X7473595Y846097D01*
X7472578Y847946D01*
X7471284Y849795D01*
X7469805Y851737D01*
X7468233Y853679D01*
X7468141Y853771D01*
X7468048Y853863D01*
X7467771Y854141D01*
X7467493Y854511D01*
X7466569Y855343D01*
X7465459Y856452D01*
X7464165Y857562D01*
X7462686Y858764D01*
X7461206Y859781D01*
X7459635Y860705D01*
Y865790D01*
X7523891D01*
Y857931D01*
D02*
G37*
G36*
X7499298Y825202D02*
X7500223D01*
X7501332Y825110D01*
X7502442Y825017D01*
X7504938Y824740D01*
X7507527Y824370D01*
X7510023Y823815D01*
X7511225Y823445D01*
X7512334Y823076D01*
X7512427D01*
X7512612Y822983D01*
X7512889Y822798D01*
X7513259Y822613D01*
X7514276Y822059D01*
X7515570Y821226D01*
X7517050Y820117D01*
X7518529Y818823D01*
X7520101Y817158D01*
X7521488Y815124D01*
Y815032D01*
X7521673Y814847D01*
X7521765Y814570D01*
X7522042Y814107D01*
X7522320Y813553D01*
X7522597Y812813D01*
X7522874Y812073D01*
X7523244Y811149D01*
X7523614Y810132D01*
X7523891Y809022D01*
X7524169Y807820D01*
X7524446Y806433D01*
X7524631Y805047D01*
X7524816Y803567D01*
X7525001Y800239D01*
Y799407D01*
X7524908Y798760D01*
Y798020D01*
X7524816Y797095D01*
X7524724Y796078D01*
X7524631Y795061D01*
X7524261Y792750D01*
X7523707Y790254D01*
X7522967Y787850D01*
X7521950Y785538D01*
Y785446D01*
X7521765Y785261D01*
X7521580Y784984D01*
X7521395Y784614D01*
X7520656Y783597D01*
X7519639Y782395D01*
X7518344Y781008D01*
X7516865Y779714D01*
X7515016Y778419D01*
X7512982Y777402D01*
X7512889D01*
X7512704Y777310D01*
X7512334Y777217D01*
X7511872Y777032D01*
X7511317Y776848D01*
X7510578Y776663D01*
X7509746Y776385D01*
X7508729Y776200D01*
X7507619Y776015D01*
X7506417Y775738D01*
X7505123Y775553D01*
X7503736Y775368D01*
X7502164Y775183D01*
X7500500Y775091D01*
X7498743Y774998D01*
X7496894D01*
X7459912D01*
Y783504D01*
X7496894D01*
X7496987D01*
X7497264D01*
X7497726D01*
X7498281D01*
X7498928Y783597D01*
X7499760D01*
X7501517Y783689D01*
X7503551Y783874D01*
X7505585Y784152D01*
X7507527Y784521D01*
X7508359Y784706D01*
X7509191Y784984D01*
X7509376Y785076D01*
X7509838Y785261D01*
X7510485Y785723D01*
X7511410Y786278D01*
X7512334Y786925D01*
X7513351Y787850D01*
X7514369Y788959D01*
X7515201Y790254D01*
X7515293Y790439D01*
X7515570Y790901D01*
X7515848Y791733D01*
X7516218Y792842D01*
X7516680Y794137D01*
X7516957Y795801D01*
X7517235Y797558D01*
X7517327Y799499D01*
Y800424D01*
X7517235Y800979D01*
Y801811D01*
X7517142Y802643D01*
X7516772Y804677D01*
X7516310Y806896D01*
X7515570Y809022D01*
X7514553Y811056D01*
X7513906Y811981D01*
X7513167Y812813D01*
X7513074Y812905D01*
X7512982Y812998D01*
X7512704Y813183D01*
X7512334Y813460D01*
X7511780Y813738D01*
X7511225Y814107D01*
X7510393Y814477D01*
X7509561Y814847D01*
X7508544Y815217D01*
X7507342Y815494D01*
X7505955Y815864D01*
X7504476Y816141D01*
X7502812Y816419D01*
X7501055Y816604D01*
X7499021Y816789D01*
X7496894D01*
X7459912D01*
Y825295D01*
X7496894D01*
X7496987D01*
X7497357D01*
X7497819D01*
X7498466D01*
X7499298Y825202D01*
D02*
G37*
G36*
X5333044Y4396782D02*
X5348392D01*
Y4388923D01*
X5333044D01*
Y4361094D01*
X5325833D01*
X5284412Y4390403D01*
Y4396782D01*
X5325833D01*
Y4405473D01*
X5333044D01*
Y4396782D01*
D02*
G37*
G36*
X5348392Y4341493D02*
Y4333172D01*
X5299668Y4319766D01*
X5299575D01*
X5299390Y4319674D01*
X5299113Y4319581D01*
X5298651Y4319489D01*
X5297634Y4319212D01*
X5296432Y4318934D01*
X5295137Y4318564D01*
X5293935Y4318195D01*
X5292918Y4317917D01*
X5292456Y4317825D01*
X5292179Y4317732D01*
X5292271D01*
X5292364Y4317640D01*
X5292918Y4317547D01*
X5293750Y4317362D01*
X5294767Y4317085D01*
X5295877Y4316808D01*
X5297171Y4316438D01*
X5298466Y4316161D01*
X5299668Y4315791D01*
X5348392Y4302292D01*
Y4293416D01*
X5284412Y4276682D01*
Y4285465D01*
X5326387Y4294988D01*
X5326480D01*
X5326665Y4295081D01*
X5327035Y4295173D01*
X5327497Y4295265D01*
X5328144Y4295358D01*
X5328791Y4295543D01*
X5329623Y4295728D01*
X5330548Y4295913D01*
X5332489Y4296375D01*
X5334708Y4296837D01*
X5337112Y4297300D01*
X5339516Y4297762D01*
X5339424D01*
X5339054Y4297854D01*
X5338592Y4298039D01*
X5337852Y4298132D01*
X5337112Y4298317D01*
X5336188Y4298594D01*
X5334154Y4299056D01*
X5332120Y4299611D01*
X5331103Y4299796D01*
X5330178Y4300073D01*
X5329346Y4300258D01*
X5328606Y4300443D01*
X5328052Y4300628D01*
X5327682Y4300720D01*
X5284412Y4312832D01*
Y4323095D01*
X5316864Y4332155D01*
X5316957D01*
X5317419Y4332340D01*
X5318066Y4332525D01*
X5318898Y4332710D01*
X5320008Y4332988D01*
X5321210Y4333357D01*
X5322597Y4333727D01*
X5324168Y4334097D01*
X5325925Y4334559D01*
X5327682Y4334929D01*
X5331472Y4335761D01*
X5335448Y4336593D01*
X5339516Y4337241D01*
X5339424D01*
X5339239Y4337333D01*
X5338869D01*
X5338407Y4337518D01*
X5337852Y4337610D01*
X5337205Y4337795D01*
X5336373Y4337888D01*
X5335448Y4338165D01*
X5333414Y4338627D01*
X5331010Y4339182D01*
X5328421Y4339737D01*
X5325555Y4340476D01*
X5284412Y4350462D01*
Y4359060D01*
X5348392Y4341493D01*
D02*
G37*
G36*
X5332305Y4270765D02*
X5333599Y4270580D01*
X5335078Y4270210D01*
X5336650Y4269748D01*
X5338314Y4269008D01*
X5340071Y4267991D01*
X5340163D01*
X5340256Y4267898D01*
X5340811Y4267436D01*
X5341643Y4266789D01*
X5342567Y4265864D01*
X5343677Y4264663D01*
X5344879Y4263183D01*
X5345988Y4261519D01*
X5347005Y4259577D01*
Y4259485D01*
X5347098Y4259300D01*
X5347190Y4259023D01*
X5347375Y4258653D01*
X5347560Y4258098D01*
X5347837Y4257451D01*
X5348207Y4255972D01*
X5348669Y4254215D01*
X5349132Y4252089D01*
X5349409Y4249777D01*
X5349501Y4247281D01*
Y4245802D01*
X5349409Y4245062D01*
Y4244230D01*
X5349316Y4243305D01*
X5349224Y4242196D01*
X5348854Y4239884D01*
X5348484Y4237480D01*
X5347837Y4235077D01*
X5347005Y4232765D01*
Y4232673D01*
X5346913Y4232488D01*
X5346728Y4232210D01*
X5346543Y4231841D01*
X5345988Y4230731D01*
X5345156Y4229437D01*
X5344046Y4227958D01*
X5342752Y4226386D01*
X5341180Y4224906D01*
X5339424Y4223520D01*
X5339331D01*
X5339146Y4223335D01*
X5338869Y4223242D01*
X5338499Y4222965D01*
X5338037Y4222780D01*
X5337482Y4222503D01*
X5336095Y4221855D01*
X5334339Y4221208D01*
X5332397Y4220653D01*
X5330178Y4220284D01*
X5327867Y4220099D01*
X5327127Y4228050D01*
X5327219D01*
X5327312D01*
X5327589Y4228142D01*
X5327959D01*
X5328791Y4228327D01*
X5329993Y4228605D01*
X5331195Y4228975D01*
X5332582Y4229344D01*
X5333876Y4229992D01*
X5335078Y4230639D01*
X5335171Y4230731D01*
X5335541Y4231009D01*
X5336188Y4231471D01*
X5336835Y4232210D01*
X5337667Y4233135D01*
X5338499Y4234152D01*
X5339331Y4235539D01*
X5340071Y4237018D01*
Y4237111D01*
X5340163Y4237203D01*
X5340256Y4237480D01*
X5340348Y4237758D01*
X5340626Y4238682D01*
X5340995Y4239884D01*
X5341365Y4241364D01*
X5341643Y4243028D01*
X5341828Y4244877D01*
X5341920Y4246911D01*
Y4247743D01*
X5341828Y4248668D01*
X5341735Y4249777D01*
X5341550Y4251072D01*
X5341365Y4252551D01*
X5340995Y4254030D01*
X5340533Y4255417D01*
X5340441Y4255602D01*
X5340256Y4256064D01*
X5339886Y4256711D01*
X5339516Y4257543D01*
X5338869Y4258376D01*
X5338222Y4259300D01*
X5337482Y4260225D01*
X5336558Y4260964D01*
X5336465Y4261057D01*
X5336095Y4261242D01*
X5335633Y4261519D01*
X5334893Y4261889D01*
X5334154Y4262259D01*
X5333229Y4262536D01*
X5332212Y4262721D01*
X5331103Y4262813D01*
X5331010D01*
X5330548D01*
X5329993Y4262721D01*
X5329254Y4262629D01*
X5328514Y4262351D01*
X5327589Y4262074D01*
X5326665Y4261611D01*
X5325833Y4260964D01*
X5325740Y4260872D01*
X5325463Y4260594D01*
X5325093Y4260225D01*
X5324538Y4259577D01*
X5323984Y4258838D01*
X5323336Y4257821D01*
X5322689Y4256619D01*
X5322134Y4255232D01*
X5322042Y4255140D01*
X5321949Y4254677D01*
X5321672Y4253938D01*
X5321580Y4253475D01*
X5321395Y4252828D01*
X5321117Y4252181D01*
X5320932Y4251349D01*
X5320655Y4250424D01*
X5320378Y4249315D01*
X5320100Y4248205D01*
X5319731Y4246911D01*
X5319361Y4245432D01*
X5318991Y4243860D01*
Y4243767D01*
X5318898Y4243490D01*
X5318806Y4243028D01*
X5318621Y4242473D01*
X5318436Y4241733D01*
X5318251Y4240901D01*
X5317697Y4239052D01*
X5317049Y4237018D01*
X5316402Y4234892D01*
X5315755Y4233043D01*
X5315385Y4232210D01*
X5315015Y4231471D01*
Y4231378D01*
X5314923Y4231286D01*
X5314553Y4230731D01*
X5314091Y4229899D01*
X5313351Y4228975D01*
X5312519Y4227865D01*
X5311502Y4226756D01*
X5310300Y4225646D01*
X5309006Y4224722D01*
X5308821Y4224629D01*
X5308358Y4224352D01*
X5307619Y4223982D01*
X5306694Y4223612D01*
X5305492Y4223242D01*
X5304105Y4222872D01*
X5302626Y4222595D01*
X5301054Y4222503D01*
X5300962D01*
X5300870D01*
X5300592D01*
X5300222D01*
X5299298Y4222688D01*
X5298096Y4222872D01*
X5296709Y4223150D01*
X5295137Y4223612D01*
X5293565Y4224259D01*
X5291994Y4225184D01*
X5291901D01*
X5291809Y4225276D01*
X5291254Y4225739D01*
X5290514Y4226386D01*
X5289590Y4227218D01*
X5288573Y4228327D01*
X5287463Y4229714D01*
X5286446Y4231378D01*
X5285522Y4233228D01*
Y4233320D01*
X5285429Y4233505D01*
X5285337Y4233782D01*
X5285152Y4234152D01*
X5284967Y4234614D01*
X5284782Y4235262D01*
X5284412Y4236648D01*
X5284043Y4238405D01*
X5283673Y4240439D01*
X5283395Y4242566D01*
X5283303Y4244969D01*
Y4246171D01*
X5283395Y4246819D01*
Y4247466D01*
X5283580Y4249222D01*
X5283858Y4251164D01*
X5284320Y4253198D01*
X5284875Y4255417D01*
X5285614Y4257451D01*
Y4257543D01*
X5285707Y4257728D01*
X5285892Y4258006D01*
X5286077Y4258376D01*
X5286539Y4259300D01*
X5287371Y4260502D01*
X5288295Y4261889D01*
X5289497Y4263276D01*
X5290884Y4264570D01*
X5292456Y4265772D01*
X5292548D01*
X5292641Y4265864D01*
X5292918Y4266049D01*
X5293196Y4266234D01*
X5294120Y4266697D01*
X5295322Y4267251D01*
X5296801Y4267898D01*
X5298558Y4268361D01*
X5300407Y4268823D01*
X5302441Y4269008D01*
X5303088Y4260872D01*
X5302996D01*
X5302811D01*
X5302534Y4260779D01*
X5302071Y4260687D01*
X5301054Y4260410D01*
X5299668Y4260040D01*
X5298188Y4259485D01*
X5296709Y4258653D01*
X5295322Y4257636D01*
X5294028Y4256341D01*
X5293935Y4256157D01*
X5293565Y4255694D01*
X5293011Y4254770D01*
X5292456Y4253568D01*
X5291901Y4251996D01*
X5291347Y4250147D01*
X5290977Y4247836D01*
X5290884Y4245247D01*
Y4243952D01*
X5290977Y4243398D01*
X5291069Y4242658D01*
X5291254Y4240994D01*
X5291624Y4239145D01*
X5292086Y4237296D01*
X5292826Y4235539D01*
X5293288Y4234799D01*
X5293750Y4234060D01*
X5293843Y4233875D01*
X5294213Y4233505D01*
X5294860Y4232950D01*
X5295600Y4232395D01*
X5296617Y4231748D01*
X5297726Y4231193D01*
X5299020Y4230824D01*
X5300500Y4230639D01*
X5300685D01*
X5301054D01*
X5301702Y4230731D01*
X5302441Y4230916D01*
X5303366Y4231193D01*
X5304290Y4231656D01*
X5305215Y4232210D01*
X5306140Y4233043D01*
X5306232Y4233135D01*
X5306509Y4233597D01*
X5306787Y4233967D01*
X5306972Y4234337D01*
X5307249Y4234892D01*
X5307619Y4235539D01*
X5307896Y4236371D01*
X5308266Y4237296D01*
X5308636Y4238313D01*
X5309098Y4239515D01*
X5309468Y4240809D01*
X5309930Y4242288D01*
X5310300Y4243952D01*
X5310762Y4245802D01*
Y4245894D01*
X5310855Y4246264D01*
X5310947Y4246819D01*
X5311132Y4247466D01*
X5311317Y4248298D01*
X5311594Y4249315D01*
X5311872Y4250332D01*
X5312149Y4251441D01*
X5312796Y4253845D01*
X5313444Y4256157D01*
X5313813Y4257266D01*
X5314183Y4258283D01*
X5314461Y4259208D01*
X5314830Y4259947D01*
Y4260040D01*
X5314923Y4260225D01*
X5315108Y4260502D01*
X5315293Y4260872D01*
X5315847Y4261889D01*
X5316587Y4263091D01*
X5317604Y4264478D01*
X5318714Y4265864D01*
X5320008Y4267159D01*
X5321395Y4268268D01*
X5321580Y4268361D01*
X5322042Y4268731D01*
X5322874Y4269100D01*
X5323984Y4269655D01*
X5325278Y4270117D01*
X5326850Y4270580D01*
X5328606Y4270857D01*
X5330455Y4270950D01*
X5330548D01*
X5330640D01*
X5330918D01*
X5331288D01*
X5332305Y4270765D01*
D02*
G37*
G36*
X7935854Y1102830D02*
X7936039Y1102645D01*
X7936409Y1102275D01*
X7936964Y1101905D01*
X7937611Y1101351D01*
X7938351Y1100611D01*
X7939275Y1099871D01*
X7940385Y1099039D01*
X7941494Y1098207D01*
X7942789Y1097190D01*
X7944268Y1096173D01*
X7945747Y1095156D01*
X7947411Y1094047D01*
X7949168Y1092937D01*
X7951110Y1091828D01*
X7953051Y1090718D01*
X7953144Y1090626D01*
X7953513Y1090441D01*
X7954068Y1090163D01*
X7954900Y1089701D01*
X7955917Y1089239D01*
X7957027Y1088684D01*
X7958321Y1088037D01*
X7959800Y1087390D01*
X7961465Y1086650D01*
X7963129Y1085818D01*
X7964978Y1085078D01*
X7966920Y1084339D01*
X7970895Y1082859D01*
X7975148Y1081473D01*
X7975241D01*
X7975518Y1081380D01*
X7975980Y1081288D01*
X7976535Y1081103D01*
X7977275Y1080918D01*
X7978199Y1080733D01*
X7979216Y1080456D01*
X7980326Y1080271D01*
X7981620Y1079993D01*
X7983007Y1079716D01*
X7985965Y1079254D01*
X7989201Y1078791D01*
X7992715Y1078514D01*
Y1070470D01*
X7992622D01*
X7992345D01*
X7991975D01*
X7991420Y1070563D01*
X7990681D01*
X7989756Y1070655D01*
X7988739Y1070748D01*
X7987630Y1070840D01*
X7986335Y1071025D01*
X7985041Y1071210D01*
X7983469Y1071487D01*
X7981897Y1071765D01*
X7980233Y1072042D01*
X7978384Y1072412D01*
X7974593Y1073336D01*
X7974501D01*
X7974131Y1073429D01*
X7973576Y1073614D01*
X7972744Y1073891D01*
X7971820Y1074169D01*
X7970710Y1074538D01*
X7969416Y1074908D01*
X7968029Y1075463D01*
X7966457Y1076018D01*
X7964886Y1076572D01*
X7961372Y1077959D01*
X7957674Y1079623D01*
X7953976Y1081473D01*
X7953883Y1081565D01*
X7953513Y1081750D01*
X7953051Y1082027D01*
X7952312Y1082397D01*
X7951479Y1082859D01*
X7950462Y1083507D01*
X7949353Y1084154D01*
X7948151Y1084893D01*
X7945470Y1086650D01*
X7942696Y1088499D01*
X7939830Y1090626D01*
X7937149Y1092845D01*
Y1061502D01*
X7929567D01*
Y1102922D01*
X7935762D01*
X7935854Y1102830D01*
D02*
G37*
G36*
X7992715Y1032933D02*
X7942696D01*
X7942789Y1032841D01*
X7943158Y1032378D01*
X7943713Y1031824D01*
X7944360Y1030899D01*
X7945192Y1029882D01*
X7946117Y1028588D01*
X7947134Y1027108D01*
X7948151Y1025444D01*
Y1025352D01*
X7948243Y1025259D01*
X7948613Y1024705D01*
X7949076Y1023780D01*
X7949630Y1022671D01*
X7950277Y1021376D01*
X7950925Y1019989D01*
X7951572Y1018602D01*
X7952127Y1017216D01*
X7944545D01*
Y1017308D01*
X7944360Y1017493D01*
X7944268Y1017863D01*
X7943990Y1018325D01*
X7943713Y1018880D01*
X7943343Y1019527D01*
X7942419Y1021099D01*
X7941402Y1022948D01*
X7940107Y1024797D01*
X7938628Y1026739D01*
X7937056Y1028680D01*
X7936964Y1028773D01*
X7936871Y1028865D01*
X7936594Y1029142D01*
X7936317Y1029512D01*
X7935392Y1030344D01*
X7934283Y1031454D01*
X7932988Y1032563D01*
X7931509Y1033765D01*
X7930030Y1034782D01*
X7928458Y1035707D01*
Y1040792D01*
X7992715D01*
Y1032933D01*
D02*
G37*
G36*
X7968121Y1000204D02*
X7969046D01*
X7970156Y1000111D01*
X7971265Y1000019D01*
X7973761Y999741D01*
X7976350Y999372D01*
X7978846Y998817D01*
X7980048Y998447D01*
X7981158Y998077D01*
X7981250D01*
X7981435Y997985D01*
X7981713Y997800D01*
X7982082Y997615D01*
X7983099Y997060D01*
X7984394Y996228D01*
X7985873Y995119D01*
X7987352Y993824D01*
X7988924Y992160D01*
X7990311Y990126D01*
Y990034D01*
X7990496Y989849D01*
X7990588Y989571D01*
X7990866Y989109D01*
X7991143Y988554D01*
X7991420Y987815D01*
X7991698Y987075D01*
X7992068Y986150D01*
X7992437Y985133D01*
X7992715Y984024D01*
X7992992Y982822D01*
X7993270Y981435D01*
X7993454Y980048D01*
X7993639Y978569D01*
X7993824Y975241D01*
Y974409D01*
X7993732Y973761D01*
Y973022D01*
X7993639Y972097D01*
X7993547Y971080D01*
X7993454Y970063D01*
X7993085Y967752D01*
X7992530Y965255D01*
X7991790Y962852D01*
X7990773Y960540D01*
Y960448D01*
X7990588Y960263D01*
X7990403Y959985D01*
X7990218Y959616D01*
X7989479Y958599D01*
X7988462Y957397D01*
X7987167Y956010D01*
X7985688Y954715D01*
X7983839Y953421D01*
X7981805Y952404D01*
X7981713D01*
X7981528Y952312D01*
X7981158Y952219D01*
X7980695Y952034D01*
X7980141Y951849D01*
X7979401Y951664D01*
X7978569Y951387D01*
X7977552Y951202D01*
X7976443Y951017D01*
X7975241Y950740D01*
X7973946Y950555D01*
X7972559Y950370D01*
X7970988Y950185D01*
X7969323Y950093D01*
X7967567Y950000D01*
X7965718D01*
X7928735D01*
Y958506D01*
X7965718D01*
X7965810D01*
X7966087D01*
X7966550D01*
X7967104D01*
X7967752Y958599D01*
X7968584D01*
X7970340Y958691D01*
X7972374Y958876D01*
X7974408Y959153D01*
X7976350Y959523D01*
X7977182Y959708D01*
X7978014Y959985D01*
X7978199Y960078D01*
X7978661Y960263D01*
X7979309Y960725D01*
X7980233Y961280D01*
X7981158Y961927D01*
X7982175Y962852D01*
X7983192Y963961D01*
X7984024Y965255D01*
X7984116Y965440D01*
X7984394Y965903D01*
X7984671Y966735D01*
X7985041Y967844D01*
X7985503Y969139D01*
X7985781Y970803D01*
X7986058Y972559D01*
X7986150Y974501D01*
Y975426D01*
X7986058Y975980D01*
Y976812D01*
X7985965Y977644D01*
X7985596Y979679D01*
X7985133Y981897D01*
X7984394Y984024D01*
X7983377Y986058D01*
X7982730Y986983D01*
X7981990Y987815D01*
X7981897Y987907D01*
X7981805Y988000D01*
X7981528Y988184D01*
X7981158Y988462D01*
X7980603Y988739D01*
X7980048Y989109D01*
X7979216Y989479D01*
X7978384Y989849D01*
X7977367Y990218D01*
X7976165Y990496D01*
X7974778Y990866D01*
X7973299Y991143D01*
X7971635Y991420D01*
X7969878Y991605D01*
X7967844Y991790D01*
X7965718D01*
X7928735D01*
Y1000296D01*
X7965718D01*
X7965810D01*
X7966180D01*
X7966642D01*
X7967289D01*
X7968121Y1000204D01*
D02*
G37*
G36*
X6230917Y4405658D02*
X6231657Y4405565D01*
X6232489Y4405380D01*
X6233414Y4405195D01*
X6234431Y4405010D01*
X6236650Y4404271D01*
X6237852Y4403716D01*
X6238961Y4403161D01*
X6240163Y4402422D01*
X6241365Y4401590D01*
X6242567Y4400665D01*
X6243676Y4399556D01*
X6243769Y4399463D01*
X6243954Y4399278D01*
X6244231Y4398908D01*
X6244601Y4398446D01*
X6245063Y4397891D01*
X6245525Y4397152D01*
X6246080Y4396320D01*
X6246542Y4395303D01*
X6247097Y4394286D01*
X6247652Y4393084D01*
X6248114Y4391882D01*
X6248577Y4390495D01*
X6248946Y4389016D01*
X6249224Y4387444D01*
X6249409Y4385872D01*
X6249501Y4384115D01*
Y4383283D01*
X6249409Y4382729D01*
X6249316Y4381989D01*
X6249224Y4381157D01*
X6249039Y4380232D01*
X6248854Y4379215D01*
X6248299Y4376996D01*
X6247375Y4374685D01*
X6246820Y4373483D01*
X6246173Y4372374D01*
X6245341Y4371264D01*
X6244508Y4370155D01*
X6244416Y4370062D01*
X6244231Y4369877D01*
X6243954Y4369600D01*
X6243584Y4369322D01*
X6243122Y4368860D01*
X6242474Y4368398D01*
X6241827Y4367843D01*
X6240995Y4367288D01*
X6240071Y4366734D01*
X6239146Y4366179D01*
X6236927Y4365162D01*
X6234338Y4364330D01*
X6232951Y4364052D01*
X6231472Y4363868D01*
X6230455Y4371726D01*
X6230548D01*
X6230733Y4371819D01*
X6231102Y4371911D01*
X6231565Y4372004D01*
X6232119Y4372096D01*
X6232767Y4372281D01*
X6234153Y4372743D01*
X6235818Y4373391D01*
X6237389Y4374223D01*
X6238869Y4375147D01*
X6240163Y4376257D01*
X6240255Y4376442D01*
X6240625Y4376811D01*
X6241088Y4377551D01*
X6241550Y4378476D01*
X6242105Y4379585D01*
X6242567Y4380972D01*
X6242937Y4382544D01*
X6243029Y4384208D01*
Y4384763D01*
X6242937Y4385132D01*
X6242844Y4386149D01*
X6242567Y4387444D01*
X6242105Y4388923D01*
X6241457Y4390495D01*
X6240533Y4392067D01*
X6239238Y4393546D01*
X6239054Y4393731D01*
X6238499Y4394193D01*
X6237667Y4394748D01*
X6236557Y4395488D01*
X6235170Y4396227D01*
X6233599Y4396782D01*
X6231750Y4397244D01*
X6229716Y4397429D01*
X6229623D01*
X6229438D01*
X6229161D01*
X6228791Y4397337D01*
X6227774Y4397244D01*
X6226572Y4396967D01*
X6225093Y4396597D01*
X6223613Y4395950D01*
X6222134Y4395025D01*
X6220747Y4393823D01*
X6220562Y4393638D01*
X6220193Y4393176D01*
X6219638Y4392436D01*
X6218991Y4391419D01*
X6218343Y4390125D01*
X6217789Y4388553D01*
X6217419Y4386797D01*
X6217234Y4384855D01*
Y4384023D01*
X6217326Y4383376D01*
X6217419Y4382544D01*
X6217604Y4381619D01*
X6217789Y4380510D01*
X6218066Y4379308D01*
X6211132Y4380232D01*
Y4380695D01*
X6211224Y4381064D01*
Y4382266D01*
X6211039Y4383283D01*
X6210854Y4384485D01*
X6210577Y4385872D01*
X6210115Y4387444D01*
X6209468Y4388923D01*
X6208636Y4390495D01*
Y4390587D01*
X6208543Y4390680D01*
X6208173Y4391142D01*
X6207526Y4391789D01*
X6206694Y4392529D01*
X6205492Y4393269D01*
X6204105Y4393916D01*
X6202533Y4394378D01*
X6201609Y4394563D01*
X6200592D01*
X6200499D01*
X6200407D01*
X6199852D01*
X6199113Y4394378D01*
X6198096Y4394193D01*
X6196986Y4393823D01*
X6195784Y4393361D01*
X6194582Y4392621D01*
X6193473Y4391604D01*
X6193380Y4391512D01*
X6193010Y4391050D01*
X6192548Y4390402D01*
X6191993Y4389570D01*
X6191531Y4388461D01*
X6191069Y4387166D01*
X6190699Y4385687D01*
X6190607Y4384023D01*
Y4383283D01*
X6190792Y4382451D01*
X6190976Y4381342D01*
X6191346Y4380140D01*
X6191809Y4378938D01*
X6192548Y4377644D01*
X6193473Y4376442D01*
X6193565Y4376349D01*
X6194027Y4375979D01*
X6194675Y4375425D01*
X6195599Y4374777D01*
X6196801Y4374130D01*
X6198280Y4373483D01*
X6200037Y4372928D01*
X6202071Y4372558D01*
X6200684Y4364700D01*
X6200592D01*
X6200314Y4364792D01*
X6199945Y4364885D01*
X6199390Y4364977D01*
X6198743Y4365162D01*
X6198003Y4365439D01*
X6196246Y4365994D01*
X6194212Y4366919D01*
X6192178Y4368028D01*
X6190237Y4369415D01*
X6188480Y4371172D01*
X6188388Y4371264D01*
X6188295Y4371449D01*
X6188110Y4371726D01*
X6187833Y4372096D01*
X6187463Y4372558D01*
X6187093Y4373206D01*
X6186723Y4373853D01*
X6186261Y4374685D01*
X6185522Y4376534D01*
X6184782Y4378661D01*
X6184320Y4381157D01*
X6184135Y4382451D01*
Y4384763D01*
X6184227Y4385780D01*
X6184412Y4386982D01*
X6184689Y4388461D01*
X6185152Y4390125D01*
X6185706Y4391789D01*
X6186446Y4393453D01*
Y4393546D01*
X6186539Y4393638D01*
X6186816Y4394193D01*
X6187371Y4395025D01*
X6188018Y4395950D01*
X6188942Y4397059D01*
X6189959Y4398169D01*
X6191161Y4399278D01*
X6192548Y4400203D01*
X6192733Y4400295D01*
X6193195Y4400573D01*
X6194027Y4400942D01*
X6195045Y4401405D01*
X6196246Y4401867D01*
X6197633Y4402237D01*
X6199205Y4402514D01*
X6200777Y4402607D01*
X6200962D01*
X6201516D01*
X6202256Y4402514D01*
X6203273Y4402329D01*
X6204475Y4402052D01*
X6205769Y4401590D01*
X6207064Y4401035D01*
X6208358Y4400295D01*
X6208543Y4400203D01*
X6208913Y4399925D01*
X6209560Y4399371D01*
X6210300Y4398631D01*
X6211132Y4397706D01*
X6212056Y4396597D01*
X6212889Y4395303D01*
X6213721Y4393731D01*
Y4393823D01*
X6213813Y4394008D01*
X6213906Y4394286D01*
X6213998Y4394655D01*
X6214368Y4395672D01*
X6214923Y4396967D01*
X6215662Y4398446D01*
X6216587Y4399925D01*
X6217789Y4401312D01*
X6219176Y4402607D01*
X6219360Y4402699D01*
X6219915Y4403069D01*
X6220840Y4403624D01*
X6222042Y4404178D01*
X6223521Y4404733D01*
X6225278Y4405288D01*
X6227312Y4405658D01*
X6229531Y4405750D01*
X6229623D01*
X6229900D01*
X6230363D01*
X6230917Y4405658D01*
D02*
G37*
G36*
X6248392Y4341493D02*
Y4333172D01*
X6199667Y4319766D01*
X6199575D01*
X6199390Y4319674D01*
X6199113Y4319581D01*
X6198650Y4319489D01*
X6197633Y4319211D01*
X6196431Y4318934D01*
X6195137Y4318564D01*
X6193935Y4318194D01*
X6192918Y4317917D01*
X6192456Y4317824D01*
X6192178Y4317732D01*
X6192271D01*
X6192363Y4317640D01*
X6192918Y4317547D01*
X6193750Y4317362D01*
X6194767Y4317085D01*
X6195877Y4316807D01*
X6197171Y4316438D01*
X6198465Y4316160D01*
X6199667Y4315790D01*
X6248392Y4302292D01*
Y4293416D01*
X6184412Y4276682D01*
Y4285465D01*
X6226387Y4294988D01*
X6226480D01*
X6226664Y4295080D01*
X6227034Y4295173D01*
X6227497Y4295265D01*
X6228144Y4295358D01*
X6228791Y4295543D01*
X6229623Y4295728D01*
X6230548Y4295912D01*
X6232489Y4296375D01*
X6234708Y4296837D01*
X6237112Y4297299D01*
X6239516Y4297762D01*
X6239423D01*
X6239054Y4297854D01*
X6238591Y4298039D01*
X6237852Y4298131D01*
X6237112Y4298316D01*
X6236187Y4298594D01*
X6234153Y4299056D01*
X6232119Y4299611D01*
X6231102Y4299796D01*
X6230178Y4300073D01*
X6229346Y4300258D01*
X6228606Y4300443D01*
X6228051Y4300628D01*
X6227681Y4300720D01*
X6184412Y4312832D01*
Y4323094D01*
X6216864Y4332155D01*
X6216957D01*
X6217419Y4332340D01*
X6218066Y4332525D01*
X6218898Y4332710D01*
X6220008Y4332987D01*
X6221210Y4333357D01*
X6222596Y4333727D01*
X6224168Y4334097D01*
X6225925Y4334559D01*
X6227681Y4334929D01*
X6231472Y4335761D01*
X6235448Y4336593D01*
X6239516Y4337240D01*
X6239423D01*
X6239238Y4337333D01*
X6238869D01*
X6238406Y4337518D01*
X6237852Y4337610D01*
X6237204Y4337795D01*
X6236372Y4337887D01*
X6235448Y4338165D01*
X6233414Y4338627D01*
X6231010Y4339182D01*
X6228421Y4339737D01*
X6225555Y4340476D01*
X6184412Y4350461D01*
Y4359060D01*
X6248392Y4341493D01*
D02*
G37*
G36*
X6232304Y4270764D02*
X6233599Y4270579D01*
X6235078Y4270210D01*
X6236650Y4269747D01*
X6238314Y4269008D01*
X6240071Y4267991D01*
X6240163D01*
X6240255Y4267898D01*
X6240810Y4267436D01*
X6241642Y4266789D01*
X6242567Y4265864D01*
X6243676Y4264662D01*
X6244878Y4263183D01*
X6245988Y4261519D01*
X6247005Y4259577D01*
Y4259485D01*
X6247097Y4259300D01*
X6247190Y4259022D01*
X6247375Y4258653D01*
X6247560Y4258098D01*
X6247837Y4257451D01*
X6248207Y4255971D01*
X6248669Y4254215D01*
X6249131Y4252088D01*
X6249409Y4249777D01*
X6249501Y4247281D01*
Y4245801D01*
X6249409Y4245062D01*
Y4244230D01*
X6249316Y4243305D01*
X6249224Y4242195D01*
X6248854Y4239884D01*
X6248484Y4237480D01*
X6247837Y4235076D01*
X6247005Y4232765D01*
Y4232673D01*
X6246912Y4232488D01*
X6246727Y4232210D01*
X6246542Y4231840D01*
X6245988Y4230731D01*
X6245156Y4229437D01*
X6244046Y4227957D01*
X6242752Y4226386D01*
X6241180Y4224906D01*
X6239423Y4223519D01*
X6239331D01*
X6239146Y4223334D01*
X6238869Y4223242D01*
X6238499Y4222965D01*
X6238037Y4222780D01*
X6237482Y4222502D01*
X6236095Y4221855D01*
X6234338Y4221208D01*
X6232397Y4220653D01*
X6230178Y4220283D01*
X6227866Y4220098D01*
X6227127Y4228050D01*
X6227219D01*
X6227312D01*
X6227589Y4228142D01*
X6227959D01*
X6228791Y4228327D01*
X6229993Y4228604D01*
X6231195Y4228974D01*
X6232582Y4229344D01*
X6233876Y4229991D01*
X6235078Y4230638D01*
X6235170Y4230731D01*
X6235540Y4231008D01*
X6236187Y4231471D01*
X6236835Y4232210D01*
X6237667Y4233135D01*
X6238499Y4234152D01*
X6239331Y4235539D01*
X6240071Y4237018D01*
Y4237110D01*
X6240163Y4237203D01*
X6240255Y4237480D01*
X6240348Y4237758D01*
X6240625Y4238682D01*
X6240995Y4239884D01*
X6241365Y4241363D01*
X6241642Y4243028D01*
X6241827Y4244877D01*
X6241920Y4246911D01*
Y4247743D01*
X6241827Y4248667D01*
X6241735Y4249777D01*
X6241550Y4251071D01*
X6241365Y4252551D01*
X6240995Y4254030D01*
X6240533Y4255417D01*
X6240440Y4255602D01*
X6240255Y4256064D01*
X6239886Y4256711D01*
X6239516Y4257543D01*
X6238869Y4258375D01*
X6238221Y4259300D01*
X6237482Y4260224D01*
X6236557Y4260964D01*
X6236465Y4261057D01*
X6236095Y4261241D01*
X6235633Y4261519D01*
X6234893Y4261889D01*
X6234153Y4262258D01*
X6233229Y4262536D01*
X6232212Y4262721D01*
X6231102Y4262813D01*
X6231010D01*
X6230548D01*
X6229993Y4262721D01*
X6229253Y4262628D01*
X6228514Y4262351D01*
X6227589Y4262074D01*
X6226664Y4261611D01*
X6225832Y4260964D01*
X6225740Y4260872D01*
X6225463Y4260594D01*
X6225093Y4260224D01*
X6224538Y4259577D01*
X6223983Y4258838D01*
X6223336Y4257821D01*
X6222689Y4256619D01*
X6222134Y4255232D01*
X6222042Y4255139D01*
X6221949Y4254677D01*
X6221672Y4253937D01*
X6221579Y4253475D01*
X6221394Y4252828D01*
X6221117Y4252181D01*
X6220932Y4251349D01*
X6220655Y4250424D01*
X6220377Y4249315D01*
X6220100Y4248205D01*
X6219730Y4246911D01*
X6219360Y4245431D01*
X6218991Y4243860D01*
Y4243767D01*
X6218898Y4243490D01*
X6218806Y4243028D01*
X6218621Y4242473D01*
X6218436Y4241733D01*
X6218251Y4240901D01*
X6217696Y4239052D01*
X6217049Y4237018D01*
X6216402Y4234891D01*
X6215755Y4233042D01*
X6215385Y4232210D01*
X6215015Y4231471D01*
Y4231378D01*
X6214923Y4231286D01*
X6214553Y4230731D01*
X6214090Y4229899D01*
X6213351Y4228974D01*
X6212519Y4227865D01*
X6211502Y4226755D01*
X6210300Y4225646D01*
X6209005Y4224721D01*
X6208820Y4224629D01*
X6208358Y4224351D01*
X6207619Y4223982D01*
X6206694Y4223612D01*
X6205492Y4223242D01*
X6204105Y4222872D01*
X6202626Y4222595D01*
X6201054Y4222502D01*
X6200962D01*
X6200869D01*
X6200592D01*
X6200222D01*
X6199297Y4222687D01*
X6198096Y4222872D01*
X6196709Y4223150D01*
X6195137Y4223612D01*
X6193565Y4224259D01*
X6191993Y4225184D01*
X6191901D01*
X6191809Y4225276D01*
X6191254Y4225738D01*
X6190514Y4226386D01*
X6189590Y4227218D01*
X6188573Y4228327D01*
X6187463Y4229714D01*
X6186446Y4231378D01*
X6185522Y4233227D01*
Y4233320D01*
X6185429Y4233505D01*
X6185337Y4233782D01*
X6185152Y4234152D01*
X6184967Y4234614D01*
X6184782Y4235261D01*
X6184412Y4236648D01*
X6184042Y4238405D01*
X6183672Y4240439D01*
X6183395Y4242565D01*
X6183303Y4244969D01*
Y4246171D01*
X6183395Y4246818D01*
Y4247465D01*
X6183580Y4249222D01*
X6183857Y4251164D01*
X6184320Y4253198D01*
X6184874Y4255417D01*
X6185614Y4257451D01*
Y4257543D01*
X6185706Y4257728D01*
X6185891Y4258005D01*
X6186076Y4258375D01*
X6186539Y4259300D01*
X6187371Y4260502D01*
X6188295Y4261889D01*
X6189497Y4263275D01*
X6190884Y4264570D01*
X6192456Y4265772D01*
X6192548D01*
X6192641Y4265864D01*
X6192918Y4266049D01*
X6193195Y4266234D01*
X6194120Y4266696D01*
X6195322Y4267251D01*
X6196801Y4267898D01*
X6198558Y4268361D01*
X6200407Y4268823D01*
X6202441Y4269008D01*
X6203088Y4260872D01*
X6202996D01*
X6202811D01*
X6202533Y4260779D01*
X6202071Y4260687D01*
X6201054Y4260409D01*
X6199667Y4260039D01*
X6198188Y4259485D01*
X6196709Y4258653D01*
X6195322Y4257636D01*
X6194027Y4256341D01*
X6193935Y4256156D01*
X6193565Y4255694D01*
X6193010Y4254769D01*
X6192456Y4253568D01*
X6191901Y4251996D01*
X6191346Y4250147D01*
X6190976Y4247835D01*
X6190884Y4245247D01*
Y4243952D01*
X6190976Y4243397D01*
X6191069Y4242658D01*
X6191254Y4240994D01*
X6191624Y4239144D01*
X6192086Y4237295D01*
X6192826Y4235539D01*
X6193288Y4234799D01*
X6193750Y4234059D01*
X6193843Y4233874D01*
X6194212Y4233505D01*
X6194860Y4232950D01*
X6195599Y4232395D01*
X6196616Y4231748D01*
X6197726Y4231193D01*
X6199020Y4230823D01*
X6200499Y4230638D01*
X6200684D01*
X6201054D01*
X6201701Y4230731D01*
X6202441Y4230916D01*
X6203366Y4231193D01*
X6204290Y4231655D01*
X6205215Y4232210D01*
X6206139Y4233042D01*
X6206232Y4233135D01*
X6206509Y4233597D01*
X6206786Y4233967D01*
X6206971Y4234337D01*
X6207249Y4234891D01*
X6207619Y4235539D01*
X6207896Y4236371D01*
X6208266Y4237295D01*
X6208636Y4238312D01*
X6209098Y4239514D01*
X6209468Y4240809D01*
X6209930Y4242288D01*
X6210300Y4243952D01*
X6210762Y4245801D01*
Y4245894D01*
X6210854Y4246264D01*
X6210947Y4246818D01*
X6211132Y4247465D01*
X6211317Y4248298D01*
X6211594Y4249315D01*
X6211871Y4250332D01*
X6212149Y4251441D01*
X6212796Y4253845D01*
X6213443Y4256156D01*
X6213813Y4257266D01*
X6214183Y4258283D01*
X6214460Y4259207D01*
X6214830Y4259947D01*
Y4260039D01*
X6214923Y4260224D01*
X6215107Y4260502D01*
X6215292Y4260872D01*
X6215847Y4261889D01*
X6216587Y4263091D01*
X6217604Y4264477D01*
X6218713Y4265864D01*
X6220008Y4267159D01*
X6221394Y4268268D01*
X6221579Y4268361D01*
X6222042Y4268730D01*
X6222874Y4269100D01*
X6223983Y4269655D01*
X6225278Y4270117D01*
X6226849Y4270579D01*
X6228606Y4270857D01*
X6230455Y4270949D01*
X6230548D01*
X6230640D01*
X6230917D01*
X6231287D01*
X6232304Y4270764D01*
D02*
G37*
G36*
X7148392Y4362666D02*
X7148299D01*
X7147930D01*
X7147375D01*
X7146635Y4362758D01*
X7145803Y4362851D01*
X7144879Y4363036D01*
X7143954Y4363221D01*
X7142937Y4363590D01*
X7142844D01*
X7142752Y4363683D01*
X7142197Y4363868D01*
X7141365Y4364238D01*
X7140256Y4364792D01*
X7138961Y4365532D01*
X7137482Y4366457D01*
X7136003Y4367474D01*
X7134431Y4368768D01*
X7134339D01*
X7134246Y4368953D01*
X7133691Y4369415D01*
X7132859Y4370247D01*
X7131657Y4371449D01*
X7130270Y4372836D01*
X7128606Y4374593D01*
X7126757Y4376719D01*
X7124816Y4379031D01*
X7124723Y4379123D01*
X7124446Y4379493D01*
X7123983Y4380048D01*
X7123429Y4380695D01*
X7122689Y4381527D01*
X7121857Y4382544D01*
X7120932Y4383561D01*
X7119915Y4384763D01*
X7117696Y4387074D01*
X7115478Y4389386D01*
X7114368Y4390495D01*
X7113259Y4391512D01*
X7112242Y4392437D01*
X7111225Y4393176D01*
X7111132D01*
X7111040Y4393361D01*
X7110762Y4393546D01*
X7110392Y4393731D01*
X7109375Y4394378D01*
X7108173Y4395118D01*
X7106694Y4395765D01*
X7105122Y4396412D01*
X7103366Y4396782D01*
X7101702Y4396967D01*
X7101609D01*
X7101517D01*
X7100962Y4396875D01*
X7100037Y4396782D01*
X7099020Y4396505D01*
X7097726Y4396135D01*
X7096432Y4395488D01*
X7095137Y4394656D01*
X7093843Y4393546D01*
X7093658Y4393361D01*
X7093288Y4392899D01*
X7092826Y4392252D01*
X7092179Y4391235D01*
X7091624Y4389940D01*
X7091069Y4388461D01*
X7090699Y4386704D01*
X7090607Y4384763D01*
Y4384208D01*
X7090699Y4383838D01*
X7090792Y4382729D01*
X7091069Y4381434D01*
X7091439Y4380048D01*
X7092086Y4378476D01*
X7092918Y4376997D01*
X7094028Y4375610D01*
X7094213Y4375425D01*
X7094675Y4375055D01*
X7095415Y4374500D01*
X7096524Y4373946D01*
X7097818Y4373298D01*
X7099483Y4372744D01*
X7101332Y4372374D01*
X7103458Y4372189D01*
X7102626Y4364145D01*
X7102534D01*
X7102256Y4364238D01*
X7101794D01*
X7101147Y4364330D01*
X7100407Y4364515D01*
X7099575Y4364700D01*
X7098558Y4364977D01*
X7097541Y4365255D01*
X7095322Y4365994D01*
X7093103Y4367104D01*
X7091994Y4367751D01*
X7090884Y4368583D01*
X7089867Y4369415D01*
X7088943Y4370340D01*
X7088850Y4370432D01*
X7088758Y4370617D01*
X7088480Y4370894D01*
X7088203Y4371357D01*
X7087833Y4371911D01*
X7087463Y4372559D01*
X7087001Y4373298D01*
X7086539Y4374223D01*
X7086077Y4375240D01*
X7085614Y4376349D01*
X7085244Y4377551D01*
X7084875Y4378846D01*
X7084597Y4380233D01*
X7084320Y4381712D01*
X7084227Y4383284D01*
X7084135Y4384948D01*
Y4385872D01*
X7084227Y4386520D01*
X7084320Y4387259D01*
X7084412Y4388184D01*
X7084597Y4389201D01*
X7084782Y4390218D01*
X7085429Y4392622D01*
X7086354Y4395025D01*
X7086909Y4396227D01*
X7087556Y4397429D01*
X7088388Y4398539D01*
X7089312Y4399556D01*
X7089405Y4399648D01*
X7089497Y4399833D01*
X7089867Y4400018D01*
X7090237Y4400388D01*
X7090699Y4400850D01*
X7091346Y4401313D01*
X7091994Y4401775D01*
X7092826Y4402330D01*
X7094582Y4403254D01*
X7096801Y4404179D01*
X7097911Y4404548D01*
X7099205Y4404733D01*
X7100500Y4404918D01*
X7101886Y4405011D01*
X7102071D01*
X7102534D01*
X7103273Y4404918D01*
X7104290Y4404826D01*
X7105400Y4404641D01*
X7106694Y4404271D01*
X7108081Y4403901D01*
X7109468Y4403347D01*
X7109653Y4403254D01*
X7110115Y4403069D01*
X7110855Y4402699D01*
X7111872Y4402145D01*
X7112981Y4401405D01*
X7114368Y4400480D01*
X7115755Y4399371D01*
X7117327Y4398077D01*
X7117512Y4397892D01*
X7118066Y4397429D01*
X7118529Y4396967D01*
X7118991Y4396505D01*
X7119546Y4395950D01*
X7120285Y4395210D01*
X7121025Y4394471D01*
X7121857Y4393546D01*
X7122782Y4392622D01*
X7123799Y4391512D01*
X7124816Y4390310D01*
X7126017Y4389016D01*
X7127219Y4387537D01*
X7128514Y4386057D01*
X7128606Y4385965D01*
X7128791Y4385780D01*
X7129069Y4385410D01*
X7129438Y4384948D01*
X7129993Y4384393D01*
X7130548Y4383746D01*
X7131750Y4382267D01*
X7133137Y4380695D01*
X7134523Y4379216D01*
X7135725Y4377921D01*
X7136188Y4377366D01*
X7136650Y4376904D01*
X7136742Y4376812D01*
X7137020Y4376534D01*
X7137390Y4376164D01*
X7137944Y4375702D01*
X7138592Y4375240D01*
X7139239Y4374685D01*
X7140810Y4373576D01*
Y4405103D01*
X7148392D01*
Y4362666D01*
D02*
G37*
G36*
Y4341493D02*
Y4333172D01*
X7099668Y4319766D01*
X7099575D01*
X7099390Y4319674D01*
X7099113Y4319581D01*
X7098651Y4319489D01*
X7097634Y4319212D01*
X7096432Y4318934D01*
X7095137Y4318564D01*
X7093935Y4318195D01*
X7092918Y4317917D01*
X7092456Y4317825D01*
X7092179Y4317732D01*
X7092271D01*
X7092364Y4317640D01*
X7092918Y4317547D01*
X7093750Y4317362D01*
X7094767Y4317085D01*
X7095877Y4316808D01*
X7097171Y4316438D01*
X7098466Y4316161D01*
X7099668Y4315791D01*
X7148392Y4302292D01*
Y4293416D01*
X7084412Y4276682D01*
Y4285465D01*
X7126387Y4294988D01*
X7126480D01*
X7126665Y4295081D01*
X7127035Y4295173D01*
X7127497Y4295265D01*
X7128144Y4295358D01*
X7128791Y4295543D01*
X7129623Y4295728D01*
X7130548Y4295913D01*
X7132489Y4296375D01*
X7134708Y4296837D01*
X7137112Y4297300D01*
X7139516Y4297762D01*
X7139424D01*
X7139054Y4297854D01*
X7138592Y4298039D01*
X7137852Y4298132D01*
X7137112Y4298317D01*
X7136188Y4298594D01*
X7134154Y4299056D01*
X7132120Y4299611D01*
X7131103Y4299796D01*
X7130178Y4300073D01*
X7129346Y4300258D01*
X7128606Y4300443D01*
X7128052Y4300628D01*
X7127682Y4300720D01*
X7084412Y4312832D01*
Y4323095D01*
X7116864Y4332155D01*
X7116957D01*
X7117419Y4332340D01*
X7118066Y4332525D01*
X7118898Y4332710D01*
X7120008Y4332988D01*
X7121210Y4333357D01*
X7122597Y4333727D01*
X7124168Y4334097D01*
X7125925Y4334559D01*
X7127682Y4334929D01*
X7131472Y4335761D01*
X7135448Y4336593D01*
X7139516Y4337241D01*
X7139424D01*
X7139239Y4337333D01*
X7138869D01*
X7138407Y4337518D01*
X7137852Y4337610D01*
X7137205Y4337795D01*
X7136373Y4337888D01*
X7135448Y4338165D01*
X7133414Y4338627D01*
X7131010Y4339182D01*
X7128421Y4339737D01*
X7125555Y4340476D01*
X7084412Y4350462D01*
Y4359060D01*
X7148392Y4341493D01*
D02*
G37*
G36*
X7132305Y4270765D02*
X7133599Y4270580D01*
X7135078Y4270210D01*
X7136650Y4269748D01*
X7138314Y4269008D01*
X7140071Y4267991D01*
X7140163D01*
X7140256Y4267898D01*
X7140810Y4267436D01*
X7141643Y4266789D01*
X7142567Y4265864D01*
X7143677Y4264663D01*
X7144879Y4263183D01*
X7145988Y4261519D01*
X7147005Y4259577D01*
Y4259485D01*
X7147097Y4259300D01*
X7147190Y4259023D01*
X7147375Y4258653D01*
X7147560Y4258098D01*
X7147837Y4257451D01*
X7148207Y4255972D01*
X7148669Y4254215D01*
X7149131Y4252089D01*
X7149409Y4249777D01*
X7149501Y4247281D01*
Y4245802D01*
X7149409Y4245062D01*
Y4244230D01*
X7149316Y4243305D01*
X7149224Y4242196D01*
X7148854Y4239884D01*
X7148484Y4237480D01*
X7147837Y4235077D01*
X7147005Y4232765D01*
Y4232673D01*
X7146913Y4232488D01*
X7146728Y4232210D01*
X7146543Y4231841D01*
X7145988Y4230731D01*
X7145156Y4229437D01*
X7144046Y4227958D01*
X7142752Y4226386D01*
X7141180Y4224906D01*
X7139424Y4223520D01*
X7139331D01*
X7139146Y4223335D01*
X7138869Y4223242D01*
X7138499Y4222965D01*
X7138037Y4222780D01*
X7137482Y4222503D01*
X7136095Y4221855D01*
X7134339Y4221208D01*
X7132397Y4220653D01*
X7130178Y4220284D01*
X7127867Y4220099D01*
X7127127Y4228050D01*
X7127219D01*
X7127312D01*
X7127589Y4228142D01*
X7127959D01*
X7128791Y4228327D01*
X7129993Y4228605D01*
X7131195Y4228975D01*
X7132582Y4229344D01*
X7133876Y4229992D01*
X7135078Y4230639D01*
X7135171Y4230731D01*
X7135540Y4231009D01*
X7136188Y4231471D01*
X7136835Y4232210D01*
X7137667Y4233135D01*
X7138499Y4234152D01*
X7139331Y4235539D01*
X7140071Y4237018D01*
Y4237111D01*
X7140163Y4237203D01*
X7140256Y4237480D01*
X7140348Y4237758D01*
X7140626Y4238682D01*
X7140995Y4239884D01*
X7141365Y4241364D01*
X7141643Y4243028D01*
X7141827Y4244877D01*
X7141920Y4246911D01*
Y4247743D01*
X7141827Y4248668D01*
X7141735Y4249777D01*
X7141550Y4251072D01*
X7141365Y4252551D01*
X7140995Y4254030D01*
X7140533Y4255417D01*
X7140441Y4255602D01*
X7140256Y4256064D01*
X7139886Y4256711D01*
X7139516Y4257543D01*
X7138869Y4258376D01*
X7138222Y4259300D01*
X7137482Y4260225D01*
X7136557Y4260964D01*
X7136465Y4261057D01*
X7136095Y4261242D01*
X7135633Y4261519D01*
X7134893Y4261889D01*
X7134154Y4262259D01*
X7133229Y4262536D01*
X7132212Y4262721D01*
X7131103Y4262813D01*
X7131010D01*
X7130548D01*
X7129993Y4262721D01*
X7129253Y4262629D01*
X7128514Y4262351D01*
X7127589Y4262074D01*
X7126665Y4261611D01*
X7125833Y4260964D01*
X7125740Y4260872D01*
X7125463Y4260594D01*
X7125093Y4260225D01*
X7124538Y4259577D01*
X7123983Y4258838D01*
X7123336Y4257821D01*
X7122689Y4256619D01*
X7122134Y4255232D01*
X7122042Y4255140D01*
X7121949Y4254677D01*
X7121672Y4253938D01*
X7121580Y4253475D01*
X7121395Y4252828D01*
X7121117Y4252181D01*
X7120932Y4251349D01*
X7120655Y4250424D01*
X7120378Y4249315D01*
X7120100Y4248205D01*
X7119730Y4246911D01*
X7119361Y4245432D01*
X7118991Y4243860D01*
Y4243767D01*
X7118898Y4243490D01*
X7118806Y4243028D01*
X7118621Y4242473D01*
X7118436Y4241733D01*
X7118251Y4240901D01*
X7117696Y4239052D01*
X7117049Y4237018D01*
X7116402Y4234892D01*
X7115755Y4233043D01*
X7115385Y4232210D01*
X7115015Y4231471D01*
Y4231378D01*
X7114923Y4231286D01*
X7114553Y4230731D01*
X7114091Y4229899D01*
X7113351Y4228975D01*
X7112519Y4227865D01*
X7111502Y4226756D01*
X7110300Y4225646D01*
X7109006Y4224722D01*
X7108821Y4224629D01*
X7108358Y4224352D01*
X7107619Y4223982D01*
X7106694Y4223612D01*
X7105492Y4223242D01*
X7104105Y4222872D01*
X7102626Y4222595D01*
X7101054Y4222503D01*
X7100962D01*
X7100869D01*
X7100592D01*
X7100222D01*
X7099298Y4222688D01*
X7098096Y4222872D01*
X7096709Y4223150D01*
X7095137Y4223612D01*
X7093565Y4224259D01*
X7091994Y4225184D01*
X7091901D01*
X7091809Y4225276D01*
X7091254Y4225739D01*
X7090514Y4226386D01*
X7089590Y4227218D01*
X7088573Y4228327D01*
X7087463Y4229714D01*
X7086446Y4231378D01*
X7085522Y4233228D01*
Y4233320D01*
X7085429Y4233505D01*
X7085337Y4233782D01*
X7085152Y4234152D01*
X7084967Y4234614D01*
X7084782Y4235262D01*
X7084412Y4236648D01*
X7084042Y4238405D01*
X7083673Y4240439D01*
X7083395Y4242566D01*
X7083303Y4244969D01*
Y4246171D01*
X7083395Y4246819D01*
Y4247466D01*
X7083580Y4249222D01*
X7083858Y4251164D01*
X7084320Y4253198D01*
X7084875Y4255417D01*
X7085614Y4257451D01*
Y4257543D01*
X7085707Y4257728D01*
X7085892Y4258006D01*
X7086077Y4258376D01*
X7086539Y4259300D01*
X7087371Y4260502D01*
X7088295Y4261889D01*
X7089497Y4263276D01*
X7090884Y4264570D01*
X7092456Y4265772D01*
X7092548D01*
X7092641Y4265864D01*
X7092918Y4266049D01*
X7093196Y4266234D01*
X7094120Y4266697D01*
X7095322Y4267251D01*
X7096801Y4267898D01*
X7098558Y4268361D01*
X7100407Y4268823D01*
X7102441Y4269008D01*
X7103088Y4260872D01*
X7102996D01*
X7102811D01*
X7102534Y4260779D01*
X7102071Y4260687D01*
X7101054Y4260410D01*
X7099668Y4260040D01*
X7098188Y4259485D01*
X7096709Y4258653D01*
X7095322Y4257636D01*
X7094028Y4256341D01*
X7093935Y4256157D01*
X7093565Y4255694D01*
X7093011Y4254770D01*
X7092456Y4253568D01*
X7091901Y4251996D01*
X7091346Y4250147D01*
X7090977Y4247836D01*
X7090884Y4245247D01*
Y4243952D01*
X7090977Y4243398D01*
X7091069Y4242658D01*
X7091254Y4240994D01*
X7091624Y4239145D01*
X7092086Y4237296D01*
X7092826Y4235539D01*
X7093288Y4234799D01*
X7093750Y4234060D01*
X7093843Y4233875D01*
X7094213Y4233505D01*
X7094860Y4232950D01*
X7095599Y4232395D01*
X7096616Y4231748D01*
X7097726Y4231193D01*
X7099020Y4230824D01*
X7100500Y4230639D01*
X7100685D01*
X7101054D01*
X7101702Y4230731D01*
X7102441Y4230916D01*
X7103366Y4231193D01*
X7104290Y4231656D01*
X7105215Y4232210D01*
X7106139Y4233043D01*
X7106232Y4233135D01*
X7106509Y4233597D01*
X7106787Y4233967D01*
X7106972Y4234337D01*
X7107249Y4234892D01*
X7107619Y4235539D01*
X7107896Y4236371D01*
X7108266Y4237296D01*
X7108636Y4238313D01*
X7109098Y4239515D01*
X7109468Y4240809D01*
X7109930Y4242288D01*
X7110300Y4243952D01*
X7110762Y4245802D01*
Y4245894D01*
X7110855Y4246264D01*
X7110947Y4246819D01*
X7111132Y4247466D01*
X7111317Y4248298D01*
X7111594Y4249315D01*
X7111872Y4250332D01*
X7112149Y4251441D01*
X7112796Y4253845D01*
X7113443Y4256157D01*
X7113813Y4257266D01*
X7114183Y4258283D01*
X7114460Y4259208D01*
X7114830Y4259947D01*
Y4260040D01*
X7114923Y4260225D01*
X7115108Y4260502D01*
X7115293Y4260872D01*
X7115847Y4261889D01*
X7116587Y4263091D01*
X7117604Y4264478D01*
X7118713Y4265864D01*
X7120008Y4267159D01*
X7121395Y4268268D01*
X7121580Y4268361D01*
X7122042Y4268731D01*
X7122874Y4269100D01*
X7123983Y4269655D01*
X7125278Y4270117D01*
X7126850Y4270580D01*
X7128606Y4270857D01*
X7130455Y4270950D01*
X7130548D01*
X7130640D01*
X7130918D01*
X7131287D01*
X7132305Y4270765D01*
D02*
G37*
G36*
X8048392Y4385502D02*
X7998373D01*
X7998465Y4385410D01*
X7998835Y4384948D01*
X7999390Y4384393D01*
X8000037Y4383468D01*
X8000869Y4382451D01*
X8001794Y4381157D01*
X8002811Y4379678D01*
X8003828Y4378013D01*
Y4377921D01*
X8003920Y4377828D01*
X8004290Y4377274D01*
X8004752Y4376349D01*
X8005307Y4375240D01*
X8005954Y4373945D01*
X8006601Y4372558D01*
X8007249Y4371172D01*
X8007803Y4369785D01*
X8000222D01*
Y4369877D01*
X8000037Y4370062D01*
X7999945Y4370432D01*
X7999667Y4370894D01*
X7999390Y4371449D01*
X7999020Y4372096D01*
X7998096Y4373668D01*
X7997078Y4375517D01*
X7995784Y4377366D01*
X7994305Y4379308D01*
X7992733Y4381249D01*
X7992641Y4381342D01*
X7992548Y4381434D01*
X7992271Y4381712D01*
X7991993Y4382081D01*
X7991069Y4382914D01*
X7989959Y4384023D01*
X7988665Y4385132D01*
X7987186Y4386334D01*
X7985706Y4387351D01*
X7984135Y4388276D01*
Y4393361D01*
X8048392D01*
Y4385502D01*
D02*
G37*
G36*
Y4341493D02*
Y4333172D01*
X7999667Y4319766D01*
X7999575D01*
X7999390Y4319674D01*
X7999113Y4319581D01*
X7998650Y4319489D01*
X7997633Y4319211D01*
X7996431Y4318934D01*
X7995137Y4318564D01*
X7993935Y4318194D01*
X7992918Y4317917D01*
X7992456Y4317824D01*
X7992178Y4317732D01*
X7992271D01*
X7992363Y4317640D01*
X7992918Y4317547D01*
X7993750Y4317362D01*
X7994767Y4317085D01*
X7995877Y4316807D01*
X7997171Y4316438D01*
X7998465Y4316160D01*
X7999667Y4315790D01*
X8048392Y4302292D01*
Y4293416D01*
X7984412Y4276682D01*
Y4285465D01*
X8026387Y4294988D01*
X8026480D01*
X8026664Y4295080D01*
X8027034Y4295173D01*
X8027497Y4295265D01*
X8028144Y4295358D01*
X8028791Y4295543D01*
X8029623Y4295728D01*
X8030548Y4295912D01*
X8032489Y4296375D01*
X8034708Y4296837D01*
X8037112Y4297299D01*
X8039516Y4297762D01*
X8039423D01*
X8039054Y4297854D01*
X8038591Y4298039D01*
X8037852Y4298131D01*
X8037112Y4298316D01*
X8036187Y4298594D01*
X8034153Y4299056D01*
X8032119Y4299611D01*
X8031102Y4299796D01*
X8030178Y4300073D01*
X8029346Y4300258D01*
X8028606Y4300443D01*
X8028051Y4300628D01*
X8027681Y4300720D01*
X7984412Y4312832D01*
Y4323094D01*
X8016864Y4332155D01*
X8016957D01*
X8017419Y4332340D01*
X8018066Y4332525D01*
X8018898Y4332710D01*
X8020008Y4332987D01*
X8021210Y4333357D01*
X8022596Y4333727D01*
X8024168Y4334097D01*
X8025925Y4334559D01*
X8027681Y4334929D01*
X8031472Y4335761D01*
X8035448Y4336593D01*
X8039516Y4337240D01*
X8039423D01*
X8039238Y4337333D01*
X8038869D01*
X8038406Y4337518D01*
X8037852Y4337610D01*
X8037204Y4337795D01*
X8036372Y4337887D01*
X8035448Y4338165D01*
X8033414Y4338627D01*
X8031010Y4339182D01*
X8028421Y4339737D01*
X8025555Y4340476D01*
X7984412Y4350461D01*
Y4359060D01*
X8048392Y4341493D01*
D02*
G37*
G36*
X8032304Y4270764D02*
X8033599Y4270579D01*
X8035078Y4270210D01*
X8036650Y4269747D01*
X8038314Y4269008D01*
X8040071Y4267991D01*
X8040163D01*
X8040255Y4267898D01*
X8040810Y4267436D01*
X8041642Y4266789D01*
X8042567Y4265864D01*
X8043676Y4264662D01*
X8044878Y4263183D01*
X8045988Y4261519D01*
X8047005Y4259577D01*
Y4259485D01*
X8047097Y4259300D01*
X8047190Y4259022D01*
X8047375Y4258653D01*
X8047559Y4258098D01*
X8047837Y4257451D01*
X8048207Y4255971D01*
X8048669Y4254215D01*
X8049131Y4252088D01*
X8049409Y4249777D01*
X8049501Y4247281D01*
Y4245801D01*
X8049409Y4245062D01*
Y4244230D01*
X8049316Y4243305D01*
X8049224Y4242195D01*
X8048854Y4239884D01*
X8048484Y4237480D01*
X8047837Y4235076D01*
X8047005Y4232765D01*
Y4232673D01*
X8046912Y4232488D01*
X8046727Y4232210D01*
X8046542Y4231840D01*
X8045988Y4230731D01*
X8045156Y4229437D01*
X8044046Y4227957D01*
X8042752Y4226386D01*
X8041180Y4224906D01*
X8039423Y4223519D01*
X8039331D01*
X8039146Y4223334D01*
X8038869Y4223242D01*
X8038499Y4222965D01*
X8038037Y4222780D01*
X8037482Y4222502D01*
X8036095Y4221855D01*
X8034338Y4221208D01*
X8032397Y4220653D01*
X8030178Y4220283D01*
X8027866Y4220098D01*
X8027127Y4228050D01*
X8027219D01*
X8027312D01*
X8027589Y4228142D01*
X8027959D01*
X8028791Y4228327D01*
X8029993Y4228604D01*
X8031195Y4228974D01*
X8032582Y4229344D01*
X8033876Y4229991D01*
X8035078Y4230638D01*
X8035170Y4230731D01*
X8035540Y4231008D01*
X8036187Y4231471D01*
X8036835Y4232210D01*
X8037667Y4233135D01*
X8038499Y4234152D01*
X8039331Y4235539D01*
X8040071Y4237018D01*
Y4237110D01*
X8040163Y4237203D01*
X8040255Y4237480D01*
X8040348Y4237758D01*
X8040625Y4238682D01*
X8040995Y4239884D01*
X8041365Y4241363D01*
X8041642Y4243028D01*
X8041827Y4244877D01*
X8041920Y4246911D01*
Y4247743D01*
X8041827Y4248667D01*
X8041735Y4249777D01*
X8041550Y4251071D01*
X8041365Y4252551D01*
X8040995Y4254030D01*
X8040533Y4255417D01*
X8040440Y4255602D01*
X8040255Y4256064D01*
X8039886Y4256711D01*
X8039516Y4257543D01*
X8038869Y4258375D01*
X8038221Y4259300D01*
X8037482Y4260224D01*
X8036557Y4260964D01*
X8036465Y4261057D01*
X8036095Y4261241D01*
X8035633Y4261519D01*
X8034893Y4261889D01*
X8034153Y4262258D01*
X8033229Y4262536D01*
X8032212Y4262721D01*
X8031102Y4262813D01*
X8031010D01*
X8030548D01*
X8029993Y4262721D01*
X8029253Y4262628D01*
X8028514Y4262351D01*
X8027589Y4262074D01*
X8026664Y4261611D01*
X8025832Y4260964D01*
X8025740Y4260872D01*
X8025462Y4260594D01*
X8025093Y4260224D01*
X8024538Y4259577D01*
X8023983Y4258838D01*
X8023336Y4257821D01*
X8022689Y4256619D01*
X8022134Y4255232D01*
X8022042Y4255139D01*
X8021949Y4254677D01*
X8021672Y4253937D01*
X8021579Y4253475D01*
X8021394Y4252828D01*
X8021117Y4252181D01*
X8020932Y4251349D01*
X8020655Y4250424D01*
X8020377Y4249315D01*
X8020100Y4248205D01*
X8019730Y4246911D01*
X8019360Y4245431D01*
X8018991Y4243860D01*
Y4243767D01*
X8018898Y4243490D01*
X8018806Y4243028D01*
X8018621Y4242473D01*
X8018436Y4241733D01*
X8018251Y4240901D01*
X8017696Y4239052D01*
X8017049Y4237018D01*
X8016402Y4234891D01*
X8015755Y4233042D01*
X8015385Y4232210D01*
X8015015Y4231471D01*
Y4231378D01*
X8014923Y4231286D01*
X8014553Y4230731D01*
X8014090Y4229899D01*
X8013351Y4228974D01*
X8012519Y4227865D01*
X8011502Y4226755D01*
X8010300Y4225646D01*
X8009005Y4224721D01*
X8008820Y4224629D01*
X8008358Y4224351D01*
X8007618Y4223982D01*
X8006694Y4223612D01*
X8005492Y4223242D01*
X8004105Y4222872D01*
X8002626Y4222595D01*
X8001054Y4222502D01*
X8000962D01*
X8000869D01*
X8000592D01*
X8000222D01*
X7999297Y4222687D01*
X7998096Y4222872D01*
X7996709Y4223150D01*
X7995137Y4223612D01*
X7993565Y4224259D01*
X7991993Y4225184D01*
X7991901D01*
X7991809Y4225276D01*
X7991254Y4225738D01*
X7990514Y4226386D01*
X7989590Y4227218D01*
X7988573Y4228327D01*
X7987463Y4229714D01*
X7986446Y4231378D01*
X7985521Y4233227D01*
Y4233320D01*
X7985429Y4233505D01*
X7985337Y4233782D01*
X7985152Y4234152D01*
X7984967Y4234614D01*
X7984782Y4235261D01*
X7984412Y4236648D01*
X7984042Y4238405D01*
X7983672Y4240439D01*
X7983395Y4242565D01*
X7983303Y4244969D01*
Y4246171D01*
X7983395Y4246818D01*
Y4247465D01*
X7983580Y4249222D01*
X7983857Y4251164D01*
X7984320Y4253198D01*
X7984874Y4255417D01*
X7985614Y4257451D01*
Y4257543D01*
X7985706Y4257728D01*
X7985891Y4258005D01*
X7986076Y4258375D01*
X7986539Y4259300D01*
X7987371Y4260502D01*
X7988295Y4261889D01*
X7989497Y4263275D01*
X7990884Y4264570D01*
X7992456Y4265772D01*
X7992548D01*
X7992641Y4265864D01*
X7992918Y4266049D01*
X7993195Y4266234D01*
X7994120Y4266696D01*
X7995322Y4267251D01*
X7996801Y4267898D01*
X7998558Y4268361D01*
X8000407Y4268823D01*
X8002441Y4269008D01*
X8003088Y4260872D01*
X8002996D01*
X8002811D01*
X8002533Y4260779D01*
X8002071Y4260687D01*
X8001054Y4260409D01*
X7999667Y4260039D01*
X7998188Y4259485D01*
X7996709Y4258653D01*
X7995322Y4257636D01*
X7994027Y4256341D01*
X7993935Y4256156D01*
X7993565Y4255694D01*
X7993010Y4254769D01*
X7992456Y4253568D01*
X7991901Y4251996D01*
X7991346Y4250147D01*
X7990976Y4247835D01*
X7990884Y4245247D01*
Y4243952D01*
X7990976Y4243397D01*
X7991069Y4242658D01*
X7991254Y4240994D01*
X7991624Y4239144D01*
X7992086Y4237295D01*
X7992826Y4235539D01*
X7993288Y4234799D01*
X7993750Y4234059D01*
X7993843Y4233874D01*
X7994212Y4233505D01*
X7994860Y4232950D01*
X7995599Y4232395D01*
X7996616Y4231748D01*
X7997726Y4231193D01*
X7999020Y4230823D01*
X8000499Y4230638D01*
X8000684D01*
X8001054D01*
X8001701Y4230731D01*
X8002441Y4230916D01*
X8003366Y4231193D01*
X8004290Y4231655D01*
X8005215Y4232210D01*
X8006139Y4233042D01*
X8006232Y4233135D01*
X8006509Y4233597D01*
X8006786Y4233967D01*
X8006971Y4234337D01*
X8007249Y4234891D01*
X8007618Y4235539D01*
X8007896Y4236371D01*
X8008266Y4237295D01*
X8008635Y4238312D01*
X8009098Y4239514D01*
X8009468Y4240809D01*
X8009930Y4242288D01*
X8010300Y4243952D01*
X8010762Y4245801D01*
Y4245894D01*
X8010854Y4246264D01*
X8010947Y4246818D01*
X8011132Y4247465D01*
X8011317Y4248298D01*
X8011594Y4249315D01*
X8011871Y4250332D01*
X8012149Y4251441D01*
X8012796Y4253845D01*
X8013443Y4256156D01*
X8013813Y4257266D01*
X8014183Y4258283D01*
X8014460Y4259207D01*
X8014830Y4259947D01*
Y4260039D01*
X8014923Y4260224D01*
X8015107Y4260502D01*
X8015292Y4260872D01*
X8015847Y4261889D01*
X8016587Y4263091D01*
X8017604Y4264477D01*
X8018713Y4265864D01*
X8020008Y4267159D01*
X8021394Y4268268D01*
X8021579Y4268361D01*
X8022042Y4268730D01*
X8022874Y4269100D01*
X8023983Y4269655D01*
X8025278Y4270117D01*
X8026849Y4270579D01*
X8028606Y4270857D01*
X8030455Y4270949D01*
X8030548D01*
X8030640D01*
X8030917D01*
X8031287D01*
X8032304Y4270764D01*
D02*
G37*
%LPC*%
G36*
X7495230Y919692D02*
X7492364D01*
X7492272D01*
X7492179D01*
X7491717D01*
X7490885D01*
X7489775Y919600D01*
X7488573D01*
X7487094Y919507D01*
X7485522Y919415D01*
X7483766Y919230D01*
X7480252Y918768D01*
X7478496Y918490D01*
X7476831Y918120D01*
X7475260Y917751D01*
X7473780Y917196D01*
X7472486Y916641D01*
X7471376Y915994D01*
X7471284D01*
X7471192Y915809D01*
X7470914Y915624D01*
X7470544Y915347D01*
X7469712Y914515D01*
X7468695Y913498D01*
X7467771Y912111D01*
X7466939Y910539D01*
X7466569Y909707D01*
X7466291Y908782D01*
X7466199Y907765D01*
X7466106Y906748D01*
Y906194D01*
X7466199Y905824D01*
X7466384Y904807D01*
X7466661Y903605D01*
X7467216Y902218D01*
X7468048Y900739D01*
X7468603Y899999D01*
X7469158Y899259D01*
X7469897Y898612D01*
X7470729Y897965D01*
X7470822D01*
X7471007Y897780D01*
X7471376Y897595D01*
X7471839Y897318D01*
X7472578Y897040D01*
X7473411Y896671D01*
X7474428Y896393D01*
X7475629Y896023D01*
X7477016Y895654D01*
X7478588Y895284D01*
X7480345Y894914D01*
X7482286Y894637D01*
X7484505Y894359D01*
X7486909Y894174D01*
X7489498Y894082D01*
X7492364Y893989D01*
X7492549D01*
X7493011D01*
X7493843D01*
X7494953Y894082D01*
X7496155D01*
X7497634Y894174D01*
X7499206Y894267D01*
X7500870Y894452D01*
X7504476Y894914D01*
X7506232Y895191D01*
X7507897Y895561D01*
X7509468Y895931D01*
X7510948Y896486D01*
X7512242Y897040D01*
X7513351Y897688D01*
X7513444D01*
X7513536Y897872D01*
X7514184Y898335D01*
X7515016Y899167D01*
X7515940Y900184D01*
X7516865Y901571D01*
X7517697Y903142D01*
X7518344Y904899D01*
X7518437Y905824D01*
X7518529Y906841D01*
Y907395D01*
X7518437Y907765D01*
X7518252Y908690D01*
X7517882Y909984D01*
X7517235Y911371D01*
X7516310Y912943D01*
X7515755Y913682D01*
X7515016Y914422D01*
X7514276Y915162D01*
X7513351Y915901D01*
X7513259D01*
X7513074Y916086D01*
X7512797Y916271D01*
X7512334Y916456D01*
X7511687Y916826D01*
X7510855Y917103D01*
X7509931Y917473D01*
X7508821Y917843D01*
X7507434Y918120D01*
X7505955Y918490D01*
X7504198Y918860D01*
X7502349Y919137D01*
X7500130Y919322D01*
X7497819Y919507D01*
X7495230Y919692D01*
D02*
G37*
G36*
X5325833Y4388923D02*
X5297171D01*
X5325833Y4368768D01*
Y4388923D01*
D02*
G37*
%LPD*%
D87*
X7370000Y599690D02*
Y950310D01*
X7680000D01*
Y599690D02*
Y950310D01*
X7370000Y599690D02*
X7680000D01*
X5069500Y3860100D02*
X5629500D01*
Y4580100D01*
X5069500D02*
X5629500D01*
X5069500Y3860100D02*
Y4580100D01*
X7813000Y795000D02*
X8137000D01*
Y1105000D01*
X7813000D02*
X8137000D01*
X7813000Y795000D02*
Y1105000D01*
X5969500Y3860100D02*
X6529500D01*
Y4580100D01*
X5969500D02*
X6529500D01*
X5969500Y3860100D02*
Y4580100D01*
X6869500Y3860100D02*
X7429500D01*
Y4580100D01*
X6869500D02*
X7429500D01*
X6869500Y3860100D02*
Y4580100D01*
X7769500Y3860100D02*
X8329500D01*
Y4580100D01*
X7769500D02*
X8329500D01*
X7769500Y3860100D02*
Y4580100D01*
D155*
X4492500Y2715000D02*
Y2935000D01*
X4357500Y2715000D02*
Y2935000D01*
X4492500D01*
X4357500Y2715000D02*
X4492500D01*
X7940000Y1372500D02*
X8160000D01*
X7940000Y1227500D02*
X8160000D01*
X7940000D02*
Y1372500D01*
X8160000Y1227500D02*
Y1372500D01*
X7822420Y2822600D02*
X8042420D01*
X7822420Y2687600D02*
X8042420D01*
X7822420D02*
Y2822600D01*
X8042420Y2687600D02*
Y2822600D01*
X3907500Y2715000D02*
X4042500D01*
X3907500Y2935000D02*
X4042500D01*
X3907500Y2715000D02*
Y2935000D01*
X4042500Y2715000D02*
Y2935000D01*
X4132500Y2715000D02*
X4267500D01*
X4132500Y2935000D02*
X4267500D01*
X4132500Y2715000D02*
Y2935000D01*
X4267500Y2715000D02*
Y2935000D01*
X3682500Y2715000D02*
X3817500D01*
X3682500Y2935000D02*
X3817500D01*
X3682500Y2715000D02*
Y2935000D01*
X3817500Y2715000D02*
Y2935000D01*
X3457500Y2715000D02*
X3592500D01*
X3457500Y2935000D02*
X3592500D01*
X3457500Y2715000D02*
Y2935000D01*
X3592500Y2715000D02*
Y2935000D01*
%TF.MD5,9a1d9cbe28f4c48d28a49dc792170574*%
M02*
