%TF.GenerationSoftware,Altium Limited,Altium Designer,21.1.1 (26)*%
G04 Layer_Physical_Order=1*
G04 Layer_Color=255*
%FSLAX45Y45*%
%MOMM*%
%TF.SameCoordinates,E9E44C67-710E-4D47-B277-6F884E921ACF*%
%TF.FilePolarity,Positive*%
%TF.FileFunction,Copper,L1,Top,Signal*%
%TF.Part,Single*%
G01*
G75*
%TA.AperFunction,SMDPad,CuDef*%
%ADD10R,2.79000X0.74000*%
%ADD11R,1.00000X1.40000*%
%ADD12O,0.30000X1.80000*%
%ADD13O,1.80000X0.30000*%
G04:AMPARAMS|DCode=14|XSize=0.55mm|YSize=0.8mm|CornerRadius=0.0495mm|HoleSize=0mm|Usage=FLASHONLY|Rotation=0.000|XOffset=0mm|YOffset=0mm|HoleType=Round|Shape=RoundedRectangle|*
%AMROUNDEDRECTD14*
21,1,0.55000,0.70100,0,0,0.0*
21,1,0.45100,0.80000,0,0,0.0*
1,1,0.09900,0.22550,-0.35050*
1,1,0.09900,-0.22550,-0.35050*
1,1,0.09900,-0.22550,0.35050*
1,1,0.09900,0.22550,0.35050*
%
%ADD14ROUNDEDRECTD14*%
G04:AMPARAMS|DCode=15|XSize=0.55mm|YSize=1.25mm|CornerRadius=0.0495mm|HoleSize=0mm|Usage=FLASHONLY|Rotation=270.000|XOffset=0mm|YOffset=0mm|HoleType=Round|Shape=RoundedRectangle|*
%AMROUNDEDRECTD15*
21,1,0.55000,1.15100,0,0,270.0*
21,1,0.45100,1.25000,0,0,270.0*
1,1,0.09900,-0.57550,-0.22550*
1,1,0.09900,-0.57550,0.22550*
1,1,0.09900,0.57550,0.22550*
1,1,0.09900,0.57550,-0.22550*
%
%ADD15ROUNDEDRECTD15*%
%ADD16R,0.52981X1.15564*%
G04:AMPARAMS|DCode=17|XSize=1.15564mm|YSize=0.52981mm|CornerRadius=0.2649mm|HoleSize=0mm|Usage=FLASHONLY|Rotation=90.000|XOffset=0mm|YOffset=0mm|HoleType=Round|Shape=RoundedRectangle|*
%AMROUNDEDRECTD17*
21,1,1.15564,0.00000,0,0,90.0*
21,1,0.62584,0.52981,0,0,90.0*
1,1,0.52980,0.00000,0.31292*
1,1,0.52980,0.00000,-0.31292*
1,1,0.52980,0.00000,-0.31292*
1,1,0.52980,0.00000,0.31292*
%
%ADD17ROUNDEDRECTD17*%
%ADD18R,0.40000X0.65000*%
%ADD19R,1.05000X0.60000*%
%ADD20R,1.45000X1.50000*%
%TA.AperFunction,ConnectorPad*%
%ADD21R,1.45000X0.30000*%
%ADD22R,1.45000X0.60000*%
%TA.AperFunction,SMDPad,CuDef*%
G04:AMPARAMS|DCode=23|XSize=1.5mm|YSize=5mm|CornerRadius=0.375mm|HoleSize=0mm|Usage=FLASHONLY|Rotation=180.000|XOffset=0mm|YOffset=0mm|HoleType=Round|Shape=RoundedRectangle|*
%AMROUNDEDRECTD23*
21,1,1.50000,4.25000,0,0,180.0*
21,1,0.75000,5.00000,0,0,180.0*
1,1,0.75000,-0.37500,2.12500*
1,1,0.75000,0.37500,2.12500*
1,1,0.75000,0.37500,-2.12500*
1,1,0.75000,-0.37500,-2.12500*
%
%ADD23ROUNDEDRECTD23*%
%ADD24R,1.35000X1.85000*%
%ADD25R,1.20000X1.50000*%
%ADD26R,0.70000X1.00000*%
%ADD27O,1.40000X0.25000*%
%ADD28R,1.00000X0.60000*%
%ADD29R,1.20000X1.40000*%
G04:AMPARAMS|DCode=30|XSize=0.45mm|YSize=1.05mm|CornerRadius=0.0495mm|HoleSize=0mm|Usage=FLASHONLY|Rotation=0.000|XOffset=0mm|YOffset=0mm|HoleType=Round|Shape=RoundedRectangle|*
%AMROUNDEDRECTD30*
21,1,0.45000,0.95100,0,0,0.0*
21,1,0.35100,1.05000,0,0,0.0*
1,1,0.09900,0.17550,-0.47550*
1,1,0.09900,-0.17550,-0.47550*
1,1,0.09900,-0.17550,0.47550*
1,1,0.09900,0.17550,0.47550*
%
%ADD30ROUNDEDRECTD30*%
%ADD31R,0.80000X0.90000*%
%ADD32R,1.20000X1.10000*%
G04:AMPARAMS|DCode=33|XSize=1.3mm|YSize=0.76mm|CornerRadius=0.095mm|HoleSize=0mm|Usage=FLASHONLY|Rotation=180.000|XOffset=0mm|YOffset=0mm|HoleType=Round|Shape=RoundedRectangle|*
%AMROUNDEDRECTD33*
21,1,1.30000,0.57000,0,0,180.0*
21,1,1.11000,0.76000,0,0,180.0*
1,1,0.19000,-0.55500,0.28500*
1,1,0.19000,0.55500,0.28500*
1,1,0.19000,0.55500,-0.28500*
1,1,0.19000,-0.55500,-0.28500*
%
%ADD33ROUNDEDRECTD33*%
%ADD34R,0.63000X0.83000*%
%ADD35R,1.50000X1.20000*%
G04:AMPARAMS|DCode=36|XSize=1.3mm|YSize=0.76mm|CornerRadius=0.095mm|HoleSize=0mm|Usage=FLASHONLY|Rotation=270.000|XOffset=0mm|YOffset=0mm|HoleType=Round|Shape=RoundedRectangle|*
%AMROUNDEDRECTD36*
21,1,1.30000,0.57000,0,0,270.0*
21,1,1.11000,0.76000,0,0,270.0*
1,1,0.19000,-0.28500,-0.55500*
1,1,0.19000,-0.28500,0.55500*
1,1,0.19000,0.28500,0.55500*
1,1,0.19000,0.28500,-0.55500*
%
%ADD36ROUNDEDRECTD36*%
G04:AMPARAMS|DCode=37|XSize=5.4mm|YSize=2.2mm|CornerRadius=0.55mm|HoleSize=0mm|Usage=FLASHONLY|Rotation=0.000|XOffset=0mm|YOffset=0mm|HoleType=Round|Shape=RoundedRectangle|*
%AMROUNDEDRECTD37*
21,1,5.40000,1.10000,0,0,0.0*
21,1,4.30000,2.20000,0,0,0.0*
1,1,1.10000,2.15000,-0.55000*
1,1,1.10000,-2.15000,-0.55000*
1,1,1.10000,-2.15000,0.55000*
1,1,1.10000,2.15000,0.55000*
%
%ADD37ROUNDEDRECTD37*%
%ADD38R,2.15900X2.74300*%
%ADD39R,1.50000X1.45000*%
%TA.AperFunction,Conductor*%
%ADD40C,0.15240*%
%ADD41C,0.50800*%
%ADD42C,0.12700*%
%ADD43C,0.38100*%
%ADD44C,0.76200*%
%ADD45C,0.25400*%
%ADD46C,0.45000*%
%TA.AperFunction,ComponentPad*%
%ADD47R,1.05000X1.05000*%
%ADD48C,1.05000*%
%ADD49C,0.85000*%
%ADD50O,1.60000X1.00000*%
%ADD51O,2.10000X1.00000*%
%ADD52C,1.80000*%
%ADD53R,1.80000X1.80000*%
%ADD54O,22.00000X0.50000*%
%TA.AperFunction,ViaPad*%
%ADD55C,3.00000*%
%ADD56C,0.45000*%
%ADD57C,1.27000*%
G36*
X10000000Y4800000D02*
Y200000D01*
X9800000Y0D01*
X200000D01*
X0Y200000D01*
Y4800000D01*
X0D01*
X200000Y5000000D01*
X9800000D01*
X10000000Y4800000D01*
D02*
G37*
%LPC*%
G36*
X9788100Y4921735D02*
Y4788100D01*
X9921735D01*
X9912833Y4817447D01*
X9896545Y4847918D01*
X9874627Y4874627D01*
X9847919Y4896545D01*
X9817447Y4912832D01*
X9788100Y4921735D01*
D02*
G37*
G36*
X9711900D02*
X9682553Y4912832D01*
X9652082Y4896545D01*
X9625373Y4874627D01*
X9603455Y4847918D01*
X9587168Y4817447D01*
X9578265Y4788100D01*
X9711900D01*
Y4921735D01*
D02*
G37*
G36*
X288100D02*
Y4788100D01*
X421735D01*
X412833Y4817447D01*
X396545Y4847918D01*
X374627Y4874627D01*
X347919Y4896545D01*
X317447Y4912832D01*
X288100Y4921735D01*
D02*
G37*
G36*
X211900D02*
X182553Y4912832D01*
X152081Y4896545D01*
X125373Y4874627D01*
X103455Y4847918D01*
X87167Y4817447D01*
X78265Y4788100D01*
X211900D01*
Y4921735D01*
D02*
G37*
G36*
X6700000Y4826858D02*
X6680108Y4824239D01*
X6661571Y4816561D01*
X6645653Y4804346D01*
X6633439Y4788429D01*
X6625761Y4769892D01*
X6623142Y4750000D01*
X6625761Y4730108D01*
X6633439Y4711571D01*
X6645653Y4695653D01*
X6661571Y4683439D01*
X6680108Y4675761D01*
X6700000Y4673142D01*
X6719892Y4675761D01*
X6738429Y4683439D01*
X6754347Y4695653D01*
X6766561Y4711571D01*
X6774239Y4730108D01*
X6776858Y4750000D01*
X6774239Y4769892D01*
X6766561Y4788429D01*
X6754347Y4804346D01*
X6738429Y4816561D01*
X6719892Y4824239D01*
X6700000Y4826858D01*
D02*
G37*
G36*
X5800000D02*
X5780108Y4824239D01*
X5761571Y4816561D01*
X5745653Y4804346D01*
X5733439Y4788429D01*
X5725761Y4769892D01*
X5723142Y4750000D01*
X5725761Y4730108D01*
X5733439Y4711571D01*
X5745653Y4695653D01*
X5761571Y4683439D01*
X5780108Y4675761D01*
X5800000Y4673142D01*
X5819892Y4675761D01*
X5838429Y4683439D01*
X5854347Y4695653D01*
X5866561Y4711571D01*
X5874239Y4730108D01*
X5876858Y4750000D01*
X5874239Y4769892D01*
X5866561Y4788429D01*
X5854347Y4804346D01*
X5838429Y4816561D01*
X5819892Y4824239D01*
X5800000Y4826858D01*
D02*
G37*
G36*
X9921735Y4711900D02*
X9788100D01*
Y4578265D01*
X9817447Y4587167D01*
X9847919Y4603455D01*
X9874627Y4625373D01*
X9896545Y4652081D01*
X9912833Y4682552D01*
X9921735Y4711900D01*
D02*
G37*
G36*
X9711900D02*
X9578265D01*
X9587168Y4682552D01*
X9603455Y4652081D01*
X9625373Y4625373D01*
X9652082Y4603455D01*
X9682553Y4587167D01*
X9711900Y4578265D01*
Y4711900D01*
D02*
G37*
G36*
X421735D02*
X288100D01*
Y4578265D01*
X317447Y4587167D01*
X347919Y4603455D01*
X374627Y4625373D01*
X396545Y4652081D01*
X412833Y4682552D01*
X421735Y4711900D01*
D02*
G37*
G36*
X211900D02*
X78265D01*
X87167Y4682552D01*
X103455Y4652081D01*
X125373Y4625373D01*
X152081Y4603455D01*
X182553Y4587167D01*
X211900Y4578265D01*
Y4711900D01*
D02*
G37*
G36*
X7864500Y4558946D02*
X7849635Y4555989D01*
X7837032Y4547568D01*
X7828611Y4534966D01*
X7825654Y4520100D01*
Y4420380D01*
X7824993Y4417060D01*
X7827951Y4402194D01*
X7836371Y4389591D01*
X7848974Y4381171D01*
X7863840Y4378213D01*
X7878706Y4381171D01*
X7891309Y4389591D01*
X7891969Y4390252D01*
X7900390Y4402855D01*
X7903347Y4417720D01*
Y4520100D01*
X7900390Y4534966D01*
X7891969Y4547568D01*
X7879366Y4555989D01*
X7864500Y4558946D01*
D02*
G37*
G36*
X6964500D02*
X6949635Y4555989D01*
X6937032Y4547568D01*
X6928611Y4534966D01*
X6925654Y4520100D01*
Y4417240D01*
X6928611Y4402374D01*
X6937032Y4389771D01*
X6937211Y4389591D01*
X6949814Y4381171D01*
X6964680Y4378213D01*
X6979546Y4381171D01*
X6992149Y4389591D01*
X7000569Y4402194D01*
X7003527Y4417060D01*
X7003347Y4417963D01*
Y4520100D01*
X7000390Y4534966D01*
X6991969Y4547568D01*
X6979366Y4555989D01*
X6964500Y4558946D01*
D02*
G37*
G36*
X6064500D02*
X6049635Y4555989D01*
X6037032Y4547568D01*
X6028611Y4534966D01*
X6025654Y4520100D01*
Y4424704D01*
X6024133Y4417060D01*
X6027091Y4402194D01*
X6035511Y4389591D01*
X6048114Y4381171D01*
X6062980Y4378213D01*
X6077846Y4381171D01*
X6090449Y4389591D01*
X6091969Y4391112D01*
X6100390Y4403714D01*
X6103347Y4418580D01*
Y4520100D01*
X6100390Y4534966D01*
X6091969Y4547568D01*
X6079366Y4555989D01*
X6064500Y4558946D01*
D02*
G37*
G36*
X5164500D02*
X5149635Y4555989D01*
X5137032Y4547568D01*
X5128611Y4534966D01*
X5125654Y4520100D01*
Y4420481D01*
X5124973Y4417060D01*
X5127931Y4402194D01*
X5136351Y4389591D01*
X5148954Y4381171D01*
X5163820Y4378213D01*
X5178686Y4381171D01*
X5191289Y4389591D01*
X5191969Y4390272D01*
X5200390Y4402875D01*
X5203347Y4417740D01*
Y4520100D01*
X5200390Y4534966D01*
X5191969Y4547568D01*
X5179366Y4555989D01*
X5164500Y4558946D01*
D02*
G37*
G36*
X9363500Y4190763D02*
X9346479Y4188522D01*
X9330619Y4181952D01*
X9316999Y4171501D01*
X9314400Y4168115D01*
X9301700Y4172426D01*
Y4190200D01*
X9171300D01*
Y4059800D01*
X9301700D01*
Y4077574D01*
X9314400Y4081885D01*
X9316999Y4078499D01*
X9330619Y4068048D01*
X9346479Y4061478D01*
X9363500Y4059237D01*
X9380520Y4061478D01*
X9393979Y4067053D01*
X9485627Y3975405D01*
Y3830700D01*
X9194300D01*
Y3731300D01*
X9472772D01*
X9478033Y3718600D01*
X9465916Y3706483D01*
X9464056Y3703700D01*
X9194300D01*
Y3646821D01*
X9182567Y3641961D01*
X9104443Y3720084D01*
X9098142Y3724295D01*
X9090709Y3725773D01*
X9027700D01*
Y3862700D01*
X8882300D01*
Y3687300D01*
X9006772D01*
X9008650Y3686927D01*
X9008651Y3686927D01*
X9082664D01*
X9185375Y3584216D01*
X9191676Y3580005D01*
X9199109Y3578526D01*
X9199110Y3578527D01*
X9346452D01*
X9346500Y3565847D01*
X9331634Y3562889D01*
X9319031Y3554469D01*
X9310611Y3541866D01*
X9307653Y3527000D01*
X9310611Y3512134D01*
X9316665Y3503073D01*
X9312103Y3491592D01*
X9311039Y3490373D01*
X9207155D01*
X9183793Y3513734D01*
X9177492Y3517945D01*
X9170059Y3519423D01*
X9027700D01*
Y3587700D01*
X8882300D01*
Y3412300D01*
X9027700D01*
Y3480577D01*
X9162013D01*
X9185375Y3457216D01*
X9191676Y3453005D01*
X9199109Y3451527D01*
X9199061Y3438847D01*
X9160300D01*
X9145434Y3435889D01*
X9132831Y3427469D01*
X9124411Y3414866D01*
X9121453Y3400000D01*
X9124411Y3385134D01*
X9132831Y3372531D01*
X9145434Y3364111D01*
X9160300Y3361154D01*
X9167919D01*
X9173180Y3348454D01*
X9069150Y3244423D01*
X9027700D01*
Y3312700D01*
X8882300D01*
Y3137300D01*
X9027700D01*
Y3205577D01*
X9077195D01*
X9084628Y3207056D01*
X9090929Y3211266D01*
X9182567Y3302903D01*
X9194300Y3298043D01*
Y3223300D01*
X9498700D01*
Y3322700D01*
X9507625Y3330216D01*
X9557986Y3380577D01*
X9601300D01*
Y3350300D01*
X9905700D01*
Y3449700D01*
X9619129D01*
X9613869Y3462400D01*
X9628769Y3477300D01*
X9905700D01*
Y3576700D01*
X9619129D01*
X9613869Y3589400D01*
X9628769Y3604300D01*
X9905700D01*
Y3703700D01*
X9601300D01*
Y3631769D01*
X9586904Y3617373D01*
X9498700D01*
Y3682773D01*
X9499073Y3684650D01*
Y3684703D01*
X9518784Y3704414D01*
X9518784Y3704414D01*
X9522995Y3710716D01*
X9524473Y3718149D01*
Y3983448D01*
X9524473Y3983450D01*
X9522995Y3990883D01*
X9518784Y3997184D01*
X9518784Y3997185D01*
X9421447Y4094521D01*
X9427022Y4107979D01*
X9429263Y4125000D01*
X9427022Y4142020D01*
X9420452Y4157881D01*
X9410001Y4171501D01*
X9396381Y4181952D01*
X9380520Y4188522D01*
X9363500Y4190763D01*
D02*
G37*
G36*
X7863840Y4062207D02*
X7848974Y4059249D01*
X7836371Y4050829D01*
X7827951Y4038226D01*
X7824993Y4023360D01*
X7825654Y4020040D01*
Y3920100D01*
X7828611Y3905234D01*
X7837032Y3892631D01*
X7849635Y3884210D01*
X7864500Y3881253D01*
X7879366Y3884210D01*
X7891969Y3892631D01*
X7900390Y3905234D01*
X7903347Y3920100D01*
Y4022700D01*
X7900390Y4037565D01*
X7891969Y4050168D01*
X7891309Y4050829D01*
X7878706Y4059249D01*
X7863840Y4062207D01*
D02*
G37*
G36*
X6962140Y4064747D02*
X6947274Y4061789D01*
X6934671Y4053369D01*
X6926251Y4040766D01*
X6923293Y4025900D01*
X6925654Y4014034D01*
Y3920100D01*
X6928611Y3905234D01*
X6937032Y3892631D01*
X6949635Y3884210D01*
X6964500Y3881253D01*
X6979366Y3884210D01*
X6991969Y3892631D01*
X7000390Y3905234D01*
X7003347Y3920100D01*
Y4023540D01*
X7000390Y4038405D01*
X6991969Y4051008D01*
X6989609Y4053369D01*
X6977006Y4061789D01*
X6962140Y4064747D01*
D02*
G37*
G36*
X6062980D02*
X6048114Y4061789D01*
X6035511Y4053369D01*
X6027091Y4040766D01*
X6024133Y4025900D01*
X6025654Y4018256D01*
Y3920100D01*
X6028611Y3905234D01*
X6037032Y3892631D01*
X6049635Y3884210D01*
X6064500Y3881253D01*
X6079366Y3884210D01*
X6091969Y3892631D01*
X6100390Y3905234D01*
X6103347Y3920100D01*
Y4024380D01*
X6100390Y4039246D01*
X6091969Y4051848D01*
X6090449Y4053369D01*
X6077846Y4061789D01*
X6062980Y4064747D01*
D02*
G37*
G36*
X5163820D02*
X5148954Y4061789D01*
X5136351Y4053369D01*
X5127931Y4040766D01*
X5124973Y4025900D01*
X5125654Y4022479D01*
Y3920100D01*
X5128611Y3905234D01*
X5137032Y3892631D01*
X5149635Y3884210D01*
X5164500Y3881253D01*
X5179366Y3884210D01*
X5191969Y3892631D01*
X5200390Y3905234D01*
X5203347Y3920100D01*
Y4025220D01*
X5200390Y4040085D01*
X5191969Y4052688D01*
X5191289Y4053369D01*
X5178686Y4061789D01*
X5163820Y4064747D01*
D02*
G37*
G36*
X1925000Y3913389D02*
X1911266Y3910657D01*
X1899622Y3902878D01*
X1891843Y3891234D01*
X1889111Y3877500D01*
X1891843Y3863766D01*
X1899622Y3852122D01*
X1911266Y3844343D01*
X1925000Y3841611D01*
X1938734Y3844343D01*
X1950378Y3852122D01*
X1958157Y3863766D01*
X1960889Y3877500D01*
X1958157Y3891234D01*
X1950378Y3902878D01*
X1938734Y3910657D01*
X1925000Y3913389D01*
D02*
G37*
G36*
X1650000Y3910890D02*
X1636266Y3908158D01*
X1624622Y3900378D01*
X1616843Y3888734D01*
X1614111Y3875000D01*
X1616843Y3861266D01*
X1624622Y3849622D01*
X1636266Y3841843D01*
X1650000Y3839111D01*
X1663734Y3841843D01*
X1675378Y3849622D01*
X1683157Y3861266D01*
X1685889Y3875000D01*
X1683157Y3888734D01*
X1675378Y3900378D01*
X1663734Y3908158D01*
X1650000Y3910890D01*
D02*
G37*
G36*
X9905700Y3830700D02*
X9601300D01*
Y3731300D01*
X9905700D01*
Y3830700D01*
D02*
G37*
G36*
X1225000Y3593390D02*
X1211266Y3590658D01*
X1199622Y3582878D01*
X1191843Y3571234D01*
X1189111Y3557500D01*
X1191843Y3543766D01*
X1199622Y3532122D01*
X1211266Y3524343D01*
X1225000Y3521611D01*
X1238734Y3524343D01*
X1250378Y3532122D01*
X1258158Y3543766D01*
X1260890Y3557500D01*
X1258158Y3571234D01*
X1250378Y3582878D01*
X1238734Y3590658D01*
X1225000Y3593390D01*
D02*
G37*
G36*
X6482200Y4582800D02*
X6386800D01*
Y4457400D01*
X6409282D01*
Y3982800D01*
X6386800D01*
Y3857400D01*
X6409282D01*
Y3637700D01*
X6357300D01*
Y3503338D01*
X6342621D01*
X6342620Y3503338D01*
X6334691Y3501761D01*
X6327970Y3497270D01*
X6327969Y3497269D01*
X6305400Y3474700D01*
X6292700Y3479960D01*
Y3637700D01*
X6147300D01*
Y3462300D01*
X6168794D01*
X6181151Y3459667D01*
Y3439800D01*
X6184108Y3424934D01*
X6192529Y3412332D01*
X6205132Y3403911D01*
X6214739Y3402000D01*
X6219614Y3388914D01*
X6186246Y3355546D01*
X6152450D01*
X6145564Y3354176D01*
X6139725Y3350275D01*
X6135824Y3344437D01*
X6134455Y3337550D01*
Y3267450D01*
X6135824Y3260563D01*
X6139725Y3254725D01*
X6145564Y3250824D01*
X6152450Y3249455D01*
X6197550D01*
X6204437Y3250824D01*
X6210275Y3254725D01*
X6214176Y3260563D01*
X6215546Y3267450D01*
Y3314209D01*
X6216755Y3315017D01*
X6229455Y3308228D01*
Y3267450D01*
X6230824Y3260563D01*
X6234725Y3254725D01*
X6240564Y3250824D01*
X6247450Y3249455D01*
X6292550D01*
X6299437Y3250824D01*
X6305275Y3254725D01*
X6309176Y3260563D01*
X6310546Y3267450D01*
Y3337550D01*
X6309176Y3344437D01*
X6305275Y3350275D01*
X6299437Y3354176D01*
X6292550Y3355546D01*
X6262806D01*
X6257546Y3368246D01*
X6351201Y3461902D01*
X6377619D01*
X6377620Y3461902D01*
X6379623Y3462300D01*
X6502700D01*
Y3637700D01*
X6450718D01*
Y3857400D01*
X6482200D01*
Y3982800D01*
X6450718D01*
Y4457400D01*
X6482200D01*
Y4582800D01*
D02*
G37*
G36*
X5582200D02*
X5486800D01*
Y4457400D01*
X5509282D01*
Y3982800D01*
X5486800D01*
Y3857400D01*
X5509282D01*
Y3637700D01*
X5457300D01*
Y3503338D01*
X5416357D01*
X5408429Y3501761D01*
X5405400Y3499737D01*
X5393624Y3504533D01*
X5392700Y3505363D01*
Y3637700D01*
X5358847D01*
Y3640333D01*
X5358846Y3640335D01*
Y3660201D01*
X5355889Y3675067D01*
X5347468Y3687670D01*
X5334865Y3696090D01*
X5320000Y3699047D01*
X5305134Y3696090D01*
X5292531Y3687670D01*
X5284110Y3675067D01*
X5281153Y3660201D01*
Y3640333D01*
X5268800Y3637700D01*
X5247300D01*
Y3462300D01*
X5350144D01*
X5355004Y3450567D01*
X5333905Y3429468D01*
X5318750D01*
X5310821Y3427891D01*
X5304100Y3423400D01*
X5304099Y3423399D01*
X5236246Y3355546D01*
X5202450D01*
X5195564Y3354176D01*
X5189725Y3350275D01*
X5185825Y3344437D01*
X5184455Y3337550D01*
Y3267450D01*
X5185825Y3260563D01*
X5189725Y3254725D01*
X5195564Y3250824D01*
X5202450Y3249455D01*
X5247550D01*
X5254437Y3250824D01*
X5260275Y3254725D01*
X5264176Y3260563D01*
X5265546Y3267450D01*
Y3314209D01*
X5266755Y3315017D01*
X5279455Y3308229D01*
Y3267450D01*
X5280825Y3260563D01*
X5284726Y3254725D01*
X5290564Y3250824D01*
X5297450Y3249455D01*
X5342550D01*
X5349437Y3250824D01*
X5355275Y3254725D01*
X5359176Y3260563D01*
X5360546Y3267450D01*
Y3337550D01*
X5359176Y3344437D01*
X5355275Y3350275D01*
X5349437Y3354176D01*
X5342550Y3355546D01*
X5312806D01*
X5307546Y3368246D01*
X5327331Y3388032D01*
X5342486D01*
X5342487Y3388032D01*
X5350416Y3389609D01*
X5357137Y3394100D01*
X5424939Y3461902D01*
X5477619D01*
X5477620Y3461902D01*
X5479623Y3462300D01*
X5602700D01*
Y3637700D01*
X5550718D01*
Y3857400D01*
X5582200D01*
Y3982800D01*
X5550718D01*
Y4457400D01*
X5582200D01*
Y4582800D01*
D02*
G37*
G36*
X7382200D02*
X7286800D01*
Y4457400D01*
X7309282D01*
Y3982800D01*
X7286800D01*
Y3857400D01*
X7309282D01*
Y3637700D01*
X7257300D01*
Y3502280D01*
X7254692Y3501761D01*
X7247970Y3497270D01*
X7247970Y3497269D01*
X7162164Y3411464D01*
X7152299Y3419560D01*
X7155890Y3424934D01*
X7158848Y3439800D01*
Y3459667D01*
X7170302Y3462109D01*
X7171203Y3462300D01*
X7192700D01*
Y3637700D01*
X7047300D01*
Y3462300D01*
X7081153D01*
Y3459669D01*
X7081154Y3459664D01*
Y3439800D01*
X7084112Y3424934D01*
X7092532Y3412332D01*
X7105135Y3403911D01*
X7120001Y3400954D01*
X7134867Y3403911D01*
X7140241Y3407502D01*
X7148337Y3397637D01*
X7110350Y3359650D01*
X7107608Y3355546D01*
X7102450D01*
X7095563Y3354176D01*
X7089725Y3350275D01*
X7085824Y3344437D01*
X7084454Y3337550D01*
Y3267450D01*
X7085824Y3260563D01*
X7089725Y3254725D01*
X7095563Y3250824D01*
X7102450Y3249455D01*
X7147550D01*
X7154437Y3250824D01*
X7160275Y3254725D01*
X7164176Y3260563D01*
X7165545Y3267450D01*
Y3322115D01*
X7165598Y3322380D01*
X7165545Y3322646D01*
Y3337550D01*
X7164176Y3344437D01*
X7160275Y3350275D01*
X7160212Y3350912D01*
X7271202Y3461902D01*
X7277619D01*
X7277620Y3461902D01*
X7279623Y3462300D01*
X7402700D01*
Y3637700D01*
X7350718D01*
Y3857400D01*
X7382200D01*
Y3982800D01*
X7350718D01*
Y4457400D01*
X7382200D01*
Y4582800D01*
D02*
G37*
G36*
X8092700Y3637700D02*
X7947300D01*
Y3462300D01*
X7968798D01*
X7981153Y3459667D01*
Y3439800D01*
X7984110Y3424934D01*
X7992531Y3412332D01*
X8005133Y3403911D01*
X8019999Y3400954D01*
X8034865Y3403911D01*
X8047468Y3412332D01*
X8055889Y3424934D01*
X8058846Y3439800D01*
Y3459665D01*
X8058846Y3459668D01*
Y3462300D01*
X8092700D01*
Y3637700D01*
D02*
G37*
G36*
X7767500Y3588847D02*
X7752634Y3585889D01*
X7740031Y3577469D01*
X7731610Y3564866D01*
X7728653Y3550000D01*
Y3459677D01*
X7728651Y3459667D01*
Y3439800D01*
X7731608Y3424934D01*
X7740029Y3412332D01*
X7752632Y3403911D01*
X7767498Y3400954D01*
X7782364Y3403911D01*
X7794966Y3412332D01*
X7803387Y3424934D01*
X7806344Y3439800D01*
Y3459659D01*
X7806346Y3459669D01*
Y3550000D01*
X7803389Y3564866D01*
X7794968Y3577469D01*
X7782366Y3585889D01*
X7767500Y3588847D01*
D02*
G37*
G36*
X7667700Y3637700D02*
X7497300D01*
Y3462300D01*
X7531299D01*
X7543653Y3459668D01*
Y3439800D01*
X7546610Y3424934D01*
X7555031Y3412332D01*
X7567634Y3403911D01*
X7582499Y3400954D01*
X7597365Y3403911D01*
X7609968Y3412332D01*
X7618389Y3424934D01*
X7621346Y3439800D01*
Y3459666D01*
X7621346Y3459668D01*
Y3462300D01*
X7667700D01*
Y3637700D01*
D02*
G37*
G36*
X6867500Y3588847D02*
X6852634Y3585889D01*
X6840031Y3577469D01*
X6831610Y3564866D01*
X6828653Y3550000D01*
Y3459669D01*
X6828653Y3459668D01*
Y3439800D01*
X6831610Y3424934D01*
X6840031Y3412332D01*
X6852634Y3403911D01*
X6867500Y3400954D01*
X6882365Y3403911D01*
X6894968Y3412332D01*
X6903389Y3424934D01*
X6906346Y3439800D01*
Y3459667D01*
X6906346Y3459668D01*
Y3550000D01*
X6903389Y3564866D01*
X6894968Y3577469D01*
X6882366Y3585889D01*
X6867500Y3588847D01*
D02*
G37*
G36*
X6767700Y3637700D02*
X6597300D01*
Y3462300D01*
X6643653D01*
Y3459669D01*
X6643655Y3459662D01*
Y3439800D01*
X6646612Y3424934D01*
X6655033Y3412332D01*
X6667635Y3403911D01*
X6682501Y3400954D01*
X6697367Y3403911D01*
X6709970Y3412332D01*
X6718391Y3424934D01*
X6721348Y3439800D01*
Y3459667D01*
X6733703Y3462300D01*
X6767700D01*
Y3637700D01*
D02*
G37*
G36*
X5967500Y3588847D02*
X5952634Y3585889D01*
X5940031Y3577469D01*
X5931610Y3564866D01*
X5928653Y3550000D01*
Y3459669D01*
X5928655Y3459661D01*
Y3439800D01*
X5931612Y3424934D01*
X5940033Y3412332D01*
X5952636Y3403911D01*
X5967501Y3400954D01*
X5982367Y3403911D01*
X5994970Y3412332D01*
X6003391Y3424934D01*
X6006348Y3439800D01*
Y3459667D01*
X6006346Y3459675D01*
Y3550000D01*
X6003389Y3564866D01*
X5994968Y3577469D01*
X5982366Y3585889D01*
X5967500Y3588847D01*
D02*
G37*
G36*
X5867700Y3637700D02*
X5697300D01*
Y3462300D01*
X5731294D01*
X5743651Y3459667D01*
Y3439800D01*
X5746609Y3424934D01*
X5755029Y3412332D01*
X5767632Y3403911D01*
X5782498Y3400954D01*
X5797364Y3403911D01*
X5809967Y3412332D01*
X5818387Y3424934D01*
X5821344Y3439800D01*
Y3459659D01*
X5821346Y3459669D01*
Y3462300D01*
X5867700D01*
Y3637700D01*
D02*
G37*
G36*
X1372500Y3455889D02*
X1358766Y3453157D01*
X1347122Y3445378D01*
X1339343Y3433734D01*
X1336610Y3420000D01*
X1339343Y3406266D01*
X1347122Y3394622D01*
X1358766Y3386843D01*
X1372500Y3384111D01*
X1386234Y3386843D01*
X1397878Y3394622D01*
X1405657Y3406266D01*
X1408389Y3420000D01*
X1405657Y3433734D01*
X1397878Y3445378D01*
X1386234Y3453157D01*
X1372500Y3455889D01*
D02*
G37*
G36*
X8192550Y3355546D02*
X8147450D01*
X8140563Y3354176D01*
X8134725Y3350275D01*
X8130824Y3344437D01*
X8129454Y3337550D01*
Y3267450D01*
X8130824Y3260563D01*
X8134725Y3254725D01*
X8140563Y3250824D01*
X8147450Y3249455D01*
X8192550D01*
X8199436Y3250824D01*
X8205275Y3254725D01*
X8209176Y3260563D01*
X8210545Y3267450D01*
Y3337550D01*
X8209176Y3344437D01*
X8205275Y3350275D01*
X8199436Y3354176D01*
X8192550Y3355546D01*
D02*
G37*
G36*
X8282200Y4582800D02*
X8186800D01*
Y4457400D01*
X8209282D01*
Y3982800D01*
X8186800D01*
Y3857400D01*
X8209282D01*
Y3637700D01*
X8157300D01*
Y3491600D01*
X8060350Y3394650D01*
X8055859Y3387928D01*
X8054282Y3380000D01*
X8054282Y3379999D01*
Y3355546D01*
X8052450D01*
X8045563Y3354176D01*
X8039725Y3350275D01*
X8035824Y3344437D01*
X8034454Y3337550D01*
Y3267450D01*
X8035824Y3260563D01*
X8039725Y3254725D01*
X8045563Y3250824D01*
X8052450Y3249455D01*
X8097550D01*
X8104436Y3250824D01*
X8110275Y3254725D01*
X8114176Y3260563D01*
X8115545Y3267450D01*
Y3337550D01*
X8114176Y3344437D01*
X8110275Y3350275D01*
X8104436Y3354176D01*
X8097550Y3355546D01*
X8095718D01*
Y3371418D01*
X8186600Y3462300D01*
X8302700D01*
Y3637700D01*
X8250718D01*
Y3857400D01*
X8282200D01*
Y3982800D01*
X8250718D01*
Y4457400D01*
X8282200D01*
Y4582800D01*
D02*
G37*
G36*
X7242550Y3355546D02*
X7197450D01*
X7190563Y3354176D01*
X7184725Y3350275D01*
X7180824Y3344437D01*
X7179455Y3337550D01*
Y3267450D01*
X7180824Y3260563D01*
X7184725Y3254725D01*
X7190563Y3250824D01*
X7197450Y3249455D01*
X7242550D01*
X7249437Y3250824D01*
X7255275Y3254725D01*
X7259176Y3260563D01*
X7260546Y3267450D01*
Y3337550D01*
X7259176Y3344437D01*
X7255275Y3350275D01*
X7249437Y3354176D01*
X7242550Y3355546D01*
D02*
G37*
G36*
X8334667Y3306348D02*
X8314799D01*
X8299934Y3303391D01*
X8287331Y3294970D01*
X8278910Y3282368D01*
X8275953Y3267502D01*
X8278910Y3252636D01*
X8287331Y3240033D01*
X8299934Y3231612D01*
X8314799Y3228655D01*
X8334659D01*
X8334668Y3228653D01*
X8425000D01*
X8439866Y3231611D01*
X8452468Y3240031D01*
X8460889Y3252634D01*
X8463846Y3267500D01*
X8460889Y3282366D01*
X8452468Y3294969D01*
X8439866Y3303389D01*
X8425000Y3306346D01*
X8334675D01*
X8334667Y3306348D01*
D02*
G37*
G36*
X5459667D02*
X5439797D01*
X5424931Y3303391D01*
X5412328Y3294970D01*
X5403907Y3282368D01*
X5400950Y3267502D01*
X5403907Y3252636D01*
X5412328Y3240033D01*
X5424931Y3231612D01*
X5439797Y3228655D01*
X5459659D01*
X5459668Y3228653D01*
X5550000D01*
X5564866Y3231611D01*
X5577469Y3240031D01*
X5585890Y3252634D01*
X5588847Y3267500D01*
X5585890Y3282366D01*
X5577469Y3294969D01*
X5564866Y3303389D01*
X5550000Y3306346D01*
X5459675D01*
X5459667Y3306348D01*
D02*
G37*
G36*
X9905700Y3322700D02*
X9601300D01*
Y3223300D01*
X9905700D01*
Y3322700D01*
D02*
G37*
G36*
X7359668Y3281348D02*
X7339800D01*
X7324935Y3278391D01*
X7312332Y3269970D01*
X7303911Y3257368D01*
X7300954Y3242502D01*
X7303911Y3227636D01*
X7312332Y3215033D01*
X7324935Y3206612D01*
X7339800Y3203655D01*
X7359660D01*
X7359669Y3203653D01*
X7450000D01*
X7464866Y3206611D01*
X7477469Y3215031D01*
X7485890Y3227634D01*
X7488847Y3242500D01*
X7485890Y3257366D01*
X7477469Y3269969D01*
X7464866Y3278389D01*
X7450000Y3281346D01*
X7359676D01*
X7359668Y3281348D01*
D02*
G37*
G36*
X6409666D02*
X6389796D01*
X6374930Y3278391D01*
X6362327Y3269970D01*
X6353907Y3257368D01*
X6350949Y3242502D01*
X6353907Y3227636D01*
X6362327Y3215033D01*
X6374930Y3206612D01*
X6389796Y3203655D01*
X6409659D01*
X6409667Y3203653D01*
X6500000D01*
X6514866Y3206611D01*
X6527469Y3215031D01*
X6535889Y3227634D01*
X6538846Y3242500D01*
X6535889Y3257366D01*
X6527469Y3269969D01*
X6514866Y3278389D01*
X6500000Y3281346D01*
X6409675D01*
X6409666Y3281348D01*
D02*
G37*
G36*
X7980000Y3341347D02*
X7965134Y3338390D01*
X7952531Y3329969D01*
X7944111Y3317366D01*
X7941154Y3302500D01*
Y3247170D01*
X7941153Y3247166D01*
Y3227299D01*
X7944110Y3212433D01*
X7952531Y3199830D01*
X7965133Y3191409D01*
X7979999Y3188452D01*
X7994865Y3191409D01*
X8007468Y3199830D01*
X8015889Y3212433D01*
X8018846Y3227299D01*
Y3247163D01*
X8018847Y3247167D01*
Y3302500D01*
X8015889Y3317366D01*
X8007469Y3329969D01*
X7994866Y3338390D01*
X7980000Y3341347D01*
D02*
G37*
G36*
X6080000D02*
X6065134Y3338390D01*
X6052532Y3329969D01*
X6044111Y3317366D01*
X6041154Y3302500D01*
Y3247177D01*
X6041151Y3247165D01*
Y3227299D01*
X6044109Y3212433D01*
X6052529Y3199830D01*
X6065132Y3191409D01*
X6079998Y3188452D01*
X6094864Y3191409D01*
X6107467Y3199830D01*
X6115887Y3212433D01*
X6118845Y3227299D01*
Y3247156D01*
X6118847Y3247168D01*
Y3302500D01*
X6115890Y3317366D01*
X6107469Y3329969D01*
X6094866Y3338390D01*
X6080000Y3341347D01*
D02*
G37*
G36*
X5130000D02*
X5115135Y3338390D01*
X5102532Y3329969D01*
X5094111Y3317366D01*
X5091154Y3302500D01*
Y3247168D01*
X5091156Y3247158D01*
Y3227299D01*
X5094113Y3212433D01*
X5102534Y3199830D01*
X5115137Y3191409D01*
X5130002Y3188452D01*
X5144868Y3191409D01*
X5157471Y3199830D01*
X5165892Y3212433D01*
X5168849Y3227299D01*
Y3247166D01*
X5168847Y3247176D01*
Y3302500D01*
X5165890Y3317366D01*
X5157469Y3329969D01*
X5144866Y3338390D01*
X5130000Y3341347D01*
D02*
G37*
G36*
X6587700Y3142700D02*
X6412300D01*
Y3096347D01*
X6303671D01*
X6299437Y3099176D01*
X6292550Y3100546D01*
X6247450D01*
X6240564Y3099176D01*
X6234725Y3095275D01*
X6230824Y3089437D01*
X6229455Y3082550D01*
Y3012450D01*
X6230824Y3005563D01*
X6234725Y2999725D01*
X6240564Y2995824D01*
X6247450Y2994455D01*
X6292550D01*
X6299437Y2995824D01*
X6305275Y2999725D01*
X6309176Y3005563D01*
X6310546Y3012450D01*
Y3018654D01*
X6412300D01*
Y2972300D01*
X6587700D01*
Y3018654D01*
X6605880D01*
X6620746Y3021611D01*
X6633349Y3030032D01*
X6641770Y3042634D01*
X6644727Y3057500D01*
X6641770Y3072366D01*
X6633349Y3084969D01*
X6620746Y3093390D01*
X6605880Y3096347D01*
X6587700D01*
Y3142700D01*
D02*
G37*
G36*
X8512700Y3167700D02*
X8337300D01*
Y3121347D01*
X8192500D01*
X8177634Y3118389D01*
X8165031Y3109969D01*
X8155608Y3100546D01*
X8147450D01*
X8140563Y3099176D01*
X8134725Y3095275D01*
X8130824Y3089437D01*
X8129454Y3082550D01*
Y3012450D01*
X8130824Y3005563D01*
X8134725Y2999725D01*
X8140563Y2995824D01*
X8147450Y2994455D01*
X8192550D01*
X8199436Y2995824D01*
X8205275Y2999725D01*
X8209176Y3005563D01*
X8210545Y3012450D01*
Y3043654D01*
X8337300D01*
Y2997300D01*
X8512700D01*
Y3043654D01*
X8532940D01*
X8547806Y3046611D01*
X8560409Y3055031D01*
X8568829Y3067634D01*
X8571787Y3082500D01*
X8568829Y3097366D01*
X8560409Y3109969D01*
X8547806Y3118389D01*
X8532940Y3121347D01*
X8512700D01*
Y3167700D01*
D02*
G37*
G36*
X8817700Y3862700D02*
X8672300D01*
Y3687300D01*
X8725577D01*
Y3661941D01*
X8727055Y3654508D01*
X8731265Y3648207D01*
X8780039Y3599433D01*
X8775179Y3587700D01*
X8672300D01*
Y3439769D01*
X8652215Y3419684D01*
X8648005Y3413383D01*
X8646527Y3405950D01*
Y3076857D01*
X8626815Y3057146D01*
X8622605Y3050845D01*
X8621127Y3043412D01*
Y2937218D01*
X8159512Y2475603D01*
X7453243D01*
Y2555000D01*
X7451093Y2565808D01*
X7444971Y2574971D01*
X7435808Y2581093D01*
X7425000Y2583243D01*
X7414192Y2581093D01*
X7405030Y2574971D01*
X7394971D01*
X7385808Y2581093D01*
X7375000Y2583243D01*
X7364192Y2581093D01*
X7355030Y2574971D01*
X7344971D01*
X7335808Y2581093D01*
X7325000Y2583243D01*
X7319523Y2582153D01*
X7313267Y2593858D01*
X7372784Y2653375D01*
X7376994Y2659676D01*
X7378473Y2667109D01*
Y2832891D01*
X7378230Y2834114D01*
X7389659Y2841752D01*
X7392906Y2839583D01*
X7406640Y2836851D01*
X7420374Y2839583D01*
X7432018Y2847362D01*
X7435996Y2853317D01*
X7480240D01*
X7487673Y2854795D01*
X7493974Y2859006D01*
X7576861Y2941893D01*
X7583111Y2940315D01*
X7589608Y2936680D01*
X7591923Y2925046D01*
X7599702Y2913402D01*
X7611346Y2905623D01*
X7625080Y2902891D01*
X7634673Y2904799D01*
X7690039Y2849433D01*
X7685179Y2837700D01*
X7557300D01*
Y2662300D01*
X7591300D01*
X7603653Y2659667D01*
Y2639797D01*
X7606610Y2624931D01*
X7615031Y2612328D01*
X7627633Y2603907D01*
X7642499Y2600950D01*
X7657365Y2603907D01*
X7669968Y2612328D01*
X7678389Y2624931D01*
X7681346Y2639797D01*
Y2659666D01*
X7681346Y2659667D01*
Y2662300D01*
X7727700D01*
Y2795179D01*
X7739433Y2800039D01*
X7748956Y2790516D01*
X7748956Y2790516D01*
X7755258Y2786305D01*
X7762690Y2784827D01*
X7762692Y2784827D01*
X7792285D01*
Y2699600D01*
X7794008Y2690938D01*
X7798915Y2683595D01*
X7806258Y2678688D01*
X7814920Y2676965D01*
X7871920D01*
X7880582Y2678688D01*
X7887925Y2683595D01*
X7892832Y2690938D01*
X7894555Y2699600D01*
Y2810600D01*
X7892832Y2819262D01*
X7887925Y2826605D01*
X7880582Y2831512D01*
X7871920Y2833235D01*
X7814920D01*
X7806258Y2831512D01*
X7798915Y2826605D01*
X7796956Y2823673D01*
X7770736D01*
X7660083Y2934325D01*
X7660969Y2938780D01*
X7658237Y2952514D01*
X7650458Y2964158D01*
X7638814Y2971937D01*
X7633827Y2972930D01*
X7630958Y2986449D01*
X7634563Y2988993D01*
X7635563Y2988324D01*
X7642450Y2986954D01*
X7677550D01*
X7684436Y2988324D01*
X7690274Y2992225D01*
X7694725D01*
X7700563Y2988324D01*
X7707450Y2986954D01*
X7742550D01*
X7749436Y2988324D01*
X7755275Y2992225D01*
X7759175Y2998063D01*
X7760545Y3004950D01*
Y3100050D01*
X7759175Y3106937D01*
X7755275Y3112775D01*
X7754640Y3113199D01*
X7757297Y3117176D01*
X7760029Y3130910D01*
X7758745Y3137367D01*
X7770450Y3143623D01*
X7880307Y3033766D01*
X7886608Y3029556D01*
X7894041Y3028077D01*
X7939455D01*
Y3012450D01*
X7940824Y3005563D01*
X7944725Y2999725D01*
X7950563Y2995824D01*
X7957450Y2994455D01*
X8002550D01*
X8009437Y2995824D01*
X8015275Y2999725D01*
X8019176Y3005563D01*
X8020546Y3012450D01*
Y3082550D01*
X8019176Y3089437D01*
X8015275Y3095275D01*
X8009437Y3099176D01*
X8002550Y3100546D01*
X7957450D01*
X7950563Y3099176D01*
X7944725Y3095275D01*
X7940824Y3089437D01*
X7939455Y3082550D01*
Y3066923D01*
X7902086D01*
X7782815Y3186194D01*
X7776514Y3190405D01*
X7769081Y3191883D01*
X7688580D01*
X7681147Y3190405D01*
X7674846Y3186194D01*
X7674845Y3186194D01*
X7646906Y3158254D01*
X7642695Y3151953D01*
X7641217Y3144520D01*
Y3117800D01*
X7635563Y3116676D01*
X7629725Y3112775D01*
X7625824Y3106937D01*
X7624454Y3100050D01*
Y3044423D01*
X7550280Y2970249D01*
X7548075Y2970017D01*
X7537700Y2978019D01*
X7537700Y2983621D01*
Y3018654D01*
X7555840D01*
X7570706Y3021611D01*
X7583309Y3030032D01*
X7591730Y3042634D01*
X7594687Y3057500D01*
X7591730Y3072366D01*
X7583309Y3084969D01*
X7570706Y3093390D01*
X7555840Y3096347D01*
X7537700D01*
Y3131527D01*
X7557508D01*
X7564941Y3133005D01*
X7571243Y3137216D01*
X7640554Y3206527D01*
X7743500D01*
X7750933Y3208006D01*
X7757234Y3212216D01*
X7776973Y3231954D01*
X7807550D01*
X7814436Y3233324D01*
X7820274Y3237225D01*
X7824175Y3243063D01*
X7825545Y3249950D01*
Y3345050D01*
X7824175Y3351937D01*
X7820274Y3357775D01*
X7814436Y3361676D01*
X7807550Y3363046D01*
X7772450D01*
X7765563Y3361676D01*
X7759725Y3357775D01*
X7755824Y3351937D01*
X7754454Y3345050D01*
Y3264373D01*
X7735454Y3245373D01*
X7699301D01*
X7695545Y3249950D01*
Y3282120D01*
X7695889Y3282634D01*
X7698846Y3297500D01*
Y3380000D01*
X7695889Y3394866D01*
X7687468Y3407469D01*
X7674866Y3415890D01*
X7660000Y3418846D01*
X7645134Y3415890D01*
X7632531Y3407469D01*
X7624110Y3394866D01*
X7621153Y3380000D01*
Y3297500D01*
X7624110Y3282634D01*
X7624454Y3282120D01*
Y3249950D01*
X7625637Y3244006D01*
X7625075Y3243895D01*
X7618774Y3239684D01*
X7549463Y3170373D01*
X7250251D01*
X7239329Y3180080D01*
X7236597Y3193814D01*
X7228818Y3205458D01*
X7217174Y3213237D01*
X7203440Y3215969D01*
X7189706Y3213237D01*
X7178062Y3205458D01*
X7170283Y3193814D01*
X7167551Y3180080D01*
X7167610Y3179782D01*
X7157491Y3165553D01*
X7154722Y3165168D01*
X7084525Y3235364D01*
X7078224Y3239575D01*
X7070791Y3241053D01*
X6893915D01*
X6875545Y3259423D01*
Y3345050D01*
X6874175Y3351937D01*
X6870275Y3357775D01*
X6864436Y3361676D01*
X6857550Y3363046D01*
X6822450D01*
X6815563Y3361676D01*
X6809725Y3357775D01*
X6805824Y3351937D01*
X6804454Y3345050D01*
Y3249950D01*
X6805824Y3243063D01*
X6809725Y3237225D01*
X6815563Y3233324D01*
X6822450Y3231954D01*
X6848077D01*
X6867828Y3212203D01*
X6862568Y3199503D01*
X6759747D01*
X6748846Y3209798D01*
Y3229666D01*
X6748846Y3229669D01*
X6745889Y3244535D01*
Y3297500D01*
X6745545Y3299229D01*
Y3345050D01*
X6744175Y3351937D01*
X6740275Y3357775D01*
X6734436Y3361676D01*
X6727550Y3363046D01*
X6692450D01*
X6685563Y3361676D01*
X6679725Y3357775D01*
X6675824Y3351937D01*
X6674454Y3345050D01*
Y3299229D01*
X6674110Y3297500D01*
Y3244535D01*
X6674110Y3244534D01*
X6671153Y3229668D01*
Y3209798D01*
X6674110Y3194932D01*
X6682531Y3182329D01*
X6695133Y3173909D01*
X6696840Y3173569D01*
X6701020Y3159789D01*
X6696266Y3155034D01*
X6692055Y3148733D01*
X6690577Y3141300D01*
Y3117673D01*
X6685563Y3116676D01*
X6679725Y3112775D01*
X6675824Y3106937D01*
X6674454Y3100050D01*
Y3004950D01*
X6675824Y2998063D01*
X6679725Y2992225D01*
X6685563Y2988324D01*
X6692450Y2986954D01*
X6727550D01*
X6734436Y2988324D01*
X6745470Y2987133D01*
X6752191Y2982642D01*
X6760120Y2981065D01*
X6768048Y2982642D01*
X6774502Y2986954D01*
X6792550D01*
X6799436Y2988324D01*
X6805275Y2992225D01*
X6809176Y2998063D01*
X6810545Y3004950D01*
Y3100050D01*
X6809176Y3106937D01*
X6805275Y3112775D01*
X6804248Y3113461D01*
X6807337Y3118086D01*
X6810069Y3131820D01*
X6807337Y3145554D01*
X6805732Y3147957D01*
X6812521Y3160657D01*
X6942944D01*
X6946922Y3154702D01*
X6958566Y3146923D01*
X6972300Y3144191D01*
X6986034Y3146923D01*
X6997678Y3154702D01*
X7005457Y3166346D01*
X7008189Y3180080D01*
X7006314Y3189507D01*
X7013961Y3202207D01*
X7062745D01*
X7113427Y3151525D01*
X7109854Y3137137D01*
X7101862Y3131798D01*
X7094083Y3120154D01*
X7091351Y3106420D01*
X7091619Y3105071D01*
X7080284Y3093736D01*
X7065275Y3095275D01*
X7059437Y3099176D01*
X7052550Y3100546D01*
X7007450D01*
X7000564Y3099176D01*
X6994725Y3095275D01*
X6990824Y3089437D01*
X6989455Y3082550D01*
Y3012450D01*
X6990824Y3005563D01*
X6994725Y2999725D01*
X7000564Y2995824D01*
X7007450Y2994455D01*
X7052550D01*
X7059437Y2995824D01*
X7065275Y2999725D01*
X7080367Y3001682D01*
X7155577Y2926471D01*
Y2837700D01*
X6997300D01*
Y2710904D01*
X6984600Y2704694D01*
X6979023Y2709032D01*
Y2793264D01*
X6977545Y2800697D01*
X6973334Y2806999D01*
X6868459Y2911874D01*
X6862157Y2916085D01*
X6854724Y2917563D01*
X6181785D01*
X6114484Y2984865D01*
X6115275Y2999726D01*
X6119176Y3005563D01*
X6120546Y3012450D01*
Y3082550D01*
X6119176Y3089437D01*
X6115275Y3095275D01*
X6109437Y3099176D01*
X6102550Y3100546D01*
X6066924D01*
X5924214Y3243255D01*
X5925546Y3249950D01*
Y3345050D01*
X5924176Y3351937D01*
X5920275Y3357775D01*
X5914437Y3361676D01*
X5907550Y3363046D01*
X5872450D01*
X5865564Y3361676D01*
X5859726Y3357775D01*
X5855275D01*
X5849437Y3361676D01*
X5842550Y3363046D01*
X5807450D01*
X5800563Y3361676D01*
X5794725Y3357775D01*
X5790824Y3351937D01*
X5789455Y3345050D01*
Y3249950D01*
X5790824Y3243063D01*
X5794725Y3237225D01*
X5795400Y3230373D01*
X5760400Y3195373D01*
X5356909D01*
X5349476Y3193895D01*
X5343174Y3189684D01*
X5220413Y3066923D01*
X5170546D01*
Y3082550D01*
X5169176Y3089437D01*
X5165275Y3095275D01*
X5159437Y3099176D01*
X5152550Y3100546D01*
X5107451D01*
X5100564Y3099176D01*
X5094726Y3095275D01*
X5090825Y3089437D01*
X5089455Y3082550D01*
Y3012450D01*
X5090825Y3005563D01*
X5094726Y2999725D01*
X5100564Y2995824D01*
X5107451Y2994455D01*
X5152550D01*
X5159437Y2995824D01*
X5165275Y2999725D01*
X5169176Y3005563D01*
X5170546Y3012450D01*
Y3028077D01*
X5228459D01*
X5235892Y3029556D01*
X5242193Y3033766D01*
X5267721Y3059294D01*
X5279455Y3054434D01*
Y3012450D01*
X5280825Y3005563D01*
X5284726Y2999725D01*
X5290564Y2995824D01*
X5297450Y2994455D01*
X5342550D01*
X5349437Y2995824D01*
X5355275Y2999725D01*
X5359176Y3005563D01*
X5360546Y3012450D01*
Y3043654D01*
X5462300D01*
Y2997300D01*
X5637700D01*
Y3043654D01*
X5657500D01*
X5672366Y3046611D01*
X5684969Y3055031D01*
X5693389Y3067634D01*
X5696346Y3082500D01*
X5693389Y3097366D01*
X5684969Y3109969D01*
X5672366Y3118389D01*
X5657500Y3121347D01*
X5637700D01*
Y3156527D01*
X5768445D01*
X5775878Y3158005D01*
X5782180Y3162216D01*
X5828482Y3208518D01*
X5906254Y3130746D01*
X5900994Y3118046D01*
X5872450D01*
X5867406Y3117042D01*
X5864174Y3117585D01*
X5854013Y3124232D01*
X5852297Y3132854D01*
X5844518Y3144498D01*
X5832874Y3152277D01*
X5819140Y3155009D01*
X5805406Y3152277D01*
X5793762Y3144498D01*
X5786219Y3133208D01*
X5782998Y3132567D01*
X5776276Y3128076D01*
X5766246Y3118046D01*
X5742450D01*
X5735564Y3116676D01*
X5729725Y3112775D01*
X5725824Y3106937D01*
X5724455Y3100050D01*
Y3004950D01*
X5725824Y2998063D01*
X5729725Y2992225D01*
X5735564Y2988324D01*
X5742450Y2986954D01*
X5777550D01*
X5784437Y2988324D01*
X5790275Y2992225D01*
X5794176Y2998063D01*
X5795546Y3004950D01*
Y3077277D01*
X5799037Y3080352D01*
X5808246Y3085398D01*
X5819140Y3083231D01*
X5832874Y3085963D01*
X5841755Y3091896D01*
X5851435Y3088541D01*
X5854455Y3086270D01*
Y3067880D01*
X5854111Y3067366D01*
X5851154Y3052500D01*
Y2957501D01*
X5851153Y2957500D01*
X5854110Y2942634D01*
X5862531Y2930031D01*
X5875134Y2921611D01*
X5890000Y2918654D01*
X5904866Y2921611D01*
X5917468Y2930031D01*
X5925890Y2942634D01*
X5928847Y2957500D01*
Y3052500D01*
X5925890Y3067366D01*
X5925546Y3067880D01*
Y3093494D01*
X5938246Y3098754D01*
X6007997Y3029003D01*
Y3008539D01*
X6009475Y3001106D01*
X6013686Y2994805D01*
X6149485Y2859006D01*
X6148003Y2844889D01*
X6146559Y2842820D01*
X6049580D01*
Y2793966D01*
X5992620D01*
X5977754Y2791009D01*
X5965151Y2782589D01*
X5965032Y2782469D01*
X5956611Y2769866D01*
X5953654Y2755000D01*
X5956611Y2740134D01*
X5965032Y2727532D01*
X5977634Y2719111D01*
X5992500Y2716154D01*
X5993103Y2716273D01*
X6049580D01*
X6049580Y2667420D01*
X6038183Y2664273D01*
X5885529D01*
X5878096Y2662795D01*
X5871795Y2658584D01*
X5837404Y2624193D01*
X5563323D01*
X5555675Y2636893D01*
X5557551Y2646320D01*
X5554819Y2660054D01*
X5547039Y2671698D01*
X5535396Y2679477D01*
X5521661Y2682210D01*
X5507927Y2679477D01*
X5499059Y2673552D01*
X5359706Y2812904D01*
X5353405Y2817115D01*
X5345972Y2818593D01*
X4808878D01*
X4669123Y2958348D01*
Y3261023D01*
X4667645Y3268457D01*
X4663434Y3274758D01*
X4586973Y3351219D01*
Y3444194D01*
X4585495Y3451626D01*
X4581284Y3457928D01*
X4581284Y3457928D01*
X4532928Y3506285D01*
X4526626Y3510495D01*
X4519193Y3511973D01*
X4330807D01*
X4330805Y3511973D01*
X3604690D01*
X3604688Y3511973D01*
X3604436Y3511923D01*
X1711960D01*
X1704527Y3510445D01*
X1698226Y3506234D01*
X1698225Y3506234D01*
X1485304Y3293312D01*
X1478280Y3294709D01*
X1464546Y3291977D01*
X1452902Y3284198D01*
X1445123Y3272554D01*
X1442391Y3258820D01*
X1445123Y3245086D01*
X1452902Y3233442D01*
X1464546Y3225663D01*
X1478280Y3222931D01*
X1492014Y3225663D01*
X1503658Y3233442D01*
X1511437Y3245086D01*
X1514169Y3258820D01*
X1512772Y3265844D01*
X1720005Y3473077D01*
X3576546D01*
X3581407Y3461344D01*
X3542763Y3422700D01*
X3452300D01*
Y3287300D01*
X3597700D01*
Y3367763D01*
X3639191Y3409254D01*
X3677276D01*
Y3342236D01*
X3609811Y3274772D01*
X3601391Y3262169D01*
X3598433Y3247303D01*
Y3225096D01*
X3597700Y3212700D01*
X3452300D01*
Y3077300D01*
X3505577D01*
Y2965135D01*
X3469500D01*
X3460838Y2963412D01*
X3453495Y2958505D01*
X3448588Y2951161D01*
X3446865Y2942500D01*
Y2885500D01*
X3448588Y2876838D01*
X3453495Y2869495D01*
X3460838Y2864588D01*
X3469500Y2862865D01*
X3580500D01*
X3585733Y2863906D01*
X3595595Y2858288D01*
X3598433Y2855509D01*
Y2380831D01*
X3232375Y2014772D01*
X3231254Y2014549D01*
X3218651Y2006129D01*
X3210231Y1993526D01*
X3207273Y1978660D01*
X3210231Y1963794D01*
X3218651Y1951191D01*
X3231254Y1942771D01*
X3246120Y1939813D01*
X3251200D01*
X3266066Y1942771D01*
X3278669Y1951191D01*
X3664749Y2337271D01*
X3673169Y2349874D01*
X3676127Y2364740D01*
Y2855803D01*
X3679437Y2858798D01*
X3688827Y2863994D01*
X3694500Y2862865D01*
X3805500D01*
X3814162Y2864588D01*
X3821505Y2869495D01*
X3826412Y2876838D01*
X3828135Y2885500D01*
Y2942500D01*
X3826412Y2951162D01*
X3821505Y2958505D01*
X3814162Y2963412D01*
X3805500Y2965135D01*
X3769423D01*
Y3077299D01*
X3822676D01*
Y3212699D01*
X3677276D01*
X3676127Y3224923D01*
Y3231213D01*
X3732213Y3287299D01*
X3822676D01*
Y3409254D01*
X3902300D01*
Y3287300D01*
X4047700D01*
Y3319931D01*
X4060400Y3325191D01*
X4118376Y3267216D01*
X4124677Y3263005D01*
X4132110Y3261527D01*
X4132111Y3261527D01*
X4313143D01*
X4332853Y3241816D01*
X4332854Y3241816D01*
X4339155Y3237605D01*
X4346588Y3236127D01*
X4449563D01*
X4461257Y3224433D01*
X4456396Y3212700D01*
X4352300D01*
Y3077300D01*
X4405577D01*
Y2965135D01*
X4369500D01*
X4360838Y2963412D01*
X4353495Y2958505D01*
X4348588Y2951162D01*
X4346865Y2942500D01*
Y2885500D01*
X4348588Y2876838D01*
X4353495Y2869495D01*
X4360838Y2864588D01*
X4369500Y2862865D01*
X4480500D01*
X4489162Y2864588D01*
X4496505Y2869495D01*
X4504670Y2870299D01*
X4729323Y2645646D01*
X4735625Y2641435D01*
X4743057Y2639957D01*
X4973582D01*
X4977435Y2627257D01*
X4974622Y2625378D01*
X4966842Y2613734D01*
X4964110Y2600000D01*
X4966842Y2586266D01*
X4974622Y2574622D01*
X4986266Y2566842D01*
X5000000Y2564110D01*
X5013734Y2566842D01*
X5025378Y2574622D01*
X5033157Y2586266D01*
X5035889Y2600000D01*
X5033157Y2613734D01*
X5025378Y2625378D01*
X5022565Y2627257D01*
X5026417Y2639957D01*
X5280151D01*
X5379872Y2540236D01*
X5379872Y2540236D01*
X5386174Y2536025D01*
X5393606Y2534547D01*
X5393608Y2534547D01*
X5800848D01*
X5807637Y2521847D01*
X5806266Y2519795D01*
X4077351D01*
X4069918Y2518317D01*
X4063617Y2514106D01*
X3851236Y2301725D01*
X3847025Y2295424D01*
X3845547Y2287991D01*
Y2058816D01*
X3839592Y2054838D01*
X3831813Y2043194D01*
X3829080Y2029460D01*
X3831813Y2015726D01*
X3839592Y2004082D01*
X3851236Y1996303D01*
X3864970Y1993571D01*
X3874397Y1995446D01*
X3887097Y1987799D01*
Y1740200D01*
X3877300D01*
Y1714423D01*
X3817589D01*
X3798697Y1733314D01*
X3792396Y1737525D01*
X3784963Y1739003D01*
X3333266D01*
X3252235Y1820035D01*
X3252234Y1820035D01*
X3252234Y1820036D01*
X2736975Y2335294D01*
X2730674Y2339505D01*
X2723241Y2340983D01*
X2294406D01*
X1944495Y2690894D01*
X1938194Y2695105D01*
X1930761Y2696583D01*
X1827676D01*
X1823698Y2702538D01*
X1812054Y2710317D01*
X1798320Y2713049D01*
X1784586Y2710317D01*
X1772942Y2702538D01*
X1765163Y2690894D01*
X1762431Y2677160D01*
X1765163Y2663426D01*
X1772942Y2651782D01*
X1784586Y2644003D01*
X1798320Y2641271D01*
X1812054Y2644003D01*
X1823698Y2651782D01*
X1827676Y2657737D01*
X1880743D01*
X1882324Y2655806D01*
X1886369Y2645037D01*
X1880733Y2636602D01*
X1878001Y2622867D01*
X1880733Y2609133D01*
X1888512Y2597490D01*
X1900156Y2589710D01*
X1913890Y2586978D01*
X1922768Y2588744D01*
X2229086Y2282426D01*
X2235387Y2278215D01*
X2242820Y2276737D01*
X2704675D01*
X3300966Y1680446D01*
X3307267Y1676235D01*
X3314700Y1674757D01*
X3655748D01*
X3657300Y1662699D01*
X3657300D01*
Y1487300D01*
X3705577D01*
Y1466861D01*
X3692877Y1459214D01*
X3683450Y1461090D01*
X3669716Y1458358D01*
X3658072Y1450578D01*
X3654094Y1444623D01*
X3608261D01*
X3608259Y1444623D01*
X3600826Y1443145D01*
X3594525Y1438934D01*
X3594524Y1438934D01*
X3539726Y1384135D01*
X3535515Y1377834D01*
X3534037Y1370401D01*
Y1267885D01*
X3510575Y1244423D01*
X2745000D01*
X2737567Y1242945D01*
X2731266Y1238734D01*
X2731265Y1238734D01*
X2541955Y1049423D01*
X2477701D01*
Y1072701D01*
X2382749D01*
X2382586Y1072946D01*
X2382585Y1072946D01*
X2221796Y1233735D01*
X2215495Y1237945D01*
X2208062Y1239424D01*
X2202701D01*
Y1262701D01*
X2072301D01*
Y1177301D01*
X2202701D01*
Y1181299D01*
X2214435Y1186159D01*
X2347301Y1053293D01*
Y987301D01*
X2477701D01*
Y1010577D01*
X2550000D01*
X2557433Y1012056D01*
X2563734Y1016266D01*
X2753045Y1205577D01*
X3329639D01*
Y1072726D01*
X3320659Y1063746D01*
X3250000Y1063746D01*
X3249998Y1063745D01*
X3240054Y1063745D01*
X3237527Y1062699D01*
X3234793D01*
X3216416Y1055087D01*
X3214483Y1053154D01*
X3211956Y1052107D01*
X3197891Y1038042D01*
X3196845Y1035516D01*
X3194912Y1033583D01*
X3187299Y1015205D01*
Y1012471D01*
X3186253Y1009945D01*
X3186253Y999999D01*
X3186253Y950685D01*
X3185558Y943621D01*
X3179919Y930008D01*
X3169991Y920080D01*
X3156377Y914441D01*
X3149326Y913746D01*
X3112700D01*
Y917700D01*
X2937300D01*
Y913746D01*
X2887700D01*
Y917700D01*
X2712301D01*
X2712300Y917700D01*
Y917701D01*
X2707173Y928548D01*
X2705088Y933583D01*
X2703154Y935516D01*
X2702108Y938043D01*
X2688043Y952108D01*
X2685516Y953154D01*
X2683583Y955087D01*
X2665206Y962700D01*
X2662472D01*
X2659945Y963746D01*
X2650000Y963746D01*
X2450000Y963746D01*
X2449999Y963746D01*
X2440054Y963746D01*
X2437528Y962700D01*
X2434793D01*
X2416417Y955087D01*
X2414483Y953154D01*
X2411957Y952108D01*
X2397892Y938043D01*
X2396845Y935516D01*
X2394912Y933583D01*
X2387300Y915206D01*
Y912472D01*
X2386254Y909945D01*
X2381509Y905201D01*
X2372802D01*
X2361036Y905759D01*
X2360528Y918249D01*
X2359493Y920485D01*
X2359493Y922950D01*
X2355090Y933583D01*
X2353156Y935518D01*
X2352109Y938044D01*
X2338044Y952110D01*
X2335517Y953156D01*
X2333583Y955090D01*
X2316970Y961969D01*
X2314649Y961969D01*
X2312565Y962989D01*
X2300858Y963718D01*
X2300426Y963569D01*
X2300004Y963744D01*
X2300000D01*
X2299998Y963745D01*
X2163848D01*
Y987301D01*
X2202701D01*
Y1072701D01*
X2072301D01*
Y987301D01*
X2086155D01*
Y963745D01*
X1067795Y963744D01*
Y1275150D01*
X1174650D01*
Y1574850D01*
X933350D01*
Y1275150D01*
X964205D01*
Y963744D01*
X825000D01*
X812689Y963746D01*
X811388Y963207D01*
X810006Y963482D01*
X785855Y958681D01*
X784684Y957899D01*
X783276D01*
X760526Y948477D01*
X759530Y947481D01*
X758149Y947206D01*
X737675Y933527D01*
X736893Y932356D01*
X735592Y931817D01*
X718180Y914406D01*
X717641Y913105D01*
X716471Y912322D01*
X702791Y891848D01*
X702517Y890467D01*
X701521Y889471D01*
X692099Y866721D01*
Y865313D01*
X691317Y864142D01*
X686515Y839991D01*
X686790Y838610D01*
X686251Y837309D01*
X686253Y824998D01*
X686253Y824997D01*
X686253Y813036D01*
X686254Y375002D01*
X686253Y370029D01*
X687299Y367502D01*
X687299Y364767D01*
X691104Y355578D01*
X693038Y353644D01*
X694084Y351117D01*
X701117Y344084D01*
X703645Y343037D01*
X705578Y341104D01*
X714767Y337299D01*
X717502Y337299D01*
X720029Y336253D01*
X725002Y336254D01*
X1101227D01*
X1101561Y336392D01*
X1101903Y336270D01*
X1104354Y336391D01*
X1104680Y336545D01*
X1105025Y336440D01*
X1107468Y336681D01*
X1107788Y336851D01*
X1108138Y336764D01*
X1109129Y336911D01*
X1110715Y336254D01*
X1110728D01*
X1110728Y336253D01*
X1110729Y336254D01*
X1329972D01*
X1332499Y337300D01*
X1335233D01*
X1344421Y341106D01*
X1346355Y343039D01*
X1348881Y344086D01*
X1355913Y351118D01*
X1356960Y353644D01*
X1358893Y355578D01*
X1362699Y364766D01*
Y367500D01*
X1363746Y370027D01*
Y374998D01*
X1363746Y375000D01*
Y599324D01*
X1364441Y606378D01*
X1370079Y619991D01*
X1380008Y629919D01*
X1393620Y635558D01*
X1400680Y636252D01*
X1423616D01*
X1429233Y624862D01*
X1423199Y616998D01*
X1414874Y596900D01*
X1524000D01*
Y558800D01*
D01*
Y596900D01*
X1633126D01*
X1624801Y616998D01*
X1618767Y624862D01*
X1624384Y636253D01*
X2099905Y636253D01*
Y587701D01*
X2092302D01*
Y502301D01*
X2217701D01*
Y587701D01*
X2177598D01*
Y636253D01*
X2309945D01*
X2312471Y637300D01*
X2315205D01*
X2333582Y644912D01*
X2335516Y646845D01*
X2338042Y647892D01*
X2352107Y661957D01*
X2353153Y664483D01*
X2355086Y666416D01*
X2359492Y677051D01*
Y679515D01*
X2360527Y681751D01*
X2361036Y694240D01*
X2372802Y694801D01*
X2386254D01*
Y587701D01*
X2332302D01*
Y502301D01*
X2400007D01*
X2401166Y500570D01*
X2397299Y493216D01*
X2393880Y488624D01*
X2391195Y488090D01*
X2389501Y488427D01*
X2310461D01*
X2295596Y485470D01*
X2282993Y477049D01*
X2274572Y464447D01*
X2271615Y449581D01*
X2274572Y434715D01*
X2282993Y422112D01*
X2295596Y413691D01*
X2310461Y410734D01*
X2368220D01*
X2368527Y410401D01*
X2362964Y397701D01*
X2332302D01*
Y312301D01*
X2457701D01*
Y335578D01*
X2473361D01*
X2480794Y337056D01*
X2487095Y341267D01*
X2515196Y369368D01*
X2522220Y367971D01*
X2535954Y370703D01*
X2547598Y378482D01*
X2555377Y390126D01*
X2558109Y403860D01*
X2555377Y417594D01*
X2547598Y429238D01*
X2535954Y437017D01*
X2522220Y439749D01*
X2508486Y437017D01*
X2496842Y429238D01*
X2489063Y417594D01*
X2486331Y403860D01*
X2487728Y396836D01*
X2470401Y379510D01*
X2457701Y384771D01*
Y397701D01*
X2404385D01*
X2403134Y410401D01*
X2406907Y411151D01*
X2419510Y419572D01*
X2422470Y422532D01*
X2430891Y435135D01*
X2433848Y450001D01*
X2430891Y464867D01*
X2425927Y472295D01*
X2422470Y477470D01*
X2417966Y480921D01*
X2419267Y483355D01*
X2429476Y489502D01*
X2434794Y487300D01*
X2437528D01*
X2440054Y486254D01*
X2450000Y486254D01*
X2643834Y486254D01*
X2650858Y480864D01*
X2667327Y474042D01*
X2685000Y471716D01*
X2839651D01*
X2840360Y468149D01*
X2841142Y466978D01*
Y465570D01*
X2848681Y447371D01*
X2849676Y446376D01*
X2849951Y444995D01*
X2860895Y428616D01*
X2862065Y427834D01*
X2862604Y426533D01*
X2876533Y412604D01*
X2877834Y412065D01*
X2878616Y410895D01*
X2894994Y399951D01*
X2896376Y399676D01*
X2897371Y398681D01*
X2915570Y391142D01*
X2916978D01*
X2918149Y390360D01*
X2937469Y386517D01*
X2938850Y386792D01*
X2940151Y386253D01*
X2950000Y386253D01*
X3349999D01*
X3359848Y386253D01*
X3361149Y386792D01*
X3362531Y386517D01*
X3381850Y390360D01*
X3383021Y391143D01*
X3384429D01*
X3402628Y398681D01*
X3403623Y399676D01*
X3405004Y399951D01*
X3421383Y410895D01*
X3422165Y412065D01*
X3423466Y412604D01*
X3437395Y426533D01*
X3437934Y427834D01*
X3439104Y428616D01*
X3450048Y444995D01*
X3450323Y446376D01*
X3451318Y447371D01*
X3458856Y465570D01*
Y466978D01*
X3459639Y468149D01*
X3463482Y487468D01*
X3463207Y488850D01*
X3463746Y490151D01*
X3463746Y500000D01*
Y988162D01*
X3463745Y988162D01*
X3463746Y988163D01*
X3463744Y1000001D01*
X3463555Y1000458D01*
X3463713Y1000927D01*
X3462909Y1012816D01*
X3461894Y1014864D01*
Y1017149D01*
X3455087Y1033582D01*
X3454789Y1033880D01*
X3455868Y1039800D01*
X3460162Y1046580D01*
X3505039D01*
Y1113077D01*
X3587300D01*
Y1073873D01*
X3583181Y1061744D01*
X3582010Y1060961D01*
X3580601D01*
X3566416Y1055085D01*
X3564483Y1053151D01*
X3561957Y1052105D01*
X3547892Y1038041D01*
X3546846Y1035514D01*
X3544913Y1033581D01*
X3537300Y1015205D01*
Y1012470D01*
X3536254Y1009944D01*
X3536254Y999999D01*
Y100022D01*
X3536237Y90072D01*
X3537281Y87539D01*
X3537279Y84799D01*
X3544879Y66407D01*
X3546815Y64467D01*
X3547864Y61936D01*
X3561936Y47864D01*
X3564467Y46816D01*
X3566406Y44880D01*
X3584798Y37279D01*
X3587538Y37281D01*
X3590071Y36237D01*
X3600022Y36253D01*
X4049999Y36253D01*
X4050532Y36474D01*
X4051081Y36296D01*
X4063380Y37267D01*
X4065347Y38270D01*
X4067556Y38270D01*
X4083584Y44906D01*
X4085518Y46840D01*
X4088045Y47887D01*
X4102112Y61953D01*
X4103158Y64480D01*
X4105092Y66414D01*
X4112703Y84794D01*
X4112702Y87529D01*
X4113748Y90057D01*
X4113746Y100003D01*
X4113746Y560513D01*
X4126446Y562143D01*
X4132577Y557402D01*
X4136254Y552623D01*
Y299999D01*
X4136253Y280301D01*
X4136792Y279000D01*
X4136517Y277619D01*
X4144203Y238979D01*
X4144985Y237809D01*
Y236401D01*
X4160061Y200002D01*
X4161056Y199007D01*
X4161331Y197626D01*
X4183218Y164869D01*
X4184389Y164086D01*
X4184928Y162785D01*
X4212786Y134928D01*
X4214087Y134389D01*
X4214869Y133218D01*
X4247626Y111331D01*
X4249007Y111056D01*
X4250003Y110060D01*
X4286401Y94984D01*
X4287809D01*
X4288979Y94202D01*
X4327619Y86517D01*
X4329000Y86792D01*
X4330301Y86253D01*
X4350000Y86254D01*
X8724997D01*
X8734846Y86252D01*
X8736148Y86791D01*
X8737529Y86516D01*
X8756850Y90357D01*
X8758021Y91139D01*
X8759429D01*
X8777629Y98676D01*
X8778625Y99672D01*
X8780006Y99947D01*
X8796386Y110890D01*
X8797168Y112061D01*
X8798469Y112600D01*
X8812399Y126529D01*
X8812938Y127831D01*
X8814108Y128613D01*
X8825052Y144993D01*
X8825327Y146374D01*
X8826322Y147370D01*
X8833860Y165570D01*
Y166978D01*
X8834642Y168149D01*
X8838483Y187470D01*
X8838208Y188851D01*
X8838747Y190152D01*
X8838745Y200002D01*
X8838746Y724997D01*
X8838744Y725001D01*
X8838745Y747159D01*
X8838206Y748459D01*
X8838481Y749840D01*
X8829836Y793311D01*
X8829054Y794481D01*
Y795890D01*
X8812094Y836838D01*
X8811098Y837834D01*
X8810823Y839214D01*
X8786200Y876067D01*
X8785029Y876849D01*
X8784490Y878150D01*
X8753151Y909490D01*
X8751850Y910029D01*
X8751067Y911200D01*
X8714215Y935823D01*
X8712834Y936098D01*
X8711839Y937094D01*
X8670890Y954054D01*
X8669482D01*
X8668312Y954836D01*
X8624842Y963482D01*
X8623461Y963207D01*
X8622160Y963746D01*
X8599999Y963745D01*
X8599941Y963721D01*
X8599882Y963745D01*
X8538314Y963220D01*
X8529295Y972162D01*
Y1250150D01*
X8599650D01*
Y1549850D01*
X8358350D01*
Y1250150D01*
X8425705D01*
Y962259D01*
X8022865Y958824D01*
X8013847Y967766D01*
Y992300D01*
X8027700D01*
Y1107700D01*
X8013847D01*
Y1139623D01*
X8025580Y1144483D01*
X8072531Y1097531D01*
X8085134Y1089111D01*
X8100000Y1086154D01*
X8175000D01*
X8189866Y1089111D01*
X8202468Y1097531D01*
X8210889Y1110134D01*
X8213846Y1125000D01*
X8210889Y1139866D01*
X8202468Y1152469D01*
X8189866Y1160889D01*
X8175000Y1163847D01*
X8116090D01*
X8012135Y1267802D01*
Y1355500D01*
X8010412Y1364162D01*
X8005505Y1371505D01*
X7998162Y1376412D01*
X7989500Y1378135D01*
X7932500D01*
X7923838Y1376412D01*
X7916495Y1371505D01*
X7911588Y1364162D01*
X7909865Y1355500D01*
Y1244500D01*
X7911588Y1235838D01*
X7916495Y1228495D01*
X7923838Y1223588D01*
X7932500Y1221865D01*
X7936154D01*
Y1107700D01*
X7922300D01*
Y992300D01*
X7936154D01*
Y961091D01*
X7882763Y907700D01*
X7827300D01*
Y792300D01*
X7838653D01*
Y727700D01*
X7787300D01*
Y614746D01*
X7775567Y609886D01*
X7703331Y682122D01*
X7696610Y686613D01*
X7688681Y688190D01*
X7688680Y688190D01*
X7659958D01*
Y698764D01*
X7656916Y714055D01*
X7648255Y727018D01*
X7635291Y735680D01*
X7620000Y738722D01*
X7611110Y736953D01*
X7551802Y796261D01*
Y878936D01*
X7550225Y886864D01*
X7545734Y893585D01*
X7545733Y893586D01*
X7464039Y975280D01*
X7464038Y975281D01*
X7438752Y1000567D01*
X7443612Y1012300D01*
X7492700D01*
Y1187700D01*
X7450898D01*
Y1283900D01*
X7451093Y1284192D01*
X7453243Y1295000D01*
Y1445000D01*
X7451093Y1455808D01*
X7444971Y1464971D01*
X7435808Y1471093D01*
X7425000Y1473243D01*
X7414192Y1471093D01*
X7405029Y1464971D01*
X7398907Y1455808D01*
X7396757Y1445000D01*
Y1401285D01*
X7385247Y1394135D01*
X7384057Y1394096D01*
X7375000Y1395898D01*
X7365943Y1394096D01*
X7364754Y1394135D01*
X7353243Y1401285D01*
Y1445000D01*
X7351093Y1455808D01*
X7344971Y1464971D01*
X7335808Y1471093D01*
X7325000Y1473243D01*
X7314192Y1471093D01*
X7308635Y1467380D01*
X7300000Y1465857D01*
X7291365Y1467380D01*
X7285808Y1471093D01*
X7275000Y1473243D01*
X7264192Y1471093D01*
X7258635Y1467380D01*
X7250000Y1465858D01*
X7241365Y1467380D01*
X7235808Y1471093D01*
X7225000Y1473243D01*
X7214192Y1471093D01*
X7205030Y1464971D01*
X7194971D01*
X7185808Y1471093D01*
X7175000Y1473243D01*
X7164192Y1471093D01*
X7158635Y1467380D01*
X7158289Y1467285D01*
X7147252Y1471561D01*
X7145718Y1472861D01*
Y1524796D01*
X7150136Y1531407D01*
X7152868Y1545141D01*
X7150993Y1554568D01*
X7158640Y1567268D01*
X7388883D01*
X7489065Y1467086D01*
X7495366Y1462875D01*
X7502799Y1461397D01*
X8221980D01*
X8229413Y1462875D01*
X8235714Y1467086D01*
X8391184Y1622556D01*
X8395395Y1628857D01*
X8396873Y1636290D01*
X8396873Y1636291D01*
Y1960455D01*
X8438052Y2001634D01*
X8444777Y2000595D01*
X8445339Y2000050D01*
X8450153Y1986913D01*
X8448762Y1984832D01*
X8446807Y1975000D01*
X8448762Y1965167D01*
X8454332Y1956832D01*
X8462668Y1951262D01*
X8472500Y1949306D01*
X8538633D01*
X8538711Y1948914D01*
X8547132Y1936311D01*
X8559734Y1927890D01*
X8574600Y1924933D01*
X8618654D01*
Y1837700D01*
X8572300D01*
Y1662300D01*
X8742700D01*
Y1837700D01*
X8696347D01*
Y1941548D01*
X8726609Y1971810D01*
X8735030Y1984413D01*
X8737987Y1999279D01*
Y2081800D01*
X8735030Y2096666D01*
X8726609Y2109269D01*
X8696347Y2139531D01*
Y2312300D01*
X8742700D01*
Y2487700D01*
X8572300D01*
Y2438847D01*
X8545000D01*
X8530134Y2435889D01*
X8517532Y2427469D01*
X8515031Y2424968D01*
X8506611Y2412366D01*
X8503654Y2397500D01*
X8506611Y2382634D01*
X8515031Y2370031D01*
X8527634Y2361610D01*
X8542500Y2358653D01*
X8555069Y2361154D01*
X8572300D01*
Y2312300D01*
X8618654D01*
Y2196594D01*
X8605954Y2192741D01*
X8605668Y2193168D01*
X8597333Y2198738D01*
X8587500Y2200694D01*
X8472500D01*
X8462668Y2198738D01*
X8454332Y2193168D01*
X8448762Y2184833D01*
X8446807Y2175000D01*
X8448762Y2165167D01*
X8454332Y2156832D01*
Y2143168D01*
X8448762Y2134832D01*
X8446807Y2125000D01*
X8448762Y2115167D01*
X8453588Y2107945D01*
X8454048Y2106643D01*
X8453796Y2105281D01*
X8450043Y2094423D01*
X8427050D01*
X8419617Y2092945D01*
X8413316Y2088734D01*
X8383206Y2058625D01*
X8371473Y2063485D01*
Y2133314D01*
X8384173Y2140445D01*
X8394700Y2138351D01*
X8408434Y2141083D01*
X8420078Y2148862D01*
X8427857Y2160506D01*
X8430589Y2174240D01*
X8427857Y2187974D01*
X8420078Y2199618D01*
X8414123Y2203596D01*
Y2495673D01*
X8647543Y2729092D01*
X8777298D01*
X8784731Y2730571D01*
X8791032Y2734781D01*
X8866388Y2810137D01*
X9090481D01*
X9097914Y2811615D01*
X9104215Y2815826D01*
X9231917Y2943527D01*
X9493891D01*
X9501324Y2945005D01*
X9507625Y2949216D01*
X9548886Y2990477D01*
X9601300D01*
Y2969300D01*
X9905700D01*
Y3068700D01*
X9601300D01*
Y3029323D01*
X9540841D01*
X9533408Y3027845D01*
X9527107Y3023634D01*
X9527106Y3023634D01*
X9510433Y3006961D01*
X9498700Y3011821D01*
Y3068700D01*
X9507625Y3076216D01*
X9557986Y3126577D01*
X9601300D01*
Y3096300D01*
X9905700D01*
Y3195700D01*
X9601300D01*
Y3165423D01*
X9549942D01*
X9549941Y3165423D01*
X9542508Y3163945D01*
X9536207Y3159734D01*
X9536206Y3159734D01*
X9485845Y3109373D01*
X9381961D01*
X9380897Y3110592D01*
X9376335Y3122073D01*
X9382389Y3131134D01*
X9385346Y3146000D01*
X9382389Y3160866D01*
X9373969Y3173469D01*
X9361366Y3181889D01*
X9346500Y3184847D01*
X9158180D01*
X9143314Y3181889D01*
X9130711Y3173469D01*
X9122291Y3160866D01*
X9119334Y3146000D01*
X9122291Y3131134D01*
X9130711Y3118531D01*
X9143314Y3110111D01*
X9158180Y3107154D01*
X9185783D01*
X9191044Y3094454D01*
X9066013Y2969423D01*
X9027700D01*
Y3037700D01*
X8882300D01*
Y2874383D01*
X8847822D01*
X8843473Y2877952D01*
Y3582891D01*
X8841995Y3590324D01*
X8837784Y3596625D01*
X8764423Y3669987D01*
Y3687300D01*
X8817700D01*
Y3862700D01*
D02*
G37*
G36*
X4272700Y3212700D02*
X4127300D01*
Y3077300D01*
X4180577D01*
Y2965135D01*
X4144500D01*
X4135838Y2963412D01*
X4128495Y2958505D01*
X4123588Y2951162D01*
X4121865Y2942500D01*
Y2885500D01*
X4123588Y2876838D01*
X4128495Y2869495D01*
X4135838Y2864588D01*
X4144500Y2862865D01*
X4255500D01*
X4264162Y2864588D01*
X4271505Y2869495D01*
X4276412Y2876838D01*
X4278135Y2885500D01*
Y2942500D01*
X4276412Y2951162D01*
X4271505Y2958505D01*
X4264162Y2963412D01*
X4255500Y2965135D01*
X4219423D01*
Y3077300D01*
X4272700D01*
Y3212700D01*
D02*
G37*
G36*
X4047700D02*
X3902300D01*
Y3077300D01*
X3955577D01*
Y2965135D01*
X3919500D01*
X3910838Y2963412D01*
X3903495Y2958505D01*
X3898588Y2951162D01*
X3896865Y2942500D01*
Y2885500D01*
X3898588Y2876838D01*
X3903495Y2869495D01*
X3910838Y2864588D01*
X3919500Y2862865D01*
X4030500D01*
X4039162Y2864588D01*
X4046505Y2869495D01*
X4051412Y2876838D01*
X4053135Y2885500D01*
Y2942500D01*
X4051412Y2951162D01*
X4046505Y2958505D01*
X4039162Y2963412D01*
X4030500Y2965135D01*
X3994423D01*
Y3077300D01*
X4047700D01*
Y3212700D01*
D02*
G37*
G36*
X8022420Y2793946D02*
X8007554Y2790989D01*
X7994951Y2782568D01*
X7986531Y2769966D01*
X7983574Y2755100D01*
Y2674769D01*
X7983576Y2674757D01*
Y2654899D01*
X7986533Y2640034D01*
X7994954Y2627431D01*
X8007557Y2619010D01*
X8022422Y2616053D01*
X8037288Y2619010D01*
X8049891Y2627431D01*
X8058312Y2640034D01*
X8061269Y2654899D01*
Y2674766D01*
X8061267Y2674778D01*
Y2755100D01*
X8058310Y2769966D01*
X8049889Y2782568D01*
X8037286Y2790989D01*
X8022420Y2793946D01*
D02*
G37*
G36*
X7457500Y2788846D02*
X7442634Y2785889D01*
X7430031Y2777468D01*
X7421610Y2764866D01*
X7418653Y2750000D01*
Y2659668D01*
X7418654Y2659661D01*
Y2639797D01*
X7421612Y2624931D01*
X7430032Y2612328D01*
X7442635Y2603907D01*
X7457501Y2600950D01*
X7472367Y2603907D01*
X7484970Y2612328D01*
X7493390Y2624931D01*
X7496347Y2639797D01*
Y2659667D01*
X7496346Y2659673D01*
Y2750000D01*
X7493389Y2764866D01*
X7484968Y2777468D01*
X7472366Y2785889D01*
X7457500Y2788846D01*
D02*
G37*
G36*
X4425000Y2773846D02*
X4410134Y2770889D01*
X4397531Y2762468D01*
X4389111Y2749866D01*
X4386154Y2735000D01*
Y2577169D01*
X4385833Y2575560D01*
X4388791Y2560694D01*
X4397211Y2548091D01*
X4409814Y2539671D01*
X4424680Y2536713D01*
X4439546Y2539671D01*
X4452149Y2548091D01*
X4452469Y2548411D01*
X4460889Y2561014D01*
X4463847Y2575880D01*
Y2735000D01*
X4460889Y2749866D01*
X4452469Y2762468D01*
X4439866Y2770889D01*
X4425000Y2773846D01*
D02*
G37*
G36*
X4200000D02*
X4185134Y2770889D01*
X4172531Y2762468D01*
X4164111Y2749866D01*
X4161153Y2735000D01*
Y2575000D01*
X4164111Y2560134D01*
X4172531Y2547531D01*
X4185134Y2539110D01*
X4200000Y2536153D01*
X4214866Y2539110D01*
X4227469Y2547531D01*
X4235889Y2560134D01*
X4238846Y2575000D01*
Y2735000D01*
X4235889Y2749866D01*
X4227469Y2762468D01*
X4214866Y2770889D01*
X4200000Y2773846D01*
D02*
G37*
G36*
X3975000D02*
X3960134Y2770889D01*
X3947531Y2762468D01*
X3939110Y2749866D01*
X3936153Y2735000D01*
Y2575000D01*
X3939110Y2560134D01*
X3947531Y2547531D01*
X3960134Y2539110D01*
X3975000Y2536153D01*
X3989866Y2539110D01*
X4002468Y2547531D01*
X4010889Y2560134D01*
X4013846Y2575000D01*
Y2735000D01*
X4010889Y2749866D01*
X4002468Y2762468D01*
X3989866Y2770889D01*
X3975000Y2773846D01*
D02*
G37*
G36*
X3750000D02*
X3735134Y2770889D01*
X3722532Y2762468D01*
X3714111Y2749866D01*
X3711154Y2735000D01*
Y2575000D01*
X3714111Y2560134D01*
X3722532Y2547531D01*
X3735134Y2539110D01*
X3750000Y2536153D01*
X3764866Y2539110D01*
X3777469Y2547531D01*
X3785890Y2560134D01*
X3788847Y2575000D01*
Y2735000D01*
X3785890Y2749866D01*
X3777469Y2762468D01*
X3764866Y2770889D01*
X3750000Y2773846D01*
D02*
G37*
G36*
X3525000Y2773846D02*
X3510134Y2770889D01*
X3497531Y2762468D01*
X3489111Y2749865D01*
X3486154Y2735000D01*
Y2575000D01*
X3489111Y2560134D01*
X3497531Y2547531D01*
X3510134Y2539110D01*
X3525000Y2536153D01*
X3539866Y2539110D01*
X3552469Y2547531D01*
X3560890Y2560134D01*
X3563847Y2575000D01*
Y2735000D01*
X3560890Y2749865D01*
X3552469Y2762468D01*
X3539866Y2770889D01*
X3525000Y2773846D01*
D02*
G37*
G36*
X9419000Y2508051D02*
X9402100D01*
Y2470100D01*
X9484804D01*
X9472776Y2485776D01*
X9457025Y2497862D01*
X9438683Y2505459D01*
X9419000Y2508051D01*
D02*
G37*
G36*
X9325900D02*
X9309000D01*
X9289316Y2505459D01*
X9270974Y2497862D01*
X9255224Y2485776D01*
X9243195Y2470100D01*
X9325900D01*
Y2508051D01*
D02*
G37*
G36*
X9820100Y2506984D02*
Y2470100D01*
X9877804D01*
X9865776Y2485776D01*
X9850025Y2497862D01*
X9831683Y2505459D01*
X9820100Y2506984D01*
D02*
G37*
G36*
X9743900D02*
X9732317Y2505459D01*
X9713975Y2497862D01*
X9698224Y2485776D01*
X9686196Y2470100D01*
X9743900D01*
Y2506984D01*
D02*
G37*
G36*
X9877804Y2393900D02*
X9820100D01*
Y2357016D01*
X9831683Y2358541D01*
X9850025Y2366138D01*
X9865776Y2378224D01*
X9877804Y2393900D01*
D02*
G37*
G36*
X9743900D02*
X9686196D01*
X9698224Y2378224D01*
X9713975Y2366138D01*
X9732317Y2358541D01*
X9743900Y2357016D01*
Y2393900D01*
D02*
G37*
G36*
X8842500Y2438847D02*
X8827634Y2435889D01*
X8815031Y2427469D01*
X8806611Y2414866D01*
X8803653Y2400000D01*
Y2309669D01*
X8803655Y2309659D01*
Y2289800D01*
X8806613Y2274934D01*
X8815033Y2262331D01*
X8827636Y2253910D01*
X8842502Y2250953D01*
X8857368Y2253910D01*
X8869971Y2262331D01*
X8878391Y2274934D01*
X8881349Y2289800D01*
Y2309667D01*
X8881346Y2309677D01*
Y2400000D01*
X8878389Y2414866D01*
X8869969Y2427469D01*
X8857366Y2435889D01*
X8842500Y2438847D01*
D02*
G37*
G36*
X2659500Y2236038D02*
X509500D01*
X494790Y2233112D01*
X482320Y2224780D01*
X473988Y2212310D01*
X471062Y2197600D01*
X473988Y2182890D01*
X482320Y2170420D01*
X494790Y2162087D01*
X509500Y2159161D01*
X2659500D01*
X2674210Y2162087D01*
X2686680Y2170420D01*
X2695012Y2182890D01*
X2697938Y2197600D01*
X2695012Y2212310D01*
X2686680Y2224780D01*
X2674210Y2233112D01*
X2659500Y2236038D01*
D02*
G37*
G36*
X9027500Y2200694D02*
X8912500D01*
X8902667Y2198738D01*
X8894332Y2193168D01*
X8888762Y2184833D01*
X8886806Y2175000D01*
X8888762Y2165167D01*
X8894332Y2156832D01*
Y2143168D01*
X8888762Y2134832D01*
X8886806Y2125000D01*
X8888762Y2115167D01*
X8894332Y2106832D01*
X8902667Y2101262D01*
X8912500Y2099306D01*
X9027500D01*
X9037333Y2101262D01*
X9045668Y2106832D01*
X9051238Y2115167D01*
X9053194Y2125000D01*
X9051238Y2134832D01*
X9045668Y2143168D01*
Y2156832D01*
X9051238Y2165167D01*
X9053194Y2175000D01*
X9051238Y2184833D01*
X9045668Y2193168D01*
X9037333Y2198738D01*
X9027500Y2200694D01*
D02*
G37*
G36*
X9364000Y2432000D02*
D01*
Y2393900D01*
X9243195D01*
X9255224Y2378224D01*
X9260259Y2374361D01*
X9257634Y2360890D01*
X9245031Y2352469D01*
X9236610Y2339866D01*
X9233653Y2325000D01*
X9236610Y2310134D01*
X9243115Y2300400D01*
X9239597Y2290448D01*
X9237489Y2287700D01*
X9187300D01*
Y2202300D01*
Y2147300D01*
Y2045718D01*
X9041852D01*
X9037333Y2048738D01*
X9027500Y2050693D01*
X8912500D01*
X8902667Y2048738D01*
X8894332Y2043168D01*
X8888762Y2034832D01*
X8886806Y2025000D01*
X8888762Y2015167D01*
X8894332Y2006832D01*
Y1993168D01*
X8888762Y1984832D01*
X8886806Y1975000D01*
X8888762Y1965167D01*
X8894332Y1956832D01*
X8902667Y1951262D01*
X8912500Y1949306D01*
X9027500D01*
X9037333Y1951262D01*
X9041852Y1954282D01*
X9187300D01*
Y1897300D01*
Y1797300D01*
Y1712300D01*
X9237489D01*
X9239597Y1709552D01*
X9243115Y1699600D01*
X9236610Y1689866D01*
X9233653Y1675000D01*
X9236610Y1660134D01*
X9245031Y1647531D01*
X9257634Y1639111D01*
X9260259Y1625639D01*
X9255224Y1621776D01*
X9243195Y1606100D01*
X9364000D01*
Y1568000D01*
X9402100D01*
Y1486822D01*
X9406188Y1479249D01*
X9403753Y1467008D01*
Y1404200D01*
X9392300D01*
Y1295800D01*
X9480700D01*
Y1352346D01*
X9481446Y1356100D01*
Y1450917D01*
X9534568Y1504039D01*
X9542989Y1516642D01*
X9545946Y1531508D01*
Y1691009D01*
X9641369Y1786431D01*
X9649789Y1799034D01*
X9652747Y1813900D01*
Y2122100D01*
X9649789Y2136966D01*
X9641369Y2149569D01*
X9581969Y2208969D01*
X9569366Y2217390D01*
X9554500Y2220347D01*
X9438427D01*
X9436045Y2223558D01*
X9437574Y2231804D01*
X9440776Y2238498D01*
X9456797Y2249203D01*
X9468997Y2267462D01*
X9473282Y2289000D01*
X9468997Y2310538D01*
X9456797Y2328797D01*
X9438538Y2340997D01*
X9424276Y2343834D01*
X9424697Y2356699D01*
X9438683Y2358541D01*
X9457025Y2366138D01*
X9472776Y2378224D01*
X9484804Y2393900D01*
X9364000D01*
Y2432000D01*
D02*
G37*
G36*
X3802700Y1962700D02*
X3632300D01*
Y1787300D01*
X3802700D01*
Y1844688D01*
X3815410D01*
X3816586Y1843903D01*
X3830320Y1841171D01*
X3844054Y1843903D01*
X3855698Y1851682D01*
X3863477Y1863326D01*
X3866209Y1877060D01*
X3863477Y1890794D01*
X3855698Y1902438D01*
X3844054Y1910217D01*
X3830320Y1912949D01*
X3816586Y1910217D01*
X3815410Y1909432D01*
X3802700D01*
Y1962700D01*
D02*
G37*
G36*
X3532500Y1913847D02*
X3530087Y1913367D01*
X3416300D01*
X3401434Y1910409D01*
X3388831Y1901989D01*
X3380411Y1889386D01*
X3377453Y1874520D01*
X3380411Y1859654D01*
X3388831Y1847051D01*
X3401434Y1838631D01*
X3416300Y1835673D01*
X3532020D01*
X3546886Y1838631D01*
X3559489Y1847051D01*
X3559969Y1847531D01*
X3568390Y1860134D01*
X3571347Y1875000D01*
X3568390Y1889866D01*
X3559969Y1902469D01*
X3547366Y1910889D01*
X3532500Y1913847D01*
D02*
G37*
G36*
X8842502Y1899051D02*
X8827636Y1896094D01*
X8815033Y1887673D01*
X8806613Y1875070D01*
X8803655Y1860205D01*
Y1840343D01*
X8803653Y1840333D01*
Y1750000D01*
X8806611Y1735134D01*
X8815031Y1722531D01*
X8827634Y1714111D01*
X8842500Y1711154D01*
X8857366Y1714111D01*
X8869969Y1722531D01*
X8878389Y1735134D01*
X8881346Y1750000D01*
Y1840325D01*
X8881349Y1840335D01*
Y1860205D01*
X8878391Y1875070D01*
X8869971Y1887673D01*
X8857368Y1896094D01*
X8842502Y1899051D01*
D02*
G37*
G36*
X9820100Y1642985D02*
Y1606100D01*
X9877804D01*
X9865776Y1621776D01*
X9850025Y1633862D01*
X9831683Y1641460D01*
X9820100Y1642985D01*
D02*
G37*
G36*
X9743900D02*
X9732317Y1641460D01*
X9713975Y1633862D01*
X9698224Y1621776D01*
X9686196Y1606100D01*
X9743900D01*
Y1642985D01*
D02*
G37*
G36*
X3520000Y1613846D02*
X3506627Y1611186D01*
X3416100D01*
X3401234Y1608229D01*
X3388632Y1599808D01*
X3380211Y1587206D01*
X3377254Y1572340D01*
X3380211Y1557474D01*
X3388632Y1544871D01*
X3401234Y1536450D01*
X3416100Y1533493D01*
X3517340D01*
X3532206Y1536450D01*
X3544809Y1544871D01*
X3547469Y1547531D01*
X3555890Y1560134D01*
X3558847Y1575000D01*
X3555890Y1589866D01*
X3547469Y1602468D01*
X3534866Y1610889D01*
X3520000Y1613846D01*
D02*
G37*
G36*
X9877804Y1529900D02*
X9820100D01*
Y1493016D01*
X9831683Y1494541D01*
X9850025Y1502138D01*
X9865776Y1514224D01*
X9877804Y1529900D01*
D02*
G37*
G36*
X9743900D02*
X9686196D01*
X9698224Y1514224D01*
X9713975Y1502138D01*
X9732317Y1494541D01*
X9743900Y1493016D01*
Y1529900D01*
D02*
G37*
G36*
X9325900Y1529900D02*
X9243195D01*
X9255224Y1514224D01*
X9270974Y1502138D01*
X9289316Y1494541D01*
X9309000Y1491950D01*
X9325900D01*
Y1529900D01*
D02*
G37*
G36*
X2182161Y1489187D02*
X2076781D01*
X2061916Y1486230D01*
X2049313Y1477809D01*
X2040892Y1465207D01*
X2037935Y1450341D01*
X2040892Y1435475D01*
X2049313Y1422872D01*
X2061916Y1414451D01*
X2076781Y1411494D01*
X2180792D01*
X2182502Y1411154D01*
X2197367Y1414111D01*
X2209970Y1422532D01*
X2218391Y1435135D01*
X2221348Y1450001D01*
X2218391Y1464867D01*
X2209970Y1477469D01*
X2209630Y1477809D01*
X2197027Y1486230D01*
X2182161Y1489187D01*
D02*
G37*
G36*
X1700000Y1476795D02*
X1496000D01*
X1476179Y1472853D01*
X1459375Y1461625D01*
X1448147Y1444821D01*
X1444205Y1425000D01*
X1448147Y1405179D01*
X1459375Y1388375D01*
X1476179Y1377147D01*
X1496000Y1373205D01*
X1700000D01*
X1719821Y1377147D01*
X1736625Y1388375D01*
X1747852Y1405179D01*
X1751795Y1425000D01*
X1747852Y1444821D01*
X1736625Y1461625D01*
X1719821Y1472853D01*
X1700000Y1476795D01*
D02*
G37*
G36*
X3417339Y1355626D02*
X3408390Y1353846D01*
X3305699D01*
X3290833Y1350889D01*
X3278230Y1342468D01*
X3269810Y1329866D01*
X3266852Y1315000D01*
X3269810Y1300134D01*
X3278230Y1287531D01*
X3290833Y1279110D01*
X3305699Y1276153D01*
X3415559D01*
X3430425Y1279110D01*
X3443028Y1287531D01*
X3444808Y1289311D01*
X3453229Y1301914D01*
X3456186Y1316780D01*
X3453229Y1331646D01*
X3444808Y1344249D01*
X3432205Y1352669D01*
X3417339Y1355626D01*
D02*
G37*
G36*
X8250000Y1338846D02*
X8140000D01*
X8125134Y1335889D01*
X8112531Y1327469D01*
X8104111Y1314866D01*
X8101153Y1300000D01*
X8104111Y1285134D01*
X8112531Y1272531D01*
X8125134Y1264111D01*
X8140000Y1261153D01*
X8250000D01*
X8264866Y1264111D01*
X8277469Y1272531D01*
X8285889Y1285134D01*
X8288847Y1300000D01*
X8285889Y1314866D01*
X8277469Y1327469D01*
X8264866Y1335889D01*
X8250000Y1338846D01*
D02*
G37*
G36*
X2452701Y1537701D02*
X2282302D01*
Y1362301D01*
X2334978D01*
Y1328559D01*
X2337935Y1313693D01*
X2346356Y1301090D01*
X2365692Y1281755D01*
Y1262701D01*
X2347301D01*
Y1177301D01*
X2477701D01*
Y1262701D01*
X2443385D01*
Y1297845D01*
X2440428Y1312711D01*
X2432007Y1325314D01*
X2412671Y1344649D01*
Y1362301D01*
X2452701D01*
Y1411153D01*
X2975000D01*
X2989866Y1414110D01*
X3002468Y1422531D01*
X3010889Y1435134D01*
X3013846Y1450000D01*
X3010889Y1464866D01*
X3002468Y1477468D01*
X2989866Y1485889D01*
X2975000Y1488846D01*
X2452701D01*
Y1537701D01*
D02*
G37*
G36*
X2015821Y1164067D02*
X2000956Y1161110D01*
X1988353Y1152689D01*
X1979932Y1140087D01*
X1976975Y1125221D01*
X1979932Y1110355D01*
X1988353Y1097752D01*
X1988573Y1097532D01*
X2001176Y1089111D01*
X2016041Y1086154D01*
X2127501D01*
X2142367Y1089111D01*
X2154970Y1097532D01*
X2163391Y1110135D01*
X2166348Y1125001D01*
X2163391Y1139867D01*
X2154970Y1152469D01*
X2142367Y1160890D01*
X2127501Y1163847D01*
X2016927D01*
X2015821Y1164067D01*
D02*
G37*
G36*
X9555000Y1274049D02*
X9540134Y1271091D01*
X9527531Y1262671D01*
X9519110Y1250068D01*
X9516153Y1235202D01*
Y1215332D01*
X9516153Y1215330D01*
Y1125000D01*
X9519111Y1110134D01*
X9527531Y1097531D01*
X9540134Y1089111D01*
X9555000Y1086154D01*
X9569866Y1089111D01*
X9582469Y1097531D01*
X9590889Y1110134D01*
X9593846Y1125000D01*
Y1215331D01*
X9593846Y1215333D01*
Y1235202D01*
X9590889Y1250068D01*
X9582468Y1262671D01*
X9569866Y1271091D01*
X9555000Y1274049D01*
D02*
G37*
G36*
X7592502Y1249050D02*
X7577636Y1246093D01*
X7565033Y1237672D01*
X7556613Y1225069D01*
X7553655Y1210203D01*
Y1190341D01*
X7553654Y1190332D01*
Y1100000D01*
X7556611Y1085134D01*
X7565032Y1072532D01*
X7577634Y1064111D01*
X7592500Y1061154D01*
X7607366Y1064111D01*
X7619969Y1072532D01*
X7628390Y1085134D01*
X7631347Y1100000D01*
Y1190325D01*
X7631348Y1190334D01*
Y1210203D01*
X7628391Y1225069D01*
X7619971Y1237672D01*
X7607368Y1246093D01*
X7592502Y1249050D01*
D02*
G37*
G36*
X9257700Y1404200D02*
X9169300D01*
Y1295800D01*
X9202763D01*
X9276272Y1222291D01*
X9272300Y1212700D01*
X9272300D01*
Y1163847D01*
X9250000D01*
X9235134Y1160889D01*
X9222531Y1152469D01*
X9214111Y1139866D01*
X9211154Y1125000D01*
X9214111Y1110134D01*
X9222531Y1097531D01*
X9235134Y1089111D01*
X9250000Y1086154D01*
X9272300D01*
Y1037300D01*
X9417700D01*
Y1212700D01*
X9393126D01*
X9387868Y1220569D01*
X9257700Y1350737D01*
Y1404200D01*
D02*
G37*
G36*
X2796940Y1171286D02*
X2782074Y1168329D01*
X2769471Y1159909D01*
X2761051Y1147306D01*
X2758094Y1132440D01*
Y1077028D01*
X2757049Y1075464D01*
X2754092Y1060598D01*
X2757049Y1045732D01*
X2765469Y1033130D01*
X2778072Y1024709D01*
X2792938Y1021752D01*
X2807804Y1024709D01*
X2820407Y1033130D01*
X2824409Y1037132D01*
X2832829Y1049734D01*
X2835787Y1064600D01*
Y1132440D01*
X2832829Y1147306D01*
X2824409Y1159909D01*
X2811806Y1168329D01*
X2796940Y1171286D01*
D02*
G37*
G36*
X3023000D02*
X3008134Y1168329D01*
X2995531Y1159909D01*
X2987111Y1147306D01*
X2984154Y1132440D01*
Y1019500D01*
X2987111Y1004634D01*
X2995531Y992032D01*
X2997531Y990031D01*
X3010134Y981611D01*
X3025000Y978654D01*
X3039866Y981611D01*
X3052469Y990031D01*
X3060889Y1002634D01*
X3063847Y1017500D01*
X3061847Y1027554D01*
Y1132440D01*
X3058889Y1147306D01*
X3050469Y1159909D01*
X3037866Y1168329D01*
X3023000Y1171286D01*
D02*
G37*
G36*
X7620000Y953778D02*
X7604709Y950736D01*
X7591745Y942075D01*
X7583084Y929111D01*
X7580042Y913820D01*
Y851236D01*
X7583084Y835945D01*
X7591745Y822982D01*
X7604709Y814320D01*
X7620000Y811278D01*
X7635291Y814320D01*
X7648255Y822982D01*
X7656916Y835945D01*
X7659958Y851236D01*
Y913820D01*
X7656916Y929111D01*
X7648255Y942075D01*
X7635291Y950736D01*
X7620000Y953778D01*
D02*
G37*
G36*
X9022100Y667926D02*
Y596900D01*
X9093127D01*
X9084802Y616998D01*
X9066304Y641104D01*
X9042198Y659601D01*
X9022100Y667926D01*
D02*
G37*
G36*
X8945900D02*
X8925803Y659601D01*
X8901696Y641104D01*
X8883199Y616998D01*
X8874874Y596900D01*
X8945900D01*
Y667926D01*
D02*
G37*
G36*
X1633126Y520700D02*
X1562100D01*
Y449674D01*
X1582198Y457999D01*
X1606304Y476496D01*
X1624801Y500602D01*
X1633126Y520700D01*
D02*
G37*
G36*
X9093127D02*
X9022100D01*
Y449674D01*
X9042198Y457999D01*
X9066304Y476496D01*
X9084802Y500602D01*
X9093127Y520700D01*
D02*
G37*
G36*
X8945900D02*
X8874874D01*
X8883199Y500602D01*
X8901696Y476496D01*
X8925803Y457999D01*
X8945900Y449674D01*
Y520700D01*
D02*
G37*
G36*
X1485900D02*
X1414874D01*
X1423199Y500602D01*
X1441696Y476496D01*
X1465802Y457999D01*
X1485900Y449674D01*
Y520700D01*
D02*
G37*
G36*
X2217701Y397701D02*
X2092302D01*
Y312301D01*
X2150130D01*
Y237701D01*
X2097302D01*
Y62301D01*
X2267702D01*
Y237701D01*
X2214874D01*
Y300772D01*
X2217701Y312301D01*
X2227969Y318174D01*
X2230402Y319455D01*
X2241881Y317171D01*
X2255616Y319903D01*
X2267259Y327683D01*
X2275039Y339326D01*
X2277771Y353061D01*
X2275039Y366795D01*
X2267259Y378438D01*
X2255616Y386218D01*
X2241881Y388950D01*
X2230402Y386667D01*
X2217701Y389364D01*
Y397701D01*
D02*
G37*
G36*
X9788100Y421735D02*
Y288100D01*
X9921735D01*
X9912833Y317447D01*
X9896545Y347919D01*
X9874627Y374627D01*
X9847919Y396545D01*
X9817447Y412833D01*
X9788100Y421735D01*
D02*
G37*
G36*
X9711900D02*
X9682553Y412833D01*
X9652082Y396545D01*
X9625373Y374627D01*
X9603455Y347919D01*
X9587168Y317447D01*
X9578265Y288100D01*
X9711900D01*
Y421735D01*
D02*
G37*
G36*
X288100D02*
Y288100D01*
X421735D01*
X412833Y317447D01*
X396545Y347919D01*
X374627Y374627D01*
X347919Y396545D01*
X317447Y412833D01*
X288100Y421735D01*
D02*
G37*
G36*
X211900D02*
X182553Y412833D01*
X152081Y396545D01*
X125373Y374627D01*
X103455Y347919D01*
X87167Y317447D01*
X78265Y288100D01*
X211900D01*
Y421735D01*
D02*
G37*
G36*
X2483181Y191247D02*
X2369902D01*
X2355036Y188290D01*
X2342433Y179869D01*
X2340033Y177469D01*
X2331612Y164867D01*
X2328655Y150001D01*
X2331612Y135135D01*
X2340033Y122532D01*
X2352636Y114111D01*
X2367501Y111154D01*
X2379567Y113554D01*
X2483181D01*
X2498047Y116511D01*
X2510650Y124932D01*
X2519071Y137535D01*
X2522028Y152401D01*
X2519071Y167267D01*
X2510650Y179869D01*
X2498047Y188290D01*
X2483181Y191247D01*
D02*
G37*
G36*
X9921735Y211900D02*
X9788100D01*
Y78265D01*
X9817447Y87167D01*
X9847919Y103455D01*
X9874627Y125373D01*
X9896545Y152081D01*
X9912833Y182553D01*
X9921735Y211900D01*
D02*
G37*
G36*
X9711900D02*
X9578265D01*
X9587168Y182553D01*
X9603455Y152081D01*
X9625373Y125373D01*
X9652082Y103455D01*
X9682553Y87167D01*
X9711900Y78265D01*
Y211900D01*
D02*
G37*
G36*
X421735D02*
X288100D01*
Y78265D01*
X317447Y87167D01*
X347919Y103455D01*
X374627Y125373D01*
X396545Y152081D01*
X412833Y182553D01*
X421735Y211900D01*
D02*
G37*
G36*
X211900D02*
X78265D01*
X87167Y182553D01*
X103455Y152081D01*
X125373Y125373D01*
X152081Y103455D01*
X182553Y87167D01*
X211900Y78265D01*
Y211900D01*
D02*
G37*
%LPD*%
G36*
X7362300Y2972300D02*
X7525498D01*
X7531981Y2972300D01*
X7539983Y2961925D01*
X7539751Y2959720D01*
X7472194Y2892163D01*
X7435996D01*
X7432018Y2898118D01*
X7420374Y2905897D01*
X7406640Y2908629D01*
X7392906Y2905897D01*
X7381262Y2898118D01*
X7373483Y2886474D01*
X7370751Y2872740D01*
X7372270Y2865099D01*
X7360566Y2858843D01*
X7287975Y2931434D01*
X7281674Y2935644D01*
X7274241Y2937123D01*
X7266304D01*
X7220706Y2982721D01*
X7225566Y2994455D01*
X7242550D01*
X7249437Y2995824D01*
X7255275Y2999725D01*
X7259176Y3005563D01*
X7260546Y3012450D01*
Y3018654D01*
X7362300D01*
Y2972300D01*
D02*
G37*
G36*
X6890845Y2798630D02*
X6889021Y2791934D01*
X6885168Y2786346D01*
X6805067D01*
X6792500Y2788846D01*
X6777634Y2785889D01*
X6765031Y2777468D01*
X6756611Y2764866D01*
X6753653Y2750000D01*
X6756611Y2735134D01*
X6765031Y2722531D01*
X6767531Y2720031D01*
X6780134Y2711611D01*
X6795000Y2708653D01*
X6887500D01*
X6902077Y2711553D01*
X6904370Y2711970D01*
X6914777Y2704702D01*
Y2686959D01*
X6916255Y2679526D01*
X6920466Y2673225D01*
X7000719Y2592972D01*
X7000705Y2586754D01*
X6996022Y2582054D01*
X6987075Y2580247D01*
X6985808Y2581093D01*
X6975000Y2583243D01*
X6964192Y2581093D01*
X6958635Y2577380D01*
X6950000Y2575857D01*
X6941365Y2577380D01*
X6935808Y2581093D01*
X6925000Y2583243D01*
X6914192Y2581093D01*
X6901817Y2588098D01*
X6901418Y2589747D01*
X6901648Y2591556D01*
X6908937Y2602466D01*
X6911669Y2616200D01*
X6908937Y2629934D01*
X6901158Y2641578D01*
X6889514Y2649357D01*
X6875780Y2652089D01*
X6862046Y2649357D01*
X6850402Y2641578D01*
X6842623Y2629934D01*
X6839891Y2616200D01*
X6840328Y2614001D01*
X6828624Y2607745D01*
X6803592Y2632776D01*
X6804989Y2639800D01*
X6802257Y2653534D01*
X6794478Y2665177D01*
X6782834Y2672957D01*
X6769100Y2675689D01*
X6755366Y2672957D01*
X6743722Y2665177D01*
X6735943Y2653534D01*
X6733211Y2639800D01*
X6735446Y2628560D01*
X6733844Y2622387D01*
X6729278Y2614384D01*
X6722216Y2609666D01*
X6715185Y2610819D01*
X6708564Y2613203D01*
X6708158Y2615244D01*
X6700378Y2626887D01*
X6688734Y2634667D01*
X6675000Y2637399D01*
X6661266Y2634667D01*
X6652572Y2628858D01*
X6642416Y2632502D01*
X6639872Y2634484D01*
Y2662300D01*
X6692700D01*
Y2837700D01*
X6522300D01*
Y2787492D01*
X6404980D01*
Y2842820D01*
X6410298Y2853317D01*
X6836158D01*
X6890845Y2798630D01*
D02*
G37*
G36*
X7243336Y2905154D02*
X7244286Y2901668D01*
X7243041Y2889683D01*
X7240030Y2887671D01*
X7231609Y2875068D01*
X7228652Y2860203D01*
Y2840332D01*
X7228653Y2840327D01*
Y2750000D01*
X7231610Y2735134D01*
X7240031Y2722531D01*
X7252634Y2714110D01*
X7267500Y2711153D01*
X7282366Y2714110D01*
X7294968Y2722531D01*
X7303389Y2735134D01*
X7306346Y2750000D01*
Y2840165D01*
X7308791Y2842546D01*
X7318079Y2846393D01*
X7339627Y2824846D01*
Y2675154D01*
X7264852Y2600380D01*
X7254987Y2608476D01*
X7259457Y2615166D01*
X7262189Y2628900D01*
X7259457Y2642634D01*
X7251678Y2654278D01*
X7240034Y2662057D01*
X7226300Y2664789D01*
X7212566Y2662057D01*
X7207123Y2658421D01*
X7194423Y2665209D01*
Y2934517D01*
X7194029Y2936501D01*
X7205733Y2942757D01*
X7243336Y2905154D01*
D02*
G37*
G36*
X5947300Y2412300D02*
X6024282D01*
Y2342700D01*
X5972300D01*
Y2177300D01*
X6088400D01*
X6102929Y2162771D01*
X6098069Y2151038D01*
X5964064D01*
X5964062Y2151038D01*
X5956134Y2149461D01*
X5949412Y2144970D01*
X5949412Y2144969D01*
X5899433Y2094991D01*
X5887700Y2099851D01*
Y2142700D01*
X5712300D01*
Y2014821D01*
X5700567Y2009961D01*
X5565444Y2145084D01*
X5559143Y2149294D01*
X5551709Y2150773D01*
X5527700D01*
Y2287700D01*
X5382300D01*
Y2112300D01*
X5506772D01*
X5508650Y2111926D01*
X5508651Y2111927D01*
X5543664D01*
X5738925Y1916666D01*
X5745226Y1912455D01*
X5752306Y1911047D01*
X5752888Y1910120D01*
X5756053Y1898277D01*
X5755316Y1897784D01*
X5735232Y1877700D01*
X5587300D01*
Y1824423D01*
X5512700D01*
Y1877700D01*
X5456333D01*
X5449545Y1890400D01*
X5453517Y1896346D01*
X5456249Y1910080D01*
X5453517Y1923814D01*
X5445738Y1935458D01*
X5434094Y1943237D01*
X5420360Y1945969D01*
X5406626Y1943237D01*
X5394982Y1935458D01*
X5387203Y1923814D01*
X5384471Y1910080D01*
X5387203Y1896346D01*
X5391175Y1890400D01*
X5384387Y1877700D01*
X5337300D01*
Y1766557D01*
X5324600Y1760194D01*
X5320403Y1763332D01*
Y1915160D01*
X5318925Y1922593D01*
X5314714Y1928894D01*
X5125824Y2117784D01*
X5119523Y2121995D01*
X5112090Y2123473D01*
X4847054D01*
X4656793Y2313734D01*
X4650492Y2317945D01*
X4643059Y2319423D01*
X4502700D01*
Y2387700D01*
X4357300D01*
Y2212300D01*
X4410577D01*
Y2112700D01*
X4357300D01*
Y1937300D01*
X4502700D01*
Y2112700D01*
X4449423D01*
Y2212300D01*
X4502700D01*
Y2280577D01*
X4635014D01*
X4825274Y2090317D01*
X4825275Y2090316D01*
X4831576Y2086106D01*
X4839009Y2084627D01*
X4839010Y2084627D01*
X4887300D01*
Y1932300D01*
X4891407D01*
X4896267Y1920567D01*
X4869283Y1893582D01*
X4864792Y1886861D01*
X4863214Y1878933D01*
X4851006Y1877700D01*
X4812300D01*
Y1761600D01*
X4610350Y1559650D01*
X4605859Y1552928D01*
X4604282Y1545000D01*
X4604282Y1544998D01*
Y1302700D01*
X4537300D01*
Y1163746D01*
X4506838D01*
X4505206Y1163071D01*
X4503458Y1163325D01*
X4500512Y1161126D01*
X4497117Y1159720D01*
X4496441Y1158088D01*
X4495026Y1157032D01*
X4493851Y1155058D01*
X4491960Y1153985D01*
X4477448Y1152334D01*
X4476937Y1152676D01*
X4470050Y1154046D01*
X4354950D01*
X4348064Y1152676D01*
X4337476Y1160045D01*
X4335416Y1161424D01*
X4332874Y1161932D01*
X4332671Y1162071D01*
X4332416Y1162023D01*
X4331479Y1162210D01*
X4327770Y1163746D01*
X4285226D01*
X4283925Y1163208D01*
X4282544Y1163482D01*
X4253564Y1157718D01*
X4252394Y1156935D01*
X4250986D01*
X4223688Y1145628D01*
X4222692Y1144632D01*
X4221311Y1144358D01*
X4196743Y1127942D01*
X4195961Y1126772D01*
X4194660Y1126233D01*
X4173767Y1105340D01*
X4173228Y1104039D01*
X4172057Y1103257D01*
X4155642Y1078689D01*
X4155367Y1077308D01*
X4154372Y1076312D01*
X4143064Y1049014D01*
Y1047606D01*
X4142282Y1046435D01*
X4136518Y1017456D01*
X4136792Y1016075D01*
X4136254Y1014774D01*
Y747376D01*
X4127573Y738330D01*
X4126269Y737700D01*
X4113746D01*
Y849987D01*
X4113735Y850013D01*
Y850161D01*
X4113549Y850610D01*
X4113705Y851070D01*
X4112932Y862724D01*
X4111917Y864779D01*
X4111918Y867071D01*
X4105087Y883575D01*
X4103153Y885510D01*
X4102107Y888036D01*
X4088044Y902104D01*
X4085518Y903152D01*
X4083584Y905085D01*
X4065208Y912699D01*
X4062472Y912699D01*
X4059945Y913746D01*
X4050000Y913746D01*
X3825674Y913746D01*
X3823500Y913961D01*
X3818897Y915867D01*
X3815867Y918897D01*
X3813961Y923500D01*
X3813746Y925674D01*
Y1000000D01*
X3813746Y1000001D01*
Y1000005D01*
X3813576Y1000416D01*
X3813721Y1000836D01*
X3813012Y1012544D01*
X3811993Y1014635D01*
X3811995Y1016961D01*
X3805124Y1033594D01*
X3803188Y1035534D01*
X3802139Y1038066D01*
X3788066Y1052139D01*
X3785534Y1053188D01*
X3783595Y1055124D01*
X3769411Y1060983D01*
X3764459Y1068731D01*
X3762700Y1073888D01*
Y1094077D01*
X3811955D01*
Y1090950D01*
X3813324Y1084064D01*
X3817225Y1078225D01*
X3823063Y1074324D01*
X3829950Y1072955D01*
X3945050D01*
X3951937Y1074324D01*
X3957775Y1078225D01*
X3961676Y1084064D01*
X3963046Y1090950D01*
Y1136050D01*
X3961676Y1142937D01*
X3957775Y1148775D01*
X3951937Y1152676D01*
X3945050Y1154046D01*
X3829950D01*
X3823063Y1152676D01*
X3817225Y1148775D01*
X3813324Y1142937D01*
X3811955Y1136050D01*
Y1132923D01*
X3762700D01*
Y1217700D01*
X3587300D01*
Y1151923D01*
X3505039D01*
Y1205577D01*
X3518620D01*
X3526053Y1207055D01*
X3532354Y1211266D01*
X3567194Y1246105D01*
X3567194Y1246106D01*
X3571405Y1252407D01*
X3572883Y1259840D01*
X3572883Y1259841D01*
Y1352404D01*
X3574600Y1353552D01*
X3587300Y1346763D01*
Y1232300D01*
X3762700D01*
Y1402700D01*
X3744423D01*
Y1487300D01*
X3802700D01*
Y1650177D01*
X3834155D01*
X3877108Y1607224D01*
X3875711Y1600200D01*
X3878443Y1586466D01*
X3886222Y1574822D01*
X3892177Y1570844D01*
Y1550200D01*
X3877300D01*
Y1459800D01*
X3955677D01*
Y1387265D01*
X3873766Y1305355D01*
X3869556Y1299053D01*
X3868077Y1291620D01*
Y1281046D01*
X3829950D01*
X3823063Y1279676D01*
X3817225Y1275775D01*
X3813324Y1269937D01*
X3811955Y1263050D01*
Y1217950D01*
X3813324Y1211064D01*
X3817225Y1205225D01*
X3823063Y1201324D01*
X3829950Y1199955D01*
X3945050D01*
X3951937Y1201324D01*
X3957775Y1205225D01*
X3961676Y1211064D01*
X3963046Y1217950D01*
Y1263050D01*
X3961676Y1269937D01*
X3957775Y1275775D01*
X3951937Y1279676D01*
X3945050Y1281046D01*
X3922355D01*
X3917094Y1293746D01*
X3988834Y1365485D01*
X3988834Y1365486D01*
X3993045Y1371787D01*
X3994523Y1379220D01*
Y1459800D01*
X4071096D01*
X4072700Y1459800D01*
X4084931Y1458667D01*
X4092411Y1447471D01*
X4105014Y1439050D01*
X4119880Y1436093D01*
X4232440D01*
X4247306Y1439050D01*
X4259908Y1447471D01*
X4259969Y1447532D01*
X4268389Y1460134D01*
X4271347Y1475000D01*
X4268389Y1489866D01*
X4259969Y1502469D01*
X4247366Y1510890D01*
X4232500Y1513847D01*
X4232198Y1513786D01*
X4119880D01*
X4105014Y1510829D01*
X4092411Y1502408D01*
X4085400Y1491915D01*
X4075770Y1492880D01*
X4072700Y1494028D01*
Y1522732D01*
X4128425Y1578457D01*
X4142813Y1574884D01*
X4148152Y1566892D01*
X4159796Y1559112D01*
X4173530Y1556380D01*
X4187264Y1559112D01*
X4198908Y1566892D01*
X4202886Y1572846D01*
X4282270D01*
X4289703Y1574325D01*
X4296004Y1578535D01*
X4379769Y1662300D01*
X4502700D01*
Y1837700D01*
X4408473D01*
Y1840950D01*
X4406994Y1848383D01*
X4402784Y1854684D01*
X4292700Y1964769D01*
Y2112700D01*
X4147300D01*
Y1937300D01*
X4265231D01*
X4353330Y1849201D01*
X4357300Y1837700D01*
X4357300D01*
X4357300Y1837699D01*
Y1694769D01*
X4274224Y1611693D01*
X4202886D01*
X4198908Y1617647D01*
X4189891Y1623672D01*
X4187264Y1625427D01*
X4184782Y1638870D01*
X4185773Y1643850D01*
Y1662300D01*
X4292700D01*
Y1837700D01*
X4147300D01*
Y1698227D01*
X4146927Y1696350D01*
Y1651895D01*
X4045231Y1550200D01*
X3931023D01*
Y1570844D01*
X3936978Y1574822D01*
X3941631Y1581787D01*
X3955165Y1586362D01*
X3957681Y1586337D01*
X3960234Y1584631D01*
X3975100Y1581673D01*
X3989966Y1584631D01*
X4002569Y1593051D01*
X4010989Y1605654D01*
X4013947Y1620520D01*
Y1649800D01*
X4072700D01*
Y1740200D01*
X4071422D01*
Y1745203D01*
X4068958Y1757591D01*
X4061941Y1768093D01*
X4052177Y1777857D01*
X4051437Y1781574D01*
X4043658Y1793218D01*
X4032014Y1800997D01*
X4018280Y1803729D01*
X4004546Y1800997D01*
X3992902Y1793218D01*
X3985123Y1781574D01*
X3982391Y1767840D01*
X3985123Y1754106D01*
X3992307Y1743353D01*
X3991284Y1739798D01*
X3986302Y1731598D01*
X3975000Y1733846D01*
X3960134Y1730889D01*
X3955400Y1727726D01*
X3942700Y1734515D01*
Y1740200D01*
X3925943D01*
Y2285575D01*
X4079665Y2439297D01*
X5860904D01*
X5864882Y2433342D01*
X5876526Y2425563D01*
X5890260Y2422831D01*
X5903994Y2425563D01*
X5915638Y2433342D01*
X5923417Y2444986D01*
X5926149Y2458720D01*
X5923417Y2472454D01*
X5915638Y2484098D01*
X5903994Y2491877D01*
X5894620Y2493742D01*
X5882969Y2500270D01*
X5880237Y2514004D01*
X5874146Y2523121D01*
X5874082Y2526856D01*
X5875305Y2533637D01*
X5876855Y2537984D01*
X5880225Y2540236D01*
X5914617Y2574627D01*
X5947300D01*
Y2412300D01*
D02*
G37*
G36*
X6553035Y2339976D02*
X6548175Y2328243D01*
X6509881D01*
X6507389Y2329908D01*
X6495000Y2332372D01*
X6457352D01*
Y2363854D01*
X6459549Y2374900D01*
X6456817Y2388634D01*
X6449038Y2400278D01*
X6437394Y2408057D01*
X6423660Y2410789D01*
X6409926Y2408057D01*
X6398282Y2400278D01*
X6390503Y2388634D01*
X6387771Y2374900D01*
X6390503Y2361166D01*
X6392608Y2358015D01*
Y2304275D01*
X6391758Y2300000D01*
X6393907Y2289192D01*
X6397620Y2283635D01*
X6399143Y2275000D01*
X6397620Y2266365D01*
X6393907Y2260808D01*
X6391758Y2250000D01*
X6393907Y2239192D01*
X6397620Y2233635D01*
X6399143Y2225000D01*
X6397620Y2216365D01*
X6393907Y2210808D01*
X6391758Y2200000D01*
X6393907Y2189192D01*
X6397620Y2183635D01*
X6399143Y2175000D01*
X6397620Y2166365D01*
X6393907Y2160808D01*
X6391758Y2150000D01*
X6393907Y2139192D01*
X6397620Y2133635D01*
X6397715Y2133289D01*
X6393440Y2122252D01*
X6392140Y2120718D01*
X6312673D01*
X6288421Y2144970D01*
X6281700Y2149461D01*
X6273771Y2151038D01*
X6273770Y2151038D01*
X6173262D01*
X6117700Y2206600D01*
Y2285770D01*
X6129433Y2290630D01*
X6167666Y2252397D01*
X6169111Y2245134D01*
X6177532Y2232531D01*
X6190134Y2224111D01*
X6205000Y2221154D01*
X6219866Y2224111D01*
X6232469Y2232531D01*
X6240890Y2245134D01*
X6243847Y2260000D01*
Y2270000D01*
X6240890Y2284866D01*
X6232469Y2297469D01*
X6181398Y2348539D01*
X6178990Y2360648D01*
X6178846Y2360862D01*
Y2372500D01*
X6175889Y2387366D01*
X6167468Y2399969D01*
X6154866Y2408389D01*
X6140000Y2411346D01*
X6129108Y2409180D01*
X6119477Y2416232D01*
X6117700Y2418696D01*
Y2574627D01*
X6318384D01*
X6553035Y2339976D01*
D02*
G37*
G36*
X6522300Y2662300D02*
X6575128D01*
Y2615329D01*
X6538312Y2578513D01*
X6536926Y2578237D01*
X6525282Y2570458D01*
X6517503Y2558814D01*
X6514771Y2545080D01*
X6517503Y2531346D01*
X6525282Y2519702D01*
X6536926Y2511923D01*
X6550660Y2509191D01*
X6564394Y2511923D01*
X6576038Y2519702D01*
X6583817Y2531346D01*
X6584093Y2532732D01*
X6630391Y2579030D01*
X6631401Y2580542D01*
X6646676D01*
X6649103Y2576910D01*
Y2566100D01*
X6648907Y2565808D01*
X6646757Y2555000D01*
Y2405000D01*
X6648907Y2394192D01*
X6655029Y2385030D01*
X6664192Y2378907D01*
X6675000Y2376758D01*
X6685808Y2378907D01*
X6694971Y2385030D01*
X6701093Y2394192D01*
X6703243Y2405000D01*
Y2448715D01*
X6714754Y2455865D01*
X6715943Y2455904D01*
X6725000Y2454103D01*
X6734057Y2455904D01*
X6735247Y2455865D01*
X6746757Y2448715D01*
Y2405000D01*
X6748907Y2394192D01*
X6755029Y2385030D01*
X6764192Y2378907D01*
X6775000Y2376758D01*
X6785808Y2378907D01*
X6791365Y2382620D01*
X6800000Y2384143D01*
X6808635Y2382620D01*
X6814192Y2378907D01*
X6825000Y2376758D01*
X6835808Y2378907D01*
X6836822Y2379585D01*
X6845979Y2370429D01*
X6840083Y2361604D01*
X6837351Y2347870D01*
X6840083Y2334136D01*
X6847862Y2322492D01*
X6859506Y2314713D01*
X6873240Y2311981D01*
X6886974Y2314713D01*
X6898618Y2322492D01*
X6906397Y2334136D01*
X6909129Y2347870D01*
X6907287Y2357133D01*
X6925226Y2375073D01*
X6933800Y2375558D01*
X6941091Y2363610D01*
X6939143Y2360694D01*
X6936411Y2346960D01*
X6939143Y2333226D01*
X6946922Y2321582D01*
X6958566Y2313803D01*
X6969722Y2311583D01*
X6968471Y2298883D01*
X6720907D01*
X6365070Y2654720D01*
X6370331Y2667420D01*
X6404980D01*
Y2722748D01*
X6522300D01*
Y2662300D01*
D02*
G37*
G36*
X8332627Y2469425D02*
Y2000000D01*
Y1654856D01*
X8203414Y1525643D01*
X7962700D01*
Y1563653D01*
X8037500D01*
X8052366Y1566611D01*
X8064969Y1575031D01*
X8073389Y1587634D01*
X8076347Y1602500D01*
X8073389Y1617366D01*
X8064969Y1629969D01*
X8052366Y1638389D01*
X8037500Y1641346D01*
X7962700D01*
Y1692700D01*
X7787300D01*
Y1525643D01*
X7712314D01*
X7705526Y1538343D01*
X7706093Y1539192D01*
X7708243Y1550000D01*
X7706093Y1560808D01*
X7702380Y1566365D01*
X7700858Y1575000D01*
X7702380Y1583635D01*
X7706093Y1589192D01*
X7708243Y1600000D01*
X7706093Y1610808D01*
X7702380Y1616365D01*
X7700858Y1625000D01*
X7702380Y1633635D01*
X7706093Y1639192D01*
X7708243Y1650000D01*
X7706093Y1660808D01*
X7702380Y1666365D01*
X7700858Y1675000D01*
X7702380Y1683635D01*
X7706093Y1689192D01*
X7708243Y1700000D01*
X7706093Y1710808D01*
X7702380Y1716365D01*
X7700858Y1725000D01*
X7702380Y1733635D01*
X7706093Y1739192D01*
X7708243Y1750000D01*
X7706093Y1760808D01*
X7702380Y1766365D01*
X7700858Y1775000D01*
X7702380Y1783635D01*
X7706093Y1789192D01*
X7708243Y1800000D01*
X7706093Y1810808D01*
X7702380Y1816365D01*
X7700858Y1825000D01*
X7702380Y1833635D01*
X7706093Y1839192D01*
X7708243Y1850000D01*
X7706093Y1860808D01*
X7702380Y1866365D01*
X7700858Y1875000D01*
X7702380Y1883635D01*
X7706093Y1889192D01*
X7708243Y1900000D01*
X7706093Y1910808D01*
X7702380Y1916365D01*
X7700858Y1925000D01*
X7702380Y1933635D01*
X7706093Y1939192D01*
X7708243Y1950000D01*
X7706093Y1960808D01*
X7702380Y1966365D01*
X7700858Y1975000D01*
X7702380Y1983635D01*
X7706093Y1989192D01*
X7708243Y2000000D01*
X7706093Y2010808D01*
X7702380Y2016365D01*
X7700858Y2025000D01*
X7702380Y2033635D01*
X7706093Y2039192D01*
X7708243Y2050000D01*
X7706093Y2060808D01*
X7702380Y2066365D01*
X7700858Y2075000D01*
X7702380Y2083635D01*
X7706093Y2089192D01*
X7708243Y2100000D01*
X7706093Y2110808D01*
X7702380Y2116365D01*
X7700858Y2125000D01*
X7702380Y2133635D01*
X7706093Y2139192D01*
X7708243Y2150000D01*
X7706093Y2160808D01*
X7702380Y2166365D01*
X7700858Y2175000D01*
X7702380Y2183635D01*
X7706093Y2189192D01*
X7708243Y2200000D01*
X7706093Y2210808D01*
X7705696Y2211402D01*
X7712484Y2224102D01*
X7728969D01*
X7733884Y2219188D01*
X7742286Y2213574D01*
X7752196Y2211602D01*
X7757500D01*
X7767411Y2213574D01*
X7774600Y2218377D01*
X7780280Y2216983D01*
X7787300Y2213521D01*
Y2157300D01*
X7962700D01*
Y2203653D01*
X8037500D01*
X8052366Y2206611D01*
X8064969Y2215031D01*
X8073389Y2227634D01*
X8076347Y2242500D01*
X8073389Y2257366D01*
X8064969Y2269969D01*
X8052366Y2278389D01*
X8037500Y2281346D01*
X7962700D01*
Y2327700D01*
X7787300D01*
Y2325898D01*
X7691100D01*
X7690808Y2326093D01*
X7680000Y2328243D01*
X7554151D01*
X7549291Y2339976D01*
X7569871Y2360557D01*
X8199120D01*
X8206553Y2362035D01*
X8212854Y2366246D01*
X8320894Y2474285D01*
X8332627Y2469425D01*
D02*
G37*
G36*
X6712185Y2180826D02*
X6712186Y2180826D01*
X6718487Y2176615D01*
X6725920Y2175137D01*
X7121396D01*
X7121516Y2175016D01*
X7127022Y2162437D01*
X7122023Y2154954D01*
X7119291Y2141220D01*
X7122023Y2127486D01*
X7129802Y2115842D01*
X7141446Y2108063D01*
X7155180Y2105331D01*
X7168914Y2108063D01*
X7180558Y2115842D01*
X7184536Y2121797D01*
X7269820D01*
X7277253Y2123275D01*
X7283554Y2127485D01*
X7338524Y2182455D01*
X7338525Y2182456D01*
X7408504Y2252434D01*
X7420237Y2247574D01*
Y2210225D01*
X7229435Y2019423D01*
X6596957D01*
X6593735Y2024314D01*
X6591840Y2030572D01*
X6592380Y2033635D01*
X6596093Y2039192D01*
X6598243Y2050000D01*
X6596093Y2060808D01*
X6592380Y2066365D01*
X6590858Y2075000D01*
X6592380Y2083635D01*
X6596093Y2089192D01*
X6598243Y2100000D01*
X6596093Y2110808D01*
X6592380Y2116365D01*
X6590858Y2125000D01*
X6592380Y2133635D01*
X6596093Y2139192D01*
X6598243Y2150000D01*
X6596093Y2160808D01*
X6592380Y2166365D01*
X6590858Y2175000D01*
X6592380Y2183635D01*
X6596093Y2189192D01*
X6598243Y2200000D01*
X6596093Y2210808D01*
X6592380Y2216365D01*
X6590858Y2225000D01*
X6592380Y2233635D01*
X6596093Y2239192D01*
X6598243Y2250000D01*
X6596093Y2260808D01*
X6592380Y2266365D01*
X6591519Y2271246D01*
X6596784Y2280514D01*
X6610503Y2282509D01*
X6712185Y2180826D01*
D02*
G37*
G36*
X6132300Y2093400D02*
Y1957300D01*
X6122697Y1949823D01*
X5760705D01*
X5749961Y1960567D01*
X5754821Y1972300D01*
X5887700D01*
Y1997227D01*
X5898134Y2000954D01*
X5900400Y2001385D01*
X5912634Y1993211D01*
X5927500Y1990254D01*
X6034100D01*
X6048966Y1993211D01*
X6061569Y2001632D01*
X6072469Y2012531D01*
X6080890Y2025134D01*
X6083847Y2040000D01*
X6080890Y2054866D01*
X6072469Y2067469D01*
X6059866Y2075889D01*
X6045000Y2078846D01*
X6030134Y2075889D01*
X6018247Y2067947D01*
X5947582D01*
X5942722Y2079680D01*
X5972644Y2109602D01*
X6116098D01*
X6132300Y2093400D01*
D02*
G37*
G36*
X5281557Y1907115D02*
Y1756500D01*
X5269950Y1750103D01*
X5268821Y1750807D01*
X5262700Y1756893D01*
Y1877700D01*
X5087300D01*
Y1732300D01*
X5229102D01*
X5280577Y1680825D01*
Y1538318D01*
X5282055Y1530885D01*
X5286266Y1524584D01*
X5408741Y1402108D01*
X5403881Y1390375D01*
X4899660D01*
X4879839Y1386433D01*
X4863035Y1375205D01*
X4851807Y1358401D01*
X4847865Y1338580D01*
Y1217840D01*
X4851807Y1198019D01*
X4863035Y1181215D01*
X4863375Y1180875D01*
X4880179Y1169647D01*
X4900000Y1165705D01*
X4919822Y1169647D01*
X4936625Y1180875D01*
X4947853Y1197679D01*
X4951796Y1217500D01*
X4951455Y1219211D01*
Y1286785D01*
X5122185D01*
Y1218520D01*
X5126127Y1198699D01*
X5137355Y1181895D01*
X5138375Y1180875D01*
X5155179Y1169647D01*
X5175000Y1165705D01*
X5194821Y1169647D01*
X5211625Y1180875D01*
X5222853Y1197679D01*
X5226795Y1217500D01*
X5225775Y1222628D01*
Y1286785D01*
X5396505D01*
Y1219200D01*
X5400447Y1199379D01*
X5411675Y1182575D01*
X5413375Y1180875D01*
X5430179Y1169647D01*
X5450000Y1165705D01*
X5469821Y1169647D01*
X5486625Y1180875D01*
X5497853Y1197679D01*
X5501795Y1217500D01*
X5500095Y1226047D01*
Y1338580D01*
X5498903Y1344574D01*
X5509138Y1358215D01*
X5512521Y1358510D01*
X5760134Y1110898D01*
X5760003Y1110245D01*
X5746223Y1106065D01*
X5737215Y1115073D01*
X5735914Y1115612D01*
X5735132Y1116783D01*
X5702374Y1138670D01*
X5700993Y1138945D01*
X5699997Y1139941D01*
X5663598Y1155016D01*
X5662190D01*
X5661019Y1155798D01*
X5622379Y1163482D01*
X5620998Y1163207D01*
X5619697Y1163746D01*
X5599998Y1163744D01*
X5537700D01*
X5527980Y1159718D01*
X5523953Y1149998D01*
Y1146046D01*
X5376047D01*
Y1149998D01*
X5372020Y1159719D01*
X5362300Y1163745D01*
X5262700Y1163745D01*
X5252980Y1159719D01*
X5248953Y1149998D01*
Y1146046D01*
X5101047D01*
Y1149999D01*
X5097021Y1159719D01*
X5087300Y1163745D01*
X4987700Y1163745D01*
X4977980Y1159719D01*
X4973953Y1149999D01*
Y1146046D01*
X4826047D01*
Y1149999D01*
X4825995Y1150124D01*
Y1487745D01*
X4860550Y1522300D01*
X4987700D01*
Y1543205D01*
X5087300D01*
Y1522300D01*
X5262700D01*
Y1667700D01*
X5087300D01*
Y1646795D01*
X4987700D01*
Y1667700D01*
X4812300D01*
Y1620549D01*
X4737575Y1545824D01*
X4726347Y1529021D01*
X4722405Y1509200D01*
Y1309931D01*
X4712699Y1302700D01*
X4645718D01*
Y1536418D01*
X4841600Y1732300D01*
X4987700D01*
Y1869606D01*
X4996243Y1873200D01*
X5000400Y1874103D01*
X5011266Y1866843D01*
X5025000Y1864111D01*
X5038734Y1866843D01*
X5050378Y1874622D01*
X5058158Y1886266D01*
X5060890Y1900000D01*
X5058158Y1913734D01*
X5050378Y1925378D01*
X5038734Y1933157D01*
X5025000Y1935889D01*
X5022517Y1935396D01*
X5012700Y1943452D01*
Y2084627D01*
X5104044D01*
X5281557Y1907115D01*
D02*
G37*
G36*
X6137300Y1732300D02*
X6253422D01*
X6253540Y1732123D01*
X6246752Y1719423D01*
X6070002D01*
X6070000Y1719424D01*
X6062568Y1717945D01*
X6056266Y1713734D01*
X6056266Y1713734D01*
X6010232Y1667700D01*
X5862300D01*
Y1522300D01*
X5998077D01*
Y1437700D01*
X5932300D01*
Y1262300D01*
X6060179D01*
X6065039Y1250567D01*
X5869433Y1054961D01*
X5857700Y1059821D01*
Y1129200D01*
X5796769D01*
X5516504Y1409464D01*
X5510203Y1413675D01*
X5502770Y1415153D01*
X5450633D01*
X5355220Y1510567D01*
X5360080Y1522300D01*
X5512700D01*
Y1556153D01*
X5552320D01*
X5567186Y1559110D01*
X5579788Y1567531D01*
X5580454Y1568197D01*
X5588875Y1580799D01*
X5591832Y1595665D01*
X5588875Y1610531D01*
X5580454Y1623134D01*
X5567851Y1631555D01*
X5552985Y1634512D01*
X5549641Y1633846D01*
X5512700D01*
Y1667700D01*
X5337300D01*
Y1552948D01*
X5324600Y1546691D01*
X5319423Y1550670D01*
Y1685148D01*
X5328895Y1690327D01*
X5331764Y1690768D01*
X5335316Y1687216D01*
X5341617Y1683005D01*
X5349050Y1681527D01*
X5795432D01*
X5798842Y1676422D01*
X5810486Y1668643D01*
X5824220Y1665911D01*
X5837954Y1668643D01*
X5849598Y1676422D01*
X5857377Y1688066D01*
X5860109Y1701800D01*
X5857377Y1715534D01*
X5849598Y1727178D01*
X5837954Y1734957D01*
X5824220Y1737689D01*
X5810486Y1734957D01*
X5798842Y1727178D01*
X5794296Y1720373D01*
X5762700D01*
Y1850231D01*
X5777096Y1864627D01*
X5853855D01*
X5858649Y1856547D01*
X5852604Y1843847D01*
X5839800D01*
X5824935Y1840890D01*
X5812332Y1832469D01*
X5803911Y1819866D01*
X5800954Y1805000D01*
X5803911Y1790134D01*
X5812332Y1777532D01*
X5824935Y1769111D01*
X5839800Y1766154D01*
X5859667D01*
X5859668Y1766153D01*
X5862300D01*
Y1732300D01*
X6037700D01*
Y1864627D01*
X6137300D01*
Y1732300D01*
D02*
G37*
G36*
X7421726Y2138817D02*
X7422240Y2136229D01*
X7430020Y2124586D01*
X7441664Y2116806D01*
X7455398Y2114074D01*
X7469132Y2116806D01*
X7480775Y2124586D01*
X7484767Y2130559D01*
X7503016D01*
X7506233Y2125702D01*
X7508153Y2119387D01*
X7507620Y2116365D01*
X7503908Y2110808D01*
X7501758Y2100000D01*
X7503908Y2089192D01*
X7507620Y2083635D01*
X7509143Y2075000D01*
X7507620Y2066365D01*
X7503908Y2060808D01*
X7501758Y2050000D01*
X7503908Y2039192D01*
X7507620Y2033635D01*
X7509143Y2025000D01*
X7507620Y2016365D01*
X7503908Y2010808D01*
X7501758Y2000000D01*
X7503908Y1989192D01*
X7507620Y1983635D01*
X7509143Y1975000D01*
X7507620Y1966365D01*
X7503908Y1960808D01*
X7501758Y1950000D01*
X7503908Y1939192D01*
X7507620Y1933635D01*
X7509143Y1925000D01*
X7507620Y1916365D01*
X7503908Y1910808D01*
X7501758Y1900000D01*
X7503908Y1889192D01*
X7507620Y1883635D01*
X7509143Y1875000D01*
X7507620Y1866365D01*
X7503908Y1860808D01*
X7501758Y1850000D01*
X7503908Y1839192D01*
X7507620Y1833635D01*
X7509143Y1825000D01*
X7507620Y1816365D01*
X7503908Y1810808D01*
X7501758Y1800000D01*
X7503908Y1789192D01*
X7507620Y1783635D01*
X7509143Y1775000D01*
X7507620Y1766365D01*
X7503908Y1760808D01*
X7501758Y1750000D01*
X7503908Y1739192D01*
X7507620Y1733635D01*
X7509143Y1725000D01*
X7507620Y1716365D01*
X7503908Y1710808D01*
X7501758Y1700000D01*
X7503908Y1689192D01*
X7507620Y1683635D01*
X7509143Y1675000D01*
X7507620Y1666365D01*
X7503908Y1660808D01*
X7501758Y1650000D01*
X7503908Y1639192D01*
X7507620Y1633635D01*
X7509143Y1625000D01*
X7507620Y1616365D01*
X7503908Y1610808D01*
X7501758Y1600000D01*
X7503908Y1589192D01*
X7507620Y1583635D01*
X7509143Y1575000D01*
X7507620Y1566365D01*
X7503908Y1560808D01*
X7490169Y1556840D01*
X7416109Y1630899D01*
X7409808Y1635110D01*
X7402375Y1636588D01*
X6764621D01*
X6760643Y1642543D01*
X6748999Y1650323D01*
X6735265Y1653055D01*
X6721531Y1650323D01*
X6709888Y1642543D01*
X6702108Y1630899D01*
X6701056Y1625614D01*
X6688108D01*
X6687957Y1626369D01*
X6680178Y1638012D01*
X6674223Y1641991D01*
Y1765299D01*
X6674223Y1765300D01*
X6672745Y1772733D01*
X6668534Y1779034D01*
X6633834Y1813734D01*
X6627533Y1817945D01*
X6620100Y1819423D01*
X6596957D01*
X6593736Y1824314D01*
X6591840Y1830572D01*
X6592380Y1833635D01*
X6596093Y1839192D01*
X6598243Y1850000D01*
X6596093Y1860808D01*
X6592380Y1866365D01*
X6590858Y1875000D01*
X6592380Y1883635D01*
X6596093Y1889192D01*
X6598243Y1900000D01*
X6596093Y1910808D01*
X6592380Y1916365D01*
X6590858Y1925000D01*
X6592380Y1933635D01*
X6596093Y1939192D01*
X6598243Y1950000D01*
X6596093Y1960808D01*
X6592380Y1966365D01*
X6591840Y1969428D01*
X6593736Y1975686D01*
X6596957Y1980577D01*
X7237480D01*
X7244913Y1982055D01*
X7251214Y1986266D01*
X7407945Y2142997D01*
X7421726Y2138817D01*
D02*
G37*
G36*
X6325720Y1667877D02*
X6321923Y1662194D01*
X6319191Y1648460D01*
X6321923Y1634726D01*
X6329702Y1623082D01*
X6341346Y1615303D01*
X6355080Y1612571D01*
X6368814Y1615303D01*
X6380458Y1623082D01*
X6381661Y1624884D01*
X6386908Y1625761D01*
X6389672Y1625165D01*
X6394510Y1611710D01*
X6393907Y1610808D01*
X6391758Y1600000D01*
X6391886Y1599355D01*
X6191486Y1398954D01*
X6187275Y1392653D01*
X6185797Y1385220D01*
Y1371325D01*
X6114433Y1299961D01*
X6102700Y1304821D01*
Y1437700D01*
X6036923D01*
Y1522300D01*
X6037700D01*
Y1640231D01*
X6078046Y1680577D01*
X6318931D01*
X6325720Y1667877D01*
D02*
G37*
G36*
X6964192Y1268907D02*
X6975000Y1266757D01*
X6985808Y1268907D01*
X6991582Y1272765D01*
X7002748Y1268439D01*
X7004282Y1267139D01*
Y1253988D01*
X7004282Y1253987D01*
X7005859Y1246058D01*
X7010350Y1239337D01*
X7023864Y1225823D01*
X7022771Y1220327D01*
X7025503Y1206593D01*
X7033282Y1194949D01*
X7044926Y1187170D01*
X7057300Y1184708D01*
Y1020658D01*
X6777700D01*
Y1061154D01*
X6815000D01*
X6829866Y1064111D01*
X6842469Y1072532D01*
X6850890Y1085134D01*
X6853847Y1100000D01*
X6850890Y1114866D01*
X6842469Y1127469D01*
X6829866Y1135890D01*
X6815000Y1138847D01*
X6778838D01*
X6778171Y1151547D01*
X6793313Y1166688D01*
X6798926Y1175090D01*
X6800898Y1185000D01*
Y1262516D01*
X6813598Y1269305D01*
X6814192Y1268907D01*
X6825000Y1266757D01*
X6835808Y1268907D01*
X6844971Y1275029D01*
X6855030D01*
X6864192Y1268907D01*
X6875000Y1266757D01*
X6885808Y1268907D01*
X6894971Y1275029D01*
X6905030D01*
X6914192Y1268907D01*
X6925000Y1266757D01*
X6935808Y1268907D01*
X6944971Y1275029D01*
X6955030D01*
X6964192Y1268907D01*
D02*
G37*
G36*
X3329639Y1049999D02*
Y1046580D01*
X3418199D01*
X3428322Y1042387D01*
X3442387Y1028322D01*
X3449194Y1011889D01*
X3449998Y1000000D01*
D01*
X3449999Y988162D01*
Y500000D01*
X3449999Y490150D01*
X3446156Y470831D01*
X3438618Y452632D01*
X3427675Y436253D01*
X3413746Y422325D01*
X3397367Y411381D01*
X3379169Y403843D01*
X3359849Y400000D01*
X3350000Y400000D01*
X2950000D01*
X2940150Y400000D01*
X2920831Y403842D01*
X2902632Y411381D01*
X2886253Y422325D01*
X2872324Y436253D01*
X2861381Y452632D01*
X2853842Y470831D01*
X2850000Y490150D01*
X2850000Y500000D01*
X2837300Y500000D01*
X2450000Y500000D01*
X2440054Y500000D01*
X2421677Y507612D01*
X2407612Y521677D01*
X2400000Y540054D01*
X2400000Y549999D01*
X2400000Y900000D01*
X2400000Y909945D01*
X2407612Y928322D01*
X2421677Y942387D01*
X2440054Y950000D01*
X2450000Y949999D01*
X2450000Y950000D01*
X2650000Y949999D01*
X2659945Y950000D01*
X2678322Y942387D01*
X2692388Y928322D01*
X2699999Y909946D01*
X2699999Y899999D01*
X2712699Y900000D01*
X3150000D01*
X3159754Y900961D01*
X3177778Y908426D01*
X3191573Y922221D01*
X3199038Y940245D01*
X3199999Y949999D01*
X3200000Y950000D01*
X3200000Y1000000D01*
X3200000Y1009945D01*
X3207612Y1028322D01*
X3221677Y1042387D01*
X3240054Y1049999D01*
X3249999Y1049999D01*
X3250000Y1050000D01*
X3329639Y1049999D01*
D02*
G37*
G36*
X3778346Y1042419D02*
X3792419Y1028346D01*
X3799290Y1011713D01*
X3800000Y1000005D01*
Y1000000D01*
X3799999D01*
X3800000Y1000000D01*
Y925000D01*
X3800480Y920123D01*
X3804213Y911110D01*
X3811110Y904213D01*
X3820123Y900480D01*
X3825000Y900000D01*
X4050000Y899999D01*
X4059946Y900000D01*
X4078322Y892386D01*
X4092385Y878318D01*
X4099216Y861814D01*
X4099989Y850161D01*
Y849993D01*
X4099989Y849993D01*
X4100000Y849987D01*
X4099999Y100000D01*
X4100002Y90053D01*
X4092391Y71673D01*
X4078325Y57607D01*
X4062297Y50971D01*
X4049999Y49999D01*
X3599999Y50000D01*
X3590048Y49983D01*
X3571656Y57584D01*
X3557584Y71656D01*
X3549984Y90049D01*
X3550000Y100000D01*
Y999999D01*
X3550000Y1009944D01*
X3557613Y1028320D01*
X3571677Y1042385D01*
X3585862Y1048261D01*
X3587300Y1047300D01*
Y1047300D01*
X3762700D01*
Y1047300D01*
X3764162Y1048278D01*
X3778346Y1042419D01*
D02*
G37*
G36*
X7335670Y1248409D02*
X7336042Y1246535D01*
X7341656Y1238134D01*
X7342224Y1237566D01*
X7350626Y1231952D01*
X7360536Y1229981D01*
X7370447Y1231952D01*
X7378849Y1237566D01*
X7386403Y1245120D01*
X7399103Y1239860D01*
Y1187700D01*
X7322300D01*
Y1138847D01*
X7302500D01*
X7287634Y1135890D01*
X7275031Y1127469D01*
X7266611Y1114866D01*
X7263653Y1100000D01*
X7266611Y1085134D01*
X7275031Y1072532D01*
X7287634Y1064111D01*
X7302500Y1061154D01*
X7322300D01*
Y1020658D01*
X7227700D01*
Y1158400D01*
X7321889Y1252590D01*
X7335670Y1248409D01*
D02*
G37*
G36*
X6398199Y1532770D02*
X6400030Y1530029D01*
X6409192Y1523907D01*
X6420000Y1521757D01*
X6570000D01*
X6580808Y1523907D01*
X6589971Y1530029D01*
X6590337Y1530577D01*
X6656319D01*
X6663966Y1517877D01*
X6662091Y1508450D01*
X6664553Y1496071D01*
X6661266Y1492784D01*
X6657056Y1486483D01*
X6655577Y1479050D01*
Y1465337D01*
X6655029Y1464971D01*
X6648907Y1455808D01*
X6646757Y1445000D01*
Y1295000D01*
X6648907Y1284192D01*
X6655029Y1275029D01*
X6664192Y1268907D01*
X6675000Y1266757D01*
X6685808Y1268907D01*
X6687283Y1269892D01*
X6699983Y1263104D01*
Y1228720D01*
X6701954Y1218809D01*
X6707568Y1210408D01*
X6708788Y1209188D01*
X6717190Y1203574D01*
X6727100Y1201602D01*
X6734991Y1195817D01*
X6728414Y1187700D01*
X6607300D01*
Y1020658D01*
X6120141D01*
X6085030Y1055770D01*
X6080700Y1058663D01*
Y1129200D01*
X6015203D01*
X6010343Y1140933D01*
X6218954Y1349545D01*
X6223165Y1355846D01*
X6224643Y1363279D01*
Y1377175D01*
X6382727Y1535258D01*
X6398199Y1532770D01*
D02*
G37*
G36*
X5992300Y1106297D02*
Y1020800D01*
X6058378D01*
X6060380Y1020402D01*
X6060381Y1020402D01*
X6061798D01*
X6096909Y985291D01*
X6096910Y985290D01*
X6103631Y980799D01*
X6111560Y979222D01*
X6858132D01*
X6864961Y966522D01*
X6862514Y954220D01*
Y889600D01*
X6865471Y874734D01*
X6873892Y862131D01*
X6920991Y815031D01*
X6933594Y806611D01*
X6948460Y803653D01*
X6963326Y806611D01*
X6975929Y815031D01*
X6984350Y827634D01*
X6987307Y842500D01*
X6984350Y857366D01*
X6975929Y869969D01*
X6940207Y905691D01*
Y954220D01*
X6937760Y966522D01*
X6944588Y979222D01*
X7401497D01*
X7418214Y962506D01*
X7413098Y949660D01*
X7401745Y942075D01*
X7393084Y929111D01*
X7390042Y913820D01*
Y912607D01*
X7386320D01*
X7371454Y909649D01*
X7358851Y901229D01*
X7338969Y881346D01*
X7312700D01*
Y927700D01*
X7137300D01*
Y883934D01*
X7127483Y875877D01*
X7123700Y876629D01*
X7109966Y873897D01*
X7098323Y866118D01*
X7090543Y854474D01*
X7087811Y840740D01*
X7090543Y827006D01*
X7098323Y815362D01*
X7109966Y807583D01*
X7123700Y804851D01*
X7127483Y805603D01*
X7137300Y797546D01*
Y757300D01*
X7312700D01*
Y803653D01*
X7355060D01*
X7369926Y806611D01*
X7382529Y815031D01*
X7391489Y823992D01*
X7401745Y822981D01*
X7414709Y814320D01*
X7430000Y811278D01*
X7445291Y814320D01*
X7458255Y822982D01*
X7466916Y835945D01*
X7469958Y851236D01*
Y894168D01*
X7481691Y899028D01*
X7510366Y870354D01*
Y787681D01*
X7510366Y787679D01*
X7511943Y779751D01*
X7516434Y773029D01*
X7581810Y707653D01*
X7580042Y698764D01*
Y636180D01*
X7583084Y620889D01*
X7591745Y607925D01*
X7604709Y599264D01*
X7620000Y596222D01*
X7635291Y599264D01*
X7648255Y607925D01*
X7656916Y620889D01*
X7659958Y636180D01*
Y646754D01*
X7680099D01*
X7794415Y532438D01*
Y517700D01*
X7787300D01*
Y415349D01*
X7775567Y410488D01*
X7683587Y502469D01*
X7670984Y510890D01*
X7656118Y513847D01*
X7579864D01*
X7576012Y526547D01*
X7584969Y532531D01*
X7593389Y545134D01*
X7596347Y560000D01*
X7593389Y574866D01*
X7584969Y587468D01*
X7563846Y608591D01*
Y667472D01*
X7560890Y682338D01*
X7552469Y694940D01*
X7539866Y703361D01*
X7525000Y706318D01*
X7510134Y703361D01*
X7497531Y694940D01*
X7489110Y682338D01*
X7486153Y667472D01*
Y623914D01*
X7473453Y617388D01*
X7469937Y619907D01*
Y666381D01*
X7469190Y670136D01*
Y737954D01*
X7390810D01*
Y651927D01*
X7324629Y585747D01*
X7079191D01*
X7037700Y627238D01*
Y742700D01*
X6862300D01*
X6861346Y755005D01*
Y805201D01*
X6858389Y820067D01*
X6849969Y832670D01*
X6812672Y869966D01*
X6800069Y878387D01*
X6785204Y881344D01*
X6765343D01*
X6765332Y881346D01*
X6762700D01*
Y927700D01*
X6587300D01*
Y882597D01*
X6477700D01*
Y887700D01*
X6347300D01*
Y802300D01*
X6477700D01*
Y804904D01*
X6587300D01*
Y757300D01*
X6762700D01*
Y791294D01*
X6762889Y792182D01*
X6774159Y796850D01*
X6783653Y789024D01*
Y598590D01*
X6715032Y529968D01*
X6706611Y517366D01*
X6705891Y513746D01*
X6530694D01*
X6459720Y584720D01*
X6459695Y584731D01*
X6459685Y584755D01*
X6443767Y600558D01*
X6448605Y612300D01*
X6477700D01*
Y697700D01*
X6381318D01*
X6220284Y858734D01*
X6213983Y862945D01*
X6206550Y864423D01*
X6202700D01*
Y887700D01*
X6072300D01*
Y864423D01*
X5962700D01*
Y927700D01*
X5813703D01*
X5808843Y939433D01*
X5980567Y1111158D01*
X5992300Y1106297D01*
D02*
G37*
G36*
X4327770Y1150000D02*
X4329830Y1148621D01*
X4337203Y1137300D01*
X4336954Y1136050D01*
Y1090950D01*
X4338324Y1084064D01*
X4342225Y1078225D01*
X4348063Y1074324D01*
X4354950Y1072955D01*
X4470050D01*
X4476937Y1074324D01*
X4482775Y1078225D01*
X4486676Y1084064D01*
X4488046Y1090950D01*
Y1092782D01*
X4507918D01*
X4537300Y1063400D01*
Y947300D01*
X4712700D01*
Y1092700D01*
X4566600D01*
X4531150Y1128150D01*
X4524428Y1132641D01*
X4516500Y1134218D01*
X4516498Y1134218D01*
X4500947D01*
X4499276Y1137299D01*
X4506838Y1150000D01*
X4812300Y1149999D01*
Y1132300D01*
X4987700D01*
Y1149999D01*
X5087300Y1149999D01*
Y1132300D01*
X5262700D01*
Y1149998D01*
X5362300Y1149998D01*
Y1132300D01*
X5537700D01*
Y1149998D01*
X5599999D01*
X5619698Y1149999D01*
X5658338Y1142316D01*
X5694737Y1127240D01*
X5727495Y1105353D01*
X5755353Y1077495D01*
X5769300Y1056620D01*
Y1020800D01*
X5787155D01*
X5792316Y1008338D01*
X5797374Y982902D01*
X5700400Y885928D01*
X5687700Y891188D01*
Y927700D01*
X5512300D01*
Y782300D01*
X5651772D01*
X5653650Y781927D01*
X5653651Y781927D01*
X5695604D01*
X5787300Y690232D01*
Y572300D01*
X5962700D01*
Y700107D01*
X6323533Y700548D01*
X6347300Y676782D01*
Y612300D01*
X6412427D01*
X6450000Y575000D01*
X6525000Y500000D01*
X7472563D01*
X7525032Y447531D01*
X7537634Y439111D01*
X7552500Y436154D01*
X7640027D01*
X7756750Y319431D01*
X7769353Y311010D01*
X7784218Y308053D01*
X7965782D01*
X7980647Y311010D01*
X7993250Y319431D01*
X8015569Y341750D01*
X8023990Y354352D01*
X8026947Y369218D01*
Y500000D01*
X8074999D01*
X8084753Y500960D01*
X8102777Y508426D01*
X8116571Y522220D01*
X8124037Y540244D01*
X8124997Y549998D01*
X8125000Y550001D01*
X8124999Y649999D01*
X8124040Y659754D01*
X8116575Y677779D01*
X8102779Y691574D01*
X8087482Y697908D01*
X8086605Y698272D01*
X8086604Y698272D01*
X8084753Y699039D01*
X8075047Y699992D01*
X8074999Y700000D01*
X8074999Y700000D01*
X8062737D01*
X8045000Y700000D01*
X8038105D01*
X8024582Y702690D01*
X8011842Y707967D01*
X8000377Y715627D01*
X7990627Y725378D01*
X7982967Y736843D01*
X7977690Y749582D01*
X7975000Y763105D01*
Y890063D01*
X8002469Y917531D01*
X8010889Y930134D01*
X8013847Y944999D01*
X8013847D01*
X8013847Y945000D01*
X8599999Y949999D01*
X8622160Y950000D01*
X8665630Y941354D01*
X8706578Y924393D01*
X8743430Y899770D01*
X8774770Y868430D01*
X8799393Y831577D01*
X8816353Y790629D01*
X8824999Y747159D01*
X8824998Y724999D01*
X8824997Y724998D01*
X8824999Y724997D01*
X8824999Y200000D01*
X8825000Y190150D01*
X8821159Y170829D01*
X8813622Y152629D01*
X8802678Y136250D01*
X8788749Y122320D01*
X8772370Y111377D01*
X8754169Y103840D01*
X8734848Y99999D01*
X8724999Y100000D01*
X4349999D01*
X4330301Y99999D01*
X4291661Y107685D01*
X4255263Y122760D01*
X4222506Y144648D01*
X4194648Y172506D01*
X4172761Y205263D01*
X4157685Y241661D01*
X4150000Y280301D01*
X4150000Y299999D01*
Y552623D01*
X4162700Y562300D01*
X4327700D01*
Y737700D01*
X4261923D01*
Y785135D01*
X4316865Y840077D01*
X4336954D01*
Y836950D01*
X4338324Y830064D01*
X4342225Y824225D01*
X4348063Y820324D01*
X4354950Y818955D01*
X4470050D01*
X4476937Y820324D01*
X4482775Y824225D01*
X4486676Y830064D01*
X4488046Y836950D01*
Y882050D01*
X4486676Y888937D01*
X4482775Y894775D01*
X4476937Y898676D01*
X4470050Y900046D01*
X4354950D01*
X4348063Y898676D01*
X4342225Y894775D01*
X4338324Y888937D01*
X4336954Y882050D01*
Y878923D01*
X4308820D01*
X4301387Y877445D01*
X4295086Y873234D01*
X4295085Y873234D01*
X4228766Y806914D01*
X4224555Y800613D01*
X4223077Y793180D01*
Y737700D01*
X4162700D01*
X4157300Y737700D01*
X4150000Y747376D01*
Y1014774D01*
X4155764Y1043754D01*
X4167072Y1071052D01*
X4183487Y1095619D01*
X4204380Y1116513D01*
X4228948Y1132928D01*
X4256246Y1144235D01*
X4285226Y1150000D01*
X4300000D01*
X4327770D01*
D02*
G37*
G36*
X5787300Y901297D02*
Y782300D01*
X5962700D01*
Y825577D01*
X6072300D01*
Y802300D01*
X6202700D01*
Y804788D01*
X6214433Y809648D01*
X6298088Y725994D01*
X6293235Y714257D01*
X6163468Y714099D01*
X6157815Y726792D01*
X6163389Y735134D01*
X6166346Y750000D01*
X6163389Y764866D01*
X6154968Y777469D01*
X6142366Y785889D01*
X6127500Y788847D01*
X6052172D01*
X6052167Y788848D01*
X6032297D01*
X6017431Y785890D01*
X6004828Y777470D01*
X5996407Y764867D01*
X5993450Y750001D01*
X5996407Y735135D01*
X6002109Y726602D01*
X5996754Y714170D01*
X5996488Y713895D01*
X5966546Y713859D01*
X5962700Y717700D01*
Y717700D01*
X5814768D01*
X5717384Y815084D01*
X5711083Y819295D01*
X5703650Y820773D01*
X5687700D01*
Y835577D01*
X5696941D01*
X5704374Y837055D01*
X5710675Y841266D01*
X5775567Y906157D01*
X5787300Y901297D01*
D02*
G37*
G36*
X824998Y949998D02*
X2299998Y949998D01*
X2299999Y949998D01*
X2299999Y949998D01*
X2300004D01*
X2311710Y949269D01*
X2328324Y942389D01*
X2342389Y928324D01*
X2346793Y917690D01*
X2347301Y905200D01*
X2347301D01*
Y694801D01*
X2347301D01*
X2346792Y682312D01*
X2342386Y671677D01*
X2328321Y657612D01*
X2309945Y650000D01*
X2299999D01*
X1572194Y649999D01*
X1550810Y658856D01*
X1524000Y662386D01*
X1497190Y658856D01*
X1475806Y649999D01*
X1399999D01*
X1399998Y649998D01*
X1390244Y649038D01*
X1372221Y641573D01*
X1358426Y627778D01*
X1350960Y609754D01*
X1350000Y600000D01*
Y375000D01*
X1349999Y375000D01*
Y370027D01*
X1346193Y360838D01*
X1339161Y353806D01*
X1329972Y350000D01*
X1110715D01*
X1109753Y350961D01*
X1108549Y350721D01*
X1106121Y350361D01*
X1103679Y350121D01*
X1101227Y350000D01*
X725000D01*
X720027Y349999D01*
X710838Y353805D01*
X703805Y360838D01*
X699999Y370027D01*
X700000Y375000D01*
X700000Y813036D01*
X700000Y824999D01*
X700000Y825000D01*
X700000Y825000D01*
X699998Y837311D01*
X704799Y861462D01*
X714221Y884211D01*
X727901Y904686D01*
X745312Y922097D01*
X765786Y935776D01*
X788536Y945198D01*
X812687Y950000D01*
X824998Y949998D01*
D02*
G37*
G36*
X7979198Y717741D02*
X7980368Y716958D01*
X7980907Y715657D01*
X7990657Y705907D01*
X7991958Y705368D01*
X7992740Y704198D01*
X8004205Y696537D01*
X8005586Y696263D01*
X8006582Y695267D01*
X8019321Y689990D01*
X8020729D01*
X8021900Y689208D01*
X8035424Y686518D01*
X8036804Y686792D01*
X8038105Y686254D01*
X8044999D01*
X8062737Y686253D01*
X8074296D01*
X8081379Y685557D01*
X8082218Y685209D01*
X8082221D01*
X8082223Y685207D01*
X8094993Y679920D01*
X8104921Y669993D01*
X8110559Y656379D01*
X8111253Y649325D01*
X8111254Y550703D01*
X8110556Y543620D01*
X8104918Y530007D01*
X8094990Y520079D01*
X8081377Y514441D01*
X8074323Y513746D01*
X8026947D01*
Y556900D01*
X8023990Y571766D01*
X8015569Y584368D01*
X7962700Y637237D01*
Y719572D01*
X7975400Y723424D01*
X7979198Y717741D01*
D02*
G37*
%LPC*%
G36*
X4220000Y2338846D02*
X4218894Y2338627D01*
X4117340D01*
X4102474Y2335669D01*
X4089871Y2327249D01*
X4081451Y2314646D01*
X4078493Y2299780D01*
X4081451Y2284914D01*
X4089871Y2272311D01*
X4102474Y2263891D01*
X4117340Y2260934D01*
X4219780D01*
X4234646Y2263891D01*
X4247249Y2272311D01*
X4247469Y2272531D01*
X4255889Y2285134D01*
X4258846Y2300000D01*
X4255889Y2314866D01*
X4247469Y2327469D01*
X4234866Y2335889D01*
X4220000Y2338846D01*
D02*
G37*
G36*
X5910204Y2281346D02*
X5800000D01*
X5785134Y2278389D01*
X5772532Y2269969D01*
X5764111Y2257366D01*
X5761154Y2242500D01*
X5764111Y2227634D01*
X5772532Y2215031D01*
X5785134Y2206611D01*
X5800000Y2203653D01*
X5910204D01*
X5925070Y2206611D01*
X5937673Y2215031D01*
X5946094Y2227634D01*
X5949051Y2242500D01*
X5946094Y2257366D01*
X5937673Y2269969D01*
X5925070Y2278389D01*
X5910204Y2281346D01*
D02*
G37*
G36*
X4853940Y2415487D02*
X4839074Y2412530D01*
X4826471Y2404109D01*
X4818051Y2391506D01*
X4815093Y2376640D01*
X4816153Y2371311D01*
Y2235000D01*
X4819111Y2220134D01*
X4827531Y2207532D01*
X4840134Y2199111D01*
X4855000Y2196154D01*
X4869866Y2199111D01*
X4882469Y2207532D01*
X4890889Y2220134D01*
X4893846Y2235000D01*
Y2375580D01*
X4890889Y2390446D01*
X4882469Y2403049D01*
X4881409Y2404109D01*
X4868806Y2412530D01*
X4853940Y2415487D01*
D02*
G37*
G36*
X5088650Y2318073D02*
X5086773Y2317700D01*
X4982300D01*
Y2152300D01*
X5107700D01*
Y2180577D01*
X5172300D01*
Y2112300D01*
X5317700D01*
Y2287700D01*
X5172300D01*
Y2219423D01*
X5107700D01*
Y2296773D01*
X5108073Y2298650D01*
X5107700Y2300527D01*
Y2317700D01*
X5090527D01*
X5088650Y2318073D01*
D02*
G37*
G36*
X4502700Y1562700D02*
X4332300D01*
Y1387300D01*
X4393077D01*
Y1281046D01*
X4354950D01*
X4348063Y1279676D01*
X4342225Y1275775D01*
X4338324Y1269937D01*
X4336954Y1263050D01*
Y1217950D01*
X4338324Y1211064D01*
X4342225Y1205225D01*
X4348063Y1201324D01*
X4354950Y1199955D01*
X4470050D01*
X4476937Y1201324D01*
X4482775Y1205225D01*
X4486676Y1211064D01*
X4488046Y1217950D01*
Y1263050D01*
X4486676Y1269937D01*
X4482775Y1275775D01*
X4476937Y1279676D01*
X4470050Y1281046D01*
X4431923D01*
Y1387300D01*
X4502700D01*
Y1562700D01*
D02*
G37*
G36*
X3992880Y1026907D02*
X3889060D01*
X3874194Y1023949D01*
X3861591Y1015529D01*
X3860032Y1013969D01*
X3851611Y1001366D01*
X3848654Y986500D01*
X3851611Y971634D01*
X3860032Y959032D01*
X3872634Y950611D01*
X3887500Y947654D01*
X3895342Y949213D01*
X3992880D01*
X4007746Y952171D01*
X4020349Y960591D01*
X4028769Y973194D01*
X4031727Y988060D01*
X4028769Y1002926D01*
X4020349Y1015529D01*
X4007746Y1023949D01*
X3992880Y1026907D01*
D02*
G37*
G36*
X8037500Y2096347D02*
X7875000D01*
X7860134Y2093390D01*
X7847531Y2084969D01*
X7839111Y2072366D01*
X7836153Y2057500D01*
X7839111Y2042634D01*
X7847531Y2030031D01*
X7860134Y2021611D01*
X7875000Y2018654D01*
X8037500D01*
X8052366Y2021611D01*
X8064969Y2030031D01*
X8073389Y2042634D01*
X8076347Y2057500D01*
X8073389Y2072366D01*
X8064969Y2084969D01*
X8052366Y2093390D01*
X8037500Y2096347D01*
D02*
G37*
G36*
Y1831346D02*
X7875000D01*
X7860134Y1828389D01*
X7847531Y1819968D01*
X7839111Y1807366D01*
X7836153Y1792500D01*
X7839111Y1777634D01*
X7847531Y1765031D01*
X7860134Y1756610D01*
X7875000Y1753653D01*
X8037500D01*
X8052366Y1756610D01*
X8064968Y1765031D01*
X8073389Y1777634D01*
X8076346Y1792500D01*
X8073389Y1807366D01*
X8064969Y1819969D01*
X8052366Y1828390D01*
X8037500Y1831346D01*
D02*
G37*
G36*
X5785201Y1646346D02*
X5675000D01*
X5660134Y1643389D01*
X5647532Y1634969D01*
X5639111Y1622366D01*
X5636154Y1607500D01*
X5639111Y1592634D01*
X5647532Y1580031D01*
X5660134Y1571611D01*
X5675000Y1568653D01*
X5785201D01*
X5800066Y1571611D01*
X5812669Y1580031D01*
X5821090Y1592634D01*
X5824047Y1607500D01*
X5821090Y1622366D01*
X5812669Y1634969D01*
X5800066Y1643389D01*
X5785201Y1646346D01*
D02*
G37*
G36*
X5832500Y1499047D02*
X5817635Y1496090D01*
X5805032Y1487669D01*
X5796611Y1475066D01*
X5793654Y1460200D01*
Y1440333D01*
X5793654Y1440332D01*
Y1350000D01*
X5796611Y1335134D01*
X5805032Y1322532D01*
X5817634Y1314111D01*
X5832500Y1311154D01*
X5847366Y1314111D01*
X5859969Y1322532D01*
X5868390Y1335134D01*
X5871347Y1350000D01*
Y1440331D01*
X5871347Y1440332D01*
Y1460200D01*
X5868390Y1475066D01*
X5859969Y1487669D01*
X5847366Y1496090D01*
X5832500Y1499047D01*
D02*
G37*
G36*
X6225000Y1633846D02*
X6134667D01*
X6134659Y1633845D01*
X6114796D01*
X6099930Y1630888D01*
X6087327Y1622467D01*
X6078907Y1609864D01*
X6075949Y1594998D01*
X6078907Y1580132D01*
X6087327Y1567530D01*
X6099930Y1559109D01*
X6114796Y1556152D01*
X6134666D01*
X6134675Y1556153D01*
X6225000D01*
X6239866Y1559110D01*
X6252469Y1567531D01*
X6260889Y1580134D01*
X6263847Y1595000D01*
X6260889Y1609866D01*
X6252469Y1622468D01*
X6239866Y1630889D01*
X6225000Y1633846D01*
D02*
G37*
G36*
X6957502Y1249050D02*
X6942636Y1246093D01*
X6930033Y1237672D01*
X6921613Y1225069D01*
X6918655Y1210203D01*
Y1190341D01*
X6918654Y1190332D01*
Y1100000D01*
X6921611Y1085134D01*
X6930032Y1072532D01*
X6942634Y1064111D01*
X6957500Y1061154D01*
X6972366Y1064111D01*
X6984969Y1072532D01*
X6993390Y1085134D01*
X6996347Y1100000D01*
Y1190325D01*
X6996348Y1190334D01*
Y1210203D01*
X6993391Y1225069D01*
X6984971Y1237672D01*
X6972368Y1246093D01*
X6957502Y1249050D01*
D02*
G37*
G36*
X3887500Y878923D02*
X3880067Y877445D01*
X3873766Y873234D01*
X3869556Y866933D01*
X3868077Y859500D01*
X3869556Y852067D01*
X3873766Y845766D01*
X3873955Y845576D01*
X3880257Y841366D01*
X3887690Y839888D01*
X3953565D01*
X3996016Y797436D01*
Y717061D01*
X3997495Y709628D01*
X4001705Y703327D01*
X4043766Y661266D01*
X4050067Y657056D01*
X4057500Y655577D01*
X4064933Y657056D01*
X4071234Y661266D01*
X4075445Y667567D01*
X4076923Y675000D01*
X4075445Y682433D01*
X4071234Y688734D01*
X4034863Y725106D01*
Y805482D01*
X4033384Y812915D01*
X4029174Y819216D01*
X3975345Y873045D01*
X3969044Y877255D01*
X3961611Y878734D01*
X3888453D01*
X3887500Y878923D01*
D02*
G37*
G36*
X6337300Y1252549D02*
X6323566Y1249817D01*
X6311922Y1242038D01*
X6304143Y1230394D01*
X6301411Y1216660D01*
X6302808Y1209636D01*
X6274365Y1181193D01*
X6270155Y1174892D01*
X6268676Y1167459D01*
Y1120615D01*
X6262722Y1116637D01*
X6254942Y1104993D01*
X6252210Y1091259D01*
X6254942Y1077525D01*
X6262722Y1065882D01*
X6274365Y1058102D01*
X6288099Y1055370D01*
X6301833Y1058102D01*
X6313477Y1065882D01*
X6321257Y1077525D01*
X6323989Y1091259D01*
X6321257Y1104993D01*
X6313477Y1116637D01*
X6307522Y1120615D01*
Y1159414D01*
X6330276Y1182168D01*
X6337300Y1180771D01*
X6351034Y1183503D01*
X6362678Y1191282D01*
X6370457Y1202926D01*
X6373189Y1216660D01*
X6370457Y1230394D01*
X6362678Y1242038D01*
X6351034Y1249817D01*
X6337300Y1252549D01*
D02*
G37*
G36*
X6507500Y1249050D02*
X6492634Y1246093D01*
X6480032Y1237672D01*
X6471611Y1225069D01*
X6468654Y1210203D01*
Y1100000D01*
X6471611Y1085134D01*
X6480032Y1072532D01*
X6492634Y1064111D01*
X6507500Y1061154D01*
X6522366Y1064111D01*
X6534969Y1072532D01*
X6543390Y1085134D01*
X6546347Y1100000D01*
Y1210203D01*
X6543390Y1225069D01*
X6534969Y1237672D01*
X6522366Y1246093D01*
X6507500Y1249050D01*
D02*
G37*
G36*
X7222100Y699247D02*
X7106920D01*
X7092054Y696289D01*
X7079451Y687869D01*
X7071031Y675266D01*
X7068073Y660400D01*
X7071031Y645534D01*
X7079451Y632931D01*
X7092054Y624511D01*
X7106920Y621553D01*
X7210421D01*
X7225000Y618654D01*
X7239866Y621611D01*
X7252469Y630032D01*
X7260889Y642634D01*
X7263847Y657500D01*
X7260889Y672366D01*
X7252469Y684969D01*
X7249569Y687869D01*
X7236966Y696289D01*
X7222100Y699247D01*
D02*
G37*
G36*
X6675000Y696347D02*
X6584669D01*
X6584665Y696346D01*
X6564798D01*
X6549932Y693389D01*
X6537329Y684968D01*
X6528908Y672365D01*
X6525951Y657499D01*
X6528908Y642633D01*
X6537329Y630031D01*
X6549932Y621610D01*
X6564798Y618653D01*
X6584668D01*
X6584672Y618654D01*
X6675000D01*
X6689866Y621611D01*
X6702469Y630032D01*
X6710890Y642634D01*
X6713847Y657500D01*
X6710890Y672366D01*
X6702469Y684969D01*
X6689866Y693390D01*
X6675000Y696347D01*
D02*
G37*
G36*
X8591400Y674200D02*
X8514100D01*
Y596900D01*
X8591400D01*
Y674200D01*
D02*
G37*
G36*
X8437900D02*
X8360600D01*
Y596900D01*
X8437900D01*
Y674200D01*
D02*
G37*
G36*
X5687700Y717700D02*
X5512300D01*
Y572300D01*
X5687700D01*
Y606153D01*
X5690333D01*
X5690345Y606156D01*
X5710204D01*
X5725070Y609113D01*
X5737673Y617534D01*
X5746094Y630137D01*
X5749051Y645003D01*
X5746094Y659868D01*
X5737673Y672471D01*
X5725070Y680892D01*
X5710204Y683849D01*
X5690335D01*
X5687700Y696206D01*
Y717700D01*
D02*
G37*
G36*
X8591400Y520700D02*
X8514100D01*
Y443400D01*
X8591400D01*
Y520700D01*
D02*
G37*
G36*
X8437900D02*
X8360600D01*
Y443400D01*
X8437900D01*
Y520700D01*
D02*
G37*
G36*
X1131400Y674200D02*
X1054100D01*
Y596900D01*
X1131400D01*
Y674200D01*
D02*
G37*
G36*
X977900D02*
X900600D01*
Y596900D01*
X977900D01*
Y674200D01*
D02*
G37*
G36*
X1131400Y520700D02*
X1054100D01*
Y443400D01*
X1131400D01*
Y520700D01*
D02*
G37*
G36*
X977900D02*
X900600D01*
Y443400D01*
X977900D01*
Y520700D01*
D02*
G37*
%LPD*%
G36*
X9575053Y2106010D02*
Y1829990D01*
X9520993Y1775930D01*
X9477854Y1819069D01*
X9465251Y1827490D01*
X9450385Y1830447D01*
X9383614D01*
X9370400Y1827818D01*
X9364296Y1829870D01*
X9357700Y1833395D01*
Y1854067D01*
X9484475D01*
X9489462Y1846602D01*
X9501106Y1838823D01*
X9514840Y1836091D01*
X9528574Y1838823D01*
X9540218Y1846602D01*
X9547997Y1858246D01*
X9550729Y1871980D01*
X9547997Y1885714D01*
X9540218Y1897358D01*
X9528574Y1905137D01*
X9514840Y1907869D01*
X9501106Y1905137D01*
X9489462Y1897358D01*
X9486493Y1892913D01*
X9441575D01*
X9434787Y1905613D01*
X9438777Y1911586D01*
X9441509Y1925320D01*
X9438777Y1939054D01*
X9433060Y1947611D01*
X9431413Y1953142D01*
X9433330Y1964414D01*
X9460909Y1991993D01*
X9460910Y1991993D01*
X9465401Y1998715D01*
X9466978Y2006643D01*
X9466978Y2006645D01*
Y2042117D01*
X9465401Y2050045D01*
X9460910Y2056767D01*
X9460909Y2056767D01*
X9430194Y2087482D01*
X9432229Y2095906D01*
X9435101Y2100182D01*
X9486349D01*
X9489462Y2095522D01*
X9501106Y2087743D01*
X9514840Y2085011D01*
X9528574Y2087743D01*
X9540218Y2095522D01*
X9547997Y2107166D01*
X9549315Y2113788D01*
X9563095Y2117968D01*
X9575053Y2106010D01*
D02*
G37*
D10*
X9753500Y3019000D02*
D03*
X9346500D02*
D03*
X9753500Y3273000D02*
D03*
X9346500D02*
D03*
X9753500Y3146000D02*
D03*
X9346500D02*
D03*
X9753500Y3527000D02*
D03*
X9346500D02*
D03*
X9753500Y3400000D02*
D03*
X9346500D02*
D03*
X9753500Y3781000D02*
D03*
X9346500D02*
D03*
X9753500Y3654000D02*
D03*
X9346500D02*
D03*
D11*
X5045000Y2235000D02*
D03*
X4950000Y2015000D02*
D03*
X4855000Y2235000D02*
D03*
D12*
X6675000Y2480000D02*
D03*
X6725000D02*
D03*
X6825000D02*
D03*
X6875000D02*
D03*
X6925000D02*
D03*
X6975000D02*
D03*
X7025000D02*
D03*
X7075000D02*
D03*
X7125000D02*
D03*
X7175000D02*
D03*
X7225000D02*
D03*
X7275000D02*
D03*
X7325000D02*
D03*
X7375000D02*
D03*
X7425000D02*
D03*
Y1370000D02*
D03*
X7375000D02*
D03*
X7325000D02*
D03*
X6775000D02*
D03*
X6725000D02*
D03*
X6675000D02*
D03*
X7075000D02*
D03*
X7025000D02*
D03*
X7275000D02*
D03*
X6775000Y2480000D02*
D03*
X7225000Y1370000D02*
D03*
X7175000D02*
D03*
X7125000D02*
D03*
X6975000D02*
D03*
X6925000D02*
D03*
X6875000D02*
D03*
X6825000D02*
D03*
D13*
X7605000Y2300000D02*
D03*
Y2250000D02*
D03*
Y2200000D02*
D03*
X6495000Y1550000D02*
D03*
Y1600000D02*
D03*
Y1650000D02*
D03*
Y1700000D02*
D03*
Y1750000D02*
D03*
Y1800000D02*
D03*
Y1900000D02*
D03*
Y2000000D02*
D03*
Y2050000D02*
D03*
Y2100000D02*
D03*
Y2300000D02*
D03*
Y2150000D02*
D03*
Y2200000D02*
D03*
Y2250000D02*
D03*
X7605000Y1900000D02*
D03*
Y1850000D02*
D03*
Y1800000D02*
D03*
Y1750000D02*
D03*
X6495000Y1850000D02*
D03*
Y1950000D02*
D03*
X7605000Y1700000D02*
D03*
Y1650000D02*
D03*
Y1600000D02*
D03*
Y1550000D02*
D03*
Y2150000D02*
D03*
Y2100000D02*
D03*
Y2050000D02*
D03*
Y2000000D02*
D03*
Y1950000D02*
D03*
D14*
X5320000Y3047500D02*
D03*
X5130000Y3302500D02*
D03*
X5225000D02*
D03*
X5320000D02*
D03*
X5130000Y3047500D02*
D03*
X8170000D02*
D03*
X7980000D02*
D03*
Y3302500D02*
D03*
X8075000D02*
D03*
X8170000D02*
D03*
X7220000Y3047500D02*
D03*
X7030000D02*
D03*
Y3302500D02*
D03*
X7125000D02*
D03*
X7220000D02*
D03*
X6270000Y3047500D02*
D03*
X6080000D02*
D03*
Y3302500D02*
D03*
X6175000D02*
D03*
X6270000D02*
D03*
D15*
X4412500Y859500D02*
D03*
Y986500D02*
D03*
Y1113500D02*
D03*
Y1240500D02*
D03*
X3887500Y859500D02*
D03*
Y986500D02*
D03*
Y1113500D02*
D03*
Y1240500D02*
D03*
D16*
X7430000Y667472D02*
D03*
D17*
X7525000D02*
D03*
X7620000D02*
D03*
Y882528D02*
D03*
X7430000D02*
D03*
D18*
X4040000Y1695000D02*
D03*
X3975000D02*
D03*
X3910000D02*
D03*
Y1505000D02*
D03*
X3975000D02*
D03*
X4040000D02*
D03*
D19*
X2137501Y1220001D02*
D03*
Y1125001D02*
D03*
Y1030001D02*
D03*
X2412501D02*
D03*
Y1220001D02*
D03*
X6412500Y845000D02*
D03*
Y655000D02*
D03*
X6137500D02*
D03*
Y750000D02*
D03*
Y845000D02*
D03*
D20*
X2367501Y1450001D02*
D03*
X2182502D02*
D03*
X7582500Y3550000D02*
D03*
X7767500D02*
D03*
X6682500D02*
D03*
X6867500D02*
D03*
X5782500D02*
D03*
X5967500D02*
D03*
X7457500Y2750000D02*
D03*
X7642500D02*
D03*
X7267500D02*
D03*
X7082500D02*
D03*
X6792500D02*
D03*
X6607500D02*
D03*
X6217500Y2500000D02*
D03*
X6032500D02*
D03*
X5832500Y1350000D02*
D03*
X6017500D02*
D03*
X8657500Y2400000D02*
D03*
X8842500D02*
D03*
Y1750000D02*
D03*
X8657500D02*
D03*
X7592500Y1100000D02*
D03*
X7407500D02*
D03*
X7142500D02*
D03*
X6957500D02*
D03*
X6507500D02*
D03*
X6692500D02*
D03*
X4232500Y1475000D02*
D03*
X4417500D02*
D03*
X4242500Y650000D02*
D03*
X4057500D02*
D03*
X3532500Y1875000D02*
D03*
X3717500D02*
D03*
X2367501Y150001D02*
D03*
X2182502D02*
D03*
D21*
X9272500Y1975000D02*
D03*
Y2025000D02*
D03*
Y2175000D02*
D03*
Y2125000D02*
D03*
Y2075000D02*
D03*
Y1825000D02*
D03*
Y1875000D02*
D03*
Y1925000D02*
D03*
D22*
Y2325000D02*
D03*
Y2245000D02*
D03*
Y1675000D02*
D03*
Y1755000D02*
D03*
D23*
X3325000Y725000D02*
D03*
X3675001D02*
D03*
D24*
X2122501Y800001D02*
D03*
X2427501D02*
D03*
D25*
X5455000Y2200000D02*
D03*
X5245000D02*
D03*
X5320000Y3550000D02*
D03*
X5530000D02*
D03*
X9555000Y1125000D02*
D03*
X9345000D02*
D03*
X8230000Y3550000D02*
D03*
X8020000D02*
D03*
X7330000D02*
D03*
X7120000D02*
D03*
X6430000D02*
D03*
X6220000D02*
D03*
X6122280Y2755120D02*
D03*
X6332280D02*
D03*
X8745000Y2950000D02*
D03*
X8955000D02*
D03*
X8745000Y3225000D02*
D03*
X8955000D02*
D03*
X8745000Y3500000D02*
D03*
X8955000D02*
D03*
X8745000Y3775000D02*
D03*
X8955000D02*
D03*
X4430000Y2300000D02*
D03*
X4220000D02*
D03*
X4430000Y2025000D02*
D03*
X4220000D02*
D03*
Y1750000D02*
D03*
X4430000D02*
D03*
X3520000Y1575000D02*
D03*
X3730000D02*
D03*
D26*
X5534500Y4520100D02*
D03*
Y3920100D02*
D03*
X5164500Y4520100D02*
D03*
Y3920100D02*
D03*
X6434500Y4520100D02*
D03*
Y3920100D02*
D03*
X6064500Y4520100D02*
D03*
Y3920100D02*
D03*
X7334500Y4520100D02*
D03*
Y3920100D02*
D03*
X6964500Y4520100D02*
D03*
Y3920100D02*
D03*
X8234500Y4520100D02*
D03*
Y3920100D02*
D03*
X7864500Y4520100D02*
D03*
Y3920100D02*
D03*
D27*
X8530000Y2175000D02*
D03*
Y2125000D02*
D03*
Y2075000D02*
D03*
Y2025000D02*
D03*
Y1975000D02*
D03*
X8970000Y2175000D02*
D03*
Y2125000D02*
D03*
Y2075000D02*
D03*
Y2025000D02*
D03*
Y1975000D02*
D03*
D28*
X2155002Y355001D02*
D03*
Y545001D02*
D03*
X2395002D02*
D03*
Y450001D02*
D03*
Y355001D02*
D03*
D29*
X6045000Y2260000D02*
D03*
Y2040000D02*
D03*
X6205000Y2260000D02*
D03*
Y2040000D02*
D03*
D30*
X5890000Y3297500D02*
D03*
X5825000D02*
D03*
X5760000D02*
D03*
Y3052500D02*
D03*
X5890000D02*
D03*
X7660000Y3297500D02*
D03*
X7790000D02*
D03*
Y3052500D02*
D03*
X7725000D02*
D03*
X7660000D02*
D03*
X6710000Y3297500D02*
D03*
X6840000D02*
D03*
Y3052500D02*
D03*
X6775000D02*
D03*
X6710000D02*
D03*
D31*
X7975000Y1050000D02*
D03*
X8070000Y850000D02*
D03*
X7880000D02*
D03*
D32*
X4425000Y3145000D02*
D03*
Y3355000D02*
D03*
X4200000Y3355000D02*
D03*
Y3145000D02*
D03*
X3975000Y3355000D02*
D03*
Y3145000D02*
D03*
X3749976Y3354999D02*
D03*
Y3144999D02*
D03*
X3525000Y3355000D02*
D03*
Y3145000D02*
D03*
D33*
X4425000Y2914000D02*
D03*
Y2735000D02*
D03*
X3975000D02*
D03*
Y2914000D02*
D03*
X4200000Y2735000D02*
D03*
Y2914000D02*
D03*
X3750000Y2735000D02*
D03*
Y2914000D02*
D03*
X3525000Y2735000D02*
D03*
Y2914000D02*
D03*
D34*
X6036500Y1075000D02*
D03*
X5813500D02*
D03*
X9213500Y1350000D02*
D03*
X9436500D02*
D03*
D35*
X5175000Y1805000D02*
D03*
Y1595000D02*
D03*
X5425000Y1805000D02*
D03*
Y1595000D02*
D03*
X4625000Y1230000D02*
D03*
Y1020000D02*
D03*
X5950000Y1595000D02*
D03*
Y1805000D02*
D03*
X6225000Y1595000D02*
D03*
Y1805000D02*
D03*
X7875000Y445000D02*
D03*
Y655000D02*
D03*
X5875000Y855000D02*
D03*
Y645000D02*
D03*
X5600000D02*
D03*
Y855000D02*
D03*
X4900000Y1805000D02*
D03*
Y1595000D02*
D03*
D36*
X7961000Y1300000D02*
D03*
X8140000D02*
D03*
X7843420Y2755100D02*
D03*
X8022420D02*
D03*
D37*
X2900000Y155000D02*
D03*
Y595000D02*
D03*
D38*
X8479000Y1400000D02*
D03*
X8921000D02*
D03*
X3821000Y225000D02*
D03*
X3379000D02*
D03*
X1054000Y1425000D02*
D03*
X1496000D02*
D03*
D39*
X6500000Y3057500D02*
D03*
Y3242500D02*
D03*
X7450000Y3057500D02*
D03*
Y3242500D02*
D03*
X8425000Y3082500D02*
D03*
Y3267500D02*
D03*
X3417339Y1131780D02*
D03*
Y1316780D02*
D03*
X5550000Y3267500D02*
D03*
Y3082500D02*
D03*
X7875000Y1792500D02*
D03*
Y1607500D02*
D03*
Y2057500D02*
D03*
Y2242500D02*
D03*
X5800000D02*
D03*
Y2057500D02*
D03*
X5675000Y1792500D02*
D03*
Y1607500D02*
D03*
X6950000Y842500D02*
D03*
Y657500D02*
D03*
X7225000D02*
D03*
Y842500D02*
D03*
X6675000D02*
D03*
Y657500D02*
D03*
X5450000Y1217500D02*
D03*
Y1032500D02*
D03*
X5175000Y1217500D02*
D03*
Y1032500D02*
D03*
X4900000Y1217500D02*
D03*
Y1032500D02*
D03*
X3675000Y1317500D02*
D03*
Y1132500D02*
D03*
X3025000Y1017500D02*
D03*
Y832500D02*
D03*
X2800000Y1017500D02*
D03*
Y832500D02*
D03*
D40*
X7116978Y1537088D02*
Y1545141D01*
Y1537088D02*
X7125000Y1529066D01*
Y1370000D02*
Y1529066D01*
X7051040Y1506820D02*
X7075000Y1482860D01*
X7051040Y1506820D02*
Y1508760D01*
X7075000Y1370000D02*
Y1482860D01*
X7025000Y1253987D02*
Y1370000D01*
Y1253987D02*
X7058660Y1220327D01*
X6873428Y1545141D02*
X6874214Y1544355D01*
Y1370786D02*
X6875000Y1370000D01*
X6874214Y1370786D02*
Y1544355D01*
X6925267Y1370266D02*
Y1508133D01*
X6975000Y1370000D02*
X6975756Y1370755D01*
Y1534672D01*
X6976511Y1535428D01*
X6925267Y1508133D02*
X6925533Y1508400D01*
X6925000Y1370000D02*
X6925267Y1370266D01*
X5891242Y2057500D02*
X5964062Y2130320D01*
X5800000Y2057500D02*
X5891242D01*
X5964062Y2130320D02*
X6124680D01*
X6210000Y2045000D02*
X6215001Y2050000D01*
X6205000Y2040000D02*
X6210000Y2045000D01*
X8230000Y3550000D02*
Y4515600D01*
X8234500Y4520100D01*
X7330000Y3550000D02*
Y4515600D01*
X6430000Y3535000D02*
Y3550000D01*
Y4515600D01*
X5530000Y3550000D02*
Y4515600D01*
X4883933Y1813932D02*
Y1878932D01*
X4875000Y1805000D02*
X4883933Y1813932D01*
Y1878932D02*
X4950000Y1945000D01*
X7815133Y497380D02*
Y541020D01*
X7867513Y445000D02*
X7875000D01*
X7815133Y497380D02*
X7867513Y445000D01*
X7688681Y667472D02*
X7815133Y541020D01*
X7620000Y667472D02*
X7688681D01*
X5760000Y3052500D02*
Y3082500D01*
X5790926Y3113426D02*
X5813446D01*
X5760000Y3082500D02*
X5790926Y3113426D01*
X5813446D02*
X5819140Y3119120D01*
X6774590Y3052910D02*
X6775000Y3052500D01*
X6774590Y3052910D02*
Y3131410D01*
X6774180Y3131820D02*
X6774590Y3131410D01*
X6760120Y3037620D02*
X6775000Y3052500D01*
X6760120Y3001783D02*
Y3037620D01*
X8075000Y3380000D02*
X8230000Y3535000D01*
X8075000Y3302500D02*
Y3380000D01*
X8230000Y3535000D02*
Y3550000D01*
X7330000Y3535000D02*
Y3550000D01*
X7125000Y3302500D02*
Y3345000D01*
X7262620Y3482620D01*
X7277620D01*
X7330000Y3535000D01*
X6342620Y3482620D02*
X6377620D01*
X6175000Y3315000D02*
X6342620Y3482620D01*
X6377620D02*
X6430000Y3535000D01*
X6175000Y3302500D02*
Y3315000D01*
X5225000D02*
X5318750Y3408750D01*
X5225000Y3302500D02*
Y3315000D01*
X5530000Y3535000D02*
Y3550000D01*
X5477620Y3482620D02*
X5530000Y3535000D01*
X5416357Y3482620D02*
X5477620D01*
X5342487Y3408750D02*
X5416357Y3482620D01*
X5318750Y3408750D02*
X5342487D01*
X7125000Y3302500D02*
X7144880Y3322380D01*
X9403080Y2120900D02*
X9514840D01*
X9272500Y2175000D02*
X9278934Y2168566D01*
X9355414D02*
X9403080Y2120900D01*
X9278934Y2168566D02*
X9355414D01*
X7142500Y1102500D02*
X7322176Y1282177D01*
Y1367176D01*
X7142500Y1100000D02*
Y1102500D01*
X7322176Y1367176D02*
X7325000Y1370000D01*
X7410079Y999940D02*
X7449389Y960630D01*
X7449389D01*
X6111560Y999940D02*
X7410079D01*
X6036500Y1065000D02*
X6060380Y1041120D01*
X6070380D01*
X6111560Y999940D01*
X6036500Y1065000D02*
Y1075000D01*
X6273771Y2130320D02*
X6304091Y2100000D01*
X6495000D01*
X6045000Y2250000D02*
Y2260000D01*
Y2250000D02*
X6164680Y2130320D01*
X6273771D01*
X6045000Y2260000D02*
Y2487500D01*
X6032500Y2500000D02*
X6045000Y2487500D01*
X6215001Y2050000D02*
X6495000D01*
X6124680Y2130320D02*
X6205000Y2050000D01*
Y2040000D02*
Y2050000D01*
X4860000Y1780000D02*
Y1805000D01*
X4625000Y1230000D02*
Y1545000D01*
X4860000Y1780000D01*
X4950000Y1945000D02*
Y1965000D01*
X4860000Y1805000D02*
X4875000D01*
X7449389Y960630D02*
X7531084Y878936D01*
Y787679D02*
Y878936D01*
X7620000Y667472D02*
Y698763D01*
X7531084Y787679D02*
X7620000Y698763D01*
X4412500Y1113500D02*
X4516500D01*
X4610000Y1020000D01*
X4625000D01*
X8970000Y1975000D02*
X9272500D01*
X8970000Y2025000D02*
X9272500D01*
Y1925000D02*
X9272660Y1925160D01*
X9405460D01*
X9405620Y1925320D01*
X9272500Y1975000D02*
X9414617D01*
X9413376Y2075000D02*
X9446260Y2042117D01*
Y2006643D02*
Y2042117D01*
X9272500Y2075000D02*
X9413376D01*
X9414617Y1975000D02*
X9446260Y2006643D01*
X9272810Y2024690D02*
X9403130D01*
X9403440Y2024380D01*
X9272500Y2025000D02*
X9272810Y2024690D01*
D41*
X6143100Y2331900D02*
X6205000Y2270000D01*
X6140000Y2348882D02*
Y2372500D01*
X6143100Y2331900D02*
Y2345782D01*
X6140000Y2348882D02*
X6143100Y2345782D01*
X5927500Y2029100D02*
X6034100D01*
X6045000Y2040000D01*
X5800000Y2242500D02*
X5910204D01*
X4853940Y2376640D02*
X4855000Y2375580D01*
Y2235000D02*
Y2375580D01*
X7063100Y546900D02*
X7340720D01*
X7106920Y660400D02*
X7222100D01*
X7880000Y1602500D02*
X8037500D01*
X7875000Y1607500D02*
X7880000Y1602500D01*
X7973600Y1251400D02*
X8100000Y1125000D01*
X7961000Y1264000D02*
Y1300000D01*
Y1264000D02*
X7970000D01*
X7863840Y4023360D02*
X7864500Y4022700D01*
Y3920100D02*
Y4022700D01*
Y4417720D02*
Y4520100D01*
X7863840Y4417060D02*
X7864500Y4417720D01*
X6964500Y4417240D02*
Y4520100D01*
Y4417240D02*
X6964680Y4417060D01*
X6962140Y4025900D02*
X6964500Y4023540D01*
Y3920100D02*
Y4023540D01*
X6064500Y3920100D02*
Y4024380D01*
X6062980Y4025900D02*
X6064500Y4024380D01*
Y4418580D02*
Y4520100D01*
X6062980Y4417060D02*
X6064500Y4418580D01*
X5164500Y4417740D02*
Y4520100D01*
X5163820Y4417060D02*
X5164500Y4417740D01*
Y3920100D02*
Y4025220D01*
X5163820Y4025900D02*
X5164500Y4025220D01*
X7988100Y369218D02*
Y556900D01*
X7961000Y1266541D02*
X7967459D01*
X7890000Y655000D02*
X7988100Y556900D01*
X8100000Y1125000D02*
X8175000D01*
X7973600Y1251400D02*
Y1260400D01*
X7961000Y1266541D02*
Y1300000D01*
Y1273000D02*
X7975000Y1259000D01*
Y1050000D02*
Y1259000D01*
X9345000Y1125000D02*
X9362440D01*
X9250000D02*
X9345000D01*
X8657500Y2123440D02*
X8699140Y2081800D01*
X8657500Y1750000D02*
Y1963780D01*
X8663641D02*
X8699140Y1999279D01*
Y2081800D01*
X8574600Y1963780D02*
X8663641D01*
X8545000Y2400000D02*
X8657500D01*
X8542500Y2397500D02*
X8545000Y2400000D01*
X8657500Y2123440D02*
Y2400000D01*
X8530000Y2125000D02*
X8655940D01*
X8657500Y2123440D01*
X5552320Y1595000D02*
X5552985Y1595665D01*
X5425000Y1595000D02*
X5552320D01*
X2925000Y1450000D02*
X2975000D01*
X2875000D02*
X2925000D01*
X2825000D02*
X2875000D01*
X2775000D02*
X2825000D01*
X2356075D02*
X2775000D01*
X2792938Y1060598D02*
X2796940Y1064600D01*
X3023000Y1019500D02*
Y1132440D01*
X2796940Y1064600D02*
Y1132440D01*
X9158180Y3146000D02*
X9346500D01*
X9160300Y3400000D02*
X9346500D01*
Y3527000D02*
X9531140D01*
X8425000Y3082500D02*
X8532940D01*
X8192500D02*
X8400000D01*
X8170000Y3047500D02*
Y3060000D01*
X8192500Y3082500D01*
X7450000Y3057500D02*
X7555840D01*
X7222100D02*
X7450000D01*
X7220000Y3055400D02*
X7222100Y3057500D01*
X7220000Y3047500D02*
Y3055400D01*
X6500000Y3057500D02*
X6605880D01*
X6272100D02*
X6500000D01*
X6270000Y3055400D02*
X6272100Y3057500D01*
X6270000Y3047500D02*
Y3055400D01*
X5550000Y3082500D02*
X5657500D01*
X5342500D02*
X5525000D01*
X5320000Y3047500D02*
Y3060000D01*
X5342500Y3082500D01*
X8140000Y1300000D02*
X8250000D01*
X2122501Y800001D02*
X2227502D01*
X2125002Y802501D02*
Y1027501D01*
X2138752Y549601D02*
Y783751D01*
X2022501Y800001D02*
X2122501D01*
X7660000Y3297500D02*
Y3380000D01*
X7660000Y3380000D01*
X5890000Y2957500D02*
X5890000Y2957500D01*
Y3052500D01*
X5992500Y2755000D02*
X5992620Y2755120D01*
X6122280D01*
X6822500Y582500D02*
Y805201D01*
X6742500Y502500D02*
X6822500Y582500D01*
X6785204Y842498D02*
X6822500Y805201D01*
X6950000Y657500D02*
X6952500D01*
X7063100Y546900D01*
X7431090Y596410D02*
X7552500Y475000D01*
X7656118D01*
X7784218Y346900D01*
X7431090Y596410D02*
Y637271D01*
X7340720Y546900D02*
X7431090Y637271D01*
X7525000Y592500D02*
X7557500Y560000D01*
X7525000Y592500D02*
Y667472D01*
X6673750Y843750D02*
X6675000Y842500D01*
X6423750Y843750D02*
X6673750D01*
X6422500Y845000D02*
X6423750Y843750D01*
X6795000Y2747500D02*
X6887500D01*
X6792500Y2750000D02*
X6795000Y2747500D01*
X6205000Y2260000D02*
Y2270000D01*
X5540332Y1032500D02*
X5560202D01*
X5540332Y1032500D02*
X5540332Y1032500D01*
X5450000Y1032500D02*
X5540332D01*
X6957502Y1190334D02*
Y1210203D01*
X6957500Y1190332D02*
X6957502Y1190334D01*
X6957500Y1100000D02*
Y1190332D01*
X8070000Y789669D02*
Y850000D01*
X9555000Y1215332D02*
Y1235202D01*
Y1215332D02*
X9555000Y1215331D01*
Y1125000D02*
Y1215331D01*
X8842502Y1840335D02*
Y1860205D01*
X8842500Y1840333D02*
X8842502Y1840335D01*
X8842500Y1750000D02*
Y1840333D01*
X8842502Y2289800D02*
Y2309667D01*
X8842500Y2309669D02*
X8842502Y2309667D01*
X8842500Y2309669D02*
Y2400000D01*
X8019999Y3439800D02*
Y3459668D01*
X8020000Y3459668D01*
Y3550000D01*
X7767498Y3439800D02*
Y3459667D01*
X7767500Y3459669D01*
Y3550000D01*
X7582499Y3439800D02*
Y3459668D01*
X7582500Y3459668D01*
Y3550000D01*
X7120001Y3439800D02*
Y3459668D01*
X7120000Y3459669D02*
X7120001Y3459668D01*
X7120000Y3459669D02*
Y3550000D01*
X6867500Y3439800D02*
Y3459668D01*
X6867500Y3459668D01*
Y3550000D01*
X6682501Y3439800D02*
Y3459667D01*
X6682500Y3459669D02*
X6682501Y3459667D01*
X6682500Y3459669D02*
Y3550000D01*
X6219998Y3439800D02*
Y3459667D01*
X6220000Y3459669D01*
Y3550000D01*
X5967501Y3439800D02*
Y3459667D01*
X5967500Y3459669D02*
X5967501Y3459667D01*
X5967500Y3459669D02*
Y3550000D01*
X5782498Y3439800D02*
Y3459667D01*
X5782500Y3459669D01*
Y3550000D01*
X5320000Y3640333D02*
Y3660201D01*
Y3640333D02*
X5320000Y3640333D01*
Y3550000D02*
Y3640333D01*
X5130002Y3227299D02*
Y3247166D01*
X5130000Y3247168D02*
X5130002Y3247166D01*
X5130000Y3247168D02*
Y3302500D01*
X5439797Y3267502D02*
X5459667D01*
X5459668Y3267500D01*
X5550000D01*
X6079998Y3227299D02*
Y3247165D01*
X6080000Y3247168D01*
Y3302500D01*
X6389796Y3242502D02*
X6409666D01*
X6409667Y3242500D01*
X6500000D01*
X6709999Y3209798D02*
Y3229668D01*
X6710000Y3229669D01*
X7339800Y3242502D02*
X7359668D01*
X7359669Y3242500D01*
X7450000D01*
X7979999Y3227299D02*
Y3247166D01*
X7980000Y3247167D01*
Y3302500D01*
X8314799Y3267502D02*
X8334667D01*
X8334668Y3267500D01*
X8425000D01*
X8022422Y2654899D02*
Y2674766D01*
X8022420Y2674769D02*
X8022422Y2674766D01*
X8022420Y2674769D02*
Y2755100D01*
X6692500Y1100000D02*
X6815000D01*
X7302500D02*
X7407500D01*
X6032297Y750001D02*
X6052167D01*
X6052168Y750000D01*
X6127500D01*
X5675000Y1607500D02*
X5785201D01*
X7592502Y1190334D02*
Y1210203D01*
X7592500Y1190332D02*
X7592502Y1190334D01*
X7592500Y1100000D02*
Y1190332D01*
X6507500Y1100000D02*
Y1210203D01*
X7267499Y2840332D02*
Y2860203D01*
Y2840332D02*
X7267500Y2840331D01*
Y2750000D02*
Y2840331D01*
X7082500Y2639797D02*
Y2659667D01*
X7082500Y2659668D02*
X7082500Y2659667D01*
X7082500Y2659668D02*
Y2750000D01*
X7642499Y2639797D02*
Y2659667D01*
X7642500Y2659667D01*
Y2750000D01*
X7457501Y2639797D02*
Y2659667D01*
X7457500Y2659668D02*
X7457501Y2659667D01*
X7457500Y2659668D02*
Y2750000D01*
X5832500Y1440332D02*
Y1460200D01*
X5832500Y1440332D02*
X5832500Y1440332D01*
X5832500Y1350000D02*
Y1440332D01*
X6765334Y842498D02*
X6785204D01*
X6765332Y842500D02*
X6765334Y842498D01*
X6675000Y842500D02*
X6765332D01*
X6564798Y657499D02*
X6584668D01*
X6584669Y657500D01*
X6675000D01*
X5839800Y1805000D02*
X5859668D01*
X5859668Y1805000D01*
X5950000D01*
X6114796Y1594998D02*
X6134666D01*
X6134667Y1595000D01*
X6225000D01*
X5690335Y645003D02*
X5710204D01*
X5690333Y645000D02*
X5690335Y645003D01*
X5600000Y645000D02*
X5690333D01*
X8037500Y1792500D02*
X8037500Y1792500D01*
X7875000Y1792500D02*
X8037500D01*
X7875000Y2057500D02*
X8037500D01*
X7875000Y2242500D02*
X8037500D01*
X7525000Y667472D02*
X7525000Y667472D01*
X7877500Y852500D02*
X7894600Y869600D01*
X7877500Y657500D02*
Y852500D01*
X7875000Y655000D02*
X7877500Y657500D01*
X7431090Y637271D02*
Y666381D01*
X9277100Y2240400D02*
X9351614D01*
X9410514Y2181500D02*
X9554500D01*
X9351614Y2240400D02*
X9410514Y2181500D01*
X9613900Y1813900D02*
Y2122100D01*
X9554500Y2181500D02*
X9613900Y2122100D01*
X9507100Y1707100D02*
X9520993Y1720993D01*
X9613900Y1813900D01*
X9507100Y1707100D02*
Y1734886D01*
Y1531508D02*
Y1707100D01*
X9450385Y1791600D02*
X9507100Y1734886D01*
X9272500Y2245000D02*
X9277100Y2240400D01*
X9442600Y1356100D02*
Y1467008D01*
X9436500Y1350000D02*
X9442600Y1356100D01*
Y1467008D02*
X9507100Y1531508D01*
X9383614Y1791600D02*
X9450385D01*
X9272500Y1755000D02*
X9277100Y1759600D01*
X9351614D01*
X9383614Y1791600D01*
X9360400Y1127040D02*
Y1193100D01*
X9213500Y1340000D02*
Y1350000D01*
Y1340000D02*
X9360400Y1193100D01*
Y1127040D02*
X9362440Y1125000D01*
X7975000Y945000D02*
Y1050000D01*
X7222100Y660400D02*
X7225000Y657500D01*
Y842500D02*
X7355060D01*
X7386320Y873760D01*
X3305699Y1315000D02*
X3415559D01*
X3417339Y1316780D01*
X7784218Y346900D02*
X7965782D01*
X7988100Y369218D01*
X7875000Y655000D02*
X7890000D01*
X4605250Y2931891D02*
X4782421Y2754720D01*
X4523100Y3324762D02*
X4605250Y3242612D01*
Y2931891D02*
Y3242612D01*
X4523100Y3324762D02*
Y3425782D01*
X4349218Y3448100D02*
X4500782D01*
X4523100Y3425782D01*
X4349218Y3448100D02*
X4349218Y3448100D01*
X3623100Y3448100D02*
X4349218D01*
X4425000Y2575880D02*
Y2735000D01*
X4424680Y2575560D02*
X4425000Y2575880D01*
X5327560Y2754720D02*
X5427980Y2654300D01*
X4782421Y2754720D02*
X5327560D01*
X3530000Y3355000D02*
X3623100Y3448100D01*
X3525000Y3355000D02*
X3530000D01*
X3251200Y1978660D02*
X3637280Y2364740D01*
X3246120Y1978660D02*
X3251200D01*
X2373825Y1328559D02*
X2404538Y1297845D01*
Y1227101D02*
X2411638Y1220001D01*
X2404538Y1227101D02*
Y1297845D01*
X2373825Y1328559D02*
Y1443677D01*
X2367501Y1450001D02*
X2373825Y1443677D01*
X3637280Y3247303D02*
X3744976Y3354999D01*
X3637280Y2364740D02*
Y3247303D01*
X3744976Y3354999D02*
X3749976D01*
X3975000Y2575000D02*
Y2735000D01*
X4200000Y2575000D02*
Y2735000D01*
X3750000Y2575000D02*
Y2735000D01*
X3525000Y2575000D02*
Y2735000D01*
X7430000Y667472D02*
X7431090Y666381D01*
X7894600Y869600D02*
X7899600D01*
X7975000Y945000D01*
X2310461Y449581D02*
X2389501D01*
X2392041Y447041D01*
X9272500Y2325000D02*
X9313650D01*
X9318250Y2329600D01*
Y2409273D01*
X9340977Y2432000D01*
X9364000D01*
X9272500Y1675000D02*
X9313650D01*
X9318250Y1670400D01*
Y1590728D02*
Y1670400D01*
Y1590728D02*
X9340977Y1568000D01*
X9364000D01*
X2182161Y1450341D02*
X2182502Y1450001D01*
X2076781Y1450341D02*
X2182161D01*
X2392041Y447041D02*
X2395002Y450001D01*
X2367501Y150001D02*
X2369902Y152401D01*
X2483181D01*
X2122501Y800001D02*
X2138752Y783751D01*
Y549601D02*
X2143352Y545001D01*
X2155002D01*
X2125002Y1027501D02*
X2127501Y1030001D01*
X2122501Y800001D02*
X2125002Y802501D01*
X6901360Y889600D02*
X6948460Y842500D01*
X6901360Y889600D02*
Y954220D01*
X7430000Y874767D02*
Y882528D01*
X7428993Y873760D02*
X7430000Y874767D01*
X7386320Y873760D02*
X7428993D01*
X4219780Y2299780D02*
X4220000Y2300000D01*
X4117340Y2299780D02*
X4219780D01*
X4232440Y1474940D02*
X4232500Y1475000D01*
X4119880Y1474940D02*
X4232440D01*
X3889060Y988060D02*
X3992880D01*
X3887500Y986500D02*
X3889060Y988060D01*
X3975000Y1695000D02*
X3975100Y1694900D01*
Y1620520D02*
Y1694900D01*
X3532020Y1874520D02*
X3532500Y1875000D01*
X3416300Y1874520D02*
X3532020D01*
X3517340Y1572340D02*
X3520000Y1575000D01*
X3416100Y1572340D02*
X3517340D01*
X3023000Y1019500D02*
X3025000Y1017500D01*
X2016041Y1125001D02*
X2127501D01*
X2015821Y1125221D02*
X2016041Y1125001D01*
D42*
X6735265Y1617165D02*
X7402375D01*
X7396928Y1586691D02*
X7502799Y1480820D01*
X6807404Y1586691D02*
X7396928D01*
X6770713Y1550000D02*
X6807404Y1586691D01*
X6495000Y1550000D02*
X6770713D01*
X5752659Y1930400D02*
X6279160D01*
X6283960Y1925600D01*
X7402375Y1617165D02*
X7513320Y1506220D01*
X6378536Y1899775D02*
X6494775D01*
X6378310Y1899550D02*
X6378536Y1899775D01*
X6494775D02*
X6495000Y1900000D01*
X6654800Y1612635D02*
Y1765300D01*
X5551709Y2131350D02*
X5752659Y1930400D01*
X6620100Y1800000D02*
X6654800Y1765300D01*
X7502799Y1480820D02*
X8221980D01*
X8377450Y1636290D01*
X8211459Y1506220D02*
X8352050Y1646811D01*
X7513320Y1506220D02*
X8211459D01*
X8394700Y2174240D02*
Y2503718D01*
X8639497Y2748515D01*
X8847822Y2854960D02*
X9079960D01*
X8352050Y2000000D02*
Y2496989D01*
X8628976Y2773915D01*
X8530000Y2025000D02*
X8530310Y2024690D01*
X8638230D01*
X8638540Y2024380D01*
X8427050Y2075000D02*
X8530000D01*
X8352050Y2000000D02*
X8427050Y2075000D01*
X8377450Y1636290D02*
Y1968500D01*
X8352050Y1646811D02*
Y2000000D01*
X8433950Y2025000D02*
X8530000D01*
X8377450Y1968500D02*
X8433950Y2025000D01*
X6675000Y1370000D02*
Y1479050D01*
X6697980Y1502030D01*
Y1508450D01*
X5300000Y1538318D02*
Y1688870D01*
Y1538318D02*
X5442588Y1395730D01*
X5502770D01*
X5813500Y1085000D01*
X5662500Y1805000D02*
X5675000Y1792500D01*
X5425000Y1805000D02*
X5662500D01*
X4839009Y2104050D02*
X5112090D01*
X5300980Y1749020D02*
Y1915160D01*
X5112090Y2104050D02*
X5300980Y1915160D01*
Y1749020D02*
X5349050Y1700950D01*
X5823370D01*
X5183871Y1805000D02*
X5300000Y1688870D01*
X5175000Y1805000D02*
X5183871D01*
X5813500Y1075000D02*
Y1085000D01*
X2473361Y355001D02*
X2522220Y403860D01*
X2395002Y355001D02*
X2473361D01*
X2745000Y1225000D02*
X3518620D01*
X2550000Y1030000D02*
X2745000Y1225000D01*
X2395001Y1030001D02*
X2412501D01*
X2412502Y1030000D02*
X2550000D01*
X2412501Y1030001D02*
X2412502Y1030000D01*
X6347472Y2644850D02*
X6712862Y2279460D01*
X5885529Y2644850D02*
X6347472D01*
X5845449Y2604770D02*
X5885529Y2644850D01*
X5823370Y1700950D02*
X5824220Y1701800D01*
X3774442Y1694180D02*
X3799022Y1669600D01*
X3842200D02*
X3911600Y1600200D01*
X3799022Y1669600D02*
X3842200D01*
X7324790Y2196190D02*
X7324791D01*
X7269820Y2141220D02*
X7324790Y2196190D01*
X7155180Y2141220D02*
X7269820D01*
X7324791Y2196190D02*
X7414260Y2285659D01*
Y2304256D01*
X7540784Y2430780D01*
X7155180Y2141220D02*
X7155180Y2141220D01*
X9199109Y3597950D02*
X9594950D01*
X9651000Y3654000D01*
X9090709Y3706350D02*
X9199109Y3597950D01*
X9170059Y3500000D02*
X9199109Y3470950D01*
X9594950D01*
X9651000Y3527000D01*
X8955000Y3500000D02*
X9170059D01*
X9651000Y3527000D02*
X9753500D01*
X9196145Y3343950D02*
X9493891D01*
X9549941Y3400000D01*
X9077195Y3225000D02*
X9196145Y3343950D01*
X9549941Y3400000D02*
X9753500D01*
X9214009Y3089950D02*
X9493891D01*
X9074059Y2950000D02*
X9214009Y3089950D01*
X9493891D02*
X9549941Y3146000D01*
X9753500D01*
X9505050Y3718149D02*
Y3983450D01*
X9363500Y4125000D02*
X9505050Y3983450D01*
X9479650Y3692749D02*
X9505050Y3718149D01*
X9479650Y3684650D02*
Y3692749D01*
X9346500Y3654000D02*
X9449000D01*
X9479650Y3684650D01*
X9651000Y3654000D02*
X9753500D01*
X8955000Y3760000D02*
Y3775000D01*
Y3760000D02*
X9008650Y3706350D01*
X9090709D01*
X8639497Y2748515D02*
X8777298D01*
X9540841Y3009900D02*
X9721640D01*
X9730740Y3019000D01*
X9223871Y2962950D02*
X9493891D01*
X8777298Y2748515D02*
X8858343Y2829560D01*
X9493891Y2962950D02*
X9540841Y3009900D01*
X8858343Y2829560D02*
X9090481D01*
X9223871Y2962950D01*
X8766777Y2773915D02*
X8847822Y2854960D01*
X9079960D02*
X9213350Y2988350D01*
Y2988350D01*
X9244000Y3019000D01*
X9346500D01*
X8628976Y2773915D02*
X8766777D01*
X8955000Y3225000D02*
X9077195D01*
X8955000Y2950000D02*
X9074059D01*
X8640550Y3043412D02*
X8665950Y3068812D01*
Y3405950D01*
X8745000Y3485000D01*
X8167557Y2456180D02*
X8640550Y2929172D01*
Y3043412D01*
X8745000Y3485000D02*
Y3500000D01*
X8618455Y2799315D02*
X8756256D01*
X8824050Y2867109D01*
Y3582891D01*
X8745000Y3661941D02*
X8824050Y3582891D01*
X8745000Y3661941D02*
Y3775000D01*
X8691350Y2881350D02*
X8745000Y2935000D01*
X8188599Y2405380D02*
X8664569Y2881350D01*
X8745000Y2935000D02*
Y2950000D01*
X8664569Y2881350D02*
X8691350D01*
X8745000Y3111941D02*
Y3225000D01*
X8665950Y3032891D02*
X8745000Y3111941D01*
X8665950Y2918652D02*
Y3032891D01*
X8178078Y2430780D02*
X8665950Y2918652D01*
X7203440Y3180080D02*
X7232570Y3150950D01*
X7557508D02*
X7632508Y3225950D01*
X7232570Y3150950D02*
X7557508D01*
X6885870Y3221630D02*
X7070791D01*
X7173450Y3118971D01*
Y3002509D02*
Y3118971D01*
Y3002509D02*
X7258259Y2917700D01*
X7274241D01*
X7359050Y2832891D01*
Y2667109D02*
Y2832891D01*
X7275000Y2583059D02*
X7359050Y2667109D01*
X7275000Y2480000D02*
Y2583059D01*
X3910000Y1505000D02*
X3911600Y1506600D01*
Y1600200D01*
X4077351Y2500372D02*
X5846978D01*
X3864970Y2029460D02*
Y2287991D01*
X4077351Y2500372D01*
X1478280Y3258820D02*
X1711960Y3492500D01*
X3604638D01*
X5846978Y2500372D02*
X5847080Y2500270D01*
X6873240Y2350555D02*
X6925000Y2402315D01*
X6873240Y2347870D02*
Y2350555D01*
X6925000Y2402315D02*
Y2480000D01*
X3906520Y2293620D02*
X4071620Y2458720D01*
X5890260D01*
X6973650Y2348310D02*
Y2478650D01*
X6975000Y2480000D01*
X6972300Y2346960D02*
X6973650Y2348310D01*
X5896050Y2619450D02*
X6336950D01*
X6583860Y2372541D01*
X5855970Y2579370D02*
X5896050Y2619450D01*
X6326430Y2594050D02*
X6725920Y2194560D01*
X5906571Y2594050D02*
X6326430D01*
X5866491Y2553970D02*
X5906571Y2594050D01*
X6288099Y1091259D02*
Y1167459D01*
X6337300Y1216660D01*
X6495000Y1800000D02*
X6620100D01*
X6027420Y3008539D02*
X6163219Y2872740D01*
X6027420Y3008539D02*
Y3037049D01*
X5825000Y3239469D02*
X6027420Y3037049D01*
X5821680Y3229185D02*
Y3243510D01*
X5825000Y3239469D02*
Y3267500D01*
Y3297500D01*
X5901351Y3238650D02*
X6058850Y3081151D01*
X5901351Y3238650D02*
Y3286149D01*
X6058850Y3081150D02*
Y3081151D01*
X5890000Y3297500D02*
X5901351Y3286149D01*
X6173740Y2898140D02*
X6854724D01*
X6080000Y2991880D02*
X6173740Y2898140D01*
X6080000Y2991880D02*
Y3060000D01*
X6959600Y2697480D02*
Y2793264D01*
X6854724Y2898140D02*
X6959600Y2793264D01*
X7025000Y2480000D02*
Y2596159D01*
X6934200Y2686959D02*
Y2782743D01*
Y2686959D02*
X7025000Y2596159D01*
X7075000Y2480000D02*
Y2582080D01*
X6959600Y2697480D02*
X7075000Y2582080D01*
X6844203Y2872740D02*
X6934200Y2782743D01*
X6163219Y2872740D02*
X6844203D01*
X5493561Y2651580D02*
X5516401D01*
X5345972Y2799170D02*
X5493561Y2651580D01*
X5516401D02*
X5521661Y2646320D01*
X4800833Y2799170D02*
X5345972D01*
X6769100Y2639800D02*
X6825000Y2583899D01*
Y2480000D02*
Y2583899D01*
X7062017Y3047500D02*
X7065168Y3044348D01*
X7062017Y3048000D02*
X7120437Y3106420D01*
X7065168Y3044348D02*
X7175000Y2934517D01*
X7120437Y3106420D02*
X7127240D01*
X7724570Y3052930D02*
Y3130480D01*
Y3052930D02*
X7725000Y3052500D01*
X7724140Y3130910D02*
X7724570Y3130480D01*
X7688580Y3172460D02*
X7769081D01*
X7660640Y3144520D02*
X7688580Y3172460D01*
X7660640Y3053140D02*
Y3144520D01*
X7769081Y3172460D02*
X7894041Y3047500D01*
X7175000Y2430000D02*
Y2480000D01*
X6875000D02*
X6875390Y2480390D01*
Y2615810D01*
X6875780Y2616200D01*
X7628160Y2938780D02*
X7762690Y2804250D01*
X7625080Y2938780D02*
X7628160D01*
X7843420Y2755100D02*
Y2772840D01*
X7812010Y2804250D02*
X7843420Y2772840D01*
X7762690Y2804250D02*
X7812010D01*
X7225650Y2480650D02*
Y2628250D01*
X7226300Y2628900D01*
X7225000Y2480000D02*
X7225650Y2480650D01*
X7406640Y2872740D02*
X7480240D01*
X7660000Y3052500D01*
X6840000Y3267500D02*
X6885870Y3221630D01*
X6840000Y3267500D02*
Y3297500D01*
X7432991Y2456180D02*
X8167557D01*
X7425000Y2464171D02*
Y2480000D01*
Y2464171D02*
X7432991Y2456180D01*
X7540784Y2430780D02*
X8178078D01*
X7551305Y2405380D02*
X8188599D01*
X8199120Y2379980D02*
X8618455Y2799315D01*
X7561826Y2379980D02*
X8199120D01*
X7439660Y2202180D02*
Y2293735D01*
X6420000Y2000000D02*
X7237480D01*
X7439660Y2202180D01*
Y2293735D02*
X7551305Y2405380D01*
X7465060Y2212340D02*
X7477400Y2200000D01*
X7605000D01*
X7465060Y2212340D02*
Y2283214D01*
X7561826Y2379980D01*
X7124850Y2362350D02*
Y2479850D01*
X7124700Y2362200D02*
X7124850Y2362350D01*
Y2479850D02*
X7125000Y2480000D01*
X6712862Y2279460D02*
X7122160D01*
X7604982Y2149982D02*
X7605000Y2150000D01*
X7455416Y2149982D02*
X7604982D01*
X7455398Y2149963D02*
X7455416Y2149982D01*
X5309238Y2710180D02*
X5414648Y2604770D01*
X5845449D01*
X5404127Y2579370D02*
X5855970D01*
X6718491Y2237910D02*
X7188030D01*
X6583860Y2372541D02*
X6718491Y2237910D01*
X7375000Y2305160D02*
Y2480000D01*
X7307580Y2237740D02*
X7375000Y2305160D01*
X7203440Y2194560D02*
X7325000Y2316120D01*
X6725920Y2194560D02*
X7203440D01*
X6583860Y2372541D02*
X6583860D01*
X7325000Y2316120D02*
Y2480000D01*
X5393606Y2553970D02*
X5866491D01*
X5080000Y2200000D02*
X5245000D01*
X5045000Y2235000D02*
X5080000Y2200000D01*
X5455000Y2185000D02*
X5508650Y2131350D01*
X5455000Y2185000D02*
Y2200000D01*
X5508650Y2131350D02*
X5551709D01*
X6748780Y3180080D02*
X6972300D01*
X6710000Y3052500D02*
Y3141300D01*
X6748780Y3180080D01*
X6710000Y3052500D02*
X6710000Y3052500D01*
X7743500Y3225950D02*
X7790000Y3272450D01*
X7632508Y3225950D02*
X7743500D01*
X7790000Y3272450D02*
Y3297500D01*
X7660000Y3052500D02*
X7660640Y3053140D01*
X7894041Y3047500D02*
X7980000D01*
X7175000Y2480000D02*
Y2934517D01*
X7030000Y3047500D02*
X7062017D01*
X6058850Y3081150D02*
X6080000Y3060000D01*
X5768445Y3175950D02*
X5821680Y3229185D01*
X5356909Y3175950D02*
X5768445D01*
X5228459Y3047500D02*
X5356909Y3175950D01*
X5130000Y3047500D02*
X5228459D01*
X6355080Y1648460D02*
X6355850Y1649230D01*
X6494230D02*
X6495000Y1650000D01*
X6355850Y1649230D02*
X6494230D01*
X4643059Y2300000D02*
X4839009Y2104050D01*
X4430000Y2300000D02*
X4643059D01*
X5769050Y1884050D02*
X6304050D01*
X6420000Y2000000D01*
X5675000Y1792500D02*
X5677500D01*
X5769050Y1884050D01*
X5963850Y1595000D02*
X5965000D01*
X5950000D02*
X5963850D01*
X5965000D02*
X6070000Y1700000D01*
X6495000D01*
X6017500Y1350000D02*
Y1541350D01*
X5963850Y1595000D02*
X6017500Y1541350D01*
X6205220Y1363279D02*
Y1385220D01*
X5696941Y855000D02*
X6205220Y1363279D01*
Y1385220D02*
X6420000Y1600000D01*
X5600000Y855000D02*
X5696941D01*
X5600000D02*
X5653650Y801350D01*
X6420000Y1600000D02*
X6495000D01*
X6368850Y681150D02*
Y682700D01*
X6395000Y655000D02*
X6422500D01*
X6127500Y845000D02*
X6206550D01*
X6368850Y682700D01*
Y681150D02*
X6395000Y655000D01*
X5885000Y845000D02*
X6127500D01*
X5875000Y855000D02*
X5885000Y845000D01*
X5653650Y801350D02*
X5703650D01*
X5860000Y645000D01*
X5875000D01*
X4430000Y2025000D02*
Y2300000D01*
Y1735000D02*
Y1750000D01*
X4389050Y1790950D02*
Y1840950D01*
X4220000Y2010000D02*
X4389050Y1840950D01*
Y1790950D02*
X4430000Y1750000D01*
X4220000Y2010000D02*
Y2025000D01*
X4173530Y1592270D02*
X4282270D01*
X4376350Y1681350D02*
X4430000Y1735000D01*
X4371350Y1681350D02*
X4376350D01*
X4282270Y1592270D02*
X4371350Y1681350D01*
X3518620Y1225000D02*
X3553460Y1259840D01*
Y1370401D01*
X3608259Y1425200D01*
X4166350Y1696350D02*
X4220000Y1750000D01*
X4040000Y1505000D02*
Y1517500D01*
X4166350Y1643850D01*
Y1696350D01*
X3975100Y1504900D02*
X3975200Y1505000D01*
X4040000D01*
X3325221Y1719580D02*
X3784963D01*
X3809543Y1695000D01*
X3910000D01*
X3314700Y1694180D02*
X3774442D01*
X3608259Y1425200D02*
X3683450D01*
X3975000Y3355000D02*
X4058060D01*
X4132110Y3280950D02*
X4321188D01*
X4058060Y3355000D02*
X4132110Y3280950D01*
X4649700Y2950302D02*
X4800833Y2799170D01*
X4649700Y2950302D02*
Y3261023D01*
X4567550Y3343173D02*
X4649700Y3261023D01*
X4560800Y2913479D02*
X4764009Y2710270D01*
X4560800Y2913479D02*
Y3224200D01*
X4430000Y3355000D02*
X4560800Y3224200D01*
X4535400Y2902958D02*
Y3213679D01*
X4468129Y3280950D02*
X4535400Y3213679D01*
Y2902958D02*
X4753578Y2684780D01*
X4510000Y2892437D02*
Y3203158D01*
Y2892437D02*
X4743057Y2659380D01*
X4457608Y3255550D02*
X4510000Y3203158D01*
X4519193Y3492550D02*
X4567550Y3444194D01*
X3604688Y3492550D02*
X4330806D01*
X4330807Y3492550D02*
X4519193D01*
X4567550Y3343173D02*
Y3444194D01*
X4330806Y3492550D02*
X4330807Y3492550D01*
X4425000Y3355000D02*
X4430000D01*
X4357109Y3280950D02*
X4468129D01*
X4321188D02*
X4346588Y3255550D01*
X4457608D01*
X4283059Y3355000D02*
X4357109Y3280950D01*
X4743057Y2659380D02*
X5288196D01*
X5393606Y2553970D01*
X4753578Y2684780D02*
X5298717D01*
X4820920Y2710180D02*
X5309238D01*
X4820830Y2710270D02*
X4820920Y2710180D01*
X4764009Y2710270D02*
X4820830D01*
X5298717Y2684780D02*
X5404127Y2579370D01*
X4200000Y3355000D02*
X4283059D01*
X4425000Y2914000D02*
Y3145000D01*
X3525000Y2914000D02*
Y3145000D01*
X3604638Y3492500D02*
X3604688Y3492550D01*
X3906520Y1698480D02*
Y2293620D01*
Y1698480D02*
X3910000Y1695000D01*
X4430000Y1975000D02*
Y2000000D01*
X4430000D02*
X4430000Y2000000D01*
X3975000Y2914000D02*
Y3145000D01*
X4200000Y2914000D02*
Y3145000D01*
X3750000Y2914000D02*
Y3144975D01*
X3749976Y3144999D02*
X3750000Y3144975D01*
X9272500Y1875000D02*
X9274010Y1873490D01*
X9513330D01*
X9514840Y1871980D01*
X1798320Y2677160D02*
X1930761D01*
X2286361Y2321560D01*
X1913890Y2622867D02*
X1916112D01*
X2242820Y2296160D01*
X2712720D01*
X2286361Y2321560D02*
X2723241D01*
X3238500Y1806301D02*
Y1806301D01*
X2723241Y2321560D02*
X3238500Y1806301D01*
Y1806301D02*
X3325221Y1719580D01*
X2712720Y2296160D02*
X3314700Y1694180D01*
X3725000Y1317500D02*
Y1572500D01*
X3717500Y1580000D02*
X3725000Y1572500D01*
X5045000Y2235000D02*
Y2255000D01*
X5088650Y2298650D01*
X3450000Y1132500D02*
X3675000D01*
X3744000Y1113500D02*
X3887500D01*
X3725000Y1132500D02*
X3744000Y1113500D01*
X3887500Y859500D02*
X3887690Y859311D01*
X3961611D02*
X4015440Y805482D01*
Y717061D02*
Y805482D01*
X3887690Y859311D02*
X3961611D01*
X4015440Y717061D02*
X4057500Y675000D01*
X4242500D02*
Y793180D01*
X4308820Y859500D02*
X4412500D01*
X4242500Y793180D02*
X4308820Y859500D01*
X4412500Y1240500D02*
Y1420000D01*
X4417500Y1425000D01*
X3975100Y1379220D02*
Y1504900D01*
X3887500Y1240500D02*
Y1291620D01*
X3975100Y1379220D01*
X2127501Y1220001D02*
X2208062D01*
X2368851Y1059211D01*
Y1056151D02*
Y1059211D01*
Y1056151D02*
X2395001Y1030001D01*
D43*
X7223240Y840740D02*
X7225000Y842500D01*
X7123700Y840740D02*
X7223240D01*
X7872500Y2242500D02*
X7875000D01*
X6424980Y2304050D02*
Y2373580D01*
X6423660Y2374900D02*
X6424980Y2373580D01*
X6429030Y2300000D02*
X6495000D01*
X6424980Y2304050D02*
X6429030Y2300000D01*
X6550660Y2545080D02*
X6607500Y2601920D01*
Y2750000D01*
X6602380Y2755120D02*
X6607500Y2750000D01*
X6332280Y2755120D02*
X6602380D01*
X6240000Y1805000D02*
X6295000Y1750000D01*
X6495000D01*
X6225000Y1805000D02*
X6240000D01*
X2240911Y354031D02*
X2241881Y353061D01*
X2172522Y354031D02*
X2240911D01*
X2155972D02*
X2172522D01*
X2182502Y344051D01*
X2155002Y355001D02*
X2155972Y354031D01*
X4039050Y1695950D02*
X4040000Y1695000D01*
X4039050Y1695950D02*
Y1745203D01*
X4018280Y1765973D02*
X4039050Y1745203D01*
X4018280Y1765973D02*
Y1767840D01*
X3717500Y1875000D02*
X3719560Y1877060D01*
X3830320D01*
X2182502Y150001D02*
Y344051D01*
D44*
X8477500Y1398500D02*
X8479000Y1400000D01*
X8476000Y558800D02*
X8477500Y560300D01*
Y1398500D01*
X5311140Y1338580D02*
X5448300D01*
Y1219200D02*
Y1338580D01*
Y1219200D02*
X5450000Y1217500D01*
X4860000Y1595000D02*
X5125000D01*
X4774200Y1509200D02*
X4860000Y1595000D01*
X4818837Y1066900D02*
X4865600D01*
X4774200Y1111537D02*
X4818837Y1066900D01*
X4865600D02*
X4900000Y1032500D01*
X4774200Y1111537D02*
Y1509200D01*
X1496000Y1425000D02*
X1700000D01*
X1016000Y1387000D02*
X1054000Y1425000D01*
X1016000Y558800D02*
Y1387000D01*
X5173980Y1338580D02*
X5311140D01*
X5036820D02*
X5173980D01*
X4899660D02*
X5036820D01*
X5173980Y1218520D02*
X5175000Y1217500D01*
X5173980Y1218520D02*
Y1338580D01*
X4899660Y1217840D02*
X4900000Y1217500D01*
X4899660Y1217840D02*
Y1338580D01*
D45*
X7360536Y1255879D02*
X7374200Y1269543D01*
X7359969Y1256446D02*
X7360536Y1255879D01*
X7374200Y1271908D02*
X7375000Y1272708D01*
X7374200Y1269543D02*
Y1271908D01*
X7375000Y1272708D02*
Y1370000D01*
X6725000Y2480000D02*
X6725880Y2480880D01*
X6739189Y2585154D02*
Y2590458D01*
X6725880Y2480880D02*
Y2571846D01*
X6739189Y2585154D01*
X6675000Y2480000D02*
Y2601510D01*
X6725000Y1370000D02*
X6725880Y1369120D01*
Y1228720D02*
Y1369120D01*
Y1228720D02*
X6727100Y1227500D01*
X6775000Y1185000D02*
Y1370000D01*
X6692500Y1102500D02*
X6775000Y1185000D01*
X6692500Y1100000D02*
Y1102500D01*
X7425000Y1117500D02*
Y1370000D01*
X7407500Y1100000D02*
X7425000Y1117500D01*
X7605000Y2250000D02*
X7739696D01*
X7752196Y2237500D02*
X7757500D01*
X7739696Y2250000D02*
X7752196Y2237500D01*
X7605000Y2300000D02*
X7815000D01*
X7872500Y2242500D01*
D46*
X6710000Y3229669D02*
Y3297500D01*
D47*
X9236500Y4125000D02*
D03*
D48*
X9363500D02*
D03*
D49*
X9417000Y1711000D02*
D03*
Y2289000D02*
D03*
D50*
X9782000Y2432000D02*
D03*
Y1568000D02*
D03*
D51*
X9364000D02*
D03*
Y2432000D02*
D03*
D52*
X8984000Y558800D02*
D03*
X1524000D02*
D03*
D53*
X8476000D02*
D03*
X1016000D02*
D03*
D54*
X1584500Y2197600D02*
D03*
D55*
X250000Y250000D02*
D03*
X9750000D02*
D03*
Y4750000D02*
D03*
X250000D02*
D03*
D56*
X7116978Y1545141D02*
D03*
X7051040Y1508760D02*
D03*
X7058660Y1220327D02*
D03*
X6140000Y2372500D02*
D03*
X5927500Y2029100D02*
D03*
X5910204Y2242500D02*
D03*
X5025000Y1900000D02*
D03*
X5000000Y2600000D02*
D03*
X4853940Y2376640D02*
D03*
X6735265Y1617165D02*
D03*
X6873428Y1545141D02*
D03*
X6976511Y1535428D02*
D03*
X6925533Y1508400D02*
D03*
X6283960Y1925600D02*
D03*
X6378310Y1899550D02*
D03*
X6654800Y1612635D02*
D03*
X5420360Y1910080D02*
D03*
X7340720Y546900D02*
D03*
X7106920Y660400D02*
D03*
X7123700Y840740D02*
D03*
X8037500Y1602500D02*
D03*
X7863840Y4023360D02*
D03*
Y4417060D02*
D03*
X6964680D02*
D03*
X6962140Y4025900D02*
D03*
X6062980D02*
D03*
Y4417060D02*
D03*
X5163820D02*
D03*
Y4025900D02*
D03*
X1100000Y375000D02*
D03*
X1175000Y450000D02*
D03*
X875000D02*
D03*
X1025000Y375000D02*
D03*
X950000D02*
D03*
X9250000Y1125000D02*
D03*
X8175000D02*
D03*
X8394700Y2174240D02*
D03*
X8638540Y2024380D02*
D03*
X8542500Y2397500D02*
D03*
X6697980Y1508450D02*
D03*
X8185000Y450000D02*
D03*
X8260000D02*
D03*
X8335000D02*
D03*
X8185000Y375000D02*
D03*
X8260000D02*
D03*
X8335000D02*
D03*
X8410000D02*
D03*
X8485000D02*
D03*
X8560000D02*
D03*
X8635000D02*
D03*
X8710000D02*
D03*
X8785000Y450000D02*
D03*
X8710000D02*
D03*
X8635000D02*
D03*
X8785000Y375000D02*
D03*
X5552985Y1595665D02*
D03*
X5448300Y1338580D02*
D03*
X2522220Y403860D02*
D03*
X2750000Y325000D02*
D03*
X2950000D02*
D03*
X2850000D02*
D03*
X3150000D02*
D03*
X2650000D02*
D03*
X3050000D02*
D03*
X3225000Y300000D02*
D03*
Y200000D02*
D03*
Y100000D02*
D03*
X2550000Y300000D02*
D03*
Y200000D02*
D03*
Y100000D02*
D03*
X4196080Y858520D02*
D03*
X2775000Y1450000D02*
D03*
X2875000D02*
D03*
X2975000D02*
D03*
X2796940Y1132440D02*
D03*
X3023000D02*
D03*
X7155180Y2141220D02*
D03*
X9158180Y3146000D02*
D03*
X9160300Y3400000D02*
D03*
X9531140Y3527000D02*
D03*
X8532940Y3082500D02*
D03*
X7555840Y3057500D02*
D03*
X7203440Y3180080D02*
D03*
X6605880Y3057500D02*
D03*
X5657500Y3082500D02*
D03*
X8250000Y1300000D02*
D03*
X1325000Y375000D02*
D03*
X1250000Y450000D02*
D03*
X1325000D02*
D03*
X1250000Y375000D02*
D03*
X1175000D02*
D03*
X875000D02*
D03*
X800000D02*
D03*
X725000D02*
D03*
X800000Y450000D02*
D03*
X725000D02*
D03*
X2227502Y800001D02*
D03*
X2022501D02*
D03*
X7660000Y3380000D02*
D03*
X5890000Y2957500D02*
D03*
X5992500Y2755000D02*
D03*
X1225000Y3557500D02*
D03*
X1372500Y3420000D02*
D03*
X1925000Y3877500D02*
D03*
X1650000Y3875000D02*
D03*
X7063100Y546900D02*
D03*
X7557500Y560000D02*
D03*
X7359969Y1256446D02*
D03*
X6887500Y2747500D02*
D03*
X6739189Y2590458D02*
D03*
X6675000Y2601510D02*
D03*
X5560202Y1032500D02*
D03*
X6957502Y1210203D02*
D03*
X9555000Y1235202D02*
D03*
X8842502Y1860205D02*
D03*
Y2289800D02*
D03*
X8019999Y3439800D02*
D03*
X7767498D02*
D03*
X7582499D02*
D03*
X7120001D02*
D03*
X6867500D02*
D03*
X6682501D02*
D03*
X6219998D02*
D03*
X5967501D02*
D03*
X5782498D02*
D03*
X5320000Y3660201D02*
D03*
X5130002Y3227299D02*
D03*
X5439797Y3267502D02*
D03*
X6079998Y3227299D02*
D03*
X6389796Y3242502D02*
D03*
X6709999Y3209798D02*
D03*
X7339800Y3242502D02*
D03*
X7979999Y3227299D02*
D03*
X8314799Y3267502D02*
D03*
X8022422Y2654899D02*
D03*
X6727100Y1227500D02*
D03*
X6815000Y1100000D02*
D03*
X7302500D02*
D03*
X6032297Y750001D02*
D03*
X5785201Y1607500D02*
D03*
X7592502Y1210203D02*
D03*
X6507500D02*
D03*
X7267499Y2860203D02*
D03*
X7082500Y2639797D02*
D03*
X7642499D02*
D03*
X7457501D02*
D03*
X5832500Y1460200D02*
D03*
X6785204Y842498D02*
D03*
X6564798Y657499D02*
D03*
X5839800Y1805000D02*
D03*
X6114796Y1594998D02*
D03*
X5710204Y645003D02*
D03*
X8037500Y1792500D02*
D03*
X7757500Y2237500D02*
D03*
X8037500Y2057500D02*
D03*
Y2242500D02*
D03*
X3911600Y1600200D02*
D03*
X3864970Y2029460D02*
D03*
X1478280Y3258820D02*
D03*
X6873240Y2347870D02*
D03*
X5847080Y2500270D02*
D03*
X5890260Y2458720D02*
D03*
X6972300Y2346960D02*
D03*
X6288099Y1091259D02*
D03*
X6337300Y1216660D02*
D03*
X6774180Y3131820D02*
D03*
X5819140Y3119120D02*
D03*
X6423660Y2374900D02*
D03*
X6550660Y2545080D02*
D03*
X6769100Y2639800D02*
D03*
X5521661Y2646320D02*
D03*
X7127240Y3106420D02*
D03*
X7724140Y3130910D02*
D03*
X6875780Y2616200D02*
D03*
X7625080Y2938780D02*
D03*
X7226300Y2628900D02*
D03*
X7406640Y2872740D02*
D03*
X7124700Y2362200D02*
D03*
X7455398Y2149963D02*
D03*
X7122160Y2279460D02*
D03*
X7307580Y2237740D02*
D03*
X7188030Y2237910D02*
D03*
X6972300Y3180080D02*
D03*
X9730800Y1869440D02*
D03*
X9731948Y2124338D02*
D03*
X9514840Y2120900D02*
D03*
X6355080Y1648460D02*
D03*
X5824220Y1701800D02*
D03*
X4173530Y1592270D02*
D03*
X3305699Y1315000D02*
D03*
X1700000Y1425000D02*
D03*
X4424680Y2575560D02*
D03*
X5427980Y2654300D02*
D03*
X3246120Y1978660D02*
D03*
X3975000Y2575000D02*
D03*
X4200000D02*
D03*
X3750000D02*
D03*
X3525000D02*
D03*
X2241881Y353061D02*
D03*
X2310461Y449581D02*
D03*
X3683450Y1425200D02*
D03*
X5173980Y1338580D02*
D03*
X5311140D02*
D03*
X5036820D02*
D03*
X4899660D02*
D03*
X568960Y2786380D02*
D03*
X1059180D02*
D03*
X1201420D02*
D03*
X1343660D02*
D03*
X1409700D02*
D03*
X1620520D02*
D03*
X1689100D02*
D03*
X1968500D02*
D03*
X2039620D02*
D03*
X2110740D02*
D03*
X2600960D02*
D03*
X2529840D02*
D03*
X2250440D02*
D03*
X2179320D02*
D03*
X2076781Y1450341D02*
D03*
X4018280Y1767840D02*
D03*
X3830320Y1877060D02*
D03*
X9514840Y1871980D02*
D03*
X2483181Y152401D02*
D03*
X6901360Y954220D02*
D03*
X1798320Y2677160D02*
D03*
X1913890Y2622867D02*
D03*
X4117340Y2299780D02*
D03*
X4119880Y1474940D02*
D03*
X3992880Y988060D02*
D03*
X3975100Y1620520D02*
D03*
X3416300Y1874520D02*
D03*
X3416100Y1572340D02*
D03*
X2015821Y1125221D02*
D03*
X9403440Y2024380D02*
D03*
X9405620Y1925320D02*
D03*
D57*
X5800000Y4750000D02*
D03*
X6700000D02*
D03*
X8700000Y1275000D02*
D03*
Y1525000D02*
D03*
X4350000Y225000D02*
D03*
X4475000Y700000D02*
D03*
X5350000D02*
D03*
Y325000D02*
D03*
X5050000D02*
D03*
X4750000D02*
D03*
X5050000Y700000D02*
D03*
X4750000D02*
D03*
X4900000Y450000D02*
D03*
X5200000D02*
D03*
Y800000D02*
D03*
X4900000D02*
D03*
X4600000D02*
D03*
X8600000Y225000D02*
D03*
X8300000D02*
D03*
X9750000Y1100000D02*
D03*
Y850000D02*
D03*
Y600000D02*
D03*
X9100000Y250000D02*
D03*
X9350000D02*
D03*
X9750000Y1350000D02*
D03*
Y2600000D02*
D03*
Y4150000D02*
D03*
Y4400000D02*
D03*
X1850000Y1100000D02*
D03*
Y1350000D02*
D03*
Y1600000D02*
D03*
Y1850000D02*
D03*
X1600000D02*
D03*
X1350000D02*
D03*
X1100000D02*
D03*
X850000D02*
D03*
X600000D02*
D03*
Y1600000D02*
D03*
Y1350000D02*
D03*
Y1100000D02*
D03*
Y850000D02*
D03*
Y600000D02*
D03*
Y250000D02*
D03*
X850000D02*
D03*
X1100000D02*
D03*
X1350000D02*
D03*
X1600000D02*
D03*
X1850000D02*
D03*
X8600000Y4750000D02*
D03*
X8850000D02*
D03*
X9100000D02*
D03*
X9350000D02*
D03*
X4600000D02*
D03*
X4850000D02*
D03*
X7600000D02*
D03*
X600000D02*
D03*
X850000D02*
D03*
X1100000D02*
D03*
X1350000D02*
D03*
X1600000D02*
D03*
X1850000D02*
D03*
X2100000D02*
D03*
X2350000D02*
D03*
X2600000D02*
D03*
X2850000D02*
D03*
X3100000D02*
D03*
X3350000D02*
D03*
X3600000D02*
D03*
X3850000D02*
D03*
X4100000D02*
D03*
X4350000D02*
D03*
X250000Y4350000D02*
D03*
Y4100000D02*
D03*
Y3850000D02*
D03*
Y3600000D02*
D03*
Y3350000D02*
D03*
Y3100000D02*
D03*
Y2850000D02*
D03*
Y2600000D02*
D03*
Y2350000D02*
D03*
Y2100000D02*
D03*
Y1850000D02*
D03*
Y1600000D02*
D03*
Y1350000D02*
D03*
Y1100000D02*
D03*
Y850000D02*
D03*
Y600000D02*
D03*
X4600000Y225000D02*
D03*
X4900000D02*
D03*
X5200000D02*
D03*
X5500000D02*
D03*
X5800000D02*
D03*
X6100000D02*
D03*
X6400000D02*
D03*
X6700000D02*
D03*
X7000000D02*
D03*
X7300000D02*
D03*
X7600000D02*
D03*
X7900000D02*
D03*
%TF.MD5,5092453621f90b7c9bea5142da65e374*%
M02*
