%TF.GenerationSoftware,Altium Limited,Altium Designer,21.1.1 (26)*%
G04 Layer_Physical_Order=2*
G04 Layer_Color=32768*
%FSLAX45Y45*%
%MOMM*%
%TF.SameCoordinates,E9E44C67-710E-4D47-B277-6F884E921ACF*%
%TF.FilePolarity,Negative*%
%TF.FileFunction,Copper,L2,Inr,Plane*%
%TF.Part,Single*%
G01*
G75*
%TA.AperFunction,NonConductor*%
%ADD58C,0.25400*%
%ADD59C,1.01600*%
%TA.AperFunction,ComponentPad*%
G04:AMPARAMS|DCode=60|XSize=1.716mm|YSize=1.716mm|CornerRadius=0mm|HoleSize=0mm|Usage=FLASHONLY|Rotation=0.000|XOffset=0mm|YOffset=0mm|HoleType=Round|Shape=Relief|Width=0.254mm|Gap=0.254mm|Entries=4|*
%AMTHD60*
7,0,0,1.71600,1.20800,0.25400,45*
%
%ADD60THD60*%
%ADD61C,0.95400*%
%ADD62C,0.90400*%
%ADD63O,1.45400X0.85400*%
%ADD64O,1.95400X0.85400*%
%ADD65C,1.55400*%
G04:AMPARAMS|DCode=66|XSize=2.316mm|YSize=2.316mm|CornerRadius=0mm|HoleSize=0mm|Usage=FLASHONLY|Rotation=0.000|XOffset=0mm|YOffset=0mm|HoleType=Round|Shape=Relief|Width=0.254mm|Gap=0.254mm|Entries=4|*
%AMTHD66*
7,0,0,2.31600,1.80800,0.25400,45*
%
%ADD66THD66*%
%ADD67O,22.25400X0.65400*%
%TA.AperFunction,ViaPad*%
%ADD68C,2.45400*%
%ADD69C,0.55400*%
%ADD70C,0.96520*%
D58*
X5800000Y600000D02*
Y975000D01*
X4150000Y275000D02*
Y300000D01*
X8775000Y562500D02*
Y725000D01*
Y200000D02*
Y437500D01*
X8700000Y800000D02*
X8775000Y725000D01*
X8350000Y800000D02*
X8700000D01*
X8275000Y725000D02*
X8350000Y800000D01*
X8275000Y550000D02*
Y725000D01*
X8225000Y500000D02*
X8275000Y550000D01*
X5900000Y500000D02*
X8225000D01*
X5800000Y600000D02*
X5900000Y500000D01*
X5650000Y1125000D02*
X5800000Y975000D01*
X4300000Y1125000D02*
X5650000D01*
X4150000Y975000D02*
X4300000Y1125000D01*
X4150000Y300000D02*
Y975000D01*
Y275000D02*
X4325000Y100000D01*
X8675000D01*
X8775000Y200000D01*
Y437500D02*
Y562500D01*
D59*
X10000000Y200000D02*
Y4800000D01*
X9800000Y5000000D02*
X10000000Y4800000D01*
X200000Y5000000D02*
X9800000D01*
X0Y4800000D02*
X200000Y5000000D01*
X0Y200000D02*
X0Y4800000D01*
X0Y200000D02*
X200000Y0D01*
X9800000D01*
X10000000Y200000D01*
D60*
X9236500Y4125000D02*
D03*
D61*
X9363500D02*
D03*
D62*
X9417000Y1711000D02*
D03*
Y2289000D02*
D03*
D63*
X9782000Y2432000D02*
D03*
Y1568000D02*
D03*
D64*
X9364000D02*
D03*
Y2432000D02*
D03*
D65*
X8984000Y558800D02*
D03*
X1016000D02*
D03*
X1524000D02*
D03*
D66*
X8476000D02*
D03*
D67*
X1584500Y2197600D02*
D03*
D68*
X250000Y250000D02*
D03*
X9750000D02*
D03*
Y4750000D02*
D03*
X250000D02*
D03*
D69*
X7116978Y1545141D02*
D03*
X7051040Y1508760D02*
D03*
X7058660Y1220327D02*
D03*
X6140000Y2372500D02*
D03*
X5927500Y2029100D02*
D03*
X5910204Y2242500D02*
D03*
X4853940Y2376640D02*
D03*
X6735265Y1617165D02*
D03*
X6873428Y1545141D02*
D03*
X6976511Y1535428D02*
D03*
X6925533Y1508400D02*
D03*
X6283960Y1925600D02*
D03*
X6378310Y1899550D02*
D03*
X6654800Y1612635D02*
D03*
X7340720Y546900D02*
D03*
X7106920Y660400D02*
D03*
X7863840Y4023360D02*
D03*
Y4417060D02*
D03*
X6964680D02*
D03*
X6962140Y4025900D02*
D03*
X6062980D02*
D03*
Y4417060D02*
D03*
X5163820D02*
D03*
Y4025900D02*
D03*
X1100000Y375000D02*
D03*
X1175000Y450000D02*
D03*
X875000D02*
D03*
X1025000Y375000D02*
D03*
X950000D02*
D03*
X9250000Y1125000D02*
D03*
X8175000D02*
D03*
X8394700Y2174240D02*
D03*
X8638540Y2024380D02*
D03*
X6697980Y1508450D02*
D03*
X8785000Y450000D02*
D03*
Y375000D02*
D03*
X5448300Y1338580D02*
D03*
X2522220Y403860D02*
D03*
X2750000Y325000D02*
D03*
X2950000D02*
D03*
X2850000D02*
D03*
X3150000D02*
D03*
X2650000D02*
D03*
X3050000D02*
D03*
X3225000Y300000D02*
D03*
Y200000D02*
D03*
Y100000D02*
D03*
X2550000Y300000D02*
D03*
Y200000D02*
D03*
Y100000D02*
D03*
X2775000Y1450000D02*
D03*
X2875000D02*
D03*
X2975000D02*
D03*
X2796940Y1132440D02*
D03*
X3023000D02*
D03*
X7155180Y2141220D02*
D03*
X9158180Y3146000D02*
D03*
X9160300Y3400000D02*
D03*
X9531140Y3527000D02*
D03*
X7203440Y3180080D02*
D03*
X8250000Y1300000D02*
D03*
X1325000Y375000D02*
D03*
X1250000Y450000D02*
D03*
X1325000D02*
D03*
X1250000Y375000D02*
D03*
X1175000D02*
D03*
X875000D02*
D03*
X800000D02*
D03*
X725000D02*
D03*
X800000Y450000D02*
D03*
X725000D02*
D03*
X2227502Y800001D02*
D03*
X2022501D02*
D03*
X7063100Y546900D02*
D03*
X7557500Y560000D02*
D03*
X7359969Y1256446D02*
D03*
X6887500Y2747500D02*
D03*
X6739189Y2590458D02*
D03*
X6957502Y1210203D02*
D03*
X9555000Y1235202D02*
D03*
X8842502Y1860205D02*
D03*
Y2289800D02*
D03*
X7767498Y3439800D02*
D03*
X6867500D02*
D03*
X5967501D02*
D03*
X5130002Y3227299D02*
D03*
X5439797Y3267502D02*
D03*
X6079998Y3227299D02*
D03*
X6389796Y3242502D02*
D03*
X7339800D02*
D03*
X7979999Y3227299D02*
D03*
X8314799Y3267502D02*
D03*
X8022422Y2654899D02*
D03*
X6727100Y1227500D02*
D03*
X6032297Y750001D02*
D03*
X5785201Y1607500D02*
D03*
X7592502Y1210203D02*
D03*
X6507500D02*
D03*
X7267499Y2860203D02*
D03*
X7457501Y2639797D02*
D03*
X5832500Y1460200D02*
D03*
X6785204Y842498D02*
D03*
X6564798Y657499D02*
D03*
X6114796Y1594998D02*
D03*
X5710204Y645003D02*
D03*
X8037500Y1792500D02*
D03*
X7757500Y2237500D02*
D03*
X8037500Y2057500D02*
D03*
X3911600Y1600200D02*
D03*
X3864970Y2029460D02*
D03*
X1478280Y3258820D02*
D03*
X6873240Y2347870D02*
D03*
X5847080Y2500270D02*
D03*
X5890260Y2458720D02*
D03*
X6972300Y2346960D02*
D03*
X6288099Y1091259D02*
D03*
X6337300Y1216660D02*
D03*
X6774180Y3131820D02*
D03*
X5819140Y3119120D02*
D03*
X6423660Y2374900D02*
D03*
X6550660Y2545080D02*
D03*
X6769100Y2639800D02*
D03*
X5521661Y2646320D02*
D03*
X7127240Y3106420D02*
D03*
X7724140Y3130910D02*
D03*
X6875780Y2616200D02*
D03*
X7625080Y2938780D02*
D03*
X7226300Y2628900D02*
D03*
X7406640Y2872740D02*
D03*
X7124700Y2362200D02*
D03*
X7455398Y2149963D02*
D03*
X7122160Y2279460D02*
D03*
X7307580Y2237740D02*
D03*
X7188030Y2237910D02*
D03*
X6972300Y3180080D02*
D03*
X9730800Y1869440D02*
D03*
X9731948Y2124338D02*
D03*
X9514840Y2120900D02*
D03*
X6355080Y1648460D02*
D03*
X5824220Y1701800D02*
D03*
X4173530Y1592270D02*
D03*
X3305699Y1315000D02*
D03*
X1700000Y1425000D02*
D03*
X4424680Y2575560D02*
D03*
X5427980Y2654300D02*
D03*
X3246120Y1978660D02*
D03*
X3975000Y2575000D02*
D03*
X4200000D02*
D03*
X3750000D02*
D03*
X3525000D02*
D03*
X2310461Y449581D02*
D03*
X3683450Y1425200D02*
D03*
X5173980Y1338580D02*
D03*
X5311140D02*
D03*
X5036820D02*
D03*
X4899660D02*
D03*
X568960Y2786380D02*
D03*
X1059180D02*
D03*
X1201420D02*
D03*
X1343660D02*
D03*
X1409700D02*
D03*
X1620520D02*
D03*
X1689100D02*
D03*
X1968500D02*
D03*
X2039620D02*
D03*
X2110740D02*
D03*
X2600960D02*
D03*
X2529840D02*
D03*
X2250440D02*
D03*
X2179320D02*
D03*
X2076781Y1450341D02*
D03*
X9514840Y1871980D02*
D03*
X2483181Y152401D02*
D03*
X6901360Y954220D02*
D03*
X1798320Y2677160D02*
D03*
X1913890Y2622867D02*
D03*
X4117340Y2299780D02*
D03*
X4119880Y1474940D02*
D03*
X3992880Y988060D02*
D03*
X3975100Y1620520D02*
D03*
X3416300Y1874520D02*
D03*
X3416100Y1572340D02*
D03*
X2015821Y1125221D02*
D03*
X9403440Y2024380D02*
D03*
X9405620Y1925320D02*
D03*
D70*
X5800000Y4750000D02*
D03*
X6700000D02*
D03*
X8700000Y1275000D02*
D03*
Y1525000D02*
D03*
X9750000Y1100000D02*
D03*
Y850000D02*
D03*
Y600000D02*
D03*
X9100000Y250000D02*
D03*
X9350000D02*
D03*
X9750000Y1350000D02*
D03*
Y2600000D02*
D03*
Y4150000D02*
D03*
Y4400000D02*
D03*
X1850000Y1100000D02*
D03*
Y1350000D02*
D03*
Y1600000D02*
D03*
Y1850000D02*
D03*
X1600000D02*
D03*
X1350000D02*
D03*
X1100000D02*
D03*
X850000D02*
D03*
X600000D02*
D03*
Y1600000D02*
D03*
Y1350000D02*
D03*
Y1100000D02*
D03*
Y850000D02*
D03*
Y600000D02*
D03*
Y250000D02*
D03*
X850000D02*
D03*
X1100000D02*
D03*
X1350000D02*
D03*
X1600000D02*
D03*
X1850000D02*
D03*
X8600000Y4750000D02*
D03*
X8850000D02*
D03*
X9100000D02*
D03*
X9350000D02*
D03*
X4600000D02*
D03*
X4850000D02*
D03*
X7600000D02*
D03*
X600000D02*
D03*
X850000D02*
D03*
X1100000D02*
D03*
X1350000D02*
D03*
X1600000D02*
D03*
X1850000D02*
D03*
X2100000D02*
D03*
X2350000D02*
D03*
X2600000D02*
D03*
X2850000D02*
D03*
X3100000D02*
D03*
X3350000D02*
D03*
X3600000D02*
D03*
X3850000D02*
D03*
X4100000D02*
D03*
X4350000D02*
D03*
X250000Y4350000D02*
D03*
Y4100000D02*
D03*
Y3850000D02*
D03*
Y3600000D02*
D03*
Y3350000D02*
D03*
Y3100000D02*
D03*
Y2850000D02*
D03*
Y2600000D02*
D03*
Y2350000D02*
D03*
Y2100000D02*
D03*
Y1850000D02*
D03*
Y1600000D02*
D03*
Y1350000D02*
D03*
Y1100000D02*
D03*
Y850000D02*
D03*
Y600000D02*
D03*
%TF.MD5,7018063d4834560089d06cb54293b545*%
M02*
