%TF.GenerationSoftware,Altium Limited,Altium Designer,21.1.1 (26)*%
G04 Layer_Color=255*
%FSLAX45Y45*%
%MOMM*%
%TF.SameCoordinates,E9E44C67-710E-4D47-B277-6F884E921ACF*%
%TF.FilePolarity,Positive*%
%TF.FileFunction,Pads,Bot*%
%TF.Part,Single*%
G01*
G75*
%TA.AperFunction,SMDPad,CuDef*%
%ADD25R,1.20000X1.50000*%
%ADD35R,1.50000X1.20000*%
%ADD39R,1.50000X1.45000*%
%TA.AperFunction,ComponentPad*%
%ADD47R,1.05000X1.05000*%
%ADD48C,1.05000*%
%ADD49C,0.85000*%
%ADD50O,1.60000X1.00000*%
%ADD51O,2.10000X1.00000*%
%ADD52C,1.80000*%
%ADD53R,1.80000X1.80000*%
%ADD54O,22.00000X0.50000*%
%TA.AperFunction,ViaPad*%
%ADD55C,3.00000*%
%TA.AperFunction,SMDPad,CuDef*%
%ADD74R,0.40000X2.50000*%
%ADD75R,1.30000X1.05000*%
%ADD76R,1.05000X1.30000*%
%ADD77O,1.40000X0.55000*%
D25*
X4620000Y2700000D02*
D03*
X4830000D02*
D03*
X4620000Y1900000D02*
D03*
X4830000D02*
D03*
X9830000Y1875000D02*
D03*
X9620000D02*
D03*
X9830000Y2125000D02*
D03*
X9620000D02*
D03*
D35*
X2200000Y3755000D02*
D03*
Y3545000D02*
D03*
X1925000Y3755000D02*
D03*
Y3545000D02*
D03*
X1650000Y3755000D02*
D03*
Y3545000D02*
D03*
D39*
X2750000Y3557500D02*
D03*
Y3742500D02*
D03*
X2475000Y3557500D02*
D03*
Y3742500D02*
D03*
X1375000Y3557500D02*
D03*
Y3742500D02*
D03*
X1100000D02*
D03*
Y3557500D02*
D03*
X825000Y3742500D02*
D03*
Y3557500D02*
D03*
X550000D02*
D03*
Y3742500D02*
D03*
D47*
X9236500Y4125000D02*
D03*
D48*
X9363500D02*
D03*
D49*
X9417000Y1711000D02*
D03*
Y2289000D02*
D03*
D50*
X9782000Y2432000D02*
D03*
Y1568000D02*
D03*
D51*
X9364000D02*
D03*
Y2432000D02*
D03*
D52*
X8984000Y558800D02*
D03*
X1524000D02*
D03*
D53*
X8476000D02*
D03*
X1016000D02*
D03*
D54*
X1584500Y2197600D02*
D03*
D55*
X250000Y250000D02*
D03*
X9750000D02*
D03*
Y4750000D02*
D03*
X250000D02*
D03*
D74*
X779500Y2947600D02*
D03*
X709500D02*
D03*
X639500D02*
D03*
X849500D02*
D03*
X569500D02*
D03*
X919500D02*
D03*
X1059500D02*
D03*
X1129500D02*
D03*
X1339500D02*
D03*
X1269500D02*
D03*
X1549500D02*
D03*
X1689500D02*
D03*
X1619500D02*
D03*
X1829500D02*
D03*
X1899500D02*
D03*
X2109500D02*
D03*
X2039500D02*
D03*
X2249500D02*
D03*
X2319500D02*
D03*
X2459500D02*
D03*
X2529500D02*
D03*
X989500D02*
D03*
X1409500D02*
D03*
X1199500D02*
D03*
X2179500D02*
D03*
X1759500D02*
D03*
X1969500D02*
D03*
X2389500D02*
D03*
X2599500D02*
D03*
X1479500D02*
D03*
D75*
X1225000Y747500D02*
D03*
Y602500D02*
D03*
X800000D02*
D03*
Y747500D02*
D03*
X8275000Y602500D02*
D03*
Y747500D02*
D03*
X8675000Y602500D02*
D03*
Y747500D02*
D03*
D76*
X5177500Y1900000D02*
D03*
X5322500D02*
D03*
D77*
X5300000Y2465500D02*
D03*
Y2338500D02*
D03*
Y2211500D02*
D03*
Y2084500D02*
D03*
X4600000Y2465500D02*
D03*
Y2338500D02*
D03*
Y2211500D02*
D03*
Y2084500D02*
D03*
%TF.MD5,1181d46ef7d7185436f13dd78f5c565a*%
M02*
