%TF.GenerationSoftware,KiCad,Pcbnew,(5.99.0-2619-gb519867d9)*%
%TF.CreationDate,2020-08-09T22:36:06+05:30*%
%TF.ProjectId,Power_Supply,506f7765-725f-4537-9570-706c792e6b69,rev?*%
%TF.SameCoordinates,Original*%
%TF.FileFunction,Legend,Top*%
%TF.FilePolarity,Positive*%
%FSLAX46Y46*%
G04 Gerber Fmt 4.6, Leading zero omitted, Abs format (unit mm)*
G04 Created by KiCad (PCBNEW (5.99.0-2619-gb519867d9)) date 2020-08-09 22:36:06*
%MOMM*%
%LPD*%
G01*
G04 APERTURE LIST*
%ADD10C,0.100000*%
%ADD11C,0.500000*%
%ADD12C,0.150000*%
%ADD13C,0.075000*%
%ADD14C,0.120000*%
G04 APERTURE END LIST*
D10*
G36*
X100000000Y-44000000D02*
G01*
X97500000Y-44000000D01*
X97500000Y-41000000D01*
X100000000Y-41000000D01*
X100000000Y-44000000D01*
G37*
X100000000Y-44000000D02*
X97500000Y-44000000D01*
X97500000Y-41000000D01*
X100000000Y-41000000D01*
X100000000Y-44000000D01*
D11*
X20476190Y-52000000D02*
X20285714Y-51904761D01*
X20000000Y-51904761D01*
X19714285Y-52000000D01*
X19523809Y-52190476D01*
X19428571Y-52380952D01*
X19333333Y-52761904D01*
X19333333Y-53047619D01*
X19428571Y-53428571D01*
X19523809Y-53619047D01*
X19714285Y-53809523D01*
X20000000Y-53904761D01*
X20190476Y-53904761D01*
X20476190Y-53809523D01*
X20571428Y-53714285D01*
X20571428Y-53047619D01*
X20190476Y-53047619D01*
X21428571Y-53904761D02*
X21428571Y-51904761D01*
X22571428Y-53904761D01*
X22571428Y-51904761D01*
X23523809Y-53904761D02*
X23523809Y-51904761D01*
X24000000Y-51904761D01*
X24285714Y-52000000D01*
X24476190Y-52190476D01*
X24571428Y-52380952D01*
X24666666Y-52761904D01*
X24666666Y-53047619D01*
X24571428Y-53428571D01*
X24476190Y-53619047D01*
X24285714Y-53809523D01*
X24000000Y-53904761D01*
X23523809Y-53904761D01*
X36476190Y-51904761D02*
X36666666Y-51904761D01*
X36857142Y-52000000D01*
X36952380Y-52095238D01*
X37047619Y-52285714D01*
X37142857Y-52666666D01*
X37142857Y-53142857D01*
X37047619Y-53523809D01*
X36952380Y-53714285D01*
X36857142Y-53809523D01*
X36666666Y-53904761D01*
X36476190Y-53904761D01*
X36285714Y-53809523D01*
X36190476Y-53714285D01*
X36095238Y-53523809D01*
X36000000Y-53142857D01*
X36000000Y-52666666D01*
X36095238Y-52285714D01*
X36190476Y-52095238D01*
X36285714Y-52000000D01*
X36476190Y-51904761D01*
X38000000Y-53714285D02*
X38095238Y-53809523D01*
X38000000Y-53904761D01*
X37904761Y-53809523D01*
X38000000Y-53714285D01*
X38000000Y-53904761D01*
X39238095Y-52761904D02*
X39047619Y-52666666D01*
X38952380Y-52571428D01*
X38857142Y-52380952D01*
X38857142Y-52285714D01*
X38952380Y-52095238D01*
X39047619Y-52000000D01*
X39238095Y-51904761D01*
X39619047Y-51904761D01*
X39809523Y-52000000D01*
X39904761Y-52095238D01*
X40000000Y-52285714D01*
X40000000Y-52380952D01*
X39904761Y-52571428D01*
X39809523Y-52666666D01*
X39619047Y-52761904D01*
X39238095Y-52761904D01*
X39047619Y-52857142D01*
X38952380Y-52952380D01*
X38857142Y-53142857D01*
X38857142Y-53523809D01*
X38952380Y-53714285D01*
X39047619Y-53809523D01*
X39238095Y-53904761D01*
X39619047Y-53904761D01*
X39809523Y-53809523D01*
X39904761Y-53714285D01*
X40000000Y-53523809D01*
X40000000Y-53142857D01*
X39904761Y-52952380D01*
X39809523Y-52857142D01*
X39619047Y-52761904D01*
X40857142Y-53142857D02*
X42380952Y-53142857D01*
X44380952Y-53904761D02*
X43238095Y-53904761D01*
X43809523Y-53904761D02*
X43809523Y-51904761D01*
X43619047Y-52190476D01*
X43428571Y-52380952D01*
X43238095Y-52476190D01*
X45142857Y-52095238D02*
X45238095Y-52000000D01*
X45428571Y-51904761D01*
X45904761Y-51904761D01*
X46095238Y-52000000D01*
X46190476Y-52095238D01*
X46285714Y-52285714D01*
X46285714Y-52476190D01*
X46190476Y-52761904D01*
X45047619Y-53904761D01*
X46285714Y-53904761D01*
X46857142Y-51904761D02*
X47523809Y-53904761D01*
X48190476Y-51904761D01*
D12*
X96476190Y-56618928D02*
X97238095Y-56618928D01*
X96857142Y-56999880D02*
X96857142Y-56237976D01*
X98238095Y-56999880D02*
X97666666Y-56999880D01*
X97952380Y-56999880D02*
X97952380Y-55999880D01*
X97857142Y-56142738D01*
X97761904Y-56237976D01*
X97666666Y-56285595D01*
X98619047Y-56095119D02*
X98666666Y-56047500D01*
X98761904Y-55999880D01*
X99000000Y-55999880D01*
X99095238Y-56047500D01*
X99142857Y-56095119D01*
X99190476Y-56190357D01*
X99190476Y-56285595D01*
X99142857Y-56428452D01*
X98571428Y-56999880D01*
X99190476Y-56999880D01*
X99476190Y-55999880D02*
X99809523Y-56999880D01*
X100142857Y-55999880D01*
X101476190Y-57333214D02*
X101476190Y-55904642D01*
X103476190Y-56047500D02*
X103380952Y-55999880D01*
X103238095Y-55999880D01*
X103095238Y-56047500D01*
X103000000Y-56142738D01*
X102952380Y-56237976D01*
X102904761Y-56428452D01*
X102904761Y-56571309D01*
X102952380Y-56761785D01*
X103000000Y-56857023D01*
X103095238Y-56952261D01*
X103238095Y-56999880D01*
X103333333Y-56999880D01*
X103476190Y-56952261D01*
X103523809Y-56904642D01*
X103523809Y-56571309D01*
X103333333Y-56571309D01*
X103952380Y-56999880D02*
X103952380Y-55999880D01*
X104523809Y-56999880D01*
X104523809Y-55999880D01*
X105000000Y-56999880D02*
X105000000Y-55999880D01*
X105238095Y-55999880D01*
X105380952Y-56047500D01*
X105476190Y-56142738D01*
X105523809Y-56237976D01*
X105571428Y-56428452D01*
X105571428Y-56571309D01*
X105523809Y-56761785D01*
X105476190Y-56857023D01*
X105380952Y-56952261D01*
X105238095Y-56999880D01*
X105000000Y-56999880D01*
D13*
X31655327Y-32785714D02*
X31554136Y-33595238D01*
X31494613Y-33690476D01*
X31441041Y-33738095D01*
X31339851Y-33785714D01*
X31196994Y-33785714D01*
X31107708Y-33738095D01*
X31577946Y-33404761D02*
X31476755Y-33452380D01*
X31286279Y-33452380D01*
X31196994Y-33404761D01*
X31155327Y-33357142D01*
X31119613Y-33261904D01*
X31155327Y-32976190D01*
X31214851Y-32880952D01*
X31268422Y-32833333D01*
X31369613Y-32785714D01*
X31560089Y-32785714D01*
X31649375Y-32833333D01*
X32048184Y-33452380D02*
X32131517Y-32785714D01*
X32173184Y-32452380D02*
X32119613Y-32500000D01*
X32161279Y-32547619D01*
X32214851Y-32500000D01*
X32173184Y-32452380D01*
X32161279Y-32547619D01*
X32464851Y-32785714D02*
X32845803Y-32785714D01*
X32649375Y-32452380D02*
X32542232Y-33309523D01*
X32577946Y-33404761D01*
X32667232Y-33452380D01*
X32762470Y-33452380D01*
X33095803Y-33452380D02*
X33220803Y-32452380D01*
X33524375Y-33452380D02*
X33589851Y-32928571D01*
X33554136Y-32833333D01*
X33464851Y-32785714D01*
X33321994Y-32785714D01*
X33220803Y-32833333D01*
X33167232Y-32880952D01*
X34512470Y-32785714D02*
X34429136Y-33452380D01*
X34083898Y-32785714D02*
X34018422Y-33309523D01*
X34054136Y-33404761D01*
X34143422Y-33452380D01*
X34286279Y-33452380D01*
X34387470Y-33404761D01*
X34441041Y-33357142D01*
X34905327Y-33452380D02*
X35030327Y-32452380D01*
X34982708Y-32833333D02*
X35083898Y-32785714D01*
X35274375Y-32785714D01*
X35363660Y-32833333D01*
X35405327Y-32880952D01*
X35441041Y-32976190D01*
X35405327Y-33261904D01*
X35345803Y-33357142D01*
X35292232Y-33404761D01*
X35191041Y-33452380D01*
X35000565Y-33452380D01*
X34911279Y-33404761D01*
X35821994Y-33357142D02*
X35863660Y-33404761D01*
X35810089Y-33452380D01*
X35768422Y-33404761D01*
X35821994Y-33357142D01*
X35810089Y-33452380D01*
X36720803Y-33404761D02*
X36619613Y-33452380D01*
X36429136Y-33452380D01*
X36339851Y-33404761D01*
X36298184Y-33357142D01*
X36262470Y-33261904D01*
X36298184Y-32976190D01*
X36357708Y-32880952D01*
X36411279Y-32833333D01*
X36512470Y-32785714D01*
X36702946Y-32785714D01*
X36792232Y-32833333D01*
X37286279Y-33452380D02*
X37196994Y-33404761D01*
X37155327Y-33357142D01*
X37119613Y-33261904D01*
X37155327Y-32976190D01*
X37214851Y-32880952D01*
X37268422Y-32833333D01*
X37369613Y-32785714D01*
X37512470Y-32785714D01*
X37601755Y-32833333D01*
X37643422Y-32880952D01*
X37679136Y-32976190D01*
X37643422Y-33261904D01*
X37583898Y-33357142D01*
X37530327Y-33404761D01*
X37429136Y-33452380D01*
X37286279Y-33452380D01*
X38048184Y-33452380D02*
X38131517Y-32785714D01*
X38119613Y-32880952D02*
X38173184Y-32833333D01*
X38274375Y-32785714D01*
X38417232Y-32785714D01*
X38506517Y-32833333D01*
X38542232Y-32928571D01*
X38476755Y-33452380D01*
X38542232Y-32928571D02*
X38601755Y-32833333D01*
X38702946Y-32785714D01*
X38845803Y-32785714D01*
X38935089Y-32833333D01*
X38970803Y-32928571D01*
X38905327Y-33452380D01*
X40226755Y-32404761D02*
X39208898Y-33690476D01*
X40857708Y-33452380D02*
X40923184Y-32928571D01*
X40887470Y-32833333D01*
X40798184Y-32785714D01*
X40607708Y-32785714D01*
X40506517Y-32833333D01*
X40863660Y-33404761D02*
X40762470Y-33452380D01*
X40524375Y-33452380D01*
X40435089Y-33404761D01*
X40399375Y-33309523D01*
X40411279Y-33214285D01*
X40470803Y-33119047D01*
X40571994Y-33071428D01*
X40810089Y-33071428D01*
X40911279Y-33023809D01*
X41762470Y-33452380D02*
X41887470Y-32452380D01*
X41768422Y-33404761D02*
X41667232Y-33452380D01*
X41476755Y-33452380D01*
X41387470Y-33404761D01*
X41345803Y-33357142D01*
X41310089Y-33261904D01*
X41345803Y-32976190D01*
X41405327Y-32880952D01*
X41458898Y-32833333D01*
X41560089Y-32785714D01*
X41750565Y-32785714D01*
X41839851Y-32833333D01*
X42196994Y-33404761D02*
X42286279Y-33452380D01*
X42476755Y-33452380D01*
X42577946Y-33404761D01*
X42637470Y-33309523D01*
X42643422Y-33261904D01*
X42607708Y-33166666D01*
X42518422Y-33119047D01*
X42375565Y-33119047D01*
X42286279Y-33071428D01*
X42250565Y-32976190D01*
X42256517Y-32928571D01*
X42316041Y-32833333D01*
X42417232Y-32785714D01*
X42560089Y-32785714D01*
X42649375Y-32833333D01*
X43435089Y-33404761D02*
X43333898Y-33452380D01*
X43143422Y-33452380D01*
X43054136Y-33404761D01*
X43018422Y-33309523D01*
X43066041Y-32928571D01*
X43125565Y-32833333D01*
X43226755Y-32785714D01*
X43417232Y-32785714D01*
X43506517Y-32833333D01*
X43542232Y-32928571D01*
X43530327Y-33023809D01*
X43042232Y-33119047D01*
X43905327Y-33452380D02*
X44030327Y-32452380D01*
X44333898Y-33452380D02*
X44399375Y-32928571D01*
X44363660Y-32833333D01*
X44274375Y-32785714D01*
X44131517Y-32785714D01*
X44030327Y-32833333D01*
X43976755Y-32880952D01*
X45321994Y-32785714D02*
X45220803Y-33595238D01*
X45161279Y-33690476D01*
X45107708Y-33738095D01*
X45006517Y-33785714D01*
X44863660Y-33785714D01*
X44774375Y-33738095D01*
X45244613Y-33404761D02*
X45143422Y-33452380D01*
X44952946Y-33452380D01*
X44863660Y-33404761D01*
X44821994Y-33357142D01*
X44786279Y-33261904D01*
X44821994Y-32976190D01*
X44881517Y-32880952D01*
X44935089Y-32833333D01*
X45036279Y-32785714D01*
X45226755Y-32785714D01*
X45316041Y-32833333D01*
X46143422Y-33452380D02*
X46208898Y-32928571D01*
X46173184Y-32833333D01*
X46083898Y-32785714D01*
X45893422Y-32785714D01*
X45792232Y-32833333D01*
X46149375Y-33404761D02*
X46048184Y-33452380D01*
X45810089Y-33452380D01*
X45720803Y-33404761D01*
X45685089Y-33309523D01*
X45696994Y-33214285D01*
X45756517Y-33119047D01*
X45857708Y-33071428D01*
X46095803Y-33071428D01*
X46196994Y-33023809D01*
X46762470Y-33452380D02*
X46673184Y-33404761D01*
X46637470Y-33309523D01*
X46744613Y-32452380D01*
D12*
%TO.C,U3*%
X81738095Y-56852380D02*
X81738095Y-57661904D01*
X81785714Y-57757142D01*
X81833333Y-57804761D01*
X81928571Y-57852380D01*
X82119047Y-57852380D01*
X82214285Y-57804761D01*
X82261904Y-57757142D01*
X82309523Y-57661904D01*
X82309523Y-56852380D01*
X82690476Y-56852380D02*
X83309523Y-56852380D01*
X82976190Y-57233333D01*
X83119047Y-57233333D01*
X83214285Y-57280952D01*
X83261904Y-57328571D01*
X83309523Y-57423809D01*
X83309523Y-57661904D01*
X83261904Y-57757142D01*
X83214285Y-57804761D01*
X83119047Y-57852380D01*
X82833333Y-57852380D01*
X82738095Y-57804761D01*
X82690476Y-57757142D01*
%TO.C,U2*%
X102238095Y-38452380D02*
X102238095Y-39261904D01*
X102285714Y-39357142D01*
X102333333Y-39404761D01*
X102428571Y-39452380D01*
X102619047Y-39452380D01*
X102714285Y-39404761D01*
X102761904Y-39357142D01*
X102809523Y-39261904D01*
X102809523Y-38452380D01*
X103238095Y-38547619D02*
X103285714Y-38500000D01*
X103380952Y-38452380D01*
X103619047Y-38452380D01*
X103714285Y-38500000D01*
X103761904Y-38547619D01*
X103809523Y-38642857D01*
X103809523Y-38738095D01*
X103761904Y-38880952D01*
X103190476Y-39452380D01*
X103809523Y-39452380D01*
%TO.C,H3*%
X108238095Y-59452380D02*
X108238095Y-58452380D01*
X108238095Y-58928571D02*
X108809523Y-58928571D01*
X108809523Y-59452380D02*
X108809523Y-58452380D01*
X109190476Y-58452380D02*
X109809523Y-58452380D01*
X109476190Y-58833333D01*
X109619047Y-58833333D01*
X109714285Y-58880952D01*
X109761904Y-58928571D01*
X109809523Y-59023809D01*
X109809523Y-59261904D01*
X109761904Y-59357142D01*
X109714285Y-59404761D01*
X109619047Y-59452380D01*
X109333333Y-59452380D01*
X109238095Y-59404761D01*
X109190476Y-59357142D01*
%TO.C,H2*%
X108238095Y-15452380D02*
X108238095Y-14452380D01*
X108238095Y-14928571D02*
X108809523Y-14928571D01*
X108809523Y-15452380D02*
X108809523Y-14452380D01*
X109238095Y-14547619D02*
X109285714Y-14500000D01*
X109380952Y-14452380D01*
X109619047Y-14452380D01*
X109714285Y-14500000D01*
X109761904Y-14547619D01*
X109809523Y-14642857D01*
X109809523Y-14738095D01*
X109761904Y-14880952D01*
X109190476Y-15452380D01*
X109809523Y-15452380D01*
%TO.C,R20*%
X83357142Y-38952380D02*
X83023809Y-38476190D01*
X82785714Y-38952380D02*
X82785714Y-37952380D01*
X83166666Y-37952380D01*
X83261904Y-38000000D01*
X83309523Y-38047619D01*
X83357142Y-38142857D01*
X83357142Y-38285714D01*
X83309523Y-38380952D01*
X83261904Y-38428571D01*
X83166666Y-38476190D01*
X82785714Y-38476190D01*
X83738095Y-38047619D02*
X83785714Y-38000000D01*
X83880952Y-37952380D01*
X84119047Y-37952380D01*
X84214285Y-38000000D01*
X84261904Y-38047619D01*
X84309523Y-38142857D01*
X84309523Y-38238095D01*
X84261904Y-38380952D01*
X83690476Y-38952380D01*
X84309523Y-38952380D01*
X84928571Y-37952380D02*
X85023809Y-37952380D01*
X85119047Y-38000000D01*
X85166666Y-38047619D01*
X85214285Y-38142857D01*
X85261904Y-38333333D01*
X85261904Y-38571428D01*
X85214285Y-38761904D01*
X85166666Y-38857142D01*
X85119047Y-38904761D01*
X85023809Y-38952380D01*
X84928571Y-38952380D01*
X84833333Y-38904761D01*
X84785714Y-38857142D01*
X84738095Y-38761904D01*
X84690476Y-38571428D01*
X84690476Y-38333333D01*
X84738095Y-38142857D01*
X84785714Y-38047619D01*
X84833333Y-38000000D01*
X84928571Y-37952380D01*
%TO.C,C3*%
X78833333Y-27357142D02*
X78785714Y-27404761D01*
X78642857Y-27452380D01*
X78547619Y-27452380D01*
X78404761Y-27404761D01*
X78309523Y-27309523D01*
X78261904Y-27214285D01*
X78214285Y-27023809D01*
X78214285Y-26880952D01*
X78261904Y-26690476D01*
X78309523Y-26595238D01*
X78404761Y-26500000D01*
X78547619Y-26452380D01*
X78642857Y-26452380D01*
X78785714Y-26500000D01*
X78833333Y-26547619D01*
X79166666Y-26452380D02*
X79785714Y-26452380D01*
X79452380Y-26833333D01*
X79595238Y-26833333D01*
X79690476Y-26880952D01*
X79738095Y-26928571D01*
X79785714Y-27023809D01*
X79785714Y-27261904D01*
X79738095Y-27357142D01*
X79690476Y-27404761D01*
X79595238Y-27452380D01*
X79309523Y-27452380D01*
X79214285Y-27404761D01*
X79166666Y-27357142D01*
%TO.C,C8*%
X84333333Y-48707142D02*
X84285714Y-48754761D01*
X84142857Y-48802380D01*
X84047619Y-48802380D01*
X83904761Y-48754761D01*
X83809523Y-48659523D01*
X83761904Y-48564285D01*
X83714285Y-48373809D01*
X83714285Y-48230952D01*
X83761904Y-48040476D01*
X83809523Y-47945238D01*
X83904761Y-47850000D01*
X84047619Y-47802380D01*
X84142857Y-47802380D01*
X84285714Y-47850000D01*
X84333333Y-47897619D01*
X84904761Y-48230952D02*
X84809523Y-48183333D01*
X84761904Y-48135714D01*
X84714285Y-48040476D01*
X84714285Y-47992857D01*
X84761904Y-47897619D01*
X84809523Y-47850000D01*
X84904761Y-47802380D01*
X85095238Y-47802380D01*
X85190476Y-47850000D01*
X85238095Y-47897619D01*
X85285714Y-47992857D01*
X85285714Y-48040476D01*
X85238095Y-48135714D01*
X85190476Y-48183333D01*
X85095238Y-48230952D01*
X84904761Y-48230952D01*
X84809523Y-48278571D01*
X84761904Y-48326190D01*
X84714285Y-48421428D01*
X84714285Y-48611904D01*
X84761904Y-48707142D01*
X84809523Y-48754761D01*
X84904761Y-48802380D01*
X85095238Y-48802380D01*
X85190476Y-48754761D01*
X85238095Y-48707142D01*
X85285714Y-48611904D01*
X85285714Y-48421428D01*
X85238095Y-48326190D01*
X85190476Y-48278571D01*
X85095238Y-48230952D01*
%TO.C,C2*%
X109833333Y-33857142D02*
X109785714Y-33904761D01*
X109642857Y-33952380D01*
X109547619Y-33952380D01*
X109404761Y-33904761D01*
X109309523Y-33809523D01*
X109261904Y-33714285D01*
X109214285Y-33523809D01*
X109214285Y-33380952D01*
X109261904Y-33190476D01*
X109309523Y-33095238D01*
X109404761Y-33000000D01*
X109547619Y-32952380D01*
X109642857Y-32952380D01*
X109785714Y-33000000D01*
X109833333Y-33047619D01*
X110214285Y-33047619D02*
X110261904Y-33000000D01*
X110357142Y-32952380D01*
X110595238Y-32952380D01*
X110690476Y-33000000D01*
X110738095Y-33047619D01*
X110785714Y-33142857D01*
X110785714Y-33238095D01*
X110738095Y-33380952D01*
X110166666Y-33952380D01*
X110785714Y-33952380D01*
%TO.C,C6*%
X74833333Y-58357142D02*
X74785714Y-58404761D01*
X74642857Y-58452380D01*
X74547619Y-58452380D01*
X74404761Y-58404761D01*
X74309523Y-58309523D01*
X74261904Y-58214285D01*
X74214285Y-58023809D01*
X74214285Y-57880952D01*
X74261904Y-57690476D01*
X74309523Y-57595238D01*
X74404761Y-57500000D01*
X74547619Y-57452380D01*
X74642857Y-57452380D01*
X74785714Y-57500000D01*
X74833333Y-57547619D01*
X75690476Y-57452380D02*
X75500000Y-57452380D01*
X75404761Y-57500000D01*
X75357142Y-57547619D01*
X75261904Y-57690476D01*
X75214285Y-57880952D01*
X75214285Y-58261904D01*
X75261904Y-58357142D01*
X75309523Y-58404761D01*
X75404761Y-58452380D01*
X75595238Y-58452380D01*
X75690476Y-58404761D01*
X75738095Y-58357142D01*
X75785714Y-58261904D01*
X75785714Y-58023809D01*
X75738095Y-57928571D01*
X75690476Y-57880952D01*
X75595238Y-57833333D01*
X75404761Y-57833333D01*
X75309523Y-57880952D01*
X75261904Y-57928571D01*
X75214285Y-58023809D01*
%TO.C,J4*%
X97416666Y-59452380D02*
X97416666Y-60166666D01*
X97369047Y-60309523D01*
X97273809Y-60404761D01*
X97130952Y-60452380D01*
X97035714Y-60452380D01*
X98321428Y-59785714D02*
X98321428Y-60452380D01*
X98083333Y-59404761D02*
X97845238Y-60119047D01*
X98464285Y-60119047D01*
%TO.C,R16*%
X72357142Y-36102380D02*
X72023809Y-35626190D01*
X71785714Y-36102380D02*
X71785714Y-35102380D01*
X72166666Y-35102380D01*
X72261904Y-35150000D01*
X72309523Y-35197619D01*
X72357142Y-35292857D01*
X72357142Y-35435714D01*
X72309523Y-35530952D01*
X72261904Y-35578571D01*
X72166666Y-35626190D01*
X71785714Y-35626190D01*
X73309523Y-36102380D02*
X72738095Y-36102380D01*
X73023809Y-36102380D02*
X73023809Y-35102380D01*
X72928571Y-35245238D01*
X72833333Y-35340476D01*
X72738095Y-35388095D01*
X74166666Y-35102380D02*
X73976190Y-35102380D01*
X73880952Y-35150000D01*
X73833333Y-35197619D01*
X73738095Y-35340476D01*
X73690476Y-35530952D01*
X73690476Y-35911904D01*
X73738095Y-36007142D01*
X73785714Y-36054761D01*
X73880952Y-36102380D01*
X74071428Y-36102380D01*
X74166666Y-36054761D01*
X74214285Y-36007142D01*
X74261904Y-35911904D01*
X74261904Y-35673809D01*
X74214285Y-35578571D01*
X74166666Y-35530952D01*
X74071428Y-35483333D01*
X73880952Y-35483333D01*
X73785714Y-35530952D01*
X73738095Y-35578571D01*
X73690476Y-35673809D01*
%TO.C,C18*%
X58357142Y-51857142D02*
X58309523Y-51904761D01*
X58166666Y-51952380D01*
X58071428Y-51952380D01*
X57928571Y-51904761D01*
X57833333Y-51809523D01*
X57785714Y-51714285D01*
X57738095Y-51523809D01*
X57738095Y-51380952D01*
X57785714Y-51190476D01*
X57833333Y-51095238D01*
X57928571Y-51000000D01*
X58071428Y-50952380D01*
X58166666Y-50952380D01*
X58309523Y-51000000D01*
X58357142Y-51047619D01*
X59309523Y-51952380D02*
X58738095Y-51952380D01*
X59023809Y-51952380D02*
X59023809Y-50952380D01*
X58928571Y-51095238D01*
X58833333Y-51190476D01*
X58738095Y-51238095D01*
X59880952Y-51380952D02*
X59785714Y-51333333D01*
X59738095Y-51285714D01*
X59690476Y-51190476D01*
X59690476Y-51142857D01*
X59738095Y-51047619D01*
X59785714Y-51000000D01*
X59880952Y-50952380D01*
X60071428Y-50952380D01*
X60166666Y-51000000D01*
X60214285Y-51047619D01*
X60261904Y-51142857D01*
X60261904Y-51190476D01*
X60214285Y-51285714D01*
X60166666Y-51333333D01*
X60071428Y-51380952D01*
X59880952Y-51380952D01*
X59785714Y-51428571D01*
X59738095Y-51476190D01*
X59690476Y-51571428D01*
X59690476Y-51761904D01*
X59738095Y-51857142D01*
X59785714Y-51904761D01*
X59880952Y-51952380D01*
X60071428Y-51952380D01*
X60166666Y-51904761D01*
X60214285Y-51857142D01*
X60261904Y-51761904D01*
X60261904Y-51571428D01*
X60214285Y-51476190D01*
X60166666Y-51428571D01*
X60071428Y-51380952D01*
%TO.C,Y1*%
X93523809Y-38976190D02*
X93523809Y-39452380D01*
X93190476Y-38452380D02*
X93523809Y-38976190D01*
X93857142Y-38452380D01*
X94714285Y-39452380D02*
X94142857Y-39452380D01*
X94428571Y-39452380D02*
X94428571Y-38452380D01*
X94333333Y-38595238D01*
X94238095Y-38690476D01*
X94142857Y-38738095D01*
%TO.C,U4*%
X78238095Y-40852380D02*
X78238095Y-41661904D01*
X78285714Y-41757142D01*
X78333333Y-41804761D01*
X78428571Y-41852380D01*
X78619047Y-41852380D01*
X78714285Y-41804761D01*
X78761904Y-41757142D01*
X78809523Y-41661904D01*
X78809523Y-40852380D01*
X79714285Y-41185714D02*
X79714285Y-41852380D01*
X79476190Y-40804761D02*
X79238095Y-41519047D01*
X79857142Y-41519047D01*
%TO.C,C15*%
X89357142Y-42107142D02*
X89309523Y-42154761D01*
X89166666Y-42202380D01*
X89071428Y-42202380D01*
X88928571Y-42154761D01*
X88833333Y-42059523D01*
X88785714Y-41964285D01*
X88738095Y-41773809D01*
X88738095Y-41630952D01*
X88785714Y-41440476D01*
X88833333Y-41345238D01*
X88928571Y-41250000D01*
X89071428Y-41202380D01*
X89166666Y-41202380D01*
X89309523Y-41250000D01*
X89357142Y-41297619D01*
X90309523Y-42202380D02*
X89738095Y-42202380D01*
X90023809Y-42202380D02*
X90023809Y-41202380D01*
X89928571Y-41345238D01*
X89833333Y-41440476D01*
X89738095Y-41488095D01*
X91214285Y-41202380D02*
X90738095Y-41202380D01*
X90690476Y-41678571D01*
X90738095Y-41630952D01*
X90833333Y-41583333D01*
X91071428Y-41583333D01*
X91166666Y-41630952D01*
X91214285Y-41678571D01*
X91261904Y-41773809D01*
X91261904Y-42011904D01*
X91214285Y-42107142D01*
X91166666Y-42154761D01*
X91071428Y-42202380D01*
X90833333Y-42202380D01*
X90738095Y-42154761D01*
X90690476Y-42107142D01*
%TO.C,C10*%
X109357142Y-38857142D02*
X109309523Y-38904761D01*
X109166666Y-38952380D01*
X109071428Y-38952380D01*
X108928571Y-38904761D01*
X108833333Y-38809523D01*
X108785714Y-38714285D01*
X108738095Y-38523809D01*
X108738095Y-38380952D01*
X108785714Y-38190476D01*
X108833333Y-38095238D01*
X108928571Y-38000000D01*
X109071428Y-37952380D01*
X109166666Y-37952380D01*
X109309523Y-38000000D01*
X109357142Y-38047619D01*
X110309523Y-38952380D02*
X109738095Y-38952380D01*
X110023809Y-38952380D02*
X110023809Y-37952380D01*
X109928571Y-38095238D01*
X109833333Y-38190476D01*
X109738095Y-38238095D01*
X110928571Y-37952380D02*
X111023809Y-37952380D01*
X111119047Y-38000000D01*
X111166666Y-38047619D01*
X111214285Y-38142857D01*
X111261904Y-38333333D01*
X111261904Y-38571428D01*
X111214285Y-38761904D01*
X111166666Y-38857142D01*
X111119047Y-38904761D01*
X111023809Y-38952380D01*
X110928571Y-38952380D01*
X110833333Y-38904761D01*
X110785714Y-38857142D01*
X110738095Y-38761904D01*
X110690476Y-38571428D01*
X110690476Y-38333333D01*
X110738095Y-38142857D01*
X110785714Y-38047619D01*
X110833333Y-38000000D01*
X110928571Y-37952380D01*
%TO.C,C4*%
X87583333Y-59607142D02*
X87535714Y-59654761D01*
X87392857Y-59702380D01*
X87297619Y-59702380D01*
X87154761Y-59654761D01*
X87059523Y-59559523D01*
X87011904Y-59464285D01*
X86964285Y-59273809D01*
X86964285Y-59130952D01*
X87011904Y-58940476D01*
X87059523Y-58845238D01*
X87154761Y-58750000D01*
X87297619Y-58702380D01*
X87392857Y-58702380D01*
X87535714Y-58750000D01*
X87583333Y-58797619D01*
X88440476Y-59035714D02*
X88440476Y-59702380D01*
X88202380Y-58654761D02*
X87964285Y-59369047D01*
X88583333Y-59369047D01*
%TO.C,SW2*%
X90166666Y-15452380D02*
X90166666Y-14452380D01*
X90404761Y-14452380D01*
X90547619Y-14500000D01*
X90642857Y-14595238D01*
X90690476Y-14690476D01*
X90738095Y-14880952D01*
X90738095Y-15023809D01*
X90690476Y-15214285D01*
X90642857Y-15309523D01*
X90547619Y-15404761D01*
X90404761Y-15452380D01*
X90166666Y-15452380D01*
X91071428Y-14452380D02*
X91309523Y-15452380D01*
X91500000Y-14738095D01*
X91690476Y-15452380D01*
X91928571Y-14452380D01*
%TO.C,R13*%
X54357142Y-49952380D02*
X54023809Y-49476190D01*
X53785714Y-49952380D02*
X53785714Y-48952380D01*
X54166666Y-48952380D01*
X54261904Y-49000000D01*
X54309523Y-49047619D01*
X54357142Y-49142857D01*
X54357142Y-49285714D01*
X54309523Y-49380952D01*
X54261904Y-49428571D01*
X54166666Y-49476190D01*
X53785714Y-49476190D01*
X55309523Y-49952380D02*
X54738095Y-49952380D01*
X55023809Y-49952380D02*
X55023809Y-48952380D01*
X54928571Y-49095238D01*
X54833333Y-49190476D01*
X54738095Y-49238095D01*
X55642857Y-48952380D02*
X56261904Y-48952380D01*
X55928571Y-49333333D01*
X56071428Y-49333333D01*
X56166666Y-49380952D01*
X56214285Y-49428571D01*
X56261904Y-49523809D01*
X56261904Y-49761904D01*
X56214285Y-49857142D01*
X56166666Y-49904761D01*
X56071428Y-49952380D01*
X55785714Y-49952380D01*
X55690476Y-49904761D01*
X55642857Y-49857142D01*
%TO.C,R10*%
X60607142Y-17202380D02*
X60273809Y-16726190D01*
X60035714Y-17202380D02*
X60035714Y-16202380D01*
X60416666Y-16202380D01*
X60511904Y-16250000D01*
X60559523Y-16297619D01*
X60607142Y-16392857D01*
X60607142Y-16535714D01*
X60559523Y-16630952D01*
X60511904Y-16678571D01*
X60416666Y-16726190D01*
X60035714Y-16726190D01*
X61559523Y-17202380D02*
X60988095Y-17202380D01*
X61273809Y-17202380D02*
X61273809Y-16202380D01*
X61178571Y-16345238D01*
X61083333Y-16440476D01*
X60988095Y-16488095D01*
X62178571Y-16202380D02*
X62273809Y-16202380D01*
X62369047Y-16250000D01*
X62416666Y-16297619D01*
X62464285Y-16392857D01*
X62511904Y-16583333D01*
X62511904Y-16821428D01*
X62464285Y-17011904D01*
X62416666Y-17107142D01*
X62369047Y-17154761D01*
X62273809Y-17202380D01*
X62178571Y-17202380D01*
X62083333Y-17154761D01*
X62035714Y-17107142D01*
X61988095Y-17011904D01*
X61940476Y-16821428D01*
X61940476Y-16583333D01*
X61988095Y-16392857D01*
X62035714Y-16297619D01*
X62083333Y-16250000D01*
X62178571Y-16202380D01*
%TO.C,C14*%
X73857142Y-54607142D02*
X73809523Y-54654761D01*
X73666666Y-54702380D01*
X73571428Y-54702380D01*
X73428571Y-54654761D01*
X73333333Y-54559523D01*
X73285714Y-54464285D01*
X73238095Y-54273809D01*
X73238095Y-54130952D01*
X73285714Y-53940476D01*
X73333333Y-53845238D01*
X73428571Y-53750000D01*
X73571428Y-53702380D01*
X73666666Y-53702380D01*
X73809523Y-53750000D01*
X73857142Y-53797619D01*
X74809523Y-54702380D02*
X74238095Y-54702380D01*
X74523809Y-54702380D02*
X74523809Y-53702380D01*
X74428571Y-53845238D01*
X74333333Y-53940476D01*
X74238095Y-53988095D01*
X75666666Y-54035714D02*
X75666666Y-54702380D01*
X75428571Y-53654761D02*
X75190476Y-54369047D01*
X75809523Y-54369047D01*
%TO.C,C1*%
X91583333Y-52107142D02*
X91535714Y-52154761D01*
X91392857Y-52202380D01*
X91297619Y-52202380D01*
X91154761Y-52154761D01*
X91059523Y-52059523D01*
X91011904Y-51964285D01*
X90964285Y-51773809D01*
X90964285Y-51630952D01*
X91011904Y-51440476D01*
X91059523Y-51345238D01*
X91154761Y-51250000D01*
X91297619Y-51202380D01*
X91392857Y-51202380D01*
X91535714Y-51250000D01*
X91583333Y-51297619D01*
X92535714Y-52202380D02*
X91964285Y-52202380D01*
X92250000Y-52202380D02*
X92250000Y-51202380D01*
X92154761Y-51345238D01*
X92059523Y-51440476D01*
X91964285Y-51488095D01*
%TO.C,R2*%
X108833333Y-26702380D02*
X108500000Y-26226190D01*
X108261904Y-26702380D02*
X108261904Y-25702380D01*
X108642857Y-25702380D01*
X108738095Y-25750000D01*
X108785714Y-25797619D01*
X108833333Y-25892857D01*
X108833333Y-26035714D01*
X108785714Y-26130952D01*
X108738095Y-26178571D01*
X108642857Y-26226190D01*
X108261904Y-26226190D01*
X109214285Y-25797619D02*
X109261904Y-25750000D01*
X109357142Y-25702380D01*
X109595238Y-25702380D01*
X109690476Y-25750000D01*
X109738095Y-25797619D01*
X109785714Y-25892857D01*
X109785714Y-25988095D01*
X109738095Y-26130952D01*
X109166666Y-26702380D01*
X109785714Y-26702380D01*
%TO.C,C20*%
X51357142Y-54857142D02*
X51309523Y-54904761D01*
X51166666Y-54952380D01*
X51071428Y-54952380D01*
X50928571Y-54904761D01*
X50833333Y-54809523D01*
X50785714Y-54714285D01*
X50738095Y-54523809D01*
X50738095Y-54380952D01*
X50785714Y-54190476D01*
X50833333Y-54095238D01*
X50928571Y-54000000D01*
X51071428Y-53952380D01*
X51166666Y-53952380D01*
X51309523Y-54000000D01*
X51357142Y-54047619D01*
X51738095Y-54047619D02*
X51785714Y-54000000D01*
X51880952Y-53952380D01*
X52119047Y-53952380D01*
X52214285Y-54000000D01*
X52261904Y-54047619D01*
X52309523Y-54142857D01*
X52309523Y-54238095D01*
X52261904Y-54380952D01*
X51690476Y-54952380D01*
X52309523Y-54952380D01*
X52928571Y-53952380D02*
X53023809Y-53952380D01*
X53119047Y-54000000D01*
X53166666Y-54047619D01*
X53214285Y-54142857D01*
X53261904Y-54333333D01*
X53261904Y-54571428D01*
X53214285Y-54761904D01*
X53166666Y-54857142D01*
X53119047Y-54904761D01*
X53023809Y-54952380D01*
X52928571Y-54952380D01*
X52833333Y-54904761D01*
X52785714Y-54857142D01*
X52738095Y-54761904D01*
X52690476Y-54571428D01*
X52690476Y-54333333D01*
X52738095Y-54142857D01*
X52785714Y-54047619D01*
X52833333Y-54000000D01*
X52928571Y-53952380D01*
%TO.C,R6*%
X73583333Y-17202380D02*
X73250000Y-16726190D01*
X73011904Y-17202380D02*
X73011904Y-16202380D01*
X73392857Y-16202380D01*
X73488095Y-16250000D01*
X73535714Y-16297619D01*
X73583333Y-16392857D01*
X73583333Y-16535714D01*
X73535714Y-16630952D01*
X73488095Y-16678571D01*
X73392857Y-16726190D01*
X73011904Y-16726190D01*
X74440476Y-16202380D02*
X74250000Y-16202380D01*
X74154761Y-16250000D01*
X74107142Y-16297619D01*
X74011904Y-16440476D01*
X73964285Y-16630952D01*
X73964285Y-17011904D01*
X74011904Y-17107142D01*
X74059523Y-17154761D01*
X74154761Y-17202380D01*
X74345238Y-17202380D01*
X74440476Y-17154761D01*
X74488095Y-17107142D01*
X74535714Y-17011904D01*
X74535714Y-16773809D01*
X74488095Y-16678571D01*
X74440476Y-16630952D01*
X74345238Y-16583333D01*
X74154761Y-16583333D01*
X74059523Y-16630952D01*
X74011904Y-16678571D01*
X73964285Y-16773809D01*
%TO.C,SW1*%
X78214285Y-14452380D02*
X78214285Y-15261904D01*
X78261904Y-15357142D01*
X78309523Y-15404761D01*
X78404761Y-15452380D01*
X78595238Y-15452380D01*
X78690476Y-15404761D01*
X78738095Y-15357142D01*
X78785714Y-15261904D01*
X78785714Y-14452380D01*
X79261904Y-15452380D02*
X79261904Y-14452380D01*
X79642857Y-14452380D01*
X79738095Y-14500000D01*
X79785714Y-14547619D01*
X79833333Y-14642857D01*
X79833333Y-14785714D01*
X79785714Y-14880952D01*
X79738095Y-14928571D01*
X79642857Y-14976190D01*
X79261904Y-14976190D01*
%TO.C,R18*%
X54357142Y-58202380D02*
X54023809Y-57726190D01*
X53785714Y-58202380D02*
X53785714Y-57202380D01*
X54166666Y-57202380D01*
X54261904Y-57250000D01*
X54309523Y-57297619D01*
X54357142Y-57392857D01*
X54357142Y-57535714D01*
X54309523Y-57630952D01*
X54261904Y-57678571D01*
X54166666Y-57726190D01*
X53785714Y-57726190D01*
X55309523Y-58202380D02*
X54738095Y-58202380D01*
X55023809Y-58202380D02*
X55023809Y-57202380D01*
X54928571Y-57345238D01*
X54833333Y-57440476D01*
X54738095Y-57488095D01*
X55880952Y-57630952D02*
X55785714Y-57583333D01*
X55738095Y-57535714D01*
X55690476Y-57440476D01*
X55690476Y-57392857D01*
X55738095Y-57297619D01*
X55785714Y-57250000D01*
X55880952Y-57202380D01*
X56071428Y-57202380D01*
X56166666Y-57250000D01*
X56214285Y-57297619D01*
X56261904Y-57392857D01*
X56261904Y-57440476D01*
X56214285Y-57535714D01*
X56166666Y-57583333D01*
X56071428Y-57630952D01*
X55880952Y-57630952D01*
X55785714Y-57678571D01*
X55738095Y-57726190D01*
X55690476Y-57821428D01*
X55690476Y-58011904D01*
X55738095Y-58107142D01*
X55785714Y-58154761D01*
X55880952Y-58202380D01*
X56071428Y-58202380D01*
X56166666Y-58154761D01*
X56214285Y-58107142D01*
X56261904Y-58011904D01*
X56261904Y-57821428D01*
X56214285Y-57726190D01*
X56166666Y-57678571D01*
X56071428Y-57630952D01*
%TO.C,C7*%
X54734096Y-35857142D02*
X54686477Y-35904761D01*
X54543620Y-35952380D01*
X54448382Y-35952380D01*
X54305524Y-35904761D01*
X54210286Y-35809523D01*
X54162667Y-35714285D01*
X54115048Y-35523809D01*
X54115048Y-35380952D01*
X54162667Y-35190476D01*
X54210286Y-35095238D01*
X54305524Y-35000000D01*
X54448382Y-34952380D01*
X54543620Y-34952380D01*
X54686477Y-35000000D01*
X54734096Y-35047619D01*
X55067429Y-34952380D02*
X55734096Y-34952380D01*
X55305524Y-35952380D01*
%TO.C,H4*%
X14238095Y-59452380D02*
X14238095Y-58452380D01*
X14238095Y-58928571D02*
X14809523Y-58928571D01*
X14809523Y-59452380D02*
X14809523Y-58452380D01*
X15714285Y-58785714D02*
X15714285Y-59452380D01*
X15476190Y-58404761D02*
X15238095Y-59119047D01*
X15857142Y-59119047D01*
%TO.C,R8*%
X85583333Y-17202380D02*
X85250000Y-16726190D01*
X85011904Y-17202380D02*
X85011904Y-16202380D01*
X85392857Y-16202380D01*
X85488095Y-16250000D01*
X85535714Y-16297619D01*
X85583333Y-16392857D01*
X85583333Y-16535714D01*
X85535714Y-16630952D01*
X85488095Y-16678571D01*
X85392857Y-16726190D01*
X85011904Y-16726190D01*
X86154761Y-16630952D02*
X86059523Y-16583333D01*
X86011904Y-16535714D01*
X85964285Y-16440476D01*
X85964285Y-16392857D01*
X86011904Y-16297619D01*
X86059523Y-16250000D01*
X86154761Y-16202380D01*
X86345238Y-16202380D01*
X86440476Y-16250000D01*
X86488095Y-16297619D01*
X86535714Y-16392857D01*
X86535714Y-16440476D01*
X86488095Y-16535714D01*
X86440476Y-16583333D01*
X86345238Y-16630952D01*
X86154761Y-16630952D01*
X86059523Y-16678571D01*
X86011904Y-16726190D01*
X85964285Y-16821428D01*
X85964285Y-17011904D01*
X86011904Y-17107142D01*
X86059523Y-17154761D01*
X86154761Y-17202380D01*
X86345238Y-17202380D01*
X86440476Y-17154761D01*
X86488095Y-17107142D01*
X86535714Y-17011904D01*
X86535714Y-16821428D01*
X86488095Y-16726190D01*
X86440476Y-16678571D01*
X86345238Y-16630952D01*
%TO.C,R5*%
X88833333Y-38952380D02*
X88500000Y-38476190D01*
X88261904Y-38952380D02*
X88261904Y-37952380D01*
X88642857Y-37952380D01*
X88738095Y-38000000D01*
X88785714Y-38047619D01*
X88833333Y-38142857D01*
X88833333Y-38285714D01*
X88785714Y-38380952D01*
X88738095Y-38428571D01*
X88642857Y-38476190D01*
X88261904Y-38476190D01*
X89738095Y-37952380D02*
X89261904Y-37952380D01*
X89214285Y-38428571D01*
X89261904Y-38380952D01*
X89357142Y-38333333D01*
X89595238Y-38333333D01*
X89690476Y-38380952D01*
X89738095Y-38428571D01*
X89785714Y-38523809D01*
X89785714Y-38761904D01*
X89738095Y-38857142D01*
X89690476Y-38904761D01*
X89595238Y-38952380D01*
X89357142Y-38952380D01*
X89261904Y-38904761D01*
X89214285Y-38857142D01*
%TO.C,SW3*%
X100904761Y-14452380D02*
X101238095Y-15452380D01*
X101571428Y-14452380D01*
X102619047Y-14404761D02*
X101761904Y-15690476D01*
X102952380Y-15452380D02*
X102952380Y-14452380D01*
%TO.C,R12*%
X72357142Y-28452380D02*
X72023809Y-27976190D01*
X71785714Y-28452380D02*
X71785714Y-27452380D01*
X72166666Y-27452380D01*
X72261904Y-27500000D01*
X72309523Y-27547619D01*
X72357142Y-27642857D01*
X72357142Y-27785714D01*
X72309523Y-27880952D01*
X72261904Y-27928571D01*
X72166666Y-27976190D01*
X71785714Y-27976190D01*
X73309523Y-28452380D02*
X72738095Y-28452380D01*
X73023809Y-28452380D02*
X73023809Y-27452380D01*
X72928571Y-27595238D01*
X72833333Y-27690476D01*
X72738095Y-27738095D01*
X73690476Y-27547619D02*
X73738095Y-27500000D01*
X73833333Y-27452380D01*
X74071428Y-27452380D01*
X74166666Y-27500000D01*
X74214285Y-27547619D01*
X74261904Y-27642857D01*
X74261904Y-27738095D01*
X74214285Y-27880952D01*
X73642857Y-28452380D01*
X74261904Y-28452380D01*
%TO.C,H1*%
X14238095Y-15452380D02*
X14238095Y-14452380D01*
X14238095Y-14928571D02*
X14809523Y-14928571D01*
X14809523Y-15452380D02*
X14809523Y-14452380D01*
X15809523Y-15452380D02*
X15238095Y-15452380D01*
X15523809Y-15452380D02*
X15523809Y-14452380D01*
X15428571Y-14595238D01*
X15333333Y-14690476D01*
X15238095Y-14738095D01*
%TO.C,C12*%
X93357142Y-48857142D02*
X93309523Y-48904761D01*
X93166666Y-48952380D01*
X93071428Y-48952380D01*
X92928571Y-48904761D01*
X92833333Y-48809523D01*
X92785714Y-48714285D01*
X92738095Y-48523809D01*
X92738095Y-48380952D01*
X92785714Y-48190476D01*
X92833333Y-48095238D01*
X92928571Y-48000000D01*
X93071428Y-47952380D01*
X93166666Y-47952380D01*
X93309523Y-48000000D01*
X93357142Y-48047619D01*
X94309523Y-48952380D02*
X93738095Y-48952380D01*
X94023809Y-48952380D02*
X94023809Y-47952380D01*
X93928571Y-48095238D01*
X93833333Y-48190476D01*
X93738095Y-48238095D01*
X94690476Y-48047619D02*
X94738095Y-48000000D01*
X94833333Y-47952380D01*
X95071428Y-47952380D01*
X95166666Y-48000000D01*
X95214285Y-48047619D01*
X95261904Y-48142857D01*
X95261904Y-48238095D01*
X95214285Y-48380952D01*
X94642857Y-48952380D01*
X95261904Y-48952380D01*
%TO.C,R19*%
X83357142Y-43952380D02*
X83023809Y-43476190D01*
X82785714Y-43952380D02*
X82785714Y-42952380D01*
X83166666Y-42952380D01*
X83261904Y-43000000D01*
X83309523Y-43047619D01*
X83357142Y-43142857D01*
X83357142Y-43285714D01*
X83309523Y-43380952D01*
X83261904Y-43428571D01*
X83166666Y-43476190D01*
X82785714Y-43476190D01*
X84309523Y-43952380D02*
X83738095Y-43952380D01*
X84023809Y-43952380D02*
X84023809Y-42952380D01*
X83928571Y-43095238D01*
X83833333Y-43190476D01*
X83738095Y-43238095D01*
X84785714Y-43952380D02*
X84976190Y-43952380D01*
X85071428Y-43904761D01*
X85119047Y-43857142D01*
X85214285Y-43714285D01*
X85261904Y-43523809D01*
X85261904Y-43142857D01*
X85214285Y-43047619D01*
X85166666Y-43000000D01*
X85071428Y-42952380D01*
X84880952Y-42952380D01*
X84785714Y-43000000D01*
X84738095Y-43047619D01*
X84690476Y-43142857D01*
X84690476Y-43380952D01*
X84738095Y-43476190D01*
X84785714Y-43523809D01*
X84880952Y-43571428D01*
X85071428Y-43571428D01*
X85166666Y-43523809D01*
X85214285Y-43476190D01*
X85261904Y-43380952D01*
%TO.C,L1*%
X61833333Y-57202380D02*
X61357142Y-57202380D01*
X61357142Y-56202380D01*
X62690476Y-57202380D02*
X62119047Y-57202380D01*
X62404761Y-57202380D02*
X62404761Y-56202380D01*
X62309523Y-56345238D01*
X62214285Y-56440476D01*
X62119047Y-56488095D01*
%TO.C,C13*%
X76357142Y-50357142D02*
X76309523Y-50404761D01*
X76166666Y-50452380D01*
X76071428Y-50452380D01*
X75928571Y-50404761D01*
X75833333Y-50309523D01*
X75785714Y-50214285D01*
X75738095Y-50023809D01*
X75738095Y-49880952D01*
X75785714Y-49690476D01*
X75833333Y-49595238D01*
X75928571Y-49500000D01*
X76071428Y-49452380D01*
X76166666Y-49452380D01*
X76309523Y-49500000D01*
X76357142Y-49547619D01*
X77309523Y-50452380D02*
X76738095Y-50452380D01*
X77023809Y-50452380D02*
X77023809Y-49452380D01*
X76928571Y-49595238D01*
X76833333Y-49690476D01*
X76738095Y-49738095D01*
X77642857Y-49452380D02*
X78261904Y-49452380D01*
X77928571Y-49833333D01*
X78071428Y-49833333D01*
X78166666Y-49880952D01*
X78214285Y-49928571D01*
X78261904Y-50023809D01*
X78261904Y-50261904D01*
X78214285Y-50357142D01*
X78166666Y-50404761D01*
X78071428Y-50452380D01*
X77785714Y-50452380D01*
X77690476Y-50404761D01*
X77642857Y-50357142D01*
%TO.C,J6*%
X21666666Y-12122380D02*
X21666666Y-12836666D01*
X21619047Y-12979523D01*
X21523809Y-13074761D01*
X21380952Y-13122380D01*
X21285714Y-13122380D01*
X22571428Y-12122380D02*
X22380952Y-12122380D01*
X22285714Y-12170000D01*
X22238095Y-12217619D01*
X22142857Y-12360476D01*
X22095238Y-12550952D01*
X22095238Y-12931904D01*
X22142857Y-13027142D01*
X22190476Y-13074761D01*
X22285714Y-13122380D01*
X22476190Y-13122380D01*
X22571428Y-13074761D01*
X22619047Y-13027142D01*
X22666666Y-12931904D01*
X22666666Y-12693809D01*
X22619047Y-12598571D01*
X22571428Y-12550952D01*
X22476190Y-12503333D01*
X22285714Y-12503333D01*
X22190476Y-12550952D01*
X22142857Y-12598571D01*
X22095238Y-12693809D01*
%TO.C,J1*%
X101166666Y-46452380D02*
X101166666Y-47166666D01*
X101119047Y-47309523D01*
X101023809Y-47404761D01*
X100880952Y-47452380D01*
X100785714Y-47452380D01*
X102166666Y-47452380D02*
X101595238Y-47452380D01*
X101880952Y-47452380D02*
X101880952Y-46452380D01*
X101785714Y-46595238D01*
X101690476Y-46690476D01*
X101595238Y-46738095D01*
%TO.C,R1*%
X97083333Y-26702380D02*
X96750000Y-26226190D01*
X96511904Y-26702380D02*
X96511904Y-25702380D01*
X96892857Y-25702380D01*
X96988095Y-25750000D01*
X97035714Y-25797619D01*
X97083333Y-25892857D01*
X97083333Y-26035714D01*
X97035714Y-26130952D01*
X96988095Y-26178571D01*
X96892857Y-26226190D01*
X96511904Y-26226190D01*
X98035714Y-26702380D02*
X97464285Y-26702380D01*
X97750000Y-26702380D02*
X97750000Y-25702380D01*
X97654761Y-25845238D01*
X97559523Y-25940476D01*
X97464285Y-25988095D01*
%TO.C,SW4*%
X65547619Y-14452380D02*
X65738095Y-14452380D01*
X65833333Y-14500000D01*
X65928571Y-14595238D01*
X65976190Y-14785714D01*
X65976190Y-15119047D01*
X65928571Y-15309523D01*
X65833333Y-15404761D01*
X65738095Y-15452380D01*
X65547619Y-15452380D01*
X65452380Y-15404761D01*
X65357142Y-15309523D01*
X65309523Y-15119047D01*
X65309523Y-14785714D01*
X65357142Y-14595238D01*
X65452380Y-14500000D01*
X65547619Y-14452380D01*
X66166666Y-15547619D02*
X66928571Y-15547619D01*
X67166666Y-14928571D02*
X67500000Y-14928571D01*
X67642857Y-15452380D02*
X67166666Y-15452380D01*
X67166666Y-14452380D01*
X67642857Y-14452380D01*
X68071428Y-15452380D02*
X68071428Y-14452380D01*
X68642857Y-15452380D01*
X68642857Y-14452380D01*
%TO.C,D1*%
X100809523Y-23107142D02*
X100761904Y-23154761D01*
X100619047Y-23202380D01*
X100523809Y-23202380D01*
X100380952Y-23154761D01*
X100285714Y-23059523D01*
X100238095Y-22964285D01*
X100190476Y-22773809D01*
X100190476Y-22630952D01*
X100238095Y-22440476D01*
X100285714Y-22345238D01*
X100380952Y-22250000D01*
X100523809Y-22202380D01*
X100619047Y-22202380D01*
X100761904Y-22250000D01*
X100809523Y-22297619D01*
X101809523Y-23107142D02*
X101761904Y-23154761D01*
X101619047Y-23202380D01*
X101523809Y-23202380D01*
X101380952Y-23154761D01*
X101285714Y-23059523D01*
X101238095Y-22964285D01*
X101190476Y-22773809D01*
X101190476Y-22630952D01*
X101238095Y-22440476D01*
X101285714Y-22345238D01*
X101380952Y-22250000D01*
X101523809Y-22202380D01*
X101619047Y-22202380D01*
X101761904Y-22250000D01*
X101809523Y-22297619D01*
%TO.C,R15*%
X72357142Y-30802380D02*
X72023809Y-30326190D01*
X71785714Y-30802380D02*
X71785714Y-29802380D01*
X72166666Y-29802380D01*
X72261904Y-29850000D01*
X72309523Y-29897619D01*
X72357142Y-29992857D01*
X72357142Y-30135714D01*
X72309523Y-30230952D01*
X72261904Y-30278571D01*
X72166666Y-30326190D01*
X71785714Y-30326190D01*
X73309523Y-30802380D02*
X72738095Y-30802380D01*
X73023809Y-30802380D02*
X73023809Y-29802380D01*
X72928571Y-29945238D01*
X72833333Y-30040476D01*
X72738095Y-30088095D01*
X74214285Y-29802380D02*
X73738095Y-29802380D01*
X73690476Y-30278571D01*
X73738095Y-30230952D01*
X73833333Y-30183333D01*
X74071428Y-30183333D01*
X74166666Y-30230952D01*
X74214285Y-30278571D01*
X74261904Y-30373809D01*
X74261904Y-30611904D01*
X74214285Y-30707142D01*
X74166666Y-30754761D01*
X74071428Y-30802380D01*
X73833333Y-30802380D01*
X73738095Y-30754761D01*
X73690476Y-30707142D01*
%TO.C,C5*%
X91583333Y-54357142D02*
X91535714Y-54404761D01*
X91392857Y-54452380D01*
X91297619Y-54452380D01*
X91154761Y-54404761D01*
X91059523Y-54309523D01*
X91011904Y-54214285D01*
X90964285Y-54023809D01*
X90964285Y-53880952D01*
X91011904Y-53690476D01*
X91059523Y-53595238D01*
X91154761Y-53500000D01*
X91297619Y-53452380D01*
X91392857Y-53452380D01*
X91535714Y-53500000D01*
X91583333Y-53547619D01*
X92488095Y-53452380D02*
X92011904Y-53452380D01*
X91964285Y-53928571D01*
X92011904Y-53880952D01*
X92107142Y-53833333D01*
X92345238Y-53833333D01*
X92440476Y-53880952D01*
X92488095Y-53928571D01*
X92535714Y-54023809D01*
X92535714Y-54261904D01*
X92488095Y-54357142D01*
X92440476Y-54404761D01*
X92345238Y-54452380D01*
X92107142Y-54452380D01*
X92011904Y-54404761D01*
X91964285Y-54357142D01*
%TO.C,U6*%
X77238095Y-34352380D02*
X77238095Y-35161904D01*
X77285714Y-35257142D01*
X77333333Y-35304761D01*
X77428571Y-35352380D01*
X77619047Y-35352380D01*
X77714285Y-35304761D01*
X77761904Y-35257142D01*
X77809523Y-35161904D01*
X77809523Y-34352380D01*
X78714285Y-34352380D02*
X78523809Y-34352380D01*
X78428571Y-34400000D01*
X78380952Y-34447619D01*
X78285714Y-34590476D01*
X78238095Y-34780952D01*
X78238095Y-35161904D01*
X78285714Y-35257142D01*
X78333333Y-35304761D01*
X78428571Y-35352380D01*
X78619047Y-35352380D01*
X78714285Y-35304761D01*
X78761904Y-35257142D01*
X78809523Y-35161904D01*
X78809523Y-34923809D01*
X78761904Y-34828571D01*
X78714285Y-34780952D01*
X78619047Y-34733333D01*
X78428571Y-34733333D01*
X78333333Y-34780952D01*
X78285714Y-34828571D01*
X78238095Y-34923809D01*
%TO.C,U5*%
X54338095Y-53952380D02*
X54338095Y-54761904D01*
X54385714Y-54857142D01*
X54433333Y-54904761D01*
X54528571Y-54952380D01*
X54719047Y-54952380D01*
X54814285Y-54904761D01*
X54861904Y-54857142D01*
X54909523Y-54761904D01*
X54909523Y-53952380D01*
X55861904Y-53952380D02*
X55385714Y-53952380D01*
X55338095Y-54428571D01*
X55385714Y-54380952D01*
X55480952Y-54333333D01*
X55719047Y-54333333D01*
X55814285Y-54380952D01*
X55861904Y-54428571D01*
X55909523Y-54523809D01*
X55909523Y-54761904D01*
X55861904Y-54857142D01*
X55814285Y-54904761D01*
X55719047Y-54952380D01*
X55480952Y-54952380D01*
X55385714Y-54904761D01*
X55338095Y-54857142D01*
%TO.C,D2*%
X104000000Y-22202380D02*
X104190476Y-22202380D01*
X104285714Y-22250000D01*
X104380952Y-22345238D01*
X104428571Y-22535714D01*
X104428571Y-22869047D01*
X104380952Y-23059523D01*
X104285714Y-23154761D01*
X104190476Y-23202380D01*
X104000000Y-23202380D01*
X103904761Y-23154761D01*
X103809523Y-23059523D01*
X103761904Y-22869047D01*
X103761904Y-22535714D01*
X103809523Y-22345238D01*
X103904761Y-22250000D01*
X104000000Y-22202380D01*
X104857142Y-22202380D02*
X104857142Y-23011904D01*
X104904761Y-23107142D01*
X104952380Y-23154761D01*
X105047619Y-23202380D01*
X105238095Y-23202380D01*
X105333333Y-23154761D01*
X105380952Y-23107142D01*
X105428571Y-23011904D01*
X105428571Y-22202380D01*
X105761904Y-22202380D02*
X106333333Y-22202380D01*
X106047619Y-23202380D02*
X106047619Y-22202380D01*
%TO.C,U1*%
X82238095Y-27513265D02*
X82238095Y-28322789D01*
X82285714Y-28418027D01*
X82333333Y-28465646D01*
X82428571Y-28513265D01*
X82619047Y-28513265D01*
X82714285Y-28465646D01*
X82761904Y-28418027D01*
X82809523Y-28322789D01*
X82809523Y-27513265D01*
X83809523Y-28513265D02*
X83238095Y-28513265D01*
X83523809Y-28513265D02*
X83523809Y-27513265D01*
X83428571Y-27656123D01*
X83333333Y-27751361D01*
X83238095Y-27798980D01*
%TO.C,C21*%
X80357142Y-34607142D02*
X80309523Y-34654761D01*
X80166666Y-34702380D01*
X80071428Y-34702380D01*
X79928571Y-34654761D01*
X79833333Y-34559523D01*
X79785714Y-34464285D01*
X79738095Y-34273809D01*
X79738095Y-34130952D01*
X79785714Y-33940476D01*
X79833333Y-33845238D01*
X79928571Y-33750000D01*
X80071428Y-33702380D01*
X80166666Y-33702380D01*
X80309523Y-33750000D01*
X80357142Y-33797619D01*
X80738095Y-33797619D02*
X80785714Y-33750000D01*
X80880952Y-33702380D01*
X81119047Y-33702380D01*
X81214285Y-33750000D01*
X81261904Y-33797619D01*
X81309523Y-33892857D01*
X81309523Y-33988095D01*
X81261904Y-34130952D01*
X80690476Y-34702380D01*
X81309523Y-34702380D01*
X82261904Y-34702380D02*
X81690476Y-34702380D01*
X81976190Y-34702380D02*
X81976190Y-33702380D01*
X81880952Y-33845238D01*
X81785714Y-33940476D01*
X81690476Y-33988095D01*
%TO.C,R9*%
X96583333Y-17202380D02*
X96250000Y-16726190D01*
X96011904Y-17202380D02*
X96011904Y-16202380D01*
X96392857Y-16202380D01*
X96488095Y-16250000D01*
X96535714Y-16297619D01*
X96583333Y-16392857D01*
X96583333Y-16535714D01*
X96535714Y-16630952D01*
X96488095Y-16678571D01*
X96392857Y-16726190D01*
X96011904Y-16726190D01*
X97059523Y-17202380D02*
X97250000Y-17202380D01*
X97345238Y-17154761D01*
X97392857Y-17107142D01*
X97488095Y-16964285D01*
X97535714Y-16773809D01*
X97535714Y-16392857D01*
X97488095Y-16297619D01*
X97440476Y-16250000D01*
X97345238Y-16202380D01*
X97154761Y-16202380D01*
X97059523Y-16250000D01*
X97011904Y-16297619D01*
X96964285Y-16392857D01*
X96964285Y-16630952D01*
X97011904Y-16726190D01*
X97059523Y-16773809D01*
X97154761Y-16821428D01*
X97345238Y-16821428D01*
X97440476Y-16773809D01*
X97488095Y-16726190D01*
X97535714Y-16630952D01*
%TO.C,C16*%
X58357142Y-45857142D02*
X58309523Y-45904761D01*
X58166666Y-45952380D01*
X58071428Y-45952380D01*
X57928571Y-45904761D01*
X57833333Y-45809523D01*
X57785714Y-45714285D01*
X57738095Y-45523809D01*
X57738095Y-45380952D01*
X57785714Y-45190476D01*
X57833333Y-45095238D01*
X57928571Y-45000000D01*
X58071428Y-44952380D01*
X58166666Y-44952380D01*
X58309523Y-45000000D01*
X58357142Y-45047619D01*
X59309523Y-45952380D02*
X58738095Y-45952380D01*
X59023809Y-45952380D02*
X59023809Y-44952380D01*
X58928571Y-45095238D01*
X58833333Y-45190476D01*
X58738095Y-45238095D01*
X60166666Y-44952380D02*
X59976190Y-44952380D01*
X59880952Y-45000000D01*
X59833333Y-45047619D01*
X59738095Y-45190476D01*
X59690476Y-45380952D01*
X59690476Y-45761904D01*
X59738095Y-45857142D01*
X59785714Y-45904761D01*
X59880952Y-45952380D01*
X60071428Y-45952380D01*
X60166666Y-45904761D01*
X60214285Y-45857142D01*
X60261904Y-45761904D01*
X60261904Y-45523809D01*
X60214285Y-45428571D01*
X60166666Y-45380952D01*
X60071428Y-45333333D01*
X59880952Y-45333333D01*
X59785714Y-45380952D01*
X59738095Y-45428571D01*
X59690476Y-45523809D01*
%TO.C,C19*%
X73357142Y-41857142D02*
X73309523Y-41904761D01*
X73166666Y-41952380D01*
X73071428Y-41952380D01*
X72928571Y-41904761D01*
X72833333Y-41809523D01*
X72785714Y-41714285D01*
X72738095Y-41523809D01*
X72738095Y-41380952D01*
X72785714Y-41190476D01*
X72833333Y-41095238D01*
X72928571Y-41000000D01*
X73071428Y-40952380D01*
X73166666Y-40952380D01*
X73309523Y-41000000D01*
X73357142Y-41047619D01*
X74309523Y-41952380D02*
X73738095Y-41952380D01*
X74023809Y-41952380D02*
X74023809Y-40952380D01*
X73928571Y-41095238D01*
X73833333Y-41190476D01*
X73738095Y-41238095D01*
X74785714Y-41952380D02*
X74976190Y-41952380D01*
X75071428Y-41904761D01*
X75119047Y-41857142D01*
X75214285Y-41714285D01*
X75261904Y-41523809D01*
X75261904Y-41142857D01*
X75214285Y-41047619D01*
X75166666Y-41000000D01*
X75071428Y-40952380D01*
X74880952Y-40952380D01*
X74785714Y-41000000D01*
X74738095Y-41047619D01*
X74690476Y-41142857D01*
X74690476Y-41380952D01*
X74738095Y-41476190D01*
X74785714Y-41523809D01*
X74880952Y-41571428D01*
X75071428Y-41571428D01*
X75166666Y-41523809D01*
X75214285Y-41476190D01*
X75261904Y-41380952D01*
%TO.C,R7*%
X77333333Y-47452380D02*
X77000000Y-46976190D01*
X76761904Y-47452380D02*
X76761904Y-46452380D01*
X77142857Y-46452380D01*
X77238095Y-46500000D01*
X77285714Y-46547619D01*
X77333333Y-46642857D01*
X77333333Y-46785714D01*
X77285714Y-46880952D01*
X77238095Y-46928571D01*
X77142857Y-46976190D01*
X76761904Y-46976190D01*
X77666666Y-46452380D02*
X78333333Y-46452380D01*
X77904761Y-47452380D01*
%TO.C,R14*%
X72357142Y-32102380D02*
X72023809Y-31626190D01*
X71785714Y-32102380D02*
X71785714Y-31102380D01*
X72166666Y-31102380D01*
X72261904Y-31150000D01*
X72309523Y-31197619D01*
X72357142Y-31292857D01*
X72357142Y-31435714D01*
X72309523Y-31530952D01*
X72261904Y-31578571D01*
X72166666Y-31626190D01*
X71785714Y-31626190D01*
X73309523Y-32102380D02*
X72738095Y-32102380D01*
X73023809Y-32102380D02*
X73023809Y-31102380D01*
X72928571Y-31245238D01*
X72833333Y-31340476D01*
X72738095Y-31388095D01*
X74166666Y-31435714D02*
X74166666Y-32102380D01*
X73928571Y-31054761D02*
X73690476Y-31769047D01*
X74309523Y-31769047D01*
%TO.C,J7*%
X55666666Y-12122380D02*
X55666666Y-12836666D01*
X55619047Y-12979523D01*
X55523809Y-13074761D01*
X55380952Y-13122380D01*
X55285714Y-13122380D01*
X56047619Y-12122380D02*
X56714285Y-12122380D01*
X56285714Y-13122380D01*
%TO.C,R17*%
X72357142Y-34802380D02*
X72023809Y-34326190D01*
X71785714Y-34802380D02*
X71785714Y-33802380D01*
X72166666Y-33802380D01*
X72261904Y-33850000D01*
X72309523Y-33897619D01*
X72357142Y-33992857D01*
X72357142Y-34135714D01*
X72309523Y-34230952D01*
X72261904Y-34278571D01*
X72166666Y-34326190D01*
X71785714Y-34326190D01*
X73309523Y-34802380D02*
X72738095Y-34802380D01*
X73023809Y-34802380D02*
X73023809Y-33802380D01*
X72928571Y-33945238D01*
X72833333Y-34040476D01*
X72738095Y-34088095D01*
X73642857Y-33802380D02*
X74309523Y-33802380D01*
X73880952Y-34802380D01*
%TO.C,D3*%
X69261904Y-40452380D02*
X69261904Y-39452380D01*
X69500000Y-39452380D01*
X69642857Y-39500000D01*
X69738095Y-39595238D01*
X69785714Y-39690476D01*
X69833333Y-39880952D01*
X69833333Y-40023809D01*
X69785714Y-40214285D01*
X69738095Y-40309523D01*
X69642857Y-40404761D01*
X69500000Y-40452380D01*
X69261904Y-40452380D01*
X70166666Y-39452380D02*
X70785714Y-39452380D01*
X70452380Y-39833333D01*
X70595238Y-39833333D01*
X70690476Y-39880952D01*
X70738095Y-39928571D01*
X70785714Y-40023809D01*
X70785714Y-40261904D01*
X70738095Y-40357142D01*
X70690476Y-40404761D01*
X70595238Y-40452380D01*
X70309523Y-40452380D01*
X70214285Y-40404761D01*
X70166666Y-40357142D01*
%TO.C,C17*%
X89357142Y-30707142D02*
X89309523Y-30754761D01*
X89166666Y-30802380D01*
X89071428Y-30802380D01*
X88928571Y-30754761D01*
X88833333Y-30659523D01*
X88785714Y-30564285D01*
X88738095Y-30373809D01*
X88738095Y-30230952D01*
X88785714Y-30040476D01*
X88833333Y-29945238D01*
X88928571Y-29850000D01*
X89071428Y-29802380D01*
X89166666Y-29802380D01*
X89309523Y-29850000D01*
X89357142Y-29897619D01*
X90309523Y-30802380D02*
X89738095Y-30802380D01*
X90023809Y-30802380D02*
X90023809Y-29802380D01*
X89928571Y-29945238D01*
X89833333Y-30040476D01*
X89738095Y-30088095D01*
X90642857Y-29802380D02*
X91309523Y-29802380D01*
X90880952Y-30802380D01*
%TO.C,C11*%
X85857142Y-27232142D02*
X85809523Y-27279761D01*
X85666666Y-27327380D01*
X85571428Y-27327380D01*
X85428571Y-27279761D01*
X85333333Y-27184523D01*
X85285714Y-27089285D01*
X85238095Y-26898809D01*
X85238095Y-26755952D01*
X85285714Y-26565476D01*
X85333333Y-26470238D01*
X85428571Y-26375000D01*
X85571428Y-26327380D01*
X85666666Y-26327380D01*
X85809523Y-26375000D01*
X85857142Y-26422619D01*
X86809523Y-27327380D02*
X86238095Y-27327380D01*
X86523809Y-27327380D02*
X86523809Y-26327380D01*
X86428571Y-26470238D01*
X86333333Y-26565476D01*
X86238095Y-26613095D01*
X87761904Y-27327380D02*
X87190476Y-27327380D01*
X87476190Y-27327380D02*
X87476190Y-26327380D01*
X87380952Y-26470238D01*
X87285714Y-26565476D01*
X87190476Y-26613095D01*
%TO.C,C9*%
X95833333Y-32857142D02*
X95785714Y-32904761D01*
X95642857Y-32952380D01*
X95547619Y-32952380D01*
X95404761Y-32904761D01*
X95309523Y-32809523D01*
X95261904Y-32714285D01*
X95214285Y-32523809D01*
X95214285Y-32380952D01*
X95261904Y-32190476D01*
X95309523Y-32095238D01*
X95404761Y-32000000D01*
X95547619Y-31952380D01*
X95642857Y-31952380D01*
X95785714Y-32000000D01*
X95833333Y-32047619D01*
X96309523Y-32952380D02*
X96500000Y-32952380D01*
X96595238Y-32904761D01*
X96642857Y-32857142D01*
X96738095Y-32714285D01*
X96785714Y-32523809D01*
X96785714Y-32142857D01*
X96738095Y-32047619D01*
X96690476Y-32000000D01*
X96595238Y-31952380D01*
X96404761Y-31952380D01*
X96309523Y-32000000D01*
X96261904Y-32047619D01*
X96214285Y-32142857D01*
X96214285Y-32380952D01*
X96261904Y-32476190D01*
X96309523Y-32523809D01*
X96404761Y-32571428D01*
X96595238Y-32571428D01*
X96690476Y-32523809D01*
X96738095Y-32476190D01*
X96785714Y-32380952D01*
D14*
%TO.C,U3*%
X82500000Y-56560000D02*
X85950000Y-56560000D01*
X82500000Y-56560000D02*
X80550000Y-56560000D01*
X82500000Y-51440000D02*
X84450000Y-51440000D01*
X82500000Y-51440000D02*
X80550000Y-51440000D01*
D12*
%TO.C,U2*%
X99375000Y-36625000D02*
X99375000Y-36300000D01*
X106625000Y-29375000D02*
X106300000Y-29375000D01*
X106625000Y-36625000D02*
X106625000Y-36300000D01*
X99375000Y-29375000D02*
X99700000Y-29375000D01*
X99375000Y-29375000D02*
X99375000Y-29600000D01*
X106625000Y-36625000D02*
X106300000Y-36625000D01*
X99375000Y-36625000D02*
X99700000Y-36625000D01*
X99375000Y-29600000D02*
X97950000Y-29600000D01*
X106625000Y-29375000D02*
X106625000Y-29700000D01*
D14*
%TO.C,R20*%
X83290000Y-35741422D02*
X83290000Y-36258578D01*
X84710000Y-35741422D02*
X84710000Y-36258578D01*
%TO.C,C3*%
X79741422Y-27727500D02*
X80258578Y-27727500D01*
X79741422Y-29147500D02*
X80258578Y-29147500D01*
%TO.C,C8*%
X84241422Y-49290000D02*
X84758578Y-49290000D01*
X84241422Y-50710000D02*
X84758578Y-50710000D01*
%TO.C,C2*%
X110710000Y-30741422D02*
X110710000Y-31258578D01*
X109290000Y-30741422D02*
X109290000Y-31258578D01*
%TO.C,C6*%
X76160000Y-57058578D02*
X76160000Y-56541422D01*
X77580000Y-57058578D02*
X77580000Y-56541422D01*
%TO.C,J4*%
X96380000Y-47880000D02*
X106620000Y-47880000D01*
X96380000Y-47880000D02*
X96380000Y-60620000D01*
X96380000Y-60620000D02*
X106620000Y-60620000D01*
X96380000Y-47880000D02*
X96380000Y-60620000D01*
X106620000Y-47880000D02*
X106620000Y-60620000D01*
X96000000Y-50500000D02*
X96000000Y-47500000D01*
X96000000Y-47500000D02*
X99000000Y-47500000D01*
X96380000Y-47880000D02*
X106620000Y-47880000D01*
X96380000Y-60620000D02*
X106620000Y-60620000D01*
X106620000Y-47880000D02*
X106620000Y-60620000D01*
%TO.C,R16*%
X73258578Y-33290000D02*
X72741422Y-33290000D01*
X73258578Y-34710000D02*
X72741422Y-34710000D01*
%TO.C,C18*%
X58290000Y-49258578D02*
X58290000Y-48741422D01*
X59710000Y-49258578D02*
X59710000Y-48741422D01*
%TO.C,Y1*%
X91300000Y-38150000D02*
X96700000Y-38150000D01*
X91300000Y-33850000D02*
X91300000Y-38150000D01*
%TO.C,U4*%
X79000000Y-40560000D02*
X77050000Y-40560000D01*
X79000000Y-35440000D02*
X80950000Y-35440000D01*
X79000000Y-40560000D02*
X82450000Y-40560000D01*
X79000000Y-35440000D02*
X77050000Y-35440000D01*
%TO.C,C15*%
X89741422Y-39290000D02*
X90258578Y-39290000D01*
X89741422Y-40710000D02*
X90258578Y-40710000D01*
%TO.C,C10*%
X109290000Y-36258578D02*
X109290000Y-35741422D01*
X110710000Y-36258578D02*
X110710000Y-35741422D01*
%TO.C,C4*%
X87160000Y-57058578D02*
X87160000Y-56541422D01*
X88580000Y-57058578D02*
X88580000Y-56541422D01*
%TO.C,SW2*%
X89300000Y-21300000D02*
X89750000Y-21750000D01*
X89750000Y-21750000D02*
X92250000Y-21750000D01*
X88250000Y-18000000D02*
X88250000Y-20000000D01*
X92700000Y-16700000D02*
X92250000Y-16250000D01*
X89300000Y-16700000D02*
X89750000Y-16250000D01*
X92700000Y-21300000D02*
X92250000Y-21750000D01*
X89750000Y-16250000D02*
X92250000Y-16250000D01*
X93750000Y-18000000D02*
X93750000Y-20000000D01*
%TO.C,R13*%
X54638748Y-48610000D02*
X55361252Y-48610000D01*
X54638748Y-43390000D02*
X55361252Y-43390000D01*
%TO.C,R10*%
X62741422Y-15710000D02*
X63258578Y-15710000D01*
X62741422Y-14290000D02*
X63258578Y-14290000D01*
%TO.C,C14*%
X77580000Y-52541422D02*
X77580000Y-53058578D01*
X76160000Y-52541422D02*
X76160000Y-53058578D01*
%TO.C,C1*%
X88580000Y-52541422D02*
X88580000Y-53058578D01*
X87160000Y-52541422D02*
X87160000Y-53058578D01*
%TO.C,R2*%
X106290000Y-24741422D02*
X106290000Y-25258578D01*
X107710000Y-24741422D02*
X107710000Y-25258578D01*
%TO.C,C20*%
X51290000Y-52258578D02*
X51290000Y-51741422D01*
X52710000Y-52258578D02*
X52710000Y-51741422D01*
%TO.C,R6*%
X74741422Y-15710000D02*
X75258578Y-15710000D01*
X74741422Y-14290000D02*
X75258578Y-14290000D01*
%TO.C,SW1*%
X77300000Y-21300000D02*
X77750000Y-21750000D01*
X77750000Y-21750000D02*
X80250000Y-21750000D01*
X76250000Y-18000000D02*
X76250000Y-20000000D01*
X80700000Y-16700000D02*
X80250000Y-16250000D01*
X77300000Y-16700000D02*
X77750000Y-16250000D01*
X80700000Y-21300000D02*
X80250000Y-21750000D01*
X77750000Y-16250000D02*
X80250000Y-16250000D01*
X81750000Y-18000000D02*
X81750000Y-20000000D01*
%TO.C,R18*%
X54741422Y-56710000D02*
X55258578Y-56710000D01*
X54741422Y-55290000D02*
X55258578Y-55290000D01*
%TO.C,C7*%
X57760000Y-37304437D02*
X56695563Y-36240000D01*
X57760000Y-40695563D02*
X56695563Y-41760000D01*
X56695563Y-36240000D02*
X52240000Y-36240000D01*
X57760000Y-37304437D02*
X57760000Y-37940000D01*
X57760000Y-40695563D02*
X57760000Y-40060000D01*
X56695563Y-41760000D02*
X52240000Y-41760000D01*
X52240000Y-41760000D02*
X52240000Y-40060000D01*
X52240000Y-36240000D02*
X52240000Y-37940000D01*
%TO.C,J3*%
X30062258Y-42000000D02*
G75*
G03*
X30062258Y-42000000I-8062258J0D01*
G01*
%TO.C,R8*%
X86741422Y-15710000D02*
X87258578Y-15710000D01*
X86741422Y-14290000D02*
X87258578Y-14290000D01*
%TO.C,R5*%
X89710000Y-36196078D02*
X89710000Y-35678922D01*
X88290000Y-36196078D02*
X88290000Y-35678922D01*
%TO.C,SW3*%
X100300000Y-21300000D02*
X100750000Y-21750000D01*
X100750000Y-21750000D02*
X103250000Y-21750000D01*
X99250000Y-18000000D02*
X99250000Y-20000000D01*
X103700000Y-16700000D02*
X103250000Y-16250000D01*
X100300000Y-16700000D02*
X100750000Y-16250000D01*
X103700000Y-21300000D02*
X103250000Y-21750000D01*
X100750000Y-16250000D02*
X103250000Y-16250000D01*
X104750000Y-18000000D02*
X104750000Y-20000000D01*
%TO.C,R12*%
X72741422Y-28710000D02*
X73258578Y-28710000D01*
X72741422Y-27290000D02*
X73258578Y-27290000D01*
%TO.C,J2*%
X50062258Y-42000000D02*
G75*
G03*
X50062258Y-42000000I-8062258J0D01*
G01*
%TO.C,C12*%
X92304437Y-41240000D02*
X91240000Y-42304437D01*
X95695563Y-41240000D02*
X96760000Y-42304437D01*
X91240000Y-42304437D02*
X91240000Y-46760000D01*
X92304437Y-41240000D02*
X92940000Y-41240000D01*
X95695563Y-41240000D02*
X95060000Y-41240000D01*
X96760000Y-42304437D02*
X96760000Y-46760000D01*
X96760000Y-46760000D02*
X95060000Y-46760000D01*
X91240000Y-46760000D02*
X92940000Y-46760000D01*
%TO.C,R19*%
X84710000Y-41258578D02*
X84710000Y-40741422D01*
X83290000Y-41258578D02*
X83290000Y-40741422D01*
%TO.C,L1*%
X61250000Y-57400000D02*
X64000000Y-57400000D01*
X61250000Y-44600000D02*
X64000000Y-44600000D01*
X73400000Y-45250000D02*
X73400000Y-56750000D01*
X60600000Y-56750000D02*
X60600000Y-45250000D01*
X70000000Y-57400000D02*
X72750000Y-57400000D01*
X70000000Y-44600000D02*
X72750000Y-44600000D01*
X73400000Y-56750000D02*
G75*
G02*
X72750000Y-57400000I-650000J0D01*
G01*
X60600000Y-45250000D02*
G75*
G02*
X61250000Y-44600000I650000J0D01*
G01*
X61250000Y-57400000D02*
G75*
G02*
X60600000Y-56750000I0J650000D01*
G01*
X72750000Y-44600000D02*
G75*
G02*
X73400000Y-45250000I0J-650000D01*
G01*
%TO.C,C13*%
X80758578Y-50710000D02*
X80241422Y-50710000D01*
X80758578Y-49290000D02*
X80241422Y-49290000D01*
%TO.C,R1*%
X98290000Y-24741422D02*
X98290000Y-25258578D01*
X99710000Y-24741422D02*
X99710000Y-25258578D01*
%TO.C,SW4*%
X65300000Y-21300000D02*
X65750000Y-21750000D01*
X65750000Y-21750000D02*
X68250000Y-21750000D01*
X64250000Y-18000000D02*
X64250000Y-20000000D01*
X68700000Y-16700000D02*
X68250000Y-16250000D01*
X65300000Y-16700000D02*
X65750000Y-16250000D01*
X68700000Y-21300000D02*
X68250000Y-21750000D01*
X65750000Y-16250000D02*
X68250000Y-16250000D01*
X69750000Y-18000000D02*
X69750000Y-20000000D01*
%TO.C,D1*%
X100040000Y-26685000D02*
X101960000Y-26685000D01*
X101960000Y-26685000D02*
X101960000Y-24000000D01*
X100040000Y-24000000D02*
X100040000Y-26685000D01*
%TO.C,R15*%
X72741422Y-32710000D02*
X73258578Y-32710000D01*
X72741422Y-31290000D02*
X73258578Y-31290000D01*
%TO.C,C5*%
X90580000Y-52541422D02*
X90580000Y-53058578D01*
X89160000Y-52541422D02*
X89160000Y-53058578D01*
%TO.C,U6*%
X77100000Y-33610000D02*
X79550000Y-33610000D01*
X78900000Y-30390000D02*
X77100000Y-30390000D01*
%TO.C,U5*%
X55900000Y-50390000D02*
X54100000Y-50390000D01*
X54100000Y-53610000D02*
X56550000Y-53610000D01*
%TO.C,D2*%
X104040000Y-26685000D02*
X105960000Y-26685000D01*
X105960000Y-26685000D02*
X105960000Y-24000000D01*
X104040000Y-24000000D02*
X104040000Y-26685000D01*
%TO.C,U1*%
X85360000Y-23563385D02*
X85130000Y-23563385D01*
X85360000Y-23563385D02*
X85360000Y-26283385D01*
X80640000Y-26283385D02*
X80640000Y-23563385D01*
X81950000Y-26283385D02*
X80640000Y-26283385D01*
X85130000Y-22423385D02*
X85130000Y-23563385D01*
X85360000Y-26283385D02*
X84050000Y-26283385D01*
X80640000Y-23563385D02*
X80870000Y-23563385D01*
%TO.C,C21*%
X80290000Y-32258578D02*
X80290000Y-31741422D01*
X81710000Y-32258578D02*
X81710000Y-31741422D01*
%TO.C,R9*%
X97741422Y-15710000D02*
X98258578Y-15710000D01*
X97741422Y-14290000D02*
X98258578Y-14290000D01*
%TO.C,C16*%
X59710000Y-42741422D02*
X59710000Y-43258578D01*
X58290000Y-42741422D02*
X58290000Y-43258578D01*
%TO.C,C19*%
X74710000Y-38741422D02*
X74710000Y-39258578D01*
X73290000Y-38741422D02*
X73290000Y-39258578D01*
%TO.C,R7*%
X80241422Y-47710000D02*
X80758578Y-47710000D01*
X80241422Y-46290000D02*
X80758578Y-46290000D01*
%TO.C,R14*%
X73258578Y-29290000D02*
X72741422Y-29290000D01*
X73258578Y-30710000D02*
X72741422Y-30710000D01*
%TO.C,R17*%
X72741422Y-36710000D02*
X73258578Y-36710000D01*
X72741422Y-35290000D02*
X73258578Y-35290000D01*
%TO.C,D3*%
X69070000Y-43510000D02*
X71500000Y-43510000D01*
X69050000Y-41500000D02*
X69050000Y-40450000D01*
X69050000Y-40450000D02*
X70900000Y-40450000D01*
X69050000Y-43500000D02*
X69050000Y-42500000D01*
%TO.C,C17*%
X89741422Y-31290000D02*
X90258578Y-31290000D01*
X89741422Y-32710000D02*
X90258578Y-32710000D01*
%TO.C,C11*%
X86258578Y-29147500D02*
X85741422Y-29147500D01*
X86258578Y-27727500D02*
X85741422Y-27727500D01*
%TO.C,C9*%
X96710000Y-29741422D02*
X96710000Y-30258578D01*
X95290000Y-29741422D02*
X95290000Y-30258578D01*
%TD*%
M02*
