%TF.GenerationSoftware,KiCad,Pcbnew,(5.99.0-2619-gb519867d9)*%
%TF.CreationDate,2020-08-09T22:36:05+05:30*%
%TF.ProjectId,Power_Supply,506f7765-725f-4537-9570-706c792e6b69,rev?*%
%TF.SameCoordinates,Original*%
%TF.FileFunction,Paste,Top*%
%TF.FilePolarity,Positive*%
%FSLAX46Y46*%
G04 Gerber Fmt 4.6, Leading zero omitted, Abs format (unit mm)*
G04 Created by KiCad (PCBNEW (5.99.0-2619-gb519867d9)) date 2020-08-09 22:36:05*
%MOMM*%
%LPD*%
G01*
G04 APERTURE LIST*
%ADD10R,1.600000X0.550000*%
%ADD11R,0.550000X1.600000*%
%ADD12R,2.100000X1.725000*%
%ADD13R,1.700000X1.000000*%
%ADD14R,5.400000X2.900000*%
%ADD15R,1.060000X0.650000*%
%ADD16R,0.900000X1.300000*%
%ADD17R,1.220000X0.650000*%
G04 APERTURE END LIST*
%TO.C,U3*%
G36*
G01*
X82375000Y-52805000D02*
X82375000Y-53595000D01*
G75*
G02*
X82125000Y-53845000I-250000J0D01*
G01*
X81615000Y-53845000D01*
G75*
G02*
X81365000Y-53595000I0J250000D01*
G01*
X81365000Y-52805000D01*
G75*
G02*
X81615000Y-52555000I250000J0D01*
G01*
X82125000Y-52555000D01*
G75*
G02*
X82375000Y-52805000I0J-250000D01*
G01*
G37*
G36*
G01*
X82375000Y-54405000D02*
X82375000Y-55195000D01*
G75*
G02*
X82125000Y-55445000I-250000J0D01*
G01*
X81615000Y-55445000D01*
G75*
G02*
X81365000Y-55195000I0J250000D01*
G01*
X81365000Y-54405000D01*
G75*
G02*
X81615000Y-54155000I250000J0D01*
G01*
X82125000Y-54155000D01*
G75*
G02*
X82375000Y-54405000I0J-250000D01*
G01*
G37*
G36*
G01*
X83635000Y-52805000D02*
X83635000Y-53595000D01*
G75*
G02*
X83385000Y-53845000I-250000J0D01*
G01*
X82875000Y-53845000D01*
G75*
G02*
X82625000Y-53595000I0J250000D01*
G01*
X82625000Y-52805000D01*
G75*
G02*
X82875000Y-52555000I250000J0D01*
G01*
X83385000Y-52555000D01*
G75*
G02*
X83635000Y-52805000I0J-250000D01*
G01*
G37*
G36*
G01*
X83635000Y-54405000D02*
X83635000Y-55195000D01*
G75*
G02*
X83385000Y-55445000I-250000J0D01*
G01*
X82875000Y-55445000D01*
G75*
G02*
X82625000Y-55195000I0J250000D01*
G01*
X82625000Y-54405000D01*
G75*
G02*
X82875000Y-54155000I250000J0D01*
G01*
X83385000Y-54155000D01*
G75*
G02*
X83635000Y-54405000I0J-250000D01*
G01*
G37*
G36*
G01*
X80675000Y-55755000D02*
X80675000Y-56055000D01*
G75*
G02*
X80525000Y-56205000I-150000J0D01*
G01*
X79200000Y-56205000D01*
G75*
G02*
X79050000Y-56055000I0J150000D01*
G01*
X79050000Y-55755000D01*
G75*
G02*
X79200000Y-55605000I150000J0D01*
G01*
X80525000Y-55605000D01*
G75*
G02*
X80675000Y-55755000I0J-150000D01*
G01*
G37*
G36*
G01*
X80675000Y-54485000D02*
X80675000Y-54785000D01*
G75*
G02*
X80525000Y-54935000I-150000J0D01*
G01*
X79200000Y-54935000D01*
G75*
G02*
X79050000Y-54785000I0J150000D01*
G01*
X79050000Y-54485000D01*
G75*
G02*
X79200000Y-54335000I150000J0D01*
G01*
X80525000Y-54335000D01*
G75*
G02*
X80675000Y-54485000I0J-150000D01*
G01*
G37*
G36*
G01*
X80675000Y-53215000D02*
X80675000Y-53515000D01*
G75*
G02*
X80525000Y-53665000I-150000J0D01*
G01*
X79200000Y-53665000D01*
G75*
G02*
X79050000Y-53515000I0J150000D01*
G01*
X79050000Y-53215000D01*
G75*
G02*
X79200000Y-53065000I150000J0D01*
G01*
X80525000Y-53065000D01*
G75*
G02*
X80675000Y-53215000I0J-150000D01*
G01*
G37*
G36*
G01*
X80675000Y-51945000D02*
X80675000Y-52245000D01*
G75*
G02*
X80525000Y-52395000I-150000J0D01*
G01*
X79200000Y-52395000D01*
G75*
G02*
X79050000Y-52245000I0J150000D01*
G01*
X79050000Y-51945000D01*
G75*
G02*
X79200000Y-51795000I150000J0D01*
G01*
X80525000Y-51795000D01*
G75*
G02*
X80675000Y-51945000I0J-150000D01*
G01*
G37*
G36*
G01*
X85950000Y-51945000D02*
X85950000Y-52245000D01*
G75*
G02*
X85800000Y-52395000I-150000J0D01*
G01*
X84475000Y-52395000D01*
G75*
G02*
X84325000Y-52245000I0J150000D01*
G01*
X84325000Y-51945000D01*
G75*
G02*
X84475000Y-51795000I150000J0D01*
G01*
X85800000Y-51795000D01*
G75*
G02*
X85950000Y-51945000I0J-150000D01*
G01*
G37*
G36*
G01*
X85950000Y-53215000D02*
X85950000Y-53515000D01*
G75*
G02*
X85800000Y-53665000I-150000J0D01*
G01*
X84475000Y-53665000D01*
G75*
G02*
X84325000Y-53515000I0J150000D01*
G01*
X84325000Y-53215000D01*
G75*
G02*
X84475000Y-53065000I150000J0D01*
G01*
X85800000Y-53065000D01*
G75*
G02*
X85950000Y-53215000I0J-150000D01*
G01*
G37*
G36*
G01*
X85950000Y-54485000D02*
X85950000Y-54785000D01*
G75*
G02*
X85800000Y-54935000I-150000J0D01*
G01*
X84475000Y-54935000D01*
G75*
G02*
X84325000Y-54785000I0J150000D01*
G01*
X84325000Y-54485000D01*
G75*
G02*
X84475000Y-54335000I150000J0D01*
G01*
X85800000Y-54335000D01*
G75*
G02*
X85950000Y-54485000I0J-150000D01*
G01*
G37*
G36*
G01*
X85950000Y-55755000D02*
X85950000Y-56055000D01*
G75*
G02*
X85800000Y-56205000I-150000J0D01*
G01*
X84475000Y-56205000D01*
G75*
G02*
X84325000Y-56055000I0J150000D01*
G01*
X84325000Y-55755000D01*
G75*
G02*
X84475000Y-55605000I150000J0D01*
G01*
X85800000Y-55605000D01*
G75*
G02*
X85950000Y-55755000I0J-150000D01*
G01*
G37*
%TD*%
D10*
%TO.C,U2*%
X98750000Y-30200000D03*
X98750000Y-31000000D03*
X98750000Y-31800000D03*
X98750000Y-32600000D03*
X98750000Y-33400000D03*
X98750000Y-34200000D03*
X98750000Y-35000000D03*
X98750000Y-35800000D03*
D11*
X100200000Y-37250000D03*
X101000000Y-37250000D03*
X101800000Y-37250000D03*
X102600000Y-37250000D03*
X103400000Y-37250000D03*
X104200000Y-37250000D03*
X105000000Y-37250000D03*
X105800000Y-37250000D03*
D10*
X107250000Y-35800000D03*
X107250000Y-35000000D03*
X107250000Y-34200000D03*
X107250000Y-33400000D03*
X107250000Y-32600000D03*
X107250000Y-31800000D03*
X107250000Y-31000000D03*
X107250000Y-30200000D03*
D11*
X105800000Y-28750000D03*
X105000000Y-28750000D03*
X104200000Y-28750000D03*
X103400000Y-28750000D03*
X102600000Y-28750000D03*
X101800000Y-28750000D03*
X101000000Y-28750000D03*
X100200000Y-28750000D03*
%TD*%
%TO.C,R20*%
G36*
G01*
X83543750Y-34575000D02*
X84456250Y-34575000D01*
G75*
G02*
X84700000Y-34818750I0J-243750D01*
G01*
X84700000Y-35306250D01*
G75*
G02*
X84456250Y-35550000I-243750J0D01*
G01*
X83543750Y-35550000D01*
G75*
G02*
X83300000Y-35306250I0J243750D01*
G01*
X83300000Y-34818750D01*
G75*
G02*
X83543750Y-34575000I243750J0D01*
G01*
G37*
G36*
G01*
X83543750Y-36450000D02*
X84456250Y-36450000D01*
G75*
G02*
X84700000Y-36693750I0J-243750D01*
G01*
X84700000Y-37181250D01*
G75*
G02*
X84456250Y-37425000I-243750J0D01*
G01*
X83543750Y-37425000D01*
G75*
G02*
X83300000Y-37181250I0J243750D01*
G01*
X83300000Y-36693750D01*
G75*
G02*
X83543750Y-36450000I243750J0D01*
G01*
G37*
%TD*%
%TO.C,C3*%
G36*
G01*
X78575000Y-28893750D02*
X78575000Y-27981250D01*
G75*
G02*
X78818750Y-27737500I243750J0D01*
G01*
X79306250Y-27737500D01*
G75*
G02*
X79550000Y-27981250I0J-243750D01*
G01*
X79550000Y-28893750D01*
G75*
G02*
X79306250Y-29137500I-243750J0D01*
G01*
X78818750Y-29137500D01*
G75*
G02*
X78575000Y-28893750I0J243750D01*
G01*
G37*
G36*
G01*
X80450000Y-28893750D02*
X80450000Y-27981250D01*
G75*
G02*
X80693750Y-27737500I243750J0D01*
G01*
X81181250Y-27737500D01*
G75*
G02*
X81425000Y-27981250I0J-243750D01*
G01*
X81425000Y-28893750D01*
G75*
G02*
X81181250Y-29137500I-243750J0D01*
G01*
X80693750Y-29137500D01*
G75*
G02*
X80450000Y-28893750I0J243750D01*
G01*
G37*
%TD*%
%TO.C,C8*%
G36*
G01*
X83075000Y-50456250D02*
X83075000Y-49543750D01*
G75*
G02*
X83318750Y-49300000I243750J0D01*
G01*
X83806250Y-49300000D01*
G75*
G02*
X84050000Y-49543750I0J-243750D01*
G01*
X84050000Y-50456250D01*
G75*
G02*
X83806250Y-50700000I-243750J0D01*
G01*
X83318750Y-50700000D01*
G75*
G02*
X83075000Y-50456250I0J243750D01*
G01*
G37*
G36*
G01*
X84950000Y-50456250D02*
X84950000Y-49543750D01*
G75*
G02*
X85193750Y-49300000I243750J0D01*
G01*
X85681250Y-49300000D01*
G75*
G02*
X85925000Y-49543750I0J-243750D01*
G01*
X85925000Y-50456250D01*
G75*
G02*
X85681250Y-50700000I-243750J0D01*
G01*
X85193750Y-50700000D01*
G75*
G02*
X84950000Y-50456250I0J243750D01*
G01*
G37*
%TD*%
%TO.C,C2*%
G36*
G01*
X109543750Y-29575000D02*
X110456250Y-29575000D01*
G75*
G02*
X110700000Y-29818750I0J-243750D01*
G01*
X110700000Y-30306250D01*
G75*
G02*
X110456250Y-30550000I-243750J0D01*
G01*
X109543750Y-30550000D01*
G75*
G02*
X109300000Y-30306250I0J243750D01*
G01*
X109300000Y-29818750D01*
G75*
G02*
X109543750Y-29575000I243750J0D01*
G01*
G37*
G36*
G01*
X109543750Y-31450000D02*
X110456250Y-31450000D01*
G75*
G02*
X110700000Y-31693750I0J-243750D01*
G01*
X110700000Y-32181250D01*
G75*
G02*
X110456250Y-32425000I-243750J0D01*
G01*
X109543750Y-32425000D01*
G75*
G02*
X109300000Y-32181250I0J243750D01*
G01*
X109300000Y-31693750D01*
G75*
G02*
X109543750Y-31450000I243750J0D01*
G01*
G37*
%TD*%
%TO.C,C6*%
G36*
G01*
X77326250Y-58225000D02*
X76413750Y-58225000D01*
G75*
G02*
X76170000Y-57981250I0J243750D01*
G01*
X76170000Y-57493750D01*
G75*
G02*
X76413750Y-57250000I243750J0D01*
G01*
X77326250Y-57250000D01*
G75*
G02*
X77570000Y-57493750I0J-243750D01*
G01*
X77570000Y-57981250D01*
G75*
G02*
X77326250Y-58225000I-243750J0D01*
G01*
G37*
G36*
G01*
X77326250Y-56350000D02*
X76413750Y-56350000D01*
G75*
G02*
X76170000Y-56106250I0J243750D01*
G01*
X76170000Y-55618750D01*
G75*
G02*
X76413750Y-55375000I243750J0D01*
G01*
X77326250Y-55375000D01*
G75*
G02*
X77570000Y-55618750I0J-243750D01*
G01*
X77570000Y-56106250D01*
G75*
G02*
X77326250Y-56350000I-243750J0D01*
G01*
G37*
%TD*%
%TO.C,R16*%
G36*
G01*
X74425000Y-33543750D02*
X74425000Y-34456250D01*
G75*
G02*
X74181250Y-34700000I-243750J0D01*
G01*
X73693750Y-34700000D01*
G75*
G02*
X73450000Y-34456250I0J243750D01*
G01*
X73450000Y-33543750D01*
G75*
G02*
X73693750Y-33300000I243750J0D01*
G01*
X74181250Y-33300000D01*
G75*
G02*
X74425000Y-33543750I0J-243750D01*
G01*
G37*
G36*
G01*
X72550000Y-33543750D02*
X72550000Y-34456250D01*
G75*
G02*
X72306250Y-34700000I-243750J0D01*
G01*
X71818750Y-34700000D01*
G75*
G02*
X71575000Y-34456250I0J243750D01*
G01*
X71575000Y-33543750D01*
G75*
G02*
X71818750Y-33300000I243750J0D01*
G01*
X72306250Y-33300000D01*
G75*
G02*
X72550000Y-33543750I0J-243750D01*
G01*
G37*
%TD*%
%TO.C,C18*%
G36*
G01*
X59456250Y-50425000D02*
X58543750Y-50425000D01*
G75*
G02*
X58300000Y-50181250I0J243750D01*
G01*
X58300000Y-49693750D01*
G75*
G02*
X58543750Y-49450000I243750J0D01*
G01*
X59456250Y-49450000D01*
G75*
G02*
X59700000Y-49693750I0J-243750D01*
G01*
X59700000Y-50181250D01*
G75*
G02*
X59456250Y-50425000I-243750J0D01*
G01*
G37*
G36*
G01*
X59456250Y-48550000D02*
X58543750Y-48550000D01*
G75*
G02*
X58300000Y-48306250I0J243750D01*
G01*
X58300000Y-47818750D01*
G75*
G02*
X58543750Y-47575000I243750J0D01*
G01*
X59456250Y-47575000D01*
G75*
G02*
X59700000Y-47818750I0J-243750D01*
G01*
X59700000Y-48306250D01*
G75*
G02*
X59456250Y-48550000I-243750J0D01*
G01*
G37*
%TD*%
D12*
%TO.C,Y1*%
X92550000Y-37087500D03*
X95450000Y-37087500D03*
X95450000Y-34912500D03*
X92550000Y-34912500D03*
%TD*%
%TO.C,U4*%
G36*
G01*
X82450000Y-39755000D02*
X82450000Y-40055000D01*
G75*
G02*
X82300000Y-40205000I-150000J0D01*
G01*
X80650000Y-40205000D01*
G75*
G02*
X80500000Y-40055000I0J150000D01*
G01*
X80500000Y-39755000D01*
G75*
G02*
X80650000Y-39605000I150000J0D01*
G01*
X82300000Y-39605000D01*
G75*
G02*
X82450000Y-39755000I0J-150000D01*
G01*
G37*
G36*
G01*
X82450000Y-38485000D02*
X82450000Y-38785000D01*
G75*
G02*
X82300000Y-38935000I-150000J0D01*
G01*
X80650000Y-38935000D01*
G75*
G02*
X80500000Y-38785000I0J150000D01*
G01*
X80500000Y-38485000D01*
G75*
G02*
X80650000Y-38335000I150000J0D01*
G01*
X82300000Y-38335000D01*
G75*
G02*
X82450000Y-38485000I0J-150000D01*
G01*
G37*
G36*
G01*
X82450000Y-37215000D02*
X82450000Y-37515000D01*
G75*
G02*
X82300000Y-37665000I-150000J0D01*
G01*
X80650000Y-37665000D01*
G75*
G02*
X80500000Y-37515000I0J150000D01*
G01*
X80500000Y-37215000D01*
G75*
G02*
X80650000Y-37065000I150000J0D01*
G01*
X82300000Y-37065000D01*
G75*
G02*
X82450000Y-37215000I0J-150000D01*
G01*
G37*
G36*
G01*
X82450000Y-35945000D02*
X82450000Y-36245000D01*
G75*
G02*
X82300000Y-36395000I-150000J0D01*
G01*
X80650000Y-36395000D01*
G75*
G02*
X80500000Y-36245000I0J150000D01*
G01*
X80500000Y-35945000D01*
G75*
G02*
X80650000Y-35795000I150000J0D01*
G01*
X82300000Y-35795000D01*
G75*
G02*
X82450000Y-35945000I0J-150000D01*
G01*
G37*
G36*
G01*
X77500000Y-35945000D02*
X77500000Y-36245000D01*
G75*
G02*
X77350000Y-36395000I-150000J0D01*
G01*
X75700000Y-36395000D01*
G75*
G02*
X75550000Y-36245000I0J150000D01*
G01*
X75550000Y-35945000D01*
G75*
G02*
X75700000Y-35795000I150000J0D01*
G01*
X77350000Y-35795000D01*
G75*
G02*
X77500000Y-35945000I0J-150000D01*
G01*
G37*
G36*
G01*
X77500000Y-37215000D02*
X77500000Y-37515000D01*
G75*
G02*
X77350000Y-37665000I-150000J0D01*
G01*
X75700000Y-37665000D01*
G75*
G02*
X75550000Y-37515000I0J150000D01*
G01*
X75550000Y-37215000D01*
G75*
G02*
X75700000Y-37065000I150000J0D01*
G01*
X77350000Y-37065000D01*
G75*
G02*
X77500000Y-37215000I0J-150000D01*
G01*
G37*
G36*
G01*
X77500000Y-38485000D02*
X77500000Y-38785000D01*
G75*
G02*
X77350000Y-38935000I-150000J0D01*
G01*
X75700000Y-38935000D01*
G75*
G02*
X75550000Y-38785000I0J150000D01*
G01*
X75550000Y-38485000D01*
G75*
G02*
X75700000Y-38335000I150000J0D01*
G01*
X77350000Y-38335000D01*
G75*
G02*
X77500000Y-38485000I0J-150000D01*
G01*
G37*
G36*
G01*
X77500000Y-39755000D02*
X77500000Y-40055000D01*
G75*
G02*
X77350000Y-40205000I-150000J0D01*
G01*
X75700000Y-40205000D01*
G75*
G02*
X75550000Y-40055000I0J150000D01*
G01*
X75550000Y-39755000D01*
G75*
G02*
X75700000Y-39605000I150000J0D01*
G01*
X77350000Y-39605000D01*
G75*
G02*
X77500000Y-39755000I0J-150000D01*
G01*
G37*
%TD*%
%TO.C,C15*%
G36*
G01*
X88575000Y-40456250D02*
X88575000Y-39543750D01*
G75*
G02*
X88818750Y-39300000I243750J0D01*
G01*
X89306250Y-39300000D01*
G75*
G02*
X89550000Y-39543750I0J-243750D01*
G01*
X89550000Y-40456250D01*
G75*
G02*
X89306250Y-40700000I-243750J0D01*
G01*
X88818750Y-40700000D01*
G75*
G02*
X88575000Y-40456250I0J243750D01*
G01*
G37*
G36*
G01*
X90450000Y-40456250D02*
X90450000Y-39543750D01*
G75*
G02*
X90693750Y-39300000I243750J0D01*
G01*
X91181250Y-39300000D01*
G75*
G02*
X91425000Y-39543750I0J-243750D01*
G01*
X91425000Y-40456250D01*
G75*
G02*
X91181250Y-40700000I-243750J0D01*
G01*
X90693750Y-40700000D01*
G75*
G02*
X90450000Y-40456250I0J243750D01*
G01*
G37*
%TD*%
%TO.C,C10*%
G36*
G01*
X110456250Y-37425000D02*
X109543750Y-37425000D01*
G75*
G02*
X109300000Y-37181250I0J243750D01*
G01*
X109300000Y-36693750D01*
G75*
G02*
X109543750Y-36450000I243750J0D01*
G01*
X110456250Y-36450000D01*
G75*
G02*
X110700000Y-36693750I0J-243750D01*
G01*
X110700000Y-37181250D01*
G75*
G02*
X110456250Y-37425000I-243750J0D01*
G01*
G37*
G36*
G01*
X110456250Y-35550000D02*
X109543750Y-35550000D01*
G75*
G02*
X109300000Y-35306250I0J243750D01*
G01*
X109300000Y-34818750D01*
G75*
G02*
X109543750Y-34575000I243750J0D01*
G01*
X110456250Y-34575000D01*
G75*
G02*
X110700000Y-34818750I0J-243750D01*
G01*
X110700000Y-35306250D01*
G75*
G02*
X110456250Y-35550000I-243750J0D01*
G01*
G37*
%TD*%
%TO.C,C4*%
G36*
G01*
X88326250Y-58225000D02*
X87413750Y-58225000D01*
G75*
G02*
X87170000Y-57981250I0J243750D01*
G01*
X87170000Y-57493750D01*
G75*
G02*
X87413750Y-57250000I243750J0D01*
G01*
X88326250Y-57250000D01*
G75*
G02*
X88570000Y-57493750I0J-243750D01*
G01*
X88570000Y-57981250D01*
G75*
G02*
X88326250Y-58225000I-243750J0D01*
G01*
G37*
G36*
G01*
X88326250Y-56350000D02*
X87413750Y-56350000D01*
G75*
G02*
X87170000Y-56106250I0J243750D01*
G01*
X87170000Y-55618750D01*
G75*
G02*
X87413750Y-55375000I243750J0D01*
G01*
X88326250Y-55375000D01*
G75*
G02*
X88570000Y-55618750I0J-243750D01*
G01*
X88570000Y-56106250D01*
G75*
G02*
X88326250Y-56350000I-243750J0D01*
G01*
G37*
%TD*%
D13*
%TO.C,SW2*%
X87850000Y-17100000D03*
X94150000Y-17100000D03*
X94150000Y-20900000D03*
X87850000Y-20900000D03*
%TD*%
%TO.C,R13*%
G36*
G01*
X53300000Y-48350000D02*
X53300000Y-43650000D01*
G75*
G02*
X53550000Y-43400000I250000J0D01*
G01*
X54200000Y-43400000D01*
G75*
G02*
X54450000Y-43650000I0J-250000D01*
G01*
X54450000Y-48350000D01*
G75*
G02*
X54200000Y-48600000I-250000J0D01*
G01*
X53550000Y-48600000D01*
G75*
G02*
X53300000Y-48350000I0J250000D01*
G01*
G37*
G36*
G01*
X55550000Y-48350000D02*
X55550000Y-43650000D01*
G75*
G02*
X55800000Y-43400000I250000J0D01*
G01*
X56450000Y-43400000D01*
G75*
G02*
X56700000Y-43650000I0J-250000D01*
G01*
X56700000Y-48350000D01*
G75*
G02*
X56450000Y-48600000I-250000J0D01*
G01*
X55800000Y-48600000D01*
G75*
G02*
X55550000Y-48350000I0J250000D01*
G01*
G37*
%TD*%
%TO.C,R10*%
G36*
G01*
X61575000Y-15456250D02*
X61575000Y-14543750D01*
G75*
G02*
X61818750Y-14300000I243750J0D01*
G01*
X62306250Y-14300000D01*
G75*
G02*
X62550000Y-14543750I0J-243750D01*
G01*
X62550000Y-15456250D01*
G75*
G02*
X62306250Y-15700000I-243750J0D01*
G01*
X61818750Y-15700000D01*
G75*
G02*
X61575000Y-15456250I0J243750D01*
G01*
G37*
G36*
G01*
X63450000Y-15456250D02*
X63450000Y-14543750D01*
G75*
G02*
X63693750Y-14300000I243750J0D01*
G01*
X64181250Y-14300000D01*
G75*
G02*
X64425000Y-14543750I0J-243750D01*
G01*
X64425000Y-15456250D01*
G75*
G02*
X64181250Y-15700000I-243750J0D01*
G01*
X63693750Y-15700000D01*
G75*
G02*
X63450000Y-15456250I0J243750D01*
G01*
G37*
%TD*%
%TO.C,C14*%
G36*
G01*
X76413750Y-51375000D02*
X77326250Y-51375000D01*
G75*
G02*
X77570000Y-51618750I0J-243750D01*
G01*
X77570000Y-52106250D01*
G75*
G02*
X77326250Y-52350000I-243750J0D01*
G01*
X76413750Y-52350000D01*
G75*
G02*
X76170000Y-52106250I0J243750D01*
G01*
X76170000Y-51618750D01*
G75*
G02*
X76413750Y-51375000I243750J0D01*
G01*
G37*
G36*
G01*
X76413750Y-53250000D02*
X77326250Y-53250000D01*
G75*
G02*
X77570000Y-53493750I0J-243750D01*
G01*
X77570000Y-53981250D01*
G75*
G02*
X77326250Y-54225000I-243750J0D01*
G01*
X76413750Y-54225000D01*
G75*
G02*
X76170000Y-53981250I0J243750D01*
G01*
X76170000Y-53493750D01*
G75*
G02*
X76413750Y-53250000I243750J0D01*
G01*
G37*
%TD*%
%TO.C,C1*%
G36*
G01*
X87413750Y-51375000D02*
X88326250Y-51375000D01*
G75*
G02*
X88570000Y-51618750I0J-243750D01*
G01*
X88570000Y-52106250D01*
G75*
G02*
X88326250Y-52350000I-243750J0D01*
G01*
X87413750Y-52350000D01*
G75*
G02*
X87170000Y-52106250I0J243750D01*
G01*
X87170000Y-51618750D01*
G75*
G02*
X87413750Y-51375000I243750J0D01*
G01*
G37*
G36*
G01*
X87413750Y-53250000D02*
X88326250Y-53250000D01*
G75*
G02*
X88570000Y-53493750I0J-243750D01*
G01*
X88570000Y-53981250D01*
G75*
G02*
X88326250Y-54225000I-243750J0D01*
G01*
X87413750Y-54225000D01*
G75*
G02*
X87170000Y-53981250I0J243750D01*
G01*
X87170000Y-53493750D01*
G75*
G02*
X87413750Y-53250000I243750J0D01*
G01*
G37*
%TD*%
%TO.C,R2*%
G36*
G01*
X106543750Y-23575000D02*
X107456250Y-23575000D01*
G75*
G02*
X107700000Y-23818750I0J-243750D01*
G01*
X107700000Y-24306250D01*
G75*
G02*
X107456250Y-24550000I-243750J0D01*
G01*
X106543750Y-24550000D01*
G75*
G02*
X106300000Y-24306250I0J243750D01*
G01*
X106300000Y-23818750D01*
G75*
G02*
X106543750Y-23575000I243750J0D01*
G01*
G37*
G36*
G01*
X106543750Y-25450000D02*
X107456250Y-25450000D01*
G75*
G02*
X107700000Y-25693750I0J-243750D01*
G01*
X107700000Y-26181250D01*
G75*
G02*
X107456250Y-26425000I-243750J0D01*
G01*
X106543750Y-26425000D01*
G75*
G02*
X106300000Y-26181250I0J243750D01*
G01*
X106300000Y-25693750D01*
G75*
G02*
X106543750Y-25450000I243750J0D01*
G01*
G37*
%TD*%
%TO.C,C20*%
G36*
G01*
X52456250Y-53425000D02*
X51543750Y-53425000D01*
G75*
G02*
X51300000Y-53181250I0J243750D01*
G01*
X51300000Y-52693750D01*
G75*
G02*
X51543750Y-52450000I243750J0D01*
G01*
X52456250Y-52450000D01*
G75*
G02*
X52700000Y-52693750I0J-243750D01*
G01*
X52700000Y-53181250D01*
G75*
G02*
X52456250Y-53425000I-243750J0D01*
G01*
G37*
G36*
G01*
X52456250Y-51550000D02*
X51543750Y-51550000D01*
G75*
G02*
X51300000Y-51306250I0J243750D01*
G01*
X51300000Y-50818750D01*
G75*
G02*
X51543750Y-50575000I243750J0D01*
G01*
X52456250Y-50575000D01*
G75*
G02*
X52700000Y-50818750I0J-243750D01*
G01*
X52700000Y-51306250D01*
G75*
G02*
X52456250Y-51550000I-243750J0D01*
G01*
G37*
%TD*%
%TO.C,R6*%
G36*
G01*
X73575000Y-15456250D02*
X73575000Y-14543750D01*
G75*
G02*
X73818750Y-14300000I243750J0D01*
G01*
X74306250Y-14300000D01*
G75*
G02*
X74550000Y-14543750I0J-243750D01*
G01*
X74550000Y-15456250D01*
G75*
G02*
X74306250Y-15700000I-243750J0D01*
G01*
X73818750Y-15700000D01*
G75*
G02*
X73575000Y-15456250I0J243750D01*
G01*
G37*
G36*
G01*
X75450000Y-15456250D02*
X75450000Y-14543750D01*
G75*
G02*
X75693750Y-14300000I243750J0D01*
G01*
X76181250Y-14300000D01*
G75*
G02*
X76425000Y-14543750I0J-243750D01*
G01*
X76425000Y-15456250D01*
G75*
G02*
X76181250Y-15700000I-243750J0D01*
G01*
X75693750Y-15700000D01*
G75*
G02*
X75450000Y-15456250I0J243750D01*
G01*
G37*
%TD*%
%TO.C,SW1*%
X75850000Y-17100000D03*
X82150000Y-17100000D03*
X75850000Y-20900000D03*
X82150000Y-20900000D03*
%TD*%
%TO.C,R18*%
G36*
G01*
X53575000Y-56456250D02*
X53575000Y-55543750D01*
G75*
G02*
X53818750Y-55300000I243750J0D01*
G01*
X54306250Y-55300000D01*
G75*
G02*
X54550000Y-55543750I0J-243750D01*
G01*
X54550000Y-56456250D01*
G75*
G02*
X54306250Y-56700000I-243750J0D01*
G01*
X53818750Y-56700000D01*
G75*
G02*
X53575000Y-56456250I0J243750D01*
G01*
G37*
G36*
G01*
X55450000Y-56456250D02*
X55450000Y-55543750D01*
G75*
G02*
X55693750Y-55300000I243750J0D01*
G01*
X56181250Y-55300000D01*
G75*
G02*
X56425000Y-55543750I0J-243750D01*
G01*
X56425000Y-56456250D01*
G75*
G02*
X56181250Y-56700000I-243750J0D01*
G01*
X55693750Y-56700000D01*
G75*
G02*
X55450000Y-56456250I0J243750D01*
G01*
G37*
%TD*%
%TO.C,C7*%
G36*
G01*
X58450000Y-38450000D02*
X58450000Y-39550000D01*
G75*
G02*
X58200000Y-39800000I-250000J0D01*
G01*
X55925000Y-39800000D01*
G75*
G02*
X55675000Y-39550000I0J250000D01*
G01*
X55675000Y-38450000D01*
G75*
G02*
X55925000Y-38200000I250000J0D01*
G01*
X58200000Y-38200000D01*
G75*
G02*
X58450000Y-38450000I0J-250000D01*
G01*
G37*
G36*
G01*
X54325000Y-38450000D02*
X54325000Y-39550000D01*
G75*
G02*
X54075000Y-39800000I-250000J0D01*
G01*
X51800000Y-39800000D01*
G75*
G02*
X51550000Y-39550000I0J250000D01*
G01*
X51550000Y-38450000D01*
G75*
G02*
X51800000Y-38200000I250000J0D01*
G01*
X54075000Y-38200000D01*
G75*
G02*
X54325000Y-38450000I0J-250000D01*
G01*
G37*
%TD*%
%TO.C,R8*%
G36*
G01*
X85575000Y-15456250D02*
X85575000Y-14543750D01*
G75*
G02*
X85818750Y-14300000I243750J0D01*
G01*
X86306250Y-14300000D01*
G75*
G02*
X86550000Y-14543750I0J-243750D01*
G01*
X86550000Y-15456250D01*
G75*
G02*
X86306250Y-15700000I-243750J0D01*
G01*
X85818750Y-15700000D01*
G75*
G02*
X85575000Y-15456250I0J243750D01*
G01*
G37*
G36*
G01*
X87450000Y-15456250D02*
X87450000Y-14543750D01*
G75*
G02*
X87693750Y-14300000I243750J0D01*
G01*
X88181250Y-14300000D01*
G75*
G02*
X88425000Y-14543750I0J-243750D01*
G01*
X88425000Y-15456250D01*
G75*
G02*
X88181250Y-15700000I-243750J0D01*
G01*
X87693750Y-15700000D01*
G75*
G02*
X87450000Y-15456250I0J243750D01*
G01*
G37*
%TD*%
%TO.C,R5*%
G36*
G01*
X89456250Y-37362500D02*
X88543750Y-37362500D01*
G75*
G02*
X88300000Y-37118750I0J243750D01*
G01*
X88300000Y-36631250D01*
G75*
G02*
X88543750Y-36387500I243750J0D01*
G01*
X89456250Y-36387500D01*
G75*
G02*
X89700000Y-36631250I0J-243750D01*
G01*
X89700000Y-37118750D01*
G75*
G02*
X89456250Y-37362500I-243750J0D01*
G01*
G37*
G36*
G01*
X89456250Y-35487500D02*
X88543750Y-35487500D01*
G75*
G02*
X88300000Y-35243750I0J243750D01*
G01*
X88300000Y-34756250D01*
G75*
G02*
X88543750Y-34512500I243750J0D01*
G01*
X89456250Y-34512500D01*
G75*
G02*
X89700000Y-34756250I0J-243750D01*
G01*
X89700000Y-35243750D01*
G75*
G02*
X89456250Y-35487500I-243750J0D01*
G01*
G37*
%TD*%
%TO.C,SW3*%
X105150000Y-17100000D03*
X98850000Y-17100000D03*
X105150000Y-20900000D03*
X98850000Y-20900000D03*
%TD*%
%TO.C,R12*%
G36*
G01*
X71575000Y-28456250D02*
X71575000Y-27543750D01*
G75*
G02*
X71818750Y-27300000I243750J0D01*
G01*
X72306250Y-27300000D01*
G75*
G02*
X72550000Y-27543750I0J-243750D01*
G01*
X72550000Y-28456250D01*
G75*
G02*
X72306250Y-28700000I-243750J0D01*
G01*
X71818750Y-28700000D01*
G75*
G02*
X71575000Y-28456250I0J243750D01*
G01*
G37*
G36*
G01*
X73450000Y-28456250D02*
X73450000Y-27543750D01*
G75*
G02*
X73693750Y-27300000I243750J0D01*
G01*
X74181250Y-27300000D01*
G75*
G02*
X74425000Y-27543750I0J-243750D01*
G01*
X74425000Y-28456250D01*
G75*
G02*
X74181250Y-28700000I-243750J0D01*
G01*
X73693750Y-28700000D01*
G75*
G02*
X73450000Y-28456250I0J243750D01*
G01*
G37*
%TD*%
%TO.C,C12*%
G36*
G01*
X93450000Y-40550000D02*
X94550000Y-40550000D01*
G75*
G02*
X94800000Y-40800000I0J-250000D01*
G01*
X94800000Y-43075000D01*
G75*
G02*
X94550000Y-43325000I-250000J0D01*
G01*
X93450000Y-43325000D01*
G75*
G02*
X93200000Y-43075000I0J250000D01*
G01*
X93200000Y-40800000D01*
G75*
G02*
X93450000Y-40550000I250000J0D01*
G01*
G37*
G36*
G01*
X93450000Y-44675000D02*
X94550000Y-44675000D01*
G75*
G02*
X94800000Y-44925000I0J-250000D01*
G01*
X94800000Y-47200000D01*
G75*
G02*
X94550000Y-47450000I-250000J0D01*
G01*
X93450000Y-47450000D01*
G75*
G02*
X93200000Y-47200000I0J250000D01*
G01*
X93200000Y-44925000D01*
G75*
G02*
X93450000Y-44675000I250000J0D01*
G01*
G37*
%TD*%
%TO.C,R19*%
G36*
G01*
X84456250Y-42425000D02*
X83543750Y-42425000D01*
G75*
G02*
X83300000Y-42181250I0J243750D01*
G01*
X83300000Y-41693750D01*
G75*
G02*
X83543750Y-41450000I243750J0D01*
G01*
X84456250Y-41450000D01*
G75*
G02*
X84700000Y-41693750I0J-243750D01*
G01*
X84700000Y-42181250D01*
G75*
G02*
X84456250Y-42425000I-243750J0D01*
G01*
G37*
G36*
G01*
X84456250Y-40550000D02*
X83543750Y-40550000D01*
G75*
G02*
X83300000Y-40306250I0J243750D01*
G01*
X83300000Y-39818750D01*
G75*
G02*
X83543750Y-39575000I243750J0D01*
G01*
X84456250Y-39575000D01*
G75*
G02*
X84700000Y-39818750I0J-243750D01*
G01*
X84700000Y-40306250D01*
G75*
G02*
X84456250Y-40550000I-243750J0D01*
G01*
G37*
%TD*%
D14*
%TO.C,L1*%
X67000000Y-55850000D03*
X67000000Y-46150000D03*
%TD*%
%TO.C,C13*%
G36*
G01*
X81925000Y-49543750D02*
X81925000Y-50456250D01*
G75*
G02*
X81681250Y-50700000I-243750J0D01*
G01*
X81193750Y-50700000D01*
G75*
G02*
X80950000Y-50456250I0J243750D01*
G01*
X80950000Y-49543750D01*
G75*
G02*
X81193750Y-49300000I243750J0D01*
G01*
X81681250Y-49300000D01*
G75*
G02*
X81925000Y-49543750I0J-243750D01*
G01*
G37*
G36*
G01*
X80050000Y-49543750D02*
X80050000Y-50456250D01*
G75*
G02*
X79806250Y-50700000I-243750J0D01*
G01*
X79318750Y-50700000D01*
G75*
G02*
X79075000Y-50456250I0J243750D01*
G01*
X79075000Y-49543750D01*
G75*
G02*
X79318750Y-49300000I243750J0D01*
G01*
X79806250Y-49300000D01*
G75*
G02*
X80050000Y-49543750I0J-243750D01*
G01*
G37*
%TD*%
%TO.C,R1*%
G36*
G01*
X98543750Y-23575000D02*
X99456250Y-23575000D01*
G75*
G02*
X99700000Y-23818750I0J-243750D01*
G01*
X99700000Y-24306250D01*
G75*
G02*
X99456250Y-24550000I-243750J0D01*
G01*
X98543750Y-24550000D01*
G75*
G02*
X98300000Y-24306250I0J243750D01*
G01*
X98300000Y-23818750D01*
G75*
G02*
X98543750Y-23575000I243750J0D01*
G01*
G37*
G36*
G01*
X98543750Y-25450000D02*
X99456250Y-25450000D01*
G75*
G02*
X99700000Y-25693750I0J-243750D01*
G01*
X99700000Y-26181250D01*
G75*
G02*
X99456250Y-26425000I-243750J0D01*
G01*
X98543750Y-26425000D01*
G75*
G02*
X98300000Y-26181250I0J243750D01*
G01*
X98300000Y-25693750D01*
G75*
G02*
X98543750Y-25450000I243750J0D01*
G01*
G37*
%TD*%
D13*
%TO.C,SW4*%
X63850000Y-17100000D03*
X70150000Y-17100000D03*
X70150000Y-20900000D03*
X63850000Y-20900000D03*
%TD*%
%TO.C,D1*%
G36*
G01*
X101456250Y-26425000D02*
X100543750Y-26425000D01*
G75*
G02*
X100300000Y-26181250I0J243750D01*
G01*
X100300000Y-25693750D01*
G75*
G02*
X100543750Y-25450000I243750J0D01*
G01*
X101456250Y-25450000D01*
G75*
G02*
X101700000Y-25693750I0J-243750D01*
G01*
X101700000Y-26181250D01*
G75*
G02*
X101456250Y-26425000I-243750J0D01*
G01*
G37*
G36*
G01*
X101456250Y-24550000D02*
X100543750Y-24550000D01*
G75*
G02*
X100300000Y-24306250I0J243750D01*
G01*
X100300000Y-23818750D01*
G75*
G02*
X100543750Y-23575000I243750J0D01*
G01*
X101456250Y-23575000D01*
G75*
G02*
X101700000Y-23818750I0J-243750D01*
G01*
X101700000Y-24306250D01*
G75*
G02*
X101456250Y-24550000I-243750J0D01*
G01*
G37*
%TD*%
%TO.C,R15*%
G36*
G01*
X71575000Y-32456250D02*
X71575000Y-31543750D01*
G75*
G02*
X71818750Y-31300000I243750J0D01*
G01*
X72306250Y-31300000D01*
G75*
G02*
X72550000Y-31543750I0J-243750D01*
G01*
X72550000Y-32456250D01*
G75*
G02*
X72306250Y-32700000I-243750J0D01*
G01*
X71818750Y-32700000D01*
G75*
G02*
X71575000Y-32456250I0J243750D01*
G01*
G37*
G36*
G01*
X73450000Y-32456250D02*
X73450000Y-31543750D01*
G75*
G02*
X73693750Y-31300000I243750J0D01*
G01*
X74181250Y-31300000D01*
G75*
G02*
X74425000Y-31543750I0J-243750D01*
G01*
X74425000Y-32456250D01*
G75*
G02*
X74181250Y-32700000I-243750J0D01*
G01*
X73693750Y-32700000D01*
G75*
G02*
X73450000Y-32456250I0J243750D01*
G01*
G37*
%TD*%
%TO.C,C5*%
G36*
G01*
X89413750Y-51375000D02*
X90326250Y-51375000D01*
G75*
G02*
X90570000Y-51618750I0J-243750D01*
G01*
X90570000Y-52106250D01*
G75*
G02*
X90326250Y-52350000I-243750J0D01*
G01*
X89413750Y-52350000D01*
G75*
G02*
X89170000Y-52106250I0J243750D01*
G01*
X89170000Y-51618750D01*
G75*
G02*
X89413750Y-51375000I243750J0D01*
G01*
G37*
G36*
G01*
X89413750Y-53250000D02*
X90326250Y-53250000D01*
G75*
G02*
X90570000Y-53493750I0J-243750D01*
G01*
X90570000Y-53981250D01*
G75*
G02*
X90326250Y-54225000I-243750J0D01*
G01*
X89413750Y-54225000D01*
G75*
G02*
X89170000Y-53981250I0J243750D01*
G01*
X89170000Y-53493750D01*
G75*
G02*
X89413750Y-53250000I243750J0D01*
G01*
G37*
%TD*%
D15*
%TO.C,U6*%
X79100000Y-32950000D03*
X79100000Y-32000000D03*
X79100000Y-31050000D03*
X76900000Y-31050000D03*
X76900000Y-32000000D03*
X76900000Y-32950000D03*
%TD*%
%TO.C,U5*%
X56100000Y-52950000D03*
X56100000Y-52000000D03*
X56100000Y-51050000D03*
X53900000Y-51050000D03*
X53900000Y-52950000D03*
%TD*%
%TO.C,D2*%
G36*
G01*
X105456250Y-26425000D02*
X104543750Y-26425000D01*
G75*
G02*
X104300000Y-26181250I0J243750D01*
G01*
X104300000Y-25693750D01*
G75*
G02*
X104543750Y-25450000I243750J0D01*
G01*
X105456250Y-25450000D01*
G75*
G02*
X105700000Y-25693750I0J-243750D01*
G01*
X105700000Y-26181250D01*
G75*
G02*
X105456250Y-26425000I-243750J0D01*
G01*
G37*
G36*
G01*
X105456250Y-24550000D02*
X104543750Y-24550000D01*
G75*
G02*
X104300000Y-24306250I0J243750D01*
G01*
X104300000Y-23818750D01*
G75*
G02*
X104543750Y-23575000I243750J0D01*
G01*
X105456250Y-23575000D01*
G75*
G02*
X105700000Y-23818750I0J-243750D01*
G01*
X105700000Y-24306250D01*
G75*
G02*
X105456250Y-24550000I-243750J0D01*
G01*
G37*
%TD*%
D16*
%TO.C,U1*%
X84500000Y-22973385D03*
G36*
X83450000Y-22323386D02*
G01*
X83449999Y-23798385D01*
X83866499Y-23798385D01*
X83866499Y-26923385D01*
X82133500Y-26923385D01*
X82133500Y-23798384D01*
X82550000Y-23798384D01*
X82550001Y-22323385D01*
X83450000Y-22323386D01*
G37*
X81500000Y-22973385D03*
%TD*%
%TO.C,C21*%
G36*
G01*
X81456250Y-33425000D02*
X80543750Y-33425000D01*
G75*
G02*
X80300000Y-33181250I0J243750D01*
G01*
X80300000Y-32693750D01*
G75*
G02*
X80543750Y-32450000I243750J0D01*
G01*
X81456250Y-32450000D01*
G75*
G02*
X81700000Y-32693750I0J-243750D01*
G01*
X81700000Y-33181250D01*
G75*
G02*
X81456250Y-33425000I-243750J0D01*
G01*
G37*
G36*
G01*
X81456250Y-31550000D02*
X80543750Y-31550000D01*
G75*
G02*
X80300000Y-31306250I0J243750D01*
G01*
X80300000Y-30818750D01*
G75*
G02*
X80543750Y-30575000I243750J0D01*
G01*
X81456250Y-30575000D01*
G75*
G02*
X81700000Y-30818750I0J-243750D01*
G01*
X81700000Y-31306250D01*
G75*
G02*
X81456250Y-31550000I-243750J0D01*
G01*
G37*
%TD*%
%TO.C,R9*%
G36*
G01*
X96575000Y-15456250D02*
X96575000Y-14543750D01*
G75*
G02*
X96818750Y-14300000I243750J0D01*
G01*
X97306250Y-14300000D01*
G75*
G02*
X97550000Y-14543750I0J-243750D01*
G01*
X97550000Y-15456250D01*
G75*
G02*
X97306250Y-15700000I-243750J0D01*
G01*
X96818750Y-15700000D01*
G75*
G02*
X96575000Y-15456250I0J243750D01*
G01*
G37*
G36*
G01*
X98450000Y-15456250D02*
X98450000Y-14543750D01*
G75*
G02*
X98693750Y-14300000I243750J0D01*
G01*
X99181250Y-14300000D01*
G75*
G02*
X99425000Y-14543750I0J-243750D01*
G01*
X99425000Y-15456250D01*
G75*
G02*
X99181250Y-15700000I-243750J0D01*
G01*
X98693750Y-15700000D01*
G75*
G02*
X98450000Y-15456250I0J243750D01*
G01*
G37*
%TD*%
%TO.C,C16*%
G36*
G01*
X58543750Y-41575000D02*
X59456250Y-41575000D01*
G75*
G02*
X59700000Y-41818750I0J-243750D01*
G01*
X59700000Y-42306250D01*
G75*
G02*
X59456250Y-42550000I-243750J0D01*
G01*
X58543750Y-42550000D01*
G75*
G02*
X58300000Y-42306250I0J243750D01*
G01*
X58300000Y-41818750D01*
G75*
G02*
X58543750Y-41575000I243750J0D01*
G01*
G37*
G36*
G01*
X58543750Y-43450000D02*
X59456250Y-43450000D01*
G75*
G02*
X59700000Y-43693750I0J-243750D01*
G01*
X59700000Y-44181250D01*
G75*
G02*
X59456250Y-44425000I-243750J0D01*
G01*
X58543750Y-44425000D01*
G75*
G02*
X58300000Y-44181250I0J243750D01*
G01*
X58300000Y-43693750D01*
G75*
G02*
X58543750Y-43450000I243750J0D01*
G01*
G37*
%TD*%
%TO.C,C19*%
G36*
G01*
X73543750Y-37575000D02*
X74456250Y-37575000D01*
G75*
G02*
X74700000Y-37818750I0J-243750D01*
G01*
X74700000Y-38306250D01*
G75*
G02*
X74456250Y-38550000I-243750J0D01*
G01*
X73543750Y-38550000D01*
G75*
G02*
X73300000Y-38306250I0J243750D01*
G01*
X73300000Y-37818750D01*
G75*
G02*
X73543750Y-37575000I243750J0D01*
G01*
G37*
G36*
G01*
X73543750Y-39450000D02*
X74456250Y-39450000D01*
G75*
G02*
X74700000Y-39693750I0J-243750D01*
G01*
X74700000Y-40181250D01*
G75*
G02*
X74456250Y-40425000I-243750J0D01*
G01*
X73543750Y-40425000D01*
G75*
G02*
X73300000Y-40181250I0J243750D01*
G01*
X73300000Y-39693750D01*
G75*
G02*
X73543750Y-39450000I243750J0D01*
G01*
G37*
%TD*%
%TO.C,R7*%
G36*
G01*
X79075000Y-47456250D02*
X79075000Y-46543750D01*
G75*
G02*
X79318750Y-46300000I243750J0D01*
G01*
X79806250Y-46300000D01*
G75*
G02*
X80050000Y-46543750I0J-243750D01*
G01*
X80050000Y-47456250D01*
G75*
G02*
X79806250Y-47700000I-243750J0D01*
G01*
X79318750Y-47700000D01*
G75*
G02*
X79075000Y-47456250I0J243750D01*
G01*
G37*
G36*
G01*
X80950000Y-47456250D02*
X80950000Y-46543750D01*
G75*
G02*
X81193750Y-46300000I243750J0D01*
G01*
X81681250Y-46300000D01*
G75*
G02*
X81925000Y-46543750I0J-243750D01*
G01*
X81925000Y-47456250D01*
G75*
G02*
X81681250Y-47700000I-243750J0D01*
G01*
X81193750Y-47700000D01*
G75*
G02*
X80950000Y-47456250I0J243750D01*
G01*
G37*
%TD*%
%TO.C,R14*%
G36*
G01*
X74425000Y-29543750D02*
X74425000Y-30456250D01*
G75*
G02*
X74181250Y-30700000I-243750J0D01*
G01*
X73693750Y-30700000D01*
G75*
G02*
X73450000Y-30456250I0J243750D01*
G01*
X73450000Y-29543750D01*
G75*
G02*
X73693750Y-29300000I243750J0D01*
G01*
X74181250Y-29300000D01*
G75*
G02*
X74425000Y-29543750I0J-243750D01*
G01*
G37*
G36*
G01*
X72550000Y-29543750D02*
X72550000Y-30456250D01*
G75*
G02*
X72306250Y-30700000I-243750J0D01*
G01*
X71818750Y-30700000D01*
G75*
G02*
X71575000Y-30456250I0J243750D01*
G01*
X71575000Y-29543750D01*
G75*
G02*
X71818750Y-29300000I243750J0D01*
G01*
X72306250Y-29300000D01*
G75*
G02*
X72550000Y-29543750I0J-243750D01*
G01*
G37*
%TD*%
%TO.C,R17*%
G36*
G01*
X71575000Y-36456250D02*
X71575000Y-35543750D01*
G75*
G02*
X71818750Y-35300000I243750J0D01*
G01*
X72306250Y-35300000D01*
G75*
G02*
X72550000Y-35543750I0J-243750D01*
G01*
X72550000Y-36456250D01*
G75*
G02*
X72306250Y-36700000I-243750J0D01*
G01*
X71818750Y-36700000D01*
G75*
G02*
X71575000Y-36456250I0J243750D01*
G01*
G37*
G36*
G01*
X73450000Y-36456250D02*
X73450000Y-35543750D01*
G75*
G02*
X73693750Y-35300000I243750J0D01*
G01*
X74181250Y-35300000D01*
G75*
G02*
X74425000Y-35543750I0J-243750D01*
G01*
X74425000Y-36456250D01*
G75*
G02*
X74181250Y-36700000I-243750J0D01*
G01*
X73693750Y-36700000D01*
G75*
G02*
X73450000Y-36456250I0J243750D01*
G01*
G37*
%TD*%
D17*
%TO.C,D3*%
X71310000Y-42950000D03*
X71310000Y-41050000D03*
X68690000Y-42000000D03*
%TD*%
%TO.C,C17*%
G36*
G01*
X88575000Y-32456250D02*
X88575000Y-31543750D01*
G75*
G02*
X88818750Y-31300000I243750J0D01*
G01*
X89306250Y-31300000D01*
G75*
G02*
X89550000Y-31543750I0J-243750D01*
G01*
X89550000Y-32456250D01*
G75*
G02*
X89306250Y-32700000I-243750J0D01*
G01*
X88818750Y-32700000D01*
G75*
G02*
X88575000Y-32456250I0J243750D01*
G01*
G37*
G36*
G01*
X90450000Y-32456250D02*
X90450000Y-31543750D01*
G75*
G02*
X90693750Y-31300000I243750J0D01*
G01*
X91181250Y-31300000D01*
G75*
G02*
X91425000Y-31543750I0J-243750D01*
G01*
X91425000Y-32456250D01*
G75*
G02*
X91181250Y-32700000I-243750J0D01*
G01*
X90693750Y-32700000D01*
G75*
G02*
X90450000Y-32456250I0J243750D01*
G01*
G37*
%TD*%
%TO.C,C11*%
G36*
G01*
X87425000Y-27981250D02*
X87425000Y-28893750D01*
G75*
G02*
X87181250Y-29137500I-243750J0D01*
G01*
X86693750Y-29137500D01*
G75*
G02*
X86450000Y-28893750I0J243750D01*
G01*
X86450000Y-27981250D01*
G75*
G02*
X86693750Y-27737500I243750J0D01*
G01*
X87181250Y-27737500D01*
G75*
G02*
X87425000Y-27981250I0J-243750D01*
G01*
G37*
G36*
G01*
X85550000Y-27981250D02*
X85550000Y-28893750D01*
G75*
G02*
X85306250Y-29137500I-243750J0D01*
G01*
X84818750Y-29137500D01*
G75*
G02*
X84575000Y-28893750I0J243750D01*
G01*
X84575000Y-27981250D01*
G75*
G02*
X84818750Y-27737500I243750J0D01*
G01*
X85306250Y-27737500D01*
G75*
G02*
X85550000Y-27981250I0J-243750D01*
G01*
G37*
%TD*%
%TO.C,C9*%
G36*
G01*
X95543750Y-28575000D02*
X96456250Y-28575000D01*
G75*
G02*
X96700000Y-28818750I0J-243750D01*
G01*
X96700000Y-29306250D01*
G75*
G02*
X96456250Y-29550000I-243750J0D01*
G01*
X95543750Y-29550000D01*
G75*
G02*
X95300000Y-29306250I0J243750D01*
G01*
X95300000Y-28818750D01*
G75*
G02*
X95543750Y-28575000I243750J0D01*
G01*
G37*
G36*
G01*
X95543750Y-30450000D02*
X96456250Y-30450000D01*
G75*
G02*
X96700000Y-30693750I0J-243750D01*
G01*
X96700000Y-31181250D01*
G75*
G02*
X96456250Y-31425000I-243750J0D01*
G01*
X95543750Y-31425000D01*
G75*
G02*
X95300000Y-31181250I0J243750D01*
G01*
X95300000Y-30693750D01*
G75*
G02*
X95543750Y-30450000I243750J0D01*
G01*
G37*
%TD*%
M02*
